<?xml version="1.0" standalone="no"?>
<!DOCTYPE svg PUBLIC "-//W3C//DTD SVG 1.1//EN" "http://www.w3.org/Graphics/SVG/1.1/DTD/svg11.dtd" >
<svg xmlns="http://www.w3.org/2000/svg" xmlns:xlink="http://www.w3.org/1999/xlink" version="1.1">
<metadata>
Created by FontForge 20170731 at Wed Jan 14 10:07:58 2015
 By Aleksey,,,
(c) 2014 Apple Inc. All rights reserved.
</metadata>
<defs>
<font id="SanFranciscoDisplay-Heavy" horiz-adv-x="1131" >
  <font-face 
    font-family="San Francisco Display ExtBd"
    font-weight="800"
    font-stretch="normal"
    units-per-em="2048"
    panose-1="0 0 0 0 0 0 0 0 0 0"
    ascent="1638"
    descent="-410"
    x-height="1071"
    cap-height="1365"
    bbox="-700 -531 2104 2030"
    underline-thickness="50"
    underline-position="-125"
    unicode-range="U+000D-FB02"
  />
<missing-glyph horiz-adv-x="1293" 
d="M120 0v1365h1053v-1365h-1053zM501 313q0 -47 33.5 -77t86.5 -30q55 0 88.5 29.5t33.5 77.5q0 49 -33.5 78.5t-88.5 29.5q-54 0 -87 -30t-33 -78zM339 888h169q1 59 34.5 94.5t90.5 35.5q54 0 87 -30t33 -80q0 -38 -20.5 -65.5t-82.5 -72.5q-69 -48 -96 -100t-22 -121
l1 -18h166v15q0 48 19 76t88 77q73 52 103 102t30 116q0 113 -81 181.5t-215 68.5q-143 0 -225.5 -76t-78.5 -203z" />
    <glyph glyph-name=".notdef" horiz-adv-x="1293" 
d="M120 0v1365h1053v-1365h-1053zM501 313q0 -47 33.5 -77t86.5 -30q55 0 88.5 29.5t33.5 77.5q0 49 -33.5 78.5t-88.5 29.5q-54 0 -87 -30t-33 -78zM339 888h169q1 59 34.5 94.5t90.5 35.5q54 0 87 -30t33 -80q0 -38 -20.5 -65.5t-82.5 -72.5q-69 -48 -96 -100t-22 -121
l1 -18h166v15q0 48 19 76t88 77q73 52 103 102t30 116q0 113 -81 181.5t-215 68.5q-143 0 -225.5 -76t-78.5 -203z" />
    <glyph glyph-name=".null" horiz-adv-x="0" 
 />
    <glyph glyph-name="nonmarkingreturn" horiz-adv-x="682" 
 />
    <glyph glyph-name="CR" unicode="&#xd;" horiz-adv-x="0" 
 />
    <glyph glyph-name="space" unicode=" " horiz-adv-x="396" 
 />
    <glyph glyph-name="exclam" unicode="!" horiz-adv-x="592" 
d="M95 142q0 75 54 119.5t148 44.5t148 -44.5t54 -119.5t-54 -119.5t-148 -44.5q-93 0 -147.5 44.5t-54.5 119.5zM108 1365h378l-41 -942h-298z" />
    <glyph glyph-name="quotedbl" unicode="&#x22;" horiz-adv-x="1106" 
d="M83 1365h375l-42 -605h-290zM647 1365h375l-42 -605h-290z" />
    <glyph glyph-name="numbersign" unicode="#" horiz-adv-x="1265" 
d="M1194 789h-200l-38 -196h193l-46 -245h-195l-69 -348h-257l69 348h-177l-70 -348h-256l69 348h-188l46 245h189l40 196h-184l45 245h187l65 331h258l-67 -331h178l65 331h257l-65 -331h196zM537 823l-52 -264h238l51 264h-237z" />
    <glyph glyph-name="dollar" unicode="$" horiz-adv-x="1243" 
d="M399 1009q0 -106 130 -147q10 -4 23 -7v303q-68 -8 -110.5 -47.5t-42.5 -101.5zM877 388q0 117 -149 159q-2 0 -8.5 1.5t-9.5 2.5v-325q75 6 121 50t46 112zM713 -129h-168l1 125q-99 7 -178.5 34t-131.5 66.5t-87 91.5t-50.5 105.5t-16.5 110.5h282q3 -68 51.5 -117.5
t136.5 -61.5v353l-89 19q-157 34 -256.5 131t-99.5 258q0 174 123 277.5t317 121.5v128h168v-129q193 -22 308 -131.5t117 -266.5h-274q-2 60 -43.5 109t-112.5 62v-331l86 -19q370 -74 370 -389q0 -177 -121.5 -288.5t-332.5 -132.5z" />
    <glyph glyph-name="percent" unicode="%" horiz-adv-x="1377" 
d="M192 1044v-13q0 -81 28 -123t72 -42t71.5 41.5t27.5 122.5v13q0 82 -27 122.5t-72 40.5t-72.5 -40.5t-27.5 -121.5zM-15 1021v33q0 145 84.5 237.5t224.5 92.5t222.5 -92t82.5 -238v-34q0 -139 -82.5 -235.5t-227.5 -96.5q-140 0 -222 93.5t-82 239.5zM992 336v-13
q0 -81 28 -122.5t72 -41.5t71.5 41t27.5 122v14q0 81 -27 121.5t-71 40.5q-46 0 -73.5 -40.5t-27.5 -121.5zM785 313v34q0 145 84.5 237t225.5 92q140 0 222.5 -91.5t82.5 -238.5v-34q0 -139 -82.5 -235.5t-227.5 -96.5q-140 0 -222.5 93.5t-82.5 239.5zM280 -1h-243
l578 734l480 632h243l-564 -715z" />
    <glyph glyph-name="ampersand" unicode="&#x26;" horiz-adv-x="1399" 
d="M1048 0l-94 99q-68 -58 -175 -92.5t-238 -34.5q-226 0 -356 103.5t-130 276.5q0 121 63 205t179 150q33 19 69 36q-86 88 -127.5 158t-41.5 152q0 95 56 169.5t148.5 114t204.5 39.5q75 0 144.5 -19t127 -56.5t92 -99.5t34.5 -140q0 -64 -22.5 -120t-63 -99.5t-83 -75.5
t-97.5 -62l216 -234q39 67 39 204v88h270v-112q0 -105 -30 -205.5t-87 -173.5l262 -271h-360zM479 558q-117 -67 -117 -178q0 -82 60.5 -129t153.5 -47q61 0 119 20.5t91 57.5l-274 293q-22 -10 -33 -17zM590 851q72 37 109.5 80.5t37.5 102.5q0 60 -37 96t-93 36
q-57 0 -94.5 -37t-37.5 -94q0 -43 25.5 -83t89.5 -101z" />
    <glyph glyph-name="quotesingle" unicode="'" horiz-adv-x="541" 
d="M83 1365h375l-42 -605h-290z" />
    <glyph glyph-name="parenleft" unicode="(" horiz-adv-x="727" 
d="M365 1363h328q-35 -40 -71 -104t-75.5 -161.5t-64 -237t-24.5 -292.5q0 -124 17.5 -240.5t38.5 -194.5t59.5 -166t59 -125.5t58.5 -103.5h-334q-46 57 -85.5 125.5t-81 170t-65.5 239.5t-24 293q0 127 17 238t40.5 187.5t63 152.5t69 119t74.5 100z" />
    <glyph glyph-name="parenright" unicode=")" horiz-adv-x="727" 
d="M34 1363h327q45 -57 75 -100t70 -119t63.5 -152.5t40.5 -187.5t17 -238q0 -155 -24 -293t-65.5 -239.5t-81.5 -170.5t-86 -125h-334q38 66 58.5 103.5t59 125.5t59.5 166t38.5 194.5t17.5 240.5q0 153 -24.5 292.5t-64 237t-75.5 161.5t-71 104z" />
    <glyph glyph-name="asterisk" unicode="*" horiz-adv-x="805" 
d="M495 694h-185l35 212l-171 -133l-93 158l204 79l-204 80l93 159l173 -139l-37 218h185l-37 -218l174 139l92 -158l-204 -81l204 -79l-92 -158l-172 134z" />
    <glyph glyph-name="plus" unicode="+" horiz-adv-x="1243" 
d="M776 411v-403h-304v403h-381v296h381v394h304v-394h382v-296h-382z" />
    <glyph glyph-name="comma" unicode="," horiz-adv-x="471" 
d="M263 -286h-267l87 619h328z" />
    <glyph glyph-name="hyphen" unicode="-" horiz-adv-x="789" 
d="M710 406h-630v308h630v-308z" />
    <glyph glyph-name="period" unicode="." horiz-adv-x="579" 
d="M94 167q0 85 55.5 136t139.5 51q85 0 141 -51.5t56 -135.5q0 -85 -56 -135.5t-141 -50.5q-83 0 -139 50.5t-56 135.5z" />
    <glyph glyph-name="slash" unicode="/" horiz-adv-x="681" 
d="M284 -278h-312l433 1715h313z" />
    <glyph glyph-name="zero" unicode="0" horiz-adv-x="1224" 
d="M421 725v-82q0 -191 51.5 -287.5t139.5 -96.5t139.5 97t51.5 287v82q0 189 -51.5 284.5t-139.5 95.5t-139.5 -95t-51.5 -285zM62 642v84q0 300 147.5 481.5t406.5 181.5q260 0 403 -180t143 -483v-84q0 -139 -35 -258t-102 -211t-174 -144.5t-243 -52.5q-173 0 -297.5 85
t-186.5 234t-62 347z" />
    <glyph glyph-name="one" unicode="1" horiz-adv-x="872" 
d="M744 0h-355v1041h-16q-30 -16 -306 -204v313q20 15 164 110.5t161 104.5h352v-1365z" />
    <glyph glyph-name="two" unicode="2" horiz-adv-x="1172" 
d="M410 930h-336v20q0 64 18 126t58 119t97 100t142 68.5t186 25.5q227 0 366 -111t139 -280q0 -37 -7 -73.5t-15.5 -64t-27.5 -60.5t-31 -52t-40 -51.5t-39.5 -45t-44.5 -45.5t-41 -42l-255 -270v-13h524v-281h-1004v220l481 491q35 35 54.5 56.5t45 56t37.5 68.5t12 70
q0 62 -46 106t-115 44q-72 0 -115.5 -46.5t-43.5 -112.5q0 -4 0.5 -12.5t0.5 -10.5z" />
    <glyph glyph-name="three" unicode="3" horiz-adv-x="1198" 
d="M433 572v260h146q81 0 129 42t48 109q0 61 -49.5 102t-125.5 41q-80 0 -128.5 -48.5t-50.5 -111.5h-331q7 194 145 308.5t380 114.5q142 0 257.5 -44.5t182.5 -127.5t68 -189q0 -69 -23.5 -126t-61.5 -92t-79 -55.5t-82 -25.5v-17q52 -4 101 -25.5t90.5 -60t67 -101.5
t25.5 -140q0 -125 -79 -220t-205 -142.5t-276 -47.5q-131 0 -233.5 35t-165.5 95t-95.5 136t-33.5 163h326q4 -70 63 -115t147 -45q89 0 143 47t54 118q0 70 -53 116.5t-148 46.5h-153z" />
    <glyph glyph-name="four" unicode="4" horiz-adv-x="1242" 
d="M534 1365h507v-863h156v-277h-156v-225h-333v225h-657v281q42 83 87 166.5t104 187.5t89.5 157.5t107.5 185t95 162.5zM358 502h350v611h-15q-227 -383 -335 -607v-4z" />
    <glyph glyph-name="five" unicode="5" horiz-adv-x="1228" 
d="M91 389h323q10 -62 66.5 -101.5t140.5 -39.5q87 0 147.5 58t60.5 151q0 91 -58.5 149t-149.5 58q-73 0 -123 -33.5t-70 -76.5h-319l56 811h912v-278h-632l-25 -282h15q29 43 103 80t188 37q88 0 169 -30.5t143.5 -86.5t99.5 -142t37 -189q0 -230 -154.5 -364t-402.5 -134
q-243 0 -384 118t-143 295z" />
    <glyph glyph-name="six" unicode="6" horiz-adv-x="1202" 
d="M1113 1005h-327q-8 48 -53 81t-108 33t-110 -35.5t-72.5 -95t-36.5 -130.5t-7 -149h17q14 35 36.5 65.5t58 61t90 48.5t120.5 18q84 0 160 -29.5t134 -84t92.5 -139.5t34.5 -189q0 -151 -70 -262.5t-186 -166.5t-262 -55q-263 0 -410.5 182.5t-147.5 511.5
q0 339 149.5 528.5t415.5 189.5q114 0 207.5 -35.5t150.5 -92.5t89 -122.5t35 -132.5zM437 448q0 -91 52 -146.5t134 -55.5q80 0 131.5 55t51.5 147q0 90 -52 146t-132 56q-81 0 -133 -56.5t-52 -145.5z" />
    <glyph glyph-name="seven" unicode="7" horiz-adv-x="1128" 
d="M54 1365h1008v-286l-549 -1079h-376l570 1072v12h-653v281z" />
    <glyph glyph-name="eight" unicode="8" horiz-adv-x="1255" 
d="M628 216q91 0 152 53t61 138q0 84 -61 137.5t-152 53.5t-152 -53.5t-61 -137.5q0 -85 61 -138t152 -53zM628 820q76 0 126 46t50 118t-50 117.5t-126 45.5t-126 -45.5t-50 -117.5t50 -118t126 -46zM627 -24q-264 0 -417 111t-153 291q0 78 27 141t71.5 101.5t94 61.5
t103.5 32v13q-242 71 -242 304q0 157 140.5 257.5t376.5 100.5t376 -100.5t140 -257.5q0 -123 -65.5 -197t-175.5 -107v-13q54 -9 103 -32t94 -62t72 -101.5t27 -140.5q0 -180 -154.5 -291t-417.5 -111z" />
    <glyph glyph-name="nine" unicode="9" horiz-adv-x="1202" 
d="M88 362h325q9 -51 55.5 -84t111.5 -33q66 0 114.5 37.5t73.5 99t34.5 132t4.5 145.5h-18q-22 -78 -99 -134.5t-207 -56.5q-177 0 -298 117t-121 322q0 114 41 206.5t112 152t164 91t198 31.5q267 0 414 -180.5t147 -517.5q0 -332 -148 -523t-417 -191q-115 0 -210 35.5
t-153 93t-90 124t-34 133.5zM769 917q0 92 -51 147t-133 55q-81 0 -133 -54.5t-52 -146.5q0 -91 51 -145t132 -54t133.5 56.5t52.5 141.5z" />
    <glyph glyph-name="colon" unicode=":" horiz-adv-x="591" 
d="M99 817q0 86 55.5 136.5t139.5 50.5t140 -51t56 -136t-56 -135.5t-140 -50.5t-139.5 50.5t-55.5 135.5zM99 167q0 86 55.5 136.5t139.5 50.5t140 -51t56 -136t-56 -135.5t-140 -50.5t-139.5 50.5t-55.5 135.5z" />
    <glyph glyph-name="semicolon" unicode=";" horiz-adv-x="587" 
d="M105 817q0 86 55.5 136.5t139.5 50.5t140 -51t56 -136t-56 -135.5t-140 -50.5t-139.5 50.5t-55.5 135.5zM330 -362h-269l75 619h327z" />
    <glyph glyph-name="less" unicode="&#x3c;" horiz-adv-x="1243" 
d="M128 438v204l980 510v-339l-566 -260v-15l566 -263v-331z" />
    <glyph glyph-name="equal" unicode="=" horiz-adv-x="1243" 
d="M1130 183h-1016v270h1016v-270zM1130 656h-1016v271h1016v-271z" />
    <glyph glyph-name="greater" unicode="&#x3e;" horiz-adv-x="1243" 
d="M1108 642v-204l-980 -494v331l567 263v15l-567 260v339z" />
    <glyph glyph-name="question" unicode="?" horiz-adv-x="1003" 
d="M267 142q0 75 54.5 119.5t147.5 44.5q94 0 148.5 -44.5t54.5 -119.5t-54.5 -119.5t-148.5 -44.5q-93 0 -147.5 44.5t-54.5 119.5zM23 968q-6 107 32 190t108 132t157 74t187 25q133 0 238.5 -41.5t171 -129.5t65.5 -212q0 -64 -16.5 -115.5t-50 -90t-62.5 -61.5t-75 -53
q-100 -64 -132.5 -101.5t-32.5 -111.5v-45h-303l-2 38q-13 116 28.5 198t138.5 141q44 28 65.5 43t46.5 38t34.5 47.5t9.5 54.5q0 66 -42.5 100.5t-102.5 34.5q-69 0 -108 -43.5t-41 -111.5h-314z" />
    <glyph glyph-name="at" unicode="@" horiz-adv-x="1746" 
d="M1300 133q-89 0 -164.5 38.5t-96.5 111.5h-9q-21 -73 -86 -111t-150 -38q-134 0 -213.5 87.5t-79.5 241.5v126q0 145 79 232.5t213 87.5q95 0 150 -43.5t71 -103.5h8v132h220v-504q0 -42 25 -66.5t64 -24.5q55 0 96 80t41 234v25q0 109 -40 206t-112 168t-178.5 112.5
t-233.5 41.5h-9q-273 0 -437 -168.5t-164 -449.5v-33q0 -124 32 -226t86.5 -171t129.5 -116t158.5 -68t175.5 -21h11q173 0 259 39v-175q-87 -39 -275 -39h-10q-167 0 -307.5 51t-243.5 147.5t-161 243t-58 329.5v46q0 176 58.5 323.5t163.5 249.5t254.5 159t327.5 57h8
q177 0 323.5 -57t241.5 -153.5t146.5 -222t51.5 -265.5v-48q0 -206 -96.5 -335.5t-269.5 -129.5zM742 499q0 -176 127 -176q122 0 122 162v85q0 80 -35.5 117t-88.5 37q-125 0 -125 -175v-50z" />
    <glyph glyph-name="A" unicode="A" horiz-adv-x="1315" 
d="M361 0h-356l432 1365h443l429 -1365h-382l-79 296h-407zM655 1053h-17l-133 -500h281z" />
    <glyph glyph-name="B" unicode="B" horiz-adv-x="1292" 
d="M127 0v1365h622q193 0 310 -89t117 -246q0 -127 -71.5 -203t-176.5 -94v-16q58 -4 111.5 -25.5t99 -60.5t73 -102t27.5 -141q0 -122 -65.5 -211.5t-171.5 -133t-237 -43.5h-638zM482 1117v-301h150q97 0 146 41t49 111t-46 109.5t-126 39.5h-173zM482 593v-345h166
q110 0 168.5 44.5t58.5 127.5q0 81 -53 127t-152 46h-188z" />
    <glyph glyph-name="C" unicode="C" horiz-adv-x="1308" 
d="M438 750v-139q0 -168 63 -254.5t178 -86.5q106 0 164 68.5t58 174.5h341v-47q0 -213 -156.5 -351.5t-411.5 -138.5q-286 0 -444 169.5t-158 467.5v137q0 299 158 469t444 170q254 0 411 -139.5t157 -358.5v-45h-341q0 107 -59 178t-165 71q-113 0 -176 -88.5t-63 -256.5z
" />
    <glyph glyph-name="D" unicode="D" horiz-adv-x="1362" 
d="M127 1365h554q162 0 282.5 -48t193.5 -139t108.5 -212.5t35.5 -276.5q0 -156 -35.5 -280t-109 -216.5t-194 -142.5t-281.5 -50h-554v1365zM486 1084v-803h135q73 0 125.5 16.5t97 58.5t67.5 123t23 201q0 69 -8 125t-29 109.5t-55.5 89.5t-90.5 58t-130 22h-135z" />
    <glyph glyph-name="E" unicode="E" horiz-adv-x="1154" 
d="M1062 281v-281h-935v1365h935v-281h-580v-270h543v-258h-543v-275h580z" />
    <glyph glyph-name="F" unicode="F" horiz-adv-x="1105" 
d="M486 0h-359v1365h929v-285h-570v-304h517v-275h-517v-501z" />
    <glyph glyph-name="G" unicode="G" horiz-adv-x="1333" 
d="M1260 908h-346q-10 85 -71 137.5t-158 52.5q-119 0 -185 -85.5t-66 -249.5v-154q0 -342 258 -342q108 0 170 58t62 140v45h-216v247h553v-263q0 -76 -19 -148t-63 -140t-109 -118.5t-164.5 -81t-221.5 -30.5q-158 0 -278 49.5t-191.5 137t-107 199t-35.5 245.5v160
q0 184 70.5 323.5t211 219t334.5 79.5q139 0 250.5 -41.5t179.5 -110.5t104 -153t38 -176z" />
    <glyph glyph-name="H" unicode="H" horiz-adv-x="1440" 
d="M1312 0h-358v545h-468v-545h-359v1365h359v-532h468v532h358v-1365z" />
    <glyph glyph-name="I" unicode="I" horiz-adv-x="613" 
d="M486 0h-359v1365h359v-1365z" />
    <glyph glyph-name="J" unicode="J" horiz-adv-x="1154" 
d="M26 459h343q1 -78 43.5 -123.5t112.5 -45.5q155 0 155 182v893h359v-894q0 -244 -135 -369.5t-375 -125.5q-127 0 -226 40.5t-158 109t-89 153t-30 180.5z" />
    <glyph glyph-name="K" unicode="K" horiz-adv-x="1325" 
d="M1328 1365l-467 -594l483 -771h-420l-325 536l-113 -136v-400h-359v1365h359v-566h16l446 566h380z" />
    <glyph glyph-name="L" unicode="L" horiz-adv-x="1046" 
d="M1019 297v-297h-892v1365h359v-1068h533z" />
    <glyph glyph-name="M" unicode="M" horiz-adv-x="1673" 
d="M446 0h-318v1365h372l332 -721h12l332 721h369v-1365h-322v819h-16l-271 -596h-201l-273 596h-16v-819z" />
    <glyph glyph-name="N" unicode="N" horiz-adv-x="1398" 
d="M459 0h-332v1365h278l521 -762h14v762h331v-1365h-276l-523 771h-13v-771z" />
    <glyph glyph-name="O" unicode="O" horiz-adv-x="1383" 
d="M438 759v-157q0 -164 68 -251t186 -87q117 0 185 87t68 251v157q0 165 -68 253t-185 88t-185.5 -88t-68.5 -253zM72 604v150q0 294 163.5 464.5t456.5 170.5t456 -171t163 -464v-150q0 -291 -162.5 -459.5t-457.5 -168.5q-293 0 -456 168.5t-163 459.5z" />
    <glyph glyph-name="P" unicode="P" horiz-adv-x="1242" 
d="M127 1365h592q118 0 211.5 -39t152.5 -106t90 -153t31 -185q0 -100 -31.5 -185.5t-91 -151t-154 -102.5t-213.5 -37h-229v-406h-358v1365zM483 1094v-423h121q114 0 176 51.5t62 159.5q0 102 -56.5 157t-155.5 55h-147z" />
    <glyph glyph-name="Q" unicode="Q" horiz-adv-x="1389" 
d="M76 608v145q0 290 167.5 463t452.5 173t452.5 -174t167.5 -462v-145q0 -309 -192 -482l160 -245h-335l-78 118q-81 -23 -175 -23q-285 0 -452.5 172t-167.5 460zM426 756v-156q0 -174 70 -266.5t188 -97.5q21 0 36 7l-121 187h299l26 -36q42 86 42 206v156q0 166 -74 256
t-196 90t-196 -90t-74 -256z" />
    <glyph glyph-name="R" unicode="R" horiz-adv-x="1304" 
d="M720 1365q250 0 382.5 -124t132.5 -330q0 -80 -25 -149.5t-64.5 -115.5t-77.5 -75.5t-76 -45.5l271 -525h-395l-228 477h-161v-477h-352v1365h593zM479 725h185q91 0 146.5 47.5t55.5 137.5q0 91 -57 141t-143 50h-187v-376z" />
    <glyph glyph-name="S" unicode="S" horiz-adv-x="1254" 
d="M58 405h339q4 -66 65.5 -113t168.5 -47q103 0 155 39t52 102q0 58 -47.5 89t-151.5 52l-184 37q-370 73 -370 394q0 135 70 233.5t192 148.5t281 50q127 0 230 -34t169 -92t102 -134t36 -162h-328q-3 63 -57.5 109.5t-151.5 46.5q-90 0 -138.5 -37.5t-48.5 -99.5
q0 -97 181 -130l191 -36q377 -68 377 -398q0 -205 -148.5 -326t-421.5 -121q-123 0 -221.5 25.5t-160.5 67t-103.5 98.5t-58.5 115.5t-18 122.5z" />
    <glyph glyph-name="T" unicode="T" horiz-adv-x="1107" 
d="M732 0h-358v1074h-364v291h1086v-291h-364v-1074z" />
    <glyph glyph-name="U" unicode="U" horiz-adv-x="1389" 
d="M470 1365v-847q0 -121 60.5 -183t163.5 -62t163.5 62.5t60.5 182.5v847h359v-893q0 -226 -157.5 -361t-425.5 -135q-267 0 -424.5 135.5t-157.5 361.5v892h358z" />
    <glyph glyph-name="V" unicode="V" horiz-adv-x="1300" 
d="M882 0h-458l-424 1365h418l238 -986h16l233 986h394z" />
    <glyph glyph-name="W" unicode="W" horiz-adv-x="1817" 
d="M681 0h-335l-346 1364h375l161 -887h15l215 887h287l214 -887h17l158 887h375l-345 -1364h-336l-221 831h-12z" />
    <glyph glyph-name="X" unicode="X" horiz-adv-x="1242" 
d="M1272 1365l-417 -681l414 -684h-402l-244 431h-14l-243 -431h-381l401 687l-401 678h419l227 -445h15l226 445h400z" />
    <glyph glyph-name="Y" unicode="Y" horiz-adv-x="1210" 
d="M784 0h-358v455l-457 910h391l245 -554h12l246 554h378l-457 -900v-465z" />
    <glyph glyph-name="Z" unicode="Z" horiz-adv-x="1204" 
d="M85 0v227l595 839v16h-585v283h1014v-227l-594 -838v-17h616v-283h-1046z" />
    <glyph glyph-name="bracketleft" unicode="[" horiz-adv-x="780" 
d="M101 1365h615v-252h-283v-1090h296v-251h-628v1593z" />
    <glyph glyph-name="backslash" unicode="\" horiz-adv-x="681" 
d="M718 -278h-313l-433 1715h312z" />
    <glyph glyph-name="bracketright" unicode="]" horiz-adv-x="780" 
d="M62 1365h617v-1593h-628v251h296v1090h-285v252z" />
    <glyph glyph-name="asciicircum" unicode="^" horiz-adv-x="979" 
d="M951 795h-303l-152 299h-14l-159 -299h-294l321 570h284z" />
    <glyph glyph-name="underscore" unicode="_" horiz-adv-x="864" 
d="M890 -366h-916v263h916v-263z" />
    <glyph glyph-name="grave" unicode="`" horiz-adv-x="949" 
d="M741 1240h-295l-285 301h346z" />
    <glyph glyph-name="a" unicode="a" 
d="M689 130q-27 -61 -96 -103t-179 -42q-159 0 -256.5 86.5t-97.5 237.5q0 150 100.5 236.5t285.5 86.5h243v91q0 55 -34.5 84.5t-96.5 29.5t-97 -30.5t-38 -82.5h-324q2 55 16 104.5t47.5 98t84.5 83t132 56t184 21.5t185.5 -20.5t147 -63.5t99.5 -117t35 -175v-711h-324
v130h-17zM537 221q62 0 107 36.5t45 92.5v100h-144q-67 0 -105.5 -30.5t-38.5 -81.5q0 -55 40 -86t96 -31z" />
    <glyph glyph-name="b" unicode="b" horiz-adv-x="1236" 
d="M778 -11q-114 0 -194 49.5t-108 130.5h-16v-169h-346v1437h348v-530h16q31 79 108.5 127t193.5 48q184 0 287 -129.5t103 -370.5v-91q0 -243 -104 -372.5t-288 -129.5zM637 254q80 0 127 63t47 183v68q0 121 -46.5 184.5t-127.5 63.5q-79 0 -127 -64.5t-48 -179.5v-74
q0 -113 47 -178.5t128 -65.5z" />
    <glyph glyph-name="c" unicode="c" horiz-adv-x="1099" 
d="M64 502v78q0 230 135 370.5t370 140.5q217 0 343.5 -117t128.5 -304h-311q-3 65 -43.5 111.5t-105.5 46.5q-79 0 -123.5 -68.5t-44.5 -180.5v-73q0 -123 44.5 -192t123.5 -69q138 0 151 149h311q-1 -103 -38 -183t-102 -130t-149.5 -75.5t-185.5 -25.5q-233 0 -368.5 137
t-135.5 385z" />
    <glyph glyph-name="d" unicode="d" horiz-adv-x="1238" 
d="M458 1082q114 0 194 -47.5t108 -127.5h16v530h348v-1437h-347v169h-15q-27 -80 -108 -130t-196 -50q-183 0 -287 132t-104 369v93q0 237 103.5 368t287.5 131zM599 815q-81 0 -127.5 -64.5t-46.5 -183.5v-63q0 -120 46.5 -185t128.5 -65q80 0 128 64.5t48 184.5v66
q0 118 -48 182t-129 64z" />
    <glyph glyph-name="e" unicode="e" 
d="M583 -20q-240 0 -379.5 133.5t-139.5 385.5v74q0 126 38.5 225.5t107 163t160 96.5t199.5 33q230 0 365 -139.5t135 -378.5v-107h-668v-41q0 -86 50.5 -139t129.5 -53q73 0 118 33t50 86h314q-2 -49 -19 -99t-54.5 -99.5t-91 -87.5t-135.5 -62t-180 -24zM401 659h337
q0 84 -45 136t-121 52q-77 0 -124 -52.5t-47 -135.5z" />
    <glyph glyph-name="f" unicode="f" horiz-adv-x="806" 
d="M206 0v794h-163v258h163v106q0 166 92.5 236t301.5 70q67 0 147 -8v-231q-20 3 -72 3q-68 0 -101 -23.5t-33 -76.5v-76h202v-258h-193v-794h-344z" />
    <glyph glyph-name="g" unicode="g" horiz-adv-x="1222" 
d="M586 -154q184 0 184 193v147h-16q-29 -74 -107.5 -121t-190.5 -47q-179 0 -284.5 130t-105.5 371v61q0 240 105 371t285 131q115 0 192.5 -47.5t107.5 -127.5h16v164h345v-1063q0 -91 -32.5 -162t-84.5 -115.5t-124 -73t-145 -40t-153 -11.5q-124 0 -220 27.5t-153 75.5
t-86 107t-30 126h327q10 -47 55 -71.5t115 -24.5zM599 816q-80 0 -127 -63.5t-47 -180.5v-68q0 -117 47.5 -179.5t127.5 -62.5q78 0 124 63.5t46 175.5v71q0 115 -46.5 179.5t-124.5 64.5z" />
    <glyph glyph-name="h" unicode="h" horiz-adv-x="1237" 
d="M114 0v1437h347v-536h16q11 32 33.5 62.5t57.5 59.5t89.5 46.5t118.5 17.5q166 0 263 -104.5t97 -295.5v-687h-347v602q0 104 -46 151t-115 47q-72 0 -119.5 -51.5t-47.5 -148.5v-600h-347z" />
    <glyph glyph-name="i" unicode="i" horiz-adv-x="594" 
d="M124 0v1071h346v-1071h-346zM104 1348q0 70 51.5 113t139.5 43q90 0 142 -43t52 -113t-51.5 -113.5t-142.5 -43.5q-88 0 -139.5 43.5t-51.5 113.5z" />
    <glyph glyph-name="j" unicode="j" horiz-adv-x="593" 
d="M104 1348q0 70 51.5 113t139.5 43q90 0 142 -43t52 -113t-51.5 -113.5t-142.5 -43.5q-88 0 -139.5 43.5t-51.5 113.5zM469 1071v-1071q0 -178 -110 -267.5t-299 -89.5q-68 0 -119 7v238q28 -4 52 -4q64 0 97.5 27.5t33.5 91.5v1068h345z" />
    <glyph glyph-name="k" unicode="k" horiz-adv-x="1185" 
d="M458 352v-352h-348v1437h348v-779h16l283 413h387l-362 -460l388 -611h-402l-254 421z" />
    <glyph glyph-name="l" unicode="l" horiz-adv-x="585" 
d="M119 0v1437h347v-1437h-347z" />
    <glyph glyph-name="m" unicode="m" horiz-adv-x="1825" 
d="M110 0v1071h335v-174h18q10 33 31 65t55.5 61t87 46.5t116.5 17.5q117 0 191.5 -52.5t99.5 -141.5h14q26 76 111 135t213 59q159 0 248.5 -96.5t89.5 -255.5v-735h-347v627q0 95 -40.5 137.5t-104.5 42.5q-69 0 -108.5 -46.5t-39.5 -139.5v-621h-330v623
q0 99 -41.5 141.5t-105.5 42.5q-65 0 -106 -44t-41 -140v-623h-346z" />
    <glyph glyph-name="n" unicode="n" horiz-adv-x="1231" 
d="M110 0v1071h335v-170h17q26 73 105.5 129.5t203.5 56.5q164 0 260 -100t96 -289v-698h-347v606q0 105 -45.5 149.5t-114.5 44.5q-72 0 -118 -50.5t-46 -148.5v-601h-346z" />
    <glyph glyph-name="o" unicode="o" horiz-adv-x="1162" 
d="M582 1091q245 0 380.5 -142t135.5 -378v-61q0 -253 -134 -391.5t-382 -138.5q-249 0 -383.5 138.5t-134.5 389.5v61q0 234 137 378t381 144zM582 836q-167 0 -167 -263v-74q0 -50 7 -92.5t24 -83t52 -64t84 -23.5q164 0 164 263v74q0 263 -164 263z" />
    <glyph glyph-name="p" unicode="p" horiz-adv-x="1232" 
d="M776 -11q-113 0 -190.5 47.5t-111.5 128.5h-16v-509h-348v1415h346v-164h16q32 81 111.5 128t193.5 47q180 0 284 -128.5t104 -369.5v-96q0 -241 -104 -370t-285 -129zM634 254q78 0 125 63t47 184v69q0 120 -46.5 183t-127.5 63q-79 0 -126.5 -63.5t-47.5 -178.5v-76
q0 -113 48 -178.5t128 -65.5z" />
    <glyph glyph-name="q" unicode="q" horiz-adv-x="1233" 
d="M458 1082q114 0 195 -47.5t108 -127.5h16v164h346v-1415h-348v509h-16q-27 -80 -108 -128t-194 -48q-182 0 -286 130t-104 369v97q0 239 105 368t286 129zM600 815q-81 0 -128 -63.5t-47 -181.5v-70q0 -119 47.5 -182.5t127.5 -63.5t127.5 65.5t47.5 179.5v72
q0 117 -47.5 180.5t-127.5 63.5z" />
    <glyph glyph-name="r" unicode="r" horiz-adv-x="842" 
d="M114 0v1071h347v-161h16q18 67 78.5 121.5t159.5 54.5q73 0 102 -10v-292q-36 14 -123 14q-222 0 -222 -234v-564h-358z" />
    <glyph glyph-name="s" unicode="s" horiz-adv-x="1068" 
d="M78 746q0 91 37 159t102 107.5t145.5 59t176.5 19.5q197 0 315.5 -86.5t118.5 -245.5h-300q-6 46 -40.5 78.5t-97.5 32.5q-62 0 -96 -27t-34 -71q0 -19 9 -35t29.5 -27.5t39 -20t51.5 -15t52.5 -10t56.5 -9t50 -7.5q154 -25 235.5 -98.5t81.5 -207.5q0 -169 -127 -265.5
t-362 -96.5q-222 0 -344 92t-122 240h336q4 -47 44 -78t103 -31q69 0 103.5 27.5t34.5 72.5q0 18 -7 32t-23 24.5t-32 17.5t-43.5 13.5t-48 10.5t-55 9.5t-54.5 9.5q-74 14 -131 37.5t-105 61t-73.5 95t-25.5 132.5z" />
    <glyph glyph-name="t" unicode="t" horiz-adv-x="818" 
d="M205 1052v264h334v-264h203v-258h-203v-421q0 -64 34 -92t105 -28q44 0 66 2v-248q-56 -9 -150 -9q-211 0 -304.5 70.5t-93.5 237.5v488h-159v258h168z" />
    <glyph glyph-name="u" unicode="u" horiz-adv-x="1229" 
d="M1120 1071v-1071h-336v170h-17q-26 -73 -104.5 -129t-204.5 -56q-165 0 -259.5 98t-94.5 287v701h347v-612q0 -55 14 -94.5t38.5 -59t50.5 -27.5t56 -8q69 0 116 49t47 143v609h347z" />
    <glyph glyph-name="v" unicode="v" horiz-adv-x="1104" 
d="M338 0l-335 1071h375l160 -766h14l186 766h363l-362 -1071h-401z" />
    <glyph glyph-name="w" unicode="w" horiz-adv-x="1659" 
d="M1647 1071l-271 -1071h-367l-172 705h-12l-170 -705h-370l-273 1071h355l124 -740h14l165 740h325l168 -740h14l125 740h345z" />
    <glyph glyph-name="x" unicode="x" horiz-adv-x="1144" 
d="M736 0l-166 327h-14l-165 -327h-360l310 535l-328 536h396l163 -324h14l166 324h377l-340 -532l325 -539h-378z" />
    <glyph glyph-name="y" unicode="y" horiz-adv-x="1137" 
d="M1125 1071q-317 -991 -324 -1009l-27 -72q-33 -88 -72.5 -150t-99.5 -112.5t-146 -75.5t-201 -25q-110 0 -180 14v236q30 -8 95 -8q97 0 136.5 29.5t45.5 90.5l4 20l-348 1062h382l173 -794h13l181 794h368z" />
    <glyph glyph-name="z" unicode="z" horiz-adv-x="1029" 
d="M76 0v180l459 617v15h-446v259h861v-206l-429 -590v-14h448v-261h-893z" />
    <glyph glyph-name="braceleft" unicode="{" horiz-adv-x="859" 
d="M362 600v-32q104 -9 159 -70.5t55 -171.5v-208q0 -110 38 -147.5t153 -37.5h41v-245h-125q-232 0 -335.5 85.5t-103.5 293.5v172q0 105 -31.5 149.5t-121.5 44.5v302q90 0 121.5 44t31.5 149v142q0 205 103 287.5t336 82.5h125v-244h-41q-115 0 -153 -37.5t-38 -147.5
v-194q0 -107 -53 -157.5t-161 -59.5z" />
    <glyph glyph-name="bar" unicode="|" horiz-adv-x="740" 
d="M528 -293h-317v1730h317v-1730z" />
    <glyph glyph-name="braceright" unicode="}" horiz-adv-x="861" 
d="M499 568v32q-108 9 -161 59.5t-53 157.5v194q0 109 -38.5 147t-152.5 38h-43v244h127q233 0 335.5 -82.5t102.5 -287.5v-142q0 -104 31.5 -148.5t122.5 -44.5v-302q-91 0 -122.5 -44.5t-31.5 -149.5v-172q0 -208 -103 -293.5t-335 -85.5h-127v245h43q114 0 152.5 38
t38.5 147v208q0 110 54.5 171.5t159.5 70.5z" />
    <glyph glyph-name="asciitilde" unicode="~" horiz-adv-x="1116" 
d="M758 469q-108 0 -221 89q-5 4 -22.5 17.5t-23.5 18t-21 15t-23 14t-20 9.5t-22.5 8t-20.5 2q-91 0 -100 -148h-238q0 129 31 223t101 149.5t175 55.5q66 0 117 -22t102 -63q4 -3 21 -17t22.5 -18t19.5 -14.5t22 -14.5t20 -9.5t23 -7.5t23 -2q96 0 102 146h240
q0 -193 -79.5 -312t-227.5 -119z" />
    <glyph glyph-name="nonbreakingspace" unicode="&#xa0;" horiz-adv-x="396" 
 />
    <glyph glyph-name="exclamdown" unicode="&#xa1;" horiz-adv-x="592" 
d="M484 -280h-378l41 943h298zM497 942q0 -75 -54 -119t-148 -44q-93 0 -147.5 44t-54.5 119q0 76 54 120.5t148 44.5t148 -44.5t54 -120.5z" />
    <glyph glyph-name="cent" unicode="&#xa2;" horiz-adv-x="1243" 
d="M1110 538q-1 -82 -31.5 -153.5t-81 -121.5t-115.5 -81.5t-136 -39.5v-220h-256v217q-75 8 -143 42t-124 93t-89 150.5t-33 204.5v120q0 106 33.5 194.5t90 145.5t124 91.5t141.5 44.5v213h256v-217q155 -16 257.5 -131t104.5 -267h-303q-3 63 -56.5 113t-134.5 50
q-89 0 -144 -65.5t-55 -166.5v-126q0 -114 55 -180t147 -66q81 0 133 46.5t57 109.5h303z" />
    <glyph glyph-name="sterling" unicode="&#xa3;" horiz-adv-x="1243" 
d="M1177 276v-276h-1089v285q64 12 108.5 59t44.5 132v78h-160v225h160v216q0 179 119 285t338 106q225 0 347.5 -106.5t123.5 -315.5h-324q-2 65 -38 106.5t-104 41.5t-103 -44t-35 -116v-173h287v-225h-287l-2 -91q-2 -60 -25.5 -105.5t-68.5 -62.5v-19h708z" />
    <glyph glyph-name="currency" unicode="&#xa4;" horiz-adv-x="1243" 
d="M999 96l-153 153q-104 -60 -226 -60t-227 61l-154 -154l-168 168l154 154q-63 103 -63 229q0 122 61 227l-152 151l168 168l151 -151q105 62 230 62q124 0 229 -61l150 150l168 -168l-151 -150q62 -107 62 -228q0 -124 -63 -231l152 -152zM421 647q0 -83 58.5 -141.5
t140.5 -58.5t140.5 59t58.5 141t-58.5 140t-140.5 58q-83 0 -141 -58t-58 -140z" />
    <glyph glyph-name="yen" unicode="&#xa5;" horiz-adv-x="1243" 
d="M1091 138h-291v-138h-357v138h-283v205h283v101h-283v205h187l-362 716h390l244 -554h14l246 554h378l-365 -716h199v-205h-291v-101h291v-205z" />
    <glyph glyph-name="brokenbar" unicode="&#xa6;" horiz-adv-x="678" 
d="M498 778h-318v659h318v-659zM498 -293h-318v675h318v-675z" />
    <glyph glyph-name="section" unicode="&#xa7;" horiz-adv-x="933" 
d="M592 73q0 18 -7 33t-23 27.5t-32 21.5t-43.5 19t-48.5 16.5t-56 16.5t-57 17q-62 20 -107.5 41.5t-89 56t-66.5 85.5t-23 116q0 52 15 95.5t42.5 74.5t51.5 50.5t56 38.5v7q-154 90 -154 261q0 108 58.5 186.5t153.5 116t215 37.5q188 0 297.5 -92.5t109.5 -244.5h-275
q-2 46 -41 79.5t-98 33.5q-53 0 -85.5 -27.5t-32.5 -69.5q0 -19 7 -34.5t23.5 -28.5t31.5 -22t44 -19t47.5 -15.5t56 -16t55.5 -15.5q49 -15 85.5 -29.5t76.5 -39t65.5 -54t42.5 -73.5t17 -98q0 -166 -158 -276v-6q73 -42 111 -97t38 -143q0 -157 -115 -254t-314 -97
q-190 0 -305 90t-119 245h276q8 -50 44.5 -80.5t100.5 -30.5t96.5 28.5t32.5 69.5zM527 425q38 19 62 55t24 78q0 99 -141 135q-22 7 -53 12q-40 -20 -65 -56.5t-25 -78.5q0 -54 36.5 -83t104.5 -48q10 -2 29 -7t28 -7z" />
    <glyph glyph-name="dieresis" unicode="&#xa8;" horiz-adv-x="949" 
d="M113 1343q0 62 38 99t104 37t105 -37t39 -99t-38.5 -99t-105.5 -37q-65 0 -103.5 37t-38.5 99zM550 1343q0 62 38.5 99t104.5 37t104.5 -37t38.5 -99t-38 -99t-105 -37q-66 0 -104.5 37t-38.5 99z" />
    <glyph glyph-name="copyright" unicode="&#xa9;" horiz-adv-x="1642" 
d="M470 632v99q0 154 104 243t259 89q142 0 238 -83.5t98 -200.5h-206q-2 42 -36 73.5t-93 31.5q-70 0 -109 -36t-39 -123v-94q0 -78 41 -114.5t107 -36.5q59 0 93.5 24.5t37.5 66.5h203q-2 -117 -93.5 -195.5t-241.5 -78.5q-156 0 -259.5 89t-103.5 246zM247 642
q0 -248 160 -407.5t419 -159.5q258 0 419 159.5t161 407.5v104q0 151 -72.5 275.5t-206 198t-301.5 73.5q-127 0 -235.5 -42.5t-183.5 -116t-117.5 -174.5t-42.5 -214v-104zM827 -64q-209 0 -374 92t-255.5 253.5t-90.5 362.5v103q0 142 54 268t148 218t229 145.5t289 53.5
q155 0 290 -54t228.5 -146.5t147.5 -218.5t54 -266v-103q0 -151 -53 -282t-146.5 -224.5t-228.5 -147.5t-292 -54z" />
    <glyph glyph-name="ordfeminine" unicode="&#xaa;" horiz-adv-x="677" 
d="M249 734q-108 0 -168 48.5t-60 135.5t61 135t187 48h143v47q0 56 -75 56q-34 0 -53.5 -13.5t-21.5 -35.5h-210q6 201 289 201q300 0 300 -215v-398h-219v72h-10q-16 -34 -56.5 -57.5t-106.5 -23.5zM326 880q36 0 61 17t25 46v45h-79q-84 0 -84 -53q0 -55 77 -55z" />
    <glyph glyph-name="guillemotleft" unicode="&#xab;" horiz-adv-x="1325" 
d="M603 565l344 404h299l-339 -403v-6l339 -405h-308l-335 402v8zM79 565l344 404h300l-339 -403v-6l339 -405h-309l-335 402v8z" />
    <glyph glyph-name="logicalnot" unicode="&#xac;" horiz-adv-x="1243" 
d="M1144 79h-300v325h-754v275h1054v-600z" />
    <glyph glyph-name="registered" unicode="&#xae;" horiz-adv-x="1160" 
d="M575 414q-223 0 -368.5 140.5t-145.5 354.5v71q0 201 147.5 340t366.5 139q108 0 203.5 -38t163.5 -102.5t107.5 -152.5t39.5 -186v-71q0 -214 -145 -354.5t-369 -140.5zM575 531q169 0 280 108.5t111 269.5v68q0 151 -112 258.5t-279 107.5t-278.5 -107t-111.5 -259v-68
q0 -162 110.5 -270t279.5 -108zM505 1089v-119h77q37 0 59 12t22 48q0 27 -19 43t-56 16h-83zM505 707h-136v484h254q84 0 134 -45.5t50 -116.5q0 -53 -27.5 -92.5t-68.5 -51.5l111 -178h-147l-95 162h-75v-162z" />
    <glyph glyph-name="macron" unicode="&#xaf;" horiz-adv-x="949" 
d="M785 1264h-616v168h616v-168z" />
    <glyph glyph-name="degree" unicode="&#xb0;" horiz-adv-x="577" 
d="M289 851q-114 0 -191 77t-77 191t76.5 190.5t191.5 76.5q113 0 190 -76.5t77 -190.5t-77 -191t-190 -77zM289 1016q43 0 71.5 30t28.5 73q0 44 -28.5 73.5t-71.5 29.5q-42 0 -71.5 -30t-29.5 -73q0 -42 29.5 -72.5t71.5 -30.5z" />
    <glyph glyph-name="plusminus" unicode="&#xb1;" horiz-adv-x="1243" 
d="M770 632v-220h-304v220h-335v257h335v202h304v-202h341v-257h-341zM1112 30h-979v267h979v-267z" />
    <glyph glyph-name="twosuperior" unicode="&#xb2;" horiz-adv-x="652" 
d="M257 1141h-216v14q0 42 15.5 81t47.5 73t89 54.5t131 20.5q127 0 202.5 -56.5t75.5 -147.5q0 -17 -3 -33.5t-7.5 -30.5t-12 -28.5t-14.5 -25.5t-17 -23.5t-17 -20t-17.5 -17.5t-15.5 -14t-14 -11.5t-10 -8.5l-111 -87v-7h248v-171h-550v135l243 212q76 66 76 109
q0 25 -18.5 41.5t-44.5 16.5q-27 0 -44 -17.5t-17 -41.5q0 -3 0.5 -8.5t0.5 -7.5z" />
    <glyph glyph-name="threesuperior" unicode="&#xb3;" horiz-adv-x="669" 
d="M249 962v155h75q34 0 52.5 16t18.5 40q0 25 -20 40t-52 15q-37 0 -54.5 -19.5t-17.5 -48.5h-209q4 108 78 166t210 58q129 0 203 -49.5t74 -132.5q0 -61 -41 -100.5t-92 -48.5v-9q67 -6 109 -44t42 -107q0 -53 -25.5 -94t-68 -64.5t-93.5 -35t-108 -11.5
q-146 0 -219 65.5t-73 159.5h209q0 -29 18.5 -46.5t55.5 -17.5q36 0 58 16.5t22 41.5q0 24 -19.5 39.5t-56.5 15.5h-76z" />
    <glyph glyph-name="acute" unicode="&#xb4;" horiz-adv-x="949" 
d="M502 1235h-295l220 306h346z" />
    <glyph glyph-name="paragraph" unicode="&#xb6;" horiz-adv-x="1530" 
d="M918 -210h-324v599h-20q-91 0 -177.5 33t-156 93t-112 155t-42.5 209q0 124 42 220t113 152.5t155.5 85t178.5 28.5h343v-1575zM1083 -210v1575h324v-1575h-324z" />
    <glyph glyph-name="periodcentered" unicode="&#xb7;" horiz-adv-x="610" 
d="M102 788q0 85 55.5 136t139.5 51q85 0 141 -51.5t56 -135.5q0 -85 -56 -135.5t-141 -50.5q-83 0 -139 50.5t-56 135.5z" />
    <glyph glyph-name="cedilla" unicode="&#xb8;" horiz-adv-x="949" 
d="M358 -236v120l45 118h187l-44 -107q83 0 131.5 -47t48.5 -126q0 -102 -69.5 -151t-193.5 -50q-93 -1 -144 15v138q44 -13 108 -13q104 0 104 49q0 29 -25 41.5t-92 12.5h-56z" />
    <glyph glyph-name="onesuperior" unicode="&#xb9;" horiz-adv-x="542" 
d="M443 702h-231v472h-10l-157 -102v185l167 108h231v-663z" />
    <glyph glyph-name="ordmasculine" unicode="&#xba;" horiz-adv-x="702" 
d="M350 1197q-95 0 -95 -131v-51q0 -132 95 -132q94 0 94 132v51q0 131 -94 131zM351 1356q147 0 232.5 -80t85.5 -213v-41q0 -143 -84 -220.5t-234 -77.5q-151 0 -236 77.5t-85 219.5v42q0 131 86.5 212t234.5 81z" />
    <glyph glyph-name="guillemotright" unicode="&#xbb;" horiz-adv-x="1325" 
d="M1249 565v-8l-335 -402h-309l339 405v6l-339 403h300zM725 565v-8l-335 -402h-308l339 405v6l-339 403h299z" />
    <glyph glyph-name="onequarter" unicode="&#xbc;" horiz-adv-x="1425" 
d="M1000 251h145v259h-10q-76 -131 -135 -258v-1zM1039 659h310v-408h80v-157h-80v-94h-204v94h-332v159q110 209 226 406zM390 702h-231v472h-10l-157 -102v185l167 108h231v-663zM281 -1h-243l578 734l480 632h243l-564 -715z" />
    <glyph glyph-name="onehalf" unicode="&#xbd;" horiz-adv-x="1432" 
d="M1096 436h-217v14q0 42 16 81.5t48 73.5t89 54.5t132 20.5q127 0 203 -57t76 -148q0 -17 -3 -33.5t-7.5 -30.5t-12.5 -28.5t-14.5 -25.5t-17 -23.5t-17.5 -20t-17.5 -18t-15.5 -14.5t-14 -11.5t-10 -8.5l-111 -87v-7h249v-172h-553v136l244 213q77 64 77 109
q0 25 -18.5 41.5t-44.5 16.5q-28 0 -45 -17.5t-17 -41.5q0 -3 0.5 -8.5t0.5 -7.5zM390 702h-231v472h-10l-157 -102v185l167 108h231v-663zM281 -1h-243l578 734l480 632h243l-564 -715z" />
    <glyph glyph-name="threequarters" unicode="&#xbe;" horiz-adv-x="1479" 
d="M1054 251h145v259h-11q-77 -135 -134 -257v-2zM1093 659h310v-408h80v-157h-80v-94h-204v94h-332v159q110 209 226 406zM208 956v156h75q34 0 52.5 16t18.5 40q0 25 -20 40t-52 15q-37 0 -54.5 -19.5t-17.5 -48.5h-210q4 108 78.5 166.5t210.5 58.5q129 0 203.5 -50
t74.5 -133q0 -61 -41 -100.5t-92 -48.5v-9q67 -6 109 -44.5t42 -107.5q0 -70 -45 -118.5t-109 -68t-142 -19.5q-146 0 -219.5 66t-73.5 160h210q0 -29 18.5 -46.5t55.5 -17.5q36 0 58 16.5t22 41.5q0 24 -19.5 39.5t-56.5 15.5h-76zM335 -1h-243l578 734l480 632h243
l-564 -715z" />
    <glyph glyph-name="questiondown" unicode="&#xbf;" horiz-adv-x="1003" 
d="M736 938q0 -75 -54.5 -119.5t-148.5 -44.5q-93 0 -147.5 44.5t-54.5 119.5t54.5 119.5t147.5 44.5q94 0 148.5 -44.5t54.5 -119.5zM980 112q6 -107 -32 -190t-108 -132t-157 -74t-187 -25q-133 0 -238.5 41.5t-171 129.5t-65.5 212q0 64 16.5 115.5t50 90t62.5 61.5
t75 53q100 64 132.5 101.5t32.5 111.5v45h303l2 -37q13 -116 -29 -198.5t-138 -141.5q-45 -28 -65.5 -42.5t-46 -38t-35 -47.5t-9.5 -55q0 -66 42.5 -100.5t102.5 -34.5q68 0 107.5 43.5t41.5 111.5h314z" />
    <glyph glyph-name="Agrave" unicode="&#xc0;" horiz-adv-x="1315" 
d="M361 0h-356l432 1365h443l429 -1365h-382l-79 296h-407zM655 1053h-17l-133 -500h281zM821 1498h-283l-316 224h330z" />
    <glyph glyph-name="Aacute" unicode="&#xc1;" horiz-adv-x="1315" 
d="M361 0h-356l432 1365h443l429 -1365h-382l-79 296h-407zM655 1053h-17l-133 -500h281zM458 1498l282 236h349l-332 -236h-299z" />
    <glyph glyph-name="Acircumflex" unicode="&#xc2;" horiz-adv-x="1315" 
d="M361 0h-356l432 1365h443l429 -1365h-382l-79 296h-407zM655 1053h-17l-133 -500h281zM277 1485l262 248h247l252 -248h-253l-116 118h-19l-121 -118h-252z" />
    <glyph glyph-name="Atilde" unicode="&#xc3;" horiz-adv-x="1315" 
d="M361 0h-356l432 1365h443l429 -1365h-382l-79 296h-407zM655 1053h-17l-133 -500h281zM647 1506q-5 4 -18 16.5t-20 18.5t-20 12t-26 6q-64 0 -68 -81h-167q0 92 53 162.5t148 70.5q55 0 89 -14.5t71 -45.5q6 -5 17.5 -16t17 -15.5t15 -10.5t17.5 -8.5t18 -2.5
q33 0 48 28.5t16 69.5h167q0 -103 -60 -172t-150 -69q-41 0 -71.5 8.5t-44.5 17.5t-32 25z" />
    <glyph glyph-name="Adieresis" unicode="&#xc4;" horiz-adv-x="1315" 
d="M361 0h-356l432 1365h443l429 -1365h-382l-79 296h-407zM655 1053h-17l-133 -500h281zM334 1579q0 56 35 89.5t95 33.5q61 0 96 -33.5t35 -89.5t-35 -90t-96 -34q-60 0 -95 34t-35 90zM731 1579q0 56 34.5 89.5t95.5 33.5t96 -33.5t35 -89.5t-35 -90t-96 -34t-95.5 34
t-34.5 90z" />
    <glyph glyph-name="Aring" unicode="&#xc5;" horiz-adv-x="1315" 
d="M534 1440q0 -49 33.5 -81t83.5 -32q49 0 83 32.5t34 80.5q0 50 -34 82t-83 32q-51 0 -84 -31.5t-33 -82.5zM786 553l-130 500h-18l-133 -500h281zM361 0h-355l398 1255q-69 79 -69 188q0 130 91.5 219t224.5 89q132 0 224 -89t92 -219q0 -98 -58 -172l400 -1271h-382
l-79 296h-407z" />
    <glyph glyph-name="AE" unicode="&#xc6;" horiz-adv-x="1930" 
d="M839 1085l-214 -533h279v533h-65zM904 283h-387l-125 -283h-389l606 1365h1229v-280h-582v-271h545v-258h-545v-275h582v-281h-934v283z" />
    <glyph glyph-name="Ccedilla" unicode="&#xc7;" horiz-adv-x="1308" 
d="M656 -479q-92 -1 -143 15v138q44 -13 107 -13q104 0 104 49q0 29 -25 41.5t-92 12.5h-56v120l37 96q-247 25 -381.5 192t-134.5 441v137q0 299 158 469t444 170q254 0 411 -139.5t157 -358.5v-45h-341q0 107 -59 178t-165 71q-113 0 -176 -88.5t-63 -256.5v-139
q0 -168 63 -254.5t178 -86.5q106 0 164 68.5t58 174.5h341v-47q0 -190 -126 -323.5t-341 -159.5l-36 -88q84 0 132 -47t48 -126q0 -102 -69.5 -151t-193.5 -50z" />
    <glyph glyph-name="Egrave" unicode="&#xc8;" horiz-adv-x="1154" 
d="M746 1498h-283l-316 224h330zM1062 281v-281h-935v1365h935v-281h-580v-270h543v-258h-543v-275h580z" />
    <glyph glyph-name="Eacute" unicode="&#xc9;" horiz-adv-x="1154" 
d="M383 1498l282 236h349l-332 -236h-299zM1062 281v-281h-935v1365h935v-281h-580v-270h543v-258h-543v-275h580z" />
    <glyph glyph-name="Ecircumflex" unicode="&#xca;" horiz-adv-x="1154" 
d="M202 1485l262 248h247l252 -248h-253l-116 118h-19l-121 -118h-252zM1062 281v-281h-935v1365h935v-281h-580v-270h543v-258h-543v-275h580z" />
    <glyph glyph-name="Edieresis" unicode="&#xcb;" horiz-adv-x="1154" 
d="M259 1579q0 56 35 89.5t95 33.5q61 0 96 -33.5t35 -89.5t-35 -90t-96 -34q-60 0 -95 34t-35 90zM656 1579q0 56 34.5 89.5t95.5 33.5t96 -33.5t35 -89.5t-35 -90t-96 -34t-95.5 34t-34.5 90zM1062 281v-281h-935v1365h935v-281h-580v-270h543v-258h-543v-275h580z" />
    <glyph glyph-name="Igrave" unicode="&#xcc;" horiz-adv-x="613" 
d="M486 0h-359v1365h359v-1365zM470 1498h-283l-316 224h330z" />
    <glyph glyph-name="Iacute" unicode="&#xcd;" horiz-adv-x="613" 
d="M486 0h-359v1365h359v-1365zM107 1498l282 236h349l-332 -236h-299z" />
    <glyph glyph-name="Icircumflex" unicode="&#xce;" horiz-adv-x="613" 
d="M486 0h-359v1365h359v-1365zM-74 1485l262 248h247l252 -248h-253l-116 118h-19l-121 -118h-252z" />
    <glyph glyph-name="Idieresis" unicode="&#xcf;" horiz-adv-x="613" 
d="M486 0h-359v1365h359v-1365zM-17 1579q0 56 35 89.5t95 33.5q61 0 96 -33.5t35 -89.5t-35 -90t-96 -34q-60 0 -95 34t-35 90zM380 1579q0 56 34.5 89.5t95.5 33.5t96 -33.5t35 -89.5t-35 -90t-96 -34t-95.5 34t-34.5 90z" />
    <glyph glyph-name="Eth" unicode="&#xd0;" horiz-adv-x="1460" 
d="M779 0h-554v534h-169v308h169v523h554q162 0 282.5 -48t193.5 -139t108.5 -212.5t35.5 -276.5q0 -156 -35.5 -280t-109 -216.5t-194 -142.5t-281.5 -50zM582 289h134q73 0 125.5 16.5t97 59t67.5 123t23 200.5q0 88 -13.5 155.5t-46.5 126.5t-97 91t-156 32h-134v-251
h191v-308h-191v-245z" />
    <glyph glyph-name="Ntilde" unicode="&#xd1;" horiz-adv-x="1398" 
d="M689 1506q-5 4 -18 16.5t-20 18.5t-20 12t-26 6q-64 0 -68 -81h-167q0 92 53 162.5t148 70.5q55 0 89 -14.5t71 -45.5q6 -5 17.5 -16t17 -15.5t15 -10.5t17.5 -8.5t18 -2.5q33 0 48 28.5t16 69.5h167q0 -103 -60 -172t-150 -69q-41 0 -71.5 8.5t-44.5 17.5t-32 25zM459 0
h-332v1365h278l521 -762h14v762h331v-1365h-276l-523 771h-13v-771z" />
    <glyph glyph-name="Ograve" unicode="&#xd2;" horiz-adv-x="1383" 
d="M855 1498h-283l-316 224h330zM438 759v-157q0 -164 68 -251t186 -87q117 0 185 87t68 251v157q0 165 -68 253t-185 88t-185.5 -88t-68.5 -253zM72 604v150q0 294 163.5 464.5t456.5 170.5t456 -171t163 -464v-150q0 -291 -162.5 -459.5t-457.5 -168.5q-293 0 -456 168.5
t-163 459.5z" />
    <glyph glyph-name="Oacute" unicode="&#xd3;" horiz-adv-x="1383" 
d="M492 1498l282 236h349l-332 -236h-299zM438 759v-157q0 -164 68 -251t186 -87q117 0 185 87t68 251v157q0 165 -68 253t-185 88t-185.5 -88t-68.5 -253zM72 604v150q0 294 163.5 464.5t456.5 170.5t456 -171t163 -464v-150q0 -291 -162.5 -459.5t-457.5 -168.5
q-293 0 -456 168.5t-163 459.5z" />
    <glyph glyph-name="Ocircumflex" unicode="&#xd4;" horiz-adv-x="1383" 
d="M311 1485l262 248h247l252 -248h-253l-116 118h-19l-121 -118h-252zM438 759v-157q0 -164 68 -251t186 -87q117 0 185 87t68 251v157q0 165 -68 253t-185 88t-185.5 -88t-68.5 -253zM72 604v150q0 294 163.5 464.5t456.5 170.5t456 -171t163 -464v-150
q0 -291 -162.5 -459.5t-457.5 -168.5q-293 0 -456 168.5t-163 459.5z" />
    <glyph glyph-name="Otilde" unicode="&#xd5;" horiz-adv-x="1383" 
d="M438 759v-157q0 -164 68 -251t186 -87q117 0 185 87t68 251v157q0 165 -68 253t-185 88t-185.5 -88t-68.5 -253zM72 604v150q0 294 163.5 464.5t456.5 170.5t456 -171t163 -464v-150q0 -291 -162.5 -459.5t-457.5 -168.5q-293 0 -456 168.5t-163 459.5zM681 1506
q-5 4 -18 16.5t-20 18.5t-20 12t-26 6q-64 0 -68 -81h-167q0 92 53 162.5t148 70.5q55 0 89 -14.5t71 -45.5q6 -5 17.5 -16t17 -15.5t15 -10.5t17.5 -8.5t18 -2.5q33 0 48 28.5t16 69.5h167q0 -103 -60 -172t-150 -69q-41 0 -71.5 8.5t-44.5 17.5t-32 25z" />
    <glyph glyph-name="Odieresis" unicode="&#xd6;" horiz-adv-x="1383" 
d="M368 1579q0 56 35 89.5t95 33.5q61 0 96 -33.5t35 -89.5t-35 -90t-96 -34q-60 0 -95 34t-35 90zM765 1579q0 56 34.5 89.5t95.5 33.5t96 -33.5t35 -89.5t-35 -90t-96 -34t-95.5 34t-34.5 90zM438 759v-157q0 -164 68 -251t186 -87q117 0 185 87t68 251v157q0 165 -68 253
t-185 88t-185.5 -88t-68.5 -253zM72 604v150q0 294 163.5 464.5t456.5 170.5t456 -171t163 -464v-150q0 -291 -162.5 -459.5t-457.5 -168.5q-293 0 -456 168.5t-163 459.5z" />
    <glyph glyph-name="multiply" unicode="&#xd7;" horiz-adv-x="1243" 
d="M918 50l-296 297l-297 -297l-215 216l296 297l-296 296l216 215l296 -296l295 296l216 -215l-296 -296l296 -297z" />
    <glyph glyph-name="Oslash" unicode="&#xd8;" horiz-adv-x="1383" 
d="M691 -24q-224 0 -374 104l-97 -120l-143 116l106 131q-111 157 -111 397v150q0 294 163.5 464.5t456.5 170.5q221 0 372 -103l82 100l147 -109l-96 -118q114 -160 114 -405v-150q0 -291 -162.5 -459.5t-457.5 -168.5zM427 597q0 -51 9 -82l427 526q-67 67 -173 67
q-122 0 -192.5 -90t-70.5 -258v-163zM690 252q122 0 193.5 88.5t71.5 256.5v163q0 52 -11 90l-430 -529q68 -69 176 -69z" />
    <glyph glyph-name="Ugrave" unicode="&#xd9;" horiz-adv-x="1389" 
d="M858 1498h-283l-316 224h330zM470 1365v-847q0 -121 60.5 -183t163.5 -62t163.5 62.5t60.5 182.5v847h359v-893q0 -226 -157.5 -361t-425.5 -135q-267 0 -424.5 135.5t-157.5 361.5v892h358z" />
    <glyph glyph-name="Uacute" unicode="&#xda;" horiz-adv-x="1389" 
d="M495 1498l282 236h349l-332 -236h-299zM470 1365v-847q0 -121 60.5 -183t163.5 -62t163.5 62.5t60.5 182.5v847h359v-893q0 -226 -157.5 -361t-425.5 -135q-267 0 -424.5 135.5t-157.5 361.5v892h358z" />
    <glyph glyph-name="Ucircumflex" unicode="&#xdb;" horiz-adv-x="1389" 
d="M314 1485l262 248h247l252 -248h-253l-116 118h-19l-121 -118h-252zM470 1365v-847q0 -121 60.5 -183t163.5 -62t163.5 62.5t60.5 182.5v847h359v-893q0 -226 -157.5 -361t-425.5 -135q-267 0 -424.5 135.5t-157.5 361.5v892h358z" />
    <glyph glyph-name="Udieresis" unicode="&#xdc;" horiz-adv-x="1389" 
d="M370 1579q0 56 35 89.5t95 33.5q61 0 96 -33.5t35 -89.5t-35 -90t-96 -34q-60 0 -95 34t-35 90zM767 1579q0 56 34.5 89.5t95.5 33.5t96 -33.5t35 -89.5t-35 -90t-96 -34t-95.5 34t-34.5 90zM470 1365v-847q0 -121 60.5 -183t163.5 -62t163.5 62.5t60.5 182.5v847h359
v-893q0 -226 -157.5 -361t-425.5 -135q-267 0 -424.5 135.5t-157.5 361.5v892h358z" />
    <glyph glyph-name="Yacute" unicode="&#xdd;" horiz-adv-x="1210" 
d="M784 0h-358v455l-457 910h391l245 -554h12l246 554h378l-457 -900v-465zM406 1498l282 236h349l-332 -236h-299z" />
    <glyph glyph-name="Thorn" unicode="&#xde;" horiz-adv-x="1241" 
d="M127 1365h357v-202h230q118 0 212 -37t153 -102t90 -150t31 -184q0 -206 -128 -336.5t-363 -130.5h-224v-223h-358v1365zM483 893v-405h132q103 0 162.5 49t59.5 153q0 100 -56 151.5t-156 51.5h-142z" />
    <glyph glyph-name="germandbls" unicode="&#xdf;" horiz-adv-x="1382" 
d="M467 0h-347v1050q0 103 44 182t120 126t170 70.5t203 23.5q242 0 386.5 -104t144.5 -266q0 -127 -65.5 -210.5t-153.5 -103.5v-18q66 -2 126.5 -25.5t110 -66.5t79.5 -112.5t30 -154.5q0 -134 -69 -227.5t-180 -136.5t-253 -43q-127 0 -199 18v268q53 -20 129 -20
q101 0 158 42.5t57 121.5q0 83 -69 125.5t-172 42.5h-81v271h47q71 0 119.5 45t48.5 116q0 72 -48 118t-140 46q-196 0 -196 -207v-971z" />
    <glyph glyph-name="agrave" unicode="&#xe0;" 
d="M689 130q-27 -61 -96 -103t-179 -42q-159 0 -256.5 86.5t-97.5 237.5q0 150 100.5 236.5t285.5 86.5h243v91q0 55 -34.5 84.5t-96.5 29.5t-97 -30.5t-38 -82.5h-324q2 55 16 104.5t47.5 98t84.5 83t132 56t184 21.5t185.5 -20.5t147 -63.5t99.5 -117t35 -175v-711h-324
v130h-17zM537 221q62 0 107 36.5t45 92.5v100h-144q-67 0 -105.5 -30.5t-38.5 -81.5q0 -55 40 -86t96 -31zM778 1240h-295l-285 301h346z" />
    <glyph glyph-name="aacute" unicode="&#xe1;" 
d="M689 130q-27 -61 -96 -103t-179 -42q-159 0 -256.5 86.5t-97.5 237.5q0 150 100.5 236.5t285.5 86.5h243v91q0 55 -34.5 84.5t-96.5 29.5t-97 -30.5t-38 -82.5h-324q2 55 16 104.5t47.5 98t84.5 83t132 56t184 21.5t185.5 -20.5t147 -63.5t99.5 -117t35 -175v-711h-324
v130h-17zM537 221q62 0 107 36.5t45 92.5v100h-144q-67 0 -105.5 -30.5t-38.5 -81.5q0 -55 40 -86t96 -31zM723 1235h-295l220 306h346z" />
    <glyph glyph-name="acircumflex" unicode="&#xe2;" 
d="M689 130q-27 -61 -96 -103t-179 -42q-159 0 -256.5 86.5t-97.5 237.5q0 150 100.5 236.5t285.5 86.5h243v91q0 55 -34.5 84.5t-96.5 29.5t-97 -30.5t-38 -82.5h-324q2 55 16 104.5t47.5 98t84.5 83t132 56t184 21.5t185.5 -20.5t147 -63.5t99.5 -117t35 -175v-711h-324
v130h-17zM537 221q62 0 107 36.5t45 92.5v100h-144q-67 0 -105.5 -30.5t-38.5 -81.5q0 -55 40 -86t96 -31zM186 1233l244 316h256l232 -316h-261l-95 167h-13l-111 -167h-252z" />
    <glyph glyph-name="atilde" unicode="&#xe3;" 
d="M689 130q-27 -61 -96 -103t-179 -42q-159 0 -256.5 86.5t-97.5 237.5q0 150 100.5 236.5t285.5 86.5h243v91q0 55 -34.5 84.5t-96.5 29.5t-97 -30.5t-38 -82.5h-324q2 55 16 104.5t47.5 98t84.5 83t132 56t184 21.5t185.5 -20.5t147 -63.5t99.5 -117t35 -175v-711h-324
v130h-17zM537 221q62 0 107 36.5t45 92.5v100h-144q-67 0 -105.5 -30.5t-38.5 -81.5q0 -55 40 -86t96 -31zM533 1248q-47 47 -88 47q-73 0 -78 -94h-188q0 135 61.5 226t181.5 91q51 0 88.5 -18.5t80.5 -59.5q2 -2 13 -12.5t14.5 -13.5t13 -10t15 -9.5t14.5 -5t18 -2.5
q37 0 54 32.5t18 80.5h188q0 -131 -71 -224t-184 -93q-37 0 -68.5 11.5t-46.5 22.5t-36 31z" />
    <glyph glyph-name="adieresis" unicode="&#xe4;" 
d="M689 130q-27 -61 -96 -103t-179 -42q-159 0 -256.5 86.5t-97.5 237.5q0 150 100.5 236.5t285.5 86.5h243v91q0 55 -34.5 84.5t-96.5 29.5t-97 -30.5t-38 -82.5h-324q2 55 16 104.5t47.5 98t84.5 83t132 56t184 21.5t185.5 -20.5t147 -63.5t99.5 -117t35 -175v-711h-324
v130h-17zM537 221q62 0 107 36.5t45 92.5v100h-144q-67 0 -105.5 -30.5t-38.5 -81.5q0 -55 40 -86t96 -31zM209 1323q0 62 38 99t104 37t105 -37t39 -99t-38.5 -99t-105.5 -37q-65 0 -103.5 37t-38.5 99zM646 1323q0 62 38.5 99t104.5 37t104.5 -37t38.5 -99t-38 -99
t-105 -37q-66 0 -104.5 37t-38.5 99z" />
    <glyph glyph-name="aring" unicode="&#xe5;" 
d="M689 130q-27 -61 -96 -103t-179 -42q-159 0 -256.5 86.5t-97.5 237.5q0 150 100.5 236.5t285.5 86.5h243v91q0 55 -34.5 84.5t-96.5 29.5t-97 -30.5t-38 -82.5h-324q2 55 16 104.5t47.5 98t84.5 83t132 56t184 21.5t185.5 -20.5t147 -63.5t99.5 -117t35 -175v-711h-324
v130h-17zM537 221q62 0 107 36.5t45 92.5v100h-144q-67 0 -105.5 -30.5t-38.5 -81.5q0 -55 40 -86t96 -31zM561 1176q-102 0 -169.5 63.5t-67.5 163.5t67.5 163t169.5 63t169 -63t67 -163t-67 -163.5t-169 -63.5zM473 1402q0 -38 24.5 -62.5t62.5 -24.5t63 25t25 62t-25 62
t-63 25t-62.5 -24.5t-24.5 -62.5z" />
    <glyph glyph-name="ae" unicode="&#xe6;" horiz-adv-x="1782" 
d="M1235 -20q-294 0 -400 188h-17q-51 -81 -145.5 -134.5t-226.5 -53.5q-181 0 -284 87.5t-103 242.5q0 151 101.5 237.5t287.5 86.5h241v86q0 57 -35 87t-97 30q-60 0 -95 -27.5t-39 -73.5h-325q3 68 27.5 127.5t76 112.5t144 83.5t216.5 30.5q104 0 194 -34t138 -86h18
q46 54 128.5 87t179.5 33q225 0 362 -136.5t137 -371.5v-116h-666v-55q0 -81 52 -129.5t128 -48.5q69 0 115 30.5t50 80.5h315q-2 -48 -19 -96t-54.5 -97t-91 -86.5t-134.5 -61t-179 -23.5zM1223 847q-74 0 -122 -51t-48 -132v-9h334v6q0 85 -44 135.5t-120 50.5zM537 221
q62 0 107 36.5t45 92.5v102h-144q-67 0 -106.5 -31t-39.5 -82q0 -55 41 -86.5t97 -31.5z" />
    <glyph glyph-name="ccedilla" unicode="&#xe7;" horiz-adv-x="1099" 
d="M542 -474q-92 -1 -143 15v138q44 -13 108 -13q103 0 103 49q0 30 -23.5 42t-90.5 12h-56v120l38 97q-194 25 -304 159t-110 357v78q0 230 135 370.5t370 140.5q217 0 343.5 -117t128.5 -304h-311q-3 65 -43.5 111.5t-105.5 46.5q-79 0 -123.5 -68.5t-44.5 -180.5v-73
q0 -123 44.5 -192t123.5 -69q138 0 151 149h311q-2 -177 -104.5 -280.5t-273.5 -126.5l-37 -87q83 0 130 -47t47 -126q0 -102 -69 -151t-194 -50z" />
    <glyph glyph-name="egrave" unicode="&#xe8;" 
d="M778 1240h-295l-285 301h346zM583 -20q-240 0 -379.5 133.5t-139.5 385.5v74q0 126 38.5 225.5t107 163t160 96.5t199.5 33q230 0 365 -139.5t135 -378.5v-107h-668v-41q0 -86 50.5 -139t129.5 -53q73 0 118 33t50 86h314q-2 -49 -19 -99t-54.5 -99.5t-91 -87.5
t-135.5 -62t-180 -24zM401 659h337q0 84 -45 136t-121 52q-77 0 -124 -52.5t-47 -135.5z" />
    <glyph glyph-name="eacute" unicode="&#xe9;" 
d="M723 1235h-295l220 306h346zM583 -20q-240 0 -379.5 133.5t-139.5 385.5v74q0 126 38.5 225.5t107 163t160 96.5t199.5 33q230 0 365 -139.5t135 -378.5v-107h-668v-41q0 -86 50.5 -139t129.5 -53q73 0 118 33t50 86h314q-2 -49 -19 -99t-54.5 -99.5t-91 -87.5
t-135.5 -62t-180 -24zM401 659h337q0 84 -45 136t-121 52q-77 0 -124 -52.5t-47 -135.5z" />
    <glyph glyph-name="ecircumflex" unicode="&#xea;" 
d="M186 1233l244 316h256l232 -316h-261l-95 167h-13l-111 -167h-252zM583 -20q-240 0 -379.5 133.5t-139.5 385.5v74q0 126 38.5 225.5t107 163t160 96.5t199.5 33q230 0 365 -139.5t135 -378.5v-107h-668v-41q0 -86 50.5 -139t129.5 -53q73 0 118 33t50 86h314
q-2 -49 -19 -99t-54.5 -99.5t-91 -87.5t-135.5 -62t-180 -24zM401 659h337q0 84 -45 136t-121 52q-77 0 -124 -52.5t-47 -135.5z" />
    <glyph glyph-name="edieresis" unicode="&#xeb;" 
d="M583 -20q-240 0 -379.5 133.5t-139.5 385.5v74q0 126 38.5 225.5t107 163t160 96.5t199.5 33q230 0 365 -139.5t135 -378.5v-107h-668v-41q0 -86 50.5 -139t129.5 -53q73 0 118 33t50 86h314q-2 -49 -19 -99t-54.5 -99.5t-91 -87.5t-135.5 -62t-180 -24zM401 659h337
q0 84 -45 136t-121 52q-77 0 -124 -52.5t-47 -135.5zM209 1323q0 62 38 99t104 37t105 -37t39 -99t-38.5 -99t-105.5 -37q-65 0 -103.5 37t-38.5 99zM646 1323q0 62 38.5 99t104.5 37t104.5 -37t38.5 -99t-38 -99t-105 -37q-66 0 -104.5 37t-38.5 99z" />
    <glyph glyph-name="igrave" unicode="&#xec;" horiz-adv-x="594" 
d="M518 1240h-295l-285 301h346zM130 0v1071h357v-1071h-357z" />
    <glyph glyph-name="iacute" unicode="&#xed;" horiz-adv-x="594" 
d="M463 1235h-295l220 306h346zM130 0v1071h357v-1071h-357z" />
    <glyph glyph-name="icircumflex" unicode="&#xee;" horiz-adv-x="594" 
d="M-74 1233l244 316h256l232 -316h-261l-95 167h-13l-111 -167h-252zM130 0v1071h357v-1071h-357z" />
    <glyph glyph-name="idieresis" unicode="&#xef;" horiz-adv-x="594" 
d="M130 0v1071h357v-1071h-357zM-51 1323q0 62 38 99t104 37t105 -37t39 -99t-38.5 -99t-105.5 -37q-65 0 -103.5 37t-38.5 99zM386 1323q0 62 38.5 99t104.5 37t104.5 -37t38.5 -99t-38 -99t-105 -37q-66 0 -104.5 37t-38.5 99z" />
    <glyph glyph-name="eth" unicode="&#xf0;" horiz-adv-x="1162" 
d="M580 -20q-239 0 -377.5 136t-138.5 383v34q0 233 110.5 373t308.5 140q142 0 208 -76h16q-12 44 -15 50q-34 95 -127 197l-272 -110l-64 151l209 85q-83 76 -227 182l371 24q68 -34 136 -90l233 95l66 -150l-163 -66q244 -269 244 -662v-162q0 -251 -137 -392.5
t-381 -141.5zM582 793q-79 0 -127.5 -63.5t-48.5 -179.5v-62q0 -117 47.5 -180t128.5 -63t129 63t48 180v65q0 117 -48 178.5t-129 61.5z" />
    <glyph glyph-name="ntilde" unicode="&#xf1;" horiz-adv-x="1231" 
d="M583 1248q-47 47 -88 47q-73 0 -78 -94h-188q0 135 61.5 226t181.5 91q51 0 88.5 -18.5t80.5 -59.5q2 -2 13 -12.5t14.5 -13.5t13 -10t15 -9.5t14.5 -5t18 -2.5q37 0 54 32.5t18 80.5h188q0 -131 -71 -224t-184 -93q-37 0 -68.5 11.5t-46.5 22.5t-36 31zM110 0v1071h335
v-170h17q26 73 105.5 129.5t203.5 56.5q164 0 260 -100t96 -289v-698h-347v606q0 105 -45.5 149.5t-114.5 44.5q-72 0 -118 -50.5t-46 -148.5v-601h-346z" />
    <glyph glyph-name="ograve" unicode="&#xf2;" horiz-adv-x="1162" 
d="M794 1240h-295l-285 301h346zM582 1091q245 0 380.5 -142t135.5 -378v-61q0 -253 -134 -391.5t-382 -138.5q-249 0 -383.5 138.5t-134.5 389.5v61q0 234 137 378t381 144zM582 836q-167 0 -167 -263v-74q0 -50 7 -92.5t24 -83t52 -64t84 -23.5q164 0 164 263v74
q0 263 -164 263z" />
    <glyph glyph-name="oacute" unicode="&#xf3;" horiz-adv-x="1162" 
d="M739 1235h-295l220 306h346zM582 1091q245 0 380.5 -142t135.5 -378v-61q0 -253 -134 -391.5t-382 -138.5q-249 0 -383.5 138.5t-134.5 389.5v61q0 234 137 378t381 144zM582 836q-167 0 -167 -263v-74q0 -50 7 -92.5t24 -83t52 -64t84 -23.5q164 0 164 263v74
q0 263 -164 263z" />
    <glyph glyph-name="ocircumflex" unicode="&#xf4;" horiz-adv-x="1162" 
d="M202 1233l244 316h256l232 -316h-261l-95 167h-13l-111 -167h-252zM582 1091q245 0 380.5 -142t135.5 -378v-61q0 -253 -134 -391.5t-382 -138.5q-249 0 -383.5 138.5t-134.5 389.5v61q0 234 137 378t381 144zM582 836q-167 0 -167 -263v-74q0 -50 7 -92.5t24 -83t52 -64
t84 -23.5q164 0 164 263v74q0 263 -164 263z" />
    <glyph glyph-name="otilde" unicode="&#xf5;" horiz-adv-x="1162" 
d="M549 1248q-47 47 -88 47q-73 0 -78 -94h-188q0 135 61.5 226t181.5 91q51 0 88.5 -18.5t80.5 -59.5q2 -2 13 -12.5t14.5 -13.5t13 -10t15 -9.5t14.5 -5t18 -2.5q37 0 54 32.5t18 80.5h188q0 -131 -71 -224t-184 -93q-37 0 -68.5 11.5t-46.5 22.5t-36 31zM582 1091
q245 0 380.5 -142t135.5 -378v-61q0 -253 -134 -391.5t-382 -138.5q-249 0 -383.5 138.5t-134.5 389.5v61q0 234 137 378t381 144zM582 836q-167 0 -167 -263v-74q0 -50 7 -92.5t24 -83t52 -64t84 -23.5q164 0 164 263v74q0 263 -164 263z" />
    <glyph glyph-name="odieresis" unicode="&#xf6;" horiz-adv-x="1162" 
d="M225 1323q0 62 38 99t104 37t105 -37t39 -99t-38.5 -99t-105.5 -37q-65 0 -103.5 37t-38.5 99zM662 1323q0 62 38.5 99t104.5 37t104.5 -37t38.5 -99t-38 -99t-105 -37q-66 0 -104.5 37t-38.5 99zM582 1091q245 0 380.5 -142t135.5 -378v-61q0 -253 -134 -391.5
t-382 -138.5q-249 0 -383.5 138.5t-134.5 389.5v61q0 234 137 378t381 144zM582 836q-167 0 -167 -263v-74q0 -50 7 -92.5t24 -83t52 -64t84 -23.5q164 0 164 263v74q0 263 -164 263z" />
    <glyph glyph-name="divide" unicode="&#xf7;" horiz-adv-x="1243" 
d="M1111 469h-978v247h978v-247zM432 1018q0 76 51.5 123.5t127.5 47.5q78 0 129.5 -47.5t51.5 -123.5q0 -77 -52 -124t-129 -47q-76 0 -127.5 47.5t-51.5 123.5zM438 165q0 77 51.5 124t128.5 47q76 0 128 -48t52 -123q0 -76 -51.5 -123t-128.5 -47t-128.5 47t-51.5 123z
" />
    <glyph glyph-name="oslash" unicode="&#xf8;" horiz-adv-x="1162" 
d="M454 300q43 -70 128 -70q48 0 83.5 22.5t54.5 61.5t27.5 83t8.5 94v102q0 31 -9 50zM407 484q0 -35 8 -56l294 349q-42 70 -127 70q-62 0 -102.5 -39t-56.5 -95t-16 -127v-102zM582 -20q-191 0 -317 85l-107 -120l-113 101l111 124q-92 129 -92 329v79q0 231 140 372
t378 141q182 0 311 -87l102 116l122 -103l-110 -125q91 -128 91 -312v-80q0 -248 -137 -384t-379 -136z" />
    <glyph glyph-name="ugrave" unicode="&#xf9;" horiz-adv-x="1229" 
d="M827 1240h-295l-285 301h346zM1120 1071v-1071h-336v170h-17q-26 -73 -104.5 -129t-204.5 -56q-165 0 -259.5 98t-94.5 287v701h347v-612q0 -55 14 -94.5t38.5 -59t50.5 -27.5t56 -8q69 0 116 49t47 143v609h347z" />
    <glyph glyph-name="uacute" unicode="&#xfa;" horiz-adv-x="1229" 
d="M772 1235h-295l220 306h346zM1120 1071v-1071h-336v170h-17q-26 -73 -104.5 -129t-204.5 -56q-165 0 -259.5 98t-94.5 287v701h347v-612q0 -55 14 -94.5t38.5 -59t50.5 -27.5t56 -8q69 0 116 49t47 143v609h347z" />
    <glyph glyph-name="ucircumflex" unicode="&#xfb;" horiz-adv-x="1229" 
d="M235 1233l244 316h256l232 -316h-261l-95 167h-13l-111 -167h-252zM1120 1071v-1071h-336v170h-17q-26 -73 -104.5 -129t-204.5 -56q-165 0 -259.5 98t-94.5 287v701h347v-612q0 -55 14 -94.5t38.5 -59t50.5 -27.5t56 -8q69 0 116 49t47 143v609h347z" />
    <glyph glyph-name="udieresis" unicode="&#xfc;" horiz-adv-x="1229" 
d="M1120 1071v-1071h-336v170h-17q-26 -73 -104.5 -129t-204.5 -56q-165 0 -259.5 98t-94.5 287v701h347v-612q0 -55 14 -94.5t38.5 -59t50.5 -27.5t56 -8q69 0 116 49t47 143v609h347zM258 1323q0 62 38 99t104 37t105 -37t39 -99t-38.5 -99t-105.5 -37q-65 0 -103.5 37
t-38.5 99zM695 1323q0 62 38.5 99t104.5 37t104.5 -37t38.5 -99t-38 -99t-105 -37q-66 0 -104.5 37t-38.5 99z" />
    <glyph glyph-name="yacute" unicode="&#xfd;" horiz-adv-x="1137" 
d="M1125 1071q-317 -991 -324 -1009l-27 -72q-33 -88 -72.5 -150t-99.5 -112.5t-146 -75.5t-201 -25q-110 0 -180 14v236q30 -8 95 -8q97 0 136.5 29.5t45.5 90.5l4 20l-348 1062h382l173 -794h13l181 794h368zM726 1235h-295l220 306h346z" />
    <glyph glyph-name="thorn" unicode="&#xfe;" horiz-adv-x="1232" 
d="M776 -11q-114 0 -191.5 49t-109.5 131h-17v-513h-348l-1 1781h347v-536h17q32 83 110.5 132t193.5 49q181 0 284.5 -127t103.5 -365v-107q0 -238 -104 -366t-285 -128zM634 254q79 0 125.5 62t46.5 183v73q0 119 -46.5 181.5t-127.5 62.5q-79 0 -126.5 -61.5
t-47.5 -176.5v-91q0 -110 48.5 -171.5t127.5 -61.5z" />
    <glyph glyph-name="ydieresis" unicode="&#xff;" horiz-adv-x="1137" 
d="M1125 1071q-317 -991 -324 -1009l-27 -72q-33 -88 -72.5 -150t-99.5 -112.5t-146 -75.5t-201 -25q-110 0 -180 14v236q30 -8 95 -8q97 0 136.5 29.5t45.5 90.5l4 20l-348 1062h382l173 -794h13l181 794h368zM212 1323q0 62 38 99t104 37t105 -37t39 -99t-38.5 -99
t-105.5 -37q-65 0 -103.5 37t-38.5 99zM649 1323q0 62 38.5 99t104.5 37t104.5 -37t38.5 -99t-38 -99t-105 -37q-66 0 -104.5 37t-38.5 99z" />
    <glyph glyph-name="Amacron" unicode="&#x100;" horiz-adv-x="1315" 
d="M361 0h-356l432 1365h443l429 -1365h-382l-79 296h-407zM655 1053h-17l-133 -500h281zM965 1488h-616v165h616v-165z" />
    <glyph glyph-name="amacron" unicode="&#x101;" 
d="M689 130q-27 -61 -96 -103t-179 -42q-159 0 -256.5 86.5t-97.5 237.5q0 150 100.5 236.5t285.5 86.5h243v91q0 55 -34.5 84.5t-96.5 29.5t-97 -30.5t-38 -82.5h-324q2 55 16 104.5t47.5 98t84.5 83t132 56t184 21.5t185.5 -20.5t147 -63.5t99.5 -117t35 -175v-711h-324
v130h-17zM537 221q62 0 107 36.5t45 92.5v100h-144q-67 0 -105.5 -30.5t-38.5 -81.5q0 -55 40 -86t96 -31zM877 1235h-616v168h616v-168z" />
    <glyph glyph-name="Abreve" unicode="&#x102;" horiz-adv-x="1315" 
d="M361 0h-356l432 1365h443l429 -1365h-382l-79 296h-407zM655 1053h-17l-133 -500h281zM307 1774h189q0 -63 41.5 -99.5t119.5 -36.5t119.5 36.5t41.5 99.5h185q0 -142 -91.5 -226.5t-254.5 -84.5q-164 0 -257 84t-93 227z" />
    <glyph glyph-name="abreve" unicode="&#x103;" 
d="M689 130q-27 -61 -96 -103t-179 -42q-159 0 -256.5 86.5t-97.5 237.5q0 150 100.5 236.5t285.5 86.5h243v91q0 55 -34.5 84.5t-96.5 29.5t-97 -30.5t-38 -82.5h-324q2 55 16 104.5t47.5 98t84.5 83t132 56t184 21.5t185.5 -20.5t147 -63.5t99.5 -117t35 -175v-711h-324
v130h-17zM537 221q62 0 107 36.5t45 92.5v100h-144q-67 0 -105.5 -30.5t-38.5 -81.5q0 -55 40 -86t96 -31zM208 1511h189q0 -69 39 -116.5t115 -47.5t115 47.5t39 116.5h185q0 -145 -91 -241.5t-248 -96.5q-156 0 -249.5 96.5t-93.5 241.5z" />
    <glyph glyph-name="Aogonek" unicode="&#x104;" horiz-adv-x="1315" 
d="M361 0h-355l432 1365h443l411 -1310q-65 -31 -102.5 -73.5t-39.5 -86.5q-1 -41 31 -68t89 -27q46 0 74 7v-177q-20 -8 -67.5 -15t-91.5 -7q-112 0 -187.5 52.5t-75.5 151.5q0 106 91 185v13h-90l-75 286h-407zM656 1053h-18l-133 -500h281z" />
    <glyph glyph-name="aogonek" unicode="&#x105;" 
d="M537 221q62 0 107 36.5t45 92.5v100h-144q-67 0 -105.5 -30.5t-38.5 -81.5q0 -55 40 -86t96 -31zM1041 -369q-74 -23 -153 -23q-111 0 -188 53.5t-77 158.5q0 123 103 187v123h-20q-29 -62 -100 -103.5t-183 -41.5q-159 0 -261 87.5t-102 238.5q0 148 101 234.5t285 86.5
h243v91q0 55 -34.5 84.5t-95.5 29.5q-63 0 -98 -30.5t-38 -82.5h-324q2 72 26 133t75 114.5t144.5 84.5t220.5 31q81 0 149.5 -12.5t127.5 -40.5t100 -71t64.5 -107t23.5 -145v-652q-71 -23 -122.5 -66t-51.5 -100q0 -43 33.5 -67t84.5 -24q37 0 67 7v-178z" />
    <glyph glyph-name="Cacute" unicode="&#x106;" horiz-adv-x="1308" 
d="M460 1498l282 236h349l-332 -236h-299zM438 750v-139q0 -168 63 -254.5t178 -86.5q106 0 164 68.5t58 174.5h341v-47q0 -213 -156.5 -351.5t-411.5 -138.5q-286 0 -444 169.5t-158 467.5v137q0 299 158 469t444 170q254 0 411 -139.5t157 -358.5v-45h-341q0 107 -59 178
t-165 71q-113 0 -176 -88.5t-63 -256.5z" />
    <glyph glyph-name="cacute" unicode="&#x107;" horiz-adv-x="1099" 
d="M64 502v78q0 230 135 370.5t370 140.5q217 0 343.5 -117t128.5 -304h-311q-3 65 -43.5 111.5t-105.5 46.5q-79 0 -123.5 -68.5t-44.5 -180.5v-73q0 -123 44.5 -192t123.5 -69q138 0 151 149h311q-1 -103 -38 -183t-102 -130t-149.5 -75.5t-185.5 -25.5q-233 0 -368.5 137
t-135.5 385zM707 1235h-295l220 306h346z" />
    <glyph glyph-name="Ccircumflex" unicode="&#x108;" horiz-adv-x="1308" 
d="M438 750v-139q0 -168 63 -254.5t178 -86.5q106 0 164 68.5t58 174.5h341v-47q0 -213 -156.5 -351.5t-411.5 -138.5q-286 0 -444 169.5t-158 467.5v137q0 299 158 469t444 170q254 0 411 -139.5t157 -358.5v-45h-341q0 107 -59 178t-165 71q-113 0 -176 -88.5t-63 -256.5z
M279 1485l262 248h247l252 -248h-253l-116 118h-19l-121 -118h-252z" />
    <glyph glyph-name="ccircumflex" unicode="&#x109;" horiz-adv-x="1099" 
d="M170 1233l244 316h256l232 -316h-261l-95 167h-13l-111 -167h-252zM64 502v78q0 230 135 370.5t370 140.5q217 0 343.5 -117t128.5 -304h-311q-3 65 -43.5 111.5t-105.5 46.5q-79 0 -123.5 -68.5t-44.5 -180.5v-73q0 -123 44.5 -192t123.5 -69q138 0 151 149h311
q-1 -103 -38 -183t-102 -130t-149.5 -75.5t-185.5 -25.5q-233 0 -368.5 137t-135.5 385z" />
    <glyph glyph-name="Cdotaccent" unicode="&#x10a;" horiz-adv-x="1308" 
d="M438 750v-139q0 -168 63 -254.5t178 -86.5q106 0 164 68.5t58 174.5h341v-47q0 -213 -156.5 -351.5t-411.5 -138.5q-286 0 -444 169.5t-158 467.5v137q0 299 158 469t444 170q254 0 411 -139.5t157 -358.5v-45h-341q0 107 -59 178t-165 71q-113 0 -176 -88.5t-63 -256.5z
M517 1604q0 62 40 103t102 41q63 0 105.5 -41t42.5 -103t-42 -102t-106 -40q-62 0 -102 39.5t-40 102.5z" />
    <glyph glyph-name="cdotaccent" unicode="&#x10b;" horiz-adv-x="1099" 
d="M64 502v78q0 230 135 370.5t370 140.5q217 0 343.5 -117t128.5 -304h-311q-3 65 -43.5 111.5t-105.5 46.5q-79 0 -123.5 -68.5t-44.5 -180.5v-73q0 -123 44.5 -192t123.5 -69q138 0 151 149h311q-1 -103 -38 -183t-102 -130t-149.5 -75.5t-185.5 -25.5q-233 0 -368.5 137
t-135.5 385zM407 1310q0 62 40 103t102 41q63 0 105.5 -41t42.5 -103t-42 -102t-106 -40q-62 0 -102 39.5t-40 102.5z" />
    <glyph glyph-name="Ccaron" unicode="&#x10c;" horiz-adv-x="1308" 
d="M438 750v-139q0 -168 63 -254.5t178 -86.5q106 0 164 68.5t58 174.5h341v-47q0 -213 -156.5 -351.5t-411.5 -138.5q-286 0 -444 169.5t-158 467.5v137q0 299 158 469t444 170q254 0 411 -139.5t157 -358.5v-45h-341q0 107 -59 178t-165 71q-113 0 -176 -88.5t-63 -256.5z
M278 1734h252l122 -114h19l115 114h253l-252 -244h-246z" />
    <glyph glyph-name="ccaron" unicode="&#x10d;" horiz-adv-x="1099" 
d="M189 1515h252l111 -167h13l95 167h261l-232 -316h-256zM64 502v78q0 230 135 370.5t370 140.5q217 0 343.5 -117t128.5 -304h-311q-3 65 -43.5 111.5t-105.5 46.5q-79 0 -123.5 -68.5t-44.5 -180.5v-73q0 -123 44.5 -192t123.5 -69q138 0 151 149h311q-1 -103 -38 -183
t-102 -130t-149.5 -75.5t-185.5 -25.5q-233 0 -368.5 137t-135.5 385z" />
    <glyph glyph-name="Dcaron" unicode="&#x10e;" horiz-adv-x="1362" 
d="M239 1734h252l122 -114h19l115 114h253l-252 -244h-246zM127 1365h554q162 0 282.5 -48t193.5 -139t108.5 -212.5t35.5 -276.5q0 -156 -35.5 -280t-109 -216.5t-194 -142.5t-281.5 -50h-554v1365zM486 1084v-803h135q73 0 125.5 16.5t97 58.5t67.5 123t23 201
q0 69 -8 125t-29 109.5t-55.5 89.5t-90.5 58t-130 22h-135z" />
    <glyph glyph-name="dcaron" unicode="&#x10f;" horiz-adv-x="1524" 
d="M1289 1435h266l-49 -488h-217v488zM458 1082q114 0 194 -47.5t108 -127.5h16v530h348v-1437h-347v169h-15q-27 -80 -108 -130t-196 -50q-183 0 -287 132t-104 369v93q0 237 103.5 368t287.5 131zM599 815q-81 0 -127.5 -64.5t-46.5 -183.5v-63q0 -120 46.5 -185
t128.5 -65q80 0 128 64.5t48 184.5v66q0 118 -48 182t-129 64z" />
    <glyph glyph-name="Dcroat" unicode="&#x110;" horiz-adv-x="1460" 
d="M779 0h-554v534h-169v308h169v523h554q162 0 282.5 -48t193.5 -139t108.5 -212.5t35.5 -276.5q0 -156 -35.5 -280t-109 -216.5t-194 -142.5t-281.5 -50zM582 289h134q73 0 125.5 16.5t97 59t67.5 123t23 200.5q0 88 -13.5 155.5t-46.5 126.5t-97 91t-156 32h-134v-251
h191v-308h-191v-245z" />
    <glyph glyph-name="dcroat" unicode="&#x111;" horiz-adv-x="1238" 
d="M598 815q-79 0 -125.5 -62t-46.5 -179v-77q0 -118 47 -180.5t127 -62.5t128 62t48 176v92q0 110 -49 170.5t-129 60.5zM761 172q-26 -81 -107.5 -132t-197.5 -51q-179 0 -284 129t-105 362v113q0 232 104.5 360.5t285.5 128.5q115 0 194 -48.5t108 -129.5h17v228h-203
v179h220v138h315v-138h126v-179h-110v-1132h-346v172h-17z" />
    <glyph glyph-name="Emacron" unicode="&#x112;" horiz-adv-x="1154" 
d="M1062 281v-281h-935v1365h935v-281h-580v-270h543v-258h-543v-275h580zM890 1488h-616v165h616v-165z" />
    <glyph glyph-name="emacron" unicode="&#x113;" 
d="M583 -20q-240 0 -379.5 133.5t-139.5 385.5v74q0 126 38.5 225.5t107 163t160 96.5t199.5 33q230 0 365 -139.5t135 -378.5v-107h-668v-41q0 -86 50.5 -139t129.5 -53q73 0 118 33t50 86h314q-2 -49 -19 -99t-54.5 -99.5t-91 -87.5t-135.5 -62t-180 -24zM401 659h337
q0 84 -45 136t-121 52q-77 0 -124 -52.5t-47 -135.5zM877 1235h-616v168h616v-168z" />
    <glyph glyph-name="Ebreve" unicode="&#x114;" horiz-adv-x="1154" 
d="M1062 281v-281h-935v1365h935v-281h-580v-270h543v-258h-543v-275h580zM232 1774h189q0 -63 41.5 -99.5t119.5 -36.5t119.5 36.5t41.5 99.5h185q0 -142 -91.5 -226.5t-254.5 -84.5q-164 0 -257 84t-93 227z" />
    <glyph glyph-name="ebreve" unicode="&#x115;" 
d="M583 -20q-240 0 -379.5 133.5t-139.5 385.5v74q0 126 38.5 225.5t107 163t160 96.5t199.5 33q230 0 365 -139.5t135 -378.5v-107h-668v-41q0 -86 50.5 -139t129.5 -53q73 0 118 33t50 86h314q-2 -49 -19 -99t-54.5 -99.5t-91 -87.5t-135.5 -62t-180 -24zM401 659h337
q0 84 -45 136t-121 52q-77 0 -124 -52.5t-47 -135.5zM208 1511h189q0 -69 39 -116.5t115 -47.5t115 47.5t39 116.5h185q0 -145 -91 -241.5t-248 -96.5q-156 0 -249.5 96.5t-93.5 241.5z" />
    <glyph glyph-name="Edotaccent" unicode="&#x116;" horiz-adv-x="1154" 
d="M440 1604q0 62 40 103t102 41q63 0 105.5 -41t42.5 -103t-42 -102t-106 -40q-62 0 -102 39.5t-40 102.5zM1062 281v-281h-935v1365h935v-281h-580v-270h543v-258h-543v-275h580z" />
    <glyph glyph-name="edotaccent" unicode="&#x117;" 
d="M423 1310q0 62 40 103t102 41q63 0 105.5 -41t42.5 -103t-42 -102t-106 -40q-62 0 -102 39.5t-40 102.5zM583 -20q-240 0 -379.5 133.5t-139.5 385.5v74q0 126 38.5 225.5t107 163t160 96.5t199.5 33q230 0 365 -139.5t135 -378.5v-107h-668v-41q0 -86 50.5 -139
t129.5 -53q73 0 118 33t50 86h314q-2 -49 -19 -99t-54.5 -99.5t-91 -87.5t-135.5 -62t-180 -24zM401 659h337q0 84 -45 136t-121 52q-77 0 -124 -52.5t-47 -135.5z" />
    <glyph glyph-name="Eogonek" unicode="&#x118;" horiz-adv-x="1154" 
d="M1062 -370q-68 -22 -158 -22q-112 0 -186.5 52.5t-74.5 151.5q0 104 91 173v15h-607v1365h935v-281h-580v-270h543v-258h-543v-275h580v-220q-74 -15 -130.5 -59.5t-56.5 -107.5q0 -44 33.5 -69t86.5 -25q30 0 67 7v-177z" />
    <glyph glyph-name="eogonek" unicode="&#x119;" 
d="M665 6q-47 -18 -135 -18q-99 0 -183 32t-147.5 94t-99.5 160.5t-36 224.5v74q0 126 38.5 225.5t107 163t160 96.5t199.5 33q230 0 365 -139.5t135 -378.5v-107h-668v-41q0 -87 51 -139.5t133 -52.5q69 0 114.5 33.5t49.5 85.5h310q-3 -85 -36 -145t-90 -117
q-70 -71 -88 -98q-30 -44 -30 -89q0 -51 34 -76t88 -25q39 0 71 7v-179q-66 -22 -154 -22q-127 0 -199 54.5t-72 146.5q0 100 90 182zM401 659h337q0 84 -45 136t-121 52q-77 0 -124 -52.5t-47 -135.5z" />
    <glyph glyph-name="Ecaron" unicode="&#x11a;" horiz-adv-x="1154" 
d="M201 1734h252l122 -114h19l115 114h253l-252 -244h-246zM1062 281v-281h-935v1365h935v-281h-580v-270h543v-258h-543v-275h580z" />
    <glyph glyph-name="ecaron" unicode="&#x11b;" 
d="M205 1515h252l111 -167h13l95 167h261l-232 -316h-256zM583 -20q-240 0 -379.5 133.5t-139.5 385.5v74q0 126 38.5 225.5t107 163t160 96.5t199.5 33q230 0 365 -139.5t135 -378.5v-107h-668v-41q0 -86 50.5 -139t129.5 -53q73 0 118 33t50 86h314q-2 -49 -19 -99
t-54.5 -99.5t-91 -87.5t-135.5 -62t-180 -24zM401 659h337q0 84 -45 136t-121 52q-77 0 -124 -52.5t-47 -135.5z" />
    <glyph glyph-name="Gcircumflex" unicode="&#x11c;" horiz-adv-x="1333" 
d="M291 1485l262 248h247l252 -248h-253l-116 118h-19l-121 -118h-252zM1260 908h-346q-10 85 -71 137.5t-158 52.5q-119 0 -185 -85.5t-66 -249.5v-154q0 -342 258 -342q108 0 170 58t62 140v45h-216v247h553v-263q0 -76 -19 -148t-63 -140t-109 -118.5t-164.5 -81
t-221.5 -30.5q-158 0 -278 49.5t-191.5 137t-107 199t-35.5 245.5v160q0 184 70.5 323.5t211 219t334.5 79.5q139 0 250.5 -41.5t179.5 -110.5t104 -153t38 -176z" />
    <glyph glyph-name="gcircumflex" unicode="&#x11d;" horiz-adv-x="1222" 
d="M232 1233l244 316h256l232 -316h-261l-95 167h-13l-111 -167h-252zM586 -154q184 0 184 193v147h-16q-29 -74 -107.5 -121t-190.5 -47q-179 0 -284.5 130t-105.5 371v61q0 240 105 371t285 131q115 0 192.5 -47.5t107.5 -127.5h16v164h345v-1063q0 -91 -32.5 -162
t-84.5 -115.5t-124 -73t-145 -40t-153 -11.5q-124 0 -220 27.5t-153 75.5t-86 107t-30 126h327q10 -47 55 -71.5t115 -24.5zM599 816q-80 0 -127 -63.5t-47 -180.5v-68q0 -117 47.5 -179.5t127.5 -62.5q78 0 124 63.5t46 175.5v71q0 115 -46.5 179.5t-124.5 64.5z" />
    <glyph glyph-name="Gbreve" unicode="&#x11e;" horiz-adv-x="1333" 
d="M1260 908h-346q-10 85 -71 137.5t-158 52.5q-119 0 -185 -85.5t-66 -249.5v-154q0 -342 258 -342q108 0 170 58t62 140v45h-216v247h553v-263q0 -76 -19 -148t-63 -140t-109 -118.5t-164.5 -81t-221.5 -30.5q-158 0 -278 49.5t-191.5 137t-107 199t-35.5 245.5v160
q0 184 70.5 323.5t211 219t334.5 79.5q139 0 250.5 -41.5t179.5 -110.5t104 -153t38 -176zM321 1774h189q0 -63 41.5 -99.5t119.5 -36.5t119.5 36.5t41.5 99.5h185q0 -142 -91.5 -226.5t-254.5 -84.5q-164 0 -257 84t-93 227z" />
    <glyph glyph-name="gbreve" unicode="&#x11f;" horiz-adv-x="1222" 
d="M254 1511h189q0 -69 39 -116.5t115 -47.5t115 47.5t39 116.5h185q0 -145 -91 -241.5t-248 -96.5q-156 0 -249.5 96.5t-93.5 241.5zM586 -154q184 0 184 193v147h-16q-29 -74 -107.5 -121t-190.5 -47q-179 0 -284.5 130t-105.5 371v61q0 240 105 371t285 131
q115 0 192.5 -47.5t107.5 -127.5h16v164h345v-1063q0 -91 -32.5 -162t-84.5 -115.5t-124 -73t-145 -40t-153 -11.5q-124 0 -220 27.5t-153 75.5t-86 107t-30 126h327q10 -47 55 -71.5t115 -24.5zM599 816q-80 0 -127 -63.5t-47 -180.5v-68q0 -117 47.5 -179.5t127.5 -62.5
q78 0 124 63.5t46 175.5v71q0 115 -46.5 179.5t-124.5 64.5z" />
    <glyph glyph-name="Gdotaccent" unicode="&#x120;" horiz-adv-x="1333" 
d="M529 1604q0 62 40 103t102 41q63 0 105.5 -41t42.5 -103t-42 -102t-106 -40q-62 0 -102 39.5t-40 102.5zM1260 908h-346q-10 85 -71 137.5t-158 52.5q-119 0 -185 -85.5t-66 -249.5v-154q0 -342 258 -342q108 0 170 58t62 140v45h-216v247h553v-263q0 -76 -19 -148
t-63 -140t-109 -118.5t-164.5 -81t-221.5 -30.5q-158 0 -278 49.5t-191.5 137t-107 199t-35.5 245.5v160q0 184 70.5 323.5t211 219t334.5 79.5q139 0 250.5 -41.5t179.5 -110.5t104 -153t38 -176z" />
    <glyph glyph-name="gdotaccent" unicode="&#x121;" horiz-adv-x="1222" 
d="M469 1310q0 62 40 103t102 41q63 0 105.5 -41t42.5 -103t-42 -102t-106 -40q-62 0 -102 39.5t-40 102.5zM586 -154q184 0 184 193v147h-16q-29 -74 -107.5 -121t-190.5 -47q-179 0 -284.5 130t-105.5 371v61q0 240 105 371t285 131q115 0 192.5 -47.5t107.5 -127.5h16
v164h345v-1063q0 -91 -32.5 -162t-84.5 -115.5t-124 -73t-145 -40t-153 -11.5q-124 0 -220 27.5t-153 75.5t-86 107t-30 126h327q10 -47 55 -71.5t115 -24.5zM599 816q-80 0 -127 -63.5t-47 -180.5v-68q0 -117 47.5 -179.5t127.5 -62.5q78 0 124 63.5t46 175.5v71
q0 115 -46.5 179.5t-124.5 64.5z" />
    <glyph glyph-name="Gcommaaccent" unicode="&#x122;" horiz-adv-x="1333" 
d="M687 -489h-220l85 335h249zM1260 908h-346q-10 85 -71 137.5t-158 52.5q-119 0 -185 -85.5t-66 -249.5v-154q0 -342 258 -342q108 0 170 58t62 140v45h-216v247h553v-263q0 -76 -19 -148t-63 -140t-109 -118.5t-164.5 -81t-221.5 -30.5q-158 0 -278 49.5t-191.5 137
t-107 199t-35.5 245.5v160q0 184 70.5 323.5t211 219t334.5 79.5q139 0 250.5 -41.5t179.5 -110.5t104 -153t38 -176z" />
    <glyph glyph-name="gcommaaccent" unicode="&#x123;" horiz-adv-x="1222" 
d="M574 1597h220l-85 -335h-249zM586 -154q184 0 184 193v147h-16q-29 -74 -107.5 -121t-190.5 -47q-179 0 -284.5 130t-105.5 371v61q0 240 105 371t285 131q115 0 192.5 -47.5t107.5 -127.5h16v164h345v-1063q0 -91 -32.5 -162t-84.5 -115.5t-124 -73t-145 -40t-153 -11.5
q-124 0 -220 27.5t-153 75.5t-86 107t-30 126h327q10 -47 55 -71.5t115 -24.5zM599 816q-80 0 -127 -63.5t-47 -180.5v-68q0 -117 47.5 -179.5t127.5 -62.5q78 0 124 63.5t46 175.5v71q0 115 -46.5 179.5t-124.5 64.5z" />
    <glyph glyph-name="Hcircumflex" unicode="&#x124;" horiz-adv-x="1440" 
d="M1312 0h-358v545h-468v-545h-359v1365h359v-532h468v532h358v-1365zM340 1485l262 248h247l252 -248h-253l-116 118h-19l-121 -118h-252z" />
    <glyph glyph-name="hcircumflex" unicode="&#x125;" horiz-adv-x="1237" 
d="M114 0v1437h347v-536h16q11 32 33.5 62.5t57.5 59.5t89.5 46.5t118.5 17.5q166 0 263 -104.5t97 -295.5v-687h-347v602q0 104 -46 151t-115 47q-72 0 -119.5 -51.5t-47.5 -148.5v-600h-347zM-91 1599l244 316h256l232 -316h-261l-95 167h-13l-111 -167h-252z" />
    <glyph glyph-name="Hbar" unicode="&#x126;" horiz-adv-x="1440" 
d="M486 826h468v165h-468v-165zM486 538v-538h-359v991h-78v204h78v170h359v-170h468v170h358v-170h77v-204h-77v-991h-358v538h-468z" />
    <glyph glyph-name="hbar" unicode="&#x127;" horiz-adv-x="1237" 
d="M461 592v-592h-347v1132h-107v179h123v126h316v-126h213v-179h-198v-244h17q10 32 32 64.5t58 64t93 51t124 19.5q161 0 256 -98.5t95 -285.5v-703h-347v613q0 102 -45 145.5t-112 43.5q-74 0 -122.5 -55.5t-48.5 -154.5z" />
    <glyph glyph-name="Itilde" unicode="&#x128;" horiz-adv-x="613" 
d="M486 0h-359v1365h359v-1365zM296 1506q-5 4 -18 16.5t-20 18.5t-20 12t-26 6q-64 0 -68 -81h-167q0 92 53 162.5t148 70.5q55 0 89 -14.5t71 -45.5q6 -5 17.5 -16t17 -15.5t15 -10.5t17.5 -8.5t18 -2.5q33 0 48 28.5t16 69.5h167q0 -103 -60 -172t-150 -69
q-41 0 -71.5 8.5t-44.5 17.5t-32 25z" />
    <glyph glyph-name="itilde" unicode="&#x129;" horiz-adv-x="594" 
d="M130 0v1071h357v-1071h-357zM273 1248q-47 47 -88 47q-73 0 -78 -94h-188q0 135 61.5 226t181.5 91q51 0 88.5 -18.5t80.5 -59.5q2 -2 13 -12.5t14.5 -13.5t13 -10t15 -9.5t14.5 -5t18 -2.5q37 0 54 32.5t18 80.5h188q0 -131 -71 -224t-184 -93q-37 0 -68.5 11.5
t-46.5 22.5t-36 31z" />
    <glyph glyph-name="Imacron" unicode="&#x12a;" horiz-adv-x="613" 
d="M486 0h-359v1365h359v-1365zM614 1488h-616v165h616v-165z" />
    <glyph glyph-name="imacron" unicode="&#x12b;" horiz-adv-x="594" 
d="M130 0v1071h357v-1071h-357zM617 1235h-616v168h616v-168z" />
    <glyph glyph-name="Ibreve" unicode="&#x12c;" horiz-adv-x="613" 
d="M486 0h-359v1365h359v-1365zM-44 1774h189q0 -63 41.5 -99.5t119.5 -36.5t119.5 36.5t41.5 99.5h185q0 -142 -91.5 -226.5t-254.5 -84.5q-164 0 -257 84t-93 227z" />
    <glyph glyph-name="ibreve" unicode="&#x12d;" horiz-adv-x="594" 
d="M130 0v1071h357v-1071h-357zM-52 1511h189q0 -69 39 -116.5t115 -47.5t115 47.5t39 116.5h185q0 -145 -91 -241.5t-248 -96.5q-156 0 -249.5 96.5t-93.5 241.5z" />
    <glyph glyph-name="Iogonek" unicode="&#x12e;" horiz-adv-x="612" 
d="M507 -366q-20 -9 -67 -18t-96 -9q-126 0 -192.5 59t-66.5 152q0 110 103 178v12h-61v1357h359v-1301q-165 -71 -165 -174q0 -44 31 -68t82 -24q44 0 73 9v-173z" />
    <glyph glyph-name="iogonek" unicode="&#x12f;" horiz-adv-x="594" 
d="M476 -374q-64 -18 -154 -18q-144 0 -225 56t-81 158q0 116 108 186v1063h346v-989q-45 -18 -85.5 -41t-76.5 -63.5t-36 -82.5q0 -45 34.5 -70t90.5 -25t79 7v-181zM94 1373q0 75 54 121.5t148 46.5t148.5 -46.5t54.5 -121.5t-54.5 -121t-148.5 -46q-93 0 -147.5 46
t-54.5 121z" />
    <glyph glyph-name="Idotaccent" unicode="&#x130;" horiz-adv-x="613" 
d="M486 0h-359v1365h359v-1365zM164 1604q0 62 40 103t102 41q63 0 105.5 -41t42.5 -103t-42 -102t-106 -40q-62 0 -102 39.5t-40 102.5z" />
    <glyph glyph-name="dotlessi" unicode="&#x131;" horiz-adv-x="594" 
d="M130 0v1071h357v-1071h-357z" />
    <glyph glyph-name="Jcircumflex" unicode="&#x134;" horiz-adv-x="1154" 
d="M26 459h343q1 -78 43.5 -123.5t112.5 -45.5q155 0 155 182v893h359v-894q0 -244 -135 -369.5t-375 -125.5q-127 0 -226 40.5t-158 109t-89 153t-30 180.5zM481 1485l262 248h247l252 -248h-253l-116 118h-19l-121 -118h-252z" />
    <glyph glyph-name="jcircumflex" unicode="&#x135;" horiz-adv-x="593" 
d="M469 1071v-1071q0 -178 -110 -267.5t-299 -89.5q-68 0 -119 7v238q28 -4 52 -4q64 0 97.5 27.5t33.5 91.5v1068h345zM-63 1220l244 316h256l232 -316h-261l-95 167h-13l-111 -167h-252z" />
    <glyph glyph-name="Kcommaaccent" unicode="&#x136;" horiz-adv-x="1325" 
d="M1328 1365l-467 -594l483 -771h-420l-325 536l-113 -136v-400h-359v1365h359v-566h16l446 566h380zM678 -489h-220l85 335h249z" />
    <glyph glyph-name="kcommaaccent" unicode="&#x137;" horiz-adv-x="1185" 
d="M458 352v-352h-348v1437h348v-779h16l283 413h387l-362 -460l388 -611h-402l-254 421zM615 -489h-220l85 335h249z" />
    <glyph glyph-name="Lacute" unicode="&#x139;" horiz-adv-x="1046" 
d="M107 1498l282 236h349l-332 -236h-299zM1019 297v-297h-892v1365h359v-1068h533z" />
    <glyph glyph-name="lacute" unicode="&#x13a;" horiz-adv-x="585" 
d="M450 1601h-295l220 306h346zM119 0v1437h347v-1437h-347z" />
    <glyph glyph-name="Lcommaaccent" unicode="&#x13b;" horiz-adv-x="1046" 
d="M545 -489h-220l85 335h249zM1019 297v-297h-892v1365h359v-1068h533z" />
    <glyph glyph-name="lcommaaccent" unicode="&#x13c;" horiz-adv-x="585" 
d="M308 -489h-220l85 335h249zM119 0v1437h347v-1437h-347z" />
    <glyph glyph-name="Lcaron" unicode="&#x13d;" horiz-adv-x="1046" 
d="M671 1435h268l-50 -488h-218v488zM1019 297v-297h-892v1365h359v-1068h533z" />
    <glyph glyph-name="lcaron" unicode="&#x13e;" horiz-adv-x="831" 
d="M605 1435h266l-49 -488h-217v488zM119 0v1437h347v-1437h-347z" />
    <glyph glyph-name="Lslash" unicode="&#x141;" horiz-adv-x="1082" 
d="M1055 0h-891v492l-113 -63v286l113 63v587h357v-388l268 152v-289l-268 -150v-393h534v-297z" />
    <glyph glyph-name="lslash" unicode="&#x142;" horiz-adv-x="703" 
d="M526 0h-347v518l-130 -74v267l130 77v649h347v-452l128 75v-286l-128 -73v-701z" />
    <glyph glyph-name="Nacute" unicode="&#x143;" horiz-adv-x="1398" 
d="M500 1498l282 236h349l-332 -236h-299zM459 0h-332v1365h278l521 -762h14v762h331v-1365h-276l-523 771h-13v-771z" />
    <glyph glyph-name="nacute" unicode="&#x144;" horiz-adv-x="1231" 
d="M773 1235h-295l220 306h346zM110 0v1071h335v-170h17q26 73 105.5 129.5t203.5 56.5q164 0 260 -100t96 -289v-698h-347v606q0 105 -45.5 149.5t-114.5 44.5q-72 0 -118 -50.5t-46 -148.5v-601h-346z" />
    <glyph glyph-name="Ncommaaccent" unicode="&#x145;" horiz-adv-x="1398" 
d="M715 -489h-220l85 335h249zM459 0h-332v1365h278l521 -762h14v762h331v-1365h-276l-523 771h-13v-771z" />
    <glyph glyph-name="ncommaaccent" unicode="&#x146;" horiz-adv-x="1231" 
d="M631 -489h-220l85 335h249zM110 0v1071h335v-170h17q26 73 105.5 129.5t203.5 56.5q164 0 260 -100t96 -289v-698h-347v606q0 105 -45.5 149.5t-114.5 44.5q-72 0 -118 -50.5t-46 -148.5v-601h-346z" />
    <glyph glyph-name="Ncaron" unicode="&#x147;" horiz-adv-x="1398" 
d="M318 1734h252l122 -114h19l115 114h253l-252 -244h-246zM459 0h-332v1365h278l521 -762h14v762h331v-1365h-276l-523 771h-13v-771z" />
    <glyph glyph-name="ncaron" unicode="&#x148;" horiz-adv-x="1231" 
d="M255 1515h252l111 -167h13l95 167h261l-232 -316h-256zM110 0v1071h335v-170h17q26 73 105.5 129.5t203.5 56.5q164 0 260 -100t96 -289v-698h-347v606q0 105 -45.5 149.5t-114.5 44.5q-72 0 -118 -50.5t-46 -148.5v-601h-346z" />
    <glyph glyph-name="Omacron" unicode="&#x14c;" horiz-adv-x="1383" 
d="M438 759v-157q0 -164 68 -251t186 -87q117 0 185 87t68 251v157q0 165 -68 253t-185 88t-185.5 -88t-68.5 -253zM72 604v150q0 294 163.5 464.5t456.5 170.5t456 -171t163 -464v-150q0 -291 -162.5 -459.5t-457.5 -168.5q-293 0 -456 168.5t-163 459.5zM999 1488h-616
v165h616v-165z" />
    <glyph glyph-name="omacron" unicode="&#x14d;" horiz-adv-x="1162" 
d="M893 1235h-616v168h616v-168zM582 1091q245 0 380.5 -142t135.5 -378v-61q0 -253 -134 -391.5t-382 -138.5q-249 0 -383.5 138.5t-134.5 389.5v61q0 234 137 378t381 144zM582 836q-167 0 -167 -263v-74q0 -50 7 -92.5t24 -83t52 -64t84 -23.5q164 0 164 263v74
q0 263 -164 263z" />
    <glyph glyph-name="Obreve" unicode="&#x14e;" horiz-adv-x="1383" 
d="M438 759v-157q0 -164 68 -251t186 -87q117 0 185 87t68 251v157q0 165 -68 253t-185 88t-185.5 -88t-68.5 -253zM72 604v150q0 294 163.5 464.5t456.5 170.5t456 -171t163 -464v-150q0 -291 -162.5 -459.5t-457.5 -168.5q-293 0 -456 168.5t-163 459.5zM341 1774h189
q0 -63 41.5 -99.5t119.5 -36.5t119.5 36.5t41.5 99.5h185q0 -142 -91.5 -226.5t-254.5 -84.5q-164 0 -257 84t-93 227z" />
    <glyph glyph-name="obreve" unicode="&#x14f;" horiz-adv-x="1162" 
d="M224 1511h189q0 -69 39 -116.5t115 -47.5t115 47.5t39 116.5h185q0 -145 -91 -241.5t-248 -96.5q-156 0 -249.5 96.5t-93.5 241.5zM582 1091q245 0 380.5 -142t135.5 -378v-61q0 -253 -134 -391.5t-382 -138.5q-249 0 -383.5 138.5t-134.5 389.5v61q0 234 137 378
t381 144zM582 836q-167 0 -167 -263v-74q0 -50 7 -92.5t24 -83t52 -64t84 -23.5q164 0 164 263v74q0 263 -164 263z" />
    <glyph glyph-name="Ohungarumlaut" unicode="&#x150;" horiz-adv-x="1383" 
d="M340 1498l287 239h275l-330 -239h-232zM761 1498l287 239h276l-331 -239h-232zM438 759v-157q0 -164 68 -251t186 -87q117 0 185 87t68 251v157q0 165 -68 253t-185 88t-185.5 -88t-68.5 -253zM72 604v150q0 294 163.5 464.5t456.5 170.5t456 -171t163 -464v-150
q0 -291 -162.5 -459.5t-457.5 -168.5q-293 0 -456 168.5t-163 459.5z" />
    <glyph glyph-name="ohungarumlaut" unicode="&#x151;" horiz-adv-x="1162" 
d="M453 1235h-200l240 340h249zM838 1235h-200l240 340h249zM582 1091q245 0 380.5 -142t135.5 -378v-61q0 -253 -134 -391.5t-382 -138.5q-249 0 -383.5 138.5t-134.5 389.5v61q0 234 137 378t381 144zM582 836q-167 0 -167 -263v-74q0 -50 7 -92.5t24 -83t52 -64t84 -23.5
q164 0 164 263v74q0 263 -164 263z" />
    <glyph glyph-name="OE" unicode="&#x152;" horiz-adv-x="1973" 
d="M453 759v-159q0 -165 68.5 -251.5t187.5 -86.5q118 0 186.5 85t68.5 249v168q0 164 -69 250t-186 86q-118 0 -187 -88t-69 -253zM626 -24q-257 0 -405.5 172t-148.5 458v147q0 303 153 469.5t402 166.5q125 0 219 -43t144 -124h19v143h871v-281h-577v-270h541v-258h-541
v-275h577v-281h-871v145h-19q-49 -78 -142 -123.5t-222 -45.5z" />
    <glyph glyph-name="oe" unicode="&#x153;" horiz-adv-x="1829" 
d="M1280 -20q-108 0 -199.5 34.5t-141.5 90.5h-19q-51 -56 -143.5 -90.5t-194.5 -34.5q-244 0 -381 135.5t-137 383.5v79q0 231 140 372t378 141q103 0 196 -37t140 -98h19q47 61 135.5 98t193.5 37q225 0 362.5 -137t137.5 -372v-116h-668v-48q0 -85 51.5 -135t129.5 -50
q69 0 116 30.5t51 80.5h314q-2 -47 -19 -96t-54.5 -97.5t-91.5 -86t-135.5 -61t-179.5 -23.5zM582 836q-86 0 -126.5 -72.5t-40.5 -180.5v-93q0 -49 8.5 -91.5t26.5 -80.5t52 -60t80 -22q60 0 98.5 39.5t52 93.5t13.5 121v93q0 51 -8.5 94.5t-27 80t-51.5 57.5t-77 21z
M1098 655h337v4q0 85 -45 136.5t-121 51.5t-123.5 -52t-47.5 -136v-4z" />
    <glyph glyph-name="Racute" unicode="&#x154;" horiz-adv-x="1304" 
d="M443 1498l282 236h349l-332 -236h-299zM720 1365q250 0 382.5 -124t132.5 -330q0 -80 -25 -149.5t-64.5 -115.5t-77.5 -75.5t-76 -45.5l271 -525h-395l-228 477h-161v-477h-352v1365h593zM479 725h185q91 0 146.5 47.5t55.5 137.5q0 91 -57 141t-143 50h-187v-376z" />
    <glyph glyph-name="racute" unicode="&#x155;" horiz-adv-x="842" 
d="M596 1235h-295l220 306h346zM114 0v1071h347v-161h16q18 67 78.5 121.5t159.5 54.5q73 0 102 -10v-292q-36 14 -123 14q-222 0 -222 -234v-564h-358z" />
    <glyph glyph-name="Rcommaaccent" unicode="&#x156;" horiz-adv-x="1304" 
d="M720 1365q250 0 382.5 -124t132.5 -330q0 -80 -25 -149.5t-64.5 -115.5t-77.5 -75.5t-76 -45.5l271 -525h-395l-228 477h-161v-477h-352v1365h593zM479 725h185q91 0 146.5 47.5t55.5 137.5q0 91 -57 141t-143 50h-187v-376zM658 -489h-220l85 335h249z" />
    <glyph glyph-name="rcommaaccent" unicode="&#x157;" horiz-adv-x="842" 
d="M114 0v1071h347v-161h16q18 67 78.5 121.5t159.5 54.5q73 0 102 -10v-292q-36 14 -123 14q-222 0 -222 -234v-564h-358zM312 -489h-220l85 335h249z" />
    <glyph glyph-name="Rcaron" unicode="&#x158;" horiz-adv-x="1304" 
d="M720 1365q250 0 382.5 -124t132.5 -330q0 -80 -25 -149.5t-64.5 -115.5t-77.5 -75.5t-76 -45.5l271 -525h-395l-228 477h-161v-477h-352v1365h593zM479 725h185q91 0 146.5 47.5t55.5 137.5q0 91 -57 141t-143 50h-187v-376zM261 1734h252l122 -114h19l115 114h253
l-252 -244h-246z" />
    <glyph glyph-name="rcaron" unicode="&#x159;" horiz-adv-x="842" 
d="M78 1515h252l111 -167h13l95 167h261l-232 -316h-256zM114 0v1071h347v-161h16q18 67 78.5 121.5t159.5 54.5q73 0 102 -10v-292q-36 14 -123 14q-222 0 -222 -234v-564h-358z" />
    <glyph glyph-name="Sacute" unicode="&#x15a;" horiz-adv-x="1254" 
d="M427 1498l282 236h349l-332 -236h-299zM58 405h339q4 -66 65.5 -113t168.5 -47q103 0 155 39t52 102q0 58 -47.5 89t-151.5 52l-184 37q-370 73 -370 394q0 135 70 233.5t192 148.5t281 50q127 0 230 -34t169 -92t102 -134t36 -162h-328q-3 63 -57.5 109.5t-151.5 46.5
q-90 0 -138.5 -37.5t-48.5 -99.5q0 -97 181 -130l191 -36q377 -68 377 -398q0 -205 -148.5 -326t-421.5 -121q-123 0 -221.5 25.5t-160.5 67t-103.5 98.5t-58.5 115.5t-18 122.5z" />
    <glyph glyph-name="sacute" unicode="&#x15b;" horiz-adv-x="1068" 
d="M78 746q0 91 37 159t102 107.5t145.5 59t176.5 19.5q197 0 315.5 -86.5t118.5 -245.5h-300q-6 46 -40.5 78.5t-97.5 32.5q-62 0 -96 -27t-34 -71q0 -19 9 -35t29.5 -27.5t39 -20t51.5 -15t52.5 -10t56.5 -9t50 -7.5q154 -25 235.5 -98.5t81.5 -207.5q0 -169 -127 -265.5
t-362 -96.5q-222 0 -344 92t-122 240h336q4 -47 44 -78t103 -31q69 0 103.5 27.5t34.5 72.5q0 18 -7 32t-23 24.5t-32 17.5t-43.5 13.5t-48 10.5t-55 9.5t-54.5 9.5q-74 14 -131 37.5t-105 61t-73.5 95t-25.5 132.5zM692 1235h-295l220 306h346z" />
    <glyph glyph-name="Scircumflex" unicode="&#x15c;" horiz-adv-x="1254" 
d="M58 405h339q4 -66 65.5 -113t168.5 -47q103 0 155 39t52 102q0 58 -47.5 89t-151.5 52l-184 37q-370 73 -370 394q0 135 70 233.5t192 148.5t281 50q127 0 230 -34t169 -92t102 -134t36 -162h-328q-3 63 -57.5 109.5t-151.5 46.5q-90 0 -138.5 -37.5t-48.5 -99.5
q0 -97 181 -130l191 -36q377 -68 377 -398q0 -205 -148.5 -326t-421.5 -121q-123 0 -221.5 25.5t-160.5 67t-103.5 98.5t-58.5 115.5t-18 122.5zM246 1485l262 248h247l252 -248h-253l-116 118h-19l-121 -118h-252z" />
    <glyph glyph-name="scircumflex" unicode="&#x15d;" horiz-adv-x="1068" 
d="M155 1233l244 316h256l232 -316h-261l-95 167h-13l-111 -167h-252zM78 746q0 91 37 159t102 107.5t145.5 59t176.5 19.5q197 0 315.5 -86.5t118.5 -245.5h-300q-6 46 -40.5 78.5t-97.5 32.5q-62 0 -96 -27t-34 -71q0 -19 9 -35t29.5 -27.5t39 -20t51.5 -15t52.5 -10
t56.5 -9t50 -7.5q154 -25 235.5 -98.5t81.5 -207.5q0 -169 -127 -265.5t-362 -96.5q-222 0 -344 92t-122 240h336q4 -47 44 -78t103 -31q69 0 103.5 27.5t34.5 72.5q0 18 -7 32t-23 24.5t-32 17.5t-43.5 13.5t-48 10.5t-55 9.5t-54.5 9.5q-74 14 -131 37.5t-105 61t-73.5 95
t-25.5 132.5z" />
    <glyph glyph-name="Scedilla" unicode="&#x15e;" horiz-adv-x="1254" 
d="M625 -474q-92 -1 -143 15v138q44 -13 108 -13q103 0 103 49q0 30 -23.5 42t-90.5 12h-57v120l36 88q-109 6 -196.5 34.5t-143 70t-92.5 96.5t-52 111t-16 116h339q4 -66 65.5 -113t168.5 -47q103 0 155 39t52 102q0 58 -47.5 89t-151.5 52l-184 37q-370 73 -370 394
q0 135 70 233.5t192 148.5t281 50q127 0 230 -34t169 -92t102 -134t36 -162h-328q-3 63 -57.5 109.5t-151.5 46.5q-90 0 -138.5 -37.5t-48.5 -99.5q0 -97 181 -130l191 -36q377 -68 377 -398q0 -179 -115.5 -296t-328.5 -144l-35 -83q83 0 130.5 -47t47.5 -126
q0 -102 -69.5 -151t-194.5 -50z" />
    <glyph glyph-name="scedilla" unicode="&#x15f;" horiz-adv-x="1068" 
d="M524 -473q-89 -1 -143 16v138q47 -14 108 -14q103 0 103 49q0 30 -24.5 42t-91.5 12h-57v120l36 92q-192 15 -296 104.5t-104 225.5h336q4 -47 44 -78t103 -31q69 0 103.5 27.5t34.5 72.5q0 18 -7 32t-23 24.5t-32 17.5t-43.5 13.5t-48 10.5t-55 9.5t-54.5 9.5
q-74 14 -131 37.5t-105 61t-73.5 95t-25.5 132.5q0 91 37 159t102 107.5t145.5 59t176.5 19.5q197 0 315.5 -86.5t118.5 -245.5h-300q-6 46 -40.5 78.5t-97.5 32.5q-62 0 -96 -27t-34 -71q0 -19 9 -35t29.5 -27.5t39 -20t51.5 -15t52.5 -10t56.5 -9t50 -7.5
q154 -25 235.5 -98.5t81.5 -207.5q0 -145 -95 -237.5t-272 -116.5l-35 -86q83 0 131.5 -47.5t48.5 -125.5q0 -102 -69.5 -151.5t-194.5 -50.5z" />
    <glyph glyph-name="Scaron" unicode="&#x160;" horiz-adv-x="1254" 
d="M58 405h339q4 -66 65.5 -113t168.5 -47q103 0 155 39t52 102q0 58 -47.5 89t-151.5 52l-184 37q-370 73 -370 394q0 135 70 233.5t192 148.5t281 50q127 0 230 -34t169 -92t102 -134t36 -162h-328q-3 63 -57.5 109.5t-151.5 46.5q-90 0 -138.5 -37.5t-48.5 -99.5
q0 -97 181 -130l191 -36q377 -68 377 -398q0 -205 -148.5 -326t-421.5 -121q-123 0 -221.5 25.5t-160.5 67t-103.5 98.5t-58.5 115.5t-18 122.5zM245 1734h252l122 -114h19l115 114h253l-252 -244h-246z" />
    <glyph glyph-name="scaron" unicode="&#x161;" horiz-adv-x="1068" 
d="M174 1515h252l111 -167h13l95 167h261l-232 -316h-256zM78 746q0 91 37 159t102 107.5t145.5 59t176.5 19.5q197 0 315.5 -86.5t118.5 -245.5h-300q-6 46 -40.5 78.5t-97.5 32.5q-62 0 -96 -27t-34 -71q0 -19 9 -35t29.5 -27.5t39 -20t51.5 -15t52.5 -10t56.5 -9t50 -7.5
q154 -25 235.5 -98.5t81.5 -207.5q0 -169 -127 -265.5t-362 -96.5q-222 0 -344 92t-122 240h336q4 -47 44 -78t103 -31q69 0 103.5 27.5t34.5 72.5q0 18 -7 32t-23 24.5t-32 17.5t-43.5 13.5t-48 10.5t-55 9.5t-54.5 9.5q-74 14 -131 37.5t-105 61t-73.5 95t-25.5 132.5z
" />
    <glyph glyph-name="Tcedilla" unicode="&#x162;" horiz-adv-x="1107" 
d="M527 -479q-92 -1 -143 15v138q44 -13 108 -13q104 0 104 49q0 29 -25 41.5t-92 12.5h-57v120l45 116h-93v1074h-364v291h1086v-291h-364v-1074h-78l-43 -105q83 0 131.5 -47t48.5 -126q0 -102 -69.5 -151t-194.5 -50z" />
    <glyph glyph-name="tcedilla" unicode="&#x163;" horiz-adv-x="828" 
d="M445 -457q-95 -1 -143 16v138q47 -14 108 -14q103 0 103 49q0 29 -25 41.5t-91 12.5h-57v120l44 116q-97 29 -142.5 97.5t-45.5 186.5v488h-159v258h168v264h334v-264h203v-258h-203v-421q0 -64 34 -92t105 -28q44 0 66 2v-248q-56 -9 -150 -9h-33l-32 -81q83 0 131 -47
t48 -126q0 -102 -69 -151t-194 -50z" />
    <glyph glyph-name="Tcaron" unicode="&#x164;" horiz-adv-x="1107" 
d="M172 1734h252l122 -114h19l115 114h253l-252 -244h-246zM732 0h-358v1074h-364v291h1086v-291h-364v-1074z" />
    <glyph glyph-name="tcaron" unicode="&#x165;" horiz-adv-x="920" 
d="M675 1662h266l-49 -488h-217v488zM205 1052v264h334v-264h203v-258h-203v-421q0 -64 34 -92t105 -28q44 0 66 2v-248q-56 -9 -150 -9q-211 0 -304.5 70.5t-93.5 237.5v488h-159v258h168z" />
    <glyph glyph-name="Tbar" unicode="&#x166;" horiz-adv-x="1107" 
d="M959 555h-226v-555h-358v555h-225v204h225v315h-364v291h1086v-291h-364v-315h226v-204z" />
    <glyph glyph-name="tbar" unicode="&#x167;" horiz-adv-x="818" 
d="M744 7q-54 -9 -150 -9q-211 0 -304.5 70.5t-93.5 237.5v159h-134v179h134v150h-159v258h168v264h334v-264h203v-258h-203v-150h194v-179h-194v-92q0 -64 34 -92t105 -28q36 0 66 3v-249z" />
    <glyph glyph-name="Utilde" unicode="&#x168;" horiz-adv-x="1389" 
d="M470 1365v-847q0 -121 60.5 -183t163.5 -62t163.5 62.5t60.5 182.5v847h359v-893q0 -226 -157.5 -361t-425.5 -135q-267 0 -424.5 135.5t-157.5 361.5v892h358zM684 1506q-5 4 -18 16.5t-20 18.5t-20 12t-26 6q-64 0 -68 -81h-167q0 92 53 162.5t148 70.5q55 0 89 -14.5
t71 -45.5q6 -5 17.5 -16t17 -15.5t15 -10.5t17.5 -8.5t18 -2.5q33 0 48 28.5t16 69.5h167q0 -103 -60 -172t-150 -69q-41 0 -71.5 8.5t-44.5 17.5t-32 25z" />
    <glyph glyph-name="utilde" unicode="&#x169;" horiz-adv-x="1229" 
d="M1120 1071v-1071h-336v170h-17q-26 -73 -104.5 -129t-204.5 -56q-165 0 -259.5 98t-94.5 287v701h347v-612q0 -55 14 -94.5t38.5 -59t50.5 -27.5t56 -8q69 0 116 49t47 143v609h347zM582 1248q-47 47 -88 47q-73 0 -78 -94h-188q0 135 61.5 226t181.5 91q51 0 88.5 -18.5
t80.5 -59.5q2 -2 13 -12.5t14.5 -13.5t13 -10t15 -9.5t14.5 -5t18 -2.5q37 0 54 32.5t18 80.5h188q0 -131 -71 -224t-184 -93q-37 0 -68.5 11.5t-46.5 22.5t-36 31z" />
    <glyph glyph-name="Umacron" unicode="&#x16a;" horiz-adv-x="1389" 
d="M470 1365v-847q0 -121 60.5 -183t163.5 -62t163.5 62.5t60.5 182.5v847h359v-893q0 -226 -157.5 -361t-425.5 -135q-267 0 -424.5 135.5t-157.5 361.5v892h358zM1002 1488h-616v165h616v-165z" />
    <glyph glyph-name="umacron" unicode="&#x16b;" horiz-adv-x="1229" 
d="M1120 1071v-1071h-336v170h-17q-26 -73 -104.5 -129t-204.5 -56q-165 0 -259.5 98t-94.5 287v701h347v-612q0 -55 14 -94.5t38.5 -59t50.5 -27.5t56 -8q69 0 116 49t47 143v609h347zM926 1235h-616v168h616v-168z" />
    <glyph glyph-name="Ubreve" unicode="&#x16c;" horiz-adv-x="1389" 
d="M470 1365v-847q0 -121 60.5 -183t163.5 -62t163.5 62.5t60.5 182.5v847h359v-893q0 -226 -157.5 -361t-425.5 -135q-267 0 -424.5 135.5t-157.5 361.5v892h358zM344 1774h189q0 -63 41.5 -99.5t119.5 -36.5t119.5 36.5t41.5 99.5h185q0 -142 -91.5 -226.5t-254.5 -84.5
q-164 0 -257 84t-93 227z" />
    <glyph glyph-name="ubreve" unicode="&#x16d;" horiz-adv-x="1229" 
d="M1120 1071v-1071h-336v170h-17q-26 -73 -104.5 -129t-204.5 -56q-165 0 -259.5 98t-94.5 287v701h347v-612q0 -55 14 -94.5t38.5 -59t50.5 -27.5t56 -8q69 0 116 49t47 143v609h347zM257 1511h189q0 -69 39 -116.5t115 -47.5t115 47.5t39 116.5h185q0 -145 -91 -241.5
t-248 -96.5q-156 0 -249.5 96.5t-93.5 241.5z" />
    <glyph glyph-name="Uring" unicode="&#x16e;" horiz-adv-x="1389" 
d="M470 1365v-847q0 -121 60.5 -183t163.5 -62t163.5 62.5t60.5 182.5v847h359v-893q0 -226 -157.5 -361t-425.5 -135q-267 0 -424.5 135.5t-157.5 361.5v892h358zM690 1470q-102 0 -169.5 63.5t-67.5 163.5t67.5 163t169.5 63t169 -63t67 -163t-67 -163.5t-169 -63.5z
M602 1696q0 -38 25 -62.5t62 -24.5q38 0 63 25t25 62t-25 62t-63 25q-37 0 -62 -24.5t-25 -62.5z" />
    <glyph glyph-name="uring" unicode="&#x16f;" horiz-adv-x="1229" 
d="M1120 1071v-1071h-336v170h-17q-26 -73 -104.5 -129t-204.5 -56q-165 0 -259.5 98t-94.5 287v701h347v-612q0 -55 14 -94.5t38.5 -59t50.5 -27.5t56 -8q69 0 116 49t47 143v609h347zM610 1176q-102 0 -169.5 63.5t-67.5 163.5t67.5 163t169.5 63t169 -63t67 -163
t-67 -163.5t-169 -63.5zM522 1402q0 -38 25 -62.5t62 -24.5q38 0 63 25t25 62t-25 62t-63 25q-37 0 -62 -24.5t-25 -62.5z" />
    <glyph glyph-name="Uhungarumlaut" unicode="&#x170;" horiz-adv-x="1389" 
d="M470 1365v-847q0 -121 60.5 -183t163.5 -62t163.5 62.5t60.5 182.5v847h359v-893q0 -226 -157.5 -361t-425.5 -135q-267 0 -424.5 135.5t-157.5 361.5v892h358zM343 1498l287 239h275l-330 -239h-232zM764 1498l287 239h276l-331 -239h-232z" />
    <glyph glyph-name="uhungarumlaut" unicode="&#x171;" horiz-adv-x="1229" 
d="M486 1235h-200l240 340h249zM871 1235h-200l240 340h249zM1120 1071v-1071h-336v170h-17q-26 -73 -104.5 -129t-204.5 -56q-165 0 -259.5 98t-94.5 287v701h347v-612q0 -55 14 -94.5t38.5 -59t50.5 -27.5t56 -8q69 0 116 49t47 143v609h347z" />
    <glyph glyph-name="Uogonek" unicode="&#x172;" horiz-adv-x="1389" 
d="M1004 -393q-125 0 -192 58t-67 151q0 100 61 172l-1 2q-62 -14 -114 -14q-264 0 -421.5 135.5t-157.5 361.5v892h358v-847q0 -121 60.5 -183t163.5 -62t163.5 62.5t60.5 182.5v847h359v-893q0 -221 -150 -361q-16 -17 -51 -48.5t-54 -50t-35.5 -50t-16.5 -63.5
q0 -49 33.5 -74t85.5 -25q37 0 76 11v-177q-70 -27 -161 -27z" />
    <glyph glyph-name="uogonek" unicode="&#x173;" horiz-adv-x="1229" 
d="M1123 -373q-63 -19 -156 -19q-117 0 -196.5 53t-79.5 159q0 111 109 191v168h-17q-25 -74 -107.5 -134t-214.5 -60q-163 0 -260 95.5t-97 282.5v708h347v-620q0 -101 45 -142t108 -41q71 0 120 50.5t49 139.5v613h347v-1069q-31 0 -62.5 -6t-63 -18t-51.5 -35t-20 -54
q0 -43 35.5 -65t91.5 -22q48 0 73 7v-182z" />
    <glyph glyph-name="Wcircumflex" unicode="&#x174;" horiz-adv-x="1817" 
d="M528 1485l262 248h247l252 -248h-253l-116 118h-19l-121 -118h-252zM681 0h-335l-346 1364h375l161 -887h15l215 887h287l214 -887h17l158 887h375l-345 -1364h-336l-221 831h-12z" />
    <glyph glyph-name="wcircumflex" unicode="&#x175;" horiz-adv-x="1659" 
d="M450 1233l244 316h256l232 -316h-261l-95 167h-13l-111 -167h-252zM1647 1071l-271 -1071h-367l-172 705h-12l-170 -705h-370l-273 1071h355l124 -740h14l165 740h325l168 -740h14l125 740h345z" />
    <glyph glyph-name="Ycircumflex" unicode="&#x176;" horiz-adv-x="1210" 
d="M784 0h-358v455l-457 910h391l245 -554h12l246 554h378l-457 -900v-465zM225 1485l262 248h247l252 -248h-253l-116 118h-19l-121 -118h-252z" />
    <glyph glyph-name="ycircumflex" unicode="&#x177;" horiz-adv-x="1137" 
d="M1125 1071q-317 -991 -324 -1009l-27 -72q-33 -88 -72.5 -150t-99.5 -112.5t-146 -75.5t-201 -25q-110 0 -180 14v236q30 -8 95 -8q97 0 136.5 29.5t45.5 90.5l4 20l-348 1062h382l173 -794h13l181 794h368zM189 1233l244 316h256l232 -316h-261l-95 167h-13l-111 -167
h-252z" />
    <glyph glyph-name="Ydieresis" unicode="&#x178;" horiz-adv-x="1210" 
d="M784 0h-358v455l-457 910h391l245 -554h12l246 554h378l-457 -900v-465zM281 1579q0 56 35 89.5t95 33.5q61 0 96 -33.5t35 -89.5t-35 -90t-96 -34q-60 0 -95 34t-35 90zM678 1579q0 56 34.5 89.5t95.5 33.5t96 -33.5t35 -89.5t-35 -90t-96 -34t-95.5 34t-34.5 90z" />
    <glyph glyph-name="Zacute" unicode="&#x179;" horiz-adv-x="1204" 
d="M403 1498l282 236h349l-332 -236h-299zM85 0v227l595 839v16h-585v283h1014v-227l-594 -838v-17h616v-283h-1046z" />
    <glyph glyph-name="zacute" unicode="&#x17a;" horiz-adv-x="1029" 
d="M672 1235h-295l220 306h346zM76 0v180l459 617v15h-446v259h861v-206l-429 -590v-14h448v-261h-893z" />
    <glyph glyph-name="Zdotaccent" unicode="&#x17b;" horiz-adv-x="1204" 
d="M85 0v227l595 839v16h-585v283h1014v-227l-594 -838v-17h616v-283h-1046zM460 1604q0 62 40 103t102 41q63 0 105.5 -41t42.5 -103t-42 -102t-106 -40q-62 0 -102 39.5t-40 102.5z" />
    <glyph glyph-name="zdotaccent" unicode="&#x17c;" horiz-adv-x="1029" 
d="M372 1310q0 62 40 103t102 41q63 0 105.5 -41t42.5 -103t-42 -102t-106 -40q-62 0 -102 39.5t-40 102.5zM76 0v180l459 617v15h-446v259h861v-206l-429 -590v-14h448v-261h-893z" />
    <glyph glyph-name="Zcaron" unicode="&#x17d;" horiz-adv-x="1204" 
d="M85 0v227l595 839v16h-585v283h1014v-227l-594 -838v-17h616v-283h-1046zM221 1734h252l122 -114h19l115 114h253l-252 -244h-246z" />
    <glyph glyph-name="zcaron" unicode="&#x17e;" horiz-adv-x="1029" 
d="M154 1515h252l111 -167h13l95 167h261l-232 -316h-256zM76 0v180l459 617v15h-446v259h861v-206l-429 -590v-14h448v-261h-893z" />
    <glyph glyph-name="florin" unicode="&#x192;" horiz-adv-x="1243" 
d="M89 -186l145 779h-173l46 277h174l23 136q35 202 157 291.5t345 89.5q118 0 202.5 -31t128 -85t60.5 -117.5t10 -139.5h-317q4 46 -17 80.5t-70 34.5q-98 0 -118 -122l-24 -137h294l-47 -277h-294l-144 -779h-381z" />
    <glyph glyph-name="Ohorn" unicode="&#x1a0;" horiz-adv-x="1428" 
d="M1311 604q0 -291 -162.5 -459.5t-457.5 -168.5q-293 0 -456 168.5t-163 459.5v150q0 294 163.5 464.5t456.5 170.5q94 0 226 -29.5t191 -29.5q81 0 107 32t26 92v142h265v-191q0 -130 -74.5 -212.5t-202.5 -82.5l-3 -2q84 -148 84 -354v-150zM438 759v-159
q0 -165 68 -251.5t186 -86.5q117 0 186 86.5t69 251.5v159q0 164 -69 252.5t-186 88.5t-185.5 -88t-68.5 -253z" />
    <glyph glyph-name="ohorn" unicode="&#x1a1;" horiz-adv-x="1213" 
d="M582 -20q-244 0 -381 135.5t-137 383.5v79q0 231 140 372t378 141q69 0 142.5 -13.5t113.5 -13.5q59 0 77.5 23t18.5 79v159h265v-205q0 -98 -45.5 -171t-127.5 -101v-10q72 -131 72 -258v-80q0 -248 -137 -384t-379 -136zM582 836q-86 0 -126.5 -72.5t-40.5 -180.5v-93
q0 -49 8.5 -91.5t26.5 -80.5t52 -60t80 -22q60 0 98.5 39.5t52 93.5t13.5 121v93q0 51 -8.5 94.5t-27 80t-51.5 57.5t-77 21z" />
    <glyph glyph-name="Uhorn" unicode="&#x1af;" horiz-adv-x="1519" 
d="M694 -22q-267 0 -424.5 135.5t-157.5 362.5v889h358v-845q0 -121 60.5 -183t163.5 -62q102 0 163 62.5t61 182.5v845h360q51 0 72.5 24.5t21.5 77.5v144h265v-193q0 -127 -73.5 -211t-202.5 -84h-84v-648q0 -227 -157.5 -362t-425.5 -135z" />
    <glyph glyph-name="uhorn" unicode="&#x1b0;" horiz-adv-x="1429" 
d="M766 179q-24 -75 -103.5 -134.5t-207.5 -59.5q-165 0 -258 95t-93 283v708h347v-620q0 -54 13.5 -91.5t37.5 -56.5t49 -27t54 -8q70 0 119 50.5t49 139.5v613h305q49 0 64 23t15 79v152h265v-201q0 -127 -73.5 -211t-202.5 -84h-26v-829h-336v179h-18z" />
    <glyph glyph-name="Acaron" unicode="&#x1cd;" horiz-adv-x="1315" 
d="M361 0h-356l432 1365h443l429 -1365h-382l-79 296h-407zM655 1053h-17l-133 -500h281zM276 1734h252l122 -114h19l115 114h253l-252 -244h-246z" />
    <glyph glyph-name="acaron" unicode="&#x1ce;" 
d="M689 130q-27 -61 -96 -103t-179 -42q-159 0 -256.5 86.5t-97.5 237.5q0 150 100.5 236.5t285.5 86.5h243v91q0 55 -34.5 84.5t-96.5 29.5t-97 -30.5t-38 -82.5h-324q2 55 16 104.5t47.5 98t84.5 83t132 56t184 21.5t185.5 -20.5t147 -63.5t99.5 -117t35 -175v-711h-324
v130h-17zM537 221q62 0 107 36.5t45 92.5v100h-144q-67 0 -105.5 -30.5t-38.5 -81.5q0 -55 40 -86t96 -31zM205 1515h252l111 -167h13l95 167h261l-232 -316h-256z" />
    <glyph glyph-name="Icaron" unicode="&#x1cf;" horiz-adv-x="613" 
d="M486 0h-359v1365h359v-1365zM-75 1734h252l122 -114h19l115 114h253l-252 -244h-246z" />
    <glyph glyph-name="icaron" unicode="&#x1d0;" horiz-adv-x="594" 
d="M-55 1515h252l111 -167h13l95 167h261l-232 -316h-256zM130 0v1071h357v-1071h-357z" />
    <glyph glyph-name="Ocaron" unicode="&#x1d1;" horiz-adv-x="1383" 
d="M310 1734h252l122 -114h19l115 114h253l-252 -244h-246zM438 759v-157q0 -164 68 -251t186 -87q117 0 185 87t68 251v157q0 165 -68 253t-185 88t-185.5 -88t-68.5 -253zM72 604v150q0 294 163.5 464.5t456.5 170.5t456 -171t163 -464v-150q0 -291 -162.5 -459.5
t-457.5 -168.5q-293 0 -456 168.5t-163 459.5z" />
    <glyph glyph-name="ocaron" unicode="&#x1d2;" horiz-adv-x="1162" 
d="M221 1515h252l111 -167h13l95 167h261l-232 -316h-256zM582 1091q245 0 380.5 -142t135.5 -378v-61q0 -253 -134 -391.5t-382 -138.5q-249 0 -383.5 138.5t-134.5 389.5v61q0 234 137 378t381 144zM582 836q-167 0 -167 -263v-74q0 -50 7 -92.5t24 -83t52 -64t84 -23.5
q164 0 164 263v74q0 263 -164 263z" />
    <glyph glyph-name="Ucaron" unicode="&#x1d3;" horiz-adv-x="1389" 
d="M313 1734h252l122 -114h19l115 114h253l-252 -244h-246zM470 1365v-847q0 -121 60.5 -183t163.5 -62t163.5 62.5t60.5 182.5v847h359v-893q0 -226 -157.5 -361t-425.5 -135q-267 0 -424.5 135.5t-157.5 361.5v892h358z" />
    <glyph glyph-name="ucaron" unicode="&#x1d4;" horiz-adv-x="1229" 
d="M254 1515h252l111 -167h13l95 167h261l-232 -316h-256zM1120 1071v-1071h-336v170h-17q-26 -73 -104.5 -129t-204.5 -56q-165 0 -259.5 98t-94.5 287v701h347v-612q0 -55 14 -94.5t38.5 -59t50.5 -27.5t56 -8q69 0 116 49t47 143v609h347z" />
    <glyph glyph-name="Udieresismacron" unicode="&#x1d5;" horiz-adv-x="1389" 
d="M370 1579q0 56 35 89.5t95 33.5q61 0 96 -33.5t35 -89.5t-35 -90t-96 -34q-60 0 -95 34t-35 90zM767 1579q0 56 34.5 89.5t95.5 33.5t96 -33.5t35 -89.5t-35 -90t-96 -34t-95.5 34t-34.5 90zM470 1365v-847q0 -121 60.5 -183t163.5 -62t163.5 62.5t60.5 182.5v847h359
v-893q0 -226 -157.5 -361t-425.5 -135q-267 0 -424.5 135.5t-157.5 361.5v892h358zM1002 1788h-616v165h616v-165z" />
    <glyph glyph-name="udieresismacron" unicode="&#x1d6;" horiz-adv-x="1229" 
d="M1120 1071v-1071h-336v170h-17q-26 -73 -104.5 -129t-204.5 -56q-165 0 -259.5 98t-94.5 287v701h347v-612q0 -55 14 -94.5t38.5 -59t50.5 -27.5t56 -8q69 0 116 49t47 143v609h347zM258 1323q0 62 38 99t104 37t105 -37t39 -99t-38.5 -99t-105.5 -37q-65 0 -103.5 37
t-38.5 99zM695 1323q0 62 38.5 99t104.5 37t104.5 -37t38.5 -99t-38 -99t-105 -37q-66 0 -104.5 37t-38.5 99zM926 1596h-616v168h616v-168z" />
    <glyph glyph-name="Udieresisacute" unicode="&#x1d7;" horiz-adv-x="1389" 
d="M495 1751l282 236h349l-332 -236h-299zM370 1579q0 56 35 89.5t95 33.5q61 0 96 -33.5t35 -89.5t-35 -90t-96 -34q-60 0 -95 34t-35 90zM767 1579q0 56 34.5 89.5t95.5 33.5t96 -33.5t35 -89.5t-35 -90t-96 -34t-95.5 34t-34.5 90zM470 1365v-847q0 -121 60.5 -183
t163.5 -62t163.5 62.5t60.5 182.5v847h359v-893q0 -226 -157.5 -361t-425.5 -135q-267 0 -424.5 135.5t-157.5 361.5v892h358z" />
    <glyph glyph-name="udieresisacute" unicode="&#x1d8;" horiz-adv-x="1229" 
d="M772 1542h-295l220 306h346zM1120 1071v-1071h-336v170h-17q-26 -73 -104.5 -129t-204.5 -56q-165 0 -259.5 98t-94.5 287v701h347v-612q0 -55 14 -94.5t38.5 -59t50.5 -27.5t56 -8q69 0 116 49t47 143v609h347zM258 1323q0 62 38 99t104 37t105 -37t39 -99t-38.5 -99
t-105.5 -37q-65 0 -103.5 37t-38.5 99zM695 1323q0 62 38.5 99t104.5 37t104.5 -37t38.5 -99t-38 -99t-105 -37q-66 0 -104.5 37t-38.5 99z" />
    <glyph glyph-name="Udieresiscaron" unicode="&#x1d9;" horiz-adv-x="1389" 
d="M370 1579q0 56 35 89.5t95 33.5q61 0 96 -33.5t35 -89.5t-35 -90t-96 -34q-60 0 -95 34t-35 90zM767 1579q0 56 34.5 89.5t95.5 33.5t96 -33.5t35 -89.5t-35 -90t-96 -34t-95.5 34t-34.5 90zM313 1996h252l122 -114h19l115 114h253l-252 -244h-246zM470 1365v-847
q0 -121 60.5 -183t163.5 -62t163.5 62.5t60.5 182.5v847h359v-893q0 -226 -157.5 -361t-425.5 -135q-267 0 -424.5 135.5t-157.5 361.5v892h358z" />
    <glyph glyph-name="udieresiscaron" unicode="&#x1da;" horiz-adv-x="1229" 
d="M254 1845h252l111 -167h13l95 167h261l-232 -316h-256zM1120 1071v-1071h-336v170h-17q-26 -73 -104.5 -129t-204.5 -56q-165 0 -259.5 98t-94.5 287v701h347v-612q0 -55 14 -94.5t38.5 -59t50.5 -27.5t56 -8q69 0 116 49t47 143v609h347zM258 1323q0 62 38 99t104 37
t105 -37t39 -99t-38.5 -99t-105.5 -37q-65 0 -103.5 37t-38.5 99zM695 1323q0 62 38.5 99t104.5 37t104.5 -37t38.5 -99t-38 -99t-105 -37q-66 0 -104.5 37t-38.5 99z" />
    <glyph glyph-name="Udieresisgrave" unicode="&#x1db;" horiz-adv-x="1389" 
d="M858 1751h-283l-316 224h330zM370 1579q0 56 35 89.5t95 33.5q61 0 96 -33.5t35 -89.5t-35 -90t-96 -34q-60 0 -95 34t-35 90zM767 1579q0 56 34.5 89.5t95.5 33.5t96 -33.5t35 -89.5t-35 -90t-96 -34t-95.5 34t-34.5 90zM470 1365v-847q0 -121 60.5 -183t163.5 -62
t163.5 62.5t60.5 182.5v847h359v-893q0 -226 -157.5 -361t-425.5 -135q-267 0 -424.5 135.5t-157.5 361.5v892h358z" />
    <glyph glyph-name="udieresisgrave" unicode="&#x1dc;" horiz-adv-x="1229" 
d="M827 1539h-295l-285 301h346zM1120 1071v-1071h-336v170h-17q-26 -73 -104.5 -129t-204.5 -56q-165 0 -259.5 98t-94.5 287v701h347v-612q0 -55 14 -94.5t38.5 -59t50.5 -27.5t56 -8q69 0 116 49t47 143v609h347zM258 1323q0 62 38 99t104 37t105 -37t39 -99t-38.5 -99
t-105.5 -37q-65 0 -103.5 37t-38.5 99zM695 1323q0 62 38.5 99t104.5 37t104.5 -37t38.5 -99t-38 -99t-105 -37q-66 0 -104.5 37t-38.5 99z" />
    <glyph glyph-name="Adieresismacron" unicode="&#x1de;" horiz-adv-x="1315" 
d="M361 0h-356l432 1365h443l429 -1365h-382l-79 296h-407zM655 1053h-17l-133 -500h281zM334 1579q0 56 35 89.5t95 33.5q61 0 96 -33.5t35 -89.5t-35 -90t-96 -34q-60 0 -95 34t-35 90zM731 1579q0 56 34.5 89.5t95.5 33.5t96 -33.5t35 -89.5t-35 -90t-96 -34t-95.5 34
t-34.5 90zM965 1788h-616v165h616v-165z" />
    <glyph glyph-name="adieresismacron" unicode="&#x1df;" 
d="M689 130q-27 -61 -96 -103t-179 -42q-159 0 -256.5 86.5t-97.5 237.5q0 150 100.5 236.5t285.5 86.5h243v91q0 55 -34.5 84.5t-96.5 29.5t-97 -30.5t-38 -82.5h-324q2 55 16 104.5t47.5 98t84.5 83t132 56t184 21.5t185.5 -20.5t147 -63.5t99.5 -117t35 -175v-711h-324
v130h-17zM537 221q62 0 107 36.5t45 92.5v100h-144q-67 0 -105.5 -30.5t-38.5 -81.5q0 -55 40 -86t96 -31zM209 1323q0 62 38 99t104 37t105 -37t39 -99t-38.5 -99t-105.5 -37q-65 0 -103.5 37t-38.5 99zM646 1323q0 62 38.5 99t104.5 37t104.5 -37t38.5 -99t-38 -99
t-105 -37q-66 0 -104.5 37t-38.5 99zM877 1596h-616v168h616v-168z" />
    <glyph glyph-name="Adotmacron" unicode="&#x1e0;" horiz-adv-x="1315" 
d="M361 0h-356l432 1365h443l429 -1365h-382l-79 296h-407zM655 1053h-17l-133 -500h281zM515 1604q0 62 40 103t102 41q63 0 105.5 -41t42.5 -103t-42 -102t-106 -40q-62 0 -102 39.5t-40 102.5zM965 1788h-616v165h616v-165z" />
    <glyph glyph-name="adotmacron" unicode="&#x1e1;" 
d="M689 130q-27 -61 -96 -103t-179 -42q-159 0 -256.5 86.5t-97.5 237.5q0 150 100.5 236.5t285.5 86.5h243v91q0 55 -34.5 84.5t-96.5 29.5t-97 -30.5t-38 -82.5h-324q2 55 16 104.5t47.5 98t84.5 83t132 56t184 21.5t185.5 -20.5t147 -63.5t99.5 -117t35 -175v-711h-324
v130h-17zM537 221q62 0 107 36.5t45 92.5v100h-144q-67 0 -105.5 -30.5t-38.5 -81.5q0 -55 40 -86t96 -31zM423 1310q0 62 40 103t102 41q63 0 105.5 -41t42.5 -103t-42 -102t-106 -40q-62 0 -102 39.5t-40 102.5zM877 1596h-616v168h616v-168z" />
    <glyph glyph-name="AEmacron" unicode="&#x1e2;" horiz-adv-x="1930" 
d="M839 1085l-214 -533h279v533h-65zM904 283h-387l-125 -283h-389l606 1365h1229v-280h-582v-271h545v-258h-545v-275h582v-281h-934v283zM1663 1488h-616v165h616v-165z" />
    <glyph glyph-name="aemacron" unicode="&#x1e3;" horiz-adv-x="1782" 
d="M1235 -20q-294 0 -400 188h-17q-51 -81 -145.5 -134.5t-226.5 -53.5q-181 0 -284 87.5t-103 242.5q0 151 101.5 237.5t287.5 86.5h241v86q0 57 -35 87t-97 30q-60 0 -95 -27.5t-39 -73.5h-325q3 68 27.5 127.5t76 112.5t144 83.5t216.5 30.5q104 0 194 -34t138 -86h18
q46 54 128.5 87t179.5 33q225 0 362 -136.5t137 -371.5v-116h-666v-55q0 -81 52 -129.5t128 -48.5q69 0 115 30.5t50 80.5h315q-2 -48 -19 -96t-54.5 -97t-91 -86.5t-134.5 -61t-179 -23.5zM1223 847q-74 0 -122 -51t-48 -132v-9h334v6q0 85 -44 135.5t-120 50.5zM537 221
q62 0 107 36.5t45 92.5v102h-144q-67 0 -106.5 -31t-39.5 -82q0 -55 41 -86.5t97 -31.5zM1203 1235h-616v168h616v-168z" />
    <glyph glyph-name="Gcaron" unicode="&#x1e6;" horiz-adv-x="1333" 
d="M290 1734h252l122 -114h19l115 114h253l-252 -244h-246zM1260 908h-346q-10 85 -71 137.5t-158 52.5q-119 0 -185 -85.5t-66 -249.5v-154q0 -342 258 -342q108 0 170 58t62 140v45h-216v247h553v-263q0 -76 -19 -148t-63 -140t-109 -118.5t-164.5 -81t-221.5 -30.5
q-158 0 -278 49.5t-191.5 137t-107 199t-35.5 245.5v160q0 184 70.5 323.5t211 219t334.5 79.5q139 0 250.5 -41.5t179.5 -110.5t104 -153t38 -176z" />
    <glyph glyph-name="gcaron" unicode="&#x1e7;" horiz-adv-x="1222" 
d="M251 1515h252l111 -167h13l95 167h261l-232 -316h-256zM586 -154q184 0 184 193v147h-16q-29 -74 -107.5 -121t-190.5 -47q-179 0 -284.5 130t-105.5 371v61q0 240 105 371t285 131q115 0 192.5 -47.5t107.5 -127.5h16v164h345v-1063q0 -91 -32.5 -162t-84.5 -115.5
t-124 -73t-145 -40t-153 -11.5q-124 0 -220 27.5t-153 75.5t-86 107t-30 126h327q10 -47 55 -71.5t115 -24.5zM599 816q-80 0 -127 -63.5t-47 -180.5v-68q0 -117 47.5 -179.5t127.5 -62.5q78 0 124 63.5t46 175.5v71q0 115 -46.5 179.5t-124.5 64.5z" />
    <glyph glyph-name="Kcaron" unicode="&#x1e8;" horiz-adv-x="1325" 
d="M1328 1365l-467 -594l483 -771h-420l-325 536l-113 -136v-400h-359v1365h359v-566h16l446 566h380zM276 1734h252l122 -114h19l115 114h253l-252 -244h-246z" />
    <glyph glyph-name="kcaron" unicode="&#x1e9;" horiz-adv-x="1185" 
d="M-76 1881h252l111 -167h13l95 167h261l-232 -316h-256zM458 352v-352h-348v1437h348v-779h16l283 413h387l-362 -460l388 -611h-402l-254 421z" />
    <glyph glyph-name="Oogonek" unicode="&#x1ea;" horiz-adv-x="1383" 
d="M438 759v-157q0 -164 68 -251t186 -87q117 0 185 87t68 251v157q0 165 -68 253t-185 88t-185.5 -88t-68.5 -253zM648 -19q-253 0 -414.5 174t-161.5 449v150q0 294 163.5 464.5t456.5 170.5t456 -171t163 -464v-150q0 -77 -13.5 -146t-32 -116t-50 -95t-54 -74.5
t-58.5 -63.5q-13 -13 -41.5 -41t-41.5 -42t-30 -36t-23.5 -43t-6.5 -44q0 -50 33.5 -73.5t87.5 -23.5q47 0 74 9v-185q-90 -23 -163 -22q-124 1 -192.5 56t-70.5 148q-1 99 84 183l-8 15q-59 -29 -157 -29z" />
    <glyph glyph-name="oogonek" unicode="&#x1eb;" horiz-adv-x="1162" 
d="M582 836q-86 0 -126.5 -72.5t-40.5 -180.5v-93q0 -49 8.5 -91.5t26.5 -80.5t52 -60t80 -22q60 0 98.5 39.5t52 93.5t13.5 121v93q0 51 -8.5 94.5t-27 80t-51.5 57.5t-77 21zM660 10q-88 -22 -145 -22q-199 0 -325 138t-126 370v82q0 231 140 372t379 141
q237 0 376 -139.5t139 -371.5v-80q0 -71 -12 -132t-27.5 -101.5t-43.5 -80.5t-48 -61t-53 -52q-42 -41 -58.5 -58.5t-33.5 -48t-17 -61.5q0 -52 34 -77.5t89 -25.5q38 0 71 7v-179q-68 -22 -153 -22q-52 0 -98.5 11t-86.5 33.5t-63.5 62.5t-23.5 93q0 111 94 187z" />
    <glyph glyph-name="Oogonekmacron" unicode="&#x1ec;" horiz-adv-x="1383" 
d="M438 759v-157q0 -164 68 -251t186 -87q117 0 185 87t68 251v157q0 165 -68 253t-185 88t-185.5 -88t-68.5 -253zM648 -19q-253 0 -414.5 174t-161.5 449v150q0 294 163.5 464.5t456.5 170.5t456 -171t163 -464v-150q0 -77 -13.5 -146t-32 -116t-50 -95t-54 -74.5
t-58.5 -63.5q-13 -13 -41.5 -41t-41.5 -42t-30 -36t-23.5 -43t-6.5 -44q0 -50 33.5 -73.5t87.5 -23.5q47 0 74 9v-185q-90 -23 -163 -22q-124 1 -192.5 56t-70.5 148q-1 99 84 183l-8 15q-59 -29 -157 -29zM999 1488h-616v165h616v-165z" />
    <glyph glyph-name="oogonekmacron" unicode="&#x1ed;" horiz-adv-x="1162" 
d="M582 836q-86 0 -126.5 -72.5t-40.5 -180.5v-93q0 -49 8.5 -91.5t26.5 -80.5t52 -60t80 -22q60 0 98.5 39.5t52 93.5t13.5 121v93q0 51 -8.5 94.5t-27 80t-51.5 57.5t-77 21zM660 10q-88 -22 -145 -22q-199 0 -325 138t-126 370v82q0 231 140 372t379 141
q237 0 376 -139.5t139 -371.5v-80q0 -71 -12 -132t-27.5 -101.5t-43.5 -80.5t-48 -61t-53 -52q-42 -41 -58.5 -58.5t-33.5 -48t-17 -61.5q0 -52 34 -77.5t89 -25.5q38 0 71 7v-179q-68 -22 -153 -22q-52 0 -98.5 11t-86.5 33.5t-63.5 62.5t-23.5 93q0 111 94 187zM893 1235
h-616v168h616v-168z" />
    <glyph glyph-name="Gacute" unicode="&#x1f4;" horiz-adv-x="1333" 
d="M472 1498l282 236h349l-332 -236h-299zM1260 908h-346q-10 85 -71 137.5t-158 52.5q-119 0 -185 -85.5t-66 -249.5v-154q0 -342 258 -342q108 0 170 58t62 140v45h-216v247h553v-263q0 -76 -19 -148t-63 -140t-109 -118.5t-164.5 -81t-221.5 -30.5q-158 0 -278 49.5
t-191.5 137t-107 199t-35.5 245.5v160q0 184 70.5 323.5t211 219t334.5 79.5q139 0 250.5 -41.5t179.5 -110.5t104 -153t38 -176z" />
    <glyph glyph-name="gacute" unicode="&#x1f5;" horiz-adv-x="1222" 
d="M769 1235h-295l220 306h346zM586 -154q184 0 184 193v147h-16q-29 -74 -107.5 -121t-190.5 -47q-179 0 -284.5 130t-105.5 371v61q0 240 105 371t285 131q115 0 192.5 -47.5t107.5 -127.5h16v164h345v-1063q0 -91 -32.5 -162t-84.5 -115.5t-124 -73t-145 -40t-153 -11.5
q-124 0 -220 27.5t-153 75.5t-86 107t-30 126h327q10 -47 55 -71.5t115 -24.5zM599 816q-80 0 -127 -63.5t-47 -180.5v-68q0 -117 47.5 -179.5t127.5 -62.5q78 0 124 63.5t46 175.5v71q0 115 -46.5 179.5t-124.5 64.5z" />
    <glyph glyph-name="Ngrave" unicode="&#x1f8;" horiz-adv-x="1398" 
d="M863 1498h-283l-316 224h330zM459 0h-332v1365h278l521 -762h14v762h331v-1365h-276l-523 771h-13v-771z" />
    <glyph glyph-name="ngrave" unicode="&#x1f9;" horiz-adv-x="1231" 
d="M828 1240h-295l-285 301h346zM110 0v1071h335v-170h17q26 73 105.5 129.5t203.5 56.5q164 0 260 -100t96 -289v-698h-347v606q0 105 -45.5 149.5t-114.5 44.5q-72 0 -118 -50.5t-46 -148.5v-601h-346z" />
    <glyph glyph-name="Aringacute" unicode="&#x1fa;" horiz-adv-x="1315" 
d="M575 1648l299 249h351l-341 -249h-309zM534 1440q0 -49 33.5 -81t83.5 -32q49 0 83 32.5t34 80.5q0 50 -34 82t-83 32q-51 0 -84 -31.5t-33 -82.5zM786 553l-130 500h-18l-133 -500h281zM361 0h-355l398 1255q-69 79 -69 188q0 130 91.5 219t224.5 89q132 0 224 -89
t92 -219q0 -98 -58 -172l400 -1271h-382l-79 296h-407z" />
    <glyph glyph-name="aringacute" unicode="&#x1fb;" 
d="M760 1532h-255l210 290h303zM689 130q-27 -61 -96 -103t-179 -42q-159 0 -256.5 86.5t-97.5 237.5q0 150 100.5 236.5t285.5 86.5h243v91q0 55 -34.5 84.5t-96.5 29.5t-97 -30.5t-38 -82.5h-324q2 55 16 104.5t47.5 98t84.5 83t132 56t184 21.5t185.5 -20.5t147 -63.5
t99.5 -117t35 -175v-711h-324v130h-17zM537 221q62 0 107 36.5t45 92.5v100h-144q-67 0 -105.5 -30.5t-38.5 -81.5q0 -55 40 -86t96 -31zM569 1176q-102 0 -169.5 63.5t-67.5 163.5t67.5 163t169.5 63t169 -63t67 -163t-67 -163.5t-169 -63.5zM481 1402q0 -38 24.5 -62.5
t62.5 -24.5t63 25t25 62t-25 62t-63 25t-62.5 -24.5t-24.5 -62.5z" />
    <glyph glyph-name="AEacute" unicode="&#x1fc;" horiz-adv-x="1930" 
d="M1156 1498l282 236h349l-332 -236h-299zM839 1085l-214 -533h279v533h-65zM904 283h-387l-125 -283h-389l606 1365h1229v-280h-582v-271h545v-258h-545v-275h582v-281h-934v283z" />
    <glyph glyph-name="aeacute" unicode="&#x1fd;" horiz-adv-x="1782" 
d="M1049 1235h-295l220 306h346zM1235 -20q-294 0 -400 188h-17q-51 -81 -145.5 -134.5t-226.5 -53.5q-181 0 -284 87.5t-103 242.5q0 151 101.5 237.5t287.5 86.5h241v86q0 57 -35 87t-97 30q-60 0 -95 -27.5t-39 -73.5h-325q3 68 27.5 127.5t76 112.5t144 83.5t216.5 30.5
q104 0 194 -34t138 -86h18q46 54 128.5 87t179.5 33q225 0 362 -136.5t137 -371.5v-116h-666v-55q0 -81 52 -129.5t128 -48.5q69 0 115 30.5t50 80.5h315q-2 -48 -19 -96t-54.5 -97t-91 -86.5t-134.5 -61t-179 -23.5zM1223 847q-74 0 -122 -51t-48 -132v-9h334v6
q0 85 -44 135.5t-120 50.5zM537 221q62 0 107 36.5t45 92.5v102h-144q-67 0 -106.5 -31t-39.5 -82q0 -55 41 -86.5t97 -31.5z" />
    <glyph glyph-name="Oslashacute" unicode="&#x1fe;" horiz-adv-x="1383" 
d="M691 -24q-224 0 -374 104l-97 -120l-143 116l106 131q-111 157 -111 397v150q0 294 163.5 464.5t456.5 170.5q221 0 372 -103l82 100l147 -109l-96 -118q114 -160 114 -405v-150q0 -291 -162.5 -459.5t-457.5 -168.5zM427 597q0 -51 9 -82l427 526q-67 67 -173 67
q-122 0 -192.5 -90t-70.5 -258v-163zM690 252q122 0 193.5 88.5t71.5 256.5v163q0 52 -11 90l-430 -529q68 -69 176 -69zM492 1498l282 236h349l-332 -236h-299z" />
    <glyph glyph-name="oslashacute" unicode="&#x1ff;" horiz-adv-x="1162" 
d="M454 300q43 -70 128 -70q48 0 83.5 22.5t54.5 61.5t27.5 83t8.5 94v102q0 31 -9 50zM407 484q0 -35 8 -56l294 349q-42 70 -127 70q-62 0 -102.5 -39t-56.5 -95t-16 -127v-102zM582 -20q-191 0 -317 85l-107 -120l-113 101l111 124q-92 129 -92 329v79q0 231 140 372
t378 141q182 0 311 -87l102 116l122 -103l-110 -125q91 -128 91 -312v-80q0 -248 -137 -384t-379 -136zM739 1235h-295l220 306h346z" />
    <glyph glyph-name="Adblgrave" unicode="&#x200;" horiz-adv-x="1315" 
d="M361 0h-356l432 1365h443l429 -1365h-382l-79 296h-407zM655 1053h-17l-133 -500h281zM1008 1499h-231l-331 239h276zM587 1499h-232l-330 239h275z" />
    <glyph glyph-name="adblgrave" unicode="&#x201;" 
d="M689 130q-27 -61 -96 -103t-179 -42q-159 0 -256.5 86.5t-97.5 237.5q0 150 100.5 236.5t285.5 86.5h243v91q0 55 -34.5 84.5t-96.5 29.5t-97 -30.5t-38 -82.5h-324q2 55 16 104.5t47.5 98t84.5 83t132 56t184 21.5t185.5 -20.5t147 -63.5t99.5 -117t35 -175v-711h-324
v130h-17zM537 221q62 0 107 36.5t45 92.5v100h-144q-67 0 -105.5 -30.5t-38.5 -81.5q0 -55 40 -86t96 -31zM294 1235l-289 340h249l240 -340h-200zM679 1235l-289 340h249l240 -340h-200z" />
    <glyph glyph-name="Ainvertedbreve" unicode="&#x202;" horiz-adv-x="1315" 
d="M361 0h-356l432 1365h443l429 -1365h-382l-79 296h-407zM655 1053h-17l-133 -500h281zM657 1603q-75 0 -118 -35.5t-43 -96.5h-189q0 141 95 224.5t255 83.5t253 -83.5t93 -224.5h-185q0 61 -43 96.5t-118 35.5z" />
    <glyph glyph-name="ainvertedbreve" unicode="&#x203;" 
d="M689 130q-27 -61 -96 -103t-179 -42q-159 0 -256.5 86.5t-97.5 237.5q0 150 100.5 236.5t285.5 86.5h243v91q0 55 -34.5 84.5t-96.5 29.5t-97 -30.5t-38 -82.5h-324q2 55 16 104.5t47.5 98t84.5 83t132 56t184 21.5t185.5 -20.5t147 -63.5t99.5 -117t35 -175v-711h-324
v130h-17zM537 221q62 0 107 36.5t45 92.5v100h-144q-67 0 -105.5 -30.5t-38.5 -81.5q0 -55 40 -86t96 -31zM222 1211q0 145 93 242t250 97t248 -96.5t91 -242.5h-185q0 69 -39 116.5t-115 47.5t-115 -47.5t-39 -116.5h-189z" />
    <glyph glyph-name="Edblgrave" unicode="&#x204;" horiz-adv-x="1154" 
d="M933 1499h-231l-331 239h276zM512 1499h-232l-330 239h275zM1062 281v-281h-935v1365h935v-281h-580v-270h543v-258h-543v-275h580z" />
    <glyph glyph-name="edblgrave" unicode="&#x205;" 
d="M583 -20q-240 0 -379.5 133.5t-139.5 385.5v74q0 126 38.5 225.5t107 163t160 96.5t199.5 33q230 0 365 -139.5t135 -378.5v-107h-668v-41q0 -86 50.5 -139t129.5 -53q73 0 118 33t50 86h314q-2 -49 -19 -99t-54.5 -99.5t-91 -87.5t-135.5 -62t-180 -24zM401 659h337
q0 84 -45 136t-121 52q-77 0 -124 -52.5t-47 -135.5zM294 1235l-289 340h249l240 -340h-200zM679 1235l-289 340h249l240 -340h-200z" />
    <glyph glyph-name="Einvertedbreve" unicode="&#x206;" horiz-adv-x="1154" 
d="M1062 281v-281h-935v1365h935v-281h-580v-270h543v-258h-543v-275h580zM582 1603q-75 0 -118 -35.5t-43 -96.5h-189q0 141 95 224.5t255 83.5t253 -83.5t93 -224.5h-185q0 61 -43 96.5t-118 35.5z" />
    <glyph glyph-name="einvertedbreve" unicode="&#x207;" 
d="M583 -20q-240 0 -379.5 133.5t-139.5 385.5v74q0 126 38.5 225.5t107 163t160 96.5t199.5 33q230 0 365 -139.5t135 -378.5v-107h-668v-41q0 -86 50.5 -139t129.5 -53q73 0 118 33t50 86h314q-2 -49 -19 -99t-54.5 -99.5t-91 -87.5t-135.5 -62t-180 -24zM401 659h337
q0 84 -45 136t-121 52q-77 0 -124 -52.5t-47 -135.5zM222 1211q0 145 93 242t250 97t248 -96.5t91 -242.5h-185q0 69 -39 116.5t-115 47.5t-115 -47.5t-39 -116.5h-189z" />
    <glyph glyph-name="Idblgrave" unicode="&#x208;" horiz-adv-x="613" 
d="M486 0h-359v1365h359v-1365zM657 1499h-231l-331 239h276zM236 1499h-232l-330 239h275z" />
    <glyph glyph-name="idblgrave" unicode="&#x209;" horiz-adv-x="594" 
d="M130 0v1071h357v-1071h-357zM34 1235l-289 340h249l240 -340h-200zM419 1235l-289 340h249l240 -340h-200z" />
    <glyph glyph-name="Iinvertedbreve" unicode="&#x20a;" horiz-adv-x="613" 
d="M486 0h-359v1365h359v-1365zM306 1603q-75 0 -118 -35.5t-43 -96.5h-189q0 141 95 224.5t255 83.5t253 -83.5t93 -224.5h-185q0 61 -43 96.5t-118 35.5z" />
    <glyph glyph-name="iinvertedbreve" unicode="&#x20b;" horiz-adv-x="594" 
d="M130 0v1071h357v-1071h-357zM-38 1211q0 145 93 242t250 97t248 -96.5t91 -242.5h-185q0 69 -39 116.5t-115 47.5t-115 -47.5t-39 -116.5h-189z" />
    <glyph glyph-name="Odblgrave" unicode="&#x20c;" horiz-adv-x="1383" 
d="M1042 1499h-231l-331 239h276zM621 1499h-232l-330 239h275zM438 759v-157q0 -164 68 -251t186 -87q117 0 185 87t68 251v157q0 165 -68 253t-185 88t-185.5 -88t-68.5 -253zM72 604v150q0 294 163.5 464.5t456.5 170.5t456 -171t163 -464v-150q0 -291 -162.5 -459.5
t-457.5 -168.5q-293 0 -456 168.5t-163 459.5z" />
    <glyph glyph-name="odblgrave" unicode="&#x20d;" horiz-adv-x="1162" 
d="M582 1091q245 0 380.5 -142t135.5 -378v-61q0 -253 -134 -391.5t-382 -138.5q-249 0 -383.5 138.5t-134.5 389.5v61q0 234 137 378t381 144zM582 836q-167 0 -167 -263v-74q0 -50 7 -92.5t24 -83t52 -64t84 -23.5q164 0 164 263v74q0 263 -164 263zM310 1235l-289 340
h249l240 -340h-200zM695 1235l-289 340h249l240 -340h-200z" />
    <glyph glyph-name="Oinvertedbreve" unicode="&#x20e;" horiz-adv-x="1383" 
d="M691 1603q-75 0 -118 -35.5t-43 -96.5h-189q0 141 95 224.5t255 83.5t253 -83.5t93 -224.5h-185q0 61 -43 96.5t-118 35.5zM438 759v-157q0 -164 68 -251t186 -87q117 0 185 87t68 251v157q0 165 -68 253t-185 88t-185.5 -88t-68.5 -253zM72 604v150q0 294 163.5 464.5
t456.5 170.5t456 -171t163 -464v-150q0 -291 -162.5 -459.5t-457.5 -168.5q-293 0 -456 168.5t-163 459.5z" />
    <glyph glyph-name="oinvertedbreve" unicode="&#x20f;" horiz-adv-x="1162" 
d="M582 1091q245 0 380.5 -142t135.5 -378v-61q0 -253 -134 -391.5t-382 -138.5q-249 0 -383.5 138.5t-134.5 389.5v61q0 234 137 378t381 144zM582 836q-167 0 -167 -263v-74q0 -50 7 -92.5t24 -83t52 -64t84 -23.5q164 0 164 263v74q0 263 -164 263zM238 1211
q0 145 93 242t250 97t248 -96.5t91 -242.5h-185q0 69 -39 116.5t-115 47.5t-115 -47.5t-39 -116.5h-189z" />
    <glyph glyph-name="Rdblgrave" unicode="&#x210;" horiz-adv-x="1304" 
d="M993 1499h-231l-331 239h276zM572 1499h-232l-330 239h275zM720 1365q250 0 382.5 -124t132.5 -330q0 -80 -25 -149.5t-64.5 -115.5t-77.5 -75.5t-76 -45.5l271 -525h-395l-228 477h-161v-477h-352v1365h593zM479 725h185q91 0 146.5 47.5t55.5 137.5q0 91 -57 141
t-143 50h-187v-376z" />
    <glyph glyph-name="rdblgrave" unicode="&#x211;" horiz-adv-x="842" 
d="M114 0v1071h347v-161h16q18 67 78.5 121.5t159.5 54.5q73 0 102 -10v-292q-36 14 -123 14q-222 0 -222 -234v-564h-358zM167 1235l-289 340h249l240 -340h-200zM552 1235l-289 340h249l240 -340h-200z" />
    <glyph glyph-name="Rinvertedbreve" unicode="&#x212;" horiz-adv-x="1304" 
d="M720 1365q250 0 382.5 -124t132.5 -330q0 -80 -25 -149.5t-64.5 -115.5t-77.5 -75.5t-76 -45.5l271 -525h-395l-228 477h-161v-477h-352v1365h593zM479 725h185q91 0 146.5 47.5t55.5 137.5q0 91 -57 141t-143 50h-187v-376zM642 1603q-75 0 -118 -35.5t-43 -96.5h-189
q0 141 95 224.5t255 83.5t253 -83.5t93 -224.5h-185q0 61 -43 96.5t-118 35.5z" />
    <glyph glyph-name="rinvertedbreve" unicode="&#x213;" horiz-adv-x="842" 
d="M114 0v1071h347v-161h16q18 67 78.5 121.5t159.5 54.5q73 0 102 -10v-292q-36 14 -123 14q-222 0 -222 -234v-564h-358zM95 1211q0 145 93 242t250 97t248 -96.5t91 -242.5h-185q0 69 -39 116.5t-115 47.5t-115 -47.5t-39 -116.5h-189z" />
    <glyph glyph-name="Udblgrave" unicode="&#x214;" horiz-adv-x="1389" 
d="M1045 1499h-231l-331 239h276zM624 1499h-232l-330 239h275zM470 1365v-847q0 -121 60.5 -183t163.5 -62t163.5 62.5t60.5 182.5v847h359v-893q0 -226 -157.5 -361t-425.5 -135q-267 0 -424.5 135.5t-157.5 361.5v892h358z" />
    <glyph glyph-name="udblgrave" unicode="&#x215;" horiz-adv-x="1229" 
d="M1120 1071v-1071h-336v170h-17q-26 -73 -104.5 -129t-204.5 -56q-165 0 -259.5 98t-94.5 287v701h347v-612q0 -55 14 -94.5t38.5 -59t50.5 -27.5t56 -8q69 0 116 49t47 143v609h347zM343 1235l-289 340h249l240 -340h-200zM728 1235l-289 340h249l240 -340h-200z" />
    <glyph glyph-name="Uinvertedbreve" unicode="&#x216;" horiz-adv-x="1389" 
d="M470 1365v-847q0 -121 60.5 -183t163.5 -62t163.5 62.5t60.5 182.5v847h359v-893q0 -226 -157.5 -361t-425.5 -135q-267 0 -424.5 135.5t-157.5 361.5v892h358zM694 1603q-75 0 -118 -35.5t-43 -96.5h-189q0 141 95 224.5t255 83.5t253 -83.5t93 -224.5h-185
q0 61 -43 96.5t-118 35.5z" />
    <glyph glyph-name="uinvertedbreve" unicode="&#x217;" horiz-adv-x="1229" 
d="M1120 1071v-1071h-336v170h-17q-26 -73 -104.5 -129t-204.5 -56q-165 0 -259.5 98t-94.5 287v701h347v-612q0 -55 14 -94.5t38.5 -59t50.5 -27.5t56 -8q69 0 116 49t47 143v609h347zM271 1211q0 145 93 242t250 97t248 -96.5t91 -242.5h-185q0 69 -39 116.5t-115 47.5
t-115 -47.5t-39 -116.5h-189z" />
    <glyph glyph-name="Scommaaccent" unicode="&#x218;" horiz-adv-x="1254" 
d="M58 405h339q4 -66 65.5 -113t168.5 -47q103 0 155 39t52 102q0 58 -47.5 89t-151.5 52l-184 37q-370 73 -370 394q0 135 70 233.5t192 148.5t281 50q127 0 230 -34t169 -92t102 -134t36 -162h-328q-3 63 -57.5 109.5t-151.5 46.5q-90 0 -138.5 -37.5t-48.5 -99.5
q0 -97 181 -130l191 -36q377 -68 377 -398q0 -205 -148.5 -326t-421.5 -121q-123 0 -221.5 25.5t-160.5 67t-103.5 98.5t-58.5 115.5t-18 122.5zM637 -489h-220l85 335h249z" />
    <glyph glyph-name="scommaaccent" unicode="&#x219;" horiz-adv-x="1068" 
d="M78 746q0 91 37 159t102 107.5t145.5 59t176.5 19.5q197 0 315.5 -86.5t118.5 -245.5h-300q-6 46 -40.5 78.5t-97.5 32.5q-62 0 -96 -27t-34 -71q0 -19 9 -35t29.5 -27.5t39 -20t51.5 -15t52.5 -10t56.5 -9t50 -7.5q154 -25 235.5 -98.5t81.5 -207.5q0 -169 -127 -265.5
t-362 -96.5q-222 0 -344 92t-122 240h336q4 -47 44 -78t103 -31q69 0 103.5 27.5t34.5 72.5q0 18 -7 32t-23 24.5t-32 17.5t-43.5 13.5t-48 10.5t-55 9.5t-54.5 9.5q-74 14 -131 37.5t-105 61t-73.5 95t-25.5 132.5zM550 -489h-220l85 335h249z" />
    <glyph glyph-name="Tcommaaccent" unicode="&#x21a;" horiz-adv-x="1107" 
d="M569 -489h-220l85 335h249zM732 0h-358v1074h-364v291h1086v-291h-364v-1074z" />
    <glyph glyph-name="tcommaaccent" unicode="&#x21b;" horiz-adv-x="818" 
d="M486 -489h-220l85 335h249zM205 1052v264h334v-264h203v-258h-203v-421q0 -64 34 -92t105 -28q44 0 66 2v-248q-56 -9 -150 -9q-211 0 -304.5 70.5t-93.5 237.5v488h-159v258h168z" />
    <glyph glyph-name="Hcaron" unicode="&#x21e;" horiz-adv-x="1440" 
d="M1312 0h-358v545h-468v-545h-359v1365h359v-532h468v532h358v-1365zM339 1734h252l122 -114h19l115 114h253l-252 -244h-246z" />
    <glyph glyph-name="hcaron" unicode="&#x21f;" horiz-adv-x="1237" 
d="M114 0v1437h347v-536h16q11 32 33.5 62.5t57.5 59.5t89.5 46.5t118.5 17.5q166 0 263 -104.5t97 -295.5v-687h-347v602q0 104 -46 151t-115 47q-72 0 -119.5 -51.5t-47.5 -148.5v-600h-347zM-72 1881h252l111 -167h13l95 167h261l-232 -316h-256z" />
    <glyph glyph-name="Adotaccent" unicode="&#x226;" horiz-adv-x="1315" 
d="M361 0h-356l432 1365h443l429 -1365h-382l-79 296h-407zM655 1053h-17l-133 -500h281zM515 1604q0 62 40 103t102 41q63 0 105.5 -41t42.5 -103t-42 -102t-106 -40q-62 0 -102 39.5t-40 102.5z" />
    <glyph glyph-name="adotaccent" unicode="&#x227;" 
d="M689 130q-27 -61 -96 -103t-179 -42q-159 0 -256.5 86.5t-97.5 237.5q0 150 100.5 236.5t285.5 86.5h243v91q0 55 -34.5 84.5t-96.5 29.5t-97 -30.5t-38 -82.5h-324q2 55 16 104.5t47.5 98t84.5 83t132 56t184 21.5t185.5 -20.5t147 -63.5t99.5 -117t35 -175v-711h-324
v130h-17zM537 221q62 0 107 36.5t45 92.5v100h-144q-67 0 -105.5 -30.5t-38.5 -81.5q0 -55 40 -86t96 -31zM423 1310q0 62 40 103t102 41q63 0 105.5 -41t42.5 -103t-42 -102t-106 -40q-62 0 -102 39.5t-40 102.5z" />
    <glyph glyph-name="Ecedilla" unicode="&#x228;" horiz-adv-x="1154" 
d="M581 -475q-93 0 -143 16v138q44 -13 108 -13q104 0 104 49q0 29 -25 41t-92 12h-57v121l43 111h-392v1365h935v-281h-580v-270h543v-258h-543v-275h580v-281h-356l-41 -100q83 0 131.5 -47.5t48.5 -125.5q0 -199 -264 -202z" />
    <glyph glyph-name="ecedilla" unicode="&#x229;" 
d="M401 659h337q0 84 -45 136t-121 52q-77 0 -124 -52.5t-47 -135.5zM567 -479q-92 -1 -143 15v138q44 -13 108 -13q104 0 104 49q0 29 -25 41.5t-92 12.5h-57v120l39 100q-205 21 -321 153t-116 362v74q0 126 38.5 225.5t107 163t160 96.5t199.5 33q230 0 365 -139.5
t135 -378.5v-107h-668v-41q0 -86 50.5 -139t129.5 -53q73 0 118 33t50 86h314q-3 -56 -25.5 -111.5t-65 -108.5t-116.5 -92t-168 -53l-37 -92q83 0 131.5 -47t48.5 -126q0 -102 -69.5 -151t-194.5 -50z" />
    <glyph glyph-name="Odieresismacron" unicode="&#x22a;" horiz-adv-x="1383" 
d="M368 1579q0 56 35 89.5t95 33.5q61 0 96 -33.5t35 -89.5t-35 -90t-96 -34q-60 0 -95 34t-35 90zM765 1579q0 56 34.5 89.5t95.5 33.5t96 -33.5t35 -89.5t-35 -90t-96 -34t-95.5 34t-34.5 90zM438 759v-157q0 -164 68 -251t186 -87q117 0 185 87t68 251v157q0 165 -68 253
t-185 88t-185.5 -88t-68.5 -253zM72 604v150q0 294 163.5 464.5t456.5 170.5t456 -171t163 -464v-150q0 -291 -162.5 -459.5t-457.5 -168.5q-293 0 -456 168.5t-163 459.5zM999 1788h-616v165h616v-165z" />
    <glyph glyph-name="odieresismacron" unicode="&#x22b;" horiz-adv-x="1162" 
d="M225 1323q0 62 38 99t104 37t105 -37t39 -99t-38.5 -99t-105.5 -37q-65 0 -103.5 37t-38.5 99zM662 1323q0 62 38.5 99t104.5 37t104.5 -37t38.5 -99t-38 -99t-105 -37q-66 0 -104.5 37t-38.5 99zM582 1091q245 0 380.5 -142t135.5 -378v-61q0 -253 -134 -391.5
t-382 -138.5q-249 0 -383.5 138.5t-134.5 389.5v61q0 234 137 378t381 144zM582 836q-167 0 -167 -263v-74q0 -50 7 -92.5t24 -83t52 -64t84 -23.5q164 0 164 263v74q0 263 -164 263zM893 1596h-616v168h616v-168z" />
    <glyph glyph-name="Otildemacron" unicode="&#x22c;" horiz-adv-x="1383" 
d="M438 759v-157q0 -164 68 -251t186 -87q117 0 185 87t68 251v157q0 165 -68 253t-185 88t-185.5 -88t-68.5 -253zM72 604v150q0 294 163.5 464.5t456.5 170.5t456 -171t163 -464v-150q0 -291 -162.5 -459.5t-457.5 -168.5q-293 0 -456 168.5t-163 459.5zM681 1506
q-5 4 -18 16.5t-20 18.5t-20 12t-26 6q-64 0 -68 -81h-167q0 92 53 162.5t148 70.5q55 0 89 -14.5t71 -45.5q6 -5 17.5 -16t17 -15.5t15 -10.5t17.5 -8.5t18 -2.5q33 0 48 28.5t16 69.5h167q0 -103 -60 -172t-150 -69q-41 0 -71.5 8.5t-44.5 17.5t-32 25zM999 1788h-616v165
h616v-165z" />
    <glyph glyph-name="otildemacron" unicode="&#x22d;" horiz-adv-x="1162" 
d="M549 1248q-47 47 -88 47q-73 0 -78 -94h-188q0 135 61.5 226t181.5 91q51 0 88.5 -18.5t80.5 -59.5q2 -2 13 -12.5t14.5 -13.5t13 -10t15 -9.5t14.5 -5t18 -2.5q37 0 54 32.5t18 80.5h188q0 -131 -71 -224t-184 -93q-37 0 -68.5 11.5t-46.5 22.5t-36 31zM893 1596h-616
v168h616v-168zM582 1091q245 0 380.5 -142t135.5 -378v-61q0 -253 -134 -391.5t-382 -138.5q-249 0 -383.5 138.5t-134.5 389.5v61q0 234 137 378t381 144zM582 836q-167 0 -167 -263v-74q0 -50 7 -92.5t24 -83t52 -64t84 -23.5q164 0 164 263v74q0 263 -164 263z" />
    <glyph glyph-name="Odotaccent" unicode="&#x22e;" horiz-adv-x="1383" 
d="M549 1604q0 62 40 103t102 41q63 0 105.5 -41t42.5 -103t-42 -102t-106 -40q-62 0 -102 39.5t-40 102.5zM438 759v-157q0 -164 68 -251t186 -87q117 0 185 87t68 251v157q0 165 -68 253t-185 88t-185.5 -88t-68.5 -253zM72 604v150q0 294 163.5 464.5t456.5 170.5
t456 -171t163 -464v-150q0 -291 -162.5 -459.5t-457.5 -168.5q-293 0 -456 168.5t-163 459.5z" />
    <glyph glyph-name="odotaccent" unicode="&#x22f;" horiz-adv-x="1162" 
d="M439 1310q0 62 40 103t102 41q63 0 105.5 -41t42.5 -103t-42 -102t-106 -40q-62 0 -102 39.5t-40 102.5zM582 1091q245 0 380.5 -142t135.5 -378v-61q0 -253 -134 -391.5t-382 -138.5q-249 0 -383.5 138.5t-134.5 389.5v61q0 234 137 378t381 144zM582 836
q-167 0 -167 -263v-74q0 -50 7 -92.5t24 -83t52 -64t84 -23.5q164 0 164 263v74q0 263 -164 263z" />
    <glyph glyph-name="Odotaccentmacron" unicode="&#x230;" horiz-adv-x="1383" 
d="M549 1604q0 62 40 103t102 41q63 0 105.5 -41t42.5 -103t-42 -102t-106 -40q-62 0 -102 39.5t-40 102.5zM438 759v-157q0 -164 68 -251t186 -87q117 0 185 87t68 251v157q0 165 -68 253t-185 88t-185.5 -88t-68.5 -253zM72 604v150q0 294 163.5 464.5t456.5 170.5
t456 -171t163 -464v-150q0 -291 -162.5 -459.5t-457.5 -168.5q-293 0 -456 168.5t-163 459.5zM999 1788h-616v165h616v-165z" />
    <glyph glyph-name="odotaccentmacron" unicode="&#x231;" horiz-adv-x="1162" 
d="M439 1310q0 62 40 103t102 41q63 0 105.5 -41t42.5 -103t-42 -102t-106 -40q-62 0 -102 39.5t-40 102.5zM893 1596h-616v168h616v-168zM582 1091q245 0 380.5 -142t135.5 -378v-61q0 -253 -134 -391.5t-382 -138.5q-249 0 -383.5 138.5t-134.5 389.5v61q0 234 137 378
t381 144zM582 836q-167 0 -167 -263v-74q0 -50 7 -92.5t24 -83t52 -64t84 -23.5q164 0 164 263v74q0 263 -164 263z" />
    <glyph glyph-name="Ymacron" unicode="&#x232;" horiz-adv-x="1210" 
d="M784 0h-358v455l-457 910h391l245 -554h12l246 554h378l-457 -900v-465zM913 1488h-616v165h616v-165z" />
    <glyph glyph-name="ymacron" unicode="&#x233;" horiz-adv-x="1137" 
d="M1125 1071q-317 -991 -324 -1009l-27 -72q-33 -88 -72.5 -150t-99.5 -112.5t-146 -75.5t-201 -25q-110 0 -180 14v236q30 -8 95 -8q97 0 136.5 29.5t45.5 90.5l4 20l-348 1062h382l173 -794h13l181 794h368zM880 1235h-616v168h616v-168z" />
    <glyph glyph-name="circumflex" unicode="&#x2c6;" horiz-adv-x="949" 
d="M131 1220l244 316h256l232 -316h-261l-95 167h-13l-111 -167h-252z" />
    <glyph glyph-name="caron" unicode="&#x2c7;" horiz-adv-x="949" 
d="M115 1543h252l111 -167h13l95 167h261l-232 -316h-256z" />
    <glyph glyph-name="breve" unicode="&#x2d8;" horiz-adv-x="949" 
d="M135 1564h189q0 -69 39 -116.5t115 -47.5t115 47.5t39 116.5h185q0 -145 -91 -241.5t-248 -96.5q-156 0 -249.5 96.5t-93.5 241.5z" />
    <glyph glyph-name="dotaccent" unicode="&#x2d9;" horiz-adv-x="949" 
d="M278 1486q0 87 56.5 138.5t142.5 51.5t142.5 -52t56.5 -138q0 -87 -56.5 -137.5t-142.5 -50.5q-85 0 -142 50.5t-57 137.5z" />
    <glyph glyph-name="ring" unicode="&#x2da;" horiz-adv-x="949" 
d="M465 1210q-102 0 -169.5 63.5t-67.5 163.5t67.5 163t169.5 63t169 -63t67 -163t-67 -163.5t-169 -63.5zM377 1436q0 -38 24.5 -62.5t62.5 -24.5t63 25t25 62t-25 62t-63 25t-62.5 -24.5t-24.5 -62.5z" />
    <glyph glyph-name="ogonek" unicode="&#x2db;" horiz-adv-x="949" 
d="M699 -189v-177q-72 -27 -165 -27q-124 0 -189.5 57.5t-65.5 148.5q0 162 194 303h187q-156 -114 -156 -219q0 -48 33 -72.5t84 -24.5q37 0 78 11z" />
    <glyph glyph-name="tilde" unicode="&#x2dc;" horiz-adv-x="949" 
d="M436 1287q-47 47 -88 47q-73 0 -78 -94h-188q0 135 61.5 226t181.5 91q51 0 88.5 -18.5t80.5 -59.5q2 -2 13 -12.5t14.5 -13.5t13 -10t15 -9.5t14.5 -5t18 -2.5q37 0 54 32.5t18 80.5h188q0 -131 -71 -224t-184 -93q-37 0 -68.5 11.5t-46.5 22.5t-36 31z" />
    <glyph glyph-name="hungarumlaut" unicode="&#x2dd;" horiz-adv-x="949" 
d="M245 1240h-200l240 340h249zM630 1240h-200l240 340h249z" />
    <glyph glyph-name="gravecmb" unicode="&#x300;" horiz-adv-x="0" 
d="M213 1240h-295l-285 301h346z" />
    <glyph glyph-name="acutecmb" unicode="&#x301;" horiz-adv-x="0" 
d="M158 1235h-295l220 306h346z" />
    <glyph glyph-name="circumflexcmb" unicode="&#x302;" horiz-adv-x="0" 
d="M-379 1233l244 316h256l232 -316h-261l-95 167h-13l-111 -167h-252z" />
    <glyph glyph-name="tildecmb" unicode="&#x303;" horiz-adv-x="0" 
d="M-32 1248q-47 47 -88 47q-73 0 -78 -94h-188q0 135 61.5 226t181.5 91q51 0 88.5 -18.5t80.5 -59.5q2 -2 13 -12.5t14.5 -13.5t13 -10t15 -9.5t14.5 -5t18 -2.5q37 0 54 32.5t18 80.5h188q0 -131 -71 -224t-184 -93q-37 0 -68.5 11.5t-46.5 22.5t-36 31z" />
    <glyph glyph-name="macroncmb" unicode="&#x304;" horiz-adv-x="0" 
d="M312 1235h-616v168h616v-168z" />
    <glyph glyph-name="brevecmb" unicode="&#x306;" horiz-adv-x="0" 
d="M-357 1511h189q0 -69 39 -116.5t115 -47.5t115 47.5t39 116.5h185q0 -145 -91 -241.5t-248 -96.5q-156 0 -249.5 96.5t-93.5 241.5z" />
    <glyph glyph-name="dotaccentcmb" unicode="&#x307;" horiz-adv-x="0" 
d="M-142 1310q0 62 40 103t102 41q63 0 105.5 -41t42.5 -103t-42 -102t-106 -40q-62 0 -102 39.5t-40 102.5z" />
    <glyph glyph-name="dieresiscmb" unicode="&#x308;" horiz-adv-x="0" 
d="M-356 1323q0 62 38 99t104 37t105 -37t39 -99t-38.5 -99t-105.5 -37q-65 0 -103.5 37t-38.5 99zM81 1323q0 62 38.5 99t104.5 37t104.5 -37t38.5 -99t-38 -99t-105 -37q-66 0 -104.5 37t-38.5 99z" />
    <glyph glyph-name="hookabovecmb" unicode="&#x309;" horiz-adv-x="0" 
d="M-152 1429v134q43 18 113 18q108 0 169.5 -50.5t61.5 -137.5q0 -79 -43 -127t-125 -89l-85 102q44 25 63.5 46t19.5 48q0 31 -24.5 50t-68.5 19q-47 0 -81 -13z" />
    <glyph glyph-name="ringcmb" unicode="&#x30a;" horiz-adv-x="0" 
d="M-4 1176q-102 0 -169.5 63.5t-67.5 163.5t67.5 163t169.5 63t169 -63t67 -163t-67 -163.5t-169 -63.5zM-92 1402q0 -38 25 -62.5t62 -24.5q38 0 63 25t25 62t-25 62t-63 25q-37 0 -62 -24.5t-25 -62.5z" />
    <glyph glyph-name="hungarumlautcmb" unicode="&#x30b;" horiz-adv-x="0" 
d="M-128 1235h-200l240 340h249zM257 1235h-200l240 340h249z" />
    <glyph glyph-name="caroncmb" unicode="&#x30c;" horiz-adv-x="0" 
d="M-360 1515h252l111 -167h13l95 167h261l-232 -316h-256z" />
    <glyph glyph-name="dblgravecmb" unicode="&#x30f;" horiz-adv-x="0" 
d="M-271 1235l-289 340h249l240 -340h-200zM114 1235l-289 340h249l240 -340h-200z" />
    <glyph glyph-name="invertedbrevecmb" unicode="&#x311;" horiz-adv-x="0" 
d="M-343 1211q0 145 93 242t250 97t248 -96.5t91 -242.5h-185q0 69 -39 116.5t-115 47.5t-115 -47.5t-39 -116.5h-189z" />
    <glyph glyph-name="horncmb" unicode="&#x31b;" horiz-adv-x="0" 
d="M-372 847v239q27 -12 55 -10q37 4 51.5 30t14.5 72v159h265v-208q0 -131 -63.5 -216t-189.5 -85q-97 0 -133 19z" />
    <glyph glyph-name="dotbelowcmb" unicode="&#x323;" horiz-adv-x="0" 
d="M-149 -253q0 65 43.5 109.5t105.5 44.5q67 0 111.5 -44t44.5 -110q0 -64 -44.5 -107t-111.5 -43q-62 0 -105.5 43t-43.5 107z" />
    <glyph glyph-name="dieresisbelowcmb" unicode="&#x324;" horiz-adv-x="0" 
d="M-359 -305q0 62 38 99t104 37t105 -37t39 -99t-38.5 -99t-105.5 -37q-65 0 -103.5 37t-38.5 99zM78 -305q0 62 38.5 99t104.5 37t104.5 -37t38.5 -99t-38 -99t-105 -37q-66 0 -104.5 37t-38.5 99z" />
    <glyph glyph-name="ringbelowcmb" unicode="&#x325;" horiz-adv-x="0" 
d="M2 -531q-102 0 -169.5 63.5t-67.5 163.5t67.5 163t169.5 63t169 -63t67 -163t-67 -163.5t-169 -63.5zM-86 -305q0 -37 25 -62t62 -25q38 0 63 25t25 62t-25 62t-63 25q-37 0 -62 -25t-25 -62z" />
    <glyph glyph-name="commabelowcmb" unicode="&#x326;" horiz-adv-x="0" 
d="M16 -489h-220l85 335h249z" />
    <glyph glyph-name="cedillacmb" unicode="&#x327;" horiz-adv-x="0" 
d="M-129 -236v120l45 118h187l-44 -107q83 0 131.5 -47t48.5 -126q0 -102 -69.5 -151t-193.5 -50q-93 -1 -144 15v138q44 -13 108 -13q104 0 104 49q0 29 -25 41.5t-92 12.5h-56z" />
    <glyph glyph-name="ogonekcmb" unicode="&#x328;" horiz-adv-x="0" 
d="M183 -189v-177q-72 -27 -165 -27q-124 0 -189.5 57.5t-65.5 148.5q0 162 194 303h187q-156 -114 -156 -219q0 -48 33 -72.5t84 -24.5q37 0 78 11z" />
    <glyph glyph-name="circumflexbelowcmb" unicode="&#x32d;" horiz-adv-x="0" 
d="M-371 -398l245 285h256l232 -285h-261l-95 144h-14l-110 -144h-253z" />
    <glyph glyph-name="brevebelowcmb" unicode="&#x32e;" horiz-adv-x="0" 
d="M-347 -118h191q0 -69 40 -116.5t116 -47.5t116 47.5t40 116.5h185q0 -146 -91.5 -242t-249.5 -96q-159 0 -253 96t-94 242z" />
    <glyph glyph-name="tildebelowcmb" unicode="&#x330;" horiz-adv-x="0" 
d="M-12 -321q-5 4 -18 17t-20.5 19t-20.5 12t-26 6q-63 0 -69 -83h-167q0 93 53.5 165.5t149.5 72.5q55 0 89 -15t71 -48q6 -5 18 -15.5t17.5 -15.5t15 -11t17.5 -8.5t18 -2.5q33 0 48.5 29t16.5 71h168q0 -104 -60.5 -175t-151.5 -71q-41 0 -72 9t-44.5 18t-32.5 26z" />
    <glyph glyph-name="macronbelowcmb" unicode="&#x331;" horiz-adv-x="0" 
d="M314 -325h-616v168h616v-168z" />
    <glyph glyph-name="Delta" unicode="&#x394;" horiz-adv-x="1315" 
d="M6 0l432 1365h443l428 -1365h-1303zM638 1053l-200 -744h414l-196 744h-18z" />
    <glyph glyph-name="Omega" unicode="&#x3a9;" horiz-adv-x="1411" 
d="M790 0v364q76 26 123 113.5t47 215.5v98q0 157 -67.5 233t-186.5 76t-186.5 -76t-67.5 -233v-98q0 -126 44.5 -212t117.5 -113v-368h-566v296h238v21q-89 47 -144.5 157.5t-55.5 229.5v98q0 287 160.5 437t459.5 150q300 0 460 -149.5t160 -437.5v-98q0 -118 -57.5 -231
t-146.5 -156v-22h242v-295h-574z" />
    <glyph glyph-name="mu" unicode="&#x3bc;" horiz-adv-x="1303" 
d="M405 32h-14l4 -369h-291v1408h347v-620q0 -101 45 -142t108 -41q71 0 120 50.5t49 139.5v613h347v-721q0 -63 24 -90t84 -27q28 0 48 3v-239q-79 -17 -168 -17q-74 0 -130.5 16.5t-97.5 63t-44 120.5v7h-18q-11 -76 -85 -138t-185 -62q-49 0 -88.5 13.5t-54.5 31.5z" />
    <glyph glyph-name="pi" unicode="&#x3c0;" horiz-adv-x="1427" 
d="M1347 0q-86 -18 -199 -18q-154 0 -227.5 71.5t-73.5 190.5v569h-250v-813h-347v813h-211v258h1343v-258h-188v-465q0 -44 21 -69.5t63 -25.5t69 5v-258z" />
    <glyph glyph-name="Aringbelow" unicode="&#x1e00;" horiz-adv-x="1315" 
d="M361 0h-356l432 1365h443l429 -1365h-382l-79 296h-407zM655 1053h-17l-133 -500h281zM643 -525q-102 0 -169.5 63.5t-67.5 163.5t67.5 163t169.5 63t169 -63t67 -163t-67 -163.5t-169 -63.5zM555 -299q0 -37 24.5 -62t62.5 -25t63 25t25 62t-25 62t-63 25t-62.5 -25
t-24.5 -62z" />
    <glyph glyph-name="aringbelow" unicode="&#x1e01;" 
d="M689 130q-27 -61 -96 -103t-179 -42q-159 0 -256.5 86.5t-97.5 237.5q0 150 100.5 236.5t285.5 86.5h243v91q0 55 -34.5 84.5t-96.5 29.5t-97 -30.5t-38 -82.5h-324q2 55 16 104.5t47.5 98t84.5 83t132 56t184 21.5t185.5 -20.5t147 -63.5t99.5 -117t35 -175v-711h-324
v130h-17zM537 221q62 0 107 36.5t45 92.5v100h-144q-67 0 -105.5 -30.5t-38.5 -81.5q0 -55 40 -86t96 -31zM567 -531q-102 0 -169.5 63.5t-67.5 163.5t67.5 163t169.5 63t169 -63t67 -163t-67 -163.5t-169 -63.5zM479 -305q0 -37 24.5 -62t62.5 -25t63 25t25 62t-25 62
t-63 25t-62.5 -25t-24.5 -62z" />
    <glyph glyph-name="Bdotaccent" unicode="&#x1e02;" horiz-adv-x="1292" 
d="M127 0v1365h622q193 0 310 -89t117 -246q0 -127 -71.5 -203t-176.5 -94v-16q58 -4 111.5 -25.5t99 -60.5t73 -102t27.5 -141q0 -122 -65.5 -211.5t-171.5 -133t-237 -43.5h-638zM482 1117v-301h150q97 0 146 41t49 111t-46 109.5t-126 39.5h-173zM482 593v-345h166
q110 0 168.5 44.5t58.5 127.5q0 81 -53 127t-152 46h-188zM493 1604q0 62 40 103t102 41q63 0 105.5 -41t42.5 -103t-42 -102t-106 -40q-62 0 -102 39.5t-40 102.5z" />
    <glyph glyph-name="bdotaccent" unicode="&#x1e03;" horiz-adv-x="1236" 
d="M142 1677q0 62 40 103t102 41q63 0 105.5 -41t42.5 -103t-42 -102t-106 -40q-62 0 -102 39.5t-40 102.5zM778 -11q-114 0 -194 49.5t-108 130.5h-16v-169h-346v1437h348v-530h16q31 79 108.5 127t193.5 48q184 0 287 -129.5t103 -370.5v-91q0 -243 -104 -372.5
t-288 -129.5zM637 254q80 0 127 63t47 183v68q0 121 -46.5 184.5t-127.5 63.5q-79 0 -127 -64.5t-48 -179.5v-74q0 -113 47 -178.5t128 -65.5z" />
    <glyph glyph-name="Bdotbelow" unicode="&#x1e04;" horiz-adv-x="1292" 
d="M486 -253q0 65 43.5 109.5t105.5 44.5q67 0 111.5 -44t44.5 -110q0 -64 -44.5 -107t-111.5 -43q-62 0 -105.5 43t-43.5 107zM127 0v1365h622q193 0 310 -89t117 -246q0 -127 -71.5 -203t-176.5 -94v-16q58 -4 111.5 -25.5t99 -60.5t73 -102t27.5 -141
q0 -122 -65.5 -211.5t-171.5 -133t-237 -43.5h-638zM482 1117v-301h150q97 0 146 41t49 111t-46 109.5t-126 39.5h-173zM482 593v-345h166q110 0 168.5 44.5t58.5 127.5q0 81 -53 127t-152 46h-188z" />
    <glyph glyph-name="bdotbelow" unicode="&#x1e05;" horiz-adv-x="1236" 
d="M469 -253q0 65 43.5 109.5t105.5 44.5q67 0 111.5 -44t44.5 -110q0 -64 -44.5 -107t-111.5 -43q-62 0 -105.5 43t-43.5 107zM778 -11q-114 0 -194 49.5t-108 130.5h-16v-169h-346v1437h348v-530h16q31 79 108.5 127t193.5 48q184 0 287 -129.5t103 -370.5v-91
q0 -243 -104 -372.5t-288 -129.5zM637 254q80 0 127 63t47 183v68q0 121 -46.5 184.5t-127.5 63.5q-79 0 -127 -64.5t-48 -179.5v-74q0 -113 47 -178.5t128 -65.5z" />
    <glyph glyph-name="Blinebelow" unicode="&#x1e06;" horiz-adv-x="1292" 
d="M127 0v1365h622q193 0 310 -89t117 -246q0 -127 -71.5 -203t-176.5 -94v-16q58 -4 111.5 -25.5t99 -60.5t73 -102t27.5 -141q0 -122 -65.5 -211.5t-171.5 -133t-237 -43.5h-638zM482 1117v-301h150q97 0 146 41t49 111t-46 109.5t-126 39.5h-173zM482 593v-345h166
q110 0 168.5 44.5t58.5 127.5q0 81 -53 127t-152 46h-188zM949 -325h-616v168h616v-168z" />
    <glyph glyph-name="blinebelow" unicode="&#x1e07;" horiz-adv-x="1236" 
d="M932 -325h-616v168h616v-168zM778 -11q-114 0 -194 49.5t-108 130.5h-16v-169h-346v1437h348v-530h16q31 79 108.5 127t193.5 48q184 0 287 -129.5t103 -370.5v-91q0 -243 -104 -372.5t-288 -129.5zM637 254q80 0 127 63t47 183v68q0 121 -46.5 184.5t-127.5 63.5
q-79 0 -127 -64.5t-48 -179.5v-74q0 -113 47 -178.5t128 -65.5z" />
    <glyph glyph-name="Ccedillaacute" unicode="&#x1e08;" horiz-adv-x="1308" 
d="M460 1498l282 236h349l-332 -236h-299zM656 -479q-92 -1 -143 15v138q44 -13 107 -13q104 0 104 49q0 29 -25 41.5t-92 12.5h-56v120l37 96q-247 25 -381.5 192t-134.5 441v137q0 299 158 469t444 170q254 0 411 -139.5t157 -358.5v-45h-341q0 107 -59 178t-165 71
q-113 0 -176 -88.5t-63 -256.5v-139q0 -168 63 -254.5t178 -86.5q106 0 164 68.5t58 174.5h341v-47q0 -190 -126 -323.5t-341 -159.5l-36 -88q84 0 132 -47t48 -126q0 -102 -69.5 -151t-193.5 -50z" />
    <glyph glyph-name="ccedillaacute" unicode="&#x1e09;" horiz-adv-x="1099" 
d="M707 1235h-295l220 306h346zM542 -474q-92 -1 -143 15v138q44 -13 108 -13q103 0 103 49q0 30 -23.5 42t-90.5 12h-56v120l38 97q-194 25 -304 159t-110 357v78q0 230 135 370.5t370 140.5q217 0 343.5 -117t128.5 -304h-311q-3 65 -43.5 111.5t-105.5 46.5
q-79 0 -123.5 -68.5t-44.5 -180.5v-73q0 -123 44.5 -192t123.5 -69q138 0 151 149h311q-2 -177 -104.5 -280.5t-273.5 -126.5l-37 -87q83 0 130 -47t47 -126q0 -102 -69 -151t-194 -50z" />
    <glyph glyph-name="Ddotaccent" unicode="&#x1e0a;" horiz-adv-x="1362" 
d="M478 1604q0 62 40 103t102 41q63 0 105.5 -41t42.5 -103t-42 -102t-106 -40q-62 0 -102 39.5t-40 102.5zM127 1365h554q162 0 282.5 -48t193.5 -139t108.5 -212.5t35.5 -276.5q0 -156 -35.5 -280t-109 -216.5t-194 -142.5t-281.5 -50h-554v1365zM486 1084v-803h135
q73 0 125.5 16.5t97 58.5t67.5 123t23 201q0 69 -8 125t-29 109.5t-55.5 89.5t-90.5 58t-130 22h-135z" />
    <glyph glyph-name="ddotaccent" unicode="&#x1e0b;" horiz-adv-x="1238" 
d="M810 1676q0 62 40 103t102 41q63 0 105.5 -41t42.5 -103t-42 -102t-106 -40q-62 0 -102 39.5t-40 102.5zM458 1082q114 0 194 -47.5t108 -127.5h16v530h348v-1437h-347v169h-15q-27 -80 -108 -130t-196 -50q-183 0 -287 132t-104 369v93q0 237 103.5 368t287.5 131z
M599 815q-81 0 -127.5 -64.5t-46.5 -183.5v-63q0 -120 46.5 -185t128.5 -65q80 0 128 64.5t48 184.5v66q0 118 -48 182t-129 64z" />
    <glyph glyph-name="Ddotbelow" unicode="&#x1e0c;" horiz-adv-x="1362" 
d="M471 -253q0 65 43.5 109.5t105.5 44.5q67 0 111.5 -44t44.5 -110q0 -64 -44.5 -107t-111.5 -43q-62 0 -105.5 43t-43.5 107zM127 1365h554q162 0 282.5 -48t193.5 -139t108.5 -212.5t35.5 -276.5q0 -156 -35.5 -280t-109 -216.5t-194 -142.5t-281.5 -50h-554v1365z
M486 1084v-803h135q73 0 125.5 16.5t97 58.5t67.5 123t23 201q0 69 -8 125t-29 109.5t-55.5 89.5t-90.5 58t-130 22h-135z" />
    <glyph glyph-name="ddotbelow" unicode="&#x1e0d;" horiz-adv-x="1238" 
d="M469 -253q0 65 43.5 109.5t105.5 44.5q67 0 111.5 -44t44.5 -110q0 -64 -44.5 -107t-111.5 -43q-62 0 -105.5 43t-43.5 107zM458 1082q114 0 194 -47.5t108 -127.5h16v530h348v-1437h-347v169h-15q-27 -80 -108 -130t-196 -50q-183 0 -287 132t-104 369v93
q0 237 103.5 368t287.5 131zM599 815q-81 0 -127.5 -64.5t-46.5 -183.5v-63q0 -120 46.5 -185t128.5 -65q80 0 128 64.5t48 184.5v66q0 118 -48 182t-129 64z" />
    <glyph glyph-name="Dlinebelow" unicode="&#x1e0e;" horiz-adv-x="1362" 
d="M934 -325h-616v168h616v-168zM127 1365h554q162 0 282.5 -48t193.5 -139t108.5 -212.5t35.5 -276.5q0 -156 -35.5 -280t-109 -216.5t-194 -142.5t-281.5 -50h-554v1365zM486 1084v-803h135q73 0 125.5 16.5t97 58.5t67.5 123t23 201q0 69 -8 125t-29 109.5t-55.5 89.5
t-90.5 58t-130 22h-135z" />
    <glyph glyph-name="dlinebelow" unicode="&#x1e0f;" horiz-adv-x="1238" 
d="M932 -325h-616v168h616v-168zM458 1082q114 0 194 -47.5t108 -127.5h16v530h348v-1437h-347v169h-15q-27 -80 -108 -130t-196 -50q-183 0 -287 132t-104 369v93q0 237 103.5 368t287.5 131zM599 815q-81 0 -127.5 -64.5t-46.5 -183.5v-63q0 -120 46.5 -185t128.5 -65
q80 0 128 64.5t48 184.5v66q0 118 -48 182t-129 64z" />
    <glyph glyph-name="Dcommaaccent" unicode="&#x1e10;" horiz-adv-x="1362" 
d="M636 -489h-220l85 335h249zM127 1365h554q162 0 282.5 -48t193.5 -139t108.5 -212.5t35.5 -276.5q0 -156 -35.5 -280t-109 -216.5t-194 -142.5t-281.5 -50h-554v1365zM486 1084v-803h135q73 0 125.5 16.5t97 58.5t67.5 123t23 201q0 69 -8 125t-29 109.5t-55.5 89.5
t-90.5 58t-130 22h-135z" />
    <glyph glyph-name="dcommaaccent" unicode="&#x1e11;" horiz-adv-x="1238" 
d="M634 -489h-220l85 335h249zM458 1082q114 0 194 -47.5t108 -127.5h16v530h348v-1437h-347v169h-15q-27 -80 -108 -130t-196 -50q-183 0 -287 132t-104 369v93q0 237 103.5 368t287.5 131zM599 815q-81 0 -127.5 -64.5t-46.5 -183.5v-63q0 -120 46.5 -185t128.5 -65
q80 0 128 64.5t48 184.5v66q0 118 -48 182t-129 64z" />
    <glyph glyph-name="Dcircumflexbelow" unicode="&#x1e12;" horiz-adv-x="1362" 
d="M127 1365h554q162 0 282.5 -48t193.5 -139t108.5 -212.5t35.5 -276.5q0 -156 -35.5 -280t-109 -216.5t-194 -142.5t-281.5 -50h-554v1365zM486 1084v-803h135q73 0 125.5 16.5t97 58.5t67.5 123t23 201q0 69 -8 125t-29 109.5t-55.5 89.5t-90.5 58t-130 22h-135z
M249 -398l245 285h256l232 -285h-261l-95 144h-14l-110 -144h-253z" />
    <glyph glyph-name="dcircumflexbelow" unicode="&#x1e13;" horiz-adv-x="1238" 
d="M458 1082q114 0 194 -47.5t108 -127.5h16v530h348v-1437h-347v169h-15q-27 -80 -108 -130t-196 -50q-183 0 -287 132t-104 369v93q0 237 103.5 368t287.5 131zM599 815q-81 0 -127.5 -64.5t-46.5 -183.5v-63q0 -120 46.5 -185t128.5 -65q80 0 128 64.5t48 184.5v66
q0 118 -48 182t-129 64zM247 -398l245 285h256l232 -285h-261l-95 144h-14l-110 -144h-253z" />
    <glyph glyph-name="Emacrongrave" unicode="&#x1e14;" horiz-adv-x="1154" 
d="M746 1751h-283l-316 224h330zM1062 281v-281h-935v1365h935v-281h-580v-270h543v-258h-543v-275h580zM890 1488h-616v165h616v-165z" />
    <glyph glyph-name="emacrongrave" unicode="&#x1e15;" 
d="M778 1539h-295l-285 301h346zM583 -20q-240 0 -379.5 133.5t-139.5 385.5v74q0 126 38.5 225.5t107 163t160 96.5t199.5 33q230 0 365 -139.5t135 -378.5v-107h-668v-41q0 -86 50.5 -139t129.5 -53q73 0 118 33t50 86h314q-2 -49 -19 -99t-54.5 -99.5t-91 -87.5
t-135.5 -62t-180 -24zM401 659h337q0 84 -45 136t-121 52q-77 0 -124 -52.5t-47 -135.5zM877 1235h-616v168h616v-168z" />
    <glyph glyph-name="Emacronacute" unicode="&#x1e16;" horiz-adv-x="1154" 
d="M383 1751l282 236h349l-332 -236h-299zM1062 281v-281h-935v1365h935v-281h-580v-270h543v-258h-543v-275h580zM890 1488h-616v165h616v-165z" />
    <glyph glyph-name="emacronacute" unicode="&#x1e17;" 
d="M723 1542h-295l220 306h346zM583 -20q-240 0 -379.5 133.5t-139.5 385.5v74q0 126 38.5 225.5t107 163t160 96.5t199.5 33q230 0 365 -139.5t135 -378.5v-107h-668v-41q0 -86 50.5 -139t129.5 -53q73 0 118 33t50 86h314q-2 -49 -19 -99t-54.5 -99.5t-91 -87.5
t-135.5 -62t-180 -24zM401 659h337q0 84 -45 136t-121 52q-77 0 -124 -52.5t-47 -135.5zM877 1235h-616v168h616v-168z" />
    <glyph glyph-name="Ecircumflexbelow" unicode="&#x1e18;" horiz-adv-x="1154" 
d="M1062 281v-281h-935v1365h935v-281h-580v-270h543v-258h-543v-275h580zM211 -398l245 285h256l232 -285h-261l-95 144h-14l-110 -144h-253z" />
    <glyph glyph-name="ecircumflexbelow" unicode="&#x1e19;" 
d="M583 -20q-240 0 -379.5 133.5t-139.5 385.5v74q0 126 38.5 225.5t107 163t160 96.5t199.5 33q230 0 365 -139.5t135 -378.5v-107h-668v-41q0 -86 50.5 -139t129.5 -53q73 0 118 33t50 86h314q-2 -49 -19 -99t-54.5 -99.5t-91 -87.5t-135.5 -62t-180 -24zM401 659h337
q0 84 -45 136t-121 52q-77 0 -124 -52.5t-47 -135.5zM194 -398l245 285h256l232 -285h-261l-95 144h-14l-110 -144h-253z" />
    <glyph glyph-name="Etildebelow" unicode="&#x1e1a;" horiz-adv-x="1154" 
d="M570 -321q-5 4 -18 17t-20.5 19t-20.5 12t-26 6q-63 0 -69 -83h-167q0 93 53.5 165.5t149.5 72.5q55 0 89 -15t71 -48q6 -5 18 -15.5t17.5 -15.5t15 -11t17.5 -8.5t18 -2.5q33 0 48.5 29t16.5 71h168q0 -104 -60.5 -175t-151.5 -71q-41 0 -72 9t-44.5 18t-32.5 26z
M1062 281v-281h-935v1365h935v-281h-580v-270h543v-258h-543v-275h580z" />
    <glyph glyph-name="etildebelow" unicode="&#x1e1b;" 
d="M553 -321q-5 4 -18 17t-20.5 19t-20.5 12t-26 6q-63 0 -69 -83h-167q0 93 53.5 165.5t149.5 72.5q55 0 89 -15t71 -48q6 -5 18 -15.5t17.5 -15.5t15 -11t17.5 -8.5t18 -2.5q33 0 48.5 29t16.5 71h168q0 -104 -60.5 -175t-151.5 -71q-41 0 -72 9t-44.5 18t-32.5 26z
M583 -20q-240 0 -379.5 133.5t-139.5 385.5v74q0 126 38.5 225.5t107 163t160 96.5t199.5 33q230 0 365 -139.5t135 -378.5v-107h-668v-41q0 -86 50.5 -139t129.5 -53q73 0 118 33t50 86h314q-2 -49 -19 -99t-54.5 -99.5t-91 -87.5t-135.5 -62t-180 -24zM401 659h337
q0 84 -45 136t-121 52q-77 0 -124 -52.5t-47 -135.5z" />
    <glyph glyph-name="Ecedillabreve" unicode="&#x1e1c;" horiz-adv-x="1154" 
d="M581 -475q-93 0 -143 16v138q44 -13 108 -13q104 0 104 49q0 29 -25 41t-92 12h-57v121l43 111h-392v1365h935v-281h-580v-270h543v-258h-543v-275h580v-281h-356l-41 -100q83 0 131.5 -47.5t48.5 -125.5q0 -199 -264 -202zM232 1774h189q0 -63 41.5 -99.5t119.5 -36.5
t119.5 36.5t41.5 99.5h185q0 -142 -91.5 -226.5t-254.5 -84.5q-164 0 -257 84t-93 227z" />
    <glyph glyph-name="ecedillabreve" unicode="&#x1e1d;" 
d="M208 1511h189q0 -69 39 -116.5t115 -47.5t115 47.5t39 116.5h185q0 -145 -91 -241.5t-248 -96.5q-156 0 -249.5 96.5t-93.5 241.5zM401 659h337q0 84 -45 136t-121 52q-77 0 -124 -52.5t-47 -135.5zM567 -479q-92 -1 -143 15v138q44 -13 108 -13q104 0 104 49
q0 29 -25 41.5t-92 12.5h-57v120l39 100q-205 21 -321 153t-116 362v74q0 126 38.5 225.5t107 163t160 96.5t199.5 33q230 0 365 -139.5t135 -378.5v-107h-668v-41q0 -86 50.5 -139t129.5 -53q73 0 118 33t50 86h314q-3 -56 -25.5 -111.5t-65 -108.5t-116.5 -92t-168 -53
l-37 -92q83 0 131.5 -47t48.5 -126q0 -102 -69.5 -151t-194.5 -50z" />
    <glyph glyph-name="Fdotaccent" unicode="&#x1e1e;" horiz-adv-x="1105" 
d="M424 1604q0 62 40 103t102 41q63 0 105.5 -41t42.5 -103t-42 -102t-106 -40q-62 0 -102 39.5t-40 102.5zM486 0h-359v1365h929v-285h-570v-304h517v-275h-517v-501z" />
    <glyph glyph-name="fdotaccent" unicode="&#x1e1f;" horiz-adv-x="806" 
d="M273 1698q0 62 40 103t102 41q63 0 105.5 -41t42.5 -103t-42 -102t-106 -40q-62 0 -102 39.5t-40 102.5zM206 0v794h-163v258h163v106q0 166 92.5 236t301.5 70q67 0 147 -8v-231q-20 3 -72 3q-68 0 -101 -23.5t-33 -76.5v-76h202v-258h-193v-794h-344z" />
    <glyph glyph-name="Gmacron" unicode="&#x1e20;" horiz-adv-x="1333" 
d="M1260 908h-346q-10 85 -71 137.5t-158 52.5q-119 0 -185 -85.5t-66 -249.5v-154q0 -342 258 -342q108 0 170 58t62 140v45h-216v247h553v-263q0 -76 -19 -148t-63 -140t-109 -118.5t-164.5 -81t-221.5 -30.5q-158 0 -278 49.5t-191.5 137t-107 199t-35.5 245.5v160
q0 184 70.5 323.5t211 219t334.5 79.5q139 0 250.5 -41.5t179.5 -110.5t104 -153t38 -176zM979 1488h-616v165h616v-165z" />
    <glyph glyph-name="gmacron" unicode="&#x1e21;" horiz-adv-x="1222" 
d="M923 1235h-616v168h616v-168zM586 -154q184 0 184 193v147h-16q-29 -74 -107.5 -121t-190.5 -47q-179 0 -284.5 130t-105.5 371v61q0 240 105 371t285 131q115 0 192.5 -47.5t107.5 -127.5h16v164h345v-1063q0 -91 -32.5 -162t-84.5 -115.5t-124 -73t-145 -40t-153 -11.5
q-124 0 -220 27.5t-153 75.5t-86 107t-30 126h327q10 -47 55 -71.5t115 -24.5zM599 816q-80 0 -127 -63.5t-47 -180.5v-68q0 -117 47.5 -179.5t127.5 -62.5q78 0 124 63.5t46 175.5v71q0 115 -46.5 179.5t-124.5 64.5z" />
    <glyph glyph-name="Hdotaccent" unicode="&#x1e22;" horiz-adv-x="1440" 
d="M1312 0h-358v545h-468v-545h-359v1365h359v-532h468v532h358v-1365zM578 1604q0 62 40 103t102 41q63 0 105.5 -41t42.5 -103t-42 -102t-106 -40q-62 0 -102 39.5t-40 102.5z" />
    <glyph glyph-name="hdotaccent" unicode="&#x1e23;" horiz-adv-x="1237" 
d="M114 0v1437h347v-536h16q11 32 33.5 62.5t57.5 59.5t89.5 46.5t118.5 17.5q166 0 263 -104.5t97 -295.5v-687h-347v602q0 104 -46 151t-115 47q-72 0 -119.5 -51.5t-47.5 -148.5v-600h-347zM146 1676q0 62 40 103t102 41q63 0 105.5 -41t42.5 -103t-42 -102t-106 -40
q-62 0 -102 39.5t-40 102.5z" />
    <glyph glyph-name="Hdotbelow" unicode="&#x1e24;" horiz-adv-x="1440" 
d="M1312 0h-358v545h-468v-545h-359v1365h359v-532h468v532h358v-1365zM571 -253q0 65 43.5 109.5t105.5 44.5q67 0 111.5 -44t44.5 -110q0 -64 -44.5 -107t-111.5 -43q-62 0 -105.5 43t-43.5 107z" />
    <glyph glyph-name="hdotbelow" unicode="&#x1e25;" horiz-adv-x="1237" 
d="M114 0v1437h347v-536h16q11 32 33.5 62.5t57.5 59.5t89.5 46.5t118.5 17.5q166 0 263 -104.5t97 -295.5v-687h-347v602q0 104 -46 151t-115 47q-72 0 -119.5 -51.5t-47.5 -148.5v-600h-347zM467 -253q0 65 43.5 109.5t105.5 44.5q67 0 111.5 -44t44.5 -110
q0 -64 -44.5 -107t-111.5 -43q-62 0 -105.5 43t-43.5 107z" />
    <glyph glyph-name="Hdieresis" unicode="&#x1e26;" horiz-adv-x="1440" 
d="M1312 0h-358v545h-468v-545h-359v1365h359v-532h468v532h358v-1365zM396 1579q0 56 35 89.5t95 33.5q61 0 96 -33.5t35 -89.5t-35 -90t-96 -34q-60 0 -95 34t-35 90zM793 1579q0 56 34.5 89.5t95.5 33.5t96 -33.5t35 -89.5t-35 -90t-96 -34t-95.5 34t-34.5 90z" />
    <glyph glyph-name="hdieresis" unicode="&#x1e27;" horiz-adv-x="1237" 
d="M114 0v1437h347v-536h16q11 32 33.5 62.5t57.5 59.5t89.5 46.5t118.5 17.5q166 0 263 -104.5t97 -295.5v-687h-347v602q0 104 -46 151t-115 47q-72 0 -119.5 -51.5t-47.5 -148.5v-600h-347zM-68 1689q0 62 38 99t104 37t105 -37t39 -99t-38.5 -99t-105.5 -37
q-65 0 -103.5 37t-38.5 99zM369 1689q0 62 38.5 99t104.5 37t104.5 -37t38.5 -99t-38 -99t-105 -37q-66 0 -104.5 37t-38.5 99z" />
    <glyph glyph-name="Hcedilla" unicode="&#x1e28;" horiz-adv-x="1440" 
d="M362 -475q-91 0 -144 16v138q44 -13 108 -13q104 0 104 49q0 29 -25 41t-92 12h-56v121l43 111h-173v1365h359v-532h468v532h358v-1365h-358v545h-468v-545l-41 -100q83 0 131.5 -47.5t48.5 -125.5q0 -102 -69 -151t-194 -51z" />
    <glyph glyph-name="hcedilla" unicode="&#x1e29;" horiz-adv-x="1237" 
d="M335 -479q-93 -1 -144 15v138q44 -13 108 -13q104 0 104 49q0 29 -25 41.5t-92 12.5h-56v120l44 116h-160v1437h347v-536h16q11 32 33.5 62.5t57.5 59.5t89.5 46.5t118.5 17.5q166 0 263 -104.5t97 -295.5v-687h-347v602q0 104 -46 151t-115 47q-72 0 -119.5 -51.5
t-47.5 -148.5v-600l-43 -105q83 0 131.5 -47t48.5 -126q0 -102 -69.5 -151t-193.5 -50z" />
    <glyph glyph-name="Hbrevebelow" unicode="&#x1e2a;" horiz-adv-x="1440" 
d="M373 -118q0 -146 94 -242t253 -96q158 0 249.5 96t91.5 242h-185q0 -69 -40 -116.5t-116 -47.5t-116 47.5t-40 116.5h-191zM1312 0h-358v545h-468v-545h-359v1365h359v-532h468v532h358v-1365z" />
    <glyph glyph-name="hbrevebelow" unicode="&#x1e2b;" horiz-adv-x="1237" 
d="M269 -118q0 -146 94 -242t253 -96q158 0 249.5 96t91.5 242h-185q0 -69 -40 -116.5t-116 -47.5t-116 47.5t-40 116.5h-191zM114 0v1437h347v-536h16q11 32 33.5 62.5t57.5 59.5t89.5 46.5t118.5 17.5q166 0 263 -104.5t97 -295.5v-687h-347v602q0 104 -46 151t-115 47
q-72 0 -119.5 -51.5t-47.5 -148.5v-600h-347z" />
    <glyph glyph-name="Itildebelow" unicode="&#x1e2c;" horiz-adv-x="613" 
d="M486 0h-359v1365h359v-1365zM294 -321q-5 4 -18 17t-20.5 19t-20.5 12t-26 6q-63 0 -69 -83h-167q0 93 53.5 165.5t149.5 72.5q55 0 89 -15t71 -48q6 -5 18 -15.5t17.5 -15.5t15 -11t17.5 -8.5t18 -2.5q33 0 48.5 29t16.5 71h168q0 -104 -60.5 -175t-151.5 -71
q-41 0 -72 9t-44.5 18t-32.5 26z" />
    <glyph glyph-name="itildebelow" unicode="&#x1e2d;" horiz-adv-x="594" 
d="M124 0v1071h346v-1071h-346zM104 1348q0 70 51.5 113t139.5 43q90 0 142 -43t52 -113t-51.5 -113.5t-142.5 -43.5q-88 0 -139.5 43.5t-51.5 113.5zM285 -321q-5 4 -18 17t-20.5 19t-20.5 12t-26 6q-63 0 -69 -83h-167q0 93 53.5 165.5t149.5 72.5q55 0 89 -15t71 -48
q6 -5 18 -15.5t17.5 -15.5t15 -11t17.5 -8.5t18 -2.5q33 0 48.5 29t16.5 71h168q0 -104 -60.5 -175t-151.5 -71q-41 0 -72 9t-44.5 18t-32.5 26z" />
    <glyph glyph-name="Idieresisacute" unicode="&#x1e2e;" horiz-adv-x="613" 
d="M486 0h-359v1365h359v-1365zM107 1751l282 236h349l-332 -236h-299zM-17 1579q0 56 35 89.5t95 33.5q61 0 96 -33.5t35 -89.5t-35 -90t-96 -34q-60 0 -95 34t-35 90zM380 1579q0 56 34.5 89.5t95.5 33.5t96 -33.5t35 -89.5t-35 -90t-96 -34t-95.5 34t-34.5 90z" />
    <glyph glyph-name="idieresisacute" unicode="&#x1e2f;" horiz-adv-x="594" 
d="M463 1542h-295l220 306h346zM130 0v1071h357v-1071h-357zM-51 1323q0 62 38 99t104 37t105 -37t39 -99t-38.5 -99t-105.5 -37q-65 0 -103.5 37t-38.5 99zM386 1323q0 62 38.5 99t104.5 37t104.5 -37t38.5 -99t-38 -99t-105 -37q-66 0 -104.5 37t-38.5 99z" />
    <glyph glyph-name="Kacute" unicode="&#x1e30;" horiz-adv-x="1325" 
d="M458 1498l282 236h349l-332 -236h-299zM1328 1365l-467 -594l483 -771h-420l-325 536l-113 -136v-400h-359v1365h359v-566h16l446 566h380z" />
    <glyph glyph-name="kacute" unicode="&#x1e31;" horiz-adv-x="1185" 
d="M458 352v-352h-348v1437h348v-779h16l283 413h387l-362 -460l388 -611h-402l-254 421zM442 1601h-295l220 306h346z" />
    <glyph glyph-name="Kdotbelow" unicode="&#x1e32;" horiz-adv-x="1325" 
d="M513 -253q0 65 43.5 109.5t105.5 44.5q67 0 111.5 -44t44.5 -110q0 -64 -44.5 -107t-111.5 -43q-62 0 -105.5 43t-43.5 107zM1328 1365l-467 -594l483 -771h-420l-325 536l-113 -136v-400h-359v1365h359v-566h16l446 566h380z" />
    <glyph glyph-name="kdotbelow" unicode="&#x1e33;" horiz-adv-x="1185" 
d="M450 -253q0 65 43.5 109.5t105.5 44.5q67 0 111.5 -44t44.5 -110q0 -64 -44.5 -107t-111.5 -43q-62 0 -105.5 43t-43.5 107zM458 352v-352h-348v1437h348v-779h16l283 413h387l-362 -460l388 -611h-402l-254 421z" />
    <glyph glyph-name="Klinebelow" unicode="&#x1e34;" horiz-adv-x="1325" 
d="M1328 1365l-467 -594l483 -771h-420l-325 536l-113 -136v-400h-359v1365h359v-566h16l446 566h380zM976 -325h-616v168h616v-168z" />
    <glyph glyph-name="klinebelow" unicode="&#x1e35;" horiz-adv-x="1185" 
d="M458 352v-352h-348v1437h348v-779h16l283 413h387l-362 -460l388 -611h-402l-254 421zM913 -325h-616v168h616v-168z" />
    <glyph glyph-name="Ldotbelow" unicode="&#x1e36;" horiz-adv-x="1046" 
d="M380 -253q0 65 43.5 109.5t105.5 44.5q67 0 111.5 -44t44.5 -110q0 -64 -44.5 -107t-111.5 -43q-62 0 -105.5 43t-43.5 107zM1019 297v-297h-892v1365h359v-1068h533z" />
    <glyph glyph-name="ldotbelow" unicode="&#x1e37;" horiz-adv-x="585" 
d="M143 -253q0 65 43.5 109.5t105.5 44.5q67 0 111.5 -44t44.5 -110q0 -64 -44.5 -107t-111.5 -43q-62 0 -105.5 43t-43.5 107zM119 0v1437h347v-1437h-347z" />
    <glyph glyph-name="Ldotbelowmacron" unicode="&#x1e38;" horiz-adv-x="1046" 
d="M380 -253q0 65 43.5 109.5t105.5 44.5q67 0 111.5 -44t44.5 -110q0 -64 -44.5 -107t-111.5 -43q-62 0 -105.5 43t-43.5 107zM1019 297v-297h-892v1365h359v-1068h533zM614 1488h-616v165h616v-165z" />
    <glyph glyph-name="ldotbelowmacron" unicode="&#x1e39;" horiz-adv-x="585" 
d="M143 -253q0 65 43.5 109.5t105.5 44.5q67 0 111.5 -44t44.5 -110q0 -64 -44.5 -107t-111.5 -43q-62 0 -105.5 43t-43.5 107zM119 0v1437h347v-1437h-347zM604 1601h-616v168h616v-168z" />
    <glyph glyph-name="Llinebelow" unicode="&#x1e3a;" horiz-adv-x="1046" 
d="M843 -325h-616v168h616v-168zM1019 297v-297h-892v1365h359v-1068h533z" />
    <glyph glyph-name="llinebelow" unicode="&#x1e3b;" horiz-adv-x="585" 
d="M606 -325h-616v168h616v-168zM119 0v1437h347v-1437h-347z" />
    <glyph glyph-name="Lcircumflexbelow" unicode="&#x1e3c;" horiz-adv-x="1046" 
d="M1019 297v-297h-892v1365h359v-1068h533zM158 -398l245 285h256l232 -285h-261l-95 144h-14l-110 -144h-253z" />
    <glyph glyph-name="lcircumflexbelow" unicode="&#x1e3d;" horiz-adv-x="585" 
d="M119 0v1437h347v-1437h-347zM-79 -398l245 285h256l232 -285h-261l-95 144h-14l-110 -144h-253z" />
    <glyph glyph-name="Macute" unicode="&#x1e3e;" horiz-adv-x="1673" 
d="M638 1498l282 236h349l-332 -236h-299zM446 0h-318v1365h372l332 -721h12l332 721h369v-1365h-322v819h-16l-271 -596h-201l-273 596h-16v-819z" />
    <glyph glyph-name="macute" unicode="&#x1e3f;" horiz-adv-x="1825" 
d="M1070 1235h-295l220 306h346zM110 0v1071h335v-174h18q10 33 31 65t55.5 61t87 46.5t116.5 17.5q117 0 191.5 -52.5t99.5 -141.5h14q26 76 111 135t213 59q159 0 248.5 -96.5t89.5 -255.5v-735h-347v627q0 95 -40.5 137.5t-104.5 42.5q-69 0 -108.5 -46.5t-39.5 -139.5
v-621h-330v623q0 99 -41.5 141.5t-105.5 42.5q-65 0 -106 -44t-41 -140v-623h-346z" />
    <glyph glyph-name="Mdotaccent" unicode="&#x1e40;" horiz-adv-x="1673" 
d="M695 1604q0 62 40 103t102 41q63 0 105.5 -41t42.5 -103t-42 -102t-106 -40q-62 0 -102 39.5t-40 102.5zM446 0h-318v1365h372l332 -721h12l332 721h369v-1365h-322v819h-16l-271 -596h-201l-273 596h-16v-819z" />
    <glyph glyph-name="mdotaccent" unicode="&#x1e41;" horiz-adv-x="1825" 
d="M770 1310q0 62 40 103t102 41q63 0 105.5 -41t42.5 -103t-42 -102t-106 -40q-62 0 -102 39.5t-40 102.5zM110 0v1071h335v-174h18q10 33 31 65t55.5 61t87 46.5t116.5 17.5q117 0 191.5 -52.5t99.5 -141.5h14q26 76 111 135t213 59q159 0 248.5 -96.5t89.5 -255.5v-735
h-347v627q0 95 -40.5 137.5t-104.5 42.5q-69 0 -108.5 -46.5t-39.5 -139.5v-621h-330v623q0 99 -41.5 141.5t-105.5 42.5q-65 0 -106 -44t-41 -140v-623h-346z" />
    <glyph glyph-name="Mdotbelow" unicode="&#x1e42;" horiz-adv-x="1673" 
d="M687 -253q0 65 43.5 109.5t105.5 44.5q67 0 111.5 -44t44.5 -110q0 -64 -44.5 -107t-111.5 -43q-62 0 -105.5 43t-43.5 107zM446 0h-318v1365h372l332 -721h12l332 721h369v-1365h-322v819h-16l-271 -596h-201l-273 596h-16v-819z" />
    <glyph glyph-name="mdotbelow" unicode="&#x1e43;" horiz-adv-x="1825" 
d="M763 -253q0 65 43.5 109.5t105.5 44.5q67 0 111.5 -44t44.5 -110q0 -64 -44.5 -107t-111.5 -43q-62 0 -105.5 43t-43.5 107zM110 0v1071h335v-174h18q10 33 31 65t55.5 61t87 46.5t116.5 17.5q117 0 191.5 -52.5t99.5 -141.5h14q26 76 111 135t213 59q159 0 248.5 -96.5
t89.5 -255.5v-735h-347v627q0 95 -40.5 137.5t-104.5 42.5q-69 0 -108.5 -46.5t-39.5 -139.5v-621h-330v623q0 99 -41.5 141.5t-105.5 42.5q-65 0 -106 -44t-41 -140v-623h-346z" />
    <glyph glyph-name="Ndotaccent" unicode="&#x1e44;" horiz-adv-x="1398" 
d="M557 1604q0 62 40 103t102 41q63 0 105.5 -41t42.5 -103t-42 -102t-106 -40q-62 0 -102 39.5t-40 102.5zM459 0h-332v1365h278l521 -762h14v762h331v-1365h-276l-523 771h-13v-771z" />
    <glyph glyph-name="ndotaccent" unicode="&#x1e45;" horiz-adv-x="1231" 
d="M473 1310q0 62 40 103t102 41q63 0 105.5 -41t42.5 -103t-42 -102t-106 -40q-62 0 -102 39.5t-40 102.5zM110 0v1071h335v-170h17q26 73 105.5 129.5t203.5 56.5q164 0 260 -100t96 -289v-698h-347v606q0 105 -45.5 149.5t-114.5 44.5q-72 0 -118 -50.5t-46 -148.5v-601
h-346z" />
    <glyph glyph-name="Ndotbelow" unicode="&#x1e46;" horiz-adv-x="1398" 
d="M550 -253q0 65 43.5 109.5t105.5 44.5q67 0 111.5 -44t44.5 -110q0 -64 -44.5 -107t-111.5 -43q-62 0 -105.5 43t-43.5 107zM459 0h-332v1365h278l521 -762h14v762h331v-1365h-276l-523 771h-13v-771z" />
    <glyph glyph-name="ndotbelow" unicode="&#x1e47;" horiz-adv-x="1231" 
d="M466 -253q0 65 43.5 109.5t105.5 44.5q67 0 111.5 -44t44.5 -110q0 -64 -44.5 -107t-111.5 -43q-62 0 -105.5 43t-43.5 107zM110 0v1071h335v-170h17q26 73 105.5 129.5t203.5 56.5q164 0 260 -100t96 -289v-698h-347v606q0 105 -45.5 149.5t-114.5 44.5
q-72 0 -118 -50.5t-46 -148.5v-601h-346z" />
    <glyph glyph-name="Nlinebelow" unicode="&#x1e48;" horiz-adv-x="1398" 
d="M1013 -325h-616v168h616v-168zM459 0h-332v1365h278l521 -762h14v762h331v-1365h-276l-523 771h-13v-771z" />
    <glyph glyph-name="nlinebelow" unicode="&#x1e49;" horiz-adv-x="1231" 
d="M929 -325h-616v168h616v-168zM110 0v1071h335v-170h17q26 73 105.5 129.5t203.5 56.5q164 0 260 -100t96 -289v-698h-347v606q0 105 -45.5 149.5t-114.5 44.5q-72 0 -118 -50.5t-46 -148.5v-601h-346z" />
    <glyph glyph-name="Ncircumflexbelow" unicode="&#x1e4a;" horiz-adv-x="1398" 
d="M459 0h-332v1365h278l521 -762h14v762h331v-1365h-276l-523 771h-13v-771zM328 -398l245 285h256l232 -285h-261l-95 144h-14l-110 -144h-253z" />
    <glyph glyph-name="ncircumflexbelow" unicode="&#x1e4b;" horiz-adv-x="1231" 
d="M110 0v1071h335v-170h17q26 73 105.5 129.5t203.5 56.5q164 0 260 -100t96 -289v-698h-347v606q0 105 -45.5 149.5t-114.5 44.5q-72 0 -118 -50.5t-46 -148.5v-601h-346zM244 -398l245 285h256l232 -285h-261l-95 144h-14l-110 -144h-253z" />
    <glyph glyph-name="Otildeacute" unicode="&#x1e4c;" horiz-adv-x="1383" 
d="M492 1751l282 236h349l-332 -236h-299zM438 759v-157q0 -164 68 -251t186 -87q117 0 185 87t68 251v157q0 165 -68 253t-185 88t-185.5 -88t-68.5 -253zM72 604v150q0 294 163.5 464.5t456.5 170.5t456 -171t163 -464v-150q0 -291 -162.5 -459.5t-457.5 -168.5
q-293 0 -456 168.5t-163 459.5zM681 1506q-5 4 -18 16.5t-20 18.5t-20 12t-26 6q-64 0 -68 -81h-167q0 92 53 162.5t148 70.5q55 0 89 -14.5t71 -45.5q6 -5 17.5 -16t17 -15.5t15 -10.5t17.5 -8.5t18 -2.5q33 0 48 28.5t16 69.5h167q0 -103 -60 -172t-150 -69
q-41 0 -71.5 8.5t-44.5 17.5t-32 25z" />
    <glyph glyph-name="otildeacute" unicode="&#x1e4d;" horiz-adv-x="1162" 
d="M739 1542h-295l220 306h346zM549 1248q-47 47 -88 47q-73 0 -78 -94h-188q0 135 61.5 226t181.5 91q51 0 88.5 -18.5t80.5 -59.5q2 -2 13 -12.5t14.5 -13.5t13 -10t15 -9.5t14.5 -5t18 -2.5q37 0 54 32.5t18 80.5h188q0 -131 -71 -224t-184 -93q-37 0 -68.5 11.5
t-46.5 22.5t-36 31zM582 1091q245 0 380.5 -142t135.5 -378v-61q0 -253 -134 -391.5t-382 -138.5q-249 0 -383.5 138.5t-134.5 389.5v61q0 234 137 378t381 144zM582 836q-167 0 -167 -263v-74q0 -50 7 -92.5t24 -83t52 -64t84 -23.5q164 0 164 263v74q0 263 -164 263z" />
    <glyph glyph-name="Otildedieresis" unicode="&#x1e4e;" horiz-adv-x="1383" 
d="M361 1877q0 56 35 89.5t95 33.5q61 0 96 -33.5t35 -89.5t-35 -90t-96 -34q-60 0 -95 34t-35 90zM758 1877q0 56 34.5 89.5t95.5 33.5t96 -33.5t35 -89.5t-35 -90t-96 -34t-95.5 34t-34.5 90zM438 759v-157q0 -164 68 -251t186 -87q117 0 185 87t68 251v157q0 165 -68 253
t-185 88t-185.5 -88t-68.5 -253zM72 604v150q0 294 163.5 464.5t456.5 170.5t456 -171t163 -464v-150q0 -291 -162.5 -459.5t-457.5 -168.5q-293 0 -456 168.5t-163 459.5zM681 1506q-5 4 -18 16.5t-20 18.5t-20 12t-26 6q-64 0 -68 -81h-167q0 92 53 162.5t148 70.5
q55 0 89 -14.5t71 -45.5q6 -5 17.5 -16t17 -15.5t15 -10.5t17.5 -8.5t18 -2.5q33 0 48 28.5t16 69.5h167q0 -103 -60 -172t-150 -69q-41 0 -71.5 8.5t-44.5 17.5t-32 25z" />
    <glyph glyph-name="otildedieresis" unicode="&#x1e4f;" horiz-adv-x="1162" 
d="M549 1248q-47 47 -88 47q-73 0 -78 -94h-188q0 135 61.5 226t181.5 91q51 0 88.5 -18.5t80.5 -59.5q2 -2 13 -12.5t14.5 -13.5t13 -10t15 -9.5t14.5 -5t18 -2.5q37 0 54 32.5t18 80.5h188q0 -131 -71 -224t-184 -93q-37 0 -68.5 11.5t-46.5 22.5t-36 31zM225 1656
q0 62 38 99t104 37t105 -37t39 -99t-38.5 -99t-105.5 -37q-65 0 -103.5 37t-38.5 99zM662 1656q0 62 38.5 99t104.5 37t104.5 -37t38.5 -99t-38 -99t-105 -37q-66 0 -104.5 37t-38.5 99zM582 1091q245 0 380.5 -142t135.5 -378v-61q0 -253 -134 -391.5t-382 -138.5
q-249 0 -383.5 138.5t-134.5 389.5v61q0 234 137 378t381 144zM582 836q-167 0 -167 -263v-74q0 -50 7 -92.5t24 -83t52 -64t84 -23.5q164 0 164 263v74q0 263 -164 263z" />
    <glyph glyph-name="Omacrongrave" unicode="&#x1e50;" horiz-adv-x="1383" 
d="M855 1751h-283l-316 224h330zM438 759v-157q0 -164 68 -251t186 -87q117 0 185 87t68 251v157q0 165 -68 253t-185 88t-185.5 -88t-68.5 -253zM72 604v150q0 294 163.5 464.5t456.5 170.5t456 -171t163 -464v-150q0 -291 -162.5 -459.5t-457.5 -168.5q-293 0 -456 168.5
t-163 459.5zM999 1488h-616v165h616v-165z" />
    <glyph glyph-name="omacrongrave" unicode="&#x1e51;" horiz-adv-x="1162" 
d="M794 1539h-295l-285 301h346zM893 1235h-616v168h616v-168zM582 1091q245 0 380.5 -142t135.5 -378v-61q0 -253 -134 -391.5t-382 -138.5q-249 0 -383.5 138.5t-134.5 389.5v61q0 234 137 378t381 144zM582 836q-167 0 -167 -263v-74q0 -50 7 -92.5t24 -83t52 -64
t84 -23.5q164 0 164 263v74q0 263 -164 263z" />
    <glyph glyph-name="Omacronacute" unicode="&#x1e52;" horiz-adv-x="1383" 
d="M492 1751l282 236h349l-332 -236h-299zM438 759v-157q0 -164 68 -251t186 -87q117 0 185 87t68 251v157q0 165 -68 253t-185 88t-185.5 -88t-68.5 -253zM72 604v150q0 294 163.5 464.5t456.5 170.5t456 -171t163 -464v-150q0 -291 -162.5 -459.5t-457.5 -168.5
q-293 0 -456 168.5t-163 459.5zM999 1488h-616v165h616v-165z" />
    <glyph glyph-name="omacronacute" unicode="&#x1e53;" horiz-adv-x="1162" 
d="M739 1542h-295l220 306h346zM893 1235h-616v168h616v-168zM582 1091q245 0 380.5 -142t135.5 -378v-61q0 -253 -134 -391.5t-382 -138.5q-249 0 -383.5 138.5t-134.5 389.5v61q0 234 137 378t381 144zM582 836q-167 0 -167 -263v-74q0 -50 7 -92.5t24 -83t52 -64
t84 -23.5q164 0 164 263v74q0 263 -164 263z" />
    <glyph glyph-name="Pacute" unicode="&#x1e54;" horiz-adv-x="1242" 
d="M415 1498l282 236h349l-332 -236h-299zM127 1365h592q118 0 211.5 -39t152.5 -106t90 -153t31 -185q0 -100 -31.5 -185.5t-91 -151t-154 -102.5t-213.5 -37h-229v-406h-358v1365zM483 1094v-423h121q114 0 176 51.5t62 159.5q0 102 -56.5 157t-155.5 55h-147z" />
    <glyph glyph-name="pacute" unicode="&#x1e55;" horiz-adv-x="1232" 
d="M776 -11q-113 0 -190.5 47.5t-111.5 128.5h-16v-509h-348v1415h346v-164h16q32 81 111.5 128t193.5 47q180 0 284 -128.5t104 -369.5v-96q0 -241 -104 -370t-285 -129zM634 254q78 0 125 63t47 184v69q0 120 -46.5 183t-127.5 63q-79 0 -126.5 -63.5t-47.5 -178.5v-76
q0 -113 48 -178.5t128 -65.5zM774 1235h-295l220 306h346z" />
    <glyph glyph-name="Pdotaccent" unicode="&#x1e56;" horiz-adv-x="1242" 
d="M127 1365h592q118 0 211.5 -39t152.5 -106t90 -153t31 -185q0 -100 -31.5 -185.5t-91 -151t-154 -102.5t-213.5 -37h-229v-406h-358v1365zM483 1094v-423h121q114 0 176 51.5t62 159.5q0 102 -56.5 157t-155.5 55h-147zM472 1604q0 62 40 103t102 41q63 0 105.5 -41
t42.5 -103t-42 -102t-106 -40q-62 0 -102 39.5t-40 102.5z" />
    <glyph glyph-name="pdotaccent" unicode="&#x1e57;" horiz-adv-x="1232" 
d="M776 -11q-113 0 -190.5 47.5t-111.5 128.5h-16v-509h-348v1415h346v-164h16q32 81 111.5 128t193.5 47q180 0 284 -128.5t104 -369.5v-96q0 -241 -104 -370t-285 -129zM634 254q78 0 125 63t47 184v69q0 120 -46.5 183t-127.5 63q-79 0 -126.5 -63.5t-47.5 -178.5v-76
q0 -113 48 -178.5t128 -65.5zM474 1310q0 62 40 103t102 41q63 0 105.5 -41t42.5 -103t-42 -102t-106 -40q-62 0 -102 39.5t-40 102.5z" />
    <glyph glyph-name="Rdotaccent" unicode="&#x1e58;" horiz-adv-x="1304" 
d="M720 1365q250 0 382.5 -124t132.5 -330q0 -80 -25 -149.5t-64.5 -115.5t-77.5 -75.5t-76 -45.5l271 -525h-395l-228 477h-161v-477h-352v1365h593zM479 725h185q91 0 146.5 47.5t55.5 137.5q0 91 -57 141t-143 50h-187v-376zM500 1604q0 62 40 103t102 41q63 0 105.5 -41
t42.5 -103t-42 -102t-106 -40q-62 0 -102 39.5t-40 102.5z" />
    <glyph glyph-name="rdotaccent" unicode="&#x1e59;" horiz-adv-x="842" 
d="M114 0v1071h347v-161h16q18 67 78.5 121.5t159.5 54.5q73 0 102 -10v-292q-36 14 -123 14q-222 0 -222 -234v-564h-358zM296 1310q0 62 40 103t102 41q63 0 105.5 -41t42.5 -103t-42 -102t-106 -40q-62 0 -102 39.5t-40 102.5z" />
    <glyph glyph-name="Rdotbelow" unicode="&#x1e5a;" horiz-adv-x="1304" 
d="M493 -253q0 65 43.5 109.5t105.5 44.5q67 0 111.5 -44t44.5 -110q0 -64 -44.5 -107t-111.5 -43q-62 0 -105.5 43t-43.5 107zM720 1365q250 0 382.5 -124t132.5 -330q0 -80 -25 -149.5t-64.5 -115.5t-77.5 -75.5t-76 -45.5l271 -525h-395l-228 477h-161v-477h-352v1365
h593zM479 725h185q91 0 146.5 47.5t55.5 137.5q0 91 -57 141t-143 50h-187v-376z" />
    <glyph glyph-name="rdotbelow" unicode="&#x1e5b;" horiz-adv-x="842" 
d="M147 -253q0 65 43.5 109.5t105.5 44.5q67 0 111.5 -44t44.5 -110q0 -64 -44.5 -107t-111.5 -43q-62 0 -105.5 43t-43.5 107zM114 0v1071h347v-161h16q18 67 78.5 121.5t159.5 54.5q73 0 102 -10v-292q-36 14 -123 14q-222 0 -222 -234v-564h-358z" />
    <glyph glyph-name="Rdotbelowmacron" unicode="&#x1e5c;" horiz-adv-x="1304" 
d="M493 -253q0 65 43.5 109.5t105.5 44.5q67 0 111.5 -44t44.5 -110q0 -64 -44.5 -107t-111.5 -43q-62 0 -105.5 43t-43.5 107zM720 1365q250 0 382.5 -124t132.5 -330q0 -80 -25 -149.5t-64.5 -115.5t-77.5 -75.5t-76 -45.5l271 -525h-395l-228 477h-161v-477h-352v1365
h593zM479 725h185q91 0 146.5 47.5t55.5 137.5q0 91 -57 141t-143 50h-187v-376zM950 1488h-616v165h616v-165z" />
    <glyph glyph-name="rdotbelowmacron" unicode="&#x1e5d;" horiz-adv-x="842" 
d="M147 -253q0 65 43.5 109.5t105.5 44.5q67 0 111.5 -44t44.5 -110q0 -64 -44.5 -107t-111.5 -43q-62 0 -105.5 43t-43.5 107zM114 0v1071h347v-161h16q18 67 78.5 121.5t159.5 54.5q73 0 102 -10v-292q-36 14 -123 14q-222 0 -222 -234v-564h-358zM750 1235h-616v168h616
v-168z" />
    <glyph glyph-name="Rlinebelow" unicode="&#x1e5e;" horiz-adv-x="1304" 
d="M720 1365q250 0 382.5 -124t132.5 -330q0 -80 -25 -149.5t-64.5 -115.5t-77.5 -75.5t-76 -45.5l271 -525h-395l-228 477h-161v-477h-352v1365h593zM479 725h185q91 0 146.5 47.5t55.5 137.5q0 91 -57 141t-143 50h-187v-376zM956 -325h-616v168h616v-168z" />
    <glyph glyph-name="rlinebelow" unicode="&#x1e5f;" horiz-adv-x="842" 
d="M114 0v1071h347v-161h16q18 67 78.5 121.5t159.5 54.5q73 0 102 -10v-292q-36 14 -123 14q-222 0 -222 -234v-564h-358zM610 -325h-616v168h616v-168z" />
    <glyph glyph-name="Sdotaccent" unicode="&#x1e60;" horiz-adv-x="1254" 
d="M58 405h339q4 -66 65.5 -113t168.5 -47q103 0 155 39t52 102q0 58 -47.5 89t-151.5 52l-184 37q-370 73 -370 394q0 135 70 233.5t192 148.5t281 50q127 0 230 -34t169 -92t102 -134t36 -162h-328q-3 63 -57.5 109.5t-151.5 46.5q-90 0 -138.5 -37.5t-48.5 -99.5
q0 -97 181 -130l191 -36q377 -68 377 -398q0 -205 -148.5 -326t-421.5 -121q-123 0 -221.5 25.5t-160.5 67t-103.5 98.5t-58.5 115.5t-18 122.5zM484 1604q0 62 40 103t102 41q63 0 105.5 -41t42.5 -103t-42 -102t-106 -40q-62 0 -102 39.5t-40 102.5z" />
    <glyph glyph-name="sdotaccent" unicode="&#x1e61;" horiz-adv-x="1068" 
d="M78 746q0 91 37 159t102 107.5t145.5 59t176.5 19.5q197 0 315.5 -86.5t118.5 -245.5h-300q-6 46 -40.5 78.5t-97.5 32.5q-62 0 -96 -27t-34 -71q0 -19 9 -35t29.5 -27.5t39 -20t51.5 -15t52.5 -10t56.5 -9t50 -7.5q154 -25 235.5 -98.5t81.5 -207.5q0 -169 -127 -265.5
t-362 -96.5q-222 0 -344 92t-122 240h336q4 -47 44 -78t103 -31q69 0 103.5 27.5t34.5 72.5q0 18 -7 32t-23 24.5t-32 17.5t-43.5 13.5t-48 10.5t-55 9.5t-54.5 9.5q-74 14 -131 37.5t-105 61t-73.5 95t-25.5 132.5zM392 1310q0 62 40 103t102 41q63 0 105.5 -41t42.5 -103
t-42 -102t-106 -40q-62 0 -102 39.5t-40 102.5z" />
    <glyph glyph-name="Sdotbelow" unicode="&#x1e62;" horiz-adv-x="1254" 
d="M472 -253q0 65 43.5 109.5t105.5 44.5q67 0 111.5 -44t44.5 -110q0 -64 -44.5 -107t-111.5 -43q-62 0 -105.5 43t-43.5 107zM58 405h339q4 -66 65.5 -113t168.5 -47q103 0 155 39t52 102q0 58 -47.5 89t-151.5 52l-184 37q-370 73 -370 394q0 135 70 233.5t192 148.5
t281 50q127 0 230 -34t169 -92t102 -134t36 -162h-328q-3 63 -57.5 109.5t-151.5 46.5q-90 0 -138.5 -37.5t-48.5 -99.5q0 -97 181 -130l191 -36q377 -68 377 -398q0 -205 -148.5 -326t-421.5 -121q-123 0 -221.5 25.5t-160.5 67t-103.5 98.5t-58.5 115.5t-18 122.5z" />
    <glyph glyph-name="sdotbelow" unicode="&#x1e63;" horiz-adv-x="1068" 
d="M385 -253q0 65 43.5 109.5t105.5 44.5q67 0 111.5 -44t44.5 -110q0 -64 -44.5 -107t-111.5 -43q-62 0 -105.5 43t-43.5 107zM78 746q0 91 37 159t102 107.5t145.5 59t176.5 19.5q197 0 315.5 -86.5t118.5 -245.5h-300q-6 46 -40.5 78.5t-97.5 32.5q-62 0 -96 -27t-34 -71
q0 -19 9 -35t29.5 -27.5t39 -20t51.5 -15t52.5 -10t56.5 -9t50 -7.5q154 -25 235.5 -98.5t81.5 -207.5q0 -169 -127 -265.5t-362 -96.5q-222 0 -344 92t-122 240h336q4 -47 44 -78t103 -31q69 0 103.5 27.5t34.5 72.5q0 18 -7 32t-23 24.5t-32 17.5t-43.5 13.5t-48 10.5
t-55 9.5t-54.5 9.5q-74 14 -131 37.5t-105 61t-73.5 95t-25.5 132.5z" />
    <glyph glyph-name="Sacutedotaccent" unicode="&#x1e64;" horiz-adv-x="1254" 
d="M196 1647q0 59 38.5 98.5t94.5 39.5q59 0 99 -39.5t40 -98.5q0 -57 -40 -95t-99 -38q-56 0 -94.5 38t-38.5 95zM590 1529l282 236h349l-332 -236h-299zM58 405h339q4 -66 65.5 -113t168.5 -47q103 0 155 39t52 102q0 58 -47.5 89t-151.5 52l-184 37q-370 73 -370 394
q0 135 70 233.5t192 148.5t281 50q127 0 230 -34t169 -92t102 -134t36 -162h-328q-3 63 -57.5 109.5t-151.5 46.5q-90 0 -138.5 -37.5t-48.5 -99.5q0 -97 181 -130l191 -36q377 -68 377 -398q0 -205 -148.5 -326t-421.5 -121q-123 0 -221.5 25.5t-160.5 67t-103.5 98.5
t-58.5 115.5t-18 122.5z" />
    <glyph glyph-name="sacutedotaccent" unicode="&#x1e65;" horiz-adv-x="1068" 
d="M136 1414q0 65 42.5 107.5t103.5 42.5q66 0 109.5 -42.5t43.5 -107.5q0 -63 -44 -105t-109 -42q-61 0 -103.5 42t-42.5 105zM78 746q0 91 37 159t102 107.5t145.5 59t176.5 19.5q197 0 315.5 -86.5t118.5 -245.5h-300q-6 46 -40.5 78.5t-97.5 32.5q-62 0 -96 -27t-34 -71
q0 -19 9 -35t29.5 -27.5t39 -20t51.5 -15t52.5 -10t56.5 -9t50 -7.5q154 -25 235.5 -98.5t81.5 -207.5q0 -169 -127 -265.5t-362 -96.5q-222 0 -344 92t-122 240h336q4 -47 44 -78t103 -31q69 0 103.5 27.5t34.5 72.5q0 18 -7 32t-23 24.5t-32 17.5t-43.5 13.5t-48 10.5
t-55 9.5t-54.5 9.5q-74 14 -131 37.5t-105 61t-73.5 95t-25.5 132.5zM761 1235h-295l220 306h346z" />
    <glyph glyph-name="Scarondotaccent" unicode="&#x1e66;" horiz-adv-x="1254" 
d="M489 1888q0 62 38.5 102t99.5 40t102 -40.5t41 -101.5q0 -60 -41 -98.5t-102 -38.5t-99.5 38t-38.5 99zM58 405h339q4 -66 65.5 -113t168.5 -47q103 0 155 39t52 102q0 58 -47.5 89t-151.5 52l-184 37q-370 73 -370 394q0 135 70 233.5t192 148.5t281 50q127 0 230 -34
t169 -92t102 -134t36 -162h-328q-3 63 -57.5 109.5t-151.5 46.5q-90 0 -138.5 -37.5t-48.5 -99.5q0 -97 181 -130l191 -36q377 -68 377 -398q0 -205 -148.5 -326t-421.5 -121q-123 0 -221.5 25.5t-160.5 67t-103.5 98.5t-58.5 115.5t-18 122.5zM245 1734h252l122 -114h19
l115 114h253l-252 -244h-246z" />
    <glyph glyph-name="scarondotaccent" unicode="&#x1e67;" horiz-adv-x="1068" 
d="M375 1735q0 65 43 108t104 43q65 0 109 -43t44 -108q0 -63 -44 -105t-109 -42q-61 0 -104 42.5t-43 104.5zM162 1515h252l111 -167h13l95 167h261l-232 -316h-256zM78 746q0 91 37 159t102 107.5t145.5 59t176.5 19.5q197 0 315.5 -86.5t118.5 -245.5h-300
q-6 46 -40.5 78.5t-97.5 32.5q-62 0 -96 -27t-34 -71q0 -19 9 -35t29.5 -27.5t39 -20t51.5 -15t52.5 -10t56.5 -9t50 -7.5q154 -25 235.5 -98.5t81.5 -207.5q0 -169 -127 -265.5t-362 -96.5q-222 0 -344 92t-122 240h336q4 -47 44 -78t103 -31q69 0 103.5 27.5t34.5 72.5
q0 18 -7 32t-23 24.5t-32 17.5t-43.5 13.5t-48 10.5t-55 9.5t-54.5 9.5q-74 14 -131 37.5t-105 61t-73.5 95t-25.5 132.5z" />
    <glyph glyph-name="Sdotbelowdotaccent" unicode="&#x1e68;" horiz-adv-x="1254" 
d="M472 -253q0 65 43.5 109.5t105.5 44.5q67 0 111.5 -44t44.5 -110q0 -64 -44.5 -107t-111.5 -43q-62 0 -105.5 43t-43.5 107zM58 405h339q4 -66 65.5 -113t168.5 -47q103 0 155 39t52 102q0 58 -47.5 89t-151.5 52l-184 37q-370 73 -370 394q0 135 70 233.5t192 148.5
t281 50q127 0 230 -34t169 -92t102 -134t36 -162h-328q-3 63 -57.5 109.5t-151.5 46.5q-90 0 -138.5 -37.5t-48.5 -99.5q0 -97 181 -130l191 -36q377 -68 377 -398q0 -205 -148.5 -326t-421.5 -121q-123 0 -221.5 25.5t-160.5 67t-103.5 98.5t-58.5 115.5t-18 122.5z
M484 1604q0 62 40 103t102 41q63 0 105.5 -41t42.5 -103t-42 -102t-106 -40q-62 0 -102 39.5t-40 102.5z" />
    <glyph glyph-name="sdotbelowdotaccent" unicode="&#x1e69;" horiz-adv-x="1068" 
d="M385 -253q0 65 43.5 109.5t105.5 44.5q67 0 111.5 -44t44.5 -110q0 -64 -44.5 -107t-111.5 -43q-62 0 -105.5 43t-43.5 107zM78 746q0 91 37 159t102 107.5t145.5 59t176.5 19.5q197 0 315.5 -86.5t118.5 -245.5h-300q-6 46 -40.5 78.5t-97.5 32.5q-62 0 -96 -27t-34 -71
q0 -19 9 -35t29.5 -27.5t39 -20t51.5 -15t52.5 -10t56.5 -9t50 -7.5q154 -25 235.5 -98.5t81.5 -207.5q0 -169 -127 -265.5t-362 -96.5q-222 0 -344 92t-122 240h336q4 -47 44 -78t103 -31q69 0 103.5 27.5t34.5 72.5q0 18 -7 32t-23 24.5t-32 17.5t-43.5 13.5t-48 10.5
t-55 9.5t-54.5 9.5q-74 14 -131 37.5t-105 61t-73.5 95t-25.5 132.5zM392 1310q0 62 40 103t102 41q63 0 105.5 -41t42.5 -103t-42 -102t-106 -40q-62 0 -102 39.5t-40 102.5z" />
    <glyph glyph-name="Tdotaccent" unicode="&#x1e6a;" horiz-adv-x="1107" 
d="M411 1604q0 62 40 103t102 41q63 0 105.5 -41t42.5 -103t-42 -102t-106 -40q-62 0 -102 39.5t-40 102.5zM732 0h-358v1074h-364v291h1086v-291h-364v-1074z" />
    <glyph glyph-name="tdotaccent" unicode="&#x1e6b;" horiz-adv-x="818" 
d="M236 1552q0 62 40 103t102 41q63 0 105.5 -41t42.5 -103t-42 -102t-106 -40q-62 0 -102 39.5t-40 102.5zM205 1052v264h334v-264h203v-258h-203v-421q0 -64 34 -92t105 -28q44 0 66 2v-248q-56 -9 -150 -9q-211 0 -304.5 70.5t-93.5 237.5v488h-159v258h168z" />
    <glyph glyph-name="Tdotbelow" unicode="&#x1e6c;" horiz-adv-x="1107" 
d="M404 -253q0 65 43.5 109.5t105.5 44.5q67 0 111.5 -44t44.5 -110q0 -64 -44.5 -107t-111.5 -43q-62 0 -105.5 43t-43.5 107zM732 0h-358v1074h-364v291h1086v-291h-364v-1074z" />
    <glyph glyph-name="tdotbelow" unicode="&#x1e6d;" horiz-adv-x="818" 
d="M321 -253q0 65 43.5 109.5t105.5 44.5q67 0 111.5 -44t44.5 -110q0 -64 -44.5 -107t-111.5 -43q-62 0 -105.5 43t-43.5 107zM205 1052v264h334v-264h203v-258h-203v-421q0 -64 34 -92t105 -28q44 0 66 2v-248q-56 -9 -150 -9q-211 0 -304.5 70.5t-93.5 237.5v488h-159
v258h168z" />
    <glyph glyph-name="Tlinebelow" unicode="&#x1e6e;" horiz-adv-x="1107" 
d="M867 -325h-616v168h616v-168zM732 0h-358v1074h-364v291h1086v-291h-364v-1074z" />
    <glyph glyph-name="tlinebelow" unicode="&#x1e6f;" horiz-adv-x="818" 
d="M784 -325h-616v168h616v-168zM205 1052v264h334v-264h203v-258h-203v-421q0 -64 34 -92t105 -28q44 0 66 2v-248q-56 -9 -150 -9q-211 0 -304.5 70.5t-93.5 237.5v488h-159v258h168z" />
    <glyph glyph-name="Tcircumflexbelow" unicode="&#x1e70;" horiz-adv-x="1107" 
d="M732 0h-358v1074h-364v291h1086v-291h-364v-1074zM182 -398l245 285h256l232 -285h-261l-95 144h-14l-110 -144h-253z" />
    <glyph glyph-name="tcircumflexbelow" unicode="&#x1e71;" horiz-adv-x="818" 
d="M205 1052v264h334v-264h203v-258h-203v-421q0 -64 34 -92t105 -28q44 0 66 2v-248q-56 -9 -150 -9q-211 0 -304.5 70.5t-93.5 237.5v488h-159v258h168zM99 -398l245 285h256l232 -285h-261l-95 144h-14l-110 -144h-253z" />
    <glyph glyph-name="Udieresisbelow" unicode="&#x1e72;" horiz-adv-x="1389" 
d="M470 1365v-847q0 -121 60.5 -183t163.5 -62t163.5 62.5t60.5 182.5v847h359v-893q0 -226 -157.5 -361t-425.5 -135q-267 0 -424.5 135.5t-157.5 361.5v892h358zM335 -305q0 62 38 99t104 37t105 -37t39 -99t-38.5 -99t-105.5 -37q-65 0 -103.5 37t-38.5 99zM772 -305
q0 62 38.5 99t104.5 37t104.5 -37t38.5 -99t-38 -99t-105 -37q-66 0 -104.5 37t-38.5 99z" />
    <glyph glyph-name="udieresisbelow" unicode="&#x1e73;" horiz-adv-x="1229" 
d="M1120 1071v-1071h-336v170h-17q-26 -73 -104.5 -129t-204.5 -56q-165 0 -259.5 98t-94.5 287v701h347v-612q0 -55 14 -94.5t38.5 -59t50.5 -27.5t56 -8q69 0 116 49t47 143v609h347zM255 -305q0 62 38 99t104 37t105 -37t39 -99t-38.5 -99t-105.5 -37q-65 0 -103.5 37
t-38.5 99zM692 -305q0 62 38.5 99t104.5 37t104.5 -37t38.5 -99t-38 -99t-105 -37q-66 0 -104.5 37t-38.5 99z" />
    <glyph glyph-name="Utildebelow" unicode="&#x1e74;" horiz-adv-x="1389" 
d="M682 -321q-5 4 -18 17t-20.5 19t-20.5 12t-26 6q-63 0 -69 -83h-167q0 93 53.5 165.5t149.5 72.5q55 0 89 -15t71 -48q6 -5 18 -15.5t17.5 -15.5t15 -11t17.5 -8.5t18 -2.5q33 0 48.5 29t16.5 71h168q0 -104 -60.5 -175t-151.5 -71q-41 0 -72 9t-44.5 18t-32.5 26z
M470 1365v-847q0 -121 60.5 -183t163.5 -62t163.5 62.5t60.5 182.5v847h359v-893q0 -226 -157.5 -361t-425.5 -135q-267 0 -424.5 135.5t-157.5 361.5v892h358z" />
    <glyph glyph-name="utildebelow" unicode="&#x1e75;" horiz-adv-x="1229" 
d="M602 -321q-5 4 -18 17t-20.5 19t-20.5 12t-26 6q-63 0 -69 -83h-167q0 93 53.5 165.5t149.5 72.5q55 0 89 -15t71 -48q6 -5 18 -15.5t17.5 -15.5t15 -11t17.5 -8.5t18 -2.5q33 0 48.5 29t16.5 71h168q0 -104 -60.5 -175t-151.5 -71q-41 0 -72 9t-44.5 18t-32.5 26z
M1120 1071v-1071h-336v170h-17q-26 -73 -104.5 -129t-204.5 -56q-165 0 -259.5 98t-94.5 287v701h347v-612q0 -55 14 -94.5t38.5 -59t50.5 -27.5t56 -8q69 0 116 49t47 143v609h347z" />
    <glyph glyph-name="Ucircumflexbelow" unicode="&#x1e76;" horiz-adv-x="1389" 
d="M470 1365v-847q0 -121 60.5 -183t163.5 -62t163.5 62.5t60.5 182.5v847h359v-893q0 -226 -157.5 -361t-425.5 -135q-267 0 -424.5 135.5t-157.5 361.5v892h358zM323 -398l245 285h256l232 -285h-261l-95 144h-14l-110 -144h-253z" />
    <glyph glyph-name="ucircumflexbelow" unicode="&#x1e77;" horiz-adv-x="1229" 
d="M1120 1071v-1071h-336v170h-17q-26 -73 -104.5 -129t-204.5 -56q-165 0 -259.5 98t-94.5 287v701h347v-612q0 -55 14 -94.5t38.5 -59t50.5 -27.5t56 -8q69 0 116 49t47 143v609h347zM243 -398l245 285h256l232 -285h-261l-95 144h-14l-110 -144h-253z" />
    <glyph glyph-name="Utildeacute" unicode="&#x1e78;" horiz-adv-x="1389" 
d="M495 1751l282 236h349l-332 -236h-299zM470 1365v-847q0 -121 60.5 -183t163.5 -62t163.5 62.5t60.5 182.5v847h359v-893q0 -226 -157.5 -361t-425.5 -135q-267 0 -424.5 135.5t-157.5 361.5v892h358zM684 1506q-5 4 -18 16.5t-20 18.5t-20 12t-26 6q-64 0 -68 -81h-167
q0 92 53 162.5t148 70.5q55 0 89 -14.5t71 -45.5q6 -5 17.5 -16t17 -15.5t15 -10.5t17.5 -8.5t18 -2.5q33 0 48 28.5t16 69.5h167q0 -103 -60 -172t-150 -69q-41 0 -71.5 8.5t-44.5 17.5t-32 25z" />
    <glyph glyph-name="utildeacute" unicode="&#x1e79;" horiz-adv-x="1229" 
d="M1120 1071v-1071h-336v170h-17q-26 -73 -104.5 -129t-204.5 -56q-165 0 -259.5 98t-94.5 287v701h347v-612q0 -55 14 -94.5t38.5 -59t50.5 -27.5t56 -8q69 0 116 49t47 143v609h347zM772 1542h-295l220 306h346zM582 1248q-47 47 -88 47q-73 0 -78 -94h-188
q0 135 61.5 226t181.5 91q51 0 88.5 -18.5t80.5 -59.5q2 -2 13 -12.5t14.5 -13.5t13 -10t15 -9.5t14.5 -5t18 -2.5q37 0 54 32.5t18 80.5h188q0 -131 -71 -224t-184 -93q-37 0 -68.5 11.5t-46.5 22.5t-36 31z" />
    <glyph glyph-name="Umacrondieresis" unicode="&#x1e7a;" horiz-adv-x="1389" 
d="M364 1877q0 56 35 89.5t95 33.5q61 0 96 -33.5t35 -89.5t-35 -90t-96 -34q-60 0 -95 34t-35 90zM761 1877q0 56 34.5 89.5t95.5 33.5t96 -33.5t35 -89.5t-35 -90t-96 -34t-95.5 34t-34.5 90zM470 1365v-847q0 -121 60.5 -183t163.5 -62t163.5 62.5t60.5 182.5v847h359
v-893q0 -226 -157.5 -361t-425.5 -135q-267 0 -424.5 135.5t-157.5 361.5v892h358zM1002 1488h-616v165h616v-165z" />
    <glyph glyph-name="umacrondieresis" unicode="&#x1e7b;" horiz-adv-x="1229" 
d="M1120 1071v-1071h-336v170h-17q-26 -73 -104.5 -129t-204.5 -56q-165 0 -259.5 98t-94.5 287v701h347v-612q0 -55 14 -94.5t38.5 -59t50.5 -27.5t56 -8q69 0 116 49t47 143v609h347zM926 1235h-616v168h616v-168zM258 1656q0 62 38 99t104 37t105 -37t39 -99t-38.5 -99
t-105.5 -37q-65 0 -103.5 37t-38.5 99zM695 1656q0 62 38.5 99t104.5 37t104.5 -37t38.5 -99t-38 -99t-105 -37q-66 0 -104.5 37t-38.5 99z" />
    <glyph glyph-name="Vtilde" unicode="&#x1e7c;" horiz-adv-x="1300" 
d="M640 1506q-5 4 -18 16.5t-20 18.5t-20 12t-26 6q-64 0 -68 -81h-167q0 92 53 162.5t148 70.5q55 0 89 -14.5t71 -45.5q6 -5 17.5 -16t17 -15.5t15 -10.5t17.5 -8.5t18 -2.5q33 0 48 28.5t16 69.5h167q0 -103 -60 -172t-150 -69q-41 0 -71.5 8.5t-44.5 17.5t-32 25zM882 0
h-458l-424 1365h418l238 -986h16l233 986h394z" />
    <glyph glyph-name="vtilde" unicode="&#x1e7d;" horiz-adv-x="1104" 
d="M520 1248q-47 47 -88 47q-73 0 -78 -94h-188q0 135 61.5 226t181.5 91q51 0 88.5 -18.5t80.5 -59.5q2 -2 13 -12.5t14.5 -13.5t13 -10t15 -9.5t14.5 -5t18 -2.5q37 0 54 32.5t18 80.5h188q0 -131 -71 -224t-184 -93q-37 0 -68.5 11.5t-46.5 22.5t-36 31zM338 0l-335 1071
h375l160 -766h14l186 766h363l-362 -1071h-401z" />
    <glyph glyph-name="Vdotbelow" unicode="&#x1e7e;" horiz-adv-x="1300" 
d="M501 -253q0 65 43.5 109.5t105.5 44.5q67 0 111.5 -44t44.5 -110q0 -64 -44.5 -107t-111.5 -43q-62 0 -105.5 43t-43.5 107zM882 0h-458l-424 1365h418l238 -986h16l233 986h394z" />
    <glyph glyph-name="vdotbelow" unicode="&#x1e7f;" horiz-adv-x="1104" 
d="M403 -253q0 65 43.5 109.5t105.5 44.5q67 0 111.5 -44t44.5 -110q0 -64 -44.5 -107t-111.5 -43q-62 0 -105.5 43t-43.5 107zM338 0l-335 1071h375l160 -766h14l186 766h363l-362 -1071h-401z" />
    <glyph glyph-name="Wgrave" unicode="&#x1e80;" horiz-adv-x="1817" 
d="M1072 1498h-283l-316 224h330zM681 0h-335l-346 1364h375l161 -887h15l215 887h287l214 -887h17l158 887h375l-345 -1364h-336l-221 831h-12z" />
    <glyph glyph-name="wgrave" unicode="&#x1e81;" horiz-adv-x="1659" 
d="M1042 1240h-295l-285 301h346zM1647 1071l-271 -1071h-367l-172 705h-12l-170 -705h-370l-273 1071h355l124 -740h14l165 740h325l168 -740h14l125 740h345z" />
    <glyph glyph-name="Wacute" unicode="&#x1e82;" horiz-adv-x="1817" 
d="M709 1498l282 236h349l-332 -236h-299zM681 0h-335l-346 1364h375l161 -887h15l215 887h287l214 -887h17l158 887h375l-345 -1364h-336l-221 831h-12z" />
    <glyph glyph-name="wacute" unicode="&#x1e83;" horiz-adv-x="1659" 
d="M987 1235h-295l220 306h346zM1647 1071l-271 -1071h-367l-172 705h-12l-170 -705h-370l-273 1071h355l124 -740h14l165 740h325l168 -740h14l125 740h345z" />
    <glyph glyph-name="Wdieresis" unicode="&#x1e84;" horiz-adv-x="1817" 
d="M585 1579q0 56 35 89.5t95 33.5q61 0 96 -33.5t35 -89.5t-35 -90t-96 -34q-60 0 -95 34t-35 90zM982 1579q0 56 34.5 89.5t95.5 33.5t96 -33.5t35 -89.5t-35 -90t-96 -34t-95.5 34t-34.5 90zM681 0h-335l-346 1364h375l161 -887h15l215 887h287l214 -887h17l158 887h375
l-345 -1364h-336l-221 831h-12z" />
    <glyph glyph-name="wdieresis" unicode="&#x1e85;" horiz-adv-x="1659" 
d="M473 1323q0 62 38 99t104 37t105 -37t39 -99t-38.5 -99t-105.5 -37q-65 0 -103.5 37t-38.5 99zM910 1323q0 62 38.5 99t104.5 37t104.5 -37t38.5 -99t-38 -99t-105 -37q-66 0 -104.5 37t-38.5 99zM1647 1071l-271 -1071h-367l-172 705h-12l-170 -705h-370l-273 1071h355
l124 -740h14l165 740h325l168 -740h14l125 740h345z" />
    <glyph glyph-name="Wdotaccent" unicode="&#x1e86;" horiz-adv-x="1817" 
d="M766 1604q0 62 40 103t102 41q63 0 105.5 -41t42.5 -103t-42 -102t-106 -40q-62 0 -102 39.5t-40 102.5zM681 0h-335l-346 1364h375l161 -887h15l215 887h287l214 -887h17l158 887h375l-345 -1364h-336l-221 831h-12z" />
    <glyph glyph-name="wdotaccent" unicode="&#x1e87;" horiz-adv-x="1659" 
d="M687 1310q0 62 40 103t102 41q63 0 105.5 -41t42.5 -103t-42 -102t-106 -40q-62 0 -102 39.5t-40 102.5zM1647 1071l-271 -1071h-367l-172 705h-12l-170 -705h-370l-273 1071h355l124 -740h14l165 740h325l168 -740h14l125 740h345z" />
    <glyph glyph-name="Wdotbelow" unicode="&#x1e88;" horiz-adv-x="1817" 
d="M759 -253q0 65 43.5 109.5t105.5 44.5q67 0 111.5 -44t44.5 -110q0 -64 -44.5 -107t-111.5 -43q-62 0 -105.5 43t-43.5 107zM681 0h-335l-346 1364h375l161 -887h15l215 887h287l214 -887h17l158 887h375l-345 -1364h-336l-221 831h-12z" />
    <glyph glyph-name="wdotbelow" unicode="&#x1e89;" horiz-adv-x="1659" 
d="M680 -253q0 65 43.5 109.5t105.5 44.5q67 0 111.5 -44t44.5 -110q0 -64 -44.5 -107t-111.5 -43q-62 0 -105.5 43t-43.5 107zM1647 1071l-271 -1071h-367l-172 705h-12l-170 -705h-370l-273 1071h355l124 -740h14l165 740h325l168 -740h14l125 740h345z" />
    <glyph glyph-name="Xdotaccent" unicode="&#x1e8a;" horiz-adv-x="1242" 
d="M1272 1365l-417 -681l414 -684h-402l-244 431h-14l-243 -431h-381l401 687l-401 678h419l227 -445h15l226 445h400zM479 1604q0 62 40 103t102 41q63 0 105.5 -41t42.5 -103t-42 -102t-106 -40q-62 0 -102 39.5t-40 102.5z" />
    <glyph glyph-name="xdotaccent" unicode="&#x1e8b;" horiz-adv-x="1144" 
d="M736 0l-166 327h-14l-165 -327h-360l310 535l-328 536h396l163 -324h14l166 324h377l-340 -532l325 -539h-378zM430 1310q0 62 40 103t102 41q63 0 105.5 -41t42.5 -103t-42 -102t-106 -40q-62 0 -102 39.5t-40 102.5z" />
    <glyph glyph-name="Xdieresis" unicode="&#x1e8c;" horiz-adv-x="1242" 
d="M1272 1365l-417 -681l414 -684h-402l-244 431h-14l-243 -431h-381l401 687l-401 678h419l227 -445h15l226 445h400zM297 1579q0 56 35 89.5t95 33.5q61 0 96 -33.5t35 -89.5t-35 -90t-96 -34q-60 0 -95 34t-35 90zM694 1579q0 56 34.5 89.5t95.5 33.5t96 -33.5t35 -89.5
t-35 -90t-96 -34t-95.5 34t-34.5 90z" />
    <glyph glyph-name="xdieresis" unicode="&#x1e8d;" horiz-adv-x="1144" 
d="M736 0l-166 327h-14l-165 -327h-360l310 535l-328 536h396l163 -324h14l166 324h377l-340 -532l325 -539h-378zM216 1323q0 62 38 99t104 37t105 -37t39 -99t-38.5 -99t-105.5 -37q-65 0 -103.5 37t-38.5 99zM653 1323q0 62 38.5 99t104.5 37t104.5 -37t38.5 -99t-38 -99
t-105 -37q-66 0 -104.5 37t-38.5 99z" />
    <glyph glyph-name="Ydotaccent" unicode="&#x1e8e;" horiz-adv-x="1210" 
d="M784 0h-358v455l-457 910h391l245 -554h12l246 554h378l-457 -900v-465zM463 1604q0 62 40 103t102 41q63 0 105.5 -41t42.5 -103t-42 -102t-106 -40q-62 0 -102 39.5t-40 102.5z" />
    <glyph glyph-name="ydotaccent" unicode="&#x1e8f;" horiz-adv-x="1137" 
d="M1125 1071q-317 -991 -324 -1009l-27 -72q-33 -88 -72.5 -150t-99.5 -112.5t-146 -75.5t-201 -25q-110 0 -180 14v236q30 -8 95 -8q97 0 136.5 29.5t45.5 90.5l4 20l-348 1062h382l173 -794h13l181 794h368zM426 1310q0 62 40 103t102 41q63 0 105.5 -41t42.5 -103
t-42 -102t-106 -40q-62 0 -102 39.5t-40 102.5z" />
    <glyph glyph-name="Zcircumflex" unicode="&#x1e90;" horiz-adv-x="1204" 
d="M85 0v227l595 839v16h-585v283h1014v-227l-594 -838v-17h616v-283h-1046zM222 1485l262 248h247l252 -248h-253l-116 118h-19l-121 -118h-252z" />
    <glyph glyph-name="zcircumflex" unicode="&#x1e91;" horiz-adv-x="1029" 
d="M135 1233l244 316h256l232 -316h-261l-95 167h-13l-111 -167h-252zM76 0v180l459 617v15h-446v259h861v-206l-429 -590v-14h448v-261h-893z" />
    <glyph glyph-name="Zdotbelow" unicode="&#x1e92;" horiz-adv-x="1204" 
d="M453 -253q0 65 43.5 109.5t105.5 44.5q67 0 111.5 -44t44.5 -110q0 -64 -44.5 -107t-111.5 -43q-62 0 -105.5 43t-43.5 107zM85 0v227l595 839v16h-585v283h1014v-227l-594 -838v-17h616v-283h-1046z" />
    <glyph glyph-name="zdotbelow" unicode="&#x1e93;" horiz-adv-x="1029" 
d="M365 -253q0 65 43.5 109.5t105.5 44.5q67 0 111.5 -44t44.5 -110q0 -64 -44.5 -107t-111.5 -43q-62 0 -105.5 43t-43.5 107zM76 0v180l459 617v15h-446v259h861v-206l-429 -590v-14h448v-261h-893z" />
    <glyph glyph-name="Zlinebelow" unicode="&#x1e94;" horiz-adv-x="1204" 
d="M85 0v227l595 839v16h-585v283h1014v-227l-594 -838v-17h616v-283h-1046zM916 -325h-616v168h616v-168z" />
    <glyph glyph-name="zlinebelow" unicode="&#x1e95;" horiz-adv-x="1029" 
d="M828 -325h-616v168h616v-168zM76 0v180l459 617v15h-446v259h861v-206l-429 -590v-14h448v-261h-893z" />
    <glyph glyph-name="hlinebelow" unicode="&#x1e96;" horiz-adv-x="1237" 
d="M114 0v1437h347v-536h16q11 32 33.5 62.5t57.5 59.5t89.5 46.5t118.5 17.5q166 0 263 -104.5t97 -295.5v-687h-347v602q0 104 -46 151t-115 47q-72 0 -119.5 -51.5t-47.5 -148.5v-600h-347zM930 -325h-616v168h616v-168z" />
    <glyph glyph-name="tdieresis" unicode="&#x1e97;" horiz-adv-x="818" 
d="M205 1052v264h334v-264h203v-258h-203v-421q0 -64 34 -92t105 -28q44 0 66 2v-248q-56 -9 -150 -9q-211 0 -304.5 70.5t-93.5 237.5v488h-159v258h168zM22 1565q0 62 38 99t104 37t105 -37t39 -99t-38.5 -99t-105.5 -37q-65 0 -103.5 37t-38.5 99zM459 1565q0 62 38.5 99
t104.5 37t104.5 -37t38.5 -99t-38 -99t-105 -37q-66 0 -104.5 37t-38.5 99z" />
    <glyph glyph-name="wring" unicode="&#x1e98;" horiz-adv-x="1659" 
d="M1647 1071l-271 -1071h-367l-172 705h-12l-170 -705h-370l-273 1071h355l124 -740h14l165 740h325l168 -740h14l125 740h345zM825 1176q-102 0 -169.5 63.5t-67.5 163.5t67.5 163t169.5 63t169 -63t67 -163t-67 -163.5t-169 -63.5zM737 1402q0 -38 24.5 -62.5t62.5 -24.5
t63 25t25 62t-25 62t-63 25t-62.5 -24.5t-24.5 -62.5z" />
    <glyph glyph-name="yring" unicode="&#x1e99;" horiz-adv-x="1137" 
d="M1125 1071q-317 -991 -324 -1009l-27 -72q-33 -88 -72.5 -150t-99.5 -112.5t-146 -75.5t-201 -25q-110 0 -180 14v236q30 -8 95 -8q97 0 136.5 29.5t45.5 90.5l4 20l-348 1062h382l173 -794h13l181 794h368zM564 1176q-102 0 -169.5 63.5t-67.5 163.5t67.5 163t169.5 63
t169 -63t67 -163t-67 -163.5t-169 -63.5zM476 1402q0 -38 25 -62.5t62 -24.5q38 0 63 25t25 62t-25 62t-63 25q-37 0 -62 -24.5t-25 -62.5z" />
    <glyph glyph-name="Adotbelow" unicode="&#x1ea0;" horiz-adv-x="1315" 
d="M361 0h-356l432 1365h443l429 -1365h-382l-79 296h-407zM655 1053h-17l-133 -500h281zM508 -253q0 65 43.5 109.5t105.5 44.5q67 0 111.5 -44t44.5 -110q0 -64 -44.5 -107t-111.5 -43q-62 0 -105.5 43t-43.5 107z" />
    <glyph glyph-name="adotbelow" unicode="&#x1ea1;" 
d="M689 130q-27 -61 -96 -103t-179 -42q-159 0 -256.5 86.5t-97.5 237.5q0 150 100.5 236.5t285.5 86.5h243v91q0 55 -34.5 84.5t-96.5 29.5t-97 -30.5t-38 -82.5h-324q2 55 16 104.5t47.5 98t84.5 83t132 56t184 21.5t185.5 -20.5t147 -63.5t99.5 -117t35 -175v-711h-324
v130h-17zM537 221q62 0 107 36.5t45 92.5v100h-144q-67 0 -105.5 -30.5t-38.5 -81.5q0 -55 40 -86t96 -31zM416 -253q0 65 43.5 109.5t105.5 44.5q67 0 111.5 -44t44.5 -110q0 -64 -44.5 -107t-111.5 -43q-62 0 -105.5 43t-43.5 107z" />
    <glyph glyph-name="Ahookabove" unicode="&#x1ea2;" horiz-adv-x="1315" 
d="M361 0h-356l432 1365h443l429 -1365h-382l-79 296h-407zM655 1053h-17l-133 -500h281zM488 1681v130q42 21 119 21q110 0 172 -50t62 -141q0 -39 -12.5 -71t-36.5 -55t-46 -38t-52 -30l-96 105q73 26 73 76q0 63 -97 63q-42 0 -86 -10z" />
    <glyph glyph-name="ahookabove" unicode="&#x1ea3;" 
d="M689 130q-27 -61 -96 -103t-179 -42q-159 0 -256.5 86.5t-97.5 237.5q0 150 100.5 236.5t285.5 86.5h243v91q0 55 -34.5 84.5t-96.5 29.5t-97 -30.5t-38 -82.5h-324q2 55 16 104.5t47.5 98t84.5 83t132 56t184 21.5t185.5 -20.5t147 -63.5t99.5 -117t35 -175v-711h-324
v130h-17zM537 221q62 0 107 36.5t45 92.5v100h-144q-67 0 -105.5 -30.5t-38.5 -81.5q0 -55 40 -86t96 -31zM413 1429v134q43 18 113 18q108 0 169.5 -50.5t61.5 -137.5q0 -79 -43 -127t-125 -89l-85 102q44 25 63.5 46t19.5 48q0 31 -24.5 50t-68.5 19q-47 0 -81 -13z" />
    <glyph glyph-name="Acircumflexacute" unicode="&#x1ea4;" horiz-adv-x="1315" 
d="M361 0h-356l432 1365h443l429 -1365h-382l-79 296h-407zM655 1053h-17l-133 -500h281zM278 1493l252 248h247l262 -248h-252l-122 118h-18l-116 -118h-253zM877 1738l165 167h236l-286 -249z" />
    <glyph glyph-name="acircumflexacute" unicode="&#x1ea5;" 
d="M689 130q-27 -61 -96 -103t-179 -42q-159 0 -256.5 86.5t-97.5 237.5q0 150 100.5 236.5t285.5 86.5h243v91q0 55 -34.5 84.5t-96.5 29.5t-97 -30.5t-38 -82.5h-324q2 55 16 104.5t47.5 98t84.5 83t132 56t184 21.5t185.5 -20.5t147 -63.5t99.5 -117t35 -175v-711h-324
v130h-17zM537 221q62 0 107 36.5t45 92.5v100h-144q-67 0 -105.5 -30.5t-38.5 -81.5q0 -55 40 -86t96 -31zM186 1199l252 248h247l262 -248h-252l-122 118h-18l-116 -118h-253zM785 1444l165 167h236l-286 -249z" />
    <glyph glyph-name="Acircumflexgrave" unicode="&#x1ea6;" horiz-adv-x="1315" 
d="M361 0h-356l432 1365h443l429 -1365h-382l-79 296h-407zM655 1053h-17l-133 -500h281zM1218 1657h-207l-250 248h230zM1039 1493h-252l-122 118h-18l-116 -118h-253l252 248h247z" />
    <glyph glyph-name="acircumflexgrave" unicode="&#x1ea7;" 
d="M689 130q-27 -61 -96 -103t-179 -42q-159 0 -256.5 86.5t-97.5 237.5q0 150 100.5 236.5t285.5 86.5h243v91q0 55 -34.5 84.5t-96.5 29.5t-97 -30.5t-38 -82.5h-324q2 55 16 104.5t47.5 98t84.5 83t132 56t184 21.5t185.5 -20.5t147 -63.5t99.5 -117t35 -175v-711h-324
v130h-17zM537 221q62 0 107 36.5t45 92.5v100h-144q-67 0 -105.5 -30.5t-38.5 -81.5q0 -55 40 -86t96 -31zM1126 1363h-207l-250 248h230zM947 1199h-252l-122 118h-18l-116 -118h-253l252 248h247z" />
    <glyph glyph-name="Acircumflexhookabove" unicode="&#x1ea8;" horiz-adv-x="1315" 
d="M361 0h-356l432 1365h443l429 -1365h-382l-79 296h-407zM655 1053h-17l-133 -500h281zM278 1490l252 244h246l263 -244h-252l-122 115h-19l-115 -115h-253zM814 2006q48 10 107 10q110 0 175.5 -44.5t65.5 -131.5q0 -115 -144 -203l-95 98q57 39 57 78q0 65 -91 65
q-44 0 -75 -6v134z" />
    <glyph glyph-name="acircumflexhookabove" unicode="&#x1ea9;" 
d="M689 130q-27 -61 -96 -103t-179 -42q-159 0 -256.5 86.5t-97.5 237.5q0 150 100.5 236.5t285.5 86.5h243v91q0 55 -34.5 84.5t-96.5 29.5t-97 -30.5t-38 -82.5h-324q2 55 16 104.5t47.5 98t84.5 83t132 56t184 21.5t185.5 -20.5t147 -63.5t99.5 -117t35 -175v-711h-324
v130h-17zM537 221q62 0 107 36.5t45 92.5v100h-144q-67 0 -105.5 -30.5t-38.5 -81.5q0 -55 40 -86t96 -31zM186 1196l252 244h246l263 -244h-252l-122 115h-19l-115 -115h-253zM722 1712q48 10 107 10q110 0 175.5 -44.5t65.5 -131.5q0 -115 -144 -203l-95 98q57 39 57 78
q0 65 -91 65q-44 0 -75 -6v134z" />
    <glyph glyph-name="Acircumflextilde" unicode="&#x1eaa;" horiz-adv-x="1315" 
d="M361 0h-356l432 1365h443l429 -1365h-382l-79 296h-407zM655 1053h-17l-133 -500h281zM279 1475l252 226h246l263 -226h-252l-122 110h-19l-115 -110h-253zM492 1763h-168q0 90 53.5 161t149.5 71q56 0 90 -14.5t71 -45.5q5 -4 15.5 -13t15 -13t13 -10t14.5 -9t14 -5
t16 -2q33 0 48.5 28.5t15.5 68.5h169q0 -103 -60.5 -171.5t-151.5 -68.5q-42 0 -73 8.5t-44.5 17t-32.5 25.5q-4 4 -17.5 17t-21 18.5t-20.5 11.5t-27 6q-65 0 -69 -81z" />
    </font>
</defs>
</svg>
