<?xml version="1.0" standalone="no"?>
<!DOCTYPE svg PUBLIC "-//W3C//DTD SVG 1.1//EN" "http://www.w3.org/Graphics/SVG/1.1/DTD/svg11.dtd" >
<svg xmlns="http://www.w3.org/2000/svg" xmlns:xlink="http://www.w3.org/1999/xlink" version="1.1">
<metadata>
Created by FontForge 20170731 at Wed Jan 14 10:07:49 2015
 By Aleksey,,,
(c) 2014 Apple Inc. All rights reserved.
</metadata>
<defs>
<font id="SanFranciscoText-BoldG1" horiz-adv-x="1237" >
  <font-face 
    font-family="San Francisco Text Bold G1"
    font-weight="700"
    font-stretch="normal"
    units-per-em="2048"
    panose-1="0 0 0 0 0 0 0 0 0 0"
    ascent="1638"
    descent="-410"
    x-height="1067"
    cap-height="1365"
    bbox="-680 -520 2104 2014"
    underline-thickness="102"
    underline-position="-263"
    unicode-range="U+000D-FB02"
  />
<missing-glyph horiz-adv-x="1293" 
d="M120 0v1365h1053v-1365h-1053zM501 313q0 -47 33.5 -77t86.5 -30q55 0 88.5 29.5t33.5 77.5q0 49 -33.5 78.5t-88.5 29.5q-54 0 -87 -30t-33 -78zM339 888h169q1 59 34.5 94.5t90.5 35.5q54 0 87 -30t33 -80q0 -38 -20.5 -65.5t-82.5 -72.5q-69 -48 -96 -100t-22 -121
l1 -18h166v15q0 48 19 76t88 77q73 52 103 102t30 116q0 113 -81 181.5t-215 68.5q-143 0 -225.5 -76t-78.5 -203z" />
    <glyph glyph-name=".notdef" horiz-adv-x="1293" 
d="M120 0v1365h1053v-1365h-1053zM501 313q0 -47 33.5 -77t86.5 -30q55 0 88.5 29.5t33.5 77.5q0 49 -33.5 78.5t-88.5 29.5q-54 0 -87 -30t-33 -78zM339 888h169q1 59 34.5 94.5t90.5 35.5q54 0 87 -30t33 -80q0 -38 -20.5 -65.5t-82.5 -72.5q-69 -48 -96 -100t-22 -121
l1 -18h166v15q0 48 19 76t88 77q73 52 103 102t30 116q0 113 -81 181.5t-215 68.5q-143 0 -225.5 -76t-78.5 -203z" />
    <glyph glyph-name=".null" horiz-adv-x="0" 
 />
    <glyph glyph-name="nonmarkingreturn" horiz-adv-x="682" 
 />
    <glyph glyph-name="CR" unicode="&#xd;" horiz-adv-x="0" 
 />
    <glyph glyph-name="space" unicode=" " horiz-adv-x="454" 
 />
    <glyph glyph-name="exclam" unicode="!" horiz-adv-x="616" 
d="M119 142q0 75 51.5 120t136.5 45q87 0 138.5 -45t51.5 -120q0 -73 -51.5 -118t-138.5 -45q-85 0 -136.5 45t-51.5 118zM147 1365h325l-35 -913h-256z" />
    <glyph glyph-name="quotedbl" unicode="&#x22;" horiz-adv-x="1045" 
d="M105 1365h322l-38 -584h-247zM618 1365h322l-38 -584h-246z" />
    <glyph glyph-name="numbersign" unicode="#" horiz-adv-x="1289" 
d="M1201 801h-205l-46 -221h196l-41 -224h-198l-72 -356h-222l72 356h-209l-73 -356h-222l72 356h-193l41 224h194l47 221h-187l40 224h190l68 340h224l-70 -340h210l68 340h222l-68 -340h202zM548 829l-57 -276h254l55 276h-252z" />
    <glyph glyph-name="dollar" unicode="$" 
d="M377 1011q0 -111 141 -157l33 -9v328q-77 -9 -125.5 -51.5t-48.5 -110.5zM894 385q0 64 -40.5 106t-129.5 66q-4 1 -11.5 2.5t-11.5 2.5v-352q86 7 139.5 54t53.5 121zM703 -129h-157l1 125q-117 9 -206.5 46.5t-141 95t-77.5 123t-27 137.5h247q5 -73 59 -124.5
t150 -63.5v380l-85 19q-71 16 -130.5 45.5t-108.5 75t-76.5 112t-27.5 148.5q0 116 57.5 203t151.5 133.5t216 57.5v129h157v-130q185 -20 299 -127.5t117 -264.5h-242q-2 65 -49.5 116.5t-128.5 64.5v-357l84 -19q361 -76 361 -384q0 -176 -119.5 -285t-323.5 -129v-127z
" />
    <glyph glyph-name="percent" unicode="%" horiz-adv-x="1437" 
d="M206 1042v-12q0 -86 31 -131.5t83 -45.5t83 45.5t31 130.5v12q0 86 -30 130.5t-83 44.5q-54 0 -84.5 -44.5t-30.5 -129.5zM22 1020v32q0 145 81.5 237.5t218.5 92.5t217 -92t80 -239v-32q0 -140 -80.5 -236.5t-220.5 -96.5q-136 0 -216 94t-80 240zM1007 338v-12
q0 -86 31 -131.5t83 -45.5t83 45.5t31 130.5v12q0 86 -30 130.5t-83 44.5q-54 0 -84.5 -44.5t-30.5 -129.5zM823 316v32q0 145 81.5 237.5t218.5 92.5t217 -92t80 -239v-32q0 -140 -80.5 -236.5t-220.5 -96.5q-136 0 -216 94t-80 240zM294 -1h-216l563 725l491 641h216
l-552 -709z" />
    <glyph glyph-name="ampersand" unicode="&#x26;" horiz-adv-x="1414" 
d="M1083 0l-102 106q-76 -63 -185.5 -98.5t-232.5 -35.5q-218 0 -348 104t-130 278q0 122 64.5 206.5t184.5 152.5q25 15 63 34q-84 88 -126 158t-42 152q0 140 112.5 229.5t277.5 89.5q75 0 142.5 -20t122 -57.5t86.5 -98.5t32 -137q0 -63 -22 -118t-63.5 -98.5
t-85.5 -75.5t-102 -63l250 -258q46 80 46 236v79h237v-99q0 -248 -115 -399l255 -267h-319zM492 573q-140 -74 -140 -195q0 -89 69 -140t171 -51q67 0 133 22.5t108 64.5l-304 317q-18 -7 -37 -18zM597 845q82 41 125 86.5t43 108.5q0 64 -41 102.5t-104 38.5
q-64 0 -105 -39.5t-41 -100.5q0 -45 27 -88t96 -108z" />
    <glyph glyph-name="quotesingle" unicode="'" horiz-adv-x="547" 
d="M113 1365h322l-38 -584h-247z" />
    <glyph glyph-name="parenleft" unicode="(" horiz-adv-x="726" 
d="M389 1363h275q-35 -40 -71.5 -104t-75.5 -161.5t-64 -236.5t-25 -293q0 -104 10 -199.5t32.5 -178.5t41 -142t52.5 -128t49 -97t48 -85h-281q-46 56 -85.5 125t-80.5 170.5t-65 239.5t-24 293q0 127 17 238t40.5 187.5t63 152.5t69 119t74.5 100z" />
    <glyph glyph-name="parenright" unicode=")" horiz-adv-x="726" 
d="M61 1363h273q45 -57 75 -100t70 -119t63.5 -152.5t40.5 -187.5t17 -238q0 -155 -24 -293t-65.5 -239.5t-81.5 -170.5t-86 -125h-280q38 66 58.5 103.5t59 125.5t59.5 166t38.5 194.5t17.5 240.5q0 153 -24.5 292.5t-64 237t-75.5 161.5t-71 104z" />
    <glyph glyph-name="asterisk" unicode="*" horiz-adv-x="984" 
d="M592 579h-205l42 302l-243 -190l-102 185l287 113l-287 112l102 185l245 -194l-44 306h205l-44 -306l245 194l102 -185l-287 -112l287 -113l-102 -185l-243 190z" />
    <glyph glyph-name="plus" unicode="+" 
d="M749 422v-410h-257v410h-388v267h388v400h257v-400h390v-267h-390z" />
    <glyph glyph-name="comma" unicode="," horiz-adv-x="520" 
d="M256 -334h-231l105 638h293z" />
    <glyph glyph-name="hyphen" unicode="-" horiz-adv-x="840" 
d="M735 421h-630v278h630v-278z" />
    <glyph glyph-name="period" unicode="." horiz-adv-x="628" 
d="M126 164q0 85 53.5 136t133.5 51q81 0 135 -51.5t54 -135.5t-53.5 -134.5t-135.5 -50.5q-80 0 -133.5 50.5t-53.5 134.5z" />
    <glyph glyph-name="slash" unicode="/" horiz-adv-x="737" 
d="M278 -283h-266l454 1720h266z" />
    <glyph glyph-name="zero" unicode="0" horiz-adv-x="1294" 
d="M421 715v-64q0 -203 61 -310t165 -107q105 0 166 107t61 310v64q0 203 -61 309.5t-166 106.5q-104 0 -165 -106t-61 -310zM116 650v66q0 304 142.5 489t392.5 185t389 -183.5t139 -490.5v-66q0 -142 -34 -263.5t-99.5 -214t-168.5 -145t-232 -52.5q-167 0 -287.5 86
t-181 237.5t-60.5 351.5z" />
    <glyph glyph-name="one" unicode="1" horiz-adv-x="983" 
d="M749 0h-302v1067h-15l-308 -215v286l323 227h302v-1365z" />
    <glyph glyph-name="two" unicode="2" horiz-adv-x="1206" 
d="M407 941h-287v17q0 81 29.5 156t86 138t151 100.5t213.5 37.5q216 0 348.5 -110t132.5 -278q0 -29 -4.5 -57.5t-8.5 -50.5t-18 -50.5t-20 -44t-27.5 -44.5t-27.5 -38t-33.5 -40t-31.5 -35.5t-36.5 -38t-33.5 -34.5l-290 -298v-14h553v-257h-967v199l494 510q35 36 55 59
t45.5 58.5t37.5 71t12 72.5q0 71 -53 119t-133 48q-85 0 -136 -51.5t-51 -124.5v-20z" />
    <glyph glyph-name="three" unicode="3" horiz-adv-x="1233" 
d="M449 583v239h146q87 0 142 47t54 118q0 71 -55.5 116t-139.5 45q-86 0 -141.5 -47.5t-58.5 -112.5h-282q6 182 135.5 291.5t356.5 110.5q218 0 348.5 -100t132.5 -260q1 -69 -24 -127t-64.5 -94t-82 -57t-81.5 -27v-17q50 -5 99 -26.5t93 -59t71.5 -100t28.5 -138.5
q1 -130 -73.5 -225t-193 -140t-262.5 -45q-119 0 -215.5 33t-158.5 89t-96 129t-36 155h278q4 -69 68 -114t159 -45q103 0 166 50.5t62 130.5q0 78 -61 129.5t-162 51.5h-153z" />
    <glyph glyph-name="four" unicode="4" horiz-adv-x="1273" 
d="M597 1365h436v-875h163v-254h-163v-236h-285v236h-659v258q44 84 92 170.5t107.5 187t96.5 162.5t111 184.5t101 166.5zM358 490h390v642h-15q-249 -393 -375 -636v-6z" />
    <glyph glyph-name="five" unicode="5" horiz-adv-x="1255" 
d="M131 369h277q13 -66 77 -105.5t148 -39.5q96 0 163.5 63t67.5 166q0 97 -66.5 159t-163.5 62q-77 0 -129.5 -34.5t-77.5 -77.5h-268l55 804h863v-254h-622l-27 -318h14q27 42 99 79.5t176 37.5q89 0 167.5 -29.5t139.5 -84.5t96.5 -141t35.5 -192q0 -223 -145.5 -356
t-381.5 -133q-219 0 -356 112t-142 282z" />
    <glyph glyph-name="six" unicode="6" horiz-adv-x="1287" 
d="M1149 1028h-287q-16 47 -65 79t-124 32q-85 0 -148 -59.5t-92.5 -155.5t-25.5 -210h18q35 78 116.5 129.5t206.5 51.5q83 0 159 -28t136.5 -81t97 -138t36.5 -190q0 -225 -143.5 -354t-371.5 -129q-142 0 -257 57t-187 176q-103 170 -103 450q0 358 148.5 544t412.5 186
q111 0 202 -32.5t147.5 -86t88.5 -115.5t35 -126zM440 445q0 -101 63 -161.5t160 -60.5q98 0 159.5 58.5t61.5 163.5q0 102 -63.5 160.5t-157.5 58.5q-99 0 -161 -61.5t-62 -157.5z" />
    <glyph glyph-name="seven" unicode="7" horiz-adv-x="1155" 
d="M99 1365h967v-262l-552 -1103h-320l567 1095v13h-662v257z" />
    <glyph glyph-name="eight" unicode="8" horiz-adv-x="1300" 
d="M650 197q104 0 173 57t69 147q0 91 -69 148.5t-173 57.5t-173 -57.5t-69 -148.5q0 -90 69 -147t173 -57zM650 813q87 0 143.5 49.5t56.5 127.5t-56.5 127t-143.5 49q-86 0 -143 -49.5t-57 -126.5t57 -127t143 -50zM648 -25q-248 0 -396 111t-148 291q0 63 18 116.5t47 90
t68 64.5t78 43.5t80 22.5v14q-104 32 -170 106.5t-66 195.5q0 157 135 258.5t356 101.5t356 -101.5t135 -258.5q0 -122 -66.5 -196.5t-169.5 -105.5v-14q52 -9 100 -32.5t92.5 -62.5t71 -102t26.5 -140q0 -179 -149.5 -290.5t-397.5 -111.5z" />
    <glyph glyph-name="nine" unicode="9" horiz-adv-x="1286" 
d="M142 327h286q11 -43 62.5 -74t123.5 -31q94 0 158 57.5t91 151.5t22 216h-17q-29 -75 -111 -126t-205 -51q-87 0 -165.5 28.5t-141 82t-99 140t-36.5 193.5q0 145 67.5 254t184.5 165.5t266 56.5q91 0 170 -22.5t148.5 -74.5t119 -130.5t78 -197t28.5 -268.5
q0 -353 -143 -537t-419 -184q-89 0 -165 20.5t-129 55t-91.5 80.5t-58.5 95t-24 100zM844 922q0 104 -61.5 164.5t-161.5 60.5q-95 0 -156.5 -61t-61.5 -163q0 -103 62 -162t159 -59q94 0 157 59t63 161z" />
    <glyph glyph-name="colon" unicode=":" horiz-adv-x="647" 
d="M135 812q0 85 53.5 136t133.5 51q82 0 135.5 -51.5t53.5 -135.5t-53.5 -134.5t-135.5 -50.5q-80 0 -133.5 50.5t-53.5 134.5zM135 164q0 85 53.5 136t133.5 51q82 0 135.5 -51.5t53.5 -135.5t-53.5 -134.5t-135.5 -50.5q-80 0 -133.5 50.5t-53.5 134.5z" />
    <glyph glyph-name="semicolon" unicode=";" horiz-adv-x="644" 
d="M140 813q0 86 53.5 137t133.5 51q81 0 135 -51.5t54 -136.5q0 -83 -54 -133.5t-135 -50.5q-80 0 -133.5 50.5t-53.5 133.5zM309 -409h-239l105 655h303z" />
    <glyph glyph-name="less" unicode="&#x3c;" 
d="M144 439v191l944 511v-309l-597 -285v-14l597 -283v-302z" />
    <glyph glyph-name="equal" unicode="=" 
d="M1101 204h-964v245h964v-245zM1101 656h-964v247h964v-247z" />
    <glyph glyph-name="greater" unicode="&#x3e;" 
d="M1089 630v-191l-945 -491v302l599 283v14l-599 285v309z" />
    <glyph glyph-name="question" unicode="?" horiz-adv-x="1034" 
d="M301 142q0 75 51.5 120t136.5 45q87 0 138.5 -45t51.5 -120q0 -73 -51.5 -118t-138.5 -45q-85 0 -136.5 45t-51.5 118zM59 975q-4 107 34 189.5t105.5 130t149.5 71.5t175 24q125 0 225.5 -40t164 -127t63.5 -208q0 -51 -12.5 -95.5t-29.5 -74.5t-47 -60.5t-52.5 -48
t-58.5 -41.5q-100 -67 -131.5 -105.5t-31.5 -113.5v-48h-264l-2 47q-9 111 36 191t138 142q57 37 84.5 58.5t49 56t21.5 76.5q0 73 -49.5 110.5t-120.5 37.5q-83 0 -128.5 -48t-47.5 -124h-271z" />
    <glyph glyph-name="at" unicode="@" horiz-adv-x="1769" 
d="M1307 133q-93 0 -163.5 39t-88.5 109h-10q-18 -69 -81.5 -108t-148.5 -39q-132 0 -208 87.5t-76 240.5v120q0 146 76.5 233t208.5 87q90 0 144 -42.5t71 -100.5h7v129h198v-501q0 -45 27.5 -70.5t70.5 -25.5q63 0 108 81t45 237v27q0 110 -40 207t-112.5 170t-181 115
t-238.5 42h-9q-272 0 -439.5 -170.5t-167.5 -453.5v-36q0 -125 32 -227t87.5 -172t131 -117.5t161.5 -69.5t181 -22h9q182 0 279 41v-166q-89 -40 -290 -40h-10q-164 0 -303.5 50.5t-242.5 145.5t-161.5 241.5t-58.5 329.5v48q0 234 100.5 413t280.5 275.5t411 96.5h8
q176 0 320.5 -56.5t238 -153t144 -221t50.5 -262.5v-48q0 -205 -97 -334t-263 -129zM744 495q0 -184 138 -184q134 0 134 171v84q0 84 -38.5 124t-97.5 40q-63 0 -99.5 -45.5t-36.5 -136.5v-53z" />
    <glyph glyph-name="A" unicode="A" horiz-adv-x="1324" 
d="M336 0h-304l448 1365h366l445 -1365h-326l-96 318h-436zM660 1074h-14l-154 -522h320z" />
    <glyph glyph-name="B" unicode="B" horiz-adv-x="1318" 
d="M161 0v1365h590q187 0 300 -89t113 -246q0 -126 -67.5 -202t-172.5 -96v-15q130 -10 218.5 -95.5t88.5 -234.5q0 -122 -64.5 -211t-170.5 -132.5t-240 -43.5h-595zM463 1135v-326h167q117 0 176 43.5t59 121.5q0 76 -51.5 118.5t-137.5 42.5h-213zM463 599v-369h187
q130 0 200.5 45.5t70.5 137.5q0 88 -60 137t-169 49h-229z" />
    <glyph glyph-name="C" unicode="C" horiz-adv-x="1338" 
d="M417 757v-154q0 -177 73.5 -268.5t203.5 -91.5q120 0 186.5 71t66.5 180h291v-39q0 -99 -37.5 -186t-106.5 -152.5t-173.5 -103.5t-231.5 -38q-275 0 -428.5 166.5t-153.5 462.5v154q0 294 154.5 463t428.5 169q249 0 398.5 -139.5t149.5 -351.5v-37h-291
q0 109 -67.5 184.5t-187.5 75.5q-128 0 -201.5 -94t-73.5 -271z" />
    <glyph glyph-name="D" unicode="D" horiz-adv-x="1388" 
d="M161 1365h520q162 0 281.5 -48.5t191.5 -139.5t106.5 -212.5t34.5 -276.5t-34.5 -278.5t-106.5 -216.5t-191.5 -143t-281.5 -50h-520v1365zM466 1108v-851h169q84 0 145 20t108 66.5t70.5 130.5t23.5 206q0 428 -347 428h-169z" />
    <glyph glyph-name="E" unicode="E" horiz-adv-x="1185" 
d="M1063 257v-257h-901v1365h901v-257h-599v-302h562v-237h-562v-312h599z" />
    <glyph glyph-name="F" unicode="F" horiz-adv-x="1129" 
d="M466 0h-305v1365h893v-260h-588v-335h536v-252h-536v-518z" />
    <glyph glyph-name="G" unicode="G" horiz-adv-x="1363" 
d="M1255 916h-296q-12 95 -83 151.5t-176 56.5q-131 0 -208.5 -90.5t-77.5 -266.5v-162q0 -166 70 -265.5t220 -99.5q119 0 191.5 63.5t72.5 154.5v61h-255v229h544v-266q0 -73 -18 -142.5t-60.5 -136.5t-105 -117t-159.5 -80.5t-216 -30.5q-151 0 -266 48.5t-185 134.5
t-105 198.5t-35 247.5v166q0 282 158.5 451t437.5 169q132 0 238.5 -40.5t172.5 -108t102 -151t39 -174.5z" />
    <glyph glyph-name="H" unicode="H" horiz-adv-x="1464" 
d="M1303 0h-305v561h-532v-561h-305v1365h305v-541h532v541h305v-1365z" />
    <glyph glyph-name="I" unicode="I" horiz-adv-x="624" 
d="M465 0h-305v1365h305v-1365z" />
    <glyph glyph-name="J" unicode="J" horiz-adv-x="1135" 
d="M44 431h293q1 -79 48.5 -125t121.5 -46q177 0 177 195v910h305v-908q0 -238 -127.5 -360t-351.5 -122q-115 0 -205.5 37.5t-146.5 101.5t-85 145t-29 172z" />
    <glyph glyph-name="K" unicode="K" horiz-adv-x="1325" 
d="M1295 1365l-479 -591l498 -774h-362l-360 560l-129 -145v-415h-305v1365h305v-584h14l489 584h329z" />
    <glyph glyph-name="L" unicode="L" horiz-adv-x="1077" 
d="M1028 270v-270h-866v1365h305v-1095h561z" />
    <glyph glyph-name="M" unicode="M" horiz-adv-x="1692" 
d="M434 0h-272v1365h313l366 -788h11l366 788h311v-1365h-275v856h-14l-302 -654h-186l-304 654h-14v-856z" />
    <glyph glyph-name="N" unicode="N" horiz-adv-x="1437" 
d="M448 0h-285v1365h246l568 -820h12v820h286v-1365h-245l-570 827h-12v-827z" />
    <glyph glyph-name="O" unicode="O" horiz-adv-x="1409" 
d="M416 762v-165q0 -175 78 -266.5t210 -91.5t210 91.5t78 266.5v165q0 176 -78.5 270t-209.5 94t-209.5 -94t-78.5 -270zM106 598v160q0 293 159 462.5t440 169.5t439.5 -170t158.5 -462v-160q0 -290 -159 -456.5t-441 -166.5q-281 0 -439 166.5t-158 456.5z" />
    <glyph glyph-name="P" unicode="P" horiz-adv-x="1259" 
d="M160 1365h564q148 0 256.5 -65t161.5 -170.5t53 -236.5q0 -133 -54 -237t-163 -166.5t-258 -62.5h-256v-427h-304v1365zM463 1116v-446h146q134 0 205 52.5t71 170.5q0 107 -60.5 165t-167.5 58h-194z" />
    <glyph glyph-name="Q" unicode="Q" horiz-adv-x="1413" 
d="M109 603v156q0 289 162 460t436 171q275 0 437 -171.5t162 -459.5v-156q0 -310 -187 -480l168 -249h-295l-91 129q-90 -28 -194 -28q-274 0 -436 170.5t-162 457.5zM408 761v-164q0 -183 79.5 -280.5t210.5 -101.5q36 0 67 11l-126 185h270l39 -45q59 91 59 231v164
q0 177 -82.5 272t-217.5 95q-134 0 -216.5 -95t-82.5 -272z" />
    <glyph glyph-name="R" unicode="R" horiz-adv-x="1322" 
d="M724 1365q240 0 366.5 -122.5t126.5 -322.5q0 -80 -24 -148.5t-63 -114.5t-79 -76t-80 -46l273 -535h-339l-235 490h-210v-490h-300v1365h564zM460 719h216q106 0 166 51t60 147q0 99 -62 152t-161 53h-219v-403z" />
    <glyph glyph-name="S" unicode="S" horiz-adv-x="1269" 
d="M81 398h291q6 -73 75 -124t189 -51q115 0 176 43.5t61 115.5q0 63 -49 98t-156 58l-201 42q-161 34 -258.5 127.5t-97.5 259.5q0 132 69.5 229.5t187 146t266.5 48.5q232 0 374.5 -118t144.5 -297h-283q-6 71 -67 121t-170 50q-101 0 -159 -42t-58 -112q0 -108 184 -145
l204 -41q63 -12 115 -30.5t101 -50t82 -73.5t53 -103t20 -136q0 -202 -147.5 -320.5t-405.5 -118.5q-118 0 -212 25.5t-154 66.5t-100 97t-57 114t-18 120z" />
    <glyph glyph-name="T" unicode="T" horiz-adv-x="1135" 
d="M719 0h-305v1100h-378v265h1062v-265h-379v-1100z" />
    <glyph glyph-name="U" unicode="U" horiz-adv-x="1419" 
d="M451 1365v-855q0 -129 70 -197t189 -68q118 0 188 68.5t70 196.5v855h305v-892q0 -227 -153 -362.5t-410 -135.5t-410.5 136.5t-153.5 362.5v891h305z" />
    <glyph glyph-name="V" unicode="V" horiz-adv-x="1313" 
d="M847 0h-377l-443 1365h354l279 -1023h15l274 1023h338z" />
    <glyph glyph-name="W" unicode="W" horiz-adv-x="1815" 
d="M661 0h-283l-354 1365h325l187 -933h14l230 933h256l230 -933h15l185 933h325l-354 -1365h-284l-239 881h-13z" />
    <glyph glyph-name="X" unicode="X" horiz-adv-x="1250" 
d="M1249 1365l-428 -682l423 -683h-347l-272 452h-13l-272 -452h-328l414 687l-412 678h358l261 -463h14l259 463h343z" />
    <glyph glyph-name="Y" unicode="Y" horiz-adv-x="1216" 
d="M761 0h-305v481l-457 884h336l271 -564h12l274 564h326l-457 -876v-489z" />
    <glyph glyph-name="Z" unicode="Z" horiz-adv-x="1235" 
d="M108 0v207l634 883v16h-619v259h987v-206l-632 -884v-16h653v-259h-1023z" />
    <glyph glyph-name="bracketleft" unicode="[" horiz-adv-x="770" 
d="M125 1365h562v-229h-278v-1136h291v-228h-575v1593z" />
    <glyph glyph-name="backslash" unicode="\" horiz-adv-x="737" 
d="M732 -283h-266l-454 1720h266z" />
    <glyph glyph-name="bracketright" unicode="]" horiz-adv-x="770" 
d="M83 1365h563v-1593h-575v228h292v1136h-280v229z" />
    <glyph glyph-name="asciicircum" unicode="^" horiz-adv-x="948" 
d="M898 795h-257l-161 324h-12l-166 -324h-251l300 570h250z" />
    <glyph glyph-name="underscore" unicode="_" horiz-adv-x="908" 
d="M909 -341h-911v238h911v-238z" />
    <glyph glyph-name="grave" unicode="`" horiz-adv-x="1000" 
d="M707 1235h-215l-280 352h258z" />
    <glyph glyph-name="a" unicode="a" horiz-adv-x="1157" 
d="M444 -16q-158 0 -254.5 87.5t-96.5 237.5q0 148 99 234.5t282 86.5h252v90q0 65 -42.5 99t-116.5 34q-70 0 -109 -28.5t-48 -77.5h-279q4 68 30 125.5t76 106t136 76.5t199 28q96 0 174.5 -20t141 -62.5t97 -116.5t34.5 -174v-710h-279v132h-14q-33 -63 -103 -105.5
t-179 -42.5zM544 203q75 0 128.5 42t53.5 106v106h-180q-77 0 -118.5 -34t-41.5 -90q0 -61 46 -95.5t112 -34.5z" />
    <glyph glyph-name="b" unicode="b" horiz-adv-x="1257" 
d="M762 -12q-117 0 -196.5 49t-108.5 129h-15v-166h-294v1437h297v-539h15q25 80 105 130.5t200 50.5q182 0 287.5 -125.5t105.5 -358.5v-121q0 -233 -106 -359.5t-290 -126.5zM653 231q91 0 145 66t54 195v81q0 127 -53.5 194.5t-147.5 67.5q-95 0 -150.5 -66t-55.5 -187
v-106q0 -113 57.5 -179t150.5 -66z" />
    <glyph glyph-name="c" unicode="c" horiz-adv-x="1125" 
d="M98 484v109q0 223 130.5 358.5t354.5 135.5q208 0 328.5 -112.5t122.5 -287.5h-270q-5 64 -48 111t-124 47q-93 0 -145 -68.5t-52 -185.5v-104q0 -125 52.5 -193.5t144.5 -68.5q157 0 176 148h270q-3 -189 -126 -291t-330 -102q-223 0 -353.5 132t-130.5 372z" />
    <glyph glyph-name="d" unicode="d" horiz-adv-x="1258" 
d="M496 1080q116 0 195 -49t108 -128h14v534h297v-1437h-294v171h-14q-25 -79 -107 -131t-201 -52q-181 0 -287.5 127t-106.5 354v131q0 226 106.5 353t289.5 127zM605 835q-92 0 -146 -66.5t-54 -190.5v-88q0 -125 54.5 -192t147.5 -67q94 0 150 66t56 186v109
q0 113 -58 178t-150 65z" />
    <glyph glyph-name="e" unicode="e" horiz-adv-x="1158" 
d="M596 -20q-230 0 -364 129.5t-134 372.5v105q0 121 37.5 217.5t103.5 157.5t153.5 93t189.5 32q215 0 348 -135t133 -365v-119h-676v-48q0 -93 57 -149.5t150 -56.5q76 0 127 31.5t58 81.5h275q-3 -45 -20 -91t-53.5 -92.5t-88 -82.5t-128.5 -58.5t-168 -22.5zM387 646
h390v7q0 94 -52.5 151t-140.5 57t-142.5 -57.5t-54.5 -150.5v-7z" />
    <glyph glyph-name="f" unicode="f" horiz-adv-x="850" 
d="M239 0v815h-172v237h172v105q0 164 88 234t289 70q94 0 161 -10v-214q-42 6 -100 6q-79 0 -114.5 -25.5t-35.5 -86.5v-79h236v-237h-229v-815h-295z" />
    <glyph glyph-name="g" unicode="g" horiz-adv-x="1234" 
d="M591 -171q107 0 160 53.5t53 153.5v151h-15q-31 -74 -109.5 -120.5t-187.5 -46.5q-180 0 -288.5 127.5t-108.5 359.5v85q0 232 108.5 359.5t287.5 127.5q113 0 193.5 -50t108.5 -128h14v166h292v-1056q0 -90 -29 -160.5t-77.5 -116t-116.5 -75t-140 -41.5t-153 -12
q-116 0 -206 26t-144.5 71.5t-83.5 102t-32 122.5h284q10 -47 61 -73t129 -26zM605 835q-95 0 -150.5 -68t-55.5 -190v-74q0 -121 57 -189t150 -68q92 0 145 66.5t53 177.5v99q0 112 -54 179t-145 67z" />
    <glyph glyph-name="h" unicode="h" horiz-adv-x="1262" 
d="M149 0v1437h296v-555h15q10 33 31 65t57.5 64t94.5 52t130 20q161 0 256.5 -97t95.5 -281v-705h-297v623q0 106 -50 153.5t-130 47.5q-92 0 -147.5 -62.5t-55.5 -170.5v-591h-296z" />
    <glyph glyph-name="i" unicode="i" horiz-adv-x="622" 
d="M163 0v1067h296v-1067h-296zM130 1373q0 71 49 115.5t131 44.5t131.5 -44.5t49.5 -115.5q0 -70 -49 -114t-132 -44q-82 0 -131 44t-49 114z" />
    <glyph glyph-name="j" unicode="j" horiz-adv-x="622" 
d="M131 1373q0 71 49 115.5t131 44.5t131.5 -44.5t49.5 -115.5q0 -70 -49 -114t-132 -44q-82 0 -131 44t-49 114zM459 1067v-1073q0 -178 -99.5 -266t-273.5 -88q-80 0 -113 7v219q19 -4 56 -4q68 0 101.5 31.5t33.5 103.5v1070h295z" />
    <glyph glyph-name="k" unicode="k" horiz-adv-x="1172" 
d="M439 359v-359h-297v1437h297v-795h14l326 425h332l-377 -459l403 -608h-344l-286 434z" />
    <glyph glyph-name="l" unicode="l" horiz-adv-x="602" 
d="M152 0v1437h297v-1437h-297z" />
    <glyph glyph-name="m" unicode="m" horiz-adv-x="1843" 
d="M144 0v1067h288v-180h15q10 34 29.5 65.5t52.5 62.5t87.5 49.5t122.5 18.5q116 0 191 -55t99 -145h12q29 81 112 140.5t210 59.5q160 0 250 -92.5t90 -249.5v-741h-296v643q0 96 -45 141.5t-122 45.5t-125.5 -51.5t-48.5 -145.5v-633h-285v640q0 98 -46.5 144t-122.5 46
t-124 -49.5t-48 -145.5v-635h-296z" />
    <glyph glyph-name="n" unicode="n" horiz-adv-x="1256" 
d="M145 0v1067h288v-185h15q11 35 32.5 67t57.5 64t94.5 51t130.5 19q164 0 258.5 -96t94.5 -281v-706h-296v624q0 106 -49 153t-128 47q-93 0 -147.5 -62t-54.5 -171v-591h-296z" />
    <glyph glyph-name="o" unicode="o" horiz-adv-x="1193" 
d="M598 1087q226 0 361.5 -136.5t135.5 -365.5v-95q0 -242 -133.5 -376t-363.5 -134q-232 0 -365.5 133.5t-133.5 375.5v94q0 227 136.5 365.5t362.5 138.5zM597 852q-97 0 -148 -77t-51 -191v-100q0 -112 49.5 -190t149.5 -78q68 0 114 39.5t65 98t19 130.5v100
q0 115 -50 191.5t-148 76.5z" />
    <glyph glyph-name="p" unicode="p" horiz-adv-x="1254" 
d="M758 -12q-116 0 -192 48.5t-109 129.5h-14v-514h-297v1416h293v-170h15q30 82 110 131.5t197 49.5q182 0 287.5 -125.5t105.5 -358.5v-121q0 -233 -106.5 -359.5t-289.5 -126.5zM648 231q92 0 146.5 66.5t54.5 195.5v81q0 128 -54 194.5t-149 66.5q-94 0 -148.5 -65.5
t-54.5 -185.5v-109q0 -114 56.5 -179t148.5 -65z" />
    <glyph glyph-name="q" unicode="q" horiz-adv-x="1253" 
d="M493 1079q116 0 197.5 -49t110.5 -131h14v168h293v-1415h-297v515h-14q-28 -80 -108.5 -129.5t-196.5 -49.5q-183 0 -287.5 127t-104.5 357v124q0 230 105.5 356.5t287.5 126.5zM605 835q-93 0 -146.5 -67.5t-53.5 -190.5v-88q0 -125 54 -191.5t148 -66.5t149 65.5
t55 185.5v110q0 114 -57 178.5t-149 64.5z" />
    <glyph glyph-name="r" unicode="r" horiz-adv-x="863" 
d="M151 0v1067h297v-168h14q19 68 85 126t174 58q53 0 91 -9v-267q-33 12 -112 12q-122 0 -183.5 -63.5t-61.5 -174.5v-581h-304z" />
    <glyph glyph-name="s" unicode="s" horiz-adv-x="1089" 
d="M108 747q0 88 35.5 155.5t97.5 106.5t139 58.5t168 19.5q188 0 302.5 -83.5t114.5 -236.5h-260q-6 47 -48 81t-114 34t-113 -30.5t-41 -80.5q0 -16 5.5 -30t17 -25t24 -19.5t33 -15.5t36.5 -12t41 -9.5t41 -7.5t42 -7l39 -6q159 -26 245 -97t86 -206q0 -166 -123.5 -261
t-345.5 -95q-208 0 -326 89t-118 234h287q6 -52 50 -83.5t122 -31.5q84 0 125.5 31t41.5 81q0 19 -6.5 34.5t-23 27t-30.5 19.5t-44 15.5t-47 11t-56 10.5t-56 10q-60 12 -108 27.5t-93 41t-75 59t-47.5 82.5t-17.5 109z" />
    <glyph glyph-name="t" unicode="t" horiz-adv-x="842" 
d="M231 1052v264h287v-264h235v-237h-235v-458q0 -70 35 -98.5t114 -28.5q55 0 93 4v-225q-57 -13 -165 -13q-202 0 -286 70t-84 238v511h-163v237h169z" />
    <glyph glyph-name="u" unicode="u" horiz-adv-x="1253" 
d="M1108 1067v-1067h-289v178h-15q-16 -46 -51 -87.5t-104 -74t-156 -32.5q-166 0 -260 92.5t-94 278.5v712h296v-633q0 -192 177 -192q84 0 141.5 54.5t57.5 146.5v624h297z" />
    <glyph glyph-name="v" unicode="v" horiz-adv-x="1110" 
d="M376 0l-346 1067h322l190 -786h12l214 786h312l-368 -1067h-336z" />
    <glyph glyph-name="w" unicode="w" horiz-adv-x="1636" 
d="M1602 1067l-275 -1067h-309l-192 725h-10l-188 -725h-313l-280 1067h309l142 -757h12l185 757h278l189 -757h12l144 757h296z" />
    <glyph glyph-name="x" unicode="x" horiz-adv-x="1146" 
d="M761 0l-190 340h-12l-190 -340h-312l323 532l-336 535h340l187 -337h12l191 337h325l-345 -528l336 -539h-329z" />
    <glyph glyph-name="y" unicode="y" horiz-adv-x="1151" 
d="M1106 1067q-333 -1003 -338 -1018l-27 -72q-31 -84 -66 -143t-89 -109t-133 -75t-183 -25q-96 0 -159 13v218q25 -7 90 -7q95 0 137 31.5t52 97.5l8 26l-360 1063h327l204 -810h12l211 810h314z" />
    <glyph glyph-name="z" unicode="z" horiz-adv-x="1058" 
d="M106 0v168l488 645v14h-480v240h837v-189l-467 -623v-13h482v-242h-860z" />
    <glyph glyph-name="braceleft" unicode="{" horiz-adv-x="844" 
d="M340 599v-30q202 -19 202 -239v-228q0 -110 41 -150t158 -40h41v-224h-105q-216 0 -316.5 84.5t-100.5 286.5v190q0 106 -32.5 150.5t-125.5 44.5v279q93 0 125.5 45t32.5 150v160q0 199 100 281t317 82h105v-224h-41q-117 0 -158 -40t-41 -150v-210q0 -107 -50 -158
t-152 -60z" />
    <glyph glyph-name="bar" unicode="|" horiz-adv-x="763" 
d="M515 -296h-267v1733h267v-1733z" />
    <glyph glyph-name="braceright" unicode="}" horiz-adv-x="845" 
d="M505 569v30q-101 9 -151 60t-50 158v210q0 109 -41.5 149.5t-157.5 40.5h-43v224h107q217 0 316.5 -82t99.5 -281v-160q0 -105 33 -150t125 -45v-279q-92 0 -125 -44.5t-33 -150.5v-190q0 -202 -100 -286.5t-316 -84.5h-107v224h43q116 0 157.5 40.5t41.5 149.5v228
q0 220 201 239z" />
    <glyph glyph-name="asciitilde" unicode="~" horiz-adv-x="1167" 
d="M781 473q-109 0 -224 94q-6 5 -22.5 18.5t-23.5 18.5t-21 15.5t-22.5 15t-20.5 10.5t-22.5 8t-21.5 2q-101 0 -110 -153h-213q0 187 74 298t228 111q112 0 223 -92q2 -2 14.5 -12.5t15.5 -13t14.5 -11.5t15.5 -11.5t14 -9.5t15.5 -9.5t14.5 -7t16 -6t15.5 -3t16.5 -1.5
q104 0 112 150h214q0 -183 -77 -297t-225 -114z" />
    <glyph glyph-name="nonbreakingspace" unicode="&#xa0;" horiz-adv-x="454" 
 />
    <glyph glyph-name="exclamdown" unicode="&#xa1;" horiz-adv-x="616" 
d="M468 -279h-325l36 913h256zM496 943q0 -74 -51.5 -119t-136.5 -45q-87 0 -138.5 45t-51.5 119t51.5 119t138.5 45q85 0 136.5 -45t51.5 -119z" />
    <glyph glyph-name="cent" unicode="&#xa2;" 
d="M1086 519q-2 -153 -103.5 -257t-253.5 -120v-222h-222v219q-163 18 -273 143t-110 340v131q0 104 31.5 190.5t85.5 143.5t121.5 91.5t144.5 44.5v219h222v-222q155 -17 253 -127t101 -255h-264q-6 64 -59.5 114.5t-143.5 50.5q-101 0 -160.5 -69t-59.5 -178v-136
q0 -118 60.5 -187t161.5 -69q90 0 143 45.5t61 109.5h264z" />
    <glyph glyph-name="sterling" unicode="&#xa3;" 
d="M1152 251v-251h-1042v260q74 10 116.5 55.5t42.5 147.5v106h-170v208h170v230q0 175 116 278t319 103q208 0 323 -102.5t118 -299.5h-278q-2 67 -43.5 109.5t-116.5 42.5q-78 0 -118.5 -46.5t-40.5 -122.5v-192h290v-208h-290l-1 -117q-3 -147 -87 -184v-17h692z" />
    <glyph glyph-name="currency" unicode="&#xa4;" 
d="M996 110l-160 158q-100 -61 -218 -61t-221 62l-161 -159l-147 155l160 158q-64 103 -64 225q0 120 61 222l-157 156l147 155l157 -155q104 63 225 63q120 0 222 -62l155 154l148 -155l-155 -154q62 -103 62 -224q0 -122 -65 -227l158 -156zM405 648q0 -86 62.5 -147
t150.5 -61q87 0 149.5 61.5t62.5 146.5q0 86 -62.5 147t-149.5 61q-88 0 -150.5 -61t-62.5 -147z" />
    <glyph glyph-name="yen" unicode="&#xa5;" 
d="M1061 166h-290v-166h-304v166h-285v190h285v109h-285v190h202l-375 710h336l271 -564h13l273 564h326l-376 -710h209v-190h-290v-109h290v-190z" />
    <glyph glyph-name="brokenbar" unicode="&#xa6;" horiz-adv-x="633" 
d="M450 779h-267v658h267v-658zM450 -296h-267v677h267v-677z" />
    <glyph glyph-name="section" unicode="&#xa7;" horiz-adv-x="984" 
d="M645 73q0 20 -6.5 36t-22.5 29t-31 22.5t-44 20t-47.5 16t-56.5 16.5t-57 17q-67 19 -115 41t-93 56.5t-68.5 85.5t-23.5 117q0 162 166 256v7q-157 91 -157 260q0 160 118 249t294 89q181 0 288 -91.5t107 -240.5h-241q-2 50 -46 86.5t-115 36.5q-64 0 -103 -31.5
t-39 -80.5q0 -20 6.5 -37t23.5 -30.5t30 -23t44.5 -20.5t46.5 -15.5t55.5 -16t54.5 -15.5q52 -15 90 -28.5t81 -38t70 -54t45 -74.5t18 -100q0 -166 -156 -272v-7q71 -42 109.5 -96.5t38.5 -141.5q0 -157 -114 -253.5t-305 -96.5q-182 0 -296.5 89t-117.5 241h244
q9 -54 52 -87.5t116 -33.5q79 0 118 33t39 81zM566 415q42 19 69 58.5t27 84.5q0 108 -165 146q-11 2 -32.5 6.5t-28.5 5.5q-43 -18 -72.5 -58t-29.5 -86q0 -59 42 -90t122 -52q22 -5 68 -15z" />
    <glyph glyph-name="dieresis" unicode="&#xa8;" horiz-adv-x="1000" 
d="M154 1352q0 58 37 94t97 36q61 0 98 -36t37 -94t-37 -93.5t-98 -35.5q-60 0 -97 35.5t-37 93.5zM569 1352q0 58 36.5 94t95.5 36q62 0 99.5 -35.5t37.5 -94.5q0 -58 -37 -93.5t-100 -35.5q-59 0 -95.5 35.5t-36.5 93.5z" />
    <glyph glyph-name="copyright" unicode="&#xa9;" horiz-adv-x="1693" 
d="M506 632v99q0 155 99.5 243.5t252.5 88.5q141 0 232 -81.5t93 -195.5h-182q-3 44 -39 77t-103 33q-79 0 -121 -39.5t-42 -131.5v-94q0 -83 44.5 -123t118.5 -40q66 0 103 25.5t42 69.5h180q-2 -113 -89.5 -189.5t-236.5 -76.5q-154 0 -253 88.5t-99 246.5zM268 642
q0 -251 161 -411t422 -160t424 160.5t163 410.5v104q0 152 -73.5 277.5t-208.5 199.5t-305 74t-304 -73.5t-206.5 -199t-72.5 -278.5v-104zM852 -64q-209 0 -374 92t-255.5 253.5t-90.5 362.5v103q0 142 54 268t148 218t229 145.5t289 53.5q155 0 290 -54t228.5 -146.5
t147.5 -218.5t54 -266v-103q0 -151 -53 -282t-146.5 -224.5t-228.5 -147.5t-292 -54z" />
    <glyph glyph-name="ordfeminine" unicode="&#xaa;" horiz-adv-x="713" 
d="M279 744q-102 0 -160 48t-58 134q0 85 59 133t178 48h144v48q0 62 -85 62q-78 0 -85 -51h-183q4 84 66 139t205 55q280 0 280 -211v-396h-189v72h-9q-41 -81 -163 -81zM344 880q41 0 69.5 19t28.5 52v48h-93q-91 0 -91 -58q0 -32 24.5 -46.5t61.5 -14.5z" />
    <glyph glyph-name="guillemotleft" unicode="&#xab;" horiz-adv-x="1356" 
d="M622 565l344 404h269l-339 -403v-6l339 -405h-278l-335 402v8zM112 565l344 404h269l-339 -403v-6l339 -405h-278l-335 402v8z" />
    <glyph glyph-name="logicalnot" unicode="&#xac;" 
d="M1129 82h-257v336h-770v249h1027v-585z" />
    <glyph glyph-name="registered" unicode="&#xae;" horiz-adv-x="1211" 
d="M603 414q-220 0 -363 139t-143 350v71q0 199 145 336.5t361 137.5q141 0 257.5 -63.5t182.5 -172t66 -238.5v-71q0 -211 -143 -350t-363 -139zM603 527q169 0 280 108t111 269v68q0 151 -112 257.5t-279 106.5t-278.5 -106t-111.5 -258v-68q0 -161 110.5 -269t279.5 -108
zM530 1088v-125h78q39 0 62.5 12.5t23.5 50.5q0 29 -20.5 45.5t-58.5 16.5h-85zM530 701h-124v484h244q79 0 126.5 -45t47.5 -114q0 -53 -27 -92.5t-68 -51.5l110 -181h-136l-95 166h-78v-166z" />
    <glyph glyph-name="macron" unicode="&#xaf;" horiz-adv-x="1000" 
d="M801 1238h-608v167h608v-167z" />
    <glyph glyph-name="degree" unicode="&#xb0;" horiz-adv-x="712" 
d="M357 782q-127 0 -214 88t-87 216t86.5 215t214.5 87q127 0 213.5 -87t86.5 -215t-87 -216t-213 -88zM357 957q54 0 92 38t38 91t-37.5 90.5t-92.5 37.5q-53 0 -91.5 -37.5t-38.5 -90.5t38.5 -91t91.5 -38z" />
    <glyph glyph-name="plusminus" unicode="&#xb1;" 
d="M744 637v-234h-257v234h-355v234h355v216h257v-216h360v-234h-360zM1106 47h-972v243h972v-243z" />
    <glyph glyph-name="twosuperior" unicode="&#xb2;" horiz-adv-x="699" 
d="M267 1145h-189v13q0 42 15.5 80.5t46.5 71.5t84 53t122 20q119 0 190.5 -56.5t71.5 -145.5q0 -38 -13 -73.5t-37.5 -65t-38 -43t-35.5 -32.5l-128 -102v-6h262v-159h-522v125l243 222q75 68 75 114q0 28 -21 46.5t-53 18.5q-33 0 -53 -20t-20 -47v-14z" />
    <glyph glyph-name="threesuperior" unicode="&#xb3;" horiz-adv-x="712" 
d="M270 966v146h75q37 0 58.5 18t21.5 45q0 28 -22 44.5t-58 16.5q-40 0 -60.5 -20.5t-21.5 -50.5h-183q4 103 73.5 160.5t196.5 57.5q119 0 190 -49.5t71 -131.5q0 -61 -38.5 -100.5t-90.5 -49.5v-8q65 -7 106.5 -45.5t41.5 -107.5q0 -100 -81 -152.5t-199 -52.5
q-135 0 -205 64t-72 156h183q1 -31 23.5 -50t63.5 -19t66.5 18.5t25.5 47.5q0 27 -23.5 45t-65.5 18h-76z" />
    <glyph glyph-name="acute" unicode="&#xb4;" horiz-adv-x="1000" 
d="M267 1235l237 352h258l-280 -352h-215z" />
    <glyph glyph-name="paragraph" unicode="&#xb6;" horiz-adv-x="1474" 
d="M877 -210h-280v625h-20q-66 0 -132 19t-127.5 58.5t-109 94.5t-76 134.5t-28.5 170.5q0 99 28.5 180.5t75.5 135t109.5 90t127.5 52t133 15.5h299v-1575zM1040 -210v1575h279v-1575h-279z" />
    <glyph glyph-name="periodcentered" unicode="&#xb7;" horiz-adv-x="661" 
d="M141 785q0 85 53.5 136t133.5 51q81 0 135 -51.5t54 -135.5t-53.5 -134.5t-135.5 -50.5q-80 0 -133.5 50.5t-53.5 134.5z" />
    <glyph glyph-name="cedilla" unicode="&#xb8;" horiz-adv-x="1000" 
d="M378 -236v112l51 128h167l-47 -115q87 0 138 -46t51 -125q0 -99 -67 -148t-184 -51q-86 -1 -145 16v132q47 -14 110 -14q108 0 108 55q0 32 -29.5 44t-96.5 12h-56z" />
    <glyph glyph-name="onesuperior" unicode="&#xb9;" horiz-adv-x="614" 
d="M465 700h-201v485h-9l-156 -105v174l165 111h201v-665z" />
    <glyph glyph-name="ordmasculine" unicode="&#xba;" horiz-adv-x="725" 
d="M362 1212q-54 0 -80.5 -38.5t-26.5 -98.5v-54q0 -59 25.5 -98.5t81.5 -39.5t81.5 39t25.5 99v54q0 61 -26 99t-81 38zM363 1360q138 0 219.5 -78.5t81.5 -208.5v-47q0 -139 -80.5 -215t-220.5 -76q-142 0 -222.5 76t-80.5 214v48q0 129 82.5 208t220.5 79z" />
    <glyph glyph-name="guillemotright" unicode="&#xbb;" horiz-adv-x="1356" 
d="M1235 565v-8l-335 -402h-278l339 405v6l-339 403h269zM725 565v-8l-335 -402h-278l339 405v6l-339 403h269z" />
    <glyph glyph-name="onequarter" unicode="&#xbc;" horiz-adv-x="1472" 
d="M1005 246h163v275h-9q-82 -131 -154 -273v-2zM1076 662h270v-416h80v-146h-80v-100h-178v100h-332v147q94 175 240 415zM410 700h-201v485h-9l-156 -105v174l165 111h201v-665zM293 -1h-216l563 725l491 641h216l-552 -709z" />
    <glyph glyph-name="onehalf" unicode="&#xbd;" horiz-adv-x="1482" 
d="M1100 440h-190v13q0 91 68 159t202 68q120 0 192 -57t72 -147q0 -111 -125 -215l-129 -103v-6h264v-160h-526v126l245 223q76 71 76 115q0 28 -21.5 47t-53.5 19q-33 0 -53.5 -20.5t-20.5 -47.5v-14zM408 700h-201v485h-9l-156 -105v174l165 111h201v-665zM290 -1h-216
l563 725l491 641h216l-552 -709z" />
    <glyph glyph-name="threequarters" unicode="&#xbe;" horiz-adv-x="1496" 
d="M1043 247h163v274h-9q-85 -136 -154 -272v-2zM1114 662h270v-415h80v-147h-80v-100h-178v100h-333v147q97 179 241 415zM224 957v147h75q38 0 59.5 18t21.5 45q0 28 -22.5 45t-58.5 17q-39 0 -60 -21t-22 -51h-184q4 103 74 161t197 58q120 0 191.5 -49.5t71.5 -132.5
q0 -61 -39 -100.5t-91 -49.5v-8q65 -7 107 -46t42 -108q0 -101 -82 -153.5t-200 -52.5q-136 0 -206.5 64.5t-72.5 156.5h185q1 -31 23.5 -50.5t63.5 -19.5q42 0 67.5 19t25.5 48q0 27 -23.5 45t-66.5 18h-76zM330 -1h-216l563 725l491 641h216l-552 -709z" />
    <glyph glyph-name="questiondown" unicode="&#xbf;" horiz-adv-x="1034" 
d="M733 936q0 -74 -51.5 -119.5t-136.5 -45.5q-87 0 -138.5 45t-51.5 120q0 74 51.5 118.5t138.5 44.5q85 0 136.5 -45t51.5 -118zM975 103q4 -107 -34 -189.5t-105.5 -130t-149.5 -71.5t-175 -24q-125 0 -225.5 40.5t-164 127t-63.5 207.5q0 63 16 114t49.5 90t61 62
t73.5 55q99 66 131 104.5t32 113.5v49h264l2 -47q9 -111 -36 -191.5t-138 -141.5q-44 -29 -65 -44.5t-46 -40t-34.5 -50t-9.5 -57.5q0 -73 49.5 -110t121.5 -37q82 0 128 48t47 123h271z" />
    <glyph glyph-name="Agrave" unicode="&#xc0;" horiz-adv-x="1324" 
d="M331 0h-304l448 1365h366l445 -1365h-326l-96 318h-436zM655 1074h-14l-154 -522h320zM819 1501h-260l-300 221h294z" />
    <glyph glyph-name="Aacute" unicode="&#xc1;" horiz-adv-x="1324" 
d="M331 0h-304l448 1365h366l445 -1365h-326l-96 318h-436zM655 1074h-14l-154 -522h320zM477 1501l275 230h309l-310 -230h-274z" />
    <glyph glyph-name="Acircumflex" unicode="&#xc2;" horiz-adv-x="1324" 
d="M331 0h-304l448 1365h366l445 -1365h-326l-96 318h-436zM655 1074h-14l-154 -522h320zM298 1486l268 250h210l255 -250h-230l-126 122h-15l-134 -122h-228z" />
    <glyph glyph-name="Atilde" unicode="&#xc3;" horiz-adv-x="1324" 
d="M331 0h-304l448 1365h366l445 -1365h-326l-96 318h-436zM655 1074h-14l-154 -522h320zM646 1507q-4 3 -18 16.5t-21.5 19.5t-21 12t-26.5 6q-63 0 -69 -87h-154q0 92 51.5 162.5t146.5 70.5q53 0 87 -15.5t73 -49.5q5 -4 17.5 -15.5t17.5 -15.5t14.5 -10.5t18.5 -9
t19 -2.5q34 0 50 30t18 72h154q0 -100 -57.5 -170t-146.5 -70q-59 0 -91.5 14.5t-61.5 41.5z" />
    <glyph glyph-name="Adieresis" unicode="&#xc4;" horiz-adv-x="1324" 
d="M331 0h-304l448 1365h366l445 -1365h-326l-96 318h-436zM655 1074h-14l-154 -522h320zM335 1578q0 56 34.5 89.5t91.5 33.5q59 0 93.5 -33.5t34.5 -89.5q0 -55 -34.5 -88.5t-93.5 -33.5q-57 0 -91.5 33.5t-34.5 88.5zM730 1578q0 56 34.5 89.5t92.5 33.5t93 -33.5
t35 -89.5q0 -55 -34.5 -88.5t-93.5 -33.5q-58 0 -92.5 33.5t-34.5 88.5z" />
    <glyph glyph-name="Aring" unicode="&#xc5;" horiz-adv-x="1324" 
d="M542 1454q0 -48 33 -80t81 -32t81 32t33 80q0 49 -33 81t-81 32t-81 -32t-33 -81zM812 552l-152 522h-14l-154 -522h320zM336 0h-304l422 1272q-79 74 -79 185q0 121 81.5 203.5t199.5 82.5t200 -83t82 -203q0 -99 -70 -171l423 -1286h-326l-96 318h-436z" />
    <glyph glyph-name="AE" unicode="&#xc6;" horiz-adv-x="1952" 
d="M866 1108l-250 -552h317v552h-67zM933 311h-415l-155 -311h-334l645 1365h1157v-257h-597v-302h560v-237h-560v-312h597v-257h-898v311z" />
    <glyph glyph-name="Ccedilla" unicode="&#xc7;" horiz-adv-x="1338" 
d="M669 -481q-87 -1 -146 16v132q47 -14 111 -14q108 0 108 55q0 32 -29.5 44t-96.5 12h-56v112l41 104q-235 26 -364.5 189.5t-129.5 434.5v154q0 294 154.5 463t428.5 169q249 0 398.5 -139.5t149.5 -351.5v-37h-291q0 109 -67.5 184.5t-187.5 75.5q-128 0 -201.5 -94
t-73.5 -271v-154q0 -177 73.5 -268.5t203.5 -91.5q120 0 186.5 71t66.5 180h291v-39q0 -186 -125.5 -319.5t-344.5 -155.5l-37 -91q87 0 138 -46t51 -125q0 -99 -67 -148t-184 -51z" />
    <glyph glyph-name="Egrave" unicode="&#xc8;" horiz-adv-x="1185" 
d="M760 1501h-260l-300 221h294zM1061 257v-257h-901v1365h901v-257h-599v-302h562v-237h-562v-312h599z" />
    <glyph glyph-name="Eacute" unicode="&#xc9;" horiz-adv-x="1185" 
d="M418 1501l275 230h309l-310 -230h-274zM1061 257v-257h-901v1365h901v-257h-599v-302h562v-237h-562v-312h599z" />
    <glyph glyph-name="Ecircumflex" unicode="&#xca;" horiz-adv-x="1185" 
d="M239 1486l268 250h210l255 -250h-230l-126 122h-15l-134 -122h-228zM1061 257v-257h-901v1365h901v-257h-599v-302h562v-237h-562v-312h599z" />
    <glyph glyph-name="Edieresis" unicode="&#xcb;" horiz-adv-x="1185" 
d="M276 1578q0 56 34.5 89.5t91.5 33.5q59 0 93.5 -33.5t34.5 -89.5q0 -55 -34.5 -88.5t-93.5 -33.5q-57 0 -91.5 33.5t-34.5 88.5zM671 1578q0 56 34.5 89.5t92.5 33.5t93 -33.5t35 -89.5q0 -55 -34.5 -88.5t-93.5 -33.5q-58 0 -92.5 33.5t-34.5 88.5zM1061 257v-257h-901
v1365h901v-257h-599v-302h562v-237h-562v-312h599z" />
    <glyph glyph-name="Igrave" unicode="&#xcc;" horiz-adv-x="624" 
d="M461 0h-305v1365h305v-1365zM470 1501h-260l-300 221h294z" />
    <glyph glyph-name="Iacute" unicode="&#xcd;" horiz-adv-x="624" 
d="M461 0h-305v1365h305v-1365zM128 1501l275 230h309l-310 -230h-274z" />
    <glyph glyph-name="Icircumflex" unicode="&#xce;" horiz-adv-x="624" 
d="M461 0h-305v1365h305v-1365zM-51 1486l268 250h210l255 -250h-230l-126 122h-15l-134 -122h-228z" />
    <glyph glyph-name="Idieresis" unicode="&#xcf;" horiz-adv-x="624" 
d="M461 0h-305v1365h305v-1365zM-14 1578q0 56 34.5 89.5t91.5 33.5q59 0 93.5 -33.5t34.5 -89.5q0 -55 -34.5 -88.5t-93.5 -33.5q-57 0 -91.5 33.5t-34.5 88.5zM381 1578q0 56 34.5 89.5t92.5 33.5t93 -33.5t35 -89.5q0 -55 -34.5 -88.5t-93.5 -33.5q-58 0 -92.5 33.5
t-34.5 88.5z" />
    <glyph glyph-name="Eth" unicode="&#xd0;" horiz-adv-x="1478" 
d="M772 0h-521v551h-166v278h166v536h521q162 0 281.5 -48.5t191.5 -139.5t106.5 -212.5t34.5 -276.5t-34.5 -278.5t-106.5 -216.5t-191.5 -143t-281.5 -50zM556 264h168q84 0 145 20t108 66.5t70.5 130.5t23.5 206q0 429 -347 429h-168v-287h225v-278h-225v-287z" />
    <glyph glyph-name="Ntilde" unicode="&#xd1;" horiz-adv-x="1437" 
d="M703 1507q-4 3 -18 16.5t-21.5 19.5t-21 12t-26.5 6q-63 0 -69 -87h-154q0 92 51.5 162.5t146.5 70.5q53 0 87 -15.5t73 -49.5q5 -4 17.5 -15.5t17.5 -15.5t14.5 -10.5t18.5 -9t19 -2.5q34 0 50 30t18 72h154q0 -100 -57.5 -170t-146.5 -70q-59 0 -91.5 14.5t-61.5 41.5z
M447 0h-285v1365h246l568 -820h12v820h286v-1365h-245l-570 827h-12v-827z" />
    <glyph glyph-name="Ograve" unicode="&#xd2;" horiz-adv-x="1409" 
d="M861 1501h-260l-300 221h294zM413 762v-165q0 -175 78 -266.5t210 -91.5t210 91.5t78 266.5v165q0 176 -78.5 270t-209.5 94t-209.5 -94t-78.5 -270zM103 598v160q0 293 159 462.5t440 169.5t439.5 -170t158.5 -462v-160q0 -290 -159 -456.5t-441 -166.5
q-281 0 -439 166.5t-158 456.5z" />
    <glyph glyph-name="Oacute" unicode="&#xd3;" horiz-adv-x="1409" 
d="M519 1501l275 230h309l-310 -230h-274zM413 762v-165q0 -175 78 -266.5t210 -91.5t210 91.5t78 266.5v165q0 176 -78.5 270t-209.5 94t-209.5 -94t-78.5 -270zM103 598v160q0 293 159 462.5t440 169.5t439.5 -170t158.5 -462v-160q0 -290 -159 -456.5t-441 -166.5
q-281 0 -439 166.5t-158 456.5z" />
    <glyph glyph-name="Ocircumflex" unicode="&#xd4;" horiz-adv-x="1409" 
d="M340 1486l268 250h210l255 -250h-230l-126 122h-15l-134 -122h-228zM413 762v-165q0 -175 78 -266.5t210 -91.5t210 91.5t78 266.5v165q0 176 -78.5 270t-209.5 94t-209.5 -94t-78.5 -270zM103 598v160q0 293 159 462.5t440 169.5t439.5 -170t158.5 -462v-160
q0 -290 -159 -456.5t-441 -166.5q-281 0 -439 166.5t-158 456.5z" />
    <glyph glyph-name="Otilde" unicode="&#xd5;" horiz-adv-x="1409" 
d="M413 762v-165q0 -175 78 -266.5t210 -91.5t210 91.5t78 266.5v165q0 176 -78.5 270t-209.5 94t-209.5 -94t-78.5 -270zM103 598v160q0 293 159 462.5t440 169.5t439.5 -170t158.5 -462v-160q0 -290 -159 -456.5t-441 -166.5q-281 0 -439 166.5t-158 456.5zM688 1507
q-4 3 -18 16.5t-21.5 19.5t-21 12t-26.5 6q-63 0 -69 -87h-154q0 92 51.5 162.5t146.5 70.5q53 0 87 -15.5t73 -49.5q5 -4 17.5 -15.5t17.5 -15.5t14.5 -10.5t18.5 -9t19 -2.5q34 0 50 30t18 72h154q0 -100 -57.5 -170t-146.5 -70q-59 0 -91.5 14.5t-61.5 41.5z" />
    <glyph glyph-name="Odieresis" unicode="&#xd6;" horiz-adv-x="1409" 
d="M378 1578q0 56 34.5 89.5t91.5 33.5q59 0 93.5 -33.5t34.5 -89.5q0 -55 -34.5 -88.5t-93.5 -33.5q-57 0 -91.5 33.5t-34.5 88.5zM773 1578q0 56 34.5 89.5t92.5 33.5t93 -33.5t35 -89.5q0 -55 -34.5 -88.5t-93.5 -33.5q-58 0 -92.5 33.5t-34.5 88.5zM413 762v-165
q0 -175 78 -266.5t210 -91.5t210 91.5t78 266.5v165q0 176 -78.5 270t-209.5 94t-209.5 -94t-78.5 -270zM103 598v160q0 293 159 462.5t440 169.5t439.5 -170t158.5 -462v-160q0 -290 -159 -456.5t-441 -166.5q-281 0 -439 166.5t-158 456.5z" />
    <glyph glyph-name="multiply" unicode="&#xd7;" 
d="M920 55l-301 300l-302 -300l-181 194l300 300l-300 299l182 194l301 -299l301 299l182 -194l-301 -299l301 -300z" />
    <glyph glyph-name="Oslash" unicode="&#xd8;" horiz-adv-x="1409" 
d="M703 -25q-229 0 -376 111l-98 -120l-130 109l110 134q-103 153 -103 389v160q0 293 159 462.5t440 169.5q223 0 372 -110l86 104l134 -102l-103 -124q109 -160 109 -400v-160q0 -290 -159 -456.5t-441 -166.5zM408 593q0 -65 16 -106l479 569q-77 77 -200 77
q-134 0 -214.5 -96t-80.5 -274v-170zM703 229q135 0 215.5 93t80.5 271v170q0 66 -19 117l-482 -573q75 -78 205 -78z" />
    <glyph glyph-name="Ugrave" unicode="&#xd9;" horiz-adv-x="1419" 
d="M867 1501h-260l-300 221h294zM449 1365v-855q0 -129 70 -197t189 -68q118 0 188 68.5t70 196.5v855h305v-892q0 -227 -153 -362.5t-410 -135.5t-410.5 136.5t-153.5 362.5v891h305z" />
    <glyph glyph-name="Uacute" unicode="&#xda;" horiz-adv-x="1419" 
d="M525 1501l275 230h309l-310 -230h-274zM449 1365v-855q0 -129 70 -197t189 -68q118 0 188 68.5t70 196.5v855h305v-892q0 -227 -153 -362.5t-410 -135.5t-410.5 136.5t-153.5 362.5v891h305z" />
    <glyph glyph-name="Ucircumflex" unicode="&#xdb;" horiz-adv-x="1419" 
d="M346 1486l268 250h210l255 -250h-230l-126 122h-15l-134 -122h-228zM449 1365v-855q0 -129 70 -197t189 -68q118 0 188 68.5t70 196.5v855h305v-892q0 -227 -153 -362.5t-410 -135.5t-410.5 136.5t-153.5 362.5v891h305z" />
    <glyph glyph-name="Udieresis" unicode="&#xdc;" horiz-adv-x="1419" 
d="M383 1578q0 56 34.5 89.5t91.5 33.5q59 0 93.5 -33.5t34.5 -89.5q0 -55 -34.5 -88.5t-93.5 -33.5q-57 0 -91.5 33.5t-34.5 88.5zM778 1578q0 56 34.5 89.5t92.5 33.5t93 -33.5t35 -89.5q0 -55 -34.5 -88.5t-93.5 -33.5q-58 0 -92.5 33.5t-34.5 88.5zM449 1365v-855
q0 -129 70 -197t189 -68q118 0 188 68.5t70 196.5v855h305v-892q0 -227 -153 -362.5t-410 -135.5t-410.5 136.5t-153.5 362.5v891h305z" />
    <glyph glyph-name="Yacute" unicode="&#xdd;" horiz-adv-x="1216" 
d="M756 0h-305v481l-457 884h336l271 -564h12l274 564h326l-457 -876v-489zM423 1501l275 230h309l-310 -230h-274z" />
    <glyph glyph-name="Thorn" unicode="&#xde;" horiz-adv-x="1257" 
d="M160 1365h303v-213h252q148 0 256.5 -61t161.5 -163t53 -233q0 -202 -125 -326.5t-349 -124.5h-248v-244h-304v1365zM463 903v-416h166q247 0 247 208q0 104 -59.5 156t-167.5 52h-186z" />
    <glyph glyph-name="germandbls" unicode="&#xdf;" horiz-adv-x="1375" 
d="M448 0h-297v1049q0 101 40 179t110 125.5t159.5 71.5t194.5 24q226 0 363 -102.5t136 -263.5q0 -67 -21 -124.5t-55.5 -96t-74 -63t-80.5 -32.5v-17q67 -1 130 -24.5t114.5 -67t82.5 -113t31 -155.5q0 -100 -39.5 -179t-108 -128t-156.5 -74t-190 -25q-114 0 -184 18v244
q50 -19 133 -19q107 0 174 46t67 135q0 91 -75.5 139t-195.5 48h-80v252h47q77 0 134.5 50t57.5 128q0 77 -53 126t-151 49q-213 0 -213 -219v-981z" />
    <glyph glyph-name="agrave" unicode="&#xe0;" horiz-adv-x="1157" 
d="M441 -16q-158 0 -254.5 87.5t-96.5 237.5q0 148 99 234.5t282 86.5h252v90q0 65 -42.5 99t-116.5 34q-70 0 -109 -28.5t-48 -77.5h-279q4 68 30 125.5t76 106t136 76.5t199 28q96 0 174.5 -20t141 -62.5t97 -116.5t34.5 -174v-710h-279v132h-14q-33 -63 -103 -105.5
t-179 -42.5zM541 203q75 0 128.5 42t53.5 106v106h-180q-77 0 -118.5 -34t-41.5 -90q0 -61 46 -95.5t112 -34.5zM713 1236h-215l-280 352h258z" />
    <glyph glyph-name="aacute" unicode="&#xe1;" horiz-adv-x="1157" 
d="M441 -16q-158 0 -254.5 87.5t-96.5 237.5q0 148 99 234.5t282 86.5h252v90q0 65 -42.5 99t-116.5 34q-70 0 -109 -28.5t-48 -77.5h-279q4 68 30 125.5t76 106t136 76.5t199 28q96 0 174.5 -20t141 -62.5t97 -116.5t34.5 -174v-710h-279v132h-14q-33 -63 -103 -105.5
t-179 -42.5zM541 203q75 0 128.5 42t53.5 106v106h-180q-77 0 -118.5 -34t-41.5 -90q0 -61 46 -95.5t112 -34.5zM479 1236l237 352h258l-280 -352h-215z" />
    <glyph glyph-name="acircumflex" unicode="&#xe2;" horiz-adv-x="1157" 
d="M441 -16q-158 0 -254.5 87.5t-96.5 237.5q0 148 99 234.5t282 86.5h252v90q0 65 -42.5 99t-116.5 34q-70 0 -109 -28.5t-48 -77.5h-279q4 68 30 125.5t76 106t136 76.5t199 28q96 0 174.5 -20t141 -62.5t97 -116.5t34.5 -174v-710h-279v132h-14q-33 -63 -103 -105.5
t-179 -42.5zM541 203q75 0 128.5 42t53.5 106v106h-180q-77 0 -118.5 -34t-41.5 -90q0 -61 46 -95.5t112 -34.5zM217 1233l254 344h215l242 -344h-229l-117 197h-11l-131 -197h-223z" />
    <glyph glyph-name="atilde" unicode="&#xe3;" horiz-adv-x="1157" 
d="M441 -16q-158 0 -254.5 87.5t-96.5 237.5q0 148 99 234.5t282 86.5h252v90q0 65 -42.5 99t-116.5 34q-70 0 -109 -28.5t-48 -77.5h-279q4 68 30 125.5t76 106t136 76.5t199 28q96 0 174.5 -20t141 -62.5t97 -116.5t34.5 -174v-710h-279v132h-14q-33 -63 -103 -105.5
t-179 -42.5zM541 203q75 0 128.5 42t53.5 106v106h-180q-77 0 -118.5 -34t-41.5 -90q0 -61 46 -95.5t112 -34.5zM558 1245q-13 15 -21 23t-25.5 17.5t-36.5 9.5q-64 0 -70 -99h-157q0 121 55.5 203.5t156.5 82.5q48 0 83 -18t70 -58q4 -4 18 -19t20 -20.5t19.5 -11.5
t28.5 -6q32 0 48 34.5t18 82.5h156q0 -118 -61.5 -203.5t-154.5 -85.5q-90 0 -147 68z" />
    <glyph glyph-name="adieresis" unicode="&#xe4;" horiz-adv-x="1157" 
d="M441 -16q-158 0 -254.5 87.5t-96.5 237.5q0 148 99 234.5t282 86.5h252v90q0 65 -42.5 99t-116.5 34q-70 0 -109 -28.5t-48 -77.5h-279q4 68 30 125.5t76 106t136 76.5t199 28q96 0 174.5 -20t141 -62.5t97 -116.5t34.5 -174v-710h-279v132h-14q-33 -63 -103 -105.5
t-179 -42.5zM541 203q75 0 128.5 42t53.5 106v106h-180q-77 0 -118.5 -34t-41.5 -90q0 -61 46 -95.5t112 -34.5zM239 1324q0 58 37 94t97 36q61 0 98 -36t37 -94t-37 -93.5t-98 -35.5q-60 0 -97 35.5t-37 93.5zM654 1324q0 58 36.5 94t95.5 36q62 0 99.5 -35.5t37.5 -94.5
q0 -58 -37 -93.5t-100 -35.5q-59 0 -95.5 35.5t-36.5 93.5z" />
    <glyph glyph-name="aring" unicode="&#xe5;" horiz-adv-x="1157" 
d="M441 -16q-158 0 -254.5 87.5t-96.5 237.5q0 148 99 234.5t282 86.5h252v90q0 65 -42.5 99t-116.5 34q-70 0 -109 -28.5t-48 -77.5h-279q4 68 30 125.5t76 106t136 76.5t199 28q96 0 174.5 -20t141 -62.5t97 -116.5t34.5 -174v-710h-279v132h-14q-33 -63 -103 -105.5
t-179 -42.5zM541 203q75 0 128.5 42t53.5 106v106h-180q-77 0 -118.5 -34t-41.5 -90q0 -61 46 -95.5t112 -34.5zM578 1179q-95 0 -159 62t-64 158t63.5 157t159.5 61q95 0 158.5 -61t63.5 -157t-63.5 -158t-158.5 -62zM486 1398q0 -39 26 -64.5t65 -25.5t65 25.5t26 64.5
t-26 64.5t-65 25.5t-65 -25.5t-26 -64.5z" />
    <glyph glyph-name="ae" unicode="&#xe6;" horiz-adv-x="1803" 
d="M1245 -20q-151 0 -250 51.5t-145 140.5h-15q-48 -82 -141.5 -137t-225.5 -55q-174 0 -275.5 87.5t-101.5 240.5q0 150 100.5 236t284.5 86h251v90q0 65 -42.5 99t-116.5 34q-71 0 -111 -29t-48 -77h-279q4 68 30 126.5t77 107t137.5 77t199.5 28.5q104 0 193 -34t136 -90
h16q45 57 129 90.5t183 33.5q215 0 345.5 -134.5t130.5 -364.5v-119h-670v-59q0 -89 58 -142t148 -53q75 0 124.5 31t56.5 82h275q-3 -57 -30.5 -115t-79.5 -111.5t-141.5 -87t-202.5 -33.5zM1233 861q-85 0 -140.5 -56t-55.5 -145v-14h385v10q0 94 -51 149.5t-138 55.5z
M545 203q75 0 128.5 42t53.5 106v106h-178q-79 0 -122.5 -34t-43.5 -90q0 -61 47.5 -95.5t114.5 -34.5z" />
    <glyph glyph-name="ccedilla" unicode="&#xe7;" horiz-adv-x="1125" 
d="M571 -481q-86 -1 -145 16v132q47 -14 110 -14q108 0 108 55q0 32 -29.5 44t-96.5 12h-56v112l43 110q-190 22 -298.5 151.5t-108.5 346.5v109q0 223 130.5 358.5t354.5 135.5q208 0 328.5 -112.5t122.5 -287.5h-270q-5 64 -48 111t-124 47q-93 0 -145 -68.5t-52 -185.5
v-104q0 -125 52.5 -193.5t144.5 -68.5q157 0 176 148h270q-3 -165 -100 -265t-266 -121l-39 -98q87 0 138 -46t51 -125q0 -99 -67 -148t-184 -51z" />
    <glyph glyph-name="egrave" unicode="&#xe8;" horiz-adv-x="1158" 
d="M714 1236h-215l-280 352h258zM593 -20q-230 0 -364 129.5t-134 372.5v105q0 121 37.5 217.5t103.5 157.5t153.5 93t189.5 32q215 0 348 -135t133 -365v-119h-676v-48q0 -93 57 -149.5t150 -56.5q76 0 127 31.5t58 81.5h275q-3 -45 -20 -91t-53.5 -92.5t-88 -82.5
t-128.5 -58.5t-168 -22.5zM384 646h390v7q0 94 -52.5 151t-140.5 57t-142.5 -57.5t-54.5 -150.5v-7z" />
    <glyph glyph-name="eacute" unicode="&#xe9;" horiz-adv-x="1158" 
d="M480 1236l237 352h258l-280 -352h-215zM593 -20q-230 0 -364 129.5t-134 372.5v105q0 121 37.5 217.5t103.5 157.5t153.5 93t189.5 32q215 0 348 -135t133 -365v-119h-676v-48q0 -93 57 -149.5t150 -56.5q76 0 127 31.5t58 81.5h275q-3 -45 -20 -91t-53.5 -92.5
t-88 -82.5t-128.5 -58.5t-168 -22.5zM384 646h390v7q0 94 -52.5 151t-140.5 57t-142.5 -57.5t-54.5 -150.5v-7z" />
    <glyph glyph-name="ecircumflex" unicode="&#xea;" horiz-adv-x="1158" 
d="M218 1233l254 344h215l242 -344h-229l-117 197h-11l-131 -197h-223zM593 -20q-230 0 -364 129.5t-134 372.5v105q0 121 37.5 217.5t103.5 157.5t153.5 93t189.5 32q215 0 348 -135t133 -365v-119h-676v-48q0 -93 57 -149.5t150 -56.5q76 0 127 31.5t58 81.5h275
q-3 -45 -20 -91t-53.5 -92.5t-88 -82.5t-128.5 -58.5t-168 -22.5zM384 646h390v7q0 94 -52.5 151t-140.5 57t-142.5 -57.5t-54.5 -150.5v-7z" />
    <glyph glyph-name="edieresis" unicode="&#xeb;" horiz-adv-x="1158" 
d="M593 -20q-230 0 -364 129.5t-134 372.5v105q0 121 37.5 217.5t103.5 157.5t153.5 93t189.5 32q215 0 348 -135t133 -365v-119h-676v-48q0 -93 57 -149.5t150 -56.5q76 0 127 31.5t58 81.5h275q-3 -45 -20 -91t-53.5 -92.5t-88 -82.5t-128.5 -58.5t-168 -22.5zM384 646
h390v7q0 94 -52.5 151t-140.5 57t-142.5 -57.5t-54.5 -150.5v-7zM240 1324q0 58 37 94t97 36q61 0 98 -36t37 -94t-37 -93.5t-98 -35.5q-60 0 -97 35.5t-37 93.5zM655 1324q0 58 36.5 94t95.5 36q62 0 99.5 -35.5t37.5 -94.5q0 -58 -37 -93.5t-100 -35.5q-59 0 -95.5 35.5
t-36.5 93.5z" />
    <glyph glyph-name="igrave" unicode="&#xec;" horiz-adv-x="622" 
d="M453 1236h-215l-280 352h258zM161 0v1067h296v-1067h-296z" />
    <glyph glyph-name="iacute" unicode="&#xed;" horiz-adv-x="622" 
d="M219 1236l237 352h258l-280 -352h-215zM161 0v1067h296v-1067h-296z" />
    <glyph glyph-name="icircumflex" unicode="&#xee;" horiz-adv-x="622" 
d="M-43 1233l254 344h215l242 -344h-229l-117 197h-11l-131 -197h-223zM161 0v1067h296v-1067h-296z" />
    <glyph glyph-name="idieresis" unicode="&#xef;" horiz-adv-x="622" 
d="M161 0v1067h296v-1067h-296zM-21 1324q0 58 37 94t97 36q61 0 98 -36t37 -94t-37 -93.5t-98 -35.5q-60 0 -97 35.5t-37 93.5zM394 1324q0 58 36.5 94t95.5 36q62 0 99.5 -35.5t37.5 -94.5q0 -58 -37 -93.5t-100 -35.5q-59 0 -95.5 35.5t-36.5 93.5z" />
    <glyph glyph-name="eth" unicode="&#xf0;" horiz-adv-x="1193" 
d="M596 -20q-229 0 -363 133.5t-134 375.5v47q0 227 115 365t311 138q152 0 227 -85h14q-7 36 -14 53q-28 97 -129 211l-275 -109l-54 141l217 84q-78 72 -217 176l298 36q85 -39 164 -106l237 93l57 -139l-176 -68q102 -119 161.5 -280t59.5 -354v-191q0 -244 -134 -382.5
t-365 -138.5zM598 806q-94 0 -150.5 -68.5t-56.5 -190.5v-64q0 -124 55.5 -191.5t151.5 -67.5q95 0 150.5 67.5t55.5 191.5v69q0 124 -55.5 189t-150.5 65z" />
    <glyph glyph-name="ntilde" unicode="&#xf1;" horiz-adv-x="1256" 
d="M608 1245q-13 15 -21 23t-25.5 17.5t-36.5 9.5q-64 0 -70 -99h-157q0 121 55.5 203.5t156.5 82.5q48 0 83 -18t70 -58q4 -4 18 -19t20 -20.5t19.5 -11.5t28.5 -6q32 0 48 34.5t18 82.5h156q0 -118 -61.5 -203.5t-154.5 -85.5q-90 0 -147 68zM142 0v1067h288v-185h15
q11 35 32.5 67t57.5 64t94.5 51t130.5 19q164 0 258.5 -96t94.5 -281v-706h-296v624q0 106 -49 153t-128 47q-93 0 -147.5 -62t-54.5 -171v-591h-296z" />
    <glyph glyph-name="ograve" unicode="&#xf2;" horiz-adv-x="1193" 
d="M732 1236h-215l-280 352h258zM596 1087q226 0 361.5 -136.5t135.5 -365.5v-95q0 -242 -133.5 -376t-363.5 -134q-232 0 -365.5 133.5t-133.5 375.5v94q0 227 136.5 365.5t362.5 138.5zM595 852q-97 0 -148 -77t-51 -191v-100q0 -112 49.5 -190t149.5 -78q68 0 114 39.5
t65 98t19 130.5v100q0 115 -50 191.5t-148 76.5z" />
    <glyph glyph-name="oacute" unicode="&#xf3;" horiz-adv-x="1193" 
d="M498 1236l237 352h258l-280 -352h-215zM596 1087q226 0 361.5 -136.5t135.5 -365.5v-95q0 -242 -133.5 -376t-363.5 -134q-232 0 -365.5 133.5t-133.5 375.5v94q0 227 136.5 365.5t362.5 138.5zM595 852q-97 0 -148 -77t-51 -191v-100q0 -112 49.5 -190t149.5 -78
q68 0 114 39.5t65 98t19 130.5v100q0 115 -50 191.5t-148 76.5z" />
    <glyph glyph-name="ocircumflex" unicode="&#xf4;" horiz-adv-x="1193" 
d="M236 1233l254 344h215l242 -344h-229l-117 197h-11l-131 -197h-223zM596 1087q226 0 361.5 -136.5t135.5 -365.5v-95q0 -242 -133.5 -376t-363.5 -134q-232 0 -365.5 133.5t-133.5 375.5v94q0 227 136.5 365.5t362.5 138.5zM595 852q-97 0 -148 -77t-51 -191v-100
q0 -112 49.5 -190t149.5 -78q68 0 114 39.5t65 98t19 130.5v100q0 115 -50 191.5t-148 76.5z" />
    <glyph glyph-name="otilde" unicode="&#xf5;" horiz-adv-x="1193" 
d="M577 1245q-13 15 -21 23t-25.5 17.5t-36.5 9.5q-64 0 -70 -99h-157q0 121 55.5 203.5t156.5 82.5q48 0 83 -18t70 -58q4 -4 18 -19t20 -20.5t19.5 -11.5t28.5 -6q32 0 48 34.5t18 82.5h156q0 -118 -61.5 -203.5t-154.5 -85.5q-90 0 -147 68zM596 1087q226 0 361.5 -136.5
t135.5 -365.5v-95q0 -242 -133.5 -376t-363.5 -134q-232 0 -365.5 133.5t-133.5 375.5v94q0 227 136.5 365.5t362.5 138.5zM595 852q-97 0 -148 -77t-51 -191v-100q0 -112 49.5 -190t149.5 -78q68 0 114 39.5t65 98t19 130.5v100q0 115 -50 191.5t-148 76.5z" />
    <glyph glyph-name="odieresis" unicode="&#xf6;" horiz-adv-x="1193" 
d="M258 1324q0 58 37 94t97 36q61 0 98 -36t37 -94t-37 -93.5t-98 -35.5q-60 0 -97 35.5t-37 93.5zM673 1324q0 58 36.5 94t95.5 36q62 0 99.5 -35.5t37.5 -94.5q0 -58 -37 -93.5t-100 -35.5q-59 0 -95.5 35.5t-36.5 93.5zM596 1087q226 0 361.5 -136.5t135.5 -365.5v-95
q0 -242 -133.5 -376t-363.5 -134q-232 0 -365.5 133.5t-133.5 375.5v94q0 227 136.5 365.5t362.5 138.5zM595 852q-97 0 -148 -77t-51 -191v-100q0 -112 49.5 -190t149.5 -78q68 0 114 39.5t65 98t19 130.5v100q0 115 -50 191.5t-148 76.5z" />
    <glyph glyph-name="divide" unicode="&#xf7;" 
d="M1104 471h-970v226h970v-226zM446 1003q0 72 47.5 117.5t117.5 45.5q71 0 119 -45.5t48 -117.5q0 -73 -47.5 -118t-119.5 -45q-70 0 -117.5 45t-47.5 118zM452 165q0 73 47.5 118.5t117.5 45.5q71 0 119 -46t48 -118t-47.5 -116.5t-119.5 -44.5q-70 0 -117.5 44.5
t-47.5 116.5z" />
    <glyph glyph-name="oslash" unicode="&#xf8;" horiz-adv-x="1193" 
d="M455 277q54 -67 142 -67q103 0 154.5 80t51.5 195v113q0 40 -16 70zM391 474q0 -48 15 -75l332 396q-52 67 -141 67q-101 0 -153.5 -79t-52.5 -196v-113zM598 -20q-178 0 -302 84l-105 -124l-108 95l110 130q-94 130 -94 324v94q0 227 136.5 365.5t362.5 138.5
q171 0 296 -86l101 120l114 -96l-109 -129q95 -129 95 -311v-95q0 -242 -133.5 -376t-363.5 -134z" />
    <glyph glyph-name="ugrave" unicode="&#xf9;" horiz-adv-x="1253" 
d="M761 1236h-215l-280 352h258zM1105 1067v-1067h-289v178h-15q-16 -46 -51 -87.5t-104 -74t-156 -32.5q-166 0 -260 92.5t-94 278.5v712h296v-633q0 -192 177 -192q84 0 141.5 54.5t57.5 146.5v624h297z" />
    <glyph glyph-name="uacute" unicode="&#xfa;" horiz-adv-x="1253" 
d="M527 1236l237 352h258l-280 -352h-215zM1105 1067v-1067h-289v178h-15q-16 -46 -51 -87.5t-104 -74t-156 -32.5q-166 0 -260 92.5t-94 278.5v712h296v-633q0 -192 177 -192q84 0 141.5 54.5t57.5 146.5v624h297z" />
    <glyph glyph-name="ucircumflex" unicode="&#xfb;" horiz-adv-x="1253" 
d="M265 1233l254 344h215l242 -344h-229l-117 197h-11l-131 -197h-223zM1105 1067v-1067h-289v178h-15q-16 -46 -51 -87.5t-104 -74t-156 -32.5q-166 0 -260 92.5t-94 278.5v712h296v-633q0 -192 177 -192q84 0 141.5 54.5t57.5 146.5v624h297z" />
    <glyph glyph-name="udieresis" unicode="&#xfc;" horiz-adv-x="1253" 
d="M1105 1067v-1067h-289v178h-15q-16 -46 -51 -87.5t-104 -74t-156 -32.5q-166 0 -260 92.5t-94 278.5v712h296v-633q0 -192 177 -192q84 0 141.5 54.5t57.5 146.5v624h297zM287 1324q0 58 37 94t97 36q61 0 98 -36t37 -94t-37 -93.5t-98 -35.5q-60 0 -97 35.5t-37 93.5z
M702 1324q0 58 36.5 94t95.5 36q62 0 99.5 -35.5t37.5 -94.5q0 -58 -37 -93.5t-100 -35.5q-59 0 -95.5 35.5t-36.5 93.5z" />
    <glyph glyph-name="yacute" unicode="&#xfd;" horiz-adv-x="1151" 
d="M1102 1067q-333 -1003 -338 -1018l-27 -72q-31 -84 -66 -143t-89 -109t-133 -75t-183 -25q-96 0 -159 13v218q25 -7 90 -7q95 0 137 31.5t52 97.5l8 26l-360 1063h327l204 -810h12l211 810h314zM476 1236l237 352h258l-280 -352h-215z" />
    <glyph glyph-name="thorn" unicode="&#xfe;" horiz-adv-x="1254" 
d="M758 -12q-116 0 -192 48.5t-109 129.5h-14v-514h-297l-1 1785h293l1 -539h15q30 82 110 131.5t197 49.5q182 0 287.5 -125.5t105.5 -358.5v-121q0 -233 -106.5 -359.5t-289.5 -126.5zM648 231q92 0 146.5 66.5t54.5 195.5v81q0 128 -54 194.5t-149 66.5
q-94 0 -148.5 -65.5t-54.5 -185.5v-109q0 -114 56.5 -179t148.5 -65z" />
    <glyph glyph-name="ydieresis" unicode="&#xff;" horiz-adv-x="1151" 
d="M1102 1067q-333 -1003 -338 -1018l-27 -72q-31 -84 -66 -143t-89 -109t-133 -75t-183 -25q-96 0 -159 13v218q25 -7 90 -7q95 0 137 31.5t52 97.5l8 26l-360 1063h327l204 -810h12l211 810h314zM236 1324q0 58 37 94t97 36q61 0 98 -36t37 -94t-37 -93.5t-98 -35.5
q-60 0 -97 35.5t-37 93.5zM651 1324q0 58 36.5 94t95.5 36q62 0 99.5 -35.5t37.5 -94.5q0 -58 -37 -93.5t-100 -35.5q-59 0 -95.5 35.5t-36.5 93.5z" />
    <glyph glyph-name="Amacron" unicode="&#x100;" horiz-adv-x="1324" 
d="M331 0h-304l448 1365h366l445 -1365h-326l-96 318h-436zM655 1074h-14l-154 -522h320zM969 1489h-614v156h614v-156z" />
    <glyph glyph-name="amacron" unicode="&#x101;" horiz-adv-x="1157" 
d="M441 -16q-158 0 -254.5 87.5t-96.5 237.5q0 148 99 234.5t282 86.5h252v90q0 65 -42.5 99t-116.5 34q-70 0 -109 -28.5t-48 -77.5h-279q4 68 30 125.5t76 106t136 76.5t199 28q96 0 174.5 -20t141 -62.5t97 -116.5t34.5 -174v-710h-279v132h-14q-33 -63 -103 -105.5
t-179 -42.5zM541 203q75 0 128.5 42t53.5 106v106h-180q-77 0 -118.5 -34t-41.5 -90q0 -61 46 -95.5t112 -34.5zM888 1225h-608v167h608v-167z" />
    <glyph glyph-name="Abreve" unicode="&#x102;" horiz-adv-x="1324" 
d="M331 0h-304l448 1365h366l445 -1365h-326l-96 318h-436zM655 1074h-14l-154 -522h320zM319 1769h170q0 -68 43.5 -106.5t129.5 -38.5t129.5 38.5t43.5 106.5h167q0 -139 -89.5 -221.5t-250.5 -82.5t-252 82.5t-91 221.5z" />
    <glyph glyph-name="abreve" unicode="&#x103;" horiz-adv-x="1157" 
d="M441 -16q-158 0 -254.5 87.5t-96.5 237.5q0 148 99 234.5t282 86.5h252v90q0 65 -42.5 99t-116.5 34q-70 0 -109 -28.5t-48 -77.5h-279q4 68 30 125.5t76 106t136 76.5t199 28q96 0 174.5 -20t141 -62.5t97 -116.5t34.5 -174v-710h-279v132h-14q-33 -63 -103 -105.5
t-179 -42.5zM541 203q75 0 128.5 42t53.5 106v106h-180q-77 0 -118.5 -34t-41.5 -90q0 -61 46 -95.5t112 -34.5zM268 1511h169q0 -69 40 -116.5t118 -47.5t118 47.5t40 116.5h166q0 -138 -86 -232t-238 -94q-153 0 -240.5 94t-86.5 232z" />
    <glyph glyph-name="Aogonek" unicode="&#x104;" horiz-adv-x="1324" 
d="M336 0h-304l448 1365h366l431 -1317q-70 -31 -112.5 -74t-42.5 -91q0 -42 32 -68t87 -26q48 0 76 7v-165q-50 -22 -147 -22q-109 0 -182 52t-73 151q0 112 109 193v11h-66l-89 302h-436zM659 1073l-12 1l-155 -521h321z" />
    <glyph glyph-name="aogonek" unicode="&#x105;" horiz-adv-x="1157" 
d="M1031 -369q-68 -22 -145 -22q-105 0 -178 52.5t-73 155.5q0 120 120 196v119h-17q-34 -65 -105.5 -106.5t-182.5 -41.5q-158 0 -257.5 88.5t-99.5 238.5q0 147 99.5 233t280.5 86h253v90q0 65 -42 99t-117 34q-70 0 -109 -28.5t-48 -77.5h-279q4 69 30.5 127.5t77.5 106
t136.5 75t198.5 27.5q95 0 173 -20t140.5 -62.5t97 -116.5t34.5 -174v-661q-69 -25 -122.5 -67.5t-53.5 -99.5q0 -43 32.5 -67t83.5 -24q39 0 72 7v-167zM544 203q75 0 128.5 42.5t53.5 106.5v105h-179q-78 0 -119.5 -33.5t-41.5 -90.5q0 -61 46 -95.5t112 -34.5z" />
    <glyph glyph-name="Cacute" unicode="&#x106;" horiz-adv-x="1338" 
d="M494 1501l275 230h309l-310 -230h-274zM415 757v-154q0 -177 73.5 -268.5t203.5 -91.5q120 0 186.5 71t66.5 180h291v-39q0 -99 -37.5 -186t-106.5 -152.5t-173.5 -103.5t-231.5 -38q-275 0 -428.5 166.5t-153.5 462.5v154q0 294 154.5 463t428.5 169q249 0 398.5 -139.5
t149.5 -351.5v-37h-291q0 109 -67.5 184.5t-187.5 75.5q-128 0 -201.5 -94t-73.5 -271z" />
    <glyph glyph-name="cacute" unicode="&#x107;" horiz-adv-x="1125" 
d="M95 484v109q0 223 130.5 358.5t354.5 135.5q208 0 328.5 -112.5t122.5 -287.5h-270q-5 64 -48 111t-124 47q-93 0 -145 -68.5t-52 -185.5v-104q0 -125 52.5 -193.5t144.5 -68.5q157 0 176 148h270q-3 -189 -126 -291t-330 -102q-223 0 -353.5 132t-130.5 372zM463 1236
l237 352h258l-280 -352h-215z" />
    <glyph glyph-name="Ccircumflex" unicode="&#x108;" horiz-adv-x="1338" 
d="M415 757v-154q0 -177 73.5 -268.5t203.5 -91.5q120 0 186.5 71t66.5 180h291v-39q0 -99 -37.5 -186t-106.5 -152.5t-173.5 -103.5t-231.5 -38q-275 0 -428.5 166.5t-153.5 462.5v154q0 294 154.5 463t428.5 169q249 0 398.5 -139.5t149.5 -351.5v-37h-291
q0 109 -67.5 184.5t-187.5 75.5q-128 0 -201.5 -94t-73.5 -271zM315 1486l268 250h210l255 -250h-230l-126 122h-15l-134 -122h-228z" />
    <glyph glyph-name="ccircumflex" unicode="&#x109;" horiz-adv-x="1125" 
d="M201 1233l254 344h215l242 -344h-229l-117 197h-11l-131 -197h-223zM95 484v109q0 223 130.5 358.5t354.5 135.5q208 0 328.5 -112.5t122.5 -287.5h-270q-5 64 -48 111t-124 47q-93 0 -145 -68.5t-52 -185.5v-104q0 -125 52.5 -193.5t144.5 -68.5q157 0 176 148h270
q-3 -189 -126 -291t-330 -102q-223 0 -353.5 132t-130.5 372z" />
    <glyph glyph-name="Cdotaccent" unicode="&#x10a;" horiz-adv-x="1338" 
d="M415 757v-154q0 -177 73.5 -268.5t203.5 -91.5q120 0 186.5 71t66.5 180h291v-39q0 -99 -37.5 -186t-106.5 -152.5t-173.5 -103.5t-231.5 -38q-275 0 -428.5 166.5t-153.5 462.5v154q0 294 154.5 463t428.5 169q249 0 398.5 -139.5t149.5 -351.5v-37h-291
q0 109 -67.5 184.5t-187.5 75.5q-128 0 -201.5 -94t-73.5 -271zM549 1608q0 60 36 98.5t94 38.5t97 -38.5t39 -98.5q0 -59 -39 -97t-97 -38t-94 37.5t-36 97.5z" />
    <glyph glyph-name="cdotaccent" unicode="&#x10b;" horiz-adv-x="1125" 
d="M95 484v109q0 223 130.5 358.5t354.5 135.5q208 0 328.5 -112.5t122.5 -287.5h-270q-5 64 -48 111t-124 47q-93 0 -145 -68.5t-52 -185.5v-104q0 -125 52.5 -193.5t144.5 -68.5q157 0 176 148h270q-3 -189 -126 -291t-330 -102q-223 0 -353.5 132t-130.5 372zM432 1310
q0 60 36 98.5t94 38.5t97 -38.5t39 -98.5q0 -59 -39 -97t-97 -38t-94 37.5t-36 97.5z" />
    <glyph glyph-name="Ccaron" unicode="&#x10c;" horiz-adv-x="1338" 
d="M415 757v-154q0 -177 73.5 -268.5t203.5 -91.5q120 0 186.5 71t66.5 180h291v-39q0 -99 -37.5 -186t-106.5 -152.5t-173.5 -103.5t-231.5 -38q-275 0 -428.5 166.5t-153.5 462.5v154q0 294 154.5 463t428.5 169q249 0 398.5 -139.5t149.5 -351.5v-37h-291
q0 109 -67.5 184.5t-187.5 75.5q-128 0 -201.5 -94t-73.5 -271zM309 1727h234l131 -115h15l121 115h236l-240 -234h-242z" />
    <glyph glyph-name="ccaron" unicode="&#x10d;" horiz-adv-x="1125" 
d="M205 1540h223l130 -201h11l117 201h229l-241 -345h-216zM95 484v109q0 223 130.5 358.5t354.5 135.5q208 0 328.5 -112.5t122.5 -287.5h-270q-5 64 -48 111t-124 47q-93 0 -145 -68.5t-52 -185.5v-104q0 -125 52.5 -193.5t144.5 -68.5q157 0 176 148h270
q-3 -189 -126 -291t-330 -102q-223 0 -353.5 132t-130.5 372z" />
    <glyph glyph-name="Dcaron" unicode="&#x10e;" horiz-adv-x="1388" 
d="M265 1727h234l131 -115h15l121 115h236l-240 -234h-242zM158 1365h520q162 0 281.5 -48.5t191.5 -139.5t106.5 -212.5t34.5 -276.5t-34.5 -278.5t-106.5 -216.5t-191.5 -143t-281.5 -50h-520v1365zM463 1108v-851h169q84 0 145 20t108 66.5t70.5 130.5t23.5 206
q0 428 -347 428h-169z" />
    <glyph glyph-name="dcaron" unicode="&#x10f;" horiz-adv-x="1500" 
d="M1279 1435h234l-47 -488h-187v488zM488 1080q116 0 195 -49t108 -128h14v534h297v-1437h-294v171h-14q-25 -79 -107 -131t-201 -52q-181 0 -287.5 127t-106.5 354v131q0 226 106.5 353t289.5 127zM597 835q-92 0 -146 -66.5t-54 -190.5v-88q0 -125 54.5 -192t147.5 -67
q94 0 150 66t56 186v109q0 113 -58 178t-150 65z" />
    <glyph glyph-name="Dcroat" unicode="&#x110;" horiz-adv-x="1478" 
d="M768 0h-521v551h-166v278h166v536h521q162 0 281.5 -48.5t191.5 -139.5t106.5 -212.5t34.5 -276.5t-34.5 -278.5t-106.5 -216.5t-191.5 -143t-281.5 -50zM552 264h168q84 0 145 20t108 66.5t70.5 130.5t23.5 206q0 429 -347 429h-168v-287h225v-278h-225v-287z" />
    <glyph glyph-name="dcroat" unicode="&#x111;" horiz-adv-x="1258" 
d="M605 835q-92 0 -146 -66.5t-54 -190.5v-88q0 -126 54.5 -192.5t148.5 -66.5q93 0 149 66t56 186v109q0 113 -57.5 178t-150.5 65zM802 171q-24 -79 -106 -131t-202 -52q-181 0 -287.5 127t-106.5 354v131q0 226 106.5 353t289.5 127q117 0 196 -49t107 -128h14v237h-220
v169h232v147h274v-147h127v-169h-116v-1140h-293v171h-15z" />
    <glyph glyph-name="Emacron" unicode="&#x112;" horiz-adv-x="1185" 
d="M1061 257v-257h-901v1365h901v-257h-599v-302h562v-237h-562v-312h599zM910 1489h-614v156h614v-156z" />
    <glyph glyph-name="emacron" unicode="&#x113;" horiz-adv-x="1158" 
d="M593 -20q-230 0 -364 129.5t-134 372.5v105q0 121 37.5 217.5t103.5 157.5t153.5 93t189.5 32q215 0 348 -135t133 -365v-119h-676v-48q0 -93 57 -149.5t150 -56.5q76 0 127 31.5t58 81.5h275q-3 -45 -20 -91t-53.5 -92.5t-88 -82.5t-128.5 -58.5t-168 -22.5zM384 646
h390v7q0 94 -52.5 151t-140.5 57t-142.5 -57.5t-54.5 -150.5v-7zM889 1225h-608v167h608v-167z" />
    <glyph glyph-name="Ebreve" unicode="&#x114;" horiz-adv-x="1185" 
d="M1061 257v-257h-901v1365h901v-257h-599v-302h562v-237h-562v-312h599zM260 1769h170q0 -68 43.5 -106.5t129.5 -38.5t129.5 38.5t43.5 106.5h167q0 -139 -89.5 -221.5t-250.5 -82.5t-252 82.5t-91 221.5z" />
    <glyph glyph-name="ebreve" unicode="&#x115;" horiz-adv-x="1158" 
d="M593 -20q-230 0 -364 129.5t-134 372.5v105q0 121 37.5 217.5t103.5 157.5t153.5 93t189.5 32q215 0 348 -135t133 -365v-119h-676v-48q0 -93 57 -149.5t150 -56.5q76 0 127 31.5t58 81.5h275q-3 -45 -20 -91t-53.5 -92.5t-88 -82.5t-128.5 -58.5t-168 -22.5zM384 646
h390v7q0 94 -52.5 151t-140.5 57t-142.5 -57.5t-54.5 -150.5v-7zM269 1511h169q0 -69 40 -116.5t118 -47.5t118 47.5t40 116.5h166q0 -138 -86 -232t-238 -94q-153 0 -240.5 94t-86.5 232z" />
    <glyph glyph-name="Edotaccent" unicode="&#x116;" horiz-adv-x="1185" 
d="M473 1608q0 60 36 98.5t94 38.5t97 -38.5t39 -98.5q0 -59 -39 -97t-97 -38t-94 37.5t-36 97.5zM1061 257v-257h-901v1365h901v-257h-599v-302h562v-237h-562v-312h599z" />
    <glyph glyph-name="edotaccent" unicode="&#x117;" horiz-adv-x="1158" 
d="M449 1310q0 60 36 98.5t94 38.5t97 -38.5t39 -98.5q0 -59 -39 -97t-97 -38t-94 37.5t-36 97.5zM593 -20q-230 0 -364 129.5t-134 372.5v105q0 121 37.5 217.5t103.5 157.5t153.5 93t189.5 32q215 0 348 -135t133 -365v-119h-676v-48q0 -93 57 -149.5t150 -56.5
q76 0 127 31.5t58 81.5h275q-3 -45 -20 -91t-53.5 -92.5t-88 -82.5t-128.5 -58.5t-168 -22.5zM384 646h390v7q0 94 -52.5 151t-140.5 57t-142.5 -57.5t-54.5 -150.5v-7z" />
    <glyph glyph-name="Eogonek" unicode="&#x118;" horiz-adv-x="1185" 
d="M1063 -370q-67 -21 -146 -21q-107 0 -178.5 52t-71.5 150q0 106 91 177v12h-596v1365h901v-257h-599v-302h562v-237h-562v-312h599v-204q-75 -17 -132 -61t-57 -108q-1 -45 32 -70t87 -25q40 0 70 7v-166z" />
    <glyph glyph-name="eogonek" unicode="&#x119;" horiz-adv-x="1158" 
d="M997 -201v-169q-60 -21 -143 -21q-116 0 -186 54t-70 146q0 109 97 189l-7 14q-53 -25 -142 -25q-93 0 -173.5 31.5t-142 91.5t-97 155.5t-35.5 216.5v105q0 121 37.5 217.5t103.5 157.5t153.5 93t189.5 32q216 0 348.5 -135t132.5 -365v-119h-676v-48q0 -94 57.5 -150
t153.5 -56q73 0 123.5 31.5t57.5 81.5h273q-7 -54 -29.5 -103t-45 -77.5t-58.5 -66.5q-4 -4 -17.5 -18.5t-17.5 -18.5t-16 -17t-16 -18.5t-13 -17t-12 -18.5t-9 -18t-8 -20t-4 -19.5t-2 -21.5q0 -50 34.5 -76t86.5 -26q40 0 72 8zM387 646h390v7q0 94 -52.5 151t-140.5 57
t-142.5 -57.5t-54.5 -150.5v-7z" />
    <glyph glyph-name="Ecaron" unicode="&#x11a;" horiz-adv-x="1185" 
d="M233 1727h234l131 -115h15l121 115h236l-240 -234h-242zM1061 257v-257h-901v1365h901v-257h-599v-302h562v-237h-562v-312h599z" />
    <glyph glyph-name="ecaron" unicode="&#x11b;" horiz-adv-x="1158" 
d="M222 1540h223l130 -201h11l117 201h229l-241 -345h-216zM593 -20q-230 0 -364 129.5t-134 372.5v105q0 121 37.5 217.5t103.5 157.5t153.5 93t189.5 32q215 0 348 -135t133 -365v-119h-676v-48q0 -93 57 -149.5t150 -56.5q76 0 127 31.5t58 81.5h275q-3 -45 -20 -91
t-53.5 -92.5t-88 -82.5t-128.5 -58.5t-168 -22.5zM384 646h390v7q0 94 -52.5 151t-140.5 57t-142.5 -57.5t-54.5 -150.5v-7z" />
    <glyph glyph-name="Gcircumflex" unicode="&#x11c;" horiz-adv-x="1363" 
d="M326 1486l268 250h210l255 -250h-230l-126 122h-15l-134 -122h-228zM1253 916h-296q-12 95 -83 151.5t-176 56.5q-131 0 -208.5 -90.5t-77.5 -266.5v-162q0 -166 70 -265.5t220 -99.5q119 0 191.5 63.5t72.5 154.5v61h-255v229h544v-266q0 -73 -18 -142.5t-60.5 -136.5
t-105 -117t-159.5 -80.5t-216 -30.5q-151 0 -266 48.5t-185 134.5t-105 198.5t-35 247.5v166q0 282 158.5 451t437.5 169q132 0 238.5 -40.5t172.5 -108t102 -151t39 -174.5z" />
    <glyph glyph-name="gcircumflex" unicode="&#x11d;" horiz-adv-x="1234" 
d="M256 1233l254 344h215l242 -344h-229l-117 197h-11l-131 -197h-223zM587 -171q107 0 160 53.5t53 153.5v151h-15q-31 -74 -109.5 -120.5t-187.5 -46.5q-180 0 -288.5 127.5t-108.5 359.5v85q0 232 108.5 359.5t287.5 127.5q113 0 193.5 -50t108.5 -128h14v166h292v-1056
q0 -90 -29 -160.5t-77.5 -116t-116.5 -75t-140 -41.5t-153 -12q-116 0 -206 26t-144.5 71.5t-83.5 102t-32 122.5h284q10 -47 61 -73t129 -26zM601 835q-95 0 -150.5 -68t-55.5 -190v-74q0 -121 57 -189t150 -68q92 0 145 66.5t53 177.5v99q0 112 -54 179t-145 67z" />
    <glyph glyph-name="Gbreve" unicode="&#x11e;" horiz-adv-x="1363" 
d="M1253 916h-296q-12 95 -83 151.5t-176 56.5q-131 0 -208.5 -90.5t-77.5 -266.5v-162q0 -166 70 -265.5t220 -99.5q119 0 191.5 63.5t72.5 154.5v61h-255v229h544v-266q0 -73 -18 -142.5t-60.5 -136.5t-105 -117t-159.5 -80.5t-216 -30.5q-151 0 -266 48.5t-185 134.5
t-105 198.5t-35 247.5v166q0 282 158.5 451t437.5 169q132 0 238.5 -40.5t172.5 -108t102 -151t39 -174.5zM347 1769h170q0 -68 43.5 -106.5t129.5 -38.5t129.5 38.5t43.5 106.5h167q0 -139 -89.5 -221.5t-250.5 -82.5t-252 82.5t-91 221.5z" />
    <glyph glyph-name="gbreve" unicode="&#x11f;" horiz-adv-x="1234" 
d="M307 1511h169q0 -69 40 -116.5t118 -47.5t118 47.5t40 116.5h166q0 -138 -86 -232t-238 -94q-153 0 -240.5 94t-86.5 232zM587 -171q107 0 160 53.5t53 153.5v151h-15q-31 -74 -109.5 -120.5t-187.5 -46.5q-180 0 -288.5 127.5t-108.5 359.5v85q0 232 108.5 359.5
t287.5 127.5q113 0 193.5 -50t108.5 -128h14v166h292v-1056q0 -90 -29 -160.5t-77.5 -116t-116.5 -75t-140 -41.5t-153 -12q-116 0 -206 26t-144.5 71.5t-83.5 102t-32 122.5h284q10 -47 61 -73t129 -26zM601 835q-95 0 -150.5 -68t-55.5 -190v-74q0 -121 57 -189t150 -68
q92 0 145 66.5t53 177.5v99q0 112 -54 179t-145 67z" />
    <glyph glyph-name="Gdotaccent" unicode="&#x120;" horiz-adv-x="1363" 
d="M560 1608q0 60 36 98.5t94 38.5t97 -38.5t39 -98.5q0 -59 -39 -97t-97 -38t-94 37.5t-36 97.5zM1253 916h-296q-12 95 -83 151.5t-176 56.5q-131 0 -208.5 -90.5t-77.5 -266.5v-162q0 -166 70 -265.5t220 -99.5q119 0 191.5 63.5t72.5 154.5v61h-255v229h544v-266
q0 -73 -18 -142.5t-60.5 -136.5t-105 -117t-159.5 -80.5t-216 -30.5q-151 0 -266 48.5t-185 134.5t-105 198.5t-35 247.5v166q0 282 158.5 451t437.5 169q132 0 238.5 -40.5t172.5 -108t102 -151t39 -174.5z" />
    <glyph glyph-name="gdotaccent" unicode="&#x121;" horiz-adv-x="1234" 
d="M487 1310q0 60 36 98.5t94 38.5t97 -38.5t39 -98.5q0 -59 -39 -97t-97 -38t-94 37.5t-36 97.5zM587 -171q107 0 160 53.5t53 153.5v151h-15q-31 -74 -109.5 -120.5t-187.5 -46.5q-180 0 -288.5 127.5t-108.5 359.5v85q0 232 108.5 359.5t287.5 127.5q113 0 193.5 -50
t108.5 -128h14v166h292v-1056q0 -90 -29 -160.5t-77.5 -116t-116.5 -75t-140 -41.5t-153 -12q-116 0 -206 26t-144.5 71.5t-83.5 102t-32 122.5h284q10 -47 61 -73t129 -26zM601 835q-95 0 -150.5 -68t-55.5 -190v-74q0 -121 57 -189t150 -68q92 0 145 66.5t53 177.5v99
q0 112 -54 179t-145 67z" />
    <glyph glyph-name="Gcommaaccent" unicode="&#x122;" horiz-adv-x="1363" 
d="M699 -481h-192l84 326h218zM1253 916h-296q-12 95 -83 151.5t-176 56.5q-131 0 -208.5 -90.5t-77.5 -266.5v-162q0 -166 70 -265.5t220 -99.5q119 0 191.5 63.5t72.5 154.5v61h-255v229h544v-266q0 -73 -18 -142.5t-60.5 -136.5t-105 -117t-159.5 -80.5t-216 -30.5
q-151 0 -266 48.5t-185 134.5t-105 198.5t-35 247.5v166q0 282 158.5 451t437.5 169q132 0 238.5 -40.5t172.5 -108t102 -151t39 -174.5z" />
    <glyph glyph-name="gcommaaccent" unicode="&#x123;" horiz-adv-x="1234" 
d="M587 1595h195l-85 -335h-224zM587 -171q107 0 160 53.5t53 153.5v151h-15q-31 -74 -109.5 -120.5t-187.5 -46.5q-180 0 -288.5 127.5t-108.5 359.5v85q0 232 108.5 359.5t287.5 127.5q113 0 193.5 -50t108.5 -128h14v166h292v-1056q0 -90 -29 -160.5t-77.5 -116
t-116.5 -75t-140 -41.5t-153 -12q-116 0 -206 26t-144.5 71.5t-83.5 102t-32 122.5h284q10 -47 61 -73t129 -26zM601 835q-95 0 -150.5 -68t-55.5 -190v-74q0 -121 57 -189t150 -68q92 0 145 66.5t53 177.5v99q0 112 -54 179t-145 67z" />
    <glyph glyph-name="Hcircumflex" unicode="&#x124;" horiz-adv-x="1464" 
d="M1300 0h-305v561h-532v-561h-305v1365h305v-541h532v541h305v-1365zM368 1486l268 250h210l255 -250h-230l-126 122h-15l-134 -122h-228z" />
    <glyph glyph-name="hcircumflex" unicode="&#x125;" horiz-adv-x="1262" 
d="M146 0v1437h296v-555h15q10 33 31 65t57.5 64t94.5 52t130 20q161 0 256.5 -97t95.5 -281v-705h-297v623q0 106 -50 153.5t-130 47.5q-92 0 -147.5 -62.5t-55.5 -170.5v-591h-296zM-64 1603l254 344h215l242 -344h-229l-117 197h-11l-131 -197h-223z" />
    <glyph glyph-name="Hbar" unicode="&#x126;" horiz-adv-x="1464" 
d="M466 813h532v180h-532v-180zM466 550v-550h-305v993h-88v190h88v182h305v-182h532v182h305v-182h86v-190h-86v-993h-305v550h-532z" />
    <glyph glyph-name="hbar" unicode="&#x127;" horiz-adv-x="1262" 
d="M445 591v-591h-296v1152h-111v170h123v115h274v-115h230v-170h-220v-270h15q10 32 31.5 64.5t58 64.5t94.5 52t129 20q161 0 256.5 -97t95.5 -281v-705h-297v623q0 106 -50 153.5t-130 47.5q-92 0 -147.5 -62.5t-55.5 -170.5z" />
    <glyph glyph-name="Itilde" unicode="&#x128;" horiz-adv-x="624" 
d="M461 0h-305v1365h305v-1365zM297 1507q-4 3 -18 16.5t-21.5 19.5t-21 12t-26.5 6q-63 0 -69 -87h-154q0 92 51.5 162.5t146.5 70.5q53 0 87 -15.5t73 -49.5q5 -4 17.5 -15.5t17.5 -15.5t14.5 -10.5t18.5 -9t19 -2.5q34 0 50 30t18 72h154q0 -100 -57.5 -170t-146.5 -70
q-59 0 -91.5 14.5t-61.5 41.5z" />
    <glyph glyph-name="itilde" unicode="&#x129;" horiz-adv-x="622" 
d="M161 0v1067h296v-1067h-296zM298 1245q-13 15 -21 23t-25.5 17.5t-36.5 9.5q-64 0 -70 -99h-157q0 121 55.5 203.5t156.5 82.5q48 0 83 -18t70 -58q4 -4 18 -19t20 -20.5t19.5 -11.5t28.5 -6q32 0 48 34.5t18 82.5h156q0 -118 -61.5 -203.5t-154.5 -85.5q-90 0 -147 68z
" />
    <glyph glyph-name="Imacron" unicode="&#x12a;" horiz-adv-x="624" 
d="M461 0h-305v1365h305v-1365zM620 1489h-614v156h614v-156z" />
    <glyph glyph-name="imacron" unicode="&#x12b;" horiz-adv-x="622" 
d="M161 0v1067h296v-1067h-296zM628 1225h-608v167h608v-167z" />
    <glyph glyph-name="Ibreve" unicode="&#x12c;" horiz-adv-x="624" 
d="M461 0h-305v1365h305v-1365zM-30 1769h170q0 -68 43.5 -106.5t129.5 -38.5t129.5 38.5t43.5 106.5h167q0 -139 -89.5 -221.5t-250.5 -82.5t-252 82.5t-91 221.5z" />
    <glyph glyph-name="ibreve" unicode="&#x12d;" horiz-adv-x="622" 
d="M161 0v1067h296v-1067h-296zM8 1511h169q0 -69 40 -116.5t118 -47.5t118 47.5t40 116.5h166q0 -138 -86 -232t-238 -94q-153 0 -240.5 94t-86.5 232z" />
    <glyph glyph-name="Iogonek" unicode="&#x12e;" horiz-adv-x="623" 
d="M486 -366q-18 -9 -60.5 -17t-89.5 -8q-119 0 -183.5 57.5t-64.5 149.5q0 117 116 187v10h-45v1352h305v-1312q-167 -73 -167 -172q0 -46 31.5 -70t82.5 -24q48 0 75 9v-162z" />
    <glyph glyph-name="iogonek" unicode="&#x12f;" horiz-adv-x="622" 
d="M470 -204v-168q-53 -19 -144 -19q-132 0 -207.5 54.5t-75.5 155.5q0 121 120 194v1054h296v-1000q-45 -17 -84.5 -39.5t-73 -61.5t-33.5 -82q0 -45 33.5 -70t88.5 -25q50 0 80 7zM130 1373q0 71 49 115.5t131 44.5t131.5 -44.5t49.5 -115.5q0 -70 -49 -114t-132 -44
q-82 0 -131 44t-49 114z" />
    <glyph glyph-name="Idotaccent" unicode="&#x130;" horiz-adv-x="624" 
d="M461 0h-305v1365h305v-1365zM183 1608q0 60 36 98.5t94 38.5t97 -38.5t39 -98.5q0 -59 -39 -97t-97 -38t-94 37.5t-36 97.5z" />
    <glyph glyph-name="dotlessi" unicode="&#x131;" horiz-adv-x="622" 
d="M163 0v1067h296v-1067h-296z" />
    <glyph glyph-name="Jcircumflex" unicode="&#x134;" horiz-adv-x="1135" 
d="M36 431h293q1 -79 48.5 -125t121.5 -46q177 0 177 195v910h305v-908q0 -238 -127.5 -360t-351.5 -122q-115 0 -205.5 37.5t-146.5 101.5t-85 145t-29 172zM473 1486l268 250h210l255 -250h-230l-126 122h-15l-134 -122h-228z" />
    <glyph glyph-name="jcircumflex" unicode="&#x135;" horiz-adv-x="622" 
d="M459 1067v-1073q0 -178 -99.5 -266t-273.5 -88q-80 0 -113 7v219q19 -4 56 -4q68 0 101.5 31.5t33.5 103.5v1070h295zM-39 1220l254 344h215l242 -344h-229l-117 197h-11l-131 -197h-223z" />
    <glyph glyph-name="Kcommaaccent" unicode="&#x136;" horiz-adv-x="1325" 
d="M1289 1365l-479 -591l498 -774h-362l-360 560l-129 -145v-415h-305v1365h305v-584h14l489 584h329zM671 -481h-192l84 326h218z" />
    <glyph glyph-name="kcommaaccent" unicode="&#x137;" horiz-adv-x="1172" 
d="M432 359v-359h-297v1437h297v-795h14l326 425h332l-377 -459l403 -608h-344l-286 434zM608 -481h-192l84 326h218z" />
    <glyph glyph-name="Lacute" unicode="&#x139;" horiz-adv-x="1077" 
d="M129 1501l275 230h309l-310 -230h-274zM1026 270v-270h-866v1365h305v-1095h561z" />
    <glyph glyph-name="lacute" unicode="&#x13a;" horiz-adv-x="602" 
d="M202 1606l237 352h258l-280 -352h-215zM148 0v1437h297v-1437h-297z" />
    <glyph glyph-name="Lcommaaccent" unicode="&#x13b;" horiz-adv-x="1077" 
d="M555 -481h-192l84 326h218zM1026 270v-270h-866v1365h305v-1095h561z" />
    <glyph glyph-name="lcommaaccent" unicode="&#x13c;" horiz-adv-x="602" 
d="M310 -481h-192l84 326h218zM148 0v1437h297v-1437h-297z" />
    <glyph glyph-name="Lcaron" unicode="&#x13d;" horiz-adv-x="1077" 
d="M666 1436h238l-50 -488h-188v488zM1026 270v-270h-866v1365h305v-1095h561z" />
    <glyph glyph-name="lcaron" unicode="&#x13e;" horiz-adv-x="811" 
d="M595 1435h234l-47 -488h-187v488zM144 0v1437h297v-1437h-297z" />
    <glyph glyph-name="Lslash" unicode="&#x141;" horiz-adv-x="1104" 
d="M1056 0h-866v501l-118 -66v264l118 66v600h305v-420l299 165v-266l-299 -164v-410h561v-270z" />
    <glyph glyph-name="lslash" unicode="&#x142;" horiz-adv-x="700" 
d="M499 0h-296v537l-137 -80v248l137 83v649h296v-468l135 82v-264l-135 -80v-707z" />
    <glyph glyph-name="Nacute" unicode="&#x143;" horiz-adv-x="1437" 
d="M534 1501l275 230h309l-310 -230h-274zM447 0h-285v1365h246l568 -820h12v820h286v-1365h-245l-570 827h-12v-827z" />
    <glyph glyph-name="nacute" unicode="&#x144;" horiz-adv-x="1256" 
d="M529 1236l237 352h258l-280 -352h-215zM142 0v1067h288v-185h15q11 35 32.5 67t57.5 64t94.5 51t130.5 19q164 0 258.5 -96t94.5 -281v-706h-296v624q0 106 -49 153t-128 47q-93 0 -147.5 -62t-54.5 -171v-591h-296z" />
    <glyph glyph-name="Ncommaaccent" unicode="&#x145;" horiz-adv-x="1437" 
d="M728 -481h-192l84 326h218zM447 0h-285v1365h246l568 -820h12v820h286v-1365h-245l-570 827h-12v-827z" />
    <glyph glyph-name="ncommaaccent" unicode="&#x146;" horiz-adv-x="1256" 
d="M637 -481h-192l84 326h218zM142 0v1067h288v-185h15q11 35 32.5 67t57.5 64t94.5 51t130.5 19q164 0 258.5 -96t94.5 -281v-706h-296v624q0 106 -49 153t-128 47q-93 0 -147.5 -62t-54.5 -171v-591h-296z" />
    <glyph glyph-name="Ncaron" unicode="&#x147;" horiz-adv-x="1437" 
d="M349 1727h234l131 -115h15l121 115h236l-240 -234h-242zM447 0h-285v1365h246l568 -820h12v820h286v-1365h-245l-570 827h-12v-827z" />
    <glyph glyph-name="ncaron" unicode="&#x148;" horiz-adv-x="1256" 
d="M271 1540h223l130 -201h11l117 201h229l-241 -345h-216zM142 0v1067h288v-185h15q11 35 32.5 67t57.5 64t94.5 51t130.5 19q164 0 258.5 -96t94.5 -281v-706h-296v624q0 106 -49 153t-128 47q-93 0 -147.5 -62t-54.5 -171v-591h-296z" />
    <glyph glyph-name="Omacron" unicode="&#x14c;" horiz-adv-x="1409" 
d="M413 762v-165q0 -175 78 -266.5t210 -91.5t210 91.5t78 266.5v165q0 176 -78.5 270t-209.5 94t-209.5 -94t-78.5 -270zM103 598v160q0 293 159 462.5t440 169.5t439.5 -170t158.5 -462v-160q0 -290 -159 -456.5t-441 -166.5q-281 0 -439 166.5t-158 456.5zM1011 1489
h-614v156h614v-156z" />
    <glyph glyph-name="omacron" unicode="&#x14d;" horiz-adv-x="1193" 
d="M907 1225h-608v167h608v-167zM596 1087q226 0 361.5 -136.5t135.5 -365.5v-95q0 -242 -133.5 -376t-363.5 -134q-232 0 -365.5 133.5t-133.5 375.5v94q0 227 136.5 365.5t362.5 138.5zM595 852q-97 0 -148 -77t-51 -191v-100q0 -112 49.5 -190t149.5 -78q68 0 114 39.5
t65 98t19 130.5v100q0 115 -50 191.5t-148 76.5z" />
    <glyph glyph-name="Obreve" unicode="&#x14e;" horiz-adv-x="1409" 
d="M413 762v-165q0 -175 78 -266.5t210 -91.5t210 91.5t78 266.5v165q0 176 -78.5 270t-209.5 94t-209.5 -94t-78.5 -270zM103 598v160q0 293 159 462.5t440 169.5t439.5 -170t158.5 -462v-160q0 -290 -159 -456.5t-441 -166.5q-281 0 -439 166.5t-158 456.5zM361 1769h170
q0 -68 43.5 -106.5t129.5 -38.5t129.5 38.5t43.5 106.5h167q0 -139 -89.5 -221.5t-250.5 -82.5t-252 82.5t-91 221.5z" />
    <glyph glyph-name="obreve" unicode="&#x14f;" horiz-adv-x="1193" 
d="M287 1511h169q0 -69 40 -116.5t118 -47.5t118 47.5t40 116.5h166q0 -138 -86 -232t-238 -94q-153 0 -240.5 94t-86.5 232zM596 1087q226 0 361.5 -136.5t135.5 -365.5v-95q0 -242 -133.5 -376t-363.5 -134q-232 0 -365.5 133.5t-133.5 375.5v94q0 227 136.5 365.5
t362.5 138.5zM595 852q-97 0 -148 -77t-51 -191v-100q0 -112 49.5 -190t149.5 -78q68 0 114 39.5t65 98t19 130.5v100q0 115 -50 191.5t-148 76.5z" />
    <glyph glyph-name="Ohungarumlaut" unicode="&#x150;" horiz-adv-x="1409" 
d="M350 1501l302 249h258l-340 -249h-220zM761 1501l303 249h258l-340 -249h-221zM413 762v-165q0 -175 78 -266.5t210 -91.5t210 91.5t78 266.5v165q0 176 -78.5 270t-209.5 94t-209.5 -94t-78.5 -270zM103 598v160q0 293 159 462.5t440 169.5t439.5 -170t158.5 -462v-160
q0 -290 -159 -456.5t-441 -166.5q-281 0 -439 166.5t-158 456.5z" />
    <glyph glyph-name="ohungarumlaut" unicode="&#x151;" horiz-adv-x="1193" 
d="M469 1235h-183l248 357h231zM844 1235h-182l247 357h231zM596 1087q226 0 361.5 -136.5t135.5 -365.5v-95q0 -242 -133.5 -376t-363.5 -134q-232 0 -365.5 133.5t-133.5 375.5v94q0 227 136.5 365.5t362.5 138.5zM595 852q-97 0 -148 -77t-51 -191v-100q0 -112 49.5 -190
t149.5 -78q68 0 114 39.5t65 98t19 130.5v100q0 115 -50 191.5t-148 76.5z" />
    <glyph glyph-name="OE" unicode="&#x152;" horiz-adv-x="2018" 
d="M429 762v-167q0 -175 79 -266.5t210 -91.5q133 0 211.5 89.5t78.5 263.5v180q0 174 -79 265t-211 91q-131 0 -210 -94.5t-79 -269.5zM658 -25q-255 0 -402.5 169.5t-147.5 455.5v157q0 301 151 467t400 166q123 0 218.5 -43t146.5 -124h18v142h851v-257h-594v-302h558
v-237h-558v-312h594v-257h-851v145h-18q-52 -79 -146.5 -124.5t-219.5 -45.5z" />
    <glyph glyph-name="oe" unicode="&#x153;" horiz-adv-x="1869" 
d="M1305 -20q-111 0 -204 37.5t-142 98.5h-17q-52 -61 -145 -98.5t-198 -37.5q-232 0 -365.5 133.5t-133.5 375.5v94q0 227 136.5 365.5t362.5 138.5q107 0 200 -38.5t141 -105.5h18q48 65 137.5 104.5t194.5 39.5q216 0 348.5 -135t132.5 -365v-119h-675v-48
q0 -93 57 -149.5t150 -56.5q76 0 126.5 31.5t58.5 81.5h275q-4 -57 -32 -115t-80.5 -111.5t-142.5 -87t-203 -33.5zM598 852q-97 0 -148 -77t-51 -191v-100q0 -112 49.5 -190t149.5 -78q68 0 114 39.5t65 98t19 130.5v100q0 115 -50 191.5t-148 76.5zM1096 646h390v7
q0 94 -52.5 151t-140.5 57q-89 0 -143 -57t-54 -151v-7z" />
    <glyph glyph-name="Racute" unicode="&#x154;" horiz-adv-x="1322" 
d="M458 1501l275 230h309l-310 -230h-274zM720 1365q240 0 366.5 -122.5t126.5 -322.5q0 -80 -24 -148.5t-63 -114.5t-79 -76t-80 -46l273 -535h-339l-235 490h-210v-490h-300v1365h564zM456 719h216q106 0 166 51t60 147q0 99 -62 152t-161 53h-219v-403z" />
    <glyph glyph-name="racute" unicode="&#x155;" horiz-adv-x="863" 
d="M354 1236l237 352h258l-280 -352h-215zM146 0v1067h297v-168h14q19 68 85 126t174 58q53 0 91 -9v-267q-33 12 -112 12q-122 0 -183.5 -63.5t-61.5 -174.5v-581h-304z" />
    <glyph glyph-name="Rcommaaccent" unicode="&#x156;" horiz-adv-x="1322" 
d="M720 1365q240 0 366.5 -122.5t126.5 -322.5q0 -80 -24 -148.5t-63 -114.5t-79 -76t-80 -46l273 -535h-339l-235 490h-210v-490h-300v1365h564zM456 719h216q106 0 166 51t60 147q0 99 -62 152t-161 53h-219v-403zM652 -481h-192l84 326h218z" />
    <glyph glyph-name="rcommaaccent" unicode="&#x157;" horiz-adv-x="863" 
d="M146 0v1067h297v-168h14q19 68 85 126t174 58q53 0 91 -9v-267q-33 12 -112 12q-122 0 -183.5 -63.5t-61.5 -174.5v-581h-304zM391 -481h-192l84 326h218z" />
    <glyph glyph-name="Rcaron" unicode="&#x158;" horiz-adv-x="1322" 
d="M720 1365q240 0 366.5 -122.5t126.5 -322.5q0 -80 -24 -148.5t-63 -114.5t-79 -76t-80 -46l273 -535h-339l-235 490h-210v-490h-300v1365h564zM456 719h216q106 0 166 51t60 147q0 99 -62 152t-161 53h-219v-403zM273 1727h234l131 -115h15l121 115h236l-240 -234h-242z
" />
    <glyph glyph-name="rcaron" unicode="&#x159;" horiz-adv-x="863" 
d="M96 1540h223l130 -201h11l117 201h229l-241 -345h-216zM146 0v1067h297v-168h14q19 68 85 126t174 58q53 0 91 -9v-267q-33 12 -112 12q-122 0 -183.5 -63.5t-61.5 -174.5v-581h-304z" />
    <glyph glyph-name="Sacute" unicode="&#x15a;" horiz-adv-x="1269" 
d="M448 1501l275 230h309l-310 -230h-274zM77 398h291q6 -73 75 -124t189 -51q115 0 176 43.5t61 115.5q0 63 -49 98t-156 58l-201 42q-161 34 -258.5 127.5t-97.5 259.5q0 132 69.5 229.5t187 146t266.5 48.5q232 0 374.5 -118t144.5 -297h-283q-6 71 -67 121t-170 50
q-101 0 -159 -42t-58 -112q0 -108 184 -145l204 -41q63 -12 115 -30.5t101 -50t82 -73.5t53 -103t20 -136q0 -202 -147.5 -320.5t-405.5 -118.5q-118 0 -212 25.5t-154 66.5t-100 97t-57 114t-18 120z" />
    <glyph glyph-name="sacute" unicode="&#x15b;" horiz-adv-x="1089" 
d="M105 747q0 88 35.5 155.5t97.5 106.5t139 58.5t168 19.5q188 0 302.5 -83.5t114.5 -236.5h-260q-6 47 -48 81t-114 34t-113 -30.5t-41 -80.5q0 -16 5.5 -30t17 -25t24 -19.5t33 -15.5t36.5 -12t41 -9.5t41 -7.5t42 -7l39 -6q159 -26 245 -97t86 -206q0 -166 -123.5 -261
t-345.5 -95q-208 0 -326 89t-118 234h287q6 -52 50 -83.5t122 -31.5q84 0 125.5 31t41.5 81q0 19 -6.5 34.5t-23 27t-30.5 19.5t-44 15.5t-47 11t-56 10.5t-56 10q-60 12 -108 27.5t-93 41t-75 59t-47.5 82.5t-17.5 109zM446 1236l237 352h258l-280 -352h-215z" />
    <glyph glyph-name="Scircumflex" unicode="&#x15c;" horiz-adv-x="1269" 
d="M77 398h291q6 -73 75 -124t189 -51q115 0 176 43.5t61 115.5q0 63 -49 98t-156 58l-201 42q-161 34 -258.5 127.5t-97.5 259.5q0 132 69.5 229.5t187 146t266.5 48.5q232 0 374.5 -118t144.5 -297h-283q-6 71 -67 121t-170 50q-101 0 -159 -42t-58 -112q0 -108 184 -145
l204 -41q63 -12 115 -30.5t101 -50t82 -73.5t53 -103t20 -136q0 -202 -147.5 -320.5t-405.5 -118.5q-118 0 -212 25.5t-154 66.5t-100 97t-57 114t-18 120zM269 1486l268 250h210l255 -250h-230l-126 122h-15l-134 -122h-228z" />
    <glyph glyph-name="scircumflex" unicode="&#x15d;" horiz-adv-x="1089" 
d="M184 1233l254 344h215l242 -344h-229l-117 197h-11l-131 -197h-223zM105 747q0 88 35.5 155.5t97.5 106.5t139 58.5t168 19.5q188 0 302.5 -83.5t114.5 -236.5h-260q-6 47 -48 81t-114 34t-113 -30.5t-41 -80.5q0 -16 5.5 -30t17 -25t24 -19.5t33 -15.5t36.5 -12t41 -9.5
t41 -7.5t42 -7l39 -6q159 -26 245 -97t86 -206q0 -166 -123.5 -261t-345.5 -95q-208 0 -326 89t-118 234h287q6 -52 50 -83.5t122 -31.5q84 0 125.5 31t41.5 81q0 19 -6.5 34.5t-23 27t-30.5 19.5t-44 15.5t-47 11t-56 10.5t-56 10q-60 12 -108 27.5t-93 41t-75 59
t-47.5 82.5t-17.5 109z" />
    <glyph glyph-name="Scedilla" unicode="&#x15e;" horiz-adv-x="1269" 
d="M640 -481q-87 -1 -146 16v132q47 -14 111 -14q107 0 107 55q0 32 -29 44t-96 12h-56v112l40 100q-132 7 -230 47t-152.5 101.5t-80.5 130t-27 143.5h291q6 -73 75 -124t189 -51q115 0 176 43.5t61 115.5q0 63 -49 98t-156 58l-201 42q-161 34 -258.5 127.5t-97.5 259.5
q0 132 69.5 229.5t187 146t266.5 48.5q232 0 374.5 -118t144.5 -297h-283q-6 71 -67 121t-170 50q-101 0 -159 -42t-58 -112q0 -108 184 -145l204 -41q63 -12 115 -30.5t101 -50t82 -73.5t53 -103t20 -136q0 -177 -115.5 -291.5t-320.5 -140.5l-37 -93q87 0 138 -46t51 -125
q0 -99 -67 -148t-184 -51z" />
    <glyph glyph-name="scedilla" unicode="&#x15f;" horiz-adv-x="1089" 
d="M541 -481q-87 -1 -146 16v132q47 -14 110 -14q108 0 108 55q0 32 -29 44t-97 12h-55v112l42 106q-183 13 -285.5 99.5t-102.5 221.5h287q6 -52 50 -83.5t122 -31.5q84 0 125.5 31t41.5 81q0 19 -6.5 34.5t-23 27t-30.5 19.5t-44 15.5t-47 11t-56 10.5t-56 10
q-60 12 -108 27.5t-93 41t-75 59t-47.5 82.5t-17.5 109q0 88 35.5 155.5t97.5 106.5t139 58.5t168 19.5q188 0 302.5 -83.5t114.5 -236.5h-260q-6 47 -48 81t-114 34t-113 -30.5t-41 -80.5q0 -16 5.5 -30t17 -25t24 -19.5t33 -15.5t36.5 -12t41 -9.5t41 -7.5t42 -7l39 -6
q159 -26 245 -97t86 -206q0 -143 -93 -234t-263 -114l-40 -99q86 0 137.5 -46t51.5 -125q0 -99 -67 -148t-184 -51z" />
    <glyph glyph-name="Scaron" unicode="&#x160;" horiz-adv-x="1269" 
d="M77 398h291q6 -73 75 -124t189 -51q115 0 176 43.5t61 115.5q0 63 -49 98t-156 58l-201 42q-161 34 -258.5 127.5t-97.5 259.5q0 132 69.5 229.5t187 146t266.5 48.5q232 0 374.5 -118t144.5 -297h-283q-6 71 -67 121t-170 50q-101 0 -159 -42t-58 -112q0 -108 184 -145
l204 -41q63 -12 115 -30.5t101 -50t82 -73.5t53 -103t20 -136q0 -202 -147.5 -320.5t-405.5 -118.5q-118 0 -212 25.5t-154 66.5t-100 97t-57 114t-18 120zM263 1727h234l131 -115h15l121 115h236l-240 -234h-242z" />
    <glyph glyph-name="scaron" unicode="&#x161;" horiz-adv-x="1089" 
d="M188 1540h223l130 -201h11l117 201h229l-241 -345h-216zM105 747q0 88 35.5 155.5t97.5 106.5t139 58.5t168 19.5q188 0 302.5 -83.5t114.5 -236.5h-260q-6 47 -48 81t-114 34t-113 -30.5t-41 -80.5q0 -16 5.5 -30t17 -25t24 -19.5t33 -15.5t36.5 -12t41 -9.5t41 -7.5
t42 -7l39 -6q159 -26 245 -97t86 -206q0 -166 -123.5 -261t-345.5 -95q-208 0 -326 89t-118 234h287q6 -52 50 -83.5t122 -31.5q84 0 125.5 31t41.5 81q0 19 -6.5 34.5t-23 27t-30.5 19.5t-44 15.5t-47 11t-56 10.5t-56 10q-60 12 -108 27.5t-93 41t-75 59t-47.5 82.5
t-17.5 109z" />
    <glyph glyph-name="Tcedilla" unicode="&#x162;" horiz-adv-x="1135" 
d="M494 0h-79v1100h-379v265h1062v-265h-379v-1100h-58l-53 -111q86 0 137.5 -46t51.5 -125q0 -99 -67 -148t-185 -51q-86 -1 -145 16v132q47 -14 110 -14q108 0 108 55q0 32 -29.5 44t-96.5 12h-55v112z" />
    <glyph glyph-name="tcedilla" unicode="&#x163;" horiz-adv-x="842" 
d="M477 -466q-90 -1 -146 15v132q44 -13 110 -13q108 0 108 54q0 32 -29.5 44.5t-96.5 12.5h-55v112l49 124q-103 26 -147.5 95t-44.5 194v511h-163v237h169v264h287v-264h235v-237h-235v-458q0 -70 35 -98.5t114 -28.5q55 0 93 4v-225q-57 -13 -165 -13h-18l-38 -93
q87 0 138 -45.5t51 -124.5q0 -99 -67 -148t-184 -51z" />
    <glyph glyph-name="Tcaron" unicode="&#x164;" horiz-adv-x="1135" 
d="M197 1727h234l131 -115h15l121 115h236l-240 -234h-242zM716 0h-305v1100h-378v265h1062v-265h-379v-1100z" />
    <glyph glyph-name="tcaron" unicode="&#x165;" horiz-adv-x="902" 
d="M662 1671h234l-47 -488h-187v488zM222 1052v264h287v-264h235v-237h-235v-458q0 -70 35 -98.5t114 -28.5q55 0 93 4v-225q-57 -13 -165 -13q-202 0 -286 70t-84 238v511h-163v237h169z" />
    <glyph glyph-name="Tbar" unicode="&#x166;" horiz-adv-x="1135" 
d="M947 572h-228v-572h-304v572h-228v190h228v338h-379v265h1062v-265h-379v-338h228v-190z" />
    <glyph glyph-name="tbar" unicode="&#x167;" horiz-adv-x="842" 
d="M760 9q-57 -13 -165 -13q-202 0 -286 70t-84 238v175h-145v169h145v167h-163v237h169v264h287v-264h235v-237h-235v-167h211v-169h-211v-122q0 -70 35 -98.5t114 -28.5q55 0 93 4v-225z" />
    <glyph glyph-name="Utilde" unicode="&#x168;" horiz-adv-x="1419" 
d="M449 1365v-855q0 -129 70 -197t189 -68q118 0 188 68.5t70 196.5v855h305v-892q0 -227 -153 -362.5t-410 -135.5t-410.5 136.5t-153.5 362.5v891h305zM694 1507q-4 3 -18 16.5t-21.5 19.5t-21 12t-26.5 6q-63 0 -69 -87h-154q0 92 51.5 162.5t146.5 70.5q53 0 87 -15.5
t73 -49.5q5 -4 17.5 -15.5t17.5 -15.5t14.5 -10.5t18.5 -9t19 -2.5q34 0 50 30t18 72h154q0 -100 -57.5 -170t-146.5 -70q-59 0 -91.5 14.5t-61.5 41.5z" />
    <glyph glyph-name="utilde" unicode="&#x169;" horiz-adv-x="1253" 
d="M1105 1067v-1067h-289v178h-15q-16 -46 -51 -87.5t-104 -74t-156 -32.5q-166 0 -260 92.5t-94 278.5v712h296v-633q0 -192 177 -192q84 0 141.5 54.5t57.5 146.5v624h297zM606 1245q-13 15 -21 23t-25.5 17.5t-36.5 9.5q-64 0 -70 -99h-157q0 121 55.5 203.5t156.5 82.5
q48 0 83 -18t70 -58q4 -4 18 -19t20 -20.5t19.5 -11.5t28.5 -6q32 0 48 34.5t18 82.5h156q0 -118 -61.5 -203.5t-154.5 -85.5q-90 0 -147 68z" />
    <glyph glyph-name="Umacron" unicode="&#x16a;" horiz-adv-x="1419" 
d="M449 1365v-855q0 -129 70 -197t189 -68q118 0 188 68.5t70 196.5v855h305v-892q0 -227 -153 -362.5t-410 -135.5t-410.5 136.5t-153.5 362.5v891h305zM1017 1489h-614v156h614v-156z" />
    <glyph glyph-name="umacron" unicode="&#x16b;" horiz-adv-x="1253" 
d="M1105 1067v-1067h-289v178h-15q-16 -46 -51 -87.5t-104 -74t-156 -32.5q-166 0 -260 92.5t-94 278.5v712h296v-633q0 -192 177 -192q84 0 141.5 54.5t57.5 146.5v624h297zM936 1225h-608v167h608v-167z" />
    <glyph glyph-name="Ubreve" unicode="&#x16c;" horiz-adv-x="1419" 
d="M449 1365v-855q0 -129 70 -197t189 -68q118 0 188 68.5t70 196.5v855h305v-892q0 -227 -153 -362.5t-410 -135.5t-410.5 136.5t-153.5 362.5v891h305zM367 1769h170q0 -68 43.5 -106.5t129.5 -38.5t129.5 38.5t43.5 106.5h167q0 -139 -89.5 -221.5t-250.5 -82.5
t-252 82.5t-91 221.5z" />
    <glyph glyph-name="ubreve" unicode="&#x16d;" horiz-adv-x="1253" 
d="M1105 1067v-1067h-289v178h-15q-16 -46 -51 -87.5t-104 -74t-156 -32.5q-166 0 -260 92.5t-94 278.5v712h296v-633q0 -192 177 -192q84 0 141.5 54.5t57.5 146.5v624h297zM316 1511h169q0 -69 40 -116.5t118 -47.5t118 47.5t40 116.5h166q0 -138 -86 -232t-238 -94
q-153 0 -240.5 94t-86.5 232z" />
    <glyph glyph-name="Uring" unicode="&#x16e;" horiz-adv-x="1419" 
d="M449 1365v-855q0 -129 70 -197t189 -68q118 0 188 68.5t70 196.5v855h305v-892q0 -227 -153 -362.5t-410 -135.5t-410.5 136.5t-153.5 362.5v891h305zM710 1477q-95 0 -159 62t-64 158t63.5 157t159.5 61q95 0 158.5 -61t63.5 -157t-63.5 -158t-158.5 -62zM618 1696
q0 -39 26 -64.5t65 -25.5t65 25.5t26 64.5t-26 64.5t-65 25.5t-65 -25.5t-26 -64.5z" />
    <glyph glyph-name="uring" unicode="&#x16f;" horiz-adv-x="1253" 
d="M1105 1067v-1067h-289v178h-15q-16 -46 -51 -87.5t-104 -74t-156 -32.5q-166 0 -260 92.5t-94 278.5v712h296v-633q0 -192 177 -192q84 0 141.5 54.5t57.5 146.5v624h297zM626 1179q-95 0 -159 62t-64 158t63.5 157t159.5 61q95 0 158.5 -61t63.5 -157t-63.5 -158
t-158.5 -62zM534 1398q0 -39 26 -64.5t65 -25.5t65 25.5t26 64.5t-26 64.5t-65 25.5t-65 -25.5t-26 -64.5z" />
    <glyph glyph-name="Uhungarumlaut" unicode="&#x170;" horiz-adv-x="1419" 
d="M449 1365v-855q0 -129 70 -197t189 -68q118 0 188 68.5t70 196.5v855h305v-892q0 -227 -153 -362.5t-410 -135.5t-410.5 136.5t-153.5 362.5v891h305zM356 1501l302 249h258l-340 -249h-220zM767 1501l303 249h258l-340 -249h-221z" />
    <glyph glyph-name="uhungarumlaut" unicode="&#x171;" horiz-adv-x="1253" 
d="M498 1235h-183l248 357h231zM873 1235h-182l247 357h231zM1105 1067v-1067h-289v178h-15q-16 -46 -51 -87.5t-104 -74t-156 -32.5q-166 0 -260 92.5t-94 278.5v712h296v-633q0 -192 177 -192q84 0 141.5 54.5t57.5 146.5v624h297z" />
    <glyph glyph-name="Uogonek" unicode="&#x172;" horiz-adv-x="1419" 
d="M1016 -391q-116 0 -183 56.5t-67 149.5q0 105 74 178l-2 3q-65 -21 -135 -21q-250 0 -403.5 137t-153.5 362v891h305v-855q0 -129 70 -197t189 -68q118 0 188.5 68.5t70.5 196.5v855h304v-892q0 -221 -150 -368q-16 -17 -51.5 -50t-53.5 -52t-34 -50.5t-16 -63.5
q0 -50 33.5 -75t85.5 -25q34 0 75 11v-166q-59 -25 -146 -25z" />
    <glyph glyph-name="uogonek" unicode="&#x173;" horiz-adv-x="1253" 
d="M1119 -372q-61 -19 -147 -19q-109 0 -183.5 52t-74.5 156q0 114 117 200v161h-15q-11 -33 -35 -65t-62 -62t-96 -48.5t-126 -18.5q-164 0 -261 93t-97 278v712h296v-633q0 -56 15 -95t41.5 -59.5t55.5 -29t64 -8.5q85 0 142.5 54.5t57.5 146.5v624h297v-1009
q-74 -28 -128 -74t-54 -105q0 -44 33 -66t88 -22q42 0 72 7v-170z" />
    <glyph glyph-name="Wcircumflex" unicode="&#x174;" horiz-adv-x="1815" 
d="M544 1486l268 250h210l255 -250h-230l-126 122h-15l-134 -122h-228zM655 0h-283l-354 1365h325l187 -933h14l230 933h256l230 -933h15l185 933h325l-354 -1365h-284l-239 881h-13z" />
    <glyph glyph-name="wcircumflex" unicode="&#x175;" horiz-adv-x="1636" 
d="M457 1233l254 344h215l242 -344h-229l-117 197h-11l-131 -197h-223zM1594 1067l-275 -1067h-309l-192 725h-10l-188 -725h-313l-280 1067h309l142 -757h12l185 757h278l189 -757h12l144 757h296z" />
    <glyph glyph-name="Ycircumflex" unicode="&#x176;" horiz-adv-x="1216" 
d="M756 0h-305v481l-457 884h336l271 -564h12l274 564h326l-457 -876v-489zM244 1486l268 250h210l255 -250h-230l-126 122h-15l-134 -122h-228z" />
    <glyph glyph-name="ycircumflex" unicode="&#x177;" horiz-adv-x="1151" 
d="M1102 1067q-333 -1003 -338 -1018l-27 -72q-31 -84 -66 -143t-89 -109t-133 -75t-183 -25q-96 0 -159 13v218q25 -7 90 -7q95 0 137 31.5t52 97.5l8 26l-360 1063h327l204 -810h12l211 810h314zM214 1233l254 344h215l242 -344h-229l-117 197h-11l-131 -197h-223z" />
    <glyph glyph-name="Ydieresis" unicode="&#x178;" horiz-adv-x="1216" 
d="M756 0h-305v481l-457 884h336l271 -564h12l274 564h326l-457 -876v-489zM282 1578q0 56 34.5 89.5t91.5 33.5q59 0 93.5 -33.5t34.5 -89.5q0 -55 -34.5 -88.5t-93.5 -33.5q-57 0 -91.5 33.5t-34.5 88.5zM677 1578q0 56 34.5 89.5t92.5 33.5t93 -33.5t35 -89.5
q0 -55 -34.5 -88.5t-93.5 -33.5q-58 0 -92.5 33.5t-34.5 88.5z" />
    <glyph glyph-name="Zacute" unicode="&#x179;" horiz-adv-x="1235" 
d="M433 1501l275 230h309l-310 -230h-274zM106 0v207l634 883v16h-619v259h987v-206l-632 -884v-16h653v-259h-1023z" />
    <glyph glyph-name="zacute" unicode="&#x17a;" horiz-adv-x="1058" 
d="M430 1236l237 352h258l-280 -352h-215zM104 0v168l488 645v14h-480v240h837v-189l-467 -623v-13h482v-242h-860z" />
    <glyph glyph-name="Zdotaccent" unicode="&#x17b;" horiz-adv-x="1235" 
d="M106 0v207l634 883v16h-619v259h987v-206l-632 -884v-16h653v-259h-1023zM488 1608q0 60 36 98.5t94 38.5t97 -38.5t39 -98.5q0 -59 -39 -97t-97 -38t-94 37.5t-36 97.5z" />
    <glyph glyph-name="zdotaccent" unicode="&#x17c;" horiz-adv-x="1058" 
d="M399 1310q0 60 36 98.5t94 38.5t97 -38.5t39 -98.5q0 -59 -39 -97t-97 -38t-94 37.5t-36 97.5zM104 0v168l488 645v14h-480v240h837v-189l-467 -623v-13h482v-242h-860z" />
    <glyph glyph-name="Zcaron" unicode="&#x17d;" horiz-adv-x="1235" 
d="M106 0v207l634 883v16h-619v259h987v-206l-632 -884v-16h653v-259h-1023zM248 1727h234l131 -115h15l121 115h236l-240 -234h-242z" />
    <glyph glyph-name="zcaron" unicode="&#x17e;" horiz-adv-x="1058" 
d="M172 1540h223l130 -201h11l117 201h229l-241 -345h-216zM104 0v168l488 645v14h-480v240h837v-189l-467 -623v-13h482v-242h-860z" />
    <glyph glyph-name="florin" unicode="&#x192;" 
d="M127 -186l153 812h-185l40 251h186l26 146q32 192 144.5 278.5t314.5 86.5q107 0 183.5 -29.5t116 -81t55.5 -111t10 -128.5h-271q2 46 -24.5 80t-76.5 34q-109 0 -132 -132l-25 -143h294l-41 -251h-294l-152 -812h-322z" />
    <glyph glyph-name="Ohorn" unicode="&#x1a0;" horiz-adv-x="1438" 
d="M1301 598q0 -290 -159 -456.5t-441 -166.5q-281 0 -439 166.5t-158 456.5v160q0 293 159 462.5t440 169.5q98 0 227 -33t186 -33q79 0 106 33.5t27 97.5v132h233v-172q0 -131 -72 -211.5t-198 -80.5l-3 -3q41 -68 66.5 -163.5t25.5 -198.5v-160zM414 762v-167
q0 -175 78 -266.5t210 -91.5t210.5 91.5t78.5 266.5v167q0 175 -79 269.5t-210 94.5t-209.5 -94t-78.5 -270z" />
    <glyph glyph-name="ohorn" unicode="&#x1a1;" horiz-adv-x="1225" 
d="M596 -20q-232 0 -365.5 133.5t-133.5 375.5v94q0 227 136.5 365.5t362.5 138.5q65 0 141.5 -15.5t120.5 -15.5q63 0 85 26.5t22 86.5v158h233v-194q0 -105 -47 -177.5t-138 -95.5v-9q80 -136 80 -266v-95q0 -242 -133.5 -376t-363.5 -134zM595 852q-97 0 -148 -77
t-51 -191v-100q0 -112 49.5 -190t149.5 -78q68 0 114 39.5t65 98t19 130.5v100q0 115 -50 191.5t-148 76.5z" />
    <glyph glyph-name="Uhorn" unicode="&#x1af;" horiz-adv-x="1522" 
d="M707 -23q-257 0 -410.5 136.5t-153.5 362.5v889h305v-853q0 -129 70 -197t189 -68q118 0 188.5 68.5t70.5 196.5v853h306q58 0 81.5 27.5t23.5 84.5v136h232v-176q0 -127 -70 -209.5t-197 -82.5h-72v-670q0 -227 -153 -362.5t-410 -135.5z" />
    <glyph glyph-name="uhorn" unicode="&#x1b0;" horiz-adv-x="1407" 
d="M799 178q-16 -46 -51 -87.5t-104 -74t-156 -32.5q-166 0 -260 92.5t-94 278.5v712h296v-633q0 -192 177 -192q84 0 141.5 54.5t57.5 146.5v624h262q57 0 76 26.5t19 86.5v147h233v-187q0 -127 -70 -209.5t-199 -82.5h-24v-848h-289v178h-15z" />
    <glyph glyph-name="Acaron" unicode="&#x1cd;" horiz-adv-x="1324" 
d="M331 0h-304l448 1365h366l445 -1365h-326l-96 318h-436zM655 1074h-14l-154 -522h320zM292 1727h234l131 -115h15l121 115h236l-240 -234h-242z" />
    <glyph glyph-name="acaron" unicode="&#x1ce;" horiz-adv-x="1157" 
d="M441 -16q-158 0 -254.5 87.5t-96.5 237.5q0 148 99 234.5t282 86.5h252v90q0 65 -42.5 99t-116.5 34q-70 0 -109 -28.5t-48 -77.5h-279q4 68 30 125.5t76 106t136 76.5t199 28q96 0 174.5 -20t141 -62.5t97 -116.5t34.5 -174v-710h-279v132h-14q-33 -63 -103 -105.5
t-179 -42.5zM541 203q75 0 128.5 42t53.5 106v106h-180q-77 0 -118.5 -34t-41.5 -90q0 -61 46 -95.5t112 -34.5zM221 1540h223l130 -201h11l117 201h229l-241 -345h-216z" />
    <glyph glyph-name="Icaron" unicode="&#x1cf;" horiz-adv-x="624" 
d="M461 0h-305v1365h305v-1365zM-57 1727h234l131 -115h15l121 115h236l-240 -234h-242z" />
    <glyph glyph-name="icaron" unicode="&#x1d0;" horiz-adv-x="622" 
d="M-39 1540h223l130 -201h11l117 201h229l-241 -345h-216zM161 0v1067h296v-1067h-296z" />
    <glyph glyph-name="Ocaron" unicode="&#x1d1;" horiz-adv-x="1409" 
d="M334 1727h234l131 -115h15l121 115h236l-240 -234h-242zM413 762v-165q0 -175 78 -266.5t210 -91.5t210 91.5t78 266.5v165q0 176 -78.5 270t-209.5 94t-209.5 -94t-78.5 -270zM103 598v160q0 293 159 462.5t440 169.5t439.5 -170t158.5 -462v-160q0 -290 -159 -456.5
t-441 -166.5q-281 0 -439 166.5t-158 456.5z" />
    <glyph glyph-name="ocaron" unicode="&#x1d2;" horiz-adv-x="1193" 
d="M240 1540h223l130 -201h11l117 201h229l-241 -345h-216zM596 1087q226 0 361.5 -136.5t135.5 -365.5v-95q0 -242 -133.5 -376t-363.5 -134q-232 0 -365.5 133.5t-133.5 375.5v94q0 227 136.5 365.5t362.5 138.5zM595 852q-97 0 -148 -77t-51 -191v-100q0 -112 49.5 -190
t149.5 -78q68 0 114 39.5t65 98t19 130.5v100q0 115 -50 191.5t-148 76.5z" />
    <glyph glyph-name="Ucaron" unicode="&#x1d3;" horiz-adv-x="1419" 
d="M340 1727h234l131 -115h15l121 115h236l-240 -234h-242zM449 1365v-855q0 -129 70 -197t189 -68q118 0 188 68.5t70 196.5v855h305v-892q0 -227 -153 -362.5t-410 -135.5t-410.5 136.5t-153.5 362.5v891h305z" />
    <glyph glyph-name="ucaron" unicode="&#x1d4;" horiz-adv-x="1253" 
d="M269 1540h223l130 -201h11l117 201h229l-241 -345h-216zM1105 1067v-1067h-289v178h-15q-16 -46 -51 -87.5t-104 -74t-156 -32.5q-166 0 -260 92.5t-94 278.5v712h296v-633q0 -192 177 -192q84 0 141.5 54.5t57.5 146.5v624h297z" />
    <glyph glyph-name="Udieresismacron" unicode="&#x1d5;" horiz-adv-x="1419" 
d="M383 1578q0 56 34.5 89.5t91.5 33.5q59 0 93.5 -33.5t34.5 -89.5q0 -55 -34.5 -88.5t-93.5 -33.5q-57 0 -91.5 33.5t-34.5 88.5zM778 1578q0 56 34.5 89.5t92.5 33.5t93 -33.5t35 -89.5q0 -55 -34.5 -88.5t-93.5 -33.5q-58 0 -92.5 33.5t-34.5 88.5zM449 1365v-855
q0 -129 70 -197t189 -68q118 0 188 68.5t70 196.5v855h305v-892q0 -227 -153 -362.5t-410 -135.5t-410.5 136.5t-153.5 362.5v891h305zM1017 1782h-614v156h614v-156z" />
    <glyph glyph-name="udieresismacron" unicode="&#x1d6;" horiz-adv-x="1253" 
d="M1105 1067v-1067h-289v178h-15q-16 -46 -51 -87.5t-104 -74t-156 -32.5q-166 0 -260 92.5t-94 278.5v712h296v-633q0 -192 177 -192q84 0 141.5 54.5t57.5 146.5v624h297zM287 1324q0 58 37 94t97 36q61 0 98 -36t37 -94t-37 -93.5t-98 -35.5q-60 0 -97 35.5t-37 93.5z
M702 1324q0 58 36.5 94t95.5 36q62 0 99.5 -35.5t37.5 -94.5q0 -58 -37 -93.5t-100 -35.5q-59 0 -95.5 35.5t-36.5 93.5zM936 1573h-608v167h608v-167z" />
    <glyph glyph-name="Udieresisacute" unicode="&#x1d7;" horiz-adv-x="1419" 
d="M525 1748l275 230h309l-310 -230h-274zM383 1578q0 56 34.5 89.5t91.5 33.5q59 0 93.5 -33.5t34.5 -89.5q0 -55 -34.5 -88.5t-93.5 -33.5q-57 0 -91.5 33.5t-34.5 88.5zM778 1578q0 56 34.5 89.5t92.5 33.5t93 -33.5t35 -89.5q0 -55 -34.5 -88.5t-93.5 -33.5
q-58 0 -92.5 33.5t-34.5 88.5zM449 1365v-855q0 -129 70 -197t189 -68q118 0 188 68.5t70 196.5v855h305v-892q0 -227 -153 -362.5t-410 -135.5t-410.5 136.5t-153.5 362.5v891h305z" />
    <glyph glyph-name="udieresisacute" unicode="&#x1d8;" horiz-adv-x="1253" 
d="M527 1533l237 352h258l-280 -352h-215zM1105 1067v-1067h-289v178h-15q-16 -46 -51 -87.5t-104 -74t-156 -32.5q-166 0 -260 92.5t-94 278.5v712h296v-633q0 -192 177 -192q84 0 141.5 54.5t57.5 146.5v624h297zM287 1324q0 58 37 94t97 36q61 0 98 -36t37 -94t-37 -93.5
t-98 -35.5q-60 0 -97 35.5t-37 93.5zM702 1324q0 58 36.5 94t95.5 36q62 0 99.5 -35.5t37.5 -94.5q0 -58 -37 -93.5t-100 -35.5q-59 0 -95.5 35.5t-36.5 93.5z" />
    <glyph glyph-name="Udieresiscaron" unicode="&#x1d9;" horiz-adv-x="1419" 
d="M383 1578q0 56 34.5 89.5t91.5 33.5q59 0 93.5 -33.5t34.5 -89.5q0 -55 -34.5 -88.5t-93.5 -33.5q-57 0 -91.5 33.5t-34.5 88.5zM778 1578q0 56 34.5 89.5t92.5 33.5t93 -33.5t35 -89.5q0 -55 -34.5 -88.5t-93.5 -33.5q-58 0 -92.5 33.5t-34.5 88.5zM340 1989h234
l131 -115h15l121 115h236l-240 -234h-242zM449 1365v-855q0 -129 70 -197t189 -68q118 0 188 68.5t70 196.5v855h305v-892q0 -227 -153 -362.5t-410 -135.5t-410.5 136.5t-153.5 362.5v891h305z" />
    <glyph glyph-name="udieresiscaron" unicode="&#x1da;" horiz-adv-x="1253" 
d="M269 1863h223l130 -201h11l117 201h229l-241 -345h-216zM1105 1067v-1067h-289v178h-15q-16 -46 -51 -87.5t-104 -74t-156 -32.5q-166 0 -260 92.5t-94 278.5v712h296v-633q0 -192 177 -192q84 0 141.5 54.5t57.5 146.5v624h297zM287 1324q0 58 37 94t97 36q61 0 98 -36
t37 -94t-37 -93.5t-98 -35.5q-60 0 -97 35.5t-37 93.5zM702 1324q0 58 36.5 94t95.5 36q62 0 99.5 -35.5t37.5 -94.5q0 -58 -37 -93.5t-100 -35.5q-59 0 -95.5 35.5t-36.5 93.5z" />
    <glyph glyph-name="Udieresisgrave" unicode="&#x1db;" horiz-adv-x="1419" 
d="M867 1748h-260l-300 221h294zM383 1578q0 56 34.5 89.5t91.5 33.5q59 0 93.5 -33.5t34.5 -89.5q0 -55 -34.5 -88.5t-93.5 -33.5q-57 0 -91.5 33.5t-34.5 88.5zM778 1578q0 56 34.5 89.5t92.5 33.5t93 -33.5t35 -89.5q0 -55 -34.5 -88.5t-93.5 -33.5q-58 0 -92.5 33.5
t-34.5 88.5zM449 1365v-855q0 -129 70 -197t189 -68q118 0 188 68.5t70 196.5v855h305v-892q0 -227 -153 -362.5t-410 -135.5t-410.5 136.5t-153.5 362.5v891h305z" />
    <glyph glyph-name="udieresisgrave" unicode="&#x1dc;" horiz-adv-x="1253" 
d="M761 1527h-215l-280 352h258zM1105 1067v-1067h-289v178h-15q-16 -46 -51 -87.5t-104 -74t-156 -32.5q-166 0 -260 92.5t-94 278.5v712h296v-633q0 -192 177 -192q84 0 141.5 54.5t57.5 146.5v624h297zM287 1324q0 58 37 94t97 36q61 0 98 -36t37 -94t-37 -93.5
t-98 -35.5q-60 0 -97 35.5t-37 93.5zM702 1324q0 58 36.5 94t95.5 36q62 0 99.5 -35.5t37.5 -94.5q0 -58 -37 -93.5t-100 -35.5q-59 0 -95.5 35.5t-36.5 93.5z" />
    <glyph glyph-name="Adieresismacron" unicode="&#x1de;" horiz-adv-x="1324" 
d="M331 0h-304l448 1365h366l445 -1365h-326l-96 318h-436zM655 1074h-14l-154 -522h320zM335 1578q0 56 34.5 89.5t91.5 33.5q59 0 93.5 -33.5t34.5 -89.5q0 -55 -34.5 -88.5t-93.5 -33.5q-57 0 -91.5 33.5t-34.5 88.5zM730 1578q0 56 34.5 89.5t92.5 33.5t93 -33.5
t35 -89.5q0 -55 -34.5 -88.5t-93.5 -33.5q-58 0 -92.5 33.5t-34.5 88.5zM969 1782h-614v156h614v-156z" />
    <glyph glyph-name="adieresismacron" unicode="&#x1df;" horiz-adv-x="1157" 
d="M441 -16q-158 0 -254.5 87.5t-96.5 237.5q0 148 99 234.5t282 86.5h252v90q0 65 -42.5 99t-116.5 34q-70 0 -109 -28.5t-48 -77.5h-279q4 68 30 125.5t76 106t136 76.5t199 28q96 0 174.5 -20t141 -62.5t97 -116.5t34.5 -174v-710h-279v132h-14q-33 -63 -103 -105.5
t-179 -42.5zM541 203q75 0 128.5 42t53.5 106v106h-180q-77 0 -118.5 -34t-41.5 -90q0 -61 46 -95.5t112 -34.5zM239 1324q0 58 37 94t97 36q61 0 98 -36t37 -94t-37 -93.5t-98 -35.5q-60 0 -97 35.5t-37 93.5zM654 1324q0 58 36.5 94t95.5 36q62 0 99.5 -35.5t37.5 -94.5
q0 -58 -37 -93.5t-100 -35.5q-59 0 -95.5 35.5t-36.5 93.5zM888 1573h-608v167h608v-167z" />
    <glyph glyph-name="Adotmacron" unicode="&#x1e0;" horiz-adv-x="1324" 
d="M331 0h-304l448 1365h366l445 -1365h-326l-96 318h-436zM655 1074h-14l-154 -522h320zM532 1608q0 60 36 98.5t94 38.5t97 -38.5t39 -98.5q0 -59 -39 -97t-97 -38t-94 37.5t-36 97.5zM969 1782h-614v156h614v-156z" />
    <glyph glyph-name="adotmacron" unicode="&#x1e1;" horiz-adv-x="1157" 
d="M441 -16q-158 0 -254.5 87.5t-96.5 237.5q0 148 99 234.5t282 86.5h252v90q0 65 -42.5 99t-116.5 34q-70 0 -109 -28.5t-48 -77.5h-279q4 68 30 125.5t76 106t136 76.5t199 28q96 0 174.5 -20t141 -62.5t97 -116.5t34.5 -174v-710h-279v132h-14q-33 -63 -103 -105.5
t-179 -42.5zM541 203q75 0 128.5 42t53.5 106v106h-180q-77 0 -118.5 -34t-41.5 -90q0 -61 46 -95.5t112 -34.5zM448 1310q0 60 36 98.5t94 38.5t97 -38.5t39 -98.5q0 -59 -39 -97t-97 -38t-94 37.5t-36 97.5zM888 1573h-608v167h608v-167z" />
    <glyph glyph-name="AEmacron" unicode="&#x1e2;" horiz-adv-x="1952" 
d="M863 1108l-250 -552h317v552h-67zM930 311h-415l-155 -311h-334l645 1365h1157v-257h-597v-302h560v-237h-560v-312h597v-257h-898v311zM1680 1489h-614v156h614v-156z" />
    <glyph glyph-name="aemacron" unicode="&#x1e3;" horiz-adv-x="1803" 
d="M1242 -20q-151 0 -250 51.5t-145 140.5h-15q-48 -82 -141.5 -137t-225.5 -55q-174 0 -275.5 87.5t-101.5 240.5q0 150 100.5 236t284.5 86h251v90q0 65 -42.5 99t-116.5 34q-71 0 -111 -29t-48 -77h-279q4 68 30 126.5t77 107t137.5 77t199.5 28.5q104 0 193 -34t136 -90
h16q45 57 129 90.5t183 33.5q215 0 345.5 -134.5t130.5 -364.5v-119h-670v-59q0 -89 58 -142t148 -53q75 0 124.5 31t56.5 82h275q-3 -57 -30.5 -115t-79.5 -111.5t-141.5 -87t-202.5 -33.5zM1230 861q-85 0 -140.5 -56t-55.5 -145v-14h385v10q0 94 -51 149.5t-138 55.5z
M542 203q75 0 128.5 42t53.5 106v106h-178q-79 0 -122.5 -34t-43.5 -90q0 -61 47.5 -95.5t114.5 -34.5zM1212 1225h-608v167h608v-167z" />
    <glyph glyph-name="Gcaron" unicode="&#x1e6;" horiz-adv-x="1363" 
d="M320 1727h234l131 -115h15l121 115h236l-240 -234h-242zM1253 916h-296q-12 95 -83 151.5t-176 56.5q-131 0 -208.5 -90.5t-77.5 -266.5v-162q0 -166 70 -265.5t220 -99.5q119 0 191.5 63.5t72.5 154.5v61h-255v229h544v-266q0 -73 -18 -142.5t-60.5 -136.5t-105 -117
t-159.5 -80.5t-216 -30.5q-151 0 -266 48.5t-185 134.5t-105 198.5t-35 247.5v166q0 282 158.5 451t437.5 169q132 0 238.5 -40.5t172.5 -108t102 -151t39 -174.5z" />
    <glyph glyph-name="gcaron" unicode="&#x1e7;" horiz-adv-x="1234" 
d="M260 1540h223l130 -201h11l117 201h229l-241 -345h-216zM587 -171q107 0 160 53.5t53 153.5v151h-15q-31 -74 -109.5 -120.5t-187.5 -46.5q-180 0 -288.5 127.5t-108.5 359.5v85q0 232 108.5 359.5t287.5 127.5q113 0 193.5 -50t108.5 -128h14v166h292v-1056
q0 -90 -29 -160.5t-77.5 -116t-116.5 -75t-140 -41.5t-153 -12q-116 0 -206 26t-144.5 71.5t-83.5 102t-32 122.5h284q10 -47 61 -73t129 -26zM601 835q-95 0 -150.5 -68t-55.5 -190v-74q0 -121 57 -189t150 -68q92 0 145 66.5t53 177.5v99q0 112 -54 179t-145 67z" />
    <glyph glyph-name="Kcaron" unicode="&#x1e8;" horiz-adv-x="1325" 
d="M1289 1365l-479 -591l498 -774h-362l-360 560l-129 -145v-415h-305v1365h305v-584h14l489 584h329zM281 1727h234l131 -115h15l121 115h236l-240 -234h-242z" />
    <glyph glyph-name="kcaron" unicode="&#x1e9;" horiz-adv-x="1172" 
d="M-67 1910h223l130 -201h11l117 201h229l-241 -345h-216zM432 359v-359h-297v1437h297v-795h14l326 425h332l-377 -459l403 -608h-344l-286 434z" />
    <glyph glyph-name="Oogonek" unicode="&#x1ea;" horiz-adv-x="1409" 
d="M416 762v-165q0 -175 78 -266.5t210 -91.5t210 91.5t78 266.5v165q0 175 -78.5 269.5t-209.5 94.5t-209.5 -94.5t-78.5 -269.5zM668 -21q-248 0 -405 171t-157 448v160q0 293 159 462.5t440 169.5t439.5 -170t158.5 -462v-160q0 -95 -16.5 -173.5t-49.5 -138.5t-61 -97.5
t-71 -83.5q-12 -13 -52 -52.5t-53 -55t-28 -46t-15 -59.5q0 -50 32.5 -73.5t86.5 -23.5q46 0 74 9v-174q-72 -21 -148 -21q-115 2 -183 56t-69 147q0 101 90 185l-2 17q-70 -35 -170 -35z" />
    <glyph glyph-name="oogonek" unicode="&#x1eb;" horiz-adv-x="1193" 
d="M597 852q-97 0 -148 -77t-51 -191v-100q0 -112 49.5 -190t149.5 -78q68 0 114 39.5t65 98t19 130.5v100q0 115 -50.5 191.5t-147.5 76.5zM687 12q-82 -25 -146 -25q-194 0 -318 135t-124 363v98q0 227 136.5 365.5t364.5 138.5q225 0 360 -137t135 -365v-95
q0 -84 -14.5 -151.5t-43 -117.5t-53 -80t-63.5 -68l-23 -23l-23 -23t-19.5 -20.5t-18.5 -21.5t-13.5 -20t-11.5 -22.5t-6 -22t-3 -25.5q0 -52 33.5 -78t88.5 -26q41 0 71 8v-169q-56 -21 -142 -21q-67 0 -123 18.5t-95.5 65t-39.5 115.5q0 113 99 190z" />
    <glyph glyph-name="Oogonekmacron" unicode="&#x1ec;" horiz-adv-x="1409" 
d="M413 762v-165q0 -175 78 -266.5t210 -91.5t210 91.5t78 266.5v165q0 175 -78.5 269.5t-209.5 94.5t-209.5 -94.5t-78.5 -269.5zM665 -21q-248 0 -405 171t-157 448v160q0 293 159 462.5t440 169.5t439.5 -170t158.5 -462v-160q0 -95 -16.5 -173.5t-49.5 -138.5t-61 -97.5
t-71 -83.5q-12 -13 -52 -52.5t-53 -55t-28 -46t-15 -59.5q0 -50 32.5 -73.5t86.5 -23.5q45 0 74 9v-174q-72 -21 -148 -21q-115 2 -183 56t-69 147q0 101 90 185l-2 17q-70 -35 -170 -35zM1011 1489h-614v156h614v-156z" />
    <glyph glyph-name="oogonekmacron" unicode="&#x1ed;" horiz-adv-x="1193" 
d="M595 852q-97 0 -148 -77t-51 -191v-100q0 -112 49.5 -190t149.5 -78q68 0 114 39.5t65 98t19 130.5v100q0 115 -50.5 191.5t-147.5 76.5zM685 12q-82 -25 -146 -25q-194 0 -318 135t-124 363v98q0 227 136.5 365.5t364.5 138.5q225 0 360 -137t135 -365v-95
q0 -84 -14.5 -151.5t-43 -117.5t-53 -80t-63.5 -68l-23 -23l-23 -23t-19.5 -20.5t-18.5 -21.5t-13.5 -20t-11.5 -22.5t-6 -22t-3 -25.5q0 -52 33.5 -78t88.5 -26q41 0 71 8v-169q-56 -21 -142 -21q-67 0 -123 18.5t-95.5 65t-39.5 115.5q0 113 99 190zM907 1225h-608v167
h608v-167z" />
    <glyph glyph-name="Gacute" unicode="&#x1f4;" horiz-adv-x="1363" 
d="M505 1501l275 230h309l-310 -230h-274zM1253 916h-296q-12 95 -83 151.5t-176 56.5q-131 0 -208.5 -90.5t-77.5 -266.5v-162q0 -166 70 -265.5t220 -99.5q119 0 191.5 63.5t72.5 154.5v61h-255v229h544v-266q0 -73 -18 -142.5t-60.5 -136.5t-105 -117t-159.5 -80.5
t-216 -30.5q-151 0 -266 48.5t-185 134.5t-105 198.5t-35 247.5v166q0 282 158.5 451t437.5 169q132 0 238.5 -40.5t172.5 -108t102 -151t39 -174.5z" />
    <glyph glyph-name="gacute" unicode="&#x1f5;" horiz-adv-x="1234" 
d="M518 1236l237 352h258l-280 -352h-215zM587 -171q107 0 160 53.5t53 153.5v151h-15q-31 -74 -109.5 -120.5t-187.5 -46.5q-180 0 -288.5 127.5t-108.5 359.5v85q0 232 108.5 359.5t287.5 127.5q113 0 193.5 -50t108.5 -128h14v166h292v-1056q0 -90 -29 -160.5t-77.5 -116
t-116.5 -75t-140 -41.5t-153 -12q-116 0 -206 26t-144.5 71.5t-83.5 102t-32 122.5h284q10 -47 61 -73t129 -26zM601 835q-95 0 -150.5 -68t-55.5 -190v-74q0 -121 57 -189t150 -68q92 0 145 66.5t53 177.5v99q0 112 -54 179t-145 67z" />
    <glyph glyph-name="Ngrave" unicode="&#x1f8;" horiz-adv-x="1437" 
d="M876 1501h-260l-300 221h294zM447 0h-285v1365h246l568 -820h12v820h286v-1365h-245l-570 827h-12v-827z" />
    <glyph glyph-name="ngrave" unicode="&#x1f9;" horiz-adv-x="1256" 
d="M763 1236h-215l-280 352h258zM142 0v1067h288v-185h15q11 35 32.5 67t57.5 64t94.5 51t130.5 19q164 0 258.5 -96t94.5 -281v-706h-296v624q0 106 -49 153t-128 47q-93 0 -147.5 -62t-54.5 -171v-591h-296z" />
    <glyph glyph-name="Aringacute" unicode="&#x1fa;" horiz-adv-x="1324" 
d="M519 1683l303 249h308l-337 -249h-274zM537 1454q0 -48 33 -80t81 -32t81 32t33 80q0 49 -33 81t-81 32t-81 -32t-33 -81zM807 552l-152 522h-14l-154 -522h320zM331 0h-304l422 1272q-79 74 -79 185q0 121 81.5 203.5t199.5 82.5t200 -83t82 -203q0 -99 -70 -171
l423 -1286h-326l-96 318h-436z" />
    <glyph glyph-name="aringacute" unicode="&#x1fb;" horiz-adv-x="1157" 
d="M750 1548h-252l240 331h304zM441 -16q-158 0 -254.5 87.5t-96.5 237.5q0 148 99 234.5t282 86.5h252v90q0 65 -42.5 99t-116.5 34q-70 0 -109 -28.5t-48 -77.5h-279q4 68 30 125.5t76 106t136 76.5t199 28q96 0 174.5 -20t141 -62.5t97 -116.5t34.5 -174v-710h-279v132
h-14q-33 -63 -103 -105.5t-179 -42.5zM541 203q75 0 128.5 42t53.5 106v106h-180q-77 0 -118.5 -34t-41.5 -90q0 -61 46 -95.5t112 -34.5zM585 1179q-95 0 -159 62t-64 158t63.5 157t159.5 61q95 0 158.5 -61t63.5 -157t-63.5 -158t-158.5 -62zM493 1398q0 -39 26 -64.5
t65 -25.5t65 25.5t26 64.5t-26 64.5t-65 25.5t-65 -25.5t-26 -64.5z" />
    <glyph glyph-name="AEacute" unicode="&#x1fc;" horiz-adv-x="1952" 
d="M1188 1501l275 230h309l-310 -230h-274zM863 1108l-250 -552h317v552h-67zM930 311h-415l-155 -311h-334l645 1365h1157v-257h-597v-302h560v-237h-560v-312h597v-257h-898v311z" />
    <glyph glyph-name="aeacute" unicode="&#x1fd;" horiz-adv-x="1803" 
d="M803 1236l237 352h258l-280 -352h-215zM1242 -20q-151 0 -250 51.5t-145 140.5h-15q-48 -82 -141.5 -137t-225.5 -55q-174 0 -275.5 87.5t-101.5 240.5q0 150 100.5 236t284.5 86h251v90q0 65 -42.5 99t-116.5 34q-71 0 -111 -29t-48 -77h-279q4 68 30 126.5t77 107
t137.5 77t199.5 28.5q104 0 193 -34t136 -90h16q45 57 129 90.5t183 33.5q215 0 345.5 -134.5t130.5 -364.5v-119h-670v-59q0 -89 58 -142t148 -53q75 0 124.5 31t56.5 82h275q-3 -57 -30.5 -115t-79.5 -111.5t-141.5 -87t-202.5 -33.5zM1230 861q-85 0 -140.5 -56
t-55.5 -145v-14h385v10q0 94 -51 149.5t-138 55.5zM542 203q75 0 128.5 42t53.5 106v106h-178q-79 0 -122.5 -34t-43.5 -90q0 -61 47.5 -95.5t114.5 -34.5z" />
    <glyph glyph-name="Oslashacute" unicode="&#x1fe;" horiz-adv-x="1409" 
d="M700 -25q-229 0 -376 111l-98 -120l-130 109l110 134q-103 153 -103 389v160q0 293 159 462.5t440 169.5q223 0 372 -110l86 104l134 -102l-103 -124q109 -160 109 -400v-160q0 -290 -159 -456.5t-441 -166.5zM405 593q0 -65 16 -106l479 569q-77 77 -200 77
q-134 0 -214.5 -96t-80.5 -274v-170zM700 229q135 0 215.5 93t80.5 271v170q0 66 -19 117l-482 -573q75 -78 205 -78zM519 1501l275 230h309l-310 -230h-274z" />
    <glyph glyph-name="oslashacute" unicode="&#x1ff;" horiz-adv-x="1193" 
d="M453 277q54 -67 142 -67q103 0 154.5 80t51.5 195v113q0 40 -16 70zM389 474q0 -48 15 -75l332 396q-52 67 -141 67q-101 0 -153.5 -79t-52.5 -196v-113zM596 -20q-178 0 -302 84l-105 -124l-108 95l110 130q-94 130 -94 324v94q0 227 136.5 365.5t362.5 138.5
q171 0 296 -86l101 120l114 -96l-109 -129q95 -129 95 -311v-95q0 -242 -133.5 -376t-363.5 -134zM498 1236l237 352h258l-280 -352h-215z" />
    <glyph glyph-name="Adblgrave" unicode="&#x200;" horiz-adv-x="1324" 
d="M331 0h-304l448 1365h366l445 -1365h-326l-96 318h-436zM655 1074h-14l-154 -522h320zM1007 1501h-220l-340 249h258zM596 1501h-221l-340 249h258z" />
    <glyph glyph-name="adblgrave" unicode="&#x201;" horiz-adv-x="1157" 
d="M441 -16q-158 0 -254.5 87.5t-96.5 237.5q0 148 99 234.5t282 86.5h252v90q0 65 -42.5 99t-116.5 34q-70 0 -109 -28.5t-48 -77.5h-279q4 68 30 125.5t76 106t136 76.5t199 28q96 0 174.5 -20t141 -62.5t97 -116.5t34.5 -174v-710h-279v132h-14q-33 -63 -103 -105.5
t-179 -42.5zM541 203q75 0 128.5 42t53.5 106v106h-180q-77 0 -118.5 -34t-41.5 -90q0 -61 46 -95.5t112 -34.5zM324 1231l-296 356h231l248 -356h-183zM697 1231l-296 356h232l247 -356h-183z" />
    <glyph glyph-name="Ainvertedbreve" unicode="&#x202;" horiz-adv-x="1324" 
d="M331 0h-304l448 1365h366l445 -1365h-326l-96 318h-436zM655 1074h-14l-154 -522h320zM662 1614q-80 0 -125.5 -38t-45.5 -100h-169q0 133 92 215.5t248 82.5t247 -82t91 -216h-167q0 62 -45.5 100t-125.5 38z" />
    <glyph glyph-name="ainvertedbreve" unicode="&#x203;" horiz-adv-x="1157" 
d="M441 -16q-158 0 -254.5 87.5t-96.5 237.5q0 148 99 234.5t282 86.5h252v90q0 65 -42.5 99t-116.5 34q-70 0 -109 -28.5t-48 -77.5h-279q4 68 30 125.5t76 106t136 76.5t199 28q96 0 174.5 -20t141 -62.5t97 -116.5t34.5 -174v-710h-279v132h-14q-33 -63 -103 -105.5
t-179 -42.5zM541 203q75 0 128.5 42t53.5 106v106h-180q-77 0 -118.5 -34t-41.5 -90q0 -61 46 -95.5t112 -34.5zM251 1222q0 138 87 232t240 94t239 -94t85 -232h-166q0 69 -40 116.5t-118 47.5t-118 -47.5t-40 -116.5h-169z" />
    <glyph glyph-name="Edblgrave" unicode="&#x204;" horiz-adv-x="1185" 
d="M948 1501h-220l-340 249h258zM537 1501h-221l-340 249h258zM1061 257v-257h-901v1365h901v-257h-599v-302h562v-237h-562v-312h599z" />
    <glyph glyph-name="edblgrave" unicode="&#x205;" horiz-adv-x="1158" 
d="M593 -20q-230 0 -364 129.5t-134 372.5v105q0 121 37.5 217.5t103.5 157.5t153.5 93t189.5 32q215 0 348 -135t133 -365v-119h-676v-48q0 -93 57 -149.5t150 -56.5q76 0 127 31.5t58 81.5h275q-3 -45 -20 -91t-53.5 -92.5t-88 -82.5t-128.5 -58.5t-168 -22.5zM384 646
h390v7q0 94 -52.5 151t-140.5 57t-142.5 -57.5t-54.5 -150.5v-7zM325 1231l-296 356h231l248 -356h-183zM698 1231l-296 356h232l247 -356h-183z" />
    <glyph glyph-name="Einvertedbreve" unicode="&#x206;" horiz-adv-x="1185" 
d="M1061 257v-257h-901v1365h901v-257h-599v-302h562v-237h-562v-312h599zM603 1614q-80 0 -125.5 -38t-45.5 -100h-169q0 133 92 215.5t248 82.5t247 -82t91 -216h-167q0 62 -45.5 100t-125.5 38z" />
    <glyph glyph-name="einvertedbreve" unicode="&#x207;" horiz-adv-x="1158" 
d="M593 -20q-230 0 -364 129.5t-134 372.5v105q0 121 37.5 217.5t103.5 157.5t153.5 93t189.5 32q215 0 348 -135t133 -365v-119h-676v-48q0 -93 57 -149.5t150 -56.5q76 0 127 31.5t58 81.5h275q-3 -45 -20 -91t-53.5 -92.5t-88 -82.5t-128.5 -58.5t-168 -22.5zM384 646
h390v7q0 94 -52.5 151t-140.5 57t-142.5 -57.5t-54.5 -150.5v-7zM252 1222q0 138 87 232t240 94t239 -94t85 -232h-166q0 69 -40 116.5t-118 47.5t-118 -47.5t-40 -116.5h-169z" />
    <glyph glyph-name="Idblgrave" unicode="&#x208;" horiz-adv-x="624" 
d="M461 0h-305v1365h305v-1365zM658 1501h-220l-340 249h258zM247 1501h-221l-340 249h258z" />
    <glyph glyph-name="idblgrave" unicode="&#x209;" horiz-adv-x="622" 
d="M161 0v1067h296v-1067h-296zM64 1231l-296 356h231l248 -356h-183zM437 1231l-296 356h232l247 -356h-183z" />
    <glyph glyph-name="Iinvertedbreve" unicode="&#x20a;" horiz-adv-x="624" 
d="M461 0h-305v1365h305v-1365zM313 1614q-80 0 -125.5 -38t-45.5 -100h-169q0 133 92 215.5t248 82.5t247 -82t91 -216h-167q0 62 -45.5 100t-125.5 38z" />
    <glyph glyph-name="iinvertedbreve" unicode="&#x20b;" horiz-adv-x="622" 
d="M161 0v1067h296v-1067h-296zM-9 1222q0 138 87 232t240 94t239 -94t85 -232h-166q0 69 -40 116.5t-118 47.5t-118 -47.5t-40 -116.5h-169z" />
    <glyph glyph-name="Odblgrave" unicode="&#x20c;" horiz-adv-x="1409" 
d="M1049 1501h-220l-340 249h258zM638 1501h-221l-340 249h258zM413 762v-165q0 -175 78 -266.5t210 -91.5t210 91.5t78 266.5v165q0 176 -78.5 270t-209.5 94t-209.5 -94t-78.5 -270zM103 598v160q0 293 159 462.5t440 169.5t439.5 -170t158.5 -462v-160
q0 -290 -159 -456.5t-441 -166.5q-281 0 -439 166.5t-158 456.5z" />
    <glyph glyph-name="odblgrave" unicode="&#x20d;" horiz-adv-x="1193" 
d="M596 1087q226 0 361.5 -136.5t135.5 -365.5v-95q0 -242 -133.5 -376t-363.5 -134q-232 0 -365.5 133.5t-133.5 375.5v94q0 227 136.5 365.5t362.5 138.5zM595 852q-97 0 -148 -77t-51 -191v-100q0 -112 49.5 -190t149.5 -78q68 0 114 39.5t65 98t19 130.5v100
q0 115 -50 191.5t-148 76.5zM343 1231l-296 356h231l248 -356h-183zM716 1231l-296 356h232l247 -356h-183z" />
    <glyph glyph-name="Oinvertedbreve" unicode="&#x20e;" horiz-adv-x="1409" 
d="M704 1614q-80 0 -125.5 -38t-45.5 -100h-169q0 133 92 215.5t248 82.5t247 -82t91 -216h-167q0 62 -45.5 100t-125.5 38zM413 762v-165q0 -175 78 -266.5t210 -91.5t210 91.5t78 266.5v165q0 176 -78.5 270t-209.5 94t-209.5 -94t-78.5 -270zM103 598v160
q0 293 159 462.5t440 169.5t439.5 -170t158.5 -462v-160q0 -290 -159 -456.5t-441 -166.5q-281 0 -439 166.5t-158 456.5z" />
    <glyph glyph-name="oinvertedbreve" unicode="&#x20f;" horiz-adv-x="1193" 
d="M596 1087q226 0 361.5 -136.5t135.5 -365.5v-95q0 -242 -133.5 -376t-363.5 -134q-232 0 -365.5 133.5t-133.5 375.5v94q0 227 136.5 365.5t362.5 138.5zM595 852q-97 0 -148 -77t-51 -191v-100q0 -112 49.5 -190t149.5 -78q68 0 114 39.5t65 98t19 130.5v100
q0 115 -50 191.5t-148 76.5zM270 1222q0 138 87 232t240 94t239 -94t85 -232h-166q0 69 -40 116.5t-118 47.5t-118 -47.5t-40 -116.5h-169z" />
    <glyph glyph-name="Rdblgrave" unicode="&#x210;" horiz-adv-x="1322" 
d="M988 1501h-220l-340 249h258zM577 1501h-221l-340 249h258zM720 1365q240 0 366.5 -122.5t126.5 -322.5q0 -80 -24 -148.5t-63 -114.5t-79 -76t-80 -46l273 -535h-339l-235 490h-210v-490h-300v1365h564zM456 719h216q106 0 166 51t60 147q0 99 -62 152t-161 53h-219
v-403z" />
    <glyph glyph-name="rdblgrave" unicode="&#x211;" horiz-adv-x="863" 
d="M146 0v1067h297v-168h14q19 68 85 126t174 58q53 0 91 -9v-267q-33 12 -112 12q-122 0 -183.5 -63.5t-61.5 -174.5v-581h-304zM199 1231l-296 356h231l248 -356h-183zM572 1231l-296 356h232l247 -356h-183z" />
    <glyph glyph-name="Rinvertedbreve" unicode="&#x212;" horiz-adv-x="1322" 
d="M720 1365q240 0 366.5 -122.5t126.5 -322.5q0 -80 -24 -148.5t-63 -114.5t-79 -76t-80 -46l273 -535h-339l-235 490h-210v-490h-300v1365h564zM456 719h216q106 0 166 51t60 147q0 99 -62 152t-161 53h-219v-403zM643 1614q-80 0 -125.5 -38t-45.5 -100h-169
q0 133 92 215.5t248 82.5t247 -82t91 -216h-167q0 62 -45.5 100t-125.5 38z" />
    <glyph glyph-name="rinvertedbreve" unicode="&#x213;" horiz-adv-x="863" 
d="M146 0v1067h297v-168h14q19 68 85 126t174 58q53 0 91 -9v-267q-33 12 -112 12q-122 0 -183.5 -63.5t-61.5 -174.5v-581h-304zM126 1222q0 138 87 232t240 94t239 -94t85 -232h-166q0 69 -40 116.5t-118 47.5t-118 -47.5t-40 -116.5h-169z" />
    <glyph glyph-name="Udblgrave" unicode="&#x214;" horiz-adv-x="1419" 
d="M1055 1501h-220l-340 249h258zM644 1501h-221l-340 249h258zM449 1365v-855q0 -129 70 -197t189 -68q118 0 188 68.5t70 196.5v855h305v-892q0 -227 -153 -362.5t-410 -135.5t-410.5 136.5t-153.5 362.5v891h305z" />
    <glyph glyph-name="udblgrave" unicode="&#x215;" horiz-adv-x="1253" 
d="M1105 1067v-1067h-289v178h-15q-16 -46 -51 -87.5t-104 -74t-156 -32.5q-166 0 -260 92.5t-94 278.5v712h296v-633q0 -192 177 -192q84 0 141.5 54.5t57.5 146.5v624h297zM372 1231l-296 356h231l248 -356h-183zM745 1231l-296 356h232l247 -356h-183z" />
    <glyph glyph-name="Uinvertedbreve" unicode="&#x216;" horiz-adv-x="1419" 
d="M449 1365v-855q0 -129 70 -197t189 -68q118 0 188 68.5t70 196.5v855h305v-892q0 -227 -153 -362.5t-410 -135.5t-410.5 136.5t-153.5 362.5v891h305zM710 1614q-80 0 -125.5 -38t-45.5 -100h-169q0 133 92 215.5t248 82.5t247 -82t91 -216h-167q0 62 -45.5 100
t-125.5 38z" />
    <glyph glyph-name="uinvertedbreve" unicode="&#x217;" horiz-adv-x="1253" 
d="M1105 1067v-1067h-289v178h-15q-16 -46 -51 -87.5t-104 -74t-156 -32.5q-166 0 -260 92.5t-94 278.5v712h296v-633q0 -192 177 -192q84 0 141.5 54.5t57.5 146.5v624h297zM299 1222q0 138 87 232t240 94t239 -94t85 -232h-166q0 69 -40 116.5t-118 47.5t-118 -47.5
t-40 -116.5h-169z" />
    <glyph glyph-name="Scommaaccent" unicode="&#x218;" horiz-adv-x="1269" 
d="M77 398h291q6 -73 75 -124t189 -51q115 0 176 43.5t61 115.5q0 63 -49 98t-156 58l-201 42q-161 34 -258.5 127.5t-97.5 259.5q0 132 69.5 229.5t187 146t266.5 48.5q232 0 374.5 -118t144.5 -297h-283q-6 71 -67 121t-170 50q-101 0 -159 -42t-58 -112q0 -108 184 -145
l204 -41q63 -12 115 -30.5t101 -50t82 -73.5t53 -103t20 -136q0 -202 -147.5 -320.5t-405.5 -118.5q-118 0 -212 25.5t-154 66.5t-100 97t-57 114t-18 120zM632 -481h-192l84 326h218z" />
    <glyph glyph-name="scommaaccent" unicode="&#x219;" horiz-adv-x="1089" 
d="M105 747q0 88 35.5 155.5t97.5 106.5t139 58.5t168 19.5q188 0 302.5 -83.5t114.5 -236.5h-260q-6 47 -48 81t-114 34t-113 -30.5t-41 -80.5q0 -16 5.5 -30t17 -25t24 -19.5t33 -15.5t36.5 -12t41 -9.5t41 -7.5t42 -7l39 -6q159 -26 245 -97t86 -206q0 -166 -123.5 -261
t-345.5 -95q-208 0 -326 89t-118 234h287q6 -52 50 -83.5t122 -31.5q84 0 125.5 31t41.5 81q0 19 -6.5 34.5t-23 27t-30.5 19.5t-44 15.5t-47 11t-56 10.5t-56 10q-60 12 -108 27.5t-93 41t-75 59t-47.5 82.5t-17.5 109zM554 -481h-192l84 326h218z" />
    <glyph glyph-name="Tcommaaccent" unicode="&#x21a;" horiz-adv-x="1135" 
d="M576 -481h-192l84 326h218zM716 0h-305v1100h-378v265h1062v-265h-379v-1100z" />
    <glyph glyph-name="tcommaaccent" unicode="&#x21b;" horiz-adv-x="842" 
d="M481 -481h-192l84 326h218zM226 1052v264h287v-264h235v-237h-235v-458q0 -70 35 -98.5t114 -28.5q55 0 93 4v-225q-57 -13 -165 -13q-202 0 -286 70t-84 238v511h-163v237h169z" />
    <glyph glyph-name="Hcaron" unicode="&#x21e;" horiz-adv-x="1464" 
d="M1300 0h-305v561h-532v-561h-305v1365h305v-541h532v541h305v-1365zM362 1727h234l131 -115h15l121 115h236l-240 -234h-242z" />
    <glyph glyph-name="hcaron" unicode="&#x21f;" horiz-adv-x="1262" 
d="M146 0v1437h296v-555h15q10 33 31 65t57.5 64t94.5 52t130 20q161 0 256.5 -97t95.5 -281v-705h-297v623q0 106 -50 153.5t-130 47.5q-92 0 -147.5 -62.5t-55.5 -170.5v-591h-296zM-60 1910h223l130 -201h11l117 201h229l-241 -345h-216z" />
    <glyph glyph-name="Adotaccent" unicode="&#x226;" horiz-adv-x="1324" 
d="M331 0h-304l448 1365h366l445 -1365h-326l-96 318h-436zM655 1074h-14l-154 -522h320zM532 1608q0 60 36 98.5t94 38.5t97 -38.5t39 -98.5q0 -59 -39 -97t-97 -38t-94 37.5t-36 97.5z" />
    <glyph glyph-name="adotaccent" unicode="&#x227;" horiz-adv-x="1157" 
d="M441 -16q-158 0 -254.5 87.5t-96.5 237.5q0 148 99 234.5t282 86.5h252v90q0 65 -42.5 99t-116.5 34q-70 0 -109 -28.5t-48 -77.5h-279q4 68 30 125.5t76 106t136 76.5t199 28q96 0 174.5 -20t141 -62.5t97 -116.5t34.5 -174v-710h-279v132h-14q-33 -63 -103 -105.5
t-179 -42.5zM541 203q75 0 128.5 42t53.5 106v106h-180q-77 0 -118.5 -34t-41.5 -90q0 -61 46 -95.5t112 -34.5zM448 1310q0 60 36 98.5t94 38.5t97 -38.5t39 -98.5q0 -59 -39 -97t-97 -38t-94 37.5t-36 97.5z" />
    <glyph glyph-name="Ecedilla" unicode="&#x228;" horiz-adv-x="1185" 
d="M521 0h-359v1365h901v-257h-599v-302h562v-237h-562v-312h599v-257h-374l-45 -111q86 0 137.5 -46t51.5 -125q0 -99 -67 -148t-184 -51q-87 -1 -146 16v132q47 -14 110 -14q108 0 108 55q0 32 -29 44t-97 12h-55v112z" />
    <glyph glyph-name="ecedilla" unicode="&#x229;" horiz-adv-x="1158" 
d="M387 646h390v7q0 94 -52.5 151t-140.5 57t-142.5 -57.5t-54.5 -150.5v-7zM583 -481q-86 -1 -145 16v132q47 -14 110 -14q108 0 108 55q0 32 -29.5 44t-96.5 12h-55v112l43 109q-196 21 -308 148.5t-112 348.5v105q0 121 37.5 217.5t103.5 157.5t153.5 93t189.5 32
q215 0 348 -135t133 -365v-119h-676v-48q0 -93 57 -149.5t150 -56.5q76 0 127 31.5t58 81.5h275q-3 -51 -26.5 -103t-66 -101.5t-114.5 -86t-162 -49.5l-40 -98q87 0 138.5 -46t51.5 -125q0 -99 -67 -148t-185 -51z" />
    <glyph glyph-name="Odieresismacron" unicode="&#x22a;" horiz-adv-x="1409" 
d="M378 1578q0 56 34.5 89.5t91.5 33.5q59 0 93.5 -33.5t34.5 -89.5q0 -55 -34.5 -88.5t-93.5 -33.5q-57 0 -91.5 33.5t-34.5 88.5zM773 1578q0 56 34.5 89.5t92.5 33.5t93 -33.5t35 -89.5q0 -55 -34.5 -88.5t-93.5 -33.5q-58 0 -92.5 33.5t-34.5 88.5zM413 762v-165
q0 -175 78 -266.5t210 -91.5t210 91.5t78 266.5v165q0 176 -78.5 270t-209.5 94t-209.5 -94t-78.5 -270zM103 598v160q0 293 159 462.5t440 169.5t439.5 -170t158.5 -462v-160q0 -290 -159 -456.5t-441 -166.5q-281 0 -439 166.5t-158 456.5zM1011 1782h-614v156h614v-156z
" />
    <glyph glyph-name="odieresismacron" unicode="&#x22b;" horiz-adv-x="1193" 
d="M258 1324q0 58 37 94t97 36q61 0 98 -36t37 -94t-37 -93.5t-98 -35.5q-60 0 -97 35.5t-37 93.5zM673 1324q0 58 36.5 94t95.5 36q62 0 99.5 -35.5t37.5 -94.5q0 -58 -37 -93.5t-100 -35.5q-59 0 -95.5 35.5t-36.5 93.5zM596 1087q226 0 361.5 -136.5t135.5 -365.5v-95
q0 -242 -133.5 -376t-363.5 -134q-232 0 -365.5 133.5t-133.5 375.5v94q0 227 136.5 365.5t362.5 138.5zM595 852q-97 0 -148 -77t-51 -191v-100q0 -112 49.5 -190t149.5 -78q68 0 114 39.5t65 98t19 130.5v100q0 115 -50 191.5t-148 76.5zM907 1573h-608v167h608v-167z" />
    <glyph glyph-name="Otildemacron" unicode="&#x22c;" horiz-adv-x="1409" 
d="M413 762v-165q0 -175 78 -266.5t210 -91.5t210 91.5t78 266.5v165q0 176 -78.5 270t-209.5 94t-209.5 -94t-78.5 -270zM103 598v160q0 293 159 462.5t440 169.5t439.5 -170t158.5 -462v-160q0 -290 -159 -456.5t-441 -166.5q-281 0 -439 166.5t-158 456.5zM688 1507
q-4 3 -18 16.5t-21.5 19.5t-21 12t-26.5 6q-63 0 -69 -87h-154q0 92 51.5 162.5t146.5 70.5q53 0 87 -15.5t73 -49.5q5 -4 17.5 -15.5t17.5 -15.5t14.5 -10.5t18.5 -9t19 -2.5q34 0 50 30t18 72h154q0 -100 -57.5 -170t-146.5 -70q-59 0 -91.5 14.5t-61.5 41.5zM1011 1782
h-614v156h614v-156z" />
    <glyph glyph-name="otildemacron" unicode="&#x22d;" horiz-adv-x="1193" 
d="M577 1245q-13 15 -21 23t-25.5 17.5t-36.5 9.5q-64 0 -70 -99h-157q0 121 55.5 203.5t156.5 82.5q48 0 83 -18t70 -58q4 -4 18 -19t20 -20.5t19.5 -11.5t28.5 -6q32 0 48 34.5t18 82.5h156q0 -118 -61.5 -203.5t-154.5 -85.5q-90 0 -147 68zM907 1573h-608v167h608v-167z
M596 1087q226 0 361.5 -136.5t135.5 -365.5v-95q0 -242 -133.5 -376t-363.5 -134q-232 0 -365.5 133.5t-133.5 375.5v94q0 227 136.5 365.5t362.5 138.5zM595 852q-97 0 -148 -77t-51 -191v-100q0 -112 49.5 -190t149.5 -78q68 0 114 39.5t65 98t19 130.5v100
q0 115 -50 191.5t-148 76.5z" />
    <glyph glyph-name="Odotaccent" unicode="&#x22e;" horiz-adv-x="1409" 
d="M574 1608q0 60 36 98.5t94 38.5t97 -38.5t39 -98.5q0 -59 -39 -97t-97 -38t-94 37.5t-36 97.5zM413 762v-165q0 -175 78 -266.5t210 -91.5t210 91.5t78 266.5v165q0 176 -78.5 270t-209.5 94t-209.5 -94t-78.5 -270zM103 598v160q0 293 159 462.5t440 169.5t439.5 -170
t158.5 -462v-160q0 -290 -159 -456.5t-441 -166.5q-281 0 -439 166.5t-158 456.5z" />
    <glyph glyph-name="odotaccent" unicode="&#x22f;" horiz-adv-x="1193" 
d="M467 1310q0 60 36 98.5t94 38.5t97 -38.5t39 -98.5q0 -59 -39 -97t-97 -38t-94 37.5t-36 97.5zM596 1087q226 0 361.5 -136.5t135.5 -365.5v-95q0 -242 -133.5 -376t-363.5 -134q-232 0 -365.5 133.5t-133.5 375.5v94q0 227 136.5 365.5t362.5 138.5zM595 852
q-97 0 -148 -77t-51 -191v-100q0 -112 49.5 -190t149.5 -78q68 0 114 39.5t65 98t19 130.5v100q0 115 -50 191.5t-148 76.5z" />
    <glyph glyph-name="Odotaccentmacron" unicode="&#x230;" horiz-adv-x="1409" 
d="M574 1608q0 60 36 98.5t94 38.5t97 -38.5t39 -98.5q0 -59 -39 -97t-97 -38t-94 37.5t-36 97.5zM413 762v-165q0 -175 78 -266.5t210 -91.5t210 91.5t78 266.5v165q0 176 -78.5 270t-209.5 94t-209.5 -94t-78.5 -270zM103 598v160q0 293 159 462.5t440 169.5t439.5 -170
t158.5 -462v-160q0 -290 -159 -456.5t-441 -166.5q-281 0 -439 166.5t-158 456.5zM1011 1782h-614v156h614v-156z" />
    <glyph glyph-name="odotaccentmacron" unicode="&#x231;" horiz-adv-x="1193" 
d="M467 1310q0 60 36 98.5t94 38.5t97 -38.5t39 -98.5q0 -59 -39 -97t-97 -38t-94 37.5t-36 97.5zM907 1573h-608v167h608v-167zM596 1087q226 0 361.5 -136.5t135.5 -365.5v-95q0 -242 -133.5 -376t-363.5 -134q-232 0 -365.5 133.5t-133.5 375.5v94q0 227 136.5 365.5
t362.5 138.5zM595 852q-97 0 -148 -77t-51 -191v-100q0 -112 49.5 -190t149.5 -78q68 0 114 39.5t65 98t19 130.5v100q0 115 -50 191.5t-148 76.5z" />
    <glyph glyph-name="Ymacron" unicode="&#x232;" horiz-adv-x="1216" 
d="M756 0h-305v481l-457 884h336l271 -564h12l274 564h326l-457 -876v-489zM915 1489h-614v156h614v-156z" />
    <glyph glyph-name="ymacron" unicode="&#x233;" horiz-adv-x="1151" 
d="M1102 1067q-333 -1003 -338 -1018l-27 -72q-31 -84 -66 -143t-89 -109t-133 -75t-183 -25q-96 0 -159 13v218q25 -7 90 -7q95 0 137 31.5t52 97.5l8 26l-360 1063h327l204 -810h12l211 810h314zM885 1225h-608v167h608v-167z" />
    <glyph glyph-name="circumflex" unicode="&#x2c6;" horiz-adv-x="1000" 
d="M155 1220l254 344h215l242 -344h-229l-117 197h-11l-131 -197h-223z" />
    <glyph glyph-name="caron" unicode="&#x2c7;" horiz-adv-x="1000" 
d="M141 1568h223l130 -201h11l117 201h229l-241 -345h-216z" />
    <glyph glyph-name="breve" unicode="&#x2d8;" horiz-adv-x="1000" 
d="M175 1543h169q0 -69 40 -116.5t118 -47.5t118 47.5t40 116.5h166q0 -138 -86 -232t-238 -94q-153 0 -240.5 94t-86.5 232z" />
    <glyph glyph-name="dotaccent" unicode="&#x2d9;" horiz-adv-x="1000" 
d="M334 1379q0 74 47 119.5t116 45.5q70 0 117 -45.5t47 -119.5q0 -73 -46.5 -117.5t-117.5 -44.5q-69 0 -116 44.5t-47 117.5z" />
    <glyph glyph-name="ring" unicode="&#x2da;" horiz-adv-x="1000" 
d="M488 1213q-95 0 -159 62t-64 158t63.5 157t159.5 61q95 0 158.5 -61t63.5 -157t-63.5 -158t-158.5 -62zM396 1432q0 -39 26 -64.5t65 -25.5t65 25.5t26 64.5t-26 64.5t-65 25.5t-65 -25.5t-26 -64.5z" />
    <glyph glyph-name="ogonek" unicode="&#x2db;" horiz-adv-x="1000" 
d="M703 -200v-166q-61 -25 -154 -25q-113 0 -177 55.5t-64 145.5q0 46 16 89.5t46 82.5t58 67.5t67 62.5h167q-153 -126 -153 -226q0 -47 32.5 -71.5t81.5 -24.5q37 0 80 10z" />
    <glyph glyph-name="tilde" unicode="&#x2dc;" horiz-adv-x="1000" 
d="M467 1291q-13 15 -21 23t-25.5 17.5t-36.5 9.5q-64 0 -70 -99h-157q0 121 55.5 203.5t156.5 82.5q48 0 83 -18t70 -58q4 -4 18 -19t20 -20.5t19.5 -11.5t28.5 -6q32 0 48 34.5t18 82.5h156q0 -118 -61.5 -203.5t-154.5 -85.5q-90 0 -147 68z" />
    <glyph glyph-name="hungarumlaut" unicode="&#x2dd;" horiz-adv-x="1000" 
d="M271 1239h-183l248 357h231zM646 1239h-182l247 357h231z" />
    <glyph glyph-name="gravecmb" unicode="&#x300;" horiz-adv-x="0" 
d="M135 1236h-215l-280 352h258z" />
    <glyph glyph-name="acutecmb" unicode="&#x301;" horiz-adv-x="0" 
d="M-99 1236l237 352h258l-280 -352h-215z" />
    <glyph glyph-name="circumflexcmb" unicode="&#x302;" horiz-adv-x="0" 
d="M-361 1233l254 344h215l242 -344h-229l-117 197h-11l-131 -197h-223z" />
    <glyph glyph-name="tildecmb" unicode="&#x303;" horiz-adv-x="0" 
d="M-20 1245q-13 15 -21 23t-25.5 17.5t-36.5 9.5q-64 0 -70 -99h-157q0 121 55.5 203.5t156.5 82.5q48 0 83 -18t70 -58q4 -4 18 -19t20 -20.5t19.5 -11.5t28.5 -6q32 0 48 34.5t18 82.5h156q0 -118 -61.5 -203.5t-154.5 -85.5q-90 0 -147 68z" />
    <glyph glyph-name="macroncmb" unicode="&#x304;" horiz-adv-x="0" 
d="M310 1225h-608v167h608v-167z" />
    <glyph glyph-name="brevecmb" unicode="&#x306;" horiz-adv-x="0" 
d="M-310 1511h169q0 -69 40 -116.5t118 -47.5t118 47.5t40 116.5h166q0 -138 -86 -232t-238 -94q-153 0 -240.5 94t-86.5 232z" />
    <glyph glyph-name="dotaccentcmb" unicode="&#x307;" horiz-adv-x="0" 
d="M-130 1310q0 60 36 98.5t94 38.5t97 -38.5t39 -98.5q0 -59 -39 -97t-97 -38t-94 37.5t-36 97.5z" />
    <glyph glyph-name="dieresiscmb" unicode="&#x308;" horiz-adv-x="0" 
d="M-339 1324q0 58 37 94t97 36q61 0 98 -36t37 -94t-37 -93.5t-98 -35.5q-60 0 -97 35.5t-37 93.5zM76 1324q0 58 36.5 94t95.5 36q62 0 99.5 -35.5t37.5 -94.5q0 -58 -37 -93.5t-100 -35.5q-59 0 -95.5 35.5t-36.5 93.5z" />
    <glyph glyph-name="hookabovecmb" unicode="&#x309;" horiz-adv-x="0" 
d="M-147 1448v136q49 19 118 19q107 0 172 -51.5t65 -144.5q0 -82 -44.5 -132t-128.5 -94l-84 104q50 28 71 51t21 51q0 34 -27 54.5t-73 20.5q-50 0 -90 -14z" />
    <glyph glyph-name="ringcmb" unicode="&#x30a;" horiz-adv-x="0" 
d="M-223 1179q-95 0 -159 62t-64 158t63.5 157t159.5 61q95 0 158.5 -61t63.5 -157t-63.5 -158t-158.5 -62zM-315 1398q0 -39 26 -64.5t65 -25.5t65 25.5t26 64.5t-26 64.5t-65 25.5t-65 -25.5t-26 -64.5z" />
    <glyph glyph-name="hungarumlautcmb" unicode="&#x30b;" horiz-adv-x="0" 
d="M-128 1235h-183l248 357h231zM247 1235h-182l247 357h231z" />
    <glyph glyph-name="caroncmb" unicode="&#x30c;" horiz-adv-x="0" 
d="M-357 1540h223l130 -201h11l117 201h229l-241 -345h-216z" />
    <glyph glyph-name="dblgravecmb" unicode="&#x30f;" horiz-adv-x="0" 
d="M-254 1231l-296 356h231l248 -356h-183zM119 1231l-296 356h232l247 -356h-183z" />
    <glyph glyph-name="invertedbrevecmb" unicode="&#x311;" horiz-adv-x="0" 
d="M-327 1222q0 138 87 232t240 94t239 -94t85 -232h-166q0 69 -40 116.5t-118 47.5t-118 -47.5t-40 -116.5h-169z" />
    <glyph glyph-name="horncmb" unicode="&#x31b;" horiz-adv-x="0" 
d="M0 868v222q31 -16 68 -15q47 4 66 32.5t19 80.5v157h233v-198q0 -62 -14.5 -115t-44 -95.5t-79 -66.5t-114.5 -24q-95 0 -134 22z" />
    <glyph glyph-name="dotbelowcmb" unicode="&#x323;" horiz-adv-x="0" 
d="M-138 -247q0 62 39.5 103t98.5 41q60 0 101 -41t41 -103t-41 -101.5t-101 -39.5t-99 39.5t-39 101.5z" />
    <glyph glyph-name="dieresisbelowcmb" unicode="&#x324;" horiz-adv-x="0" 
d="M-341 -293q0 58 37 94t97 36q61 0 98 -35.5t37 -94.5q0 -58 -37 -93.5t-98 -35.5q-60 0 -97 35.5t-37 93.5zM74 -293q0 58 36.5 94t95.5 36q62 0 99.5 -35.5t37.5 -94.5q0 -58 -37 -93.5t-100 -35.5q-59 0 -95.5 35.5t-36.5 93.5z" />
    <glyph glyph-name="ringbelowcmb" unicode="&#x325;" horiz-adv-x="0" 
d="M-2 -520q-95 0 -159 62t-64 158t63.5 157t159.5 61q95 0 158.5 -61t63.5 -157t-63.5 -158t-158.5 -62zM-94 -301q0 -39 26 -64.5t65 -25.5t65 25.5t26 64.5t-26 64.5t-65 25.5t-65 -25.5t-26 -64.5z" />
    <glyph glyph-name="commabelowcmb" unicode="&#x326;" horiz-adv-x="0" 
d="M9 -481h-192l84 326h218z" />
    <glyph glyph-name="cedillacmb" unicode="&#x327;" horiz-adv-x="0" 
d="M-37 -236v112l51 128h167l-47 -115q87 0 138 -46t51 -125q0 -99 -67 -148t-184 -51q-86 -1 -145 16v132q47 -14 110 -14q108 0 108 55q0 32 -29.5 44t-96.5 12h-56z" />
    <glyph glyph-name="ogonekcmb" unicode="&#x328;" horiz-adv-x="0" 
d="M316 -200v-166q-61 -25 -154 -25q-113 0 -177 55.5t-64 145.5q0 46 16 89.5t46 82.5t58 67.5t67 62.5h167q-153 -126 -153 -226q0 -47 32.5 -71.5t81.5 -24.5q37 0 80 10z" />
    <glyph glyph-name="circumflexbelowcmb" unicode="&#x32d;" horiz-adv-x="0" 
d="M-373 -385l268 269h215l255 -269h-240l-120 135h-12l-134 -135h-232z" />
    <glyph glyph-name="brevebelowcmb" unicode="&#x32e;" horiz-adv-x="0" 
d="M-335 -122h173q0 -69 41.5 -116.5t120.5 -47.5t120.5 47.5t41.5 116.5h167q0 -139 -86 -232.5t-243 -93.5t-246 93t-89 233z" />
    <glyph glyph-name="tildebelowcmb" unicode="&#x330;" horiz-adv-x="0" 
d="M-16 -324q-4 3 -14.5 14t-16.5 15.5t-15.5 11.5t-19.5 10t-21 3q-63 0 -69 -87h-154q0 92 51.5 162.5t146.5 70.5q53 0 87.5 -15.5t72.5 -48.5q5 -5 15 -14t14.5 -13t12.5 -10.5t14 -9t14.5 -5t16.5 -2.5q34 0 50 30t18 72h154q0 -100 -57.5 -170t-146.5 -70
q-59 0 -91.5 14.5t-61.5 41.5z" />
    <glyph glyph-name="macronbelowcmb" unicode="&#x331;" horiz-adv-x="0" 
d="M309 -348h-608v167h608v-167z" />
    <glyph glyph-name="Delta" unicode="&#x394;" horiz-adv-x="1324" 
d="M32 0l448 1365h366l445 -1365h-1259zM646 1074l-240 -794h491l-237 794h-14z" />
    <glyph glyph-name="Omega" unicode="&#x3a9;" horiz-adv-x="1427" 
d="M803 0v328q87 27 143 123t56 233v112q0 168 -77.5 249t-210.5 81q-134 0 -211 -81t-77 -249v-112q0 -134 53 -229t136 -124v-331h-532v268h238v21q-91 46 -148.5 160.5t-57.5 243.5v112q0 286 156.5 435.5t442.5 149.5q287 0 442.5 -149t155.5 -436v-112
q0 -127 -60 -243.5t-151 -160.5v-22h244v-267h-542z" />
    <glyph glyph-name="mu" unicode="&#x3bc;" horiz-adv-x="1301" 
d="M396 37h-13l8 -374h-255v1404h296v-633q0 -56 15 -95t41.5 -59.5t55.5 -29t64 -8.5q85 0 142.5 54.5t57.5 146.5v624h297v-742q0 -59 23.5 -85.5t79.5 -26.5q22 0 50 4v-220q-74 -16 -154 -16q-105 0 -174.5 46t-74.5 147l-1 11h-15q-15 -77 -90.5 -138t-190.5 -61
q-52 0 -98 15t-64 36z" />
    <glyph glyph-name="pi" unicode="&#x3c0;" horiz-adv-x="1419" 
d="M1310 0q-82 -17 -174 -17q-136 0 -205 68t-69 180v600h-289v-831h-296v831h-217v236h1294v-236h-196v-507q0 -44 22 -69t64 -25q39 0 66 5v-235z" />
    <glyph glyph-name="Aringbelow" unicode="&#x1e00;" horiz-adv-x="1324" 
d="M331 0h-304l448 1365h366l445 -1365h-326l-96 318h-436zM655 1074h-14l-154 -522h320zM650 -510q-95 0 -159 62t-64 158t63.5 157t159.5 61q95 0 158.5 -61t63.5 -157t-63.5 -158t-158.5 -62zM558 -291q0 -39 26 -64.5t65 -25.5t65 25.5t26 64.5t-26 64.5t-65 25.5
t-65 -25.5t-26 -64.5z" />
    <glyph glyph-name="aringbelow" unicode="&#x1e01;" horiz-adv-x="1157" 
d="M441 -16q-158 0 -254.5 87.5t-96.5 237.5q0 148 99 234.5t282 86.5h252v90q0 65 -42.5 99t-116.5 34q-70 0 -109 -28.5t-48 -77.5h-279q4 68 30 125.5t76 106t136 76.5t199 28q96 0 174.5 -20t141 -62.5t97 -116.5t34.5 -174v-710h-279v132h-14q-33 -63 -103 -105.5
t-179 -42.5zM541 203q75 0 128.5 42t53.5 106v106h-180q-77 0 -118.5 -34t-41.5 -90q0 -61 46 -95.5t112 -34.5zM576 -520q-95 0 -159 62t-64 158t63.5 157t159.5 61q95 0 158.5 -61t63.5 -157t-63.5 -158t-158.5 -62zM484 -301q0 -39 26 -64.5t65 -25.5t65 25.5t26 64.5
t-26 64.5t-65 25.5t-65 -25.5t-26 -64.5z" />
    <glyph glyph-name="Bdotaccent" unicode="&#x1e02;" horiz-adv-x="1318" 
d="M158 0v1365h590q187 0 300 -89t113 -246q0 -126 -67.5 -202t-172.5 -96v-15q130 -10 218.5 -95.5t88.5 -234.5q0 -122 -64.5 -211t-170.5 -132.5t-240 -43.5h-595zM460 1135v-326h167q117 0 176 43.5t59 121.5q0 76 -51.5 118.5t-137.5 42.5h-213zM460 599v-369h187
q130 0 200.5 45.5t70.5 137.5q0 88 -60 137t-169 49h-229zM509 1608q0 60 36 98.5t94 38.5t97 -38.5t39 -98.5q0 -59 -39 -97t-97 -38t-94 37.5t-36 97.5z" />
    <glyph glyph-name="bdotaccent" unicode="&#x1e03;" horiz-adv-x="1257" 
d="M164 1680q0 60 36 98.5t94 38.5t97 -38.5t39 -98.5q0 -59 -39 -97t-97 -38t-94 37.5t-36 97.5zM759 -12q-117 0 -196.5 49t-108.5 129h-15v-166h-294v1437h297v-539h15q25 80 105 130.5t200 50.5q182 0 287.5 -125.5t105.5 -358.5v-121q0 -233 -106 -359.5t-290 -126.5z
M650 231q91 0 145 66t54 195v81q0 127 -53.5 194.5t-147.5 67.5q-95 0 -150.5 -66t-55.5 -187v-106q0 -113 57.5 -179t150.5 -66z" />
    <glyph glyph-name="Bdotbelow" unicode="&#x1e04;" horiz-adv-x="1318" 
d="M501 -247q0 62 39.5 103t98.5 41q60 0 101 -41t41 -103t-41 -101.5t-101 -39.5t-99 39.5t-39 101.5zM158 0v1365h590q187 0 300 -89t113 -246q0 -126 -67.5 -202t-172.5 -96v-15q130 -10 218.5 -95.5t88.5 -234.5q0 -122 -64.5 -211t-170.5 -132.5t-240 -43.5h-595z
M460 1135v-326h167q117 0 176 43.5t59 121.5q0 76 -51.5 118.5t-137.5 42.5h-213zM460 599v-369h187q130 0 200.5 45.5t70.5 137.5q0 88 -60 137t-169 49h-229z" />
    <glyph glyph-name="bdotbelow" unicode="&#x1e05;" horiz-adv-x="1257" 
d="M491 -247q0 62 39.5 103t98.5 41q60 0 101 -41t41 -103t-41 -101.5t-101 -39.5t-99 39.5t-39 101.5zM759 -12q-117 0 -196.5 49t-108.5 129h-15v-166h-294v1437h297v-539h15q25 80 105 130.5t200 50.5q182 0 287.5 -125.5t105.5 -358.5v-121q0 -233 -106 -359.5
t-290 -126.5zM650 231q91 0 145 66t54 195v81q0 127 -53.5 194.5t-147.5 67.5q-95 0 -150.5 -66t-55.5 -187v-106q0 -113 57.5 -179t150.5 -66z" />
    <glyph glyph-name="Blinebelow" unicode="&#x1e06;" horiz-adv-x="1318" 
d="M158 0v1365h590q187 0 300 -89t113 -246q0 -126 -67.5 -202t-172.5 -96v-15q130 -10 218.5 -95.5t88.5 -234.5q0 -122 -64.5 -211t-170.5 -132.5t-240 -43.5h-595zM460 1135v-326h167q117 0 176 43.5t59 121.5q0 76 -51.5 118.5t-137.5 42.5h-213zM460 599v-369h187
q130 0 200.5 45.5t70.5 137.5q0 88 -60 137t-169 49h-229zM948 -348h-608v167h608v-167z" />
    <glyph glyph-name="blinebelow" unicode="&#x1e07;" horiz-adv-x="1257" 
d="M938 -348h-608v167h608v-167zM759 -12q-117 0 -196.5 49t-108.5 129h-15v-166h-294v1437h297v-539h15q25 80 105 130.5t200 50.5q182 0 287.5 -125.5t105.5 -358.5v-121q0 -233 -106 -359.5t-290 -126.5zM650 231q91 0 145 66t54 195v81q0 127 -53.5 194.5t-147.5 67.5
q-95 0 -150.5 -66t-55.5 -187v-106q0 -113 57.5 -179t150.5 -66z" />
    <glyph glyph-name="Ccedillaacute" unicode="&#x1e08;" horiz-adv-x="1338" 
d="M494 1501l275 230h309l-310 -230h-274zM667 -481q-87 -1 -146 16v132q47 -14 111 -14q108 0 108 55q0 32 -29.5 44t-96.5 12h-56v112l41 104q-235 26 -364.5 189.5t-129.5 434.5v154q0 294 154.5 463t428.5 169q249 0 398.5 -139.5t149.5 -351.5v-37h-291
q0 109 -67.5 184.5t-187.5 75.5q-128 0 -201.5 -94t-73.5 -271v-154q0 -177 73.5 -268.5t203.5 -91.5q120 0 186.5 71t66.5 180h291v-39q0 -186 -125.5 -319.5t-344.5 -155.5l-37 -91q87 0 138 -46t51 -125q0 -99 -67 -148t-184 -51z" />
    <glyph glyph-name="ccedillaacute" unicode="&#x1e09;" horiz-adv-x="1125" 
d="M463 1236l237 352h258l-280 -352h-215zM568 -481q-86 -1 -145 16v132q47 -14 110 -14q108 0 108 55q0 32 -29.5 44t-96.5 12h-56v112l43 110q-190 22 -298.5 151.5t-108.5 346.5v109q0 223 130.5 358.5t354.5 135.5q208 0 328.5 -112.5t122.5 -287.5h-270q-5 64 -48 111
t-124 47q-93 0 -145 -68.5t-52 -185.5v-104q0 -125 52.5 -193.5t144.5 -68.5q157 0 176 148h270q-3 -165 -100 -265t-266 -121l-39 -98q87 0 138 -46t51 -125q0 -99 -67 -148t-184 -51z" />
    <glyph glyph-name="Ddotaccent" unicode="&#x1e0a;" horiz-adv-x="1388" 
d="M505 1608q0 60 36 98.5t94 38.5t97 -38.5t39 -98.5q0 -59 -39 -97t-97 -38t-94 37.5t-36 97.5zM158 1365h520q162 0 281.5 -48.5t191.5 -139.5t106.5 -212.5t34.5 -276.5t-34.5 -278.5t-106.5 -216.5t-191.5 -143t-281.5 -50h-520v1365zM463 1108v-851h169q84 0 145 20
t108 66.5t70.5 130.5t23.5 206q0 428 -347 428h-169z" />
    <glyph glyph-name="ddotaccent" unicode="&#x1e0b;" horiz-adv-x="1258" 
d="M834 1680q0 60 36 98.5t94 38.5t97 -38.5t39 -98.5q0 -59 -39 -97t-97 -38t-94 37.5t-36 97.5zM493 1080q116 0 195 -49t108 -128h14v534h297v-1437h-294v171h-14q-25 -79 -107 -131t-201 -52q-181 0 -287.5 127t-106.5 354v131q0 226 106.5 353t289.5 127zM602 835
q-92 0 -146 -66.5t-54 -190.5v-88q0 -125 54.5 -192t147.5 -67q94 0 150 66t56 186v109q0 113 -58 178t-150 65z" />
    <glyph glyph-name="Ddotbelow" unicode="&#x1e0c;" horiz-adv-x="1388" 
d="M497 -247q0 62 39.5 103t98.5 41q60 0 101 -41t41 -103t-41 -101.5t-101 -39.5t-99 39.5t-39 101.5zM158 1365h520q162 0 281.5 -48.5t191.5 -139.5t106.5 -212.5t34.5 -276.5t-34.5 -278.5t-106.5 -216.5t-191.5 -143t-281.5 -50h-520v1365zM463 1108v-851h169
q84 0 145 20t108 66.5t70.5 130.5t23.5 206q0 428 -347 428h-169z" />
    <glyph glyph-name="ddotbelow" unicode="&#x1e0d;" horiz-adv-x="1258" 
d="M491 -247q0 62 39.5 103t98.5 41q60 0 101 -41t41 -103t-41 -101.5t-101 -39.5t-99 39.5t-39 101.5zM493 1080q116 0 195 -49t108 -128h14v534h297v-1437h-294v171h-14q-25 -79 -107 -131t-201 -52q-181 0 -287.5 127t-106.5 354v131q0 226 106.5 353t289.5 127zM602 835
q-92 0 -146 -66.5t-54 -190.5v-88q0 -125 54.5 -192t147.5 -67q94 0 150 66t56 186v109q0 113 -58 178t-150 65z" />
    <glyph glyph-name="Dlinebelow" unicode="&#x1e0e;" horiz-adv-x="1388" 
d="M944 -348h-608v167h608v-167zM158 1365h520q162 0 281.5 -48.5t191.5 -139.5t106.5 -212.5t34.5 -276.5t-34.5 -278.5t-106.5 -216.5t-191.5 -143t-281.5 -50h-520v1365zM463 1108v-851h169q84 0 145 20t108 66.5t70.5 130.5t23.5 206q0 428 -347 428h-169z" />
    <glyph glyph-name="dlinebelow" unicode="&#x1e0f;" horiz-adv-x="1258" 
d="M938 -348h-608v167h608v-167zM493 1080q116 0 195 -49t108 -128h14v534h297v-1437h-294v171h-14q-25 -79 -107 -131t-201 -52q-181 0 -287.5 127t-106.5 354v131q0 226 106.5 353t289.5 127zM602 835q-92 0 -146 -66.5t-54 -190.5v-88q0 -125 54.5 -192t147.5 -67
q94 0 150 66t56 186v109q0 113 -58 178t-150 65z" />
    <glyph glyph-name="Dcommaaccent" unicode="&#x1e10;" horiz-adv-x="1388" 
d="M644 -481h-192l84 326h218zM158 1365h520q162 0 281.5 -48.5t191.5 -139.5t106.5 -212.5t34.5 -276.5t-34.5 -278.5t-106.5 -216.5t-191.5 -143t-281.5 -50h-520v1365zM463 1108v-851h169q84 0 145 20t108 66.5t70.5 130.5t23.5 206q0 428 -347 428h-169z" />
    <glyph glyph-name="dcommaaccent" unicode="&#x1e11;" horiz-adv-x="1258" 
d="M638 -481h-192l84 326h218zM493 1080q116 0 195 -49t108 -128h14v534h297v-1437h-294v171h-14q-25 -79 -107 -131t-201 -52q-181 0 -287.5 127t-106.5 354v131q0 226 106.5 353t289.5 127zM602 835q-92 0 -146 -66.5t-54 -190.5v-88q0 -125 54.5 -192t147.5 -67
q94 0 150 66t56 186v109q0 113 -58 178t-150 65z" />
    <glyph glyph-name="Dcircumflexbelow" unicode="&#x1e12;" horiz-adv-x="1388" 
d="M158 1365h520q162 0 281.5 -48.5t191.5 -139.5t106.5 -212.5t34.5 -276.5t-34.5 -278.5t-106.5 -216.5t-191.5 -143t-281.5 -50h-520v1365zM463 1108v-851h169q84 0 145 20t108 66.5t70.5 130.5t23.5 206q0 428 -347 428h-169zM262 -385l268 269h215l255 -269h-240
l-120 135h-12l-134 -135h-232z" />
    <glyph glyph-name="dcircumflexbelow" unicode="&#x1e13;" horiz-adv-x="1258" 
d="M493 1080q116 0 195 -49t108 -128h14v534h297v-1437h-294v171h-14q-25 -79 -107 -131t-201 -52q-181 0 -287.5 127t-106.5 354v131q0 226 106.5 353t289.5 127zM602 835q-92 0 -146 -66.5t-54 -190.5v-88q0 -125 54.5 -192t147.5 -67q94 0 150 66t56 186v109
q0 113 -58 178t-150 65zM256 -385l268 269h215l255 -269h-240l-120 135h-12l-134 -135h-232z" />
    <glyph glyph-name="Emacrongrave" unicode="&#x1e14;" horiz-adv-x="1185" 
d="M760 1748h-260l-300 221h294zM1061 257v-257h-901v1365h901v-257h-599v-302h562v-237h-562v-312h599zM910 1489h-614v156h614v-156z" />
    <glyph glyph-name="emacrongrave" unicode="&#x1e15;" horiz-adv-x="1158" 
d="M714 1527h-215l-280 352h258zM593 -20q-230 0 -364 129.5t-134 372.5v105q0 121 37.5 217.5t103.5 157.5t153.5 93t189.5 32q215 0 348 -135t133 -365v-119h-676v-48q0 -93 57 -149.5t150 -56.5q76 0 127 31.5t58 81.5h275q-3 -45 -20 -91t-53.5 -92.5t-88 -82.5
t-128.5 -58.5t-168 -22.5zM384 646h390v7q0 94 -52.5 151t-140.5 57t-142.5 -57.5t-54.5 -150.5v-7zM889 1225h-608v167h608v-167z" />
    <glyph glyph-name="Emacronacute" unicode="&#x1e16;" horiz-adv-x="1185" 
d="M418 1748l275 230h309l-310 -230h-274zM1061 257v-257h-901v1365h901v-257h-599v-302h562v-237h-562v-312h599zM910 1489h-614v156h614v-156z" />
    <glyph glyph-name="emacronacute" unicode="&#x1e17;" horiz-adv-x="1158" 
d="M480 1533l237 352h258l-280 -352h-215zM593 -20q-230 0 -364 129.5t-134 372.5v105q0 121 37.5 217.5t103.5 157.5t153.5 93t189.5 32q215 0 348 -135t133 -365v-119h-676v-48q0 -93 57 -149.5t150 -56.5q76 0 127 31.5t58 81.5h275q-3 -45 -20 -91t-53.5 -92.5
t-88 -82.5t-128.5 -58.5t-168 -22.5zM384 646h390v7q0 94 -52.5 151t-140.5 57t-142.5 -57.5t-54.5 -150.5v-7zM889 1225h-608v167h608v-167z" />
    <glyph glyph-name="Ecircumflexbelow" unicode="&#x1e18;" horiz-adv-x="1185" 
d="M1061 257v-257h-901v1365h901v-257h-599v-302h562v-237h-562v-312h599zM230 -385l268 269h215l255 -269h-240l-120 135h-12l-134 -135h-232z" />
    <glyph glyph-name="ecircumflexbelow" unicode="&#x1e19;" horiz-adv-x="1158" 
d="M593 -20q-230 0 -364 129.5t-134 372.5v105q0 121 37.5 217.5t103.5 157.5t153.5 93t189.5 32q215 0 348 -135t133 -365v-119h-676v-48q0 -93 57 -149.5t150 -56.5q76 0 127 31.5t58 81.5h275q-3 -45 -20 -91t-53.5 -92.5t-88 -82.5t-128.5 -58.5t-168 -22.5zM384 646
h390v7q0 94 -52.5 151t-140.5 57t-142.5 -57.5t-54.5 -150.5v-7zM206 -385l268 269h215l255 -269h-240l-120 135h-12l-134 -135h-232z" />
    <glyph glyph-name="Etildebelow" unicode="&#x1e1a;" horiz-adv-x="1185" 
d="M587 -324q-4 3 -14.5 14t-16.5 15.5t-15.5 11.5t-19.5 10t-21 3q-63 0 -69 -87h-154q0 92 51.5 162.5t146.5 70.5q53 0 87.5 -15.5t72.5 -48.5q5 -5 15 -14t14.5 -13t12.5 -10.5t14 -9t14.5 -5t16.5 -2.5q34 0 50 30t18 72h154q0 -100 -57.5 -170t-146.5 -70
q-59 0 -91.5 14.5t-61.5 41.5zM1061 257v-257h-901v1365h901v-257h-599v-302h562v-237h-562v-312h599z" />
    <glyph glyph-name="etildebelow" unicode="&#x1e1b;" horiz-adv-x="1158" 
d="M563 -324q-4 3 -14.5 14t-16.5 15.5t-15.5 11.5t-19.5 10t-21 3q-63 0 -69 -87h-154q0 92 51.5 162.5t146.5 70.5q53 0 87.5 -15.5t72.5 -48.5q5 -5 15 -14t14.5 -13t12.5 -10.5t14 -9t14.5 -5t16.5 -2.5q34 0 50 30t18 72h154q0 -100 -57.5 -170t-146.5 -70
q-59 0 -91.5 14.5t-61.5 41.5zM593 -20q-230 0 -364 129.5t-134 372.5v105q0 121 37.5 217.5t103.5 157.5t153.5 93t189.5 32q215 0 348 -135t133 -365v-119h-676v-48q0 -93 57 -149.5t150 -56.5q76 0 127 31.5t58 81.5h275q-3 -45 -20 -91t-53.5 -92.5t-88 -82.5
t-128.5 -58.5t-168 -22.5zM384 646h390v7q0 94 -52.5 151t-140.5 57t-142.5 -57.5t-54.5 -150.5v-7z" />
    <glyph glyph-name="Ecedillabreve" unicode="&#x1e1c;" horiz-adv-x="1185" 
d="M519 0h-359v1365h901v-257h-599v-302h562v-237h-562v-312h599v-257h-374l-45 -111q86 0 137.5 -46t51.5 -125q0 -99 -67 -148t-184 -51q-87 -1 -146 16v132q47 -14 110 -14q108 0 108 55q0 32 -29 44t-97 12h-55v112zM260 1769h170q0 -68 43.5 -106.5t129.5 -38.5
t129.5 38.5t43.5 106.5h167q0 -139 -89.5 -221.5t-250.5 -82.5t-252 82.5t-91 221.5z" />
    <glyph glyph-name="ecedillabreve" unicode="&#x1e1d;" horiz-adv-x="1158" 
d="M269 1511h169q0 -69 40 -116.5t118 -47.5t118 47.5t40 116.5h166q0 -138 -86 -232t-238 -94q-153 0 -240.5 94t-86.5 232zM384 646h390v7q0 94 -52.5 151t-140.5 57t-142.5 -57.5t-54.5 -150.5v-7zM580 -481q-86 -1 -145 16v132q47 -14 110 -14q108 0 108 55
q0 32 -29.5 44t-96.5 12h-55v112l43 109q-196 21 -308 148.5t-112 348.5v105q0 121 37.5 217.5t103.5 157.5t153.5 93t189.5 32q215 0 348 -135t133 -365v-119h-676v-48q0 -93 57 -149.5t150 -56.5q76 0 127 31.5t58 81.5h275q-3 -51 -26.5 -103t-66 -101.5t-114.5 -86
t-162 -49.5l-40 -98q87 0 138.5 -46t51.5 -125q0 -99 -67 -148t-185 -51z" />
    <glyph glyph-name="Fdotaccent" unicode="&#x1e1e;" horiz-adv-x="1129" 
d="M460 1608q0 60 36 98.5t94 38.5t97 -38.5t39 -98.5q0 -59 -39 -97t-97 -38t-94 37.5t-36 97.5zM463 0h-305v1365h893v-260h-588v-335h536v-252h-536v-518z" />
    <glyph glyph-name="fdotaccent" unicode="&#x1e1f;" horiz-adv-x="850" 
d="M295 1700q0 60 36 98.5t94 38.5t97 -38.5t39 -98.5q0 -59 -39 -97t-97 -38t-94 37.5t-36 97.5zM235 0v815h-172v237h172v105q0 164 88 234t289 70q94 0 161 -10v-214q-42 6 -100 6q-79 0 -114.5 -25.5t-35.5 -86.5v-79h236v-237h-229v-815h-295z" />
    <glyph glyph-name="Gmacron" unicode="&#x1e20;" horiz-adv-x="1363" 
d="M1253 916h-296q-12 95 -83 151.5t-176 56.5q-131 0 -208.5 -90.5t-77.5 -266.5v-162q0 -166 70 -265.5t220 -99.5q119 0 191.5 63.5t72.5 154.5v61h-255v229h544v-266q0 -73 -18 -142.5t-60.5 -136.5t-105 -117t-159.5 -80.5t-216 -30.5q-151 0 -266 48.5t-185 134.5
t-105 198.5t-35 247.5v166q0 282 158.5 451t437.5 169q132 0 238.5 -40.5t172.5 -108t102 -151t39 -174.5zM997 1489h-614v156h614v-156z" />
    <glyph glyph-name="gmacron" unicode="&#x1e21;" horiz-adv-x="1234" 
d="M927 1225h-608v167h608v-167zM587 -171q107 0 160 53.5t53 153.5v151h-15q-31 -74 -109.5 -120.5t-187.5 -46.5q-180 0 -288.5 127.5t-108.5 359.5v85q0 232 108.5 359.5t287.5 127.5q113 0 193.5 -50t108.5 -128h14v166h292v-1056q0 -90 -29 -160.5t-77.5 -116
t-116.5 -75t-140 -41.5t-153 -12q-116 0 -206 26t-144.5 71.5t-83.5 102t-32 122.5h284q10 -47 61 -73t129 -26zM601 835q-95 0 -150.5 -68t-55.5 -190v-74q0 -121 57 -189t150 -68q92 0 145 66.5t53 177.5v99q0 112 -54 179t-145 67z" />
    <glyph glyph-name="Hdotaccent" unicode="&#x1e22;" horiz-adv-x="1464" 
d="M1300 0h-305v561h-532v-561h-305v1365h305v-541h532v541h305v-1365zM602 1608q0 60 36 98.5t94 38.5t97 -38.5t39 -98.5q0 -59 -39 -97t-97 -38t-94 37.5t-36 97.5z" />
    <glyph glyph-name="hdotaccent" unicode="&#x1e23;" horiz-adv-x="1262" 
d="M146 0v1437h296v-555h15q10 33 31 65t57.5 64t94.5 52t130 20q161 0 256.5 -97t95.5 -281v-705h-297v623q0 106 -50 153.5t-130 47.5q-92 0 -147.5 -62.5t-55.5 -170.5v-591h-296zM167 1680q0 60 36 98.5t94 38.5t97 -38.5t39 -98.5q0 -59 -39 -97t-97 -38t-94 37.5
t-36 97.5z" />
    <glyph glyph-name="Hdotbelow" unicode="&#x1e24;" horiz-adv-x="1464" 
d="M1300 0h-305v561h-532v-561h-305v1365h305v-541h532v541h305v-1365zM594 -247q0 62 39.5 103t98.5 41q60 0 101 -41t41 -103t-41 -101.5t-101 -39.5t-99 39.5t-39 101.5z" />
    <glyph glyph-name="hdotbelow" unicode="&#x1e25;" horiz-adv-x="1262" 
d="M146 0v1437h296v-555h15q10 33 31 65t57.5 64t94.5 52t130 20q161 0 256.5 -97t95.5 -281v-705h-297v623q0 106 -50 153.5t-130 47.5q-92 0 -147.5 -62.5t-55.5 -170.5v-591h-296zM490 -247q0 62 39.5 103t98.5 41q60 0 101 -41t41 -103t-41 -101.5t-101 -39.5t-99 39.5
t-39 101.5z" />
    <glyph glyph-name="Hdieresis" unicode="&#x1e26;" horiz-adv-x="1464" 
d="M1300 0h-305v561h-532v-561h-305v1365h305v-541h532v541h305v-1365zM405 1578q0 56 34.5 89.5t91.5 33.5q59 0 93.5 -33.5t34.5 -89.5q0 -55 -34.5 -88.5t-93.5 -33.5q-57 0 -91.5 33.5t-34.5 88.5zM800 1578q0 56 34.5 89.5t92.5 33.5t93 -33.5t35 -89.5
q0 -55 -34.5 -88.5t-93.5 -33.5q-58 0 -92.5 33.5t-34.5 88.5z" />
    <glyph glyph-name="hdieresis" unicode="&#x1e27;" horiz-adv-x="1262" 
d="M146 0v1437h296v-555h15q10 33 31 65t57.5 64t94.5 52t130 20q161 0 256.5 -97t95.5 -281v-705h-297v623q0 106 -50 153.5t-130 47.5q-92 0 -147.5 -62.5t-55.5 -170.5v-591h-296zM-42 1694q0 58 37 94t97 36q61 0 98 -36t37 -94t-37 -93.5t-98 -35.5q-60 0 -97 35.5
t-37 93.5zM373 1694q0 58 36.5 94t95.5 36q62 0 99.5 -35.5t37.5 -94.5q0 -58 -37 -93.5t-100 -35.5q-59 0 -95.5 35.5t-36.5 93.5z" />
    <glyph glyph-name="Hcedilla" unicode="&#x1e28;" horiz-adv-x="1464" 
d="M299 0h-138v1365h305v-541h532v541h305v-1365h-305v561h-532v-561l-45 -111q87 0 138 -46t51 -125q0 -99 -67 -148t-184 -51q-87 -1 -146 16v132q47 -14 111 -14q108 0 108 55q0 32 -29.5 44t-96.5 12h-56v112z" />
    <glyph glyph-name="hcedilla" unicode="&#x1e29;" horiz-adv-x="1262" 
d="M278 0h-129v1437h296v-555h15q10 33 31 65t57.5 64t94.5 52t130 20q161 0 256.5 -97t95.5 -281v-705h-297v623q0 106 -50 153.5t-130 47.5q-92 0 -147.5 -62.5t-55.5 -170.5v-591l-46 -115q87 0 138 -46t51 -124q0 -100 -67.5 -148.5t-184.5 -50.5q-85 -2 -145 15v132
q47 -14 110 -14q108 0 108 55q0 32 -29.5 44t-96.5 12h-55v113z" />
    <glyph glyph-name="Hbrevebelow" unicode="&#x1e2a;" horiz-adv-x="1464" 
d="M397 -122q0 -140 89 -233t246 -93t243 93.5t86 232.5h-167q0 -69 -41.5 -116.5t-120.5 -47.5t-120.5 47.5t-41.5 116.5h-173zM1300 0h-305v561h-532v-561h-305v1365h305v-541h532v541h305v-1365z" />
    <glyph glyph-name="hbrevebelow" unicode="&#x1e2b;" horiz-adv-x="1262" 
d="M293 -122q0 -140 89 -233t246 -93t243 93.5t86 232.5h-167q0 -69 -41.5 -116.5t-120.5 -47.5t-120.5 47.5t-41.5 116.5h-173zM146 0v1437h296v-555h15q10 33 31 65t57.5 64t94.5 52t130 20q161 0 256.5 -97t95.5 -281v-705h-297v623q0 106 -50 153.5t-130 47.5
q-92 0 -147.5 -62.5t-55.5 -170.5v-591h-296z" />
    <glyph glyph-name="Itildebelow" unicode="&#x1e2c;" horiz-adv-x="624" 
d="M461 0h-305v1365h305v-1365zM296 -324q-4 3 -14.5 14t-16.5 15.5t-15.5 11.5t-19.5 10t-21 3q-63 0 -69 -87h-154q0 92 51.5 162.5t146.5 70.5q53 0 87.5 -15.5t72.5 -48.5q5 -5 15 -14t14.5 -13t12.5 -10.5t14 -9t14.5 -5t16.5 -2.5q34 0 50 30t18 72h154
q0 -100 -57.5 -170t-146.5 -70q-59 0 -91.5 14.5t-61.5 41.5z" />
    <glyph glyph-name="itildebelow" unicode="&#x1e2d;" horiz-adv-x="622" 
d="M160 0v1067h296v-1067h-296zM127 1373q0 71 49 115.5t131 44.5t131.5 -44.5t49.5 -115.5q0 -70 -49 -114t-132 -44q-82 0 -131 44t-49 114zM295 -324q-4 3 -14.5 14t-16.5 15.5t-15.5 11.5t-19.5 10t-21 3q-63 0 -69 -87h-154q0 92 51.5 162.5t146.5 70.5
q53 0 87.5 -15.5t72.5 -48.5q5 -5 15 -14t14.5 -13t12.5 -10.5t14 -9t14.5 -5t16.5 -2.5q34 0 50 30t18 72h154q0 -100 -57.5 -170t-146.5 -70q-59 0 -91.5 14.5t-61.5 41.5z" />
    <glyph glyph-name="Idieresisacute" unicode="&#x1e2e;" horiz-adv-x="624" 
d="M461 0h-305v1365h305v-1365zM128 1748l275 230h309l-310 -230h-274zM-14 1578q0 56 34.5 89.5t91.5 33.5q59 0 93.5 -33.5t34.5 -89.5q0 -55 -34.5 -88.5t-93.5 -33.5q-57 0 -91.5 33.5t-34.5 88.5zM381 1578q0 56 34.5 89.5t92.5 33.5t93 -33.5t35 -89.5
q0 -55 -34.5 -88.5t-93.5 -33.5q-58 0 -92.5 33.5t-34.5 88.5z" />
    <glyph glyph-name="idieresisacute" unicode="&#x1e2f;" horiz-adv-x="622" 
d="M219 1533l237 352h258l-280 -352h-215zM161 0v1067h296v-1067h-296zM-21 1324q0 58 37 94t97 36q61 0 98 -36t37 -94t-37 -93.5t-98 -35.5q-60 0 -97 35.5t-37 93.5zM394 1324q0 58 36.5 94t95.5 36q62 0 99.5 -35.5t37.5 -94.5q0 -58 -37 -93.5t-100 -35.5
q-59 0 -95.5 35.5t-36.5 93.5z" />
    <glyph glyph-name="Kacute" unicode="&#x1e30;" horiz-adv-x="1325" 
d="M466 1501l275 230h309l-310 -230h-274zM1289 1365l-479 -591l498 -774h-362l-360 560l-129 -145v-415h-305v1365h305v-584h14l489 584h329z" />
    <glyph glyph-name="kacute" unicode="&#x1e31;" horiz-adv-x="1172" 
d="M432 359v-359h-297v1437h297v-795h14l326 425h332l-377 -459l403 -608h-344l-286 434zM191 1606l237 352h258l-280 -352h-215z" />
    <glyph glyph-name="Kdotbelow" unicode="&#x1e32;" horiz-adv-x="1325" 
d="M524 -247q0 62 39.5 103t98.5 41q60 0 101 -41t41 -103t-41 -101.5t-101 -39.5t-99 39.5t-39 101.5zM1289 1365l-479 -591l498 -774h-362l-360 560l-129 -145v-415h-305v1365h305v-584h14l489 584h329z" />
    <glyph glyph-name="kdotbelow" unicode="&#x1e33;" horiz-adv-x="1172" 
d="M461 -247q0 62 39.5 103t98.5 41q60 0 101 -41t41 -103t-41 -101.5t-101 -39.5t-99 39.5t-39 101.5zM432 359v-359h-297v1437h297v-795h14l326 425h332l-377 -459l403 -608h-344l-286 434z" />
    <glyph glyph-name="Klinebelow" unicode="&#x1e34;" horiz-adv-x="1325" 
d="M1289 1365l-479 -591l498 -774h-362l-360 560l-129 -145v-415h-305v1365h305v-584h14l489 584h329zM971 -348h-608v167h608v-167z" />
    <glyph glyph-name="klinebelow" unicode="&#x1e35;" horiz-adv-x="1172" 
d="M432 359v-359h-297v1437h297v-795h14l326 425h332l-377 -459l403 -608h-344l-286 434zM908 -348h-608v167h608v-167z" />
    <glyph glyph-name="Ldotbelow" unicode="&#x1e36;" horiz-adv-x="1077" 
d="M408 -247q0 62 39.5 103t98.5 41q60 0 101 -41t41 -103t-41 -101.5t-101 -39.5t-99 39.5t-39 101.5zM1026 270v-270h-866v1365h305v-1095h561z" />
    <glyph glyph-name="ldotbelow" unicode="&#x1e37;" horiz-adv-x="602" 
d="M163 -247q0 62 39.5 103t98.5 41q60 0 101 -41t41 -103t-41 -101.5t-101 -39.5t-99 39.5t-39 101.5zM148 0v1437h297v-1437h-297z" />
    <glyph glyph-name="Ldotbelowmacron" unicode="&#x1e38;" horiz-adv-x="1077" 
d="M408 -247q0 62 39.5 103t98.5 41q60 0 101 -41t41 -103t-41 -101.5t-101 -39.5t-99 39.5t-39 101.5zM1026 270v-270h-866v1365h305v-1095h561zM621 1489h-614v156h614v-156z" />
    <glyph glyph-name="ldotbelowmacron" unicode="&#x1e39;" horiz-adv-x="602" 
d="M163 -247q0 62 39.5 103t98.5 41q60 0 101 -41t41 -103t-41 -101.5t-101 -39.5t-99 39.5t-39 101.5zM148 0v1437h297v-1437h-297zM611 1595h-608v167h608v-167z" />
    <glyph glyph-name="Llinebelow" unicode="&#x1e3a;" horiz-adv-x="1077" 
d="M855 -348h-608v167h608v-167zM1026 270v-270h-866v1365h305v-1095h561z" />
    <glyph glyph-name="llinebelow" unicode="&#x1e3b;" horiz-adv-x="602" 
d="M610 -348h-608v167h608v-167zM148 0v1437h297v-1437h-297z" />
    <glyph glyph-name="Lcircumflexbelow" unicode="&#x1e3c;" horiz-adv-x="1077" 
d="M1026 270v-270h-866v1365h305v-1095h561zM173 -385l268 269h215l255 -269h-240l-120 135h-12l-134 -135h-232z" />
    <glyph glyph-name="lcircumflexbelow" unicode="&#x1e3d;" horiz-adv-x="602" 
d="M148 0v1437h297v-1437h-297zM-72 -385l268 269h215l255 -269h-240l-120 135h-12l-134 -135h-232z" />
    <glyph glyph-name="Macute" unicode="&#x1e3e;" horiz-adv-x="1692" 
d="M661 1501l275 230h309l-310 -230h-274zM430 0h-272v1365h313l366 -788h11l366 788h311v-1365h-275v856h-14l-302 -654h-186l-304 654h-14v-856z" />
    <glyph glyph-name="macute" unicode="&#x1e3f;" horiz-adv-x="1843" 
d="M822 1236l237 352h258l-280 -352h-215zM140 0v1067h288v-180h15q10 34 29.5 65.5t52.5 62.5t87.5 49.5t122.5 18.5q116 0 191 -55t99 -145h12q29 81 112 140.5t210 59.5q160 0 250 -92.5t90 -249.5v-741h-296v643q0 96 -45 141.5t-122 45.5t-125.5 -51.5t-48.5 -145.5
v-633h-285v640q0 98 -46.5 144t-122.5 46t-124 -49.5t-48 -145.5v-635h-296z" />
    <glyph glyph-name="Mdotaccent" unicode="&#x1e40;" horiz-adv-x="1692" 
d="M716 1608q0 60 36 98.5t94 38.5t97 -38.5t39 -98.5q0 -59 -39 -97t-97 -38t-94 37.5t-36 97.5zM430 0h-272v1365h313l366 -788h11l366 788h311v-1365h-275v856h-14l-302 -654h-186l-304 654h-14v-856z" />
    <glyph glyph-name="mdotaccent" unicode="&#x1e41;" horiz-adv-x="1843" 
d="M791 1310q0 60 36 98.5t94 38.5t97 -38.5t39 -98.5q0 -59 -39 -97t-97 -38t-94 37.5t-36 97.5zM140 0v1067h288v-180h15q10 34 29.5 65.5t52.5 62.5t87.5 49.5t122.5 18.5q116 0 191 -55t99 -145h12q29 81 112 140.5t210 59.5q160 0 250 -92.5t90 -249.5v-741h-296v643
q0 96 -45 141.5t-122 45.5t-125.5 -51.5t-48.5 -145.5v-633h-285v640q0 98 -46.5 144t-122.5 46t-124 -49.5t-48 -145.5v-635h-296z" />
    <glyph glyph-name="Mdotbelow" unicode="&#x1e42;" horiz-adv-x="1692" 
d="M708 -247q0 62 39.5 103t98.5 41q60 0 101 -41t41 -103t-41 -101.5t-101 -39.5t-99 39.5t-39 101.5zM430 0h-272v1365h313l366 -788h11l366 788h311v-1365h-275v856h-14l-302 -654h-186l-304 654h-14v-856z" />
    <glyph glyph-name="mdotbelow" unicode="&#x1e43;" horiz-adv-x="1843" 
d="M783 -247q0 62 39.5 103t98.5 41q60 0 101 -41t41 -103t-41 -101.5t-101 -39.5t-99 39.5t-39 101.5zM140 0v1067h288v-180h15q10 34 29.5 65.5t52.5 62.5t87.5 49.5t122.5 18.5q116 0 191 -55t99 -145h12q29 81 112 140.5t210 59.5q160 0 250 -92.5t90 -249.5v-741h-296
v643q0 96 -45 141.5t-122 45.5t-125.5 -51.5t-48.5 -145.5v-633h-285v640q0 98 -46.5 144t-122.5 46t-124 -49.5t-48 -145.5v-635h-296z" />
    <glyph glyph-name="Ndotaccent" unicode="&#x1e44;" horiz-adv-x="1437" 
d="M589 1608q0 60 36 98.5t94 38.5t97 -38.5t39 -98.5q0 -59 -39 -97t-97 -38t-94 37.5t-36 97.5zM447 0h-285v1365h246l568 -820h12v820h286v-1365h-245l-570 827h-12v-827z" />
    <glyph glyph-name="ndotaccent" unicode="&#x1e45;" horiz-adv-x="1256" 
d="M498 1310q0 60 36 98.5t94 38.5t97 -38.5t39 -98.5q0 -59 -39 -97t-97 -38t-94 37.5t-36 97.5zM142 0v1067h288v-185h15q11 35 32.5 67t57.5 64t94.5 51t130.5 19q164 0 258.5 -96t94.5 -281v-706h-296v624q0 106 -49 153t-128 47q-93 0 -147.5 -62t-54.5 -171v-591h-296
z" />
    <glyph glyph-name="Ndotbelow" unicode="&#x1e46;" horiz-adv-x="1437" 
d="M581 -247q0 62 39.5 103t98.5 41q60 0 101 -41t41 -103t-41 -101.5t-101 -39.5t-99 39.5t-39 101.5zM447 0h-285v1365h246l568 -820h12v820h286v-1365h-245l-570 827h-12v-827z" />
    <glyph glyph-name="ndotbelow" unicode="&#x1e47;" horiz-adv-x="1256" 
d="M490 -247q0 62 39.5 103t98.5 41q60 0 101 -41t41 -103t-41 -101.5t-101 -39.5t-99 39.5t-39 101.5zM142 0v1067h288v-185h15q11 35 32.5 67t57.5 64t94.5 51t130.5 19q164 0 258.5 -96t94.5 -281v-706h-296v624q0 106 -49 153t-128 47q-93 0 -147.5 -62t-54.5 -171v-591
h-296z" />
    <glyph glyph-name="Nlinebelow" unicode="&#x1e48;" horiz-adv-x="1437" 
d="M1028 -348h-608v167h608v-167zM447 0h-285v1365h246l568 -820h12v820h286v-1365h-245l-570 827h-12v-827z" />
    <glyph glyph-name="nlinebelow" unicode="&#x1e49;" horiz-adv-x="1256" 
d="M937 -348h-608v167h608v-167zM142 0v1067h288v-185h15q11 35 32.5 67t57.5 64t94.5 51t130.5 19q164 0 258.5 -96t94.5 -281v-706h-296v624q0 106 -49 153t-128 47q-93 0 -147.5 -62t-54.5 -171v-591h-296z" />
    <glyph glyph-name="Ncircumflexbelow" unicode="&#x1e4a;" horiz-adv-x="1437" 
d="M447 0h-285v1365h246l568 -820h12v820h286v-1365h-245l-570 827h-12v-827zM346 -385l268 269h215l255 -269h-240l-120 135h-12l-134 -135h-232z" />
    <glyph glyph-name="ncircumflexbelow" unicode="&#x1e4b;" horiz-adv-x="1256" 
d="M142 0v1067h288v-185h15q11 35 32.5 67t57.5 64t94.5 51t130.5 19q164 0 258.5 -96t94.5 -281v-706h-296v624q0 106 -49 153t-128 47q-93 0 -147.5 -62t-54.5 -171v-591h-296zM255 -385l268 269h215l255 -269h-240l-120 135h-12l-134 -135h-232z" />
    <glyph glyph-name="Otildeacute" unicode="&#x1e4c;" horiz-adv-x="1409" 
d="M519 1748l275 230h309l-310 -230h-274zM413 762v-165q0 -175 78 -266.5t210 -91.5t210 91.5t78 266.5v165q0 176 -78.5 270t-209.5 94t-209.5 -94t-78.5 -270zM103 598v160q0 293 159 462.5t440 169.5t439.5 -170t158.5 -462v-160q0 -290 -159 -456.5t-441 -166.5
q-281 0 -439 166.5t-158 456.5zM688 1507q-4 3 -18 16.5t-21.5 19.5t-21 12t-26.5 6q-63 0 -69 -87h-154q0 92 51.5 162.5t146.5 70.5q53 0 87 -15.5t73 -49.5q5 -4 17.5 -15.5t17.5 -15.5t14.5 -10.5t18.5 -9t19 -2.5q34 0 50 30t18 72h154q0 -100 -57.5 -170t-146.5 -70
q-59 0 -91.5 14.5t-61.5 41.5z" />
    <glyph glyph-name="otildeacute" unicode="&#x1e4d;" horiz-adv-x="1193" 
d="M498 1533l237 352h258l-280 -352h-215zM577 1245q-13 15 -21 23t-25.5 17.5t-36.5 9.5q-64 0 -70 -99h-157q0 121 55.5 203.5t156.5 82.5q48 0 83 -18t70 -58q4 -4 18 -19t20 -20.5t19.5 -11.5t28.5 -6q32 0 48 34.5t18 82.5h156q0 -118 -61.5 -203.5t-154.5 -85.5
q-90 0 -147 68zM596 1087q226 0 361.5 -136.5t135.5 -365.5v-95q0 -242 -133.5 -376t-363.5 -134q-232 0 -365.5 133.5t-133.5 375.5v94q0 227 136.5 365.5t362.5 138.5zM595 852q-97 0 -148 -77t-51 -191v-100q0 -112 49.5 -190t149.5 -78q68 0 114 39.5t65 98t19 130.5
v100q0 115 -50 191.5t-148 76.5z" />
    <glyph glyph-name="Otildedieresis" unicode="&#x1e4e;" horiz-adv-x="1409" 
d="M378 1868q0 56 34.5 89.5t91.5 33.5q59 0 93.5 -33.5t34.5 -89.5q0 -55 -34.5 -88.5t-93.5 -33.5q-57 0 -91.5 33.5t-34.5 88.5zM773 1868q0 56 34.5 89.5t92.5 33.5t93 -33.5t35 -89.5q0 -55 -34.5 -88.5t-93.5 -33.5q-58 0 -92.5 33.5t-34.5 88.5zM413 762v-165
q0 -175 78 -266.5t210 -91.5t210 91.5t78 266.5v165q0 176 -78.5 270t-209.5 94t-209.5 -94t-78.5 -270zM103 598v160q0 293 159 462.5t440 169.5t439.5 -170t158.5 -462v-160q0 -290 -159 -456.5t-441 -166.5q-281 0 -439 166.5t-158 456.5zM688 1507q-4 3 -18 16.5
t-21.5 19.5t-21 12t-26.5 6q-63 0 -69 -87h-154q0 92 51.5 162.5t146.5 70.5q53 0 87 -15.5t73 -49.5q5 -4 17.5 -15.5t17.5 -15.5t14.5 -10.5t18.5 -9t19 -2.5q34 0 50 30t18 72h154q0 -100 -57.5 -170t-146.5 -70q-59 0 -91.5 14.5t-61.5 41.5z" />
    <glyph glyph-name="otildedieresis" unicode="&#x1e4f;" horiz-adv-x="1193" 
d="M577 1245q-13 15 -21 23t-25.5 17.5t-36.5 9.5q-64 0 -70 -99h-157q0 121 55.5 203.5t156.5 82.5q48 0 83 -18t70 -58q4 -4 18 -19t20 -20.5t19.5 -11.5t28.5 -6q32 0 48 34.5t18 82.5h156q0 -118 -61.5 -203.5t-154.5 -85.5q-90 0 -147 68zM258 1646q0 58 37 94t97 36
q61 0 98 -36t37 -94t-37 -93.5t-98 -35.5q-60 0 -97 35.5t-37 93.5zM673 1646q0 58 36.5 94t95.5 36q62 0 99.5 -35.5t37.5 -94.5q0 -58 -37 -93.5t-100 -35.5q-59 0 -95.5 35.5t-36.5 93.5zM596 1087q226 0 361.5 -136.5t135.5 -365.5v-95q0 -242 -133.5 -376t-363.5 -134
q-232 0 -365.5 133.5t-133.5 375.5v94q0 227 136.5 365.5t362.5 138.5zM595 852q-97 0 -148 -77t-51 -191v-100q0 -112 49.5 -190t149.5 -78q68 0 114 39.5t65 98t19 130.5v100q0 115 -50 191.5t-148 76.5z" />
    <glyph glyph-name="Omacrongrave" unicode="&#x1e50;" horiz-adv-x="1409" 
d="M861 1748h-260l-300 221h294zM413 762v-165q0 -175 78 -266.5t210 -91.5t210 91.5t78 266.5v165q0 176 -78.5 270t-209.5 94t-209.5 -94t-78.5 -270zM103 598v160q0 293 159 462.5t440 169.5t439.5 -170t158.5 -462v-160q0 -290 -159 -456.5t-441 -166.5
q-281 0 -439 166.5t-158 456.5zM1011 1489h-614v156h614v-156z" />
    <glyph glyph-name="omacrongrave" unicode="&#x1e51;" horiz-adv-x="1193" 
d="M732 1527h-215l-280 352h258zM907 1225h-608v167h608v-167zM596 1087q226 0 361.5 -136.5t135.5 -365.5v-95q0 -242 -133.5 -376t-363.5 -134q-232 0 -365.5 133.5t-133.5 375.5v94q0 227 136.5 365.5t362.5 138.5zM595 852q-97 0 -148 -77t-51 -191v-100
q0 -112 49.5 -190t149.5 -78q68 0 114 39.5t65 98t19 130.5v100q0 115 -50 191.5t-148 76.5z" />
    <glyph glyph-name="Omacronacute" unicode="&#x1e52;" horiz-adv-x="1409" 
d="M519 1748l275 230h309l-310 -230h-274zM413 762v-165q0 -175 78 -266.5t210 -91.5t210 91.5t78 266.5v165q0 176 -78.5 270t-209.5 94t-209.5 -94t-78.5 -270zM103 598v160q0 293 159 462.5t440 169.5t439.5 -170t158.5 -462v-160q0 -290 -159 -456.5t-441 -166.5
q-281 0 -439 166.5t-158 456.5zM1011 1489h-614v156h614v-156z" />
    <glyph glyph-name="omacronacute" unicode="&#x1e53;" horiz-adv-x="1193" 
d="M498 1533l237 352h258l-280 -352h-215zM907 1225h-608v167h608v-167zM596 1087q226 0 361.5 -136.5t135.5 -365.5v-95q0 -242 -133.5 -376t-363.5 -134q-232 0 -365.5 133.5t-133.5 375.5v94q0 227 136.5 365.5t362.5 138.5zM595 852q-97 0 -148 -77t-51 -191v-100
q0 -112 49.5 -190t149.5 -78q68 0 114 39.5t65 98t19 130.5v100q0 115 -50 191.5t-148 76.5z" />
    <glyph glyph-name="Pacute" unicode="&#x1e54;" horiz-adv-x="1259" 
d="M431 1501l275 230h309l-310 -230h-274zM156 1365h564q148 0 256.5 -65t161.5 -170.5t53 -236.5q0 -133 -54 -237t-163 -166.5t-258 -62.5h-256v-427h-304v1365zM459 1116v-446h146q134 0 205 52.5t71 170.5q0 107 -60.5 165t-167.5 58h-194z" />
    <glyph glyph-name="pacute" unicode="&#x1e55;" horiz-adv-x="1254" 
d="M755 -12q-116 0 -192 48.5t-109 129.5h-14v-514h-297v1416h293v-170h15q30 82 110 131.5t197 49.5q182 0 287.5 -125.5t105.5 -358.5v-121q0 -233 -106.5 -359.5t-289.5 -126.5zM645 231q92 0 146.5 66.5t54.5 195.5v81q0 128 -54 194.5t-149 66.5q-94 0 -148.5 -65.5
t-54.5 -185.5v-109q0 -114 56.5 -179t148.5 -65zM528 1236l237 352h258l-280 -352h-215z" />
    <glyph glyph-name="Pdotaccent" unicode="&#x1e56;" horiz-adv-x="1259" 
d="M156 1365h564q148 0 256.5 -65t161.5 -170.5t53 -236.5q0 -133 -54 -237t-163 -166.5t-258 -62.5h-256v-427h-304v1365zM459 1116v-446h146q134 0 205 52.5t71 170.5q0 107 -60.5 165t-167.5 58h-194zM486 1608q0 60 36 98.5t94 38.5t97 -38.5t39 -98.5q0 -59 -39 -97
t-97 -38t-94 37.5t-36 97.5z" />
    <glyph glyph-name="pdotaccent" unicode="&#x1e57;" horiz-adv-x="1254" 
d="M755 -12q-116 0 -192 48.5t-109 129.5h-14v-514h-297v1416h293v-170h15q30 82 110 131.5t197 49.5q182 0 287.5 -125.5t105.5 -358.5v-121q0 -233 -106.5 -359.5t-289.5 -126.5zM645 231q92 0 146.5 66.5t54.5 195.5v81q0 128 -54 194.5t-149 66.5q-94 0 -148.5 -65.5
t-54.5 -185.5v-109q0 -114 56.5 -179t148.5 -65zM497 1310q0 60 36 98.5t94 38.5t97 -38.5t39 -98.5q0 -59 -39 -97t-97 -38t-94 37.5t-36 97.5z" />
    <glyph glyph-name="Rdotaccent" unicode="&#x1e58;" horiz-adv-x="1322" 
d="M720 1365q240 0 366.5 -122.5t126.5 -322.5q0 -80 -24 -148.5t-63 -114.5t-79 -76t-80 -46l273 -535h-339l-235 490h-210v-490h-300v1365h564zM456 719h216q106 0 166 51t60 147q0 99 -62 152t-161 53h-219v-403zM513 1608q0 60 36 98.5t94 38.5t97 -38.5t39 -98.5
q0 -59 -39 -97t-97 -38t-94 37.5t-36 97.5z" />
    <glyph glyph-name="rdotaccent" unicode="&#x1e59;" horiz-adv-x="863" 
d="M146 0v1067h297v-168h14q19 68 85 126t174 58q53 0 91 -9v-267q-33 12 -112 12q-122 0 -183.5 -63.5t-61.5 -174.5v-581h-304zM323 1310q0 60 36 98.5t94 38.5t97 -38.5t39 -98.5q0 -59 -39 -97t-97 -38t-94 37.5t-36 97.5z" />
    <glyph glyph-name="Rdotbelow" unicode="&#x1e5a;" horiz-adv-x="1322" 
d="M505 -247q0 62 39.5 103t98.5 41q60 0 101 -41t41 -103t-41 -101.5t-101 -39.5t-99 39.5t-39 101.5zM720 1365q240 0 366.5 -122.5t126.5 -322.5q0 -80 -24 -148.5t-63 -114.5t-79 -76t-80 -46l273 -535h-339l-235 490h-210v-490h-300v1365h564zM456 719h216
q106 0 166 51t60 147q0 99 -62 152t-161 53h-219v-403z" />
    <glyph glyph-name="rdotbelow" unicode="&#x1e5b;" horiz-adv-x="863" 
d="M244 -247q0 62 39.5 103t98.5 41q60 0 101 -41t41 -103t-41 -101.5t-101 -39.5t-99 39.5t-39 101.5zM146 0v1067h297v-168h14q19 68 85 126t174 58q53 0 91 -9v-267q-33 12 -112 12q-122 0 -183.5 -63.5t-61.5 -174.5v-581h-304z" />
    <glyph glyph-name="Rdotbelowmacron" unicode="&#x1e5c;" horiz-adv-x="1322" 
d="M505 -247q0 62 39.5 103t98.5 41q60 0 101 -41t41 -103t-41 -101.5t-101 -39.5t-99 39.5t-39 101.5zM720 1365q240 0 366.5 -122.5t126.5 -322.5q0 -80 -24 -148.5t-63 -114.5t-79 -76t-80 -46l273 -535h-339l-235 490h-210v-490h-300v1365h564zM456 719h216
q106 0 166 51t60 147q0 99 -62 152t-161 53h-219v-403zM950 1489h-614v156h614v-156z" />
    <glyph glyph-name="rdotbelowmacron" unicode="&#x1e5d;" horiz-adv-x="863" 
d="M244 -247q0 62 39.5 103t98.5 41q60 0 101 -41t41 -103t-41 -101.5t-101 -39.5t-99 39.5t-39 101.5zM146 0v1067h297v-168h14q19 68 85 126t174 58q53 0 91 -9v-267q-33 12 -112 12q-122 0 -183.5 -63.5t-61.5 -174.5v-581h-304zM763 1225h-608v167h608v-167z" />
    <glyph glyph-name="Rlinebelow" unicode="&#x1e5e;" horiz-adv-x="1322" 
d="M720 1365q240 0 366.5 -122.5t126.5 -322.5q0 -80 -24 -148.5t-63 -114.5t-79 -76t-80 -46l273 -535h-339l-235 490h-210v-490h-300v1365h564zM456 719h216q106 0 166 51t60 147q0 99 -62 152t-161 53h-219v-403zM952 -348h-608v167h608v-167z" />
    <glyph glyph-name="rlinebelow" unicode="&#x1e5f;" horiz-adv-x="863" 
d="M146 0v1067h297v-168h14q19 68 85 126t174 58q53 0 91 -9v-267q-33 12 -112 12q-122 0 -183.5 -63.5t-61.5 -174.5v-581h-304zM691 -348h-608v167h608v-167z" />
    <glyph glyph-name="Sdotaccent" unicode="&#x1e60;" horiz-adv-x="1269" 
d="M77 398h291q6 -73 75 -124t189 -51q115 0 176 43.5t61 115.5q0 63 -49 98t-156 58l-201 42q-161 34 -258.5 127.5t-97.5 259.5q0 132 69.5 229.5t187 146t266.5 48.5q232 0 374.5 -118t144.5 -297h-283q-6 71 -67 121t-170 50q-101 0 -159 -42t-58 -112q0 -108 184 -145
l204 -41q63 -12 115 -30.5t101 -50t82 -73.5t53 -103t20 -136q0 -202 -147.5 -320.5t-405.5 -118.5q-118 0 -212 25.5t-154 66.5t-100 97t-57 114t-18 120zM503 1608q0 60 36 98.5t94 38.5t97 -38.5t39 -98.5q0 -59 -39 -97t-97 -38t-94 37.5t-36 97.5z" />
    <glyph glyph-name="sdotaccent" unicode="&#x1e61;" horiz-adv-x="1089" 
d="M105 747q0 88 35.5 155.5t97.5 106.5t139 58.5t168 19.5q188 0 302.5 -83.5t114.5 -236.5h-260q-6 47 -48 81t-114 34t-113 -30.5t-41 -80.5q0 -16 5.5 -30t17 -25t24 -19.5t33 -15.5t36.5 -12t41 -9.5t41 -7.5t42 -7l39 -6q159 -26 245 -97t86 -206q0 -166 -123.5 -261
t-345.5 -95q-208 0 -326 89t-118 234h287q6 -52 50 -83.5t122 -31.5q84 0 125.5 31t41.5 81q0 19 -6.5 34.5t-23 27t-30.5 19.5t-44 15.5t-47 11t-56 10.5t-56 10q-60 12 -108 27.5t-93 41t-75 59t-47.5 82.5t-17.5 109zM415 1310q0 60 36 98.5t94 38.5t97 -38.5t39 -98.5
q0 -59 -39 -97t-97 -38t-94 37.5t-36 97.5z" />
    <glyph glyph-name="Sdotbelow" unicode="&#x1e62;" horiz-adv-x="1269" 
d="M485 -247q0 62 39.5 103t98.5 41q60 0 101 -41t41 -103t-41 -101.5t-101 -39.5t-99 39.5t-39 101.5zM77 398h291q6 -73 75 -124t189 -51q115 0 176 43.5t61 115.5q0 63 -49 98t-156 58l-201 42q-161 34 -258.5 127.5t-97.5 259.5q0 132 69.5 229.5t187 146t266.5 48.5
q232 0 374.5 -118t144.5 -297h-283q-6 71 -67 121t-170 50q-101 0 -159 -42t-58 -112q0 -108 184 -145l204 -41q63 -12 115 -30.5t101 -50t82 -73.5t53 -103t20 -136q0 -202 -147.5 -320.5t-405.5 -118.5q-118 0 -212 25.5t-154 66.5t-100 97t-57 114t-18 120z" />
    <glyph glyph-name="sdotbelow" unicode="&#x1e63;" horiz-adv-x="1089" 
d="M407 -247q0 62 39.5 103t98.5 41q60 0 101 -41t41 -103t-41 -101.5t-101 -39.5t-99 39.5t-39 101.5zM105 747q0 88 35.5 155.5t97.5 106.5t139 58.5t168 19.5q188 0 302.5 -83.5t114.5 -236.5h-260q-6 47 -48 81t-114 34t-113 -30.5t-41 -80.5q0 -16 5.5 -30t17 -25
t24 -19.5t33 -15.5t36.5 -12t41 -9.5t41 -7.5t42 -7l39 -6q159 -26 245 -97t86 -206q0 -166 -123.5 -261t-345.5 -95q-208 0 -326 89t-118 234h287q6 -52 50 -83.5t122 -31.5q84 0 125.5 31t41.5 81q0 19 -6.5 34.5t-23 27t-30.5 19.5t-44 15.5t-47 11t-56 10.5t-56 10
q-60 12 -108 27.5t-93 41t-75 59t-47.5 82.5t-17.5 109z" />
    <glyph glyph-name="Sacutedotaccent" unicode="&#x1e64;" horiz-adv-x="1269" 
d="M218 1645q0 57 37 95.5t90 38.5q56 0 94 -38t38 -96q0 -55 -38 -92.5t-94 -37.5q-53 0 -90 37.5t-37 92.5zM563 1503l275 230h309l-310 -230h-274zM77 398h291q6 -73 75 -124t189 -51q115 0 176 43.5t61 115.5q0 63 -49 98t-156 58l-201 42q-161 34 -258.5 127.5
t-97.5 259.5q0 132 69.5 229.5t187 146t266.5 48.5q232 0 374.5 -118t144.5 -297h-283q-6 71 -67 121t-170 50q-101 0 -159 -42t-58 -112q0 -108 184 -145l204 -41q63 -12 115 -30.5t101 -50t82 -73.5t53 -103t20 -136q0 -202 -147.5 -320.5t-405.5 -118.5q-118 0 -212 25.5
t-154 66.5t-100 97t-57 114t-18 120z" />
    <glyph glyph-name="sacutedotaccent" unicode="&#x1e65;" horiz-adv-x="1089" 
d="M173 1438q0 62 39.5 104t96.5 42q61 0 101.5 -41.5t40.5 -104.5q0 -60 -40.5 -100.5t-101.5 -40.5q-57 0 -96.5 40.5t-39.5 100.5zM105 747q0 88 35.5 155.5t97.5 106.5t139 58.5t168 19.5q188 0 302.5 -83.5t114.5 -236.5h-260q-6 47 -48 81t-114 34t-113 -30.5
t-41 -80.5q0 -16 5.5 -30t17 -25t24 -19.5t33 -15.5t36.5 -12t41 -9.5t41 -7.5t42 -7l39 -6q159 -26 245 -97t86 -206q0 -166 -123.5 -261t-345.5 -95q-208 0 -326 89t-118 234h287q6 -52 50 -83.5t122 -31.5q84 0 125.5 31t41.5 81q0 19 -6.5 34.5t-23 27t-30.5 19.5
t-44 15.5t-47 11t-56 10.5t-56 10q-60 12 -108 27.5t-93 41t-75 59t-47.5 82.5t-17.5 109zM562 1236l237 352h258l-280 -352h-215z" />
    <glyph glyph-name="Scarondotaccent" unicode="&#x1e66;" horiz-adv-x="1269" 
d="M503 1876q0 60 36.5 99t93.5 39q58 0 97 -39t39 -99q0 -59 -39 -96.5t-97 -37.5t-94 37.5t-36 96.5zM77 398h291q6 -73 75 -124t189 -51q115 0 176 43.5t61 115.5q0 63 -49 98t-156 58l-201 42q-161 34 -258.5 127.5t-97.5 259.5q0 132 69.5 229.5t187 146t266.5 48.5
q232 0 374.5 -118t144.5 -297h-283q-6 71 -67 121t-170 50q-101 0 -159 -42t-58 -112q0 -108 184 -145l204 -41q63 -12 115 -30.5t101 -50t82 -73.5t53 -103t20 -136q0 -202 -147.5 -320.5t-405.5 -118.5q-118 0 -212 25.5t-154 66.5t-100 97t-57 114t-18 120zM263 1727h234
l131 -115h15l121 115h236l-240 -234h-242z" />
    <glyph glyph-name="scarondotaccent" unicode="&#x1e67;" horiz-adv-x="1089" 
d="M404 1733q0 62 39.5 103.5t96.5 41.5q61 0 101.5 -41.5t40.5 -103.5q0 -61 -40.5 -101t-101.5 -40q-57 0 -96.5 40.5t-39.5 100.5zM188 1540h223l130 -201h11l117 201h229l-241 -345h-216zM105 747q0 88 35.5 155.5t97.5 106.5t139 58.5t168 19.5q188 0 302.5 -83.5
t114.5 -236.5h-260q-6 47 -48 81t-114 34t-113 -30.5t-41 -80.5q0 -16 5.5 -30t17 -25t24 -19.5t33 -15.5t36.5 -12t41 -9.5t41 -7.5t42 -7l39 -6q159 -26 245 -97t86 -206q0 -166 -123.5 -261t-345.5 -95q-208 0 -326 89t-118 234h287q6 -52 50 -83.5t122 -31.5
q84 0 125.5 31t41.5 81q0 19 -6.5 34.5t-23 27t-30.5 19.5t-44 15.5t-47 11t-56 10.5t-56 10q-60 12 -108 27.5t-93 41t-75 59t-47.5 82.5t-17.5 109z" />
    <glyph glyph-name="Sdotbelowdotaccent" unicode="&#x1e68;" horiz-adv-x="1269" 
d="M485 -247q0 62 39.5 103t98.5 41q60 0 101 -41t41 -103t-41 -101.5t-101 -39.5t-99 39.5t-39 101.5zM77 398h291q6 -73 75 -124t189 -51q115 0 176 43.5t61 115.5q0 63 -49 98t-156 58l-201 42q-161 34 -258.5 127.5t-97.5 259.5q0 132 69.5 229.5t187 146t266.5 48.5
q232 0 374.5 -118t144.5 -297h-283q-6 71 -67 121t-170 50q-101 0 -159 -42t-58 -112q0 -108 184 -145l204 -41q63 -12 115 -30.5t101 -50t82 -73.5t53 -103t20 -136q0 -202 -147.5 -320.5t-405.5 -118.5q-118 0 -212 25.5t-154 66.5t-100 97t-57 114t-18 120zM503 1608
q0 60 36 98.5t94 38.5t97 -38.5t39 -98.5q0 -59 -39 -97t-97 -38t-94 37.5t-36 97.5z" />
    <glyph glyph-name="sdotbelowdotaccent" unicode="&#x1e69;" horiz-adv-x="1089" 
d="M407 -247q0 62 39.5 103t98.5 41q60 0 101 -41t41 -103t-41 -101.5t-101 -39.5t-99 39.5t-39 101.5zM105 747q0 88 35.5 155.5t97.5 106.5t139 58.5t168 19.5q188 0 302.5 -83.5t114.5 -236.5h-260q-6 47 -48 81t-114 34t-113 -30.5t-41 -80.5q0 -16 5.5 -30t17 -25
t24 -19.5t33 -15.5t36.5 -12t41 -9.5t41 -7.5t42 -7l39 -6q159 -26 245 -97t86 -206q0 -166 -123.5 -261t-345.5 -95q-208 0 -326 89t-118 234h287q6 -52 50 -83.5t122 -31.5q84 0 125.5 31t41.5 81q0 19 -6.5 34.5t-23 27t-30.5 19.5t-44 15.5t-47 11t-56 10.5t-56 10
q-60 12 -108 27.5t-93 41t-75 59t-47.5 82.5t-17.5 109zM415 1310q0 60 36 98.5t94 38.5t97 -38.5t39 -98.5q0 -59 -39 -97t-97 -38t-94 37.5t-36 97.5z" />
    <glyph glyph-name="Tdotaccent" unicode="&#x1e6a;" horiz-adv-x="1135" 
d="M437 1608q0 60 36 98.5t94 38.5t97 -38.5t39 -98.5q0 -59 -39 -97t-97 -38t-94 37.5t-36 97.5zM716 0h-305v1100h-378v265h1062v-265h-379v-1100z" />
    <glyph glyph-name="tdotaccent" unicode="&#x1e6b;" horiz-adv-x="842" 
d="M245 1554q0 60 36 98.5t94 38.5t97 -38.5t39 -98.5q0 -59 -39 -97t-97 -38t-94 37.5t-36 97.5zM226 1052v264h287v-264h235v-237h-235v-458q0 -70 35 -98.5t114 -28.5q55 0 93 4v-225q-57 -13 -165 -13q-202 0 -286 70t-84 238v511h-163v237h169z" />
    <glyph glyph-name="Tdotbelow" unicode="&#x1e6c;" horiz-adv-x="1135" 
d="M429 -247q0 62 39.5 103t98.5 41q60 0 101 -41t41 -103t-41 -101.5t-101 -39.5t-99 39.5t-39 101.5zM716 0h-305v1100h-378v265h1062v-265h-379v-1100z" />
    <glyph glyph-name="tdotbelow" unicode="&#x1e6d;" horiz-adv-x="842" 
d="M334 -247q0 62 39.5 103t98.5 41q60 0 101 -41t41 -103t-41 -101.5t-101 -39.5t-99 39.5t-39 101.5zM226 1052v264h287v-264h235v-237h-235v-458q0 -70 35 -98.5t114 -28.5q55 0 93 4v-225q-57 -13 -165 -13q-202 0 -286 70t-84 238v511h-163v237h169z" />
    <glyph glyph-name="Tlinebelow" unicode="&#x1e6e;" horiz-adv-x="1135" 
d="M876 -348h-608v167h608v-167zM716 0h-305v1100h-378v265h1062v-265h-379v-1100z" />
    <glyph glyph-name="tlinebelow" unicode="&#x1e6f;" horiz-adv-x="842" 
d="M781 -348h-608v167h608v-167zM226 1052v264h287v-264h235v-237h-235v-458q0 -70 35 -98.5t114 -28.5q55 0 93 4v-225q-57 -13 -165 -13q-202 0 -286 70t-84 238v511h-163v237h169z" />
    <glyph glyph-name="Tcircumflexbelow" unicode="&#x1e70;" horiz-adv-x="1135" 
d="M716 0h-305v1100h-378v265h1062v-265h-379v-1100zM194 -385l268 269h215l255 -269h-240l-120 135h-12l-134 -135h-232z" />
    <glyph glyph-name="tcircumflexbelow" unicode="&#x1e71;" horiz-adv-x="842" 
d="M226 1052v264h287v-264h235v-237h-235v-458q0 -70 35 -98.5t114 -28.5q55 0 93 4v-225q-57 -13 -165 -13q-202 0 -286 70t-84 238v511h-163v237h169zM99 -385l268 269h215l255 -269h-240l-120 135h-12l-134 -135h-232z" />
    <glyph glyph-name="Udieresisbelow" unicode="&#x1e72;" horiz-adv-x="1419" 
d="M449 1365v-855q0 -129 70 -197t189 -68q118 0 188 68.5t70 196.5v855h305v-892q0 -227 -153 -362.5t-410 -135.5t-410.5 136.5t-153.5 362.5v891h305zM369 -293q0 58 37 94t97 36q61 0 98 -35.5t37 -94.5q0 -58 -37 -93.5t-98 -35.5q-60 0 -97 35.5t-37 93.5zM784 -293
q0 58 36.5 94t95.5 36q62 0 99.5 -35.5t37.5 -94.5q0 -58 -37 -93.5t-100 -35.5q-59 0 -95.5 35.5t-36.5 93.5z" />
    <glyph glyph-name="udieresisbelow" unicode="&#x1e73;" horiz-adv-x="1253" 
d="M1105 1067v-1067h-289v178h-15q-16 -46 -51 -87.5t-104 -74t-156 -32.5q-166 0 -260 92.5t-94 278.5v712h296v-633q0 -192 177 -192q84 0 141.5 54.5t57.5 146.5v624h297zM285 -293q0 58 37 94t97 36q61 0 98 -35.5t37 -94.5q0 -58 -37 -93.5t-98 -35.5q-60 0 -97 35.5
t-37 93.5zM700 -293q0 58 36.5 94t95.5 36q62 0 99.5 -35.5t37.5 -94.5q0 -58 -37 -93.5t-100 -35.5q-59 0 -95.5 35.5t-36.5 93.5z" />
    <glyph glyph-name="Utildebelow" unicode="&#x1e74;" horiz-adv-x="1419" 
d="M694 -324q-4 3 -14.5 14t-16.5 15.5t-15.5 11.5t-19.5 10t-21 3q-63 0 -69 -87h-154q0 92 51.5 162.5t146.5 70.5q53 0 87.5 -15.5t72.5 -48.5q5 -5 15 -14t14.5 -13t12.5 -10.5t14 -9t14.5 -5t16.5 -2.5q34 0 50 30t18 72h154q0 -100 -57.5 -170t-146.5 -70
q-59 0 -91.5 14.5t-61.5 41.5zM449 1365v-855q0 -129 70 -197t189 -68q118 0 188 68.5t70 196.5v855h305v-892q0 -227 -153 -362.5t-410 -135.5t-410.5 136.5t-153.5 362.5v891h305z" />
    <glyph glyph-name="utildebelow" unicode="&#x1e75;" horiz-adv-x="1253" 
d="M610 -324q-4 3 -14.5 14t-16.5 15.5t-15.5 11.5t-19.5 10t-21 3q-63 0 -69 -87h-154q0 92 51.5 162.5t146.5 70.5q53 0 87.5 -15.5t72.5 -48.5q5 -5 15 -14t14.5 -13t12.5 -10.5t14 -9t14.5 -5t16.5 -2.5q34 0 50 30t18 72h154q0 -100 -57.5 -170t-146.5 -70
q-59 0 -91.5 14.5t-61.5 41.5zM1105 1067v-1067h-289v178h-15q-16 -46 -51 -87.5t-104 -74t-156 -32.5q-166 0 -260 92.5t-94 278.5v712h296v-633q0 -192 177 -192q84 0 141.5 54.5t57.5 146.5v624h297z" />
    <glyph glyph-name="Ucircumflexbelow" unicode="&#x1e76;" horiz-adv-x="1419" 
d="M449 1365v-855q0 -129 70 -197t189 -68q118 0 188 68.5t70 196.5v855h305v-892q0 -227 -153 -362.5t-410 -135.5t-410.5 136.5t-153.5 362.5v891h305zM337 -385l268 269h215l255 -269h-240l-120 135h-12l-134 -135h-232z" />
    <glyph glyph-name="ucircumflexbelow" unicode="&#x1e77;" horiz-adv-x="1253" 
d="M1105 1067v-1067h-289v178h-15q-16 -46 -51 -87.5t-104 -74t-156 -32.5q-166 0 -260 92.5t-94 278.5v712h296v-633q0 -192 177 -192q84 0 141.5 54.5t57.5 146.5v624h297zM253 -385l268 269h215l255 -269h-240l-120 135h-12l-134 -135h-232z" />
    <glyph glyph-name="Utildeacute" unicode="&#x1e78;" horiz-adv-x="1419" 
d="M525 1748l275 230h309l-310 -230h-274zM449 1365v-855q0 -129 70 -197t189 -68q118 0 188 68.5t70 196.5v855h305v-892q0 -227 -153 -362.5t-410 -135.5t-410.5 136.5t-153.5 362.5v891h305zM694 1507q-4 3 -18 16.5t-21.5 19.5t-21 12t-26.5 6q-63 0 -69 -87h-154
q0 92 51.5 162.5t146.5 70.5q53 0 87 -15.5t73 -49.5q5 -4 17.5 -15.5t17.5 -15.5t14.5 -10.5t18.5 -9t19 -2.5q34 0 50 30t18 72h154q0 -100 -57.5 -170t-146.5 -70q-59 0 -91.5 14.5t-61.5 41.5z" />
    <glyph glyph-name="utildeacute" unicode="&#x1e79;" horiz-adv-x="1253" 
d="M1105 1067v-1067h-289v178h-15q-16 -46 -51 -87.5t-104 -74t-156 -32.5q-166 0 -260 92.5t-94 278.5v712h296v-633q0 -192 177 -192q84 0 141.5 54.5t57.5 146.5v624h297zM527 1533l237 352h258l-280 -352h-215zM606 1245q-13 15 -21 23t-25.5 17.5t-36.5 9.5
q-64 0 -70 -99h-157q0 121 55.5 203.5t156.5 82.5q48 0 83 -18t70 -58q4 -4 18 -19t20 -20.5t19.5 -11.5t28.5 -6q32 0 48 34.5t18 82.5h156q0 -118 -61.5 -203.5t-154.5 -85.5q-90 0 -147 68z" />
    <glyph glyph-name="Umacrondieresis" unicode="&#x1e7a;" horiz-adv-x="1419" 
d="M384 1868q0 56 34.5 89.5t91.5 33.5q59 0 93.5 -33.5t34.5 -89.5q0 -55 -34.5 -88.5t-93.5 -33.5q-57 0 -91.5 33.5t-34.5 88.5zM779 1868q0 56 34.5 89.5t92.5 33.5t93 -33.5t35 -89.5q0 -55 -34.5 -88.5t-93.5 -33.5q-58 0 -92.5 33.5t-34.5 88.5zM449 1365v-855
q0 -129 70 -197t189 -68q118 0 188 68.5t70 196.5v855h305v-892q0 -227 -153 -362.5t-410 -135.5t-410.5 136.5t-153.5 362.5v891h305zM1017 1489h-614v156h614v-156z" />
    <glyph glyph-name="umacrondieresis" unicode="&#x1e7b;" horiz-adv-x="1253" 
d="M1105 1067v-1067h-289v178h-15q-16 -46 -51 -87.5t-104 -74t-156 -32.5q-166 0 -260 92.5t-94 278.5v712h296v-633q0 -192 177 -192q84 0 141.5 54.5t57.5 146.5v624h297zM936 1225h-608v167h608v-167zM287 1646q0 58 37 94t97 36q61 0 98 -36t37 -94t-37 -93.5
t-98 -35.5q-60 0 -97 35.5t-37 93.5zM702 1646q0 58 36.5 94t95.5 36q62 0 99.5 -35.5t37.5 -94.5q0 -58 -37 -93.5t-100 -35.5q-59 0 -95.5 35.5t-36.5 93.5z" />
    <glyph glyph-name="Vtilde" unicode="&#x1e7c;" horiz-adv-x="1313" 
d="M641 1507q-4 3 -18 16.5t-21.5 19.5t-21 12t-26.5 6q-63 0 -69 -87h-154q0 92 51.5 162.5t146.5 70.5q53 0 87 -15.5t73 -49.5q5 -4 17.5 -15.5t17.5 -15.5t14.5 -10.5t18.5 -9t19 -2.5q34 0 50 30t18 72h154q0 -100 -57.5 -170t-146.5 -70q-59 0 -91.5 14.5t-61.5 41.5z
M843 0h-377l-443 1365h354l279 -1023h15l274 1023h338z" />
    <glyph glyph-name="vtilde" unicode="&#x1e7d;" horiz-adv-x="1110" 
d="M535 1245q-13 15 -21 23t-25.5 17.5t-36.5 9.5q-64 0 -70 -99h-157q0 121 55.5 203.5t156.5 82.5q48 0 83 -18t70 -58q4 -4 18 -19t20 -20.5t19.5 -11.5t28.5 -6q32 0 48 34.5t18 82.5h156q0 -118 -61.5 -203.5t-154.5 -85.5q-90 0 -147 68zM371 0l-346 1067h322
l190 -786h12l214 786h312l-368 -1067h-336z" />
    <glyph glyph-name="Vdotbelow" unicode="&#x1e7e;" horiz-adv-x="1313" 
d="M519 -247q0 62 39.5 103t98.5 41q60 0 101 -41t41 -103t-41 -101.5t-101 -39.5t-99 39.5t-39 101.5zM843 0h-377l-443 1365h354l279 -1023h15l274 1023h338z" />
    <glyph glyph-name="vdotbelow" unicode="&#x1e7f;" horiz-adv-x="1110" 
d="M417 -247q0 62 39.5 103t98.5 41q60 0 101 -41t41 -103t-41 -101.5t-101 -39.5t-99 39.5t-39 101.5zM371 0l-346 1067h322l190 -786h12l214 786h312l-368 -1067h-336z" />
    <glyph glyph-name="Wgrave" unicode="&#x1e80;" horiz-adv-x="1815" 
d="M1065 1501h-260l-300 221h294zM655 0h-283l-354 1365h325l187 -933h14l230 933h256l230 -933h15l185 933h325l-354 -1365h-284l-239 881h-13z" />
    <glyph glyph-name="wgrave" unicode="&#x1e81;" horiz-adv-x="1636" 
d="M953 1236h-215l-280 352h258zM1594 1067l-275 -1067h-309l-192 725h-10l-188 -725h-313l-280 1067h309l142 -757h12l185 757h278l189 -757h12l144 757h296z" />
    <glyph glyph-name="Wacute" unicode="&#x1e82;" horiz-adv-x="1815" 
d="M723 1501l275 230h309l-310 -230h-274zM655 0h-283l-354 1365h325l187 -933h14l230 933h256l230 -933h15l185 933h325l-354 -1365h-284l-239 881h-13z" />
    <glyph glyph-name="wacute" unicode="&#x1e83;" horiz-adv-x="1636" 
d="M719 1236l237 352h258l-280 -352h-215zM1594 1067l-275 -1067h-309l-192 725h-10l-188 -725h-313l-280 1067h309l142 -757h12l185 757h278l189 -757h12l144 757h296z" />
    <glyph glyph-name="Wdieresis" unicode="&#x1e84;" horiz-adv-x="1815" 
d="M581 1578q0 56 34.5 89.5t91.5 33.5q59 0 93.5 -33.5t34.5 -89.5q0 -55 -34.5 -88.5t-93.5 -33.5q-57 0 -91.5 33.5t-34.5 88.5zM976 1578q0 56 34.5 89.5t92.5 33.5t93 -33.5t35 -89.5q0 -55 -34.5 -88.5t-93.5 -33.5q-58 0 -92.5 33.5t-34.5 88.5zM655 0h-283
l-354 1365h325l187 -933h14l230 933h256l230 -933h15l185 933h325l-354 -1365h-284l-239 881h-13z" />
    <glyph glyph-name="wdieresis" unicode="&#x1e85;" horiz-adv-x="1636" 
d="M479 1324q0 58 37 94t97 36q61 0 98 -36t37 -94t-37 -93.5t-98 -35.5q-60 0 -97 35.5t-37 93.5zM894 1324q0 58 36.5 94t95.5 36q62 0 99.5 -35.5t37.5 -94.5q0 -58 -37 -93.5t-100 -35.5q-59 0 -95.5 35.5t-36.5 93.5zM1594 1067l-275 -1067h-309l-192 725h-10
l-188 -725h-313l-280 1067h309l142 -757h12l185 757h278l189 -757h12l144 757h296z" />
    <glyph glyph-name="Wdotaccent" unicode="&#x1e86;" horiz-adv-x="1815" 
d="M778 1608q0 60 36 98.5t94 38.5t97 -38.5t39 -98.5q0 -59 -39 -97t-97 -38t-94 37.5t-36 97.5zM655 0h-283l-354 1365h325l187 -933h14l230 933h256l230 -933h15l185 933h325l-354 -1365h-284l-239 881h-13z" />
    <glyph glyph-name="wdotaccent" unicode="&#x1e87;" horiz-adv-x="1636" 
d="M688 1310q0 60 36 98.5t94 38.5t97 -38.5t39 -98.5q0 -59 -39 -97t-97 -38t-94 37.5t-36 97.5zM1594 1067l-275 -1067h-309l-192 725h-10l-188 -725h-313l-280 1067h309l142 -757h12l185 757h278l189 -757h12l144 757h296z" />
    <glyph glyph-name="Wdotbelow" unicode="&#x1e88;" horiz-adv-x="1815" 
d="M770 -247q0 62 39.5 103t98.5 41q60 0 101 -41t41 -103t-41 -101.5t-101 -39.5t-99 39.5t-39 101.5zM655 0h-283l-354 1365h325l187 -933h14l230 933h256l230 -933h15l185 933h325l-354 -1365h-284l-239 881h-13z" />
    <glyph glyph-name="wdotbelow" unicode="&#x1e89;" horiz-adv-x="1636" 
d="M680 -247q0 62 39.5 103t98.5 41q60 0 101 -41t41 -103t-41 -101.5t-101 -39.5t-99 39.5t-39 101.5zM1594 1067l-275 -1067h-309l-192 725h-10l-188 -725h-313l-280 1067h309l142 -757h12l185 757h278l189 -757h12l144 757h296z" />
    <glyph glyph-name="Xdotaccent" unicode="&#x1e8a;" horiz-adv-x="1250" 
d="M1244 1365l-428 -682l423 -683h-347l-272 452h-13l-272 -452h-328l414 687l-412 678h358l261 -463h14l259 463h343zM495 1608q0 60 36 98.5t94 38.5t97 -38.5t39 -98.5q0 -59 -39 -97t-97 -38t-94 37.5t-36 97.5z" />
    <glyph glyph-name="xdotaccent" unicode="&#x1e8b;" horiz-adv-x="1146" 
d="M755 0l-190 340h-12l-190 -340h-312l323 532l-336 535h340l187 -337h12l191 337h325l-345 -528l336 -539h-329zM443 1310q0 60 36 98.5t94 38.5t97 -38.5t39 -98.5q0 -59 -39 -97t-97 -38t-94 37.5t-36 97.5z" />
    <glyph glyph-name="Xdieresis" unicode="&#x1e8c;" horiz-adv-x="1250" 
d="M1244 1365l-428 -682l423 -683h-347l-272 452h-13l-272 -452h-328l414 687l-412 678h358l261 -463h14l259 463h343zM298 1578q0 56 34.5 89.5t91.5 33.5q59 0 93.5 -33.5t34.5 -89.5q0 -55 -34.5 -88.5t-93.5 -33.5q-57 0 -91.5 33.5t-34.5 88.5zM693 1578
q0 56 34.5 89.5t92.5 33.5t93 -33.5t35 -89.5q0 -55 -34.5 -88.5t-93.5 -33.5q-58 0 -92.5 33.5t-34.5 88.5z" />
    <glyph glyph-name="xdieresis" unicode="&#x1e8d;" horiz-adv-x="1146" 
d="M755 0l-190 340h-12l-190 -340h-312l323 532l-336 535h340l187 -337h12l191 337h325l-345 -528l336 -539h-329zM234 1324q0 58 37 94t97 36q61 0 98 -36t37 -94t-37 -93.5t-98 -35.5q-60 0 -97 35.5t-37 93.5zM649 1324q0 58 36.5 94t95.5 36q62 0 99.5 -35.5t37.5 -94.5
q0 -58 -37 -93.5t-100 -35.5q-59 0 -95.5 35.5t-36.5 93.5z" />
    <glyph glyph-name="Ydotaccent" unicode="&#x1e8e;" horiz-adv-x="1216" 
d="M756 0h-305v481l-457 884h336l271 -564h12l274 564h326l-457 -876v-489zM478 1608q0 60 36 98.5t94 38.5t97 -38.5t39 -98.5q0 -59 -39 -97t-97 -38t-94 37.5t-36 97.5z" />
    <glyph glyph-name="ydotaccent" unicode="&#x1e8f;" horiz-adv-x="1151" 
d="M1102 1067q-333 -1003 -338 -1018l-27 -72q-31 -84 -66 -143t-89 -109t-133 -75t-183 -25q-96 0 -159 13v218q25 -7 90 -7q95 0 137 31.5t52 97.5l8 26l-360 1063h327l204 -810h12l211 810h314zM445 1310q0 60 36 98.5t94 38.5t97 -38.5t39 -98.5q0 -59 -39 -97t-97 -38
t-94 37.5t-36 97.5z" />
    <glyph glyph-name="Zcircumflex" unicode="&#x1e90;" horiz-adv-x="1235" 
d="M106 0v207l634 883v16h-619v259h987v-206l-632 -884v-16h653v-259h-1023zM254 1486l268 250h210l255 -250h-230l-126 122h-15l-134 -122h-228z" />
    <glyph glyph-name="zcircumflex" unicode="&#x1e91;" horiz-adv-x="1058" 
d="M168 1233l254 344h215l242 -344h-229l-117 197h-11l-131 -197h-223zM104 0v168l488 645v14h-480v240h837v-189l-467 -623v-13h482v-242h-860z" />
    <glyph glyph-name="Zdotbelow" unicode="&#x1e92;" horiz-adv-x="1235" 
d="M480 -247q0 62 39.5 103t98.5 41q60 0 101 -41t41 -103t-41 -101.5t-101 -39.5t-99 39.5t-39 101.5zM106 0v207l634 883v16h-619v259h987v-206l-632 -884v-16h653v-259h-1023z" />
    <glyph glyph-name="zdotbelow" unicode="&#x1e93;" horiz-adv-x="1058" 
d="M391 -247q0 62 39.5 103t98.5 41q60 0 101 -41t41 -103t-41 -101.5t-101 -39.5t-99 39.5t-39 101.5zM104 0v168l488 645v14h-480v240h837v-189l-467 -623v-13h482v-242h-860z" />
    <glyph glyph-name="Zlinebelow" unicode="&#x1e94;" horiz-adv-x="1235" 
d="M106 0v207l634 883v16h-619v259h987v-206l-632 -884v-16h653v-259h-1023zM927 -348h-608v167h608v-167z" />
    <glyph glyph-name="zlinebelow" unicode="&#x1e95;" horiz-adv-x="1058" 
d="M838 -348h-608v167h608v-167zM104 0v168l488 645v14h-480v240h837v-189l-467 -623v-13h482v-242h-860z" />
    <glyph glyph-name="hlinebelow" unicode="&#x1e96;" horiz-adv-x="1262" 
d="M146 0v1437h296v-555h15q10 33 31 65t57.5 64t94.5 52t130 20q161 0 256.5 -97t95.5 -281v-705h-297v623q0 106 -50 153.5t-130 47.5q-92 0 -147.5 -62.5t-55.5 -170.5v-591h-296zM937 -348h-608v167h608v-167z" />
    <glyph glyph-name="tdieresis" unicode="&#x1e97;" horiz-adv-x="842" 
d="M226 1052v264h287v-264h235v-237h-235v-458q0 -70 35 -98.5t114 -28.5q55 0 93 4v-225q-57 -13 -165 -13q-202 0 -286 70t-84 238v511h-163v237h169zM36 1568q0 58 37 94t97 36q61 0 98 -36t37 -94t-37 -93.5t-98 -35.5q-60 0 -97 35.5t-37 93.5zM451 1568q0 58 36.5 94
t95.5 36q62 0 99.5 -35.5t37.5 -94.5q0 -58 -37 -93.5t-100 -35.5q-59 0 -95.5 35.5t-36.5 93.5z" />
    <glyph glyph-name="wring" unicode="&#x1e98;" horiz-adv-x="1636" 
d="M1594 1067l-275 -1067h-309l-192 725h-10l-188 -725h-313l-280 1067h309l142 -757h12l185 757h278l189 -757h12l144 757h296zM818 1179q-95 0 -159 62t-64 158t63.5 157t159.5 61q95 0 158.5 -61t63.5 -157t-63.5 -158t-158.5 -62zM726 1398q0 -39 26 -64.5t65 -25.5
t65 25.5t26 64.5t-26 64.5t-65 25.5t-65 -25.5t-26 -64.5z" />
    <glyph glyph-name="yring" unicode="&#x1e99;" horiz-adv-x="1151" 
d="M1102 1067q-333 -1003 -338 -1018l-27 -72q-31 -84 -66 -143t-89 -109t-133 -75t-183 -25q-96 0 -159 13v218q25 -7 90 -7q95 0 137 31.5t52 97.5l8 26l-360 1063h327l204 -810h12l211 810h314zM575 1179q-95 0 -159 62t-64 158t63.5 157t159.5 61q95 0 158.5 -61
t63.5 -157t-63.5 -158t-158.5 -62zM483 1398q0 -39 26 -64.5t65 -25.5t65 25.5t26 64.5t-26 64.5t-65 25.5t-65 -25.5t-26 -64.5z" />
    <glyph glyph-name="Adotbelow" unicode="&#x1ea0;" horiz-adv-x="1324" 
d="M331 0h-304l448 1365h366l445 -1365h-326l-96 318h-436zM655 1074h-14l-154 -522h320zM524 -247q0 62 39.5 103t98.5 41q60 0 101 -41t41 -103t-41 -101.5t-101 -39.5t-99 39.5t-39 101.5z" />
    <glyph glyph-name="adotbelow" unicode="&#x1ea1;" horiz-adv-x="1157" 
d="M441 -16q-158 0 -254.5 87.5t-96.5 237.5q0 148 99 234.5t282 86.5h252v90q0 65 -42.5 99t-116.5 34q-70 0 -109 -28.5t-48 -77.5h-279q4 68 30 125.5t76 106t136 76.5t199 28q96 0 174.5 -20t141 -62.5t97 -116.5t34.5 -174v-710h-279v132h-14q-33 -63 -103 -105.5
t-179 -42.5zM541 203q75 0 128.5 42t53.5 106v106h-180q-77 0 -118.5 -34t-41.5 -90q0 -61 46 -95.5t112 -34.5zM440 -247q0 62 39.5 103t98.5 41q60 0 101 -41t41 -103t-41 -101.5t-101 -39.5t-99 39.5t-39 101.5z" />
    <glyph glyph-name="Ahookabove" unicode="&#x1ea2;" horiz-adv-x="1324" 
d="M331 0h-304l448 1365h366l445 -1365h-326l-96 318h-436zM655 1074h-14l-154 -522h320zM505 1685v121q44 20 112 20q101 0 160 -47.5t59 -132.5q0 -37 -13 -68t-37 -53t-44.5 -35.5t-48.5 -27.5l-85 98q76 27 76 74q0 61 -92 61q-43 0 -87 -10z" />
    <glyph glyph-name="ahookabove" unicode="&#x1ea3;" horiz-adv-x="1157" 
d="M441 -16q-158 0 -254.5 87.5t-96.5 237.5q0 148 99 234.5t282 86.5h252v90q0 65 -42.5 99t-116.5 34q-70 0 -109 -28.5t-48 -77.5h-279q4 68 30 125.5t76 106t136 76.5t199 28q96 0 174.5 -20t141 -62.5t97 -116.5t34.5 -174v-710h-279v132h-14q-33 -63 -103 -105.5
t-179 -42.5zM541 203q75 0 128.5 42t53.5 106v106h-180q-77 0 -118.5 -34t-41.5 -90q0 -61 46 -95.5t112 -34.5zM431 1448v136q49 19 118 19q107 0 172 -51.5t65 -144.5q0 -82 -44.5 -132t-128.5 -94l-84 104q50 28 71 51t21 51q0 34 -27 54.5t-73 20.5q-50 0 -90 -14z" />
    <glyph glyph-name="Acircumflexacute" unicode="&#x1ea4;" horiz-adv-x="1324" 
d="M331 0h-304l448 1365h366l445 -1365h-326l-96 318h-436zM655 1074h-14l-154 -522h320zM287 1494l258 238h234l259 -238h-235l-133 118h-15l-131 -118h-237zM876 1744l176 181h223l-302 -268z" />
    <glyph glyph-name="acircumflexacute" unicode="&#x1ea5;" horiz-adv-x="1157" 
d="M441 -16q-158 0 -254.5 87.5t-96.5 237.5q0 148 99 234.5t282 86.5h252v90q0 65 -42.5 99t-116.5 34q-70 0 -109 -28.5t-48 -77.5h-279q4 68 30 125.5t76 106t136 76.5t199 28q96 0 174.5 -20t141 -62.5t97 -116.5t34.5 -174v-710h-279v132h-14q-33 -63 -103 -105.5
t-179 -42.5zM541 203q75 0 128.5 42t53.5 106v106h-180q-77 0 -118.5 -34t-41.5 -90q0 -61 46 -95.5t112 -34.5zM203 1196l258 238h234l259 -238h-235l-133 118h-15l-131 -118h-237zM792 1446l176 181h223l-302 -268z" />
    <glyph glyph-name="Acircumflexgrave" unicode="&#x1ea6;" horiz-adv-x="1324" 
d="M331 0h-304l448 1365h366l445 -1365h-326l-96 318h-436zM655 1074h-14l-154 -522h320zM1186 1674h-186l-255 251h219zM287 1494l258 238h234l259 -238h-235l-133 118h-15l-131 -118h-237z" />
    <glyph glyph-name="acircumflexgrave" unicode="&#x1ea7;" horiz-adv-x="1157" 
d="M441 -16q-158 0 -254.5 87.5t-96.5 237.5q0 148 99 234.5t282 86.5h252v90q0 65 -42.5 99t-116.5 34q-70 0 -109 -28.5t-48 -77.5h-279q4 68 30 125.5t76 106t136 76.5t199 28q96 0 174.5 -20t141 -62.5t97 -116.5t34.5 -174v-710h-279v132h-14q-33 -63 -103 -105.5
t-179 -42.5zM541 203q75 0 128.5 42t53.5 106v106h-180q-77 0 -118.5 -34t-41.5 -90q0 -61 46 -95.5t112 -34.5zM1102 1376h-186l-255 251h219zM203 1196l258 238h234l259 -238h-235l-133 118h-15l-131 -118h-237z" />
    </font>
</defs>
</svg>
