<?xml version="1.0" standalone="no"?>
<!DOCTYPE svg PUBLIC "-//W3C//DTD SVG 1.1//EN" "http://www.w3.org/Graphics/SVG/1.1/DTD/svg11.dtd" >
<svg xmlns="http://www.w3.org/2000/svg" xmlns:xlink="http://www.w3.org/1999/xlink" version="1.1">
<metadata>
Created by FontForge 20170731 at Wed Jan 14 10:07:45 2015
 By Aleksey,,,
(c) 2014 Apple Inc. All rights reserved.
</metadata>
<defs>
<font id="SanFranciscoText-ItalicG1" horiz-adv-x="0" >
  <font-face 
    font-family="San Francisco Text Italic G1"
    font-weight="400"
    font-style="italic"
    font-stretch="normal"
    units-per-em="2048"
    panose-1="0 0 0 0 0 0 0 0 0 0"
    ascent="1638"
    descent="-410"
    x-height="1050"
    cap-height="1366"
    bbox="-398 -484 2191 1993"
    underline-thickness="50"
    underline-position="-100"
    slope="-10"
    unicode-range="U+000D-FB02"
  />
<missing-glyph horiz-adv-x="1293" 
d="M120 0l241 1365h1053l-241 -1365h-1053zM573 303q0 -44 31 -72t80 -28q52 0 84.5 29t32.5 74q0 46 -31.5 74.5t-82.5 28.5q-50 0 -82 -29.5t-32 -76.5zM494 908h152q9 54 47.5 88.5t102.5 34.5q59 0 99.5 -29.5t40.5 -81.5q0 -22 -9 -41.5t-18 -31.5t-32.5 -29t-32.5 -22
t-38 -22q-84 -47 -120.5 -93.5t-45.5 -127.5l-6 -42h150l7 39q1 15 5.5 28t8 22t14.5 20.5t15 16.5t21 16t21 13.5t26.5 15.5t26.5 15q36 20 62 39t52.5 47t40.5 65t14 81q0 113 -85 174t-212 61q-140 0 -219 -72.5t-88 -183.5z" />
    <glyph glyph-name=".notdef" horiz-adv-x="1293" 
d="M120 0l241 1365h1053l-241 -1365h-1053zM573 303q0 -44 31 -72t80 -28q52 0 84.5 29t32.5 74q0 46 -31.5 74.5t-82.5 28.5q-50 0 -82 -29.5t-32 -76.5zM494 908h152q9 54 47.5 88.5t102.5 34.5q59 0 99.5 -29.5t40.5 -81.5q0 -22 -9 -41.5t-18 -31.5t-32.5 -29t-32.5 -22
t-38 -22q-84 -47 -120.5 -93.5t-45.5 -127.5l-6 -42h150l7 39q1 15 5.5 28t8 22t14.5 20.5t15 16.5t21 16t21 13.5t26.5 15.5t26.5 15q36 20 62 39t52.5 47t40.5 65t14 81q0 113 -85 174t-212 61q-140 0 -219 -72.5t-88 -183.5z" />
    <glyph glyph-name=".null" 
 />
    <glyph glyph-name="nonmarkingreturn" horiz-adv-x="682" 
 />
    <glyph glyph-name="CR" unicode="&#xd;" 
 />
    <glyph glyph-name="space" unicode=" " horiz-adv-x="468" 
 />
    <glyph glyph-name="exclam" unicode="!" horiz-adv-x="613" 
d="M448 1366h188l-196 -937h-127zM196 118q0 60 39.5 99.5t97.5 39.5q61 0 101 -39t40 -100q0 -58 -40 -96.5t-101 -38.5q-57 0 -97 39t-40 96z" />
    <glyph glyph-name="quotedbl" unicode="&#x22;" horiz-adv-x="991" 
d="M452 1366h186l-113 -496h-134zM835 1366h186l-113 -496h-135z" />
    <glyph glyph-name="numbersign" unicode="#" horiz-adv-x="1239" 
d="M1313 854h-214l-123 -324h201l-49 -139h-202q-20 -53 -70.5 -188.5t-76.5 -202.5h-142l147 391h-284q-11 -30 -66 -174.5t-82 -216.5h-141l147 391h-206l50 139h207l122 324h-194l49 138h196l143 374h141l-143 -374h285l137 374h141l-142 -374h218zM673 854l-123 -324
h285l122 324h-284z" />
    <glyph glyph-name="dollar" unicode="$" horiz-adv-x="1129" 
d="M437 -130l26 125q-152 34 -234.5 128.5t-82.5 211.5q0 22 1 33h150q-1 -5 -1 -12q0 -72 53 -135t143 -90l109 522q-24 11 -42 18q-59 26 -104.5 56t-87.5 71.5t-64.5 98t-22.5 122.5q0 171 130 272.5t322 101.5h25l25 121h130l-29 -140q127 -31 206 -114.5t79 -218.5v-19
h-138q0 16 -1 24q-8 69 -55.5 119.5t-119.5 75.5l-103 -480q3 -1 11.5 -4.5t13.5 -5.5q83 -35 135.5 -64.5t102 -73t72.5 -101.5t23 -134q0 -188 -136 -294.5t-355 -106.5q-21 0 -31 2l-22 -109h-128zM958 361q0 88 -56.5 142t-167.5 99l-15 6l-104 -498h18q145 0 235 69
t90 182zM438 1025q0 -72 43 -118t134 -89q3 -2 9 -4t9 -4l96 451h-12q-68 0 -129.5 -24.5t-105.5 -80t-44 -131.5z" />
    <glyph glyph-name="percent" unicode="%" horiz-adv-x="1486" 
d="M189 1063l4 28q19 126 98 205.5t192 79.5q115 0 180.5 -84t65.5 -212q0 -41 -7 -85l-4 -28q-18 -123 -97 -205.5t-196 -82.5t-180 83t-63 215q0 45 7 86zM1128 374l-1 -11q-6 -38 -6 -74q0 -81 32 -130t95 -49q66 0 109.5 51t54.5 140l2 18q5 40 5 67q0 82 -31.5 132.5
t-95.5 50.5q-66 0 -108.5 -53.5t-55.5 -141.5zM314 1062l-2 -11q-6 -37 -6 -74q0 -81 32 -130t96 -49q65 0 108.5 51t54.5 140l3 18q5 40 5 67q0 82 -32 132.5t-95 50.5q-66 0 -109 -53.5t-55 -141.5zM1004 375l4 28q19 126 97.5 205.5t191.5 79.5q115 0 180.5 -84
t65.5 -212q0 -41 -7 -85l-4 -28q-18 -123 -97 -205.5t-195 -82.5q-117 0 -180 83t-63 215q0 45 7 86zM379 0h-154l557 683l557 683h154l-557 -683z" />
    <glyph glyph-name="ampersand" unicode="&#x26;" horiz-adv-x="1391" 
d="M1227 755h157q-8 -88 -22 -158q-20 -110 -64 -199t-123 -180l153 -218h-190l-78 114q-183 -131 -408 -131q-113 0 -203 32t-144.5 86.5t-82.5 123t-28 144.5q0 65 21.5 121.5t54.5 97.5t85 79t99.5 63.5t110.5 53.5l27 12q-60 96 -89.5 164t-29.5 142q0 140 103.5 219
t253.5 79q151 0 241.5 -79t90.5 -205q0 -66 -26 -122t-74.5 -99t-100 -73.5t-121.5 -61.5l-33 -15l281 -399q90 120 121 269q15 79 18 140zM663 124q88 0 172.5 29t142.5 83l-310 447l-23 -10q-279 -122 -279 -298q0 -45 17 -87.5t50.5 -80t93 -60.5t136.5 -23zM632 1089
q0 -100 102 -237l23 9q252 99 252 249q0 72 -53.5 110.5t-129.5 38.5q-79 0 -136.5 -43.5t-57.5 -126.5z" />
    <glyph glyph-name="quotesingle" unicode="'" horiz-adv-x="617" 
d="M457 1366h186l-113 -496h-134z" />
    <glyph glyph-name="parenleft" unicode="(" horiz-adv-x="678" 
d="M653 1364h153q-45 -39 -91.5 -93.5t-104 -148.5t-101 -201.5t-74 -258t-31.5 -312.5q-2 -202 30.5 -339.5t100.5 -274.5h-153q-65 123 -107 279.5t-40 313.5q1 153 27.5 296t68 253t97.5 207t111.5 163t113.5 116z" />
    <glyph glyph-name="parenright" unicode=")" horiz-adv-x="677" 
d="M337 1364h153q66 -124 107.5 -277t40.5 -309q-1 -153 -27.5 -297t-68.5 -255t-98 -209t-111.5 -165t-113.5 -116h-153q45 40 91.5 95t104.5 150.5t101.5 203.5t73.5 259t31 313q2 198 -30.5 335t-100.5 272z" />
    <glyph glyph-name="asterisk" unicode="*" horiz-adv-x="984" 
d="M961 689l-247 215l-28 -326l-129 19l63 320l-296 -139l-49 123l309 105l-268 187l80 105l247 -216l28 326l129 -19l-63 -321l297 141l49 -123l-311 -105l269 -187z" />
    <glyph glyph-name="plus" unicode="+" horiz-adv-x="1150" 
d="M1136 476h-405l-80 -451h-145l80 451h-404l24 139h404l76 427h145l-75 -427h404z" />
    <glyph glyph-name="comma" unicode="," horiz-adv-x="532" 
d="M162 -410h-146l262 596h219z" />
    <glyph glyph-name="hyphen" unicode="-" horiz-adv-x="866" 
d="M836 487h-633l26 151h634z" />
    <glyph glyph-name="period" unicode="." horiz-adv-x="548" 
d="M157 119q0 61 39.5 101.5t97.5 40.5q60 0 100 -39.5t40 -100.5q0 -59 -40.5 -98.5t-100.5 -39.5q-57 0 -96.5 39t-39.5 97z" />
    <glyph glyph-name="slash" unicode="/" horiz-adv-x="715" 
d="M158 -288h-156l731 1704h156z" />
    <glyph glyph-name="zero" unicode="0" horiz-adv-x="1211" 
d="M435 770l-16 -85q-17 -86 -17 -187q0 -186 65.5 -279t187.5 -93q139 0 233.5 118.5t134.5 349.5l15 85q17 102 17 194q0 171 -67 269t-192 98q-267 0 -361 -470zM257 713l14 85q46 278 181.5 437t348.5 159q199 0 308 -136.5t109 -402.5q0 -109 -17 -204l-16 -85
q-25 -132 -69.5 -238.5t-109 -187.5t-154 -125t-197.5 -44q-201 0 -308.5 133t-107.5 394q0 111 18 215z" />
    <glyph glyph-name="one" unicode="1" horiz-adv-x="942" 
d="M630 0h-172l212 1189h-14l-325 -185l25 175l335 187h180z" />
    <glyph glyph-name="two" unicode="2" horiz-adv-x="1127" 
d="M474 1024h-164l1 3q5 155 123.5 261.5t306.5 106.5q182 0 289 -101t107 -256q0 -66 -19.5 -126t-62.5 -120t-84.5 -106t-110.5 -113l-419 -409l-3 -13h623l-26 -151h-868l21 122l566 559q50 49 79.5 81.5t66.5 81t55 94.5t18 92q0 85 -63.5 148.5t-177.5 63.5
q-113 0 -181.5 -63.5t-76.5 -153.5v-1z" />
    <glyph glyph-name="three" unicode="3" horiz-adv-x="1128" 
d="M529 640l26 157q75 -3 96 -3q86 0 156 23t117.5 77t47.5 133q0 102 -72 160t-181 58q-101 0 -160.5 -47t-73.5 -113h-165q10 132 119.5 221t284.5 89q63 0 122 -12.5t111.5 -40t91.5 -67t62 -97t23 -127.5q0 -77 -27.5 -141t-72 -104t-96 -63.5t-104.5 -27.5l-2 -13
q117 -27 182.5 -113.5t65.5 -210.5q0 -181 -132 -293.5t-341 -112.5q-101 0 -185.5 28.5t-139 76t-84.5 108t-30 124.5q0 23 4 43h161q-1 -7 -1 -17q0 -80 78 -145.5t204 -65.5q127 0 211 70t84 183q0 116 -84 185.5t-209 74.5z" />
    <glyph glyph-name="four" unicode="4" horiz-adv-x="1203" 
d="M918 1366h251l-160 -922h200l-23 -151h-202l-52 -293h-165l53 293h-645l21 155q97 141 230.5 313t229.5 289t262 316zM375 444h471l138 768h-13q-428 -527 -594 -755z" />
    <glyph glyph-name="five" unicode="5" horiz-adv-x="1158" 
d="M216 352h156q-2 -14 -2 -21q0 -35 17 -70.5t48 -67t82.5 -51.5t113.5 -20q141 0 236.5 95t95.5 245q0 131 -75 204.5t-192 73.5q-73 0 -142.5 -29t-109.5 -85h-160l175 740h716l-21 -152h-569l-104 -432h13q37 46 110.5 72t150.5 26q163 0 269 -114t106 -301
q0 -212 -137.5 -352.5t-364.5 -140.5q-84 0 -155 21t-118.5 55t-80.5 78t-48 88.5t-15 87.5q0 25 5 50z" />
    <glyph glyph-name="six" unicode="6" horiz-adv-x="1167" 
d="M671 -13q-206 0 -319.5 138.5t-113.5 381.5q0 282 81 489q159 388 507 388q85 0 157.5 -28t120 -73.5t74.5 -102.5t27 -116q0 -15 -1 -21h-151q-8 80 -74 133t-162 53q-153 0 -255.5 -131t-136.5 -370h14q36 64 108 109t181 45q106 0 194.5 -47t144.5 -143t56 -224
q0 -211 -127 -346t-325 -135zM683 740q-125 0 -200 -85.5t-75 -214.5q0 -133 74 -221t193 -88q128 0 202.5 91t74.5 238q0 128 -76 204t-193 76z" />
    <glyph glyph-name="seven" unicode="7" horiz-adv-x="1112" 
d="M312 1366h866l-16 -140l-765 -1226h-189l762 1201l1 13h-678z" />
    <glyph glyph-name="eight" unicode="8" horiz-adv-x="1191" 
d="M912 709q44 -14 83 -39.5t76.5 -64.5t59.5 -98.5t22 -131.5q0 -96 -39.5 -173.5t-107 -127t-153.5 -76t-182 -26.5q-88 0 -169.5 22.5t-149.5 67t-109 119.5t-41 171q0 89 35 160.5t90.5 114t113 66.5t113.5 30l3 14q-193 102 -193 293q0 108 58.5 192t156 128.5
t214.5 44.5q80 0 152 -22t129.5 -63.5t91 -108t33.5 -148.5q0 -73 -26 -134t-68.5 -100.5t-91.5 -64t-99 -31.5zM673 121q132 0 221 73t89 195q0 82 -44.5 142t-110.5 87.5t-143 27.5q-129 0 -217 -77.5t-88 -198.5q0 -119 85 -184t208 -65zM775 795q112 0 184.5 67
t72.5 173q0 103 -69 160t-170 57q-113 0 -185.5 -68.5t-72.5 -172.5q0 -100 68.5 -158t171.5 -58z" />
    <glyph glyph-name="nine" unicode="9" horiz-adv-x="1166" 
d="M745 1387q200 0 314 -128t114 -371q0 -182 -35 -365q-124 -535 -524 -535q-167 0 -281.5 95t-114.5 231q0 15 1 22h156q3 -85 73.5 -140t178.5 -55q297 0 369 511h-13q-29 -61 -106.5 -109.5t-183.5 -48.5q-104 0 -193.5 47.5t-147 144.5t-57.5 226q0 132 56.5 240
t160 171.5t233.5 63.5zM731 637q127 0 202 87.5t75 214.5q0 134 -73.5 218.5t-192.5 84.5q-120 0 -197 -92.5t-77 -231.5q0 -127 73 -204t190 -77z" />
    <glyph glyph-name="colon" unicode=":" horiz-adv-x="550" 
d="M278 801q0 61 40 101.5t97 40.5q61 0 101 -39.5t40 -100.5q0 -59 -40.5 -98.5t-101.5 -39.5q-56 0 -96 39t-40 97zM156 119q0 61 40 101.5t97 40.5q60 0 100.5 -40t40.5 -100q0 -59 -40.5 -98.5t-101.5 -39.5q-57 0 -96.5 39t-39.5 97z" />
    <glyph glyph-name="semicolon" unicode=";" horiz-adv-x="547" 
d="M277 801q0 61 39.5 101.5t96.5 40.5q61 0 101 -39.5t40 -100.5q0 -59 -40.5 -98.5t-101.5 -39.5q-56 0 -95.5 39t-39.5 97zM129 -410h-146l262 596h218z" />
    <glyph glyph-name="less" unicode="&#x3c;" horiz-adv-x="1119" 
d="M262 440l25 147l835 523l-33 -187l-669 -407l-2 -10l540 -371l-31 -176z" />
    <glyph glyph-name="equal" unicode="=" horiz-adv-x="1119" 
d="M1029 294h-833l23 139h828zM1087 663h-827l24 139h827z" />
    <glyph glyph-name="greater" unicode="&#x3e;" horiz-adv-x="1119" 
d="M1037 582l-24 -142l-834 -481l31 186l671 377l2 10l-536 399l32 162z" />
    <glyph glyph-name="question" unicode="?" horiz-adv-x="1025" 
d="M397 118q0 60 39.5 99.5t96.5 39.5q62 0 101.5 -39t39.5 -100q0 -58 -40 -96.5t-101 -38.5q-57 0 -96.5 39t-39.5 96zM300 1057q20 148 123.5 243t284.5 95q171 0 286 -86.5t115 -247.5q0 -56 -16 -105t-39 -83t-61 -68t-67.5 -53.5t-74.5 -46.5q-44 -26 -63 -37.5
t-45.5 -31.5t-38 -36.5t-22.5 -40.5t-16 -55l-13 -74h-161l13 76q20 114 65 172t173 133q40 23 59.5 35.5t52 38t48.5 47t29 54.5t13 69q0 92 -68.5 144t-168.5 52q-103 0 -165.5 -55t-78.5 -139h-164z" />
    <glyph glyph-name="at" unicode="@" horiz-adv-x="1718" 
d="M1128 269h-10q-24 -58 -82.5 -96.5t-146.5 -38.5q-111 0 -179.5 71t-68.5 189q0 53 8 96l16 86q26 140 104.5 218.5t194.5 78.5q85 0 136.5 -44t57.5 -104h8l22 129h136l-83 -473q0 -3 -1 -9.5t-1.5 -11.5t-0.5 -9q0 -47 32 -76t82 -29q80 0 144.5 72.5t89.5 222.5l6 36
q7 43 7 104q0 116 -45 211.5t-122.5 157.5t-181 96t-220.5 34q-244 0 -425.5 -152t-232.5 -419l-9 -47q-13 -72 -13 -151q0 -274 166 -419t446 -145q137 0 212 24l-22 -121q-78 -26 -211 -26q-159 0 -292 43.5t-231.5 127t-153 213.5t-54.5 294q0 78 16 169l11 59
q58 316 275.5 495t517.5 179q162 0 296.5 -49t222.5 -133t136 -195.5t48 -237.5q0 -77 -8 -122l-9 -50q-33 -183 -136.5 -282t-241.5 -99q-80 0 -140.5 39.5t-69.5 93.5zM806 555l-12 -64q-7 -35 -7 -75q0 -70 39 -115t113 -45q144 0 178 194l14 79q5 33 5 54
q0 68 -40.5 118t-111.5 50q-64 0 -110.5 -48t-67.5 -148z" />
    <glyph glyph-name="A" unicode="A" horiz-adv-x="1246" 
d="M47 0l726 1366h183l244 -1366h-175l-67 414h-515l-214 -414h-182zM838 1160h-12l-310 -606h419z" />
    <glyph glyph-name="B" unicode="B" horiz-adv-x="1276" 
d="M193 0l241 1366h449q87 0 156 -18t112 -47.5t71.5 -70t39.5 -82t11 -87.5q0 -127 -79.5 -219t-189.5 -119l-2 -11q111 -21 175.5 -97.5t64.5 -202.5q0 -190 -145.5 -301t-408.5 -111h-495zM578 1220l-79 -442h279q138 0 227 69t89 188q0 92 -63 138.5t-200 46.5h-253z
M473 632l-86 -485h316q160 0 263 71t103 196q0 101 -74.5 159.5t-232.5 58.5h-289z" />
    <glyph glyph-name="C" unicode="C" horiz-adv-x="1295" 
d="M462 861l-40 -198q-14 -68 -14 -161q0 -95 28 -168t77.5 -116t111.5 -64.5t135 -21.5q138 0 222 67t106 167h169q-1 -14 -8 -45q-10 -49 -34 -97t-66.5 -94t-98 -80.5t-134 -56t-169.5 -21.5q-82 0 -156 19t-139 60.5t-112.5 102t-75 149t-27.5 195.5q0 101 9 149l48 247
q48 243 198 372t361 129q111 0 204.5 -34.5t155 -91.5t95.5 -130.5t34 -152.5q0 -26 -3 -36h-164q0 20 -1 28q-5 45 -26 88.5t-58.5 82t-100 62.5t-139.5 24q-310 0 -388 -374z" />
    <glyph glyph-name="D" unicode="D" horiz-adv-x="1355" 
d="M434 1366h379q265 0 407 -139.5t142 -375.5q0 -86 -12 -154q0 -2 -13.5 -77.5t-14.5 -76.5q-99 -543 -751 -543h-378zM579 1214l-190 -1062h181q241 0 393.5 103.5t190.5 305.5l13 68q13 68 13 69q9 49 9 136q0 189 -107 284.5t-318 95.5h-185z" />
    <glyph glyph-name="E" unicode="E" horiz-adv-x="1133" 
d="M1028 152l-25 -152h-810l241 1366h805l-26 -152h-635l-79 -435h604l-24 -150h-606l-85 -477h640z" />
    <glyph glyph-name="F" unicode="F" horiz-adv-x="1112" 
d="M363 0h-170l242 1366h803l-25 -152h-634l-85 -468h584l-23 -151h-586z" />
    <glyph glyph-name="G" unicode="G" horiz-adv-x="1355" 
d="M295 895q47 242 201 371t373 129q118 0 215 -36.5t156.5 -96t91.5 -131t32 -145.5q0 -26 -2 -32h-165q0 18 -1 26q-3 42 -23 84.5t-57.5 82t-103 64t-149.5 24.5q-161 0 -262 -97.5t-138 -277.5l-40 -198q-15 -84 -15 -160q0 -187 100.5 -280.5t256.5 -93.5q124 0 223 62
t120 176l33 187h-352l26 148h521l-61 -347q-33 -179 -179 -280.5t-343 -101.5q-104 0 -194 30t-164 90.5t-116.5 164.5t-42.5 240q0 94 11 151z" />
    <glyph glyph-name="H" unicode="H" horiz-adv-x="1416" 
d="M363 0h-170l241 1366h170l-103 -582h691l103 582h170l-241 -1366h-164l105 632h-690z" />
    <glyph glyph-name="I" unicode="I" horiz-adv-x="553" 
d="M362 0h-170l241 1366h170z" />
    <glyph glyph-name="J" unicode="J" horiz-adv-x="1004" 
d="M1056 1366l-178 -1009q-19 -105 -57.5 -181.5t-92.5 -119.5t-114.5 -63t-131.5 -20q-163 0 -269 90t-106 231q0 34 7 59h158q-2 -30 -2 -34q0 -82 56.5 -135.5t149.5 -53.5q192 0 234 240l176 996h170z" />
    <glyph glyph-name="K" unicode="K" horiz-adv-x="1271" 
d="M604 1366l-123 -670h13l729 670h216l-650 -607l420 -759h-198l-354 658l-212 -184l-83 -474h-170l242 1366h170z" />
    <glyph glyph-name="L" unicode="L" horiz-adv-x="1048" 
d="M1018 153l-27 -153h-798l241 1366h170l-216 -1213h630z" />
    <glyph glyph-name="M" unicode="M" horiz-adv-x="1633" 
d="M355 0h-162l241 1366h161l280 -980h8l618 980h181l-241 -1366h-162l179 1018h-10l-550 -860h-108l-247 860h-11z" />
    <glyph glyph-name="N" unicode="N" horiz-adv-x="1426" 
d="M1233 0h-165l-505 1078h-10l-190 -1078h-169l241 1366h166l500 -1080h11l193 1080h169z" />
    <glyph glyph-name="O" unicode="O" horiz-adv-x="1384" 
d="M458 860l-36 -194q-15 -82 -15 -159q0 -173 100 -274t275 -101q323 0 394 392l37 209q9 49 9 133q0 167 -100.5 268t-271.5 101q-151 0 -253.5 -91t-138.5 -284zM249 681l38 210q43 239 197 371.5t371 132.5q244 0 392.5 -143t148.5 -393q0 -90 -15 -168l-39 -212
q-45 -246 -192 -377t-394 -131q-228 0 -375 136.5t-147 374.5q0 115 15 199z" />
    <glyph glyph-name="P" unicode="P" horiz-adv-x="1189" 
d="M362 0h-170l241 1366h440q190 0 296 -100.5t106 -256.5q0 -39 -6 -79q-51 -410 -553 -410h-262zM843 1218h-266l-98 -549h257q94 0 163.5 21t110.5 59t62 82t27 98q5 33 5 66q0 99 -63 161t-198 62z" />
    <glyph glyph-name="Q" unicode="Q" horiz-adv-x="1404" 
d="M249 682l38 208q43 239 197 372t371 133q244 0 392.5 -143t148.5 -394q0 -84 -16 -168l-38 -210q-54 -290 -244 -415l127 -219h-182l-91 151q-90 -26 -195 -26q-149 0 -266 58.5t-187 176t-70 277.5q0 114 15 199zM907 389l107 -183q122 96 161 312l38 215q8 44 8 134
q0 168 -100.5 268t-270.5 100q-152 0 -254 -91t-138 -283l-36 -196q-16 -87 -16 -164q0 -174 99.5 -274.5t274.5 -100.5q48 0 90 9l-152 254h189z" />
    <glyph glyph-name="R" unicode="R" horiz-adv-x="1261" 
d="M362 0h-170l242 1366h453q191 0 293 -95.5t102 -251.5q0 -45 -6 -85q-19 -139 -106 -231t-212 -124l189 -579h-184l-176 553q-27 -2 -68 -2h-260zM847 1218h-269l-93 -520h260q317 0 352 248q5 33 5 67q0 94 -61 149.5t-194 55.5z" />
    <glyph glyph-name="S" unicode="S" horiz-adv-x="1208" 
d="M183 382h167q-1 -8 -1 -25q0 -92 88.5 -162.5t233.5 -70.5q138 0 221.5 66.5t83.5 174.5q0 49 -18.5 86.5t-56.5 65t-75.5 45.5t-95.5 39l-58 22q-75 27 -132.5 57.5t-114 77t-87.5 111.5t-31 144q0 118 63 206t167.5 132t233.5 44q116 0 214 -40.5t161 -122.5t63 -190
q0 -2 -1 -18l-1 -17h-161v2q0 2 0.5 5.5t0.5 8.5q0 99 -80.5 159t-197.5 60q-71 0 -134 -22t-107 -73.5t-44 -123.5q0 -44 19 -80.5t56.5 -65.5t79.5 -50t102 -45l77 -30q52 -21 86.5 -36.5t77.5 -39.5t70.5 -50.5t52.5 -61.5t37 -80.5t12 -100.5q0 -192 -136 -301.5
t-355 -109.5q-213 0 -348 108.5t-135 255.5q0 25 3 46z" />
    <glyph glyph-name="T" unicode="T" horiz-adv-x="1123" 
d="M647 0h-170l216 1213h-423l26 153h1013l-24 -153h-422z" />
    <glyph glyph-name="U" unicode="U" horiz-adv-x="1380" 
d="M590 1366l-147 -829q-8 -40 -8 -99q0 -137 85 -221t230 -84q136 0 230 78t122 231l163 924h174l-166 -940q-41 -228 -180 -341.5t-345 -113.5q-217 0 -353 118t-136 323q0 63 14 140l143 814h174z" />
    <glyph glyph-name="V" unicode="V" horiz-adv-x="1235" 
d="M710 0h-183l-246 1366h184l180 -1157h10l592 1157h189z" />
    <glyph glyph-name="W" unicode="W" horiz-adv-x="1771" 
d="M573 0h-176l-83 1366h182l37 -1110h11l496 1110h155l115 -1110h11l437 1110h182l-566 -1366h-171l-126 1080h-11z" />
    <glyph glyph-name="X" unicode="X" horiz-adv-x="1219" 
d="M743 816l460 550h209l-585 -686l346 -680h-190l-273 557l-10 1l-444 -558h-208l567 690l-328 676h191l256 -549z" />
    <glyph glyph-name="Y" unicode="Y" horiz-adv-x="1131" 
d="M753 584l-103 -584h-170l103 582l-332 784h179l253 -629h11l459 629h200z" />
    <glyph glyph-name="Z" unicode="Z" horiz-adv-x="1206" 
d="M153 0l22 132l908 1070l2 14h-721l25 150h929l-20 -138l-906 -1065l-3 -13h751l-27 -150h-960z" />
    <glyph glyph-name="bracketleft" unicode="[" horiz-adv-x="676" 
d="M392 1366h426l-22 -128h-268l-238 -1338h283l-23 -129h-440z" />
    <glyph glyph-name="backslash" unicode="\" horiz-adv-x="651" 
d="M664 -288h-157l-237 1704h156z" />
    <glyph glyph-name="bracketright" unicode="]" horiz-adv-x="676" 
d="M341 1366h426l-282 -1595h-439l22 129h282l238 1338h-270z" />
    <glyph glyph-name="asciicircum" unicode="^" horiz-adv-x="796" 
d="M866 799h-144l-109 428h-9l-260 -428h-152l352 567h166z" />
    <glyph glyph-name="underscore" unicode="_" horiz-adv-x="899" 
d="M915 -224h-919l27 134h920z" />
    <glyph glyph-name="grave" unicode="`" horiz-adv-x="1000" 
d="M849 1207h-135l-240 354h187z" />
    <glyph glyph-name="a" unicode="a" horiz-adv-x="1105" 
d="M486 -17q-135 0 -226 79.5t-91 213.5q0 28 2 46q14 135 121 213.5t304 78.5h283l12 67q4 22 4 48q0 37 -11.5 70t-36.5 62.5t-70.5 47t-107.5 17.5q-93 0 -150 -36.5t-76 -92.5h-163q23 122 130 196.5t273 74.5q179 0 275.5 -91t96.5 -238q0 -58 -20 -164l-101 -575h-162
l25 142h-11q-33 -64 -111.5 -111.5t-188.5 -47.5zM338 297q0 -73 51 -120t141 -47q110 0 195 65t104 165l25 126h-269q-122 0 -184.5 -54t-62.5 -135z" />
    <glyph glyph-name="b" unicode="b" horiz-adv-x="1198" 
d="M707 -17q-121 0 -208 70.5t-107 156.5h-12l-37 -210h-166l253 1419h167l-97 -535h13q16 33 38.5 62.5t58 58t88 45.5t116.5 17q166 0 267 -105.5t101 -285.5q0 -76 -8 -123l-35 -194q-29 -165 -141 -270.5t-291 -105.5zM432 429q0 -72 24 -129.5t63 -92.5t85 -53t93 -18
q116 0 192.5 79t98.5 197l28 153q4 25 4 88q0 128 -69 200t-190 72q-119 0 -198.5 -82t-101.5 -217l-24 -149q-5 -24 -5 -48z" />
    <glyph glyph-name="c" unicode="c" horiz-adv-x="1061" 
d="M196 389q0 67 14 151l26 146q32 185 151 283.5t298 98.5q182 0 289.5 -96.5t107.5 -235.5v-12h-157v10q0 71 -65 131t-175 60q-111 0 -189 -73t-102 -207l-21 -117q-10 -61 -10 -106q0 -138 66 -214.5t192 -76.5q92 0 152 38.5t75 96.5h169q-22 -129 -133 -206t-271 -77
q-189 0 -303 110t-114 296z" />
    <glyph glyph-name="d" unicode="d" horiz-adv-x="1196" 
d="M682 1067q127 0 211.5 -70t97.5 -148h13l98 570h168l-250 -1419h-163l31 177h-14q-23 -71 -101 -131.5t-199 -60.5q-166 0 -271.5 109.5t-105.5 289.5q0 72 10 122l38 193q32 164 144.5 266t292.5 102zM961 632q0 140 -81 215.5t-187 75.5q-118 0 -192 -76.5t-99 -201.5
l-31 -150q-6 -32 -6 -87q0 -128 71 -201t192 -73q120 0 198 82t103 218l27 149q5 25 5 49z" />
    <glyph glyph-name="e" unicode="e" horiz-adv-x="1094" 
d="M599 -17q-179 0 -291 104t-112 294q0 69 17 161l28 149q31 177 155 277t305 100q67 0 124.5 -14.5t98 -40t73 -60t50.5 -74.5t30 -83t11 -86.5t-6 -84.5q0 -16 -25 -141h-691q-10 -38 -10 -91q0 -52 13.5 -97t42.5 -83.5t80 -60.5t119 -22q93 0 156 38.5t81 94.5h166
q-20 -110 -133.5 -195t-281.5 -85zM920 614l2 9l1 9q24 125 -37 209.5t-191 84.5q-103 0 -183 -61t-105 -181l-15 -70h528z" />
    <glyph glyph-name="f" unicode="f" horiz-adv-x="741" 
d="M231 0l159 898h-170l24 138h171l11 63q27 166 116.5 247t250.5 81q43 0 116 -11l-23 -135q-31 7 -92 7q-92 0 -138 -43t-62 -134l-13 -75h241l-25 -138h-240l-158 -898h-168z" />
    <glyph glyph-name="g" unicode="g" horiz-adv-x="1191" 
d="M671 1067q125 0 208 -61.5t108 -156.5h13l36 201h165l-184 -1044q-36 -203 -154 -302.5t-325 -99.5q-179 0 -290.5 89.5t-111.5 210.5v12h163q0 -9 1 -10q0 -60 70.5 -109.5t176.5 -49.5q140 0 214 73t100 216l28 154h-13q-31 -76 -107.5 -124t-189.5 -48
q-98 0 -183.5 46.5t-140.5 139.5t-55 214q0 74 14 144l23 119q19 98 62 173.5t102 121t127 68.5t143 23zM953 639q0 132 -75 208.5t-194 76.5q-114 0 -189.5 -78t-101.5 -214l-15 -82q-13 -73 -13 -110q0 -138 72 -211t197 -73q109 0 189.5 80t103.5 212l16 95q10 58 10 96z
" />
    <glyph glyph-name="h" unicode="h" horiz-adv-x="1197" 
d="M176 0l250 1419h167l-99 -542h12q41 90 120.5 140t193.5 50q159 0 242.5 -95t83.5 -234q0 -58 -20 -172l-100 -566h-168l102 576q14 81 14 130q0 96 -50 157.5t-157 61.5q-129 0 -211 -90.5t-106 -227.5l-107 -607h-167z" />
    <glyph glyph-name="i" unicode="i" horiz-adv-x="551" 
d="M192 0l186 1050h167l-185 -1050h-168zM378 1371q0 53 35 87.5t87 34.5q53 0 88 -34.5t35 -86.5t-35.5 -86.5t-88.5 -34.5q-51 0 -86 34.5t-35 85.5z" />
    <glyph glyph-name="j" unicode="j" horiz-adv-x="551" 
d="M546 1050l-188 -1063q-31 -173 -118.5 -251.5t-250.5 -78.5q-43 0 -100 13l30 139q38 -10 82 -10q75 0 124 46.5t63 128.5l190 1076h168zM379 1371q0 53 35 87.5t86 34.5q54 0 89 -34t35 -87q0 -52 -35.5 -86.5t-89.5 -34.5q-51 0 -85.5 34.5t-34.5 85.5z" />
    <glyph glyph-name="k" unicode="k" horiz-adv-x="1077" 
d="M419 436l-77 -436h-167l251 1419h166l-138 -784h11l504 415h229l-509 -413l332 -637h-186l-278 547z" />
    <glyph glyph-name="l" unicode="l" horiz-adv-x="551" 
d="M192 0l251 1419h168l-251 -1419h-168z" />
    <glyph glyph-name="m" unicode="m" horiz-adv-x="1769" 
d="M176 0l185 1050h163l-31 -174h12q34 83 108 137t185 54q113 0 188.5 -53t103.5 -142h11q16 35 40 66t61 62t92 49t120 18q153 0 229.5 -90t76.5 -228q0 -58 -20 -176l-101 -573h-168l103 585q12 70 12 122q0 218 -179 218q-109 0 -179.5 -84t-95.5 -226l-110 -615h-167
l104 585q11 64 11 124q0 216 -186 216q-122 0 -195 -86t-97 -224l-109 -615h-167z" />
    <glyph glyph-name="n" unicode="n" horiz-adv-x="1192" 
d="M176 0l185 1050h164l-32 -173h13q43 91 122.5 140.5t190.5 49.5q83 0 146.5 -27t101 -74t56 -104t18.5 -123q0 -61 -20 -173l-100 -566h-168l102 576q14 84 14 129q0 97 -48.5 158.5t-155.5 61.5q-129 0 -210 -90t-105 -228l-107 -607h-167z" />
    <glyph glyph-name="o" unicode="o" horiz-adv-x="1132" 
d="M393 643l-22 -121q-10 -66 -10 -111q0 -127 73 -204.5t199 -77.5q115 0 188.5 76t97.5 216l23 131q5 31 5 94q0 122 -73 199t-196 77q-110 0 -185 -70t-100 -209zM208 537l24 137q32 183 154.5 288.5t295.5 105.5q195 0 314 -114.5t119 -309.5q0 -58 -12 -126l-25 -137
q-36 -189 -152 -293.5t-312 -104.5q-181 0 -299.5 109t-118.5 296q0 85 12 149z" />
    <glyph glyph-name="p" unicode="p" horiz-adv-x="1196" 
d="M698 -17q-64 0 -120.5 22.5t-94 57.5t-61 73t-30.5 74h-13l-99 -578h-168l249 1418h165l-31 -166h14q13 32 34.5 61t56 58t88.5 46.5t119 17.5q167 0 270 -105.5t103 -285.5q0 -82 -8 -123l-36 -194q-26 -164 -141 -270t-297 -106zM425 429q0 -72 24 -129.5t62.5 -92.5
t84 -53t92.5 -18q118 0 196.5 79t100.5 197l28 153q5 31 5 88q0 127 -72 199.5t-194 72.5q-119 0 -198 -82t-101 -217l-24 -149q-4 -24 -4 -48z" />
    <glyph glyph-name="q" unicode="q" horiz-adv-x="1193" 
d="M684 1067q125 0 209 -69t100 -149h14l35 201h163l-253 -1417h-168l100 541h-14q-14 -31 -35.5 -60t-56 -59.5t-87.5 -49t-116 -18.5q-165 0 -271.5 109t-106.5 288q0 77 9 122l40 193q32 161 146 264.5t292 103.5zM959 634q0 72 -23.5 129.5t-62.5 91t-84.5 51
t-93.5 17.5q-116 0 -192 -80.5t-100 -197.5l-32 -150q-5 -23 -5 -87q0 -127 71.5 -199.5t192.5 -72.5q120 0 199 81.5t101 216.5l25 148q4 23 4 52z" />
    <glyph glyph-name="r" unicode="r" horiz-adv-x="783" 
d="M176 0l185 1050h159l-32 -175h12q32 80 111.5 136t190.5 56q39 0 83 -7l-35 -160q-29 11 -85 11q-133 0 -212.5 -87.5t-103.5 -226.5l-106 -597h-167z" />
    <glyph glyph-name="s" unicode="s" horiz-adv-x="1029" 
d="M277 764q0 140 98.5 223t276.5 83q90 0 163.5 -26t119 -68t70 -92.5t24.5 -101.5v-19h-156v8q0 60 -60 112.5t-164 52.5q-96 0 -151.5 -43.5t-55.5 -108.5q0 -30 13.5 -55t29.5 -40t53 -32.5t57.5 -25t69.5 -23.5q45 -15 76.5 -27.5t68.5 -31t61.5 -41t45.5 -51.5
t31.5 -67t10.5 -84q0 -154 -107.5 -239.5t-293.5 -85.5q-179 0 -294 90t-115 216v9h159q0 -6 2 -18q13 -63 82.5 -109t175.5 -46q108 0 167 46t59 123q0 32 -12.5 57.5t-29 42t-50 32.5t-57 24t-68.5 22q-31 10 -52 17t-55.5 22t-58 29.5t-51 38t-44 49.5t-28 61.5
t-11.5 76.5z" />
    <glyph glyph-name="t" unicode="t" horiz-adv-x="761" 
d="M410 1036l49 277h165l-47 -277h229l-24 -138h-230l-86 -493q-23 -128 -23 -161q0 -51 28.5 -78.5t97.5 -27.5q78 0 128 12l-26 -138q-56 -14 -144 -14q-257 0 -257 201q0 53 16 139l99 560h-159l25 138h159z" />
    <glyph glyph-name="u" unicode="u" horiz-adv-x="1178" 
d="M1186 1050l-184 -1050h-158l32 180h-14q-39 -88 -119.5 -142.5t-190.5 -54.5q-158 0 -245 93t-87 234q0 71 21 180l103 560h167l-103 -570q-15 -84 -15 -138q0 -97 54 -153t162 -56q129 0 207.5 89t102.5 228l105 600h162z" />
    <glyph glyph-name="v" unicode="v" horiz-adv-x="1032" 
d="M406 0l-176 1050h172l119 -866h10l411 866h171l-524 -1050h-183z" />
    <glyph glyph-name="w" unicode="w" horiz-adv-x="1459" 
d="M1569 1050l-467 -1050h-177l-74 815h-7l-330 -815h-186l-120 1050h171l69 -860h9l350 860h151l78 -860h9l352 860h172z" />
    <glyph glyph-name="x" unicode="x" horiz-adv-x="1003" 
d="M772 0l-201 403h-6l-320 -403h-191l433 529l-267 521h182l198 -408h9l322 408h193l-440 -528l272 -522h-184z" />
    <glyph glyph-name="y" unicode="y" horiz-adv-x="1041" 
d="M1148 1050l-539 -1043q0 -1 -21 -41l-21 -40q-33 -64 -58.5 -104t-59 -76t-72 -55t-91 -30t-121.5 -11q-46 0 -87 12l32 137q35 -9 77 -9q86 0 134 42.5t88 130.5l24 53l-200 1034h178l136 -853h12l409 853h180z" />
    <glyph glyph-name="z" unicode="z" horiz-adv-x="967" 
d="M120 0l27 158l681 743l2 13h-580l26 136h775l-27 -155l-679 -740l-3 -13h581l-25 -142h-778z" />
    <glyph glyph-name="braceleft" unicode="{" horiz-adv-x="752" 
d="M366 597l-4 -24q73 -8 110 -66.5t20 -157.5q-64 -355 -64 -382q-1 -85 36.5 -117.5t154.5 -32.5h42l-23 -133h-67q-154 0 -228 59t-72 172q0 58 57 378q19 108 -11 155t-132 47l31 180q101 0 148 46.5t66 155.5l44 238q14 80 43.5 139t66.5 94.5t89 56.5t103 28.5
t117 7.5h56l-23 -133h-42q-224 0 -260 -212l-50 -277q-19 -110 -69.5 -163.5t-138.5 -58.5z" />
    <glyph glyph-name="bar" unicode="|" horiz-adv-x="669" 
d="M370 -289h-157l301 1705h156z" />
    <glyph glyph-name="braceright" unicode="}" horiz-adv-x="751" 
d="M591 573l4 24q-73 8 -109.5 66t-19.5 156q57 312 57 339q1 85 -37 117.5t-156 32.5h-41l23 133h66q155 0 229 -59t73 -171q0 -75 -15 -171.5t-29.5 -165.5t-14.5 -76q-1 -64 34.5 -93.5t116.5 -29.5l-31 -180q-101 0 -148 -46.5t-66 -155.5l-50 -282q-18 -100 -57 -166.5
t-97.5 -100.5t-120.5 -47t-145 -13h-56l23 133h42q65 0 113.5 17t77.5 48t45.5 66.5t24.5 81.5l56 319q19 111 69.5 165t138.5 59z" />
    <glyph glyph-name="asciitilde" unicode="~" horiz-adv-x="1167" 
d="M908 487q-78 0 -135 34t-113 94q-5 5 -24.5 26t-25.5 27t-22.5 22t-26 22t-24.5 14.5t-29 11.5t-29 3q-55 0 -97 -43t-54 -114h-144q5 118 88 211.5t206 93.5q43 0 80.5 -11.5t72 -37.5t54 -44.5t52.5 -53.5q34 -36 53.5 -54.5t52 -36t65.5 -17.5q58 0 97 42t51 105h145
q-12 -124 -92.5 -209t-200.5 -85z" />
    <glyph glyph-name="nonbreakingspace" unicode="&#xa0;" horiz-adv-x="468" 
 />
    <glyph glyph-name="exclamdown" unicode="&#xa1;" horiz-adv-x="612" 
d="M601 933q0 -60 -39.5 -100t-96.5 -40q-61 0 -101 39.5t-40 99.5q0 58 40 97t101 39q57 0 96.5 -39t39.5 -96zM350 -315h-188l196 937h127z" />
    <glyph glyph-name="cent" unicode="&#xa2;" horiz-adv-x="1119" 
d="M239 540q0 69 14 151l26 146q31 181 146.5 279t288.5 102l44 243h135l-46 -255q130 -30 204 -118.5t74 -199.5v-13h-157v11q0 71 -65 131t-175 60q-111 0 -189 -73.5t-102 -207.5l-21 -117q-10 -60 -10 -106q0 -138 66 -214t192 -76q92 0 152 38.5t75 96.5h169
q-22 -128 -132 -205t-268 -78h-1l-40 -223h-136l42 238q-134 35 -210 137.5t-76 252.5z" />
    <glyph glyph-name="sterling" unicode="&#xa3;" horiz-adv-x="1119" 
d="M1242 1043h-155q10 84 -47.5 144.5t-158.5 60.5q-90 0 -142 -49t-66 -127l-55 -307h303l-23 -132h-298q0 -1 -21 -117.5t-22 -117.5q-34 -190 -155 -243v-12h723l-25 -143h-1000l26 152q84 1 121 15q110 42 146 238l11 57q10 56 20.5 113t10.5 58h-197l24 132h191l63 350
q25 137 123 208t238 71q174 0 275.5 -98.5t89.5 -252.5z" />
    <glyph glyph-name="currency" unicode="&#xa4;" horiz-adv-x="1128" 
d="M424 654q0 -104 71 -177t172 -73t172 73t71 177t-71 178t-172 74t-172 -74t-71 -178zM935 130l-126 183q-64 -29 -150 -29q-139 0 -241 99l-219 -153l-77 112l218 153q-34 76 -34 168q0 138 98 244l-138 201l110 82l136 -200q74 37 167 37q136 0 239 -103l234 165
l78 -114l-235 -164q35 -80 35 -165q0 -144 -111 -255l124 -181z" />
    <glyph glyph-name="yen" unicode="&#xa5;" horiz-adv-x="1119" 
d="M272 410h280l25 148h-279l22 122h222l-292 686h180l253 -629h10l459 629h200l-528 -686h239l-22 -122h-294l-25 -148h293l-21 -122h-294l-51 -288h-170l51 288h-279z" />
    <glyph glyph-name="brokenbar" unicode="&#xa6;" horiz-adv-x="651" 
d="M541 783h-140l115 654h140zM348 -308h-139l121 684h139z" />
    <glyph glyph-name="section" unicode="&#xa7;" horiz-adv-x="984" 
d="M120 83h158v-5q1 -61 35 -103.5t86.5 -61.5t118.5 -19q100 0 158 47t58 121q0 65 -49 104.5t-163 87.5q-17 6 -17 7q-140 57 -212.5 129t-72.5 185q0 97 62 166.5t153 98.5l1 8q-46 33 -82.5 91t-36.5 137q0 147 108.5 232t271.5 85q65 0 128.5 -19.5t115.5 -56t84 -95
t32 -129.5q0 -14 -4 -50h-153q3 17 3 28q0 80 -65.5 129t-149.5 49t-145.5 -42t-61.5 -117q0 -72 51 -117t165 -92q55 -23 93.5 -42t80.5 -47.5t67.5 -58.5t42 -72.5t16.5 -91.5q0 -95 -54 -168t-144 -112v-8q101 -87 101 -202q0 -154 -114.5 -242.5t-280.5 -88.5
q-52 0 -105.5 11.5t-104.5 36t-90.5 58.5t-63.5 84.5t-24 109.5q0 5 3 35zM672 357q64 16 110.5 69t46.5 122q0 66 -50 113t-147 85q-53 20 -76 26q-66 -9 -119 -63.5t-53 -120.5q0 -63 50.5 -109.5t144.5 -88.5q15 -7 93 -33z" />
    <glyph glyph-name="dieresis" unicode="&#xa8;" horiz-adv-x="1000" 
d="M434 1292q0 46 31 75.5t77 29.5q47 0 77.5 -29.5t30.5 -75.5q0 -44 -30.5 -73t-77.5 -29q-46 0 -77 29t-31 73zM795 1292q0 46 30 75.5t74 29.5q49 0 80 -29.5t31 -75.5q0 -44 -31 -73t-80 -29q-44 0 -74 29t-30 73z" />
    <glyph glyph-name="copyright" unicode="&#xa9;" horiz-adv-x="1733" 
d="M968 -65q-208 0 -369.5 91.5t-248.5 249.5t-87 355q0 41 5 91l12 103q29 266 230.5 437t492.5 171q156 0 289.5 -53.5t226 -145t144.5 -216.5t52 -266q0 -49 -4 -84l-11 -102q-31 -280 -234 -455.5t-498 -175.5zM385 622q0 -255 161 -412t419 -157q163 0 296.5 64
t218 183t101.5 275l11 107q3 33 3 57q0 165 -78.5 297t-214.5 204.5t-304 72.5q-242 0 -408.5 -143.5t-189.5 -358.5l-11 -106q-4 -35 -4 -83zM656 581q0 44 10 109l19 105q23 130 106 202.5t215 72.5q133 0 210 -69.5t77 -167.5v-15h-118v9q0 50 -45.5 91.5t-120.5 41.5
q-81 0 -136 -52.5t-71 -145.5l-13 -81q-8 -43 -8 -71q0 -100 46 -153.5t138 -53.5q63 0 105.5 24.5t52.5 65.5h124q-16 -92 -96 -148t-194 -56q-137 0 -219 79.5t-82 212.5z" />
    <glyph glyph-name="ordfeminine" unicode="&#xaa;" horiz-adv-x="713" 
d="M451 716q-76 0 -125.5 44t-49.5 124q0 91 66 136.5t182 45.5h138l7 39q0 1 0.5 5.5t0.5 9.5q0 45 -28.5 71t-79.5 26q-38 0 -69 -15.5t-37 -45.5h-119q12 70 73.5 116t162.5 46q104 0 160 -51.5t56 -145.5q0 -18 -3 -36l-63 -360h-118l14 77h-7q-18 -35 -60 -60.5
t-101 -25.5zM399 894q0 -37 25.5 -59t69.5 -22q53 0 92 31t48 80l12 62h-128q-58 0 -88.5 -26.5t-30.5 -65.5z" />
    <glyph glyph-name="guillemotleft" unicode="&#xab;" horiz-adv-x="1300" 
d="M257 565l415 404h191l-420 -412l-1 -6l257 -396h-178l-266 402zM721 565l415 404h191l-420 -412l-1 -6l257 -396h-178l-266 402z" />
    <glyph glyph-name="logicalnot" unicode="&#xac;" horiz-adv-x="1128" 
d="M1068 99h-146l67 376h-808l24 139h954z" />
    <glyph glyph-name="registered" unicode="&#xae;" horiz-adv-x="1216" 
d="M278 889v10l1 7q4 223 137.5 358.5t355.5 135.5q212 0 348.5 -129.5t136.5 -342.5v-15v-14q-9 -223 -141 -354t-354 -131q-216 0 -350 128t-134 347zM372 887q0 -176 107.5 -278t281.5 -102q182 0 287.5 105t113.5 288l1 14v14q0 172 -109.5 275.5t-280.5 103.5
q-182 0 -290.5 -109.5t-109.5 -292.5v-9q-1 -1 -1 -9zM643 660h-90l93 515h182q75 0 115.5 -38t40.5 -107q0 -11 -1 -20q-5 -51 -37 -88t-82 -53l71 -209h-95l-60 197h-29h-74zM808 1100h-87l-32 -171h84q108 0 120 82q2 14 2 22q0 28 -22.5 47.5t-64.5 19.5z" />
    <glyph glyph-name="macron" unicode="&#xaf;" horiz-adv-x="1000" 
d="M1072 1311l-19 -105h-680l19 105h680z" />
    <glyph glyph-name="degree" unicode="&#xb0;" horiz-adv-x="729" 
d="M554 817q-118 0 -200.5 83t-82.5 201q0 117 82.5 199.5t200.5 82.5q116 0 199 -82.5t83 -199.5q0 -118 -83 -201t-199 -83zM554 944q66 0 112 46.5t46 110.5q0 65 -46 110.5t-112 45.5q-64 0 -110.5 -45.5t-46.5 -110.5q0 -64 47 -110.5t110 -46.5z" />
    <glyph glyph-name="plusminus" unicode="&#xb1;" horiz-adv-x="1119" 
d="M738 657l-52 -289h-135l51 289h-406l24 138h406l48 275h136l-48 -275h408l-24 -138h-408zM1061 124h-951l24 136h951z" />
    <glyph glyph-name="twosuperior" unicode="&#xb2;" horiz-adv-x="690" 
d="M480 1167h-122q7 95 72.5 152t162.5 57q92 0 152 -51.5t60 -135.5q0 -64 -34.5 -114.5t-104.5 -113.5l-90 -81q-91 -80 -92 -81h287l-20 -110h-462l17 94l274 252q30 29 44.5 44t32.5 45t18 57q0 36 -25 59.5t-67 23.5q-44 0 -72 -28t-31 -69z" />
    <glyph glyph-name="threesuperior" unicode="&#xb3;" horiz-adv-x="697" 
d="M434 989l3 106q43 -1 56 -1q56 0 96.5 24t40.5 69q0 37 -27 59t-68 22q-39 0 -62.5 -20t-30.5 -49h-124q8 79 68.5 128t150.5 49q89 0 154 -46t65 -131q0 -63 -36.5 -106.5t-87.5 -56.5l-1 -1q47 -18 73 -58.5t26 -96.5q0 -93 -71 -149.5t-181 -51.5q-101 4 -159 55.5
t-64 129.5q-1 11 -1 26h113q4 -45 36 -72t81 -27t82 26t33 74q0 84 -111 96q-14 2 -54 2z" />
    <glyph glyph-name="acute" unicode="&#xb4;" horiz-adv-x="1000" 
d="M600 1207h-128l293 354h183z" />
    <glyph glyph-name="paragraph" unicode="&#xb6;" horiz-adv-x="1272" 
d="M750 -210h-164l126 709l-20 5q-44 10 -89.5 29.5t-95 55t-87.5 81t-62.5 113.5t-24.5 147q0 2 0.5 4t0.5 3q1 136 72 234.5t184.5 146t254.5 47.5h183zM909 -210l278 1575h164l-278 -1575h-164z" />
    <glyph glyph-name="periodcentered" unicode="&#xb7;" horiz-adv-x="547" 
d="M265 740q0 61 39.5 101.5t97.5 40.5q60 0 100 -39.5t40 -100.5q0 -59 -40.5 -98.5t-100.5 -39.5q-57 0 -96.5 39t-39.5 97z" />
    <glyph glyph-name="cedilla" unicode="&#xb8;" horiz-adv-x="1000" 
d="M328 -147l55 164h124l-49 -152q85 -2 137.5 -42.5t52.5 -114.5v-2q-1 -89 -67.5 -139.5t-168.5 -50.5q-81 0 -159 28l17 102q60 -19 130 -19q108 0 108 73q0 74 -139 74h-50z" />
    <glyph glyph-name="onesuperior" unicode="&#xb9;" horiz-adv-x="653" 
d="M541 689h-123l95 545h-5l-166 -89l21 125l174 96h123z" />
    <glyph glyph-name="ordmasculine" unicode="&#xba;" horiz-adv-x="753" 
d="M566 1307q125 0 196.5 -85t49.5 -220l-3 -19q-3 -19 -3 -20l-7 -38q-18 -106 -86.5 -163t-170.5 -57q-126 0 -197.5 82.5t-48.5 223.5l3 19q3 20 3 21l7 38q17 101 86.5 159.5t170.5 58.5zM570 1207q-58 0 -97 -39t-51 -104l-6 -34l-3 -17l-3 -17q-15 -82 19.5 -136
t107.5 -54q62 0 99 39t49 104l6 34q0 1 3 17t3 17q14 81 -22 135.5t-105 54.5z" />
    <glyph glyph-name="guillemotright" unicode="&#xbb;" horiz-adv-x="1300" 
d="M778 559l-415 -404h-192l420 412l1 6l-256 396h177l266 -402zM1242 559l-414 -404h-192l420 412l1 6l-257 396h178l266 -402z" />
    <glyph glyph-name="onequarter" unicode="&#xbc;" horiz-adv-x="1562" 
d="M1280 679h182l-74 -439h90l-15 -101h-91l-25 -139h-122l23 139h-331l15 100q17 25 34 49t37.5 51.5t35.5 47.5t40.5 51t37.5 46.5t41.5 50.5t39 46t42.5 50.5t40 47.5zM1065 239h200l61 332h-7q-23 -30 -65 -82.5t-66 -83t-58.5 -75.5t-63.5 -86zM501 689h-123l95 545h-5
l-166 -89l21 125l174 96h123zM385 0h-154l557 683l557 683h154l-557 -683z" />
    <glyph glyph-name="onehalf" unicode="&#xbd;" horiz-adv-x="1562" 
d="M1212 479h-122q7 96 72.5 153t162.5 57q92 0 152.5 -51.5t60.5 -136.5q0 -64 -34.5 -114t-105.5 -114l-90 -81q-91 -81 -92 -82h287l-20 -110h-462l17 94l274 253q30 29 44.5 44t32.5 45t18 57q0 36 -25 59.5t-67 23.5q-44 0 -72 -28t-31 -69zM501 689h-123l95 545h-5
l-166 -89l21 125l174 96h123zM392 0h-154l557 683l557 683h154l-557 -683z" />
    <glyph glyph-name="threequarters" unicode="&#xbe;" horiz-adv-x="1479" 
d="M1279 679h182l-75 -439h91l-15 -101h-91l-25 -139h-122l23 139h-331l15 100q17 25 34 49t37.5 51.5t35.5 47.5t40.5 51t37.5 46.5t41.5 50.5t39 46t42.5 50.5t40 47.5zM1064 239h200l61 332h-7q-23 -30 -65 -82.5t-66 -83t-58.5 -75.5t-63.5 -86zM311 990l3 106
q43 -1 56 -1q56 0 96.5 24t40.5 69q0 37 -27 59t-68 22q-39 0 -62.5 -20t-30.5 -49h-124q8 78 68.5 127t150.5 49q88 0 153 -46t65 -130q0 -63 -36.5 -106.5t-86.5 -56.5l-1 -1q46 -18 72 -58.5t26 -96.5q0 -93 -70.5 -149.5t-180.5 -51.5q-101 4 -159 55.5t-64 129.5
q-1 11 -1 26h113q4 -45 36 -72t81 -27t82 26t33 74q0 84 -111 96q-14 2 -54 2zM368 0h-154l557 683l557 683h154l-557 -683z" />
    <glyph glyph-name="questiondown" unicode="&#xbf;" horiz-adv-x="1025" 
d="M818 958q0 -60 -39.5 -99.5t-96.5 -39.5q-61 0 -101 39t-40 100q0 58 40 96.5t101 38.5q57 0 96.5 -39t39.5 -96zM915 19q-10 -71 -39 -130.5t-78 -107t-123.5 -74t-167.5 -26.5q-171 0 -286 86.5t-115 247.5q0 56 16 105t39 83t61 68t67.5 53.5t74.5 46.5q44 26 63 37.5
t45.5 31.5t38 36.5t22.5 40.5t16 55l13 74h161l-13 -76q-19 -113 -64 -171t-174 -134q-40 -23 -59.5 -35.5t-52 -38t-48.5 -47t-29 -54.5t-13 -69q0 -92 68.5 -144t168.5 -52q103 0 165.5 55t78.5 139h164z" />
    <glyph glyph-name="Agrave" unicode="&#xc0;" horiz-adv-x="1246" 
d="M45 0l726 1366h183l244 -1366h-175l-67 414h-515l-214 -414h-182zM836 1160h-12l-310 -606h419zM1008 1500h-179l-303 192h207z" />
    <glyph glyph-name="Aacute" unicode="&#xc1;" horiz-adv-x="1246" 
d="M45 0l726 1366h183l244 -1366h-175l-67 414h-515l-214 -414h-182zM836 1160h-12l-310 -606h419zM741 1500l295 193h217l-327 -193h-185z" />
    <glyph glyph-name="Acircumflex" unicode="&#xc2;" horiz-adv-x="1246" 
d="M45 0l726 1366h183l244 -1366h-175l-67 414h-515l-214 -414h-182zM836 1160h-12l-310 -606h419zM547 1483l296 234h176l200 -234h-166l-133 146h-12l-184 -146h-177z" />
    <glyph glyph-name="Atilde" unicode="&#xc3;" horiz-adv-x="1246" 
d="M45 0l726 1366h183l244 -1366h-175l-67 414h-515l-214 -414h-182zM836 1160h-12l-310 -606h419zM852 1534l-9.5 9.5l-10 10t-9.5 9t-11.5 9.5t-11 6.5t-12.5 6.5t-12 3.5t-14 1.5q-29 0 -46 -19.5t-21 -39.5t-6 -50h-121q0 93 48 157.5t142 64.5q81 0 161 -77l20 -20
t21.5 -20.5t20 -11.5t27.5 -6q35 0 54 37t23 80h119q0 -85 -51.5 -154t-135.5 -69q-57 0 -93.5 18t-71.5 54z" />
    <glyph glyph-name="Adieresis" unicode="&#xc4;" horiz-adv-x="1246" 
d="M45 0l726 1366h183l244 -1366h-175l-67 414h-515l-214 -414h-182zM836 1160h-12l-310 -606h419zM623 1588q0 45 29 73t74 28t74 -28t29 -73q0 -43 -29.5 -71t-73.5 -28t-73.5 28t-29.5 71zM970 1588q0 45 28.5 73t71.5 28q47 0 76.5 -28t29.5 -73q0 -43 -30 -71t-76 -28
q-42 0 -71 28.5t-29 70.5z" />
    <glyph glyph-name="Aring" unicode="&#xc5;" horiz-adv-x="1246" 
d="M867 1416q42 -2 73 25.5t33 68.5t-26.5 72t-70.5 33q-41 3 -72.5 -24.5t-33.5 -68.5q-1 -41 27.5 -72t69.5 -34zM838 1160h-12l-310 -606h419zM443 414l-214 -414h-182l721 1354q-41 26 -65.5 69t-24.5 93q0 81 56.5 137t136.5 56t135.5 -56t55.5 -137
q0 -55 -28.5 -100.5t-75.5 -69.5l242 -1346h-175l-67 414h-515z" />
    <glyph glyph-name="AE" unicode="&#xc6;" horiz-adv-x="1826" 
d="M1084 1142l-453 -588h354l111 588h-12zM887 0l73 412h-426l-323 -412h-195l1055 1366h862l-27 -152h-635l-78 -434h604l-24 -151h-606l-85 -477h640l-26 -152h-809z" />
    <glyph glyph-name="Ccedilla" unicode="&#xc7;" horiz-adv-x="1295" 
d="M681 -484q-81 0 -159 28l17 102q60 -19 130 -19q108 0 108 73q0 74 -139 74h-50l9 79l42 128q-178 31 -290 161t-112 356q0 101 9 149l48 247q48 243 198 372t361 129q111 0 204.5 -34.5t155 -91.5t95.5 -130.5t34 -152.5q0 -26 -3 -36h-164q0 20 -1 28q-5 45 -26 88.5
t-58.5 82t-100 62.5t-139.5 24q-310 0 -388 -374l-40 -198q-14 -68 -14 -161q0 -95 28 -168t77.5 -116t111.5 -64.5t135 -21.5q138 0 222 67t106 167h169q-1 -14 -8 -45q-13 -62 -48 -120t-92.5 -110t-147.5 -84.5t-200 -34.5l-34 -107q85 -2 137.5 -42.5t52.5 -114.5v-2
q-1 -89 -67.5 -139.5t-168.5 -50.5z" />
    <glyph glyph-name="Egrave" unicode="&#xc8;" horiz-adv-x="1133" 
d="M969 1500h-179l-303 192h207zM1027 152l-25 -152h-810l241 1366h805l-26 -152h-635l-79 -435h604l-24 -150h-606l-85 -477h640z" />
    <glyph glyph-name="Eacute" unicode="&#xc9;" horiz-adv-x="1133" 
d="M702 1500l295 193h217l-327 -193h-185zM1027 152l-25 -152h-810l241 1366h805l-26 -152h-635l-79 -435h604l-24 -150h-606l-85 -477h640z" />
    <glyph glyph-name="Ecircumflex" unicode="&#xca;" horiz-adv-x="1133" 
d="M508 1483l296 234h176l200 -234h-166l-133 146h-12l-184 -146h-177zM1027 152l-25 -152h-810l241 1366h805l-26 -152h-635l-79 -435h604l-24 -150h-606l-85 -477h640z" />
    <glyph glyph-name="Edieresis" unicode="&#xcb;" horiz-adv-x="1133" 
d="M584 1588q0 45 29 73t74 28t74 -28t29 -73q0 -43 -29.5 -71t-73.5 -28t-73.5 28t-29.5 71zM931 1588q0 45 28.5 73t71.5 28q47 0 76.5 -28t29.5 -73q0 -43 -30 -71t-76 -28q-42 0 -71 28.5t-29 70.5zM1027 152l-25 -152h-810l241 1366h805l-26 -152h-635l-79 -435h604
l-24 -150h-606l-85 -477h640z" />
    <glyph glyph-name="Igrave" unicode="&#xcc;" horiz-adv-x="553" 
d="M360 0h-170l241 1366h170zM667 1500h-179l-303 192h207z" />
    <glyph glyph-name="Iacute" unicode="&#xcd;" horiz-adv-x="553" 
d="M360 0h-170l241 1366h170zM400 1500l295 193h217l-327 -193h-185z" />
    <glyph glyph-name="Icircumflex" unicode="&#xce;" horiz-adv-x="553" 
d="M360 0h-170l241 1366h170zM206 1483l296 234h176l200 -234h-166l-133 146h-12l-184 -146h-177z" />
    <glyph glyph-name="Idieresis" unicode="&#xcf;" horiz-adv-x="553" 
d="M360 0h-170l241 1366h170zM282 1588q0 45 29 73t74 28t74 -28t29 -73q0 -43 -29.5 -71t-73.5 -28t-73.5 28t-29.5 71zM629 1588q0 45 28.5 73t71.5 28q47 0 76.5 -28t29.5 -73q0 -43 -30 -71t-76 -28q-42 0 -71 28.5t-29 70.5z" />
    <glyph glyph-name="Eth" unicode="&#xd0;" horiz-adv-x="1439" 
d="M519 1366h379q265 0 407 -139.5t142 -375.5q0 -86 -12 -154q0 -2 -13.5 -77.5t-14.5 -76.5q-99 -543 -751 -543h-378l110 623h-161l27 151h159zM663 1214l-79 -440h309l-26 -151h-309l-84 -471h181q241 0 393.5 103.5t190.5 305.5q0 1 12.5 68.5t13.5 68.5q9 57 9 136
q0 189 -107 284.5t-318 95.5h-186z" />
    <glyph glyph-name="Ntilde" unicode="&#xd1;" horiz-adv-x="1426" 
d="M957 1534l-9.5 9.5l-10 10t-9.5 9t-11.5 9.5t-11 6.5t-12.5 6.5t-12 3.5t-14 1.5q-29 0 -46 -19.5t-21 -39.5t-6 -50h-121q0 93 48 157.5t142 64.5q81 0 161 -77l20 -20t21.5 -20.5t20 -11.5t27.5 -6q35 0 54 37t23 80h119q0 -85 -51.5 -154t-135.5 -69q-57 0 -93.5 18
t-71.5 54zM1233 0h-165l-505 1078h-10l-190 -1078h-169l241 1366h166l500 -1080h11l193 1080h169z" />
    <glyph glyph-name="Ograve" unicode="&#xd2;" horiz-adv-x="1384" 
d="M1080 1500h-179l-303 192h207zM458 860l-36 -194q-15 -82 -15 -159q0 -173 100 -274t275 -101q323 0 394 392l37 209q9 49 9 133q0 167 -100.5 268t-271.5 101q-151 0 -253.5 -91t-138.5 -284zM249 681l38 210q43 239 197 371.5t371 132.5q244 0 392.5 -143t148.5 -393
q0 -90 -15 -168l-39 -212q-45 -246 -192 -377t-394 -131q-228 0 -375 136.5t-147 374.5q0 115 15 199z" />
    <glyph glyph-name="Oacute" unicode="&#xd3;" horiz-adv-x="1384" 
d="M813 1500l295 193h217l-327 -193h-185zM458 860l-36 -194q-15 -82 -15 -159q0 -173 100 -274t275 -101q323 0 394 392l37 209q9 49 9 133q0 167 -100.5 268t-271.5 101q-151 0 -253.5 -91t-138.5 -284zM249 681l38 210q43 239 197 371.5t371 132.5q244 0 392.5 -143
t148.5 -393q0 -90 -15 -168l-39 -212q-45 -246 -192 -377t-394 -131q-228 0 -375 136.5t-147 374.5q0 115 15 199z" />
    <glyph glyph-name="Ocircumflex" unicode="&#xd4;" horiz-adv-x="1384" 
d="M619 1483l296 234h176l200 -234h-166l-133 146h-12l-184 -146h-177zM458 860l-36 -194q-15 -82 -15 -159q0 -173 100 -274t275 -101q323 0 394 392l37 209q9 49 9 133q0 167 -100.5 268t-271.5 101q-151 0 -253.5 -91t-138.5 -284zM249 681l38 210q43 239 197 371.5
t371 132.5q244 0 392.5 -143t148.5 -393q0 -90 -15 -168l-39 -212q-45 -246 -192 -377t-394 -131q-228 0 -375 136.5t-147 374.5q0 115 15 199z" />
    <glyph glyph-name="Otilde" unicode="&#xd5;" horiz-adv-x="1384" 
d="M458 860l-36 -194q-15 -82 -15 -159q0 -173 100 -274t275 -101q323 0 394 392l37 209q9 49 9 133q0 167 -100.5 268t-271.5 101q-151 0 -253.5 -91t-138.5 -284zM249 681l38 210q43 239 197 371.5t371 132.5q244 0 392.5 -143t148.5 -393q0 -90 -15 -168l-39 -212
q-45 -246 -192 -377t-394 -131q-228 0 -375 136.5t-147 374.5q0 115 15 199zM924 1534l-9.5 9.5l-10 10t-9.5 9t-11.5 9.5t-11 6.5t-12.5 6.5t-12 3.5t-14 1.5q-29 0 -46 -19.5t-21 -39.5t-6 -50h-121q0 93 48 157.5t142 64.5q81 0 161 -77l20 -20t21.5 -20.5t20 -11.5
t27.5 -6q35 0 54 37t23 80h119q0 -85 -51.5 -154t-135.5 -69q-57 0 -93.5 18t-71.5 54z" />
    <glyph glyph-name="Odieresis" unicode="&#xd6;" horiz-adv-x="1384" 
d="M695 1588q0 45 29 73t74 28t74 -28t29 -73q0 -43 -29.5 -71t-73.5 -28t-73.5 28t-29.5 71zM1042 1588q0 45 28.5 73t71.5 28q47 0 76.5 -28t29.5 -73q0 -43 -30 -71t-76 -28q-42 0 -71 28.5t-29 70.5zM458 860l-36 -194q-15 -82 -15 -159q0 -173 100 -274t275 -101
q323 0 394 392l37 209q9 49 9 133q0 167 -100.5 268t-271.5 101q-151 0 -253.5 -91t-138.5 -284zM249 681l38 210q43 239 197 371.5t371 132.5q244 0 392.5 -143t148.5 -393q0 -90 -15 -168l-39 -212q-45 -246 -192 -377t-394 -131q-228 0 -375 136.5t-147 374.5
q0 115 15 199z" />
    <glyph glyph-name="multiply" unicode="&#xd7;" horiz-adv-x="1119" 
d="M1102 783l-366 -302l258 -314l-102 -92l-258 315l-345 -298l-79 102l343 297l-257 315l102 91l258 -315l366 302z" />
    <glyph glyph-name="Oslash" unicode="&#xd8;" horiz-adv-x="1384" 
d="M245 681l38 210q43 239 197 371.5t371 132.5q142 0 255 -51t184 -146l107 98l84 -90l-129 -117q41 -107 41 -230q0 -85 -16 -168l-39 -212q-45 -246 -192 -377t-394 -131q-134 0 -244.5 49.5t-179.5 142.5l-103 -93l-80 95l121 110q-36 95 -36 207q0 115 15 199z
M1217 860q0 50 -9 95l-748 -669q97 -154 318 -154q160 0 260 98.5t134 293.5l37 206q8 41 8 130zM1161 1079q-47 75 -127.5 115.5t-186.5 40.5q-152 0 -254.5 -91t-137.5 -284l-37 -194q-15 -80 -15 -156q0 -55 10 -99z" />
    <glyph glyph-name="Ugrave" unicode="&#xd9;" horiz-adv-x="1380" 
d="M1082 1500h-179l-303 192h207zM589 1366l-147 -829q-8 -40 -8 -99q0 -137 85 -221t230 -84q136 0 230 78t122 231l163 924h174l-166 -940q-41 -228 -180 -341.5t-345 -113.5q-217 0 -353 118t-136 323q0 63 14 140l143 814h174z" />
    <glyph glyph-name="Uacute" unicode="&#xda;" horiz-adv-x="1380" 
d="M815 1500l295 193h217l-327 -193h-185zM589 1366l-147 -829q-8 -40 -8 -99q0 -137 85 -221t230 -84q136 0 230 78t122 231l163 924h174l-166 -940q-41 -228 -180 -341.5t-345 -113.5q-217 0 -353 118t-136 323q0 63 14 140l143 814h174z" />
    <glyph glyph-name="Ucircumflex" unicode="&#xdb;" horiz-adv-x="1380" 
d="M621 1483l296 234h176l200 -234h-166l-133 146h-12l-184 -146h-177zM589 1366l-147 -829q-8 -40 -8 -99q0 -137 85 -221t230 -84q136 0 230 78t122 231l163 924h174l-166 -940q-41 -228 -180 -341.5t-345 -113.5q-217 0 -353 118t-136 323q0 63 14 140l143 814h174z" />
    <glyph glyph-name="Udieresis" unicode="&#xdc;" horiz-adv-x="1380" 
d="M697 1588q0 45 29 73t74 28t74 -28t29 -73q0 -43 -29.5 -71t-73.5 -28t-73.5 28t-29.5 71zM1044 1588q0 45 28.5 73t71.5 28q47 0 76.5 -28t29.5 -73q0 -43 -30 -71t-76 -28q-42 0 -71 28.5t-29 70.5zM589 1366l-147 -829q-8 -40 -8 -99q0 -137 85 -221t230 -84
q136 0 230 78t122 231l163 924h174l-166 -940q-41 -228 -180 -341.5t-345 -113.5q-217 0 -353 118t-136 323q0 63 14 140l143 814h174z" />
    <glyph glyph-name="Yacute" unicode="&#xdd;" horiz-adv-x="1131" 
d="M750 584l-103 -584h-170l103 582l-332 784h179l253 -629h11l459 629h200zM683 1500l295 193h217l-327 -193h-185z" />
    <glyph glyph-name="Thorn" unicode="&#xde;" horiz-adv-x="1191" 
d="M431 1365h167l-48 -269h269q189 0 291.5 -91t102.5 -240q0 -29 -6 -70q-23 -194 -156.5 -288.5t-386.5 -94.5h-251l-55 -312h-168zM789 949h-264l-87 -492h245q94 0 161.5 17.5t107 51t60 74t27.5 94.5q5 32 5 60q0 195 -255 195z" />
    <glyph glyph-name="germandbls" unicode="&#xdf;" horiz-adv-x="1259" 
d="M359 0h-169l207 1167q24 133 130 209.5t263 76.5q184 0 307 -100.5t123 -269.5q0 -62 -19.5 -117t-51 -95.5t-72 -71t-82.5 -48t-82 -22.5l-1 -7q134 -24 218 -115t84 -253q0 -122 -60 -211.5t-154.5 -132.5t-208.5 -43q-77 0 -147 17t-106 37l26 140q28 -17 91 -34
t125 -17q109 0 189 65.5t80 189.5q0 135 -91.5 213t-222.5 78h-63l30 165h63q133 0 212.5 68.5t79.5 186.5q0 113 -77.5 173t-191.5 60q-93 0 -153 -44t-75 -130z" />
    <glyph glyph-name="agrave" unicode="&#xe0;" horiz-adv-x="1105" 
d="M485 -17q-135 0 -226 79.5t-91 213.5q0 28 2 46q14 135 121 213.5t304 78.5h283l12 67q4 22 4 48q0 37 -11.5 70t-36.5 62.5t-70.5 47t-107.5 17.5q-93 0 -150 -36.5t-76 -92.5h-163q23 122 130 196.5t273 74.5q179 0 275.5 -91t96.5 -238q0 -58 -20 -164l-101 -575h-162
l25 142h-11q-33 -64 -111.5 -111.5t-188.5 -47.5zM337 297q0 -73 51 -120t141 -47q110 0 195 65t104 165l25 126h-269q-122 0 -184.5 -54t-62.5 -135zM826 1209h-135l-240 354h187z" />
    <glyph glyph-name="aacute" unicode="&#xe1;" horiz-adv-x="1105" 
d="M485 -17q-135 0 -226 79.5t-91 213.5q0 28 2 46q14 135 121 213.5t304 78.5h283l12 67q4 22 4 48q0 37 -11.5 70t-36.5 62.5t-70.5 47t-107.5 17.5q-93 0 -150 -36.5t-76 -92.5h-163q23 122 130 196.5t273 74.5q179 0 275.5 -91t96.5 -238q0 -58 -20 -164l-101 -575h-162
l25 142h-11q-33 -64 -111.5 -111.5t-188.5 -47.5zM337 297q0 -73 51 -120t141 -47q110 0 195 65t104 165l25 126h-269q-122 0 -184.5 -54t-62.5 -135zM731 1209h-128l293 354h183z" />
    <glyph glyph-name="acircumflex" unicode="&#xe2;" horiz-adv-x="1105" 
d="M485 -17q-135 0 -226 79.5t-91 213.5q0 28 2 46q14 135 121 213.5t304 78.5h283l12 67q4 22 4 48q0 37 -11.5 70t-36.5 62.5t-70.5 47t-107.5 17.5q-93 0 -150 -36.5t-76 -92.5h-163q23 122 130 196.5t273 74.5q179 0 275.5 -91t96.5 -238q0 -58 -20 -164l-101 -575h-162
l25 142h-11q-33 -64 -111.5 -111.5t-188.5 -47.5zM337 297q0 -73 51 -120t141 -47q110 0 195 65t104 165l25 126h-269q-122 0 -184.5 -54t-62.5 -135zM423 1200l307 379h114l181 -379h-143l-110 267h-4l-198 -267h-147z" />
    <glyph glyph-name="atilde" unicode="&#xe3;" horiz-adv-x="1105" 
d="M485 -17q-135 0 -226 79.5t-91 213.5q0 28 2 46q14 135 121 213.5t304 78.5h283l12 67q4 22 4 48q0 37 -11.5 70t-36.5 62.5t-70.5 47t-107.5 17.5q-93 0 -150 -36.5t-76 -92.5h-163q23 122 130 196.5t273 74.5q179 0 275.5 -91t96.5 -238q0 -58 -20 -164l-101 -575h-162
l25 142h-11q-33 -64 -111.5 -111.5t-188.5 -47.5zM337 297q0 -73 51 -120t141 -47q110 0 195 65t104 165l25 126h-269q-122 0 -184.5 -54t-62.5 -135zM830 1130q-83 0 -147 92q-4 6 -13.5 20t-14 20t-13.5 16.5t-16 15t-17.5 8.5t-22.5 4q-21 0 -36 -10.5t-24.5 -30.5
t-14.5 -37.5t-10 -43.5h-123q11 116 67 182.5t142 66.5q33 0 60 -9t49 -30t33 -34t31 -41q2 -3 8 -11t8 -10.5t7 -9.5t7.5 -9t7.5 -7t8.5 -6.5t8.5 -4t10 -3.5t11 -1q65 0 89 123h123q-6 -98 -67 -174t-151 -76z" />
    <glyph glyph-name="adieresis" unicode="&#xe4;" horiz-adv-x="1105" 
d="M485 -17q-135 0 -226 79.5t-91 213.5q0 28 2 46q14 135 121 213.5t304 78.5h283l12 67q4 22 4 48q0 37 -11.5 70t-36.5 62.5t-70.5 47t-107.5 17.5q-93 0 -150 -36.5t-76 -92.5h-163q23 122 130 196.5t273 74.5q179 0 275.5 -91t96.5 -238q0 -58 -20 -164l-101 -575h-162
l25 142h-11q-33 -64 -111.5 -111.5t-188.5 -47.5zM337 297q0 -73 51 -120t141 -47q110 0 195 65t104 165l25 126h-269q-122 0 -184.5 -54t-62.5 -135zM451 1297q0 46 31 75.5t77 29.5q47 0 77.5 -29.5t30.5 -75.5q0 -44 -30.5 -73t-77.5 -29q-46 0 -77 29t-31 73zM812 1297
q0 46 30 75.5t74 29.5q49 0 80 -29.5t31 -75.5q0 -44 -31 -73t-80 -29q-44 0 -74 29t-30 73z" />
    <glyph glyph-name="aring" unicode="&#xe5;" horiz-adv-x="1105" 
d="M485 -17q-135 0 -226 79.5t-91 213.5q0 28 2 46q14 135 121 213.5t304 78.5h283l12 67q4 22 4 48q0 37 -11.5 70t-36.5 62.5t-70.5 47t-107.5 17.5q-93 0 -150 -36.5t-76 -92.5h-163q23 122 130 196.5t273 74.5q179 0 275.5 -91t96.5 -238q0 -58 -20 -164l-101 -575h-162
l25 142h-11q-33 -64 -111.5 -111.5t-188.5 -47.5zM337 297q0 -73 51 -120t141 -47q110 0 195 65t104 165l25 126h-269q-122 0 -184.5 -54t-62.5 -135zM763 1310q43 0 73.5 30.5t30.5 73.5t-30.5 73t-73.5 30q-42 0 -73 -30.5t-31 -72.5q0 -43 31 -73.5t73 -30.5zM763 1224
q-79 0 -134 55.5t-55 133.5q0 79 55 133.5t134 54.5q78 0 132.5 -54.5t54.5 -132.5q0 -79 -55 -134.5t-132 -55.5z" />
    <glyph glyph-name="ae" unicode="&#xe6;" horiz-adv-x="1747" 
d="M1260 -17q-127 0 -220.5 59.5t-135.5 172.5h-1q-126 -232 -393 -232q-160 0 -250.5 78.5t-90.5 221.5q0 160 112.5 245.5t317.5 85.5h280l13 72q3 24 3 46q0 78 -54.5 136t-172.5 58q-92 0 -149 -36.5t-76 -92.5h-163q22 120 129.5 195.5t270.5 75.5q227 0 323 -147
q131 147 353 147q67 0 124 -14.5t97.5 -40t72.5 -60t50 -74.5t30 -83t11 -86.5t-6 -84.5q0 -16 -25 -141h-690q-11 -60 -11 -91q0 -52 14 -97t42.5 -83.5t79.5 -60.5t119 -22q93 0 156 38.5t81 94.5h166q-18 -108 -132 -194t-275 -86zM338 294q0 -73 50.5 -118.5
t141.5 -45.5q110 0 195 65.5t105 165.5l24 125h-269q-122 0 -184.5 -56t-62.5 -136zM1574 614l2 9l1 9q23 124 -37.5 209t-189.5 85q-105 0 -186.5 -61t-106.5 -181q-4 -17 -6.5 -30t-4 -19.5t-2 -11t-1 -6.5t-0.5 -3h531z" />
    <glyph glyph-name="ccedilla" unicode="&#xe7;" horiz-adv-x="1061" 
d="M515 -484q-81 0 -159 28l17 102q60 -19 130 -19q108 0 108 73q0 74 -139 74h-50l9 79l49 146q-133 36 -208.5 138t-75.5 252q0 67 14 151l26 146q32 185 151 283.5t298 98.5q182 0 289.5 -96.5t107.5 -235.5v-12h-157v10q0 71 -65 131t-175 60q-111 0 -189 -73t-102 -207
l-21 -117q-10 -61 -10 -106q0 -138 66 -214.5t192 -76.5q92 0 152 38.5t75 96.5h169q-22 -129 -132.5 -205.5t-269.5 -77.5h-16l-38 -118q85 -2 137.5 -42.5t52.5 -114.5v-2q-1 -89 -67.5 -139.5t-168.5 -50.5z" />
    <glyph glyph-name="egrave" unicode="&#xe8;" horiz-adv-x="1094" 
d="M853 1209h-135l-240 354h187zM597 -17q-179 0 -291 104t-112 294q0 69 17 161l28 149q31 177 155 277t305 100q67 0 124.5 -14.5t98 -40t73 -60t50.5 -74.5t30 -83t11 -86.5t-6 -84.5q0 -16 -25 -141h-691q-10 -38 -10 -91q0 -52 13.5 -97t42.5 -83.5t80 -60.5t119 -22
q93 0 156 38.5t81 94.5h166q-20 -110 -133.5 -195t-281.5 -85zM918 614l2 9l1 9q24 125 -37 209.5t-191 84.5q-103 0 -183 -61t-105 -181l-15 -70h528z" />
    <glyph glyph-name="eacute" unicode="&#xe9;" horiz-adv-x="1094" 
d="M758 1209h-128l293 354h183zM597 -17q-179 0 -291 104t-112 294q0 69 17 161l28 149q31 177 155 277t305 100q67 0 124.5 -14.5t98 -40t73 -60t50.5 -74.5t30 -83t11 -86.5t-6 -84.5q0 -16 -25 -141h-691q-10 -38 -10 -91q0 -52 13.5 -97t42.5 -83.5t80 -60.5t119 -22
q93 0 156 38.5t81 94.5h166q-20 -110 -133.5 -195t-281.5 -85zM918 614l2 9l1 9q24 125 -37 209.5t-191 84.5q-103 0 -183 -61t-105 -181l-15 -70h528z" />
    <glyph glyph-name="ecircumflex" unicode="&#xea;" horiz-adv-x="1094" 
d="M450 1200l307 379h114l181 -379h-143l-110 267h-4l-198 -267h-147zM597 -17q-179 0 -291 104t-112 294q0 69 17 161l28 149q31 177 155 277t305 100q67 0 124.5 -14.5t98 -40t73 -60t50.5 -74.5t30 -83t11 -86.5t-6 -84.5q0 -16 -25 -141h-691q-10 -38 -10 -91
q0 -52 13.5 -97t42.5 -83.5t80 -60.5t119 -22q93 0 156 38.5t81 94.5h166q-20 -110 -133.5 -195t-281.5 -85zM918 614l2 9l1 9q24 125 -37 209.5t-191 84.5q-103 0 -183 -61t-105 -181l-15 -70h528z" />
    <glyph glyph-name="edieresis" unicode="&#xeb;" horiz-adv-x="1094" 
d="M597 -17q-179 0 -291 104t-112 294q0 69 17 161l28 149q31 177 155 277t305 100q67 0 124.5 -14.5t98 -40t73 -60t50.5 -74.5t30 -83t11 -86.5t-6 -84.5q0 -16 -25 -141h-691q-10 -38 -10 -91q0 -52 13.5 -97t42.5 -83.5t80 -60.5t119 -22q93 0 156 38.5t81 94.5h166
q-20 -110 -133.5 -195t-281.5 -85zM918 614l2 9l1 9q24 125 -37 209.5t-191 84.5q-103 0 -183 -61t-105 -181l-15 -70h528zM478 1297q0 46 31 75.5t77 29.5q47 0 77.5 -29.5t30.5 -75.5q0 -44 -30.5 -73t-77.5 -29q-46 0 -77 29t-31 73zM839 1297q0 46 30 75.5t74 29.5
q49 0 80 -29.5t31 -75.5q0 -44 -31 -73t-80 -29q-44 0 -74 29t-30 73z" />
    <glyph glyph-name="igrave" unicode="&#xec;" horiz-adv-x="581" 
d="M591 1209h-135l-240 354h187zM192 0l186 1050h168l-186 -1050h-168z" />
    <glyph glyph-name="iacute" unicode="&#xed;" horiz-adv-x="581" 
d="M496 1209h-128l293 354h183zM192 0l186 1050h168l-186 -1050h-168z" />
    <glyph glyph-name="icircumflex" unicode="&#xee;" horiz-adv-x="581" 
d="M188 1200l307 379h114l181 -379h-143l-110 267h-4l-198 -267h-147zM192 0l186 1050h168l-186 -1050h-168z" />
    <glyph glyph-name="idieresis" unicode="&#xef;" horiz-adv-x="581" 
d="M192 0l186 1050h168l-186 -1050h-168zM216 1297q0 46 31 75.5t77 29.5q47 0 77.5 -29.5t30.5 -75.5q0 -44 -30.5 -73t-77.5 -29q-46 0 -77 29t-31 73zM577 1297q0 46 30 75.5t74 29.5q49 0 80 -29.5t31 -75.5q0 -44 -31 -73t-80 -29q-44 0 -74 29t-30 73z" />
    <glyph glyph-name="eth" unicode="&#xf0;" horiz-adv-x="1189" 
d="M1077 371q-33 -186 -153.5 -290t-295.5 -104q-190 0 -310.5 117t-120.5 317q0 56 10 115l19 108q30 179 152.5 282t291.5 103q219 0 313 -176l7 -1v7q0 7 0.5 16.5t0.5 19v16.5v8q2 65 -20.5 142.5t-60.5 145.5l-292 -54l-14 102l247 45q-69 94 -158 174l122 90
q104 -79 199 -233l252 46l19 -98l-218 -39q83 -175 80 -386q1 -71 -13 -157zM683 872q-120 0 -199.5 -77t-101.5 -209l-12 -74q-8 -51 -8 -91q0 -133 70 -213t194 -80q118 0 193.5 75t99.5 212l15 86q9 50 9 94q0 132 -72 204.5t-188 72.5z" />
    <glyph glyph-name="ntilde" unicode="&#xf1;" horiz-adv-x="1192" 
d="M916 1130q-83 0 -147 92q-4 6 -13.5 20t-14 20t-13.5 16.5t-16 15t-17.5 8.5t-22.5 4q-21 0 -36 -10.5t-24.5 -30.5t-14.5 -37.5t-10 -43.5h-123q11 116 67 182.5t142 66.5q33 0 60 -9t49 -30t33 -34t31 -41q2 -3 8 -11t8 -10.5t7 -9.5t7.5 -9t7.5 -7t8.5 -6.5t8.5 -4
t10 -3.5t11 -1q65 0 89 123h123q-6 -98 -67 -174t-151 -76zM174 0l185 1050h164l-32 -173h13q43 91 122.5 140.5t190.5 49.5q83 0 146.5 -27t101 -74t56 -104t18.5 -123q0 -61 -20 -173l-100 -566h-168l102 576q14 84 14 129q0 97 -48.5 158.5t-155.5 61.5q-129 0 -210 -90
t-105 -228l-107 -607h-167z" />
    <glyph glyph-name="ograve" unicode="&#xf2;" horiz-adv-x="1132" 
d="M867 1209h-135l-240 354h187zM391 643l-22 -121q-10 -66 -10 -111q0 -127 73 -204.5t199 -77.5q115 0 188.5 76t97.5 216l23 131q5 31 5 94q0 122 -73 199t-196 77q-110 0 -185 -70t-100 -209zM206 537l24 137q32 183 154.5 288.5t295.5 105.5q195 0 314 -114.5
t119 -309.5q0 -58 -12 -126l-25 -137q-36 -189 -152 -293.5t-312 -104.5q-181 0 -299.5 109t-118.5 296q0 85 12 149z" />
    <glyph glyph-name="oacute" unicode="&#xf3;" horiz-adv-x="1132" 
d="M772 1209h-128l293 354h183zM391 643l-22 -121q-10 -66 -10 -111q0 -127 73 -204.5t199 -77.5q115 0 188.5 76t97.5 216l23 131q5 31 5 94q0 122 -73 199t-196 77q-110 0 -185 -70t-100 -209zM206 537l24 137q32 183 154.5 288.5t295.5 105.5q195 0 314 -114.5
t119 -309.5q0 -58 -12 -126l-25 -137q-36 -189 -152 -293.5t-312 -104.5q-181 0 -299.5 109t-118.5 296q0 85 12 149z" />
    <glyph glyph-name="ocircumflex" unicode="&#xf4;" horiz-adv-x="1132" 
d="M464 1200l307 379h114l181 -379h-143l-110 267h-4l-198 -267h-147zM391 643l-22 -121q-10 -66 -10 -111q0 -127 73 -204.5t199 -77.5q115 0 188.5 76t97.5 216l23 131q5 31 5 94q0 122 -73 199t-196 77q-110 0 -185 -70t-100 -209zM206 537l24 137q32 183 154.5 288.5
t295.5 105.5q195 0 314 -114.5t119 -309.5q0 -58 -12 -126l-25 -137q-36 -189 -152 -293.5t-312 -104.5q-181 0 -299.5 109t-118.5 296q0 85 12 149z" />
    <glyph glyph-name="otilde" unicode="&#xf5;" horiz-adv-x="1132" 
d="M871 1130q-83 0 -147 92q-4 6 -13.5 20t-14 20t-13.5 16.5t-16 15t-17.5 8.5t-22.5 4q-21 0 -36 -10.5t-24.5 -30.5t-14.5 -37.5t-10 -43.5h-123q11 116 67 182.5t142 66.5q33 0 60 -9t49 -30t33 -34t31 -41q2 -3 8 -11t8 -10.5t7 -9.5t7.5 -9t7.5 -7t8.5 -6.5t8.5 -4
t10 -3.5t11 -1q65 0 89 123h123q-6 -98 -67 -174t-151 -76zM391 643l-22 -121q-10 -66 -10 -111q0 -127 73 -204.5t199 -77.5q115 0 188.5 76t97.5 216l23 131q5 31 5 94q0 122 -73 199t-196 77q-110 0 -185 -70t-100 -209zM206 537l24 137q32 183 154.5 288.5t295.5 105.5
q195 0 314 -114.5t119 -309.5q0 -58 -12 -126l-25 -137q-36 -189 -152 -293.5t-312 -104.5q-181 0 -299.5 109t-118.5 296q0 85 12 149z" />
    <glyph glyph-name="odieresis" unicode="&#xf6;" horiz-adv-x="1132" 
d="M492 1297q0 46 31 75.5t77 29.5q47 0 77.5 -29.5t30.5 -75.5q0 -44 -30.5 -73t-77.5 -29q-46 0 -77 29t-31 73zM853 1297q0 46 30 75.5t74 29.5q49 0 80 -29.5t31 -75.5q0 -44 -31 -73t-80 -29q-44 0 -74 29t-30 73zM391 643l-22 -121q-10 -66 -10 -111q0 -127 73 -204.5
t199 -77.5q115 0 188.5 76t97.5 216l23 131q5 31 5 94q0 122 -73 199t-196 77q-110 0 -185 -70t-100 -209zM206 537l24 137q32 183 154.5 288.5t295.5 105.5q195 0 314 -114.5t119 -309.5q0 -58 -12 -126l-25 -137q-36 -189 -152 -293.5t-312 -104.5q-181 0 -299.5 109
t-118.5 296q0 85 12 149z" />
    <glyph glyph-name="divide" unicode="&#xf7;" horiz-adv-x="1150" 
d="M580 937q0 57 37.5 94.5t91.5 37.5q58 0 96 -37.5t38 -94.5q0 -55 -38.5 -91.5t-95.5 -36.5q-54 0 -91.5 37t-37.5 91zM484 163q0 57 37 94t92 37q57 0 95 -37t38 -94q0 -55 -38 -91.5t-95 -36.5q-54 0 -91.5 37t-37.5 91zM1136 477h-954l24 137h954z" />
    <glyph glyph-name="oslash" unicode="&#xf8;" horiz-adv-x="1132" 
d="M206 537l24 137q32 183 154.5 288.5t295.5 105.5q107 0 195 -37.5t145 -106.5l120 108l83 -95l-139 -124q29 -76 29 -169q0 -58 -12 -126l-25 -137q-36 -189 -152 -293.5t-312 -104.5q-202 0 -320 129l-121 -108l-78 95l133 119q-32 78 -32 170q0 85 12 149zM391 643
l-21 -121q-11 -59 -11 -109q0 -39 7 -70l531 470q-72 109 -221 109q-110 0 -185 -70t-100 -209zM416 225q74 -96 215 -96q115 0 188.5 76t97.5 216l23 131q5 29 5 90q0 23 -3 44z" />
    <glyph glyph-name="ugrave" unicode="&#xf9;" horiz-adv-x="1178" 
d="M896 1209h-135l-240 354h187zM1184 1050l-184 -1050h-158l32 180h-14q-39 -88 -119.5 -142.5t-190.5 -54.5q-158 0 -245 93t-87 234q0 71 21 180l103 560h167l-103 -570q-15 -84 -15 -138q0 -97 54 -153t162 -56q129 0 207.5 89t102.5 228l105 600h162z" />
    <glyph glyph-name="uacute" unicode="&#xfa;" horiz-adv-x="1178" 
d="M801 1209h-128l293 354h183zM1184 1050l-184 -1050h-158l32 180h-14q-39 -88 -119.5 -142.5t-190.5 -54.5q-158 0 -245 93t-87 234q0 71 21 180l103 560h167l-103 -570q-15 -84 -15 -138q0 -97 54 -153t162 -56q129 0 207.5 89t102.5 228l105 600h162z" />
    <glyph glyph-name="ucircumflex" unicode="&#xfb;" horiz-adv-x="1178" 
d="M493 1200l307 379h114l181 -379h-143l-110 267h-4l-198 -267h-147zM1184 1050l-184 -1050h-158l32 180h-14q-39 -88 -119.5 -142.5t-190.5 -54.5q-158 0 -245 93t-87 234q0 71 21 180l103 560h167l-103 -570q-15 -84 -15 -138q0 -97 54 -153t162 -56q129 0 207.5 89
t102.5 228l105 600h162z" />
    <glyph glyph-name="udieresis" unicode="&#xfc;" horiz-adv-x="1178" 
d="M1184 1050l-184 -1050h-158l32 180h-14q-39 -88 -119.5 -142.5t-190.5 -54.5q-158 0 -245 93t-87 234q0 71 21 180l103 560h167l-103 -570q-15 -84 -15 -138q0 -97 54 -153t162 -56q129 0 207.5 89t102.5 228l105 600h162zM521 1297q0 46 31 75.5t77 29.5
q47 0 77.5 -29.5t30.5 -75.5q0 -44 -30.5 -73t-77.5 -29q-46 0 -77 29t-31 73zM882 1297q0 46 30 75.5t74 29.5q49 0 80 -29.5t31 -75.5q0 -44 -31 -73t-80 -29q-44 0 -74 29t-30 73z" />
    <glyph glyph-name="yacute" unicode="&#xfd;" horiz-adv-x="1041" 
d="M1146 1050l-539 -1043q0 -1 -21 -41l-21 -40q-33 -64 -58.5 -104t-59 -76t-72 -55t-91 -30t-121.5 -11q-46 0 -87 12l32 137q35 -9 77 -9q86 0 134 42.5t88 130.5l24 53l-200 1034h178l136 -853h12l409 853h180zM735 1209h-128l293 354h183z" />
    <glyph glyph-name="thorn" unicode="&#xfe;" horiz-adv-x="1189" 
d="M711 -17q-137 0 -221 69t-107 158h-7l-98 -575h-168l318 1802h160l-96 -553h12q87 183 304 183q165 0 265 -106t100 -296q0 -59 -9 -112l-35 -194q-28 -163 -140 -269.5t-278 -106.5zM423 429q0 -140 81 -216.5t189 -76.5q109 0 187 79t98 197l28 153q4 24 4 70
q0 142 -67 216t-184 74q-125 0 -205.5 -80.5t-102.5 -218.5l-23 -149q-5 -24 -5 -48z" />
    <glyph glyph-name="ydieresis" unicode="&#xff;" horiz-adv-x="1041" 
d="M1146 1050l-539 -1043q0 -1 -21 -41l-21 -40q-33 -64 -58.5 -104t-59 -76t-72 -55t-91 -30t-121.5 -11q-46 0 -87 12l32 137q35 -9 77 -9q86 0 134 42.5t88 130.5l24 53l-200 1034h178l136 -853h12l409 853h180zM455 1297q0 46 31 75.5t77 29.5q47 0 77.5 -29.5
t30.5 -75.5q0 -44 -30.5 -73t-77.5 -29q-46 0 -77 29t-31 73zM816 1297q0 46 30 75.5t74 29.5q49 0 80 -29.5t31 -75.5q0 -44 -31 -73t-80 -29q-44 0 -74 29t-30 73z" />
    <glyph glyph-name="Amacron" unicode="&#x100;" horiz-adv-x="1246" 
d="M45 0l726 1366h183l244 -1366h-175l-67 414h-515l-214 -414h-182zM836 1160h-12l-310 -606h419zM1237 1611l-18 -105h-680l18 105h680z" />
    <glyph glyph-name="amacron" unicode="&#x101;" horiz-adv-x="1105" 
d="M485 -17q-135 0 -226 79.5t-91 213.5q0 28 2 46q14 135 121 213.5t304 78.5h283l12 67q4 22 4 48q0 37 -11.5 70t-36.5 62.5t-70.5 47t-107.5 17.5q-93 0 -150 -36.5t-76 -92.5h-163q23 122 130 196.5t273 74.5q179 0 275.5 -91t96.5 -238q0 -58 -20 -164l-101 -575h-162
l25 142h-11q-33 -64 -111.5 -111.5t-188.5 -47.5zM337 297q0 -73 51 -120t141 -47q110 0 195 65t104 165l25 126h-269q-122 0 -184.5 -54t-62.5 -135zM1072 1311l-19 -105h-680l19 105h680z" />
    <glyph glyph-name="Abreve" unicode="&#x102;" horiz-adv-x="1246" 
d="M45 0l726 1366h183l244 -1366h-175l-67 414h-515l-214 -414h-182zM836 1160h-12l-310 -606h419zM602 1747h121q-3 -65 44.5 -104.5t135.5 -39.5q86 0 140.5 41.5t64.5 102.5h125q-5 -48 -27 -92t-62 -82t-106.5 -60.5t-149.5 -22.5q-149 0 -225.5 78.5t-60.5 178.5z" />
    <glyph glyph-name="abreve" unicode="&#x103;" horiz-adv-x="1105" 
d="M485 -17q-135 0 -226 79.5t-91 213.5q0 28 2 46q14 135 121 213.5t304 78.5h283l12 67q4 22 4 48q0 37 -11.5 70t-36.5 62.5t-70.5 47t-107.5 17.5q-93 0 -150 -36.5t-76 -92.5h-163q23 122 130 196.5t273 74.5q179 0 275.5 -91t96.5 -238q0 -58 -20 -164l-101 -575h-162
l25 142h-11q-33 -64 -111.5 -111.5t-188.5 -47.5zM337 297q0 -73 51 -120t141 -47q110 0 195 65t104 165l25 126h-269q-122 0 -184.5 -54t-62.5 -135zM475 1468h117q-11 -67 28 -115t123 -48q83 0 134.5 47t62.5 116h118q-5 -48 -26.5 -94t-59 -86.5t-97.5 -65.5t-133 -25
q-59 0 -109 16.5t-82 44t-54 63t-25.5 73t3.5 74.5z" />
    <glyph glyph-name="Aogonek" unicode="&#x104;" horiz-adv-x="1246" 
d="M1037 -364q-87 0 -141 48t-53 123q1 167 178 241h-4l-59 366h-515l-214 -414h-182l726 1366h183l240 -1341q-83 -15 -142 -62t-60 -119q0 -41 27 -62.5t74 -21.5q44 0 80 9l-19 -113q-40 -20 -119 -20zM838 1160h-12l-310 -606h419z" />
    <glyph glyph-name="aogonek" unicode="&#x105;" horiz-adv-x="1105" 
d="M338 297q0 -73 51 -120t141 -47q110 0 195 65t104 165l25 126h-269q-122 0 -184.5 -54t-62.5 -135zM883 -364q-47 -21 -126 -21q-88 0 -143 52t-39 145q4 22 12.5 42.5t15 34.5t24 31.5t24.5 25.5t32 24.5t29.5 19.5t34.5 20.5t32 18.5l18 113h-11q-33 -64 -111.5 -111.5
t-188.5 -47.5q-135 0 -226 79.5t-91 213.5q0 30 2 48q15 134 121.5 212t303.5 78h283l13 67q3 33 3 48q0 37 -11.5 70t-36.5 62.5t-70.5 47t-107.5 17.5q-93 0 -150 -36.5t-76 -92.5h-163q23 122 130 196.5t273 74.5q179 0 275.5 -91t96.5 -238q0 -58 -20 -164l-101 -571
q-30 -10 -60 -24t-64 -35.5t-57.5 -50.5t-28.5 -60q-8 -43 19 -66.5t76 -23.5q48 0 84 9z" />
    <glyph glyph-name="Cacute" unicode="&#x106;" horiz-adv-x="1295" 
d="M754 1500l295 193h217l-327 -193h-185zM461 861l-40 -198q-14 -68 -14 -161q0 -95 28 -168t77.5 -116t111.5 -64.5t135 -21.5q138 0 222 67t106 167h169q-1 -14 -8 -45q-10 -49 -34 -97t-66.5 -94t-98 -80.5t-134 -56t-169.5 -21.5q-82 0 -156 19t-139 60.5t-112.5 102
t-75 149t-27.5 195.5q0 101 9 149l48 247q48 243 198 372t361 129q111 0 204.5 -34.5t155 -91.5t95.5 -130.5t34 -152.5q0 -26 -3 -36h-164q0 20 -1 28q-5 45 -26 88.5t-58.5 82t-100 62.5t-139.5 24q-310 0 -388 -374z" />
    <glyph glyph-name="cacute" unicode="&#x107;" horiz-adv-x="1061" 
d="M194 389q0 67 14 151l26 146q32 185 151 283.5t298 98.5q182 0 289.5 -96.5t107.5 -235.5v-12h-157v10q0 71 -65 131t-175 60q-111 0 -189 -73t-102 -207l-21 -117q-10 -61 -10 -106q0 -138 66 -214.5t192 -76.5q92 0 152 38.5t75 96.5h169q-22 -129 -133 -206t-271 -77
q-189 0 -303 110t-114 296zM747 1209h-128l293 354h183z" />
    <glyph glyph-name="Ccircumflex" unicode="&#x108;" horiz-adv-x="1295" 
d="M461 861l-40 -198q-14 -68 -14 -161q0 -95 28 -168t77.5 -116t111.5 -64.5t135 -21.5q138 0 222 67t106 167h169q-1 -14 -8 -45q-10 -49 -34 -97t-66.5 -94t-98 -80.5t-134 -56t-169.5 -21.5q-82 0 -156 19t-139 60.5t-112.5 102t-75 149t-27.5 195.5q0 101 9 149l48 247
q48 243 198 372t361 129q111 0 204.5 -34.5t155 -91.5t95.5 -130.5t34 -152.5q0 -26 -3 -36h-164q0 20 -1 28q-5 45 -26 88.5t-58.5 82t-100 62.5t-139.5 24q-310 0 -388 -374zM560 1483l296 234h176l200 -234h-166l-133 146h-12l-184 -146h-177z" />
    <glyph glyph-name="ccircumflex" unicode="&#x109;" horiz-adv-x="1061" 
d="M439 1200l307 379h114l181 -379h-143l-110 267h-4l-198 -267h-147zM194 389q0 67 14 151l26 146q32 185 151 283.5t298 98.5q182 0 289.5 -96.5t107.5 -235.5v-12h-157v10q0 71 -65 131t-175 60q-111 0 -189 -73t-102 -207l-21 -117q-10 -61 -10 -106q0 -138 66 -214.5
t192 -76.5q92 0 152 38.5t75 96.5h169q-22 -129 -133 -206t-271 -77q-189 0 -303 110t-114 296z" />
    <glyph glyph-name="Cdotaccent" unicode="&#x10a;" horiz-adv-x="1295" 
d="M461 861l-40 -198q-14 -68 -14 -161q0 -95 28 -168t77.5 -116t111.5 -64.5t135 -21.5q138 0 222 67t106 167h169q-1 -14 -8 -45q-10 -49 -34 -97t-66.5 -94t-98 -80.5t-134 -56t-169.5 -21.5q-82 0 -156 19t-139 60.5t-112.5 102t-75 149t-27.5 195.5q0 101 9 149l48 247
q48 243 198 372t361 129q111 0 204.5 -34.5t155 -91.5t95.5 -130.5t34 -152.5q0 -26 -3 -36h-164q0 20 -1 28q-5 45 -26 88.5t-58.5 82t-100 62.5t-139.5 24q-310 0 -388 -374zM809 1607q0 48 30.5 78.5t75.5 30.5q48 0 79 -30.5t31 -78.5q0 -47 -31 -77t-79 -30
q-45 0 -75.5 30.5t-30.5 76.5z" />
    <glyph glyph-name="cdotaccent" unicode="&#x10b;" horiz-adv-x="1061" 
d="M194 389q0 67 14 151l26 146q32 185 151 283.5t298 98.5q182 0 289.5 -96.5t107.5 -235.5v-12h-157v10q0 71 -65 131t-175 60q-111 0 -189 -73t-102 -207l-21 -117q-10 -61 -10 -106q0 -138 66 -214.5t192 -76.5q92 0 152 38.5t75 96.5h169q-22 -129 -133 -206t-271 -77
q-189 0 -303 110t-114 296zM650 1292q0 48 30.5 78.5t75.5 30.5q48 0 79 -30.5t31 -78.5q0 -47 -31 -77t-79 -30q-45 0 -75.5 30.5t-30.5 76.5z" />
    <glyph glyph-name="Ccaron" unicode="&#x10c;" horiz-adv-x="1295" 
d="M461 861l-40 -198q-14 -68 -14 -161q0 -95 28 -168t77.5 -116t111.5 -64.5t135 -21.5q138 0 222 67t106 167h169q-1 -14 -8 -45q-10 -49 -34 -97t-66.5 -94t-98 -80.5t-134 -56t-169.5 -21.5q-82 0 -156 19t-139 60.5t-112.5 102t-75 149t-27.5 195.5q0 101 9 149l48 247
q48 243 198 372t361 129q111 0 204.5 -34.5t155 -91.5t95.5 -130.5t34 -152.5q0 -26 -3 -36h-164q0 20 -1 28q-5 45 -26 88.5t-58.5 82t-100 62.5t-139.5 24q-310 0 -388 -374zM1288 1713l-305 -225h-161l-226 225h187l126 -130h6l170 130h203z" />
    <glyph glyph-name="ccaron" unicode="&#x10d;" horiz-adv-x="1061" 
d="M691 1216l-181 380h143l110 -268h3l198 268h148l-307 -380h-114zM194 389q0 67 14 151l26 146q32 185 151 283.5t298 98.5q182 0 289.5 -96.5t107.5 -235.5v-12h-157v10q0 71 -65 131t-175 60q-111 0 -189 -73t-102 -207l-21 -117q-10 -61 -10 -106q0 -138 66 -214.5
t192 -76.5q92 0 152 38.5t75 96.5h169q-22 -129 -133 -206t-271 -77q-189 0 -303 110t-114 296z" />
    <glyph glyph-name="Dcaron" unicode="&#x10e;" horiz-adv-x="1355" 
d="M1288 1713l-305 -225h-161l-226 225h187l126 -130h6l170 130h203zM433 1366h379q265 0 407 -139.5t142 -375.5q0 -86 -12 -154q0 -2 -13.5 -77.5t-14.5 -76.5q-99 -543 -751 -543h-378zM578 1214l-190 -1062h181q241 0 393.5 103.5t190.5 305.5l13 68q13 68 13 69
q9 49 9 136q0 189 -107 284.5t-318 95.5h-185z" />
    <glyph glyph-name="dcaron" unicode="&#x10f;" horiz-adv-x="1347" 
d="M1440 1422h169l-143 -488h-119zM676 1067q127 0 211.5 -70t97.5 -148h13l98 570h168l-250 -1419h-163l31 177h-14q-23 -71 -101 -131.5t-199 -60.5q-166 0 -271.5 109.5t-105.5 289.5q0 72 10 122l38 193q32 164 144.5 266t292.5 102zM955 632q0 140 -81 215.5t-187 75.5
q-118 0 -192 -76.5t-99 -201.5l-31 -150q-6 -32 -6 -87q0 -128 71 -201t192 -73q120 0 198 82t103 218l27 149q5 25 5 49z" />
    <glyph glyph-name="Dcroat" unicode="&#x110;" horiz-adv-x="1439" 
d="M517 1366h379q265 0 407 -139.5t142 -375.5q0 -86 -12 -154q0 -2 -13.5 -77.5t-14.5 -76.5q-99 -543 -751 -543h-378l110 623h-161l27 151h159zM661 1214l-79 -440h309l-26 -151h-309l-84 -471h181q241 0 393.5 103.5t190.5 305.5q0 1 12.5 68.5t13.5 68.5q9 57 9 136
q0 189 -107 284.5t-318 95.5h-186z" />
    <glyph glyph-name="dcroat" unicode="&#x111;" horiz-adv-x="1200" 
d="M683 1067q127 0 211.5 -70t97.5 -148h13l55 323h-226l23 130h227l20 117h166l-21 -117h171l-23 -130h-170l-206 -1172h-163l31 177h-14q-23 -71 -101 -131.5t-199 -60.5q-166 0 -271.5 109.5t-105.5 289.5q0 72 10 122l38 193q32 164 144.5 266t292.5 102zM962 632
q0 140 -81 215.5t-187 75.5q-118 0 -192 -76.5t-99 -201.5l-31 -150q-6 -32 -6 -87q0 -128 71 -201t192 -73q120 0 198 82t103 218l27 149q5 25 5 49z" />
    <glyph glyph-name="Emacron" unicode="&#x112;" horiz-adv-x="1133" 
d="M1027 152l-25 -152h-810l241 1366h805l-26 -152h-635l-79 -435h604l-24 -150h-606l-85 -477h640zM1198 1611l-18 -105h-680l18 105h680z" />
    <glyph glyph-name="emacron" unicode="&#x113;" horiz-adv-x="1094" 
d="M597 -17q-179 0 -291 104t-112 294q0 69 17 161l28 149q31 177 155 277t305 100q67 0 124.5 -14.5t98 -40t73 -60t50.5 -74.5t30 -83t11 -86.5t-6 -84.5q0 -16 -25 -141h-691q-10 -38 -10 -91q0 -52 13.5 -97t42.5 -83.5t80 -60.5t119 -22q93 0 156 38.5t81 94.5h166
q-20 -110 -133.5 -195t-281.5 -85zM918 614l2 9l1 9q24 125 -37 209.5t-191 84.5q-103 0 -183 -61t-105 -181l-15 -70h528zM1099 1311l-19 -105h-680l19 105h680z" />
    <glyph glyph-name="Ebreve" unicode="&#x114;" horiz-adv-x="1133" 
d="M1027 152l-25 -152h-810l241 1366h805l-26 -152h-635l-79 -435h604l-24 -150h-606l-85 -477h640zM563 1747h121q-3 -65 44.5 -104.5t135.5 -39.5q86 0 140.5 41.5t64.5 102.5h125q-5 -48 -27 -92t-62 -82t-106.5 -60.5t-149.5 -22.5q-149 0 -225.5 78.5t-60.5 178.5z" />
    <glyph glyph-name="ebreve" unicode="&#x115;" horiz-adv-x="1094" 
d="M597 -17q-179 0 -291 104t-112 294q0 69 17 161l28 149q31 177 155 277t305 100q67 0 124.5 -14.5t98 -40t73 -60t50.5 -74.5t30 -83t11 -86.5t-6 -84.5q0 -16 -25 -141h-691q-10 -38 -10 -91q0 -52 13.5 -97t42.5 -83.5t80 -60.5t119 -22q93 0 156 38.5t81 94.5h166
q-20 -110 -133.5 -195t-281.5 -85zM918 614l2 9l1 9q24 125 -37 209.5t-191 84.5q-103 0 -183 -61t-105 -181l-15 -70h528zM502 1468h117q-11 -67 28 -115t123 -48q83 0 134.5 47t62.5 116h118q-5 -48 -26.5 -94t-59 -86.5t-97.5 -65.5t-133 -25q-59 0 -109 16.5t-82 44
t-54 63t-25.5 73t3.5 74.5z" />
    <glyph glyph-name="Edotaccent" unicode="&#x116;" horiz-adv-x="1133" 
d="M757 1607q0 48 30.5 78.5t75.5 30.5q48 0 79 -30.5t31 -78.5q0 -47 -31 -77t-79 -30q-45 0 -75.5 30.5t-30.5 76.5zM1027 152l-25 -152h-810l241 1366h805l-26 -152h-635l-79 -435h604l-24 -150h-606l-85 -477h640z" />
    <glyph glyph-name="edotaccent" unicode="&#x117;" horiz-adv-x="1094" 
d="M661 1292q0 48 30.5 78.5t75.5 30.5q48 0 79 -30.5t31 -78.5q0 -47 -31 -77t-79 -30q-45 0 -75.5 30.5t-30.5 76.5zM597 -17q-179 0 -291 104t-112 294q0 69 17 161l28 149q31 177 155 277t305 100q67 0 124.5 -14.5t98 -40t73 -60t50.5 -74.5t30 -83t11 -86.5t-6 -84.5
q0 -16 -25 -141h-691q-10 -38 -10 -91q0 -52 13.5 -97t42.5 -83.5t80 -60.5t119 -22q93 0 156 38.5t81 94.5h166q-20 -110 -133.5 -195t-281.5 -85zM918 614l2 9l1 9q24 125 -37 209.5t-191 84.5q-103 0 -183 -61t-105 -181l-15 -70h528z" />
    <glyph glyph-name="Eogonek" unicode="&#x118;" horiz-adv-x="1133" 
d="M824 -362q-85 0 -139 40.5t-53 121.5q0 127 116 199v1h-555l241 1366h805l-26 -152h-635l-78 -435h603l-24 -150h-606l-85 -477h641l-20 -116q-40 -9 -76 -23t-72.5 -36.5t-58.5 -56.5t-22 -75q0 -40 27 -61.5t76 -21.5q43 0 79 9l-20 -114q-45 -19 -118 -19z" />
    <glyph glyph-name="eogonek" unicode="&#x119;" horiz-adv-x="1094" 
d="M589 -17q-173 0 -283 104.5t-110 293.5q0 69 17 161l28 149q31 177 155 277t305 100q67 0 124.5 -14.5t98 -40t73 -60t50.5 -74.5t30 -83t11 -86.5t-6 -84.5q0 -16 -25 -141h-691q-10 -38 -10 -91q0 -52 13.5 -97t42.5 -83.5t80 -60.5t119 -22q93 0 156 38.5t81 94.5h166
q-5 -21 -12.5 -40.5t-13 -33.5t-18.5 -31t-19 -25t-24 -24.5t-23 -21t-27 -23t-26 -22.5q-35 -32 -50.5 -47t-39 -42t-35.5 -51.5t-16 -52.5q-9 -49 20 -77t78 -28q39 0 77 10l-21 -121q-44 -19 -119 -19q-84 0 -137.5 53t-46.5 139q6 68 45 116t96 89l-7 7
q-15 -12 -47 -23.5t-59 -11.5zM920 614l2 9l1 9q23 124 -37.5 209t-189.5 85q-105 0 -184.5 -61t-104.5 -181l-15 -70h528z" />
    <glyph glyph-name="Ecaron" unicode="&#x11a;" horiz-adv-x="1133" 
d="M1236 1713l-305 -225h-161l-226 225h187l126 -130h6l170 130h203zM1027 152l-25 -152h-810l241 1366h805l-26 -152h-635l-79 -435h604l-24 -150h-606l-85 -477h640z" />
    <glyph glyph-name="ecaron" unicode="&#x11b;" horiz-adv-x="1094" 
d="M702 1216l-181 380h143l110 -268h3l198 268h148l-307 -380h-114zM597 -17q-179 0 -291 104t-112 294q0 69 17 161l28 149q31 177 155 277t305 100q67 0 124.5 -14.5t98 -40t73 -60t50.5 -74.5t30 -83t11 -86.5t-6 -84.5q0 -16 -25 -141h-691q-10 -38 -10 -91
q0 -52 13.5 -97t42.5 -83.5t80 -60.5t119 -22q93 0 156 38.5t81 94.5h166q-20 -110 -133.5 -195t-281.5 -85zM918 614l2 9l1 9q24 125 -37 209.5t-191 84.5q-103 0 -183 -61t-105 -181l-15 -70h528z" />
    <glyph glyph-name="Gcircumflex" unicode="&#x11c;" horiz-adv-x="1355" 
d="M556 1483l296 234h176l200 -234h-166l-133 146h-12l-184 -146h-177zM294 895q47 242 201 371t373 129q118 0 215 -36.5t156.5 -96t91.5 -131t32 -145.5q0 -26 -2 -32h-165q0 18 -1 26q-3 42 -23 84.5t-57.5 82t-103 64t-149.5 24.5q-161 0 -262 -97.5t-138 -277.5
l-40 -198q-15 -84 -15 -160q0 -187 100.5 -280.5t256.5 -93.5q124 0 223 62t120 176l33 187h-352l26 148h521l-61 -347q-33 -179 -179 -280.5t-343 -101.5q-104 0 -194 30t-164 90.5t-116.5 164.5t-42.5 240q0 94 11 151z" />
    <glyph glyph-name="gcircumflex" unicode="&#x11d;" horiz-adv-x="1191" 
d="M481 1200l307 379h114l181 -379h-143l-110 267h-4l-198 -267h-147zM669 1067q125 0 208 -61.5t108 -156.5h13l36 201h165l-184 -1044q-36 -203 -154 -302.5t-325 -99.5q-179 0 -290.5 89.5t-111.5 210.5v12h163q0 -9 1 -10q0 -60 70.5 -109.5t176.5 -49.5q140 0 214 73
t100 216l28 154h-13q-31 -76 -107.5 -124t-189.5 -48q-98 0 -183.5 46.5t-140.5 139.5t-55 214q0 74 14 144l23 119q19 98 62 173.5t102 121t127 68.5t143 23zM951 639q0 132 -75 208.5t-194 76.5q-114 0 -189.5 -78t-101.5 -214l-15 -82q-13 -73 -13 -110q0 -138 72 -211
t197 -73q109 0 189.5 80t103.5 212l16 95q10 58 10 96z" />
    <glyph glyph-name="Gbreve" unicode="&#x11e;" horiz-adv-x="1355" 
d="M294 895q47 242 201 371t373 129q118 0 215 -36.5t156.5 -96t91.5 -131t32 -145.5q0 -26 -2 -32h-165q0 18 -1 26q-3 42 -23 84.5t-57.5 82t-103 64t-149.5 24.5q-161 0 -262 -97.5t-138 -277.5l-40 -198q-15 -84 -15 -160q0 -187 100.5 -280.5t256.5 -93.5q124 0 223 62
t120 176l33 187h-352l26 148h521l-61 -347q-33 -179 -179 -280.5t-343 -101.5q-104 0 -194 30t-164 90.5t-116.5 164.5t-42.5 240q0 94 11 151zM611 1747h121q-3 -65 44.5 -104.5t135.5 -39.5q86 0 140.5 41.5t64.5 102.5h125q-5 -48 -27 -92t-62 -82t-106.5 -60.5
t-149.5 -22.5q-149 0 -225.5 78.5t-60.5 178.5z" />
    <glyph glyph-name="gbreve" unicode="&#x11f;" horiz-adv-x="1191" 
d="M533 1468h117q-11 -67 28 -115t123 -48q83 0 134.5 47t62.5 116h118q-5 -48 -26.5 -94t-59 -86.5t-97.5 -65.5t-133 -25q-59 0 -109 16.5t-82 44t-54 63t-25.5 73t3.5 74.5zM669 1067q125 0 208 -61.5t108 -156.5h13l36 201h165l-184 -1044q-36 -203 -154 -302.5
t-325 -99.5q-179 0 -290.5 89.5t-111.5 210.5v12h163q0 -9 1 -10q0 -60 70.5 -109.5t176.5 -49.5q140 0 214 73t100 216l28 154h-13q-31 -76 -107.5 -124t-189.5 -48q-98 0 -183.5 46.5t-140.5 139.5t-55 214q0 74 14 144l23 119q19 98 62 173.5t102 121t127 68.5t143 23z
M951 639q0 132 -75 208.5t-194 76.5q-114 0 -189.5 -78t-101.5 -214l-15 -82q-13 -73 -13 -110q0 -138 72 -211t197 -73q109 0 189.5 80t103.5 212l16 95q10 58 10 96z" />
    <glyph glyph-name="Gdotaccent" unicode="&#x120;" horiz-adv-x="1355" 
d="M804 1607q0 48 30.5 78.5t75.5 30.5q48 0 79 -30.5t31 -78.5q0 -47 -31 -77t-79 -30q-45 0 -75.5 30.5t-30.5 76.5zM294 895q47 242 201 371t373 129q118 0 215 -36.5t156.5 -96t91.5 -131t32 -145.5q0 -26 -2 -32h-165q0 18 -1 26q-3 42 -23 84.5t-57.5 82t-103 64
t-149.5 24.5q-161 0 -262 -97.5t-138 -277.5l-40 -198q-15 -84 -15 -160q0 -187 100.5 -280.5t256.5 -93.5q124 0 223 62t120 176l33 187h-352l26 148h521l-61 -347q-33 -179 -179 -280.5t-343 -101.5q-104 0 -194 30t-164 90.5t-116.5 164.5t-42.5 240q0 94 11 151z" />
    <glyph glyph-name="gdotaccent" unicode="&#x121;" horiz-adv-x="1191" 
d="M692 1292q0 48 30.5 78.5t75.5 30.5q48 0 79 -30.5t31 -78.5q0 -47 -31 -77t-79 -30q-45 0 -75.5 30.5t-30.5 76.5zM669 1067q125 0 208 -61.5t108 -156.5h13l36 201h165l-184 -1044q-36 -203 -154 -302.5t-325 -99.5q-179 0 -290.5 89.5t-111.5 210.5v12h163q0 -9 1 -10
q0 -60 70.5 -109.5t176.5 -49.5q140 0 214 73t100 216l28 154h-13q-31 -76 -107.5 -124t-189.5 -48q-98 0 -183.5 46.5t-140.5 139.5t-55 214q0 74 14 144l23 119q19 98 62 173.5t102 121t127 68.5t143 23zM951 639q0 132 -75 208.5t-194 76.5q-114 0 -189.5 -78
t-101.5 -214l-15 -82q-13 -73 -13 -110q0 -138 72 -211t197 -73q109 0 189.5 80t103.5 212l16 95q10 58 10 96z" />
    <glyph glyph-name="Gcommaaccent" unicode="&#x122;" horiz-adv-x="1355" 
d="M686 -446h-123l80 306h147zM294 895q47 242 201 371t373 129q118 0 215 -36.5t156.5 -96t91.5 -131t32 -145.5q0 -26 -2 -32h-165q0 18 -1 26q-3 42 -23 84.5t-57.5 82t-103 64t-149.5 24.5q-161 0 -262 -97.5t-138 -277.5l-40 -198q-15 -84 -15 -160
q0 -187 100.5 -280.5t256.5 -93.5q124 0 223 62t120 176l33 187h-352l26 148h521l-61 -347q-33 -179 -179 -280.5t-343 -101.5q-104 0 -194 30t-164 90.5t-116.5 164.5t-42.5 240q0 94 11 151z" />
    <glyph glyph-name="gcommaaccent" unicode="&#x123;" horiz-adv-x="1191" 
d="M822 1578h132l-85 -335h-161zM669 1067q125 0 208 -61.5t108 -156.5h13l36 201h165l-184 -1044q-36 -203 -154 -302.5t-325 -99.5q-179 0 -290.5 89.5t-111.5 210.5v12h163q0 -9 1 -10q0 -60 70.5 -109.5t176.5 -49.5q140 0 214 73t100 216l28 154h-13
q-31 -76 -107.5 -124t-189.5 -48q-98 0 -183.5 46.5t-140.5 139.5t-55 214q0 74 14 144l23 119q19 98 62 173.5t102 121t127 68.5t143 23zM951 639q0 132 -75 208.5t-194 76.5q-114 0 -189.5 -78t-101.5 -214l-15 -82q-13 -73 -13 -110q0 -138 72 -211t197 -73
q109 0 189.5 80t103.5 212l16 95q10 58 10 96z" />
    <glyph glyph-name="Hcircumflex" unicode="&#x124;" horiz-adv-x="1416" 
d="M362 0h-170l241 1366h170l-103 -582h691l103 582h170l-241 -1366h-164l105 632h-690zM635 1483l296 234h176l200 -234h-166l-133 146h-12l-184 -146h-177z" />
    <glyph glyph-name="hcircumflex" unicode="&#x125;" horiz-adv-x="1197" 
d="M174 0l250 1419h167l-99 -542h12q41 90 120.5 140t193.5 50q159 0 242.5 -95t83.5 -234q0 -58 -20 -172l-100 -566h-168l102 576q14 81 14 130q0 96 -50 157.5t-157 61.5q-129 0 -211 -90.5t-106 -227.5l-107 -607h-167zM236 1569l307 379h114l181 -379h-143l-110 267h-4
l-198 -267h-147z" />
    <glyph glyph-name="Hbar" unicode="&#x126;" horiz-adv-x="1416" 
d="M501 781h690l38 209h-692zM475 630l-112 -630h-170l174 990h-96l26 152h97l40 224h170l-40 -224h691l40 224h170l-40 -224h94l-26 -152h-94l-175 -990h-164l105 630h-690z" />
    <glyph glyph-name="hbar" unicode="&#x127;" horiz-adv-x="1197" 
d="M450 607l-107 -607h-167l206 1172h-144l23 130h144l21 117h167l-21 -117h249l-23 -130h-250l-54 -295h12q41 90 120.5 140t193.5 50q159 0 242.5 -95t83.5 -234q0 -58 -20 -172l-100 -566h-168l102 576q14 81 14 130q0 96 -50 157.5t-157 61.5q-129 0 -211 -90.5
t-106 -227.5z" />
    <glyph glyph-name="Itilde" unicode="&#x128;" horiz-adv-x="553" 
d="M360 0h-170l241 1366h170zM511 1534l-9.5 9.5l-10 10t-9.5 9t-11.5 9.5t-11 6.5t-12.5 6.5t-12 3.5t-14 1.5q-29 0 -46 -19.5t-21 -39.5t-6 -50h-121q0 93 48 157.5t142 64.5q81 0 161 -77l20 -20t21.5 -20.5t20 -11.5t27.5 -6q35 0 54 37t23 80h119q0 -85 -51.5 -154
t-135.5 -69q-57 0 -93.5 18t-71.5 54z" />
    <glyph glyph-name="itilde" unicode="&#x129;" horiz-adv-x="581" 
d="M192 0l186 1050h168l-186 -1050h-168zM595 1130q-83 0 -147 92q-4 6 -13.5 20t-14 20t-13.5 16.5t-16 15t-17.5 8.5t-22.5 4q-21 0 -36 -10.5t-24.5 -30.5t-14.5 -37.5t-10 -43.5h-123q11 116 67 182.5t142 66.5q33 0 60 -9t49 -30t33 -34t31 -41q2 -3 8 -11t8 -10.5
t7 -9.5t7.5 -9t7.5 -7t8.5 -6.5t8.5 -4t10 -3.5t11 -1q65 0 89 123h123q-6 -98 -67 -174t-151 -76z" />
    <glyph glyph-name="Imacron" unicode="&#x12a;" horiz-adv-x="553" 
d="M360 0h-170l241 1366h170zM896 1611l-18 -105h-680l18 105h680z" />
    <glyph glyph-name="imacron" unicode="&#x12b;" horiz-adv-x="581" 
d="M192 0l186 1050h168l-186 -1050h-168zM837 1311l-19 -105h-680l19 105h680z" />
    <glyph glyph-name="Ibreve" unicode="&#x12c;" horiz-adv-x="553" 
d="M360 0h-170l241 1366h170zM261 1747h121q-3 -65 44.5 -104.5t135.5 -39.5q86 0 140.5 41.5t64.5 102.5h125q-5 -48 -27 -92t-62 -82t-106.5 -60.5t-149.5 -22.5q-149 0 -225.5 78.5t-60.5 178.5z" />
    <glyph glyph-name="ibreve" unicode="&#x12d;" horiz-adv-x="581" 
d="M192 0l186 1050h168l-186 -1050h-168zM240 1468h117q-11 -67 28 -115t123 -48q83 0 134.5 47t62.5 116h118q-5 -48 -26.5 -94t-59 -86.5t-97.5 -65.5t-133 -25q-59 0 -109 16.5t-82 44t-54 63t-25.5 73t3.5 74.5z" />
    <glyph glyph-name="Iogonek" unicode="&#x12e;" horiz-adv-x="553" 
d="M325 -344q-45 -20 -120 -20q-86 0 -140 48t-53 123q0 96 55.5 156t136.5 90v1h-3l232 1312h170l-237 -1340q-84 -16 -143 -63.5t-60 -119.5q0 -40 26.5 -61.5t73.5 -21.5q45 0 81 9z" />
    <glyph glyph-name="iogonek" unicode="&#x12f;" horiz-adv-x="551" 
d="M378 1371q0 53 35 87.5t87 34.5q53 0 88 -34.5t35 -86.5t-35.5 -86.5t-88.5 -34.5q-51 0 -86 34.5t-35 85.5zM318 -367q-43 -18 -119 -18q-96 0 -148.5 54t-42.5 138q16 144 190 226l180 1017h167l-185 -1046q-77 -21 -135.5 -61.5t-66.5 -104.5q-5 -43 21.5 -71.5
t77.5 -28.5q45 0 82 9z" />
    <glyph glyph-name="Idotaccent" unicode="&#x130;" horiz-adv-x="553" 
d="M360 0h-170l241 1366h170zM455 1607q0 48 30.5 78.5t75.5 30.5q48 0 79 -30.5t31 -78.5q0 -47 -31 -77t-79 -30q-45 0 -75.5 30.5t-30.5 76.5z" />
    <glyph glyph-name="dotlessi" unicode="&#x131;" horiz-adv-x="581" 
d="M194 0l186 1050h168l-186 -1050h-168z" />
    <glyph glyph-name="Jcircumflex" unicode="&#x134;" horiz-adv-x="1004" 
d="M1052 1366l-178 -1009q-19 -105 -57.5 -181.5t-92.5 -119.5t-114.5 -63t-131.5 -20q-163 0 -269 90t-106 231q0 34 7 59h158q-2 -30 -2 -34q0 -82 56.5 -135.5t149.5 -53.5q192 0 234 240l176 996h170zM654 1483l296 234h176l200 -234h-166l-133 146h-12l-184 -146h-177z
" />
    <glyph glyph-name="jcircumflex" unicode="&#x135;" horiz-adv-x="551" 
d="M546 1050l-188 -1063q-31 -173 -118.5 -251.5t-250.5 -78.5q-43 0 -100 13l30 139q38 -10 82 -10q75 0 124 46.5t63 128.5l190 1076h168zM187 1187l307 379h114l181 -379h-143l-110 267h-4l-198 -267h-147z" />
    <glyph glyph-name="Kcommaaccent" unicode="&#x136;" horiz-adv-x="1271" 
d="M602 1366l-123 -670h13l729 670h216l-650 -607l420 -759h-198l-354 658l-212 -184l-83 -474h-170l242 1366h170zM583 -446h-123l80 306h147z" />
    <glyph glyph-name="kcommaaccent" unicode="&#x137;" horiz-adv-x="1077" 
d="M416 436l-77 -436h-167l251 1419h166l-138 -784h11l504 415h229l-509 -413l332 -637h-186l-278 547zM487 -446h-123l80 306h147z" />
    <glyph glyph-name="Lacute" unicode="&#x139;" horiz-adv-x="1048" 
d="M397 1500l295 193h217l-327 -193h-185zM1017 153l-27 -153h-798l241 1366h170l-216 -1213h630z" />
    <glyph glyph-name="lacute" unicode="&#x13a;" horiz-adv-x="551" 
d="M558 1578h-128l293 354h183zM191 0l251 1419h168l-251 -1419h-168z" />
    <glyph glyph-name="Lcommaaccent" unicode="&#x13b;" horiz-adv-x="1048" 
d="M492 -446h-123l80 306h147zM1017 153l-27 -153h-798l241 1366h170l-216 -1213h630z" />
    <glyph glyph-name="lcommaaccent" unicode="&#x13c;" horiz-adv-x="551" 
d="M224 -446h-123l80 306h147zM191 0l251 1419h168l-251 -1419h-168z" />
    <glyph glyph-name="Lcaron" unicode="&#x13d;" horiz-adv-x="1048" 
d="M867 1422h170l-144 -488h-119zM1017 153l-27 -153h-798l241 1366h170l-216 -1213h630z" />
    <glyph glyph-name="lcaron" unicode="&#x13e;" horiz-adv-x="642" 
d="M746 1422h169l-143 -488h-119zM186 0l251 1419h168l-251 -1419h-168z" />
    <glyph glyph-name="Lslash" unicode="&#x141;" horiz-adv-x="1054" 
d="M998 0h-799l96 539l-143 -75l29 167l143 75l116 660h170l-99 -559l420 222l-29 -170l-421 -220l-86 -486h629z" />
    <glyph glyph-name="lslash" unicode="&#x142;" horiz-adv-x="598" 
d="M381 0h-168l110 619l-172 -107l29 167l172 107l112 633h168l-91 -516l172 107l-29 -168l-172 -106z" />
    <glyph glyph-name="Nacute" unicode="&#x143;" horiz-adv-x="1426" 
d="M846 1500l295 193h217l-327 -193h-185zM1233 0h-165l-505 1078h-10l-190 -1078h-169l241 1366h166l500 -1080h11l193 1080h169z" />
    <glyph glyph-name="nacute" unicode="&#x144;" horiz-adv-x="1192" 
d="M817 1209h-128l293 354h183zM174 0l185 1050h164l-32 -173h13q43 91 122.5 140.5t190.5 49.5q83 0 146.5 -27t101 -74t56 -104t18.5 -123q0 -61 -20 -173l-100 -566h-168l102 576q14 84 14 129q0 97 -48.5 158.5t-155.5 61.5q-129 0 -210 -90t-105 -228l-107 -607h-167z
" />
    <glyph glyph-name="Ncommaaccent" unicode="&#x145;" horiz-adv-x="1426" 
d="M674 -446h-123l80 306h147zM1233 0h-165l-505 1078h-10l-190 -1078h-169l241 1366h166l500 -1080h11l193 1080h169z" />
    <glyph glyph-name="ncommaaccent" unicode="&#x146;" horiz-adv-x="1192" 
d="M544 -446h-123l80 306h147zM174 0l185 1050h164l-32 -173h13q43 91 122.5 140.5t190.5 49.5q83 0 146.5 -27t101 -74t56 -104t18.5 -123q0 -61 -20 -173l-100 -566h-168l102 576q14 84 14 129q0 97 -48.5 158.5t-155.5 61.5q-129 0 -210 -90t-105 -228l-107 -607h-167z
" />
    <glyph glyph-name="Ncaron" unicode="&#x147;" horiz-adv-x="1426" 
d="M1380 1713l-305 -225h-161l-226 225h187l126 -130h6l170 130h203zM1233 0h-165l-505 1078h-10l-190 -1078h-169l241 1366h166l500 -1080h11l193 1080h169z" />
    <glyph glyph-name="ncaron" unicode="&#x148;" horiz-adv-x="1192" 
d="M761 1216l-181 380h143l110 -268h3l198 268h148l-307 -380h-114zM174 0l185 1050h164l-32 -173h13q43 91 122.5 140.5t190.5 49.5q83 0 146.5 -27t101 -74t56 -104t18.5 -123q0 -61 -20 -173l-100 -566h-168l102 576q14 84 14 129q0 97 -48.5 158.5t-155.5 61.5
q-129 0 -210 -90t-105 -228l-107 -607h-167z" />
    <glyph glyph-name="Omacron" unicode="&#x14c;" horiz-adv-x="1384" 
d="M458 860l-36 -194q-15 -82 -15 -159q0 -173 100 -274t275 -101q323 0 394 392l37 209q9 49 9 133q0 167 -100.5 268t-271.5 101q-151 0 -253.5 -91t-138.5 -284zM249 681l38 210q43 239 197 371.5t371 132.5q244 0 392.5 -143t148.5 -393q0 -90 -15 -168l-39 -212
q-45 -246 -192 -377t-394 -131q-228 0 -375 136.5t-147 374.5q0 115 15 199zM1309 1611l-18 -105h-680l18 105h680z" />
    <glyph glyph-name="omacron" unicode="&#x14d;" horiz-adv-x="1132" 
d="M1113 1311l-19 -105h-680l19 105h680zM391 643l-22 -121q-10 -66 -10 -111q0 -127 73 -204.5t199 -77.5q115 0 188.5 76t97.5 216l23 131q5 31 5 94q0 122 -73 199t-196 77q-110 0 -185 -70t-100 -209zM206 537l24 137q32 183 154.5 288.5t295.5 105.5q195 0 314 -114.5
t119 -309.5q0 -58 -12 -126l-25 -137q-36 -189 -152 -293.5t-312 -104.5q-181 0 -299.5 109t-118.5 296q0 85 12 149z" />
    <glyph glyph-name="Obreve" unicode="&#x14e;" horiz-adv-x="1384" 
d="M458 860l-36 -194q-15 -82 -15 -159q0 -173 100 -274t275 -101q323 0 394 392l37 209q9 49 9 133q0 167 -100.5 268t-271.5 101q-151 0 -253.5 -91t-138.5 -284zM249 681l38 210q43 239 197 371.5t371 132.5q244 0 392.5 -143t148.5 -393q0 -90 -15 -168l-39 -212
q-45 -246 -192 -377t-394 -131q-228 0 -375 136.5t-147 374.5q0 115 15 199zM674 1747h121q-3 -65 44.5 -104.5t135.5 -39.5q86 0 140.5 41.5t64.5 102.5h125q-5 -48 -27 -92t-62 -82t-106.5 -60.5t-149.5 -22.5q-149 0 -225.5 78.5t-60.5 178.5z" />
    <glyph glyph-name="obreve" unicode="&#x14f;" horiz-adv-x="1132" 
d="M516 1468h117q-11 -67 28 -115t123 -48q83 0 134.5 47t62.5 116h118q-5 -48 -26.5 -94t-59 -86.5t-97.5 -65.5t-133 -25q-59 0 -109 16.5t-82 44t-54 63t-25.5 73t3.5 74.5zM391 643l-22 -121q-10 -66 -10 -111q0 -127 73 -204.5t199 -77.5q115 0 188.5 76t97.5 216
l23 131q5 31 5 94q0 122 -73 199t-196 77q-110 0 -185 -70t-100 -209zM206 537l24 137q32 183 154.5 288.5t295.5 105.5q195 0 314 -114.5t119 -309.5q0 -58 -12 -126l-25 -137q-36 -189 -152 -293.5t-312 -104.5q-181 0 -299.5 109t-118.5 296q0 85 12 149z" />
    <glyph glyph-name="Ohungarumlaut" unicode="&#x150;" horiz-adv-x="1384" 
d="M682 1500l315 250h176l-328 -250h-163zM1028 1500l314 250h176l-328 -250h-162zM458 860l-36 -194q-15 -82 -15 -159q0 -173 100 -274t275 -101q323 0 394 392l37 209q9 49 9 133q0 167 -100.5 268t-271.5 101q-151 0 -253.5 -91t-138.5 -284zM249 681l38 210
q43 239 197 371.5t371 132.5q244 0 392.5 -143t148.5 -393q0 -90 -15 -168l-39 -212q-45 -246 -192 -377t-394 -131q-228 0 -375 136.5t-147 374.5q0 115 15 199z" />
    <glyph glyph-name="ohungarumlaut" unicode="&#x151;" horiz-adv-x="1132" 
d="M681 1209h-123l250 302h182zM981 1209h-127l254 302h178zM391 643l-22 -121q-10 -66 -10 -111q0 -127 73 -204.5t199 -77.5q115 0 188.5 76t97.5 216l23 131q5 31 5 94q0 122 -73 199t-196 77q-110 0 -185 -70t-100 -209zM206 537l24 137q32 183 154.5 288.5t295.5 105.5
q195 0 314 -114.5t119 -309.5q0 -58 -12 -126l-25 -137q-36 -189 -152 -293.5t-312 -104.5q-181 0 -299.5 109t-118.5 296q0 85 12 149z" />
    <glyph glyph-name="OE" unicode="&#x152;" horiz-adv-x="2028" 
d="M249 679l38 208q43 241 198 374t376 133q153 0 271 -65t166 -181l39 217h799l-27 -154h-637l-77 -438h601l-26 -152h-601l-84 -467h638l-28 -154h-799l23 124q-60 -80 -162 -116t-216 -36q-230 0 -368.5 133.5t-138.5 388.5q0 100 15 185zM459 859l-36 -195
q-14 -75 -14 -154q0 -183 99 -281t270 -98q168 0 269 97t132 281l37 222q10 57 10 126q0 164 -100 271t-270 107q-154 0 -258 -95.5t-139 -280.5z" />
    <glyph glyph-name="oe" unicode="&#x153;" horiz-adv-x="1825" 
d="M1334 -17q-124 0 -215 55.5t-133 164.5h-1q-49 -105 -146.5 -162.5t-226.5 -57.5q-181 0 -298.5 109t-117.5 304q0 69 12 141l24 138q31 180 153 286.5t296 106.5q125 0 224 -57t143 -170h1q118 227 383 227q77 0 141.5 -20t106.5 -54.5t74 -79t45 -94t18.5 -100
t-4.5 -95.5q0 -3 -12 -71t-13 -70h-691l-3 -12l-2 -12q-5 -24 -5 -62q0 -54 13.5 -100.5t42.5 -85t80 -60.5t119 -22q94 0 156.5 38.5t80.5 94.5h167q-19 -109 -134 -194.5t-278 -85.5zM393 643l-22 -121q-11 -61 -11 -105q0 -131 72.5 -209.5t196.5 -78.5q119 0 192.5 75.5
t97.5 216.5l23 131q5 31 5 82q0 131 -72.5 209.5t-195.5 78.5q-111 0 -186 -69.5t-100 -209.5zM1651 614l1 9l2 9q23 124 -37 209t-189 85q-105 0 -184.5 -60.5t-105.5 -181.5l-15 -70h528z" />
    <glyph glyph-name="Racute" unicode="&#x154;" horiz-adv-x="1261" 
d="M704 1500l295 193h217l-327 -193h-185zM360 0h-170l242 1366h453q191 0 293 -95.5t102 -251.5q0 -45 -6 -85q-19 -139 -106 -231t-212 -124l189 -579h-184l-176 553q-27 -2 -68 -2h-260zM845 1218h-269l-93 -520h260q317 0 352 248q5 33 5 67q0 94 -61 149.5t-194 55.5z
" />
    <glyph glyph-name="racute" unicode="&#x155;" horiz-adv-x="783" 
d="M609 1209h-128l293 354h183zM174 0l185 1050h159l-32 -175h12q32 80 111.5 136t190.5 56q39 0 83 -7l-35 -160q-29 11 -85 11q-133 0 -212.5 -87.5t-103.5 -226.5l-106 -597h-167z" />
    <glyph glyph-name="Rcommaaccent" unicode="&#x156;" horiz-adv-x="1261" 
d="M360 0h-170l242 1366h453q191 0 293 -95.5t102 -251.5q0 -45 -6 -85q-19 -139 -106 -231t-212 -124l189 -579h-184l-176 553q-27 -2 -68 -2h-260zM845 1218h-269l-93 -520h260q317 0 352 248q5 33 5 67q0 94 -61 149.5t-194 55.5zM534 -446h-123l80 306h147z" />
    <glyph glyph-name="rcommaaccent" unicode="&#x157;" horiz-adv-x="783" 
d="M174 0l185 1050h159l-32 -175h12q32 80 111.5 136t190.5 56q39 0 83 -7l-35 -160q-29 11 -85 11q-133 0 -212.5 -87.5t-103.5 -226.5l-106 -597h-167zM214 -446h-123l80 306h147z" />
    <glyph glyph-name="Rcaron" unicode="&#x158;" horiz-adv-x="1261" 
d="M360 0h-170l242 1366h453q191 0 293 -95.5t102 -251.5q0 -45 -6 -85q-19 -139 -106 -231t-212 -124l189 -579h-184l-176 553q-27 -2 -68 -2h-260zM845 1218h-269l-93 -520h260q317 0 352 248q5 33 5 67q0 94 -61 149.5t-194 55.5zM1238 1713l-305 -225h-161l-226 225h187
l126 -130h6l170 130h203z" />
    <glyph glyph-name="rcaron" unicode="&#x159;" horiz-adv-x="783" 
d="M553 1216l-181 380h143l110 -268h3l198 268h148l-307 -380h-114zM174 0l185 1050h159l-32 -175h12q32 80 111.5 136t190.5 56q39 0 83 -7l-35 -160q-29 11 -85 11q-133 0 -212.5 -87.5t-103.5 -226.5l-106 -597h-167z" />
    <glyph glyph-name="Sacute" unicode="&#x15a;" horiz-adv-x="1208" 
d="M706 1500l295 193h217l-327 -193h-185zM181 382h167q-1 -8 -1 -25q0 -92 88.5 -162.5t233.5 -70.5q138 0 221.5 66.5t83.5 174.5q0 49 -18.5 86.5t-56.5 65t-75.5 45.5t-95.5 39l-58 22q-75 27 -132.5 57.5t-114 77t-87.5 111.5t-31 144q0 118 63 206t167.5 132t233.5 44
q116 0 214 -40.5t161 -122.5t63 -190q0 -2 -1 -18l-1 -17h-161v2q0 2 0.5 5.5t0.5 8.5q0 99 -80.5 159t-197.5 60q-71 0 -134 -22t-107 -73.5t-44 -123.5q0 -44 19 -80.5t56.5 -65.5t79.5 -50t102 -45l77 -30q52 -21 86.5 -36.5t77.5 -39.5t70.5 -50.5t52.5 -61.5t37 -80.5
t12 -100.5q0 -192 -136 -301.5t-355 -109.5q-213 0 -348 108.5t-135 255.5q0 25 3 46z" />
    <glyph glyph-name="sacute" unicode="&#x15b;" horiz-adv-x="1029" 
d="M275 764q0 140 98.5 223t276.5 83q90 0 163.5 -26t119 -68t70 -92.5t24.5 -101.5v-19h-156v8q0 60 -60 112.5t-164 52.5q-96 0 -151.5 -43.5t-55.5 -108.5q0 -30 13.5 -55t29.5 -40t53 -32.5t57.5 -25t69.5 -23.5q45 -15 76.5 -27.5t68.5 -31t61.5 -41t45.5 -51.5
t31.5 -67t10.5 -84q0 -154 -107.5 -239.5t-293.5 -85.5q-179 0 -294 90t-115 216v9h159q0 -6 2 -18q13 -63 82.5 -109t175.5 -46q108 0 167 46t59 123q0 32 -12.5 57.5t-29 42t-50 32.5t-57 24t-68.5 22q-31 10 -52 17t-55.5 22t-58 29.5t-51 38t-44 49.5t-28 61.5
t-11.5 76.5zM732 1209h-128l293 354h183z" />
    <glyph glyph-name="Scircumflex" unicode="&#x15c;" horiz-adv-x="1208" 
d="M181 382h167q-1 -8 -1 -25q0 -92 88.5 -162.5t233.5 -70.5q138 0 221.5 66.5t83.5 174.5q0 49 -18.5 86.5t-56.5 65t-75.5 45.5t-95.5 39l-58 22q-75 27 -132.5 57.5t-114 77t-87.5 111.5t-31 144q0 118 63 206t167.5 132t233.5 44q116 0 214 -40.5t161 -122.5t63 -190
q0 -2 -1 -18l-1 -17h-161v2q0 2 0.5 5.5t0.5 8.5q0 99 -80.5 159t-197.5 60q-71 0 -134 -22t-107 -73.5t-44 -123.5q0 -44 19 -80.5t56.5 -65.5t79.5 -50t102 -45l77 -30q52 -21 86.5 -36.5t77.5 -39.5t70.5 -50.5t52.5 -61.5t37 -80.5t12 -100.5q0 -192 -136 -301.5
t-355 -109.5q-213 0 -348 108.5t-135 255.5q0 25 3 46zM512 1483l296 234h176l200 -234h-166l-133 146h-12l-184 -146h-177z" />
    <glyph glyph-name="scircumflex" unicode="&#x15d;" horiz-adv-x="1029" 
d="M424 1200l307 379h114l181 -379h-143l-110 267h-4l-198 -267h-147zM275 764q0 140 98.5 223t276.5 83q90 0 163.5 -26t119 -68t70 -92.5t24.5 -101.5v-19h-156v8q0 60 -60 112.5t-164 52.5q-96 0 -151.5 -43.5t-55.5 -108.5q0 -30 13.5 -55t29.5 -40t53 -32.5t57.5 -25
t69.5 -23.5q45 -15 76.5 -27.5t68.5 -31t61.5 -41t45.5 -51.5t31.5 -67t10.5 -84q0 -154 -107.5 -239.5t-293.5 -85.5q-179 0 -294 90t-115 216v9h159q0 -6 2 -18q13 -63 82.5 -109t175.5 -46q108 0 167 46t59 123q0 32 -12.5 57.5t-29 42t-50 32.5t-57 24t-68.5 22
q-31 10 -52 17t-55.5 22t-58 29.5t-51 38t-44 49.5t-28 61.5t-11.5 76.5z" />
    <glyph glyph-name="Scedilla" unicode="&#x15e;" horiz-adv-x="1208" 
d="M616 -484q-81 0 -159 28l17 102q60 -19 130 -19q108 0 108 73q0 74 -139 74h-50l9 79l41 126q-177 23 -285 125.5t-108 231.5q0 25 3 46h167q-1 -8 -1 -25q0 -92 88.5 -162.5t233.5 -70.5q138 0 222 66.5t84 174.5q0 39 -14 72t-34.5 55.5t-55.5 43.5t-66 34.5t-77 30.5
l-58 22q-75 27 -132.5 57.5t-114 77t-87.5 111.5t-31 144q0 118 63 206t167.5 132t233.5 44q116 0 214 -40.5t161 -122.5t63 -190q0 -2 -1 -18l-1 -17h-161v2q0 2 0.5 5.5t0.5 8.5q0 99 -80.5 159t-197.5 60q-71 0 -134 -22t-107 -73.5t-44 -123.5q0 -44 19 -80.5
t56.5 -65.5t79.5 -50t102 -45l77 -30q52 -21 86.5 -36.5t77.5 -39.5t70.5 -50.5t52.5 -61.5t37 -80.5t12 -100.5q0 -184 -126 -292.5t-332 -117.5l-34 -108q85 -2 137.5 -42.5t52.5 -114.5v-2q-1 -89 -67.5 -139.5t-168.5 -50.5z" />
    <glyph glyph-name="scedilla" unicode="&#x15f;" horiz-adv-x="1029" 
d="M498 -484q-81 0 -159 28l18 102q59 -19 129 -19q108 0 109 73q0 43 -38 58.5t-102 15.5h-50l9 79l45 136q-140 24 -225 107.5t-85 190.5v9h159q0 -6 2 -18q13 -63 82.5 -109t175.5 -46q108 0 167 46t59 123q0 32 -12.5 57.5t-29 42t-50 32.5t-57 24t-68.5 22
q-31 10 -52 17t-55.5 22t-58 29.5t-51 38t-44 49.5t-28 61.5t-11.5 76.5q0 140 98.5 223t276.5 83q90 0 163.5 -26t119 -68t70 -92.5t24.5 -101.5v-19h-156v8q0 60 -60 112.5t-164 52.5q-96 0 -151.5 -43.5t-55.5 -108.5q0 -30 13.5 -55t29.5 -40t53 -32.5t57.5 -25
t69.5 -23.5q45 -15 76.5 -27.5t68.5 -31t61.5 -41t45.5 -51.5t31.5 -67t10.5 -84q0 -149 -100.5 -234t-276.5 -91l-38 -116q86 -2 138.5 -42.5t52.5 -114.5q0 -1 -1 -2q0 -89 -67 -139.5t-169 -50.5z" />
    <glyph glyph-name="Scaron" unicode="&#x160;" horiz-adv-x="1208" 
d="M181 382h167q-1 -8 -1 -25q0 -92 88.5 -162.5t233.5 -70.5q138 0 221.5 66.5t83.5 174.5q0 49 -18.5 86.5t-56.5 65t-75.5 45.5t-95.5 39l-58 22q-75 27 -132.5 57.5t-114 77t-87.5 111.5t-31 144q0 118 63 206t167.5 132t233.5 44q116 0 214 -40.5t161 -122.5t63 -190
q0 -2 -1 -18l-1 -17h-161v2q0 2 0.5 5.5t0.5 8.5q0 99 -80.5 159t-197.5 60q-71 0 -134 -22t-107 -73.5t-44 -123.5q0 -44 19 -80.5t56.5 -65.5t79.5 -50t102 -45l77 -30q52 -21 86.5 -36.5t77.5 -39.5t70.5 -50.5t52.5 -61.5t37 -80.5t12 -100.5q0 -192 -136 -301.5
t-355 -109.5q-213 0 -348 108.5t-135 255.5q0 25 3 46zM1240 1713l-305 -225h-161l-226 225h187l126 -130h6l170 130h203z" />
    <glyph glyph-name="scaron" unicode="&#x161;" horiz-adv-x="1029" 
d="M676 1216l-181 380h143l110 -268h3l198 268h148l-307 -380h-114zM275 764q0 140 98.5 223t276.5 83q90 0 163.5 -26t119 -68t70 -92.5t24.5 -101.5v-19h-156v8q0 60 -60 112.5t-164 52.5q-96 0 -151.5 -43.5t-55.5 -108.5q0 -30 13.5 -55t29.5 -40t53 -32.5t57.5 -25
t69.5 -23.5q45 -15 76.5 -27.5t68.5 -31t61.5 -41t45.5 -51.5t31.5 -67t10.5 -84q0 -154 -107.5 -239.5t-293.5 -85.5q-179 0 -294 90t-115 216v9h159q0 -6 2 -18q13 -63 82.5 -109t175.5 -46q108 0 167 46t59 123q0 32 -12.5 57.5t-29 42t-50 32.5t-57 24t-68.5 22
q-31 10 -52 17t-55.5 22t-58 29.5t-51 38t-44 49.5t-28 61.5t-11.5 76.5z" />
    <glyph glyph-name="Tcedilla" unicode="&#x162;" horiz-adv-x="1123" 
d="M519 0h-42l216 1213h-423l26 153h1013l-24 -153h-422l-216 -1213h-4l-43 -135q85 -2 137.5 -42.5t52.5 -114.5v-2q-1 -89 -67.5 -139.5t-168.5 -50.5q-81 0 -159 28l18 102q59 -19 129 -19q108 0 108 73q0 74 -139 74h-50l9 79z" />
    <glyph glyph-name="tcedilla" unicode="&#x163;" horiz-adv-x="761" 
d="M405 -464q-81 0 -159 28l17 102q66 -19 130 -19q108 0 108 73v1q0 74 -139 74h-50l9 78l51 153q-102 47 -102 173q0 53 16 139l99 560h-159l25 138h159l49 277h166l-48 -277h229l-24 -138h-230l-86 -493q-23 -128 -23 -161q0 -51 28.5 -78.5t97.5 -27.5q78 0 128 12
l-26 -138q-56 -14 -144 -14q-27 0 -39 1l-37 -114q85 -2 137.5 -42.5t52.5 -114.5v-2q-1 -89 -67.5 -139.5t-168.5 -50.5z" />
    <glyph glyph-name="Tcaron" unicode="&#x164;" horiz-adv-x="1123" 
d="M1215 1713l-305 -225h-161l-226 225h187l126 -130h6l170 130h203zM647 0h-170l216 1213h-423l26 153h1013l-24 -153h-422z" />
    <glyph glyph-name="tcaron" unicode="&#x165;" horiz-adv-x="761" 
d="M861 1693h169l-143 -488h-119zM405 1036l49 277h165l-47 -277h229l-24 -138h-230l-86 -493q-23 -128 -23 -161q0 -51 28.5 -78.5t97.5 -27.5q78 0 128 12l-26 -138q-56 -14 -144 -14q-257 0 -257 201q0 53 16 139l99 560h-159l25 138h159z" />
    <glyph glyph-name="Tbar" unicode="&#x166;" horiz-adv-x="1123" 
d="M990 648h-228l-115 -648h-170l115 648h-235l23 131h235l78 434h-423l26 153h1013l-24 -153h-422l-78 -434h227z" />
    <glyph glyph-name="tbar" unicode="&#x167;" horiz-adv-x="761" 
d="M671 12q-56 -14 -144 -14q-257 0 -257 201q0 53 16 139l36 200h-139l22 129h139l41 231h-159l25 138h159l49 277h166l-48 -277h229l-24 -138h-230l-40 -231h179l-23 -129h-179l-23 -133q-23 -128 -23 -161q0 -51 28.5 -78.5t97.5 -27.5q78 0 128 12z" />
    <glyph glyph-name="Utilde" unicode="&#x168;" horiz-adv-x="1380" 
d="M589 1366l-147 -829q-8 -40 -8 -99q0 -137 85 -221t230 -84q136 0 230 78t122 231l163 924h174l-166 -940q-41 -228 -180 -341.5t-345 -113.5q-217 0 -353 118t-136 323q0 63 14 140l143 814h174zM926 1534l-9.5 9.5l-10 10t-9.5 9t-11.5 9.5t-11 6.5t-12.5 6.5t-12 3.5
t-14 1.5q-29 0 -46 -19.5t-21 -39.5t-6 -50h-121q0 93 48 157.5t142 64.5q81 0 161 -77l20 -20t21.5 -20.5t20 -11.5t27.5 -6q35 0 54 37t23 80h119q0 -85 -51.5 -154t-135.5 -69q-57 0 -93.5 18t-71.5 54z" />
    <glyph glyph-name="utilde" unicode="&#x169;" horiz-adv-x="1178" 
d="M1184 1050l-184 -1050h-158l32 180h-14q-39 -88 -119.5 -142.5t-190.5 -54.5q-158 0 -245 93t-87 234q0 71 21 180l103 560h167l-103 -570q-15 -84 -15 -138q0 -97 54 -153t162 -56q129 0 207.5 89t102.5 228l105 600h162zM900 1130q-83 0 -147 92q-4 6 -13.5 20t-14 20
t-13.5 16.5t-16 15t-17.5 8.5t-22.5 4q-21 0 -36 -10.5t-24.5 -30.5t-14.5 -37.5t-10 -43.5h-123q11 116 67 182.5t142 66.5q33 0 60 -9t49 -30t33 -34t31 -41q2 -3 8 -11t8 -10.5t7 -9.5t7.5 -9t7.5 -7t8.5 -6.5t8.5 -4t10 -3.5t11 -1q65 0 89 123h123q-6 -98 -67 -174
t-151 -76z" />
    <glyph glyph-name="Umacron" unicode="&#x16a;" horiz-adv-x="1380" 
d="M589 1366l-147 -829q-8 -40 -8 -99q0 -137 85 -221t230 -84q136 0 230 78t122 231l163 924h174l-166 -940q-41 -228 -180 -341.5t-345 -113.5q-217 0 -353 118t-136 323q0 63 14 140l143 814h174zM1311 1611l-18 -105h-680l18 105h680z" />
    <glyph glyph-name="umacron" unicode="&#x16b;" horiz-adv-x="1178" 
d="M1184 1050l-184 -1050h-158l32 180h-14q-39 -88 -119.5 -142.5t-190.5 -54.5q-158 0 -245 93t-87 234q0 71 21 180l103 560h167l-103 -570q-15 -84 -15 -138q0 -97 54 -153t162 -56q129 0 207.5 89t102.5 228l105 600h162zM1142 1311l-19 -105h-680l19 105h680z" />
    <glyph glyph-name="Ubreve" unicode="&#x16c;" horiz-adv-x="1380" 
d="M589 1366l-147 -829q-8 -40 -8 -99q0 -137 85 -221t230 -84q136 0 230 78t122 231l163 924h174l-166 -940q-41 -228 -180 -341.5t-345 -113.5q-217 0 -353 118t-136 323q0 63 14 140l143 814h174zM676 1747h121q-3 -65 44.5 -104.5t135.5 -39.5q86 0 140.5 41.5
t64.5 102.5h125q-5 -48 -27 -92t-62 -82t-106.5 -60.5t-149.5 -22.5q-149 0 -225.5 78.5t-60.5 178.5z" />
    <glyph glyph-name="ubreve" unicode="&#x16d;" horiz-adv-x="1178" 
d="M1184 1050l-184 -1050h-158l32 180h-14q-39 -88 -119.5 -142.5t-190.5 -54.5q-158 0 -245 93t-87 234q0 71 21 180l103 560h167l-103 -570q-15 -84 -15 -138q0 -97 54 -153t162 -56q129 0 207.5 89t102.5 228l105 600h162zM545 1468h117q-11 -67 28 -115t123 -48
q83 0 134.5 47t62.5 116h118q-5 -48 -26.5 -94t-59 -86.5t-97.5 -65.5t-133 -25q-59 0 -109 16.5t-82 44t-54 63t-25.5 73t3.5 74.5z" />
    <glyph glyph-name="Uring" unicode="&#x16e;" horiz-adv-x="1380" 
d="M589 1366l-147 -829q-8 -40 -8 -99q0 -137 85 -221t230 -84q136 0 230 78t122 231l163 924h174l-166 -940q-41 -228 -180 -341.5t-345 -113.5q-217 0 -353 118t-136 323q0 63 14 140l143 814h174zM999 1625q43 0 73.5 30.5t30.5 73.5t-30.5 73t-73.5 30q-42 0 -73 -30.5
t-31 -72.5q0 -43 31 -73.5t73 -30.5zM999 1539q-79 0 -134 55.5t-55 133.5q0 79 55 133.5t134 54.5q78 0 132.5 -54.5t54.5 -132.5q0 -79 -55 -134.5t-132 -55.5z" />
    <glyph glyph-name="uring" unicode="&#x16f;" horiz-adv-x="1178" 
d="M1184 1050l-184 -1050h-158l32 180h-14q-39 -88 -119.5 -142.5t-190.5 -54.5q-158 0 -245 93t-87 234q0 71 21 180l103 560h167l-103 -570q-15 -84 -15 -138q0 -97 54 -153t162 -56q129 0 207.5 89t102.5 228l105 600h162zM833 1310q43 0 73.5 30.5t30.5 73.5t-30.5 73
t-73.5 30q-42 0 -73 -30.5t-31 -72.5q0 -43 31 -73.5t73 -30.5zM833 1224q-79 0 -134 55.5t-55 133.5q0 79 55 133.5t134 54.5q78 0 132.5 -54.5t54.5 -132.5q0 -79 -55 -134.5t-132 -55.5z" />
    <glyph glyph-name="Uhungarumlaut" unicode="&#x170;" horiz-adv-x="1380" 
d="M589 1366l-147 -829q-8 -40 -8 -99q0 -137 85 -221t230 -84q136 0 230 78t122 231l163 924h174l-166 -940q-41 -228 -180 -341.5t-345 -113.5q-217 0 -353 118t-136 323q0 63 14 140l143 814h174zM684 1500l315 250h176l-328 -250h-163zM1030 1500l314 250h176l-328 -250
h-162z" />
    <glyph glyph-name="uhungarumlaut" unicode="&#x171;" horiz-adv-x="1178" 
d="M710 1209h-123l250 302h182zM1010 1209h-127l254 302h178zM1184 1050l-184 -1050h-158l32 180h-14q-39 -88 -119.5 -142.5t-190.5 -54.5q-158 0 -245 93t-87 234q0 71 21 180l103 560h167l-103 -570q-15 -84 -15 -138q0 -97 54 -153t162 -56q129 0 207.5 89t102.5 228
l105 600h162z" />
    <glyph glyph-name="Uogonek" unicode="&#x172;" horiz-adv-x="1380" 
d="M1082 73q-16 -15 -51.5 -45.5t-51.5 -46t-38 -40t-33 -47.5t-15 -48q-9 -53 18.5 -77.5t80.5 -24.5q41 0 76 10l-21 -121q-54 -19 -113 -18q-42 0 -79 11.5t-65.5 34t-41.5 61.5t-4 88q21 122 143 201l-4 9q-34 -21 -87.5 -34.5t-99.5 -13.5q-87 0 -166 30.5t-140 85.5
t-96.5 139t-35.5 185q0 63 14 140l143 814h174l-147 -829q-8 -40 -8 -99q0 -137 85 -221t230 -84q137 0 231 78t121 231l164 924h174l-166 -940q-40 -222 -191 -353z" />
    <glyph glyph-name="uogonek" unicode="&#x173;" horiz-adv-x="1178" 
d="M979 -247l-20 -118q-50 -20 -126 -20q-85 0 -137.5 52t-45.5 137q2 23 9.5 45.5t16.5 39.5t25 35.5t28 30t32.5 27.5t31 23t31.5 20.5t27 17.5l25 137h-14q-39 -88 -119.5 -142.5t-190.5 -54.5q-158 0 -245 93t-87 235q0 70 21 179l103 560h167l-103 -570
q-15 -84 -15 -138q0 -98 54 -153.5t162 -55.5q129 0 207.5 89t102.5 228l105 600h162l-183 -1046q-75 -19 -136 -65.5t-67 -102.5q-4 -46 21 -69t75 -23q46 0 83 9z" />
    <glyph glyph-name="Wcircumflex" unicode="&#x174;" horiz-adv-x="1771" 
d="M805 1483l296 234h176l200 -234h-166l-133 146h-12l-184 -146h-177zM571 0h-176l-83 1366h182l37 -1110h11l496 1110h155l115 -1110h11l437 1110h182l-566 -1366h-171l-126 1080h-11z" />
    <glyph glyph-name="wcircumflex" unicode="&#x175;" horiz-adv-x="1459" 
d="M610 1200l307 379h114l181 -379h-143l-110 267h-4l-198 -267h-147zM1565 1050l-467 -1050h-177l-74 815h-7l-330 -815h-186l-120 1050h171l69 -860h9l350 860h151l78 -860h9l352 860h172z" />
    <glyph glyph-name="Ycircumflex" unicode="&#x176;" horiz-adv-x="1131" 
d="M750 584l-103 -584h-170l103 582l-332 784h179l253 -629h11l459 629h200zM489 1483l296 234h176l200 -234h-166l-133 146h-12l-184 -146h-177z" />
    <glyph glyph-name="ycircumflex" unicode="&#x177;" horiz-adv-x="1041" 
d="M1146 1050l-539 -1043q0 -1 -21 -41l-21 -40q-33 -64 -58.5 -104t-59 -76t-72 -55t-91 -30t-121.5 -11q-46 0 -87 12l32 137q35 -9 77 -9q86 0 134 42.5t88 130.5l24 53l-200 1034h178l136 -853h12l409 853h180zM427 1200l307 379h114l181 -379h-143l-110 267h-4
l-198 -267h-147z" />
    <glyph glyph-name="Ydieresis" unicode="&#x178;" horiz-adv-x="1131" 
d="M750 584l-103 -584h-170l103 582l-332 784h179l253 -629h11l459 629h200zM565 1588q0 45 29 73t74 28t74 -28t29 -73q0 -43 -29.5 -71t-73.5 -28t-73.5 28t-29.5 71zM912 1588q0 45 28.5 73t71.5 28q47 0 76.5 -28t29.5 -73q0 -43 -30 -71t-76 -28q-42 0 -71 28.5
t-29 70.5z" />
    <glyph glyph-name="Zacute" unicode="&#x179;" horiz-adv-x="1206" 
d="M741 1500l295 193h217l-327 -193h-185zM152 0l22 132l908 1070l2 14h-721l25 150h929l-20 -138l-906 -1065l-3 -13h751l-27 -150h-960z" />
    <glyph glyph-name="zacute" unicode="&#x17a;" horiz-adv-x="967" 
d="M698 1209h-128l293 354h183zM118 0l27 158l681 743l2 13h-580l26 136h775l-27 -155l-679 -740l-3 -13h581l-25 -142h-778z" />
    <glyph glyph-name="Zdotaccent" unicode="&#x17b;" horiz-adv-x="1206" 
d="M152 0l22 132l908 1070l2 14h-721l25 150h929l-20 -138l-906 -1065l-3 -13h751l-27 -150h-960zM796 1607q0 48 30.5 78.5t75.5 30.5q48 0 79 -30.5t31 -78.5q0 -47 -31 -77t-79 -30q-45 0 -75.5 30.5t-30.5 76.5z" />
    <glyph glyph-name="zdotaccent" unicode="&#x17c;" horiz-adv-x="967" 
d="M601 1292q0 48 30.5 78.5t75.5 30.5q48 0 79 -30.5t31 -78.5q0 -47 -31 -77t-79 -30q-45 0 -75.5 30.5t-30.5 76.5zM118 0l27 158l681 743l2 13h-580l26 136h775l-27 -155l-679 -740l-3 -13h581l-25 -142h-778z" />
    <glyph glyph-name="Zcaron" unicode="&#x17d;" horiz-adv-x="1206" 
d="M152 0l22 132l908 1070l2 14h-721l25 150h929l-20 -138l-906 -1065l-3 -13h751l-27 -150h-960zM1275 1713l-305 -225h-161l-226 225h187l126 -130h6l170 130h203z" />
    <glyph glyph-name="zcaron" unicode="&#x17e;" horiz-adv-x="967" 
d="M642 1216l-181 380h143l110 -268h3l198 268h148l-307 -380h-114zM118 0l27 158l681 743l2 13h-580l26 136h775l-27 -155l-679 -740l-3 -13h581l-25 -142h-778z" />
    <glyph glyph-name="florin" unicode="&#x192;" horiz-adv-x="1127" 
d="M327 -186l174 954h-217l24 139h218l32 188q50 299 348 299q63 0 113 -17.5t80 -44.5t49.5 -61.5t26 -67.5t4.5 -64h-154q2 55 -37 85t-96 30q-72 0 -113 -44.5t-56 -133.5l-29 -169h294l-25 -139h-294l-173 -954h-169z" />
    <glyph glyph-name="Ohorn" unicode="&#x1a0;" horiz-adv-x="1544" 
d="M458 860l-36 -194q-15 -82 -15 -159q0 -173 100 -274t275 -101q160 0 260 98.5t135 293.5l36 209q9 49 9 133q0 167 -100.5 268t-271.5 101q-151 0 -253.5 -91t-138.5 -284zM1343 479q-45 -246 -192.5 -377t-394.5 -131q-228 0 -375 136.5t-147 374.5q0 115 15 199
l38 210q43 239 197 371t371 132q146 0 260 -51q4 -2 21 -9t22.5 -9t20 -7t22.5 -7t20.5 -5t23.5 -4t23 -1q136 0 165 159l14 89h147l-13 -91q-24 -136 -92 -209t-182 -70q89 -131 89 -320q0 -90 -15 -168z" />
    <glyph glyph-name="ohorn" unicode="&#x1a1;" horiz-adv-x="1218" 
d="M614 -17q-181 0 -299.5 109t-118.5 296q0 85 12 149l24 137q32 183 154.5 288.5t295.5 105.5q65 0 152.5 -23t131.5 -23q73 0 111.5 40t51.5 117l28 156h149l-27 -147q-11 -67 -26.5 -113t-42 -85t-68 -58t-100.5 -20l-3 -9q31 -43 53.5 -112t22.5 -147q0 -58 -12 -126
l-25 -137q-36 -189 -152 -293.5t-312 -104.5zM393 643l-22 -121q-10 -66 -10 -111q0 -127 73 -204.5t199 -77.5q115 0 188.5 76t97.5 216l23 131q5 31 5 94q0 122 -73 199t-196 77q-110 0 -185 -70t-100 -209z" />
    <glyph glyph-name="Uhorn" unicode="&#x1af;" horiz-adv-x="1642" 
d="M748 -29q-217 0 -353 118t-136 323q0 63 14 140l143 814h173l-146 -829q-8 -40 -8 -99q0 -137 85 -221t230 -84q136 0 230 78t122 231l163 924h169q75 0 112 40.5t51 116.5l18 99h146l-17 -100q-21 -126 -96.5 -202t-199.5 -76h-30l-145 -818q-41 -228 -180 -341.5
t-345 -113.5z" />
    <glyph glyph-name="uhorn" unicode="&#x1b0;" horiz-adv-x="1336" 
d="M862 180q-39 -88 -119.5 -142.5t-190.5 -54.5q-158 0 -245 93t-87 234q0 71 21 180l103 560h167l-103 -570q-15 -84 -15 -138q0 -97 54 -153t162 -56q129 0 207.5 89t102.5 228l106 600h143q75 0 111.5 40.5t50.5 117.5l23 127h148l-23 -129q-21 -126 -95 -201t-201 -75
h-17l-164 -930h-157l32 180h-14z" />
    <glyph glyph-name="Acaron" unicode="&#x1cd;" horiz-adv-x="1246" 
d="M45 0l726 1366h183l244 -1366h-175l-67 414h-515l-214 -414h-182zM836 1160h-12l-310 -606h419zM1275 1713l-305 -225h-161l-226 225h187l126 -130h6l170 130h203z" />
    <glyph glyph-name="acaron" unicode="&#x1ce;" horiz-adv-x="1105" 
d="M485 -17q-135 0 -226 79.5t-91 213.5q0 28 2 46q14 135 121 213.5t304 78.5h283l12 67q4 22 4 48q0 37 -11.5 70t-36.5 62.5t-70.5 47t-107.5 17.5q-93 0 -150 -36.5t-76 -92.5h-163q23 122 130 196.5t273 74.5q179 0 275.5 -91t96.5 -238q0 -58 -20 -164l-101 -575h-162
l25 142h-11q-33 -64 -111.5 -111.5t-188.5 -47.5zM337 297q0 -73 51 -120t141 -47q110 0 195 65t104 165l25 126h-269q-122 0 -184.5 -54t-62.5 -135zM675 1216l-181 380h143l110 -268h3l198 268h148l-307 -380h-114z" />
    <glyph glyph-name="Icaron" unicode="&#x1cf;" horiz-adv-x="553" 
d="M360 0h-170l241 1366h170zM934 1713l-305 -225h-161l-226 225h187l126 -130h6l170 130h203z" />
    <glyph glyph-name="icaron" unicode="&#x1d0;" horiz-adv-x="581" 
d="M440 1216l-181 380h143l110 -268h3l198 268h148l-307 -380h-114zM192 0l186 1050h168l-186 -1050h-168z" />
    <glyph glyph-name="Ocaron" unicode="&#x1d1;" horiz-adv-x="1384" 
d="M1347 1713l-305 -225h-161l-226 225h187l126 -130h6l170 130h203zM458 860l-36 -194q-15 -82 -15 -159q0 -173 100 -274t275 -101q323 0 394 392l37 209q9 49 9 133q0 167 -100.5 268t-271.5 101q-151 0 -253.5 -91t-138.5 -284zM249 681l38 210q43 239 197 371.5
t371 132.5q244 0 392.5 -143t148.5 -393q0 -90 -15 -168l-39 -212q-45 -246 -192 -377t-394 -131q-228 0 -375 136.5t-147 374.5q0 115 15 199z" />
    <glyph glyph-name="ocaron" unicode="&#x1d2;" horiz-adv-x="1132" 
d="M716 1216l-181 380h143l110 -268h3l198 268h148l-307 -380h-114zM391 643l-22 -121q-10 -66 -10 -111q0 -127 73 -204.5t199 -77.5q115 0 188.5 76t97.5 216l23 131q5 31 5 94q0 122 -73 199t-196 77q-110 0 -185 -70t-100 -209zM206 537l24 137q32 183 154.5 288.5
t295.5 105.5q195 0 314 -114.5t119 -309.5q0 -58 -12 -126l-25 -137q-36 -189 -152 -293.5t-312 -104.5q-181 0 -299.5 109t-118.5 296q0 85 12 149z" />
    <glyph glyph-name="Ucaron" unicode="&#x1d3;" horiz-adv-x="1380" 
d="M1349 1713l-305 -225h-161l-226 225h187l126 -130h6l170 130h203zM589 1366l-147 -829q-8 -40 -8 -99q0 -137 85 -221t230 -84q136 0 230 78t122 231l163 924h174l-166 -940q-41 -228 -180 -341.5t-345 -113.5q-217 0 -353 118t-136 323q0 63 14 140l143 814h174z" />
    <glyph glyph-name="ucaron" unicode="&#x1d4;" horiz-adv-x="1178" 
d="M745 1216l-181 380h143l110 -268h3l198 268h148l-307 -380h-114zM1184 1050l-184 -1050h-158l32 180h-14q-39 -88 -119.5 -142.5t-190.5 -54.5q-158 0 -245 93t-87 234q0 71 21 180l103 560h167l-103 -570q-15 -84 -15 -138q0 -97 54 -153t162 -56q129 0 207.5 89
t102.5 228l105 600h162z" />
    <glyph glyph-name="Udieresismacron" unicode="&#x1d5;" horiz-adv-x="1380" 
d="M697 1588q0 45 29 73t74 28t74 -28t29 -73q0 -43 -29.5 -71t-73.5 -28t-73.5 28t-29.5 71zM1044 1588q0 45 28.5 73t71.5 28q47 0 76.5 -28t29.5 -73q0 -43 -30 -71t-76 -28q-42 0 -71 28.5t-29 70.5zM589 1366l-147 -829q-8 -40 -8 -99q0 -137 85 -221t230 -84
q136 0 230 78t122 231l163 924h174l-166 -940q-41 -228 -180 -341.5t-345 -113.5q-217 0 -353 118t-136 323q0 63 14 140l143 814h174zM1363 1893l-18 -105h-680l18 105h680z" />
    <glyph glyph-name="udieresismacron" unicode="&#x1d6;" horiz-adv-x="1178" 
d="M1184 1050l-184 -1050h-158l32 180h-14q-39 -88 -119.5 -142.5t-190.5 -54.5q-158 0 -245 93t-87 234q0 71 21 180l103 560h167l-103 -570q-15 -84 -15 -138q0 -97 54 -153t162 -56q129 0 207.5 89t102.5 228l105 600h162zM521 1297q0 46 31 75.5t77 29.5
q47 0 77.5 -29.5t30.5 -75.5q0 -44 -30.5 -73t-77.5 -29q-46 0 -77 29t-31 73zM882 1297q0 46 30 75.5t74 29.5q49 0 80 -29.5t31 -75.5q0 -44 -31 -73t-80 -29q-44 0 -74 29t-30 73zM1202 1641l-19 -105h-680l19 105h680z" />
    <glyph glyph-name="Udieresisacute" unicode="&#x1d7;" horiz-adv-x="1380" 
d="M856 1724l295 193h217l-327 -193h-185zM697 1588q0 45 29 73t74 28t74 -28t29 -73q0 -43 -29.5 -71t-73.5 -28t-73.5 28t-29.5 71zM1044 1588q0 45 28.5 73t71.5 28q47 0 76.5 -28t29.5 -73q0 -43 -30 -71t-76 -28q-42 0 -71 28.5t-29 70.5zM589 1366l-147 -829
q-8 -40 -8 -99q0 -137 85 -221t230 -84q136 0 230 78t122 231l163 924h174l-166 -940q-41 -228 -180 -341.5t-345 -113.5q-217 0 -353 118t-136 323q0 63 14 140l143 814h174z" />
    <glyph glyph-name="udieresisacute" unicode="&#x1d8;" horiz-adv-x="1178" 
d="M848 1466h-128l293 354h183zM1184 1050l-184 -1050h-158l32 180h-14q-39 -88 -119.5 -142.5t-190.5 -54.5q-158 0 -245 93t-87 234q0 71 21 180l103 560h167l-103 -570q-15 -84 -15 -138q0 -97 54 -153t162 -56q129 0 207.5 89t102.5 228l105 600h162zM521 1297
q0 46 31 75.5t77 29.5q47 0 77.5 -29.5t30.5 -75.5q0 -44 -30.5 -73t-77.5 -29q-46 0 -77 29t-31 73zM882 1297q0 46 30 75.5t74 29.5q49 0 80 -29.5t31 -75.5q0 -44 -31 -73t-80 -29q-44 0 -74 29t-30 73z" />
    <glyph glyph-name="Udieresiscaron" unicode="&#x1d9;" horiz-adv-x="1380" 
d="M697 1588q0 45 29 73t74 28t74 -28t29 -73q0 -43 -29.5 -71t-73.5 -28t-73.5 28t-29.5 71zM1044 1588q0 45 28.5 73t71.5 28q47 0 76.5 -28t29.5 -73q0 -43 -30 -71t-76 -28q-42 0 -71 28.5t-29 70.5zM1390 1937l-305 -225h-161l-226 225h187l126 -130h6l170 130h203z
M589 1366l-147 -829q-8 -40 -8 -99q0 -137 85 -221t230 -84q136 0 230 78t122 231l163 924h174l-166 -940q-41 -228 -180 -341.5t-345 -113.5q-217 0 -353 118t-136 323q0 63 14 140l143 814h174z" />
    <glyph glyph-name="udieresiscaron" unicode="&#x1da;" horiz-adv-x="1178" 
d="M792 1473l-181 380h143l110 -268h3l198 268h148l-307 -380h-114zM1184 1050l-184 -1050h-158l32 180h-14q-39 -88 -119.5 -142.5t-190.5 -54.5q-158 0 -245 93t-87 234q0 71 21 180l103 560h167l-103 -570q-15 -84 -15 -138q0 -97 54 -153t162 -56q129 0 207.5 89
t102.5 228l105 600h162zM521 1297q0 46 31 75.5t77 29.5q47 0 77.5 -29.5t30.5 -75.5q0 -44 -30.5 -73t-77.5 -29q-46 0 -77 29t-31 73zM882 1297q0 46 30 75.5t74 29.5q49 0 80 -29.5t31 -75.5q0 -44 -31 -73t-80 -29q-44 0 -74 29t-30 73z" />
    <glyph glyph-name="Udieresisgrave" unicode="&#x1db;" horiz-adv-x="1380" 
d="M1123 1724h-179l-303 192h207zM697 1588q0 45 29 73t74 28t74 -28t29 -73q0 -43 -29.5 -71t-73.5 -28t-73.5 28t-29.5 71zM1044 1588q0 45 28.5 73t71.5 28q47 0 76.5 -28t29.5 -73q0 -43 -30 -71t-76 -28q-42 0 -71 28.5t-29 70.5zM589 1366l-147 -829q-8 -40 -8 -99
q0 -137 85 -221t230 -84q136 0 230 78t122 231l163 924h174l-166 -940q-41 -228 -180 -341.5t-345 -113.5q-217 0 -353 118t-136 323q0 63 14 140l143 814h174z" />
    <glyph glyph-name="udieresisgrave" unicode="&#x1dc;" horiz-adv-x="1178" 
d="M942 1466h-135l-240 354h187zM1184 1050l-184 -1050h-158l32 180h-14q-39 -88 -119.5 -142.5t-190.5 -54.5q-158 0 -245 93t-87 234q0 71 21 180l103 560h167l-103 -570q-15 -84 -15 -138q0 -97 54 -153t162 -56q129 0 207.5 89t102.5 228l105 600h162zM521 1297
q0 46 31 75.5t77 29.5q47 0 77.5 -29.5t30.5 -75.5q0 -44 -30.5 -73t-77.5 -29q-46 0 -77 29t-31 73zM882 1297q0 46 30 75.5t74 29.5q49 0 80 -29.5t31 -75.5q0 -44 -31 -73t-80 -29q-44 0 -74 29t-30 73z" />
    <glyph glyph-name="Adieresismacron" unicode="&#x1de;" horiz-adv-x="1246" 
d="M45 0l726 1366h183l244 -1366h-175l-67 414h-515l-214 -414h-182zM836 1160h-12l-310 -606h419zM623 1588q0 45 29 73t74 28t74 -28t29 -73q0 -43 -29.5 -71t-73.5 -28t-73.5 28t-29.5 71zM970 1588q0 45 28.5 73t71.5 28q47 0 76.5 -28t29.5 -73q0 -43 -30 -71t-76 -28
q-42 0 -71 28.5t-29 70.5zM1288 1893l-18 -105h-680l18 105h680z" />
    <glyph glyph-name="adieresismacron" unicode="&#x1df;" horiz-adv-x="1105" 
d="M485 -17q-135 0 -226 79.5t-91 213.5q0 28 2 46q14 135 121 213.5t304 78.5h283l12 67q4 22 4 48q0 37 -11.5 70t-36.5 62.5t-70.5 47t-107.5 17.5q-93 0 -150 -36.5t-76 -92.5h-163q23 122 130 196.5t273 74.5q179 0 275.5 -91t96.5 -238q0 -58 -20 -164l-101 -575h-162
l25 142h-11q-33 -64 -111.5 -111.5t-188.5 -47.5zM337 297q0 -73 51 -120t141 -47q110 0 195 65t104 165l25 126h-269q-122 0 -184.5 -54t-62.5 -135zM451 1297q0 46 31 75.5t77 29.5q47 0 77.5 -29.5t30.5 -75.5q0 -44 -30.5 -73t-77.5 -29q-46 0 -77 29t-31 73zM812 1297
q0 46 30 75.5t74 29.5q49 0 80 -29.5t31 -75.5q0 -44 -31 -73t-80 -29q-44 0 -74 29t-30 73zM1131 1641l-19 -105h-680l19 105h680z" />
    <glyph glyph-name="Adotmacron" unicode="&#x1e0;" horiz-adv-x="1246" 
d="M45 0l726 1366h183l244 -1366h-175l-67 414h-515l-214 -414h-182zM836 1160h-12l-310 -606h419zM796 1607q0 48 30.5 78.5t75.5 30.5q48 0 79 -30.5t31 -78.5q0 -47 -31 -77t-79 -30q-45 0 -75.5 30.5t-30.5 76.5zM1288 1893l-18 -105h-680l18 105h680z" />
    <glyph glyph-name="adotmacron" unicode="&#x1e1;" horiz-adv-x="1105" 
d="M485 -17q-135 0 -226 79.5t-91 213.5q0 28 2 46q14 135 121 213.5t304 78.5h283l12 67q4 22 4 48q0 37 -11.5 70t-36.5 62.5t-70.5 47t-107.5 17.5q-93 0 -150 -36.5t-76 -92.5h-163q23 122 130 196.5t273 74.5q179 0 275.5 -91t96.5 -238q0 -58 -20 -164l-101 -575h-162
l25 142h-11q-33 -64 -111.5 -111.5t-188.5 -47.5zM337 297q0 -73 51 -120t141 -47q110 0 195 65t104 165l25 126h-269q-122 0 -184.5 -54t-62.5 -135zM634 1292q0 48 30.5 78.5t75.5 30.5q48 0 79 -30.5t31 -78.5q0 -47 -31 -77t-79 -30q-45 0 -75.5 30.5t-30.5 76.5z
M1131 1641l-19 -105h-680l19 105h680z" />
    <glyph glyph-name="AEmacron" unicode="&#x1e2;" horiz-adv-x="1826" 
d="M1081 1142l-453 -588h354l111 588h-12zM884 0l73 412h-426l-323 -412h-195l1055 1366h862l-27 -152h-635l-78 -434h604l-24 -151h-606l-85 -477h640l-26 -152h-809zM1912 1611l-18 -105h-680l18 105h680z" />
    <glyph glyph-name="aemacron" unicode="&#x1e3;" horiz-adv-x="1747" 
d="M1259 -17q-127 0 -220.5 59.5t-135.5 172.5h-1q-126 -232 -393 -232q-160 0 -250.5 78.5t-90.5 221.5q0 160 112.5 245.5t317.5 85.5h280l13 72q3 24 3 46q0 78 -54.5 136t-172.5 58q-92 0 -149 -36.5t-76 -92.5h-163q22 120 129.5 195.5t270.5 75.5q227 0 323 -147
q131 147 353 147q67 0 124 -14.5t97.5 -40t72.5 -60t50 -74.5t30 -83t11 -86.5t-6 -84.5q0 -16 -25 -141h-690q-11 -60 -11 -91q0 -52 14 -97t42.5 -83.5t79.5 -60.5t119 -22q93 0 156 38.5t81 94.5h166q-18 -108 -132 -194t-275 -86zM337 294q0 -73 50.5 -118.5
t141.5 -45.5q110 0 195 65.5t105 165.5l24 125h-269q-122 0 -184.5 -56t-62.5 -136zM1573 614l1 9l2 9q23 124 -37.5 209t-189.5 85q-105 0 -186.5 -61t-106.5 -181q-4 -17 -6.5 -30t-4 -19.5t-2 -11t-1 -6.5t-0.5 -3h531zM1397 1311l-19 -105h-680l19 105h680z" />
    <glyph glyph-name="Gcaron" unicode="&#x1e6;" horiz-adv-x="1355" 
d="M1284 1713l-305 -225h-161l-226 225h187l126 -130h6l170 130h203zM294 895q47 242 201 371t373 129q118 0 215 -36.5t156.5 -96t91.5 -131t32 -145.5q0 -26 -2 -32h-165q0 18 -1 26q-3 42 -23 84.5t-57.5 82t-103 64t-149.5 24.5q-161 0 -262 -97.5t-138 -277.5l-40 -198
q-15 -84 -15 -160q0 -187 100.5 -280.5t256.5 -93.5q124 0 223 62t120 176l33 187h-352l26 148h521l-61 -347q-33 -179 -179 -280.5t-343 -101.5q-104 0 -194 30t-164 90.5t-116.5 164.5t-42.5 240q0 94 11 151z" />
    <glyph glyph-name="gcaron" unicode="&#x1e7;" horiz-adv-x="1191" 
d="M733 1216l-181 380h143l110 -268h3l198 268h148l-307 -380h-114zM669 1067q125 0 208 -61.5t108 -156.5h13l36 201h165l-184 -1044q-36 -203 -154 -302.5t-325 -99.5q-179 0 -290.5 89.5t-111.5 210.5v12h163q0 -9 1 -10q0 -60 70.5 -109.5t176.5 -49.5q140 0 214 73
t100 216l28 154h-13q-31 -76 -107.5 -124t-189.5 -48q-98 0 -183.5 46.5t-140.5 139.5t-55 214q0 74 14 144l23 119q19 98 62 173.5t102 121t127 68.5t143 23zM951 639q0 132 -75 208.5t-194 76.5q-114 0 -189.5 -78t-101.5 -214l-15 -82q-13 -73 -13 -110q0 -138 72 -211
t197 -73q109 0 189.5 80t103.5 212l16 95q10 58 10 96z" />
    <glyph glyph-name="Kcaron" unicode="&#x1e8;" horiz-adv-x="1271" 
d="M602 1366l-123 -670h13l729 670h216l-650 -607l420 -759h-198l-354 658l-212 -184l-83 -474h-170l242 1366h170zM1277 1713l-305 -225h-161l-226 225h187l126 -130h6l170 130h203z" />
    <glyph glyph-name="kcaron" unicode="&#x1e9;" horiz-adv-x="1077" 
d="M484 1585l-181 380h143l110 -268h3l198 268h148l-307 -380h-114zM416 436l-77 -436h-167l251 1419h166l-138 -784h11l504 415h229l-509 -413l332 -637h-186l-278 547z" />
    <glyph glyph-name="Oogonek" unicode="&#x1ea;" horiz-adv-x="1384" 
d="M1103 -246l-21 -121q-57 -19 -114 -18q-82 0 -137.5 43t-54.5 123q0 138 140 229l-7 10q-35 -21 -88.5 -34.5t-94.5 -13.5q-98 0 -186.5 34t-157 97t-108.5 161.5t-40 218.5q0 114 15 198l38 210q43 239 197 371.5t371 132.5q245 0 393 -143t148 -394q0 -89 -15 -167
l-38 -212q-19 -101 -51.5 -177t-64 -116.5t-82.5 -90.5q-24 -22 -77.5 -69.5t-76 -69.5t-44.5 -57.5t-22 -68.5q0 -42 27.5 -64t75.5 -22q41 0 75 10zM458 860l-36 -194q-15 -80 -15 -159q0 -173 100 -274t275 -101q160 0 260 98.5t135 293.5l36 209q9 48 9 133
q0 167 -100.5 268t-270.5 101q-153 0 -255 -91t-138 -284z" />
    <glyph glyph-name="oogonek" unicode="&#x1eb;" horiz-adv-x="1132" 
d="M768 -385q-90 0 -144 49.5t-43 146.5q6 51 41 101t93 89l-5 9q-40 -27 -128 -27q-160 0 -273 111t-113 295q0 84 12 148l24 137q32 183 155 288.5t296 105.5q194 0 313 -114.5t119 -310.5q0 -57 -12 -125l-25 -137q-17 -94 -65.5 -174.5t-104.5 -128.5q-8 -7 -37 -31.5
t-37.5 -32t-30 -28t-29 -31.5t-20 -29.5t-17.5 -36t-7 -37.5q-5 -51 21 -79.5t79 -28.5q39 0 76 10l-21 -121q-66 -19 -117 -18zM393 643l-22 -121q-10 -66 -10 -111q0 -127 73 -204.5t199 -77.5q115 0 188.5 76t97.5 216l23 131q5 31 5 94q0 122 -73 199t-196 77
q-110 0 -185 -70t-100 -209z" />
    <glyph glyph-name="Oogonekmacron" unicode="&#x1ec;" horiz-adv-x="1384" 
d="M1103 -246l-21 -121q-57 -19 -114 -18q-82 0 -137.5 43t-54.5 123q0 138 140 229l-7 10q-35 -21 -88.5 -34.5t-94.5 -13.5q-98 0 -186.5 34t-157 97t-108.5 161.5t-40 218.5q0 114 15 198l38 210q43 239 197 371.5t371 132.5q245 0 393 -143t148 -394q0 -89 -15 -167
l-38 -212q-19 -101 -51.5 -177t-64 -116.5t-82.5 -90.5q-24 -22 -77.5 -69.5t-76 -69.5t-44.5 -57.5t-22 -68.5q0 -42 27.5 -64t75.5 -22q41 0 75 10zM458 860l-36 -194q-15 -80 -15 -159q0 -173 100 -274t275 -101q160 0 260 98.5t135 293.5l36 209q9 48 9 133
q0 167 -100.5 268t-270.5 101q-153 0 -255 -91t-138 -284zM1309 1611l-18 -105h-680l18 105h680z" />
    <glyph glyph-name="oogonekmacron" unicode="&#x1ed;" horiz-adv-x="1132" 
d="M766 -385q-90 0 -144 49.5t-43 146.5q6 51 41 101t93 89l-5 9q-40 -27 -128 -27q-160 0 -273 111t-113 295q0 84 12 148l24 137q32 183 155 288.5t296 105.5q194 0 313 -114.5t119 -310.5q0 -57 -12 -125l-25 -137q-17 -94 -65.5 -174.5t-104.5 -128.5q-8 -7 -37 -31.5
t-37.5 -32t-30 -28t-29 -31.5t-20 -29.5t-17.5 -36t-7 -37.5q-5 -51 21 -79.5t79 -28.5q39 0 76 10l-21 -121q-66 -19 -117 -18zM391 643l-22 -121q-10 -66 -10 -111q0 -127 73 -204.5t199 -77.5q115 0 188.5 76t97.5 216l23 131q5 31 5 94q0 122 -73 199t-196 77
q-110 0 -185 -70t-100 -209zM1113 1311l-19 -105h-680l19 105h680z" />
    <glyph glyph-name="Gacute" unicode="&#x1f4;" horiz-adv-x="1355" 
d="M750 1500l295 193h217l-327 -193h-185zM294 895q47 242 201 371t373 129q118 0 215 -36.5t156.5 -96t91.5 -131t32 -145.5q0 -26 -2 -32h-165q0 18 -1 26q-3 42 -23 84.5t-57.5 82t-103 64t-149.5 24.5q-161 0 -262 -97.5t-138 -277.5l-40 -198q-15 -84 -15 -160
q0 -187 100.5 -280.5t256.5 -93.5q124 0 223 62t120 176l33 187h-352l26 148h521l-61 -347q-33 -179 -179 -280.5t-343 -101.5q-104 0 -194 30t-164 90.5t-116.5 164.5t-42.5 240q0 94 11 151z" />
    <glyph glyph-name="gacute" unicode="&#x1f5;" horiz-adv-x="1191" 
d="M789 1209h-128l293 354h183zM669 1067q125 0 208 -61.5t108 -156.5h13l36 201h165l-184 -1044q-36 -203 -154 -302.5t-325 -99.5q-179 0 -290.5 89.5t-111.5 210.5v12h163q0 -9 1 -10q0 -60 70.5 -109.5t176.5 -49.5q140 0 214 73t100 216l28 154h-13
q-31 -76 -107.5 -124t-189.5 -48q-98 0 -183.5 46.5t-140.5 139.5t-55 214q0 74 14 144l23 119q19 98 62 173.5t102 121t127 68.5t143 23zM951 639q0 132 -75 208.5t-194 76.5q-114 0 -189.5 -78t-101.5 -214l-15 -82q-13 -73 -13 -110q0 -138 72 -211t197 -73
q109 0 189.5 80t103.5 212l16 95q10 58 10 96z" />
    <glyph glyph-name="Ngrave" unicode="&#x1f8;" horiz-adv-x="1426" 
d="M1113 1500h-179l-303 192h207zM1233 0h-165l-505 1078h-10l-190 -1078h-169l241 1366h166l500 -1080h11l193 1080h169z" />
    <glyph glyph-name="ngrave" unicode="&#x1f9;" horiz-adv-x="1192" 
d="M912 1209h-135l-240 354h187zM174 0l185 1050h164l-32 -173h13q43 91 122.5 140.5t190.5 49.5q83 0 146.5 -27t101 -74t56 -104t18.5 -123q0 -61 -20 -173l-100 -566h-168l102 576q14 84 14 129q0 97 -48.5 158.5t-155.5 61.5q-129 0 -210 -90t-105 -228l-107 -607h-167z
" />
    <glyph glyph-name="Aringacute" unicode="&#x1fa;" horiz-adv-x="1246" 
d="M808 1663l295 192h217l-327 -192h-185zM865 1416q42 -2 73 25.5t33 68.5t-26.5 72t-70.5 33q-41 3 -72.5 -24.5t-33.5 -68.5q-1 -41 27.5 -72t69.5 -34zM836 1160h-12l-310 -606h419zM441 414l-214 -414h-182l721 1354q-41 26 -65.5 69t-24.5 93q0 81 56.5 137t136.5 56
t135.5 -56t55.5 -137q0 -55 -28.5 -100.5t-75.5 -69.5l242 -1346h-175l-67 414h-515z" />
    <glyph glyph-name="aringacute" unicode="&#x1fb;" horiz-adv-x="1105" 
d="M939 1526h-129l293 354h184zM485 -17q-135 0 -226 79.5t-91 213.5q0 28 2 46q14 135 121 213.5t304 78.5h283l12 67q4 22 4 48q0 37 -11.5 70t-36.5 62.5t-70.5 47t-107.5 17.5q-93 0 -150 -36.5t-76 -92.5h-163q23 122 130 196.5t273 74.5q179 0 275.5 -91t96.5 -238
q0 -58 -20 -164l-101 -575h-162l25 142h-11q-33 -64 -111.5 -111.5t-188.5 -47.5zM337 297q0 -73 51 -120t141 -47q110 0 195 65t104 165l25 126h-269q-122 0 -184.5 -54t-62.5 -135zM792 1309q43 0 73.5 30.5t30.5 73.5t-30.5 73t-73.5 30q-42 0 -73 -30.5t-31 -72.5
q0 -43 31 -73.5t73 -30.5zM792 1223q-79 0 -134 55.5t-55 133.5q0 79 55 133.5t134 54.5q78 0 132.5 -54.5t54.5 -132.5q0 -79 -55 -134.5t-132 -55.5z" />
    <glyph glyph-name="AEacute" unicode="&#x1fc;" horiz-adv-x="1826" 
d="M1416 1500l295 193h217l-327 -193h-185zM1081 1142l-453 -588h354l111 588h-12zM884 0l73 412h-426l-323 -412h-195l1055 1366h862l-27 -152h-635l-78 -434h604l-24 -151h-606l-85 -477h640l-26 -152h-809z" />
    <glyph glyph-name="aeacute" unicode="&#x1fd;" horiz-adv-x="1747" 
d="M1056 1209h-128l293 354h183zM1259 -17q-127 0 -220.5 59.5t-135.5 172.5h-1q-126 -232 -393 -232q-160 0 -250.5 78.5t-90.5 221.5q0 160 112.5 245.5t317.5 85.5h280l13 72q3 24 3 46q0 78 -54.5 136t-172.5 58q-92 0 -149 -36.5t-76 -92.5h-163q22 120 129.5 195.5
t270.5 75.5q227 0 323 -147q131 147 353 147q67 0 124 -14.5t97.5 -40t72.5 -60t50 -74.5t30 -83t11 -86.5t-6 -84.5q0 -16 -25 -141h-690q-11 -60 -11 -91q0 -52 14 -97t42.5 -83.5t79.5 -60.5t119 -22q93 0 156 38.5t81 94.5h166q-18 -108 -132 -194t-275 -86zM337 294
q0 -73 50.5 -118.5t141.5 -45.5q110 0 195 65.5t105 165.5l24 125h-269q-122 0 -184.5 -56t-62.5 -136zM1573 614l1 9l2 9q23 124 -37.5 209t-189.5 85q-105 0 -186.5 -61t-106.5 -181q-4 -17 -6.5 -30t-4 -19.5t-2 -11t-1 -6.5t-0.5 -3h531z" />
    <glyph glyph-name="Oslashacute" unicode="&#x1fe;" horiz-adv-x="1384" 
d="M245 681l38 210q43 239 197 371.5t371 132.5q142 0 255 -51t184 -146l107 98l84 -90l-129 -117q41 -107 41 -230q0 -85 -16 -168l-39 -212q-45 -246 -192 -377t-394 -131q-134 0 -244.5 49.5t-179.5 142.5l-103 -93l-80 95l121 110q-36 95 -36 207q0 115 15 199z
M1217 860q0 50 -9 95l-748 -669q97 -154 318 -154q160 0 260 98.5t134 293.5l37 206q8 41 8 130zM1161 1079q-47 75 -127.5 115.5t-186.5 40.5q-152 0 -254.5 -91t-137.5 -284l-37 -194q-15 -80 -15 -156q0 -55 10 -99zM813 1500l295 193h217l-327 -193h-185z" />
    <glyph glyph-name="oslashacute" unicode="&#x1ff;" horiz-adv-x="1132" 
d="M204 537l24 137q32 183 154.5 288.5t295.5 105.5q107 0 195 -37.5t145 -106.5l120 108l83 -95l-139 -124q29 -76 29 -169q0 -58 -12 -126l-25 -137q-36 -189 -152 -293.5t-312 -104.5q-202 0 -320 129l-121 -108l-78 95l133 119q-32 78 -32 170q0 85 12 149zM389 643
l-21 -121q-11 -59 -11 -109q0 -39 7 -70l531 470q-72 109 -221 109q-110 0 -185 -70t-100 -209zM414 225q74 -96 215 -96q115 0 188.5 76t97.5 216l23 131q5 29 5 90q0 23 -3 44zM772 1209h-128l293 354h183z" />
    <glyph glyph-name="Adblgrave" unicode="&#x200;" horiz-adv-x="1246" 
d="M45 0l726 1366h183l244 -1366h-175l-67 414h-515l-214 -414h-182zM836 1160h-12l-310 -606h419zM806 1500h-163l-328 250h175zM1152 1500h-163l-328 250h175z" />
    <glyph glyph-name="adblgrave" unicode="&#x201;" horiz-adv-x="1105" 
d="M485 -17q-135 0 -226 79.5t-91 213.5q0 28 2 46q14 135 121 213.5t304 78.5h283l12 67q4 22 4 48q0 37 -11.5 70t-36.5 62.5t-70.5 47t-107.5 17.5q-93 0 -150 -36.5t-76 -92.5h-163q23 122 130 196.5t273 74.5q179 0 275.5 -91t96.5 -238q0 -58 -20 -164l-101 -575h-162
l25 142h-11q-33 -64 -111.5 -111.5t-188.5 -47.5zM337 297q0 -73 51 -120t141 -47q110 0 195 65t104 165l25 126h-269q-122 0 -184.5 -54t-62.5 -135zM649 1209h-125l-226 328h170zM953 1209h-122l-230 328h175z" />
    <glyph glyph-name="Ainvertedbreve" unicode="&#x202;" horiz-adv-x="1246" 
d="M45 0l726 1366h183l244 -1366h-175l-67 414h-515l-214 -414h-182zM836 1160h-12l-310 -606h419zM599 1476q5 48 25.5 92t56 82.5t94 61.5t132.5 23q98 0 166 -40t92 -98.5t8 -120.5h-118q12 66 -26.5 109t-123.5 43q-83 0 -129.5 -42t-58.5 -110h-118z" />
    <glyph glyph-name="ainvertedbreve" unicode="&#x203;" horiz-adv-x="1105" 
d="M485 -17q-135 0 -226 79.5t-91 213.5q0 28 2 46q14 135 121 213.5t304 78.5h283l12 67q4 22 4 48q0 37 -11.5 70t-36.5 62.5t-70.5 47t-107.5 17.5q-93 0 -150 -36.5t-76 -92.5h-163q23 122 130 196.5t273 74.5q179 0 275.5 -91t96.5 -238q0 -58 -20 -164l-101 -575h-162
l25 142h-11q-33 -64 -111.5 -111.5t-188.5 -47.5zM337 297q0 -73 51 -120t141 -47q110 0 195 65t104 165l25 126h-269q-122 0 -184.5 -54t-62.5 -135zM453 1236q4 48 24 94t56 87t94.5 66t131.5 25q59 0 109.5 -16.5t82.5 -44t54 -63.5t25 -73.5t-4 -74.5h-117
q11 68 -28 116t-123 48q-82 0 -128.5 -46.5t-59.5 -117.5h-117z" />
    <glyph glyph-name="Edblgrave" unicode="&#x204;" horiz-adv-x="1133" 
d="M767 1500h-163l-328 250h175zM1113 1500h-163l-328 250h175zM1027 152l-25 -152h-810l241 1366h805l-26 -152h-635l-79 -435h604l-24 -150h-606l-85 -477h640z" />
    <glyph glyph-name="edblgrave" unicode="&#x205;" horiz-adv-x="1094" 
d="M597 -17q-179 0 -291 104t-112 294q0 69 17 161l28 149q31 177 155 277t305 100q67 0 124.5 -14.5t98 -40t73 -60t50.5 -74.5t30 -83t11 -86.5t-6 -84.5q0 -16 -25 -141h-691q-10 -38 -10 -91q0 -52 13.5 -97t42.5 -83.5t80 -60.5t119 -22q93 0 156 38.5t81 94.5h166
q-20 -110 -133.5 -195t-281.5 -85zM918 614l2 9l1 9q24 125 -37 209.5t-191 84.5q-103 0 -183 -61t-105 -181l-15 -70h528zM676 1209h-125l-226 328h170zM980 1209h-122l-230 328h175z" />
    <glyph glyph-name="Einvertedbreve" unicode="&#x206;" horiz-adv-x="1133" 
d="M1027 152l-25 -152h-810l241 1366h805l-26 -152h-635l-79 -435h604l-24 -150h-606l-85 -477h640zM560 1476q5 48 25.5 92t56 82.5t94 61.5t132.5 23q98 0 166 -40t92 -98.5t8 -120.5h-118q12 66 -26.5 109t-123.5 43q-83 0 -129.5 -42t-58.5 -110h-118z" />
    <glyph glyph-name="einvertedbreve" unicode="&#x207;" horiz-adv-x="1094" 
d="M597 -17q-179 0 -291 104t-112 294q0 69 17 161l28 149q31 177 155 277t305 100q67 0 124.5 -14.5t98 -40t73 -60t50.5 -74.5t30 -83t11 -86.5t-6 -84.5q0 -16 -25 -141h-691q-10 -38 -10 -91q0 -52 13.5 -97t42.5 -83.5t80 -60.5t119 -22q93 0 156 38.5t81 94.5h166
q-20 -110 -133.5 -195t-281.5 -85zM918 614l2 9l1 9q24 125 -37 209.5t-191 84.5q-103 0 -183 -61t-105 -181l-15 -70h528zM480 1236q4 48 24 94t56 87t94.5 66t131.5 25q59 0 109.5 -16.5t82.5 -44t54 -63.5t25 -73.5t-4 -74.5h-117q11 68 -28 116t-123 48
q-82 0 -128.5 -46.5t-59.5 -117.5h-117z" />
    <glyph glyph-name="Idblgrave" unicode="&#x208;" horiz-adv-x="553" 
d="M360 0h-170l241 1366h170zM465 1500h-163l-328 250h175zM811 1500h-163l-328 250h175z" />
    <glyph glyph-name="idblgrave" unicode="&#x209;" horiz-adv-x="581" 
d="M192 0l186 1050h168l-186 -1050h-168zM414 1209h-125l-226 328h170zM718 1209h-122l-230 328h175z" />
    <glyph glyph-name="Iinvertedbreve" unicode="&#x20a;" horiz-adv-x="553" 
d="M360 0h-170l241 1366h170zM258 1476q5 48 25.5 92t56 82.5t94 61.5t132.5 23q98 0 166 -40t92 -98.5t8 -120.5h-118q12 66 -26.5 109t-123.5 43q-83 0 -129.5 -42t-58.5 -110h-118z" />
    <glyph glyph-name="iinvertedbreve" unicode="&#x20b;" horiz-adv-x="581" 
d="M192 0l186 1050h168l-186 -1050h-168zM218 1236q4 48 24 94t56 87t94.5 66t131.5 25q59 0 109.5 -16.5t82.5 -44t54 -63.5t25 -73.5t-4 -74.5h-117q11 68 -28 116t-123 48q-82 0 -128.5 -46.5t-59.5 -117.5h-117z" />
    <glyph glyph-name="Odblgrave" unicode="&#x20c;" horiz-adv-x="1384" 
d="M878 1500h-163l-328 250h175zM1224 1500h-163l-328 250h175zM458 860l-36 -194q-15 -82 -15 -159q0 -173 100 -274t275 -101q323 0 394 392l37 209q9 49 9 133q0 167 -100.5 268t-271.5 101q-151 0 -253.5 -91t-138.5 -284zM249 681l38 210q43 239 197 371.5t371 132.5
q244 0 392.5 -143t148.5 -393q0 -90 -15 -168l-39 -212q-45 -246 -192 -377t-394 -131q-228 0 -375 136.5t-147 374.5q0 115 15 199z" />
    <glyph glyph-name="odblgrave" unicode="&#x20d;" horiz-adv-x="1132" 
d="M391 643l-22 -121q-10 -66 -10 -111q0 -127 73 -204.5t199 -77.5q115 0 188.5 76t97.5 216l23 131q5 31 5 94q0 122 -73 199t-196 77q-110 0 -185 -70t-100 -209zM206 537l24 137q32 183 154.5 288.5t295.5 105.5q195 0 314 -114.5t119 -309.5q0 -58 -12 -126l-25 -137
q-36 -189 -152 -293.5t-312 -104.5q-181 0 -299.5 109t-118.5 296q0 85 12 149zM690 1209h-125l-226 328h170zM994 1209h-122l-230 328h175z" />
    <glyph glyph-name="Oinvertedbreve" unicode="&#x20e;" horiz-adv-x="1384" 
d="M671 1476q5 48 25.5 92t56 82.5t94 61.5t132.5 23q98 0 166 -40t92 -98.5t8 -120.5h-118q12 66 -26.5 109t-123.5 43q-83 0 -129.5 -42t-58.5 -110h-118zM458 860l-36 -194q-15 -82 -15 -159q0 -173 100 -274t275 -101q323 0 394 392l37 209q9 49 9 133q0 167 -100.5 268
t-271.5 101q-151 0 -253.5 -91t-138.5 -284zM249 681l38 210q43 239 197 371.5t371 132.5q244 0 392.5 -143t148.5 -393q0 -90 -15 -168l-39 -212q-45 -246 -192 -377t-394 -131q-228 0 -375 136.5t-147 374.5q0 115 15 199z" />
    <glyph glyph-name="oinvertedbreve" unicode="&#x20f;" horiz-adv-x="1132" 
d="M391 643l-22 -121q-10 -66 -10 -111q0 -127 73 -204.5t199 -77.5q115 0 188.5 76t97.5 216l23 131q5 31 5 94q0 122 -73 199t-196 77q-110 0 -185 -70t-100 -209zM206 537l24 137q32 183 154.5 288.5t295.5 105.5q195 0 314 -114.5t119 -309.5q0 -58 -12 -126l-25 -137
q-36 -189 -152 -293.5t-312 -104.5q-181 0 -299.5 109t-118.5 296q0 85 12 149zM494 1236q4 48 24 94t56 87t94.5 66t131.5 25q59 0 109.5 -16.5t82.5 -44t54 -63.5t25 -73.5t-4 -74.5h-117q11 68 -28 116t-123 48q-82 0 -128.5 -46.5t-59.5 -117.5h-117z" />
    <glyph glyph-name="Rdblgrave" unicode="&#x210;" horiz-adv-x="1261" 
d="M769 1500h-163l-328 250h175zM1115 1500h-163l-328 250h175zM360 0h-170l242 1366h453q191 0 293 -95.5t102 -251.5q0 -45 -6 -85q-19 -139 -106 -231t-212 -124l189 -579h-184l-176 553q-27 -2 -68 -2h-260zM845 1218h-269l-93 -520h260q317 0 352 248q5 33 5 67
q0 94 -61 149.5t-194 55.5z" />
    <glyph glyph-name="rdblgrave" unicode="&#x211;" horiz-adv-x="783" 
d="M174 0l185 1050h159l-32 -175h12q32 80 111.5 136t190.5 56q39 0 83 -7l-35 -160q-29 11 -85 11q-133 0 -212.5 -87.5t-103.5 -226.5l-106 -597h-167zM527 1209h-125l-226 328h170zM831 1209h-122l-230 328h175z" />
    <glyph glyph-name="Rinvertedbreve" unicode="&#x212;" horiz-adv-x="1261" 
d="M360 0h-170l242 1366h453q191 0 293 -95.5t102 -251.5q0 -45 -6 -85q-19 -139 -106 -231t-212 -124l189 -579h-184l-176 553q-27 -2 -68 -2h-260zM845 1218h-269l-93 -520h260q317 0 352 248q5 33 5 67q0 94 -61 149.5t-194 55.5zM562 1476q5 48 25.5 92t56 82.5t94 61.5
t132.5 23q98 0 166 -40t92 -98.5t8 -120.5h-118q12 66 -26.5 109t-123.5 43q-83 0 -129.5 -42t-58.5 -110h-118z" />
    <glyph glyph-name="rinvertedbreve" unicode="&#x213;" horiz-adv-x="783" 
d="M174 0l185 1050h159l-32 -175h12q32 80 111.5 136t190.5 56q39 0 83 -7l-35 -160q-29 11 -85 11q-133 0 -212.5 -87.5t-103.5 -226.5l-106 -597h-167zM331 1236q4 48 24 94t56 87t94.5 66t131.5 25q59 0 109.5 -16.5t82.5 -44t54 -63.5t25 -73.5t-4 -74.5h-117
q11 68 -28 116t-123 48q-82 0 -128.5 -46.5t-59.5 -117.5h-117z" />
    <glyph glyph-name="Udblgrave" unicode="&#x214;" horiz-adv-x="1380" 
d="M880 1500h-163l-328 250h175zM1226 1500h-163l-328 250h175zM589 1366l-147 -829q-8 -40 -8 -99q0 -137 85 -221t230 -84q136 0 230 78t122 231l163 924h174l-166 -940q-41 -228 -180 -341.5t-345 -113.5q-217 0 -353 118t-136 323q0 63 14 140l143 814h174z" />
    <glyph glyph-name="udblgrave" unicode="&#x215;" horiz-adv-x="1178" 
d="M1184 1050l-184 -1050h-158l32 180h-14q-39 -88 -119.5 -142.5t-190.5 -54.5q-158 0 -245 93t-87 234q0 71 21 180l103 560h167l-103 -570q-15 -84 -15 -138q0 -97 54 -153t162 -56q129 0 207.5 89t102.5 228l105 600h162zM719 1209h-125l-226 328h170zM1023 1209h-122
l-230 328h175z" />
    <glyph glyph-name="Uinvertedbreve" unicode="&#x216;" horiz-adv-x="1380" 
d="M589 1366l-147 -829q-8 -40 -8 -99q0 -137 85 -221t230 -84q136 0 230 78t122 231l163 924h174l-166 -940q-41 -228 -180 -341.5t-345 -113.5q-217 0 -353 118t-136 323q0 63 14 140l143 814h174zM673 1476q5 48 25.5 92t56 82.5t94 61.5t132.5 23q98 0 166 -40t92 -98.5
t8 -120.5h-118q12 66 -26.5 109t-123.5 43q-83 0 -129.5 -42t-58.5 -110h-118z" />
    <glyph glyph-name="uinvertedbreve" unicode="&#x217;" horiz-adv-x="1178" 
d="M1184 1050l-184 -1050h-158l32 180h-14q-39 -88 -119.5 -142.5t-190.5 -54.5q-158 0 -245 93t-87 234q0 71 21 180l103 560h167l-103 -570q-15 -84 -15 -138q0 -97 54 -153t162 -56q129 0 207.5 89t102.5 228l105 600h162zM523 1236q4 48 24 94t56 87t94.5 66t131.5 25
q59 0 109.5 -16.5t82.5 -44t54 -63.5t25 -73.5t-4 -74.5h-117q11 68 -28 116t-123 48q-82 0 -128.5 -46.5t-59.5 -117.5h-117z" />
    <glyph glyph-name="Scommaaccent" unicode="&#x218;" horiz-adv-x="1208" 
d="M181 382h167q-1 -8 -1 -25q0 -92 88.5 -162.5t233.5 -70.5q138 0 221.5 66.5t83.5 174.5q0 49 -18.5 86.5t-56.5 65t-75.5 45.5t-95.5 39l-58 22q-75 27 -132.5 57.5t-114 77t-87.5 111.5t-31 144q0 118 63 206t167.5 132t233.5 44q116 0 214 -40.5t161 -122.5t63 -190
q0 -2 -1 -18l-1 -17h-161v2q0 2 0.5 5.5t0.5 8.5q0 99 -80.5 159t-197.5 60q-71 0 -134 -22t-107 -73.5t-44 -123.5q0 -44 19 -80.5t56.5 -65.5t79.5 -50t102 -45l77 -30q52 -21 86.5 -36.5t77.5 -39.5t70.5 -50.5t52.5 -61.5t37 -80.5t12 -100.5q0 -192 -136 -301.5
t-355 -109.5q-213 0 -348 108.5t-135 255.5q0 25 3 46zM535 -446h-123l80 306h147z" />
    <glyph glyph-name="scommaaccent" unicode="&#x219;" horiz-adv-x="1029" 
d="M275 764q0 140 98.5 223t276.5 83q90 0 163.5 -26t119 -68t70 -92.5t24.5 -101.5v-19h-156v8q0 60 -60 112.5t-164 52.5q-96 0 -151.5 -43.5t-55.5 -108.5q0 -30 13.5 -55t29.5 -40t53 -32.5t57.5 -25t69.5 -23.5q45 -15 76.5 -27.5t68.5 -31t61.5 -41t45.5 -51.5
t31.5 -67t10.5 -84q0 -154 -107.5 -239.5t-293.5 -85.5q-179 0 -294 90t-115 216v9h159q0 -6 2 -18q13 -63 82.5 -109t175.5 -46q108 0 167 46t59 123q0 32 -12.5 57.5t-29 42t-50 32.5t-57 24t-68.5 22q-31 10 -52 17t-55.5 22t-58 29.5t-51 38t-44 49.5t-28 61.5
t-11.5 76.5zM462 -446h-123l80 306h147z" />
    <glyph glyph-name="Tcommaaccent" unicode="&#x21a;" horiz-adv-x="1123" 
d="M510 -446h-123l80 306h147zM647 0h-170l216 1213h-423l26 153h1013l-24 -153h-422z" />
    <glyph glyph-name="tcommaaccent" unicode="&#x21b;" horiz-adv-x="761" 
d="M397 -446h-123l80 306h147zM408 1036l49 277h165l-47 -277h229l-24 -138h-230l-86 -493q-23 -128 -23 -161q0 -51 28.5 -78.5t97.5 -27.5q78 0 128 12l-26 -138q-56 -14 -144 -14q-257 0 -257 201q0 53 16 139l99 560h-159l25 138h159z" />
    <glyph glyph-name="Hcaron" unicode="&#x21e;" horiz-adv-x="1416" 
d="M362 0h-170l241 1366h170l-103 -582h691l103 582h170l-241 -1366h-164l105 632h-690zM1363 1713l-305 -225h-161l-226 225h187l126 -130h6l170 130h203z" />
    <glyph glyph-name="hcaron" unicode="&#x21f;" horiz-adv-x="1197" 
d="M174 0l250 1419h167l-99 -542h12q41 90 120.5 140t193.5 50q159 0 242.5 -95t83.5 -234q0 -58 -20 -172l-100 -566h-168l102 576q14 81 14 130q0 96 -50 157.5t-157 61.5q-129 0 -211 -90.5t-106 -227.5l-107 -607h-167zM488 1585l-181 380h143l110 -268h3l198 268h148
l-307 -380h-114z" />
    <glyph glyph-name="Adotaccent" unicode="&#x226;" horiz-adv-x="1246" 
d="M45 0l726 1366h183l244 -1366h-175l-67 414h-515l-214 -414h-182zM836 1160h-12l-310 -606h419zM796 1607q0 48 30.5 78.5t75.5 30.5q48 0 79 -30.5t31 -78.5q0 -47 -31 -77t-79 -30q-45 0 -75.5 30.5t-30.5 76.5z" />
    <glyph glyph-name="adotaccent" unicode="&#x227;" horiz-adv-x="1105" 
d="M485 -17q-135 0 -226 79.5t-91 213.5q0 28 2 46q14 135 121 213.5t304 78.5h283l12 67q4 22 4 48q0 37 -11.5 70t-36.5 62.5t-70.5 47t-107.5 17.5q-93 0 -150 -36.5t-76 -92.5h-163q23 122 130 196.5t273 74.5q179 0 275.5 -91t96.5 -238q0 -58 -20 -164l-101 -575h-162
l25 142h-11q-33 -64 -111.5 -111.5t-188.5 -47.5zM337 297q0 -73 51 -120t141 -47q110 0 195 65t104 165l25 126h-269q-122 0 -184.5 -54t-62.5 -135zM634 1292q0 48 30.5 78.5t75.5 30.5q48 0 79 -30.5t31 -78.5q0 -47 -31 -77t-79 -30q-45 0 -75.5 30.5t-30.5 76.5z" />
    <glyph glyph-name="Ecedilla" unicode="&#x228;" horiz-adv-x="1133" 
d="M516 0h-323l241 1366h805l-26 -152h-635l-79 -435h604l-24 -150h-606l-85 -477h640l-25 -152h-363l-43 -135q85 -2 137.5 -42.5t52.5 -114.5v-2q-1 -89 -67.5 -139.5t-169.5 -50.5q-82 0 -158 28l17 102q60 -19 129 -19q109 0 109 73q0 43 -38 58.5t-102 15.5h-50l9 79z
" />
    <glyph glyph-name="ecedilla" unicode="&#x229;" horiz-adv-x="1094" 
d="M920 614l2 9l1 9q24 125 -37 209.5t-191 84.5q-103 0 -183 -61t-105 -181l-15 -70h528zM530 -484q-81 0 -159 28l17 102q60 -19 130 -19q108 0 108 73q0 74 -139 74h-50l9 79l47 140q-136 29 -216.5 128.5t-80.5 259.5q0 69 17 161l28 149q31 177 155 277t305 100
q67 0 124.5 -14.5t98 -40t73 -60t50.5 -74.5t30 -83t11 -86.5t-6 -84.5q0 -16 -25 -141h-691q-10 -38 -10 -91q0 -52 13.5 -97t42.5 -83.5t80 -60.5t119 -22q93 0 156 38.5t81 94.5h166q-20 -107 -129.5 -191.5t-270.5 -88.5l-38 -118q85 -2 137.5 -42.5t52.5 -114.5v-2
q-1 -89 -67.5 -139.5t-168.5 -50.5z" />
    <glyph glyph-name="Odieresismacron" unicode="&#x22a;" horiz-adv-x="1384" 
d="M695 1588q0 45 29 73t74 28t74 -28t29 -73q0 -43 -29.5 -71t-73.5 -28t-73.5 28t-29.5 71zM1042 1588q0 45 28.5 73t71.5 28q47 0 76.5 -28t29.5 -73q0 -43 -30 -71t-76 -28q-42 0 -71 28.5t-29 70.5zM458 860l-36 -194q-15 -82 -15 -159q0 -173 100 -274t275 -101
q323 0 394 392l37 209q9 49 9 133q0 167 -100.5 268t-271.5 101q-151 0 -253.5 -91t-138.5 -284zM249 681l38 210q43 239 197 371.5t371 132.5q244 0 392.5 -143t148.5 -393q0 -90 -15 -168l-39 -212q-45 -246 -192 -377t-394 -131q-228 0 -375 136.5t-147 374.5
q0 115 15 199zM1360 1893l-18 -105h-680l18 105h680z" />
    <glyph glyph-name="odieresismacron" unicode="&#x22b;" horiz-adv-x="1132" 
d="M492 1297q0 46 31 75.5t77 29.5q47 0 77.5 -29.5t30.5 -75.5q0 -44 -30.5 -73t-77.5 -29q-46 0 -77 29t-31 73zM853 1297q0 46 30 75.5t74 29.5q49 0 80 -29.5t31 -75.5q0 -44 -31 -73t-80 -29q-44 0 -74 29t-30 73zM391 643l-22 -121q-10 -66 -10 -111q0 -127 73 -204.5
t199 -77.5q115 0 188.5 76t97.5 216l23 131q5 31 5 94q0 122 -73 199t-196 77q-110 0 -185 -70t-100 -209zM206 537l24 137q32 183 154.5 288.5t295.5 105.5q195 0 314 -114.5t119 -309.5q0 -58 -12 -126l-25 -137q-36 -189 -152 -293.5t-312 -104.5q-181 0 -299.5 109
t-118.5 296q0 85 12 149zM1173 1641l-19 -105h-680l19 105h680z" />
    <glyph glyph-name="Otildemacron" unicode="&#x22c;" horiz-adv-x="1384" 
d="M458 860l-36 -194q-15 -82 -15 -159q0 -173 100 -274t275 -101q323 0 394 392l37 209q9 49 9 133q0 167 -100.5 268t-271.5 101q-151 0 -253.5 -91t-138.5 -284zM249 681l38 210q43 239 197 371.5t371 132.5q244 0 392.5 -143t148.5 -393q0 -90 -15 -168l-39 -212
q-45 -246 -192 -377t-394 -131q-228 0 -375 136.5t-147 374.5q0 115 15 199zM924 1534l-9.5 9.5l-10 10t-9.5 9t-11.5 9.5t-11 6.5t-12.5 6.5t-12 3.5t-14 1.5q-29 0 -46 -19.5t-21 -39.5t-6 -50h-121q0 93 48 157.5t142 64.5q81 0 161 -77l20 -20t21.5 -20.5t20 -11.5
t27.5 -6q35 0 54 37t23 80h119q0 -85 -51.5 -154t-135.5 -69q-57 0 -93.5 18t-71.5 54zM1360 1893l-18 -105h-680l18 105h680z" />
    <glyph glyph-name="otildemacron" unicode="&#x22d;" horiz-adv-x="1132" 
d="M871 1130q-83 0 -147 92q-4 6 -13.5 20t-14 20t-13.5 16.5t-16 15t-17.5 8.5t-22.5 4q-21 0 -36 -10.5t-24.5 -30.5t-14.5 -37.5t-10 -43.5h-123q11 116 67 182.5t142 66.5q33 0 60 -9t49 -30t33 -34t31 -41q2 -3 8 -11t8 -10.5t7 -9.5t7.5 -9t7.5 -7t8.5 -6.5t8.5 -4
t10 -3.5t11 -1q65 0 89 123h123q-6 -98 -67 -174t-151 -76zM1173 1641l-19 -105h-680l19 105h680zM391 643l-22 -121q-10 -66 -10 -111q0 -127 73 -204.5t199 -77.5q115 0 188.5 76t97.5 216l23 131q5 31 5 94q0 122 -73 199t-196 77q-110 0 -185 -70t-100 -209zM206 537
l24 137q32 183 154.5 288.5t295.5 105.5q195 0 314 -114.5t119 -309.5q0 -58 -12 -126l-25 -137q-36 -189 -152 -293.5t-312 -104.5q-181 0 -299.5 109t-118.5 296q0 85 12 149z" />
    <glyph glyph-name="Odotaccent" unicode="&#x22e;" horiz-adv-x="1384" 
d="M868 1607q0 48 30.5 78.5t75.5 30.5q48 0 79 -30.5t31 -78.5q0 -47 -31 -77t-79 -30q-45 0 -75.5 30.5t-30.5 76.5zM458 860l-36 -194q-15 -82 -15 -159q0 -173 100 -274t275 -101q323 0 394 392l37 209q9 49 9 133q0 167 -100.5 268t-271.5 101q-151 0 -253.5 -91
t-138.5 -284zM249 681l38 210q43 239 197 371.5t371 132.5q244 0 392.5 -143t148.5 -393q0 -90 -15 -168l-39 -212q-45 -246 -192 -377t-394 -131q-228 0 -375 136.5t-147 374.5q0 115 15 199z" />
    <glyph glyph-name="odotaccent" unicode="&#x22f;" horiz-adv-x="1132" 
d="M675 1292q0 48 30.5 78.5t75.5 30.5q48 0 79 -30.5t31 -78.5q0 -47 -31 -77t-79 -30q-45 0 -75.5 30.5t-30.5 76.5zM391 643l-22 -121q-10 -66 -10 -111q0 -127 73 -204.5t199 -77.5q115 0 188.5 76t97.5 216l23 131q5 31 5 94q0 122 -73 199t-196 77q-110 0 -185 -70
t-100 -209zM206 537l24 137q32 183 154.5 288.5t295.5 105.5q195 0 314 -114.5t119 -309.5q0 -58 -12 -126l-25 -137q-36 -189 -152 -293.5t-312 -104.5q-181 0 -299.5 109t-118.5 296q0 85 12 149z" />
    <glyph glyph-name="Odotaccentmacron" unicode="&#x230;" horiz-adv-x="1384" 
d="M868 1607q0 48 30.5 78.5t75.5 30.5q48 0 79 -30.5t31 -78.5q0 -47 -31 -77t-79 -30q-45 0 -75.5 30.5t-30.5 76.5zM458 860l-36 -194q-15 -82 -15 -159q0 -173 100 -274t275 -101q323 0 394 392l37 209q9 49 9 133q0 167 -100.5 268t-271.5 101q-151 0 -253.5 -91
t-138.5 -284zM249 681l38 210q43 239 197 371.5t371 132.5q244 0 392.5 -143t148.5 -393q0 -90 -15 -168l-39 -212q-45 -246 -192 -377t-394 -131q-228 0 -375 136.5t-147 374.5q0 115 15 199zM1360 1893l-18 -105h-680l18 105h680z" />
    <glyph glyph-name="odotaccentmacron" unicode="&#x231;" horiz-adv-x="1132" 
d="M675 1292q0 48 30.5 78.5t75.5 30.5q48 0 79 -30.5t31 -78.5q0 -47 -31 -77t-79 -30q-45 0 -75.5 30.5t-30.5 76.5zM1173 1641l-19 -105h-680l19 105h680zM391 643l-22 -121q-10 -66 -10 -111q0 -127 73 -204.5t199 -77.5q115 0 188.5 76t97.5 216l23 131q5 31 5 94
q0 122 -73 199t-196 77q-110 0 -185 -70t-100 -209zM206 537l24 137q32 183 154.5 288.5t295.5 105.5q195 0 314 -114.5t119 -309.5q0 -58 -12 -126l-25 -137q-36 -189 -152 -293.5t-312 -104.5q-181 0 -299.5 109t-118.5 296q0 85 12 149z" />
    <glyph glyph-name="Ymacron" unicode="&#x232;" horiz-adv-x="1131" 
d="M750 584l-103 -584h-170l103 582l-332 784h179l253 -629h11l459 629h200zM1179 1611l-18 -105h-680l18 105h680z" />
    <glyph glyph-name="ymacron" unicode="&#x233;" horiz-adv-x="1041" 
d="M1146 1050l-539 -1043q0 -1 -21 -41l-21 -40q-33 -64 -58.5 -104t-59 -76t-72 -55t-91 -30t-121.5 -11q-46 0 -87 12l32 137q35 -9 77 -9q86 0 134 42.5t88 130.5l24 53l-200 1034h178l136 -853h12l409 853h180zM1076 1311l-19 -105h-680l19 105h680z" />
    <glyph glyph-name="circumflex" unicode="&#x2c6;" horiz-adv-x="1000" 
d="M410 1187l307 379h114l181 -379h-143l-110 267h-4l-198 -267h-147z" />
    <glyph glyph-name="caron" unicode="&#x2c7;" horiz-adv-x="1000" 
d="M672 1217l-181 380h143l110 -268h3l198 268h148l-307 -380h-114z" />
    <glyph glyph-name="breve" unicode="&#x2d8;" horiz-adv-x="1000" 
d="M468 1507h117q-11 -67 28 -115t123 -48q83 0 134.5 47t62.5 116h118q-5 -48 -26.5 -94t-59 -86.5t-97.5 -65.5t-133 -25q-59 0 -109 16.5t-82 44t-54 63t-25.5 73t3.5 74.5z" />
    <glyph glyph-name="dotaccent" unicode="&#x2d9;" horiz-adv-x="1000" 
d="M608 1435q0 61 40 101.5t97 40.5q61 0 101 -39.5t40 -100.5q0 -59 -40.5 -98.5t-101.5 -39.5q-56 0 -96 39t-40 97z" />
    <glyph glyph-name="ring" unicode="&#x2da;" horiz-adv-x="1000" 
d="M737 1312q43 0 73.5 30.5t30.5 73.5t-30.5 73t-73.5 30q-42 0 -73 -30.5t-31 -72.5q0 -43 31 -73.5t73 -30.5zM737 1226q-79 0 -134 55.5t-55 133.5q0 79 55 133.5t134 54.5q78 0 132.5 -54.5t54.5 -132.5q0 -79 -55 -134.5t-132 -55.5z" />
    <glyph glyph-name="ogonek" unicode="&#x2db;" horiz-adv-x="1000" 
d="M589 69q-54 -40 -101 -101t-47 -128q0 -48 32 -84.5t114 -36.5h31v-104q-25 -9 -71 -9q-100 0 -169 56.5t-69 157.5q0 124 110 215q1 1 35 28t35 28z" />
    <glyph glyph-name="tilde" unicode="&#x2dc;" horiz-adv-x="1000" 
d="M849 1159q-83 0 -147 92q-4 6 -13.5 20t-14 20t-13.5 16.5t-16 15t-17.5 8.5t-22.5 4q-21 0 -36 -10.5t-24.5 -30.5t-14.5 -37.5t-10 -43.5h-123q11 116 67 182.5t142 66.5q33 0 60 -9t49 -30t33 -34t31 -41q2 -3 8 -11t8 -10.5t7 -9.5t7.5 -9t7.5 -7t8.5 -6.5t8.5 -4
t10 -3.5t11 -1q65 0 89 123h123q-6 -98 -67 -174t-151 -76z" />
    <glyph glyph-name="hungarumlaut" unicode="&#x2dd;" horiz-adv-x="1000" 
d="M540 1209h-123l250 302h182zM840 1209h-127l254 302h178z" />
    <glyph glyph-name="gravecmb" unicode="&#x300;" 
d="M311 1209h-135l-240 354h187z" />
    <glyph glyph-name="acutecmb" unicode="&#x301;" 
d="M217 1209h-128l293 354h183z" />
    <glyph glyph-name="circumflexcmb" unicode="&#x302;" 
d="M-91 1200l307 379h114l181 -379h-143l-110 267h-4l-198 -267h-147z" />
    <glyph glyph-name="tildecmb" unicode="&#x303;" 
d="M316 1130q-83 0 -147 92q-4 6 -13.5 20t-14 20t-13.5 16.5t-16 15t-17.5 8.5t-22.5 4q-21 0 -36 -10.5t-24.5 -30.5t-14.5 -37.5t-10 -43.5h-123q11 116 67 182.5t142 66.5q33 0 60 -9t49 -30t33 -34t31 -41q2 -3 8 -11t8 -10.5t7 -9.5t7.5 -9t7.5 -7t8.5 -6.5t8.5 -4
t10 -3.5t11 -1q65 0 89 123h123q-6 -98 -67 -174t-151 -76z" />
    <glyph glyph-name="macroncmb" unicode="&#x304;" 
d="M558 1311l-19 -105h-680l19 105h680z" />
    <glyph glyph-name="brevecmb" unicode="&#x306;" 
d="M-39 1468h117q-11 -67 28 -115t123 -48q83 0 134.5 47t62.5 116h118q-5 -48 -26.5 -94t-59 -86.5t-97.5 -65.5t-133 -25q-59 0 -109 16.5t-82 44t-54 63t-25.5 73t3.5 74.5z" />
    <glyph glyph-name="dotaccentcmb" unicode="&#x307;" 
d="M120 1292q0 48 30.5 78.5t75.5 30.5q48 0 79 -30.5t31 -78.5q0 -47 -31 -77t-79 -30q-45 0 -75.5 30.5t-30.5 76.5z" />
    <glyph glyph-name="dieresiscmb" unicode="&#x308;" 
d="M-63 1297q0 46 31 75.5t77 29.5q47 0 77.5 -29.5t30.5 -75.5q0 -44 -30.5 -73t-77.5 -29q-46 0 -77 29t-31 73zM298 1297q0 46 30 75.5t74 29.5q49 0 80 -29.5t31 -75.5q0 -44 -31 -73t-80 -29q-44 0 -74 29t-30 73z" />
    <glyph glyph-name="hookabovecmb" unicode="&#x309;" 
d="M96 1447l15 98q40 18 113 18q88 0 140 -43.5t52 -111.5q0 -80 -46.5 -135.5t-142.5 -95.5l-52 87q69 34 94.5 62t25.5 63q0 31 -27.5 52.5t-68.5 21.5q-59 0 -103 -16z" />
    <glyph glyph-name="ringcmb" unicode="&#x30a;" 
d="M249 1310q43 0 73.5 30.5t30.5 73.5t-30.5 73t-73.5 30q-42 0 -73 -30.5t-31 -72.5q0 -43 31 -73.5t73 -30.5zM249 1224q-79 0 -134 55.5t-55 133.5q0 79 55 133.5t134 54.5q78 0 132.5 -54.5t54.5 -132.5q0 -79 -55 -134.5t-132 -55.5z" />
    <glyph glyph-name="hungarumlautcmb" unicode="&#x30b;" 
d="M124 1209h-123l250 302h182zM424 1209h-127l254 302h178z" />
    <glyph glyph-name="caroncmb" unicode="&#x30c;" 
d="M161 1216l-181 380h143l110 -268h3l198 268h148l-307 -380h-114z" />
    <glyph glyph-name="dblgravecmb" unicode="&#x30f;" 
d="M134 1209h-125l-226 328h170zM438 1209h-122l-230 328h175z" />
    <glyph glyph-name="invertedbrevecmb" unicode="&#x311;" 
d="M-61 1236q4 48 24 94t56 87t94.5 66t131.5 25q59 0 109.5 -16.5t82.5 -44t54 -63.5t25 -73.5t-4 -74.5h-117q11 68 -28 116t-123 48q-82 0 -128.5 -46.5t-59.5 -117.5h-117z" />
    <glyph glyph-name="horncmb" unicode="&#x31b;" 
d="M173 958l26 151q33 -39 94 -39q75 1 111.5 41.5t50.5 116.5l27 156h149l-28 -158q-8 -47 -24 -89.5t-41.5 -82t-58.5 -67.5t-78 -45t-98 -17q-92 0 -130 33z" />
    <glyph glyph-name="dotbelowcmb" unicode="&#x323;" 
d="M-136 -228q0 45 28 73t70 28q44 0 72 -28t28 -73q0 -44 -28 -71.5t-72 -27.5q-42 0 -70 28t-28 71z" />
    <glyph glyph-name="dieresisbelowcmb" unicode="&#x324;" 
d="M-333 -255q0 46 31 75.5t77 29.5q47 0 77.5 -29.5t30.5 -75.5q0 -44 -30.5 -73t-77.5 -29q-46 0 -77 29t-31 73zM28 -255q0 46 30 75.5t74 29.5q49 0 80 -29.5t31 -75.5q0 -44 -31 -73t-80 -29q-44 0 -74 29t-30 73z" />
    <glyph glyph-name="ringbelowcmb" unicode="&#x325;" 
d="M-44 -384q43 0 73.5 30.5t30.5 73.5t-30.5 73t-73.5 30q-42 0 -73 -30.5t-31 -72.5q0 -43 31 -73.5t73 -30.5zM-44 -470q-79 0 -134 55.5t-55 133.5q0 79 55 133.5t134 54.5q78 0 132.5 -54.5t54.5 -132.5q0 -79 -55 -134.5t-132 -55.5z" />
    <glyph glyph-name="commabelowcmb" unicode="&#x326;" 
d="M-52 -446h-123l80 306h147z" />
    <glyph glyph-name="cedillacmb" unicode="&#x327;" 
d="M-115 -147l55 164h124l-49 -152q85 -2 137.5 -42.5t52.5 -114.5v-2q-1 -89 -67.5 -139.5t-168.5 -50.5q-81 0 -159 28l17 102q60 -19 130 -19q108 0 108 73q0 74 -139 74h-50z" />
    <glyph glyph-name="ogonekcmb" unicode="&#x328;" 
d="M45 27q-54 -40 -101 -101t-47 -128q0 -48 32 -84.5t114 -36.5h31v-104q-25 -9 -71 -9q-100 0 -169 56.5t-69 157.5q0 124 110 215q1 1 35 28t35 28z" />
    <glyph glyph-name="circumflexbelowcmb" unicode="&#x32d;" 
d="M-391 -394l281 261h165l188 -261h-156l-117 168h-12l-183 -168h-166z" />
    <glyph glyph-name="brevebelowcmb" unicode="&#x32e;" 
d="M-322 -113h124q-12 -66 29 -115t122 -49q82 0 136 46t66 118h124q-5 -45 -26 -90.5t-58.5 -87.5t-100 -68t-140.5 -26t-137.5 24.5t-91 64.5t-43.5 87t-4 96z" />
    <glyph glyph-name="tildebelowcmb" unicode="&#x330;" 
d="M58 -433q-85 0 -148 93q-4 5 -13.5 19.5t-13.5 20.5t-13.5 16t-16.5 14.5t-17.5 8.5t-22.5 4q-21 0 -36 -10.5t-24.5 -30.5t-14.5 -37t-10 -43h-123q11 115 67.5 181.5t142.5 66.5q33 0 60 -9t49 -30t33 -34t31 -41q31 -44 46 -53q13 -9 29 -9q36 0 58 37t31 87h123
q-6 -99 -67 -175t-150 -76z" />
    <glyph glyph-name="macronbelowcmb" unicode="&#x331;" 
d="M301 -181l-19 -105h-680l19 105h680z" />
    <glyph glyph-name="Delta" unicode="&#x394;" horiz-adv-x="1243" 
d="M1193 0h-1153l725 1365h182zM300 154h693l-162 1007h-11z" />
    <glyph glyph-name="Omega" unicode="&#x3a9;" horiz-adv-x="1384" 
d="M775 0l25 171q54 16 104.5 45t101.5 75.5t88.5 118t52.5 158.5l31 173q13 71 13 135q0 179 -92 270t-244 91q-154 0 -262.5 -92.5t-141.5 -273.5l-30 -173q-11 -59 -11 -144q0 -139 49 -237.5t129 -145.5l-29 -171h-429l26 149h251l4 14q-70 48 -116.5 160t-46.5 257
q0 89 11 148l31 174q43 242 195 367t374 125q231 0 365 -132t134 -374q0 -87 -16 -173l-31 -174q-24 -132 -118 -237t-188 -136l-4 -19h282l-28 -149h-480z" />
    <glyph glyph-name="mu" unicode="&#x3bc;" horiz-adv-x="1235" 
d="M332 73l-56 -408h-163l250 1385h166l-103 -572q-15 -85 -14 -135q0 -98 53.5 -154t157.5 -56q132 0 211 87.5t104 228.5l105 601h162l-148 -831q-8 -45 11.5 -70.5t66.5 -25.5q26 0 53 5l-23 -133q-48 -12 -105 -12q-172 0 -172 163q0 3 1 11.5t3 16.5l1 8h-5
q-39 -87 -120.5 -143t-196.5 -56q-150 0 -238 90h-1z" />
    <glyph glyph-name="pi" unicode="&#x3c0;" horiz-adv-x="1275" 
d="M1151 0q-51 -11 -98 -11q-87 0 -136.5 39t-51.5 106q-1 21 3 45l130 729h-388l-160 -908h-166l160 908h-228l25 142h1163l-25 -142h-215l-122 -689q-3 -19 -1 -38q9 -52 79 -52q28 0 54 6z" />
    <glyph glyph-name="Aringbelow" unicode="&#x1e00;" horiz-adv-x="1246" 
d="M45 0l726 1366h183l244 -1366h-175l-67 414h-515l-214 -414h-182zM836 1160h-12l-310 -606h419zM579 -384q43 0 73.5 30.5t30.5 73.5t-30.5 73t-73.5 30q-42 0 -73 -30.5t-31 -72.5q0 -43 31 -73.5t73 -30.5zM579 -470q-79 0 -134 55.5t-55 133.5q0 79 55 133.5t134 54.5
q78 0 132.5 -54.5t54.5 -132.5q0 -79 -55 -134.5t-132 -55.5z" />
    <glyph glyph-name="aringbelow" unicode="&#x1e01;" horiz-adv-x="1105" 
d="M485 -17q-135 0 -226 79.5t-91 213.5q0 28 2 46q14 135 121 213.5t304 78.5h283l12 67q4 22 4 48q0 37 -11.5 70t-36.5 62.5t-70.5 47t-107.5 17.5q-93 0 -150 -36.5t-76 -92.5h-163q23 122 130 196.5t273 74.5q179 0 275.5 -91t96.5 -238q0 -58 -20 -164l-101 -575h-162
l25 142h-11q-33 -64 -111.5 -111.5t-188.5 -47.5zM337 297q0 -73 51 -120t141 -47q110 0 195 65t104 165l25 126h-269q-122 0 -184.5 -54t-62.5 -135zM452 -384q43 0 73.5 30.5t30.5 73.5t-30.5 73t-73.5 30q-42 0 -73 -30.5t-31 -72.5q0 -43 31 -73.5t73 -30.5zM452 -470
q-79 0 -134 55.5t-55 133.5q0 79 55 133.5t134 54.5q78 0 132.5 -54.5t54.5 -132.5q0 -79 -55 -134.5t-132 -55.5z" />
    <glyph glyph-name="Bdotaccent" unicode="&#x1e02;" horiz-adv-x="1276" 
d="M192 0l241 1366h449q87 0 156 -18t112 -47.5t71.5 -70t39.5 -82t11 -87.5q0 -127 -79.5 -219t-189.5 -119l-2 -11q111 -21 175.5 -97.5t64.5 -202.5q0 -190 -145.5 -301t-408.5 -111h-495zM577 1220l-79 -442h279q138 0 227 69t89 188q0 92 -63 138.5t-200 46.5h-253z
M472 632l-86 -485h316q160 0 263 71t103 196q0 101 -74.5 159.5t-232.5 58.5h-289zM772 1607q0 48 30.5 78.5t75.5 30.5q48 0 79 -30.5t31 -78.5q0 -47 -31 -77t-79 -30q-45 0 -75.5 30.5t-30.5 76.5z" />
    <glyph glyph-name="bdotaccent" unicode="&#x1e03;" horiz-adv-x="1198" 
d="M446 1661q0 48 30.5 78.5t75.5 30.5q48 0 79 -30.5t31 -78.5q0 -47 -31 -77t-79 -30q-45 0 -75.5 30.5t-30.5 76.5zM706 -17q-121 0 -208 70.5t-107 156.5h-12l-37 -210h-166l253 1419h167l-97 -535h13q16 33 38.5 62.5t58 58t88 45.5t116.5 17q166 0 267 -105.5
t101 -285.5q0 -76 -8 -123l-35 -194q-29 -165 -141 -270.5t-291 -105.5zM431 429q0 -72 24 -129.5t63 -92.5t85 -53t93 -18q116 0 192.5 79t98.5 197l28 153q4 25 4 88q0 128 -69 200t-190 72q-119 0 -198.5 -82t-101.5 -217l-24 -149q-5 -24 -5 -48z" />
    <glyph glyph-name="Bdotbelow" unicode="&#x1e04;" horiz-adv-x="1276" 
d="M502 -228q0 45 28 73t70 28q44 0 72 -28t28 -73q0 -44 -28 -71.5t-72 -27.5q-42 0 -70 28t-28 71zM192 0l241 1366h449q87 0 156 -18t112 -47.5t71.5 -70t39.5 -82t11 -87.5q0 -127 -79.5 -219t-189.5 -119l-2 -11q111 -21 175.5 -97.5t64.5 -202.5q0 -190 -145.5 -301
t-408.5 -111h-495zM577 1220l-79 -442h279q138 0 227 69t89 188q0 92 -63 138.5t-200 46.5h-253zM472 632l-86 -485h316q160 0 263 71t103 196q0 101 -74.5 159.5t-232.5 58.5h-289z" />
    <glyph glyph-name="bdotbelow" unicode="&#x1e05;" horiz-adv-x="1198" 
d="M539 -228q0 45 28 73t70 28q44 0 72 -28t28 -73q0 -44 -28 -71.5t-72 -27.5q-42 0 -70 28t-28 71zM706 -17q-121 0 -208 70.5t-107 156.5h-12l-37 -210h-166l253 1419h167l-97 -535h13q16 33 38.5 62.5t58 58t88 45.5t116.5 17q166 0 267 -105.5t101 -285.5
q0 -76 -8 -123l-35 -194q-29 -165 -141 -270.5t-291 -105.5zM431 429q0 -72 24 -129.5t63 -92.5t85 -53t93 -18q116 0 192.5 79t98.5 197l28 153q4 25 4 88q0 128 -69 200t-190 72q-119 0 -198.5 -82t-101.5 -217l-24 -149q-5 -24 -5 -48z" />
    <glyph glyph-name="Blinebelow" unicode="&#x1e06;" horiz-adv-x="1276" 
d="M192 0l241 1366h449q87 0 156 -18t112 -47.5t71.5 -70t39.5 -82t11 -87.5q0 -127 -79.5 -219t-189.5 -119l-2 -11q111 -21 175.5 -97.5t64.5 -202.5q0 -190 -145.5 -301t-408.5 -111h-495zM577 1220l-79 -442h279q138 0 227 69t89 188q0 92 -63 138.5t-200 46.5h-253z
M472 632l-86 -485h316q160 0 263 71t103 196q0 101 -74.5 159.5t-232.5 58.5h-289zM939 -181l-19 -105h-680l19 105h680z" />
    <glyph glyph-name="blinebelow" unicode="&#x1e07;" horiz-adv-x="1198" 
d="M976 -181l-19 -105h-680l19 105h680zM706 -17q-121 0 -208 70.5t-107 156.5h-12l-37 -210h-166l253 1419h167l-97 -535h13q16 33 38.5 62.5t58 58t88 45.5t116.5 17q166 0 267 -105.5t101 -285.5q0 -76 -8 -123l-35 -194q-29 -165 -141 -270.5t-291 -105.5zM431 429
q0 -72 24 -129.5t63 -92.5t85 -53t93 -18q116 0 192.5 79t98.5 197l28 153q4 25 4 88q0 128 -69 200t-190 72q-119 0 -198.5 -82t-101.5 -217l-24 -149q-5 -24 -5 -48z" />
    <glyph glyph-name="Ccedillaacute" unicode="&#x1e08;" horiz-adv-x="1295" 
d="M754 1500l295 193h217l-327 -193h-185zM680 -484q-81 0 -159 28l17 102q60 -19 130 -19q108 0 108 73q0 74 -139 74h-50l9 79l42 128q-178 31 -290 161t-112 356q0 101 9 149l48 247q48 243 198 372t361 129q111 0 204.5 -34.5t155 -91.5t95.5 -130.5t34 -152.5
q0 -26 -3 -36h-164q0 20 -1 28q-5 45 -26 88.5t-58.5 82t-100 62.5t-139.5 24q-310 0 -388 -374l-40 -198q-14 -68 -14 -161q0 -95 28 -168t77.5 -116t111.5 -64.5t135 -21.5q138 0 222 67t106 167h169q-1 -14 -8 -45q-13 -62 -48 -120t-92.5 -110t-147.5 -84.5t-200 -34.5
l-34 -107q85 -2 137.5 -42.5t52.5 -114.5v-2q-1 -89 -67.5 -139.5t-168.5 -50.5z" />
    <glyph glyph-name="ccedillaacute" unicode="&#x1e09;" horiz-adv-x="1061" 
d="M747 1209h-128l293 354h183zM513 -484q-81 0 -159 28l17 102q60 -19 130 -19q108 0 108 73q0 74 -139 74h-50l9 79l49 146q-133 36 -208.5 138t-75.5 252q0 67 14 151l26 146q32 185 151 283.5t298 98.5q182 0 289.5 -96.5t107.5 -235.5v-12h-157v10q0 71 -65 131
t-175 60q-111 0 -189 -73t-102 -207l-21 -117q-10 -61 -10 -106q0 -138 66 -214.5t192 -76.5q92 0 152 38.5t75 96.5h169q-22 -129 -132.5 -205.5t-269.5 -77.5h-16l-38 -118q85 -2 137.5 -42.5t52.5 -114.5v-2q-1 -89 -67.5 -139.5t-168.5 -50.5z" />
    <glyph glyph-name="Ddotaccent" unicode="&#x1e0a;" horiz-adv-x="1355" 
d="M809 1607q0 48 30.5 78.5t75.5 30.5q48 0 79 -30.5t31 -78.5q0 -47 -31 -77t-79 -30q-45 0 -75.5 30.5t-30.5 76.5zM433 1366h379q265 0 407 -139.5t142 -375.5q0 -86 -12 -154q0 -2 -13.5 -77.5t-14.5 -76.5q-99 -543 -751 -543h-378zM578 1214l-190 -1062h181
q241 0 393.5 103.5t190.5 305.5l13 68q13 68 13 69q9 49 9 136q0 189 -107 284.5t-318 95.5h-185z" />
    <glyph glyph-name="ddotaccent" unicode="&#x1e0b;" horiz-adv-x="1196" 
d="M1120 1661q0 48 30.5 78.5t75.5 30.5q48 0 79 -30.5t31 -78.5q0 -47 -31 -77t-79 -30q-45 0 -75.5 30.5t-30.5 76.5zM681 1067q127 0 211.5 -70t97.5 -148h13l98 570h168l-250 -1419h-163l31 177h-14q-23 -71 -101 -131.5t-199 -60.5q-166 0 -271.5 109.5t-105.5 289.5
q0 72 10 122l38 193q32 164 144.5 266t292.5 102zM960 632q0 140 -81 215.5t-187 75.5q-118 0 -192 -76.5t-99 -201.5l-31 -150q-6 -32 -6 -87q0 -128 71 -201t192 -73q120 0 198 82t103 218l27 149q5 25 5 49z" />
    <glyph glyph-name="Ddotbelow" unicode="&#x1e0c;" horiz-adv-x="1355" 
d="M513 -228q0 45 28 73t70 28q44 0 72 -28t28 -73q0 -44 -28 -71.5t-72 -27.5q-42 0 -70 28t-28 71zM433 1366h379q265 0 407 -139.5t142 -375.5q0 -86 -12 -154q0 -2 -13.5 -77.5t-14.5 -76.5q-99 -543 -751 -543h-378zM578 1214l-190 -1062h181q241 0 393.5 103.5
t190.5 305.5l13 68q13 68 13 69q9 49 9 136q0 189 -107 284.5t-318 95.5h-185z" />
    <glyph glyph-name="ddotbelow" unicode="&#x1e0d;" horiz-adv-x="1196" 
d="M463 -228q0 45 28 73t70 28q44 0 72 -28t28 -73q0 -44 -28 -71.5t-72 -27.5q-42 0 -70 28t-28 71zM681 1067q127 0 211.5 -70t97.5 -148h13l98 570h168l-250 -1419h-163l31 177h-14q-23 -71 -101 -131.5t-199 -60.5q-166 0 -271.5 109.5t-105.5 289.5q0 72 10 122l38 193
q32 164 144.5 266t292.5 102zM960 632q0 140 -81 215.5t-187 75.5q-118 0 -192 -76.5t-99 -201.5l-31 -150q-6 -32 -6 -87q0 -128 71 -201t192 -73q120 0 198 82t103 218l27 149q5 25 5 49z" />
    <glyph glyph-name="Dlinebelow" unicode="&#x1e0e;" horiz-adv-x="1355" 
d="M950 -181l-19 -105h-680l19 105h680zM433 1366h379q265 0 407 -139.5t142 -375.5q0 -86 -12 -154q0 -2 -13.5 -77.5t-14.5 -76.5q-99 -543 -751 -543h-378zM578 1214l-190 -1062h181q241 0 393.5 103.5t190.5 305.5l13 68q13 68 13 69q9 49 9 136q0 189 -107 284.5
t-318 95.5h-185z" />
    <glyph glyph-name="dlinebelow" unicode="&#x1e0f;" horiz-adv-x="1196" 
d="M900 -181l-19 -105h-680l19 105h680zM681 1067q127 0 211.5 -70t97.5 -148h13l98 570h168l-250 -1419h-163l31 177h-14q-23 -71 -101 -131.5t-199 -60.5q-166 0 -271.5 109.5t-105.5 289.5q0 72 10 122l38 193q32 164 144.5 266t292.5 102zM960 632q0 140 -81 215.5
t-187 75.5q-118 0 -192 -76.5t-99 -201.5l-31 -150q-6 -32 -6 -87q0 -128 71 -201t192 -73q120 0 198 82t103 218l27 149q5 25 5 49z" />
    <glyph glyph-name="Dcommaaccent" unicode="&#x1e10;" horiz-adv-x="1355" 
d="M597 -446h-123l80 306h147zM433 1366h379q265 0 407 -139.5t142 -375.5q0 -86 -12 -154q0 -2 -13.5 -77.5t-14.5 -76.5q-99 -543 -751 -543h-378zM578 1214l-190 -1062h181q241 0 393.5 103.5t190.5 305.5l13 68q13 68 13 69q9 49 9 136q0 189 -107 284.5t-318 95.5h-185
z" />
    <glyph glyph-name="dcommaaccent" unicode="&#x1e11;" horiz-adv-x="1196" 
d="M547 -446h-123l80 306h147zM681 1067q127 0 211.5 -70t97.5 -148h13l98 570h168l-250 -1419h-163l31 177h-14q-23 -71 -101 -131.5t-199 -60.5q-166 0 -271.5 109.5t-105.5 289.5q0 72 10 122l38 193q32 164 144.5 266t292.5 102zM960 632q0 140 -81 215.5t-187 75.5
q-118 0 -192 -76.5t-99 -201.5l-31 -150q-6 -32 -6 -87q0 -128 71 -201t192 -73q120 0 198 82t103 218l27 149q5 25 5 49z" />
    <glyph glyph-name="Dcircumflexbelow" unicode="&#x1e12;" horiz-adv-x="1355" 
d="M433 1366h379q265 0 407 -139.5t142 -375.5q0 -86 -12 -154q0 -2 -13.5 -77.5t-14.5 -76.5q-99 -543 -751 -543h-378zM578 1214l-190 -1062h181q241 0 393.5 103.5t190.5 305.5l13 68q13 68 13 69q9 49 9 136q0 189 -107 284.5t-318 95.5h-185zM258 -394l281 261h165
l188 -261h-156l-117 168h-12l-183 -168h-166z" />
    <glyph glyph-name="dcircumflexbelow" unicode="&#x1e13;" horiz-adv-x="1196" 
d="M681 1067q127 0 211.5 -70t97.5 -148h13l98 570h168l-250 -1419h-163l31 177h-14q-23 -71 -101 -131.5t-199 -60.5q-166 0 -271.5 109.5t-105.5 289.5q0 72 10 122l38 193q32 164 144.5 266t292.5 102zM960 632q0 140 -81 215.5t-187 75.5q-118 0 -192 -76.5t-99 -201.5
l-31 -150q-6 -32 -6 -87q0 -128 71 -201t192 -73q120 0 198 82t103 218l27 149q5 25 5 49zM208 -394l281 261h165l188 -261h-156l-117 168h-12l-183 -168h-166z" />
    <glyph glyph-name="Emacrongrave" unicode="&#x1e14;" horiz-adv-x="1133" 
d="M1009 1724h-179l-303 192h207zM1027 152l-25 -152h-810l241 1366h805l-26 -152h-635l-79 -435h604l-24 -150h-606l-85 -477h640zM1198 1611l-18 -105h-680l18 105h680z" />
    <glyph glyph-name="emacrongrave" unicode="&#x1e15;" horiz-adv-x="1094" 
d="M899 1466h-135l-240 354h187zM597 -17q-179 0 -291 104t-112 294q0 69 17 161l28 149q31 177 155 277t305 100q67 0 124.5 -14.5t98 -40t73 -60t50.5 -74.5t30 -83t11 -86.5t-6 -84.5q0 -16 -25 -141h-691q-10 -38 -10 -91q0 -52 13.5 -97t42.5 -83.5t80 -60.5t119 -22
q93 0 156 38.5t81 94.5h166q-20 -110 -133.5 -195t-281.5 -85zM918 614l2 9l1 9q24 125 -37 209.5t-191 84.5q-103 0 -183 -61t-105 -181l-15 -70h528zM1099 1311l-19 -105h-680l19 105h680z" />
    <glyph glyph-name="Emacronacute" unicode="&#x1e16;" horiz-adv-x="1133" 
d="M742 1724l295 193h217l-327 -193h-185zM1027 152l-25 -152h-810l241 1366h805l-26 -152h-635l-79 -435h604l-24 -150h-606l-85 -477h640zM1198 1611l-18 -105h-680l18 105h680z" />
    <glyph glyph-name="emacronacute" unicode="&#x1e17;" horiz-adv-x="1094" 
d="M805 1466h-128l293 354h183zM597 -17q-179 0 -291 104t-112 294q0 69 17 161l28 149q31 177 155 277t305 100q67 0 124.5 -14.5t98 -40t73 -60t50.5 -74.5t30 -83t11 -86.5t-6 -84.5q0 -16 -25 -141h-691q-10 -38 -10 -91q0 -52 13.5 -97t42.5 -83.5t80 -60.5t119 -22
q93 0 156 38.5t81 94.5h166q-20 -110 -133.5 -195t-281.5 -85zM918 614l2 9l1 9q24 125 -37 209.5t-191 84.5q-103 0 -183 -61t-105 -181l-15 -70h528zM1099 1311l-19 -105h-680l19 105h680z" />
    <glyph glyph-name="Ecircumflexbelow" unicode="&#x1e18;" horiz-adv-x="1133" 
d="M1027 152l-25 -152h-810l241 1366h805l-26 -152h-635l-79 -435h604l-24 -150h-606l-85 -477h640zM205 -394l281 261h165l188 -261h-156l-117 168h-12l-183 -168h-166z" />
    <glyph glyph-name="ecircumflexbelow" unicode="&#x1e19;" horiz-adv-x="1094" 
d="M597 -17q-179 0 -291 104t-112 294q0 69 17 161l28 149q31 177 155 277t305 100q67 0 124.5 -14.5t98 -40t73 -60t50.5 -74.5t30 -83t11 -86.5t-6 -84.5q0 -16 -25 -141h-691q-10 -38 -10 -91q0 -52 13.5 -97t42.5 -83.5t80 -60.5t119 -22q93 0 156 38.5t81 94.5h166
q-20 -110 -133.5 -195t-281.5 -85zM918 614l2 9l1 9q24 125 -37 209.5t-191 84.5q-103 0 -183 -61t-105 -181l-15 -70h528zM194 -394l281 261h165l188 -261h-156l-117 168h-12l-183 -168h-166z" />
    <glyph glyph-name="Etildebelow" unicode="&#x1e1a;" horiz-adv-x="1133" 
d="M654 -433q-85 0 -148 93q-4 5 -13.5 19.5t-13.5 20.5t-13.5 16t-16.5 14.5t-17.5 8.5t-22.5 4q-21 0 -36 -10.5t-24.5 -30.5t-14.5 -37t-10 -43h-123q11 115 67.5 181.5t142.5 66.5q33 0 60 -9t49 -30t33 -34t31 -41q31 -44 46 -53q13 -9 29 -9q36 0 58 37t31 87h123
q-6 -99 -67 -175t-150 -76zM1027 152l-25 -152h-810l241 1366h805l-26 -152h-635l-79 -435h604l-24 -150h-606l-85 -477h640z" />
    <glyph glyph-name="etildebelow" unicode="&#x1e1b;" horiz-adv-x="1094" 
d="M643 -433q-85 0 -148 93q-4 5 -13.5 19.5t-13.5 20.5t-13.5 16t-16.5 14.5t-17.5 8.5t-22.5 4q-21 0 -36 -10.5t-24.5 -30.5t-14.5 -37t-10 -43h-123q11 115 67.5 181.5t142.5 66.5q33 0 60 -9t49 -30t33 -34t31 -41q31 -44 46 -53q13 -9 29 -9q36 0 58 37t31 87h123
q-6 -99 -67 -175t-150 -76zM597 -17q-179 0 -291 104t-112 294q0 69 17 161l28 149q31 177 155 277t305 100q67 0 124.5 -14.5t98 -40t73 -60t50.5 -74.5t30 -83t11 -86.5t-6 -84.5q0 -16 -25 -141h-691q-10 -38 -10 -91q0 -52 13.5 -97t42.5 -83.5t80 -60.5t119 -22
q93 0 156 38.5t81 94.5h166q-20 -110 -133.5 -195t-281.5 -85zM918 614l2 9l1 9q24 125 -37 209.5t-191 84.5q-103 0 -183 -61t-105 -181l-15 -70h528z" />
    <glyph glyph-name="Ecedillabreve" unicode="&#x1e1c;" horiz-adv-x="1133" 
d="M515 0h-323l241 1366h805l-26 -152h-635l-79 -435h604l-24 -150h-606l-85 -477h640l-25 -152h-363l-43 -135q85 -2 137.5 -42.5t52.5 -114.5v-2q-1 -89 -67.5 -139.5t-169.5 -50.5q-82 0 -158 28l17 102q60 -19 129 -19q109 0 109 73q0 43 -38 58.5t-102 15.5h-50l9 79z
M563 1747h121q-3 -65 44.5 -104.5t135.5 -39.5q86 0 140.5 41.5t64.5 102.5h125q-5 -48 -27 -92t-62 -82t-106.5 -60.5t-149.5 -22.5q-149 0 -225.5 78.5t-60.5 178.5z" />
    <glyph glyph-name="ecedillabreve" unicode="&#x1e1d;" horiz-adv-x="1094" 
d="M502 1468h117q-11 -67 28 -115t123 -48q83 0 134.5 47t62.5 116h118q-5 -48 -26.5 -94t-59 -86.5t-97.5 -65.5t-133 -25q-59 0 -109 16.5t-82 44t-54 63t-25.5 73t3.5 74.5zM918 614l2 9l1 9q24 125 -37 209.5t-191 84.5q-103 0 -183 -61t-105 -181l-15 -70h528z
M528 -484q-81 0 -159 28l17 102q60 -19 130 -19q108 0 108 73q0 74 -139 74h-50l9 79l47 140q-136 29 -216.5 128.5t-80.5 259.5q0 69 17 161l28 149q31 177 155 277t305 100q67 0 124.5 -14.5t98 -40t73 -60t50.5 -74.5t30 -83t11 -86.5t-6 -84.5q0 -16 -25 -141h-691
q-10 -38 -10 -91q0 -52 13.5 -97t42.5 -83.5t80 -60.5t119 -22q93 0 156 38.5t81 94.5h166q-20 -107 -129.5 -191.5t-270.5 -88.5l-38 -118q85 -2 137.5 -42.5t52.5 -114.5v-2q-1 -89 -67.5 -139.5t-168.5 -50.5z" />
    <glyph glyph-name="Fdotaccent" unicode="&#x1e1e;" horiz-adv-x="1112" 
d="M748 1607q0 48 30.5 78.5t75.5 30.5q48 0 79 -30.5t31 -78.5q0 -47 -31 -77t-79 -30q-45 0 -75.5 30.5t-30.5 76.5zM362 0h-170l242 1366h803l-25 -152h-634l-85 -468h584l-23 -151h-586z" />
    <glyph glyph-name="fdotaccent" unicode="&#x1e1f;" horiz-adv-x="741" 
d="M656 1669q0 48 30.5 78.5t75.5 30.5q48 0 79 -30.5t31 -78.5q0 -47 -31 -77t-79 -30q-45 0 -75.5 30.5t-30.5 76.5zM228 0l159 898h-170l24 138h171l11 63q27 166 116.5 247t250.5 81q43 0 116 -11l-23 -135q-32 7 -92 7q-92 0 -138 -43t-62 -134l-13 -75h241l-25 -138
h-240l-158 -898h-168z" />
    <glyph glyph-name="Gmacron" unicode="&#x1e20;" horiz-adv-x="1355" 
d="M294 895q47 242 201 371t373 129q118 0 215 -36.5t156.5 -96t91.5 -131t32 -145.5q0 -26 -2 -32h-165q0 18 -1 26q-3 42 -23 84.5t-57.5 82t-103 64t-149.5 24.5q-161 0 -262 -97.5t-138 -277.5l-40 -198q-15 -84 -15 -160q0 -187 100.5 -280.5t256.5 -93.5q124 0 223 62
t120 176l33 187h-352l26 148h521l-61 -347q-33 -179 -179 -280.5t-343 -101.5q-104 0 -194 30t-164 90.5t-116.5 164.5t-42.5 240q0 94 11 151zM1246 1611l-18 -105h-680l18 105h680z" />
    <glyph glyph-name="gmacron" unicode="&#x1e21;" horiz-adv-x="1191" 
d="M1130 1311l-19 -105h-680l19 105h680zM669 1067q125 0 208 -61.5t108 -156.5h13l36 201h165l-184 -1044q-36 -203 -154 -302.5t-325 -99.5q-179 0 -290.5 89.5t-111.5 210.5v12h163q0 -9 1 -10q0 -60 70.5 -109.5t176.5 -49.5q140 0 214 73t100 216l28 154h-13
q-31 -76 -107.5 -124t-189.5 -48q-98 0 -183.5 46.5t-140.5 139.5t-55 214q0 74 14 144l23 119q19 98 62 173.5t102 121t127 68.5t143 23zM951 639q0 132 -75 208.5t-194 76.5q-114 0 -189.5 -78t-101.5 -214l-15 -82q-13 -73 -13 -110q0 -138 72 -211t197 -73
q109 0 189.5 80t103.5 212l16 95q10 58 10 96z" />
    <glyph glyph-name="Hdotaccent" unicode="&#x1e22;" horiz-adv-x="1416" 
d="M362 0h-170l241 1366h170l-103 -582h691l103 582h170l-241 -1366h-164l105 632h-690zM884 1607q0 48 30.5 78.5t75.5 30.5q48 0 79 -30.5t31 -78.5q0 -47 -31 -77t-79 -30q-45 0 -75.5 30.5t-30.5 76.5z" />
    <glyph glyph-name="hdotaccent" unicode="&#x1e23;" horiz-adv-x="1197" 
d="M174 0l250 1419h167l-99 -542h12q41 90 120.5 140t193.5 50q159 0 242.5 -95t83.5 -234q0 -58 -20 -172l-100 -566h-168l102 576q14 81 14 130q0 96 -50 157.5t-157 61.5q-129 0 -211 -90.5t-106 -227.5l-107 -607h-167zM447 1661q0 48 30.5 78.5t75.5 30.5
q48 0 79 -30.5t31 -78.5q0 -47 -31 -77t-79 -30q-45 0 -75.5 30.5t-30.5 76.5z" />
    <glyph glyph-name="Hdotbelow" unicode="&#x1e24;" horiz-adv-x="1416" 
d="M362 0h-170l241 1366h170l-103 -582h691l103 582h170l-241 -1366h-164l105 632h-690zM572 -228q0 45 28 73t70 28q44 0 72 -28t28 -73q0 -44 -28 -71.5t-72 -27.5q-42 0 -70 28t-28 71z" />
    <glyph glyph-name="hdotbelow" unicode="&#x1e25;" horiz-adv-x="1197" 
d="M174 0l250 1419h167l-99 -542h12q41 90 120.5 140t193.5 50q159 0 242.5 -95t83.5 -234q0 -58 -20 -172l-100 -566h-168l102 576q14 81 14 130q0 96 -50 157.5t-157 61.5q-129 0 -211 -90.5t-106 -227.5l-107 -607h-167zM463 -228q0 45 28 73t70 28q44 0 72 -28t28 -73
q0 -44 -28 -71.5t-72 -27.5q-42 0 -70 28t-28 71z" />
    <glyph glyph-name="Hdieresis" unicode="&#x1e26;" horiz-adv-x="1416" 
d="M362 0h-170l241 1366h170l-103 -582h691l103 582h170l-241 -1366h-164l105 632h-690zM711 1588q0 45 29 73t74 28t74 -28t29 -73q0 -43 -29.5 -71t-73.5 -28t-73.5 28t-29.5 71zM1058 1588q0 45 28.5 73t71.5 28q47 0 76.5 -28t29.5 -73q0 -43 -30 -71t-76 -28
q-42 0 -71 28.5t-29 70.5z" />
    <glyph glyph-name="hdieresis" unicode="&#x1e27;" horiz-adv-x="1197" 
d="M174 0l250 1419h167l-99 -542h12q41 90 120.5 140t193.5 50q159 0 242.5 -95t83.5 -234q0 -58 -20 -172l-100 -566h-168l102 576q14 81 14 130q0 96 -50 157.5t-157 61.5q-129 0 -211 -90.5t-106 -227.5l-107 -607h-167zM264 1666q0 46 31 75.5t77 29.5q47 0 77.5 -29.5
t30.5 -75.5q0 -44 -30.5 -73t-77.5 -29q-46 0 -77 29t-31 73zM625 1666q0 46 30 75.5t74 29.5q49 0 80 -29.5t31 -75.5q0 -44 -31 -73t-80 -29q-44 0 -74 29t-30 73z" />
    <glyph glyph-name="Hcedilla" unicode="&#x1e28;" horiz-adv-x="1416" 
d="M239 0h-46l241 1366h170l-103 -582h691l103 582h170l-241 -1366h-164l105 632h-690l-112 -632l-43 -135q85 -2 137.5 -42.5t52.5 -114.5v-2q-1 -89 -67.5 -139.5t-169.5 -50.5q-82 0 -158 28l17 102q60 -19 129 -19q109 0 109 73q0 74 -139 74h-51l9 79z" />
    <glyph glyph-name="hcedilla" unicode="&#x1e29;" horiz-adv-x="1197" 
d="M219 0h-43l250 1419h167l-99 -542h12q41 90 120.5 140t193.5 50q159 0 242.5 -95t83.5 -234q0 -58 -20 -172l-100 -566h-168l102 576q14 81 14 130q0 96 -50 157.5t-157 61.5q-129 0 -211 -90.5t-106 -227.5l-107 -607l-43 -135q85 -2 137.5 -42.5t52.5 -114.5v-2
q-1 -89 -67.5 -139.5t-168.5 -50.5q-81 0 -159 28l18 102q59 -19 129 -19q108 0 109 73q0 43 -38 58.5t-102 15.5h-50l9 79z" />
    <glyph glyph-name="Hbrevebelow" unicode="&#x1e2a;" horiz-adv-x="1416" 
d="M386 -113q-8 -49 4 -96t43.5 -87t91 -64.5t137.5 -24.5t140.5 26t100 68t58.5 87.5t26 90.5h-124q-12 -72 -66 -118t-136 -46q-81 0 -122 49t-29 115h-124zM362 0h-170l241 1366h170l-103 -582h691l103 582h170l-241 -1366h-164l105 632h-690z" />
    <glyph glyph-name="hbrevebelow" unicode="&#x1e2b;" horiz-adv-x="1197" 
d="M277 -113q-8 -49 4 -96t43.5 -87t91 -64.5t137.5 -24.5t140.5 26t100 68t58.5 87.5t26 90.5h-124q-12 -72 -66 -118t-136 -46q-81 0 -122 49t-29 115h-124zM174 0l250 1419h167l-99 -542h12q41 90 120.5 140t193.5 50q159 0 242.5 -95t83.5 -234q0 -58 -20 -172
l-100 -566h-168l102 576q14 81 14 130q0 96 -50 157.5t-157 61.5q-129 0 -211 -90.5t-106 -227.5l-107 -607h-167z" />
    <glyph glyph-name="Itildebelow" unicode="&#x1e2c;" horiz-adv-x="553" 
d="M360 0h-170l241 1366h170zM335 -433q-85 0 -148 93q-4 5 -13.5 19.5t-13.5 20.5t-13.5 16t-16.5 14.5t-17.5 8.5t-22.5 4q-21 0 -36 -10.5t-24.5 -30.5t-14.5 -37t-10 -43h-123q11 115 67.5 181.5t142.5 66.5q33 0 60 -9t49 -30t33 -34t31 -41q31 -44 46 -53q13 -9 29 -9
q36 0 58 37t31 87h123q-6 -99 -67 -175t-150 -76z" />
    <glyph glyph-name="itildebelow" unicode="&#x1e2d;" horiz-adv-x="551" 
d="M191 0l186 1050h167l-185 -1050h-168zM377 1371q0 53 35 87.5t87 34.5q53 0 88 -34.5t35 -86.5t-35.5 -86.5t-88.5 -34.5q-51 0 -86 34.5t-35 85.5zM334 -433q-85 0 -148 93q-4 5 -13.5 19.5t-13.5 20.5t-13.5 16t-16.5 14.5t-17.5 8.5t-22.5 4q-21 0 -36 -10.5
t-24.5 -30.5t-14.5 -37t-10 -43h-123q11 115 67.5 181.5t142.5 66.5q33 0 60 -9t49 -30t33 -34t31 -41q31 -44 46 -53q13 -9 29 -9q36 0 58 37t31 87h123q-6 -99 -67 -175t-150 -76z" />
    <glyph glyph-name="Idieresisacute" unicode="&#x1e2e;" horiz-adv-x="553" 
d="M360 0h-170l241 1366h170zM440 1724l295 193h217l-327 -193h-185zM282 1588q0 45 29 73t74 28t74 -28t29 -73q0 -43 -29.5 -71t-73.5 -28t-73.5 28t-29.5 71zM629 1588q0 45 28.5 73t71.5 28q47 0 76.5 -28t29.5 -73q0 -43 -30 -71t-76 -28q-42 0 -71 28.5t-29 70.5z" />
    <glyph glyph-name="idieresisacute" unicode="&#x1e2f;" horiz-adv-x="581" 
d="M543 1466h-128l293 354h183zM192 0l186 1050h168l-186 -1050h-168zM216 1297q0 46 31 75.5t77 29.5q47 0 77.5 -29.5t30.5 -75.5q0 -44 -30.5 -73t-77.5 -29q-46 0 -77 29t-31 73zM577 1297q0 46 30 75.5t74 29.5q49 0 80 -29.5t31 -75.5q0 -44 -31 -73t-80 -29
q-44 0 -74 29t-30 73z" />
    <glyph glyph-name="Kacute" unicode="&#x1e30;" horiz-adv-x="1271" 
d="M743 1500l295 193h217l-327 -193h-185zM602 1366l-123 -670h13l729 670h216l-650 -607l420 -759h-198l-354 658l-212 -184l-83 -474h-170l242 1366h170z" />
    <glyph glyph-name="kacute" unicode="&#x1e31;" horiz-adv-x="1077" 
d="M416 436l-77 -436h-167l251 1419h166l-138 -784h11l504 415h229l-509 -413l332 -637h-186l-278 547zM540 1578h-128l293 354h183z" />
    <glyph glyph-name="Kdotbelow" unicode="&#x1e32;" horiz-adv-x="1271" 
d="M499 -228q0 45 28 73t70 28q44 0 72 -28t28 -73q0 -44 -28 -71.5t-72 -27.5q-42 0 -70 28t-28 71zM602 1366l-123 -670h13l729 670h216l-650 -607l420 -759h-198l-354 658l-212 -184l-83 -474h-170l242 1366h170z" />
    <glyph glyph-name="kdotbelow" unicode="&#x1e33;" horiz-adv-x="1077" 
d="M403 -228q0 45 28 73t70 28q44 0 72 -28t28 -73q0 -44 -28 -71.5t-72 -27.5q-42 0 -70 28t-28 71zM416 436l-77 -436h-167l251 1419h166l-138 -784h11l504 415h229l-509 -413l332 -637h-186l-278 547z" />
    <glyph glyph-name="Klinebelow" unicode="&#x1e34;" horiz-adv-x="1271" 
d="M602 1366l-123 -670h13l729 670h216l-650 -607l420 -759h-198l-354 658l-212 -184l-83 -474h-170l242 1366h170zM936 -181l-19 -105h-680l19 105h680z" />
    <glyph glyph-name="klinebelow" unicode="&#x1e35;" horiz-adv-x="1077" 
d="M416 436l-77 -436h-167l251 1419h166l-138 -784h11l504 415h229l-509 -413l332 -637h-186l-278 547zM840 -181l-19 -105h-680l19 105h680z" />
    <glyph glyph-name="Ldotbelow" unicode="&#x1e36;" horiz-adv-x="1048" 
d="M408 -228q0 45 28 73t70 28q44 0 72 -28t28 -73q0 -44 -28 -71.5t-72 -27.5q-42 0 -70 28t-28 71zM1017 153l-27 -153h-798l241 1366h170l-216 -1213h630z" />
    <glyph glyph-name="ldotbelow" unicode="&#x1e37;" horiz-adv-x="551" 
d="M140 -228q0 45 28 73t70 28q44 0 72 -28t28 -73q0 -44 -28 -71.5t-72 -27.5q-42 0 -70 28t-28 71zM191 0l251 1419h168l-251 -1419h-168z" />
    <glyph glyph-name="Ldotbelowmacron" unicode="&#x1e38;" horiz-adv-x="1048" 
d="M408 -228q0 45 28 73t70 28q44 0 72 -28t28 -73q0 -44 -28 -71.5t-72 -27.5q-42 0 -70 28t-28 71zM1017 153l-27 -153h-798l241 1366h170l-216 -1213h630zM893 1611l-18 -105h-680l18 105h680z" />
    <glyph glyph-name="ldotbelowmacron" unicode="&#x1e39;" horiz-adv-x="551" 
d="M140 -228q0 45 28 73t70 28q44 0 72 -28t28 -73q0 -44 -28 -71.5t-72 -27.5q-42 0 -70 28t-28 71zM191 0l251 1419h168l-251 -1419h-168zM899 1680l-19 -105h-680l19 105h680z" />
    <glyph glyph-name="Llinebelow" unicode="&#x1e3a;" horiz-adv-x="1048" 
d="M845 -181l-19 -105h-680l19 105h680zM1017 153l-27 -153h-798l241 1366h170l-216 -1213h630z" />
    <glyph glyph-name="llinebelow" unicode="&#x1e3b;" horiz-adv-x="551" 
d="M577 -181l-19 -105h-680l19 105h680zM191 0l251 1419h168l-251 -1419h-168z" />
    <glyph glyph-name="Lcircumflexbelow" unicode="&#x1e3c;" horiz-adv-x="1048" 
d="M1017 153l-27 -153h-798l241 1366h170l-216 -1213h630zM153 -394l281 261h165l188 -261h-156l-117 168h-12l-183 -168h-166z" />
    <glyph glyph-name="lcircumflexbelow" unicode="&#x1e3d;" horiz-adv-x="551" 
d="M191 0l251 1419h168l-251 -1419h-168zM-115 -394l281 261h165l188 -261h-156l-117 168h-12l-183 -168h-166z" />
    <glyph glyph-name="Macute" unicode="&#x1e3e;" horiz-adv-x="1633" 
d="M932 1500l295 193h217l-327 -193h-185zM354 0h-162l241 1366h161l280 -980h8l618 980h181l-241 -1366h-162l179 1018h-10l-550 -860h-108l-247 860h-11z" />
    <glyph glyph-name="macute" unicode="&#x1e3f;" horiz-adv-x="1769" 
d="M1114 1209h-128l293 354h183zM174 0l185 1050h163l-31 -174h12q34 83 108 137t185 54q113 0 188.5 -53t103.5 -142h11q16 35 40 66t61 62t92 49t120 18q153 0 229.5 -90t76.5 -228q0 -58 -20 -176l-101 -573h-168l103 585q12 70 12 122q0 218 -179 218q-109 0 -179.5 -84
t-95.5 -226l-110 -615h-167l104 585q11 64 11 124q0 216 -186 216q-122 0 -195 -86t-97 -224l-109 -615h-167z" />
    <glyph glyph-name="Mdotaccent" unicode="&#x1e40;" horiz-adv-x="1633" 
d="M987 1607q0 48 30.5 78.5t75.5 30.5q48 0 79 -30.5t31 -78.5q0 -47 -31 -77t-79 -30q-45 0 -75.5 30.5t-30.5 76.5zM354 0h-162l241 1366h161l280 -980h8l618 980h181l-241 -1366h-162l179 1018h-10l-550 -860h-108l-247 860h-11z" />
    <glyph glyph-name="mdotaccent" unicode="&#x1e41;" horiz-adv-x="1769" 
d="M1017 1292q0 48 30.5 78.5t75.5 30.5q48 0 79 -30.5t31 -78.5q0 -47 -31 -77t-79 -30q-45 0 -75.5 30.5t-30.5 76.5zM174 0l185 1050h163l-31 -174h12q34 83 108 137t185 54q113 0 188.5 -53t103.5 -142h11q16 35 40 66t61 62t92 49t120 18q153 0 229.5 -90t76.5 -228
q0 -58 -20 -176l-101 -573h-168l103 585q12 70 12 122q0 218 -179 218q-109 0 -179.5 -84t-95.5 -226l-110 -615h-167l104 585q11 64 11 124q0 216 -186 216q-122 0 -195 -86t-97 -224l-109 -615h-167z" />
    <glyph glyph-name="Mdotbelow" unicode="&#x1e42;" horiz-adv-x="1633" 
d="M677 -228q0 45 28 73t70 28q44 0 72 -28t28 -73q0 -44 -28 -71.5t-72 -27.5q-42 0 -70 28t-28 71zM354 0h-162l241 1366h161l280 -980h8l618 980h181l-241 -1366h-162l179 1018h-10l-550 -860h-108l-247 860h-11z" />
    <glyph glyph-name="mdotbelow" unicode="&#x1e43;" horiz-adv-x="1769" 
d="M762 -228q0 45 28 73t70 28q44 0 72 -28t28 -73q0 -44 -28 -71.5t-72 -27.5q-42 0 -70 28t-28 71zM174 0l185 1050h163l-31 -174h12q34 83 108 137t185 54q113 0 188.5 -53t103.5 -142h11q16 35 40 66t61 62t92 49t120 18q153 0 229.5 -90t76.5 -228q0 -58 -20 -176
l-101 -573h-168l103 585q12 70 12 122q0 218 -179 218q-109 0 -179.5 -84t-95.5 -226l-110 -615h-167l104 585q11 64 11 124q0 216 -186 216q-122 0 -195 -86t-97 -224l-109 -615h-167z" />
    <glyph glyph-name="Ndotaccent" unicode="&#x1e44;" horiz-adv-x="1426" 
d="M901 1607q0 48 30.5 78.5t75.5 30.5q48 0 79 -30.5t31 -78.5q0 -47 -31 -77t-79 -30q-45 0 -75.5 30.5t-30.5 76.5zM1233 0h-165l-505 1078h-10l-190 -1078h-169l241 1366h166l500 -1080h11l193 1080h169z" />
    <glyph glyph-name="ndotaccent" unicode="&#x1e45;" horiz-adv-x="1192" 
d="M720 1292q0 48 30.5 78.5t75.5 30.5q48 0 79 -30.5t31 -78.5q0 -47 -31 -77t-79 -30q-45 0 -75.5 30.5t-30.5 76.5zM174 0l185 1050h164l-32 -173h13q43 91 122.5 140.5t190.5 49.5q83 0 146.5 -27t101 -74t56 -104t18.5 -123q0 -61 -20 -173l-100 -566h-168l102 576
q14 84 14 129q0 97 -48.5 158.5t-155.5 61.5q-129 0 -210 -90t-105 -228l-107 -607h-167z" />
    <glyph glyph-name="Ndotbelow" unicode="&#x1e46;" horiz-adv-x="1426" 
d="M590 -228q0 45 28 73t70 28q44 0 72 -28t28 -73q0 -44 -28 -71.5t-72 -27.5q-42 0 -70 28t-28 71zM1233 0h-165l-505 1078h-10l-190 -1078h-169l241 1366h166l500 -1080h11l193 1080h169z" />
    <glyph glyph-name="ndotbelow" unicode="&#x1e47;" horiz-adv-x="1192" 
d="M460 -228q0 45 28 73t70 28q44 0 72 -28t28 -73q0 -44 -28 -71.5t-72 -27.5q-42 0 -70 28t-28 71zM174 0l185 1050h164l-32 -173h13q43 91 122.5 140.5t190.5 49.5q83 0 146.5 -27t101 -74t56 -104t18.5 -123q0 -61 -20 -173l-100 -566h-168l102 576q14 84 14 129
q0 97 -48.5 158.5t-155.5 61.5q-129 0 -210 -90t-105 -228l-107 -607h-167z" />
    <glyph glyph-name="Nlinebelow" unicode="&#x1e48;" horiz-adv-x="1426" 
d="M1027 -181l-19 -105h-680l19 105h680zM1233 0h-165l-505 1078h-10l-190 -1078h-169l241 1366h166l500 -1080h11l193 1080h169z" />
    <glyph glyph-name="nlinebelow" unicode="&#x1e49;" horiz-adv-x="1192" 
d="M897 -181l-19 -105h-680l19 105h680zM174 0l185 1050h164l-32 -173h13q43 91 122.5 140.5t190.5 49.5q83 0 146.5 -27t101 -74t56 -104t18.5 -123q0 -61 -20 -173l-100 -566h-168l102 576q14 84 14 129q0 97 -48.5 158.5t-155.5 61.5q-129 0 -210 -90t-105 -228
l-107 -607h-167z" />
    <glyph glyph-name="Ncircumflexbelow" unicode="&#x1e4a;" horiz-adv-x="1426" 
d="M1233 0h-165l-505 1078h-10l-190 -1078h-169l241 1366h166l500 -1080h11l193 1080h169zM335 -394l281 261h165l188 -261h-156l-117 168h-12l-183 -168h-166z" />
    <glyph glyph-name="ncircumflexbelow" unicode="&#x1e4b;" horiz-adv-x="1192" 
d="M174 0l185 1050h164l-32 -173h13q43 91 122.5 140.5t190.5 49.5q83 0 146.5 -27t101 -74t56 -104t18.5 -123q0 -61 -20 -173l-100 -566h-168l102 576q14 84 14 129q0 97 -48.5 158.5t-155.5 61.5q-129 0 -210 -90t-105 -228l-107 -607h-167zM205 -394l281 261h165
l188 -261h-156l-117 168h-12l-183 -168h-166z" />
    <glyph glyph-name="Otildeacute" unicode="&#x1e4c;" horiz-adv-x="1384" 
d="M853 1724l295 193h217l-327 -193h-185zM458 860l-36 -194q-15 -82 -15 -159q0 -173 100 -274t275 -101q323 0 394 392l37 209q9 49 9 133q0 167 -100.5 268t-271.5 101q-151 0 -253.5 -91t-138.5 -284zM249 681l38 210q43 239 197 371.5t371 132.5q244 0 392.5 -143
t148.5 -393q0 -90 -15 -168l-39 -212q-45 -246 -192 -377t-394 -131q-228 0 -375 136.5t-147 374.5q0 115 15 199zM924 1534l-9.5 9.5l-10 10t-9.5 9t-11.5 9.5t-11 6.5t-12.5 6.5t-12 3.5t-14 1.5q-29 0 -46 -19.5t-21 -39.5t-6 -50h-121q0 93 48 157.5t142 64.5
q81 0 161 -77l20 -20t21.5 -20.5t20 -11.5t27.5 -6q35 0 54 37t23 80h119q0 -85 -51.5 -154t-135.5 -69q-57 0 -93.5 18t-71.5 54z" />
    <glyph glyph-name="otildeacute" unicode="&#x1e4d;" horiz-adv-x="1132" 
d="M820 1466h-128l293 354h183zM871 1130q-83 0 -147 92q-4 6 -13.5 20t-14 20t-13.5 16.5t-16 15t-17.5 8.5t-22.5 4q-21 0 -36 -10.5t-24.5 -30.5t-14.5 -37.5t-10 -43.5h-123q11 116 67 182.5t142 66.5q33 0 60 -9t49 -30t33 -34t31 -41q2 -3 8 -11t8 -10.5t7 -9.5
t7.5 -9t7.5 -7t8.5 -6.5t8.5 -4t10 -3.5t11 -1q65 0 89 123h123q-6 -98 -67 -174t-151 -76zM391 643l-22 -121q-10 -66 -10 -111q0 -127 73 -204.5t199 -77.5q115 0 188.5 76t97.5 216l23 131q5 31 5 94q0 122 -73 199t-196 77q-110 0 -185 -70t-100 -209zM206 537l24 137
q32 183 154.5 288.5t295.5 105.5q195 0 314 -114.5t119 -309.5q0 -58 -12 -126l-25 -137q-36 -189 -152 -293.5t-312 -104.5q-181 0 -299.5 109t-118.5 296q0 85 12 149z" />
    <glyph glyph-name="Otildedieresis" unicode="&#x1e4e;" horiz-adv-x="1384" 
d="M739 1844q0 45 29 73t74 28t74 -28t29 -73q0 -43 -29.5 -71t-73.5 -28t-73.5 28t-29.5 71zM1086 1844q0 45 28.5 73t71.5 28q47 0 76.5 -28t29.5 -73q0 -43 -30 -71t-76 -28q-42 0 -71 28.5t-29 70.5zM458 860l-36 -194q-15 -82 -15 -159q0 -173 100 -274t275 -101
q323 0 394 392l37 209q9 49 9 133q0 167 -100.5 268t-271.5 101q-151 0 -253.5 -91t-138.5 -284zM249 681l38 210q43 239 197 371.5t371 132.5q244 0 392.5 -143t148.5 -393q0 -90 -15 -168l-39 -212q-45 -246 -192 -377t-394 -131q-228 0 -375 136.5t-147 374.5
q0 115 15 199zM924 1534l-9.5 9.5l-10 10t-9.5 9t-11.5 9.5t-11 6.5t-12.5 6.5t-12 3.5t-14 1.5q-29 0 -46 -19.5t-21 -39.5t-6 -50h-121q0 93 48 157.5t142 64.5q81 0 161 -77l20 -20t21.5 -20.5t20 -11.5t27.5 -6q35 0 54 37t23 80h119q0 -85 -51.5 -154t-135.5 -69
q-57 0 -93.5 18t-71.5 54z" />
    <glyph glyph-name="otildedieresis" unicode="&#x1e4f;" horiz-adv-x="1132" 
d="M871 1130q-83 0 -147 92q-4 6 -13.5 20t-14 20t-13.5 16.5t-16 15t-17.5 8.5t-22.5 4q-21 0 -36 -10.5t-24.5 -30.5t-14.5 -37.5t-10 -43.5h-123q11 116 67 182.5t142 66.5q33 0 60 -9t49 -30t33 -34t31 -41q2 -3 8 -11t8 -10.5t7 -9.5t7.5 -9t7.5 -7t8.5 -6.5t8.5 -4
t10 -3.5t11 -1q65 0 89 123h123q-6 -98 -67 -174t-151 -76zM544 1574q0 46 31 75.5t77 29.5q47 0 77.5 -29.5t30.5 -75.5q0 -44 -30.5 -73t-77.5 -29q-46 0 -77 29t-31 73zM905 1574q0 46 30 75.5t74 29.5q49 0 80 -29.5t31 -75.5q0 -44 -31 -73t-80 -29q-44 0 -74 29
t-30 73zM391 643l-22 -121q-10 -66 -10 -111q0 -127 73 -204.5t199 -77.5q115 0 188.5 76t97.5 216l23 131q5 31 5 94q0 122 -73 199t-196 77q-110 0 -185 -70t-100 -209zM206 537l24 137q32 183 154.5 288.5t295.5 105.5q195 0 314 -114.5t119 -309.5q0 -58 -12 -126
l-25 -137q-36 -189 -152 -293.5t-312 -104.5q-181 0 -299.5 109t-118.5 296q0 85 12 149z" />
    <glyph glyph-name="Omacrongrave" unicode="&#x1e50;" horiz-adv-x="1384" 
d="M1120 1724h-179l-303 192h207zM458 860l-36 -194q-15 -82 -15 -159q0 -173 100 -274t275 -101q323 0 394 392l37 209q9 49 9 133q0 167 -100.5 268t-271.5 101q-151 0 -253.5 -91t-138.5 -284zM249 681l38 210q43 239 197 371.5t371 132.5q244 0 392.5 -143t148.5 -393
q0 -90 -15 -168l-39 -212q-45 -246 -192 -377t-394 -131q-228 0 -375 136.5t-147 374.5q0 115 15 199zM1309 1611l-18 -105h-680l18 105h680z" />
    <glyph glyph-name="omacrongrave" unicode="&#x1e51;" horiz-adv-x="1132" 
d="M914 1466h-135l-240 354h187zM1113 1311l-19 -105h-680l19 105h680zM391 643l-22 -121q-10 -66 -10 -111q0 -127 73 -204.5t199 -77.5q115 0 188.5 76t97.5 216l23 131q5 31 5 94q0 122 -73 199t-196 77q-110 0 -185 -70t-100 -209zM206 537l24 137q32 183 154.5 288.5
t295.5 105.5q195 0 314 -114.5t119 -309.5q0 -58 -12 -126l-25 -137q-36 -189 -152 -293.5t-312 -104.5q-181 0 -299.5 109t-118.5 296q0 85 12 149z" />
    <glyph glyph-name="Omacronacute" unicode="&#x1e52;" horiz-adv-x="1384" 
d="M853 1724l295 193h217l-327 -193h-185zM458 860l-36 -194q-15 -82 -15 -159q0 -173 100 -274t275 -101q323 0 394 392l37 209q9 49 9 133q0 167 -100.5 268t-271.5 101q-151 0 -253.5 -91t-138.5 -284zM249 681l38 210q43 239 197 371.5t371 132.5q244 0 392.5 -143
t148.5 -393q0 -90 -15 -168l-39 -212q-45 -246 -192 -377t-394 -131q-228 0 -375 136.5t-147 374.5q0 115 15 199zM1309 1611l-18 -105h-680l18 105h680z" />
    <glyph glyph-name="omacronacute" unicode="&#x1e53;" horiz-adv-x="1132" 
d="M820 1466h-128l293 354h183zM1113 1311l-19 -105h-680l19 105h680zM391 643l-22 -121q-10 -66 -10 -111q0 -127 73 -204.5t199 -77.5q115 0 188.5 76t97.5 216l23 131q5 31 5 94q0 122 -73 199t-196 77q-110 0 -185 -70t-100 -209zM206 537l24 137q32 183 154.5 288.5
t295.5 105.5q195 0 314 -114.5t119 -309.5q0 -58 -12 -126l-25 -137q-36 -189 -152 -293.5t-312 -104.5q-181 0 -299.5 109t-118.5 296q0 85 12 149z" />
    <glyph glyph-name="Pacute" unicode="&#x1e54;" horiz-adv-x="1189" 
d="M704 1500l295 193h217l-327 -193h-185zM360 0h-170l241 1366h440q190 0 296 -100.5t106 -256.5q0 -39 -6 -79q-51 -410 -553 -410h-262zM841 1218h-266l-98 -549h257q94 0 163.5 21t110.5 59t62 82t27 98q5 33 5 66q0 99 -63 161t-198 62z" />
    <glyph glyph-name="pacute" unicode="&#x1e55;" horiz-adv-x="1196" 
d="M697 -17q-64 0 -120.5 22.5t-94 57.5t-61 73t-30.5 74h-13l-99 -578h-168l249 1418h165l-31 -166h14q13 32 34.5 61t56 58t88.5 46.5t119 17.5q167 0 270 -105.5t103 -285.5q0 -82 -8 -123l-36 -194q-26 -164 -141 -270t-297 -106zM424 429q0 -72 24 -129.5t62.5 -92.5
t84 -53t92.5 -18q118 0 196.5 79t100.5 197l28 153q5 31 5 88q0 127 -72 199.5t-194 72.5q-119 0 -198 -82t-101 -217l-24 -149q-4 -24 -4 -48zM801 1209h-128l293 354h183z" />
    <glyph glyph-name="Pdotaccent" unicode="&#x1e56;" horiz-adv-x="1189" 
d="M360 0h-170l241 1366h440q190 0 296 -100.5t106 -256.5q0 -39 -6 -79q-51 -410 -553 -410h-262zM841 1218h-266l-98 -549h257q94 0 163.5 21t110.5 59t62 82t27 98q5 33 5 66q0 99 -63 161t-198 62zM759 1607q0 48 30.5 78.5t75.5 30.5q48 0 79 -30.5t31 -78.5
q0 -47 -31 -77t-79 -30q-45 0 -75.5 30.5t-30.5 76.5z" />
    <glyph glyph-name="pdotaccent" unicode="&#x1e57;" horiz-adv-x="1196" 
d="M697 -17q-64 0 -120.5 22.5t-94 57.5t-61 73t-30.5 74h-13l-99 -578h-168l249 1418h165l-31 -166h14q13 32 34.5 61t56 58t88.5 46.5t119 17.5q167 0 270 -105.5t103 -285.5q0 -82 -8 -123l-36 -194q-26 -164 -141 -270t-297 -106zM424 429q0 -72 24 -129.5t62.5 -92.5
t84 -53t92.5 -18q118 0 196.5 79t100.5 197l28 153q5 31 5 88q0 127 -72 199.5t-194 72.5q-119 0 -198 -82t-101 -217l-24 -149q-4 -24 -4 -48zM704 1292q0 48 30.5 78.5t75.5 30.5q48 0 79 -30.5t31 -78.5q0 -47 -31 -77t-79 -30q-45 0 -75.5 30.5t-30.5 76.5z" />
    <glyph glyph-name="Rdotaccent" unicode="&#x1e58;" horiz-adv-x="1261" 
d="M360 0h-170l242 1366h453q191 0 293 -95.5t102 -251.5q0 -45 -6 -85q-19 -139 -106 -231t-212 -124l189 -579h-184l-176 553q-27 -2 -68 -2h-260zM845 1218h-269l-93 -520h260q317 0 352 248q5 33 5 67q0 94 -61 149.5t-194 55.5zM759 1607q0 48 30.5 78.5t75.5 30.5
q48 0 79 -30.5t31 -78.5q0 -47 -31 -77t-79 -30q-45 0 -75.5 30.5t-30.5 76.5z" />
    <glyph glyph-name="rdotaccent" unicode="&#x1e59;" horiz-adv-x="783" 
d="M174 0l185 1050h159l-32 -175h12q32 80 111.5 136t190.5 56q39 0 83 -7l-35 -160q-29 11 -85 11q-133 0 -212.5 -87.5t-103.5 -226.5l-106 -597h-167zM512 1292q0 48 30.5 78.5t75.5 30.5q48 0 79 -30.5t31 -78.5q0 -47 -31 -77t-79 -30q-45 0 -75.5 30.5t-30.5 76.5z
" />
    <glyph glyph-name="Rdotbelow" unicode="&#x1e5a;" horiz-adv-x="1261" 
d="M450 -228q0 45 28 73t70 28q44 0 72 -28t28 -73q0 -44 -28 -71.5t-72 -27.5q-42 0 -70 28t-28 71zM360 0h-170l242 1366h453q191 0 293 -95.5t102 -251.5q0 -45 -6 -85q-19 -139 -106 -231t-212 -124l189 -579h-184l-176 553q-27 -2 -68 -2h-260zM845 1218h-269l-93 -520
h260q317 0 352 248q5 33 5 67q0 94 -61 149.5t-194 55.5z" />
    <glyph glyph-name="rdotbelow" unicode="&#x1e5b;" horiz-adv-x="783" 
d="M130 -228q0 45 28 73t70 28q44 0 72 -28t28 -73q0 -44 -28 -71.5t-72 -27.5q-42 0 -70 28t-28 71zM174 0l185 1050h159l-32 -175h12q32 80 111.5 136t190.5 56q39 0 83 -7l-35 -160q-29 11 -85 11q-133 0 -212.5 -87.5t-103.5 -226.5l-106 -597h-167z" />
    <glyph glyph-name="Rdotbelowmacron" unicode="&#x1e5c;" horiz-adv-x="1261" 
d="M450 -228q0 45 28 73t70 28q44 0 72 -28t28 -73q0 -44 -28 -71.5t-72 -27.5q-42 0 -70 28t-28 71zM360 0h-170l242 1366h453q191 0 293 -95.5t102 -251.5q0 -45 -6 -85q-19 -139 -106 -231t-212 -124l189 -579h-184l-176 553q-27 -2 -68 -2h-260zM845 1218h-269l-93 -520
h260q317 0 352 248q5 33 5 67q0 94 -61 149.5t-194 55.5zM1200 1611l-18 -105h-680l18 105h680z" />
    <glyph glyph-name="rdotbelowmacron" unicode="&#x1e5d;" horiz-adv-x="783" 
d="M130 -228q0 45 28 73t70 28q44 0 72 -28t28 -73q0 -44 -28 -71.5t-72 -27.5q-42 0 -70 28t-28 71zM174 0l185 1050h159l-32 -175h12q32 80 111.5 136t190.5 56q39 0 83 -7l-35 -160q-29 11 -85 11q-133 0 -212.5 -87.5t-103.5 -226.5l-106 -597h-167zM950 1311l-19 -105
h-680l19 105h680z" />
    <glyph glyph-name="Rlinebelow" unicode="&#x1e5e;" horiz-adv-x="1261" 
d="M360 0h-170l242 1366h453q191 0 293 -95.5t102 -251.5q0 -45 -6 -85q-19 -139 -106 -231t-212 -124l189 -579h-184l-176 553q-27 -2 -68 -2h-260zM845 1218h-269l-93 -520h260q317 0 352 248q5 33 5 67q0 94 -61 149.5t-194 55.5zM887 -181l-19 -105h-680l19 105h680z
" />
    <glyph glyph-name="rlinebelow" unicode="&#x1e5f;" horiz-adv-x="783" 
d="M174 0l185 1050h159l-32 -175h12q32 80 111.5 136t190.5 56q39 0 83 -7l-35 -160q-29 11 -85 11q-133 0 -212.5 -87.5t-103.5 -226.5l-106 -597h-167zM567 -181l-19 -105h-680l19 105h680z" />
    <glyph glyph-name="Sdotaccent" unicode="&#x1e60;" horiz-adv-x="1208" 
d="M181 382h167q-1 -8 -1 -25q0 -92 88.5 -162.5t233.5 -70.5q138 0 221.5 66.5t83.5 174.5q0 49 -18.5 86.5t-56.5 65t-75.5 45.5t-95.5 39l-58 22q-75 27 -132.5 57.5t-114 77t-87.5 111.5t-31 144q0 118 63 206t167.5 132t233.5 44q116 0 214 -40.5t161 -122.5t63 -190
q0 -2 -1 -18l-1 -17h-161v2q0 2 0.5 5.5t0.5 8.5q0 99 -80.5 159t-197.5 60q-71 0 -134 -22t-107 -73.5t-44 -123.5q0 -44 19 -80.5t56.5 -65.5t79.5 -50t102 -45l77 -30q52 -21 86.5 -36.5t77.5 -39.5t70.5 -50.5t52.5 -61.5t37 -80.5t12 -100.5q0 -192 -136 -301.5
t-355 -109.5q-213 0 -348 108.5t-135 255.5q0 25 3 46zM761 1607q0 48 30.5 78.5t75.5 30.5q48 0 79 -30.5t31 -78.5q0 -47 -31 -77t-79 -30q-45 0 -75.5 30.5t-30.5 76.5z" />
    <glyph glyph-name="sdotaccent" unicode="&#x1e61;" horiz-adv-x="1029" 
d="M275 764q0 140 98.5 223t276.5 83q90 0 163.5 -26t119 -68t70 -92.5t24.5 -101.5v-19h-156v8q0 60 -60 112.5t-164 52.5q-96 0 -151.5 -43.5t-55.5 -108.5q0 -30 13.5 -55t29.5 -40t53 -32.5t57.5 -25t69.5 -23.5q45 -15 76.5 -27.5t68.5 -31t61.5 -41t45.5 -51.5
t31.5 -67t10.5 -84q0 -154 -107.5 -239.5t-293.5 -85.5q-179 0 -294 90t-115 216v9h159q0 -6 2 -18q13 -63 82.5 -109t175.5 -46q108 0 167 46t59 123q0 32 -12.5 57.5t-29 42t-50 32.5t-57 24t-68.5 22q-31 10 -52 17t-55.5 22t-58 29.5t-51 38t-44 49.5t-28 61.5
t-11.5 76.5zM635 1292q0 48 30.5 78.5t75.5 30.5q48 0 79 -30.5t31 -78.5q0 -47 -31 -77t-79 -30q-45 0 -75.5 30.5t-30.5 76.5z" />
    <glyph glyph-name="Sdotbelow" unicode="&#x1e62;" horiz-adv-x="1208" 
d="M451 -228q0 45 28 73t70 28q44 0 72 -28t28 -73q0 -44 -28 -71.5t-72 -27.5q-42 0 -70 28t-28 71zM181 382h167q-1 -8 -1 -25q0 -92 88.5 -162.5t233.5 -70.5q138 0 221.5 66.5t83.5 174.5q0 49 -18.5 86.5t-56.5 65t-75.5 45.5t-95.5 39l-58 22q-75 27 -132.5 57.5
t-114 77t-87.5 111.5t-31 144q0 118 63 206t167.5 132t233.5 44q116 0 214 -40.5t161 -122.5t63 -190q0 -2 -1 -18l-1 -17h-161v2q0 2 0.5 5.5t0.5 8.5q0 99 -80.5 159t-197.5 60q-71 0 -134 -22t-107 -73.5t-44 -123.5q0 -44 19 -80.5t56.5 -65.5t79.5 -50t102 -45l77 -30
q52 -21 86.5 -36.5t77.5 -39.5t70.5 -50.5t52.5 -61.5t37 -80.5t12 -100.5q0 -192 -136 -301.5t-355 -109.5q-213 0 -348 108.5t-135 255.5q0 25 3 46z" />
    <glyph glyph-name="sdotbelow" unicode="&#x1e63;" horiz-adv-x="1029" 
d="M378 -228q0 45 28 73t70 28q44 0 72 -28t28 -73q0 -44 -28 -71.5t-72 -27.5q-42 0 -70 28t-28 71zM275 764q0 140 98.5 223t276.5 83q90 0 163.5 -26t119 -68t70 -92.5t24.5 -101.5v-19h-156v8q0 60 -60 112.5t-164 52.5q-96 0 -151.5 -43.5t-55.5 -108.5q0 -30 13.5 -55
t29.5 -40t53 -32.5t57.5 -25t69.5 -23.5q45 -15 76.5 -27.5t68.5 -31t61.5 -41t45.5 -51.5t31.5 -67t10.5 -84q0 -154 -107.5 -239.5t-293.5 -85.5q-179 0 -294 90t-115 216v9h159q0 -6 2 -18q13 -63 82.5 -109t175.5 -46q108 0 167 46t59 123q0 32 -12.5 57.5t-29 42
t-50 32.5t-57 24t-68.5 22q-31 10 -52 17t-55.5 22t-58 29.5t-51 38t-44 49.5t-28 61.5t-11.5 76.5z" />
    <glyph glyph-name="Sacutedotaccent" unicode="&#x1e64;" horiz-adv-x="1208" 
d="M551 1653q0 47 30 77.5t75 30.5q47 0 77.5 -30t30.5 -78q0 -46 -30.5 -76t-77.5 -30q-44 0 -74.5 30.5t-30.5 75.5zM882 1549l295 193h217l-327 -193h-185zM181 382h167q-1 -8 -1 -25q0 -92 88.5 -162.5t233.5 -70.5q138 0 221.5 66.5t83.5 174.5q0 49 -18.5 86.5
t-56.5 65t-75.5 45.5t-95.5 39l-58 22q-75 27 -132.5 57.5t-114 77t-87.5 111.5t-31 144q0 118 63 206t167.5 132t233.5 44q116 0 214 -40.5t161 -122.5t63 -190q0 -2 -1 -18l-1 -17h-161v2q0 2 0.5 5.5t0.5 8.5q0 99 -80.5 159t-197.5 60q-71 0 -134 -22t-107 -73.5
t-44 -123.5q0 -44 19 -80.5t56.5 -65.5t79.5 -50t102 -45l77 -30q52 -21 86.5 -36.5t77.5 -39.5t70.5 -50.5t52.5 -61.5t37 -80.5t12 -100.5q0 -192 -136 -301.5t-355 -109.5q-213 0 -348 108.5t-135 255.5q0 25 3 46z" />
    </font>
</defs>
</svg>
