<?xml version="1.0" standalone="no"?>
<!DOCTYPE svg PUBLIC "-//W3C//DTD SVG 1.1//EN" "http://www.w3.org/Graphics/SVG/1.1/DTD/svg11.dtd" >
<svg xmlns="http://www.w3.org/2000/svg" xmlns:xlink="http://www.w3.org/1999/xlink" version="1.1">
<metadata>
Created by FontForge 20170731 at Wed Jan 14 10:07:57 2015
 By Aleksey,,,
(c) 2014 Apple Inc. All rights reserved.
</metadata>
<defs>
<font id="SanFranciscoDisplay-Light" horiz-adv-x="0" >
  <font-face 
    font-family="San Francisco Display Light"
    font-weight="300"
    font-stretch="normal"
    units-per-em="2048"
    panose-1="0 0 0 0 0 0 0 0 0 0"
    ascent="1638"
    descent="-410"
    x-height="1043"
    cap-height="1363"
    bbox="-596 -486 2048 1989"
    underline-thickness="50"
    underline-position="-125"
    unicode-range="U+000D-FB02"
  />
<missing-glyph horiz-adv-x="1293" 
d="M120 0v1365h1053v-1365h-1053zM501 313q0 -47 33.5 -77t86.5 -30q55 0 88.5 29.5t33.5 77.5q0 49 -33.5 78.5t-88.5 29.5q-54 0 -87 -30t-33 -78zM339 888h169q1 59 34.5 94.5t90.5 35.5q54 0 87 -30t33 -80q0 -38 -20.5 -65.5t-82.5 -72.5q-69 -48 -96 -100t-22 -121
l1 -18h166v15q0 48 19 76t88 77q73 52 103 102t30 116q0 113 -81 181.5t-215 68.5q-143 0 -225.5 -76t-78.5 -203z" />
    <glyph glyph-name=".notdef" horiz-adv-x="1293" 
d="M120 0v1365h1053v-1365h-1053zM501 313q0 -47 33.5 -77t86.5 -30q55 0 88.5 29.5t33.5 77.5q0 49 -33.5 78.5t-88.5 29.5q-54 0 -87 -30t-33 -78zM339 888h169q1 59 34.5 94.5t90.5 35.5q54 0 87 -30t33 -80q0 -38 -20.5 -65.5t-82.5 -72.5q-69 -48 -96 -100t-22 -121
l1 -18h166v15q0 48 19 76t88 77q73 52 103 102t30 116q0 113 -81 181.5t-215 68.5q-143 0 -225.5 -76t-78.5 -203z" />
    <glyph glyph-name=".null" 
 />
    <glyph glyph-name="nonmarkingreturn" horiz-adv-x="682" 
 />
    <glyph glyph-name="CR" unicode="&#xd;" 
 />
    <glyph glyph-name="space" unicode=" " horiz-adv-x="415" 
 />
    <glyph glyph-name="exclam" unicode="!" horiz-adv-x="500" 
d="M154 79q0 41 28 69t67 28q42 0 69.5 -27.5t27.5 -69.5q0 -40 -27.5 -67.5t-69.5 -27.5q-39 0 -67 27.5t-28 67.5zM181 1363h141l-15 -971h-111z" />
    <glyph glyph-name="quotedbl" unicode="&#x22;" horiz-adv-x="704" 
d="M119 1363h144l-22 -465h-100zM442 1363h143l-22 -465h-100z" />
    <glyph glyph-name="numbersign" unicode="#" horiz-adv-x="1188" 
d="M1139 866h-231l-73 -358h218l-21 -104h-219l-82 -404h-105l82 404h-320l-83 -404h-104l81 404h-217l22 104h218l73 358h-207l21 103h208l80 396h105l-81 -396h321l81 396h104l-81 -396h231zM483 866l-73 -358h320l73 358h-320z" />
    <glyph glyph-name="dollar" unicode="$" horiz-adv-x="1063" 
d="M217 1029q0 -161 206 -230q28 -11 61 -19v486q-121 -11 -194 -73t-73 -164zM877 362q0 98 -59 158.5t-202 101.5q-4 1 -13.5 3.5t-13.5 3.5v-524q132 11 210 78.5t78 178.5zM589 -135h-105v130q-105 6 -187.5 39t-133.5 84t-77.5 113t-27.5 130h126q5 -101 83 -171.5
t217 -82.5v548l-81 22q-309 81 -309 342q0 158 107 251.5t283 107.5v132h105v-132q170 -13 278 -107t112 -241h-123q-2 91 -72.5 157.5t-194.5 78.5v-515l67 -17q175 -46 260 -130.5t85 -232.5q0 -169 -113.5 -265.5t-298.5 -109.5v-131z" />
    <glyph glyph-name="percent" unicode="%" horiz-adv-x="1413" 
d="M144 1049v-17q0 -110 44 -177t118 -67q73 0 117.5 66.5t44.5 175.5v17q0 109 -43.5 175.5t-117.5 66.5q-76 0 -119.5 -67t-43.5 -173zM45 1025v30q0 141 72.5 233t188.5 92t188.5 -92t72.5 -235v-30q0 -142 -72.5 -234.5t-189.5 -92.5t-188.5 92.5t-71.5 236.5zM945 344
v-17q0 -110 44 -177t118 -67q73 0 117.5 66.5t44.5 175.5v17q0 109 -43.5 175.5t-117.5 66.5q-76 0 -119.5 -67t-43.5 -173zM846 320v30q0 141 72.5 233t188.5 92t189 -92t73 -235v-30q0 -143 -73 -235t-190 -92t-188.5 92.5t-71.5 236.5zM246 0h-118l517 682l517 681h118
l-516 -681z" />
    <glyph glyph-name="ampersand" unicode="&#x26;" horiz-adv-x="1282" 
d="M1114 0l-141 152q-95 -92 -213 -135t-232 -43q-122 0 -222 43.5t-161.5 131t-61.5 204.5q0 229 273 373q22 12 60 31q-91 94 -136 167t-45 158q0 126 95 209.5t237 83.5q144 0 237 -85t93 -213q0 -58 -21 -107.5t-62.5 -91.5t-93 -77t-124.5 -72l369 -400q75 132 80 391
v50h121q0 -5 -0.5 -26t-0.5 -25q-3 -308 -115 -475l229 -244h-165zM428 646q-106 -57 -161.5 -125.5t-55.5 -161.5q0 -127 94 -201t231 -74q96 0 194.5 38t165.5 112l-407 444q-3 -2 -29 -15.5t-32 -16.5zM523 804q130 64 190 125.5t60 144.5q0 86 -57 141t-148 55
t-149.5 -55t-58.5 -140q0 -62 36.5 -121t126.5 -150z" />
    <glyph glyph-name="quotesingle" unicode="'" horiz-adv-x="382" 
d="M119 1363h144l-22 -465h-100z" />
    <glyph glyph-name="parenleft" unicode="(" horiz-adv-x="591" 
d="M403 1363h102q-35 -42 -71 -105t-76.5 -161.5t-65.5 -237.5t-25 -292q0 -124 18 -241t40 -196.5t60.5 -166t60 -126t57.5 -99.5h-108q-43 54 -82 122.5t-80 170.5t-65.5 241t-24.5 294q0 126 17.5 238.5t41.5 190t62.5 153.5t67.5 118.5t71 96.5z" />
    <glyph glyph-name="parenright" unicode=")" horiz-adv-x="591" 
d="M86 1363h100q42 -53 71.5 -96t68.5 -119t63 -153.5t41.5 -190t17.5 -238.5q0 -155 -25 -294t-66.5 -241t-80.5 -170.5t-82 -122.5h-106q36 61 57 99.5t59.5 125.5t60 166t39.5 196.5t18 241.5q0 153 -25 292t-65 237.5t-75.5 161.5t-70.5 105z" />
    <glyph glyph-name="asterisk" unicode="*" horiz-adv-x="775" 
d="M431 739h-86l8 260l-224 -137l-43 76l233 121l-233 126l43 77l224 -144l-8 267h86l-9 -267l224 144l43 -76l-233 -127l233 -121l-43 -76l-224 137z" />
    <glyph glyph-name="plus" unicode="+" horiz-adv-x="1063" 
d="M584 492v-463h-105v463h-421v106h421v442h105v-442h422v-106h-422z" />
    <glyph glyph-name="comma" unicode="," horiz-adv-x="395" 
d="M136 -250h-93l105 394h140z" />
    <glyph glyph-name="hyphen" unicode="-" horiz-adv-x="776" 
d="M703 504h-630v113h630v-113z" />
    <glyph glyph-name="period" unicode="." horiz-adv-x="456" 
d="M135 76q0 39 27 66t65 27q41 0 68 -26.5t27 -66.5t-27 -66.5t-68 -26.5q-38 0 -65 27t-27 66z" />
    <glyph glyph-name="slash" unicode="/" horiz-adv-x="666" 
d="M138 -311h-110l502 1747h110z" />
    <glyph glyph-name="zero" unicode="0" horiz-adv-x="1128" 
d="M232 735v-108q0 -259 87.5 -401.5t241.5 -142.5t241.5 142.5t87.5 401.5v108q0 259 -87.5 401.5t-241.5 142.5t-241.5 -142.5t-87.5 -401.5zM104 626v108q0 309 120 484t338 175q216 0 335.5 -174.5t119.5 -484.5v-108q0 -309 -119.5 -482.5t-336.5 -173.5t-337 173.5
t-120 482.5z" />
    <glyph glyph-name="one" unicode="1" horiz-adv-x="783" 
d="M566 0h-126v1218h-2q-39 -21 -160 -97t-169 -110v139q56 40 171 112.5t169 99.5h117v-1362z" />
    <glyph glyph-name="two" unicode="2" horiz-adv-x="1094" 
d="M252 1004h-126v5q0 74 27 142.5t78 122.5t131.5 86.5t179.5 32.5q187 0 298 -104.5t111 -262.5q0 -35 -7.5 -70.5t-15 -61t-29.5 -63t-32 -55t-43.5 -59.5t-43 -53.5t-49.5 -58.5l-419 -489v-2h667v-114h-846v86l523 606q39 46 60 73t49.5 72t41.5 90.5t13 94.5
q0 113 -77 185.5t-204 72.5q-132 0 -209.5 -79.5t-77.5 -191.5v-5z" />
    <glyph glyph-name="three" unicode="3" horiz-adv-x="1112" 
d="M397 646v114h126q134 0 216 76t81 191q-1 112 -77.5 182.5t-206.5 70.5q-71 0 -126 -23.5t-86.5 -61.5t-48.5 -79.5t-19 -84.5h-124q1 49 16 99t47.5 97.5t78 84t113.5 59t149 22.5q185 0 298 -98.5t117 -248.5q1 -71 -23 -133.5t-63.5 -103.5t-85.5 -67t-91 -32v-2
q53 -4 106.5 -27t101.5 -62.5t79 -104t32 -143.5q3 -174 -131.5 -288t-339.5 -114q-105 0 -189 30.5t-136.5 83.5t-81 119.5t-30.5 142.5h123q11 -112 92 -187.5t226 -75.5q154 0 246.5 80.5t90.5 206.5q-1 126 -94.5 201.5t-248.5 75.5h-137z" />
    <glyph glyph-name="four" unicode="4" horiz-adv-x="1136" 
d="M689 1363h187v-943h187v-114h-187v-306h-122v306h-663v111q53 96 163.5 271t258.5 403t176 272zM224 420h530v828h-3q-101 -151 -279 -428t-248 -397v-3z" />
    <glyph glyph-name="five" unicode="5" horiz-adv-x="1155" 
d="M134 335h126q13 -109 97 -180.5t224 -71.5q132 0 233 97.5t101 251.5q0 153 -94.5 250t-237.5 97q-120 0 -201.5 -56t-117.5 -131h-110l82 772h709v-114h-601l-58 -493h2q30 46 116 89.5t194 43.5q190 0 318.5 -128t128.5 -327q0 -201 -135 -333t-338 -132
q-103 0 -187 32t-136 84.5t-81.5 116t-33.5 132.5z" />
    <glyph glyph-name="six" unicode="6" horiz-adv-x="1107" 
d="M995 1047h-129q-4 38 -22.5 76t-51 72t-84.5 55t-115 21q-76 0 -141 -36t-117 -109t-83 -195t-34 -283h2q32 95 131.5 163t235.5 68q82 0 160.5 -30.5t142 -86t102 -142.5t38.5 -191q0 -208 -130.5 -333t-327.5 -125q-219 0 -348 159t-129 477q0 197 38 347.5
t106.5 243.5t159 139.5t200.5 46.5q85 0 158.5 -29.5t122.5 -78.5t78.5 -108t36.5 -121zM242 431q0 -160 96 -254t237 -94q138 0 233 90t95 247q0 82 -28.5 149t-75.5 109t-105 64.5t-120 22.5q-136 0 -234 -92.5t-98 -241.5z" />
    <glyph glyph-name="seven" unicode="7" horiz-adv-x="1063" 
d="M103 1363h839v-120l-571 -1243h-135l583 1246v3h-716v114z" />
    <glyph glyph-name="eight" unicode="8" horiz-adv-x="1147" 
d="M574 81q148 0 245 81.5t97 210.5q0 126 -96.5 207t-245.5 81t-245.5 -81t-96.5 -207q0 -129 97 -210.5t245 -81.5zM574 769q126 0 208 71.5t82 184.5q0 114 -81.5 184.5t-208.5 70.5q-126 0 -208 -70.5t-82 -184.5q0 -112 82.5 -184t207.5 -72zM571 -30q-203 0 -334 111
t-131 286q0 78 28 143.5t72.5 106.5t91 66.5t93.5 35.5v3q-38 11 -76 34.5t-74.5 60.5t-59 93.5t-22.5 122.5q0 157 117.5 258t297.5 101q181 0 298 -101t117 -258q0 -67 -23 -124t-60 -94t-75 -60t-75 -33v-3q47 -10 94 -35.5t91 -67t72 -106t28 -141.5q0 -176 -133 -287.5
t-337 -111.5z" />
    <glyph glyph-name="nine" unicode="9" horiz-adv-x="1107" 
d="M105 329h129q5 -42 24.5 -83t54.5 -77t91 -58.5t125 -22.5q175 0 268 157t94 466h-4q-35 -96 -129.5 -162t-238.5 -66q-83 0 -159.5 30t-137 85t-96.5 143t-36 195q0 135 62.5 240.5t163.5 160t220 54.5q479 0 479 -673q0 -365 -128.5 -553.5t-364.5 -188.5
q-97 0 -176.5 32t-129 84t-78 113t-33.5 124zM870 922q0 166 -91 261.5t-235 95.5q-136 0 -231.5 -92.5t-95.5 -249.5q0 -162 93.5 -252t232.5 -90q133 0 230 94t97 233z" />
    <glyph glyph-name="colon" unicode=":" horiz-adv-x="479" 
d="M144 813q0 39 26.5 66t64.5 27q41 0 68 -26.5t27 -66.5t-27 -66.5t-68 -26.5q-38 0 -64.5 27t-26.5 66zM144 83q0 39 26.5 66t64.5 27q41 0 68 -26.5t27 -66.5t-27 -66.5t-68 -26.5q-38 0 -64.5 27t-26.5 66z" />
    <glyph glyph-name="semicolon" unicode=";" horiz-adv-x="484" 
d="M138 813q0 39 27 66t65 27q40 0 67.5 -26.5t27.5 -66.5t-27.5 -66.5t-67.5 -26.5q-38 0 -65 27t-27 66zM157 -237h-93l102 381h140z" />
    <glyph glyph-name="less" unicode="&#x3c;" horiz-adv-x="1063" 
d="M119 451v113l818 524v-136l-691 -435v-9l691 -407v-136z" />
    <glyph glyph-name="equal" unicode="=" horiz-adv-x="1063" 
d="M941 314h-820v104h820v-104zM941 671h-820v106h820v-106z" />
    <glyph glyph-name="greater" unicode="&#x3e;" horiz-adv-x="1063" 
d="M948 564v-113l-819 -486v136l693 407v9l-693 435v136z" />
    <glyph glyph-name="question" unicode="?" horiz-adv-x="916" 
d="M340 79q0 41 28 69t67 28q42 0 70 -27.5t28 -69.5q0 -40 -28 -67.5t-70 -27.5q-39 0 -67 27.5t-28 67.5zM67 1030q1 92 34 163.5t88.5 115t125.5 65.5t150 22q77 0 145 -21t122 -61t85.5 -104t31.5 -144q0 -46 -11 -87.5t-27.5 -72.5t-45 -63t-52.5 -54t-61 -51
q-95 -74 -126 -123t-31 -128v-73h-126v94q0 63 26 118t63.5 94t101.5 90q86 68 122.5 120t36.5 129q0 111 -74.5 168.5t-185.5 57.5q-133 0 -200.5 -74.5t-70.5 -180.5h-121z" />
    <glyph glyph-name="at" unicode="@" horiz-adv-x="1652" 
d="M1241 149q-97 0 -155.5 42.5t-67.5 102.5h-8q-14 -50 -72 -97.5t-148 -47.5q-118 0 -187.5 85.5t-69.5 234.5v91q0 142 69 228.5t195 86.5q86 0 136.5 -43t64.5 -91h7v119h107v-480q0 -70 41 -104t101 -34q88 0 147.5 88.5t59.5 264.5v37q0 115 -41 218t-116 183
t-192 127t-259 47h-8q-136 0 -253 -47t-201.5 -132.5t-133 -213t-48.5 -281.5v-43q0 -157 50 -282.5t137 -204.5t201 -120.5t246 -41.5h8q195 0 318 49v-100q-107 -46 -318 -46h-8q-125 0 -236.5 29.5t-204.5 90.5t-160.5 148t-105 207.5t-37.5 264.5v55q0 173 56 317
t155.5 242t237 152t297.5 54h8q113 0 213 -25.5t177 -71t139 -108.5t102 -137t61 -157t21 -169v-52q0 -201 -92.5 -318t-232.5 -117zM645 482q0 -118 49 -176t129 -58q79 0 129.5 54t50.5 166v96q0 97 -49.5 158t-131.5 61q-79 0 -128 -59.5t-49 -168.5v-73z" />
    <glyph glyph-name="A" unicode="A" horiz-adv-x="1172" 
d="M165 0h-132l490 1363h126l489 -1363h-137l-149 436h-537zM585 1206h-4l-230 -665h464z" />
    <glyph glyph-name="B" unicode="B" horiz-adv-x="1213" 
d="M177 0v1363h477q176 0 279.5 -89t103.5 -246q0 -125 -63.5 -202t-159.5 -105v-6q138 -18 219.5 -106.5t81.5 -232.5q0 -178 -125 -277t-340 -99h-473zM304 1247v-488h265q338 0 338 249q0 118 -73.5 178.5t-198.5 60.5h-331zM304 643v-527h291q186 0 287.5 59t101.5 198
q0 133 -88 201.5t-232 68.5h-360z" />
    <glyph glyph-name="C" unicode="C" horiz-adv-x="1244" 
d="M249 782v-208q0 -234 104 -360.5t296 -126.5q166 0 262.5 88.5t96.5 218.5h126v-1q0 -60 -18.5 -119t-58.5 -114t-96.5 -97t-138.5 -67.5t-178 -25.5q-250 0 -386 160.5t-136 445.5v205q0 285 137.5 448.5t384.5 163.5q94 0 175 -26t137 -70t96 -101t59 -118.5t19 -124.5
v-1h-126q0 58 -24 115t-67.5 104t-113.5 76.5t-155 29.5q-186 0 -290.5 -131t-104.5 -364z" />
    <glyph glyph-name="D" unicode="D" horiz-adv-x="1289" 
d="M177 1363h402q160 0 277.5 -49.5t188 -141.5t103.5 -214t33 -277q0 -122 -19.5 -223t-64.5 -187t-113.5 -145.5t-171 -92.5t-233.5 -33h-402v1363zM304 1247v-1131h271q475 0 475 565q0 271 -115.5 418.5t-359.5 147.5h-271z" />
    <glyph glyph-name="E" unicode="E" horiz-adv-x="1085" 
d="M972 116v-116h-795v1363h795v-117h-668v-491h633v-115h-633v-524h668z" />
    <glyph glyph-name="F" unicode="F" horiz-adv-x="1015" 
d="M304 0h-127v1363h783v-117h-656v-513h602v-116h-602v-617z" />
    <glyph glyph-name="G" unicode="G" horiz-adv-x="1266" 
d="M1140 975h-126q-14 137 -112.5 219.5t-250.5 82.5q-179 0 -290.5 -125t-111.5 -363v-205q0 -231 102.5 -364t295.5 -133q166 0 269.5 89t103.5 237v158h-382v117h506v-275q0 -63 -17.5 -124.5t-56.5 -119.5t-95 -102t-140.5 -70.5t-185.5 -26.5q-258 0 -392.5 165
t-134.5 449v205q0 281 144 442.5t388 161.5q113 0 205 -34.5t151 -93.5t92 -133t38 -157z" />
    <glyph glyph-name="H" unicode="H" horiz-adv-x="1348" 
d="M1171 0h-127v652h-740v-652h-127v1363h127v-595h740v595h127v-1363z" />
    <glyph glyph-name="I" unicode="I" horiz-adv-x="493" 
d="M310 0h-127v1363h127v-1363z" />
    <glyph glyph-name="J" unicode="J" horiz-adv-x="932" 
d="M29 299h126q2 -87 65 -147t167 -60q114 0 182.5 67.5t68.5 205.5v998h127v-985q0 -199 -102.5 -301t-275.5 -102q-167 0 -262.5 93.5t-95.5 230.5z" />
    <glyph glyph-name="K" unicode="K" horiz-adv-x="1147" 
d="M1101 1363l-531 -590l561 -773h-164l-492 685l-171 -184v-501h-127v1363h127v-693h5l637 693h155z" />
    <glyph glyph-name="L" unicode="L" horiz-adv-x="996" 
d="M960 116v-116h-783v1363h127v-1247h656z" />
    <glyph glyph-name="M" unicode="M" horiz-adv-x="1576" 
d="M297 0h-117v1363h124l482 -1115h4l483 1115h123v-1363h-116v1077h-4l-430 -972h-116l-429 972h-4v-1077z" />
    <glyph glyph-name="N" unicode="N" horiz-adv-x="1348" 
d="M304 0h-127v1363h128l735 -1143h4v1143h127v-1363h-128l-736 1143h-3v-1143z" />
    <glyph glyph-name="O" unicode="O" horiz-adv-x="1307" 
d="M248 789v-225q0 -228 111 -352.5t294 -124.5q184 0 294.5 124.5t110.5 352.5v225q0 229 -111.5 358.5t-293.5 129.5t-293.5 -129.5t-111.5 -358.5zM122 566v221q0 281 143.5 443.5t388.5 162.5q246 0 388.5 -162.5t142.5 -444.5v-220q0 -280 -143 -438t-390 -158
t-388.5 158t-141.5 438z" />
    <glyph glyph-name="P" unicode="P" horiz-adv-x="1135" 
d="M177 1363h468q195 0 311 -112.5t116 -299.5q0 -188 -115.5 -299.5t-311.5 -111.5h-341v-540h-127v1363zM304 1247v-592h260q189 0 283 67t94 229q0 140 -79 218t-222 78h-336z" />
    <glyph glyph-name="Q" unicode="Q" horiz-adv-x="1309" 
d="M122 575v217q0 281 142 441t389 160q246 0 389 -160.5t143 -440.5v-217q0 -321 -184 -480l187 -257h-147l-139 190q-110 -54 -249 -54q-247 0 -389 160t-142 441zM248 793v-219q0 -229 111 -356t294 -127q99 0 175 36l-178 241h151l126 -170q131 128 131 376v219
q0 228 -111.5 356t-293.5 128t-293.5 -128t-111.5 -356z" />
    <glyph glyph-name="R" unicode="R" horiz-adv-x="1198" 
d="M646 1363q203 0 313 -112t110 -282q0 -79 -22 -145t-61 -110.5t-85 -74t-101 -46.5l293 -593h-147l-274 567h-368v-567h-127v1363h469zM304 682h320q151 0 232.5 73.5t81.5 205.5q0 137 -82.5 212t-226.5 75h-325v-566z" />
    <glyph glyph-name="S" unicode="S" horiz-adv-x="1144" 
d="M77 357h129q4 -51 27.5 -98t66 -86t112 -62.5t157.5 -23.5q156 0 250.5 73.5t94.5 194.5q0 100 -63 157.5t-200 94.5l-217 57q-314 85 -314 351q0 117 62.5 205t164.5 132t227 44q189 0 318.5 -98.5t133.5 -270.5h-129q-7 107 -90 179.5t-235 72.5q-145 0 -233.5 -68.5
t-88.5 -187.5q0 -177 222 -235l212 -58q88 -24 150.5 -52.5t111.5 -71t73.5 -103t24.5 -139.5q0 -185 -137.5 -289.5t-352.5 -104.5q-101 0 -183.5 24.5t-135.5 63.5t-89 91t-52 103.5t-17 104.5z" />
    <glyph glyph-name="T" unicode="T" horiz-adv-x="1033" 
d="M579 0h-126v1247h-435v116h997v-116h-436v-1247z" />
    <glyph glyph-name="U" unicode="U" horiz-adv-x="1319" 
d="M286 1363v-891q0 -176 99.5 -280.5t274.5 -104.5q174 0 274 104t100 281v891h127v-891q0 -227 -136.5 -364.5t-364.5 -137.5t-365 139t-137 366v888h128z" />
    <glyph glyph-name="V" unicode="V" horiz-adv-x="1178" 
d="M651 0h-129l-496 1363h144l416 -1196h4l417 1196h144z" />
    <glyph glyph-name="W" unicode="W" horiz-adv-x="1665" 
d="M513 0h-119l-371 1363h149l283 -1145h4l305 1145h137l305 -1145h4l284 1145h148l-372 -1363h-119l-317 1146h-5z" />
    <glyph glyph-name="X" unicode="X" horiz-adv-x="1117" 
d="M1094 1363l-461 -687l453 -676h-155l-375 574h-8l-377 -574h-147l456 685l-452 678h154l380 -575h7l377 575h148z" />
    <glyph glyph-name="Y" unicode="Y" horiz-adv-x="1070" 
d="M598 0h-126v602l-462 761h147l375 -634h5l377 634h146l-462 -760v-603z" />
    <glyph glyph-name="Z" unicode="Z" horiz-adv-x="1145" 
d="M88 0v94l787 1150v4h-760v115h918v-93l-783 -1150v-4h795v-116h-957z" />
    <glyph glyph-name="bracketleft" unicode="[" horiz-adv-x="612" 
d="M143 1363h386v-96h-266v-1397h279v-96h-399v1589z" />
    <glyph glyph-name="backslash" unicode="\" horiz-adv-x="666" 
d="M638 -311h-110l-503 1747h111z" />
    <glyph glyph-name="bracketright" unicode="]" horiz-adv-x="612" 
d="M83 1363h386v-1589h-399v96h280v1397h-267v96z" />
    <glyph glyph-name="asciicircum" unicode="^" horiz-adv-x="743" 
d="M679 795h-109l-197 460h-4l-196 -460h-109l245 570h125z" />
    <glyph glyph-name="underscore" unicode="_" horiz-adv-x="844" 
d="M870 -214h-896v103h896v-103z" />
    <glyph glyph-name="grave" unicode="`" horiz-adv-x="888" 
d="M526 1208h-99l-236 279h135z" />
    <glyph glyph-name="a" unicode="a" horiz-adv-x="1038" 
d="M756 152q-39 -69 -118.5 -119t-197.5 -50q-153 0 -247 85.5t-94 227.5q0 137 93.5 217.5t267.5 80.5h295v137q0 216 -246 216q-116 0 -175.5 -48.5t-69.5 -127.5h-123q8 130 103 209.5t272 79.5q173 0 269.5 -80.5t96.5 -243.5v-736h-122v152h-4zM467 93q122 0 205 74.5
t83 187.5v132h-291q-118 0 -176 -50.5t-58 -137.5q0 -98 67.5 -152t169.5 -54z" />
    <glyph glyph-name="b" unicode="b" horiz-adv-x="1129" 
d="M608 -17q-128 0 -209.5 56.5t-111.5 134.5h-4v-174h-120v1436h126v-559h4q93 183 320 183q189 0 297 -126t108 -337v-149q0 -220 -111.5 -342.5t-298.5 -122.5zM595 96q131 0 213.5 94t82.5 269v122q0 174 -80.5 271t-215.5 97q-141 0 -223.5 -102.5t-82.5 -254.5v-142
q0 -70 19.5 -133t56.5 -113t96.5 -79t133.5 -29z" />
    <glyph glyph-name="c" unicode="c" horiz-adv-x="1021" 
d="M111 455v137q0 211 113 339.5t308 128.5q91 0 166 -27.5t122.5 -72.5t73.5 -100.5t28 -113.5h-125q-11 78 -80.5 140.5t-183.5 62.5q-142 0 -219.5 -100.5t-77.5 -265.5v-126q0 -161 80.5 -258.5t219.5 -97.5q117 0 183 51t84 128h124q-3 -54 -29.5 -105.5t-74 -95
t-123 -70t-167.5 -26.5q-199 0 -310.5 128t-111.5 344z" />
    <glyph glyph-name="d" unicode="d" horiz-adv-x="1130" 
d="M518 1061q128 0 209 -54.5t109 -128.5h4v558h125v-1436h-120v175h-4q-19 -70 -104.5 -131t-219.5 -61q-190 0 -298.5 126t-108.5 333v159q0 209 110 334.5t298 125.5zM532 948q-138 0 -217 -100t-79 -273v-108q0 -171 79 -271.5t221 -100.5q143 0 223.5 101.5t80.5 268.5
v117q0 164 -82.5 265t-225.5 101z" />
    <glyph glyph-name="e" unicode="e" horiz-adv-x="1053" 
d="M541 -17q-208 0 -318.5 130.5t-110.5 351.5v101q0 227 108.5 360.5t308.5 133.5q201 0 309 -131.5t108 -360.5v-73h-708v-37q0 -160 77.5 -261t225.5 -101q116 0 179.5 52t78.5 124h132q-8 -50 -33 -98.5t-70 -92.5t-119.5 -71t-167.5 -27zM238 604h582v3
q0 156 -78.5 249t-212.5 93t-212.5 -94t-78.5 -248v-3z" />
    <glyph glyph-name="f" unicode="f" horiz-adv-x="653" 
d="M218 0v935h-159v108h159v116q0 146 71.5 213.5t222.5 67.5q40 0 85 -8v-106q-45 5 -73 5q-95 0 -137.5 -39t-42.5 -139v-110h236v-108h-236v-935h-126z" />
    <glyph glyph-name="g" unicode="g" horiz-adv-x="1102" 
d="M524 -268q148 0 227 73.5t79 202.5v196h-4q-19 -44 -57 -84t-107 -71t-151 -31q-177 0 -294 121.5t-117 320.5v153q0 203 118 325t295 122q69 0 125 -16.5t93 -45.5t60.5 -58t38.5 -62h4v165h121v-1030q0 -191 -116 -292.5t-320 -101.5q-96 0 -172 25.5t-122 68t-71 93
t-28 106.5h131q8 -73 76 -126.5t191 -53.5zM532 949q-136 0 -221 -96t-85 -264v-109q0 -163 86 -256.5t221 -93.5q92 0 161 48.5t102 124.5t33 167v121q0 152 -81 255t-216 103z" />
    <glyph glyph-name="h" unicode="h" horiz-adv-x="1141" 
d="M164 0v1436h126v-551h5q28 71 106.5 123t201.5 52q170 0 275.5 -110t105.5 -289v-661h-126v638q0 137 -71 222t-202 85q-139 0 -217 -88.5t-78 -232.5v-624h-126z" />
    <glyph glyph-name="i" unicode="i" horiz-adv-x="498" 
d="M186 0v1043h126v-1043h-126zM158 1310q0 39 26 64.5t64 25.5q39 0 65.5 -25.5t26.5 -64.5t-26.5 -65t-65.5 -26q-38 0 -64 26t-26 65z" />
    <glyph glyph-name="j" unicode="j" horiz-adv-x="498" 
d="M158 1310q0 39 26 64.5t64 25.5q39 0 65.5 -25.5t26.5 -64.5t-26.5 -65t-65.5 -26q-38 0 -64 26t-26 65zM312 1043v-1091q0 -163 -64.5 -238t-188.5 -75q-54 0 -88 9v104q25 -5 66 -5q81 0 115 47.5t34 157.5v1091h126z" />
    <glyph glyph-name="k" unicode="k" horiz-adv-x="995" 
d="M290 405v-405h-126v1436h126v-888h5l490 501h150l-435 -450l458 -599h-153l-397 518z" />
    <glyph glyph-name="l" unicode="l" horiz-adv-x="468" 
d="M171 0v1436h126v-1436h-126z" />
    <glyph glyph-name="m" unicode="m" horiz-adv-x="1701" 
d="M161 0v1043h126v-143h6q27 64 97.5 112t175.5 48q123 0 200 -50t106 -135h6q28 74 111 129.5t208 55.5q160 0 253.5 -92.5t93.5 -256.5v-711h-125v686q0 119 -65 189t-181 70q-122 0 -190 -78t-68 -196v-671h-125v673q0 130 -65.5 201t-182.5 71q-115 0 -185 -77
t-70 -202v-666h-126z" />
    <glyph glyph-name="n" unicode="n" horiz-adv-x="1131" 
d="M161 0v1043h126v-158h4q31 74 113 124.5t201 50.5q161 0 266.5 -97.5t105.5 -269.5v-693h-127v649q0 141 -69.5 218.5t-202.5 77.5q-140 0 -215.5 -86t-75.5 -231v-628h-126z" />
    <glyph glyph-name="o" unicode="o" horiz-adv-x="1094" 
d="M547 1060q208 0 322 -130.5t114 -353.5v-110q0 -224 -113.5 -353.5t-322.5 -129.5t-322.5 129t-113.5 354v110q0 220 114 352t322 132zM547 949q-154 0 -232.5 -106t-78.5 -281v-81q0 -177 78 -281t234 -104q154 0 231.5 103.5t77.5 281.5v81q0 175 -78 281t-232 106z
" />
    <glyph glyph-name="p" unicode="p" horiz-adv-x="1127" 
d="M610 -17q-127 0 -204.5 52t-114.5 126h-4v-515h-125v1398h120v-167h4q30 73 113.5 128t215.5 55q178 0 289 -123t111 -333v-166q0 -215 -113 -335t-292 -120zM595 96q129 0 211.5 93.5t82.5 270.5v126q0 172 -81 267.5t-217 95.5q-141 0 -222.5 -99.5t-81.5 -250.5v-147
q0 -150 83.5 -253t224.5 -103z" />
    <glyph glyph-name="q" unicode="q" horiz-adv-x="1119" 
d="M516 1060q128 0 208 -52t115 -130h4v165h120v-1398h-126v517h-4q-20 -44 -57 -82t-106.5 -67.5t-155.5 -29.5q-185 0 -294.5 123.5t-109.5 331.5v169q0 207 113.5 330t292.5 123zM534 947q-138 0 -218 -94.5t-80 -267.5v-129q0 -169 81 -265.5t218 -96.5q143 0 222.5 104
t79.5 254v136q0 162 -81 260.5t-222 98.5z" />
    <glyph glyph-name="r" unicode="r" horiz-adv-x="679" 
d="M173 0v1043h126v-149h4q61 165 276 165q25 0 70 -5v-118q-30 6 -85 6q-130 0 -197.5 -76.5t-67.5 -212.5v-653h-126z" />
    <glyph glyph-name="s" unicode="s" horiz-adv-x="968" 
d="M114 760q0 98 52 167.5t133.5 101t183.5 31.5q176 0 268 -88t92 -211h-120q-2 33 -14.5 65t-39 62t-76 48.5t-115.5 18.5q-105 0 -172 -48t-67 -135q0 -27 8 -49.5t19.5 -39t33 -30.5t40 -23t50.5 -18.5t54 -14.5t60 -13q57 -12 95.5 -22t84.5 -26t75.5 -36.5t56 -49
t39 -67.5t12.5 -88q0 -149 -110.5 -230.5t-286.5 -81.5q-177 0 -279 82t-102 209h124q8 -78 73.5 -131t188.5 -53q126 0 196.5 51.5t70.5 139.5q0 38 -16 67.5t-37.5 47.5t-64 33.5t-73 23.5t-88.5 20q-69 15 -114 28t-94 36t-76.5 51t-46 71.5t-18.5 100.5z" />
    <glyph glyph-name="t" unicode="t" horiz-adv-x="651" 
d="M210 1043v259h126v-259h236v-108h-236v-672q0 -94 39.5 -128t141.5 -34q43 0 65 3v-104q-35 -7 -91 -7q-85 0 -140 15.5t-86 51.5t-43 86t-12 127v662h-162v108h162z" />
    <glyph glyph-name="u" unicode="u" horiz-adv-x="1127" 
d="M966 1043v-1043h-126v159h-5q-31 -75 -111.5 -125.5t-205.5 -50.5q-164 0 -265 92.5t-101 265.5v702h127v-668q0 -140 73.5 -208.5t196.5 -68.5q133 0 212 85.5t79 219.5v640h126z" />
    <glyph glyph-name="v" unicode="v" horiz-adv-x="951" 
d="M410 0l-378 1043h140l297 -903h6l310 903h134l-383 -1043h-126z" />
    <glyph glyph-name="w" unicode="w" horiz-adv-x="1425" 
d="M1389 1043l-282 -1043h-124l-265 860h-4l-260 -860h-125l-294 1043h143l212 -872h6l259 872h121l264 -872h7l215 872h127z" />
    <glyph glyph-name="x" unicode="x" horiz-adv-x="986" 
d="M773 0l-280 422h-6l-281 -422h-144l359 519l-357 524h152l273 -417h6l279 417h144l-357 -511l364 -532h-152z" />
    <glyph glyph-name="y" unicode="y" horiz-adv-x="983" 
d="M937 1043l-376 -1050l-34 -90q-23 -64 -46 -106.5t-58.5 -83t-87 -60.5t-119.5 -20q-52 0 -99 9v108q33 -7 81 -7q85 0 131.5 42t72.5 125l25 75l-390 1058h140l311 -913h6l309 913h134z" />
    <glyph glyph-name="z" unicode="z" horiz-adv-x="964" 
d="M109 0v92l591 838v9h-594v104h752v-92l-592 -838v-7h595v-106h-752z" />
    <glyph glyph-name="braceleft" unicode="{" horiz-adv-x="690" 
d="M209 599v-21q163 -15 163 -219v-346q0 -110 54.5 -162t173.5 -52h50v-103h-46q-174 0 -262 74t-88 246v295q0 110 -34.5 156.5t-133.5 46.5v148q98 0 133 47t35 157v257q0 170 87.5 240.5t262.5 70.5h46v-103h-50q-121 0 -174.5 -51t-53.5 -162v-299q0 -105 -40 -158.5
t-123 -61.5z" />
    <glyph glyph-name="bar" unicode="|" horiz-adv-x="560" 
d="M332 -309h-105v1745h105v-1745z" />
    <glyph glyph-name="braceright" unicode="}" horiz-adv-x="690" 
d="M481 578v21q-163 17 -163 220v299q0 111 -53.5 162t-175.5 51h-49v103h45q175 0 263 -70.5t88 -240.5v-257q0 -110 35 -157t133 -47v-148q-99 0 -133.5 -46.5t-34.5 -156.5v-295q0 -172 -88.5 -246t-262.5 -74h-45v103h49q120 0 174.5 52t54.5 162v346q0 204 163 219z
" />
    <glyph glyph-name="asciitilde" unicode="~" horiz-adv-x="1117" 
d="M752 503q-62 0 -115 29.5t-122 95.5q-34 33 -52 49t-49 32.5t-59 16.5q-69 0 -105 -51t-40 -136h-116q0 130 67 216.5t200 86.5q61 0 113.5 -29t118.5 -91q47 -48 85.5 -75t81.5 -27q72 0 108.5 55.5t40.5 136.5h117q0 -58 -15.5 -111t-46.5 -98.5t-85.5 -72.5
t-126.5 -27z" />
    <glyph glyph-name="nonbreakingspace" unicode="&#xa0;" horiz-adv-x="415" 
 />
    <glyph glyph-name="exclamdown" unicode="&#xa1;" horiz-adv-x="501" 
d="M320 -293h-141l15 971h110zM347 988q0 -40 -27.5 -67.5t-69.5 -27.5q-39 0 -67 28t-28 67q0 41 28 68.5t67 27.5q42 0 69.5 -27t27.5 -69z" />
    <glyph glyph-name="cent" unicode="&#xa2;" horiz-adv-x="1063" 
d="M934 433q-8 -108 -94 -193.5t-247 -98.5v-231h-106v232q-172 17 -271 135t-99 313v179q0 191 100 309t270 135v246h106v-245q154 -15 242 -105.5t93 -201.5h-125q-6 34 -22 66t-45.5 63t-80 50t-114.5 19q-140 0 -219.5 -92.5t-79.5 -252.5v-168q0 -158 81 -247t221 -89
q122 0 185 50t80 127h125z" />
    <glyph glyph-name="sterling" unicode="&#xa3;" horiz-adv-x="1063" 
d="M990 109v-109h-901v116q30 0 48 1t41 6.5t36.5 16t28 29.5t22 47t12.5 68.5t5 94.5v271h-216v104h216v315q0 156 100 240t257 84t250.5 -83t98.5 -211h-120q-5 76 -65.5 130t-163.5 54q-115 0 -173 -62t-58 -165v-302h312v-104h-312v-278q0 -102 -17 -165t-60 -88v-10
h659z" />
    <glyph glyph-name="currency" unicode="&#xa4;" horiz-adv-x="1063" 
d="M915 189l-181 182q-90 -65 -202 -65q-114 0 -206 68l-183 -185l-75 75l183 184q-69 89 -69 208q0 116 65 204l-179 179l76 76l177 -179q93 71 211 71q115 0 207 -68l176 176l75 -76l-175 -176q67 -93 67 -207q0 -120 -72 -212l180 -180zM276 656q0 -106 75 -181t181 -75
t181.5 75t75.5 181t-75.5 182t-181.5 76t-181 -75.5t-75 -182.5z" />
    <glyph glyph-name="yen" unicode="&#xa5;" horiz-adv-x="1063" 
d="M875 313h-280v-313h-126v313h-281v97h281v165h-281v96h239l-420 692h147l373 -634h8l376 634h146l-420 -692h238v-96h-280v-165h280v-97z" />
    <glyph glyph-name="brokenbar" unicode="&#xa6;" horiz-adv-x="387" 
d="M250 783h-108v654h108v-654zM250 -309h-108v685h108v-685z" />
    <glyph glyph-name="section" unicode="&#xa7;" horiz-adv-x="964" 
d="M740 66q0 39 -14.5 69t-36 49.5t-62 36.5t-76 27.5t-95.5 24.5q-65 16 -111 31t-93 39.5t-75.5 54.5t-46.5 74t-18 100q0 92 54 154t125 93v7q-34 18 -59 37t-52 49t-41.5 73t-14.5 95q0 145 104 229t256 84q158 0 256.5 -85t98.5 -219h-120q-2 79 -68 135.5t-170 56.5
q-106 0 -169 -55.5t-63 -140.5q0 -40 15 -71.5t37 -52t61 -38t72.5 -27.5t86.5 -23q45 -11 75 -19t69.5 -22t65 -29t53.5 -37.5t44 -49t26.5 -62.5t10.5 -79q0 -85 -45.5 -150t-108.5 -104v-7q31 -17 54.5 -35t48.5 -45.5t38.5 -67t13.5 -86.5q0 -148 -108.5 -240.5
t-280.5 -92.5q-167 0 -274.5 83.5t-107.5 223.5h123q8 -89 76.5 -141.5t185.5 -52.5q126 0 193 59.5t67 146.5zM606 351q53 23 93 81t40 128q0 75 -54.5 122.5t-166.5 73.5q-5 1 -33 8.5t-54.5 14t-34.5 8.5q-55 -12 -107 -69.5t-52 -132.5q0 -83 57.5 -126.5t176.5 -74.5
q13 -3 70 -17t65 -16z" />
    <glyph glyph-name="dieresis" unicode="&#xa8;" horiz-adv-x="888" 
d="M194 1311q0 36 23 59.5t56 23.5q35 0 58 -23.5t23 -59.5q0 -34 -23.5 -58t-57.5 -24q-33 0 -56 24t-23 58zM513 1311q0 36 23 59.5t56 23.5q35 0 58.5 -23.5t23.5 -59.5q0 -34 -23.5 -58t-58.5 -24q-32 0 -55.5 24t-23.5 58z" />
    <glyph glyph-name="copyright" unicode="&#xa9;" horiz-adv-x="1643" 
d="M519 634v99q0 156 83.5 241t230.5 85q130 0 205 -69t80 -158h-101q-5 23 -15.5 43.5t-30.5 42.5t-55.5 35t-81.5 13q-216 0 -216 -239v-94q0 -114 56.5 -172t159.5 -58q160 0 188 117h102q-8 -87 -83 -151t-208 -64q-147 0 -230.5 84.5t-83.5 244.5zM213 638
q0 -264 170.5 -434t443.5 -170q136 0 251.5 45.5t195 125.5t124.5 192t45 241v108q0 160 -77 293t-219 212t-320 79q-134 0 -249.5 -46t-195 -124.5t-124.5 -186t-45 -227.5v-108zM827 -62q-156 0 -290 53.5t-227 147t-145.5 223.5t-52.5 280v104q0 141 53.5 266.5t147 217
t227.5 144.5t287 53q154 0 288 -54t227 -145.5t146.5 -216.5t53.5 -265v-104q0 -150 -52.5 -280t-145 -223.5t-226.5 -147t-291 -53.5z" />
    <glyph glyph-name="ordfeminine" unicode="&#xaa;" horiz-adv-x="622" 
d="M270 785q-83 0 -134 45.5t-51 123.5q0 77 52 121t148 44h150v58q0 104 -122 104q-101 0 -115 -67h-91q5 68 60 108t150 40q96 0 154 -44.5t58 -139.5v-384h-90v77h-4q-49 -86 -165 -86zM296 862q58 0 98.5 35t40.5 87v64h-140q-58 1 -87.5 -23t-29.5 -65q0 -47 34 -72.5
t84 -25.5z" />
    <glyph glyph-name="guillemotleft" unicode="&#xab;" horiz-adv-x="1221" 
d="M563 565l353 404h150l-348 -403v-6l348 -405h-159l-344 402v8zM118 565l353 404h150l-348 -403v-6l348 -405h-159l-344 402v8z" />
    <glyph glyph-name="logicalnot" unicode="&#xac;" horiz-adv-x="1063" 
d="M978 123h-113v370h-783v106h896v-476z" />
    <glyph glyph-name="registered" unicode="&#xae;" horiz-adv-x="1161" 
d="M584 416q-209 0 -345 132t-136 333v61q0 124 62 227t173 163t246 60q205 0 343 -131t138 -319v-61q0 -201 -135.5 -333t-345.5 -132zM584 495q176 0 288.5 108.5t112.5 275.5v65q0 156 -113.5 263.5t-287.5 107.5q-173 0 -286.5 -107.5t-113.5 -263.5v-65
q0 -167 112 -275.5t288 -108.5zM492 1099v-177h96q110 0 110 89q0 42 -27 65t-73 23h-106zM492 666h-77v494h208q68 0 111 -41.5t43 -105.5q0 -53 -28 -91.5t-71 -50.5q4 -7 53 -95.5t61 -109.5h-91l-103 195h-106v-195z" />
    <glyph glyph-name="macron" unicode="&#xaf;" horiz-adv-x="888" 
d="M713 1266h-546v84h546v-84z" />
    <glyph glyph-name="degree" unicode="&#xb0;" horiz-adv-x="509" 
d="M255 968q-85 0 -145 60t-60 145t60 144.5t145 59.5q84 0 144 -59.5t60 -144.5t-60 -145t-144 -60zM255 1054q50 0 85 35.5t35 83.5q0 50 -35 85t-85 35q-48 0 -83.5 -35t-35.5 -85q0 -48 35.5 -83.5t83.5 -35.5z" />
    <glyph glyph-name="plusminus" unicode="&#xb1;" horiz-adv-x="1078" 
d="M589 672v-307h-104v307h-410v106h410v291h104v-291h412v-106h-412zM1003 137h-926v107h926v-107z" />
    <glyph glyph-name="twosuperior" unicode="&#xb2;" horiz-adv-x="640" 
d="M188 1176h-95v7q0 81 57 139t159 58q96 0 155 -53t59 -133q0 -55 -28.5 -102t-83.5 -106l-187 -191v-1h311v-87h-435v65l249 273q76 82 76 143q0 47 -32.5 76.5t-85.5 29.5q-56 0 -87.5 -32.5t-31.5 -78.5v-7z" />
    <glyph glyph-name="threesuperior" unicode="&#xb3;" horiz-adv-x="635" 
d="M230 1006v84h71q53 0 86 30t33 76q0 45 -32 73t-84 28t-84.5 -27t-34.5 -65h-92q2 71 58.5 123t153.5 52q94 0 152.5 -48t58.5 -123q0 -57 -35.5 -99.5t-88.5 -55.5v-1q62 -10 105 -50.5t43 -109.5q0 -86 -66 -141.5t-169 -55.5q-101 0 -162.5 52.5t-63.5 126.5h91
q4 -40 41 -67.5t94 -27.5q62 0 100 32t38 82q0 49 -38 80.5t-100 31.5h-75z" />
    <glyph glyph-name="acute" unicode="&#xb4;" horiz-adv-x="888" 
d="M332 1208h-100l202 279h134z" />
    <glyph glyph-name="paragraph" unicode="&#xb6;" horiz-adv-x="1194" 
d="M705 -210h-126v747h-20q-49 0 -103.5 12t-114.5 42.5t-107 75.5t-78 118.5t-31 163.5q0 98 31 174.5t77.5 121t108 73t114 38t104.5 9.5h145v-1575zM869 -210v1575h126v-1575h-126z" />
    <glyph glyph-name="periodcentered" unicode="&#xb7;" horiz-adv-x="546" 
d="M158 697q0 39 27 66t65 27q41 0 68 -26.5t27 -66.5t-27 -66.5t-68 -26.5q-38 0 -65 27t-27 66z" />
    <glyph glyph-name="cedilla" unicode="&#xb8;" horiz-adv-x="888" 
d="M332 -219v64l64 162h95l-57 -147q95 0 153.5 -39t58.5 -118q0 -87 -63.5 -132.5t-157.5 -48.5q-79 -3 -140 16v85q45 -14 118 -14q54 0 93 22t39 68q0 34 -22.5 53t-52.5 24t-76 5h-52z" />
    <glyph glyph-name="onesuperior" unicode="&#xb9;" horiz-adv-x="568" 
d="M390 707h-98v551h-5l-156 -114v99l161 120h98v-656z" />
    <glyph glyph-name="ordmasculine" unicode="&#xba;" horiz-adv-x="609" 
d="M306 1281q-69 0 -110 -47.5t-41 -126.5v-67q0 -80 39.5 -126.5t111.5 -46.5q70 0 109.5 46.5t39.5 126.5v67q0 79 -40.5 126.5t-108.5 47.5zM306 1362q108 0 176.5 -67t68.5 -182v-79q0 -117 -68 -183t-177 -66q-111 0 -178.5 66t-67.5 183v79q0 113 68.5 181t177.5 68z
" />
    <glyph glyph-name="guillemotright" unicode="&#xbb;" horiz-adv-x="1217" 
d="M1076 565v-8l-344 -402h-159l348 405v6l-348 403h150zM631 565v-8l-344 -402h-159l348 405v6l-348 403h150z" />
    <glyph glyph-name="onequarter" unicode="&#xbc;" horiz-adv-x="1345" 
d="M856 214h234v368h-5q-119 -176 -229 -364v-4zM1044 667h135v-453h86v-81h-86v-133h-89v133h-334v78q32 57 82 136.5t117.5 183.5t88.5 136zM289 707h-98v551h-5l-156 -114v99l161 120h98v-656zM180 0h-118l517 682l517 681h118l-516 -681z" />
    <glyph glyph-name="onehalf" unicode="&#xbd;" horiz-adv-x="1374" 
d="M964 459h-97v7q0 82 57.5 141t161.5 59q98 0 157.5 -53.5t59.5 -134.5q0 -55 -28.5 -103.5t-84.5 -107.5l-190 -194v-1h315v-88h-441v66l253 277q77 83 77 145q0 47 -33.5 77t-86.5 30q-56 0 -88 -33t-32 -80v-7zM289 707h-98v551h-5l-156 -114v99l161 120h98v-656z
M180 0h-118l517 682l517 681h118l-516 -681z" />
    <glyph glyph-name="threequarters" unicode="&#xbe;" horiz-adv-x="1367" 
d="M924 216h234v366h-4q-126 -184 -230 -363v-3zM1112 667h136v-451h85v-83h-85v-133h-90v133h-334v78q32 57 82 136t118 184t88 136zM166 990v85h72q54 0 87 30t33 77q0 45 -32 73.5t-85 28.5t-85.5 -27.5t-34.5 -65.5h-93q2 72 59.5 124.5t154.5 52.5q95 0 154 -48.5
t59 -124.5q0 -58 -35.5 -100.5t-89.5 -55.5v-1q63 -11 106.5 -51.5t43.5 -110.5q0 -87 -66.5 -143t-171.5 -56q-101 0 -163.5 53.5t-64.5 127.5h92q4 -41 41 -68.5t95 -27.5q63 0 101.5 32t38.5 83q0 50 -38.5 81.5t-101.5 31.5h-76zM231 0h-118l517 682l517 681h118
l-516 -681z" />
    <glyph glyph-name="questiondown" unicode="&#xbf;" horiz-adv-x="916" 
d="M576 976q0 -40 -27.5 -67.5t-69.5 -27.5q-39 0 -67 27.5t-28 67.5q0 42 28 69.5t67 27.5q42 0 69.5 -27.5t27.5 -69.5zM849 26q-1 -91 -34 -162.5t-88.5 -115t-125.5 -65.5t-150 -22q-104 0 -189 35.5t-140 112t-55 182.5q0 57 15 105t45.5 88t60.5 68.5t76 65.5
q94 75 125 124t31 128v73h126v-95q0 -91 -46.5 -157.5t-143.5 -143.5q-86 -68 -123 -120.5t-37 -129.5q0 -111 75 -168t186 -57q133 0 200.5 74.5t69.5 179.5h122z" />
    <glyph glyph-name="Agrave" unicode="&#xc0;" horiz-adv-x="1172" 
d="M165 0h-132l490 1363h126l489 -1363h-137l-149 436h-537zM585 1206h-4l-230 -665h464zM686 1514h-119l-298 213h149z" />
    <glyph glyph-name="Aacute" unicode="&#xc1;" horiz-adv-x="1172" 
d="M165 0h-132l490 1363h126l489 -1363h-137l-149 436h-537zM585 1206h-4l-230 -665h464zM490 1513l268 213h148l-297 -213h-119z" />
    <glyph glyph-name="Acircumflex" unicode="&#xc2;" horiz-adv-x="1172" 
d="M165 0h-132l490 1363h126l489 -1363h-137l-149 436h-537zM585 1206h-4l-230 -665h464zM279 1509l280 225h64l277 -225h-128l-179 149h-5l-179 -149h-130z" />
    <glyph glyph-name="Atilde" unicode="&#xc3;" horiz-adv-x="1172" 
d="M165 0h-132l490 1363h126l489 -1363h-137l-149 436h-537zM585 1206h-4l-230 -665h464zM556 1554q-17 19 -27 29t-27 19.5t-34 9.5q-69 0 -73 -108h-83q0 82 40 134.5t116 52.5q40 0 71.5 -18t68.5 -57q18 -20 27 -29t24.5 -17t33.5 -8q35 0 56.5 34.5t23.5 80.5h83
q0 -76 -44 -132.5t-113 -56.5q-50 0 -80.5 16t-62.5 50z" />
    <glyph glyph-name="Adieresis" unicode="&#xc4;" horiz-adv-x="1172" 
d="M165 0h-132l490 1363h126l489 -1363h-137l-149 436h-537zM585 1206h-4l-230 -665h464zM395 1579q0 30 20 50.5t49 20.5q30 0 50 -20.5t20 -50.5q0 -29 -20 -50t-50 -21q-29 0 -49 21t-20 50zM679 1579q0 30 20.5 50.5t49.5 20.5q30 0 49.5 -20.5t19.5 -50.5
q0 -29 -20 -50t-49 -21t-49.5 21t-20.5 50z" />
    <glyph glyph-name="Aring" unicode="&#xc5;" horiz-adv-x="1173" 
d="M475 1510q0 -45 33.5 -78t77.5 -33q45 0 77.5 33t32.5 78q0 46 -32 78t-78 32q-45 0 -78 -32.5t-33 -77.5zM816 541l-229 665h-6l-229 -665h464zM165 0h-131l482 1342q-50 21 -81 66.5t-31 101.5q0 74 53 126.5t129 52.5q74 0 126.5 -52.5t52.5 -126.5q0 -55 -30 -100
t-79 -66l483 -1344h-137l-150 436h-537z" />
    <glyph glyph-name="AE" unicode="&#xc6;" horiz-adv-x="1835" 
d="M862 1246l-383 -678h454v678h-71zM933 460h-513l-260 -460h-143l776 1363h929v-117h-661v-491h625v-115h-625v-524h661v-116h-789v460z" />
    <glyph glyph-name="Ccedilla" unicode="&#xc7;" horiz-adv-x="1244" 
d="M631 -481q-79 -3 -140 16v85q45 -14 118 -14q54 0 93 22t39 68q0 48 -40 65t-111 17h-52v64l52 131q-226 16 -347 175.5t-121 427.5v205q0 285 137.5 448.5t384.5 163.5q94 0 175 -26t137 -70t96 -101t59 -118.5t19 -124.5v-1h-126q0 58 -24 115t-67.5 104t-113.5 76.5
t-155 29.5q-186 0 -290.5 -131t-104.5 -364v-208q0 -234 104 -360.5t296 -126.5q166 0 262.5 88.5t96.5 218.5h126v-1q0 -72 -28.5 -142.5t-82 -131.5t-142 -101.5t-197.5 -46.5l-44 -114q95 0 153.5 -39t58.5 -118q0 -87 -63 -132.5t-158 -48.5z" />
    <glyph glyph-name="Egrave" unicode="&#xc8;" horiz-adv-x="1085" 
d="M671 1514h-119l-298 213h149zM972 116v-116h-795v1363h795v-117h-668v-491h633v-115h-633v-524h668z" />
    <glyph glyph-name="Eacute" unicode="&#xc9;" horiz-adv-x="1085" 
d="M475 1513l268 213h148l-297 -213h-119zM972 116v-116h-795v1363h795v-117h-668v-491h633v-115h-633v-524h668z" />
    <glyph glyph-name="Ecircumflex" unicode="&#xca;" horiz-adv-x="1085" 
d="M264 1509l280 225h64l277 -225h-128l-179 149h-5l-179 -149h-130zM972 116v-116h-795v1363h795v-117h-668v-491h633v-115h-633v-524h668z" />
    <glyph glyph-name="Edieresis" unicode="&#xcb;" horiz-adv-x="1085" 
d="M380 1579q0 30 20 50.5t49 20.5q30 0 50 -20.5t20 -50.5q0 -29 -20 -50t-50 -21q-29 0 -49 21t-20 50zM664 1579q0 30 20.5 50.5t49.5 20.5q30 0 49.5 -20.5t19.5 -50.5q0 -29 -20 -50t-49 -21t-49.5 21t-20.5 50zM972 116v-116h-795v1363h795v-117h-668v-491h633v-115
h-633v-524h668z" />
    <glyph glyph-name="Igrave" unicode="&#xcc;" horiz-adv-x="493" 
d="M310 0h-127v1363h127v-1363zM346 1514h-119l-298 213h149z" />
    <glyph glyph-name="Iacute" unicode="&#xcd;" horiz-adv-x="493" 
d="M310 0h-127v1363h127v-1363zM150 1513l268 213h148l-297 -213h-119z" />
    <glyph glyph-name="Icircumflex" unicode="&#xce;" horiz-adv-x="493" 
d="M310 0h-127v1363h127v-1363zM-61 1509l280 225h64l277 -225h-128l-179 149h-5l-179 -149h-130z" />
    <glyph glyph-name="Idieresis" unicode="&#xcf;" horiz-adv-x="493" 
d="M310 0h-127v1363h127v-1363zM55 1579q0 30 20 50.5t49 20.5q30 0 50 -20.5t20 -50.5q0 -29 -20 -50t-50 -21q-29 0 -49 21t-20 50zM339 1579q0 30 20.5 50.5t49.5 20.5q30 0 49.5 -20.5t19.5 -50.5q0 -29 -20 -50t-49 -21t-49.5 21t-20.5 50z" />
    <glyph glyph-name="Eth" unicode="&#xd0;" horiz-adv-x="1358" 
d="M648 0h-403v642h-159v113h159v608h403q160 0 277.5 -49.5t188 -141.5t103.5 -214t33 -277q0 -122 -19.5 -223t-64.5 -187t-113.5 -145.5t-171 -92.5t-233.5 -33zM373 116h271q475 0 475 565q0 271 -115.5 418.5t-359.5 147.5h-271v-492h335v-113h-335v-526z" />
    <glyph glyph-name="Ntilde" unicode="&#xd1;" horiz-adv-x="1348" 
d="M643 1554q-17 19 -27 29t-27 19.5t-34 9.5q-69 0 -73 -108h-83q0 82 40 134.5t116 52.5q40 0 71.5 -18t68.5 -57q18 -20 27 -29t24.5 -17t33.5 -8q35 0 56.5 34.5t23.5 80.5h83q0 -76 -44 -132.5t-113 -56.5q-50 0 -80.5 16t-62.5 50zM304 0h-127v1363h128l735 -1143h4
v1143h127v-1363h-128l-736 1143h-3v-1143z" />
    <glyph glyph-name="Ograve" unicode="&#xd2;" horiz-adv-x="1307" 
d="M753 1514h-119l-298 213h149zM248 789v-225q0 -228 111 -352.5t294 -124.5q184 0 294.5 124.5t110.5 352.5v225q0 229 -111.5 358.5t-293.5 129.5t-293.5 -129.5t-111.5 -358.5zM122 566v221q0 281 143.5 443.5t388.5 162.5q246 0 388.5 -162.5t142.5 -444.5v-220
q0 -280 -143 -438t-390 -158t-388.5 158t-141.5 438z" />
    <glyph glyph-name="Oacute" unicode="&#xd3;" horiz-adv-x="1307" 
d="M557 1513l268 213h148l-297 -213h-119zM248 789v-225q0 -228 111 -352.5t294 -124.5q184 0 294.5 124.5t110.5 352.5v225q0 229 -111.5 358.5t-293.5 129.5t-293.5 -129.5t-111.5 -358.5zM122 566v221q0 281 143.5 443.5t388.5 162.5q246 0 388.5 -162.5t142.5 -444.5
v-220q0 -280 -143 -438t-390 -158t-388.5 158t-141.5 438z" />
    <glyph glyph-name="Ocircumflex" unicode="&#xd4;" horiz-adv-x="1307" 
d="M346 1509l280 225h64l277 -225h-128l-179 149h-5l-179 -149h-130zM248 789v-225q0 -228 111 -352.5t294 -124.5q184 0 294.5 124.5t110.5 352.5v225q0 229 -111.5 358.5t-293.5 129.5t-293.5 -129.5t-111.5 -358.5zM122 566v221q0 281 143.5 443.5t388.5 162.5
q246 0 388.5 -162.5t142.5 -444.5v-220q0 -280 -143 -438t-390 -158t-388.5 158t-141.5 438z" />
    <glyph glyph-name="Otilde" unicode="&#xd5;" horiz-adv-x="1307" 
d="M248 789v-225q0 -228 111 -352.5t294 -124.5q184 0 294.5 124.5t110.5 352.5v225q0 229 -111.5 358.5t-293.5 129.5t-293.5 -129.5t-111.5 -358.5zM122 566v221q0 281 143.5 443.5t388.5 162.5q246 0 388.5 -162.5t142.5 -444.5v-220q0 -280 -143 -438t-390 -158
t-388.5 158t-141.5 438zM623 1554q-17 19 -27 29t-27 19.5t-34 9.5q-69 0 -73 -108h-83q0 82 40 134.5t116 52.5q40 0 71.5 -18t68.5 -57q18 -20 27 -29t24.5 -17t33.5 -8q35 0 56.5 34.5t23.5 80.5h83q0 -76 -44 -132.5t-113 -56.5q-50 0 -80.5 16t-62.5 50z" />
    <glyph glyph-name="Odieresis" unicode="&#xd6;" horiz-adv-x="1307" 
d="M462 1579q0 30 20 50.5t49 20.5q30 0 50 -20.5t20 -50.5q0 -29 -20 -50t-50 -21q-29 0 -49 21t-20 50zM746 1579q0 30 20.5 50.5t49.5 20.5q30 0 49.5 -20.5t19.5 -50.5q0 -29 -20 -50t-49 -21t-49.5 21t-20.5 50zM248 789v-225q0 -228 111 -352.5t294 -124.5
q184 0 294.5 124.5t110.5 352.5v225q0 229 -111.5 358.5t-293.5 129.5t-293.5 -129.5t-111.5 -358.5zM122 566v221q0 281 143.5 443.5t388.5 162.5q246 0 388.5 -162.5t142.5 -444.5v-220q0 -280 -143 -438t-390 -158t-388.5 158t-141.5 438z" />
    <glyph glyph-name="multiply" unicode="&#xd7;" horiz-adv-x="1063" 
d="M850 90l-318 320l-319 -320l-75 75l319 319l-319 320l74 74l320 -319l319 319l74 -74l-319 -320l319 -319z" />
    <glyph glyph-name="Oslash" unicode="&#xd8;" horiz-adv-x="1307" 
d="M652 -30q-252 0 -392 165l-106 -129l-75 62l122 149q-79 144 -79 349v221q0 281 143 443.5t389 162.5q242 0 384 -158l107 129l79 -56l-127 -153q88 -151 88 -368v-221q0 -280 -143 -438t-390 -158zM248 564q0 -134 42 -238l666 809q-111 142 -303 142
q-182 0 -293.5 -129.5t-111.5 -358.5v-225zM653 87q184 0 294.5 124.5t110.5 352.5v225q0 148 -49 257l-668 -812q110 -147 312 -147z" />
    <glyph glyph-name="Ugrave" unicode="&#xd9;" horiz-adv-x="1319" 
d="M759 1514h-119l-298 213h149zM286 1363v-891q0 -176 99.5 -280.5t274.5 -104.5q174 0 274 104t100 281v891h127v-891q0 -227 -136.5 -364.5t-364.5 -137.5t-365 139t-137 366v888h128z" />
    <glyph glyph-name="Uacute" unicode="&#xda;" horiz-adv-x="1319" 
d="M563 1513l268 213h148l-297 -213h-119zM286 1363v-891q0 -176 99.5 -280.5t274.5 -104.5q174 0 274 104t100 281v891h127v-891q0 -227 -136.5 -364.5t-364.5 -137.5t-365 139t-137 366v888h128z" />
    <glyph glyph-name="Ucircumflex" unicode="&#xdb;" horiz-adv-x="1319" 
d="M352 1509l280 225h64l277 -225h-128l-179 149h-5l-179 -149h-130zM286 1363v-891q0 -176 99.5 -280.5t274.5 -104.5q174 0 274 104t100 281v891h127v-891q0 -227 -136.5 -364.5t-364.5 -137.5t-365 139t-137 366v888h128z" />
    <glyph glyph-name="Udieresis" unicode="&#xdc;" horiz-adv-x="1319" 
d="M468 1579q0 30 20 50.5t49 20.5q30 0 50 -20.5t20 -50.5q0 -29 -20 -50t-50 -21q-29 0 -49 21t-20 50zM752 1579q0 30 20.5 50.5t49.5 20.5q30 0 49.5 -20.5t19.5 -50.5q0 -29 -20 -50t-49 -21t-49.5 21t-20.5 50zM286 1363v-891q0 -176 99.5 -280.5t274.5 -104.5
q174 0 274 104t100 281v891h127v-891q0 -227 -136.5 -364.5t-364.5 -137.5t-365 139t-137 366v888h128z" />
    <glyph glyph-name="Yacute" unicode="&#xdd;" horiz-adv-x="1070" 
d="M598 0h-126v602l-462 761h147l375 -634h5l377 634h146l-462 -760v-603zM439 1513l268 213h148l-297 -213h-119z" />
    <glyph glyph-name="Thorn" unicode="&#xde;" horiz-adv-x="1135" 
d="M177 1363h126v-267h322q196 0 311.5 -96t115.5 -278q0 -183 -115.5 -279t-311.5 -96h-321v-347h-127v1363zM304 981v-519h286q78 0 134 10.5t103 38t70.5 80t23.5 131.5q0 259 -301 259h-316z" />
    <glyph glyph-name="germandbls" unicode="&#xdf;" horiz-adv-x="1186" 
d="M301 0h-127v1054q0 175 104.5 276t292.5 102q182 1 290 -94t108 -249q0 -72 -26.5 -134.5t-66.5 -102.5t-84 -64.5t-84 -29.5v-9q70 -1 137 -24.5t123.5 -66.5t91.5 -114.5t35 -158.5q0 -97 -40.5 -176t-107 -127t-148 -73.5t-168.5 -25.5q-84 0 -154 17v110
q57 -19 156 -19q61 0 117.5 16.5t106 49.5t79.5 91t30 133q0 135 -103 215t-278 80h-83v130h62q107 0 192 79.5t85 193.5q0 113 -74 178t-193 65q-138 0 -205.5 -73.5t-67.5 -205.5v-1043z" />
    <glyph glyph-name="agrave" unicode="&#xe0;" horiz-adv-x="1038" 
d="M756 152q-39 -69 -118.5 -119t-197.5 -50q-153 0 -247 85.5t-94 227.5q0 137 93.5 217.5t267.5 80.5h295v137q0 216 -246 216q-116 0 -175.5 -48.5t-69.5 -127.5h-123q8 130 103 209.5t272 79.5q173 0 269.5 -80.5t96.5 -243.5v-736h-122v152h-4zM467 93q122 0 205 74.5
t83 187.5v132h-291q-118 0 -176 -50.5t-58 -137.5q0 -98 67.5 -152t169.5 -54zM602 1210h-99l-236 279h135z" />
    <glyph glyph-name="aacute" unicode="&#xe1;" horiz-adv-x="1038" 
d="M756 152q-39 -69 -118.5 -119t-197.5 -50q-153 0 -247 85.5t-94 227.5q0 137 93.5 217.5t267.5 80.5h295v137q0 216 -246 216q-116 0 -175.5 -48.5t-69.5 -127.5h-123q8 130 103 209.5t272 79.5q173 0 269.5 -80.5t96.5 -243.5v-736h-122v152h-4zM467 93q122 0 205 74.5
t83 187.5v132h-291q-118 0 -176 -50.5t-58 -137.5q0 -98 67.5 -152t169.5 -54zM536 1210h-100l202 279h134z" />
    <glyph glyph-name="acircumflex" unicode="&#xe2;" horiz-adv-x="1038" 
d="M756 152q-39 -69 -118.5 -119t-197.5 -50q-153 0 -247 85.5t-94 227.5q0 137 93.5 217.5t267.5 80.5h295v137q0 216 -246 216q-116 0 -175.5 -48.5t-69.5 -127.5h-123q8 130 103 209.5t272 79.5q173 0 269.5 -80.5t96.5 -243.5v-736h-122v152h-4zM467 93q122 0 205 74.5
t83 187.5v132h-291q-118 0 -176 -50.5t-58 -137.5q0 -98 67.5 -152t169.5 -54zM264 1220l215 306h82l208 -307h-108l-140 225h-3l-146 -224h-108z" />
    <glyph glyph-name="atilde" unicode="&#xe3;" horiz-adv-x="1038" 
d="M756 152q-39 -69 -118.5 -119t-197.5 -50q-153 0 -247 85.5t-94 227.5q0 137 93.5 217.5t267.5 80.5h295v137q0 216 -246 216q-116 0 -175.5 -48.5t-69.5 -127.5h-123q8 130 103 209.5t272 79.5q173 0 269.5 -80.5t96.5 -243.5v-736h-122v152h-4zM467 93q122 0 205 74.5
t83 187.5v132h-291q-118 0 -176 -50.5t-58 -137.5q0 -98 67.5 -152t169.5 -54zM483 1243q-19 22 -29.5 33t-29 22t-37.5 11q-75 0 -79 -122h-88q0 92 43 150t124 58q44 0 78 -20t72 -63q19 -22 30 -32.5t27.5 -19t35.5 -8.5q38 0 61.5 38.5t25.5 89.5h87q0 -84 -47 -147
t-121 -63q-53 0 -86.5 18t-66.5 55z" />
    <glyph glyph-name="adieresis" unicode="&#xe4;" horiz-adv-x="1038" 
d="M756 152q-39 -69 -118.5 -119t-197.5 -50q-153 0 -247 85.5t-94 227.5q0 137 93.5 217.5t267.5 80.5h295v137q0 216 -246 216q-116 0 -175.5 -48.5t-69.5 -127.5h-123q8 130 103 209.5t272 79.5q173 0 269.5 -80.5t96.5 -243.5v-736h-122v152h-4zM467 93q122 0 205 74.5
t83 187.5v132h-291q-118 0 -176 -50.5t-58 -137.5q0 -98 67.5 -152t169.5 -54zM279 1264q0 36 23 59.5t56 23.5q35 0 58 -23.5t23 -59.5q0 -34 -23.5 -58t-57.5 -24q-33 0 -56 24t-23 58zM598 1264q0 36 23 59.5t56 23.5q35 0 58.5 -23.5t23.5 -59.5q0 -34 -23.5 -58
t-58.5 -24q-32 0 -55.5 24t-23.5 58z" />
    <glyph glyph-name="aring" unicode="&#xe5;" horiz-adv-x="1038" 
d="M756 152q-39 -69 -118.5 -119t-197.5 -50q-153 0 -247 85.5t-94 227.5q0 137 93.5 217.5t267.5 80.5h295v137q0 216 -246 216q-116 0 -175.5 -48.5t-69.5 -127.5h-123q8 130 103 209.5t272 79.5q173 0 269.5 -80.5t96.5 -243.5v-736h-122v152h-4zM467 93q122 0 205 74.5
t83 187.5v132h-291q-118 0 -176 -50.5t-58 -137.5q0 -98 67.5 -152t169.5 -54zM518 1192q-76 0 -128.5 51.5t-52.5 126.5t52.5 126t128.5 51q75 0 127 -51t52 -126t-52 -126.5t-127 -51.5zM409 1370q0 -45 32 -77.5t77 -32.5t76.5 32.5t31.5 77.5q0 46 -31 78t-77 32
q-45 0 -77 -32t-32 -78z" />
    <glyph glyph-name="ae" unicode="&#xe6;" horiz-adv-x="1695" 
d="M1187 -17q-149 0 -247 64t-129 165h-10q-33 -96 -125.5 -162.5t-231.5 -66.5q-156 0 -251 85t-95 229q0 143 95.5 222.5t270.5 79.5h293v123q0 112 -69 168.5t-182 56.5q-110 0 -169.5 -40.5t-75.5 -103.5h-122q11 120 110 188.5t264 68.5q110 0 197.5 -43t124.5 -126h10
q44 82 132.5 125.5t196.5 43.5q186 0 297.5 -124.5t111.5 -341.5v-102h-699v-76q0 -145 81.5 -232.5t220.5 -87.5q107 0 173 46t81 108h133q-6 -43 -32 -87.5t-71 -86t-119 -67.5t-164 -26zM1174 949q-128 0 -209 -90t-81 -238v-29h573v20q0 158 -75.5 247.5t-207.5 89.5z
M469 93q121 0 204.5 74.5t83.5 187.5v137h-291q-119 0 -180.5 -52t-61.5 -139q0 -98 71 -153t174 -55z" />
    <glyph glyph-name="ccedilla" unicode="&#xe7;" horiz-adv-x="1021" 
d="M521 -463q-81 -3 -141 15v86q51 -15 119 -15q54 0 93 22t39 69q0 48 -37 64.5t-108 16.5h-51v64l56 126q-180 14 -280 140.5t-100 329.5v137q0 211 113 339.5t308 128.5q91 0 166 -27.5t122.5 -72.5t73.5 -100.5t28 -113.5h-125q-11 78 -80.5 140.5t-183.5 62.5
q-142 0 -219.5 -100.5t-77.5 -265.5v-126q0 -161 80.5 -258.5t219.5 -97.5q117 0 183 51t84 128h124q-6 -106 -96 -193.5t-245 -101.5l-49 -110q94 0 149.5 -39.5t55.5 -118.5q0 -87 -63 -132t-158 -48z" />
    <glyph glyph-name="egrave" unicode="&#xe8;" horiz-adv-x="1053" 
d="M610 1210h-99l-236 279h135zM541 -17q-208 0 -318.5 130.5t-110.5 351.5v101q0 227 108.5 360.5t308.5 133.5q201 0 309 -131.5t108 -360.5v-73h-708v-37q0 -160 77.5 -261t225.5 -101q116 0 179.5 52t78.5 124h132q-8 -50 -33 -98.5t-70 -92.5t-119.5 -71t-167.5 -27z
M238 604h582v3q0 156 -78.5 249t-212.5 93t-212.5 -94t-78.5 -248v-3z" />
    <glyph glyph-name="eacute" unicode="&#xe9;" horiz-adv-x="1053" 
d="M544 1210h-100l202 279h134zM541 -17q-208 0 -318.5 130.5t-110.5 351.5v101q0 227 108.5 360.5t308.5 133.5q201 0 309 -131.5t108 -360.5v-73h-708v-37q0 -160 77.5 -261t225.5 -101q116 0 179.5 52t78.5 124h132q-8 -50 -33 -98.5t-70 -92.5t-119.5 -71t-167.5 -27z
M238 604h582v3q0 156 -78.5 249t-212.5 93t-212.5 -94t-78.5 -248v-3z" />
    <glyph glyph-name="ecircumflex" unicode="&#xea;" horiz-adv-x="1053" 
d="M272 1220l215 306h82l208 -307h-108l-140 225h-3l-146 -224h-108zM541 -17q-208 0 -318.5 130.5t-110.5 351.5v101q0 227 108.5 360.5t308.5 133.5q201 0 309 -131.5t108 -360.5v-73h-708v-37q0 -160 77.5 -261t225.5 -101q116 0 179.5 52t78.5 124h132q-8 -50 -33 -98.5
t-70 -92.5t-119.5 -71t-167.5 -27zM238 604h582v3q0 156 -78.5 249t-212.5 93t-212.5 -94t-78.5 -248v-3z" />
    <glyph glyph-name="edieresis" unicode="&#xeb;" horiz-adv-x="1053" 
d="M541 -17q-208 0 -318.5 130.5t-110.5 351.5v101q0 227 108.5 360.5t308.5 133.5q201 0 309 -131.5t108 -360.5v-73h-708v-37q0 -160 77.5 -261t225.5 -101q116 0 179.5 52t78.5 124h132q-8 -50 -33 -98.5t-70 -92.5t-119.5 -71t-167.5 -27zM238 604h582v3
q0 156 -78.5 249t-212.5 93t-212.5 -94t-78.5 -248v-3zM287 1264q0 36 23 59.5t56 23.5q35 0 58 -23.5t23 -59.5q0 -34 -23.5 -58t-57.5 -24q-33 0 -56 24t-23 58zM606 1264q0 36 23 59.5t56 23.5q35 0 58.5 -23.5t23.5 -59.5q0 -34 -23.5 -58t-58.5 -24q-32 0 -55.5 24
t-23.5 58z" />
    <glyph glyph-name="igrave" unicode="&#xec;" horiz-adv-x="483" 
d="M325 1210h-99l-236 279h135zM178 0v1043h126v-1043h-126z" />
    <glyph glyph-name="iacute" unicode="&#xed;" horiz-adv-x="483" 
d="M259 1210h-100l202 279h134zM178 0v1043h126v-1043h-126z" />
    <glyph glyph-name="icircumflex" unicode="&#xee;" horiz-adv-x="483" 
d="M-13 1220l215 306h82l208 -307h-108l-140 225h-3l-146 -224h-108zM178 0v1043h126v-1043h-126z" />
    <glyph glyph-name="idieresis" unicode="&#xef;" horiz-adv-x="483" 
d="M178 0v1043h126v-1043h-126zM2 1264q0 36 23 59.5t56 23.5q35 0 58 -23.5t23 -59.5q0 -34 -23.5 -58t-57.5 -24q-33 0 -56 24t-23 58zM321 1264q0 36 23 59.5t56 23.5q35 0 58.5 -23.5t23.5 -59.5q0 -34 -23.5 -58t-58.5 -24q-32 0 -55.5 24t-23.5 58z" />
    <glyph glyph-name="eth" unicode="&#xf0;" horiz-adv-x="1094" 
d="M547 -17q-193 0 -314.5 120t-121.5 336v108q0 210 123 333.5t313 123.5q108 0 184.5 -43t117.5 -108h7l-8 61q-11 83 -49 168.5t-95 152.5l-284 -101l-24 79l248 87q-89 86 -198 145l76 81q140 -71 243 -183l242 86l27 -75l-214 -76q163 -219 163 -537v-302
q0 -214 -122.5 -335t-313.5 -121zM547 893q-139 0 -225 -97.5t-86 -262.5v-80q0 -168 84.5 -262.5t227.5 -94.5q141 0 225 94.5t84 262.5v114q0 150 -85.5 238t-224.5 88z" />
    <glyph glyph-name="ntilde" unicode="&#xf1;" horiz-adv-x="1131" 
d="M530 1243q-19 22 -29.5 33t-29 22t-37.5 11q-75 0 -79 -122h-88q0 92 43 150t124 58q44 0 78 -20t72 -63q19 -22 30 -32.5t27.5 -19t35.5 -8.5q38 0 61.5 38.5t25.5 89.5h87q0 -84 -47 -147t-121 -63q-53 0 -86.5 18t-66.5 55zM161 0v1043h126v-158h4q31 74 113 124.5
t201 50.5q161 0 266.5 -97.5t105.5 -269.5v-693h-127v649q0 141 -69.5 218.5t-202.5 77.5q-140 0 -215.5 -86t-75.5 -231v-628h-126z" />
    <glyph glyph-name="ograve" unicode="&#xf2;" horiz-adv-x="1094" 
d="M631 1210h-99l-236 279h135zM547 1060q208 0 322 -130.5t114 -353.5v-110q0 -224 -113.5 -353.5t-322.5 -129.5t-322.5 129t-113.5 354v110q0 220 114 352t322 132zM547 949q-154 0 -232.5 -106t-78.5 -281v-81q0 -177 78 -281t234 -104q154 0 231.5 103.5t77.5 281.5v81
q0 175 -78 281t-232 106z" />
    <glyph glyph-name="oacute" unicode="&#xf3;" horiz-adv-x="1094" 
d="M565 1210h-100l202 279h134zM547 1060q208 0 322 -130.5t114 -353.5v-110q0 -224 -113.5 -353.5t-322.5 -129.5t-322.5 129t-113.5 354v110q0 220 114 352t322 132zM547 949q-154 0 -232.5 -106t-78.5 -281v-81q0 -177 78 -281t234 -104q154 0 231.5 103.5t77.5 281.5v81
q0 175 -78 281t-232 106z" />
    <glyph glyph-name="ocircumflex" unicode="&#xf4;" horiz-adv-x="1094" 
d="M293 1220l215 306h82l208 -307h-108l-140 225h-3l-146 -224h-108zM547 1060q208 0 322 -130.5t114 -353.5v-110q0 -224 -113.5 -353.5t-322.5 -129.5t-322.5 129t-113.5 354v110q0 220 114 352t322 132zM547 949q-154 0 -232.5 -106t-78.5 -281v-81q0 -177 78 -281
t234 -104q154 0 231.5 103.5t77.5 281.5v81q0 175 -78 281t-232 106z" />
    <glyph glyph-name="otilde" unicode="&#xf5;" horiz-adv-x="1094" 
d="M512 1243q-19 22 -29.5 33t-29 22t-37.5 11q-75 0 -79 -122h-88q0 92 43 150t124 58q44 0 78 -20t72 -63q19 -22 30 -32.5t27.5 -19t35.5 -8.5q38 0 61.5 38.5t25.5 89.5h87q0 -84 -47 -147t-121 -63q-53 0 -86.5 18t-66.5 55zM547 1060q208 0 322 -130.5t114 -353.5
v-110q0 -224 -113.5 -353.5t-322.5 -129.5t-322.5 129t-113.5 354v110q0 220 114 352t322 132zM547 949q-154 0 -232.5 -106t-78.5 -281v-81q0 -177 78 -281t234 -104q154 0 231.5 103.5t77.5 281.5v81q0 175 -78 281t-232 106z" />
    <glyph glyph-name="odieresis" unicode="&#xf6;" horiz-adv-x="1094" 
d="M308 1264q0 36 23 59.5t56 23.5q35 0 58 -23.5t23 -59.5q0 -34 -23.5 -58t-57.5 -24q-33 0 -56 24t-23 58zM627 1264q0 36 23 59.5t56 23.5q35 0 58.5 -23.5t23.5 -59.5q0 -34 -23.5 -58t-58.5 -24q-32 0 -55.5 24t-23.5 58zM547 1060q208 0 322 -130.5t114 -353.5v-110
q0 -224 -113.5 -353.5t-322.5 -129.5t-322.5 129t-113.5 354v110q0 220 114 352t322 132zM547 949q-154 0 -232.5 -106t-78.5 -281v-81q0 -177 78 -281t234 -104q154 0 231.5 103.5t77.5 281.5v81q0 175 -78 281t-232 106z" />
    <glyph glyph-name="divide" unicode="&#xf7;" horiz-adv-x="1078" 
d="M1003 490h-927v107h927v-107zM432 921q0 46 31 78t76 32q47 0 78.5 -31.5t31.5 -78.5q0 -46 -31.5 -76.5t-78.5 -30.5q-45 0 -76 30.5t-31 76.5zM437 172q0 46 31 78t76 32q46 0 78 -32t32 -78q0 -45 -32 -76t-78 -31q-45 0 -76 31t-31 76z" />
    <glyph glyph-name="oslash" unicode="&#xf8;" horiz-adv-x="1094" 
d="M337 168q79 -75 211 -75q141 0 226 96t85 264v157q0 107 -40 184zM233 432q0 -107 42 -189l483 628q-79 81 -211 81q-139 0 -226.5 -99t-87.5 -264v-157zM547 -17q-163 0 -276 96l-102 -135l-76 56l110 145q-92 119 -92 294v165q0 210 123 333t313 123q164 0 277 -101
l111 143l74 -57l-117 -151q91 -121 91 -290v-165q0 -214 -122.5 -335t-313.5 -121z" />
    <glyph glyph-name="ugrave" unicode="&#xf9;" horiz-adv-x="1127" 
d="M647 1210h-99l-236 279h135zM966 1043v-1043h-126v159h-5q-31 -75 -111.5 -125.5t-205.5 -50.5q-164 0 -265 92.5t-101 265.5v702h127v-668q0 -140 73.5 -208.5t196.5 -68.5q133 0 212 85.5t79 219.5v640h126z" />
    <glyph glyph-name="uacute" unicode="&#xfa;" horiz-adv-x="1127" 
d="M581 1210h-100l202 279h134zM966 1043v-1043h-126v159h-5q-31 -75 -111.5 -125.5t-205.5 -50.5q-164 0 -265 92.5t-101 265.5v702h127v-668q0 -140 73.5 -208.5t196.5 -68.5q133 0 212 85.5t79 219.5v640h126z" />
    <glyph glyph-name="ucircumflex" unicode="&#xfb;" horiz-adv-x="1127" 
d="M309 1220l215 306h82l208 -307h-108l-140 225h-3l-146 -224h-108zM966 1043v-1043h-126v159h-5q-31 -75 -111.5 -125.5t-205.5 -50.5q-164 0 -265 92.5t-101 265.5v702h127v-668q0 -140 73.5 -208.5t196.5 -68.5q133 0 212 85.5t79 219.5v640h126z" />
    <glyph glyph-name="udieresis" unicode="&#xfc;" horiz-adv-x="1127" 
d="M966 1043v-1043h-126v159h-5q-31 -75 -111.5 -125.5t-205.5 -50.5q-164 0 -265 92.5t-101 265.5v702h127v-668q0 -140 73.5 -208.5t196.5 -68.5q133 0 212 85.5t79 219.5v640h126zM324 1264q0 36 23 59.5t56 23.5q35 0 58 -23.5t23 -59.5q0 -34 -23.5 -58t-57.5 -24
q-33 0 -56 24t-23 58zM643 1264q0 36 23 59.5t56 23.5q35 0 58.5 -23.5t23.5 -59.5q0 -34 -23.5 -58t-58.5 -24q-32 0 -55.5 24t-23.5 58z" />
    <glyph glyph-name="yacute" unicode="&#xfd;" horiz-adv-x="983" 
d="M937 1043l-376 -1050l-34 -90q-23 -64 -46 -106.5t-58.5 -83t-87 -60.5t-119.5 -20q-52 0 -99 9v108q33 -7 81 -7q85 0 131.5 42t72.5 125l25 75l-390 1058h140l311 -913h6l309 913h134zM509 1210h-100l202 279h134z" />
    <glyph glyph-name="thorn" unicode="&#xfe;" horiz-adv-x="1127" 
d="M608 -17q-69 0 -125.5 18t-93.5 48.5t-59.5 60.5t-35.5 62h-7v-526h-125l-2 1790h121l1 -574h7q29 80 112 139t211 59q178 0 290.5 -118t112.5 -324v-192q0 -205 -112 -324t-295 -119zM592 96q133 0 215 92t82 266v134q0 175 -82.5 268t-217.5 93q-139 0 -220.5 -93.5
t-81.5 -246.5v-190q0 -137 83.5 -230t221.5 -93z" />
    <glyph glyph-name="ydieresis" unicode="&#xff;" horiz-adv-x="983" 
d="M937 1043l-376 -1050l-34 -90q-23 -64 -46 -106.5t-58.5 -83t-87 -60.5t-119.5 -20q-52 0 -99 9v108q33 -7 81 -7q85 0 131.5 42t72.5 125l25 75l-390 1058h140l311 -913h6l309 913h134zM252 1264q0 36 23 59.5t56 23.5q35 0 58 -23.5t23 -59.5q0 -34 -23.5 -58
t-57.5 -24q-33 0 -56 24t-23 58zM571 1264q0 36 23 59.5t56 23.5q35 0 58.5 -23.5t23.5 -59.5q0 -34 -23.5 -58t-58.5 -24q-32 0 -55.5 24t-23.5 58z" />
    <glyph glyph-name="Amacron" unicode="&#x100;" horiz-adv-x="1172" 
d="M165 0h-132l490 1363h126l489 -1363h-137l-149 436h-537zM585 1206h-4l-230 -665h464zM856 1533h-540v77h540v-77z" />
    <glyph glyph-name="amacron" unicode="&#x101;" horiz-adv-x="1038" 
d="M756 152q-39 -69 -118.5 -119t-197.5 -50q-153 0 -247 85.5t-94 227.5q0 137 93.5 217.5t267.5 80.5h295v137q0 216 -246 216q-116 0 -175.5 -48.5t-69.5 -127.5h-123q8 130 103 209.5t272 79.5q173 0 269.5 -80.5t96.5 -243.5v-736h-122v152h-4zM467 93q122 0 205 74.5
t83 187.5v132h-291q-118 0 -176 -50.5t-58 -137.5q0 -98 67.5 -152t169.5 -54zM788 1224h-546v84h546v-84z" />
    <glyph glyph-name="Abreve" unicode="&#x102;" horiz-adv-x="1172" 
d="M165 0h-132l490 1363h126l489 -1363h-137l-149 436h-537zM585 1206h-4l-230 -665h464zM288 1736h95q0 -66 55.5 -109.5t147.5 -43.5q91 0 145.5 43t54.5 110h95q0 -46 -16.5 -88t-50.5 -77.5t-92.5 -56.5t-135.5 -21t-136 21t-93.5 56.5t-51.5 77.5t-17 88z" />
    <glyph glyph-name="abreve" unicode="&#x103;" horiz-adv-x="1038" 
d="M756 152q-39 -69 -118.5 -119t-197.5 -50q-153 0 -247 85.5t-94 227.5q0 137 93.5 217.5t267.5 80.5h295v137q0 216 -246 216q-116 0 -175.5 -48.5t-69.5 -127.5h-123q8 130 103 209.5t272 79.5q173 0 269.5 -80.5t96.5 -243.5v-736h-122v152h-4zM467 93q122 0 205 74.5
t83 187.5v132h-291q-118 0 -176 -50.5t-58 -137.5q0 -98 67.5 -152t169.5 -54zM239 1429h94q0 -73 47.5 -122t135.5 -49t134 48.5t46 122.5h95q0 -46 -16.5 -89.5t-48 -82t-86.5 -62t-124 -23.5q-70 0 -125 23.5t-87 61.5t-48.5 82t-16.5 90z" />
    <glyph glyph-name="Aogonek" unicode="&#x104;" horiz-adv-x="1173" 
d="M165 0h-131l489 1363h127l486 -1355q-68 -23 -124.5 -70t-59.5 -110q-3 -53 28.5 -82t82.5 -29q45 0 83 11v-89q-36 -19 -115 -19q-82 0 -141 46t-59 134q0 133 159 235l-138 401h-537zM587 1206h-6l-229 -665h464z" />
    <glyph glyph-name="aogonek" unicode="&#x105;" horiz-adv-x="1038" 
d="M467 93q122 0 205 74.5t83 187.5v132h-291q-118 0 -176 -50.5t-58 -137.5q0 -98 67.5 -152t169.5 -54zM906 -355q-47 -19 -109 -19q-83 0 -140.5 45t-57.5 132q0 79 42 133t119 103v113h-4q-39 -69 -118.5 -119t-197.5 -50q-153 0 -247 85.5t-94 227.5q0 137 93.5 217.5
t267.5 80.5h295v137q0 216 -246 216q-116 0 -175.5 -48.5t-69.5 -127.5h-123q8 130 103 209.5t272 79.5q173 0 269.5 -80.5t96.5 -243.5v-733q-71 -27 -120 -72t-49 -106q0 -47 30.5 -72t80.5 -25q49 0 82 10v-93z" />
    <glyph glyph-name="Cacute" unicode="&#x106;" horiz-adv-x="1244" 
d="M547 1513l268 213h148l-297 -213h-119zM249 782v-208q0 -234 104 -360.5t296 -126.5q166 0 262.5 88.5t96.5 218.5h126v-1q0 -60 -18.5 -119t-58.5 -114t-96.5 -97t-138.5 -67.5t-178 -25.5q-250 0 -386 160.5t-136 445.5v205q0 285 137.5 448.5t384.5 163.5
q94 0 175 -26t137 -70t96 -101t59 -118.5t19 -124.5v-1h-126q0 58 -24 115t-67.5 104t-113.5 76.5t-155 29.5q-186 0 -290.5 -131t-104.5 -364z" />
    <glyph glyph-name="cacute" unicode="&#x107;" horiz-adv-x="1021" 
d="M111 455v137q0 211 113 339.5t308 128.5q91 0 166 -27.5t122.5 -72.5t73.5 -100.5t28 -113.5h-125q-11 78 -80.5 140.5t-183.5 62.5q-142 0 -219.5 -100.5t-77.5 -265.5v-126q0 -161 80.5 -258.5t219.5 -97.5q117 0 183 51t84 128h124q-3 -54 -29.5 -105.5t-74 -95
t-123 -70t-167.5 -26.5q-199 0 -310.5 128t-111.5 344zM532 1210h-100l202 279h134z" />
    <glyph glyph-name="Ccircumflex" unicode="&#x108;" horiz-adv-x="1244" 
d="M249 782v-208q0 -234 104 -360.5t296 -126.5q166 0 262.5 88.5t96.5 218.5h126v-1q0 -60 -18.5 -119t-58.5 -114t-96.5 -97t-138.5 -67.5t-178 -25.5q-250 0 -386 160.5t-136 445.5v205q0 285 137.5 448.5t384.5 163.5q94 0 175 -26t137 -70t96 -101t59 -118.5t19 -124.5
v-1h-126q0 58 -24 115t-67.5 104t-113.5 76.5t-155 29.5q-186 0 -290.5 -131t-104.5 -364zM336 1509l280 225h64l277 -225h-128l-179 149h-5l-179 -149h-130z" />
    <glyph glyph-name="ccircumflex" unicode="&#x109;" horiz-adv-x="1021" 
d="M260 1220l215 306h82l208 -307h-108l-140 225h-3l-146 -224h-108zM111 455v137q0 211 113 339.5t308 128.5q91 0 166 -27.5t122.5 -72.5t73.5 -100.5t28 -113.5h-125q-11 78 -80.5 140.5t-183.5 62.5q-142 0 -219.5 -100.5t-77.5 -265.5v-126q0 -161 80.5 -258.5
t219.5 -97.5q117 0 183 51t84 128h124q-3 -54 -29.5 -105.5t-74 -95t-123 -70t-167.5 -26.5q-199 0 -310.5 128t-111.5 344z" />
    <glyph glyph-name="Cdotaccent" unicode="&#x10a;" horiz-adv-x="1244" 
d="M249 782v-208q0 -234 104 -360.5t296 -126.5q166 0 262.5 88.5t96.5 218.5h126v-1q0 -60 -18.5 -119t-58.5 -114t-96.5 -97t-138.5 -67.5t-178 -25.5q-250 0 -386 160.5t-136 445.5v205q0 285 137.5 448.5t384.5 163.5q94 0 175 -26t137 -70t96 -101t59 -118.5t19 -124.5
v-1h-126q0 58 -24 115t-67.5 104t-113.5 76.5t-155 29.5q-186 0 -290.5 -131t-104.5 -364zM558 1621q0 37 25 62.5t60 25.5q38 0 63.5 -25t25.5 -63q0 -37 -25.5 -61t-63.5 -24q-36 0 -60.5 24.5t-24.5 60.5z" />
    <glyph glyph-name="cdotaccent" unicode="&#x10b;" horiz-adv-x="1021" 
d="M111 455v137q0 211 113 339.5t308 128.5q91 0 166 -27.5t122.5 -72.5t73.5 -100.5t28 -113.5h-125q-11 78 -80.5 140.5t-183.5 62.5q-142 0 -219.5 -100.5t-77.5 -265.5v-126q0 -161 80.5 -258.5t219.5 -97.5q117 0 183 51t84 128h124q-3 -54 -29.5 -105.5t-74 -95
t-123 -70t-167.5 -26.5q-199 0 -310.5 128t-111.5 344zM429 1301q0 37 25 62.5t60 25.5q38 0 63.5 -25t25.5 -63q0 -37 -25.5 -61t-63.5 -24q-36 0 -60.5 24.5t-24.5 60.5z" />
    <glyph glyph-name="Ccaron" unicode="&#x10c;" horiz-adv-x="1244" 
d="M249 782v-208q0 -234 104 -360.5t296 -126.5q166 0 262.5 88.5t96.5 218.5h126v-1q0 -60 -18.5 -119t-58.5 -114t-96.5 -97t-138.5 -67.5t-178 -25.5q-250 0 -386 160.5t-136 445.5v205q0 285 137.5 448.5t384.5 163.5q94 0 175 -26t137 -70t96 -101t59 -118.5t19 -124.5
v-1h-126q0 58 -24 115t-67.5 104t-113.5 76.5t-155 29.5q-186 0 -290.5 -131t-104.5 -364zM335 1714h125l183 -145h5l184 145h124l-272 -211h-75z" />
    <glyph glyph-name="ccaron" unicode="&#x10d;" horiz-adv-x="1021" 
d="M260 1510h107l146 -223h3l140 225h108l-207 -307h-83zM111 455v137q0 211 113 339.5t308 128.5q91 0 166 -27.5t122.5 -72.5t73.5 -100.5t28 -113.5h-125q-11 78 -80.5 140.5t-183.5 62.5q-142 0 -219.5 -100.5t-77.5 -265.5v-126q0 -161 80.5 -258.5t219.5 -97.5
q117 0 183 51t84 128h124q-3 -54 -29.5 -105.5t-74 -95t-123 -70t-167.5 -26.5q-199 0 -310.5 128t-111.5 344z" />
    <glyph glyph-name="Dcaron" unicode="&#x10e;" horiz-adv-x="1289" 
d="M302 1714h125l183 -145h5l184 145h124l-272 -211h-75zM177 1363h402q160 0 277.5 -49.5t188 -141.5t103.5 -214t33 -277q0 -122 -19.5 -223t-64.5 -187t-113.5 -145.5t-171 -92.5t-233.5 -33h-402v1363zM304 1247v-1131h271q475 0 475 565q0 271 -115.5 418.5
t-359.5 147.5h-271z" />
    <glyph glyph-name="dcaron" unicode="&#x10f;" horiz-adv-x="1271" 
d="M1169 1436h120l-37 -488h-83v488zM518 1061q128 0 209 -54.5t109 -128.5h4v558h125v-1436h-120v175h-4q-19 -70 -104.5 -131t-219.5 -61q-190 0 -298.5 126t-108.5 333v159q0 209 110 334.5t298 125.5zM532 948q-138 0 -217 -100t-79 -273v-108q0 -171 79 -271.5
t221 -100.5q143 0 223.5 101.5t80.5 268.5v117q0 164 -82.5 265t-225.5 101z" />
    <glyph glyph-name="Dcroat" unicode="&#x110;" horiz-adv-x="1358" 
d="M648 0h-403v642h-159v113h159v608h403q160 0 277.5 -49.5t188 -141.5t103.5 -214t33 -277q0 -122 -19.5 -223t-64.5 -187t-113.5 -145.5t-171 -92.5t-233.5 -33zM373 116h271q475 0 475 565q0 271 -115.5 418.5t-359.5 147.5h-271v-492h335v-113h-335v-526z" />
    <glyph glyph-name="dcroat" unicode="&#x111;" horiz-adv-x="1130" 
d="M533 948q-134 0 -215 -93t-81 -258v-148q0 -170 83 -262t217 -92q138 0 220.5 94t82.5 246v190q0 136 -85 229.5t-222 93.5zM839 181q-22 -75 -107 -136.5t-217 -61.5q-178 0 -291 116.5t-113 317.5v210q0 196 112 315t296 119q68 0 125.5 -18.5t94.5 -48t60 -60.5
t34 -63h7v327h-260v103h260v170h126v-170h131v-103h-131v-1198h-120v181h-7z" />
    <glyph glyph-name="Emacron" unicode="&#x112;" horiz-adv-x="1085" 
d="M972 116v-116h-795v1363h795v-117h-668v-491h633v-115h-633v-524h668zM841 1533h-540v77h540v-77z" />
    <glyph glyph-name="emacron" unicode="&#x113;" horiz-adv-x="1053" 
d="M541 -17q-208 0 -318.5 130.5t-110.5 351.5v101q0 227 108.5 360.5t308.5 133.5q201 0 309 -131.5t108 -360.5v-73h-708v-37q0 -160 77.5 -261t225.5 -101q116 0 179.5 52t78.5 124h132q-8 -50 -33 -98.5t-70 -92.5t-119.5 -71t-167.5 -27zM238 604h582v3
q0 156 -78.5 249t-212.5 93t-212.5 -94t-78.5 -248v-3zM796 1224h-546v84h546v-84z" />
    <glyph glyph-name="Ebreve" unicode="&#x114;" horiz-adv-x="1085" 
d="M972 116v-116h-795v1363h795v-117h-668v-491h633v-115h-633v-524h668zM273 1736h95q0 -66 55.5 -109.5t147.5 -43.5q91 0 145.5 43t54.5 110h95q0 -46 -16.5 -88t-50.5 -77.5t-92.5 -56.5t-135.5 -21t-136 21t-93.5 56.5t-51.5 77.5t-17 88z" />
    <glyph glyph-name="ebreve" unicode="&#x115;" horiz-adv-x="1053" 
d="M541 -17q-208 0 -318.5 130.5t-110.5 351.5v101q0 227 108.5 360.5t308.5 133.5q201 0 309 -131.5t108 -360.5v-73h-708v-37q0 -160 77.5 -261t225.5 -101q116 0 179.5 52t78.5 124h132q-8 -50 -33 -98.5t-70 -92.5t-119.5 -71t-167.5 -27zM238 604h582v3
q0 156 -78.5 249t-212.5 93t-212.5 -94t-78.5 -248v-3zM247 1429h94q0 -73 47.5 -122t135.5 -49t134 48.5t46 122.5h95q0 -46 -16.5 -89.5t-48 -82t-86.5 -62t-124 -23.5q-70 0 -125 23.5t-87 61.5t-48.5 82t-16.5 90z" />
    <glyph glyph-name="Edotaccent" unicode="&#x116;" horiz-adv-x="1085" 
d="M486 1621q0 37 25 62.5t60 25.5q38 0 63.5 -25t25.5 -63q0 -37 -25.5 -61t-63.5 -24q-36 0 -60.5 24.5t-24.5 60.5zM972 116v-116h-795v1363h795v-117h-668v-491h633v-115h-633v-524h668z" />
    <glyph glyph-name="edotaccent" unicode="&#x117;" horiz-adv-x="1053" 
d="M441 1301q0 37 25 62.5t60 25.5q38 0 63.5 -25t25.5 -63q0 -37 -25.5 -61t-63.5 -24q-36 0 -60.5 24.5t-24.5 60.5zM541 -17q-208 0 -318.5 130.5t-110.5 351.5v101q0 227 108.5 360.5t308.5 133.5q201 0 309 -131.5t108 -360.5v-73h-708v-37q0 -160 77.5 -261
t225.5 -101q116 0 179.5 52t78.5 124h132q-8 -50 -33 -98.5t-70 -92.5t-119.5 -71t-167.5 -27zM238 604h582v3q0 156 -78.5 249t-212.5 93t-212.5 -94t-78.5 -248v-3z" />
    <glyph glyph-name="Eogonek" unicode="&#x118;" horiz-adv-x="1085" 
d="M973 -362q-46 -18 -106 -18q-86 0 -143 45.5t-57 134.5q0 124 126 200h-616v1363h795v-117h-669v-491h634v-115h-633v-524h668v-106q-83 -23 -138 -71t-55 -118q0 -50 30.5 -77t83.5 -27q43 0 80 11v-90z" />
    <glyph glyph-name="eogonek" unicode="&#x119;" horiz-adv-x="1053" 
d="M661 10q-43 -27 -120 -27q-208 0 -318.5 130.5t-110.5 351.5v101q0 227 108.5 360.5t308.5 133.5q201 0 309 -131.5t108 -360.5v-73h-708v-37q0 -160 77.5 -261t225.5 -101q116 0 179.5 52t78.5 124h132q-19 -113 -127 -218q-61 -59 -93 -108.5t-32 -107.5
q0 -51 35.5 -81t87.5 -30q40 0 79 12v-95q-39 -18 -111 -18q-83 0 -142.5 48t-59.5 135q0 46 17 85.5t32.5 58t47.5 51.5zM238 604h582v3q0 156 -78.5 249t-212.5 93t-212.5 -94t-78.5 -248v-3z" />
    <glyph glyph-name="Ecaron" unicode="&#x11a;" horiz-adv-x="1085" 
d="M263 1714h125l183 -145h5l184 145h124l-272 -211h-75zM972 116v-116h-795v1363h795v-117h-668v-491h633v-115h-633v-524h668z" />
    <glyph glyph-name="ecaron" unicode="&#x11b;" horiz-adv-x="1053" 
d="M272 1510h107l146 -223h3l140 225h108l-207 -307h-83zM541 -17q-208 0 -318.5 130.5t-110.5 351.5v101q0 227 108.5 360.5t308.5 133.5q201 0 309 -131.5t108 -360.5v-73h-708v-37q0 -160 77.5 -261t225.5 -101q116 0 179.5 52t78.5 124h132q-8 -50 -33 -98.5t-70 -92.5
t-119.5 -71t-167.5 -27zM238 604h582v3q0 156 -78.5 249t-212.5 93t-212.5 -94t-78.5 -248v-3z" />
    <glyph glyph-name="Gcircumflex" unicode="&#x11c;" horiz-adv-x="1266" 
d="M339 1509l280 225h64l277 -225h-128l-179 149h-5l-179 -149h-130zM1140 975h-126q-14 137 -112.5 219.5t-250.5 82.5q-179 0 -290.5 -125t-111.5 -363v-205q0 -231 102.5 -364t295.5 -133q166 0 269.5 89t103.5 237v158h-382v117h506v-275q0 -63 -17.5 -124.5
t-56.5 -119.5t-95 -102t-140.5 -70.5t-185.5 -26.5q-258 0 -392.5 165t-134.5 449v205q0 281 144 442.5t388 161.5q113 0 205 -34.5t151 -93.5t92 -133t38 -157z" />
    <glyph glyph-name="gcircumflex" unicode="&#x11d;" horiz-adv-x="1102" 
d="M296 1220l215 306h82l208 -307h-108l-140 225h-3l-146 -224h-108zM524 -268q148 0 227 73.5t79 202.5v196h-4q-19 -44 -57 -84t-107 -71t-151 -31q-177 0 -294 121.5t-117 320.5v153q0 203 118 325t295 122q69 0 125 -16.5t93 -45.5t60.5 -58t38.5 -62h4v165h121v-1030
q0 -191 -116 -292.5t-320 -101.5q-96 0 -172 25.5t-122 68t-71 93t-28 106.5h131q8 -73 76 -126.5t191 -53.5zM532 949q-136 0 -221 -96t-85 -264v-109q0 -163 86 -256.5t221 -93.5q92 0 161 48.5t102 124.5t33 167v121q0 152 -81 255t-216 103z" />
    <glyph glyph-name="Gbreve" unicode="&#x11e;" horiz-adv-x="1266" 
d="M1140 975h-126q-14 137 -112.5 219.5t-250.5 82.5q-179 0 -290.5 -125t-111.5 -363v-205q0 -231 102.5 -364t295.5 -133q166 0 269.5 89t103.5 237v158h-382v117h506v-275q0 -63 -17.5 -124.5t-56.5 -119.5t-95 -102t-140.5 -70.5t-185.5 -26.5q-258 0 -392.5 165
t-134.5 449v205q0 281 144 442.5t388 161.5q113 0 205 -34.5t151 -93.5t92 -133t38 -157zM348 1736h95q0 -66 55.5 -109.5t147.5 -43.5q91 0 145.5 43t54.5 110h95q0 -46 -16.5 -88t-50.5 -77.5t-92.5 -56.5t-135.5 -21t-136 21t-93.5 56.5t-51.5 77.5t-17 88z" />
    <glyph glyph-name="gbreve" unicode="&#x11f;" horiz-adv-x="1102" 
d="M271 1429h94q0 -73 47.5 -122t135.5 -49t134 48.5t46 122.5h95q0 -46 -16.5 -89.5t-48 -82t-86.5 -62t-124 -23.5q-70 0 -125 23.5t-87 61.5t-48.5 82t-16.5 90zM524 -268q148 0 227 73.5t79 202.5v196h-4q-19 -44 -57 -84t-107 -71t-151 -31q-177 0 -294 121.5
t-117 320.5v153q0 203 118 325t295 122q69 0 125 -16.5t93 -45.5t60.5 -58t38.5 -62h4v165h121v-1030q0 -191 -116 -292.5t-320 -101.5q-96 0 -172 25.5t-122 68t-71 93t-28 106.5h131q8 -73 76 -126.5t191 -53.5zM532 949q-136 0 -221 -96t-85 -264v-109q0 -163 86 -256.5
t221 -93.5q92 0 161 48.5t102 124.5t33 167v121q0 152 -81 255t-216 103z" />
    <glyph glyph-name="Gdotaccent" unicode="&#x120;" horiz-adv-x="1266" 
d="M561 1621q0 37 25 62.5t60 25.5q38 0 63.5 -25t25.5 -63q0 -37 -25.5 -61t-63.5 -24q-36 0 -60.5 24.5t-24.5 60.5zM1140 975h-126q-14 137 -112.5 219.5t-250.5 82.5q-179 0 -290.5 -125t-111.5 -363v-205q0 -231 102.5 -364t295.5 -133q166 0 269.5 89t103.5 237v158
h-382v117h506v-275q0 -63 -17.5 -124.5t-56.5 -119.5t-95 -102t-140.5 -70.5t-185.5 -26.5q-258 0 -392.5 165t-134.5 449v205q0 281 144 442.5t388 161.5q113 0 205 -34.5t151 -93.5t92 -133t38 -157z" />
    <glyph glyph-name="gdotaccent" unicode="&#x121;" horiz-adv-x="1102" 
d="M465 1301q0 37 25 62.5t60 25.5q38 0 63.5 -25t25.5 -63q0 -37 -25.5 -61t-63.5 -24q-36 0 -60.5 24.5t-24.5 60.5zM524 -268q148 0 227 73.5t79 202.5v196h-4q-19 -44 -57 -84t-107 -71t-151 -31q-177 0 -294 121.5t-117 320.5v153q0 203 118 325t295 122
q69 0 125 -16.5t93 -45.5t60.5 -58t38.5 -62h4v165h121v-1030q0 -191 -116 -292.5t-320 -101.5q-96 0 -172 25.5t-122 68t-71 93t-28 106.5h131q8 -73 76 -126.5t191 -53.5zM532 949q-136 0 -221 -96t-85 -264v-109q0 -163 86 -256.5t221 -93.5q92 0 161 48.5t102 124.5
t33 167v121q0 152 -81 255t-216 103z" />
    <glyph glyph-name="Gcommaaccent" unicode="&#x122;" horiz-adv-x="1266" 
d="M607 -486h-100l85 335h129zM1140 975h-126q-14 137 -112.5 219.5t-250.5 82.5q-179 0 -290.5 -125t-111.5 -363v-205q0 -231 102.5 -364t295.5 -133q166 0 269.5 89t103.5 237v158h-382v117h506v-275q0 -63 -17.5 -124.5t-56.5 -119.5t-95 -102t-140.5 -70.5
t-185.5 -26.5q-258 0 -392.5 165t-134.5 449v205q0 281 144 442.5t388 161.5q113 0 205 -34.5t151 -93.5t92 -133t38 -157z" />
    <glyph glyph-name="gcommaaccent" unicode="&#x123;" horiz-adv-x="1102" 
d="M568 1579h100l-85 -335h-129zM524 -268q148 0 227 73.5t79 202.5v196h-4q-19 -44 -57 -84t-107 -71t-151 -31q-177 0 -294 121.5t-117 320.5v153q0 203 118 325t295 122q69 0 125 -16.5t93 -45.5t60.5 -58t38.5 -62h4v165h121v-1030q0 -191 -116 -292.5t-320 -101.5
q-96 0 -172 25.5t-122 68t-71 93t-28 106.5h131q8 -73 76 -126.5t191 -53.5zM532 949q-136 0 -221 -96t-85 -264v-109q0 -163 86 -256.5t221 -93.5q92 0 161 48.5t102 124.5t33 167v121q0 152 -81 255t-216 103z" />
    <glyph glyph-name="Hcircumflex" unicode="&#x124;" horiz-adv-x="1348" 
d="M1171 0h-127v652h-740v-652h-127v1363h127v-595h740v595h127v-1363zM366 1509l280 225h64l277 -225h-128l-179 149h-5l-179 -149h-130z" />
    <glyph glyph-name="hcircumflex" unicode="&#x125;" horiz-adv-x="1141" 
d="M164 0v1436h126v-551h5q28 71 106.5 123t201.5 52q170 0 275.5 -110t105.5 -289v-661h-126v638q0 137 -71 222t-202 85q-139 0 -217 -88.5t-78 -232.5v-624h-126zM-30 1613l215 306h82l208 -307h-108l-140 225h-3l-146 -224h-108z" />
    <glyph glyph-name="Hbar" unicode="&#x126;" horiz-adv-x="1348" 
d="M304 747h740v263h-740v-263zM304 632v-632h-127v1010h-122v102h122v251h127v-251h740v251h127v-251h125v-102h-125v-1010h-127v632h-740z" />
    <glyph glyph-name="hbar" unicode="&#x127;" horiz-adv-x="1141" 
d="M290 600v-600h-126v1199h-125v102h125v135h126v-135h263v-102h-263v-353h7q10 35 32.5 69t61 68.5t100.5 55.5t139 21q158 0 256 -92t98 -262v-706h-126v670q0 130 -69.5 205t-191.5 75q-146 0 -226.5 -100t-80.5 -250z" />
    <glyph glyph-name="Itilde" unicode="&#x128;" horiz-adv-x="493" 
d="M310 0h-127v1363h127v-1363zM216 1554q-17 19 -27 29t-27 19.5t-34 9.5q-69 0 -73 -108h-83q0 82 40 134.5t116 52.5q40 0 71.5 -18t68.5 -57q18 -20 27 -29t24.5 -17t33.5 -8q35 0 56.5 34.5t23.5 80.5h83q0 -76 -44 -132.5t-113 -56.5q-50 0 -80.5 16t-62.5 50z" />
    <glyph glyph-name="itilde" unicode="&#x129;" horiz-adv-x="483" 
d="M178 0v1043h126v-1043h-126zM206 1243q-19 22 -29.5 33t-29 22t-37.5 11q-75 0 -79 -122h-88q0 92 43 150t124 58q44 0 78 -20t72 -63q19 -22 30 -32.5t27.5 -19t35.5 -8.5q38 0 61.5 38.5t25.5 89.5h87q0 -84 -47 -147t-121 -63q-53 0 -86.5 18t-66.5 55z" />
    <glyph glyph-name="Imacron" unicode="&#x12a;" horiz-adv-x="493" 
d="M310 0h-127v1363h127v-1363zM516 1533h-540v77h540v-77z" />
    <glyph glyph-name="imacron" unicode="&#x12b;" horiz-adv-x="483" 
d="M178 0v1043h126v-1043h-126zM511 1224h-546v84h546v-84z" />
    <glyph glyph-name="Ibreve" unicode="&#x12c;" horiz-adv-x="493" 
d="M310 0h-127v1363h127v-1363zM-52 1736h95q0 -66 55.5 -109.5t147.5 -43.5q91 0 145.5 43t54.5 110h95q0 -46 -16.5 -88t-50.5 -77.5t-92.5 -56.5t-135.5 -21t-136 21t-93.5 56.5t-51.5 77.5t-17 88z" />
    <glyph glyph-name="ibreve" unicode="&#x12d;" horiz-adv-x="483" 
d="M178 0v1043h126v-1043h-126zM-38 1429h94q0 -73 47.5 -122t135.5 -49t134 48.5t46 122.5h95q0 -46 -16.5 -89.5t-48 -82t-86.5 -62t-124 -23.5q-70 0 -125 23.5t-87 61.5t-48.5 82t-16.5 90z" />
    <glyph glyph-name="Iogonek" unicode="&#x12e;" horiz-adv-x="493" 
d="M342 -361q-36 -19 -110 -19q-89 0 -144 46t-55 135q0 142 150 229v1333h127v-1363q-163 -65 -163 -179q0 -50 30.5 -77t82.5 -27q44 0 82 11v-89z" />
    <glyph glyph-name="iogonek" unicode="&#x12f;" horiz-adv-x="498" 
d="M343 -355q-36 -19 -110 -19q-89 0 -144 46t-55 135q0 141 152 229v1007h126v-1037q-164 -65 -164 -179q0 -50 31 -77t82 -27q46 0 82 11v-89zM148 1361q0 44 29 72.5t71 28.5q44 0 72.5 -28.5t28.5 -72.5q0 -42 -29 -70.5t-72 -28.5q-42 0 -71 28.5t-29 70.5z" />
    <glyph glyph-name="Idotaccent" unicode="&#x130;" horiz-adv-x="493" 
d="M310 0h-127v1363h127v-1363zM161 1621q0 37 25 62.5t60 25.5q38 0 63.5 -25t25.5 -63q0 -37 -25.5 -61t-63.5 -24q-36 0 -60.5 24.5t-24.5 60.5z" />
    <glyph glyph-name="dotlessi" unicode="&#x131;" horiz-adv-x="483" 
d="M178 0v1043h126v-1043h-126z" />
    <glyph glyph-name="Jcircumflex" unicode="&#x134;" horiz-adv-x="932" 
d="M29 299h126q2 -87 65 -147t167 -60q114 0 182.5 67.5t68.5 205.5v998h127v-985q0 -199 -102.5 -301t-275.5 -102q-167 0 -262.5 93.5t-95.5 230.5zM393 1509l280 225h64l277 -225h-128l-179 149h-5l-179 -149h-130z" />
    <glyph glyph-name="jcircumflex" unicode="&#x135;" horiz-adv-x="498" 
d="M312 1043v-1091q0 -163 -64.5 -238t-188.5 -75q-54 0 -88 9v104q25 -5 66 -5q81 0 115 47.5t34 157.5v1091h126zM-2 1207l215 306h82l208 -307h-108l-140 225h-3l-146 -224h-108z" />
    <glyph glyph-name="Kcommaaccent" unicode="&#x136;" horiz-adv-x="1147" 
d="M1101 1363l-531 -590l561 -773h-164l-492 685l-171 -184v-501h-127v1363h127v-693h5l637 693h155zM534 -486h-100l85 335h129z" />
    <glyph glyph-name="kcommaaccent" unicode="&#x137;" horiz-adv-x="995" 
d="M290 405v-405h-126v1436h126v-888h5l490 501h150l-435 -450l458 -599h-153l-397 518zM477 -486h-100l85 335h129z" />
    <glyph glyph-name="Lacute" unicode="&#x139;" horiz-adv-x="996" 
d="M143 1513l268 213h148l-297 -213h-119zM960 116v-116h-783v1363h127v-1247h656z" />
    <glyph glyph-name="lacute" unicode="&#x13a;" horiz-adv-x="468" 
d="M252 1603h-100l202 279h134zM171 0v1436h126v-1436h-126z" />
    <glyph glyph-name="Lcommaaccent" unicode="&#x13b;" horiz-adv-x="996" 
d="M471 -486h-100l85 335h129zM960 116v-116h-783v1363h127v-1247h656z" />
    <glyph glyph-name="lcommaaccent" unicode="&#x13c;" horiz-adv-x="468" 
d="M195 -486h-100l85 335h129zM171 0v1436h126v-1436h-126z" />
    <glyph glyph-name="Lcaron" unicode="&#x13d;" horiz-adv-x="996" 
d="M578 1437h126l-40 -488h-86v488zM960 116v-116h-783v1363h127v-1247h656z" />
    <glyph glyph-name="lcaron" unicode="&#x13e;" horiz-adv-x="594" 
d="M495 1436h120l-37 -488h-83v488zM171 0v1436h126v-1436h-126z" />
    <glyph glyph-name="Lslash" unicode="&#x141;" horiz-adv-x="1002" 
d="M966 0h-783v560l-139 -81v127l139 81v676h127v-602l411 242v-129l-411 -241v-517h656v-116z" />
    <glyph glyph-name="lslash" unicode="&#x142;" horiz-adv-x="511" 
d="M318 0h-125v644l-169 -124v130l169 124v662h125v-572l171 125v-129l-171 -126v-734z" />
    <glyph glyph-name="Nacute" unicode="&#x143;" horiz-adv-x="1348" 
d="M577 1513l268 213h148l-297 -213h-119zM304 0h-127v1363h128l735 -1143h4v1143h127v-1363h-128l-736 1143h-3v-1143z" />
    <glyph glyph-name="nacute" unicode="&#x144;" horiz-adv-x="1131" 
d="M583 1210h-100l202 279h134zM161 0v1043h126v-158h4q31 74 113 124.5t201 50.5q161 0 266.5 -97.5t105.5 -269.5v-693h-127v649q0 141 -69.5 218.5t-202.5 77.5q-140 0 -215.5 -86t-75.5 -231v-628h-126z" />
    <glyph glyph-name="Ncommaaccent" unicode="&#x145;" horiz-adv-x="1348" 
d="M634 -486h-100l85 335h129zM304 0h-127v1363h128l735 -1143h4v1143h127v-1363h-128l-736 1143h-3v-1143z" />
    <glyph glyph-name="ncommaaccent" unicode="&#x146;" horiz-adv-x="1131" 
d="M526 -486h-100l85 335h129zM161 0v1043h126v-158h4q31 74 113 124.5t201 50.5q161 0 266.5 -97.5t105.5 -269.5v-693h-127v649q0 141 -69.5 218.5t-202.5 77.5q-140 0 -215.5 -86t-75.5 -231v-628h-126z" />
    <glyph glyph-name="Ncaron" unicode="&#x147;" horiz-adv-x="1348" 
d="M365 1714h125l183 -145h5l184 145h124l-272 -211h-75zM304 0h-127v1363h128l735 -1143h4v1143h127v-1363h-128l-736 1143h-3v-1143z" />
    <glyph glyph-name="ncaron" unicode="&#x148;" horiz-adv-x="1131" 
d="M311 1510h107l146 -223h3l140 225h108l-207 -307h-83zM161 0v1043h126v-158h4q31 74 113 124.5t201 50.5q161 0 266.5 -97.5t105.5 -269.5v-693h-127v649q0 141 -69.5 218.5t-202.5 77.5q-140 0 -215.5 -86t-75.5 -231v-628h-126z" />
    <glyph glyph-name="Omacron" unicode="&#x14c;" horiz-adv-x="1307" 
d="M248 789v-225q0 -228 111 -352.5t294 -124.5q184 0 294.5 124.5t110.5 352.5v225q0 229 -111.5 358.5t-293.5 129.5t-293.5 -129.5t-111.5 -358.5zM122 566v221q0 281 143.5 443.5t388.5 162.5q246 0 388.5 -162.5t142.5 -444.5v-220q0 -280 -143 -438t-390 -158
t-388.5 158t-141.5 438zM923 1533h-540v77h540v-77z" />
    <glyph glyph-name="omacron" unicode="&#x14d;" horiz-adv-x="1094" 
d="M817 1224h-546v84h546v-84zM547 1060q208 0 322 -130.5t114 -353.5v-110q0 -224 -113.5 -353.5t-322.5 -129.5t-322.5 129t-113.5 354v110q0 220 114 352t322 132zM547 949q-154 0 -232.5 -106t-78.5 -281v-81q0 -177 78 -281t234 -104q154 0 231.5 103.5t77.5 281.5v81
q0 175 -78 281t-232 106z" />
    <glyph glyph-name="Obreve" unicode="&#x14e;" horiz-adv-x="1307" 
d="M248 789v-225q0 -228 111 -352.5t294 -124.5q184 0 294.5 124.5t110.5 352.5v225q0 229 -111.5 358.5t-293.5 129.5t-293.5 -129.5t-111.5 -358.5zM122 566v221q0 281 143.5 443.5t388.5 162.5q246 0 388.5 -162.5t142.5 -444.5v-220q0 -280 -143 -438t-390 -158
t-388.5 158t-141.5 438zM355 1736h95q0 -66 55.5 -109.5t147.5 -43.5q91 0 145.5 43t54.5 110h95q0 -46 -16.5 -88t-50.5 -77.5t-92.5 -56.5t-135.5 -21t-136 21t-93.5 56.5t-51.5 77.5t-17 88z" />
    <glyph glyph-name="obreve" unicode="&#x14f;" horiz-adv-x="1094" 
d="M268 1429h94q0 -73 47.5 -122t135.5 -49t134 48.5t46 122.5h95q0 -46 -16.5 -89.5t-48 -82t-86.5 -62t-124 -23.5q-70 0 -125 23.5t-87 61.5t-48.5 82t-16.5 90zM547 1060q208 0 322 -130.5t114 -353.5v-110q0 -224 -113.5 -353.5t-322.5 -129.5t-322.5 129t-113.5 354
v110q0 220 114 352t322 132zM547 949q-154 0 -232.5 -106t-78.5 -281v-81q0 -177 78 -281t234 -104q154 0 231.5 103.5t77.5 281.5v81q0 175 -78 281t-232 106z" />
    <glyph glyph-name="Ohungarumlaut" unicode="&#x150;" horiz-adv-x="1307" 
d="M430 1514l281 223h136l-295 -223h-122zM714 1514l282 223h136l-295 -223h-123zM248 789v-225q0 -228 111 -352.5t294 -124.5q184 0 294.5 124.5t110.5 352.5v225q0 229 -111.5 358.5t-293.5 129.5t-293.5 -129.5t-111.5 -358.5zM122 566v221q0 281 143.5 443.5
t388.5 162.5q246 0 388.5 -162.5t142.5 -444.5v-220q0 -280 -143 -438t-390 -158t-388.5 158t-141.5 438z" />
    <glyph glyph-name="ohungarumlaut" unicode="&#x151;" horiz-adv-x="1094" 
d="M447 1209h-89l219 305h120zM692 1209h-90l219 305h120zM547 1060q208 0 322 -130.5t114 -353.5v-110q0 -224 -113.5 -353.5t-322.5 -129.5t-322.5 129t-113.5 354v110q0 220 114 352t322 132zM547 949q-154 0 -232.5 -106t-78.5 -281v-81q0 -177 78 -281t234 -104
q154 0 231.5 103.5t77.5 281.5v81q0 175 -78 281t-232 106z" />
    <glyph glyph-name="OE" unicode="&#x152;" horiz-adv-x="1962" 
d="M248 789v-225q0 -228 109.5 -352.5t292.5 -124.5q182 0 293 118t111 334v283q0 214 -111 334.5t-293 120.5q-181 0 -291.5 -129.5t-110.5 -358.5zM649 -30q-246 0 -386.5 158t-140.5 438v221q0 282 142 444t388 162q130 0 235 -52t157 -147h10v169h789v-117h-661v-491
h625v-115h-625v-524h661v-116h-789v176h-9q-57 -98 -161.5 -152t-234.5 -54z" />
    <glyph glyph-name="oe" unicode="&#x153;" horiz-adv-x="1800" 
d="M1286 -17q-125 0 -220.5 55.5t-141.5 153.5h-10q-50 -98 -148 -153.5t-219 -55.5q-193 0 -314.5 120t-121.5 336v165q0 210 123 333t313 123q123 0 219 -52.5t149 -156.5h9q48 99 140.5 154t209.5 55q186 0 300.5 -125t114.5 -341v-102h-706v-55q0 -155 80 -248t223 -93
q107 0 176 46.5t84 107.5h133q-6 -43 -33 -87.5t-73 -86t-121.5 -67.5t-165.5 -26zM547 949q-139 0 -225 -97.5t-86 -262.5v-136q0 -168 84.5 -262.5t227.5 -94.5q141 0 225 94.5t84 262.5v136q0 166 -85.5 263t-224.5 97zM983 592h580v15q0 157 -78.5 249.5t-210.5 92.5
t-211.5 -92.5t-79.5 -249.5v-15z" />
    <glyph glyph-name="Racute" unicode="&#x154;" horiz-adv-x="1198" 
d="M475 1513l268 213h148l-297 -213h-119zM646 1363q203 0 313 -112t110 -282q0 -79 -22 -145t-61 -110.5t-85 -74t-101 -46.5l293 -593h-147l-274 567h-368v-567h-127v1363h469zM304 682h320q151 0 232.5 73.5t81.5 205.5q0 137 -82.5 212t-226.5 75h-325v-566z" />
    <glyph glyph-name="racute" unicode="&#x155;" horiz-adv-x="679" 
d="M407 1210h-100l202 279h134zM173 0v1043h126v-149h4q61 165 276 165q25 0 70 -5v-118q-30 6 -85 6q-130 0 -197.5 -76.5t-67.5 -212.5v-653h-126z" />
    <glyph glyph-name="Rcommaaccent" unicode="&#x156;" horiz-adv-x="1198" 
d="M646 1363q203 0 313 -112t110 -282q0 -79 -22 -145t-61 -110.5t-85 -74t-101 -46.5l293 -593h-147l-274 567h-368v-567h-127v1363h469zM304 682h320q151 0 232.5 73.5t81.5 205.5q0 137 -82.5 212t-226.5 75h-325v-566zM532 -486h-100l85 335h129z" />
    <glyph glyph-name="rcommaaccent" unicode="&#x157;" horiz-adv-x="679" 
d="M173 0v1043h126v-149h4q61 165 276 165q25 0 70 -5v-118q-30 6 -85 6q-130 0 -197.5 -76.5t-67.5 -212.5v-653h-126zM198 -486h-100l85 335h129z" />
    <glyph glyph-name="Rcaron" unicode="&#x158;" horiz-adv-x="1198" 
d="M646 1363q203 0 313 -112t110 -282q0 -79 -22 -145t-61 -110.5t-85 -74t-101 -46.5l293 -593h-147l-274 567h-368v-567h-127v1363h469zM304 682h320q151 0 232.5 73.5t81.5 205.5q0 137 -82.5 212t-226.5 75h-325v-566zM263 1714h125l183 -145h5l184 145h124l-272 -211
h-75z" />
    <glyph glyph-name="rcaron" unicode="&#x159;" horiz-adv-x="679" 
d="M135 1510h107l146 -223h3l140 225h108l-207 -307h-83zM173 0v1043h126v-149h4q61 165 276 165q25 0 70 -5v-118q-30 6 -85 6q-130 0 -197.5 -76.5t-67.5 -212.5v-653h-126z" />
    <glyph glyph-name="Sacute" unicode="&#x15a;" horiz-adv-x="1144" 
d="M473 1513l268 213h148l-297 -213h-119zM77 357h129q4 -51 27.5 -98t66 -86t112 -62.5t157.5 -23.5q156 0 250.5 73.5t94.5 194.5q0 100 -63 157.5t-200 94.5l-217 57q-314 85 -314 351q0 117 62.5 205t164.5 132t227 44q189 0 318.5 -98.5t133.5 -270.5h-129
q-7 107 -90 179.5t-235 72.5q-145 0 -233.5 -68.5t-88.5 -187.5q0 -177 222 -235l212 -58q88 -24 150.5 -52.5t111.5 -71t73.5 -103t24.5 -139.5q0 -185 -137.5 -289.5t-352.5 -104.5q-101 0 -183.5 24.5t-135.5 63.5t-89 91t-52 103.5t-17 104.5z" />
    <glyph glyph-name="sacute" unicode="&#x15b;" horiz-adv-x="968" 
d="M114 760q0 98 52 167.5t133.5 101t183.5 31.5q176 0 268 -88t92 -211h-120q-2 33 -14.5 65t-39 62t-76 48.5t-115.5 18.5q-105 0 -172 -48t-67 -135q0 -27 8 -49.5t19.5 -39t33 -30.5t40 -23t50.5 -18.5t54 -14.5t60 -13q57 -12 95.5 -22t84.5 -26t75.5 -36.5t56 -49
t39 -67.5t12.5 -88q0 -149 -110.5 -230.5t-286.5 -81.5q-177 0 -279 82t-102 209h124q8 -78 73.5 -131t188.5 -53q126 0 196.5 51.5t70.5 139.5q0 38 -16 67.5t-37.5 47.5t-64 33.5t-73 23.5t-88.5 20q-69 15 -114 28t-94 36t-76.5 51t-46 71.5t-18.5 100.5zM501 1210h-100
l202 279h134z" />
    <glyph glyph-name="Scircumflex" unicode="&#x15c;" horiz-adv-x="1144" 
d="M77 357h129q4 -51 27.5 -98t66 -86t112 -62.5t157.5 -23.5q156 0 250.5 73.5t94.5 194.5q0 100 -63 157.5t-200 94.5l-217 57q-314 85 -314 351q0 117 62.5 205t164.5 132t227 44q189 0 318.5 -98.5t133.5 -270.5h-129q-7 107 -90 179.5t-235 72.5q-145 0 -233.5 -68.5
t-88.5 -187.5q0 -177 222 -235l212 -58q88 -24 150.5 -52.5t111.5 -71t73.5 -103t24.5 -139.5q0 -185 -137.5 -289.5t-352.5 -104.5q-101 0 -183.5 24.5t-135.5 63.5t-89 91t-52 103.5t-17 104.5zM262 1509l280 225h64l277 -225h-128l-179 149h-5l-179 -149h-130z" />
    <glyph glyph-name="scircumflex" unicode="&#x15d;" horiz-adv-x="968" 
d="M229 1220l215 306h82l208 -307h-108l-140 225h-3l-146 -224h-108zM114 760q0 98 52 167.5t133.5 101t183.5 31.5q176 0 268 -88t92 -211h-120q-2 33 -14.5 65t-39 62t-76 48.5t-115.5 18.5q-105 0 -172 -48t-67 -135q0 -27 8 -49.5t19.5 -39t33 -30.5t40 -23t50.5 -18.5
t54 -14.5t60 -13q57 -12 95.5 -22t84.5 -26t75.5 -36.5t56 -49t39 -67.5t12.5 -88q0 -149 -110.5 -230.5t-286.5 -81.5q-177 0 -279 82t-102 209h124q8 -78 73.5 -131t188.5 -53q126 0 196.5 51.5t70.5 139.5q0 38 -16 67.5t-37.5 47.5t-64 33.5t-73 23.5t-88.5 20
q-69 15 -114 28t-94 36t-76.5 51t-46 71.5t-18.5 100.5z" />
    <glyph glyph-name="Scedilla" unicode="&#x15e;" horiz-adv-x="1144" 
d="M564 -463q-81 -3 -141 15v86q51 -15 119 -15q54 0 93 22t39 69q0 48 -37 64.5t-108 16.5h-52v64l48 112q-95 3 -172 29t-127 65t-84 89.5t-49 101t-16 101.5h129q4 -51 27.5 -98t66 -86t112 -62.5t157.5 -23.5q156 0 250.5 73.5t94.5 194.5q0 100 -63 157.5t-200 94.5
l-217 57q-314 85 -314 351q0 117 62.5 205t164.5 132t227 44q189 0 318.5 -98.5t133.5 -270.5h-129q-7 107 -90 179.5t-235 72.5q-145 0 -233.5 -68.5t-88.5 -187.5q0 -177 222 -235l212 -58q88 -24 150.5 -52.5t111.5 -71t73.5 -103t24.5 -139.5q0 -170 -117 -272.5
t-306 -118.5l-42 -98q94 0 150 -39.5t56 -118.5q0 -87 -63 -132t-158 -48z" />
    <glyph glyph-name="scedilla" unicode="&#x15f;" horiz-adv-x="968" 
d="M468 -459q-75 -3 -140 15v86q49 -15 118 -15q54 0 93 22t39 69q0 48 -40 65t-111 17h-52v63l49 122q-158 9 -246.5 90t-88.5 199h124q8 -78 73.5 -131t188.5 -53q126 0 196.5 51.5t70.5 139.5q0 38 -16 67.5t-37.5 47.5t-64 33.5t-73 23.5t-88.5 20q-69 15 -114 28
t-94 36t-76.5 51t-46 71.5t-18.5 100.5q0 98 52 167.5t133.5 101t183.5 31.5q176 0 268 -88t92 -211h-120q-2 33 -14.5 65t-39 62t-76 48.5t-115.5 18.5q-105 0 -172 -48t-67 -135q0 -27 8 -49.5t19.5 -39t33 -30.5t40 -23t50.5 -18.5t54 -14.5t60 -13q57 -12 95.5 -22
t84.5 -26t75.5 -36.5t56 -49t39 -67.5t12.5 -88q0 -138 -95.5 -218.5t-252.5 -92.5l-42 -105q95 0 153.5 -39.5t58.5 -118.5q0 -87 -63 -132t-158 -48z" />
    <glyph glyph-name="Scaron" unicode="&#x160;" horiz-adv-x="1144" 
d="M77 357h129q4 -51 27.5 -98t66 -86t112 -62.5t157.5 -23.5q156 0 250.5 73.5t94.5 194.5q0 100 -63 157.5t-200 94.5l-217 57q-314 85 -314 351q0 117 62.5 205t164.5 132t227 44q189 0 318.5 -98.5t133.5 -270.5h-129q-7 107 -90 179.5t-235 72.5q-145 0 -233.5 -68.5
t-88.5 -187.5q0 -177 222 -235l212 -58q88 -24 150.5 -52.5t111.5 -71t73.5 -103t24.5 -139.5q0 -185 -137.5 -289.5t-352.5 -104.5q-101 0 -183.5 24.5t-135.5 63.5t-89 91t-52 103.5t-17 104.5zM261 1714h125l183 -145h5l184 145h124l-272 -211h-75z" />
    <glyph glyph-name="scaron" unicode="&#x161;" horiz-adv-x="968" 
d="M229 1510h107l146 -223h3l140 225h108l-207 -307h-83zM114 760q0 98 52 167.5t133.5 101t183.5 31.5q176 0 268 -88t92 -211h-120q-2 33 -14.5 65t-39 62t-76 48.5t-115.5 18.5q-105 0 -172 -48t-67 -135q0 -27 8 -49.5t19.5 -39t33 -30.5t40 -23t50.5 -18.5t54 -14.5
t60 -13q57 -12 95.5 -22t84.5 -26t75.5 -36.5t56 -49t39 -67.5t12.5 -88q0 -149 -110.5 -230.5t-286.5 -81.5q-177 0 -279 82t-102 209h124q8 -78 73.5 -131t188.5 -53q126 0 196.5 51.5t70.5 139.5q0 38 -16 67.5t-37.5 47.5t-64 33.5t-73 23.5t-88.5 20q-69 15 -114 28
t-94 36t-76.5 51t-46 71.5t-18.5 100.5z" />
    <glyph glyph-name="Tcedilla" unicode="&#x162;" horiz-adv-x="1033" 
d="M516 -478q-79 -3 -140 16v85q47 -14 118 -14q54 0 93 22t39 68q0 34 -22.5 53t-52.5 24t-76 5h-52v64l62 155h-32v1247h-435v116h997v-116h-436v-1247l-53 -140q95 0 153 -39t58 -118q0 -87 -63.5 -132.5t-157.5 -48.5z" />
    <glyph glyph-name="tcedilla" unicode="&#x163;" horiz-adv-x="664" 
d="M368 -460q-82 -3 -140 15v86q51 -15 119 -15q54 0 93 22t39 69q0 48 -40 64.5t-112 16.5h-51v64l59 154q-70 26 -97.5 86.5t-27.5 170.5v662h-162v108h162v259h126v-259h236v-108h-236v-672q0 -94 39.5 -128t141.5 -34q43 0 65 3v-104q-35 -7 -91 -7q-37 0 -67 3
l-46 -118q95 0 153 -39.5t58 -118.5q0 -87 -63 -132t-158 -48z" />
    <glyph glyph-name="Tcaron" unicode="&#x164;" horiz-adv-x="1033" 
d="M208 1714h125l183 -145h5l184 145h124l-272 -211h-75zM579 0h-126v1247h-435v116h997v-116h-436v-1247z" />
    <glyph glyph-name="tcaron" unicode="&#x165;" horiz-adv-x="664" 
d="M537 1699h120l-37 -488h-83v488zM210 1043v259h126v-259h236v-108h-236v-672q0 -94 39.5 -128t141.5 -34q43 0 65 3v-104q-35 -7 -91 -7q-85 0 -140 15.5t-86 51.5t-43 86t-12 127v662h-162v108h162z" />
    <glyph glyph-name="Tbar" unicode="&#x166;" horiz-adv-x="1033" 
d="M826 669h-247v-669h-126v669h-247v102h247v476h-435v116h997v-116h-436v-476h247v-102z" />
    <glyph glyph-name="tbar" unicode="&#x167;" horiz-adv-x="651" 
d="M582 0q-35 -7 -91 -7q-85 0 -140 15.5t-86 51.5t-43 86t-12 127v282h-145v102h145v278h-162v108h162v259h126v-259h236v-108h-236v-278h206v-102h-206v-292q0 -94 39.5 -128t141.5 -34q43 0 65 3v-104z" />
    <glyph glyph-name="Utilde" unicode="&#x168;" horiz-adv-x="1319" 
d="M286 1363v-891q0 -176 99.5 -280.5t274.5 -104.5q174 0 274 104t100 281v891h127v-891q0 -227 -136.5 -364.5t-364.5 -137.5t-365 139t-137 366v888h128zM629 1554q-17 19 -27 29t-27 19.5t-34 9.5q-69 0 -73 -108h-83q0 82 40 134.5t116 52.5q40 0 71.5 -18t68.5 -57
q18 -20 27 -29t24.5 -17t33.5 -8q35 0 56.5 34.5t23.5 80.5h83q0 -76 -44 -132.5t-113 -56.5q-50 0 -80.5 16t-62.5 50z" />
    <glyph glyph-name="utilde" unicode="&#x169;" horiz-adv-x="1127" 
d="M966 1043v-1043h-126v159h-5q-31 -75 -111.5 -125.5t-205.5 -50.5q-164 0 -265 92.5t-101 265.5v702h127v-668q0 -140 73.5 -208.5t196.5 -68.5q133 0 212 85.5t79 219.5v640h126zM528 1243q-19 22 -29.5 33t-29 22t-37.5 11q-75 0 -79 -122h-88q0 92 43 150t124 58
q44 0 78 -20t72 -63q19 -22 30 -32.5t27.5 -19t35.5 -8.5q38 0 61.5 38.5t25.5 89.5h87q0 -84 -47 -147t-121 -63q-53 0 -86.5 18t-66.5 55z" />
    <glyph glyph-name="Umacron" unicode="&#x16a;" horiz-adv-x="1319" 
d="M286 1363v-891q0 -176 99.5 -280.5t274.5 -104.5q174 0 274 104t100 281v891h127v-891q0 -227 -136.5 -364.5t-364.5 -137.5t-365 139t-137 366v888h128zM929 1533h-540v77h540v-77z" />
    <glyph glyph-name="umacron" unicode="&#x16b;" horiz-adv-x="1127" 
d="M966 1043v-1043h-126v159h-5q-31 -75 -111.5 -125.5t-205.5 -50.5q-164 0 -265 92.5t-101 265.5v702h127v-668q0 -140 73.5 -208.5t196.5 -68.5q133 0 212 85.5t79 219.5v640h126zM833 1224h-546v84h546v-84z" />
    <glyph glyph-name="Ubreve" unicode="&#x16c;" horiz-adv-x="1319" 
d="M286 1363v-891q0 -176 99.5 -280.5t274.5 -104.5q174 0 274 104t100 281v891h127v-891q0 -227 -136.5 -364.5t-364.5 -137.5t-365 139t-137 366v888h128zM361 1736h95q0 -66 55.5 -109.5t147.5 -43.5q91 0 145.5 43t54.5 110h95q0 -46 -16.5 -88t-50.5 -77.5t-92.5 -56.5
t-135.5 -21t-136 21t-93.5 56.5t-51.5 77.5t-17 88z" />
    <glyph glyph-name="ubreve" unicode="&#x16d;" horiz-adv-x="1127" 
d="M966 1043v-1043h-126v159h-5q-31 -75 -111.5 -125.5t-205.5 -50.5q-164 0 -265 92.5t-101 265.5v702h127v-668q0 -140 73.5 -208.5t196.5 -68.5q133 0 212 85.5t79 219.5v640h126zM284 1429h94q0 -73 47.5 -122t135.5 -49t134 48.5t46 122.5h95q0 -46 -16.5 -89.5
t-48 -82t-86.5 -62t-124 -23.5q-70 0 -125 23.5t-87 61.5t-48.5 82t-16.5 90z" />
    <glyph glyph-name="Uring" unicode="&#x16e;" horiz-adv-x="1319" 
d="M286 1363v-891q0 -176 99.5 -280.5t274.5 -104.5q174 0 274 104t100 281v891h127v-891q0 -227 -136.5 -364.5t-364.5 -137.5t-365 139t-137 366v888h128zM659 1512q-76 0 -128.5 51.5t-52.5 126.5t52.5 126t128.5 51q75 0 127 -51t52 -126t-52 -126.5t-127 -51.5z
M550 1690q0 -45 32 -77.5t77 -32.5t76.5 32.5t31.5 77.5q0 46 -31 78t-77 32q-45 0 -77 -32t-32 -78z" />
    <glyph glyph-name="uring" unicode="&#x16f;" horiz-adv-x="1127" 
d="M966 1043v-1043h-126v159h-5q-31 -75 -111.5 -125.5t-205.5 -50.5q-164 0 -265 92.5t-101 265.5v702h127v-668q0 -140 73.5 -208.5t196.5 -68.5q133 0 212 85.5t79 219.5v640h126zM563 1192q-76 0 -128.5 51.5t-52.5 126.5t52.5 126t128.5 51q75 0 127 -51t52 -126
t-52 -126.5t-127 -51.5zM454 1370q0 -45 32 -77.5t77 -32.5t76.5 32.5t31.5 77.5q0 46 -31 78t-77 32q-45 0 -77 -32t-32 -78z" />
    <glyph glyph-name="Uhungarumlaut" unicode="&#x170;" horiz-adv-x="1319" 
d="M286 1363v-891q0 -176 99.5 -280.5t274.5 -104.5q174 0 274 104t100 281v891h127v-891q0 -227 -136.5 -364.5t-364.5 -137.5t-365 139t-137 366v888h128zM436 1514l281 223h136l-295 -223h-122zM720 1514l282 223h136l-295 -223h-123z" />
    <glyph glyph-name="uhungarumlaut" unicode="&#x171;" horiz-adv-x="1127" 
d="M463 1209h-89l219 305h120zM708 1209h-90l219 305h120zM966 1043v-1043h-126v159h-5q-31 -75 -111.5 -125.5t-205.5 -50.5q-164 0 -265 92.5t-101 265.5v702h127v-668q0 -140 73.5 -208.5t196.5 -68.5q133 0 212 85.5t79 219.5v640h126z" />
    <glyph glyph-name="Uogonek" unicode="&#x172;" horiz-adv-x="1319" 
d="M942 -380q-85 0 -146.5 47t-61.5 138q0 121 108 204l-4 7q-94 -46 -189 -46q-218 0 -354.5 139.5t-136.5 365.5v888h128v-891q0 -176 99.5 -280.5t274.5 -104.5q174 0 274 104t100 281v891h127v-891q0 -136 -43 -232.5t-117 -172.5q-10 -10 -38.5 -39.5t-38 -40.5
t-29.5 -35.5t-27 -40t-14 -38t-7 -44.5q0 -53 33.5 -80.5t88.5 -27.5q44 0 79 12v-94q-41 -19 -106 -19z" />
    <glyph glyph-name="uogonek" unicode="&#x173;" horiz-adv-x="1127" 
d="M989 -355q-43 -19 -109 -19q-84 0 -140.5 45t-56.5 133q0 43 13.5 79.5t43 68t47 46.5t53.5 42v145h-8q-28 -80 -110 -141t-213 -61q-163 0 -260 83t-97 255v722h127v-693q0 -129 69.5 -193t186.5 -64q134 0 219.5 88.5t85.5 208.5v653h126v-1034q-170 -80 -170 -184
q0 -47 30 -72t82 -25q47 0 81 10v-93z" />
    <glyph glyph-name="Wcircumflex" unicode="&#x174;" horiz-adv-x="1665" 
d="M525 1509l280 225h64l277 -225h-128l-179 149h-5l-179 -149h-130zM513 0h-119l-371 1363h149l283 -1145h4l305 1145h137l305 -1145h4l284 1145h148l-372 -1363h-119l-317 1146h-5z" />
    <glyph glyph-name="wcircumflex" unicode="&#x175;" horiz-adv-x="1425" 
d="M458 1220l215 306h82l208 -307h-108l-140 225h-3l-146 -224h-108zM1389 1043l-282 -1043h-124l-265 860h-4l-260 -860h-125l-294 1043h143l212 -872h6l259 872h121l264 -872h7l215 872h127z" />
    <glyph glyph-name="Ycircumflex" unicode="&#x176;" horiz-adv-x="1070" 
d="M598 0h-126v602l-462 761h147l375 -634h5l377 634h146l-462 -760v-603zM228 1509l280 225h64l277 -225h-128l-179 149h-5l-179 -149h-130z" />
    <glyph glyph-name="ycircumflex" unicode="&#x177;" horiz-adv-x="983" 
d="M937 1043l-376 -1050l-34 -90q-23 -64 -46 -106.5t-58.5 -83t-87 -60.5t-119.5 -20q-52 0 -99 9v108q33 -7 81 -7q85 0 131.5 42t72.5 125l25 75l-390 1058h140l311 -913h6l309 913h134zM237 1220l215 306h82l208 -307h-108l-140 225h-3l-146 -224h-108z" />
    <glyph glyph-name="Ydieresis" unicode="&#x178;" horiz-adv-x="1070" 
d="M598 0h-126v602l-462 761h147l375 -634h5l377 634h146l-462 -760v-603zM343 1579q0 30 20 50.5t49 20.5q30 0 50 -20.5t20 -50.5q0 -29 -20 -50t-50 -21q-29 0 -49 21t-20 50zM627 1579q0 30 20.5 50.5t49.5 20.5q30 0 49.5 -20.5t19.5 -50.5q0 -29 -20 -50t-49 -21
t-49.5 21t-20.5 50z" />
    <glyph glyph-name="Zacute" unicode="&#x179;" horiz-adv-x="1145" 
d="M476 1513l268 213h148l-297 -213h-119zM88 0v94l787 1150v4h-760v115h918v-93l-783 -1150v-4h795v-116h-957z" />
    <glyph glyph-name="zacute" unicode="&#x17a;" horiz-adv-x="964" 
d="M499 1210h-100l202 279h134zM109 0v92l591 838v9h-594v104h752v-92l-592 -838v-7h595v-106h-752z" />
    <glyph glyph-name="Zdotaccent" unicode="&#x17b;" horiz-adv-x="1145" 
d="M88 0v94l787 1150v4h-760v115h918v-93l-783 -1150v-4h795v-116h-957zM487 1621q0 37 25 62.5t60 25.5q38 0 63.5 -25t25.5 -63q0 -37 -25.5 -61t-63.5 -24q-36 0 -60.5 24.5t-24.5 60.5z" />
    <glyph glyph-name="zdotaccent" unicode="&#x17c;" horiz-adv-x="964" 
d="M396 1301q0 37 25 62.5t60 25.5q38 0 63.5 -25t25.5 -63q0 -37 -25.5 -61t-63.5 -24q-36 0 -60.5 24.5t-24.5 60.5zM109 0v92l591 838v9h-594v104h752v-92l-592 -838v-7h595v-106h-752z" />
    <glyph glyph-name="Zcaron" unicode="&#x17d;" horiz-adv-x="1145" 
d="M88 0v94l787 1150v4h-760v115h918v-93l-783 -1150v-4h795v-116h-957zM264 1714h125l183 -145h5l184 145h124l-272 -211h-75z" />
    <glyph glyph-name="zcaron" unicode="&#x17e;" horiz-adv-x="964" 
d="M227 1510h107l146 -223h3l140 225h108l-207 -307h-83zM109 0v92l591 838v9h-594v104h752v-92l-592 -838v-7h595v-106h-752z" />
    <glyph glyph-name="florin" unicode="&#x192;" horiz-adv-x="1063" 
d="M166 -186l179 990h-234l19 106h235l34 194q24 140 106.5 214.5t217.5 74.5q70 0 123.5 -23t82 -59.5t42 -74.5t13.5 -75h-119q-1 58 -44.5 91t-107.5 33q-156 0 -190 -200l-31 -175h310l-20 -106h-310l-179 -990h-127z" />
    <glyph glyph-name="Ohorn" unicode="&#x1a0;" horiz-adv-x="1303" 
d="M1185 566q0 -280 -143 -438t-390 -158t-388.5 158t-141.5 438v221q0 281 143.5 443.5t388.5 162.5q79 0 153 -21.5t136.5 -43t113.5 -21.5q142 0 142 156v92h116v-90q0 -134 -69.5 -196t-192.5 -53l-3 -6q58 -65 96.5 -179t38.5 -245v-220zM248 789v-225
q0 -228 111 -352.5t294 -124.5q184 0 294.5 124.5t110.5 352.5v225q0 229 -111.5 358.5t-293.5 129.5t-293.5 -129.5t-111.5 -358.5z" />
    <glyph glyph-name="ohorn" unicode="&#x1a1;" horiz-adv-x="1092" 
d="M547 -17q-193 0 -314.5 120t-121.5 336v165q0 210 123 333t313 123q55 0 129.5 -19t127.5 -19q71 0 107.5 41.5t36.5 116.5v140h116v-131q0 -249 -206 -253v-7q53 -51 89 -138.5t36 -186.5v-165q0 -214 -122.5 -335t-313.5 -121zM547 949q-139 0 -225 -97.5t-86 -262.5
v-136q0 -168 84.5 -262.5t227.5 -94.5q141 0 225 94.5t84 262.5v136q0 166 -85.5 263t-224.5 97z" />
    <glyph glyph-name="Uhorn" unicode="&#x1af;" horiz-adv-x="1364" 
d="M660 -30q-228 0 -365 139t-137 366v888h128v-891q0 -176 99.5 -280.5t274.5 -104.5q174 0 274 104t100 281v891h128q146 0 146 157v99h114v-97q0 -117 -60.5 -186t-170.5 -69h-30v-795q0 -227 -136.5 -364.5t-364.5 -137.5z" />
    <glyph glyph-name="uhorn" unicode="&#x1b0;" horiz-adv-x="1194" 
d="M832 185q-28 -80 -110 -141t-213 -61q-163 0 -260 83t-97 255v722h127v-693q0 -129 69.5 -193t186.5 -64q134 0 219.5 88.5t85.5 208.5v653h120q145 0 145 157v120h116v-118q0 -118 -61 -185.5t-177 -67.5h-17v-949h-126v185h-8z" />
    <glyph glyph-name="Acaron" unicode="&#x1cd;" horiz-adv-x="1172" 
d="M165 0h-132l490 1363h126l489 -1363h-137l-149 436h-537zM585 1206h-4l-230 -665h464zM278 1714h125l183 -145h5l184 145h124l-272 -211h-75z" />
    <glyph glyph-name="acaron" unicode="&#x1ce;" horiz-adv-x="1038" 
d="M756 152q-39 -69 -118.5 -119t-197.5 -50q-153 0 -247 85.5t-94 227.5q0 137 93.5 217.5t267.5 80.5h295v137q0 216 -246 216q-116 0 -175.5 -48.5t-69.5 -127.5h-123q8 130 103 209.5t272 79.5q173 0 269.5 -80.5t96.5 -243.5v-736h-122v152h-4zM467 93q122 0 205 74.5
t83 187.5v132h-291q-118 0 -176 -50.5t-58 -137.5q0 -98 67.5 -152t169.5 -54zM264 1510h107l146 -223h3l140 225h108l-207 -307h-83z" />
    <glyph glyph-name="Icaron" unicode="&#x1cf;" horiz-adv-x="493" 
d="M310 0h-127v1363h127v-1363zM-62 1714h125l183 -145h5l184 145h124l-272 -211h-75z" />
    <glyph glyph-name="icaron" unicode="&#x1d0;" horiz-adv-x="483" 
d="M-13 1510h107l146 -223h3l140 225h108l-207 -307h-83zM178 0v1043h126v-1043h-126z" />
    <glyph glyph-name="Ocaron" unicode="&#x1d1;" horiz-adv-x="1307" 
d="M345 1714h125l183 -145h5l184 145h124l-272 -211h-75zM248 789v-225q0 -228 111 -352.5t294 -124.5q184 0 294.5 124.5t110.5 352.5v225q0 229 -111.5 358.5t-293.5 129.5t-293.5 -129.5t-111.5 -358.5zM122 566v221q0 281 143.5 443.5t388.5 162.5q246 0 388.5 -162.5
t142.5 -444.5v-220q0 -280 -143 -438t-390 -158t-388.5 158t-141.5 438z" />
    <glyph glyph-name="ocaron" unicode="&#x1d2;" horiz-adv-x="1094" 
d="M293 1510h107l146 -223h3l140 225h108l-207 -307h-83zM547 1060q208 0 322 -130.5t114 -353.5v-110q0 -224 -113.5 -353.5t-322.5 -129.5t-322.5 129t-113.5 354v110q0 220 114 352t322 132zM547 949q-154 0 -232.5 -106t-78.5 -281v-81q0 -177 78 -281t234 -104
q154 0 231.5 103.5t77.5 281.5v81q0 175 -78 281t-232 106z" />
    <glyph glyph-name="Ucaron" unicode="&#x1d3;" horiz-adv-x="1319" 
d="M351 1714h125l183 -145h5l184 145h124l-272 -211h-75zM286 1363v-891q0 -176 99.5 -280.5t274.5 -104.5q174 0 274 104t100 281v891h127v-891q0 -227 -136.5 -364.5t-364.5 -137.5t-365 139t-137 366v888h128z" />
    <glyph glyph-name="ucaron" unicode="&#x1d4;" horiz-adv-x="1127" 
d="M309 1510h107l146 -223h3l140 225h108l-207 -307h-83zM966 1043v-1043h-126v159h-5q-31 -75 -111.5 -125.5t-205.5 -50.5q-164 0 -265 92.5t-101 265.5v702h127v-668q0 -140 73.5 -208.5t196.5 -68.5q133 0 212 85.5t79 219.5v640h126z" />
    <glyph glyph-name="Udieresismacron" unicode="&#x1d5;" horiz-adv-x="1319" 
d="M468 1579q0 30 20 50.5t49 20.5q30 0 50 -20.5t20 -50.5q0 -29 -20 -50t-50 -21q-29 0 -49 21t-20 50zM752 1579q0 30 20.5 50.5t49.5 20.5q30 0 49.5 -20.5t19.5 -50.5q0 -29 -20 -50t-49 -21t-49.5 21t-20.5 50zM286 1363v-891q0 -176 99.5 -280.5t274.5 -104.5
q174 0 274 104t100 281v891h127v-891q0 -227 -136.5 -364.5t-364.5 -137.5t-365 139t-137 366v888h128zM929 1802h-540v77h540v-77z" />
    <glyph glyph-name="udieresismacron" unicode="&#x1d6;" horiz-adv-x="1127" 
d="M966 1043v-1043h-126v159h-5q-31 -75 -111.5 -125.5t-205.5 -50.5q-164 0 -265 92.5t-101 265.5v702h127v-668q0 -140 73.5 -208.5t196.5 -68.5q133 0 212 85.5t79 219.5v640h126zM324 1264q0 36 23 59.5t56 23.5q35 0 58 -23.5t23 -59.5q0 -34 -23.5 -58t-57.5 -24
q-33 0 -56 24t-23 58zM643 1264q0 36 23 59.5t56 23.5q35 0 58.5 -23.5t23.5 -59.5q0 -34 -23.5 -58t-58.5 -24q-32 0 -55.5 24t-23.5 58zM833 1509h-546v84h546v-84z" />
    <glyph glyph-name="Udieresisacute" unicode="&#x1d7;" horiz-adv-x="1319" 
d="M563 1723l268 213h148l-297 -213h-119zM468 1579q0 30 20 50.5t49 20.5q30 0 50 -20.5t20 -50.5q0 -29 -20 -50t-50 -21q-29 0 -49 21t-20 50zM752 1579q0 30 20.5 50.5t49.5 20.5q30 0 49.5 -20.5t19.5 -50.5q0 -29 -20 -50t-49 -21t-49.5 21t-20.5 50zM286 1363v-891
q0 -176 99.5 -280.5t274.5 -104.5q174 0 274 104t100 281v891h127v-891q0 -227 -136.5 -364.5t-364.5 -137.5t-365 139t-137 366v888h128z" />
    <glyph glyph-name="udieresisacute" unicode="&#x1d8;" horiz-adv-x="1127" 
d="M581 1458h-100l202 279h134zM966 1043v-1043h-126v159h-5q-31 -75 -111.5 -125.5t-205.5 -50.5q-164 0 -265 92.5t-101 265.5v702h127v-668q0 -140 73.5 -208.5t196.5 -68.5q133 0 212 85.5t79 219.5v640h126zM324 1264q0 36 23 59.5t56 23.5q35 0 58 -23.5t23 -59.5
q0 -34 -23.5 -58t-57.5 -24q-33 0 -56 24t-23 58zM643 1264q0 36 23 59.5t56 23.5q35 0 58.5 -23.5t23.5 -59.5q0 -34 -23.5 -58t-58.5 -24q-32 0 -55.5 24t-23.5 58z" />
    <glyph glyph-name="Udieresiscaron" unicode="&#x1d9;" horiz-adv-x="1319" 
d="M468 1579q0 30 20 50.5t49 20.5q30 0 50 -20.5t20 -50.5q0 -29 -20 -50t-50 -21q-29 0 -49 21t-20 50zM752 1579q0 30 20.5 50.5t49.5 20.5q30 0 49.5 -20.5t19.5 -50.5q0 -29 -20 -50t-49 -21t-49.5 21t-20.5 50zM351 1973h125l183 -145h5l184 145h124l-272 -211h-75z
M286 1363v-891q0 -176 99.5 -280.5t274.5 -104.5q174 0 274 104t100 281v891h127v-891q0 -227 -136.5 -364.5t-364.5 -137.5t-365 139t-137 366v888h128z" />
    <glyph glyph-name="udieresiscaron" unicode="&#x1da;" horiz-adv-x="1127" 
d="M309 1782h107l146 -223h3l140 225h108l-207 -307h-83zM966 1043v-1043h-126v159h-5q-31 -75 -111.5 -125.5t-205.5 -50.5q-164 0 -265 92.5t-101 265.5v702h127v-668q0 -140 73.5 -208.5t196.5 -68.5q133 0 212 85.5t79 219.5v640h126zM324 1264q0 36 23 59.5t56 23.5
q35 0 58 -23.5t23 -59.5q0 -34 -23.5 -58t-57.5 -24q-33 0 -56 24t-23 58zM643 1264q0 36 23 59.5t56 23.5q35 0 58.5 -23.5t23.5 -59.5q0 -34 -23.5 -58t-58.5 -24q-32 0 -55.5 24t-23.5 58z" />
    <glyph glyph-name="Udieresisgrave" unicode="&#x1db;" horiz-adv-x="1319" 
d="M759 1724h-119l-298 213h149zM468 1579q0 30 20 50.5t49 20.5q30 0 50 -20.5t20 -50.5q0 -29 -20 -50t-50 -21q-29 0 -49 21t-20 50zM752 1579q0 30 20.5 50.5t49.5 20.5q30 0 49.5 -20.5t19.5 -50.5q0 -29 -20 -50t-49 -21t-49.5 21t-20.5 50zM286 1363v-891
q0 -176 99.5 -280.5t274.5 -104.5q174 0 274 104t100 281v891h127v-891q0 -227 -136.5 -364.5t-364.5 -137.5t-365 139t-137 366v888h128z" />
    <glyph glyph-name="udieresisgrave" unicode="&#x1dc;" horiz-adv-x="1127" 
d="M647 1458h-99l-236 279h135zM966 1043v-1043h-126v159h-5q-31 -75 -111.5 -125.5t-205.5 -50.5q-164 0 -265 92.5t-101 265.5v702h127v-668q0 -140 73.5 -208.5t196.5 -68.5q133 0 212 85.5t79 219.5v640h126zM324 1264q0 36 23 59.5t56 23.5q35 0 58 -23.5t23 -59.5
q0 -34 -23.5 -58t-57.5 -24q-33 0 -56 24t-23 58zM643 1264q0 36 23 59.5t56 23.5q35 0 58.5 -23.5t23.5 -59.5q0 -34 -23.5 -58t-58.5 -24q-32 0 -55.5 24t-23.5 58z" />
    <glyph glyph-name="Adieresismacron" unicode="&#x1de;" horiz-adv-x="1172" 
d="M165 0h-132l490 1363h126l489 -1363h-137l-149 436h-537zM585 1206h-4l-230 -665h464zM395 1579q0 30 20 50.5t49 20.5q30 0 50 -20.5t20 -50.5q0 -29 -20 -50t-50 -21q-29 0 -49 21t-20 50zM679 1579q0 30 20.5 50.5t49.5 20.5q30 0 49.5 -20.5t19.5 -50.5
q0 -29 -20 -50t-49 -21t-49.5 21t-20.5 50zM856 1802h-540v77h540v-77z" />
    <glyph glyph-name="adieresismacron" unicode="&#x1df;" horiz-adv-x="1038" 
d="M756 152q-39 -69 -118.5 -119t-197.5 -50q-153 0 -247 85.5t-94 227.5q0 137 93.5 217.5t267.5 80.5h295v137q0 216 -246 216q-116 0 -175.5 -48.5t-69.5 -127.5h-123q8 130 103 209.5t272 79.5q173 0 269.5 -80.5t96.5 -243.5v-736h-122v152h-4zM467 93q122 0 205 74.5
t83 187.5v132h-291q-118 0 -176 -50.5t-58 -137.5q0 -98 67.5 -152t169.5 -54zM279 1264q0 36 23 59.5t56 23.5q35 0 58 -23.5t23 -59.5q0 -34 -23.5 -58t-57.5 -24q-33 0 -56 24t-23 58zM598 1264q0 36 23 59.5t56 23.5q35 0 58.5 -23.5t23.5 -59.5q0 -34 -23.5 -58
t-58.5 -24q-32 0 -55.5 24t-23.5 58zM788 1509h-546v84h546v-84z" />
    <glyph glyph-name="Adotmacron" unicode="&#x1e0;" horiz-adv-x="1172" 
d="M165 0h-132l490 1363h126l489 -1363h-137l-149 436h-537zM585 1206h-4l-230 -665h464zM501 1621q0 37 25 62.5t60 25.5q38 0 63.5 -25t25.5 -63q0 -37 -25.5 -61t-63.5 -24q-36 0 -60.5 24.5t-24.5 60.5zM856 1802h-540v77h540v-77z" />
    <glyph glyph-name="adotmacron" unicode="&#x1e1;" horiz-adv-x="1038" 
d="M756 152q-39 -69 -118.5 -119t-197.5 -50q-153 0 -247 85.5t-94 227.5q0 137 93.5 217.5t267.5 80.5h295v137q0 216 -246 216q-116 0 -175.5 -48.5t-69.5 -127.5h-123q8 130 103 209.5t272 79.5q173 0 269.5 -80.5t96.5 -243.5v-736h-122v152h-4zM467 93q122 0 205 74.5
t83 187.5v132h-291q-118 0 -176 -50.5t-58 -137.5q0 -98 67.5 -152t169.5 -54zM433 1301q0 37 25 62.5t60 25.5q38 0 63.5 -25t25.5 -63q0 -37 -25.5 -61t-63.5 -24q-36 0 -60.5 24.5t-24.5 60.5zM788 1509h-546v84h546v-84z" />
    <glyph glyph-name="AEmacron" unicode="&#x1e2;" horiz-adv-x="1835" 
d="M862 1246l-383 -678h454v678h-71zM933 460h-513l-260 -460h-143l776 1363h929v-117h-661v-491h625v-115h-625v-524h661v-116h-789v460zM1603 1533h-540v77h540v-77z" />
    <glyph glyph-name="aemacron" unicode="&#x1e3;" horiz-adv-x="1695" 
d="M1187 -17q-149 0 -247 64t-129 165h-10q-33 -96 -125.5 -162.5t-231.5 -66.5q-156 0 -251 85t-95 229q0 143 95.5 222.5t270.5 79.5h293v123q0 112 -69 168.5t-182 56.5q-110 0 -169.5 -40.5t-75.5 -103.5h-122q11 120 110 188.5t264 68.5q110 0 197.5 -43t124.5 -126h10
q44 82 132.5 125.5t196.5 43.5q186 0 297.5 -124.5t111.5 -341.5v-102h-699v-76q0 -145 81.5 -232.5t220.5 -87.5q107 0 173 46t81 108h133q-6 -43 -32 -87.5t-71 -86t-119 -67.5t-164 -26zM1174 949q-128 0 -209 -90t-81 -238v-29h573v20q0 158 -75.5 247.5t-207.5 89.5z
M469 93q121 0 204.5 74.5t83.5 187.5v137h-291q-119 0 -180.5 -52t-61.5 -139q0 -98 71 -153t174 -55zM1117 1224h-546v84h546v-84z" />
    <glyph glyph-name="Gcaron" unicode="&#x1e6;" horiz-adv-x="1266" 
d="M338 1714h125l183 -145h5l184 145h124l-272 -211h-75zM1140 975h-126q-14 137 -112.5 219.5t-250.5 82.5q-179 0 -290.5 -125t-111.5 -363v-205q0 -231 102.5 -364t295.5 -133q166 0 269.5 89t103.5 237v158h-382v117h506v-275q0 -63 -17.5 -124.5t-56.5 -119.5t-95 -102
t-140.5 -70.5t-185.5 -26.5q-258 0 -392.5 165t-134.5 449v205q0 281 144 442.5t388 161.5q113 0 205 -34.5t151 -93.5t92 -133t38 -157z" />
    <glyph glyph-name="gcaron" unicode="&#x1e7;" horiz-adv-x="1102" 
d="M296 1510h107l146 -223h3l140 225h108l-207 -307h-83zM524 -268q148 0 227 73.5t79 202.5v196h-4q-19 -44 -57 -84t-107 -71t-151 -31q-177 0 -294 121.5t-117 320.5v153q0 203 118 325t295 122q69 0 125 -16.5t93 -45.5t60.5 -58t38.5 -62h4v165h121v-1030
q0 -191 -116 -292.5t-320 -101.5q-96 0 -172 25.5t-122 68t-71 93t-28 106.5h131q8 -73 76 -126.5t191 -53.5zM532 949q-136 0 -221 -96t-85 -264v-109q0 -163 86 -256.5t221 -93.5q92 0 161 48.5t102 124.5t33 167v121q0 152 -81 255t-216 103z" />
    <glyph glyph-name="Kcaron" unicode="&#x1e8;" horiz-adv-x="1147" 
d="M1101 1363l-531 -590l561 -773h-164l-492 685l-171 -184v-501h-127v1363h127v-693h5l637 693h155zM248 1714h125l183 -145h5l184 145h124l-272 -211h-75z" />
    <glyph glyph-name="kcaron" unicode="&#x1e9;" horiz-adv-x="995" 
d="M-30 1903h107l146 -223h3l140 225h108l-207 -307h-83zM290 405v-405h-126v1436h126v-888h5l490 501h150l-435 -450l458 -599h-153l-397 518z" />
    <glyph glyph-name="Oogonek" unicode="&#x1ea;" horiz-adv-x="1307" 
d="M248 789v-225q0 -228 111 -352.5t294 -124.5q184 0 294.5 124.5t110.5 352.5v225q0 229 -111.5 358.5t-293.5 129.5t-293.5 -129.5t-111.5 -358.5zM643 -30q-238 0 -379.5 159t-141.5 437v221q0 281 143.5 443.5t388.5 162.5q246 0 388.5 -162.5t142.5 -444.5v-220
q0 -303 -182 -491q-10 -11 -47 -48.5t-48.5 -51.5t-33 -43t-29 -53t-7.5 -50q0 -52 34 -80t89 -28q43 0 79 12v-94q-38 -19 -107 -19q-86 0 -146.5 47.5t-60.5 137.5q0 119 108 205l-4 6q-85 -46 -187 -46z" />
    <glyph glyph-name="oogonek" unicode="&#x1eb;" horiz-adv-x="1094" 
d="M547 949q-139 0 -225 -97t-86 -262v-137q0 -167 84 -262t228 -95q142 0 225.5 94.5t83.5 262.5v137q0 165 -85.5 262t-224.5 97zM682 23q-63 -40 -153 -40q-180 0 -299 120t-119 329v172q0 210 123.5 333t315.5 123q188 0 310.5 -121.5t122.5 -334.5v-165
q0 -123 -39.5 -210.5t-107.5 -159.5q-6 -6 -27.5 -28t-27.5 -29t-23 -26t-23 -28t-17 -26.5t-15.5 -30t-8 -29t-3.5 -33.5q0 -51 34 -81.5t89 -30.5q42 0 78 12v-95q-45 -18 -108 -18q-85 0 -145 47.5t-60 138.5q0 115 108 204z" />
    <glyph glyph-name="Oogonekmacron" unicode="&#x1ec;" horiz-adv-x="1307" 
d="M248 789v-225q0 -228 111 -352.5t294 -124.5q184 0 294.5 124.5t110.5 352.5v225q0 229 -111.5 358.5t-293.5 129.5t-293.5 -129.5t-111.5 -358.5zM643 -30q-238 0 -379.5 159t-141.5 437v221q0 281 143.5 443.5t388.5 162.5q246 0 388.5 -162.5t142.5 -444.5v-220
q0 -303 -182 -491q-10 -11 -47 -48.5t-48.5 -51.5t-33 -43t-29 -53t-7.5 -50q0 -52 34 -80t89 -28q43 0 79 12v-94q-38 -19 -107 -19q-86 0 -146.5 47.5t-60.5 137.5q0 119 108 205l-4 6q-85 -46 -187 -46zM923 1533h-540v77h540v-77z" />
    <glyph glyph-name="oogonekmacron" unicode="&#x1ed;" horiz-adv-x="1094" 
d="M547 949q-139 0 -225 -97t-86 -262v-137q0 -167 84 -262t228 -95q142 0 225.5 94.5t83.5 262.5v137q0 165 -85.5 262t-224.5 97zM682 23q-63 -40 -153 -40q-180 0 -299 120t-119 329v172q0 210 123.5 333t315.5 123q188 0 310.5 -121.5t122.5 -334.5v-165
q0 -123 -39.5 -210.5t-107.5 -159.5q-6 -6 -27.5 -28t-27.5 -29t-23 -26t-23 -28t-17 -26.5t-15.5 -30t-8 -29t-3.5 -33.5q0 -51 34 -81.5t89 -30.5q42 0 78 12v-95q-45 -18 -108 -18q-85 0 -145 47.5t-60 138.5q0 115 108 204zM817 1224h-546v84h546v-84z" />
    <glyph glyph-name="Gacute" unicode="&#x1f4;" horiz-adv-x="1266" 
d="M550 1513l268 213h148l-297 -213h-119zM1140 975h-126q-14 137 -112.5 219.5t-250.5 82.5q-179 0 -290.5 -125t-111.5 -363v-205q0 -231 102.5 -364t295.5 -133q166 0 269.5 89t103.5 237v158h-382v117h506v-275q0 -63 -17.5 -124.5t-56.5 -119.5t-95 -102t-140.5 -70.5
t-185.5 -26.5q-258 0 -392.5 165t-134.5 449v205q0 281 144 442.5t388 161.5q113 0 205 -34.5t151 -93.5t92 -133t38 -157z" />
    <glyph glyph-name="gacute" unicode="&#x1f5;" horiz-adv-x="1102" 
d="M568 1210h-100l202 279h134zM524 -268q148 0 227 73.5t79 202.5v196h-4q-19 -44 -57 -84t-107 -71t-151 -31q-177 0 -294 121.5t-117 320.5v153q0 203 118 325t295 122q69 0 125 -16.5t93 -45.5t60.5 -58t38.5 -62h4v165h121v-1030q0 -191 -116 -292.5t-320 -101.5
q-96 0 -172 25.5t-122 68t-71 93t-28 106.5h131q8 -73 76 -126.5t191 -53.5zM532 949q-136 0 -221 -96t-85 -264v-109q0 -163 86 -256.5t221 -93.5q92 0 161 48.5t102 124.5t33 167v121q0 152 -81 255t-216 103z" />
    <glyph glyph-name="Ngrave" unicode="&#x1f8;" horiz-adv-x="1348" 
d="M773 1514h-119l-298 213h149zM304 0h-127v1363h128l735 -1143h4v1143h127v-1363h-128l-736 1143h-3v-1143z" />
    <glyph glyph-name="ngrave" unicode="&#x1f9;" horiz-adv-x="1131" 
d="M649 1210h-99l-236 279h135zM161 0v1043h126v-158h4q31 74 113 124.5t201 50.5q161 0 266.5 -97.5t105.5 -269.5v-693h-127v649q0 141 -69.5 218.5t-202.5 77.5q-140 0 -215.5 -86t-75.5 -231v-628h-126z" />
    <glyph glyph-name="Aringacute" unicode="&#x1fa;" horiz-adv-x="1173" 
d="M547 1642l315 250h156l-326 -250h-145zM475 1510q0 -45 33.5 -78t77.5 -33q45 0 77.5 33t32.5 78q0 46 -32 78t-78 32q-45 0 -78 -32.5t-33 -77.5zM816 541l-229 665h-6l-229 -665h464zM165 0h-131l482 1342q-50 21 -81 66.5t-31 101.5q0 74 53 126.5t129 52.5
q74 0 126.5 -52.5t52.5 -126.5q0 -55 -30 -100t-79 -66l483 -1344h-137l-150 436h-537z" />
    <glyph glyph-name="aringacute" unicode="&#x1fb;" horiz-adv-x="1038" 
d="M650 1496h-103l248 337h145zM756 152q-39 -69 -118.5 -119t-197.5 -50q-153 0 -247 85.5t-94 227.5q0 137 93.5 217.5t267.5 80.5h295v137q0 216 -246 216q-116 0 -175.5 -48.5t-69.5 -127.5h-123q8 130 103 209.5t272 79.5q173 0 269.5 -80.5t96.5 -243.5v-736h-122v152
h-4zM467 93q122 0 205 74.5t83 187.5v132h-291q-118 0 -176 -50.5t-58 -137.5q0 -98 67.5 -152t169.5 -54zM525 1192q-76 0 -128.5 51.5t-52.5 126.5t52.5 126t128.5 51q75 0 127 -51t52 -126t-52 -126.5t-127 -51.5zM416 1370q0 -45 32 -77.5t77 -32.5t76.5 32.5t31.5 77.5
q0 46 -31 78t-77 32q-45 0 -77 -32t-32 -78z" />
    <glyph glyph-name="AEacute" unicode="&#x1fc;" horiz-adv-x="1835" 
d="M1237 1513l268 213h148l-297 -213h-119zM862 1246l-383 -678h454v678h-71zM933 460h-513l-260 -460h-143l776 1363h929v-117h-661v-491h625v-115h-625v-524h661v-116h-789v460z" />
    <glyph glyph-name="aeacute" unicode="&#x1fd;" horiz-adv-x="1695" 
d="M865 1210h-100l202 279h134zM1187 -17q-149 0 -247 64t-129 165h-10q-33 -96 -125.5 -162.5t-231.5 -66.5q-156 0 -251 85t-95 229q0 143 95.5 222.5t270.5 79.5h293v123q0 112 -69 168.5t-182 56.5q-110 0 -169.5 -40.5t-75.5 -103.5h-122q11 120 110 188.5t264 68.5
q110 0 197.5 -43t124.5 -126h10q44 82 132.5 125.5t196.5 43.5q186 0 297.5 -124.5t111.5 -341.5v-102h-699v-76q0 -145 81.5 -232.5t220.5 -87.5q107 0 173 46t81 108h133q-6 -43 -32 -87.5t-71 -86t-119 -67.5t-164 -26zM1174 949q-128 0 -209 -90t-81 -238v-29h573v20
q0 158 -75.5 247.5t-207.5 89.5zM469 93q121 0 204.5 74.5t83.5 187.5v137h-291q-119 0 -180.5 -52t-61.5 -139q0 -98 71 -153t174 -55z" />
    <glyph glyph-name="Oslashacute" unicode="&#x1fe;" horiz-adv-x="1307" 
d="M652 -30q-252 0 -392 165l-106 -129l-75 62l122 149q-79 144 -79 349v221q0 281 143 443.5t389 162.5q242 0 384 -158l107 129l79 -56l-127 -153q88 -151 88 -368v-221q0 -280 -143 -438t-390 -158zM248 564q0 -134 42 -238l666 809q-111 142 -303 142
q-182 0 -293.5 -129.5t-111.5 -358.5v-225zM653 87q184 0 294.5 124.5t110.5 352.5v225q0 148 -49 257l-668 -812q110 -147 312 -147zM557 1513l268 213h148l-297 -213h-119z" />
    <glyph glyph-name="oslashacute" unicode="&#x1ff;" horiz-adv-x="1094" 
d="M337 168q79 -75 211 -75q141 0 226 96t85 264v157q0 107 -40 184zM233 432q0 -107 42 -189l483 628q-79 81 -211 81q-139 0 -226.5 -99t-87.5 -264v-157zM547 -17q-163 0 -276 96l-102 -135l-76 56l110 145q-92 119 -92 294v165q0 210 123 333t313 123q164 0 277 -101
l111 143l74 -57l-117 -151q91 -121 91 -290v-165q0 -214 -122.5 -335t-313.5 -121zM565 1210h-100l202 279h134z" />
    <glyph glyph-name="Adblgrave" unicode="&#x200;" horiz-adv-x="1172" 
d="M165 0h-132l490 1363h126l489 -1363h-137l-149 436h-537zM585 1206h-4l-230 -665h464zM807 1514h-120l-298 223h136zM522 1514h-120l-298 223h136z" />
    <glyph glyph-name="adblgrave" unicode="&#x201;" horiz-adv-x="1038" 
d="M756 152q-39 -69 -118.5 -119t-197.5 -50q-153 0 -247 85.5t-94 227.5q0 137 93.5 217.5t267.5 80.5h295v137q0 216 -246 216q-116 0 -175.5 -48.5t-69.5 -127.5h-123q8 130 103 209.5t272 79.5q173 0 269.5 -80.5t96.5 -243.5v-736h-122v152h-4zM467 93q122 0 205 74.5
t83 187.5v132h-291q-118 0 -176 -50.5t-58 -137.5q0 -98 67.5 -152t169.5 -54zM360 1208l-250 305h120l219 -305h-89zM605 1208l-251 305h120l219 -305h-88z" />
    <glyph glyph-name="Ainvertedbreve" unicode="&#x202;" horiz-adv-x="1172" 
d="M165 0h-132l490 1363h126l489 -1363h-137l-149 436h-537zM585 1206h-4l-230 -665h464zM586 1663q-91 0 -147 -45t-56 -112h-95q0 100 75 173.5t223 73.5q77 0 135.5 -21.5t92.5 -58t50.5 -79t16.5 -88.5h-95q0 67 -54.5 112t-145.5 45z" />
    <glyph glyph-name="ainvertedbreve" unicode="&#x203;" horiz-adv-x="1038" 
d="M756 152q-39 -69 -118.5 -119t-197.5 -50q-153 0 -247 85.5t-94 227.5q0 137 93.5 217.5t267.5 80.5h295v137q0 216 -246 216q-116 0 -175.5 -48.5t-69.5 -127.5h-123q8 130 103 209.5t272 79.5q173 0 269.5 -80.5t96.5 -243.5v-736h-122v152h-4zM467 93q122 0 205 74.5
t83 187.5v132h-291q-118 0 -176 -50.5t-58 -137.5q0 -98 67.5 -152t169.5 -54zM241 1199q0 46 16.5 90t48.5 82t87 61.5t125 23.5q69 0 124 -23.5t87 -62t48 -82.5t16 -89h-95q0 74 -46 122.5t-134 48.5t-135.5 -49t-47.5 -122h-94z" />
    <glyph glyph-name="Edblgrave" unicode="&#x204;" horiz-adv-x="1085" 
d="M792 1514h-120l-298 223h136zM507 1514h-120l-298 223h136zM972 116v-116h-795v1363h795v-117h-668v-491h633v-115h-633v-524h668z" />
    <glyph glyph-name="edblgrave" unicode="&#x205;" horiz-adv-x="1053" 
d="M541 -17q-208 0 -318.5 130.5t-110.5 351.5v101q0 227 108.5 360.5t308.5 133.5q201 0 309 -131.5t108 -360.5v-73h-708v-37q0 -160 77.5 -261t225.5 -101q116 0 179.5 52t78.5 124h132q-8 -50 -33 -98.5t-70 -92.5t-119.5 -71t-167.5 -27zM238 604h582v3
q0 156 -78.5 249t-212.5 93t-212.5 -94t-78.5 -248v-3zM368 1208l-250 305h120l219 -305h-89zM613 1208l-251 305h120l219 -305h-88z" />
    <glyph glyph-name="Einvertedbreve" unicode="&#x206;" horiz-adv-x="1085" 
d="M972 116v-116h-795v1363h795v-117h-668v-491h633v-115h-633v-524h668zM571 1663q-91 0 -147 -45t-56 -112h-95q0 100 75 173.5t223 73.5q77 0 135.5 -21.5t92.5 -58t50.5 -79t16.5 -88.5h-95q0 67 -54.5 112t-145.5 45z" />
    <glyph glyph-name="einvertedbreve" unicode="&#x207;" horiz-adv-x="1053" 
d="M541 -17q-208 0 -318.5 130.5t-110.5 351.5v101q0 227 108.5 360.5t308.5 133.5q201 0 309 -131.5t108 -360.5v-73h-708v-37q0 -160 77.5 -261t225.5 -101q116 0 179.5 52t78.5 124h132q-8 -50 -33 -98.5t-70 -92.5t-119.5 -71t-167.5 -27zM238 604h582v3
q0 156 -78.5 249t-212.5 93t-212.5 -94t-78.5 -248v-3zM249 1199q0 46 16.5 90t48.5 82t87 61.5t125 23.5q69 0 124 -23.5t87 -62t48 -82.5t16 -89h-95q0 74 -46 122.5t-134 48.5t-135.5 -49t-47.5 -122h-94z" />
    <glyph glyph-name="Idblgrave" unicode="&#x208;" horiz-adv-x="493" 
d="M310 0h-127v1363h127v-1363zM467 1514h-120l-298 223h136zM182 1514h-120l-298 223h136z" />
    <glyph glyph-name="idblgrave" unicode="&#x209;" horiz-adv-x="483" 
d="M178 0v1043h126v-1043h-126zM83 1208l-250 305h120l219 -305h-89zM328 1208l-251 305h120l219 -305h-88z" />
    <glyph glyph-name="Iinvertedbreve" unicode="&#x20a;" horiz-adv-x="493" 
d="M310 0h-127v1363h127v-1363zM246 1663q-91 0 -147 -45t-56 -112h-95q0 100 75 173.5t223 73.5q77 0 135.5 -21.5t92.5 -58t50.5 -79t16.5 -88.5h-95q0 67 -54.5 112t-145.5 45z" />
    <glyph glyph-name="iinvertedbreve" unicode="&#x20b;" horiz-adv-x="483" 
d="M178 0v1043h126v-1043h-126zM-36 1199q0 46 16.5 90t48.5 82t87 61.5t125 23.5q69 0 124 -23.5t87 -62t48 -82.5t16 -89h-95q0 74 -46 122.5t-134 48.5t-135.5 -49t-47.5 -122h-94z" />
    <glyph glyph-name="Odblgrave" unicode="&#x20c;" horiz-adv-x="1307" 
d="M874 1514h-120l-298 223h136zM589 1514h-120l-298 223h136zM248 789v-225q0 -228 111 -352.5t294 -124.5q184 0 294.5 124.5t110.5 352.5v225q0 229 -111.5 358.5t-293.5 129.5t-293.5 -129.5t-111.5 -358.5zM122 566v221q0 281 143.5 443.5t388.5 162.5
q246 0 388.5 -162.5t142.5 -444.5v-220q0 -280 -143 -438t-390 -158t-388.5 158t-141.5 438z" />
    <glyph glyph-name="odblgrave" unicode="&#x20d;" horiz-adv-x="1094" 
d="M547 1060q208 0 322 -130.5t114 -353.5v-110q0 -224 -113.5 -353.5t-322.5 -129.5t-322.5 129t-113.5 354v110q0 220 114 352t322 132zM547 949q-154 0 -232.5 -106t-78.5 -281v-81q0 -177 78 -281t234 -104q154 0 231.5 103.5t77.5 281.5v81q0 175 -78 281t-232 106z
M389 1208l-250 305h120l219 -305h-89zM634 1208l-251 305h120l219 -305h-88z" />
    <glyph glyph-name="Oinvertedbreve" unicode="&#x20e;" horiz-adv-x="1307" 
d="M653 1663q-91 0 -147 -45t-56 -112h-95q0 100 75 173.5t223 73.5q77 0 135.5 -21.5t92.5 -58t50.5 -79t16.5 -88.5h-95q0 67 -54.5 112t-145.5 45zM248 789v-225q0 -228 111 -352.5t294 -124.5q184 0 294.5 124.5t110.5 352.5v225q0 229 -111.5 358.5t-293.5 129.5
t-293.5 -129.5t-111.5 -358.5zM122 566v221q0 281 143.5 443.5t388.5 162.5q246 0 388.5 -162.5t142.5 -444.5v-220q0 -280 -143 -438t-390 -158t-388.5 158t-141.5 438z" />
    <glyph glyph-name="oinvertedbreve" unicode="&#x20f;" horiz-adv-x="1094" 
d="M547 1060q208 0 322 -130.5t114 -353.5v-110q0 -224 -113.5 -353.5t-322.5 -129.5t-322.5 129t-113.5 354v110q0 220 114 352t322 132zM547 949q-154 0 -232.5 -106t-78.5 -281v-81q0 -177 78 -281t234 -104q154 0 231.5 103.5t77.5 281.5v81q0 175 -78 281t-232 106z
M270 1199q0 46 16.5 90t48.5 82t87 61.5t125 23.5q69 0 124 -23.5t87 -62t48 -82.5t16 -89h-95q0 74 -46 122.5t-134 48.5t-135.5 -49t-47.5 -122h-94z" />
    <glyph glyph-name="Rdblgrave" unicode="&#x210;" horiz-adv-x="1198" 
d="M792 1514h-120l-298 223h136zM507 1514h-120l-298 223h136zM646 1363q203 0 313 -112t110 -282q0 -79 -22 -145t-61 -110.5t-85 -74t-101 -46.5l293 -593h-147l-274 567h-368v-567h-127v1363h469zM304 682h320q151 0 232.5 73.5t81.5 205.5q0 137 -82.5 212t-226.5 75
h-325v-566z" />
    <glyph glyph-name="rdblgrave" unicode="&#x211;" horiz-adv-x="679" 
d="M173 0v1043h126v-149h4q61 165 276 165q25 0 70 -5v-118q-30 6 -85 6q-130 0 -197.5 -76.5t-67.5 -212.5v-653h-126zM231 1208l-250 305h120l219 -305h-89zM476 1208l-251 305h120l219 -305h-88z" />
    <glyph glyph-name="Rinvertedbreve" unicode="&#x212;" horiz-adv-x="1198" 
d="M646 1363q203 0 313 -112t110 -282q0 -79 -22 -145t-61 -110.5t-85 -74t-101 -46.5l293 -593h-147l-274 567h-368v-567h-127v1363h469zM304 682h320q151 0 232.5 73.5t81.5 205.5q0 137 -82.5 212t-226.5 75h-325v-566zM571 1663q-91 0 -147 -45t-56 -112h-95
q0 100 75 173.5t223 73.5q77 0 135.5 -21.5t92.5 -58t50.5 -79t16.5 -88.5h-95q0 67 -54.5 112t-145.5 45z" />
    <glyph glyph-name="rinvertedbreve" unicode="&#x213;" horiz-adv-x="679" 
d="M173 0v1043h126v-149h4q61 165 276 165q25 0 70 -5v-118q-30 6 -85 6q-130 0 -197.5 -76.5t-67.5 -212.5v-653h-126zM112 1199q0 46 16.5 90t48.5 82t87 61.5t125 23.5q69 0 124 -23.5t87 -62t48 -82.5t16 -89h-95q0 74 -46 122.5t-134 48.5t-135.5 -49t-47.5 -122h-94z
" />
    <glyph glyph-name="Udblgrave" unicode="&#x214;" horiz-adv-x="1319" 
d="M880 1514h-120l-298 223h136zM595 1514h-120l-298 223h136zM286 1363v-891q0 -176 99.5 -280.5t274.5 -104.5q174 0 274 104t100 281v891h127v-891q0 -227 -136.5 -364.5t-364.5 -137.5t-365 139t-137 366v888h128z" />
    <glyph glyph-name="udblgrave" unicode="&#x215;" horiz-adv-x="1127" 
d="M966 1043v-1043h-126v159h-5q-31 -75 -111.5 -125.5t-205.5 -50.5q-164 0 -265 92.5t-101 265.5v702h127v-668q0 -140 73.5 -208.5t196.5 -68.5q133 0 212 85.5t79 219.5v640h126zM405 1208l-250 305h120l219 -305h-89zM650 1208l-251 305h120l219 -305h-88z" />
    <glyph glyph-name="Uinvertedbreve" unicode="&#x216;" horiz-adv-x="1319" 
d="M286 1363v-891q0 -176 99.5 -280.5t274.5 -104.5q174 0 274 104t100 281v891h127v-891q0 -227 -136.5 -364.5t-364.5 -137.5t-365 139t-137 366v888h128zM659 1663q-91 0 -147 -45t-56 -112h-95q0 100 75 173.5t223 73.5q77 0 135.5 -21.5t92.5 -58t50.5 -79t16.5 -88.5
h-95q0 67 -54.5 112t-145.5 45z" />
    <glyph glyph-name="uinvertedbreve" unicode="&#x217;" horiz-adv-x="1127" 
d="M966 1043v-1043h-126v159h-5q-31 -75 -111.5 -125.5t-205.5 -50.5q-164 0 -265 92.5t-101 265.5v702h127v-668q0 -140 73.5 -208.5t196.5 -68.5q133 0 212 85.5t79 219.5v640h126zM286 1199q0 46 16.5 90t48.5 82t87 61.5t125 23.5q69 0 124 -23.5t87 -62t48 -82.5
t16 -89h-95q0 74 -46 122.5t-134 48.5t-135.5 -49t-47.5 -122h-94z" />
    <glyph glyph-name="Scommaaccent" unicode="&#x218;" horiz-adv-x="1144" 
d="M77 357h129q4 -51 27.5 -98t66 -86t112 -62.5t157.5 -23.5q156 0 250.5 73.5t94.5 194.5q0 100 -63 157.5t-200 94.5l-217 57q-314 85 -314 351q0 117 62.5 205t164.5 132t227 44q189 0 318.5 -98.5t133.5 -270.5h-129q-7 107 -90 179.5t-235 72.5q-145 0 -233.5 -68.5
t-88.5 -187.5q0 -177 222 -235l212 -58q88 -24 150.5 -52.5t111.5 -71t73.5 -103t24.5 -139.5q0 -185 -137.5 -289.5t-352.5 -104.5q-101 0 -183.5 24.5t-135.5 63.5t-89 91t-52 103.5t-17 104.5zM514 -486h-100l85 335h129z" />
    <glyph glyph-name="scommaaccent" unicode="&#x219;" horiz-adv-x="968" 
d="M114 760q0 98 52 167.5t133.5 101t183.5 31.5q176 0 268 -88t92 -211h-120q-2 33 -14.5 65t-39 62t-76 48.5t-115.5 18.5q-105 0 -172 -48t-67 -135q0 -27 8 -49.5t19.5 -39t33 -30.5t40 -23t50.5 -18.5t54 -14.5t60 -13q57 -12 95.5 -22t84.5 -26t75.5 -36.5t56 -49
t39 -67.5t12.5 -88q0 -149 -110.5 -230.5t-286.5 -81.5q-177 0 -279 82t-102 209h124q8 -78 73.5 -131t188.5 -53q126 0 196.5 51.5t70.5 139.5q0 38 -16 67.5t-37.5 47.5t-64 33.5t-73 23.5t-88.5 20q-69 15 -114 28t-94 36t-76.5 51t-46 71.5t-18.5 100.5zM444 -486h-100
l85 335h129z" />
    <glyph glyph-name="Tcommaaccent" unicode="&#x21a;" horiz-adv-x="1033" 
d="M477 -486h-100l85 335h129zM579 0h-126v1247h-435v116h997v-116h-436v-1247z" />
    <glyph glyph-name="tcommaaccent" unicode="&#x21b;" horiz-adv-x="651" 
d="M358 -486h-100l85 335h129zM210 1043v259h126v-259h236v-108h-236v-672q0 -94 39.5 -128t141.5 -34q43 0 65 3v-104q-35 -7 -91 -7q-85 0 -140 15.5t-86 51.5t-43 86t-12 127v662h-162v108h162z" />
    <glyph glyph-name="Hcaron" unicode="&#x21e;" horiz-adv-x="1348" 
d="M1171 0h-127v652h-740v-652h-127v1363h127v-595h740v595h127v-1363zM365 1714h125l183 -145h5l184 145h124l-272 -211h-75z" />
    <glyph glyph-name="hcaron" unicode="&#x21f;" horiz-adv-x="1141" 
d="M164 0v1436h126v-551h5q28 71 106.5 123t201.5 52q170 0 275.5 -110t105.5 -289v-661h-126v638q0 137 -71 222t-202 85q-139 0 -217 -88.5t-78 -232.5v-624h-126zM-30 1903h107l146 -223h3l140 225h108l-207 -307h-83z" />
    <glyph glyph-name="Adotaccent" unicode="&#x226;" horiz-adv-x="1172" 
d="M165 0h-132l490 1363h126l489 -1363h-137l-149 436h-537zM585 1206h-4l-230 -665h464zM501 1621q0 37 25 62.5t60 25.5q38 0 63.5 -25t25.5 -63q0 -37 -25.5 -61t-63.5 -24q-36 0 -60.5 24.5t-24.5 60.5z" />
    <glyph glyph-name="adotaccent" unicode="&#x227;" horiz-adv-x="1038" 
d="M756 152q-39 -69 -118.5 -119t-197.5 -50q-153 0 -247 85.5t-94 227.5q0 137 93.5 217.5t267.5 80.5h295v137q0 216 -246 216q-116 0 -175.5 -48.5t-69.5 -127.5h-123q8 130 103 209.5t272 79.5q173 0 269.5 -80.5t96.5 -243.5v-736h-122v152h-4zM467 93q122 0 205 74.5
t83 187.5v132h-291q-118 0 -176 -50.5t-58 -137.5q0 -98 67.5 -152t169.5 -54zM433 1301q0 37 25 62.5t60 25.5q38 0 63.5 -25t25.5 -63q0 -37 -25.5 -61t-63.5 -24q-36 0 -60.5 24.5t-24.5 60.5z" />
    <glyph glyph-name="Ecedilla" unicode="&#x228;" horiz-adv-x="1085" 
d="M558 -464q-73 -3 -141 15v86q47 -14 119 -14q54 0 93 22t39 68q0 48 -40 65t-112 17h-51v64l56 141h-344v1363h795v-117h-668v-491h633v-115h-633v-524h668v-116h-356l-49 -126q95 0 153.5 -39t58.5 -118q0 -87 -63 -132.5t-158 -48.5z" />
    <glyph glyph-name="ecedilla" unicode="&#x229;" horiz-adv-x="1053" 
d="M238 604h582v3q0 156 -78.5 249t-212.5 93t-212.5 -94t-78.5 -248v-3zM531 -478q-79 -3 -140 16v85q47 -14 119 -14q54 0 93 22t39 68q0 34 -22.5 53t-53 24t-76.5 5h-51v64l55 140q-186 15 -284 143t-98 337v101q0 227 108.5 360.5t308.5 133.5q201 0 309 -131.5
t108 -360.5v-73h-708v-37q0 -160 77.5 -261t225.5 -101q116 0 179.5 52t78.5 124h132q-7 -47 -29.5 -92t-62 -88t-104.5 -72t-146 -36l-48 -124q95 0 153 -39t58 -118q0 -87 -63.5 -132.5t-157.5 -48.5z" />
    <glyph glyph-name="Odieresismacron" unicode="&#x22a;" horiz-adv-x="1307" 
d="M462 1579q0 30 20 50.5t49 20.5q30 0 50 -20.5t20 -50.5q0 -29 -20 -50t-50 -21q-29 0 -49 21t-20 50zM746 1579q0 30 20.5 50.5t49.5 20.5q30 0 49.5 -20.5t19.5 -50.5q0 -29 -20 -50t-49 -21t-49.5 21t-20.5 50zM248 789v-225q0 -228 111 -352.5t294 -124.5
q184 0 294.5 124.5t110.5 352.5v225q0 229 -111.5 358.5t-293.5 129.5t-293.5 -129.5t-111.5 -358.5zM122 566v221q0 281 143.5 443.5t388.5 162.5q246 0 388.5 -162.5t142.5 -444.5v-220q0 -280 -143 -438t-390 -158t-388.5 158t-141.5 438zM923 1802h-540v77h540v-77z" />
    <glyph glyph-name="odieresismacron" unicode="&#x22b;" horiz-adv-x="1094" 
d="M308 1264q0 36 23 59.5t56 23.5q35 0 58 -23.5t23 -59.5q0 -34 -23.5 -58t-57.5 -24q-33 0 -56 24t-23 58zM627 1264q0 36 23 59.5t56 23.5q35 0 58.5 -23.5t23.5 -59.5q0 -34 -23.5 -58t-58.5 -24q-32 0 -55.5 24t-23.5 58zM547 1060q208 0 322 -130.5t114 -353.5v-110
q0 -224 -113.5 -353.5t-322.5 -129.5t-322.5 129t-113.5 354v110q0 220 114 352t322 132zM547 949q-154 0 -232.5 -106t-78.5 -281v-81q0 -177 78 -281t234 -104q154 0 231.5 103.5t77.5 281.5v81q0 175 -78 281t-232 106zM817 1509h-546v84h546v-84z" />
    <glyph glyph-name="Otildemacron" unicode="&#x22c;" horiz-adv-x="1307" 
d="M248 789v-225q0 -228 111 -352.5t294 -124.5q184 0 294.5 124.5t110.5 352.5v225q0 229 -111.5 358.5t-293.5 129.5t-293.5 -129.5t-111.5 -358.5zM122 566v221q0 281 143.5 443.5t388.5 162.5q246 0 388.5 -162.5t142.5 -444.5v-220q0 -280 -143 -438t-390 -158
t-388.5 158t-141.5 438zM623 1554q-17 19 -27 29t-27 19.5t-34 9.5q-69 0 -73 -108h-83q0 82 40 134.5t116 52.5q40 0 71.5 -18t68.5 -57q18 -20 27 -29t24.5 -17t33.5 -8q35 0 56.5 34.5t23.5 80.5h83q0 -76 -44 -132.5t-113 -56.5q-50 0 -80.5 16t-62.5 50zM923 1802h-540
v77h540v-77z" />
    <glyph glyph-name="otildemacron" unicode="&#x22d;" horiz-adv-x="1094" 
d="M512 1243q-19 22 -29.5 33t-29 22t-37.5 11q-75 0 -79 -122h-88q0 92 43 150t124 58q44 0 78 -20t72 -63q19 -22 30 -32.5t27.5 -19t35.5 -8.5q38 0 61.5 38.5t25.5 89.5h87q0 -84 -47 -147t-121 -63q-53 0 -86.5 18t-66.5 55zM817 1509h-546v84h546v-84zM547 1060
q208 0 322 -130.5t114 -353.5v-110q0 -224 -113.5 -353.5t-322.5 -129.5t-322.5 129t-113.5 354v110q0 220 114 352t322 132zM547 949q-154 0 -232.5 -106t-78.5 -281v-81q0 -177 78 -281t234 -104q154 0 231.5 103.5t77.5 281.5v81q0 175 -78 281t-232 106z" />
    <glyph glyph-name="Odotaccent" unicode="&#x22e;" horiz-adv-x="1307" 
d="M568 1621q0 37 25 62.5t60 25.5q38 0 63.5 -25t25.5 -63q0 -37 -25.5 -61t-63.5 -24q-36 0 -60.5 24.5t-24.5 60.5zM248 789v-225q0 -228 111 -352.5t294 -124.5q184 0 294.5 124.5t110.5 352.5v225q0 229 -111.5 358.5t-293.5 129.5t-293.5 -129.5t-111.5 -358.5z
M122 566v221q0 281 143.5 443.5t388.5 162.5q246 0 388.5 -162.5t142.5 -444.5v-220q0 -280 -143 -438t-390 -158t-388.5 158t-141.5 438z" />
    <glyph glyph-name="odotaccent" unicode="&#x22f;" horiz-adv-x="1094" 
d="M462 1301q0 37 25 62.5t60 25.5q38 0 63.5 -25t25.5 -63q0 -37 -25.5 -61t-63.5 -24q-36 0 -60.5 24.5t-24.5 60.5zM547 1060q208 0 322 -130.5t114 -353.5v-110q0 -224 -113.5 -353.5t-322.5 -129.5t-322.5 129t-113.5 354v110q0 220 114 352t322 132zM547 949
q-154 0 -232.5 -106t-78.5 -281v-81q0 -177 78 -281t234 -104q154 0 231.5 103.5t77.5 281.5v81q0 175 -78 281t-232 106z" />
    <glyph glyph-name="Odotaccentmacron" unicode="&#x230;" horiz-adv-x="1307" 
d="M568 1621q0 37 25 62.5t60 25.5q38 0 63.5 -25t25.5 -63q0 -37 -25.5 -61t-63.5 -24q-36 0 -60.5 24.5t-24.5 60.5zM248 789v-225q0 -228 111 -352.5t294 -124.5q184 0 294.5 124.5t110.5 352.5v225q0 229 -111.5 358.5t-293.5 129.5t-293.5 -129.5t-111.5 -358.5z
M122 566v221q0 281 143.5 443.5t388.5 162.5q246 0 388.5 -162.5t142.5 -444.5v-220q0 -280 -143 -438t-390 -158t-388.5 158t-141.5 438zM923 1802h-540v77h540v-77z" />
    <glyph glyph-name="odotaccentmacron" unicode="&#x231;" horiz-adv-x="1094" 
d="M462 1301q0 37 25 62.5t60 25.5q38 0 63.5 -25t25.5 -63q0 -37 -25.5 -61t-63.5 -24q-36 0 -60.5 24.5t-24.5 60.5zM817 1509h-546v84h546v-84zM547 1060q208 0 322 -130.5t114 -353.5v-110q0 -224 -113.5 -353.5t-322.5 -129.5t-322.5 129t-113.5 354v110q0 220 114 352
t322 132zM547 949q-154 0 -232.5 -106t-78.5 -281v-81q0 -177 78 -281t234 -104q154 0 231.5 103.5t77.5 281.5v81q0 175 -78 281t-232 106z" />
    <glyph glyph-name="Ymacron" unicode="&#x232;" horiz-adv-x="1070" 
d="M598 0h-126v602l-462 761h147l375 -634h5l377 634h146l-462 -760v-603zM805 1533h-540v77h540v-77z" />
    <glyph glyph-name="ymacron" unicode="&#x233;" horiz-adv-x="983" 
d="M937 1043l-376 -1050l-34 -90q-23 -64 -46 -106.5t-58.5 -83t-87 -60.5t-119.5 -20q-52 0 -99 9v108q33 -7 81 -7q85 0 131.5 42t72.5 125l25 75l-390 1058h140l311 -913h6l309 913h134zM761 1224h-546v84h546v-84z" />
    <glyph glyph-name="circumflex" unicode="&#x2c6;" horiz-adv-x="888" 
d="M209 1207l215 306h82l208 -307h-108l-140 225h-3l-146 -224h-108z" />
    <glyph glyph-name="caron" unicode="&#x2c7;" horiz-adv-x="888" 
d="M184 1538h107l146 -223h3l140 225h108l-207 -307h-83z" />
    <glyph glyph-name="breve" unicode="&#x2d8;" horiz-adv-x="888" 
d="M164 1509h94q0 -73 47.5 -122t135.5 -49t134 48.5t46 122.5h95q0 -46 -16.5 -89.5t-48 -82t-86.5 -62t-124 -23.5q-70 0 -125 23.5t-87 61.5t-48.5 82t-16.5 90z" />
    <glyph glyph-name="dotaccent" unicode="&#x2d9;" horiz-adv-x="888" 
d="M370 1401q0 39 26 65.5t64 26.5q39 0 66 -26.5t27 -65.5q0 -38 -27 -64t-66 -26q-38 0 -64 26t-26 64z" />
    <glyph glyph-name="ring" unicode="&#x2da;" horiz-adv-x="888" 
d="M456 1226q-76 0 -128.5 51.5t-52.5 126.5t52.5 126t128.5 51q75 0 127 -51t52 -126t-52 -126.5t-127 -51.5zM347 1404q0 -45 32 -77.5t77 -32.5t76.5 32.5t31.5 77.5q0 46 -31 78t-77 32q-45 0 -77 -32t-32 -78z" />
    <glyph glyph-name="ogonek" unicode="&#x2db;" horiz-adv-x="888" 
d="M589 -261v-95q-39 -18 -113 -18q-80 0 -135 43.5t-55 129.5q0 56 27 106t79.5 107t55.5 61l93 -6q-143 -140 -143 -239q0 -49 29.5 -74.5t77.5 -25.5q45 0 84 11z" />
    <glyph glyph-name="tilde" unicode="&#x2dc;" horiz-adv-x="888" 
d="M371 1305q-19 22 -29.5 33t-29 22t-37.5 11q-75 0 -79 -122h-88q0 92 43 150t124 58q44 0 78 -20t72 -63q19 -22 30 -32.5t27.5 -19t35.5 -8.5q38 0 61.5 38.5t25.5 89.5h87q0 -84 -47 -147t-121 -63q-53 0 -86.5 18t-66.5 55z" />
    <glyph glyph-name="hungarumlaut" unicode="&#x2dd;" horiz-adv-x="888" 
d="M230 1208h-89l219 305h120zM475 1208h-90l219 305h120z" />
    <glyph glyph-name="gravecmb" unicode="&#x300;" 
d="M84 1210h-99l-236 279h135z" />
    <glyph glyph-name="acutecmb" unicode="&#x301;" 
d="M18 1210h-100l202 279h134z" />
    <glyph glyph-name="circumflexcmb" unicode="&#x302;" 
d="M-254 1220l215 306h82l208 -307h-108l-140 225h-3l-146 -224h-108z" />
    <glyph glyph-name="tildecmb" unicode="&#x303;" 
d="M-35 1243q-19 22 -29.5 33t-29 22t-37.5 11q-75 0 -79 -122h-88q0 92 43 150t124 58q44 0 78 -20t72 -63q19 -22 30 -32.5t27.5 -19t35.5 -8.5q38 0 61.5 38.5t25.5 89.5h87q0 -84 -47 -147t-121 -63q-53 0 -86.5 18t-66.5 55z" />
    <glyph glyph-name="macroncmb" unicode="&#x304;" 
d="M270 1224h-546v84h546v-84z" />
    <glyph glyph-name="brevecmb" unicode="&#x306;" 
d="M-279 1429h94q0 -73 47.5 -122t135.5 -49t134 48.5t46 122.5h95q0 -46 -16.5 -89.5t-48 -82t-86.5 -62t-124 -23.5q-70 0 -125 23.5t-87 61.5t-48.5 82t-16.5 90z" />
    <glyph glyph-name="dotaccentcmb" unicode="&#x307;" 
d="M-85 1301q0 37 25 62.5t60 25.5q38 0 63.5 -25t25.5 -63q0 -37 -25.5 -61t-63.5 -24q-36 0 -60.5 24.5t-24.5 60.5z" />
    <glyph glyph-name="dieresiscmb" unicode="&#x308;" 
d="M-239 1264q0 36 23 59.5t56 23.5q35 0 58 -23.5t23 -59.5q0 -34 -23.5 -58t-57.5 -24q-33 0 -56 24t-23 58zM80 1264q0 36 23 59.5t56 23.5q35 0 58.5 -23.5t23.5 -59.5q0 -34 -23.5 -58t-58.5 -24q-32 0 -55.5 24t-23.5 58z" />
    <glyph glyph-name="hookabovecmb" unicode="&#x309;" 
d="M-123 1430v86q38 21 107 21q92 0 146.5 -46t54.5 -126q0 -63 -37.5 -106t-101.5 -80l-54 71q49 29 71.5 55t22.5 58q0 38 -31 62t-77 24q-63 0 -101 -19z" />
    <glyph glyph-name="ringcmb" unicode="&#x30a;" 
d="M-181 1192q-76 0 -128.5 51.5t-52.5 126.5t52.5 126t128.5 51q75 0 127 -51t52 -126t-52 -126.5t-127 -51.5zM-290 1370q0 -45 32 -77.5t77 -32.5t76.5 32.5t31.5 77.5q0 46 -31 78t-77 32q-45 0 -77 -32t-32 -78z" />
    <glyph glyph-name="hungarumlautcmb" unicode="&#x30b;" 
d="M-100 1209h-89l219 305h120zM145 1209h-90l219 305h120z" />
    <glyph glyph-name="caroncmb" unicode="&#x30c;" 
d="M-254 1510h107l146 -223h3l140 225h108l-207 -307h-83z" />
    <glyph glyph-name="dblgravecmb" unicode="&#x30f;" 
d="M-158 1208l-250 305h120l219 -305h-89zM87 1208l-251 305h120l219 -305h-88z" />
    <glyph glyph-name="invertedbrevecmb" unicode="&#x311;" 
d="M-277 1199q0 46 16.5 90t48.5 82t87 61.5t125 23.5q69 0 124 -23.5t87 -62t48 -82.5t16 -89h-95q0 74 -46 122.5t-134 48.5t-135.5 -49t-47.5 -122h-94z" />
    <glyph glyph-name="horncmb" unicode="&#x31b;" 
d="M1 969v117q27 -28 80 -28q145 0 145 157v140h116v-138q0 -120 -61.5 -195.5t-176.5 -75.5q-71 0 -103 23z" />
    <glyph glyph-name="dotbelowcmb" unicode="&#x323;" 
d="M-87 -282q0 39 26 65t62 26q39 0 65.5 -26t26.5 -65q0 -37 -26.5 -62.5t-65.5 -25.5q-36 0 -62 25.5t-26 62.5z" />
    <glyph glyph-name="dieresisbelowcmb" unicode="&#x324;" 
d="M-240 -294q0 36 23 59.5t56 23.5q35 0 58 -23.5t23 -59.5q0 -34 -23.5 -58t-57.5 -24q-33 0 -56 24t-23 58zM79 -294q0 36 23 59.5t56 23.5q35 0 58.5 -23.5t23.5 -59.5q0 -34 -23.5 -58t-58.5 -24q-32 0 -55.5 24t-23.5 58z" />
    <glyph glyph-name="ringbelowcmb" unicode="&#x325;" 
d="M-1 -469q-76 0 -128.5 51.5t-52.5 126.5t52.5 126t128.5 51q75 0 127 -51t52 -126t-52 -126.5t-127 -51.5zM-110 -291q0 -45 32 -77.5t77 -32.5t76.5 32.5t31.5 77.5q0 46 -31 78t-77 32q-45 0 -77 -32t-32 -78z" />
    <glyph glyph-name="commabelowcmb" unicode="&#x326;" 
d="M-39 -486h-100l85 335h129z" />
    <glyph glyph-name="cedillacmb" unicode="&#x327;" 
d="M-106 -219v64l64 162h95l-57 -147q95 0 153.5 -39t58.5 -118q0 -87 -63.5 -132.5t-157.5 -48.5q-79 -3 -140 16v85q45 -14 118 -14q54 0 93 22t39 68q0 34 -22.5 53t-52.5 24t-76 5h-52z" />
    <glyph glyph-name="ogonekcmb" unicode="&#x328;" 
d="M134 -261v-95q-39 -18 -113 -18q-80 0 -135 43.5t-55 129.5q0 56 27 106t79.5 107t55.5 61l93 -6q-143 -140 -143 -239q0 -49 29.5 -74.5t77.5 -25.5q45 0 84 11z" />
    <glyph glyph-name="circumflexbelowcmb" unicode="&#x32d;" 
d="M-255 -411l215 305h82l208 -307h-108l-140 225h-3l-146 -223h-108z" />
    <glyph glyph-name="brevebelowcmb" unicode="&#x32e;" 
d="M-291 -143h102q0 -73 49.5 -122t139.5 -49q89 0 137.5 49t48.5 122h96q0 -47 -16 -90.5t-48 -82t-88.5 -61.5t-129.5 -23t-131 22.5t-91.5 60.5t-51 82t-17.5 92z" />
    <glyph glyph-name="tildebelowcmb" unicode="&#x330;" 
d="M-32 -291q-19 21 -29.5 32t-29.5 22t-37 11q-75 0 -79 -121h-88q0 92 42.5 150t123.5 58q44 0 78 -20t73 -64q20 -22 30 -32t27 -19t36 -9q38 0 61 39t25 89h88q0 -84 -47 -147t-121 -63q-53 0 -87 18.5t-66 55.5z" />
    <glyph glyph-name="macronbelowcmb" unicode="&#x331;" 
d="M269 -307h-546v84h546v-84z" />
    <glyph glyph-name="Delta" unicode="&#x394;" horiz-adv-x="1173" 
d="M34 0l489 1363h127l489 -1363h-1105zM581 1206l-375 -1090h755l-374 1090h-6z" />
    <glyph glyph-name="Omega" unicode="&#x3a9;" horiz-adv-x="1307" 
d="M760 0v140q129 38 213.5 173t84.5 320v189q0 225 -109.5 340t-295.5 115q-185 0 -295 -115t-110 -340v-189q0 -181 82 -315.5t208 -174.5v-142h-432v111h275v19q-109 42 -184 177.5t-75 327.5v183q0 278 142.5 426t389.5 148q248 0 389.5 -148t141.5 -426v-183
q0 -191 -78 -326t-190 -179v-22h285v-109h-442z" />
    <glyph glyph-name="mu" unicode="&#x3bc;" horiz-adv-x="1150" 
d="M270 88h-7l17 -422h-128v1377h127v-693q0 -129 69.5 -193t186.5 -64q134 0 219.5 88.5t85.5 208.5v653h126v-843q0 -103 93 -103q32 0 59 7v-104q-50 -10 -108 -10q-71 0 -118 43.5t-51 116.5l-1 35h-8q-28 -80 -110 -141t-213 -61q-74 0 -141 27t-98 78z" />
    <glyph glyph-name="pi" unicode="&#x3c0;" horiz-adv-x="1237" 
d="M1106 0q-48 -8 -96 -8q-82 0 -131 46t-49 123v773h-416v-934h-127v934h-238v109h1137v-109h-229v-747q0 -42 22.5 -65.5t65.5 -23.5q33 0 61 5v-103z" />
    <glyph glyph-name="Aringbelow" unicode="&#x1e00;" horiz-adv-x="1173" 
d="M165 0h-132l490 1363h126l489 -1363h-137l-149 436h-537zM585 1206h-4l-230 -665h464zM584 -438q-76 0 -128.5 51.5t-52.5 126.5t52.5 126t128.5 51q75 0 127 -51t52 -126t-52 -126.5t-127 -51.5zM475 -260q0 -45 32 -77.5t77 -32.5t76.5 32.5t31.5 77.5q0 46 -31 78
t-77 32q-45 0 -77 -32t-32 -78z" />
    <glyph glyph-name="aringbelow" unicode="&#x1e01;" horiz-adv-x="1038" 
d="M756 152q-39 -69 -118.5 -119t-197.5 -50q-153 0 -247 85.5t-94 227.5q0 137 93.5 217.5t267.5 80.5h295v137q0 216 -246 216q-116 0 -175.5 -48.5t-69.5 -127.5h-123q8 130 103 209.5t272 79.5q173 0 269.5 -80.5t96.5 -243.5v-736h-122v152h-4zM467 93q122 0 205 74.5
t83 187.5v132h-291q-118 0 -176 -50.5t-58 -137.5q0 -98 67.5 -152t169.5 -54zM517 -469q-76 0 -128.5 51.5t-52.5 126.5t52.5 126t128.5 51q75 0 127 -51t52 -126t-52 -126.5t-127 -51.5zM408 -291q0 -45 32 -77.5t77 -32.5t76.5 32.5t31.5 77.5q0 46 -31 78t-77 32
q-45 0 -77 -32t-32 -78z" />
    <glyph glyph-name="Bdotaccent" unicode="&#x1e02;" horiz-adv-x="1213" 
d="M177 0v1363h477q176 0 279.5 -89t103.5 -246q0 -125 -63.5 -202t-159.5 -105v-6q138 -18 219.5 -106.5t81.5 -232.5q0 -178 -125 -277t-340 -99h-473zM304 1247v-488h265q338 0 338 249q0 118 -73.5 178.5t-198.5 60.5h-331zM304 643v-527h291q186 0 287.5 59t101.5 198
q0 133 -88 201.5t-232 68.5h-360zM490 1621q0 37 25 62.5t60 25.5q38 0 63.5 -25t25.5 -63q0 -37 -25.5 -61t-63.5 -24q-36 0 -60.5 24.5t-24.5 60.5z" />
    <glyph glyph-name="bdotaccent" unicode="&#x1e03;" horiz-adv-x="1129" 
d="M139 1694q0 37 25 62.5t60 25.5q38 0 63.5 -25t25.5 -63q0 -37 -25.5 -61t-63.5 -24q-36 0 -60.5 24.5t-24.5 60.5zM608 -17q-128 0 -209.5 56.5t-111.5 134.5h-4v-174h-120v1436h126v-559h4q93 183 320 183q189 0 297 -126t108 -337v-149q0 -220 -111.5 -342.5
t-298.5 -122.5zM595 96q131 0 213.5 94t82.5 269v122q0 174 -80.5 271t-215.5 97q-141 0 -223.5 -102.5t-82.5 -254.5v-142q0 -70 19.5 -133t56.5 -113t96.5 -79t133.5 -29z" />
    <glyph glyph-name="Bdotbelow" unicode="&#x1e04;" horiz-adv-x="1213" 
d="M488 -282q0 39 26 65t62 26q39 0 65.5 -26t26.5 -65q0 -37 -26.5 -62.5t-65.5 -25.5q-36 0 -62 25.5t-26 62.5zM177 0v1363h477q176 0 279.5 -89t103.5 -246q0 -125 -63.5 -202t-159.5 -105v-6q138 -18 219.5 -106.5t81.5 -232.5q0 -178 -125 -277t-340 -99h-473z
M304 1247v-488h265q338 0 338 249q0 118 -73.5 178.5t-198.5 60.5h-331zM304 643v-527h291q186 0 287.5 59t101.5 198q0 133 -88 201.5t-232 68.5h-360z" />
    <glyph glyph-name="bdotbelow" unicode="&#x1e05;" horiz-adv-x="1129" 
d="M477 -282q0 39 26 65t62 26q39 0 65.5 -26t26.5 -65q0 -37 -26.5 -62.5t-65.5 -25.5q-36 0 -62 25.5t-26 62.5zM608 -17q-128 0 -209.5 56.5t-111.5 134.5h-4v-174h-120v1436h126v-559h4q93 183 320 183q189 0 297 -126t108 -337v-149q0 -220 -111.5 -342.5
t-298.5 -122.5zM595 96q131 0 213.5 94t82.5 269v122q0 174 -80.5 271t-215.5 97q-141 0 -223.5 -102.5t-82.5 -254.5v-142q0 -70 19.5 -133t56.5 -113t96.5 -79t133.5 -29z" />
    <glyph glyph-name="Blinebelow" unicode="&#x1e06;" horiz-adv-x="1213" 
d="M177 0v1363h477q176 0 279.5 -89t103.5 -246q0 -125 -63.5 -202t-159.5 -105v-6q138 -18 219.5 -106.5t81.5 -232.5q0 -178 -125 -277t-340 -99h-473zM304 1247v-488h265q338 0 338 249q0 118 -73.5 178.5t-198.5 60.5h-331zM304 643v-527h291q186 0 287.5 59t101.5 198
q0 133 -88 201.5t-232 68.5h-360zM844 -307h-546v84h546v-84z" />
    <glyph glyph-name="blinebelow" unicode="&#x1e07;" horiz-adv-x="1129" 
d="M833 -307h-546v84h546v-84zM608 -17q-128 0 -209.5 56.5t-111.5 134.5h-4v-174h-120v1436h126v-559h4q93 183 320 183q189 0 297 -126t108 -337v-149q0 -220 -111.5 -342.5t-298.5 -122.5zM595 96q131 0 213.5 94t82.5 269v122q0 174 -80.5 271t-215.5 97
q-141 0 -223.5 -102.5t-82.5 -254.5v-142q0 -70 19.5 -133t56.5 -113t96.5 -79t133.5 -29z" />
    <glyph glyph-name="Ccedillaacute" unicode="&#x1e08;" horiz-adv-x="1244" 
d="M547 1513l268 213h148l-297 -213h-119zM631 -481q-79 -3 -140 16v85q45 -14 118 -14q54 0 93 22t39 68q0 48 -40 65t-111 17h-52v64l52 131q-226 16 -347 175.5t-121 427.5v205q0 285 137.5 448.5t384.5 163.5q94 0 175 -26t137 -70t96 -101t59 -118.5t19 -124.5v-1h-126
q0 58 -24 115t-67.5 104t-113.5 76.5t-155 29.5q-186 0 -290.5 -131t-104.5 -364v-208q0 -234 104 -360.5t296 -126.5q166 0 262.5 88.5t96.5 218.5h126v-1q0 -72 -28.5 -142.5t-82 -131.5t-142 -101.5t-197.5 -46.5l-44 -114q95 0 153.5 -39t58.5 -118q0 -87 -63 -132.5
t-158 -48.5z" />
    <glyph glyph-name="ccedillaacute" unicode="&#x1e09;" horiz-adv-x="1021" 
d="M532 1210h-100l202 279h134zM521 -463q-81 -3 -141 15v86q51 -15 119 -15q54 0 93 22t39 69q0 48 -37 64.5t-108 16.5h-51v64l56 126q-180 14 -280 140.5t-100 329.5v137q0 211 113 339.5t308 128.5q91 0 166 -27.5t122.5 -72.5t73.5 -100.5t28 -113.5h-125
q-11 78 -80.5 140.5t-183.5 62.5q-142 0 -219.5 -100.5t-77.5 -265.5v-126q0 -161 80.5 -258.5t219.5 -97.5q117 0 183 51t84 128h124q-6 -106 -96 -193.5t-245 -101.5l-49 -110q94 0 149.5 -39.5t55.5 -118.5q0 -87 -63 -132t-158 -48z" />
    <glyph glyph-name="Ddotaccent" unicode="&#x1e0a;" horiz-adv-x="1289" 
d="M525 1621q0 37 25 62.5t60 25.5q38 0 63.5 -25t25.5 -63q0 -37 -25.5 -61t-63.5 -24q-36 0 -60.5 24.5t-24.5 60.5zM177 1363h402q160 0 277.5 -49.5t188 -141.5t103.5 -214t33 -277q0 -122 -19.5 -223t-64.5 -187t-113.5 -145.5t-171 -92.5t-233.5 -33h-402v1363z
M304 1247v-1131h271q475 0 475 565q0 271 -115.5 418.5t-359.5 147.5h-271z" />
    <glyph glyph-name="ddotaccent" unicode="&#x1e0b;" horiz-adv-x="1130" 
d="M818 1694q0 37 25 62.5t60 25.5q38 0 63.5 -25t25.5 -63q0 -37 -25.5 -61t-63.5 -24q-36 0 -60.5 24.5t-24.5 60.5zM518 1061q128 0 209 -54.5t109 -128.5h4v558h125v-1436h-120v175h-4q-19 -70 -104.5 -131t-219.5 -61q-190 0 -298.5 126t-108.5 333v159
q0 209 110 334.5t298 125.5zM532 948q-138 0 -217 -100t-79 -273v-108q0 -171 79 -271.5t221 -100.5q143 0 223.5 101.5t80.5 268.5v117q0 164 -82.5 265t-225.5 101z" />
    <glyph glyph-name="Ddotbelow" unicode="&#x1e0c;" horiz-adv-x="1289" 
d="M523 -282q0 39 26 65t62 26q39 0 65.5 -26t26.5 -65q0 -37 -26.5 -62.5t-65.5 -25.5q-36 0 -62 25.5t-26 62.5zM177 1363h402q160 0 277.5 -49.5t188 -141.5t103.5 -214t33 -277q0 -122 -19.5 -223t-64.5 -187t-113.5 -145.5t-171 -92.5t-233.5 -33h-402v1363zM304 1247
v-1131h271q475 0 475 565q0 271 -115.5 418.5t-359.5 147.5h-271z" />
    <glyph glyph-name="ddotbelow" unicode="&#x1e0d;" horiz-adv-x="1130" 
d="M477 -282q0 39 26 65t62 26q39 0 65.5 -26t26.5 -65q0 -37 -26.5 -62.5t-65.5 -25.5q-36 0 -62 25.5t-26 62.5zM518 1061q128 0 209 -54.5t109 -128.5h4v558h125v-1436h-120v175h-4q-19 -70 -104.5 -131t-219.5 -61q-190 0 -298.5 126t-108.5 333v159q0 209 110 334.5
t298 125.5zM532 948q-138 0 -217 -100t-79 -273v-108q0 -171 79 -271.5t221 -100.5q143 0 223.5 101.5t80.5 268.5v117q0 164 -82.5 265t-225.5 101z" />
    <glyph glyph-name="Dlinebelow" unicode="&#x1e0e;" horiz-adv-x="1289" 
d="M879 -307h-546v84h546v-84zM177 1363h402q160 0 277.5 -49.5t188 -141.5t103.5 -214t33 -277q0 -122 -19.5 -223t-64.5 -187t-113.5 -145.5t-171 -92.5t-233.5 -33h-402v1363zM304 1247v-1131h271q475 0 475 565q0 271 -115.5 418.5t-359.5 147.5h-271z" />
    <glyph glyph-name="dlinebelow" unicode="&#x1e0f;" horiz-adv-x="1130" 
d="M833 -307h-546v84h546v-84zM518 1061q128 0 209 -54.5t109 -128.5h4v558h125v-1436h-120v175h-4q-19 -70 -104.5 -131t-219.5 -61q-190 0 -298.5 126t-108.5 333v159q0 209 110 334.5t298 125.5zM532 948q-138 0 -217 -100t-79 -273v-108q0 -171 79 -271.5t221 -100.5
q143 0 223.5 101.5t80.5 268.5v117q0 164 -82.5 265t-225.5 101z" />
    <glyph glyph-name="Dcommaaccent" unicode="&#x1e10;" horiz-adv-x="1289" 
d="M571 -486h-100l85 335h129zM177 1363h402q160 0 277.5 -49.5t188 -141.5t103.5 -214t33 -277q0 -122 -19.5 -223t-64.5 -187t-113.5 -145.5t-171 -92.5t-233.5 -33h-402v1363zM304 1247v-1131h271q475 0 475 565q0 271 -115.5 418.5t-359.5 147.5h-271z" />
    <glyph glyph-name="dcommaaccent" unicode="&#x1e11;" horiz-adv-x="1130" 
d="M525 -486h-100l85 335h129zM518 1061q128 0 209 -54.5t109 -128.5h4v558h125v-1436h-120v175h-4q-19 -70 -104.5 -131t-219.5 -61q-190 0 -298.5 126t-108.5 333v159q0 209 110 334.5t298 125.5zM532 948q-138 0 -217 -100t-79 -273v-108q0 -171 79 -271.5t221 -100.5
q143 0 223.5 101.5t80.5 268.5v117q0 164 -82.5 265t-225.5 101z" />
    <glyph glyph-name="Dcircumflexbelow" unicode="&#x1e12;" horiz-adv-x="1289" 
d="M177 1363h402q160 0 277.5 -49.5t188 -141.5t103.5 -214t33 -277q0 -122 -19.5 -223t-64.5 -187t-113.5 -145.5t-171 -92.5t-233.5 -33h-402v1363zM304 1247v-1131h271q475 0 475 565q0 271 -115.5 418.5t-359.5 147.5h-271zM355 -411l215 305h82l208 -307h-108l-140 225
h-3l-146 -223h-108z" />
    <glyph glyph-name="dcircumflexbelow" unicode="&#x1e13;" horiz-adv-x="1130" 
d="M518 1061q128 0 209 -54.5t109 -128.5h4v558h125v-1436h-120v175h-4q-19 -70 -104.5 -131t-219.5 -61q-190 0 -298.5 126t-108.5 333v159q0 209 110 334.5t298 125.5zM532 948q-138 0 -217 -100t-79 -273v-108q0 -171 79 -271.5t221 -100.5q143 0 223.5 101.5t80.5 268.5
v117q0 164 -82.5 265t-225.5 101zM309 -411l215 305h82l208 -307h-108l-140 225h-3l-146 -223h-108z" />
    <glyph glyph-name="Emacrongrave" unicode="&#x1e14;" horiz-adv-x="1085" 
d="M671 1724h-119l-298 213h149zM972 116v-116h-795v1363h795v-117h-668v-491h633v-115h-633v-524h668zM841 1533h-540v77h540v-77z" />
    <glyph glyph-name="emacrongrave" unicode="&#x1e15;" horiz-adv-x="1053" 
d="M610 1458h-99l-236 279h135zM541 -17q-208 0 -318.5 130.5t-110.5 351.5v101q0 227 108.5 360.5t308.5 133.5q201 0 309 -131.5t108 -360.5v-73h-708v-37q0 -160 77.5 -261t225.5 -101q116 0 179.5 52t78.5 124h132q-8 -50 -33 -98.5t-70 -92.5t-119.5 -71t-167.5 -27z
M238 604h582v3q0 156 -78.5 249t-212.5 93t-212.5 -94t-78.5 -248v-3zM796 1224h-546v84h546v-84z" />
    <glyph glyph-name="Emacronacute" unicode="&#x1e16;" horiz-adv-x="1085" 
d="M475 1723l268 213h148l-297 -213h-119zM972 116v-116h-795v1363h795v-117h-668v-491h633v-115h-633v-524h668zM841 1533h-540v77h540v-77z" />
    <glyph glyph-name="emacronacute" unicode="&#x1e17;" horiz-adv-x="1053" 
d="M544 1458h-100l202 279h134zM541 -17q-208 0 -318.5 130.5t-110.5 351.5v101q0 227 108.5 360.5t308.5 133.5q201 0 309 -131.5t108 -360.5v-73h-708v-37q0 -160 77.5 -261t225.5 -101q116 0 179.5 52t78.5 124h132q-8 -50 -33 -98.5t-70 -92.5t-119.5 -71t-167.5 -27z
M238 604h582v3q0 156 -78.5 249t-212.5 93t-212.5 -94t-78.5 -248v-3zM796 1224h-546v84h546v-84z" />
    <glyph glyph-name="Ecircumflexbelow" unicode="&#x1e18;" horiz-adv-x="1085" 
d="M972 116v-116h-795v1363h795v-117h-668v-491h633v-115h-633v-524h668zM316 -411l215 305h82l208 -307h-108l-140 225h-3l-146 -223h-108z" />
    <glyph glyph-name="ecircumflexbelow" unicode="&#x1e19;" horiz-adv-x="1053" 
d="M541 -17q-208 0 -318.5 130.5t-110.5 351.5v101q0 227 108.5 360.5t308.5 133.5q201 0 309 -131.5t108 -360.5v-73h-708v-37q0 -160 77.5 -261t225.5 -101q116 0 179.5 52t78.5 124h132q-8 -50 -33 -98.5t-70 -92.5t-119.5 -71t-167.5 -27zM238 604h582v3
q0 156 -78.5 249t-212.5 93t-212.5 -94t-78.5 -248v-3zM275 -411l215 305h82l208 -307h-108l-140 225h-3l-146 -223h-108z" />
    <glyph glyph-name="Etildebelow" unicode="&#x1e1a;" horiz-adv-x="1085" 
d="M539 -291q-19 21 -29.5 32t-29.5 22t-37 11q-75 0 -79 -121h-88q0 92 42.5 150t123.5 58q44 0 78 -20t73 -64q20 -22 30 -32t27 -19t36 -9q38 0 61 39t25 89h88q0 -84 -47 -147t-121 -63q-53 0 -87 18.5t-66 55.5zM972 116v-116h-795v1363h795v-117h-668v-491h633v-115
h-633v-524h668z" />
    <glyph glyph-name="etildebelow" unicode="&#x1e1b;" horiz-adv-x="1053" 
d="M498 -291q-19 21 -29.5 32t-29.5 22t-37 11q-75 0 -79 -121h-88q0 92 42.5 150t123.5 58q44 0 78 -20t73 -64q20 -22 30 -32t27 -19t36 -9q38 0 61 39t25 89h88q0 -84 -47 -147t-121 -63q-53 0 -87 18.5t-66 55.5zM541 -17q-208 0 -318.5 130.5t-110.5 351.5v101
q0 227 108.5 360.5t308.5 133.5q201 0 309 -131.5t108 -360.5v-73h-708v-37q0 -160 77.5 -261t225.5 -101q116 0 179.5 52t78.5 124h132q-8 -50 -33 -98.5t-70 -92.5t-119.5 -71t-167.5 -27zM238 604h582v3q0 156 -78.5 249t-212.5 93t-212.5 -94t-78.5 -248v-3z" />
    <glyph glyph-name="Ecedillabreve" unicode="&#x1e1c;" horiz-adv-x="1085" 
d="M558 -464q-73 -3 -141 15v86q47 -14 119 -14q54 0 93 22t39 68q0 48 -40 65t-112 17h-51v64l56 141h-344v1363h795v-117h-668v-491h633v-115h-633v-524h668v-116h-356l-49 -126q95 0 153.5 -39t58.5 -118q0 -87 -63 -132.5t-158 -48.5zM273 1736h95q0 -66 55.5 -109.5
t147.5 -43.5q91 0 145.5 43t54.5 110h95q0 -46 -16.5 -88t-50.5 -77.5t-92.5 -56.5t-135.5 -21t-136 21t-93.5 56.5t-51.5 77.5t-17 88z" />
    <glyph glyph-name="ecedillabreve" unicode="&#x1e1d;" horiz-adv-x="1053" 
d="M247 1429h94q0 -73 47.5 -122t135.5 -49t134 48.5t46 122.5h95q0 -46 -16.5 -89.5t-48 -82t-86.5 -62t-124 -23.5q-70 0 -125 23.5t-87 61.5t-48.5 82t-16.5 90zM238 604h582v3q0 156 -78.5 249t-212.5 93t-212.5 -94t-78.5 -248v-3zM531 -478q-79 -3 -140 16v85
q47 -14 119 -14q54 0 93 22t39 68q0 34 -22.5 53t-53 24t-76.5 5h-51v64l55 140q-186 15 -284 143t-98 337v101q0 227 108.5 360.5t308.5 133.5q201 0 309 -131.5t108 -360.5v-73h-708v-37q0 -160 77.5 -261t225.5 -101q116 0 179.5 52t78.5 124h132q-7 -47 -29.5 -92
t-62 -88t-104.5 -72t-146 -36l-48 -124q95 0 153 -39t58 -118q0 -87 -63.5 -132.5t-157.5 -48.5z" />
    <glyph glyph-name="Fdotaccent" unicode="&#x1e1e;" horiz-adv-x="1015" 
d="M462 1621q0 37 25 62.5t60 25.5q38 0 63.5 -25t25.5 -63q0 -37 -25.5 -61t-63.5 -24q-36 0 -60.5 24.5t-24.5 60.5zM304 0h-127v1363h783v-117h-656v-513h602v-116h-602v-617z" />
    <glyph glyph-name="fdotaccent" unicode="&#x1e1f;" horiz-adv-x="653" 
d="M297 1699q0 37 25 62.5t60 25.5q38 0 63.5 -25t25.5 -63q0 -37 -25.5 -61t-63.5 -24q-36 0 -60.5 24.5t-24.5 60.5zM218 0v935h-159v108h159v116q0 146 71.5 213.5t222.5 67.5q40 0 85 -8v-106q-45 5 -73 5q-95 0 -137.5 -39t-42.5 -139v-110h236v-108h-236v-935h-126z
" />
    <glyph glyph-name="Gmacron" unicode="&#x1e20;" horiz-adv-x="1266" 
d="M1140 975h-126q-14 137 -112.5 219.5t-250.5 82.5q-179 0 -290.5 -125t-111.5 -363v-205q0 -231 102.5 -364t295.5 -133q166 0 269.5 89t103.5 237v158h-382v117h506v-275q0 -63 -17.5 -124.5t-56.5 -119.5t-95 -102t-140.5 -70.5t-185.5 -26.5q-258 0 -392.5 165
t-134.5 449v205q0 281 144 442.5t388 161.5q113 0 205 -34.5t151 -93.5t92 -133t38 -157zM916 1533h-540v77h540v-77z" />
    <glyph glyph-name="gmacron" unicode="&#x1e21;" horiz-adv-x="1102" 
d="M820 1224h-546v84h546v-84zM524 -268q148 0 227 73.5t79 202.5v196h-4q-19 -44 -57 -84t-107 -71t-151 -31q-177 0 -294 121.5t-117 320.5v153q0 203 118 325t295 122q69 0 125 -16.5t93 -45.5t60.5 -58t38.5 -62h4v165h121v-1030q0 -191 -116 -292.5t-320 -101.5
q-96 0 -172 25.5t-122 68t-71 93t-28 106.5h131q8 -73 76 -126.5t191 -53.5zM532 949q-136 0 -221 -96t-85 -264v-109q0 -163 86 -256.5t221 -93.5q92 0 161 48.5t102 124.5t33 167v121q0 152 -81 255t-216 103z" />
    <glyph glyph-name="Hdotaccent" unicode="&#x1e22;" horiz-adv-x="1348" 
d="M1171 0h-127v652h-740v-652h-127v1363h127v-595h740v595h127v-1363zM588 1621q0 37 25 62.5t60 25.5q38 0 63.5 -25t25.5 -63q0 -37 -25.5 -61t-63.5 -24q-36 0 -60.5 24.5t-24.5 60.5z" />
    <glyph glyph-name="hdotaccent" unicode="&#x1e23;" horiz-adv-x="1141" 
d="M164 0v1436h126v-551h5q28 71 106.5 123t201.5 52q170 0 275.5 -110t105.5 -289v-661h-126v638q0 137 -71 222t-202 85q-139 0 -217 -88.5t-78 -232.5v-624h-126zM139 1694q0 37 25 62.5t60 25.5q38 0 63.5 -25t25.5 -63q0 -37 -25.5 -61t-63.5 -24q-36 0 -60.5 24.5
t-24.5 60.5z" />
    <glyph glyph-name="Hdotbelow" unicode="&#x1e24;" horiz-adv-x="1348" 
d="M1171 0h-127v652h-740v-652h-127v1363h127v-595h740v595h127v-1363zM586 -282q0 39 26 65t62 26q39 0 65.5 -26t26.5 -65q0 -37 -26.5 -62.5t-65.5 -25.5q-36 0 -62 25.5t-26 62.5z" />
    <glyph glyph-name="hdotbelow" unicode="&#x1e25;" horiz-adv-x="1141" 
d="M164 0v1436h126v-551h5q28 71 106.5 123t201.5 52q170 0 275.5 -110t105.5 -289v-661h-126v638q0 137 -71 222t-202 85q-139 0 -217 -88.5t-78 -232.5v-624h-126zM477 -282q0 39 26 65t62 26q39 0 65.5 -26t26.5 -65q0 -37 -26.5 -62.5t-65.5 -25.5q-36 0 -62 25.5
t-26 62.5z" />
    <glyph glyph-name="Hdieresis" unicode="&#x1e26;" horiz-adv-x="1348" 
d="M1171 0h-127v652h-740v-652h-127v1363h127v-595h740v595h127v-1363zM482 1579q0 30 20 50.5t49 20.5q30 0 50 -20.5t20 -50.5q0 -29 -20 -50t-50 -21q-29 0 -49 21t-20 50zM766 1579q0 30 20.5 50.5t49.5 20.5q30 0 49.5 -20.5t19.5 -50.5q0 -29 -20 -50t-49 -21
t-49.5 21t-20.5 50z" />
    <glyph glyph-name="hdieresis" unicode="&#x1e27;" horiz-adv-x="1141" 
d="M164 0v1436h126v-551h5q28 71 106.5 123t201.5 52q170 0 275.5 -110t105.5 -289v-661h-126v638q0 137 -71 222t-202 85q-139 0 -217 -88.5t-78 -232.5v-624h-126zM-15 1657q0 36 23 59.5t56 23.5q35 0 58 -23.5t23 -59.5q0 -34 -23.5 -58t-57.5 -24q-33 0 -56 24t-23 58z
M304 1657q0 36 23 59.5t56 23.5q35 0 58.5 -23.5t23.5 -59.5q0 -34 -23.5 -58t-58.5 -24q-32 0 -55.5 24t-23.5 58z" />
    <glyph glyph-name="Hcedilla" unicode="&#x1e28;" horiz-adv-x="1348" 
d="M247 -464q-75 -3 -140 15v86q45 -14 118 -14q54 0 93 22t39 68q0 48 -40 65t-111 17h-52v64l57 141h-34v1363h127v-595h740v595h127v-1363h-127v652h-740v-652l-48 -126q95 0 153.5 -39t58.5 -118q0 -87 -63 -132.5t-158 -48.5z" />
    <glyph glyph-name="hcedilla" unicode="&#x1e29;" horiz-adv-x="1141" 
d="M227 -478q-79 -3 -140 16v85q45 -14 118 -14q54 0 93 22t39 68q0 49 -40 65.5t-112 16.5h-51v64l61 155h-31v1436h126v-551h5q28 71 106.5 123t201.5 52q170 0 275.5 -110t105.5 -289v-661h-126v638q0 137 -71 222t-202 85q-139 0 -217 -88.5t-78 -232.5v-624l-54 -140
q95 0 153.5 -39t58.5 -118q0 -87 -63.5 -132.5t-157.5 -48.5z" />
    <glyph glyph-name="Hbrevebelow" unicode="&#x1e2a;" horiz-adv-x="1348" 
d="M382 -143q0 -48 17.5 -92t51 -82t91.5 -60.5t131 -22.5t129.5 23t88.5 61.5t48 82t16 90.5h-96q0 -73 -48.5 -122t-137.5 -49q-90 0 -139.5 49t-49.5 122h-102zM1171 0h-127v652h-740v-652h-127v1363h127v-595h740v595h127v-1363z" />
    <glyph glyph-name="hbrevebelow" unicode="&#x1e2b;" horiz-adv-x="1141" 
d="M273 -143q0 -48 17.5 -92t51 -82t91.5 -60.5t131 -22.5t129.5 23t88.5 61.5t48 82t16 90.5h-96q0 -73 -48.5 -122t-137.5 -49q-90 0 -139.5 49t-49.5 122h-102zM164 0v1436h126v-551h5q28 71 106.5 123t201.5 52q170 0 275.5 -110t105.5 -289v-661h-126v638
q0 137 -71 222t-202 85q-139 0 -217 -88.5t-78 -232.5v-624h-126z" />
    <glyph glyph-name="Itildebelow" unicode="&#x1e2c;" horiz-adv-x="493" 
d="M310 0h-127v1363h127v-1363zM214 -291q-19 21 -29.5 32t-29.5 22t-37 11q-75 0 -79 -121h-88q0 92 42.5 150t123.5 58q44 0 78 -20t73 -64q20 -22 30 -32t27 -19t36 -9q38 0 61 39t25 89h88q0 -84 -47 -147t-121 -63q-53 0 -87 18.5t-66 55.5z" />
    <glyph glyph-name="itildebelow" unicode="&#x1e2d;" horiz-adv-x="498" 
d="M186 0v1043h126v-1043h-126zM158 1310q0 39 26 64.5t64 25.5q39 0 65.5 -25.5t26.5 -64.5t-26.5 -65t-65.5 -26q-38 0 -64 26t-26 65zM216 -291q-19 21 -29.5 32t-29.5 22t-37 11q-75 0 -79 -121h-88q0 92 42.5 150t123.5 58q44 0 78 -20t73 -64q20 -22 30 -32t27 -19
t36 -9q38 0 61 39t25 89h88q0 -84 -47 -147t-121 -63q-53 0 -87 18.5t-66 55.5z" />
    <glyph glyph-name="Idieresisacute" unicode="&#x1e2e;" horiz-adv-x="493" 
d="M310 0h-127v1363h127v-1363zM150 1723l268 213h148l-297 -213h-119zM55 1579q0 30 20 50.5t49 20.5q30 0 50 -20.5t20 -50.5q0 -29 -20 -50t-50 -21q-29 0 -49 21t-20 50zM339 1579q0 30 20.5 50.5t49.5 20.5q30 0 49.5 -20.5t19.5 -50.5q0 -29 -20 -50t-49 -21t-49.5 21
t-20.5 50z" />
    <glyph glyph-name="idieresisacute" unicode="&#x1e2f;" horiz-adv-x="483" 
d="M259 1458h-100l202 279h134zM178 0v1043h126v-1043h-126zM2 1264q0 36 23 59.5t56 23.5q35 0 58 -23.5t23 -59.5q0 -34 -23.5 -58t-57.5 -24q-33 0 -56 24t-23 58zM321 1264q0 36 23 59.5t56 23.5q35 0 58.5 -23.5t23.5 -59.5q0 -34 -23.5 -58t-58.5 -24q-32 0 -55.5 24
t-23.5 58z" />
    <glyph glyph-name="Kacute" unicode="&#x1e30;" horiz-adv-x="1147" 
d="M460 1513l268 213h148l-297 -213h-119zM1101 1363l-531 -590l561 -773h-164l-492 685l-171 -184v-501h-127v1363h127v-693h5l637 693h155z" />
    <glyph glyph-name="kacute" unicode="&#x1e31;" horiz-adv-x="995" 
d="M290 405v-405h-126v1436h126v-888h5l490 501h150l-435 -450l458 -599h-153l-397 518zM242 1603h-100l202 279h134z" />
    <glyph glyph-name="Kdotbelow" unicode="&#x1e32;" horiz-adv-x="1147" 
d="M486 -282q0 39 26 65t62 26q39 0 65.5 -26t26.5 -65q0 -37 -26.5 -62.5t-65.5 -25.5q-36 0 -62 25.5t-26 62.5zM1101 1363l-531 -590l561 -773h-164l-492 685l-171 -184v-501h-127v1363h127v-693h5l637 693h155z" />
    <glyph glyph-name="kdotbelow" unicode="&#x1e33;" horiz-adv-x="995" 
d="M429 -282q0 39 26 65t62 26q39 0 65.5 -26t26.5 -65q0 -37 -26.5 -62.5t-65.5 -25.5q-36 0 -62 25.5t-26 62.5zM290 405v-405h-126v1436h126v-888h5l490 501h150l-435 -450l458 -599h-153l-397 518z" />
    <glyph glyph-name="Klinebelow" unicode="&#x1e34;" horiz-adv-x="1147" 
d="M1101 1363l-531 -590l561 -773h-164l-492 685l-171 -184v-501h-127v1363h127v-693h5l637 693h155zM842 -307h-546v84h546v-84z" />
    <glyph glyph-name="klinebelow" unicode="&#x1e35;" horiz-adv-x="995" 
d="M290 405v-405h-126v1436h126v-888h5l490 501h150l-435 -450l458 -599h-153l-397 518zM785 -307h-546v84h546v-84z" />
    <glyph glyph-name="Ldotbelow" unicode="&#x1e36;" horiz-adv-x="996" 
d="M423 -282q0 39 26 65t62 26q39 0 65.5 -26t26.5 -65q0 -37 -26.5 -62.5t-65.5 -25.5q-36 0 -62 25.5t-26 62.5zM960 116v-116h-783v1363h127v-1247h656z" />
    <glyph glyph-name="ldotbelow" unicode="&#x1e37;" horiz-adv-x="468" 
d="M147 -282q0 39 26 65t62 26q39 0 65.5 -26t26.5 -65q0 -37 -26.5 -62.5t-65.5 -25.5q-36 0 -62 25.5t-26 62.5zM171 0v1436h126v-1436h-126z" />
    <glyph glyph-name="Ldotbelowmacron" unicode="&#x1e38;" horiz-adv-x="996" 
d="M423 -282q0 39 26 65t62 26q39 0 65.5 -26t26.5 -65q0 -37 -26.5 -62.5t-65.5 -25.5q-36 0 -62 25.5t-26 62.5zM960 116v-116h-783v1363h127v-1247h656zM509 1533h-540v77h540v-77z" />
    <glyph glyph-name="ldotbelowmacron" unicode="&#x1e39;" horiz-adv-x="468" 
d="M147 -282q0 39 26 65t62 26q39 0 65.5 -26t26.5 -65q0 -37 -26.5 -62.5t-65.5 -25.5q-36 0 -62 25.5t-26 62.5zM171 0v1436h126v-1436h-126zM504 1617h-546v84h546v-84z" />
    <glyph glyph-name="Llinebelow" unicode="&#x1e3a;" horiz-adv-x="996" 
d="M779 -307h-546v84h546v-84zM960 116v-116h-783v1363h127v-1247h656z" />
    <glyph glyph-name="llinebelow" unicode="&#x1e3b;" horiz-adv-x="468" 
d="M503 -307h-546v84h546v-84zM171 0v1436h126v-1436h-126z" />
    <glyph glyph-name="Lcircumflexbelow" unicode="&#x1e3c;" horiz-adv-x="996" 
d="M960 116v-116h-783v1363h127v-1247h656zM255 -411l215 305h82l208 -307h-108l-140 225h-3l-146 -223h-108z" />
    <glyph glyph-name="lcircumflexbelow" unicode="&#x1e3d;" horiz-adv-x="468" 
d="M171 0v1436h126v-1436h-126zM-21 -411l215 305h82l208 -307h-108l-140 225h-3l-146 -223h-108z" />
    <glyph glyph-name="Macute" unicode="&#x1e3e;" horiz-adv-x="1576" 
d="M692 1513l268 213h148l-297 -213h-119zM297 0h-117v1363h124l482 -1115h4l483 1115h123v-1363h-116v1077h-4l-430 -972h-116l-429 972h-4v-1077z" />
    <glyph glyph-name="macute" unicode="&#x1e3f;" horiz-adv-x="1701" 
d="M868 1210h-100l202 279h134zM161 0v1043h126v-143h6q27 64 97.5 112t175.5 48q123 0 200 -50t106 -135h6q28 74 111 129.5t208 55.5q160 0 253.5 -92.5t93.5 -256.5v-711h-125v686q0 119 -65 189t-181 70q-122 0 -190 -78t-68 -196v-671h-125v673q0 130 -65.5 201
t-182.5 71q-115 0 -185 -77t-70 -202v-666h-126z" />
    <glyph glyph-name="Mdotaccent" unicode="&#x1e40;" horiz-adv-x="1576" 
d="M703 1621q0 37 25 62.5t60 25.5q38 0 63.5 -25t25.5 -63q0 -37 -25.5 -61t-63.5 -24q-36 0 -60.5 24.5t-24.5 60.5zM297 0h-117v1363h124l482 -1115h4l483 1115h123v-1363h-116v1077h-4l-430 -972h-116l-429 972h-4v-1077z" />
    <glyph glyph-name="mdotaccent" unicode="&#x1e41;" horiz-adv-x="1701" 
d="M765 1301q0 37 25 62.5t60 25.5q38 0 63.5 -25t25.5 -63q0 -37 -25.5 -61t-63.5 -24q-36 0 -60.5 24.5t-24.5 60.5zM161 0v1043h126v-143h6q27 64 97.5 112t175.5 48q123 0 200 -50t106 -135h6q28 74 111 129.5t208 55.5q160 0 253.5 -92.5t93.5 -256.5v-711h-125v686
q0 119 -65 189t-181 70q-122 0 -190 -78t-68 -196v-671h-125v673q0 130 -65.5 201t-182.5 71q-115 0 -185 -77t-70 -202v-666h-126z" />
    <glyph glyph-name="Mdotbelow" unicode="&#x1e42;" horiz-adv-x="1576" 
d="M700 -282q0 39 26 65t62 26q39 0 65.5 -26t26.5 -65q0 -37 -26.5 -62.5t-65.5 -25.5q-36 0 -62 25.5t-26 62.5zM297 0h-117v1363h124l482 -1115h4l483 1115h123v-1363h-116v1077h-4l-430 -972h-116l-429 972h-4v-1077z" />
    <glyph glyph-name="mdotbelow" unicode="&#x1e43;" horiz-adv-x="1701" 
d="M763 -282q0 39 26 65t62 26q39 0 65.5 -26t26.5 -65q0 -37 -26.5 -62.5t-65.5 -25.5q-36 0 -62 25.5t-26 62.5zM161 0v1043h126v-143h6q27 64 97.5 112t175.5 48q123 0 200 -50t106 -135h6q28 74 111 129.5t208 55.5q160 0 253.5 -92.5t93.5 -256.5v-711h-125v686
q0 119 -65 189t-181 70q-122 0 -190 -78t-68 -196v-671h-125v673q0 130 -65.5 201t-182.5 71q-115 0 -185 -77t-70 -202v-666h-126z" />
    <glyph glyph-name="Ndotaccent" unicode="&#x1e44;" horiz-adv-x="1348" 
d="M588 1621q0 37 25 62.5t60 25.5q38 0 63.5 -25t25.5 -63q0 -37 -25.5 -61t-63.5 -24q-36 0 -60.5 24.5t-24.5 60.5zM304 0h-127v1363h128l735 -1143h4v1143h127v-1363h-128l-736 1143h-3v-1143z" />
    <glyph glyph-name="ndotaccent" unicode="&#x1e45;" horiz-adv-x="1131" 
d="M480 1301q0 37 25 62.5t60 25.5q38 0 63.5 -25t25.5 -63q0 -37 -25.5 -61t-63.5 -24q-36 0 -60.5 24.5t-24.5 60.5zM161 0v1043h126v-158h4q31 74 113 124.5t201 50.5q161 0 266.5 -97.5t105.5 -269.5v-693h-127v649q0 141 -69.5 218.5t-202.5 77.5q-140 0 -215.5 -86
t-75.5 -231v-628h-126z" />
    <glyph glyph-name="Ndotbelow" unicode="&#x1e46;" horiz-adv-x="1348" 
d="M586 -282q0 39 26 65t62 26q39 0 65.5 -26t26.5 -65q0 -37 -26.5 -62.5t-65.5 -25.5q-36 0 -62 25.5t-26 62.5zM304 0h-127v1363h128l735 -1143h4v1143h127v-1363h-128l-736 1143h-3v-1143z" />
    <glyph glyph-name="ndotbelow" unicode="&#x1e47;" horiz-adv-x="1131" 
d="M478 -282q0 39 26 65t62 26q39 0 65.5 -26t26.5 -65q0 -37 -26.5 -62.5t-65.5 -25.5q-36 0 -62 25.5t-26 62.5zM161 0v1043h126v-158h4q31 74 113 124.5t201 50.5q161 0 266.5 -97.5t105.5 -269.5v-693h-127v649q0 141 -69.5 218.5t-202.5 77.5q-140 0 -215.5 -86
t-75.5 -231v-628h-126z" />
    <glyph glyph-name="Nlinebelow" unicode="&#x1e48;" horiz-adv-x="1348" 
d="M942 -307h-546v84h546v-84zM304 0h-127v1363h128l735 -1143h4v1143h127v-1363h-128l-736 1143h-3v-1143z" />
    <glyph glyph-name="nlinebelow" unicode="&#x1e49;" horiz-adv-x="1131" 
d="M834 -307h-546v84h546v-84zM161 0v1043h126v-158h4q31 74 113 124.5t201 50.5q161 0 266.5 -97.5t105.5 -269.5v-693h-127v649q0 141 -69.5 218.5t-202.5 77.5q-140 0 -215.5 -86t-75.5 -231v-628h-126z" />
    <glyph glyph-name="Ncircumflexbelow" unicode="&#x1e4a;" horiz-adv-x="1348" 
d="M304 0h-127v1363h128l735 -1143h4v1143h127v-1363h-128l-736 1143h-3v-1143zM418 -411l215 305h82l208 -307h-108l-140 225h-3l-146 -223h-108z" />
    <glyph glyph-name="ncircumflexbelow" unicode="&#x1e4b;" horiz-adv-x="1131" 
d="M161 0v1043h126v-158h4q31 74 113 124.5t201 50.5q161 0 266.5 -97.5t105.5 -269.5v-693h-127v649q0 141 -69.5 218.5t-202.5 77.5q-140 0 -215.5 -86t-75.5 -231v-628h-126zM310 -411l215 305h82l208 -307h-108l-140 225h-3l-146 -223h-108z" />
    <glyph glyph-name="Otildeacute" unicode="&#x1e4c;" horiz-adv-x="1307" 
d="M557 1723l268 213h148l-297 -213h-119zM248 789v-225q0 -228 111 -352.5t294 -124.5q184 0 294.5 124.5t110.5 352.5v225q0 229 -111.5 358.5t-293.5 129.5t-293.5 -129.5t-111.5 -358.5zM122 566v221q0 281 143.5 443.5t388.5 162.5q246 0 388.5 -162.5t142.5 -444.5
v-220q0 -280 -143 -438t-390 -158t-388.5 158t-141.5 438zM623 1554q-17 19 -27 29t-27 19.5t-34 9.5q-69 0 -73 -108h-83q0 82 40 134.5t116 52.5q40 0 71.5 -18t68.5 -57q18 -20 27 -29t24.5 -17t33.5 -8q35 0 56.5 34.5t23.5 80.5h83q0 -76 -44 -132.5t-113 -56.5
q-50 0 -80.5 16t-62.5 50z" />
    <glyph glyph-name="otildeacute" unicode="&#x1e4d;" horiz-adv-x="1094" 
d="M565 1458h-100l202 279h134zM512 1243q-19 22 -29.5 33t-29 22t-37.5 11q-75 0 -79 -122h-88q0 92 43 150t124 58q44 0 78 -20t72 -63q19 -22 30 -32.5t27.5 -19t35.5 -8.5q38 0 61.5 38.5t25.5 89.5h87q0 -84 -47 -147t-121 -63q-53 0 -86.5 18t-66.5 55zM547 1060
q208 0 322 -130.5t114 -353.5v-110q0 -224 -113.5 -353.5t-322.5 -129.5t-322.5 129t-113.5 354v110q0 220 114 352t322 132zM547 949q-154 0 -232.5 -106t-78.5 -281v-81q0 -177 78 -281t234 -104q154 0 231.5 103.5t77.5 281.5v81q0 175 -78 281t-232 106z" />
    <glyph glyph-name="Otildedieresis" unicode="&#x1e4e;" horiz-adv-x="1307" 
d="M443 1831q0 30 20 50.5t49 20.5q30 0 50 -20.5t20 -50.5q0 -29 -20 -50t-50 -21q-29 0 -49 21t-20 50zM727 1831q0 30 20.5 50.5t49.5 20.5q30 0 49.5 -20.5t19.5 -50.5q0 -29 -20 -50t-49 -21t-49.5 21t-20.5 50zM248 789v-225q0 -228 111 -352.5t294 -124.5
q184 0 294.5 124.5t110.5 352.5v225q0 229 -111.5 358.5t-293.5 129.5t-293.5 -129.5t-111.5 -358.5zM122 566v221q0 281 143.5 443.5t388.5 162.5q246 0 388.5 -162.5t142.5 -444.5v-220q0 -280 -143 -438t-390 -158t-388.5 158t-141.5 438zM623 1554q-17 19 -27 29
t-27 19.5t-34 9.5q-69 0 -73 -108h-83q0 82 40 134.5t116 52.5q40 0 71.5 -18t68.5 -57q18 -20 27 -29t24.5 -17t33.5 -8q35 0 56.5 34.5t23.5 80.5h83q0 -76 -44 -132.5t-113 -56.5q-50 0 -80.5 16t-62.5 50z" />
    <glyph glyph-name="otildedieresis" unicode="&#x1e4f;" horiz-adv-x="1094" 
d="M512 1243q-19 22 -29.5 33t-29 22t-37.5 11q-75 0 -79 -122h-88q0 92 43 150t124 58q44 0 78 -20t72 -63q19 -22 30 -32.5t27.5 -19t35.5 -8.5q38 0 61.5 38.5t25.5 89.5h87q0 -84 -47 -147t-121 -63q-53 0 -86.5 18t-66.5 55zM308 1535q0 36 23 59.5t56 23.5
q35 0 58 -23.5t23 -59.5q0 -34 -23.5 -58t-57.5 -24q-33 0 -56 24t-23 58zM627 1535q0 36 23 59.5t56 23.5q35 0 58.5 -23.5t23.5 -59.5q0 -34 -23.5 -58t-58.5 -24q-32 0 -55.5 24t-23.5 58zM547 1060q208 0 322 -130.5t114 -353.5v-110q0 -224 -113.5 -353.5
t-322.5 -129.5t-322.5 129t-113.5 354v110q0 220 114 352t322 132zM547 949q-154 0 -232.5 -106t-78.5 -281v-81q0 -177 78 -281t234 -104q154 0 231.5 103.5t77.5 281.5v81q0 175 -78 281t-232 106z" />
    <glyph glyph-name="Omacrongrave" unicode="&#x1e50;" horiz-adv-x="1307" 
d="M753 1724h-119l-298 213h149zM248 789v-225q0 -228 111 -352.5t294 -124.5q184 0 294.5 124.5t110.5 352.5v225q0 229 -111.5 358.5t-293.5 129.5t-293.5 -129.5t-111.5 -358.5zM122 566v221q0 281 143.5 443.5t388.5 162.5q246 0 388.5 -162.5t142.5 -444.5v-220
q0 -280 -143 -438t-390 -158t-388.5 158t-141.5 438zM923 1533h-540v77h540v-77z" />
    <glyph glyph-name="omacrongrave" unicode="&#x1e51;" horiz-adv-x="1094" 
d="M631 1458h-99l-236 279h135zM817 1224h-546v84h546v-84zM547 1060q208 0 322 -130.5t114 -353.5v-110q0 -224 -113.5 -353.5t-322.5 -129.5t-322.5 129t-113.5 354v110q0 220 114 352t322 132zM547 949q-154 0 -232.5 -106t-78.5 -281v-81q0 -177 78 -281t234 -104
q154 0 231.5 103.5t77.5 281.5v81q0 175 -78 281t-232 106z" />
    <glyph glyph-name="Omacronacute" unicode="&#x1e52;" horiz-adv-x="1307" 
d="M557 1723l268 213h148l-297 -213h-119zM248 789v-225q0 -228 111 -352.5t294 -124.5q184 0 294.5 124.5t110.5 352.5v225q0 229 -111.5 358.5t-293.5 129.5t-293.5 -129.5t-111.5 -358.5zM122 566v221q0 281 143.5 443.5t388.5 162.5q246 0 388.5 -162.5t142.5 -444.5
v-220q0 -280 -143 -438t-390 -158t-388.5 158t-141.5 438zM923 1533h-540v77h540v-77z" />
    <glyph glyph-name="omacronacute" unicode="&#x1e53;" horiz-adv-x="1094" 
d="M565 1458h-100l202 279h134zM817 1224h-546v84h546v-84zM547 1060q208 0 322 -130.5t114 -353.5v-110q0 -224 -113.5 -353.5t-322.5 -129.5t-322.5 129t-113.5 354v110q0 220 114 352t322 132zM547 949q-154 0 -232.5 -106t-78.5 -281v-81q0 -177 78 -281t234 -104
q154 0 231.5 103.5t77.5 281.5v81q0 175 -78 281t-232 106z" />
    <glyph glyph-name="Pacute" unicode="&#x1e54;" horiz-adv-x="1135" 
d="M450 1513l268 213h148l-297 -213h-119zM177 1363h468q195 0 311 -112.5t116 -299.5q0 -188 -115.5 -299.5t-311.5 -111.5h-341v-540h-127v1363zM304 1247v-592h260q189 0 283 67t94 229q0 140 -79 218t-222 78h-336z" />
    <glyph glyph-name="pacute" unicode="&#x1e55;" horiz-adv-x="1127" 
d="M610 -17q-127 0 -204.5 52t-114.5 126h-4v-515h-125v1398h120v-167h4q30 73 113.5 128t215.5 55q178 0 289 -123t111 -333v-166q0 -215 -113 -335t-292 -120zM595 96q129 0 211.5 93.5t82.5 270.5v126q0 172 -81 267.5t-217 95.5q-141 0 -222.5 -99.5t-81.5 -250.5v-147
q0 -150 83.5 -253t224.5 -103zM581 1210h-100l202 279h134z" />
    <glyph glyph-name="Pdotaccent" unicode="&#x1e56;" horiz-adv-x="1135" 
d="M177 1363h468q195 0 311 -112.5t116 -299.5q0 -188 -115.5 -299.5t-311.5 -111.5h-341v-540h-127v1363zM304 1247v-592h260q189 0 283 67t94 229q0 140 -79 218t-222 78h-336zM461 1621q0 37 25 62.5t60 25.5q38 0 63.5 -25t25.5 -63q0 -37 -25.5 -61t-63.5 -24
q-36 0 -60.5 24.5t-24.5 60.5z" />
    <glyph glyph-name="pdotaccent" unicode="&#x1e57;" horiz-adv-x="1127" 
d="M610 -17q-127 0 -204.5 52t-114.5 126h-4v-515h-125v1398h120v-167h4q30 73 113.5 128t215.5 55q178 0 289 -123t111 -333v-166q0 -215 -113 -335t-292 -120zM595 96q129 0 211.5 93.5t82.5 270.5v126q0 172 -81 267.5t-217 95.5q-141 0 -222.5 -99.5t-81.5 -250.5v-147
q0 -150 83.5 -253t224.5 -103zM478 1301q0 37 25 62.5t60 25.5q38 0 63.5 -25t25.5 -63q0 -37 -25.5 -61t-63.5 -24q-36 0 -60.5 24.5t-24.5 60.5z" />
    <glyph glyph-name="Rdotaccent" unicode="&#x1e58;" horiz-adv-x="1198" 
d="M646 1363q203 0 313 -112t110 -282q0 -79 -22 -145t-61 -110.5t-85 -74t-101 -46.5l293 -593h-147l-274 567h-368v-567h-127v1363h469zM304 682h320q151 0 232.5 73.5t81.5 205.5q0 137 -82.5 212t-226.5 75h-325v-566zM486 1621q0 37 25 62.5t60 25.5q38 0 63.5 -25
t25.5 -63q0 -37 -25.5 -61t-63.5 -24q-36 0 -60.5 24.5t-24.5 60.5z" />
    <glyph glyph-name="rdotaccent" unicode="&#x1e59;" horiz-adv-x="679" 
d="M173 0v1043h126v-149h4q61 165 276 165q25 0 70 -5v-118q-30 6 -85 6q-130 0 -197.5 -76.5t-67.5 -212.5v-653h-126zM304 1301q0 37 25 62.5t60 25.5q38 0 63.5 -25t25.5 -63q0 -37 -25.5 -61t-63.5 -24q-36 0 -60.5 24.5t-24.5 60.5z" />
    <glyph glyph-name="Rdotbelow" unicode="&#x1e5a;" horiz-adv-x="1198" 
d="M484 -282q0 39 26 65t62 26q39 0 65.5 -26t26.5 -65q0 -37 -26.5 -62.5t-65.5 -25.5q-36 0 -62 25.5t-26 62.5zM646 1363q203 0 313 -112t110 -282q0 -79 -22 -145t-61 -110.5t-85 -74t-101 -46.5l293 -593h-147l-274 567h-368v-567h-127v1363h469zM304 682h320
q151 0 232.5 73.5t81.5 205.5q0 137 -82.5 212t-226.5 75h-325v-566z" />
    <glyph glyph-name="rdotbelow" unicode="&#x1e5b;" horiz-adv-x="679" 
d="M150 -282q0 39 26 65t62 26q39 0 65.5 -26t26.5 -65q0 -37 -26.5 -62.5t-65.5 -25.5q-36 0 -62 25.5t-26 62.5zM173 0v1043h126v-149h4q61 165 276 165q25 0 70 -5v-118q-30 6 -85 6q-130 0 -197.5 -76.5t-67.5 -212.5v-653h-126z" />
    <glyph glyph-name="Rdotbelowmacron" unicode="&#x1e5c;" horiz-adv-x="1198" 
d="M484 -282q0 39 26 65t62 26q39 0 65.5 -26t26.5 -65q0 -37 -26.5 -62.5t-65.5 -25.5q-36 0 -62 25.5t-26 62.5zM646 1363q203 0 313 -112t110 -282q0 -79 -22 -145t-61 -110.5t-85 -74t-101 -46.5l293 -593h-147l-274 567h-368v-567h-127v1363h469zM304 682h320
q151 0 232.5 73.5t81.5 205.5q0 137 -82.5 212t-226.5 75h-325v-566zM841 1533h-540v77h540v-77z" />
    <glyph glyph-name="rdotbelowmacron" unicode="&#x1e5d;" horiz-adv-x="679" 
d="M150 -282q0 39 26 65t62 26q39 0 65.5 -26t26.5 -65q0 -37 -26.5 -62.5t-65.5 -25.5q-36 0 -62 25.5t-26 62.5zM173 0v1043h126v-149h4q61 165 276 165q25 0 70 -5v-118q-30 6 -85 6q-130 0 -197.5 -76.5t-67.5 -212.5v-653h-126zM659 1224h-546v84h546v-84z" />
    <glyph glyph-name="Rlinebelow" unicode="&#x1e5e;" horiz-adv-x="1198" 
d="M646 1363q203 0 313 -112t110 -282q0 -79 -22 -145t-61 -110.5t-85 -74t-101 -46.5l293 -593h-147l-274 567h-368v-567h-127v1363h469zM304 682h320q151 0 232.5 73.5t81.5 205.5q0 137 -82.5 212t-226.5 75h-325v-566zM840 -307h-546v84h546v-84z" />
    <glyph glyph-name="rlinebelow" unicode="&#x1e5f;" horiz-adv-x="679" 
d="M173 0v1043h126v-149h4q61 165 276 165q25 0 70 -5v-118q-30 6 -85 6q-130 0 -197.5 -76.5t-67.5 -212.5v-653h-126zM506 -307h-546v84h546v-84z" />
    <glyph glyph-name="Sdotaccent" unicode="&#x1e60;" horiz-adv-x="1144" 
d="M77 357h129q4 -51 27.5 -98t66 -86t112 -62.5t157.5 -23.5q156 0 250.5 73.5t94.5 194.5q0 100 -63 157.5t-200 94.5l-217 57q-314 85 -314 351q0 117 62.5 205t164.5 132t227 44q189 0 318.5 -98.5t133.5 -270.5h-129q-7 107 -90 179.5t-235 72.5q-145 0 -233.5 -68.5
t-88.5 -187.5q0 -177 222 -235l212 -58q88 -24 150.5 -52.5t111.5 -71t73.5 -103t24.5 -139.5q0 -185 -137.5 -289.5t-352.5 -104.5q-101 0 -183.5 24.5t-135.5 63.5t-89 91t-52 103.5t-17 104.5zM484 1621q0 37 25 62.5t60 25.5q38 0 63.5 -25t25.5 -63q0 -37 -25.5 -61
t-63.5 -24q-36 0 -60.5 24.5t-24.5 60.5z" />
    <glyph glyph-name="sdotaccent" unicode="&#x1e61;" horiz-adv-x="968" 
d="M114 760q0 98 52 167.5t133.5 101t183.5 31.5q176 0 268 -88t92 -211h-120q-2 33 -14.5 65t-39 62t-76 48.5t-115.5 18.5q-105 0 -172 -48t-67 -135q0 -27 8 -49.5t19.5 -39t33 -30.5t40 -23t50.5 -18.5t54 -14.5t60 -13q57 -12 95.5 -22t84.5 -26t75.5 -36.5t56 -49
t39 -67.5t12.5 -88q0 -149 -110.5 -230.5t-286.5 -81.5q-177 0 -279 82t-102 209h124q8 -78 73.5 -131t188.5 -53q126 0 196.5 51.5t70.5 139.5q0 38 -16 67.5t-37.5 47.5t-64 33.5t-73 23.5t-88.5 20q-69 15 -114 28t-94 36t-76.5 51t-46 71.5t-18.5 100.5zM398 1301
q0 37 25 62.5t60 25.5q38 0 63.5 -25t25.5 -63q0 -37 -25.5 -61t-63.5 -24q-36 0 -60.5 24.5t-24.5 60.5z" />
    <glyph glyph-name="Sdotbelow" unicode="&#x1e62;" horiz-adv-x="1144" 
d="M466 -282q0 39 26 65t62 26q39 0 65.5 -26t26.5 -65q0 -37 -26.5 -62.5t-65.5 -25.5q-36 0 -62 25.5t-26 62.5zM77 357h129q4 -51 27.5 -98t66 -86t112 -62.5t157.5 -23.5q156 0 250.5 73.5t94.5 194.5q0 100 -63 157.5t-200 94.5l-217 57q-314 85 -314 351
q0 117 62.5 205t164.5 132t227 44q189 0 318.5 -98.5t133.5 -270.5h-129q-7 107 -90 179.5t-235 72.5q-145 0 -233.5 -68.5t-88.5 -187.5q0 -177 222 -235l212 -58q88 -24 150.5 -52.5t111.5 -71t73.5 -103t24.5 -139.5q0 -185 -137.5 -289.5t-352.5 -104.5
q-101 0 -183.5 24.5t-135.5 63.5t-89 91t-52 103.5t-17 104.5z" />
    <glyph glyph-name="sdotbelow" unicode="&#x1e63;" horiz-adv-x="968" 
d="M396 -282q0 39 26 65t62 26q39 0 65.5 -26t26.5 -65q0 -37 -26.5 -62.5t-65.5 -25.5q-36 0 -62 25.5t-26 62.5zM114 760q0 98 52 167.5t133.5 101t183.5 31.5q176 0 268 -88t92 -211h-120q-2 33 -14.5 65t-39 62t-76 48.5t-115.5 18.5q-105 0 -172 -48t-67 -135
q0 -27 8 -49.5t19.5 -39t33 -30.5t40 -23t50.5 -18.5t54 -14.5t60 -13q57 -12 95.5 -22t84.5 -26t75.5 -36.5t56 -49t39 -67.5t12.5 -88q0 -149 -110.5 -230.5t-286.5 -81.5q-177 0 -279 82t-102 209h124q8 -78 73.5 -131t188.5 -53q126 0 196.5 51.5t70.5 139.5
q0 38 -16 67.5t-37.5 47.5t-64 33.5t-73 23.5t-88.5 20q-69 15 -114 28t-94 36t-76.5 51t-46 71.5t-18.5 100.5z" />
    <glyph glyph-name="Sacutedotaccent" unicode="&#x1e64;" horiz-adv-x="1144" 
d="M294 1703q0 34 22.5 57t54.5 23q35 0 58 -23t23 -57t-23 -55.5t-58 -21.5q-33 0 -55 22t-22 55zM561 1562l268 213h148l-297 -213h-119zM77 357h129q4 -51 27.5 -98t66 -86t112 -62.5t157.5 -23.5q156 0 250.5 73.5t94.5 194.5q0 100 -63 157.5t-200 94.5l-217 57
q-314 85 -314 351q0 117 62.5 205t164.5 132t227 44q189 0 318.5 -98.5t133.5 -270.5h-129q-7 107 -90 179.5t-235 72.5q-145 0 -233.5 -68.5t-88.5 -187.5q0 -177 222 -235l212 -58q88 -24 150.5 -52.5t111.5 -71t73.5 -103t24.5 -139.5q0 -185 -137.5 -289.5
t-352.5 -104.5q-101 0 -183.5 24.5t-135.5 63.5t-89 91t-52 103.5t-17 104.5z" />
    <glyph glyph-name="sacutedotaccent" unicode="&#x1e65;" horiz-adv-x="968" 
d="M237 1419q0 35 23 57.5t56 22.5q35 0 58 -22.5t23 -57.5q0 -34 -23 -56.5t-58 -22.5q-33 0 -56 22.5t-23 56.5zM114 760q0 98 52 167.5t133.5 101t183.5 31.5q176 0 268 -88t92 -211h-120q-2 33 -14.5 65t-39 62t-76 48.5t-115.5 18.5q-105 0 -172 -48t-67 -135
q0 -27 8 -49.5t19.5 -39t33 -30.5t40 -23t50.5 -18.5t54 -14.5t60 -13q57 -12 95.5 -22t84.5 -26t75.5 -36.5t56 -49t39 -67.5t12.5 -88q0 -149 -110.5 -230.5t-286.5 -81.5q-177 0 -279 82t-102 209h124q8 -78 73.5 -131t188.5 -53q126 0 196.5 51.5t70.5 139.5
q0 38 -16 67.5t-37.5 47.5t-64 33.5t-73 23.5t-88.5 20q-69 15 -114 28t-94 36t-76.5 51t-46 71.5t-18.5 100.5zM557 1210h-100l202 279h134z" />
    <glyph glyph-name="Scarondotaccent" unicode="&#x1e66;" horiz-adv-x="1144" 
d="M497 1843q0 33 21 55.5t51 22.5q33 0 55 -22.5t22 -55.5q0 -32 -21.5 -52.5t-55.5 -20.5q-30 0 -51 21t-21 52zM77 357h129q4 -51 27.5 -98t66 -86t112 -62.5t157.5 -23.5q156 0 250.5 73.5t94.5 194.5q0 100 -63 157.5t-200 94.5l-217 57q-314 85 -314 351
q0 117 62.5 205t164.5 132t227 44q189 0 318.5 -98.5t133.5 -270.5h-129q-7 107 -90 179.5t-235 72.5q-145 0 -233.5 -68.5t-88.5 -187.5q0 -177 222 -235l212 -58q88 -24 150.5 -52.5t111.5 -71t73.5 -103t24.5 -139.5q0 -185 -137.5 -289.5t-352.5 -104.5
q-101 0 -183.5 24.5t-135.5 63.5t-89 91t-52 103.5t-17 104.5zM261 1714h125l183 -145h5l184 145h124l-272 -211h-75z" />
    <glyph glyph-name="scarondotaccent" unicode="&#x1e67;" horiz-adv-x="968" 
d="M405 1687q0 35 23.5 58.5t56.5 23.5q36 0 59.5 -23t23.5 -59q0 -35 -23.5 -57.5t-59.5 -22.5q-33 0 -56.5 23t-23.5 57zM237 1510h107l146 -223h3l140 225h108l-207 -307h-83zM114 760q0 98 52 167.5t133.5 101t183.5 31.5q176 0 268 -88t92 -211h-120q-2 33 -14.5 65
t-39 62t-76 48.5t-115.5 18.5q-105 0 -172 -48t-67 -135q0 -27 8 -49.5t19.5 -39t33 -30.5t40 -23t50.5 -18.5t54 -14.5t60 -13q57 -12 95.5 -22t84.5 -26t75.5 -36.5t56 -49t39 -67.5t12.5 -88q0 -149 -110.5 -230.5t-286.5 -81.5q-177 0 -279 82t-102 209h124
q8 -78 73.5 -131t188.5 -53q126 0 196.5 51.5t70.5 139.5q0 38 -16 67.5t-37.5 47.5t-64 33.5t-73 23.5t-88.5 20q-69 15 -114 28t-94 36t-76.5 51t-46 71.5t-18.5 100.5z" />
    <glyph glyph-name="Sdotbelowdotaccent" unicode="&#x1e68;" horiz-adv-x="1144" 
d="M466 -282q0 39 26 65t62 26q39 0 65.5 -26t26.5 -65q0 -37 -26.5 -62.5t-65.5 -25.5q-36 0 -62 25.5t-26 62.5zM77 357h129q4 -51 27.5 -98t66 -86t112 -62.5t157.5 -23.5q156 0 250.5 73.5t94.5 194.5q0 100 -63 157.5t-200 94.5l-217 57q-314 85 -314 351
q0 117 62.5 205t164.5 132t227 44q189 0 318.5 -98.5t133.5 -270.5h-129q-7 107 -90 179.5t-235 72.5q-145 0 -233.5 -68.5t-88.5 -187.5q0 -177 222 -235l212 -58q88 -24 150.5 -52.5t111.5 -71t73.5 -103t24.5 -139.5q0 -185 -137.5 -289.5t-352.5 -104.5
q-101 0 -183.5 24.5t-135.5 63.5t-89 91t-52 103.5t-17 104.5zM484 1621q0 37 25 62.5t60 25.5q38 0 63.5 -25t25.5 -63q0 -37 -25.5 -61t-63.5 -24q-36 0 -60.5 24.5t-24.5 60.5z" />
    <glyph glyph-name="sdotbelowdotaccent" unicode="&#x1e69;" horiz-adv-x="968" 
d="M396 -282q0 39 26 65t62 26q39 0 65.5 -26t26.5 -65q0 -37 -26.5 -62.5t-65.5 -25.5q-36 0 -62 25.5t-26 62.5zM114 760q0 98 52 167.5t133.5 101t183.5 31.5q176 0 268 -88t92 -211h-120q-2 33 -14.5 65t-39 62t-76 48.5t-115.5 18.5q-105 0 -172 -48t-67 -135
q0 -27 8 -49.5t19.5 -39t33 -30.5t40 -23t50.5 -18.5t54 -14.5t60 -13q57 -12 95.5 -22t84.5 -26t75.5 -36.5t56 -49t39 -67.5t12.5 -88q0 -149 -110.5 -230.5t-286.5 -81.5q-177 0 -279 82t-102 209h124q8 -78 73.5 -131t188.5 -53q126 0 196.5 51.5t70.5 139.5
q0 38 -16 67.5t-37.5 47.5t-64 33.5t-73 23.5t-88.5 20q-69 15 -114 28t-94 36t-76.5 51t-46 71.5t-18.5 100.5zM398 1301q0 37 25 62.5t60 25.5q38 0 63.5 -25t25.5 -63q0 -37 -25.5 -61t-63.5 -24q-36 0 -60.5 24.5t-24.5 60.5z" />
    <glyph glyph-name="Tdotaccent" unicode="&#x1e6a;" horiz-adv-x="1033" 
d="M431 1621q0 37 25 62.5t60 25.5q38 0 63.5 -25t25.5 -63q0 -37 -25.5 -61t-63.5 -24q-36 0 -60.5 24.5t-24.5 60.5zM579 0h-126v1247h-435v116h997v-116h-436v-1247z" />
    <glyph glyph-name="tdotaccent" unicode="&#x1e6b;" horiz-adv-x="651" 
d="M194 1552q0 37 25 62.5t60 25.5q38 0 63.5 -25t25.5 -63q0 -37 -25.5 -61t-63.5 -24q-36 0 -60.5 24.5t-24.5 60.5zM210 1043v259h126v-259h236v-108h-236v-672q0 -94 39.5 -128t141.5 -34q43 0 65 3v-104q-35 -7 -91 -7q-85 0 -140 15.5t-86 51.5t-43 86t-12 127v662
h-162v108h162z" />
    <glyph glyph-name="Tdotbelow" unicode="&#x1e6c;" horiz-adv-x="1033" 
d="M429 -282q0 39 26 65t62 26q39 0 65.5 -26t26.5 -65q0 -37 -26.5 -62.5t-65.5 -25.5q-36 0 -62 25.5t-26 62.5zM579 0h-126v1247h-435v116h997v-116h-436v-1247z" />
    <glyph glyph-name="tdotbelow" unicode="&#x1e6d;" horiz-adv-x="651" 
d="M310 -282q0 39 26 65t62 26q39 0 65.5 -26t26.5 -65q0 -37 -26.5 -62.5t-65.5 -25.5q-36 0 -62 25.5t-26 62.5zM210 1043v259h126v-259h236v-108h-236v-672q0 -94 39.5 -128t141.5 -34q43 0 65 3v-104q-35 -7 -91 -7q-85 0 -140 15.5t-86 51.5t-43 86t-12 127v662h-162
v108h162z" />
    <glyph glyph-name="Tlinebelow" unicode="&#x1e6e;" horiz-adv-x="1033" 
d="M785 -307h-546v84h546v-84zM579 0h-126v1247h-435v116h997v-116h-436v-1247z" />
    <glyph glyph-name="tlinebelow" unicode="&#x1e6f;" horiz-adv-x="651" 
d="M666 -307h-546v84h546v-84zM210 1043v259h126v-259h236v-108h-236v-672q0 -94 39.5 -128t141.5 -34q43 0 65 3v-104q-35 -7 -91 -7q-85 0 -140 15.5t-86 51.5t-43 86t-12 127v662h-162v108h162z" />
    <glyph glyph-name="Tcircumflexbelow" unicode="&#x1e70;" horiz-adv-x="1033" 
d="M579 0h-126v1247h-435v116h997v-116h-436v-1247zM261 -411l215 305h82l208 -307h-108l-140 225h-3l-146 -223h-108z" />
    <glyph glyph-name="tcircumflexbelow" unicode="&#x1e71;" horiz-adv-x="651" 
d="M210 1043v259h126v-259h236v-108h-236v-672q0 -94 39.5 -128t141.5 -34q43 0 65 3v-104q-35 -7 -91 -7q-85 0 -140 15.5t-86 51.5t-43 86t-12 127v662h-162v108h162zM142 -411l215 305h82l208 -307h-108l-140 225h-3l-146 -223h-108z" />
    <glyph glyph-name="Udieresisbelow" unicode="&#x1e72;" horiz-adv-x="1319" 
d="M286 1363v-891q0 -176 99.5 -280.5t274.5 -104.5q174 0 274 104t100 281v891h127v-891q0 -227 -136.5 -364.5t-364.5 -137.5t-365 139t-137 366v888h128zM419 -294q0 36 23 59.5t56 23.5q35 0 58 -23.5t23 -59.5q0 -34 -23.5 -58t-57.5 -24q-33 0 -56 24t-23 58z
M738 -294q0 36 23 59.5t56 23.5q35 0 58.5 -23.5t23.5 -59.5q0 -34 -23.5 -58t-58.5 -24q-32 0 -55.5 24t-23.5 58z" />
    <glyph glyph-name="udieresisbelow" unicode="&#x1e73;" horiz-adv-x="1127" 
d="M966 1043v-1043h-126v159h-5q-31 -75 -111.5 -125.5t-205.5 -50.5q-164 0 -265 92.5t-101 265.5v702h127v-668q0 -140 73.5 -208.5t196.5 -68.5q133 0 212 85.5t79 219.5v640h126zM323 -294q0 36 23 59.5t56 23.5q35 0 58 -23.5t23 -59.5q0 -34 -23.5 -58t-57.5 -24
q-33 0 -56 24t-23 58zM642 -294q0 36 23 59.5t56 23.5q35 0 58.5 -23.5t23.5 -59.5q0 -34 -23.5 -58t-58.5 -24q-32 0 -55.5 24t-23.5 58z" />
    <glyph glyph-name="Utildebelow" unicode="&#x1e74;" horiz-adv-x="1319" 
d="M627 -291q-19 21 -29.5 32t-29.5 22t-37 11q-75 0 -79 -121h-88q0 92 42.5 150t123.5 58q44 0 78 -20t73 -64q20 -22 30 -32t27 -19t36 -9q38 0 61 39t25 89h88q0 -84 -47 -147t-121 -63q-53 0 -87 18.5t-66 55.5zM286 1363v-891q0 -176 99.5 -280.5t274.5 -104.5
q174 0 274 104t100 281v891h127v-891q0 -227 -136.5 -364.5t-364.5 -137.5t-365 139t-137 366v888h128z" />
    <glyph glyph-name="utildebelow" unicode="&#x1e75;" horiz-adv-x="1127" 
d="M531 -291q-19 21 -29.5 32t-29.5 22t-37 11q-75 0 -79 -121h-88q0 92 42.5 150t123.5 58q44 0 78 -20t73 -64q20 -22 30 -32t27 -19t36 -9q38 0 61 39t25 89h88q0 -84 -47 -147t-121 -63q-53 0 -87 18.5t-66 55.5zM966 1043v-1043h-126v159h-5q-31 -75 -111.5 -125.5
t-205.5 -50.5q-164 0 -265 92.5t-101 265.5v702h127v-668q0 -140 73.5 -208.5t196.5 -68.5q133 0 212 85.5t79 219.5v640h126z" />
    <glyph glyph-name="Ucircumflexbelow" unicode="&#x1e76;" horiz-adv-x="1319" 
d="M286 1363v-891q0 -176 99.5 -280.5t274.5 -104.5q174 0 274 104t100 281v891h127v-891q0 -227 -136.5 -364.5t-364.5 -137.5t-365 139t-137 366v888h128zM404 -411l215 305h82l208 -307h-108l-140 225h-3l-146 -223h-108z" />
    <glyph glyph-name="ucircumflexbelow" unicode="&#x1e77;" horiz-adv-x="1127" 
d="M966 1043v-1043h-126v159h-5q-31 -75 -111.5 -125.5t-205.5 -50.5q-164 0 -265 92.5t-101 265.5v702h127v-668q0 -140 73.5 -208.5t196.5 -68.5q133 0 212 85.5t79 219.5v640h126zM308 -411l215 305h82l208 -307h-108l-140 225h-3l-146 -223h-108z" />
    <glyph glyph-name="Utildeacute" unicode="&#x1e78;" horiz-adv-x="1319" 
d="M563 1723l268 213h148l-297 -213h-119zM286 1363v-891q0 -176 99.5 -280.5t274.5 -104.5q174 0 274 104t100 281v891h127v-891q0 -227 -136.5 -364.5t-364.5 -137.5t-365 139t-137 366v888h128zM629 1554q-17 19 -27 29t-27 19.5t-34 9.5q-69 0 -73 -108h-83
q0 82 40 134.5t116 52.5q40 0 71.5 -18t68.5 -57q18 -20 27 -29t24.5 -17t33.5 -8q35 0 56.5 34.5t23.5 80.5h83q0 -76 -44 -132.5t-113 -56.5q-50 0 -80.5 16t-62.5 50z" />
    <glyph glyph-name="utildeacute" unicode="&#x1e79;" horiz-adv-x="1127" 
d="M966 1043v-1043h-126v159h-5q-31 -75 -111.5 -125.5t-205.5 -50.5q-164 0 -265 92.5t-101 265.5v702h127v-668q0 -140 73.5 -208.5t196.5 -68.5q133 0 212 85.5t79 219.5v640h126zM581 1458h-100l202 279h134zM528 1243q-19 22 -29.5 33t-29 22t-37.5 11q-75 0 -79 -122
h-88q0 92 43 150t124 58q44 0 78 -20t72 -63q19 -22 30 -32.5t27.5 -19t35.5 -8.5q38 0 61.5 38.5t25.5 89.5h87q0 -84 -47 -147t-121 -63q-53 0 -86.5 18t-66.5 55z" />
    <glyph glyph-name="Umacrondieresis" unicode="&#x1e7a;" horiz-adv-x="1319" 
d="M449 1831q0 30 20 50.5t49 20.5q30 0 50 -20.5t20 -50.5q0 -29 -20 -50t-50 -21q-29 0 -49 21t-20 50zM733 1831q0 30 20.5 50.5t49.5 20.5q30 0 49.5 -20.5t19.5 -50.5q0 -29 -20 -50t-49 -21t-49.5 21t-20.5 50zM286 1363v-891q0 -176 99.5 -280.5t274.5 -104.5
q174 0 274 104t100 281v891h127v-891q0 -227 -136.5 -364.5t-364.5 -137.5t-365 139t-137 366v888h128zM929 1533h-540v77h540v-77z" />
    <glyph glyph-name="umacrondieresis" unicode="&#x1e7b;" horiz-adv-x="1127" 
d="M966 1043v-1043h-126v159h-5q-31 -75 -111.5 -125.5t-205.5 -50.5q-164 0 -265 92.5t-101 265.5v702h127v-668q0 -140 73.5 -208.5t196.5 -68.5q133 0 212 85.5t79 219.5v640h126zM833 1224h-546v84h546v-84zM324 1535q0 36 23 59.5t56 23.5q35 0 58 -23.5t23 -59.5
q0 -34 -23.5 -58t-57.5 -24q-33 0 -56 24t-23 58zM643 1535q0 36 23 59.5t56 23.5q35 0 58.5 -23.5t23.5 -59.5q0 -34 -23.5 -58t-58.5 -24q-32 0 -55.5 24t-23.5 58z" />
    <glyph glyph-name="Vtilde" unicode="&#x1e7c;" horiz-adv-x="1178" 
d="M558 1554q-17 19 -27 29t-27 19.5t-34 9.5q-69 0 -73 -108h-83q0 82 40 134.5t116 52.5q40 0 71.5 -18t68.5 -57q18 -20 27 -29t24.5 -17t33.5 -8q35 0 56.5 34.5t23.5 80.5h83q0 -76 -44 -132.5t-113 -56.5q-50 0 -80.5 16t-62.5 50zM651 0h-129l-496 1363h144
l416 -1196h4l417 1196h144z" />
    <glyph glyph-name="vtilde" unicode="&#x1e7d;" horiz-adv-x="951" 
d="M440 1243q-19 22 -29.5 33t-29 22t-37.5 11q-75 0 -79 -122h-88q0 92 43 150t124 58q44 0 78 -20t72 -63q19 -22 30 -32.5t27.5 -19t35.5 -8.5q38 0 61.5 38.5t25.5 89.5h87q0 -84 -47 -147t-121 -63q-53 0 -86.5 18t-66.5 55zM410 0l-378 1043h140l297 -903h6l310 903
h134l-383 -1043h-126z" />
    <glyph glyph-name="Vdotbelow" unicode="&#x1e7e;" horiz-adv-x="1178" 
d="M501 -282q0 39 26 65t62 26q39 0 65.5 -26t26.5 -65q0 -37 -26.5 -62.5t-65.5 -25.5q-36 0 -62 25.5t-26 62.5zM651 0h-129l-496 1363h144l416 -1196h4l417 1196h144z" />
    <glyph glyph-name="vdotbelow" unicode="&#x1e7f;" horiz-adv-x="951" 
d="M388 -282q0 39 26 65t62 26q39 0 65.5 -26t26.5 -65q0 -37 -26.5 -62.5t-65.5 -25.5q-36 0 -62 25.5t-26 62.5zM410 0l-378 1043h140l297 -903h6l310 903h134l-383 -1043h-126z" />
    <glyph glyph-name="Wgrave" unicode="&#x1e80;" horiz-adv-x="1665" 
d="M932 1514h-119l-298 213h149zM513 0h-119l-371 1363h149l283 -1145h4l305 1145h137l305 -1145h4l284 1145h148l-372 -1363h-119l-317 1146h-5z" />
    <glyph glyph-name="wgrave" unicode="&#x1e81;" horiz-adv-x="1425" 
d="M796 1210h-99l-236 279h135zM1389 1043l-282 -1043h-124l-265 860h-4l-260 -860h-125l-294 1043h143l212 -872h6l259 872h121l264 -872h7l215 872h127z" />
    <glyph glyph-name="Wacute" unicode="&#x1e82;" horiz-adv-x="1665" 
d="M736 1513l268 213h148l-297 -213h-119zM513 0h-119l-371 1363h149l283 -1145h4l305 1145h137l305 -1145h4l284 1145h148l-372 -1363h-119l-317 1146h-5z" />
    <glyph glyph-name="wacute" unicode="&#x1e83;" horiz-adv-x="1425" 
d="M730 1210h-100l202 279h134zM1389 1043l-282 -1043h-124l-265 860h-4l-260 -860h-125l-294 1043h143l212 -872h6l259 872h121l264 -872h7l215 872h127z" />
    <glyph glyph-name="Wdieresis" unicode="&#x1e84;" horiz-adv-x="1665" 
d="M641 1579q0 30 20 50.5t49 20.5q30 0 50 -20.5t20 -50.5q0 -29 -20 -50t-50 -21q-29 0 -49 21t-20 50zM925 1579q0 30 20.5 50.5t49.5 20.5q30 0 49.5 -20.5t19.5 -50.5q0 -29 -20 -50t-49 -21t-49.5 21t-20.5 50zM513 0h-119l-371 1363h149l283 -1145h4l305 1145h137
l305 -1145h4l284 1145h148l-372 -1363h-119l-317 1146h-5z" />
    <glyph glyph-name="wdieresis" unicode="&#x1e85;" horiz-adv-x="1425" 
d="M473 1264q0 36 23 59.5t56 23.5q35 0 58 -23.5t23 -59.5q0 -34 -23.5 -58t-57.5 -24q-33 0 -56 24t-23 58zM792 1264q0 36 23 59.5t56 23.5q35 0 58.5 -23.5t23.5 -59.5q0 -34 -23.5 -58t-58.5 -24q-32 0 -55.5 24t-23.5 58zM1389 1043l-282 -1043h-124l-265 860h-4
l-260 -860h-125l-294 1043h143l212 -872h6l259 872h121l264 -872h7l215 872h127z" />
    <glyph glyph-name="Wdotaccent" unicode="&#x1e86;" horiz-adv-x="1665" 
d="M747 1621q0 37 25 62.5t60 25.5q38 0 63.5 -25t25.5 -63q0 -37 -25.5 -61t-63.5 -24q-36 0 -60.5 24.5t-24.5 60.5zM513 0h-119l-371 1363h149l283 -1145h4l305 1145h137l305 -1145h4l284 1145h148l-372 -1363h-119l-317 1146h-5z" />
    <glyph glyph-name="wdotaccent" unicode="&#x1e87;" horiz-adv-x="1425" 
d="M627 1301q0 37 25 62.5t60 25.5q38 0 63.5 -25t25.5 -63q0 -37 -25.5 -61t-63.5 -24q-36 0 -60.5 24.5t-24.5 60.5zM1389 1043l-282 -1043h-124l-265 860h-4l-260 -860h-125l-294 1043h143l212 -872h6l259 872h121l264 -872h7l215 872h127z" />
    <glyph glyph-name="Wdotbelow" unicode="&#x1e88;" horiz-adv-x="1665" 
d="M745 -282q0 39 26 65t62 26q39 0 65.5 -26t26.5 -65q0 -37 -26.5 -62.5t-65.5 -25.5q-36 0 -62 25.5t-26 62.5zM513 0h-119l-371 1363h149l283 -1145h4l305 1145h137l305 -1145h4l284 1145h148l-372 -1363h-119l-317 1146h-5z" />
    <glyph glyph-name="wdotbelow" unicode="&#x1e89;" horiz-adv-x="1425" 
d="M625 -282q0 39 26 65t62 26q39 0 65.5 -26t26.5 -65q0 -37 -26.5 -62.5t-65.5 -25.5q-36 0 -62 25.5t-26 62.5zM1389 1043l-282 -1043h-124l-265 860h-4l-260 -860h-125l-294 1043h143l212 -872h6l259 872h121l264 -872h7l215 872h127z" />
    <glyph glyph-name="Xdotaccent" unicode="&#x1e8a;" horiz-adv-x="1117" 
d="M1094 1363l-461 -687l453 -676h-155l-375 574h-8l-377 -574h-147l456 685l-452 678h154l380 -575h7l377 575h148zM473 1621q0 37 25 62.5t60 25.5q38 0 63.5 -25t25.5 -63q0 -37 -25.5 -61t-63.5 -24q-36 0 -60.5 24.5t-24.5 60.5z" />
    <glyph glyph-name="xdotaccent" unicode="&#x1e8b;" horiz-adv-x="986" 
d="M773 0l-280 422h-6l-281 -422h-144l359 519l-357 524h152l273 -417h6l279 417h144l-357 -511l364 -532h-152zM407 1301q0 37 25 62.5t60 25.5q38 0 63.5 -25t25.5 -63q0 -37 -25.5 -61t-63.5 -24q-36 0 -60.5 24.5t-24.5 60.5z" />
    <glyph glyph-name="Xdieresis" unicode="&#x1e8c;" horiz-adv-x="1117" 
d="M1094 1363l-461 -687l453 -676h-155l-375 574h-8l-377 -574h-147l456 685l-452 678h154l380 -575h7l377 575h148zM367 1579q0 30 20 50.5t49 20.5q30 0 50 -20.5t20 -50.5q0 -29 -20 -50t-50 -21q-29 0 -49 21t-20 50zM651 1579q0 30 20.5 50.5t49.5 20.5
q30 0 49.5 -20.5t19.5 -50.5q0 -29 -20 -50t-49 -21t-49.5 21t-20.5 50z" />
    <glyph glyph-name="xdieresis" unicode="&#x1e8d;" horiz-adv-x="986" 
d="M773 0l-280 422h-6l-281 -422h-144l359 519l-357 524h152l273 -417h6l279 417h144l-357 -511l364 -532h-152zM253 1264q0 36 23 59.5t56 23.5q35 0 58 -23.5t23 -59.5q0 -34 -23.5 -58t-57.5 -24q-33 0 -56 24t-23 58zM572 1264q0 36 23 59.5t56 23.5q35 0 58.5 -23.5
t23.5 -59.5q0 -34 -23.5 -58t-58.5 -24q-32 0 -55.5 24t-23.5 58z" />
    <glyph glyph-name="Ydotaccent" unicode="&#x1e8e;" horiz-adv-x="1070" 
d="M598 0h-126v602l-462 761h147l375 -634h5l377 634h146l-462 -760v-603zM450 1621q0 37 25 62.5t60 25.5q38 0 63.5 -25t25.5 -63q0 -37 -25.5 -61t-63.5 -24q-36 0 -60.5 24.5t-24.5 60.5z" />
    <glyph glyph-name="ydotaccent" unicode="&#x1e8f;" horiz-adv-x="983" 
d="M937 1043l-376 -1050l-34 -90q-23 -64 -46 -106.5t-58.5 -83t-87 -60.5t-119.5 -20q-52 0 -99 9v108q33 -7 81 -7q85 0 131.5 42t72.5 125l25 75l-390 1058h140l311 -913h6l309 913h134zM406 1301q0 37 25 62.5t60 25.5q38 0 63.5 -25t25.5 -63q0 -37 -25.5 -61
t-63.5 -24q-36 0 -60.5 24.5t-24.5 60.5z" />
    <glyph glyph-name="Zcircumflex" unicode="&#x1e90;" horiz-adv-x="1145" 
d="M88 0v94l787 1150v4h-760v115h918v-93l-783 -1150v-4h795v-116h-957zM265 1509l280 225h64l277 -225h-128l-179 149h-5l-179 -149h-130z" />
    <glyph glyph-name="zcircumflex" unicode="&#x1e91;" horiz-adv-x="964" 
d="M227 1220l215 306h82l208 -307h-108l-140 225h-3l-146 -224h-108zM109 0v92l591 838v9h-594v104h752v-92l-592 -838v-7h595v-106h-752z" />
    <glyph glyph-name="Zdotbelow" unicode="&#x1e92;" horiz-adv-x="1145" 
d="M485 -282q0 39 26 65t62 26q39 0 65.5 -26t26.5 -65q0 -37 -26.5 -62.5t-65.5 -25.5q-36 0 -62 25.5t-26 62.5zM88 0v94l787 1150v4h-760v115h918v-93l-783 -1150v-4h795v-116h-957z" />
    <glyph glyph-name="zdotbelow" unicode="&#x1e93;" horiz-adv-x="964" 
d="M394 -282q0 39 26 65t62 26q39 0 65.5 -26t26.5 -65q0 -37 -26.5 -62.5t-65.5 -25.5q-36 0 -62 25.5t-26 62.5zM109 0v92l591 838v9h-594v104h752v-92l-592 -838v-7h595v-106h-752z" />
    <glyph glyph-name="Zlinebelow" unicode="&#x1e94;" horiz-adv-x="1145" 
d="M88 0v94l787 1150v4h-760v115h918v-93l-783 -1150v-4h795v-116h-957zM841 -307h-546v84h546v-84z" />
    <glyph glyph-name="zlinebelow" unicode="&#x1e95;" horiz-adv-x="964" 
d="M750 -307h-546v84h546v-84zM109 0v92l591 838v9h-594v104h752v-92l-592 -838v-7h595v-106h-752z" />
    <glyph glyph-name="hlinebelow" unicode="&#x1e96;" horiz-adv-x="1141" 
d="M164 0v1436h126v-551h5q28 71 106.5 123t201.5 52q170 0 275.5 -110t105.5 -289v-661h-126v638q0 137 -71 222t-202 85q-139 0 -217 -88.5t-78 -232.5v-624h-126zM833 -307h-546v84h546v-84z" />
    <glyph glyph-name="tdieresis" unicode="&#x1e97;" horiz-adv-x="651" 
d="M210 1043v259h126v-259h236v-108h-236v-672q0 -94 39.5 -128t141.5 -34q43 0 65 3v-104q-35 -7 -91 -7q-85 0 -140 15.5t-86 51.5t-43 86t-12 127v662h-162v108h162zM40 1515q0 36 23 59.5t56 23.5q35 0 58 -23.5t23 -59.5q0 -34 -23.5 -58t-57.5 -24q-33 0 -56 24
t-23 58zM359 1515q0 36 23 59.5t56 23.5q35 0 58.5 -23.5t23.5 -59.5q0 -34 -23.5 -58t-58.5 -24q-32 0 -55.5 24t-23.5 58z" />
    <glyph glyph-name="wring" unicode="&#x1e98;" horiz-adv-x="1425" 
d="M1389 1043l-282 -1043h-124l-265 860h-4l-260 -860h-125l-294 1043h143l212 -872h6l259 872h121l264 -872h7l215 872h127zM712 1192q-76 0 -128.5 51.5t-52.5 126.5t52.5 126t128.5 51q75 0 127 -51t52 -126t-52 -126.5t-127 -51.5zM603 1370q0 -45 32 -77.5t77 -32.5
t76.5 32.5t31.5 77.5q0 46 -31 78t-77 32q-45 0 -77 -32t-32 -78z" />
    <glyph glyph-name="yring" unicode="&#x1e99;" horiz-adv-x="983" 
d="M937 1043l-376 -1050l-34 -90q-23 -64 -46 -106.5t-58.5 -83t-87 -60.5t-119.5 -20q-52 0 -99 9v108q33 -7 81 -7q85 0 131.5 42t72.5 125l25 75l-390 1058h140l311 -913h6l309 913h134zM491 1192q-76 0 -128.5 51.5t-52.5 126.5t52.5 126t128.5 51q75 0 127 -51t52 -126
t-52 -126.5t-127 -51.5zM382 1370q0 -45 32 -77.5t77 -32.5t76.5 32.5t31.5 77.5q0 46 -31 78t-77 32q-45 0 -77 -32t-32 -78z" />
    <glyph glyph-name="Adotbelow" unicode="&#x1ea0;" horiz-adv-x="1172" 
d="M165 0h-132l490 1363h126l489 -1363h-137l-149 436h-537zM585 1206h-4l-230 -665h464zM499 -282q0 39 26 65t62 26q39 0 65.5 -26t26.5 -65q0 -37 -26.5 -62.5t-65.5 -25.5q-36 0 -62 25.5t-26 62.5z" />
    <glyph glyph-name="adotbelow" unicode="&#x1ea1;" horiz-adv-x="1038" 
d="M756 152q-39 -69 -118.5 -119t-197.5 -50q-153 0 -247 85.5t-94 227.5q0 137 93.5 217.5t267.5 80.5h295v137q0 216 -246 216q-116 0 -175.5 -48.5t-69.5 -127.5h-123q8 130 103 209.5t272 79.5q173 0 269.5 -80.5t96.5 -243.5v-736h-122v152h-4zM467 93q122 0 205 74.5
t83 187.5v132h-291q-118 0 -176 -50.5t-58 -137.5q0 -98 67.5 -152t169.5 -54zM431 -282q0 39 26 65t62 26q39 0 65.5 -26t26.5 -65q0 -37 -26.5 -62.5t-65.5 -25.5q-36 0 -62 25.5t-26 62.5z" />
    <glyph glyph-name="Ahookabove" unicode="&#x1ea2;" horiz-adv-x="1172" 
d="M165 0h-132l490 1363h126l489 -1363h-137l-149 436h-537zM585 1206h-4l-230 -665h464zM459 1661v76q39 18 101 18q81 0 132.5 -37.5t51.5 -103.5q0 -99 -130 -152l-50 64q35 13 60.5 34t25.5 48q0 35 -27.5 51.5t-68.5 16.5q-52 0 -95 -15z" />
    <glyph glyph-name="ahookabove" unicode="&#x1ea3;" horiz-adv-x="1038" 
d="M756 152q-39 -69 -118.5 -119t-197.5 -50q-153 0 -247 85.5t-94 227.5q0 137 93.5 217.5t267.5 80.5h295v137q0 216 -246 216q-116 0 -175.5 -48.5t-69.5 -127.5h-123q8 130 103 209.5t272 79.5q173 0 269.5 -80.5t96.5 -243.5v-736h-122v152h-4zM467 93q122 0 205 74.5
t83 187.5v132h-291q-118 0 -176 -50.5t-58 -137.5q0 -98 67.5 -152t169.5 -54zM395 1430v86q38 21 107 21q92 0 146.5 -46t54.5 -126q0 -63 -37.5 -106t-101.5 -80l-54 71q49 29 71.5 55t22.5 58q0 38 -31 62t-77 24q-63 0 -101 -19z" />
    <glyph glyph-name="Acircumflexacute" unicode="&#x1ea4;" horiz-adv-x="1172" 
d="M165 0h-132l490 1363h126l489 -1363h-137l-149 436h-537zM585 1206h-4l-230 -665h464zM277 1528l277 225h65l279 -225h-130l-179 149h-5l-178 -149h-129zM772 1702l219 225h142l-270 -233z" />
    <glyph glyph-name="acircumflexacute" unicode="&#x1ea5;" horiz-adv-x="1038" 
d="M756 152q-39 -69 -118.5 -119t-197.5 -50q-153 0 -247 85.5t-94 227.5q0 137 93.5 217.5t267.5 80.5h295v137q0 216 -246 216q-116 0 -175.5 -48.5t-69.5 -127.5h-123q8 130 103 209.5t272 79.5q173 0 269.5 -80.5t96.5 -243.5v-736h-122v152h-4zM467 93q122 0 205 74.5
t83 187.5v132h-291q-118 0 -176 -50.5t-58 -137.5q0 -98 67.5 -152t169.5 -54zM209 1208l277 225h65l279 -225h-130l-179 149h-5l-178 -149h-129zM704 1382l219 225h142l-270 -233z" />
    <glyph glyph-name="Acircumflexgrave" unicode="&#x1ea6;" horiz-adv-x="1172" 
d="M165 0h-132l490 1363h126l489 -1363h-137l-149 436h-537zM585 1206h-4l-230 -665h464zM1012 1694h-100l-284 233h142zM898 1528h-130l-179 149h-5l-178 -149h-129l277 225h65z" />
    </font>
</defs>
</svg>
