<?xml version="1.0" standalone="no"?>
<!DOCTYPE svg PUBLIC "-//W3C//DTD SVG 1.1//EN" "http://www.w3.org/Graphics/SVG/1.1/DTD/svg11.dtd" >
<svg xmlns="http://www.w3.org/2000/svg" xmlns:xlink="http://www.w3.org/1999/xlink" version="1.1">
<metadata>
Created by FontForge 20170731 at Wed Jan 14 10:07:46 2015
 By Aleksey,,,
(c) 2014 Apple Inc. All rights reserved.
</metadata>
<defs>
<font id="SanFranciscoText-ItalicG3" horiz-adv-x="0" >
  <font-face 
    font-family="San Francisco Text Italic G3 "
    font-weight="450"
    font-style="italic"
    font-stretch="normal"
    units-per-em="2048"
    panose-1="0 0 0 0 0 0 0 0 0 0"
    ascent="1638"
    descent="-410"
    x-height="1054"
    cap-height="1366"
    bbox="-400 -483 2205 2000"
    underline-thickness="50"
    underline-position="-100"
    slope="-10"
    unicode-range="U+000D-FB02"
  />
<missing-glyph horiz-adv-x="1293" 
d="M120 0l241 1365h1053l-241 -1365h-1053zM573 303q0 -44 31 -72t80 -28q52 0 84.5 29t32.5 74q0 46 -31.5 74.5t-82.5 28.5q-50 0 -82 -29.5t-32 -76.5zM494 908h152q9 54 47.5 88.5t102.5 34.5q59 0 99.5 -29.5t40.5 -81.5q0 -22 -9 -41.5t-18 -31.5t-32.5 -29t-32.5 -22
t-38 -22q-84 -47 -120.5 -93.5t-45.5 -127.5l-6 -42h150l7 39q1 15 5.5 28t8 22t14.5 20.5t15 16.5t21 16t21 13.5t26.5 15.5t26.5 15q36 20 62 39t52.5 47t40.5 65t14 81q0 113 -85 174t-212 61q-140 0 -219 -72.5t-88 -183.5z" />
    <glyph glyph-name=".notdef" horiz-adv-x="1293" 
d="M120 0l241 1365h1053l-241 -1365h-1053zM573 303q0 -44 31 -72t80 -28q52 0 84.5 29t32.5 74q0 46 -31.5 74.5t-82.5 28.5q-50 0 -82 -29.5t-32 -76.5zM494 908h152q9 54 47.5 88.5t102.5 34.5q59 0 99.5 -29.5t40.5 -81.5q0 -22 -9 -41.5t-18 -31.5t-32.5 -29t-32.5 -22
t-38 -22q-84 -47 -120.5 -93.5t-45.5 -127.5l-6 -42h150l7 39q1 15 5.5 28t8 22t14.5 20.5t15 16.5t21 16t21 13.5t26.5 15.5t26.5 15q36 20 62 39t52.5 47t40.5 65t14 81q0 113 -85 174t-212 61q-140 0 -219 -72.5t-88 -183.5z" />
    <glyph glyph-name=".null" 
 />
    <glyph glyph-name="nonmarkingreturn" horiz-adv-x="682" 
 />
    <glyph glyph-name="CR" unicode="&#xd;" 
 />
    <glyph glyph-name="space" unicode=" " horiz-adv-x="468" 
 />
    <glyph glyph-name="exclam" unicode="!" horiz-adv-x="613" 
d="M435 1366h215l-198 -937h-151zM187 122q0 63 42 104t105 41q66 0 108 -40.5t42 -102.5t-42.5 -102t-109.5 -40q-62 0 -103.5 40t-41.5 100z" />
    <glyph glyph-name="quotedbl" unicode="&#x22;" horiz-adv-x="991" 
d="M425 1366h213l-118 -513h-156zM834 1366h213l-118 -513h-156z" />
    <glyph glyph-name="numbersign" unicode="#" horiz-adv-x="1239" 
d="M1313 844h-211l-113 -305h200l-49 -155h-202q-18 -48 -66.5 -187t-71.5 -197h-158l138 384h-269q-19 -50 -67.5 -188t-71.5 -196h-158l138 384h-202l50 155h204l112 305h-193l50 155h194l134 367h159l-135 -367h270l128 367h158l-133 -367h215zM675 844l-113 -305h269
l112 305h-268z" />
    <glyph glyph-name="dollar" unicode="$" horiz-adv-x="1129" 
d="M436 -130l27 126q-154 34 -238.5 128.5t-84.5 215.5q0 23 2 33h167q-1 -5 -1 -12q0 -70 50.5 -129.5t136.5 -86.5l106 496q-6 3 -22 9t-22 9q-284 121 -284 352q0 117 63.5 205t168 132t231.5 44h28l26 122h130l-31 -142q130 -32 210 -117t80 -219v-21h-156q0 15 -1 23
q-6 66 -51 114.5t-114 73.5l-100 -458q4 0 31 -12q81 -33 134 -62t102 -72.5t72.5 -102.5t23.5 -136q0 -191 -139.5 -298t-361.5 -107q-21 0 -32 2l-23 -110h-128zM947 363q0 83 -54.5 134.5t-160.5 94.5q-1 0 -13 5l-101 -473h16q139 0 226 65t87 174zM452 1021
q0 -69 41.5 -114t128.5 -84q8 -3 17 -8l93 431h-11q-66 0 -125.5 -23.5t-101.5 -76t-42 -125.5z" />
    <glyph glyph-name="percent" unicode="%" horiz-adv-x="1486" 
d="M179 1058l5 32q20 127 99.5 206.5t194.5 79.5q117 0 184.5 -83t67.5 -212q0 -40 -7 -82l-5 -32q-18 -124 -97.5 -206t-198.5 -82t-184 82t-65 214q0 43 6 83zM1139 375l-3 -20q-6 -35 -6 -71q0 -75 30.5 -121t90.5 -46q63 0 104 48.5t52 133.5l4 26q4 46 4 65
q0 76 -30 123.5t-89 47.5q-63 0 -104 -51t-53 -135zM317 1064l-3 -21q-5 -38 -5 -71q0 -75 30.5 -121t90.5 -46q62 0 103 48.5t52 133.5l4 27q5 37 5 64q0 76 -30 123.5t-90 47.5q-63 0 -104 -50.5t-53 -134.5zM1001 370l5 32q19 127 99 206.5t195 79.5q117 0 184.5 -83.5
t67.5 -211.5q0 -40 -7 -82l-5 -32q-18 -125 -98 -207t-198 -82q-119 0 -184.5 82.5t-65.5 214.5q0 45 7 83zM362 0h-168l561 683l562 683h167l-561 -683z" />
    <glyph glyph-name="ampersand" unicode="&#x26;" horiz-adv-x="1391" 
d="M1216 751h173q-5 -64 -21 -155q-20 -108 -65 -197t-123 -178l155 -221h-213l-74 107q-184 -125 -403 -125q-112 0 -201.5 31.5t-145.5 85.5t-85 122.5t-29 146.5q0 63 21 119t54 97t83.5 79t99 64.5t111.5 53.5l27 12q-60 92 -90 161.5t-30 141.5q0 141 106 221.5
t260 80.5q155 0 249 -79.5t94 -205.5q0 -66 -25.5 -121.5t-73.5 -99t-98.5 -74t-120.5 -62.5l-9 -4q-9 -4 -17.5 -8t-9.5 -5l269 -379q87 118 115 262q13 61 17 129zM659 137q84 0 164 27t137 76l-298 429l-22 -10q-264 -114 -264 -282q0 -43 16.5 -84t49 -77t89 -57.5
t128.5 -21.5zM638 1083q0 -93 98 -226l21 8q239 95 239 239q0 68 -51 106t-123 38q-76 0 -130 -42.5t-54 -122.5z" />
    <glyph glyph-name="quotesingle" unicode="'" horiz-adv-x="617" 
d="M443 1366h213l-118 -513h-156z" />
    <glyph glyph-name="parenleft" unicode="(" horiz-adv-x="678" 
d="M642 1364h178q-43 -38 -88.5 -91.5t-102 -145.5t-99.5 -196.5t-74.5 -251t-34.5 -304.5q-7 -211 25.5 -355.5t101.5 -283.5h-180q-67 126 -109 287t-34 334q4 185 43.5 352t103 290.5t130.5 212t140 152.5z" />
    <glyph glyph-name="parenright" unicode=")" horiz-adv-x="677" 
d="M323 1364h179q159 -295 145 -611q-4 -185 -44 -354t-103 -294.5t-130 -216.5t-139 -152h-179q45 42 89.5 96t101.5 148t100 198.5t74 251.5t34 305q8 208 -25.5 352.5t-102.5 276.5z" />
    <glyph glyph-name="asterisk" unicode="*" horiz-adv-x="984" 
d="M956 683l-241 215l-22 -321l-144 21l67 314l-290 -142l-55 138l308 98l-268 181l89 116l241 -217l22 323l144 -21l-68 -316l291 144l55 -138l-309 -99l269 -180z" />
    <glyph glyph-name="plus" unicode="+" horiz-adv-x="1150" 
d="M1142 466h-401l-79 -443h-168l78 443h-400l28 163h401l75 423h168l-75 -423h402z" />
    <glyph glyph-name="comma" unicode="," horiz-adv-x="532" 
d="M175 -405h-165l257 602h236z" />
    <glyph glyph-name="hyphen" unicode="-" horiz-adv-x="866" 
d="M834 475h-632l29 175h634z" />
    <glyph glyph-name="period" unicode="." horiz-adv-x="548" 
d="M148 126q0 66 43 109t105 43q64 0 106.5 -41.5t42.5 -105.5q0 -65 -43.5 -107t-109.5 -42q-61 0 -102.5 41t-41.5 103z" />
    <glyph glyph-name="slash" unicode="/" horiz-adv-x="715" 
d="M174 -286h-179l730 1705h178z" />
    <glyph glyph-name="zero" unicode="0" horiz-adv-x="1211" 
d="M452 772l-17 -96q-16 -85 -16 -178q0 -174 61.5 -262.5t177.5 -88.5q132 0 220.5 112.5t126.5 332.5l16 96q17 97 17 185q0 160 -63 253t-181 93q-254 0 -342 -447zM246 709l14 90q46 276 183.5 435t353.5 159q203 0 317 -138t114 -404q0 -106 -17 -195l-16 -91
q-25 -132 -69 -238.5t-109.5 -186.5t-156.5 -124t-202 -44q-205 0 -317 135t-112 396q0 104 17 206z" />
    <glyph glyph-name="one" unicode="1" horiz-adv-x="942" 
d="M646 0h-199l208 1168h-14l-325 -185l29 195l336 188h206z" />
    <glyph glyph-name="two" unicode="2" horiz-adv-x="1127" 
d="M484 1014h-186v9q6 158 128 265t314 107q183 0 295.5 -100t112.5 -260q0 -67 -20 -128.5t-63 -121.5t-85 -105.5t-111 -110.5l-406 -386l-3 -13h612l-29 -170h-887l24 143l564 544q48 46 77 77.5t65 77.5t53.5 91t17.5 89q0 82 -59.5 142t-167.5 60q-106 0 -172 -60
t-74 -146v-4z" />
    <glyph glyph-name="three" unicode="3" horiz-adv-x="1128" 
d="M528 632l27 170q67 -3 101 -3q127 0 215 57.5t88 166.5q-1 96 -69 150.5t-171 54.5q-95 0 -152 -44.5t-72 -108.5h-190q14 140 128.5 230t291.5 90q81 0 154 -20.5t133.5 -60.5t96.5 -108t37 -155q0 -76 -26.5 -139.5t-70.5 -104t-96.5 -64t-107.5 -28.5l-2 -13
q118 -27 184 -112.5t66 -209.5q-1 -183 -137.5 -295t-347.5 -112q-201 0 -326 101.5t-125 246.5q0 22 4 44h187q-1 -6 -1 -19q0 -78 74.5 -140t193.5 -62q120 0 199 66.5t79 173.5q0 109 -78.5 175.5t-197.5 70.5z" />
    <glyph glyph-name="four" unicode="4" horiz-adv-x="1203" 
d="M892 1366h288l-159 -915h200l-26 -169h-202l-50 -282h-188l50 282h-646l25 174q95 139 227.5 311.5t224 285.5t256.5 313zM383 451h452l134 744h-14q-21 -26 -93.5 -116.5t-103 -128.5t-93.5 -117.5t-101.5 -130t-88.5 -117t-91 -123.5z" />
    <glyph glyph-name="five" unicode="5" horiz-adv-x="1158" 
d="M207 364h180q-2 -14 -2 -21q0 -74 67 -137.5t182 -63.5q134 0 224.5 90t90.5 233q0 124 -70.5 194.5t-181.5 70.5q-69 0 -135.5 -28t-104.5 -80h-184l177 744h738l-25 -171h-572l-101 -410h14q39 47 112 73.5t151 26.5q162 0 268.5 -112.5t106.5 -299.5
q1 -139 -59.5 -252t-178.5 -180.5t-275 -67.5q-106 0 -191 31.5t-134.5 82t-75.5 108t-26 115.5q0 27 5 54z" />
    <glyph glyph-name="six" unicode="6" horiz-adv-x="1167" 
d="M672 -14q-212 0 -329 142.5t-117 390.5q0 278 86 487q163 379 514 379q88 0 163 -28.5t123.5 -75t76 -104.5t27.5 -118q0 -16 -1 -23h-176q-8 76 -70.5 126.5t-154.5 50.5q-148 0 -248 -129t-129 -355h14q37 63 109.5 108.5t181.5 45.5q164 0 279.5 -111.5t115.5 -299.5
q0 -212 -130 -349t-335 -137zM686 728q-119 0 -191.5 -82.5t-72.5 -204.5q0 -124 71 -208t184 -84q122 0 193.5 87.5t71.5 225.5q0 121 -72 193.5t-184 72.5z" />
    <glyph glyph-name="seven" unicode="7" horiz-adv-x="1112" 
d="M305 1366h885l-20 -161l-756 -1205h-218l754 1181l2 14h-670z" />
    <glyph glyph-name="eight" unicode="8" horiz-adv-x="1191" 
d="M921 707q45 -14 85.5 -39t77.5 -64.5t59 -98.5t22 -130q0 -96 -41 -174.5t-110.5 -127t-157 -74.5t-183.5 -26q-90 0 -173.5 22.5t-154.5 67.5t-113.5 121t-42.5 173q0 87 34 157.5t88.5 113.5t113.5 67.5t118 30.5l3 14q-196 99 -196 293q0 109 61 192.5t160 126.5
t218 43q113 0 207.5 -38.5t154.5 -118.5t60 -188q0 -71 -26 -132t-68.5 -100.5t-92 -64t-101.5 -31.5zM673 136q126 0 211 70.5t85 186.5t-84.5 181.5t-199.5 65.5q-124 0 -208 -74.5t-84 -190.5q0 -114 81.5 -176.5t198.5 -62.5zM773 800q107 0 176.5 64.5t69.5 165.5
q0 98 -65.5 153t-162.5 55q-108 0 -177.5 -66t-69.5 -164q0 -96 66 -152t163 -56z" />
    <glyph glyph-name="nine" unicode="9" horiz-adv-x="1166" 
d="M744 1388q206 0 322.5 -132.5t116.5 -379.5q0 -202 -45 -383q-131 -506 -524 -506q-173 0 -289.5 96.5t-118.5 233.5q-2 14 0 26h181q2 -81 70 -132.5t170 -51.5q142 0 232 125t123 367h-13q-31 -62 -108.5 -110t-183.5 -48q-78 0 -149 28t-126 80t-88 132t-33 176
q0 203 130 341t333 138zM728 650q121 0 192.5 83.5t71.5 204.5q0 126 -69 205.5t-182 79.5q-116 0 -189 -88t-73 -219q0 -120 69.5 -193t179.5 -73z" />
    <glyph glyph-name="colon" unicode=":" horiz-adv-x="550" 
d="M270 806q0 66 43.5 109t105.5 43q64 0 106 -41.5t42 -106.5q0 -64 -43.5 -106t-109.5 -42q-60 0 -102 41t-42 103zM149 126q0 66 43 109t105 43q65 0 107 -41.5t42 -105.5q0 -65 -43.5 -107t-109.5 -42q-61 0 -102.5 41t-41.5 103z" />
    <glyph glyph-name="semicolon" unicode=";" horiz-adv-x="547" 
d="M269 806q0 66 43.5 109t105.5 43q64 0 106.5 -41.5t42.5 -106.5q0 -64 -44 -106t-109 -42q-61 0 -103 41t-42 103zM146 -405h-165l257 602h236z" />
    <glyph glyph-name="less" unicode="&#x3c;" horiz-adv-x="1119" 
d="M261 435l26 155l835 522l-37 -211l-643 -386l-2 -11l520 -352l-35 -200z" />
    <glyph glyph-name="equal" unicode="=" horiz-adv-x="1119" 
d="M1038 273h-859l27 163h855zM1100 661h-854l28 164h854z" />
    <glyph glyph-name="greater" unicode="&#x3e;" horiz-adv-x="1119" 
d="M1036 587l-25 -151l-834 -484l36 209l644 360l3 11l-517 378l35 187z" />
    <glyph glyph-name="question" unicode="?" horiz-adv-x="1025" 
d="M384 122q0 63 42 104t105 41q66 0 108.5 -40.5t42.5 -102.5t-42.5 -102t-109.5 -40q-62 0 -104 40t-42 100zM281 1043q18 154 125 253t297 99q114 0 205 -36t149 -114t58 -188q0 -67 -21 -123t-62 -98.5t-78 -70t-92 -59.5q-101 -58 -129 -84q-52 -47 -62 -123l-12 -67
h-182l12 71q16 115 64 177t174 135q41 24 58.5 34.5t50.5 36t48 45.5t28 51t13 66q0 87 -65 135.5t-160 48.5q-100 0 -159.5 -53.5t-74.5 -135.5h-185z" />
    <glyph glyph-name="at" unicode="@" horiz-adv-x="1718" 
d="M1125 272h-10q-25 -59 -83.5 -98t-147.5 -39q-112 0 -181.5 72.5t-69.5 191.5q0 54 8 95l16 87q26 141 105.5 220t196.5 79q86 0 138.5 -45.5t59.5 -106.5h8l22 130h149l-83 -472q-3 -15 -3 -32q0 -45 30.5 -72.5t77.5 -27.5q78 0 140 71t86 218l5 34q7 42 7 106
q0 114 -44.5 208.5t-121.5 156.5t-180 96t-221 34q-243 0 -423 -151.5t-230 -416.5l-8 -45q-13 -69 -13 -150q0 -139 45 -246.5t126.5 -175.5t192.5 -103t246 -35t202 23l-22 -129q-76 -24 -203 -24q-160 0 -294 43.5t-233 127t-154.5 214.5t-55.5 296q0 72 16 168l11 57
q38 212 152.5 367t280 233.5t364.5 78.5q163 0 298.5 -49t225 -133.5t138.5 -196.5t49 -239q0 -82 -8 -125l-9 -50q-33 -184 -137.5 -283t-243.5 -99q-82 0 -144 40.5t-73 96.5zM812 556l-13 -62q-6 -38 -6 -73q0 -68 37.5 -111.5t109.5 -43.5q65 0 109.5 45.5t61.5 141.5
l14 80q5 33 5 53q0 66 -39 113.5t-108 47.5q-61 0 -106.5 -47t-64.5 -144z" />
    <glyph glyph-name="A" unicode="A" horiz-adv-x="1246" 
d="M36 0l717 1366h221l237 -1366h-206l-61 396h-497l-202 -396h-209zM834 1143h-13l-296 -589h398z" />
    <glyph glyph-name="B" unicode="B" horiz-adv-x="1276" 
d="M181 0l241 1366h472q107 0 185.5 -26t121.5 -71t63 -97t20 -112q0 -128 -82.5 -220.5t-192.5 -117.5l-2 -11q111 -19 177.5 -96.5t66.5 -202.5q0 -192 -147.5 -302t-408.5 -110h-514zM590 1206l-75 -422h264q131 0 215 65.5t84 179.5q0 89 -60 133t-188 44h-240zM487 626
l-82 -465h298q153 0 250.5 68.5t97.5 188.5q0 97 -71.5 152.5t-220.5 55.5h-272z" />
    <glyph glyph-name="C" unicode="C" horiz-adv-x="1295" 
d="M479 849l-38 -187q-14 -70 -14 -155q0 -175 93.5 -263.5t240.5 -88.5q132 0 212 64.5t100 161.5h193q-2 -25 -7 -43q-10 -53 -34.5 -103.5t-68 -98.5t-100 -84t-137 -57.5t-173.5 -21.5q-107 0 -199 32t-164 95t-113.5 167t-41.5 238q0 90 9 144l46 236q47 245 199 377
t370 132q113 0 208.5 -35t157.5 -93.5t96.5 -133t34.5 -154.5q0 -35 -4 -47h-190q2 17 0 34q-4 44 -24 86.5t-56 79.5t-95 59.5t-132 22.5q-149 0 -241 -93t-128 -271z" />
    <glyph glyph-name="D" unicode="D" horiz-adv-x="1355" 
d="M424 1366h401q263 0 404.5 -141t141.5 -379q0 -82 -11 -149q-1 -7 -14 -77t-14 -74q-51 -267 -239.5 -406.5t-509.5 -139.5h-400zM592 1193l-182 -1020h167q229 0 375 99t184 294q15 75 25 135q9 54 9 129q0 181 -103 272t-301 91h-174z" />
    <glyph glyph-name="E" unicode="E" horiz-adv-x="1133" 
d="M1038 173l-29 -173h-827l241 1366h823l-30 -173h-626l-74 -408h595l-27 -167h-596l-80 -445h630z" />
    <glyph glyph-name="F" unicode="F" horiz-adv-x="1112" 
d="M381 0h-197l242 1366h821l-29 -173h-625l-80 -442h575l-27 -171h-576z" />
    <glyph glyph-name="G" unicode="G" horiz-adv-x="1355" 
d="M285 887q47 244 202 375.5t380 131.5q122 0 221 -37t159.5 -97.5t92.5 -133t32 -147.5q0 -27 -2 -33h-191q0 18 -1 27q-3 39 -21.5 79t-54 77.5t-98 61t-141.5 23.5q-154 0 -251 -94.5t-132 -269.5l-39 -190q-14 -81 -14 -154q0 -177 95.5 -267t244.5 -90q121 0 215.5 60
t113.5 167l30 169h-334l29 161h526l-60 -338q-33 -185 -180.5 -290t-353.5 -105q-106 0 -198 30.5t-166.5 92t-117.5 165.5t-43 240q0 91 11 152z" />
    <glyph glyph-name="H" unicode="H" horiz-adv-x="1416" 
d="M378 0h-197l241 1366h197l-101 -575h658l102 575h197l-241 -1366h-192l105 619h-659z" />
    <glyph glyph-name="I" unicode="I" horiz-adv-x="553" 
d="M375 0h-197l241 1366h197z" />
    <glyph glyph-name="J" unicode="J" horiz-adv-x="1004" 
d="M1077 1366l-176 -1000q-37 -206 -147 -299t-267 -93q-169 0 -280 93t-111 243q0 38 7 64h184q-2 -32 -2 -36q0 -79 53.5 -131t143.5 -52q84 0 143.5 54.5t80.5 175.5l174 981h197z" />
    <glyph glyph-name="K" unicode="K" horiz-adv-x="1271" 
d="M617 1366l-121 -654h14l698 654h248l-641 -610l409 -756h-227l-337 642l-204 -181l-81 -461h-197l242 1366h197z" />
    <glyph glyph-name="L" unicode="L" horiz-adv-x="1048" 
d="M1026 175l-31 -175h-811l241 1366h197l-212 -1191h616z" />
    <glyph glyph-name="M" unicode="M" horiz-adv-x="1633" 
d="M368 0h-186l241 1366h192l265 -941h9l592 941h212l-241 -1366h-185l175 990h-11l-526 -826h-121l-232 826h-12z" />
    <glyph glyph-name="N" unicode="N" horiz-adv-x="1426" 
d="M1240 0h-180l-488 1031h-11l-182 -1031h-193l241 1366h183l483 -1032h11l184 1032h193z" />
    <glyph glyph-name="O" unicode="O" horiz-adv-x="1384" 
d="M477 850l-35 -186q-15 -80 -15 -153q0 -165 94 -261.5t260 -96.5q152 0 247 95.5t129 284.5l36 199q8 44 8 131q0 159 -94 255t-256 96q-145 0 -242 -88t-132 -276zM241 678l38 207q43 241 199 375t379 134q246 0 396 -143t150 -392q0 -83 -15 -166l-39 -208
q-45 -248 -194 -380.5t-399 -132.5q-151 0 -269.5 59t-189 177t-70.5 277q0 110 14 193z" />
    <glyph glyph-name="P" unicode="P" horiz-adv-x="1189" 
d="M377 0h-197l241 1366h454q193 0 301 -102.5t108 -264.5q0 -29 -6 -85q-27 -201 -165.5 -306.5t-390.5 -105.5h-256zM836 1201h-247l-94 -530h240q87 0 153 20t105 56t60 78t27 94q6 30 6 66q0 97 -61.5 156.5t-188.5 59.5z" />
    <glyph glyph-name="Q" unicode="Q" horiz-adv-x="1404" 
d="M243 681l36 201q43 242 198.5 377t377.5 135q246 0 396 -143.5t150 -395.5q0 -80 -15 -165l-37 -202q-52 -283 -237 -410l131 -224h-204l-87 144q-90 -26 -195 -26q-151 0 -269.5 59t-189 177.5t-70.5 280.5q0 109 15 192zM914 399l95 -162q110 90 146 289l38 207
q8 44 8 132q0 161 -94.5 255.5t-255.5 94.5q-145 0 -242.5 -89t-132.5 -275l-35 -190q-15 -80 -15 -159q0 -167 94 -262.5t259 -95.5q40 0 82 8l-148 247h201z" />
    <glyph glyph-name="R" unicode="R" horiz-adv-x="1261" 
d="M376 0h-197l242 1366h469q195 0 299.5 -97t104.5 -258q0 -42 -6 -81q-18 -140 -104 -233.5t-212 -128.5l187 -568h-211l-172 538q-24 -1 -65 -1h-240zM843 1199h-254l-89 -498h247q86 0 149.5 19t101.5 53.5t58 75t27 90.5q5 30 5 63q0 92 -59.5 144.5t-185.5 52.5z" />
    <glyph glyph-name="S" unicode="S" horiz-adv-x="1208" 
d="M173 388h191q-1 -8 -1 -24q0 -89 85 -155.5t223 -66.5q129 0 209.5 61.5t80.5 163.5q0 37 -13 67.5t-33 52t-54 41.5t-63.5 32.5t-74.5 28.5l-68 25q-74 26 -131.5 56.5t-112.5 76.5t-85 111t-30 144q0 121 64.5 211.5t171.5 135.5t241 45q121 0 222 -42t164 -125.5
t63 -192.5q0 -3 -1 -18.5t-1 -16.5h-184v2q0 2 0.5 5.5t0.5 8.5q0 94 -77.5 151.5t-188.5 57.5q-108 0 -189 -53.5t-81 -152.5q0 -80 62.5 -130.5t183.5 -97.5l85 -31q50 -19 85 -35t77.5 -39.5t70 -50.5t52 -62t36.5 -80.5t12 -100.5q0 -196 -140 -307t-363 -111
q-214 0 -353 107.5t-139 261.5q0 25 3 46z" />
    <glyph glyph-name="T" unicode="T" horiz-adv-x="1123" 
d="M662 0h-197l212 1192h-415l30 174h1021l-28 -174h-411z" />
    <glyph glyph-name="U" unicode="U" horiz-adv-x="1380" 
d="M606 1366l-146 -827q-8 -43 -8 -95q0 -130 81 -209t219 -79q129 0 218.5 74.5t115.5 220.5l162 915h201l-166 -942q-40 -224 -182.5 -337.5t-353.5 -113.5q-143 0 -254.5 50.5t-177.5 152t-66 239.5q0 63 13 135l143 816h201z" />
    <glyph glyph-name="V" unicode="V" horiz-adv-x="1235" 
d="M729 0h-221l-239 1366h214l164 -1138h12l569 1138h218z" />
    <glyph glyph-name="W" unicode="W" horiz-adv-x="1771" 
d="M586 0h-200l-86 1366h209l32 -1080h13l477 1080h174l106 -1080h12l421 1080h209l-568 -1366h-195l-119 1040h-11z" />
    <glyph glyph-name="X" unicode="X" horiz-adv-x="1219" 
d="M748 833l438 533h237l-578 -685l339 -681h-221l-259 537l-10 1l-425 -538h-234l560 690l-321 676h223l241 -532z" />
    <glyph glyph-name="Y" unicode="Y" horiz-adv-x="1131" 
d="M765 565l-100 -565h-197l99 562l-328 804h210l237 -619h11l444 619h226z" />
    <glyph glyph-name="Z" unicode="Z" horiz-adv-x="1206" 
d="M145 0l25 147l882 1034l2 15h-700l28 170h942l-24 -152l-880 -1031l-3 -13h730l-30 -170h-972z" />
    <glyph glyph-name="bracketleft" unicode="[" horiz-adv-x="676" 
d="M378 1366h453l-25 -147h-271l-231 -1300h284l-26 -148h-466z" />
    <glyph glyph-name="backslash" unicode="\" horiz-adv-x="651" 
d="M665 -286h-178l-223 1705h178z" />
    <glyph glyph-name="bracketright" unicode="]" horiz-adv-x="676" 
d="M328 1366h454l-282 -1595h-466l25 148h284l231 1300h-272z" />
    <glyph glyph-name="asciicircum" unicode="^" horiz-adv-x="796" 
d="M878 798h-168l-107 408h-10l-253 -408h-172l361 568h184z" />
    <glyph glyph-name="underscore" unicode="_" horiz-adv-x="899" 
d="M907 -245h-920l30 154h921z" />
    <glyph glyph-name="grave" unicode="`" horiz-adv-x="1000" 
d="M857 1208h-152l-241 349h204z" />
    <glyph glyph-name="a" unicode="a" horiz-adv-x="1105" 
d="M477 -17q-135 0 -226 80t-91 215q0 25 2 40q12 140 121 219.5t306 79.5h277l12 68q4 20 4 45q0 75 -51.5 129t-160.5 54q-87 0 -141 -34.5t-72 -88.5h-186q23 124 131.5 202.5t281.5 78.5q184 0 283 -91.5t99 -242.5q0 -64 -18 -152l-103 -585h-185l25 141h-12
q-32 -64 -109.5 -111t-186.5 -47zM354 302q0 -69 49 -113.5t134 -44.5q102 0 181 60t98 153l24 123h-253q-114 0 -173.5 -51t-59.5 -127z" />
    <glyph glyph-name="b" unicode="b" horiz-adv-x="1198" 
d="M718 -17q-121 0 -206.5 68.5t-105.5 156.5h-12l-37 -208h-193l253 1421h194l-98 -539h14q34 76 107.5 131.5t194.5 55.5q164 0 264 -105.5t100 -286.5q0 -72 -9 -127l-33 -179q-31 -174 -142.5 -281t-290.5 -107zM446 431q0 -130 75.5 -203.5t173.5 -73.5q110 0 183 76
t94 192l25 141q4 25 4 89q0 119 -64.5 187.5t-178.5 68.5q-113 0 -188 -78.5t-97 -209.5l-22 -137q-5 -30 -5 -52z" />
    <glyph glyph-name="c" unicode="c" horiz-adv-x="1061" 
d="M186 392q0 68 14 149l24 140q33 191 155.5 290.5t305.5 99.5q184 0 295 -97t111 -242q0 -15 -1 -17h-180v11q0 69 -61.5 126t-164.5 57q-105 0 -179 -70t-97 -197l-20 -115q-10 -52 -10 -104q0 -129 61.5 -201t181.5 -72q88 0 145 36.5t71 93.5h192q-22 -138 -137.5 -218
t-280.5 -80q-193 0 -309 111t-116 299z" />
    <glyph glyph-name="d" unicode="d" horiz-adv-x="1196" 
d="M669 1069q126 0 209.5 -69.5t96.5 -148.5h14l98 570h194l-249 -1421h-191l31 176h-14q-10 -32 -33.5 -63.5t-59 -61t-89.5 -48t-117 -18.5q-166 0 -269.5 109.5t-103.5 289.5q0 76 11 127l34 177q33 172 146 276.5t292 104.5zM946 633q0 67 -22 120.5t-58.5 86
t-80.5 49.5t-91 17q-112 0 -182.5 -73.5t-94.5 -194.5l-28 -139q-6 -34 -6 -86q0 -120 66 -190t180 -70q113 0 187.5 78t98.5 210l26 138q5 25 5 54z" />
    <glyph glyph-name="e" unicode="e" horiz-adv-x="1094" 
d="M600 -18q-184 0 -299 105.5t-115 298.5q0 63 17 158l25 139q32 184 159.5 286t311.5 102q113 0 197.5 -40.5t128.5 -106.5t61 -142.5t6 -156.5q0 -11 -25 -144h-686q-10 -38 -10 -89q0 -105 59 -176t183 -71q89 0 149 37t77 92h189q-20 -116 -137 -204t-291 -88zM906 620
q0 1 1.5 10t1.5 10q21 116 -36.5 195t-178.5 79q-98 0 -173 -58t-99 -172l-14 -64h498z" />
    <glyph glyph-name="f" unicode="f" horiz-adv-x="741" 
d="M221 0l156 881h-170l27 157h171l11 69q28 166 119.5 245.5t259.5 79.5q70 0 125 -11l-26 -149q-40 7 -93 7q-89 0 -133 -40.5t-60 -125.5l-13 -75h240l-28 -157h-238l-155 -881h-193z" />
    <glyph glyph-name="g" unicode="g" horiz-adv-x="1191" 
d="M661 1069q124 0 206 -61.5t107 -155.5h14l36 201h191l-186 -1052q-70 -398 -489 -398q-187 0 -300 91t-113 214v15h186q0 -1 1 -6v-5q2 -58 69 -103.5t167 -45.5q132 0 202.5 69t95.5 204l27 152h-14q-31 -74 -107 -121.5t-188 -47.5q-99 0 -183.5 47t-138 140.5
t-53.5 215.5q0 79 14 143l21 110q39 196 158.5 295t276.5 99zM940 639q0 123 -70 195.5t-182 72.5q-108 0 -180.5 -75t-96.5 -206l-15 -79q-12 -65 -12 -106q0 -129 67 -198.5t186 -69.5q104 0 180 76.5t98 204.5l16 90q9 53 9 95z" />
    <glyph glyph-name="h" unicode="h" horiz-adv-x="1197" 
d="M163 0l251 1421h193l-98 -538h13q41 87 120 137t192 50q157 0 241.5 -94t84.5 -234q0 -57 -21 -177l-100 -565h-194l102 576q13 75 13 125q0 92 -48.5 150t-147.5 58q-122 0 -199.5 -85.5t-100.5 -217.5l-107 -606h-194z" />
    <glyph glyph-name="i" unicode="i" horiz-adv-x="551" 
d="M179 0l186 1054h194l-186 -1054h-194zM368 1370q0 57 38.5 94t95.5 37q60 0 97 -36t37 -92t-38.5 -92.5t-98.5 -36.5q-57 0 -94 35.5t-37 90.5z" />
    <glyph glyph-name="j" unicode="j" horiz-adv-x="551" 
d="M562 1054l-187 -1062q-32 -177 -125 -256.5t-260 -79.5q-44 0 -104 13l33 157q32 -9 80 -9q72 0 119.5 44t61.5 122l188 1071h194zM371 1370q0 57 38.5 94t96.5 37q59 0 96.5 -36t37.5 -92t-39 -92.5t-98 -36.5q-57 0 -94.5 35.5t-37.5 90.5z" />
    <glyph glyph-name="k" unicode="k" horiz-adv-x="1077" 
d="M426 422l-75 -422h-192l252 1421h190l-137 -779h13l482 412h254l-504 -422l326 -632h-211l-265 530z" />
    <glyph glyph-name="l" unicode="l" horiz-adv-x="551" 
d="M179 0l251 1421h194l-252 -1421h-193z" />
    <glyph glyph-name="m" unicode="m" horiz-adv-x="1769" 
d="M161 0l186 1054h188l-31 -175h13q34 82 108 136.5t186 54.5q113 0 187.5 -53.5t102.5 -141.5h12q16 35 40 66t61 62t92 49t121 18q152 0 229.5 -90t77.5 -228q0 -56 -21 -180l-100 -572h-194l103 584q11 77 11 118q0 95 -41.5 151t-130.5 56q-102 0 -168.5 -79.5
t-90.5 -215.5l-109 -614h-192l104 584q10 56 10 120q0 92 -41 148.5t-135 56.5q-114 0 -183 -81t-92 -214l-109 -614h-194z" />
    <glyph glyph-name="n" unicode="n" horiz-adv-x="1192" 
d="M163 0l186 1054h190l-32 -171h14q91 187 311 187q159 0 240.5 -93.5t81.5 -233.5q0 -60 -21 -178l-99 -565h-194l102 576q13 78 13 125q0 92 -47.5 150t-145.5 58q-123 0 -199 -85t-99 -218l-107 -606h-194z" />
    <glyph glyph-name="o" unicode="o" horiz-adv-x="1132" 
d="M409 638l-21 -118q-11 -57 -11 -106q0 -120 68.5 -193.5t187.5 -73.5q110 0 179.5 73.5t93.5 207.5l21 126q5 30 5 93q0 115 -68 188t-184 73q-105 0 -176.5 -68.5t-94.5 -201.5zM197 543l23 129q33 184 158.5 291.5t304.5 107.5q199 0 322 -115.5t123 -314.5
q0 -59 -12 -126l-24 -129q-36 -190 -156 -296.5t-320 -106.5q-187 0 -308.5 111t-121.5 302q0 90 11 147z" />
    <glyph glyph-name="p" unicode="p" horiz-adv-x="1196" 
d="M711 -17q-122 0 -205.5 71t-98.5 154h-14l-99 -571h-194l249 1416h192l-31 -171h14q13 33 34.5 62.5t56 59t88.5 47.5t119 18q166 0 267.5 -105.5t101.5 -286.5q0 -84 -9 -127l-33 -179q-27 -173 -142 -280.5t-296 -107.5zM439 431q0 -130 75.5 -203.5t172.5 -73.5
q112 0 186.5 76t95.5 192l26 141q5 31 5 89q0 119 -67.5 187.5t-181.5 68.5t-188.5 -78.5t-96.5 -209.5l-23 -137q-4 -32 -4 -52z" />
    <glyph glyph-name="q" unicode="q" horiz-adv-x="1193" 
d="M670 1069q125 0 208.5 -68t98.5 -150h14l36 202h190l-253 -1415h-194l99 535h-14q-14 -32 -36 -61.5t-57 -59t-87.5 -47.5t-114.5 -18q-164 0 -269 108.5t-105 287.5q0 81 10 128l36 177q33 170 147 275.5t291 105.5zM944 635q0 130 -75 200.5t-174 70.5q-110 0 -182 -77
t-96 -191l-29 -139q-5 -23 -5 -86q0 -119 67.5 -189t180.5 -70t188 78t96 209l24 137q5 29 5 57z" />
    <glyph glyph-name="r" unicode="r" horiz-adv-x="783" 
d="M161 0l186 1054h183l-31 -176h13q30 80 108 136t188 56q44 0 89 -10l-38 -182q-34 14 -94 14q-130 0 -206 -84.5t-101 -221.5l-103 -586h-194z" />
    <glyph glyph-name="s" unicode="s" horiz-adv-x="1029" 
d="M266 760q0 143 101 228t284 85q91 0 166.5 -25.5t123 -67t73.5 -93t26 -105.5v-12l-1 -10h-176v10q0 57 -57 106t-156 49q-91 0 -143.5 -41t-52.5 -102q0 -28 12.5 -50.5t26.5 -36.5t48 -30t53 -23t65 -22q14 -5 21 -7q53 -17 91.5 -33t78.5 -41.5t65 -55.5t41 -74
t16 -98q0 -157 -113 -243t-302 -86q-179 0 -297.5 88.5t-118.5 219.5v14h180q0 -8 2 -18q12 -62 78 -105.5t167 -43.5q102 0 158 43t56 114q0 19 -4 35t-14 30t-18.5 24t-28 20.5t-30.5 16.5t-38 15.5t-38.5 13t-42.5 13.5q-32 10 -53.5 17.5t-56 22.5t-58 30t-51 39t-44 50
t-28 62t-11.5 77z" />
    <glyph glyph-name="t" unicode="t" horiz-adv-x="761" 
d="M400 1038l50 276h189l-48 -276h228l-27 -157h-228l-83 -477q-21 -116 -21 -145q0 -51 28.5 -77.5t97.5 -26.5q71 0 122 11l-28 -154q-52 -15 -148 -15q-271 0 -271 207q0 54 14 130l97 547h-158l28 157h158z" />
    <glyph glyph-name="u" unicode="u" horiz-adv-x="1178" 
d="M1200 1054l-185 -1054h-184l31 177h-14q-40 -86 -120 -140t-189 -54q-156 0 -243.5 91.5t-87.5 234.5q0 71 21 180l103 565h193l-103 -572q-14 -89 -14 -132q0 -93 52 -145.5t153 -52.5q122 0 196 83.5t97 217.5l105 601h189z" />
    <glyph glyph-name="v" unicode="v" horiz-adv-x="1032" 
d="M394 0l-175 1054h200l108 -852h11l395 852h199l-523 -1054h-215z" />
    <glyph glyph-name="w" unicode="w" horiz-adv-x="1459" 
d="M1589 1054l-463 -1054h-205l-70 800h-8l-321 -800h-212l-118 1054h196l59 -846h10l341 846h176l71 -846h10l338 846h196z" />
    <glyph glyph-name="x" unicode="x" horiz-adv-x="1003" 
d="M758 0l-187 393h-7l-306 -393h-216l427 530l-261 524h211l185 -400h9l308 400h220l-439 -531l267 -523h-211z" />
    <glyph glyph-name="y" unicode="y" horiz-adv-x="1041" 
d="M1162 1054l-533 -1045q-1 -2 -20.5 -38.5t-19.5 -37.5q-42 -81 -77 -130t-83.5 -86.5t-111 -53t-151.5 -15.5q-56 0 -100 13l34 153q36 -9 80 -9q85 0 131 40t82 120l24 52l-194 1037h203l125 -844h12l392 844h207z" />
    <glyph glyph-name="z" unicode="z" horiz-adv-x="967" 
d="M110 0l28 163l665 723l2 14h-563l29 154h790l-29 -165l-659 -716l-2 -14h561l-28 -159h-794z" />
    <glyph glyph-name="braceleft" unicode="{" horiz-adv-x="752" 
d="M372 594l-5 -25q78 -9 116 -67.5t21 -159.5q-61 -332 -61 -358q-2 -59 11.5 -90t54.5 -46.5t121 -15.5h42l-26 -151h-76q-164 0 -239.5 62.5t-70.5 187.5q0 53 53 350q19 107 -10 154t-130 47l35 198q99 0 145 46.5t65 154.5l41 224q18 101 57 168.5t98 102.5t124 48.5
t152 13.5h67l-26 -151h-42q-123 0 -180.5 -55t-74.5 -153l-48 -263q-18 -111 -70 -163.5t-144 -58.5z" />
    <glyph glyph-name="bar" unicode="|" horiz-adv-x="669" 
d="M379 -289h-178l301 1708h178z" />
    <glyph glyph-name="braceright" unicode="}" horiz-adv-x="751" 
d="M584 569l4 25q-77 8 -115 65t-21 157q54 288 54 318q3 88 -33.5 120.5t-154.5 32.5h-41l26 151h75q166 0 241.5 -62.5t70.5 -186.5q0 -66 -14 -154.5t-27.5 -152.5t-13.5 -70q-2 -69 31.5 -100.5t115.5 -31.5l-34 -198q-99 0 -145.5 -46.5t-64.5 -154.5l-48 -265
q-15 -81 -44 -141t-67 -97t-90.5 -59t-107 -30t-123.5 -8h-65l25 151h42q85 0 140 29t79.5 72t35.5 107l54 302q19 112 71.5 166.5t143.5 60.5z" />
    <glyph glyph-name="asciitilde" unicode="~" horiz-adv-x="1167" 
d="M908 484q-76 0 -132 33t-113 90q-6 7 -24 25l-25.5 25.5t-22.5 21.5t-25 20t-24.5 14t-28 11t-28.5 3q-53 0 -92.5 -43.5t-50.5 -111.5h-158q4 129 86 226t209 97q42 0 79.5 -11t70.5 -34.5t54 -42.5t51 -51q34 -36 53 -53t51.5 -34t64.5 -17q57 0 93.5 41.5t47.5 104.5
h159q-10 -134 -91 -224t-204 -90z" />
    <glyph glyph-name="nonbreakingspace" unicode="&#xa0;" horiz-adv-x="468" 
 />
    <glyph glyph-name="exclamdown" unicode="&#xa1;" horiz-adv-x="612" 
d="M613 933q0 -63 -42.5 -104t-105.5 -41q-66 0 -108 40t-42 103q0 61 43 101t109 40q62 0 104 -39.5t42 -99.5zM364 -311h-215l198 937h151z" />
    <glyph glyph-name="cent" unicode="&#xa2;" horiz-adv-x="1119" 
d="M230 542q0 68 14 149l24 141q32 182 148 281.5t289 105.5l43 239h156l-45 -253q129 -31 202.5 -120t73.5 -203q0 -15 -1 -17h-180v11q0 70 -61 127t-165 57q-105 0 -179 -69.5t-97 -198.5l-20 -115q-10 -52 -10 -103q0 -130 62 -202.5t181 -72.5q88 0 145.5 37t70.5 94
h192q-21 -132 -132.5 -212t-269.5 -82l-40 -223h-157l42 238q-133 35 -209.5 138t-76.5 253z" />
    <glyph glyph-name="sterling" unicode="&#xa3;" horiz-adv-x="1119" 
d="M1249 1030h-178q10 81 -44.5 139.5t-150.5 58.5q-86 0 -135.5 -47.5t-63.5 -125.5l-52 -288h300l-27 -147h-295q-4 -21 -22 -119t-21 -101q-34 -175 -148 -224v-12h722l-28 -164h-1019l29 173q82 2 120 17q100 42 135 216q3 3 22 102.5t21 111.5h-191l26 147h187l60 331
q25 143 126 218.5t252 75.5q180 0 284.5 -100t90.5 -262z" />
    <glyph glyph-name="currency" unicode="&#xa4;" horiz-adv-x="1128" 
d="M439 653q0 -101 69.5 -172t167.5 -71t167 71.5t69 171.5q0 101 -69 172.5t-167 71.5t-167.5 -71.5t-69.5 -172.5zM956 123l-129 179q-69 -33 -158 -33q-138 0 -241 95l-211 -153l-89 122l210 152q-38 81 -38 176q0 137 95 242l-139 195l119 95l137 -194q77 40 174 40
q135 0 239 -98l225 162l90 -123l-226 -161q38 -79 38 -173q0 -140 -106 -253l127 -177z" />
    <glyph glyph-name="yen" unicode="&#xa5;" horiz-adv-x="1119" 
d="M258 400h280l24 140h-279l24 135h216l-284 691h210l238 -619h11l443 619h225l-523 -691h234l-24 -135h-294l-24 -140h293l-23 -135h-294l-47 -265h-197l47 265h-279z" />
    <glyph glyph-name="brokenbar" unicode="&#xa6;" horiz-adv-x="651" 
d="M553 782h-165l115 655h165zM361 -306h-165l120 683h165z" />
    <glyph glyph-name="section" unicode="&#xa7;" horiz-adv-x="984" 
d="M116 84h173v-4q1 -86 65 -131t162 -45q93 0 147.5 44t54.5 112q0 61 -47.5 98.5t-157.5 82.5q0 1 -8 4t-9 3q-139 58 -212.5 130t-73.5 187q0 101 63 170t155 98l1 8q-47 33 -83.5 92t-36.5 140q0 149 109.5 234.5t276.5 85.5q96 0 178.5 -36t135.5 -108t53 -165
q0 -19 -5 -44h-169q3 14 3 24q1 77 -61 124t-143 47q-80 0 -137.5 -39t-57.5 -109q0 -69 50 -112t161 -89q55 -23 94.5 -42.5t81 -48t66.5 -59t41 -72t16 -90.5q0 -100 -56 -173.5t-146 -111.5v-8q103 -84 103 -204q0 -104 -55.5 -180.5t-145 -114t-198.5 -37.5
q-96 0 -184 34t-148.5 106.5t-59.5 168.5q0 14 4 30zM662 363q61 15 106.5 66.5t45.5 119.5q0 62 -46.5 106t-136.5 80q-38 16 -71 25q-65 -11 -115 -63t-50 -116q0 -61 46 -104t133 -83q28 -13 88 -31z" />
    <glyph glyph-name="dieresis" unicode="&#xa8;" horiz-adv-x="1000" 
d="M430 1304q0 48 31.5 78t79.5 30q50 0 81 -30t31 -78q0 -47 -31.5 -76.5t-80.5 -29.5q-48 0 -79.5 30t-31.5 76zM797 1304q0 48 31 78t78 30q51 0 83 -30t32 -78q0 -47 -32 -76.5t-83 -29.5q-47 0 -78 30t-31 76z" />
    <glyph glyph-name="copyright" unicode="&#xa9;" horiz-adv-x="1733" 
d="M968 -66q-208 0 -369.5 91.5t-248.5 250t-87 354.5q0 49 6 97l12 103q31 264 232.5 434t489.5 170q156 0 289.5 -53.5t226 -145.5t144.5 -217.5t52 -266.5q0 -51 -4 -88l-12 -102q-22 -184 -121 -326.5t-258 -221.5t-352 -79zM387 622q0 -254 161 -410.5t418 -156.5
q161 0 293.5 63t216.5 181t101 272l12 107q4 31 4 62q0 123 -45.5 229.5t-124.5 181.5t-189 117.5t-236 42.5q-239 0 -404.5 -141.5t-189.5 -354.5l-12 -105q-5 -35 -5 -88zM653 586q0 36 9 103l19 103q23 132 107.5 205t218.5 73q135 0 213.5 -70t78.5 -169q0 -18 -1 -22
h-131v13q0 49 -43 89t-114 40q-78 0 -130 -51t-68 -142l-14 -78q-7 -43 -7 -71q0 -196 175 -196q61 0 101.5 24.5t49.5 65.5h136q-17 -98 -97.5 -156t-198.5 -58q-139 0 -221.5 80.5t-82.5 216.5z" />
    <glyph glyph-name="ordfeminine" unicode="&#xaa;" horiz-adv-x="713" 
d="M446 716q-75 0 -125.5 44.5t-50.5 124.5q0 92 67 138t182 46h138l6 39q0 1 0.5 5.5t0.5 9.5q0 42 -26.5 66t-74.5 24q-37 0 -65.5 -15t-34.5 -43h-132q11 71 74 118.5t168 47.5q106 0 165 -51.5t59 -145.5q0 -20 -3 -38l-63 -361h-131l14 77h-8q-17 -35 -59 -60.5
t-101 -25.5zM406 897q0 -34 24 -55.5t66 -21.5q50 0 87 28.5t46 74.5l12 61h-122q-56 0 -84.5 -24.5t-28.5 -62.5z" />
    <glyph glyph-name="guillemotleft" unicode="&#xab;" horiz-adv-x="1300" 
d="M246 565l415 404h206l-418 -413l-1 -6l257 -395h-196l-265 402zM714 565l415 404h207l-418 -413l-1 -6l257 -395h-196l-266 402z" />
    <glyph glyph-name="logicalnot" unicode="&#xac;" horiz-adv-x="1128" 
d="M1074 96h-170l65 368h-798l28 160h968z" />
    <glyph glyph-name="registered" unicode="&#xae;" horiz-adv-x="1216" 
d="M275 891q0 3 0.5 10.5t0.5 10.5l2 15q8 218 142.5 350t352.5 132q214 0 351.5 -131t137.5 -343q0 -3 -0.5 -12t-0.5 -12l-2 -21q-11 -219 -144 -347.5t-353 -128.5q-216 0 -351.5 129.5t-135.5 347.5zM374 890q0 -175 107 -277t281 -102q178 0 283.5 102t115.5 281l1 20
q1 4 1 21q0 169 -109 273t-281 104q-179 0 -286 -106t-111 -283l-1 -16q-1 -4 -1 -17zM647 663h-98l93 518h187q77 0 118.5 -38.5t41.5 -109.5q0 -11 -1 -20q-5 -51 -37 -88.5t-82 -54.5l70 -207h-103l-59 194h-27h-69zM807 1100h-82l-31 -166h81q103 0 115 80q2 12 2 20
q0 29 -22.5 47.5t-62.5 18.5z" />
    <glyph glyph-name="macron" unicode="&#xaf;" horiz-adv-x="1000" 
d="M1074 1321l-20 -112h-680l20 112h680z" />
    <glyph glyph-name="degree" unicode="&#xb0;" horiz-adv-x="729" 
d="M551 810q-120 0 -203.5 84t-83.5 204q0 119 83.5 202.5t203.5 83.5q117 0 201 -84t84 -202q0 -119 -84 -203.5t-201 -84.5zM551 947q63 0 107.5 44.5t44.5 106.5q0 63 -44.5 107t-107.5 44q-62 0 -107 -44t-45 -107q0 -61 45 -106t107 -45z" />
    <glyph glyph-name="plusminus" unicode="&#xb1;" horiz-adv-x="1119" 
d="M751 653l-50 -278h-162l50 278h-395l27 156h395l46 265h162l-46 -265h398l-27 -156h-398zM1062 116h-955l27 153h954z" />
    <glyph glyph-name="twosuperior" unicode="&#xb2;" horiz-adv-x="690" 
d="M480 1164h-136q8 95 74 153.5t169 58.5q96 0 159 -52t63 -138q0 -64 -35 -114t-106 -112q-2 -1 -44.5 -37.5t-86.5 -74.5t-45 -39v-1h283l-21 -119h-477l18 100l274 246q2 1 12 10.5t13 12.5t12 12.5t13 14t11.5 13.5t11 15t9 15t7.5 16t4 16t2 17q0 34 -23.5 56
t-63.5 22q-42 0 -68 -25.5t-29 -65.5z" />
    <glyph glyph-name="threesuperior" unicode="&#xb3;" horiz-adv-x="697" 
d="M433 985l6 111q47 -1 58 -1q54 0 92 23t38 66q0 35 -26 55.5t-65 20.5q-38 0 -61 -19t-29 -47h-137q8 81 70.5 131.5t158.5 50.5q92 0 160.5 -46.5t68.5 -131.5q0 -64 -37.5 -107.5t-90.5 -54.5v-2q47 -18 74.5 -58t27.5 -96q0 -92 -73.5 -149t-186.5 -52
q-103 3 -165.5 54.5t-67.5 133.5q-1 11 -1 26h127v-2q3 -42 33.5 -67.5t78.5 -25.5q47 0 78.5 25.5t31.5 70.5q0 78 -106 90q-12 1 -57 1z" />
    <glyph glyph-name="acute" unicode="&#xb4;" horiz-adv-x="1000" 
d="M614 1208h-146l286 350h201z" />
    <glyph glyph-name="paragraph" unicode="&#xb6;" horiz-adv-x="1272" 
d="M749 -210h-188l123 691l-19 4q-46 9 -93 29t-96.5 56t-88 83t-63 115.5t-24.5 147.5q0 14 1 21q3 101 45 182.5t112 135t163 82t199 28.5h207zM908 -210l278 1575h188l-278 -1575h-188z" />
    <glyph glyph-name="periodcentered" unicode="&#xb7;" horiz-adv-x="547" 
d="M251 747q0 66 43 109t105 43q64 0 106.5 -41.5t42.5 -105.5q0 -65 -43.5 -107t-109.5 -42q-61 0 -102.5 41t-41.5 103z" />
    <glyph glyph-name="cedilla" unicode="&#xb8;" horiz-adv-x="1000" 
d="M333 -149l52 164h133l-45 -145q83 -2 134 -42.5t51 -113.5q0 -4 -1 -6q-2 -91 -70 -141t-173 -50q-80 0 -158 26l19 108q62 -19 127 -19q106 0 107 69v2q0 70 -135 70h-51z" />
    <glyph glyph-name="onesuperior" unicode="&#xb9;" horiz-adv-x="653" 
d="M553 689h-139l95 535h-6l-168 -90l23 134l175 98h139z" />
    <glyph glyph-name="ordmasculine" unicode="&#xba;" horiz-adv-x="753" 
d="M566 1312q125 0 200.5 -83.5t55.5 -218.5q0 -1 -3 -20.5t-3 -21.5l-7 -37q-18 -109 -88.5 -167.5t-175.5 -58.5q-128 0 -203 80.5t-54 221.5q0 20 6 44l6 36q18 105 89.5 165t176.5 60zM571 1203q-56 0 -93 -38.5t-49 -101.5l-6 -35q-1 -1 -3.5 -17t-2.5 -18
q-13 -78 19.5 -128t101.5 -50q60 0 95 38.5t47 101.5l6 35q1 1 3.5 17t2.5 18q13 76 -21 127t-100 51z" />
    <glyph glyph-name="guillemotright" unicode="&#xbb;" horiz-adv-x="1300" 
d="M780 559l-414 -404h-208l419 413l1 6l-258 395h195l267 -402zM1253 559l-414 -404h-208l419 413l1 6l-258 395h195l267 -402z" />
    <glyph glyph-name="onequarter" unicode="&#xbc;" horiz-adv-x="1562" 
d="M1282 679h204l-75 -435h89l-17 -110h-89l-24 -134h-136l23 134h-334l17 110q25 36 55 76.5l50 67.5t61.5 78t54 66.5t64 77t57.5 69.5zM1083 240h194l60 324h-8q-17 -22 -62 -78.5t-66 -83.5t-54.5 -71.5t-62.5 -85.5zM482 689h-139l95 535h-6l-168 -90l23 134l175 98
h139zM372 0h-168l561 683l562 683h167l-561 -683z" />
    <glyph glyph-name="onehalf" unicode="&#xbd;" horiz-adv-x="1562" 
d="M1211 476h-136q8 95 74 153.5t169 58.5q96 0 159 -52t63 -138q0 -64 -34.5 -113.5t-106.5 -113.5q-2 -1 -44.5 -37.5t-86.5 -74.5t-45 -39v-1h283l-21 -119h-478l18 100l275 247q2 1 12 10.5t13 12.5t12 12.5t13 14t11.5 13.5t11 15t9 15t7.5 16t4 16t2 17q0 34 -23.5 56
t-63.5 22q-42 0 -68 -25.5t-29 -65.5zM481 689h-139l95 535h-6l-168 -90l23 134l175 98h139zM373 0h-168l561 683l562 683h167l-561 -683z" />
    <glyph glyph-name="threequarters" unicode="&#xbe;" horiz-adv-x="1479" 
d="M1281 679h204l-75 -435h89l-17 -110h-89l-24 -134h-136l23 134h-334l17 110q24 36 53.5 75.5t52 69.5t59.5 75.5t56 68.5t62.5 75.5t58.5 70.5zM1082 240h194l60 324h-8q-17 -22 -62 -78.5t-66 -83.5t-54.5 -71.5t-62.5 -85.5zM295 986l6 111q46 -1 57 -1q54 0 92 23
t38 66q0 34 -26 54.5t-65 20.5q-38 0 -60.5 -18.5t-28.5 -46.5h-137q8 80 70 130.5t158 50.5q92 0 160.5 -46.5t68.5 -130.5q0 -64 -37.5 -107.5t-90.5 -54.5v-2q47 -18 74.5 -57.5t27.5 -95.5q0 -92 -73.5 -148.5t-186.5 -51.5q-102 3 -164.5 54t-67.5 133q-1 11 -1 26h127
v-2q3 -42 33.5 -67.5t77.5 -25.5t78.5 25.5t31.5 70.5q0 77 -106 89q-11 1 -56 1zM357 0h-168l561 683l562 683h167l-561 -683z" />
    <glyph glyph-name="questiondown" unicode="&#xbf;" horiz-adv-x="1025" 
d="M832 956q0 -63 -42.5 -104t-105.5 -41q-66 0 -108 40.5t-42 103.5q0 61 43 101t109 40q62 0 104 -40t42 -100zM935 35q-18 -154 -125.5 -253t-296.5 -99q-114 0 -205.5 36t-149.5 114t-58 188q0 67 21 123t62 98.5t78.5 70t92.5 59.5q100 59 129 84q51 47 62 123l12 67
h181l-12 -71q-16 -115 -64 -176.5t-174 -135.5q-40 -23 -58 -34.5t-50.5 -36t-47.5 -45t-28 -51.5t-13 -66q0 -87 65 -135.5t160 -48.5q99 0 159 53t75 136h185z" />
    <glyph glyph-name="Agrave" unicode="&#xc0;" horiz-adv-x="1246" 
d="M27 0l717 1366h221l237 -1366h-206l-61 396h-497l-202 -396h-209zM825 1143h-13l-296 -589h398zM1014 1499h-197l-309 197h229z" />
    <glyph glyph-name="Aacute" unicode="&#xc1;" horiz-adv-x="1246" 
d="M27 0l717 1366h221l237 -1366h-206l-61 396h-497l-202 -396h-209zM825 1143h-13l-296 -589h398zM733 1499l294 199h237l-329 -199h-202z" />
    <glyph glyph-name="Acircumflex" unicode="&#xc2;" horiz-adv-x="1246" 
d="M27 0l717 1366h221l237 -1366h-206l-61 396h-497l-202 -396h-209zM825 1143h-13l-296 -589h398zM539 1482l294 236h190l202 -236h-178l-129 141h-13l-177 -141h-189z" />
    <glyph glyph-name="Atilde" unicode="&#xc3;" horiz-adv-x="1246" 
d="M27 0l717 1366h221l237 -1366h-206l-61 396h-497l-202 -396h-209zM825 1143h-13l-296 -589h398zM853 1529q-3 3 -15 14.5t-17.5 16t-16 12t-20.5 10.5t-21 3q-66 0 -73 -105h-127q0 93 49 158.5t143 65.5q47 0 84 -18.5t78 -56.5q5 -4 20 -19.5t21.5 -20.5t19.5 -11
t27 -6q35 0 54 36t22 79h127q0 -88 -53 -157.5t-139 -69.5q-58 0 -94 17.5t-69 51.5z" />
    <glyph glyph-name="Adieresis" unicode="&#xc4;" horiz-adv-x="1246" 
d="M27 0l717 1366h221l237 -1366h-206l-61 396h-497l-202 -396h-209zM825 1143h-13l-296 -589h398zM613 1586q0 48 30 77t78 29q47 0 77.5 -29.5t30.5 -76.5q0 -45 -30.5 -73.5t-77.5 -28.5t-77.5 28.5t-30.5 73.5zM969 1586q0 47 30 76.5t75 29.5q49 0 79.5 -29t30.5 -77
q0 -45 -30.5 -73.5t-79.5 -28.5q-45 0 -75 28.5t-30 73.5z" />
    <glyph glyph-name="Aring" unicode="&#xc5;" horiz-adv-x="1246" 
d="M852 1416q37 -8 68 13t39 57q7 36 -14.5 67t-59.5 39q-36 8 -67.5 -12.5t-39.5 -56.5q-7 -36 15 -67t59 -40zM834 1143h-13l-296 -589h398zM447 396l-202 -396h-209l706 1342q-39 28 -61.5 70.5t-22.5 92.5q0 88 61 149t150 61q87 0 148 -60.5t61 -149.5q0 -54 -27 -100
t-73 -73l233 -1332h-206l-61 396h-497z" />
    <glyph glyph-name="AE" unicode="&#xc6;" horiz-adv-x="1826" 
d="M1073 1130l-434 -578l341 1l108 577h-15zM882 0l69 391h-417l-302 -391h-225l1027 1366h910l-29 -172h-627l-74 -409h595l-27 -167h-597l-80 -446h631l-28 -172h-826z" />
    <glyph glyph-name="Ccedilla" unicode="&#xc7;" horiz-adv-x="1295" 
d="M674 -483q-80 0 -158 26l19 108q62 -19 127 -19q107 0 107 69l1 2q0 70 -135 70h-52l10 78l41 131q-182 31 -294 163t-112 360q0 90 9 144l46 236q47 245 199 377t370 132q113 0 208.5 -35t157.5 -93.5t96.5 -133t34.5 -154.5q0 -35 -4 -47h-190q2 17 0 34
q-4 44 -24 86.5t-56 79.5t-95 59.5t-132 22.5q-149 0 -241 -93t-128 -271l-38 -187q-14 -70 -14 -155q0 -175 93.5 -263.5t240.5 -88.5q132 0 212 64.5t100 161.5h193q-2 -25 -7 -43q-13 -66 -48.5 -127t-93.5 -114.5t-149.5 -87t-202.5 -36.5l-32 -103q83 -2 134 -42.5
t51 -113.5q0 -4 -1 -6q-2 -91 -69.5 -141t-173.5 -50z" />
    <glyph glyph-name="Egrave" unicode="&#xc8;" horiz-adv-x="1133" 
d="M974 1499h-197l-309 197h229zM1033 173l-29 -173h-827l241 1366h823l-30 -173h-626l-74 -408h595l-27 -167h-596l-80 -445h630z" />
    <glyph glyph-name="Eacute" unicode="&#xc9;" horiz-adv-x="1133" 
d="M693 1499l294 199h237l-329 -199h-202zM1033 173l-29 -173h-827l241 1366h823l-30 -173h-626l-74 -408h595l-27 -167h-596l-80 -445h630z" />
    <glyph glyph-name="Ecircumflex" unicode="&#xca;" horiz-adv-x="1133" 
d="M499 1482l294 236h190l202 -236h-178l-129 141h-13l-177 -141h-189zM1033 173l-29 -173h-827l241 1366h823l-30 -173h-626l-74 -408h595l-27 -167h-596l-80 -445h630z" />
    <glyph glyph-name="Edieresis" unicode="&#xcb;" horiz-adv-x="1133" 
d="M573 1586q0 48 30 77t78 29q47 0 77.5 -29.5t30.5 -76.5q0 -45 -30.5 -73.5t-77.5 -28.5t-77.5 28.5t-30.5 73.5zM929 1586q0 47 30 76.5t75 29.5q49 0 79.5 -29t30.5 -77q0 -45 -30.5 -73.5t-79.5 -28.5q-45 0 -75 28.5t-30 73.5zM1033 173l-29 -173h-827l241 1366h823
l-30 -173h-626l-74 -408h595l-27 -167h-596l-80 -445h630z" />
    <glyph glyph-name="Igrave" unicode="&#xcc;" horiz-adv-x="553" 
d="M366 0h-197l241 1366h197zM673 1499h-197l-309 197h229z" />
    <glyph glyph-name="Iacute" unicode="&#xcd;" horiz-adv-x="553" 
d="M366 0h-197l241 1366h197zM392 1499l294 199h237l-329 -199h-202z" />
    <glyph glyph-name="Icircumflex" unicode="&#xce;" horiz-adv-x="553" 
d="M366 0h-197l241 1366h197zM198 1482l294 236h190l202 -236h-178l-129 141h-13l-177 -141h-189z" />
    <glyph glyph-name="Idieresis" unicode="&#xcf;" horiz-adv-x="553" 
d="M366 0h-197l241 1366h197zM272 1586q0 48 30 77t78 29q47 0 77.5 -29.5t30.5 -76.5q0 -45 -30.5 -73.5t-77.5 -28.5t-77.5 28.5t-30.5 73.5zM628 1586q0 47 30 76.5t75 29.5q49 0 79.5 -29t30.5 -77q0 -45 -30.5 -73.5t-79.5 -28.5q-45 0 -75 28.5t-30 73.5z" />
    <glyph glyph-name="Eth" unicode="&#xd0;" horiz-adv-x="1439" 
d="M511 1366h401q263 0 404.5 -141t141.5 -379q0 -82 -11 -149q0 -3 -6.5 -39t-13.5 -73.5t-7 -38.5q-51 -268 -239.5 -407t-509.5 -139h-401l108 609h-162l30 175h162zM680 1193l-74 -409h291l-30 -175h-291l-79 -436h168q228 0 374 99t184 294q2 4 13.5 67.5t11.5 67.5
q9 46 9 129q0 181 -103 272t-301 91h-173z" />
    <glyph glyph-name="Ntilde" unicode="&#xd1;" horiz-adv-x="1426" 
d="M959 1529q-3 3 -15 14.5t-17.5 16t-16 12t-20.5 10.5t-21 3q-66 0 -73 -105h-127q0 93 49 158.5t143 65.5q47 0 84 -18.5t78 -56.5q5 -4 20 -19.5t21.5 -20.5t19.5 -11t27 -6q35 0 54 36t22 79h127q0 -88 -53 -157.5t-139 -69.5q-58 0 -94 17.5t-69 51.5zM1239 0h-180
l-488 1031h-11l-182 -1031h-193l241 1366h183l483 -1032h11l184 1032h193z" />
    <glyph glyph-name="Ograve" unicode="&#xd2;" horiz-adv-x="1384" 
d="M1086 1499h-197l-309 197h229zM476 850l-35 -186q-15 -80 -15 -153q0 -165 94 -261.5t260 -96.5q152 0 247 95.5t129 284.5l36 199q8 44 8 131q0 159 -94 255t-256 96q-145 0 -242 -88t-132 -276zM240 678l38 207q43 241 199 375t379 134q246 0 396 -143t150 -392
q0 -83 -15 -166l-39 -208q-45 -248 -194 -380.5t-399 -132.5q-151 0 -269.5 59t-189 177t-70.5 277q0 110 14 193z" />
    <glyph glyph-name="Oacute" unicode="&#xd3;" horiz-adv-x="1384" 
d="M805 1499l294 199h237l-329 -199h-202zM476 850l-35 -186q-15 -80 -15 -153q0 -165 94 -261.5t260 -96.5q152 0 247 95.5t129 284.5l36 199q8 44 8 131q0 159 -94 255t-256 96q-145 0 -242 -88t-132 -276zM240 678l38 207q43 241 199 375t379 134q246 0 396 -143
t150 -392q0 -83 -15 -166l-39 -208q-45 -248 -194 -380.5t-399 -132.5q-151 0 -269.5 59t-189 177t-70.5 277q0 110 14 193z" />
    <glyph glyph-name="Ocircumflex" unicode="&#xd4;" horiz-adv-x="1384" 
d="M611 1482l294 236h190l202 -236h-178l-129 141h-13l-177 -141h-189zM476 850l-35 -186q-15 -80 -15 -153q0 -165 94 -261.5t260 -96.5q152 0 247 95.5t129 284.5l36 199q8 44 8 131q0 159 -94 255t-256 96q-145 0 -242 -88t-132 -276zM240 678l38 207q43 241 199 375
t379 134q246 0 396 -143t150 -392q0 -83 -15 -166l-39 -208q-45 -248 -194 -380.5t-399 -132.5q-151 0 -269.5 59t-189 177t-70.5 277q0 110 14 193z" />
    <glyph glyph-name="Otilde" unicode="&#xd5;" horiz-adv-x="1384" 
d="M476 850l-35 -186q-15 -80 -15 -153q0 -165 94 -261.5t260 -96.5q152 0 247 95.5t129 284.5l36 199q8 44 8 131q0 159 -94 255t-256 96q-145 0 -242 -88t-132 -276zM240 678l38 207q43 241 199 375t379 134q246 0 396 -143t150 -392q0 -83 -15 -166l-39 -208
q-45 -248 -194 -380.5t-399 -132.5q-151 0 -269.5 59t-189 177t-70.5 277q0 110 14 193zM925 1529q-3 3 -15 14.5t-17.5 16t-16 12t-20.5 10.5t-21 3q-66 0 -73 -105h-127q0 93 49 158.5t143 65.5q47 0 84 -18.5t78 -56.5q5 -4 20 -19.5t21.5 -20.5t19.5 -11t27 -6
q35 0 54 36t22 79h127q0 -88 -53 -157.5t-139 -69.5q-58 0 -94 17.5t-69 51.5z" />
    <glyph glyph-name="Odieresis" unicode="&#xd6;" horiz-adv-x="1384" 
d="M685 1586q0 48 30 77t78 29q47 0 77.5 -29.5t30.5 -76.5q0 -45 -30.5 -73.5t-77.5 -28.5t-77.5 28.5t-30.5 73.5zM1041 1586q0 47 30 76.5t75 29.5q49 0 79.5 -29t30.5 -77q0 -45 -30.5 -73.5t-79.5 -28.5q-45 0 -75 28.5t-30 73.5zM476 850l-35 -186q-15 -80 -15 -153
q0 -165 94 -261.5t260 -96.5q152 0 247 95.5t129 284.5l36 199q8 44 8 131q0 159 -94 255t-256 96q-145 0 -242 -88t-132 -276zM240 678l38 207q43 241 199 375t379 134q246 0 396 -143t150 -392q0 -83 -15 -166l-39 -208q-45 -248 -194 -380.5t-399 -132.5
q-151 0 -269.5 59t-189 177t-70.5 277q0 110 14 193z" />
    <glyph glyph-name="multiply" unicode="&#xd7;" horiz-adv-x="1119" 
d="M1119 787l-363 -297l256 -315l-123 -106l-255 315l-345 -294l-94 123l344 293l-255 315l123 106l255 -315l363 297z" />
    <glyph glyph-name="Oslash" unicode="&#xd8;" horiz-adv-x="1384" 
d="M238 678l37 207q44 241 199.5 375t378.5 134q140 0 252 -48.5t183 -139.5l109 101l90 -93l-131 -121q43 -106 43 -234q0 -90 -15 -166l-38 -208q-46 -248 -195 -380.5t-399 -132.5q-132 0 -241 47t-179 136l-107 -99l-86 99l125 115q-40 97 -40 215q0 117 14 193z
M1196 845q0 52 -8 88l-708 -637q91 -143 298 -143q151 0 246.5 95.5t129.5 284.5l34 189q8 42 8 123zM1143 1069q-44 69 -120 107t-176 38q-144 0 -241.5 -88.5t-132.5 -275.5l-35 -186q-14 -79 -14 -145q0 -47 9 -87z" />
    <glyph glyph-name="Ugrave" unicode="&#xd9;" horiz-adv-x="1380" 
d="M1088 1499h-197l-309 197h229zM602 1366l-146 -827q-8 -43 -8 -95q0 -130 81 -209t219 -79q129 0 218.5 74.5t115.5 220.5l162 915h201l-166 -942q-40 -224 -182.5 -337.5t-353.5 -113.5q-143 0 -254.5 50.5t-177.5 152t-66 239.5q0 63 13 135l143 816h201z" />
    <glyph glyph-name="Uacute" unicode="&#xda;" horiz-adv-x="1380" 
d="M807 1499l294 199h237l-329 -199h-202zM602 1366l-146 -827q-8 -43 -8 -95q0 -130 81 -209t219 -79q129 0 218.5 74.5t115.5 220.5l162 915h201l-166 -942q-40 -224 -182.5 -337.5t-353.5 -113.5q-143 0 -254.5 50.5t-177.5 152t-66 239.5q0 63 13 135l143 816h201z" />
    <glyph glyph-name="Ucircumflex" unicode="&#xdb;" horiz-adv-x="1380" 
d="M613 1482l294 236h190l202 -236h-178l-129 141h-13l-177 -141h-189zM602 1366l-146 -827q-8 -43 -8 -95q0 -130 81 -209t219 -79q129 0 218.5 74.5t115.5 220.5l162 915h201l-166 -942q-40 -224 -182.5 -337.5t-353.5 -113.5q-143 0 -254.5 50.5t-177.5 152t-66 239.5
q0 63 13 135l143 816h201z" />
    <glyph glyph-name="Udieresis" unicode="&#xdc;" horiz-adv-x="1380" 
d="M687 1586q0 48 30 77t78 29q47 0 77.5 -29.5t30.5 -76.5q0 -45 -30.5 -73.5t-77.5 -28.5t-77.5 28.5t-30.5 73.5zM1043 1586q0 47 30 76.5t75 29.5q49 0 79.5 -29t30.5 -77q0 -45 -30.5 -73.5t-79.5 -28.5q-45 0 -75 28.5t-30 73.5zM602 1366l-146 -827q-8 -43 -8 -95
q0 -130 81 -209t219 -79q129 0 218.5 74.5t115.5 220.5l162 915h201l-166 -942q-40 -224 -182.5 -337.5t-353.5 -113.5q-143 0 -254.5 50.5t-177.5 152t-66 239.5q0 63 13 135l143 816h201z" />
    <glyph glyph-name="Yacute" unicode="&#xdd;" horiz-adv-x="1131" 
d="M755 565l-100 -565h-197l99 562l-328 804h210l237 -619h11l444 619h226zM677 1499l294 199h237l-329 -199h-202z" />
    <glyph glyph-name="Thorn" unicode="&#xde;" horiz-adv-x="1191" 
d="M418 1365h194l-45 -259h255q192 0 297 -93.5t105 -249.5q0 -35 -6 -77q-50 -389 -547 -389h-246l-53 -297h-195zM783 940h-245l-85 -479h230q169 0 246 59.5t93 167.5q6 40 6 61q0 191 -245 191z" />
    <glyph glyph-name="germandbls" unicode="&#xdf;" horiz-adv-x="1259" 
d="M366 0h-194l205 1158q25 137 135 216t275 79q192 0 318 -102.5t126 -272.5q0 -76 -28.5 -141.5t-74 -108t-97.5 -69t-102 -32.5l-1 -9q131 -23 214 -113.5t83 -249.5q0 -122 -60.5 -212t-155.5 -133t-210 -43q-77 0 -149 17.5t-108 37.5l29 157q27 -16 87.5 -32
t120.5 -16q105 0 180.5 62t75.5 178q0 127 -87 200t-211 74h-64l31 180h63q124 0 200 65.5t76 177.5q0 106 -73.5 163.5t-182.5 57.5q-92 0 -149.5 -43.5t-73.5 -129.5z" />
    <glyph glyph-name="agrave" unicode="&#xe0;" horiz-adv-x="1105" 
d="M473 -17q-135 0 -226 80t-91 215q0 25 2 40q12 140 121 219.5t306 79.5h277l12 68q4 20 4 45q0 75 -51.5 129t-160.5 54q-87 0 -141 -34.5t-72 -88.5h-186q23 124 131.5 202.5t281.5 78.5q184 0 283 -91.5t99 -242.5q0 -64 -18 -152l-103 -585h-185l25 141h-12
q-32 -64 -109.5 -111t-186.5 -47zM350 302q0 -69 49 -113.5t134 -44.5q102 0 181 60t98 153l24 123h-253q-114 0 -173.5 -51t-59.5 -127zM840 1210h-152l-241 349h204z" />
    <glyph glyph-name="aacute" unicode="&#xe1;" horiz-adv-x="1105" 
d="M473 -17q-135 0 -226 80t-91 215q0 25 2 40q12 140 121 219.5t306 79.5h277l12 68q4 20 4 45q0 75 -51.5 129t-160.5 54q-87 0 -141 -34.5t-72 -88.5h-186q23 124 131.5 202.5t281.5 78.5q184 0 283 -91.5t99 -242.5q0 -64 -18 -152l-103 -585h-185l25 141h-12
q-32 -64 -109.5 -111t-186.5 -47zM350 302q0 -69 49 -113.5t134 -44.5q102 0 181 60t98 153l24 123h-253q-114 0 -173.5 -51t-59.5 -127zM745 1210h-146l286 350h201z" />
    <glyph glyph-name="acircumflex" unicode="&#xe2;" horiz-adv-x="1105" 
d="M473 -17q-135 0 -226 80t-91 215q0 25 2 40q12 140 121 219.5t306 79.5h277l12 68q4 20 4 45q0 75 -51.5 129t-160.5 54q-87 0 -141 -34.5t-72 -88.5h-186q23 124 131.5 202.5t281.5 78.5q184 0 283 -91.5t99 -242.5q0 -64 -18 -152l-103 -585h-185l25 141h-12
q-32 -64 -109.5 -111t-186.5 -47zM350 302q0 -69 49 -113.5t134 -44.5q102 0 181 60t98 153l24 123h-253q-114 0 -173.5 -51t-59.5 -127zM417 1205l308 372h134l182 -372h-159l-105 254h-6l-192 -254h-162z" />
    <glyph glyph-name="atilde" unicode="&#xe3;" horiz-adv-x="1105" 
d="M473 -17q-135 0 -226 80t-91 215q0 25 2 40q12 140 121 219.5t306 79.5h277l12 68q4 20 4 45q0 75 -51.5 129t-160.5 54q-87 0 -141 -34.5t-72 -88.5h-186q23 124 131.5 202.5t281.5 78.5q184 0 283 -91.5t99 -242.5q0 -64 -18 -152l-103 -585h-185l25 141h-12
q-32 -64 -109.5 -111t-186.5 -47zM350 302q0 -69 49 -113.5t134 -44.5q102 0 181 60t98 153l24 123h-253q-114 0 -173.5 -51t-59.5 -127zM837 1132q-50 0 -83.5 23.5t-62.5 64.5q-3 4 -15.5 22t-17.5 23.5t-16 16.5t-22 14.5t-25 3.5q-37 0 -54.5 -31.5t-27.5 -83.5h-129
q10 115 66.5 183.5t144.5 68.5q32 0 58 -8.5t48 -28.5t32.5 -32t31.5 -40q2 -3 7 -10t7 -9.5t7 -8.5t7 -8.5t6.5 -7t7.5 -6.5l7.5 -5t8.5 -4t9 -2t10 -1q35 0 56.5 35.5t29.5 83.5h128q-6 -101 -67 -177t-152 -76z" />
    <glyph glyph-name="adieresis" unicode="&#xe4;" horiz-adv-x="1105" 
d="M473 -17q-135 0 -226 80t-91 215q0 25 2 40q12 140 121 219.5t306 79.5h277l12 68q4 20 4 45q0 75 -51.5 129t-160.5 54q-87 0 -141 -34.5t-72 -88.5h-186q23 124 131.5 202.5t281.5 78.5q184 0 283 -91.5t99 -242.5q0 -64 -18 -152l-103 -585h-185l25 141h-12
q-32 -64 -109.5 -111t-186.5 -47zM350 302q0 -69 49 -113.5t134 -44.5q102 0 181 60t98 153l24 123h-253q-114 0 -173.5 -51t-59.5 -127zM449 1301q0 48 31.5 78t79.5 30q50 0 81 -30t31 -78q0 -47 -31.5 -76.5t-80.5 -29.5q-48 0 -79.5 30t-31.5 76zM816 1301q0 48 31 78
t78 30q51 0 83 -30t32 -78q0 -47 -32 -76.5t-83 -29.5q-47 0 -78 30t-31 76z" />
    <glyph glyph-name="aring" unicode="&#xe5;" horiz-adv-x="1105" 
d="M473 -17q-135 0 -226 80t-91 215q0 25 2 40q12 140 121 219.5t306 79.5h277l12 68q4 20 4 45q0 75 -51.5 129t-160.5 54q-87 0 -141 -34.5t-72 -88.5h-186q23 124 131.5 202.5t281.5 78.5q184 0 283 -91.5t99 -242.5q0 -64 -18 -152l-103 -585h-185l25 141h-12
q-32 -64 -109.5 -111t-186.5 -47zM350 302q0 -69 49 -113.5t134 -44.5q102 0 181 60t98 153l24 123h-253q-114 0 -173.5 -51t-59.5 -127zM767 1313q42 0 72 29.5t30 71.5t-30 71.5t-72 29.5t-72 -29.5t-30 -71.5q0 -41 30.5 -71t71.5 -30zM766 1218q-82 0 -138.5 57.5
t-56.5 138.5t57.5 137.5t139.5 56.5q80 0 136.5 -56.5t56.5 -137.5q0 -82 -57 -139t-138 -57z" />
    <glyph glyph-name="ae" unicode="&#xe6;" horiz-adv-x="1747" 
d="M1261 -18q-128 0 -222 58.5t-137 168.5h-3q-124 -226 -393 -226q-161 0 -254.5 79t-93.5 224q0 160 114 245.5t318 85.5h274l13 73q3 21 3 43q0 72 -52 126t-161 54q-87 0 -140.5 -34.5t-71.5 -88.5h-186q22 123 131 202t277 79q229 0 323 -145h3q61 69 150.5 107
t198.5 38q112 0 195.5 -40.5t127 -106.5t60 -142.5t5.5 -156.5q0 -11 -25 -144h-684q-11 -61 -11 -88q0 -106 59 -177t182 -71q88 0 148.5 37t77.5 92h189q-18 -115 -134 -203.5t-281 -88.5zM352 299q0 -69 48.5 -112t134.5 -43q104 0 182.5 61.5t96.5 156.5l24 118h-253
q-115 0 -174 -52.5t-59 -128.5zM1556 620q4 8 4 19q20 116 -37.5 195.5t-178.5 79.5q-100 0 -176 -59t-100 -171q-13 -56 -13 -64h501z" />
    <glyph glyph-name="ccedilla" unicode="&#xe7;" horiz-adv-x="1061" 
d="M511 -483q-79 0 -157 26l18 108q64 -19 128 -19q106 0 107 69v2q0 70 -135 70h-51l9 78l47 147q-136 36 -213.5 139t-77.5 255q0 68 14 149l24 140q33 191 155.5 290.5t305.5 99.5q184 0 295 -97t111 -242q0 -15 -1 -17h-180v11q0 69 -61.5 126t-164.5 57
q-105 0 -179 -70t-97 -197l-20 -115q-10 -52 -10 -104q0 -129 61.5 -201t181.5 -72q88 0 145 36.5t71 93.5h192q-22 -135 -134.5 -215.5t-273.5 -82.5h-15l-35 -112q83 -2 133.5 -42.5t50.5 -113.5v-6q-2 -91 -70 -141t-174 -50z" />
    <glyph glyph-name="egrave" unicode="&#xe8;" horiz-adv-x="1094" 
d="M863 1210h-152l-241 349h204zM593 -18q-184 0 -299 105.5t-115 298.5q0 63 17 158l25 139q32 184 159.5 286t311.5 102q113 0 197.5 -40.5t128.5 -106.5t61 -142.5t6 -156.5q0 -11 -25 -144h-686q-10 -38 -10 -89q0 -105 59 -176t183 -71q89 0 149 37t77 92h189
q-20 -116 -137 -204t-291 -88zM899 620q0 1 1.5 10t1.5 10q21 116 -36.5 195t-178.5 79q-98 0 -173 -58t-99 -172l-14 -64h498z" />
    <glyph glyph-name="eacute" unicode="&#xe9;" horiz-adv-x="1094" 
d="M768 1210h-146l286 350h201zM593 -18q-184 0 -299 105.5t-115 298.5q0 63 17 158l25 139q32 184 159.5 286t311.5 102q113 0 197.5 -40.5t128.5 -106.5t61 -142.5t6 -156.5q0 -11 -25 -144h-686q-10 -38 -10 -89q0 -105 59 -176t183 -71q89 0 149 37t77 92h189
q-20 -116 -137 -204t-291 -88zM899 620q0 1 1.5 10t1.5 10q21 116 -36.5 195t-178.5 79q-98 0 -173 -58t-99 -172l-14 -64h498z" />
    <glyph glyph-name="ecircumflex" unicode="&#xea;" horiz-adv-x="1094" 
d="M440 1205l308 372h134l182 -372h-159l-105 254h-6l-192 -254h-162zM593 -18q-184 0 -299 105.5t-115 298.5q0 63 17 158l25 139q32 184 159.5 286t311.5 102q113 0 197.5 -40.5t128.5 -106.5t61 -142.5t6 -156.5q0 -11 -25 -144h-686q-10 -38 -10 -89q0 -105 59 -176
t183 -71q89 0 149 37t77 92h189q-20 -116 -137 -204t-291 -88zM899 620q0 1 1.5 10t1.5 10q21 116 -36.5 195t-178.5 79q-98 0 -173 -58t-99 -172l-14 -64h498z" />
    <glyph glyph-name="edieresis" unicode="&#xeb;" horiz-adv-x="1094" 
d="M593 -18q-184 0 -299 105.5t-115 298.5q0 63 17 158l25 139q32 184 159.5 286t311.5 102q113 0 197.5 -40.5t128.5 -106.5t61 -142.5t6 -156.5q0 -11 -25 -144h-686q-10 -38 -10 -89q0 -105 59 -176t183 -71q89 0 149 37t77 92h189q-20 -116 -137 -204t-291 -88zM899 620
q0 1 1.5 10t1.5 10q21 116 -36.5 195t-178.5 79q-98 0 -173 -58t-99 -172l-14 -64h498zM472 1301q0 48 31.5 78t79.5 30q50 0 81 -30t31 -78q0 -47 -31.5 -76.5t-80.5 -29.5q-48 0 -79.5 30t-31.5 76zM839 1301q0 48 31 78t78 30q51 0 83 -30t32 -78q0 -47 -32 -76.5
t-83 -29.5q-47 0 -78 30t-31 76z" />
    <glyph glyph-name="igrave" unicode="&#xec;" horiz-adv-x="581" 
d="M603 1210h-152l-241 349h204zM175 0l187 1054h194l-187 -1054h-194z" />
    <glyph glyph-name="iacute" unicode="&#xed;" horiz-adv-x="581" 
d="M508 1210h-146l286 350h201zM175 0l187 1054h194l-187 -1054h-194z" />
    <glyph glyph-name="icircumflex" unicode="&#xee;" horiz-adv-x="581" 
d="M180 1205l308 372h134l182 -372h-159l-105 254h-6l-192 -254h-162zM175 0l187 1054h194l-187 -1054h-194z" />
    <glyph glyph-name="idieresis" unicode="&#xef;" horiz-adv-x="581" 
d="M175 0l187 1054h194l-187 -1054h-194zM212 1301q0 48 31.5 78t79.5 30q50 0 81 -30t31 -78q0 -47 -31.5 -76.5t-80.5 -29.5q-48 0 -79.5 30t-31.5 76zM579 1301q0 48 31 78t78 30q51 0 83 -30t32 -78q0 -47 -32 -76.5t-83 -29.5q-47 0 -78 30t-31 76z" />
    <glyph glyph-name="eth" unicode="&#xf0;" horiz-adv-x="1189" 
d="M1090 382q-34 -185 -155 -294.5t-307 -109.5q-197 0 -318.5 118.5t-121.5 318.5q0 59 11 118q1 7 10 58t10 52q32 176 154 278t289 102q211 0 303 -162l7 -1q0 1 -0.5 33.5t-1.5 35.5q0 62 -22.5 135t-58.5 135l-292 -61l-16 110l243 49q-76 101 -164 177l159 80
q96 -73 187 -213l251 52l22 -106l-211 -42q99 -193 88 -424q0 -67 -14 -151zM684 864q-114 0 -189 -75t-96 -202l-12 -75q-8 -50 -8 -90q0 -125 65.5 -200.5t182.5 -75.5q113 0 184.5 73t93.5 204l15 86q9 48 9 93q0 124 -67 193t-178 69z" />
    <glyph glyph-name="ntilde" unicode="&#xf1;" horiz-adv-x="1192" 
d="M918 1132q-50 0 -83.5 23.5t-62.5 64.5q-3 4 -15.5 22t-17.5 23.5t-16 16.5t-22 14.5t-25 3.5q-37 0 -54.5 -31.5t-27.5 -83.5h-129q10 115 66.5 183.5t144.5 68.5q32 0 58 -8.5t48 -28.5t32.5 -32t31.5 -40q2 -3 7 -10t7 -9.5t7 -8.5t7 -8.5t6.5 -7t7.5 -6.5l7.5 -5
t8.5 -4t9 -2t10 -1q35 0 56.5 35.5t29.5 83.5h128q-6 -101 -67 -177t-152 -76zM156 0l186 1054h190l-32 -171h14q91 187 311 187q159 0 240.5 -93.5t81.5 -233.5q0 -60 -21 -178l-99 -565h-194l102 576q13 78 13 125q0 92 -47.5 150t-145.5 58q-123 0 -199 -85t-99 -218
l-107 -606h-194z" />
    <glyph glyph-name="ograve" unicode="&#xf2;" horiz-adv-x="1132" 
d="M878 1210h-152l-241 349h204zM401 638l-21 -118q-11 -57 -11 -106q0 -120 68.5 -193.5t187.5 -73.5q110 0 179.5 73.5t93.5 207.5l21 126q5 30 5 93q0 115 -68 188t-184 73q-105 0 -176.5 -68.5t-94.5 -201.5zM189 543l23 129q33 184 158.5 291.5t304.5 107.5
q199 0 322 -115.5t123 -314.5q0 -59 -12 -126l-24 -129q-36 -190 -156 -296.5t-320 -106.5q-187 0 -308.5 111t-121.5 302q0 90 11 147z" />
    <glyph glyph-name="oacute" unicode="&#xf3;" horiz-adv-x="1132" 
d="M784 1210h-146l286 350h201zM401 638l-21 -118q-11 -57 -11 -106q0 -120 68.5 -193.5t187.5 -73.5q110 0 179.5 73.5t93.5 207.5l21 126q5 30 5 93q0 115 -68 188t-184 73q-105 0 -176.5 -68.5t-94.5 -201.5zM189 543l23 129q33 184 158.5 291.5t304.5 107.5
q199 0 322 -115.5t123 -314.5q0 -59 -12 -126l-24 -129q-36 -190 -156 -296.5t-320 -106.5q-187 0 -308.5 111t-121.5 302q0 90 11 147z" />
    <glyph glyph-name="ocircumflex" unicode="&#xf4;" horiz-adv-x="1132" 
d="M456 1205l308 372h134l182 -372h-159l-105 254h-6l-192 -254h-162zM401 638l-21 -118q-11 -57 -11 -106q0 -120 68.5 -193.5t187.5 -73.5q110 0 179.5 73.5t93.5 207.5l21 126q5 30 5 93q0 115 -68 188t-184 73q-105 0 -176.5 -68.5t-94.5 -201.5zM189 543l23 129
q33 184 158.5 291.5t304.5 107.5q199 0 322 -115.5t123 -314.5q0 -59 -12 -126l-24 -129q-36 -190 -156 -296.5t-320 -106.5q-187 0 -308.5 111t-121.5 302q0 90 11 147z" />
    <glyph glyph-name="otilde" unicode="&#xf5;" horiz-adv-x="1132" 
d="M876 1132q-50 0 -83.5 23.5t-62.5 64.5q-3 4 -15.5 22t-17.5 23.5t-16 16.5t-22 14.5t-25 3.5q-37 0 -54.5 -31.5t-27.5 -83.5h-129q10 115 66.5 183.5t144.5 68.5q32 0 58 -8.5t48 -28.5t32.5 -32t31.5 -40q2 -3 7 -10t7 -9.5t7 -8.5t7 -8.5t6.5 -7t7.5 -6.5l7.5 -5
t8.5 -4t9 -2t10 -1q35 0 56.5 35.5t29.5 83.5h128q-6 -101 -67 -177t-152 -76zM401 638l-21 -118q-11 -57 -11 -106q0 -120 68.5 -193.5t187.5 -73.5q110 0 179.5 73.5t93.5 207.5l21 126q5 30 5 93q0 115 -68 188t-184 73q-105 0 -176.5 -68.5t-94.5 -201.5zM189 543
l23 129q33 184 158.5 291.5t304.5 107.5q199 0 322 -115.5t123 -314.5q0 -59 -12 -126l-24 -129q-36 -190 -156 -296.5t-320 -106.5q-187 0 -308.5 111t-121.5 302q0 90 11 147z" />
    <glyph glyph-name="odieresis" unicode="&#xf6;" horiz-adv-x="1132" 
d="M488 1301q0 48 31.5 78t79.5 30q50 0 81 -30t31 -78q0 -47 -31.5 -76.5t-80.5 -29.5q-48 0 -79.5 30t-31.5 76zM855 1301q0 48 31 78t78 30q51 0 83 -30t32 -78q0 -47 -32 -76.5t-83 -29.5q-47 0 -78 30t-31 76zM401 638l-21 -118q-11 -57 -11 -106q0 -120 68.5 -193.5
t187.5 -73.5q110 0 179.5 73.5t93.5 207.5l21 126q5 30 5 93q0 115 -68 188t-184 73q-105 0 -176.5 -68.5t-94.5 -201.5zM189 543l23 129q33 184 158.5 291.5t304.5 107.5q199 0 322 -115.5t123 -314.5q0 -59 -12 -126l-24 -129q-36 -190 -156 -296.5t-320 -106.5
q-187 0 -308.5 111t-121.5 302q0 90 11 147z" />
    <glyph glyph-name="divide" unicode="&#xf7;" horiz-adv-x="1150" 
d="M572 947q0 60 40.5 99.5t100.5 39.5q63 0 103 -38.5t40 -98.5q0 -59 -40.5 -97t-104.5 -38q-59 0 -99 38t-40 95zM472 153q0 60 40.5 99t100.5 39q63 0 103 -38.5t40 -97.5t-40.5 -97t-104.5 -38q-60 0 -99.5 37.5t-39.5 95.5zM1143 470h-970l27 156h970z" />
    <glyph glyph-name="oslash" unicode="&#xf8;" horiz-adv-x="1132" 
d="M196 543l22 129q33 184 158.5 291.5t305.5 107.5q221 0 343 -139l122 109l86 -97l-140 -124q33 -82 33 -179q0 -59 -12 -126l-24 -129q-36 -190 -156 -296.5t-320 -106.5q-204 0 -324 126l-124 -111l-80 97l134 120q-36 81 -36 181q0 84 12 147zM407 638l-21 -118
q-10 -58 -10 -99q0 -33 6 -62l505 444q-68 105 -209 105q-105 0 -176.5 -68.5t-94.5 -201.5zM429 239q68 -92 203 -92q109 0 178.5 73.5t93.5 207.5l22 126q4 26 4 82q0 13 -2 39z" />
    <glyph glyph-name="ugrave" unicode="&#xf9;" horiz-adv-x="1178" 
d="M906 1210h-152l-241 349h204zM1192 1054l-185 -1054h-184l31 177h-14q-40 -86 -120 -140t-189 -54q-156 0 -243.5 91.5t-87.5 234.5q0 71 21 180l103 565h193l-103 -572q-14 -89 -14 -132q0 -93 52 -145.5t153 -52.5q122 0 196 83.5t97 217.5l105 601h189z" />
    <glyph glyph-name="uacute" unicode="&#xfa;" horiz-adv-x="1178" 
d="M811 1210h-146l286 350h201zM1192 1054l-185 -1054h-184l31 177h-14q-40 -86 -120 -140t-189 -54q-156 0 -243.5 91.5t-87.5 234.5q0 71 21 180l103 565h193l-103 -572q-14 -89 -14 -132q0 -93 52 -145.5t153 -52.5q122 0 196 83.5t97 217.5l105 601h189z" />
    <glyph glyph-name="ucircumflex" unicode="&#xfb;" horiz-adv-x="1178" 
d="M483 1205l308 372h134l182 -372h-159l-105 254h-6l-192 -254h-162zM1192 1054l-185 -1054h-184l31 177h-14q-40 -86 -120 -140t-189 -54q-156 0 -243.5 91.5t-87.5 234.5q0 71 21 180l103 565h193l-103 -572q-14 -89 -14 -132q0 -93 52 -145.5t153 -52.5q122 0 196 83.5
t97 217.5l105 601h189z" />
    <glyph glyph-name="udieresis" unicode="&#xfc;" horiz-adv-x="1178" 
d="M1192 1054l-185 -1054h-184l31 177h-14q-40 -86 -120 -140t-189 -54q-156 0 -243.5 91.5t-87.5 234.5q0 71 21 180l103 565h193l-103 -572q-14 -89 -14 -132q0 -93 52 -145.5t153 -52.5q122 0 196 83.5t97 217.5l105 601h189zM515 1301q0 48 31.5 78t79.5 30q50 0 81 -30
t31 -78q0 -47 -31.5 -76.5t-80.5 -29.5q-48 0 -79.5 30t-31.5 76zM882 1301q0 48 31 78t78 30q51 0 83 -30t32 -78q0 -47 -32 -76.5t-83 -29.5q-47 0 -78 30t-31 76z" />
    <glyph glyph-name="yacute" unicode="&#xfd;" horiz-adv-x="1041" 
d="M1154 1054l-533 -1045q-1 -2 -20.5 -38.5t-19.5 -37.5q-42 -81 -77 -130t-83.5 -86.5t-111 -53t-151.5 -15.5q-56 0 -100 13l34 153q36 -9 80 -9q85 0 131 40t82 120l24 52l-194 1037h203l125 -844h12l392 844h207zM746 1210h-146l286 350h201z" />
    <glyph glyph-name="thorn" unicode="&#xfe;" horiz-adv-x="1189" 
d="M723 -17q-91 0 -162.5 35t-109.5 84t-52 106h-7l-99 -569h-193l316 1798h188l-96 -555h12q88 187 304 187q164 0 262.5 -106t98.5 -295q0 -70 -9 -118l-32 -179q-30 -171 -142 -279.5t-279 -108.5zM438 431q0 -131 75.5 -204t178.5 -73q104 0 177.5 76t94.5 192l25 141
q5 32 5 73q0 132 -63 202t-173 70q-119 0 -194.5 -77.5t-97.5 -210.5l-23 -137q-5 -30 -5 -52z" />
    <glyph glyph-name="ydieresis" unicode="&#xff;" horiz-adv-x="1041" 
d="M1154 1054l-533 -1045q-1 -2 -20.5 -38.5t-19.5 -37.5q-42 -81 -77 -130t-83.5 -86.5t-111 -53t-151.5 -15.5q-56 0 -100 13l34 153q36 -9 80 -9q85 0 131 40t82 120l24 52l-194 1037h203l125 -844h12l392 844h207zM450 1301q0 48 31.5 78t79.5 30q50 0 81 -30t31 -78
q0 -47 -31.5 -76.5t-80.5 -29.5q-48 0 -79.5 30t-31.5 76zM817 1301q0 48 31 78t78 30q51 0 83 -30t32 -78q0 -47 -32 -76.5t-83 -29.5q-47 0 -78 30t-31 76z" />
    <glyph glyph-name="Amacron" unicode="&#x100;" horiz-adv-x="1246" 
d="M27 0l717 1366h221l237 -1366h-206l-61 396h-497l-202 -396h-209zM825 1143h-13l-296 -589h398zM1237 1614l-19 -112h-680l19 112h680z" />
    <glyph glyph-name="amacron" unicode="&#x101;" horiz-adv-x="1105" 
d="M473 -17q-135 0 -226 80t-91 215q0 25 2 40q12 140 121 219.5t306 79.5h277l12 68q4 20 4 45q0 75 -51.5 129t-160.5 54q-87 0 -141 -34.5t-72 -88.5h-186q23 124 131.5 202.5t281.5 78.5q184 0 283 -91.5t99 -242.5q0 -64 -18 -152l-103 -585h-185l25 141h-12
q-32 -64 -109.5 -111t-186.5 -47zM350 302q0 -69 49 -113.5t134 -44.5q102 0 181 60t98 153l24 123h-253q-114 0 -173.5 -51t-59.5 -127zM1079 1321l-20 -112h-680l20 112h680z" />
    <glyph glyph-name="Abreve" unicode="&#x102;" horiz-adv-x="1246" 
d="M27 0l717 1366h221l237 -1366h-206l-61 396h-497l-202 -396h-209zM825 1143h-13l-296 -589h398zM599 1751h131q-3 -65 43 -104t132 -39q85 0 137.5 40.5t63.5 102.5h134q-13 -111 -101 -188.5t-250 -77.5q-150 0 -229 80.5t-61 185.5z" />
    <glyph glyph-name="abreve" unicode="&#x103;" horiz-adv-x="1105" 
d="M473 -17q-135 0 -226 80t-91 215q0 25 2 40q12 140 121 219.5t306 79.5h277l12 68q4 20 4 45q0 75 -51.5 129t-160.5 54q-87 0 -141 -34.5t-72 -88.5h-186q23 124 131.5 202.5t281.5 78.5q184 0 283 -91.5t99 -242.5q0 -64 -18 -152l-103 -585h-185l25 141h-12
q-32 -64 -109.5 -111t-186.5 -47zM350 302q0 -69 49 -113.5t134 -44.5q102 0 181 60t98 153l24 123h-253q-114 0 -173.5 -51t-59.5 -127zM472 1474h127q-10 -66 29 -113t121 -47q81 0 130.5 46t60.5 114h127q-9 -110 -93.5 -194.5t-225.5 -84.5q-98 0 -167.5 43.5t-96 106.5
t-12.5 129z" />
    <glyph glyph-name="Aogonek" unicode="&#x104;" horiz-adv-x="1246" 
d="M1044 -367q-90 0 -145.5 49t-53.5 127q4 159 171 231v3h-17l-55 353h-497l-202 -396h-209l717 1366h221l232 -1335q-83 -19 -139 -65t-57 -115q-1 -40 25.5 -62t75.5 -22q46 0 79 9l-21 -123q-42 -20 -125 -20zM834 1143h-13l-296 -589h398z" />
    <glyph glyph-name="aogonek" unicode="&#x105;" horiz-adv-x="1105" 
d="M354 302q0 -69 49 -113.5t134 -44.5q102 0 181 60t98 153l24 123h-253q-114 0 -173.5 -51t-59.5 -127zM893 -365q-55 -21 -131 -21q-90 0 -147 51.5t-43 145.5q3 18 8.5 34t10.5 29t16 27t17 22.5t21.5 21t21 17.5t24.5 17.5t24 15.5t26.5 15.5t24.5 14.5l19 116h-12
q-32 -64 -109.5 -111t-186.5 -47q-135 0 -226 80t-91 215q0 13 2 47q15 137 123.5 214.5t303.5 77.5h277l12 68q4 20 4 45q0 75 -51.5 129t-160.5 54q-87 0 -141 -34.5t-72 -88.5h-186q23 124 131.5 202.5t281.5 78.5q184 0 283 -91.5t99 -242.5q0 -64 -18 -152l-101 -572
q-44 -14 -84.5 -34t-81 -58t-46.5 -79q-7 -43 20.5 -66t76.5 -23q45 0 82 8z" />
    <glyph glyph-name="Cacute" unicode="&#x106;" horiz-adv-x="1295" 
d="M751 1499l294 199h237l-329 -199h-202zM475 849l-38 -187q-14 -70 -14 -155q0 -175 93.5 -263.5t240.5 -88.5q132 0 212 64.5t100 161.5h193q-2 -25 -7 -43q-10 -53 -34.5 -103.5t-68 -98.5t-100 -84t-137 -57.5t-173.5 -21.5q-107 0 -199 32t-164 95t-113.5 167
t-41.5 238q0 90 9 144l46 236q47 245 199 377t370 132q113 0 208.5 -35t157.5 -93.5t96.5 -133t34.5 -154.5q0 -35 -4 -47h-190q2 17 0 34q-4 44 -24 86.5t-56 79.5t-95 59.5t-132 22.5q-149 0 -241 -93t-128 -271z" />
    <glyph glyph-name="cacute" unicode="&#x107;" horiz-adv-x="1061" 
d="M179 392q0 68 14 149l24 140q33 191 156 290.5t305 99.5q184 0 295 -97t111 -242q0 -15 -1 -17h-180v11q0 69 -61.5 126t-164.5 57q-105 0 -179 -70t-97 -197l-20 -115q-10 -52 -10 -104q0 -129 61.5 -201t181.5 -72q88 0 145 36.5t71 93.5h192q-22 -138 -137.5 -218
t-280.5 -80q-193 0 -309 111t-116 299zM758 1210h-146l286 350h201z" />
    <glyph glyph-name="Ccircumflex" unicode="&#x108;" horiz-adv-x="1295" 
d="M475 849l-38 -187q-14 -70 -14 -155q0 -175 93.5 -263.5t240.5 -88.5q132 0 212 64.5t100 161.5h193q-2 -25 -7 -43q-10 -53 -34.5 -103.5t-68 -98.5t-100 -84t-137 -57.5t-173.5 -21.5q-107 0 -199 32t-164 95t-113.5 167t-41.5 238q0 90 9 144l46 236q47 245 199 377
t370 132q113 0 208.5 -35t157.5 -93.5t96.5 -133t34.5 -154.5q0 -35 -4 -47h-190q2 17 0 34q-4 44 -24 86.5t-56 79.5t-95 59.5t-132 22.5q-149 0 -241 -93t-128 -271zM557 1482l294 236h190l202 -236h-178l-129 141h-13l-177 -141h-189z" />
    <glyph glyph-name="ccircumflex" unicode="&#x109;" horiz-adv-x="1061" 
d="M430 1205l308 372h134l182 -372h-159l-105 254h-6l-192 -254h-162zM179 392q0 68 14 149l24 140q33 191 156 290.5t305 99.5q184 0 295 -97t111 -242q0 -15 -1 -17h-180v11q0 69 -61.5 126t-164.5 57q-105 0 -179 -70t-97 -197l-20 -115q-10 -52 -10 -104
q0 -129 61.5 -201t181.5 -72q88 0 145 36.5t71 93.5h192q-22 -138 -137.5 -218t-280.5 -80q-193 0 -309 111t-116 299z" />
    <glyph glyph-name="Cdotaccent" unicode="&#x10a;" horiz-adv-x="1295" 
d="M475 849l-38 -187q-14 -70 -14 -155q0 -175 93.5 -263.5t240.5 -88.5q132 0 212 64.5t100 161.5h193q-2 -25 -7 -43q-10 -53 -34.5 -103.5t-68 -98.5t-100 -84t-137 -57.5t-173.5 -21.5q-107 0 -199 32t-164 95t-113.5 167t-41.5 238q0 90 9 144l46 236q47 245 199 377
t370 132q113 0 208.5 -35t157.5 -93.5t96.5 -133t34.5 -154.5q0 -35 -4 -47h-190q2 17 0 34q-4 44 -24 86.5t-56 79.5t-95 59.5t-132 22.5q-149 0 -241 -93t-128 -271zM807 1609q0 50 32 82t79 32q50 0 82.5 -32t32.5 -82q0 -49 -32.5 -81t-82.5 -32q-47 0 -79 32.5
t-32 80.5z" />
    <glyph glyph-name="cdotaccent" unicode="&#x10b;" horiz-adv-x="1061" 
d="M179 392q0 68 14 149l24 140q33 191 156 290.5t305 99.5q184 0 295 -97t111 -242q0 -15 -1 -17h-180v11q0 69 -61.5 126t-164.5 57q-105 0 -179 -70t-97 -197l-20 -115q-10 -52 -10 -104q0 -129 61.5 -201t181.5 -72q88 0 145 36.5t71 93.5h192q-22 -138 -137.5 -218
t-280.5 -80q-193 0 -309 111t-116 299zM646 1297q0 50 32 82t79 32q50 0 82.5 -32t32.5 -82q0 -49 -32.5 -81t-82.5 -32q-47 0 -79 32.5t-32 80.5z" />
    <glyph glyph-name="Ccaron" unicode="&#x10c;" horiz-adv-x="1295" 
d="M475 849l-38 -187q-14 -70 -14 -155q0 -175 93.5 -263.5t240.5 -88.5q132 0 212 64.5t100 161.5h193q-2 -25 -7 -43q-10 -53 -34.5 -103.5t-68 -98.5t-100 -84t-137 -57.5t-173.5 -21.5q-107 0 -199 32t-164 95t-113.5 167t-41.5 238q0 90 9 144l46 236q47 245 199 377
t370 132q113 0 208.5 -35t157.5 -93.5t96.5 -133t34.5 -154.5q0 -35 -4 -47h-190q2 17 0 34q-4 44 -24 86.5t-56 79.5t-95 59.5t-132 22.5q-149 0 -241 -93t-128 -271zM1297 1716l-302 -229h-176l-225 229h197l122 -128h7l165 128h212z" />
    <glyph glyph-name="ccaron" unicode="&#x10d;" horiz-adv-x="1061" 
d="M682 1214l-184 373h157l108 -255h6l190 255h162l-305 -373h-134zM179 392q0 68 14 149l24 140q33 191 156 290.5t305 99.5q184 0 295 -97t111 -242q0 -15 -1 -17h-180v11q0 69 -61.5 126t-164.5 57q-105 0 -179 -70t-97 -197l-20 -115q-10 -52 -10 -104q0 -129 61.5 -201
t181.5 -72q88 0 145 36.5t71 93.5h192q-22 -138 -137.5 -218t-280.5 -80q-193 0 -309 111t-116 299z" />
    <glyph glyph-name="Dcaron" unicode="&#x10e;" horiz-adv-x="1355" 
d="M1297 1716l-302 -229h-176l-225 229h197l122 -128h7l165 128h212zM420 1366h401q263 0 404.5 -141t141.5 -379q0 -82 -11 -149q-1 -7 -14 -77t-14 -74q-51 -267 -239.5 -406.5t-509.5 -139.5h-400zM588 1193l-182 -1020h167q229 0 375 99t184 294q15 75 25 135
q9 54 9 129q0 181 -103 272t-301 91h-174z" />
    <glyph glyph-name="dcaron" unicode="&#x10f;" horiz-adv-x="1347" 
d="M1437 1424h186l-144 -489h-135zM647 1069q126 0 209.5 -69.5t96.5 -148.5h14l98 570h194l-249 -1421h-191l31 176h-14q-10 -32 -33.5 -63.5t-59 -61t-89.5 -48t-117 -18.5q-166 0 -269.5 109.5t-103.5 289.5q0 76 11 127l34 177q33 172 146 276.5t292 104.5zM924 633
q0 67 -22 120.5t-58.5 86t-80.5 49.5t-91 17q-112 0 -182.5 -73.5t-94.5 -194.5l-28 -139q-6 -34 -6 -86q0 -120 66 -190t180 -70q113 0 187.5 78t98.5 210l26 138q5 25 5 54z" />
    <glyph glyph-name="Dcroat" unicode="&#x110;" horiz-adv-x="1439" 
d="M503 1366h401q263 0 404.5 -141t141.5 -379q0 -82 -11 -149q0 -3 -6.5 -39t-13.5 -73.5t-7 -38.5q-51 -268 -239.5 -407t-509.5 -139h-401l108 609h-162l30 175h162zM672 1193l-74 -409h291l-30 -175h-291l-79 -436h168q228 0 374 99t184 294q2 4 13.5 67.5t11.5 67.5
q9 46 9 129q0 181 -103 272t-301 91h-173z" />
    <glyph glyph-name="dcroat" unicode="&#x111;" horiz-adv-x="1200" 
d="M675 1069q126 0 210 -69.5t97 -148.5h13l55 315h-222l25 137h223l21 118h188l-22 -118h166l-24 -137h-162l-205 -1166h-191l31 176h-14q-10 -32 -33.5 -63.5t-59 -61t-89.5 -48t-117 -18.5q-166 0 -269.5 109.5t-103.5 289.5q0 76 11 127l35 177q32 172 145 276.5
t292 104.5zM952 633q0 67 -22 120.5t-58.5 86t-80.5 49.5t-91 17q-112 0 -182.5 -73.5t-94.5 -194.5l-28 -139q-6 -34 -6 -86q0 -120 66 -190t181 -70q113 0 187 78t98 210l26 138q5 25 5 54z" />
    <glyph glyph-name="Emacron" unicode="&#x112;" horiz-adv-x="1133" 
d="M1033 173l-29 -173h-827l241 1366h823l-30 -173h-626l-74 -408h595l-27 -167h-596l-80 -445h630zM1197 1614l-19 -112h-680l19 112h680z" />
    <glyph glyph-name="emacron" unicode="&#x113;" horiz-adv-x="1094" 
d="M593 -18q-184 0 -299 105.5t-115 298.5q0 63 17 158l25 139q32 184 159.5 286t311.5 102q113 0 197.5 -40.5t128.5 -106.5t61 -142.5t6 -156.5q0 -11 -25 -144h-686q-10 -38 -10 -89q0 -105 59 -176t183 -71q89 0 149 37t77 92h189q-20 -116 -137 -204t-291 -88zM899 620
q0 1 1.5 10t1.5 10q21 116 -36.5 195t-178.5 79q-98 0 -173 -58t-99 -172l-14 -64h498zM1102 1321l-20 -112h-680l20 112h680z" />
    <glyph glyph-name="Ebreve" unicode="&#x114;" horiz-adv-x="1133" 
d="M1033 173l-29 -173h-827l241 1366h823l-30 -173h-626l-74 -408h595l-27 -167h-596l-80 -445h630zM559 1751h131q-3 -65 43 -104t132 -39q85 0 137.5 40.5t63.5 102.5h134q-13 -111 -101 -188.5t-250 -77.5q-150 0 -229 80.5t-61 185.5z" />
    <glyph glyph-name="ebreve" unicode="&#x115;" horiz-adv-x="1094" 
d="M593 -18q-184 0 -299 105.5t-115 298.5q0 63 17 158l25 139q32 184 159.5 286t311.5 102q113 0 197.5 -40.5t128.5 -106.5t61 -142.5t6 -156.5q0 -11 -25 -144h-686q-10 -38 -10 -89q0 -105 59 -176t183 -71q89 0 149 37t77 92h189q-20 -116 -137 -204t-291 -88zM899 620
q0 1 1.5 10t1.5 10q21 116 -36.5 195t-178.5 79q-98 0 -173 -58t-99 -172l-14 -64h498zM495 1474h127q-10 -66 29 -113t121 -47q81 0 130.5 46t60.5 114h127q-9 -110 -93.5 -194.5t-225.5 -84.5q-98 0 -167.5 43.5t-96 106.5t-12.5 129z" />
    <glyph glyph-name="Edotaccent" unicode="&#x116;" horiz-adv-x="1133" 
d="M750 1609q0 50 32 82t79 32q50 0 82.5 -32t32.5 -82q0 -49 -32.5 -81t-82.5 -32q-47 0 -79 32.5t-32 80.5zM1033 173l-29 -173h-827l241 1366h823l-30 -173h-626l-74 -408h595l-27 -167h-596l-80 -445h630z" />
    <glyph glyph-name="edotaccent" unicode="&#x117;" horiz-adv-x="1094" 
d="M656 1297q0 50 32 82t79 32q50 0 82.5 -32t32.5 -82q0 -49 -32.5 -81t-82.5 -32q-47 0 -79 32.5t-32 80.5zM593 -18q-184 0 -299 105.5t-115 298.5q0 63 17 158l25 139q32 184 159.5 286t311.5 102q113 0 197.5 -40.5t128.5 -106.5t61 -142.5t6 -156.5q0 -11 -25 -144
h-686q-10 -38 -10 -89q0 -105 59 -176t183 -71q89 0 149 37t77 92h189q-20 -116 -137 -204t-291 -88zM899 620q0 1 1.5 10t1.5 10q21 116 -36.5 195t-178.5 79q-98 0 -173 -58t-99 -172l-14 -64h498z" />
    <glyph glyph-name="Eogonek" unicode="&#x118;" horiz-adv-x="1133" 
d="M824 -365q-88 0 -143.5 41.5t-53.5 124.5q2 124 115 196v3h-560l241 1366h823l-30 -173h-626l-73 -408h594l-27 -167h-596l-80 -445h631l-22 -132q-40 -9 -75.5 -23.5t-71.5 -36.5t-57.5 -55t-22.5 -73t26 -62t76 -22q40 0 78 8l-21 -124q-50 -18 -125 -18z" />
    <glyph glyph-name="eogonek" unicode="&#x119;" horiz-adv-x="1094" 
d="M585 -16q-178 -1 -288.5 104t-110.5 298q0 63 17 158l25 139q32 184 159.5 286t311.5 102q113 0 197.5 -40.5t128.5 -106.5t61 -142.5t6 -156.5q0 -11 -25 -144h-686q-10 -38 -10 -89q0 -105 59 -176t183 -71q89 0 149 37t77 92h189q-11 -52 -38 -95t-47.5 -62.5
t-70.5 -62.5q-7 -7 -28.5 -26t-29.5 -27l-25.5 -25.5t-25 -28.5t-18 -27.5t-16 -32t-7.5 -32.5q-7 -48 21.5 -75t76.5 -27q41 0 79 10l-22 -130q-49 -20 -126 -20q-87 0 -142.5 53t-48.5 139q9 117 139 203l-7 8q-14 -10 -46.5 -21t-60.5 -11zM906 620q0 1 1.5 10t1.5 10
q20 116 -36.5 195t-178.5 79q-99 0 -173.5 -58.5t-98.5 -171.5l-14 -64h498z" />
    <glyph glyph-name="Ecaron" unicode="&#x11a;" horiz-adv-x="1133" 
d="M1239 1716l-302 -229h-176l-225 229h197l122 -128h7l165 128h212zM1033 173l-29 -173h-827l241 1366h823l-30 -173h-626l-74 -408h595l-27 -167h-596l-80 -445h630z" />
    <glyph glyph-name="ecaron" unicode="&#x11b;" horiz-adv-x="1094" 
d="M692 1214l-184 373h157l108 -255h6l190 255h162l-305 -373h-134zM593 -18q-184 0 -299 105.5t-115 298.5q0 63 17 158l25 139q32 184 159.5 286t311.5 102q113 0 197.5 -40.5t128.5 -106.5t61 -142.5t6 -156.5q0 -11 -25 -144h-686q-10 -38 -10 -89q0 -105 59 -176
t183 -71q89 0 149 37t77 92h189q-20 -116 -137 -204t-291 -88zM899 620q0 1 1.5 10t1.5 10q21 116 -36.5 195t-178.5 79q-98 0 -173 -58t-99 -172l-14 -64h498z" />
    <glyph glyph-name="Gcircumflex" unicode="&#x11c;" horiz-adv-x="1355" 
d="M554 1482l294 236h190l202 -236h-178l-129 141h-13l-177 -141h-189zM282 887q47 244 202 375.5t380 131.5q122 0 221 -37t159.5 -97.5t92.5 -133t32 -147.5q0 -27 -2 -33h-191q0 18 -1 27q-3 39 -21.5 79t-54 77.5t-98 61t-141.5 23.5q-154 0 -251 -94.5t-132 -269.5
l-39 -190q-14 -81 -14 -154q0 -177 95.5 -267t244.5 -90q121 0 215.5 60t113.5 167l30 169h-334l29 161h526l-60 -338q-33 -185 -180.5 -290t-353.5 -105q-106 0 -198 30.5t-166.5 92t-117.5 165.5t-43 240q0 91 11 152z" />
    <glyph glyph-name="gcircumflex" unicode="&#x11d;" horiz-adv-x="1191" 
d="M473 1205l308 372h134l182 -372h-159l-105 254h-6l-192 -254h-162zM654 1069q124 0 206 -61.5t107 -155.5h14l36 201h191l-186 -1052q-70 -398 -489 -398q-187 0 -300 91t-113 214v15h186v-6l1 -5q2 -58 69 -103.5t167 -45.5q132 0 202.5 69t95.5 204l27 152h-14
q-31 -74 -107 -121.5t-188 -47.5q-99 0 -183.5 47t-138 140.5t-53.5 215.5q0 79 14 143l21 110q39 196 158.5 295t276.5 99zM933 639q0 123 -70 195.5t-182 72.5q-108 0 -180.5 -75t-96.5 -206l-15 -79q-12 -65 -12 -106q0 -129 67 -198.5t186 -69.5q104 0 180 76.5
t98 204.5l16 90q9 53 9 95z" />
    <glyph glyph-name="Gbreve" unicode="&#x11e;" horiz-adv-x="1355" 
d="M282 887q47 244 202 375.5t380 131.5q122 0 221 -37t159.5 -97.5t92.5 -133t32 -147.5q0 -27 -2 -33h-191q0 18 -1 27q-3 39 -21.5 79t-54 77.5t-98 61t-141.5 23.5q-154 0 -251 -94.5t-132 -269.5l-39 -190q-14 -81 -14 -154q0 -177 95.5 -267t244.5 -90q121 0 215.5 60
t113.5 167l30 169h-334l29 161h526l-60 -338q-33 -185 -180.5 -290t-353.5 -105q-106 0 -198 30.5t-166.5 92t-117.5 165.5t-43 240q0 91 11 152zM614 1751h131q-3 -65 43 -104t132 -39q85 0 137.5 40.5t63.5 102.5h134q-13 -111 -101 -188.5t-250 -77.5q-150 0 -229 80.5
t-61 185.5z" />
    <glyph glyph-name="gbreve" unicode="&#x11f;" horiz-adv-x="1191" 
d="M528 1474h127q-10 -66 29 -113t121 -47q81 0 130.5 46t60.5 114h127q-9 -110 -93.5 -194.5t-225.5 -84.5q-98 0 -167.5 43.5t-96 106.5t-12.5 129zM654 1069q124 0 206 -61.5t107 -155.5h14l36 201h191l-186 -1052q-70 -398 -489 -398q-187 0 -300 91t-113 214v15h186v-6
l1 -5q2 -58 69 -103.5t167 -45.5q132 0 202.5 69t95.5 204l27 152h-14q-31 -74 -107 -121.5t-188 -47.5q-99 0 -183.5 47t-138 140.5t-53.5 215.5q0 79 14 143l21 110q39 196 158.5 295t276.5 99zM933 639q0 123 -70 195.5t-182 72.5q-108 0 -180.5 -75t-96.5 -206l-15 -79
q-12 -65 -12 -106q0 -129 67 -198.5t186 -69.5q104 0 180 76.5t98 204.5l16 90q9 53 9 95z" />
    <glyph glyph-name="Gdotaccent" unicode="&#x120;" horiz-adv-x="1355" 
d="M805 1609q0 50 32 82t79 32q50 0 82.5 -32t32.5 -82q0 -49 -32.5 -81t-82.5 -32q-47 0 -79 32.5t-32 80.5zM282 887q47 244 202 375.5t380 131.5q122 0 221 -37t159.5 -97.5t92.5 -133t32 -147.5q0 -27 -2 -33h-191q0 18 -1 27q-3 39 -21.5 79t-54 77.5t-98 61
t-141.5 23.5q-154 0 -251 -94.5t-132 -269.5l-39 -190q-14 -81 -14 -154q0 -177 95.5 -267t244.5 -90q121 0 215.5 60t113.5 167l30 169h-334l29 161h526l-60 -338q-33 -185 -180.5 -290t-353.5 -105q-106 0 -198 30.5t-166.5 92t-117.5 165.5t-43 240q0 91 11 152z" />
    <glyph glyph-name="gdotaccent" unicode="&#x121;" horiz-adv-x="1191" 
d="M689 1297q0 50 32 82t79 32q50 0 82.5 -32t32.5 -82q0 -49 -32.5 -81t-82.5 -32q-47 0 -79 32.5t-32 80.5zM654 1069q124 0 206 -61.5t107 -155.5h14l36 201h191l-186 -1052q-70 -398 -489 -398q-187 0 -300 91t-113 214v15h186v-6l1 -5q2 -58 69 -103.5t167 -45.5
q132 0 202.5 69t95.5 204l27 152h-14q-31 -74 -107 -121.5t-188 -47.5q-99 0 -183.5 47t-138 140.5t-53.5 215.5q0 79 14 143l21 110q39 196 158.5 295t276.5 99zM933 639q0 123 -70 195.5t-182 72.5q-108 0 -180.5 -75t-96.5 -206l-15 -79q-12 -65 -12 -106
q0 -129 67 -198.5t186 -69.5q104 0 180 76.5t98 204.5l16 90q9 53 9 95z" />
    <glyph glyph-name="Gcommaaccent" unicode="&#x122;" horiz-adv-x="1355" 
d="M685 -451h-136l80 310h161zM282 887q47 244 202 375.5t380 131.5q122 0 221 -37t159.5 -97.5t92.5 -133t32 -147.5q0 -27 -2 -33h-191q0 18 -1 27q-3 39 -21.5 79t-54 77.5t-98 61t-141.5 23.5q-154 0 -251 -94.5t-132 -269.5l-39 -190q-14 -81 -14 -154
q0 -177 95.5 -267t244.5 -90q121 0 215.5 60t113.5 167l30 169h-334l29 161h526l-60 -338q-33 -185 -180.5 -290t-353.5 -105q-106 0 -198 30.5t-166.5 92t-117.5 165.5t-43 240q0 91 11 152z" />
    <glyph glyph-name="gcommaaccent" unicode="&#x123;" horiz-adv-x="1191" 
d="M818 1581h145l-85 -335h-174zM654 1069q124 0 206 -61.5t107 -155.5h14l36 201h191l-186 -1052q-70 -398 -489 -398q-187 0 -300 91t-113 214v15h186v-6l1 -5q2 -58 69 -103.5t167 -45.5q132 0 202.5 69t95.5 204l27 152h-14q-31 -74 -107 -121.5t-188 -47.5
q-99 0 -183.5 47t-138 140.5t-53.5 215.5q0 79 14 143l21 110q39 196 158.5 295t276.5 99zM933 639q0 123 -70 195.5t-182 72.5q-108 0 -180.5 -75t-96.5 -206l-15 -79q-12 -65 -12 -106q0 -129 67 -198.5t186 -69.5q104 0 180 76.5t98 204.5l16 90q9 53 9 95z" />
    <glyph glyph-name="Hcircumflex" unicode="&#x124;" horiz-adv-x="1416" 
d="M372 0h-197l241 1366h197l-101 -575h658l102 575h197l-241 -1366h-192l105 619h-659zM627 1482l294 236h190l202 -236h-178l-129 141h-13l-177 -141h-189z" />
    <glyph glyph-name="hcircumflex" unicode="&#x125;" horiz-adv-x="1197" 
d="M156 0l251 1421h193l-98 -538h13q41 87 120 137t192 50q157 0 241.5 -94t84.5 -234q0 -57 -21 -177l-100 -565h-194l102 576q13 75 13 125q0 92 -48.5 150t-147.5 58q-122 0 -199.5 -85.5t-100.5 -217.5l-107 -606h-194zM226 1572l308 372h134l182 -372h-159l-105 254h-6
l-192 -254h-162z" />
    <glyph glyph-name="Hbar" unicode="&#x126;" horiz-adv-x="1416" 
d="M517 784h658l36 199h-659zM487 611l-109 -611h-197l173 983h-91l30 173h91l38 210h197l-38 -210h659l38 210h197l-37 -210h90l-30 -173h-90l-174 -983h-192l104 611h-659z" />
    <glyph glyph-name="hbar" unicode="&#x127;" horiz-adv-x="1197" 
d="M464 606l-107 -606h-194l206 1166h-137l24 137h137l21 118h193l-21 -118h236l-25 -137h-236l-52 -283h13q41 87 120 137t192 50q157 0 241.5 -94t84.5 -234q0 -57 -21 -177l-100 -565h-194l102 576q13 75 13 125q0 92 -48.5 150t-147.5 58q-122 0 -199.5 -85.5
t-100.5 -217.5z" />
    <glyph glyph-name="Itilde" unicode="&#x128;" horiz-adv-x="553" 
d="M366 0h-197l241 1366h197zM512 1529q-3 3 -15 14.5t-17.5 16t-16 12t-20.5 10.5t-21 3q-66 0 -73 -105h-127q0 93 49 158.5t143 65.5q47 0 84 -18.5t78 -56.5q5 -4 20 -19.5t21.5 -20.5t19.5 -11t27 -6q35 0 54 36t22 79h127q0 -88 -53 -157.5t-139 -69.5q-58 0 -94 17.5
t-69 51.5z" />
    <glyph glyph-name="itilde" unicode="&#x129;" horiz-adv-x="581" 
d="M175 0l187 1054h194l-187 -1054h-194zM600 1132q-50 0 -83.5 23.5t-62.5 64.5q-3 4 -15.5 22t-17.5 23.5t-16 16.5t-22 14.5t-25 3.5q-37 0 -54.5 -31.5t-27.5 -83.5h-129q10 115 66.5 183.5t144.5 68.5q32 0 58 -8.5t48 -28.5t32.5 -32t31.5 -40q2 -3 7 -10t7 -9.5
t7 -8.5t7 -8.5t6.5 -7t7.5 -6.5l7.5 -5t8.5 -4t9 -2t10 -1q35 0 56.5 35.5t29.5 83.5h128q-6 -101 -67 -177t-152 -76z" />
    <glyph glyph-name="Imacron" unicode="&#x12a;" horiz-adv-x="553" 
d="M366 0h-197l241 1366h197zM896 1614l-19 -112h-680l19 112h680z" />
    <glyph glyph-name="imacron" unicode="&#x12b;" horiz-adv-x="581" 
d="M175 0l187 1054h194l-187 -1054h-194zM842 1321l-20 -112h-680l20 112h680z" />
    <glyph glyph-name="Ibreve" unicode="&#x12c;" horiz-adv-x="553" 
d="M366 0h-197l241 1366h197zM258 1751h131q-3 -65 43 -104t132 -39q85 0 137.5 40.5t63.5 102.5h134q-13 -111 -101 -188.5t-250 -77.5q-150 0 -229 80.5t-61 185.5z" />
    <glyph glyph-name="ibreve" unicode="&#x12d;" horiz-adv-x="581" 
d="M175 0l187 1054h194l-187 -1054h-194zM235 1474h127q-10 -66 29 -113t121 -47q81 0 130.5 46t60.5 114h127q-9 -110 -93.5 -194.5t-225.5 -84.5q-98 0 -167.5 43.5t-96 106.5t-12.5 129z" />
    <glyph glyph-name="Iogonek" unicode="&#x12e;" horiz-adv-x="553" 
d="M337 -347q-45 -20 -126 -20q-92 0 -146 49.5t-52 125.5q1 63 30.5 113.5t67.5 77.5t86 46l1 3h-12l233 1318h197l-235 -1333q-88 -20 -144.5 -67t-57.5 -115q-1 -41 25.5 -62.5t73.5 -21.5q46 0 80 9z" />
    <glyph glyph-name="iogonek" unicode="&#x12f;" horiz-adv-x="551" 
d="M368 1370q0 57 38.5 94t95.5 37q60 0 97 -36t37 -92t-38.5 -92.5t-98.5 -36.5q-57 0 -94 35.5t-37 90.5zM329 -368q-47 -18 -125 -18q-101 0 -156 53.5t-47 138.5q15 142 184 223l180 1025h194l-185 -1040q-34 -9 -65.5 -22.5t-63 -33.5t-52 -49.5t-24.5 -63.5
q-5 -42 22.5 -69.5t77.5 -27.5q45 0 82 8z" />
    <glyph glyph-name="Idotaccent" unicode="&#x130;" horiz-adv-x="553" 
d="M366 0h-197l241 1366h197zM449 1609q0 50 32 82t79 32q50 0 82.5 -32t32.5 -82q0 -49 -32.5 -81t-82.5 -32q-47 0 -79 32.5t-32 80.5z" />
    <glyph glyph-name="dotlessi" unicode="&#x131;" horiz-adv-x="581" 
d="M182 0l187 1054h194l-187 -1054h-194z" />
    <glyph glyph-name="Jcircumflex" unicode="&#x134;" horiz-adv-x="1004" 
d="M1060 1366l-176 -1000q-37 -206 -147 -299t-267 -93q-169 0 -280 93t-111 243q0 38 7 64h184q-2 -32 -2 -36q0 -79 53.5 -131t143.5 -52q84 0 143.5 54.5t80.5 175.5l174 981h197zM654 1482l294 236h190l202 -236h-178l-129 141h-13l-177 -141h-189z" />
    <glyph glyph-name="jcircumflex" unicode="&#x135;" horiz-adv-x="551" 
d="M562 1054l-187 -1062q-32 -177 -125 -256.5t-260 -79.5q-44 0 -104 13l33 157q32 -9 80 -9q72 0 119.5 44t61.5 122l188 1071h194zM189 1192l308 372h134l182 -372h-159l-105 254h-6l-192 -254h-162z" />
    <glyph glyph-name="Kcommaaccent" unicode="&#x136;" horiz-adv-x="1271" 
d="M608 1366l-121 -654h14l698 654h248l-641 -610l409 -756h-227l-337 642l-204 -181l-81 -461h-197l242 1366h197zM584 -451h-136l80 310h161z" />
    <glyph glyph-name="kcommaaccent" unicode="&#x137;" horiz-adv-x="1077" 
d="M415 422l-75 -422h-192l252 1421h190l-137 -779h13l482 412h254l-504 -422l326 -632h-211l-265 530zM494 -451h-136l80 310h161z" />
    <glyph glyph-name="Lacute" unicode="&#x139;" horiz-adv-x="1048" 
d="M395 1499l294 199h237l-329 -199h-202zM1023 175l-31 -175h-811l241 1366h197l-212 -1191h616z" />
    <glyph glyph-name="lacute" unicode="&#x13a;" horiz-adv-x="551" 
d="M566 1577h-146l286 350h201zM173 0l251 1421h194l-252 -1421h-193z" />
    <glyph glyph-name="Lcommaaccent" unicode="&#x13b;" horiz-adv-x="1048" 
d="M500 -451h-136l80 310h161zM1023 175l-31 -175h-811l241 1366h197l-212 -1191h616z" />
    <glyph glyph-name="lcommaaccent" unicode="&#x13c;" horiz-adv-x="551" 
d="M229 -451h-136l80 310h161zM173 0l251 1421h194l-252 -1421h-193z" />
    <glyph glyph-name="Lcaron" unicode="&#x13d;" horiz-adv-x="1048" 
d="M875 1424h185l-144 -489h-134zM1023 175l-31 -175h-811l241 1366h197l-212 -1191h616z" />
    <glyph glyph-name="lcaron" unicode="&#x13e;" horiz-adv-x="642" 
d="M747 1424h185l-144 -489h-134zM156 0l251 1421h194l-252 -1421h-193z" />
    <glyph glyph-name="Lslash" unicode="&#x141;" horiz-adv-x="1054" 
d="M1004 0h-811l94 531l-140 -73l32 186l140 73l115 649h197l-95 -533l402 211l-33 -188l-402 -209l-84 -472h615z" />
    <glyph glyph-name="lslash" unicode="&#x142;" horiz-adv-x="598" 
d="M395 0h-194l108 603l-168 -101l31 182l168 102l113 635h193l-89 -506l167 102l-32 -185l-167 -102z" />
    <glyph glyph-name="Nacute" unicode="&#x143;" horiz-adv-x="1426" 
d="M839 1499l294 199h237l-329 -199h-202zM1239 0h-180l-488 1031h-11l-182 -1031h-193l241 1366h183l483 -1032h11l184 1032h193z" />
    <glyph glyph-name="nacute" unicode="&#x144;" horiz-adv-x="1192" 
d="M826 1210h-146l286 350h201zM156 0l186 1054h190l-32 -171h14q91 187 311 187q159 0 240.5 -93.5t81.5 -233.5q0 -60 -21 -178l-99 -565h-194l102 576q13 78 13 125q0 92 -47.5 150t-145.5 58q-123 0 -199 -85t-99 -218l-107 -606h-194z" />
    <glyph glyph-name="Ncommaaccent" unicode="&#x145;" horiz-adv-x="1426" 
d="M679 -451h-136l80 310h161zM1239 0h-180l-488 1031h-11l-182 -1031h-193l241 1366h183l483 -1032h11l184 1032h193z" />
    <glyph glyph-name="ncommaaccent" unicode="&#x146;" horiz-adv-x="1192" 
d="M549 -451h-136l80 310h161zM156 0l186 1054h190l-32 -171h14q91 187 311 187q159 0 240.5 -93.5t81.5 -233.5q0 -60 -21 -178l-99 -565h-194l102 576q13 78 13 125q0 92 -47.5 150t-145.5 58q-123 0 -199 -85t-99 -218l-107 -606h-194z" />
    <glyph glyph-name="Ncaron" unicode="&#x147;" horiz-adv-x="1426" 
d="M1385 1716l-302 -229h-176l-225 229h197l122 -128h7l165 128h212zM1239 0h-180l-488 1031h-11l-182 -1031h-193l241 1366h183l483 -1032h11l184 1032h193z" />
    <glyph glyph-name="ncaron" unicode="&#x148;" horiz-adv-x="1192" 
d="M750 1214l-184 373h157l108 -255h6l190 255h162l-305 -373h-134zM156 0l186 1054h190l-32 -171h14q91 187 311 187q159 0 240.5 -93.5t81.5 -233.5q0 -60 -21 -178l-99 -565h-194l102 576q13 78 13 125q0 92 -47.5 150t-145.5 58q-123 0 -199 -85t-99 -218l-107 -606
h-194z" />
    <glyph glyph-name="Omacron" unicode="&#x14c;" horiz-adv-x="1384" 
d="M476 850l-35 -186q-15 -80 -15 -153q0 -165 94 -261.5t260 -96.5q152 0 247 95.5t129 284.5l36 199q8 44 8 131q0 159 -94 255t-256 96q-145 0 -242 -88t-132 -276zM240 678l38 207q43 241 199 375t379 134q246 0 396 -143t150 -392q0 -83 -15 -166l-39 -208
q-45 -248 -194 -380.5t-399 -132.5q-151 0 -269.5 59t-189 177t-70.5 277q0 110 14 193zM1309 1614l-19 -112h-680l19 112h680z" />
    <glyph glyph-name="omacron" unicode="&#x14d;" horiz-adv-x="1132" 
d="M1118 1321l-20 -112h-680l20 112h680zM401 638l-21 -118q-11 -57 -11 -106q0 -120 68.5 -193.5t187.5 -73.5q110 0 179.5 73.5t93.5 207.5l21 126q5 30 5 93q0 115 -68 188t-184 73q-105 0 -176.5 -68.5t-94.5 -201.5zM189 543l23 129q33 184 158.5 291.5t304.5 107.5
q199 0 322 -115.5t123 -314.5q0 -59 -12 -126l-24 -129q-36 -190 -156 -296.5t-320 -106.5q-187 0 -308.5 111t-121.5 302q0 90 11 147z" />
    <glyph glyph-name="Obreve" unicode="&#x14e;" horiz-adv-x="1384" 
d="M476 850l-35 -186q-15 -80 -15 -153q0 -165 94 -261.5t260 -96.5q152 0 247 95.5t129 284.5l36 199q8 44 8 131q0 159 -94 255t-256 96q-145 0 -242 -88t-132 -276zM240 678l38 207q43 241 199 375t379 134q246 0 396 -143t150 -392q0 -83 -15 -166l-39 -208
q-45 -248 -194 -380.5t-399 -132.5q-151 0 -269.5 59t-189 177t-70.5 277q0 110 14 193zM671 1751h131q-3 -65 43 -104t132 -39q85 0 137.5 40.5t63.5 102.5h134q-13 -111 -101 -188.5t-250 -77.5q-150 0 -229 80.5t-61 185.5z" />
    <glyph glyph-name="obreve" unicode="&#x14f;" horiz-adv-x="1132" 
d="M511 1474h127q-10 -66 29 -113t121 -47q81 0 130.5 46t60.5 114h127q-9 -110 -93.5 -194.5t-225.5 -84.5q-98 0 -167.5 43.5t-96 106.5t-12.5 129zM401 638l-21 -118q-11 -57 -11 -106q0 -120 68.5 -193.5t187.5 -73.5q110 0 179.5 73.5t93.5 207.5l21 126q5 30 5 93
q0 115 -68 188t-184 73q-105 0 -176.5 -68.5t-94.5 -201.5zM189 543l23 129q33 184 158.5 291.5t304.5 107.5q199 0 322 -115.5t123 -314.5q0 -59 -12 -126l-24 -129q-36 -190 -156 -296.5t-320 -106.5q-187 0 -308.5 111t-121.5 302q0 90 11 147z" />
    <glyph glyph-name="Ohungarumlaut" unicode="&#x150;" horiz-adv-x="1384" 
d="M671 1499l314 249h192l-332 -249h-174zM1028 1499l315 249h192l-332 -249h-175zM476 850l-35 -186q-15 -80 -15 -153q0 -165 94 -261.5t260 -96.5q152 0 247 95.5t129 284.5l36 199q8 44 8 131q0 159 -94 255t-256 96q-145 0 -242 -88t-132 -276zM240 678l38 207
q43 241 199 375t379 134q246 0 396 -143t150 -392q0 -83 -15 -166l-39 -208q-45 -248 -194 -380.5t-399 -132.5q-151 0 -269.5 59t-189 177t-70.5 277q0 110 14 193z" />
    <glyph glyph-name="ohungarumlaut" unicode="&#x151;" horiz-adv-x="1132" 
d="M675 1213h-132l257 306h195zM989 1213h-135l260 306h192zM401 638l-21 -118q-11 -57 -11 -106q0 -120 68.5 -193.5t187.5 -73.5q110 0 179.5 73.5t93.5 207.5l21 126q5 30 5 93q0 115 -68 188t-184 73q-105 0 -176.5 -68.5t-94.5 -201.5zM189 543l23 129
q33 184 158.5 291.5t304.5 107.5q199 0 322 -115.5t123 -314.5q0 -59 -12 -126l-24 -129q-36 -190 -156 -296.5t-320 -106.5q-187 0 -308.5 111t-121.5 302q0 90 11 147z" />
    <glyph glyph-name="OE" unicode="&#x152;" horiz-adv-x="2028" 
d="M245 671l36 199q44 247 203.5 383.5t390.5 136.5q141 0 263 -58.5t164 -158.5l34 192h803l-30 -173h-629l-73 -413h592l-28 -168h-593l-78 -438h628l-30 -173h-803l21 110q-53 -69 -159 -101.5t-213 -32.5q-234 0 -373.5 131.5t-139.5 383.5q0 97 14 180zM482 847
l-36 -189q-13 -75 -13 -146q0 -173 95.5 -266.5t256.5 -93.5q151 0 248 86.5t125 247.5l40 239q4 26 10 84t6 71q0 143 -97 238.5t-250 95.5q-148 0 -250 -94t-135 -273z" />
    <glyph glyph-name="oe" unicode="&#x153;" horiz-adv-x="1825" 
d="M1335 -18q-124 0 -215.5 54.5t-132.5 158.5h-3q-48 -101 -145.5 -156.5t-226.5 -55.5q-89 0 -165.5 27t-134.5 78.5t-91.5 133t-33.5 182.5q0 75 11 138l23 132q31 182 155 289.5t302 107.5q125 0 224.5 -55t144.5 -162h3q116 217 379 217q91 0 163.5 -27.5t118 -73
t74 -104t37 -119.5t0.5 -121q0 -4 -4 -27t-8.5 -47.5t-8.5 -47t-4 -23.5h-687q0 -1 -2.5 -13t-2.5 -13q-4 -24 -4 -58q0 -51 13 -95t40.5 -80t76 -56.5t112.5 -20.5q89 0 149 37t76 92h189q-18 -115 -136 -203.5t-286 -88.5zM409 638l-21 -118q-10 -52 -10 -102
q0 -122 67.5 -196.5t184.5 -74.5q113 0 182.5 73t93.5 208l21 126q6 37 6 83q0 123 -67.5 197t-184.5 74q-106 0 -177.5 -68t-94.5 -202zM1635 620q3 6 3 20q21 116 -35.5 195t-178.5 79q-99 0 -174 -58t-99 -172l-14 -64h498z" />
    <glyph glyph-name="Racute" unicode="&#x154;" horiz-adv-x="1261" 
d="M694 1499l294 199h237l-329 -199h-202zM368 0h-197l242 1366h469q195 0 299.5 -97t104.5 -258q0 -42 -6 -81q-18 -140 -104 -233.5t-212 -128.5l187 -568h-211l-172 538q-24 -1 -65 -1h-240zM835 1199h-254l-89 -498h247q86 0 149.5 19t101.5 53.5t58 75t27 90.5
q5 30 5 63q0 92 -59.5 144.5t-185.5 52.5z" />
    <glyph glyph-name="racute" unicode="&#x155;" horiz-adv-x="783" 
d="M625 1210h-146l286 350h201zM152 0l186 1054h183l-31 -176h13q30 80 108 136t188 56q44 0 89 -10l-38 -182q-34 14 -94 14q-130 0 -206 -84.5t-101 -221.5l-103 -586h-194z" />
    <glyph glyph-name="Rcommaaccent" unicode="&#x156;" horiz-adv-x="1261" 
d="M368 0h-197l242 1366h469q195 0 299.5 -97t104.5 -258q0 -42 -6 -81q-18 -140 -104 -233.5t-212 -128.5l187 -568h-211l-172 538q-24 -1 -65 -1h-240zM835 1199h-254l-89 -498h247q86 0 149.5 19t101.5 53.5t58 75t27 90.5q5 30 5 63q0 92 -59.5 144.5t-185.5 52.5z
M536 -451h-136l80 310h161z" />
    <glyph glyph-name="rcommaaccent" unicode="&#x157;" horiz-adv-x="783" 
d="M152 0l186 1054h183l-31 -176h13q30 80 108 136t188 56q44 0 89 -10l-38 -182q-34 14 -94 14q-130 0 -206 -84.5t-101 -221.5l-103 -586h-194zM217 -451h-136l80 310h161z" />
    <glyph glyph-name="Rcaron" unicode="&#x158;" horiz-adv-x="1261" 
d="M368 0h-197l242 1366h469q195 0 299.5 -97t104.5 -258q0 -42 -6 -81q-18 -140 -104 -233.5t-212 -128.5l187 -568h-211l-172 538q-24 -1 -65 -1h-240zM835 1199h-254l-89 -498h247q86 0 149.5 19t101.5 53.5t58 75t27 90.5q5 30 5 63q0 92 -59.5 144.5t-185.5 52.5z
M1240 1716l-302 -229h-176l-225 229h197l122 -128h7l165 128h212z" />
    <glyph glyph-name="rcaron" unicode="&#x159;" horiz-adv-x="783" 
d="M549 1214l-184 373h157l108 -255h6l190 255h162l-305 -373h-134zM152 0l186 1054h183l-31 -176h13q30 80 108 136t188 56q44 0 89 -10l-38 -182q-34 14 -94 14q-130 0 -206 -84.5t-101 -221.5l-103 -586h-194z" />
    <glyph glyph-name="Sacute" unicode="&#x15a;" horiz-adv-x="1208" 
d="M702 1499l294 199h237l-329 -199h-202zM166 388h191q-1 -8 -1 -24q0 -89 85 -155.5t223 -66.5q129 0 209.5 61.5t80.5 163.5q0 37 -13 67.5t-33 52t-54 41.5t-63.5 32.5t-74.5 28.5l-68 25q-74 26 -131.5 56.5t-112.5 76.5t-85 111t-30 144q0 121 64.5 211.5t171.5 135.5
t241 45q121 0 222 -42t164 -125.5t63 -192.5q0 -3 -1 -18.5t-1 -16.5h-184l1 2v5.5v8.5q0 94 -77.5 151.5t-188.5 57.5q-108 0 -189 -53.5t-81 -152.5q0 -80 62.5 -130.5t183.5 -97.5l85 -31q50 -19 85 -35t77.5 -39.5t70 -50.5t52 -62t36.5 -80.5t12 -100.5
q0 -196 -140 -307t-363 -111q-214 0 -353 107.5t-139 261.5q0 25 3 46z" />
    <glyph glyph-name="sacute" unicode="&#x15b;" horiz-adv-x="1029" 
d="M259 760q0 143 101 228t284 85q91 0 166.5 -25.5t123 -67t73.5 -93t26 -105.5q0 -1 -1 -12v-10h-176v10q0 57 -57 106t-156 49q-91 0 -143.5 -41t-52.5 -102q0 -28 12.5 -50.5t26.5 -36.5t48 -30t53 -23t65 -22q14 -5 21 -7q53 -17 91.5 -33t78.5 -41.5t65 -55.5t41 -74
t16 -98q0 -157 -113 -243t-302 -86q-179 0 -297.5 88.5t-118.5 219.5v14h180q0 -8 2 -18q12 -62 78 -105.5t167 -43.5q102 0 158 43t56 114q0 19 -4 35t-14 30t-18.5 24t-28 20.5t-30.5 16.5t-38 15.5t-38.5 13t-42.5 13.5q-32 10 -53.5 17.5t-56 22.5t-58 30t-51 39t-44 50
t-28 62t-11.5 77zM741 1210h-146l286 350h201z" />
    <glyph glyph-name="Scircumflex" unicode="&#x15c;" horiz-adv-x="1208" 
d="M166 388h191q-1 -8 -1 -24q0 -89 85 -155.5t223 -66.5q129 0 209.5 61.5t80.5 163.5q0 37 -13 67.5t-33 52t-54 41.5t-63.5 32.5t-74.5 28.5l-68 25q-74 26 -131.5 56.5t-112.5 76.5t-85 111t-30 144q0 121 64.5 211.5t171.5 135.5t241 45q121 0 222 -42t164 -125.5
t63 -192.5q0 -3 -1 -18.5t-1 -16.5h-184l1 2v5.5v8.5q0 94 -77.5 151.5t-188.5 57.5q-108 0 -189 -53.5t-81 -152.5q0 -80 62.5 -130.5t183.5 -97.5l85 -31q50 -19 85 -35t77.5 -39.5t70 -50.5t52 -62t36.5 -80.5t12 -100.5q0 -196 -140 -307t-363 -111q-214 0 -353 107.5
t-139 261.5q0 25 3 46zM508 1482l294 236h190l202 -236h-178l-129 141h-13l-177 -141h-189z" />
    <glyph glyph-name="scircumflex" unicode="&#x15d;" horiz-adv-x="1029" 
d="M413 1205l308 372h134l182 -372h-159l-105 254h-6l-192 -254h-162zM259 760q0 143 101 228t284 85q91 0 166.5 -25.5t123 -67t73.5 -93t26 -105.5q0 -1 -1 -12v-10h-176v10q0 57 -57 106t-156 49q-91 0 -143.5 -41t-52.5 -102q0 -28 12.5 -50.5t26.5 -36.5t48 -30t53 -23
t65 -22q14 -5 21 -7q53 -17 91.5 -33t78.5 -41.5t65 -55.5t41 -74t16 -98q0 -157 -113 -243t-302 -86q-179 0 -297.5 88.5t-118.5 219.5v14h180q0 -8 2 -18q12 -62 78 -105.5t167 -43.5q102 0 158 43t56 114q0 19 -4 35t-14 30t-18.5 24t-28 20.5t-30.5 16.5t-38 15.5
t-38.5 13t-42.5 13.5q-32 10 -53.5 17.5t-56 22.5t-58 30t-51 39t-44 50t-28 62t-11.5 77z" />
    <glyph glyph-name="Scedilla" unicode="&#x15e;" horiz-adv-x="1208" 
d="M607 -483q-80 0 -158 26l19 108q62 -19 127 -19q107 0 107 69l1 2q0 70 -135 70h-52l10 78l40 129q-177 23 -286.5 125.5t-109.5 236.5q0 25 3 46h191q-1 -8 -1 -24q0 -89 85 -155.5t223 -66.5q129 0 209.5 61.5t80.5 163.5q0 37 -13 67.5t-33 52t-54 41.5t-63.5 32.5
t-74.5 28.5l-68 25q-74 26 -131.5 56.5t-112.5 76.5t-85 111t-30 144q0 121 64.5 211.5t171.5 135.5t241 45q121 0 222 -42t164 -125.5t63 -192.5q0 -3 -1 -18.5t-1 -16.5h-184v2q0 2 0.5 5.5t0.5 8.5q0 94 -77.5 151.5t-188.5 57.5q-108 0 -189 -53.5t-81 -152.5
q0 -80 62.5 -130.5t183.5 -97.5l85 -31q50 -19 85 -35t77.5 -39.5t70 -50.5t52 -62t36.5 -80.5t12 -100.5q0 -187 -129 -297.5t-338 -119.5l-32 -104q83 -2 134 -42.5t51 -113.5q0 -4 -1 -6q-2 -91 -69.5 -141t-173.5 -50z" />
    <glyph glyph-name="scedilla" unicode="&#x15f;" horiz-adv-x="1029" 
d="M493 -483q-82 0 -157 26l18 108q62 -19 127 -19q107 0 108 69v2q0 70 -135 70h-51l9 78l44 139q-141 24 -228 107t-87 193v14h180q0 -8 2 -18q12 -62 78 -105.5t167 -43.5q102 0 158 43t56 114q0 19 -4 35t-14 30t-18.5 24t-28 20.5t-30.5 16.5t-38 15.5t-38.5 13
t-42.5 13.5q-32 10 -53.5 17.5t-56 22.5t-58 30t-51 39t-44 50t-28 62t-11.5 77q0 143 101 228t284 85q91 0 166.5 -25.5t123 -67t73.5 -93t26 -105.5v-12l-1 -10h-176v10q0 57 -57 106t-156 49q-91 0 -143.5 -41t-52.5 -102q0 -28 12.5 -50.5t26.5 -36.5t48 -30t53 -23
t65 -22q14 -5 21 -7q53 -17 91.5 -33t78.5 -41.5t65 -55.5t41 -74t16 -98q0 -150 -104 -236t-281 -93l-34 -112q83 -2 133.5 -42.5t50.5 -113.5v-6q-3 -91 -70.5 -141t-173.5 -50z" />
    <glyph glyph-name="Scaron" unicode="&#x160;" horiz-adv-x="1208" 
d="M166 388h191q-1 -8 -1 -24q0 -89 85 -155.5t223 -66.5q129 0 209.5 61.5t80.5 163.5q0 37 -13 67.5t-33 52t-54 41.5t-63.5 32.5t-74.5 28.5l-68 25q-74 26 -131.5 56.5t-112.5 76.5t-85 111t-30 144q0 121 64.5 211.5t171.5 135.5t241 45q121 0 222 -42t164 -125.5
t63 -192.5q0 -3 -1 -18.5t-1 -16.5h-184l1 2v5.5v8.5q0 94 -77.5 151.5t-188.5 57.5q-108 0 -189 -53.5t-81 -152.5q0 -80 62.5 -130.5t183.5 -97.5l85 -31q50 -19 85 -35t77.5 -39.5t70 -50.5t52 -62t36.5 -80.5t12 -100.5q0 -196 -140 -307t-363 -111q-214 0 -353 107.5
t-139 261.5q0 25 3 46zM1248 1716l-302 -229h-176l-225 229h197l122 -128h7l165 128h212z" />
    <glyph glyph-name="scaron" unicode="&#x161;" horiz-adv-x="1029" 
d="M665 1214l-184 373h157l108 -255h6l190 255h162l-305 -373h-134zM259 760q0 143 101 228t284 85q91 0 166.5 -25.5t123 -67t73.5 -93t26 -105.5q0 -1 -1 -12v-10h-176v10q0 57 -57 106t-156 49q-91 0 -143.5 -41t-52.5 -102q0 -28 12.5 -50.5t26.5 -36.5t48 -30t53 -23
t65 -22q14 -5 21 -7q53 -17 91.5 -33t78.5 -41.5t65 -55.5t41 -74t16 -98q0 -157 -113 -243t-302 -86q-179 0 -297.5 88.5t-118.5 219.5v14h180q0 -8 2 -18q12 -62 78 -105.5t167 -43.5q102 0 158 43t56 114q0 19 -4 35t-14 30t-18.5 24t-28 20.5t-30.5 16.5t-38 15.5
t-38.5 13t-42.5 13.5q-32 10 -53.5 17.5t-56 22.5t-58 30t-51 39t-44 50t-28 62t-11.5 77z" />
    <glyph glyph-name="Tcedilla" unicode="&#x162;" horiz-adv-x="1123" 
d="M513 0h-48l212 1192h-415l30 174h1021l-28 -174h-411l-212 -1192h-15l-40 -130q83 -2 133.5 -42.5t50.5 -113.5v-6q-3 -91 -70.5 -141t-173.5 -50q-82 0 -157 26l18 108q62 -19 127 -19q107 0 108 69v2q0 70 -135 70h-51l9 78z" />
    <glyph glyph-name="tcedilla" unicode="&#x163;" horiz-adv-x="761" 
d="M401 -462q-87 0 -157 26l18 108q59 -19 128 -19q106 0 107 69v2q0 70 -135 70h-51l9 77l49 154q-108 49 -108 179q0 54 14 130l97 547h-158l28 157h158l50 276h189l-48 -276h228l-27 -157h-228l-83 -477q-20 -110 -20 -145q0 -51 28 -77.5t97 -26.5q71 0 122 11l-28 -154
q-52 -15 -148 -15q-26 0 -37 1l-34 -108q82 -2 133 -42t51 -113v-7q-2 -90 -70 -140t-174 -50z" />
    <glyph glyph-name="Tcaron" unicode="&#x164;" horiz-adv-x="1123" 
d="M1222 1716l-302 -229h-176l-225 229h197l122 -128h7l165 128h212zM662 0h-197l212 1192h-415l30 174h1021l-28 -174h-411z" />
    <glyph glyph-name="tcaron" unicode="&#x165;" horiz-adv-x="761" 
d="M860 1690h186l-144 -489h-135zM381 1038l50 276h189l-48 -276h228l-27 -157h-228l-83 -477q-21 -116 -21 -145q0 -51 28.5 -77.5t97.5 -26.5q71 0 122 11l-28 -154q-53 -15 -148 -15q-271 0 -271 207q0 54 14 130l97 547h-158l28 157h158z" />
    <glyph glyph-name="Tbar" unicode="&#x166;" horiz-adv-x="1123" 
d="M1001 633h-226l-113 -633h-197l112 633h-234l24 143h235l75 416h-415l30 174h1021l-28 -174h-411l-75 -416h227z" />
    <glyph glyph-name="tbar" unicode="&#x167;" horiz-adv-x="761" 
d="M680 12q-52 -15 -148 -15q-271 0 -271 207q0 54 14 130l34 193h-138l24 137h138l39 217h-158l28 157h158l50 276h189l-48 -276h228l-27 -157h-228l-38 -217h180l-23 -137h-181l-21 -123q-20 -110 -20 -145q0 -51 28 -77.5t97 -26.5q71 0 122 11z" />
    <glyph glyph-name="Utilde" unicode="&#x168;" horiz-adv-x="1380" 
d="M602 1366l-146 -827q-8 -43 -8 -95q0 -130 81 -209t219 -79q129 0 218.5 74.5t115.5 220.5l162 915h201l-166 -942q-40 -224 -182.5 -337.5t-353.5 -113.5q-143 0 -254.5 50.5t-177.5 152t-66 239.5q0 63 13 135l143 816h201zM927 1529q-3 3 -15 14.5t-17.5 16t-16 12
t-20.5 10.5t-21 3q-66 0 -73 -105h-127q0 93 49 158.5t143 65.5q47 0 84 -18.5t78 -56.5q5 -4 20 -19.5t21.5 -20.5t19.5 -11t27 -6q35 0 54 36t22 79h127q0 -88 -53 -157.5t-139 -69.5q-58 0 -94 17.5t-69 51.5z" />
    <glyph glyph-name="utilde" unicode="&#x169;" horiz-adv-x="1178" 
d="M1192 1054l-185 -1054h-184l31 177h-14q-40 -86 -120 -140t-189 -54q-156 0 -243.5 91.5t-87.5 234.5q0 71 21 180l103 565h193l-103 -572q-14 -89 -14 -132q0 -93 52 -145.5t153 -52.5q122 0 196 83.5t97 217.5l105 601h189zM903 1132q-50 0 -83.5 23.5t-62.5 64.5
q-3 4 -15.5 22t-17.5 23.5t-16 16.5t-22 14.5t-25 3.5q-37 0 -54.5 -31.5t-27.5 -83.5h-129q10 115 66.5 183.5t144.5 68.5q32 0 58 -8.5t48 -28.5t32.5 -32t31.5 -40q2 -3 7 -10t7 -9.5t7 -8.5t7 -8.5t6.5 -7t7.5 -6.5l7.5 -5t8.5 -4t9 -2t10 -1q35 0 56.5 35.5t29.5 83.5
h128q-6 -101 -67 -177t-152 -76z" />
    <glyph glyph-name="Umacron" unicode="&#x16a;" horiz-adv-x="1380" 
d="M602 1366l-146 -827q-8 -43 -8 -95q0 -130 81 -209t219 -79q129 0 218.5 74.5t115.5 220.5l162 915h201l-166 -942q-40 -224 -182.5 -337.5t-353.5 -113.5q-143 0 -254.5 50.5t-177.5 152t-66 239.5q0 63 13 135l143 816h201zM1311 1614l-19 -112h-680l19 112h680z" />
    <glyph glyph-name="umacron" unicode="&#x16b;" horiz-adv-x="1178" 
d="M1192 1054l-185 -1054h-184l31 177h-14q-40 -86 -120 -140t-189 -54q-156 0 -243.5 91.5t-87.5 234.5q0 71 21 180l103 565h193l-103 -572q-14 -89 -14 -132q0 -93 52 -145.5t153 -52.5q122 0 196 83.5t97 217.5l105 601h189zM1145 1321l-20 -112h-680l20 112h680z" />
    <glyph glyph-name="Ubreve" unicode="&#x16c;" horiz-adv-x="1380" 
d="M602 1366l-146 -827q-8 -43 -8 -95q0 -130 81 -209t219 -79q129 0 218.5 74.5t115.5 220.5l162 915h201l-166 -942q-40 -224 -182.5 -337.5t-353.5 -113.5q-143 0 -254.5 50.5t-177.5 152t-66 239.5q0 63 13 135l143 816h201zM673 1751h131q-3 -65 43 -104t132 -39
q85 0 137.5 40.5t63.5 102.5h134q-13 -111 -101 -188.5t-250 -77.5q-150 0 -229 80.5t-61 185.5z" />
    <glyph glyph-name="ubreve" unicode="&#x16d;" horiz-adv-x="1178" 
d="M1192 1054l-185 -1054h-184l31 177h-14q-40 -86 -120 -140t-189 -54q-156 0 -243.5 91.5t-87.5 234.5q0 71 21 180l103 565h193l-103 -572q-14 -89 -14 -132q0 -93 52 -145.5t153 -52.5q122 0 196 83.5t97 217.5l105 601h189zM538 1474h127q-10 -66 29 -113t121 -47
q81 0 130.5 46t60.5 114h127q-9 -110 -93.5 -194.5t-225.5 -84.5q-98 0 -167.5 43.5t-96 106.5t-12.5 129z" />
    <glyph glyph-name="Uring" unicode="&#x16e;" horiz-adv-x="1380" 
d="M602 1366l-146 -827q-8 -43 -8 -95q0 -130 81 -209t219 -79q129 0 218.5 74.5t115.5 220.5l162 915h201l-166 -942q-40 -224 -182.5 -337.5t-353.5 -113.5q-143 0 -254.5 50.5t-177.5 152t-66 239.5q0 63 13 135l143 816h201zM997 1625q42 0 72 29.5t30 71.5t-30 71.5
t-72 29.5t-72 -29.5t-30 -71.5q0 -41 30.5 -71t71.5 -30zM996 1530q-82 0 -138.5 57.5t-56.5 138.5t57.5 137.5t139.5 56.5q80 0 136.5 -56.5t56.5 -137.5q0 -82 -57 -139t-138 -57z" />
    <glyph glyph-name="uring" unicode="&#x16f;" horiz-adv-x="1178" 
d="M1192 1054l-185 -1054h-184l31 177h-14q-40 -86 -120 -140t-189 -54q-156 0 -243.5 91.5t-87.5 234.5q0 71 21 180l103 565h193l-103 -572q-14 -89 -14 -132q0 -93 52 -145.5t153 -52.5q122 0 196 83.5t97 217.5l105 601h189zM833 1313q42 0 72 29.5t30 71.5t-30 71.5
t-72 29.5t-72 -29.5t-30 -71.5q0 -41 30.5 -71t71.5 -30zM832 1218q-82 0 -138.5 57.5t-56.5 138.5t57.5 137.5t139.5 56.5q80 0 136.5 -56.5t56.5 -137.5q0 -82 -57 -139t-138 -57z" />
    <glyph glyph-name="Uhungarumlaut" unicode="&#x170;" horiz-adv-x="1380" 
d="M602 1366l-146 -827q-8 -43 -8 -95q0 -130 81 -209t219 -79q129 0 218.5 74.5t115.5 220.5l162 915h201l-166 -942q-40 -224 -182.5 -337.5t-353.5 -113.5q-143 0 -254.5 50.5t-177.5 152t-66 239.5q0 63 13 135l143 816h201zM673 1499l314 249h192l-332 -249h-174z
M1030 1499l315 249h192l-332 -249h-175z" />
    <glyph glyph-name="uhungarumlaut" unicode="&#x171;" horiz-adv-x="1178" 
d="M703 1213h-132l257 306h195zM1017 1213h-135l260 306h192zM1192 1054l-185 -1054h-184l31 177h-14q-40 -86 -120 -140t-189 -54q-156 0 -243.5 91.5t-87.5 234.5q0 71 21 180l103 565h193l-103 -572q-14 -89 -14 -132q0 -93 52 -145.5t153 -52.5q122 0 196 83.5t97 217.5
l105 601h189z" />
    <glyph glyph-name="Uogonek" unicode="&#x172;" horiz-adv-x="1380" 
d="M1083 72q-15 -14 -48.5 -43t-48.5 -44t-36 -38.5t-32 -45.5t-15 -46q-9 -52 18.5 -76.5t81.5 -24.5q43 0 76 10l-22 -132q-61 -19 -122 -18q-95 0 -153 52t-42 147q21 118 139 195l-3 11q-35 -21 -87 -33.5t-98 -12.5q-88 0 -168 30.5t-141.5 85.5t-97.5 139.5t-36 185.5
q0 64 13 136l143 816h201l-147 -827q-7 -37 -7 -95q0 -130 80.5 -209t218.5 -79q130 0 219 74t115 221l162 915h201l-166 -942q-39 -216 -198 -352z" />
    <glyph glyph-name="uogonek" unicode="&#x173;" horiz-adv-x="1178" 
d="M992 -239l-22 -127q-52 -20 -130 -20q-91 0 -146 52t-50 137q2 22 9 44t14.5 38t25 35.5t26 29t32 27.5t29.5 22t32 21l26 18l24 139h-14q-40 -86 -120 -140t-190 -54q-156 0 -243 91.5t-87 236.5q0 69 21 178l103 565h193l-103 -572q-14 -89 -14 -132q0 -94 52 -146
t153 -52q121 0 195.5 83.5t97.5 217.5l105 601h189l-183 -1040q-78 -19 -139.5 -66.5t-65.5 -103.5q-4 -44 21.5 -67.5t75.5 -23.5q46 0 83 8z" />
    <glyph glyph-name="Wcircumflex" unicode="&#x174;" horiz-adv-x="1771" 
d="M798 1482l294 236h190l202 -236h-178l-129 141h-13l-177 -141h-189zM577 0h-200l-86 1366h209l32 -1080h13l477 1080h174l106 -1080h12l421 1080h209l-568 -1366h-195l-119 1040h-11z" />
    <glyph glyph-name="wcircumflex" unicode="&#x175;" horiz-adv-x="1459" 
d="M602 1205l308 372h134l182 -372h-159l-105 254h-6l-192 -254h-162zM1571 1054l-463 -1054h-205l-70 800h-8l-321 -800h-212l-118 1054h196l59 -846h10l341 846h176l71 -846h10l338 846h196z" />
    <glyph glyph-name="Ycircumflex" unicode="&#x176;" horiz-adv-x="1131" 
d="M755 565l-100 -565h-197l99 562l-328 804h210l237 -619h11l444 619h226zM483 1482l294 236h190l202 -236h-178l-129 141h-13l-177 -141h-189z" />
    <glyph glyph-name="ycircumflex" unicode="&#x177;" horiz-adv-x="1041" 
d="M1154 1054l-533 -1045q-1 -2 -20.5 -38.5t-19.5 -37.5q-42 -81 -77 -130t-83.5 -86.5t-111 -53t-151.5 -15.5q-56 0 -100 13l34 153q36 -9 80 -9q85 0 131 40t82 120l24 52l-194 1037h203l125 -844h12l392 844h207zM418 1205l308 372h134l182 -372h-159l-105 254h-6
l-192 -254h-162z" />
    <glyph glyph-name="Ydieresis" unicode="&#x178;" horiz-adv-x="1131" 
d="M755 565l-100 -565h-197l99 562l-328 804h210l237 -619h11l444 619h226zM557 1586q0 48 30 77t78 29q47 0 77.5 -29.5t30.5 -76.5q0 -45 -30.5 -73.5t-77.5 -28.5t-77.5 28.5t-30.5 73.5zM913 1586q0 47 30 76.5t75 29.5q49 0 79.5 -29t30.5 -77q0 -45 -30.5 -73.5
t-79.5 -28.5q-45 0 -75 28.5t-30 73.5z" />
    <glyph glyph-name="Zacute" unicode="&#x179;" horiz-adv-x="1206" 
d="M734 1499l294 199h237l-329 -199h-202zM142 0l25 147l882 1034l2 15h-700l28 170h942l-24 -152l-880 -1031l-3 -13h730l-30 -170h-972z" />
    <glyph glyph-name="zacute" unicode="&#x17a;" horiz-adv-x="967" 
d="M709 1210h-146l286 350h201zM102 0l28 163l665 723l2 14h-563l29 154h790l-29 -165l-659 -716l-2 -14h561l-28 -159h-794z" />
    <glyph glyph-name="Zdotaccent" unicode="&#x17b;" horiz-adv-x="1206" 
d="M142 0l25 147l882 1034l2 15h-700l28 170h942l-24 -152l-880 -1031l-3 -13h730l-30 -170h-972zM790 1609q0 50 32 82t79 32q50 0 82.5 -32t32.5 -82q0 -49 -32.5 -81t-82.5 -32q-47 0 -79 32.5t-32 80.5z" />
    <glyph glyph-name="zdotaccent" unicode="&#x17c;" horiz-adv-x="967" 
d="M597 1297q0 50 32 82t79 32q50 0 82.5 -32t32.5 -82q0 -49 -32.5 -81t-82.5 -32q-47 0 -79 32.5t-32 80.5zM102 0l28 163l665 723l2 14h-563l29 154h790l-29 -165l-659 -716l-2 -14h561l-28 -159h-794z" />
    <glyph glyph-name="Zcaron" unicode="&#x17d;" horiz-adv-x="1206" 
d="M142 0l25 147l882 1034l2 15h-700l28 170h942l-24 -152l-880 -1031l-3 -13h730l-30 -170h-972zM1280 1716l-302 -229h-176l-225 229h197l122 -128h7l165 128h212z" />
    <glyph glyph-name="zcaron" unicode="&#x17e;" horiz-adv-x="967" 
d="M633 1214l-184 373h157l108 -255h6l190 255h162l-305 -373h-134zM102 0l28 163l665 723l2 14h-563l29 154h790l-29 -165l-659 -716l-2 -14h561l-28 -159h-794z" />
    <glyph glyph-name="florin" unicode="&#x192;" horiz-adv-x="1127" 
d="M307 -186l170 927h-210l27 161h212l30 179q53 312 371 312q84 0 145 -26.5t92 -69t44 -87.5t10 -90h-178q2 54 -34 84.5t-92 30.5q-133 0 -162 -170l-28 -163h294l-28 -161h-294l-169 -927h-200z" />
    <glyph glyph-name="Ohorn" unicode="&#x1a0;" horiz-adv-x="1544" 
d="M475 850l-34 -186q-15 -80 -15 -153q0 -165 94 -261.5t260 -96.5q152 0 247.5 95.5t129.5 284.5l35 199q8 44 8 131q0 159 -94 255t-256 96q-145 0 -242.5 -88t-132.5 -276zM1349 485q-46 -248 -195 -380.5t-399 -132.5q-151 0 -269.5 59t-189 177t-70.5 277
q0 110 14 193l38 207q43 241 198.5 374.5t379.5 133.5q141 0 257 -48q5 -2 20 -7.5t20 -7.5t18 -6.5t20 -6t18.5 -5t20 -4.5t19.5 -2t21 -1q136 0 165 154l15 97h165l-16 -106q-25 -138 -95 -211t-186 -71h-1q85 -129 85 -309q0 -83 -15 -166z" />
    <glyph glyph-name="ohorn" unicode="&#x1a1;" horiz-adv-x="1218" 
d="M614 -17q-187 0 -308.5 111t-121.5 302q0 90 11 147l23 129q33 184 158.5 291.5t304.5 107.5q65 0 155 -21.5t132 -21.5q71 0 107 37.5t50 111.5l28 157h166l-28 -156q-24 -137 -74 -204t-160 -72l-3 -9q30 -43 51 -110t21 -142q0 -59 -12 -126l-24 -129
q-36 -190 -156 -296.5t-320 -106.5zM407 638l-21 -118q-10 -52 -10 -106q0 -120 68 -193.5t187 -73.5q110 0 179.5 73.5t93.5 207.5l21 126q6 36 6 93q0 115 -68.5 188t-184.5 73q-105 0 -176.5 -68.5t-94.5 -201.5z" />
    <glyph glyph-name="Uhorn" unicode="&#x1af;" horiz-adv-x="1642" 
d="M749 -27q-143 0 -255 50.5t-178 152t-66 239.5q0 63 13 135l143 816h200l-145 -827q-8 -43 -8 -95q0 -130 81 -209t220 -79q129 0 218 74.5t115 220.5l162 915h193q72 0 107.5 38t48.5 110l19 106h164l-20 -114q-21 -126 -98.5 -203.5t-202.5 -77.5h-34l-142 -801
q-40 -224 -182.5 -337.5t-352.5 -113.5z" />
    <glyph glyph-name="uhorn" unicode="&#x1b0;" horiz-adv-x="1336" 
d="M848 177q-40 -86 -120 -140t-190 -54q-156 0 -243 91.5t-87 234.5q0 71 21 180l103 565h193l-103 -572q-14 -89 -14 -132q0 -93 52 -145.5t153 -52.5q122 0 196 83.5t97 217.5l106 601h166q72 0 105.5 37.5t46.5 110.5l24 132h165l-25 -142q-22 -129 -97.5 -203.5
t-203.5 -74.5h-18l-161 -914h-183l31 177h-14z" />
    <glyph glyph-name="Acaron" unicode="&#x1cd;" horiz-adv-x="1246" 
d="M27 0l717 1366h221l237 -1366h-206l-61 396h-497l-202 -396h-209zM825 1143h-13l-296 -589h398zM1279 1716l-302 -229h-176l-225 229h197l122 -128h7l165 128h212z" />
    <glyph glyph-name="acaron" unicode="&#x1ce;" horiz-adv-x="1105" 
d="M473 -17q-135 0 -226 80t-91 215q0 25 2 40q12 140 121 219.5t306 79.5h277l12 68q4 20 4 45q0 75 -51.5 129t-160.5 54q-87 0 -141 -34.5t-72 -88.5h-186q23 124 131.5 202.5t281.5 78.5q184 0 283 -91.5t99 -242.5q0 -64 -18 -152l-103 -585h-185l25 141h-12
q-32 -64 -109.5 -111t-186.5 -47zM350 302q0 -69 49 -113.5t134 -44.5q102 0 181 60t98 153l24 123h-253q-114 0 -173.5 -51t-59.5 -127zM669 1214l-184 373h157l108 -255h6l190 255h162l-305 -373h-134z" />
    <glyph glyph-name="Icaron" unicode="&#x1cf;" horiz-adv-x="553" 
d="M366 0h-197l241 1366h197zM938 1716l-302 -229h-176l-225 229h197l122 -128h7l165 128h212z" />
    <glyph glyph-name="icaron" unicode="&#x1d0;" horiz-adv-x="581" 
d="M432 1214l-184 373h157l108 -255h6l190 255h162l-305 -373h-134zM175 0l187 1054h194l-187 -1054h-194z" />
    <glyph glyph-name="Ocaron" unicode="&#x1d1;" horiz-adv-x="1384" 
d="M1351 1716l-302 -229h-176l-225 229h197l122 -128h7l165 128h212zM476 850l-35 -186q-15 -80 -15 -153q0 -165 94 -261.5t260 -96.5q152 0 247 95.5t129 284.5l36 199q8 44 8 131q0 159 -94 255t-256 96q-145 0 -242 -88t-132 -276zM240 678l38 207q43 241 199 375
t379 134q246 0 396 -143t150 -392q0 -83 -15 -166l-39 -208q-45 -248 -194 -380.5t-399 -132.5q-151 0 -269.5 59t-189 177t-70.5 277q0 110 14 193z" />
    <glyph glyph-name="ocaron" unicode="&#x1d2;" horiz-adv-x="1132" 
d="M708 1214l-184 373h157l108 -255h6l190 255h162l-305 -373h-134zM401 638l-21 -118q-11 -57 -11 -106q0 -120 68.5 -193.5t187.5 -73.5q110 0 179.5 73.5t93.5 207.5l21 126q5 30 5 93q0 115 -68 188t-184 73q-105 0 -176.5 -68.5t-94.5 -201.5zM189 543l23 129
q33 184 158.5 291.5t304.5 107.5q199 0 322 -115.5t123 -314.5q0 -59 -12 -126l-24 -129q-36 -190 -156 -296.5t-320 -106.5q-187 0 -308.5 111t-121.5 302q0 90 11 147z" />
    <glyph glyph-name="Ucaron" unicode="&#x1d3;" horiz-adv-x="1380" 
d="M1353 1716l-302 -229h-176l-225 229h197l122 -128h7l165 128h212zM602 1366l-146 -827q-8 -43 -8 -95q0 -130 81 -209t219 -79q129 0 218.5 74.5t115.5 220.5l162 915h201l-166 -942q-40 -224 -182.5 -337.5t-353.5 -113.5q-143 0 -254.5 50.5t-177.5 152t-66 239.5
q0 63 13 135l143 816h201z" />
    <glyph glyph-name="ucaron" unicode="&#x1d4;" horiz-adv-x="1178" 
d="M735 1214l-184 373h157l108 -255h6l190 255h162l-305 -373h-134zM1192 1054l-185 -1054h-184l31 177h-14q-40 -86 -120 -140t-189 -54q-156 0 -243.5 91.5t-87.5 234.5q0 71 21 180l103 565h193l-103 -572q-14 -89 -14 -132q0 -93 52 -145.5t153 -52.5q122 0 196 83.5
t97 217.5l105 601h189z" />
    <glyph glyph-name="Udieresismacron" unicode="&#x1d5;" horiz-adv-x="1380" 
d="M687 1586q0 48 30 77t78 29q47 0 77.5 -29.5t30.5 -76.5q0 -45 -30.5 -73.5t-77.5 -28.5t-77.5 28.5t-30.5 73.5zM1043 1586q0 47 30 76.5t75 29.5q49 0 79.5 -29t30.5 -77q0 -45 -30.5 -73.5t-79.5 -28.5q-45 0 -75 28.5t-30 73.5zM602 1366l-146 -827q-8 -43 -8 -95
q0 -130 81 -209t219 -79q129 0 218.5 74.5t115.5 220.5l162 915h201l-166 -942q-40 -224 -182.5 -337.5t-353.5 -113.5q-143 0 -254.5 50.5t-177.5 152t-66 239.5q0 63 13 135l143 816h201zM1362 1899l-19 -112h-680l19 112h680z" />
    <glyph glyph-name="udieresismacron" unicode="&#x1d6;" horiz-adv-x="1178" 
d="M1192 1054l-185 -1054h-184l31 177h-14q-40 -86 -120 -140t-189 -54q-156 0 -243.5 91.5t-87.5 234.5q0 71 21 180l103 565h193l-103 -572q-14 -89 -14 -132q0 -93 52 -145.5t153 -52.5q122 0 196 83.5t97 217.5l105 601h189zM515 1301q0 48 31.5 78t79.5 30q50 0 81 -30
t31 -78q0 -47 -31.5 -76.5t-80.5 -29.5q-48 0 -79.5 30t-31.5 76zM882 1301q0 48 31 78t78 30q51 0 83 -30t32 -78q0 -47 -32 -76.5t-83 -29.5q-47 0 -78 30t-31 76zM1204 1650l-20 -112h-680l20 112h680z" />
    <glyph glyph-name="Udieresisacute" unicode="&#x1d7;" horiz-adv-x="1380" 
d="M848 1728l294 199h237l-329 -199h-202zM687 1586q0 48 30 77t78 29q47 0 77.5 -29.5t30.5 -76.5q0 -45 -30.5 -73.5t-77.5 -28.5t-77.5 28.5t-30.5 73.5zM1043 1586q0 47 30 76.5t75 29.5q49 0 79.5 -29t30.5 -77q0 -45 -30.5 -73.5t-79.5 -28.5q-45 0 -75 28.5t-30 73.5
zM602 1366l-146 -827q-8 -43 -8 -95q0 -130 81 -209t219 -79q129 0 218.5 74.5t115.5 220.5l162 915h201l-166 -942q-40 -224 -182.5 -337.5t-353.5 -113.5q-143 0 -254.5 50.5t-177.5 152t-66 239.5q0 63 13 135l143 816h201z" />
    <glyph glyph-name="udieresisacute" unicode="&#x1d8;" horiz-adv-x="1178" 
d="M859 1475h-146l286 350h201zM1192 1054l-185 -1054h-184l31 177h-14q-40 -86 -120 -140t-189 -54q-156 0 -243.5 91.5t-87.5 234.5q0 71 21 180l103 565h193l-103 -572q-14 -89 -14 -132q0 -93 52 -145.5t153 -52.5q122 0 196 83.5t97 217.5l105 601h189zM515 1301
q0 48 31.5 78t79.5 30q50 0 81 -30t31 -78q0 -47 -31.5 -76.5t-80.5 -29.5q-48 0 -79.5 30t-31.5 76zM882 1301q0 48 31 78t78 30q51 0 83 -30t32 -78q0 -47 -32 -76.5t-83 -29.5q-47 0 -78 30t-31 76z" />
    <glyph glyph-name="Udieresiscaron" unicode="&#x1d9;" horiz-adv-x="1380" 
d="M687 1586q0 48 30 77t78 29q47 0 77.5 -29.5t30.5 -76.5q0 -45 -30.5 -73.5t-77.5 -28.5t-77.5 28.5t-30.5 73.5zM1043 1586q0 47 30 76.5t75 29.5q49 0 79.5 -29t30.5 -77q0 -45 -30.5 -73.5t-79.5 -28.5q-45 0 -75 28.5t-30 73.5zM1394 1945l-302 -229h-176l-225 229
h197l122 -128h7l165 128h212zM602 1366l-146 -827q-8 -43 -8 -95q0 -130 81 -209t219 -79q129 0 218.5 74.5t115.5 220.5l162 915h201l-166 -942q-40 -224 -182.5 -337.5t-353.5 -113.5q-143 0 -254.5 50.5t-177.5 152t-66 239.5q0 63 13 135l143 816h201z" />
    <glyph glyph-name="udieresiscaron" unicode="&#x1da;" horiz-adv-x="1178" 
d="M783 1479l-184 373h157l108 -255h6l190 255h162l-305 -373h-134zM1192 1054l-185 -1054h-184l31 177h-14q-40 -86 -120 -140t-189 -54q-156 0 -243.5 91.5t-87.5 234.5q0 71 21 180l103 565h193l-103 -572q-14 -89 -14 -132q0 -93 52 -145.5t153 -52.5q122 0 196 83.5
t97 217.5l105 601h189zM515 1301q0 48 31.5 78t79.5 30q50 0 81 -30t31 -78q0 -47 -31.5 -76.5t-80.5 -29.5q-48 0 -79.5 30t-31.5 76zM882 1301q0 48 31 78t78 30q51 0 83 -30t32 -78q0 -47 -32 -76.5t-83 -29.5q-47 0 -78 30t-31 76z" />
    <glyph glyph-name="Udieresisgrave" unicode="&#x1db;" horiz-adv-x="1380" 
d="M1129 1728h-197l-309 197h229zM687 1586q0 48 30 77t78 29q47 0 77.5 -29.5t30.5 -76.5q0 -45 -30.5 -73.5t-77.5 -28.5t-77.5 28.5t-30.5 73.5zM1043 1586q0 47 30 76.5t75 29.5q49 0 79.5 -29t30.5 -77q0 -45 -30.5 -73.5t-79.5 -28.5q-45 0 -75 28.5t-30 73.5z
M602 1366l-146 -827q-8 -43 -8 -95q0 -130 81 -209t219 -79q129 0 218.5 74.5t115.5 220.5l162 915h201l-166 -942q-40 -224 -182.5 -337.5t-353.5 -113.5q-143 0 -254.5 50.5t-177.5 152t-66 239.5q0 63 13 135l143 816h201z" />
    <glyph glyph-name="udieresisgrave" unicode="&#x1dc;" horiz-adv-x="1178" 
d="M953 1475h-152l-241 349h204zM1192 1054l-185 -1054h-184l31 177h-14q-40 -86 -120 -140t-189 -54q-156 0 -243.5 91.5t-87.5 234.5q0 71 21 180l103 565h193l-103 -572q-14 -89 -14 -132q0 -93 52 -145.5t153 -52.5q122 0 196 83.5t97 217.5l105 601h189zM515 1301
q0 48 31.5 78t79.5 30q50 0 81 -30t31 -78q0 -47 -31.5 -76.5t-80.5 -29.5q-48 0 -79.5 30t-31.5 76zM882 1301q0 48 31 78t78 30q51 0 83 -30t32 -78q0 -47 -32 -76.5t-83 -29.5q-47 0 -78 30t-31 76z" />
    <glyph glyph-name="Adieresismacron" unicode="&#x1de;" horiz-adv-x="1246" 
d="M27 0l717 1366h221l237 -1366h-206l-61 396h-497l-202 -396h-209zM825 1143h-13l-296 -589h398zM613 1586q0 48 30 77t78 29q47 0 77.5 -29.5t30.5 -76.5q0 -45 -30.5 -73.5t-77.5 -28.5t-77.5 28.5t-30.5 73.5zM969 1586q0 47 30 76.5t75 29.5q49 0 79.5 -29t30.5 -77
q0 -45 -30.5 -73.5t-79.5 -28.5q-45 0 -75 28.5t-30 73.5zM1289 1899l-19 -112h-680l19 112h680z" />
    <glyph glyph-name="adieresismacron" unicode="&#x1df;" horiz-adv-x="1105" 
d="M473 -17q-135 0 -226 80t-91 215q0 25 2 40q12 140 121 219.5t306 79.5h277l12 68q4 20 4 45q0 75 -51.5 129t-160.5 54q-87 0 -141 -34.5t-72 -88.5h-186q23 124 131.5 202.5t281.5 78.5q184 0 283 -91.5t99 -242.5q0 -64 -18 -152l-103 -585h-185l25 141h-12
q-32 -64 -109.5 -111t-186.5 -47zM350 302q0 -69 49 -113.5t134 -44.5q102 0 181 60t98 153l24 123h-253q-114 0 -173.5 -51t-59.5 -127zM449 1301q0 48 31.5 78t79.5 30q50 0 81 -30t31 -78q0 -47 -31.5 -76.5t-80.5 -29.5q-48 0 -79.5 30t-31.5 76zM816 1301q0 48 31 78
t78 30q51 0 83 -30t32 -78q0 -47 -32 -76.5t-83 -29.5q-47 0 -78 30t-31 76zM1139 1650l-20 -112h-680l20 112h680z" />
    <glyph glyph-name="Adotmacron" unicode="&#x1e0;" horiz-adv-x="1246" 
d="M27 0l717 1366h221l237 -1366h-206l-61 396h-497l-202 -396h-209zM825 1143h-13l-296 -589h398zM790 1609q0 50 32 82t79 32q50 0 82.5 -32t32.5 -82q0 -49 -32.5 -81t-82.5 -32q-47 0 -79 32.5t-32 80.5zM1289 1899l-19 -112h-680l19 112h680z" />
    <glyph glyph-name="adotmacron" unicode="&#x1e1;" horiz-adv-x="1105" 
d="M473 -17q-135 0 -226 80t-91 215q0 25 2 40q12 140 121 219.5t306 79.5h277l12 68q4 20 4 45q0 75 -51.5 129t-160.5 54q-87 0 -141 -34.5t-72 -88.5h-186q23 124 131.5 202.5t281.5 78.5q184 0 283 -91.5t99 -242.5q0 -64 -18 -152l-103 -585h-185l25 141h-12
q-32 -64 -109.5 -111t-186.5 -47zM350 302q0 -69 49 -113.5t134 -44.5q102 0 181 60t98 153l24 123h-253q-114 0 -173.5 -51t-59.5 -127zM633 1297q0 50 32 82t79 32q50 0 82.5 -32t32.5 -82q0 -49 -32.5 -81t-82.5 -32q-47 0 -79 32.5t-32 80.5zM1139 1650l-20 -112h-680
l20 112h680z" />
    <glyph glyph-name="AEmacron" unicode="&#x1e2;" horiz-adv-x="1826" 
d="M1062 1130l-434 -578l341 1l108 577h-15zM871 0l69 391h-417l-302 -391h-225l1027 1366h910l-29 -172h-627l-74 -409h595l-27 -167h-597l-80 -446h631l-28 -172h-826zM1917 1614l-19 -112h-680l19 112h680z" />
    <glyph glyph-name="aemacron" unicode="&#x1e3;" horiz-adv-x="1747" 
d="M1255 -18q-128 0 -222 58.5t-137 168.5h-3q-124 -226 -393 -226q-161 0 -254.5 79t-93.5 224q0 160 114 245.5t318 85.5h274l13 73q3 21 3 43q0 72 -52 126t-161 54q-87 0 -140.5 -34.5t-71.5 -88.5h-186q22 123 131 202t277 79q229 0 323 -145h3q61 69 150.5 107
t198.5 38q112 0 195.5 -40.5t127 -106.5t60 -142.5t5.5 -156.5q0 -11 -25 -144h-684q-11 -61 -11 -88q0 -106 59 -177t182 -71q88 0 148.5 37t77.5 92h189q-18 -115 -134 -203.5t-281 -88.5zM346 299q0 -69 48.5 -112t134.5 -43q104 0 182.5 61.5t96.5 156.5l24 118h-253
q-115 0 -174 -52.5t-59 -128.5zM1550 620q4 8 4 19q20 116 -37.5 195.5t-178.5 79.5q-100 0 -176 -59t-100 -171q-13 -56 -13 -64h501zM1397 1321l-20 -112h-680l20 112h680z" />
    <glyph glyph-name="Gcaron" unicode="&#x1e6;" horiz-adv-x="1355" 
d="M1294 1716l-302 -229h-176l-225 229h197l122 -128h7l165 128h212zM282 887q47 244 202 375.5t380 131.5q122 0 221 -37t159.5 -97.5t92.5 -133t32 -147.5q0 -27 -2 -33h-191q0 18 -1 27q-3 39 -21.5 79t-54 77.5t-98 61t-141.5 23.5q-154 0 -251 -94.5t-132 -269.5
l-39 -190q-14 -81 -14 -154q0 -177 95.5 -267t244.5 -90q121 0 215.5 60t113.5 167l30 169h-334l29 161h526l-60 -338q-33 -185 -180.5 -290t-353.5 -105q-106 0 -198 30.5t-166.5 92t-117.5 165.5t-43 240q0 91 11 152z" />
    <glyph glyph-name="gcaron" unicode="&#x1e7;" horiz-adv-x="1191" 
d="M725 1214l-184 373h157l108 -255h6l190 255h162l-305 -373h-134zM654 1069q124 0 206 -61.5t107 -155.5h14l36 201h191l-186 -1052q-70 -398 -489 -398q-187 0 -300 91t-113 214v15h186v-6l1 -5q2 -58 69 -103.5t167 -45.5q132 0 202.5 69t95.5 204l27 152h-14
q-31 -74 -107 -121.5t-188 -47.5q-99 0 -183.5 47t-138 140.5t-53.5 215.5q0 79 14 143l21 110q39 196 158.5 295t276.5 99zM933 639q0 123 -70 195.5t-182 72.5q-108 0 -180.5 -75t-96.5 -206l-15 -79q-12 -65 -12 -106q0 -129 67 -198.5t186 -69.5q104 0 180 76.5
t98 204.5l16 90q9 53 9 95z" />
    <glyph glyph-name="Kcaron" unicode="&#x1e8;" horiz-adv-x="1271" 
d="M608 1366l-121 -654h14l698 654h248l-641 -610l409 -756h-227l-337 642l-204 -181l-81 -461h-197l242 1366h197zM1280 1716l-302 -229h-176l-225 229h197l122 -128h7l165 128h212z" />
    <glyph glyph-name="kcaron" unicode="&#x1e9;" horiz-adv-x="1077" 
d="M470 1581l-184 373h157l108 -255h6l190 255h162l-305 -373h-134zM415 422l-75 -422h-192l252 1421h190l-137 -779h13l482 412h254l-504 -422l326 -632h-211l-265 530z" />
    <glyph glyph-name="Oogonek" unicode="&#x1ea;" horiz-adv-x="1384" 
d="M1113 -236l-23 -132q-66 -19 -121 -18q-88 0 -144 45.5t-54 126.5q3 134 136 221l-5 12q-32 -20 -83 -32t-93 -12q-97 0 -185.5 33t-159 95t-112.5 162t-42 223q0 107 14 190l38 207q43 241 199 375t378 134q247 0 397 -143t150 -396q0 -80 -15 -162l-38 -208
q-26 -144 -74.5 -228.5t-127.5 -159.5q-23 -21 -60.5 -54t-59.5 -53t-46 -46.5t-35 -51.5t-12 -51q-1 -43 26.5 -65t75.5 -22q42 0 76 10zM476 850l-34 -186q-15 -78 -15 -153q0 -165 94.5 -261.5t259.5 -96.5q152 0 247.5 95.5t129.5 284.5l35 199q8 42 8 131
q0 159 -94.5 255t-255.5 96q-145 0 -242.5 -88t-132.5 -276z" />
    <glyph glyph-name="oogonek" unicode="&#x1eb;" horiz-adv-x="1132" 
d="M772 -386q-95 0 -150 51.5t-43 147.5q7 51 41 100t90 87l-4 10q-42 -26 -129 -26q-164 0 -277.5 113t-113.5 302q0 87 11 144l23 129q33 184 158.5 291.5t305.5 107.5q199 0 321.5 -115.5t122.5 -317.5q0 -57 -12 -123l-24 -129q-17 -92 -65 -172t-108 -133
q-9 -8 -36.5 -31t-36.5 -31.5t-30 -27.5t-29 -30.5t-20 -29.5t-17.5 -35t-7.5 -36q-5 -51 21.5 -78.5t79.5 -27.5q39 0 76 10l-23 -132l-14 -4q-15 -3 -29 -6t-37 -5.5t-44 -2.5zM409 638l-21 -118q-10 -52 -10 -107q0 -119 68 -192.5t187 -73.5q110 0 179.5 73.5
t93.5 207.5l21 126q6 36 6 93q0 115 -68.5 188t-184.5 73q-105 0 -176.5 -68.5t-94.5 -201.5z" />
    <glyph glyph-name="Oogonekmacron" unicode="&#x1ec;" horiz-adv-x="1384" 
d="M1112 -236l-23 -132q-66 -19 -121 -18q-88 0 -144 45.5t-54 126.5q3 134 136 221l-5 12q-32 -20 -83 -32t-93 -12q-97 0 -185.5 33t-159 95t-112.5 162t-42 223q0 107 14 190l38 207q43 241 199 375t378 134q247 0 397 -143t150 -396q0 -80 -15 -162l-38 -208
q-26 -144 -74.5 -228.5t-127.5 -159.5q-23 -21 -60.5 -54t-59.5 -53t-46 -46.5t-35 -51.5t-12 -51q-1 -43 26.5 -65t75.5 -22q42 0 76 10zM475 850l-34 -186q-15 -78 -15 -153q0 -165 94.5 -261.5t259.5 -96.5q152 0 247.5 95.5t129.5 284.5l35 199q8 42 8 131
q0 159 -94.5 255t-255.5 96q-145 0 -242.5 -88t-132.5 -276zM1309 1614l-19 -112h-680l19 112h680z" />
    <glyph glyph-name="oogonekmacron" unicode="&#x1ed;" horiz-adv-x="1132" 
d="M764 -386q-95 0 -150 51.5t-43 147.5q7 51 41 100t90 87l-4 10q-42 -26 -129 -26q-164 0 -277.5 113t-113.5 302q0 87 11 144l23 129q33 184 158.5 291.5t305.5 107.5q199 0 321.5 -115.5t122.5 -317.5q0 -57 -12 -123l-24 -129q-17 -92 -65 -172t-108 -133
q-9 -8 -36.5 -31t-36.5 -31.5t-30 -27.5t-29 -30.5t-20 -29.5t-17.5 -35t-7.5 -36q-5 -51 21.5 -78.5t79.5 -27.5q39 0 76 10l-23 -132l-14 -4q-15 -3 -29 -6t-37 -5.5t-44 -2.5zM401 638l-21 -118q-10 -52 -10 -107q0 -119 68 -192.5t187 -73.5q110 0 179.5 73.5
t93.5 207.5l21 126q6 36 6 93q0 115 -68.5 188t-184.5 73q-105 0 -176.5 -68.5t-94.5 -201.5zM1118 1321l-20 -112h-680l20 112h680z" />
    <glyph glyph-name="Gacute" unicode="&#x1f4;" horiz-adv-x="1355" 
d="M748 1499l294 199h237l-329 -199h-202zM282 887q47 244 202 375.5t380 131.5q122 0 221 -37t159.5 -97.5t92.5 -133t32 -147.5q0 -27 -2 -33h-191q0 18 -1 27q-3 39 -21.5 79t-54 77.5t-98 61t-141.5 23.5q-154 0 -251 -94.5t-132 -269.5l-39 -190q-14 -81 -14 -154
q0 -177 95.5 -267t244.5 -90q121 0 215.5 60t113.5 167l30 169h-334l29 161h526l-60 -338q-33 -185 -180.5 -290t-353.5 -105q-106 0 -198 30.5t-166.5 92t-117.5 165.5t-43 240q0 91 11 152z" />
    <glyph glyph-name="gacute" unicode="&#x1f5;" horiz-adv-x="1191" 
d="M801 1210h-146l286 350h201zM654 1069q124 0 206 -61.5t107 -155.5h14l36 201h191l-186 -1052q-70 -398 -489 -398q-187 0 -300 91t-113 214v15h186v-6l1 -5q2 -58 69 -103.5t167 -45.5q132 0 202.5 69t95.5 204l27 152h-14q-31 -74 -107 -121.5t-188 -47.5
q-99 0 -183.5 47t-138 140.5t-53.5 215.5q0 79 14 143l21 110q39 196 158.5 295t276.5 99zM933 639q0 123 -70 195.5t-182 72.5q-108 0 -180.5 -75t-96.5 -206l-15 -79q-12 -65 -12 -106q0 -129 67 -198.5t186 -69.5q104 0 180 76.5t98 204.5l16 90q9 53 9 95z" />
    <glyph glyph-name="Ngrave" unicode="&#x1f8;" horiz-adv-x="1426" 
d="M1120 1499h-197l-309 197h229zM1239 0h-180l-488 1031h-11l-182 -1031h-193l241 1366h183l483 -1032h11l184 1032h193z" />
    <glyph glyph-name="ngrave" unicode="&#x1f9;" horiz-adv-x="1192" 
d="M921 1210h-152l-241 349h204zM156 0l186 1054h190l-32 -171h14q91 187 311 187q159 0 240.5 -93.5t81.5 -233.5q0 -60 -21 -178l-99 -565h-194l102 576q13 78 13 125q0 92 -47.5 150t-145.5 58q-123 0 -199 -85t-99 -218l-107 -606h-194z" />
    <glyph glyph-name="Aringacute" unicode="&#x1fa;" horiz-adv-x="1246" 
d="M807 1655l295 199h236l-328 -199h-203zM843 1416q37 -8 68 13t39 57q7 36 -14.5 67t-59.5 39q-36 8 -67.5 -12.5t-39.5 -56.5q-7 -36 15 -67t59 -40zM825 1143h-13l-296 -589h398zM438 396l-202 -396h-209l706 1342q-39 28 -61.5 70.5t-22.5 92.5q0 88 61 149t150 61
q87 0 148 -60.5t61 -149.5q0 -54 -27 -100t-73 -73l233 -1332h-206l-61 396h-497z" />
    <glyph glyph-name="aringacute" unicode="&#x1fb;" horiz-adv-x="1105" 
d="M950 1526h-152l286 349h207zM473 -17q-135 0 -226 80t-91 215q0 25 2 40q12 140 121 219.5t306 79.5h277l12 68q4 20 4 45q0 75 -51.5 129t-160.5 54q-87 0 -141 -34.5t-72 -88.5h-186q23 124 131.5 202.5t281.5 78.5q184 0 283 -91.5t99 -242.5q0 -64 -18 -152
l-103 -585h-185l25 141h-12q-32 -64 -109.5 -111t-186.5 -47zM350 302q0 -69 49 -113.5t134 -44.5q102 0 181 60t98 153l24 123h-253q-114 0 -173.5 -51t-59.5 -127zM796 1312q42 0 72 29.5t30 71.5t-30 71.5t-72 29.5t-72 -29.5t-30 -71.5q0 -41 30.5 -71t71.5 -30z
M795 1217q-82 0 -138.5 57.5t-56.5 138.5t57.5 137.5t139.5 56.5q80 0 136.5 -56.5t56.5 -137.5q0 -82 -57 -139t-138 -57z" />
    <glyph glyph-name="AEacute" unicode="&#x1fc;" horiz-adv-x="1826" 
d="M1413 1499l294 199h237l-329 -199h-202zM1062 1130l-434 -578l341 1l108 577h-15zM871 0l69 391h-417l-302 -391h-225l1027 1366h910l-29 -172h-627l-74 -409h595l-27 -167h-597l-80 -446h631l-28 -172h-826z" />
    <glyph glyph-name="aeacute" unicode="&#x1fd;" horiz-adv-x="1747" 
d="M1063 1210h-146l286 350h201zM1255 -18q-128 0 -222 58.5t-137 168.5h-3q-124 -226 -393 -226q-161 0 -254.5 79t-93.5 224q0 160 114 245.5t318 85.5h274l13 73q3 21 3 43q0 72 -52 126t-161 54q-87 0 -140.5 -34.5t-71.5 -88.5h-186q22 123 131 202t277 79
q229 0 323 -145h3q61 69 150.5 107t198.5 38q112 0 195.5 -40.5t127 -106.5t60 -142.5t5.5 -156.5q0 -11 -25 -144h-684q-11 -61 -11 -88q0 -106 59 -177t182 -71q88 0 148.5 37t77.5 92h189q-18 -115 -134 -203.5t-281 -88.5zM346 299q0 -69 48.5 -112t134.5 -43
q104 0 182.5 61.5t96.5 156.5l24 118h-253q-115 0 -174 -52.5t-59 -128.5zM1550 620q4 8 4 19q20 116 -37.5 195.5t-178.5 79.5q-100 0 -176 -59t-100 -171q-13 -56 -13 -64h501z" />
    <glyph glyph-name="Oslashacute" unicode="&#x1fe;" horiz-adv-x="1384" 
d="M237 678l37 207q44 241 199.5 375t378.5 134q140 0 252 -48.5t183 -139.5l109 101l90 -93l-131 -121q43 -106 43 -234q0 -90 -15 -166l-38 -208q-46 -248 -195 -380.5t-399 -132.5q-132 0 -241 47t-179 136l-107 -99l-86 99l125 115q-40 97 -40 215q0 117 14 193z
M1195 845q0 52 -8 88l-708 -637q91 -143 298 -143q151 0 246.5 95.5t129.5 284.5l34 189q8 42 8 123zM1142 1069q-44 69 -120 107t-176 38q-144 0 -241.5 -88.5t-132.5 -275.5l-35 -186q-14 -79 -14 -145q0 -47 9 -87zM805 1499l294 199h237l-329 -199h-202z" />
    <glyph glyph-name="oslashacute" unicode="&#x1ff;" horiz-adv-x="1132" 
d="M188 543l22 129q33 184 158.5 291.5t305.5 107.5q221 0 343 -139l122 109l86 -97l-140 -124q33 -82 33 -179q0 -59 -12 -126l-24 -129q-36 -190 -156 -296.5t-320 -106.5q-204 0 -324 126l-124 -111l-80 97l134 120q-36 81 -36 181q0 84 12 147zM399 638l-21 -118
q-10 -58 -10 -99q0 -33 6 -62l505 444q-68 105 -209 105q-105 0 -176.5 -68.5t-94.5 -201.5zM421 239q68 -92 203 -92q109 0 178.5 73.5t93.5 207.5l22 126q4 26 4 82q0 13 -2 39zM784 1210h-146l286 350h201z" />
    <glyph glyph-name="Adblgrave" unicode="&#x200;" horiz-adv-x="1246" 
d="M27 0l717 1366h221l237 -1366h-206l-61 396h-497l-202 -396h-209zM825 1143h-13l-296 -589h398zM805 1499h-174l-335 250h191zM1165 1499h-175l-334 250h191z" />
    <glyph glyph-name="adblgrave" unicode="&#x201;" horiz-adv-x="1105" 
d="M473 -17q-135 0 -226 80t-91 215q0 25 2 40q12 140 121 219.5t306 79.5h277l12 68q4 20 4 45q0 75 -51.5 129t-160.5 54q-87 0 -141 -34.5t-72 -88.5h-186q23 124 131.5 202.5t281.5 78.5q184 0 283 -91.5t99 -242.5q0 -64 -18 -152l-103 -585h-185l25 141h-12
q-32 -64 -109.5 -111t-186.5 -47zM350 302q0 -69 49 -113.5t134 -44.5q102 0 181 60t98 153l24 123h-253q-114 0 -173.5 -51t-59.5 -127zM655 1214h-137l-242 328h184zM972 1214h-134l-245 328h187z" />
    <glyph glyph-name="Ainvertedbreve" unicode="&#x202;" horiz-adv-x="1246" 
d="M27 0l717 1366h221l237 -1366h-206l-61 396h-497l-202 -396h-209zM825 1143h-13l-296 -589h398zM591 1474q6 51 27.5 97.5t59 86t97.5 62.5t134 23q148 0 222 -82.5t49 -186.5h-128q12 66 -26.5 108.5t-122.5 42.5q-82 0 -128 -41.5t-57 -109.5h-127z" />
    <glyph glyph-name="ainvertedbreve" unicode="&#x203;" horiz-adv-x="1105" 
d="M473 -17q-135 0 -226 80t-91 215q0 25 2 40q12 140 121 219.5t306 79.5h277l12 68q4 20 4 45q0 75 -51.5 129t-160.5 54q-87 0 -141 -34.5t-72 -88.5h-186q23 124 131.5 202.5t281.5 78.5q184 0 283 -91.5t99 -242.5q0 -64 -18 -152l-103 -585h-185l25 141h-12
q-32 -64 -109.5 -111t-186.5 -47zM350 302q0 -69 49 -113.5t134 -44.5q102 0 181 60t98 153l24 123h-253q-114 0 -173.5 -51t-59.5 -127zM450 1234q4 51 25 99.5t58 90t97 67t134 25.5q99 0 168.5 -43.5t95.5 -107.5t11 -131h-128q11 68 -27.5 116t-121.5 48q-82 0 -128 -47
t-57 -117h-127z" />
    <glyph glyph-name="Edblgrave" unicode="&#x204;" horiz-adv-x="1133" 
d="M765 1499h-174l-335 250h191zM1125 1499h-175l-334 250h191zM1033 173l-29 -173h-827l241 1366h823l-30 -173h-626l-74 -408h595l-27 -167h-596l-80 -445h630z" />
    <glyph glyph-name="edblgrave" unicode="&#x205;" horiz-adv-x="1094" 
d="M593 -18q-184 0 -299 105.5t-115 298.5q0 63 17 158l25 139q32 184 159.5 286t311.5 102q113 0 197.5 -40.5t128.5 -106.5t61 -142.5t6 -156.5q0 -11 -25 -144h-686q-10 -38 -10 -89q0 -105 59 -176t183 -71q89 0 149 37t77 92h189q-20 -116 -137 -204t-291 -88zM899 620
q0 1 1.5 10t1.5 10q21 116 -36.5 195t-178.5 79q-98 0 -173 -58t-99 -172l-14 -64h498zM678 1214h-137l-242 328h184zM995 1214h-134l-245 328h187z" />
    <glyph glyph-name="Einvertedbreve" unicode="&#x206;" horiz-adv-x="1133" 
d="M1033 173l-29 -173h-827l241 1366h823l-30 -173h-626l-74 -408h595l-27 -167h-596l-80 -445h630zM551 1474q6 51 27.5 97.5t59 86t97.5 62.5t134 23q148 0 222 -82.5t49 -186.5h-128q12 66 -26.5 108.5t-122.5 42.5q-82 0 -128 -41.5t-57 -109.5h-127z" />
    <glyph glyph-name="einvertedbreve" unicode="&#x207;" horiz-adv-x="1094" 
d="M593 -18q-184 0 -299 105.5t-115 298.5q0 63 17 158l25 139q32 184 159.5 286t311.5 102q113 0 197.5 -40.5t128.5 -106.5t61 -142.5t6 -156.5q0 -11 -25 -144h-686q-10 -38 -10 -89q0 -105 59 -176t183 -71q89 0 149 37t77 92h189q-20 -116 -137 -204t-291 -88zM899 620
q0 1 1.5 10t1.5 10q21 116 -36.5 195t-178.5 79q-98 0 -173 -58t-99 -172l-14 -64h498zM473 1234q4 51 25 99.5t58 90t97 67t134 25.5q99 0 168.5 -43.5t95.5 -107.5t11 -131h-128q11 68 -27.5 116t-121.5 48q-82 0 -128 -47t-57 -117h-127z" />
    <glyph glyph-name="Idblgrave" unicode="&#x208;" horiz-adv-x="553" 
d="M366 0h-197l241 1366h197zM464 1499h-174l-335 250h191zM824 1499h-175l-334 250h191z" />
    <glyph glyph-name="idblgrave" unicode="&#x209;" horiz-adv-x="581" 
d="M175 0l187 1054h194l-187 -1054h-194zM418 1214h-137l-242 328h184zM735 1214h-134l-245 328h187z" />
    <glyph glyph-name="Iinvertedbreve" unicode="&#x20a;" horiz-adv-x="553" 
d="M366 0h-197l241 1366h197zM250 1474q6 51 27.5 97.5t59 86t97.5 62.5t134 23q148 0 222 -82.5t49 -186.5h-128q12 66 -26.5 108.5t-122.5 42.5q-82 0 -128 -41.5t-57 -109.5h-127z" />
    <glyph glyph-name="iinvertedbreve" unicode="&#x20b;" horiz-adv-x="581" 
d="M175 0l187 1054h194l-187 -1054h-194zM213 1234q4 51 25 99.5t58 90t97 67t134 25.5q99 0 168.5 -43.5t95.5 -107.5t11 -131h-128q11 68 -27.5 116t-121.5 48q-82 0 -128 -47t-57 -117h-127z" />
    <glyph glyph-name="Odblgrave" unicode="&#x20c;" horiz-adv-x="1384" 
d="M877 1499h-174l-335 250h191zM1237 1499h-175l-334 250h191zM476 850l-35 -186q-15 -80 -15 -153q0 -165 94 -261.5t260 -96.5q152 0 247 95.5t129 284.5l36 199q8 44 8 131q0 159 -94 255t-256 96q-145 0 -242 -88t-132 -276zM240 678l38 207q43 241 199 375t379 134
q246 0 396 -143t150 -392q0 -83 -15 -166l-39 -208q-45 -248 -194 -380.5t-399 -132.5q-151 0 -269.5 59t-189 177t-70.5 277q0 110 14 193z" />
    <glyph glyph-name="odblgrave" unicode="&#x20d;" horiz-adv-x="1132" 
d="M401 638l-21 -118q-11 -57 -11 -106q0 -120 68.5 -193.5t187.5 -73.5q110 0 179.5 73.5t93.5 207.5l21 126q5 30 5 93q0 115 -68 188t-184 73q-105 0 -176.5 -68.5t-94.5 -201.5zM189 543l23 129q33 184 158.5 291.5t304.5 107.5q199 0 322 -115.5t123 -314.5
q0 -59 -12 -126l-24 -129q-36 -190 -156 -296.5t-320 -106.5q-187 0 -308.5 111t-121.5 302q0 90 11 147zM693 1214h-137l-242 328h184zM1010 1214h-134l-245 328h187z" />
    <glyph glyph-name="Oinvertedbreve" unicode="&#x20e;" horiz-adv-x="1384" 
d="M663 1474q6 51 27.5 97.5t59 86t97.5 62.5t134 23q148 0 222 -82.5t49 -186.5h-128q12 66 -26.5 108.5t-122.5 42.5q-82 0 -128 -41.5t-57 -109.5h-127zM476 850l-35 -186q-15 -80 -15 -153q0 -165 94 -261.5t260 -96.5q152 0 247 95.5t129 284.5l36 199q8 44 8 131
q0 159 -94 255t-256 96q-145 0 -242 -88t-132 -276zM240 678l38 207q43 241 199 375t379 134q246 0 396 -143t150 -392q0 -83 -15 -166l-39 -208q-45 -248 -194 -380.5t-399 -132.5q-151 0 -269.5 59t-189 177t-70.5 277q0 110 14 193z" />
    <glyph glyph-name="oinvertedbreve" unicode="&#x20f;" horiz-adv-x="1132" 
d="M401 638l-21 -118q-11 -57 -11 -106q0 -120 68.5 -193.5t187.5 -73.5q110 0 179.5 73.5t93.5 207.5l21 126q5 30 5 93q0 115 -68 188t-184 73q-105 0 -176.5 -68.5t-94.5 -201.5zM189 543l23 129q33 184 158.5 291.5t304.5 107.5q199 0 322 -115.5t123 -314.5
q0 -59 -12 -126l-24 -129q-36 -190 -156 -296.5t-320 -106.5q-187 0 -308.5 111t-121.5 302q0 90 11 147zM489 1234q4 51 25 99.5t58 90t97 67t134 25.5q99 0 168.5 -43.5t95.5 -107.5t11 -131h-128q11 68 -27.5 116t-121.5 48q-82 0 -128 -47t-57 -117h-127z" />
    <glyph glyph-name="Rdblgrave" unicode="&#x210;" horiz-adv-x="1261" 
d="M766 1499h-174l-335 250h191zM1126 1499h-175l-334 250h191zM368 0h-197l242 1366h469q195 0 299.5 -97t104.5 -258q0 -42 -6 -81q-18 -140 -104 -233.5t-212 -128.5l187 -568h-211l-172 538q-24 -1 -65 -1h-240zM835 1199h-254l-89 -498h247q86 0 149.5 19t101.5 53.5
t58 75t27 90.5q5 30 5 63q0 92 -59.5 144.5t-185.5 52.5z" />
    <glyph glyph-name="rdblgrave" unicode="&#x211;" horiz-adv-x="783" 
d="M152 0l186 1054h183l-31 -176h13q30 80 108 136t188 56q44 0 89 -10l-38 -182q-34 14 -94 14q-130 0 -206 -84.5t-101 -221.5l-103 -586h-194zM535 1214h-137l-242 328h184zM852 1214h-134l-245 328h187z" />
    <glyph glyph-name="Rinvertedbreve" unicode="&#x212;" horiz-adv-x="1261" 
d="M368 0h-197l242 1366h469q195 0 299.5 -97t104.5 -258q0 -42 -6 -81q-18 -140 -104 -233.5t-212 -128.5l187 -568h-211l-172 538q-24 -1 -65 -1h-240zM835 1199h-254l-89 -498h247q86 0 149.5 19t101.5 53.5t58 75t27 90.5q5 30 5 63q0 92 -59.5 144.5t-185.5 52.5z
M552 1474q6 51 27.5 97.5t59 86t97.5 62.5t134 23q148 0 222 -82.5t49 -186.5h-128q12 66 -26.5 108.5t-122.5 42.5q-82 0 -128 -41.5t-57 -109.5h-127z" />
    <glyph glyph-name="rinvertedbreve" unicode="&#x213;" horiz-adv-x="783" 
d="M152 0l186 1054h183l-31 -176h13q30 80 108 136t188 56q44 0 89 -10l-38 -182q-34 14 -94 14q-130 0 -206 -84.5t-101 -221.5l-103 -586h-194zM330 1234q4 51 25 99.5t58 90t97 67t134 25.5q99 0 168.5 -43.5t95.5 -107.5t11 -131h-128q11 68 -27.5 116t-121.5 48
q-82 0 -128 -47t-57 -117h-127z" />
    <glyph glyph-name="Udblgrave" unicode="&#x214;" horiz-adv-x="1380" 
d="M879 1499h-174l-335 250h191zM1239 1499h-175l-334 250h191zM602 1366l-146 -827q-8 -43 -8 -95q0 -130 81 -209t219 -79q129 0 218.5 74.5t115.5 220.5l162 915h201l-166 -942q-40 -224 -182.5 -337.5t-353.5 -113.5q-143 0 -254.5 50.5t-177.5 152t-66 239.5
q0 63 13 135l143 816h201z" />
    <glyph glyph-name="udblgrave" unicode="&#x215;" horiz-adv-x="1178" 
d="M1192 1054l-185 -1054h-184l31 177h-14q-40 -86 -120 -140t-189 -54q-156 0 -243.5 91.5t-87.5 234.5q0 71 21 180l103 565h193l-103 -572q-14 -89 -14 -132q0 -93 52 -145.5t153 -52.5q122 0 196 83.5t97 217.5l105 601h189zM721 1214h-137l-242 328h184zM1038 1214
h-134l-245 328h187z" />
    <glyph glyph-name="Uinvertedbreve" unicode="&#x216;" horiz-adv-x="1380" 
d="M602 1366l-146 -827q-8 -43 -8 -95q0 -130 81 -209t219 -79q129 0 218.5 74.5t115.5 220.5l162 915h201l-166 -942q-40 -224 -182.5 -337.5t-353.5 -113.5q-143 0 -254.5 50.5t-177.5 152t-66 239.5q0 63 13 135l143 816h201zM665 1474q6 51 27.5 97.5t59 86t97.5 62.5
t134 23q148 0 222 -82.5t49 -186.5h-128q12 66 -26.5 108.5t-122.5 42.5q-82 0 -128 -41.5t-57 -109.5h-127z" />
    <glyph glyph-name="uinvertedbreve" unicode="&#x217;" horiz-adv-x="1178" 
d="M1192 1054l-185 -1054h-184l31 177h-14q-40 -86 -120 -140t-189 -54q-156 0 -243.5 91.5t-87.5 234.5q0 71 21 180l103 565h193l-103 -572q-14 -89 -14 -132q0 -93 52 -145.5t153 -52.5q122 0 196 83.5t97 217.5l105 601h189zM516 1234q4 51 25 99.5t58 90t97 67
t134 25.5q99 0 168.5 -43.5t95.5 -107.5t11 -131h-128q11 68 -27.5 116t-121.5 48q-82 0 -128 -47t-57 -117h-127z" />
    <glyph glyph-name="Scommaaccent" unicode="&#x218;" horiz-adv-x="1208" 
d="M166 388h191q-1 -8 -1 -24q0 -89 85 -155.5t223 -66.5q129 0 209.5 61.5t80.5 163.5q0 37 -13 67.5t-33 52t-54 41.5t-63.5 32.5t-74.5 28.5l-68 25q-74 26 -131.5 56.5t-112.5 76.5t-85 111t-30 144q0 121 64.5 211.5t171.5 135.5t241 45q121 0 222 -42t164 -125.5
t63 -192.5q0 -3 -1 -18.5t-1 -16.5h-184l1 2v5.5v8.5q0 94 -77.5 151.5t-188.5 57.5q-108 0 -189 -53.5t-81 -152.5q0 -80 62.5 -130.5t183.5 -97.5l85 -31q50 -19 85 -35t77.5 -39.5t70 -50.5t52 -62t36.5 -80.5t12 -100.5q0 -196 -140 -307t-363 -111q-214 0 -353 107.5
t-139 261.5q0 25 3 46zM543 -451h-136l80 310h161z" />
    <glyph glyph-name="scommaaccent" unicode="&#x219;" horiz-adv-x="1029" 
d="M259 760q0 143 101 228t284 85q91 0 166.5 -25.5t123 -67t73.5 -93t26 -105.5q0 -1 -1 -12v-10h-176v10q0 57 -57 106t-156 49q-91 0 -143.5 -41t-52.5 -102q0 -28 12.5 -50.5t26.5 -36.5t48 -30t53 -23t65 -22q14 -5 21 -7q53 -17 91.5 -33t78.5 -41.5t65 -55.5t41 -74
t16 -98q0 -157 -113 -243t-302 -86q-179 0 -297.5 88.5t-118.5 219.5v14h180q0 -8 2 -18q12 -62 78 -105.5t167 -43.5q102 0 158 43t56 114q0 19 -4 35t-14 30t-18.5 24t-28 20.5t-30.5 16.5t-38 15.5t-38.5 13t-42.5 13.5q-32 10 -53.5 17.5t-56 22.5t-58 30t-51 39t-44 50
t-28 62t-11.5 77zM467 -451h-136l80 310h161z" />
    <glyph glyph-name="Tcommaaccent" unicode="&#x21a;" horiz-adv-x="1123" 
d="M516 -451h-136l80 310h161zM662 0h-197l212 1192h-415l30 174h1021l-28 -174h-411z" />
    <glyph glyph-name="tcommaaccent" unicode="&#x21b;" horiz-adv-x="761" 
d="M407 -451h-136l80 310h161zM393 1038l50 276h189l-48 -276h228l-27 -157h-228l-83 -477q-21 -116 -21 -145q0 -51 28.5 -77.5t97.5 -26.5q71 0 122 11l-28 -154q-53 -15 -148 -15q-271 0 -271 207q0 54 14 130l97 547h-158l28 157h158z" />
    <glyph glyph-name="Hcaron" unicode="&#x21e;" horiz-adv-x="1416" 
d="M372 0h-197l241 1366h197l-101 -575h658l102 575h197l-241 -1366h-192l105 619h-659zM1367 1716l-302 -229h-176l-225 229h197l122 -128h7l165 128h212z" />
    <glyph glyph-name="hcaron" unicode="&#x21f;" horiz-adv-x="1197" 
d="M156 0l251 1421h193l-98 -538h13q41 87 120 137t192 50q157 0 241.5 -94t84.5 -234q0 -57 -21 -177l-100 -565h-194l102 576q13 75 13 125q0 92 -48.5 150t-147.5 58q-122 0 -199.5 -85.5t-100.5 -217.5l-107 -606h-194zM478 1581l-184 373h157l108 -255h6l190 255h162
l-305 -373h-134z" />
    <glyph glyph-name="Adotaccent" unicode="&#x226;" horiz-adv-x="1246" 
d="M27 0l717 1366h221l237 -1366h-206l-61 396h-497l-202 -396h-209zM825 1143h-13l-296 -589h398zM790 1609q0 50 32 82t79 32q50 0 82.5 -32t32.5 -82q0 -49 -32.5 -81t-82.5 -32q-47 0 -79 32.5t-32 80.5z" />
    <glyph glyph-name="adotaccent" unicode="&#x227;" horiz-adv-x="1105" 
d="M473 -17q-135 0 -226 80t-91 215q0 25 2 40q12 140 121 219.5t306 79.5h277l12 68q4 20 4 45q0 75 -51.5 129t-160.5 54q-87 0 -141 -34.5t-72 -88.5h-186q23 124 131.5 202.5t281.5 78.5q184 0 283 -91.5t99 -242.5q0 -64 -18 -152l-103 -585h-185l25 141h-12
q-32 -64 -109.5 -111t-186.5 -47zM350 302q0 -69 49 -113.5t134 -44.5q102 0 181 60t98 153l24 123h-253q-114 0 -173.5 -51t-59.5 -127zM633 1297q0 50 32 82t79 32q50 0 82.5 -32t32.5 -82q0 -49 -32.5 -81t-82.5 -32q-47 0 -79 32.5t-32 80.5z" />
    <glyph glyph-name="Ecedilla" unicode="&#x228;" horiz-adv-x="1133" 
d="M510 0h-328l241 1366h823l-30 -173h-626l-74 -408h595l-27 -167h-596l-80 -445h630l-29 -173h-365l-41 -130q83 -2 134 -42.5t51 -113.5q0 -4 -1 -6q-2 -91 -69.5 -141t-173.5 -50q-80 0 -158 26l19 108q62 -19 127 -19q107 0 108 69v2q0 70 -135 70h-51l9 78z" />
    <glyph glyph-name="ecedilla" unicode="&#x229;" horiz-adv-x="1094" 
d="M906 620q0 1 1.5 10t1.5 10q21 116 -36.5 195t-178.5 79q-98 0 -173 -58t-99 -172l-14 -64h498zM524 -483q-80 0 -158 26l19 108q62 -19 127 -19q107 0 107 69l1 2q0 70 -135 70h-51l9 78l45 142q-138 30 -220 131t-82 262q0 63 17 158l25 139q32 184 159.5 286
t311.5 102q113 0 197.5 -40.5t128.5 -106.5t61 -142.5t6 -156.5q0 -11 -25 -144h-686q-10 -38 -10 -89q0 -105 59 -176t183 -71q89 0 149 37t77 92h189q-19 -113 -130.5 -199.5t-278.5 -92.5l-36 -112q83 -2 134 -42.5t51 -113.5q0 -4 -1 -6q-2 -91 -69.5 -141t-173.5 -50z
" />
    <glyph glyph-name="Odieresismacron" unicode="&#x22a;" horiz-adv-x="1384" 
d="M685 1586q0 48 30 77t78 29q47 0 77.5 -29.5t30.5 -76.5q0 -45 -30.5 -73.5t-77.5 -28.5t-77.5 28.5t-30.5 73.5zM1041 1586q0 47 30 76.5t75 29.5q49 0 79.5 -29t30.5 -77q0 -45 -30.5 -73.5t-79.5 -28.5q-45 0 -75 28.5t-30 73.5zM476 850l-35 -186q-15 -80 -15 -153
q0 -165 94 -261.5t260 -96.5q152 0 247 95.5t129 284.5l36 199q8 44 8 131q0 159 -94 255t-256 96q-145 0 -242 -88t-132 -276zM240 678l38 207q43 241 199 375t379 134q246 0 396 -143t150 -392q0 -83 -15 -166l-39 -208q-45 -248 -194 -380.5t-399 -132.5
q-151 0 -269.5 59t-189 177t-70.5 277q0 110 14 193zM1361 1899l-19 -112h-680l19 112h680z" />
    <glyph glyph-name="odieresismacron" unicode="&#x22b;" horiz-adv-x="1132" 
d="M488 1301q0 48 31.5 78t79.5 30q50 0 81 -30t31 -78q0 -47 -31.5 -76.5t-80.5 -29.5q-48 0 -79.5 30t-31.5 76zM855 1301q0 48 31 78t78 30q51 0 83 -30t32 -78q0 -47 -32 -76.5t-83 -29.5q-47 0 -78 30t-31 76zM401 638l-21 -118q-11 -57 -11 -106q0 -120 68.5 -193.5
t187.5 -73.5q110 0 179.5 73.5t93.5 207.5l21 126q5 30 5 93q0 115 -68 188t-184 73q-105 0 -176.5 -68.5t-94.5 -201.5zM189 543l23 129q33 184 158.5 291.5t304.5 107.5q199 0 322 -115.5t123 -314.5q0 -59 -12 -126l-24 -129q-36 -190 -156 -296.5t-320 -106.5
q-187 0 -308.5 111t-121.5 302q0 90 11 147zM1177 1650l-20 -112h-680l20 112h680z" />
    <glyph glyph-name="Otildemacron" unicode="&#x22c;" horiz-adv-x="1384" 
d="M476 850l-35 -186q-15 -80 -15 -153q0 -165 94 -261.5t260 -96.5q152 0 247 95.5t129 284.5l36 199q8 44 8 131q0 159 -94 255t-256 96q-145 0 -242 -88t-132 -276zM240 678l38 207q43 241 199 375t379 134q246 0 396 -143t150 -392q0 -83 -15 -166l-39 -208
q-45 -248 -194 -380.5t-399 -132.5q-151 0 -269.5 59t-189 177t-70.5 277q0 110 14 193zM925 1529q-3 3 -15 14.5t-17.5 16t-16 12t-20.5 10.5t-21 3q-66 0 -73 -105h-127q0 93 49 158.5t143 65.5q47 0 84 -18.5t78 -56.5q5 -4 20 -19.5t21.5 -20.5t19.5 -11t27 -6
q35 0 54 36t22 79h127q0 -88 -53 -157.5t-139 -69.5q-58 0 -94 17.5t-69 51.5zM1361 1899l-19 -112h-680l19 112h680z" />
    <glyph glyph-name="otildemacron" unicode="&#x22d;" horiz-adv-x="1132" 
d="M876 1132q-50 0 -83.5 23.5t-62.5 64.5q-3 4 -15.5 22t-17.5 23.5t-16 16.5t-22 14.5t-25 3.5q-37 0 -54.5 -31.5t-27.5 -83.5h-129q10 115 66.5 183.5t144.5 68.5q32 0 58 -8.5t48 -28.5t32.5 -32t31.5 -40q2 -3 7 -10t7 -9.5t7 -8.5t7 -8.5t6.5 -7t7.5 -6.5l7.5 -5
t8.5 -4t9 -2t10 -1q35 0 56.5 35.5t29.5 83.5h128q-6 -101 -67 -177t-152 -76zM1177 1650l-20 -112h-680l20 112h680zM401 638l-21 -118q-11 -57 -11 -106q0 -120 68.5 -193.5t187.5 -73.5q110 0 179.5 73.5t93.5 207.5l21 126q5 30 5 93q0 115 -68 188t-184 73
q-105 0 -176.5 -68.5t-94.5 -201.5zM189 543l23 129q33 184 158.5 291.5t304.5 107.5q199 0 322 -115.5t123 -314.5q0 -59 -12 -126l-24 -129q-36 -190 -156 -296.5t-320 -106.5q-187 0 -308.5 111t-121.5 302q0 90 11 147z" />
    <glyph glyph-name="Odotaccent" unicode="&#x22e;" horiz-adv-x="1384" 
d="M862 1609q0 50 32 82t79 32q50 0 82.5 -32t32.5 -82q0 -49 -32.5 -81t-82.5 -32q-47 0 -79 32.5t-32 80.5zM476 850l-35 -186q-15 -80 -15 -153q0 -165 94 -261.5t260 -96.5q152 0 247 95.5t129 284.5l36 199q8 44 8 131q0 159 -94 255t-256 96q-145 0 -242 -88
t-132 -276zM240 678l38 207q43 241 199 375t379 134q246 0 396 -143t150 -392q0 -83 -15 -166l-39 -208q-45 -248 -194 -380.5t-399 -132.5q-151 0 -269.5 59t-189 177t-70.5 277q0 110 14 193z" />
    <glyph glyph-name="odotaccent" unicode="&#x22f;" horiz-adv-x="1132" 
d="M672 1297q0 50 32 82t79 32q50 0 82.5 -32t32.5 -82q0 -49 -32.5 -81t-82.5 -32q-47 0 -79 32.5t-32 80.5zM401 638l-21 -118q-11 -57 -11 -106q0 -120 68.5 -193.5t187.5 -73.5q110 0 179.5 73.5t93.5 207.5l21 126q5 30 5 93q0 115 -68 188t-184 73
q-105 0 -176.5 -68.5t-94.5 -201.5zM189 543l23 129q33 184 158.5 291.5t304.5 107.5q199 0 322 -115.5t123 -314.5q0 -59 -12 -126l-24 -129q-36 -190 -156 -296.5t-320 -106.5q-187 0 -308.5 111t-121.5 302q0 90 11 147z" />
    <glyph glyph-name="Odotaccentmacron" unicode="&#x230;" horiz-adv-x="1384" 
d="M862 1609q0 50 32 82t79 32q50 0 82.5 -32t32.5 -82q0 -49 -32.5 -81t-82.5 -32q-47 0 -79 32.5t-32 80.5zM476 850l-35 -186q-15 -80 -15 -153q0 -165 94 -261.5t260 -96.5q152 0 247 95.5t129 284.5l36 199q8 44 8 131q0 159 -94 255t-256 96q-145 0 -242 -88
t-132 -276zM240 678l38 207q43 241 199 375t379 134q246 0 396 -143t150 -392q0 -83 -15 -166l-39 -208q-45 -248 -194 -380.5t-399 -132.5q-151 0 -269.5 59t-189 177t-70.5 277q0 110 14 193zM1361 1899l-19 -112h-680l19 112h680z" />
    <glyph glyph-name="odotaccentmacron" unicode="&#x231;" horiz-adv-x="1132" 
d="M672 1297q0 50 32 82t79 32q50 0 82.5 -32t32.5 -82q0 -49 -32.5 -81t-82.5 -32q-47 0 -79 32.5t-32 80.5zM1177 1650l-20 -112h-680l20 112h680zM401 638l-21 -118q-11 -57 -11 -106q0 -120 68.5 -193.5t187.5 -73.5q110 0 179.5 73.5t93.5 207.5l21 126q5 30 5 93
q0 115 -68 188t-184 73q-105 0 -176.5 -68.5t-94.5 -201.5zM189 543l23 129q33 184 158.5 291.5t304.5 107.5q199 0 322 -115.5t123 -314.5q0 -59 -12 -126l-24 -129q-36 -190 -156 -296.5t-320 -106.5q-187 0 -308.5 111t-121.5 302q0 90 11 147z" />
    <glyph glyph-name="Ymacron" unicode="&#x232;" horiz-adv-x="1131" 
d="M755 565l-100 -565h-197l99 562l-328 804h210l237 -619h11l444 619h226zM1181 1614l-19 -112h-680l19 112h680z" />
    <glyph glyph-name="ymacron" unicode="&#x233;" horiz-adv-x="1041" 
d="M1154 1054l-533 -1045q-1 -2 -20.5 -38.5t-19.5 -37.5q-42 -81 -77 -130t-83.5 -86.5t-111 -53t-151.5 -15.5q-56 0 -100 13l34 153q36 -9 80 -9q85 0 131 40t82 120l24 52l-194 1037h203l125 -844h12l392 844h207zM1080 1321l-20 -112h-680l20 112h680z" />
    <glyph glyph-name="circumflex" unicode="&#x2c6;" horiz-adv-x="1000" 
d="M399 1192l308 372h134l182 -372h-159l-105 254h-6l-192 -254h-162z" />
    <glyph glyph-name="caron" unicode="&#x2c7;" horiz-adv-x="1000" 
d="M662 1218l-184 373h157l108 -255h6l190 255h162l-305 -373h-134z" />
    <glyph glyph-name="breve" unicode="&#x2d8;" horiz-adv-x="1000" 
d="M463 1513h127q-10 -66 29 -113t121 -47q81 0 130.5 46t60.5 114h127q-9 -110 -93.5 -194.5t-225.5 -84.5q-98 0 -167.5 43.5t-96 106.5t-12.5 129z" />
    <glyph glyph-name="dotaccent" unicode="&#x2d9;" horiz-adv-x="1000" 
d="M597 1442q0 66 43.5 109t105.5 43q64 0 106.5 -41.5t42.5 -105.5q0 -65 -44 -107t-109 -42q-61 0 -103 41t-42 103z" />
    <glyph glyph-name="ring" unicode="&#x2da;" horiz-adv-x="1000" 
d="M737 1318q42 0 72 29.5t30 71.5t-30 71.5t-72 29.5t-72 -29.5t-30 -71.5q0 -41 30.5 -71t71.5 -30zM736 1223q-82 0 -138.5 57.5t-56.5 138.5t57.5 137.5t139.5 56.5q80 0 136.5 -56.5t56.5 -137.5q0 -82 -57 -139t-138 -57z" />
    <glyph glyph-name="ogonek" unicode="&#x2db;" horiz-adv-x="1000" 
d="M600 73q-34 -24 -64.5 -54t-58.5 -78t-28 -94q0 -48 32.5 -83.5t112.5 -35.5q31 0 32 1v-115q-27 -9 -77 -9q-106 0 -176 57.5t-70 158.5q0 122 109 213q4 4 37.5 30t37.5 28z" />
    <glyph glyph-name="tilde" unicode="&#x2dc;" horiz-adv-x="1000" 
d="M850 1166q-50 0 -83.5 23.5t-62.5 64.5q-3 4 -15.5 22t-17.5 23.5t-16 16.5t-22 14.5t-25 3.5q-37 0 -54.5 -31.5t-27.5 -83.5h-129q10 115 66.5 183.5t144.5 68.5q32 0 58 -8.5t48 -28.5t32.5 -32t31.5 -40q2 -3 7 -10t7 -9.5t7 -8.5t7 -8.5t6.5 -7t7.5 -6.5l7.5 -5
t8.5 -4t9 -2t10 -1q35 0 56.5 35.5t29.5 83.5h128q-6 -101 -67 -177t-152 -76z" />
    <glyph glyph-name="hungarumlaut" unicode="&#x2dd;" horiz-adv-x="1000" 
d="M528 1213h-132l257 306h195zM842 1213h-135l260 306h192z" />
    <glyph glyph-name="gravecmb" unicode="&#x300;" 
d="M321 1210h-152l-241 349h204z" />
    <glyph glyph-name="acutecmb" unicode="&#x301;" 
d="M227 1210h-146l286 350h201z" />
    <glyph glyph-name="circumflexcmb" unicode="&#x302;" 
d="M-101 1205l308 372h134l182 -372h-159l-105 254h-6l-192 -254h-162z" />
    <glyph glyph-name="tildecmb" unicode="&#x303;" 
d="M319 1132q-50 0 -83.5 23.5t-62.5 64.5q-3 4 -15.5 22t-17.5 23.5t-16 16.5t-22 14.5t-25 3.5q-37 0 -54.5 -31.5t-27.5 -83.5h-129q10 115 66.5 183.5t144.5 68.5q32 0 58 -8.5t48 -28.5t32.5 -32t31.5 -40q2 -3 7 -10t7 -9.5t7 -8.5t7 -8.5t6.5 -7t7.5 -6.5l7.5 -5
t8.5 -4t9 -2t10 -1q35 0 56.5 35.5t29.5 83.5h128q-6 -101 -67 -177t-152 -76z" />
    <glyph glyph-name="macroncmb" unicode="&#x304;" 
d="M561 1321l-20 -112h-680l20 112h680z" />
    <glyph glyph-name="brevecmb" unicode="&#x306;" 
d="M-46 1474h127q-10 -66 29 -113t121 -47q81 0 130.5 46t60.5 114h127q-9 -110 -93.5 -194.5t-225.5 -84.5q-98 0 -167.5 43.5t-96 106.5t-12.5 129z" />
    <glyph glyph-name="dotaccentcmb" unicode="&#x307;" 
d="M115 1297q0 50 32 82t79 32q50 0 82.5 -32t32.5 -82q0 -49 -32.5 -81t-82.5 -32q-47 0 -79 32.5t-32 80.5z" />
    <glyph glyph-name="dieresiscmb" unicode="&#x308;" 
d="M-69 1301q0 48 31.5 78t79.5 30q50 0 81 -30t31 -78q0 -47 -31.5 -76.5t-80.5 -29.5q-48 0 -79.5 30t-31.5 76zM298 1301q0 48 31 78t78 30q51 0 83 -30t32 -78q0 -47 -32 -76.5t-83 -29.5q-47 0 -78 30t-31 76z" />
    <glyph glyph-name="hookabovecmb" unicode="&#x309;" 
d="M96 1446l16 105q40 17 113 17q89 0 142.5 -44.5t53.5 -112.5q0 -154 -191 -233l-55 90q67 33 92 60.5t25 61.5q0 30 -27.5 51t-67.5 21q-62 0 -101 -16z" />
    <glyph glyph-name="ringcmb" unicode="&#x30a;" 
d="M249 1313q42 0 72 29.5t30 71.5t-30 71.5t-72 29.5t-72 -29.5t-30 -71.5q0 -41 30.5 -71t71.5 -30zM248 1218q-82 0 -138.5 57.5t-56.5 138.5t57.5 137.5t139.5 56.5q80 0 136.5 -56.5t56.5 -137.5q0 -82 -57 -139t-138 -57z" />
    <glyph glyph-name="hungarumlautcmb" unicode="&#x30b;" 
d="M117 1213h-132l257 306h195zM431 1213h-135l260 306h192z" />
    <glyph glyph-name="caroncmb" unicode="&#x30c;" 
d="M151 1214l-184 373h157l108 -255h6l190 255h162l-305 -373h-134z" />
    <glyph glyph-name="dblgravecmb" unicode="&#x30f;" 
d="M136 1214h-137l-242 328h184zM453 1214h-134l-245 328h187z" />
    <glyph glyph-name="invertedbrevecmb" unicode="&#x311;" 
d="M-68 1234q4 51 25 99.5t58 90t97 67t134 25.5q99 0 168.5 -43.5t95.5 -107.5t11 -131h-128q11 68 -27.5 116t-121.5 48q-82 0 -128 -47t-57 -117h-127z" />
    <glyph glyph-name="horncmb" unicode="&#x31b;" 
d="M170 941l28 165q30 -35 88 -35q70 1 104 39.5t47 109.5l27 156h166l-29 -165q-11 -60 -34 -112.5t-59 -95.5t-89.5 -68t-118.5 -25q-94 0 -130 31z" />
    <glyph glyph-name="dotbelowcmb" unicode="&#x323;" 
d="M-144 -230q0 47 30 77.5t75 30.5q48 0 78 -30t30 -78q0 -47 -30 -77t-78 -30q-45 0 -75 30.5t-30 76.5z" />
    <glyph glyph-name="dieresisbelowcmb" unicode="&#x324;" 
d="M-340 -255q0 48 31.5 78t79.5 30q50 0 81 -30t31 -78q0 -47 -31.5 -76.5t-80.5 -29.5q-48 0 -79.5 30t-31.5 76zM27 -255q0 48 31 78t78 30q51 0 83 -30t32 -78q0 -47 -32 -76.5t-83 -29.5q-47 0 -78 30t-31 76z" />
    <glyph glyph-name="ringbelowcmb" unicode="&#x325;" 
d="M-45 -385q42 0 72 29.5t30 71.5t-30 71.5t-72 29.5t-72 -29.5t-30 -71.5q0 -41 30.5 -71t71.5 -30zM-46 -480q-82 0 -138.5 57.5t-56.5 138.5t57.5 137.5t139.5 56.5q80 0 136.5 -56.5t56.5 -137.5q0 -82 -57 -139t-138 -57z" />
    <glyph glyph-name="commabelowcmb" unicode="&#x326;" 
d="M-47 -451h-136l80 310h161z" />
    <glyph glyph-name="cedillacmb" unicode="&#x327;" 
d="M-117 -149l52 164h133l-45 -145q83 -2 134 -42.5t51 -113.5q0 -4 -1 -6q-2 -91 -70 -141t-173 -50q-80 0 -158 26l19 108q62 -19 127 -19q106 0 107 69v2q0 70 -135 70h-51z" />
    <glyph glyph-name="ogonekcmb" unicode="&#x328;" 
d="M56 36q-34 -24 -64.5 -54t-58.5 -78t-28 -94q0 -48 32.5 -83.5t112.5 -35.5q31 0 32 1v-115q-27 -9 -77 -9q-106 0 -176 57.5t-70 158.5q0 122 109 213q4 4 37.5 30t37.5 28z" />
    <glyph glyph-name="circumflexbelowcmb" unicode="&#x32d;" 
d="M-400 -398l284 268h180l187 -268h-169l-113 167h-12l-180 -167h-177z" />
    <glyph glyph-name="brevebelowcmb" unicode="&#x32e;" 
d="M-332 -113h134q-10 -67 30 -115.5t120 -48.5q81 0 134 46.5t63 117.5h133q-4 -49 -26 -96.5t-60.5 -90t-101.5 -68.5t-141 -26q-79 0 -139 24.5t-93 65t-46.5 90t-6.5 101.5z" />
    <glyph glyph-name="tildebelowcmb" unicode="&#x330;" 
d="M56 -434q-83 0 -146 88q-3 4 -15.5 22t-17.5 23.5t-16 16.5t-22 14.5t-25 3.5q-37 0 -54.5 -31.5t-27.5 -83.5h-128q10 116 66 184t144 68q32 0 58.5 -8.5t48 -28t33 -32.5t30.5 -39q1 -2 7.5 -11t8.5 -11t7.5 -9.5t8 -9t7.5 -7t8.5 -7t8.5 -4t10 -3.5t11 -1q65 0 86 119
h128q-6 -101 -67 -177t-152 -76z" />
    <glyph glyph-name="macronbelowcmb" unicode="&#x331;" 
d="M301 -183l-20 -112h-680l20 112h680z" />
    <glyph glyph-name="Delta" unicode="&#x394;" horiz-adv-x="1243" 
d="M1204 0h-1175l718 1365h219zM322 175h655l-149 969h-11z" />
    <glyph glyph-name="Omega" unicode="&#x3a9;" horiz-adv-x="1384" 
d="M775 0l30 199q51 15 99 43t95 72t82 112t50 152l30 166q12 64 12 130q0 169 -86.5 255.5t-231.5 86.5q-146 0 -249 -88.5t-135 -263.5l-30 -167q-11 -59 -11 -138q0 -130 46 -222.5t123 -137.5l-35 -199h-442l29 172h246l4 14q-68 49 -112.5 156t-44.5 244q0 91 10 145
l31 172q44 241 197.5 365.5t379.5 124.5q234 0 370.5 -131t136.5 -372q0 -81 -15 -165l-31 -173q-23 -126 -111.5 -226.5t-181.5 -135.5l-3 -18h274l-32 -172h-494z" />
    <glyph glyph-name="mu" unicode="&#x3bc;" horiz-adv-x="1235" 
d="M333 68l-57 -403h-181l250 1389h192l-103 -577q-14 -76 -14 -127q1 -94 52.5 -146t147.5 -52q124 0 199 82t99 216l105 604h189l-145 -815q-18 -100 80 -100q29 0 51 6l-25 -150q-56 -13 -114 -13q-93 0 -138 43t-44 123q0 4 2 20l2 15h-6q-37 -86 -117.5 -142.5
t-193.5 -56.5q-147 0 -228 84h-3z" />
    <glyph glyph-name="pi" unicode="&#x3c0;" horiz-adv-x="1275" 
d="M1170 0q-58 -12 -111 -12q-95 0 -147.5 41t-54.5 112q-1 18 4 48l125 705h-367l-158 -894h-193l158 894h-226l28 160h1190l-28 -160h-211l-116 -655q-4 -17 -2 -37q8 -54 79 -54q32 0 56 6z" />
    <glyph glyph-name="Aringbelow" unicode="&#x1e00;" horiz-adv-x="1246" 
d="M27 0l717 1366h221l237 -1366h-206l-61 396h-497l-202 -396h-209zM825 1143h-13l-296 -589h398zM577 -385q42 0 72 29.5t30 71.5t-30 71.5t-72 29.5t-72 -29.5t-30 -71.5q0 -41 30.5 -71t71.5 -30zM576 -480q-82 0 -138.5 57.5t-56.5 138.5t57.5 137.5t139.5 56.5
q80 0 136.5 -56.5t56.5 -137.5q0 -82 -57 -139t-138 -57z" />
    <glyph glyph-name="aringbelow" unicode="&#x1e01;" horiz-adv-x="1105" 
d="M473 -17q-135 0 -226 80t-91 215q0 25 2 40q12 140 121 219.5t306 79.5h277l12 68q4 20 4 45q0 75 -51.5 129t-160.5 54q-87 0 -141 -34.5t-72 -88.5h-186q23 124 131.5 202.5t281.5 78.5q184 0 283 -91.5t99 -242.5q0 -64 -18 -152l-103 -585h-185l25 141h-12
q-32 -64 -109.5 -111t-186.5 -47zM350 302q0 -69 49 -113.5t134 -44.5q102 0 181 60t98 153l24 123h-253q-114 0 -173.5 -51t-59.5 -127zM457 -385q42 0 72 29.5t30 71.5t-30 71.5t-72 29.5t-72 -29.5t-30 -71.5q0 -41 30.5 -71t71.5 -30zM456 -480q-82 0 -138.5 57.5
t-56.5 138.5t57.5 137.5t139.5 56.5q80 0 136.5 -56.5t56.5 -137.5q0 -82 -57 -139t-138 -57z" />
    <glyph glyph-name="Bdotaccent" unicode="&#x1e02;" horiz-adv-x="1276" 
d="M175 0l241 1366h472q107 0 185.5 -26t121.5 -71t63 -97t20 -112q0 -128 -82.5 -220.5t-192.5 -117.5l-2 -11q111 -19 177.5 -96.5t66.5 -202.5q0 -192 -147.5 -302t-408.5 -110h-514zM584 1206l-75 -422h264q131 0 215 65.5t84 179.5q0 89 -60 133t-188 44h-240zM481 626
l-82 -465h298q153 0 250.5 68.5t97.5 188.5q0 97 -71.5 152.5t-220.5 55.5h-272zM770 1609q0 50 32 82t79 32q50 0 82.5 -32t32.5 -82q0 -49 -32.5 -81t-82.5 -32q-47 0 -79 32.5t-32 80.5z" />
    <glyph glyph-name="bdotaccent" unicode="&#x1e03;" horiz-adv-x="1198" 
d="M440 1664q0 50 32 82t79 32q50 0 82.5 -32t32.5 -82q0 -49 -32.5 -81t-82.5 -32q-47 0 -79 32.5t-32 80.5zM712 -17q-121 0 -206.5 68.5t-105.5 156.5h-12l-37 -208h-193l253 1421h194l-98 -539h14q34 76 107.5 131.5t194.5 55.5q164 0 264 -105.5t100 -286.5
q0 -72 -9 -127l-33 -179q-31 -174 -142.5 -281t-290.5 -107zM440 431q0 -130 75.5 -203.5t173.5 -73.5q110 0 183 76t94 192l25 141q4 25 4 89q0 119 -64.5 187.5t-178.5 68.5q-113 0 -188 -78.5t-97 -209.5l-22 -137q-5 -30 -5 -52z" />
    <glyph glyph-name="Bdotbelow" unicode="&#x1e04;" horiz-adv-x="1276" 
d="M494 -230q0 47 30 77.5t75 30.5q48 0 78 -30t30 -78q0 -47 -30 -77t-78 -30q-45 0 -75 30.5t-30 76.5zM175 0l241 1366h472q107 0 185.5 -26t121.5 -71t63 -97t20 -112q0 -128 -82.5 -220.5t-192.5 -117.5l-2 -11q111 -19 177.5 -96.5t66.5 -202.5q0 -192 -147.5 -302
t-408.5 -110h-514zM584 1206l-75 -422h264q131 0 215 65.5t84 179.5q0 89 -60 133t-188 44h-240zM481 626l-82 -465h298q153 0 250.5 68.5t97.5 188.5q0 97 -71.5 152.5t-220.5 55.5h-272z" />
    <glyph glyph-name="bdotbelow" unicode="&#x1e05;" horiz-adv-x="1198" 
d="M522 -230q0 47 30 77.5t75 30.5q48 0 78 -30t30 -78q0 -47 -30 -77t-78 -30q-45 0 -75 30.5t-30 76.5zM712 -17q-121 0 -206.5 68.5t-105.5 156.5h-12l-37 -208h-193l253 1421h194l-98 -539h14q34 76 107.5 131.5t194.5 55.5q164 0 264 -105.5t100 -286.5q0 -72 -9 -127
l-33 -179q-31 -174 -142.5 -281t-290.5 -107zM440 431q0 -130 75.5 -203.5t173.5 -73.5q110 0 183 76t94 192l25 141q4 25 4 89q0 119 -64.5 187.5t-178.5 68.5q-113 0 -188 -78.5t-97 -209.5l-22 -137q-5 -30 -5 -52z" />
    <glyph glyph-name="Blinebelow" unicode="&#x1e06;" horiz-adv-x="1276" 
d="M175 0l241 1366h472q107 0 185.5 -26t121.5 -71t63 -97t20 -112q0 -128 -82.5 -220.5t-192.5 -117.5l-2 -11q111 -19 177.5 -96.5t66.5 -202.5q0 -192 -147.5 -302t-408.5 -110h-514zM584 1206l-75 -422h264q131 0 215 65.5t84 179.5q0 89 -60 133t-188 44h-240zM481 626
l-82 -465h298q153 0 250.5 68.5t97.5 188.5q0 97 -71.5 152.5t-220.5 55.5h-272zM939 -183l-20 -112h-680l20 112h680z" />
    <glyph glyph-name="blinebelow" unicode="&#x1e07;" horiz-adv-x="1198" 
d="M967 -183l-20 -112h-680l20 112h680zM712 -17q-121 0 -206.5 68.5t-105.5 156.5h-12l-37 -208h-193l253 1421h194l-98 -539h14q34 76 107.5 131.5t194.5 55.5q164 0 264 -105.5t100 -286.5q0 -72 -9 -127l-33 -179q-31 -174 -142.5 -281t-290.5 -107zM440 431
q0 -130 75.5 -203.5t173.5 -73.5q110 0 183 76t94 192l25 141q4 25 4 89q0 119 -64.5 187.5t-178.5 68.5q-113 0 -188 -78.5t-97 -209.5l-22 -137q-5 -30 -5 -52z" />
    <glyph glyph-name="Ccedillaacute" unicode="&#x1e08;" horiz-adv-x="1295" 
d="M751 1499l294 199h237l-329 -199h-202zM670 -483q-80 0 -158 26l19 108q62 -19 127 -19q107 0 107 69l1 2q0 70 -135 70h-52l10 78l41 131q-182 31 -294 163t-112 360q0 90 9 144l46 236q47 245 199 377t370 132q113 0 208.5 -35t157.5 -93.5t96.5 -133t34.5 -154.5
q0 -35 -4 -47h-190q2 17 0 34q-4 44 -24 86.5t-56 79.5t-95 59.5t-132 22.5q-149 0 -241 -93t-128 -271l-38 -187q-14 -70 -14 -155q0 -175 93.5 -263.5t240.5 -88.5q132 0 212 64.5t100 161.5h193q-2 -25 -7 -43q-13 -66 -48.5 -127t-93.5 -114.5t-149.5 -87t-202.5 -36.5
l-32 -103q83 -2 134 -42.5t51 -113.5q0 -4 -1 -6q-2 -91 -69.5 -141t-173.5 -50z" />
    <glyph glyph-name="ccedillaacute" unicode="&#x1e09;" horiz-adv-x="1061" 
d="M758 1210h-146l286 350h201zM504 -483q-79 0 -157 26l18 108q64 -19 128 -19q106 0 107 69v2q0 70 -135 70h-51l9 78l47 147q-136 36 -213.5 139t-77.5 255q0 68 14 149l24 140q33 191 156 290.5t305 99.5q184 0 295 -97t111 -242q0 -15 -1 -17h-180v11q0 69 -61.5 126
t-164.5 57q-105 0 -179 -70t-97 -197l-20 -115q-10 -52 -10 -104q0 -129 61.5 -201t181.5 -72q88 0 145 36.5t71 93.5h192q-22 -135 -134.5 -215.5t-273.5 -82.5h-15l-35 -112q83 -2 133.5 -42.5t50.5 -113.5v-6q-2 -91 -70 -141t-174 -50z" />
    <glyph glyph-name="Ddotaccent" unicode="&#x1e0a;" horiz-adv-x="1355" 
d="M808 1609q0 50 32 82t79 32q50 0 82.5 -32t32.5 -82q0 -49 -32.5 -81t-82.5 -32q-47 0 -79 32.5t-32 80.5zM420 1366h401q263 0 404.5 -141t141.5 -379q0 -82 -11 -149q-1 -7 -14 -77t-14 -74q-51 -267 -239.5 -406.5t-509.5 -139.5h-400zM588 1193l-182 -1020h167
q229 0 375 99t184 294q15 75 25 135q9 54 9 129q0 181 -103 272t-301 91h-174z" />
    <glyph glyph-name="ddotaccent" unicode="&#x1e0b;" horiz-adv-x="1196" 
d="M1113 1664q0 50 32 82t79 32q50 0 82.5 -32t32.5 -82q0 -49 -32.5 -81t-82.5 -32q-47 0 -79 32.5t-32 80.5zM663 1069q126 0 209.5 -69.5t96.5 -148.5h14l98 570h194l-249 -1421h-191l31 176h-14q-10 -32 -33.5 -63.5t-59 -61t-89.5 -48t-117 -18.5q-166 0 -269.5 109.5
t-103.5 289.5q0 76 11 127l34 177q33 172 146 276.5t292 104.5zM940 633q0 67 -22 120.5t-58.5 86t-80.5 49.5t-91 17q-112 0 -182.5 -73.5t-94.5 -194.5l-28 -139q-6 -34 -6 -86q0 -120 66 -190t180 -70q113 0 187.5 78t98.5 210l26 138q5 25 5 54z" />
    <glyph glyph-name="Ddotbelow" unicode="&#x1e0c;" horiz-adv-x="1355" 
d="M507 -230q0 47 30 77.5t75 30.5q48 0 78 -30t30 -78q0 -47 -30 -77t-78 -30q-45 0 -75 30.5t-30 76.5zM420 1366h401q263 0 404.5 -141t141.5 -379q0 -82 -11 -149q-1 -7 -14 -77t-14 -74q-51 -267 -239.5 -406.5t-509.5 -139.5h-400zM588 1193l-182 -1020h167
q229 0 375 99t184 294q15 75 25 135q9 54 9 129q0 181 -103 272t-301 91h-174z" />
    <glyph glyph-name="ddotbelow" unicode="&#x1e0d;" horiz-adv-x="1196" 
d="M456 -230q0 47 30 77.5t75 30.5q48 0 78 -30t30 -78q0 -47 -30 -77t-78 -30q-45 0 -75 30.5t-30 76.5zM663 1069q126 0 209.5 -69.5t96.5 -148.5h14l98 570h194l-249 -1421h-191l31 176h-14q-10 -32 -33.5 -63.5t-59 -61t-89.5 -48t-117 -18.5q-166 0 -269.5 109.5
t-103.5 289.5q0 76 11 127l34 177q33 172 146 276.5t292 104.5zM940 633q0 67 -22 120.5t-58.5 86t-80.5 49.5t-91 17q-112 0 -182.5 -73.5t-94.5 -194.5l-28 -139q-6 -34 -6 -86q0 -120 66 -190t180 -70q113 0 187.5 78t98.5 210l26 138q5 25 5 54z" />
    <glyph glyph-name="Dlinebelow" unicode="&#x1e0e;" horiz-adv-x="1355" 
d="M952 -183l-20 -112h-680l20 112h680zM420 1366h401q263 0 404.5 -141t141.5 -379q0 -82 -11 -149q-1 -7 -14 -77t-14 -74q-51 -267 -239.5 -406.5t-509.5 -139.5h-400zM588 1193l-182 -1020h167q229 0 375 99t184 294q15 75 25 135q9 54 9 129q0 181 -103 272t-301 91
h-174z" />
    <glyph glyph-name="dlinebelow" unicode="&#x1e0f;" horiz-adv-x="1196" 
d="M901 -183l-20 -112h-680l20 112h680zM663 1069q126 0 209.5 -69.5t96.5 -148.5h14l98 570h194l-249 -1421h-191l31 176h-14q-10 -32 -33.5 -63.5t-59 -61t-89.5 -48t-117 -18.5q-166 0 -269.5 109.5t-103.5 289.5q0 76 11 127l34 177q33 172 146 276.5t292 104.5z
M940 633q0 67 -22 120.5t-58.5 86t-80.5 49.5t-91 17q-112 0 -182.5 -73.5t-94.5 -194.5l-28 -139q-6 -34 -6 -86q0 -120 66 -190t180 -70q113 0 187.5 78t98.5 210l26 138q5 25 5 54z" />
    <glyph glyph-name="Dcommaaccent" unicode="&#x1e10;" horiz-adv-x="1355" 
d="M604 -451h-136l80 310h161zM420 1366h401q263 0 404.5 -141t141.5 -379q0 -82 -11 -149q-1 -7 -14 -77t-14 -74q-51 -267 -239.5 -406.5t-509.5 -139.5h-400zM588 1193l-182 -1020h167q229 0 375 99t184 294q15 75 25 135q9 54 9 129q0 181 -103 272t-301 91h-174z" />
    <glyph glyph-name="dcommaaccent" unicode="&#x1e11;" horiz-adv-x="1196" 
d="M553 -451h-136l80 310h161zM663 1069q126 0 209.5 -69.5t96.5 -148.5h14l98 570h194l-249 -1421h-191l31 176h-14q-10 -32 -33.5 -63.5t-59 -61t-89.5 -48t-117 -18.5q-166 0 -269.5 109.5t-103.5 289.5q0 76 11 127l34 177q33 172 146 276.5t292 104.5zM940 633
q0 67 -22 120.5t-58.5 86t-80.5 49.5t-91 17q-112 0 -182.5 -73.5t-94.5 -194.5l-28 -139q-6 -34 -6 -86q0 -120 66 -190t180 -70q113 0 187.5 78t98.5 210l26 138q5 25 5 54z" />
    <glyph glyph-name="Dcircumflexbelow" unicode="&#x1e12;" horiz-adv-x="1355" 
d="M420 1366h401q263 0 404.5 -141t141.5 -379q0 -82 -11 -149q-1 -7 -14 -77t-14 -74q-51 -267 -239.5 -406.5t-509.5 -139.5h-400zM588 1193l-182 -1020h167q229 0 375 99t184 294q15 75 25 135q9 54 9 129q0 181 -103 272t-301 91h-174zM251 -398l284 268h180l187 -268
h-169l-113 167h-12l-180 -167h-177z" />
    <glyph glyph-name="dcircumflexbelow" unicode="&#x1e13;" horiz-adv-x="1196" 
d="M663 1069q126 0 209.5 -69.5t96.5 -148.5h14l98 570h194l-249 -1421h-191l31 176h-14q-10 -32 -33.5 -63.5t-59 -61t-89.5 -48t-117 -18.5q-166 0 -269.5 109.5t-103.5 289.5q0 76 11 127l34 177q33 172 146 276.5t292 104.5zM940 633q0 67 -22 120.5t-58.5 86
t-80.5 49.5t-91 17q-112 0 -182.5 -73.5t-94.5 -194.5l-28 -139q-6 -34 -6 -86q0 -120 66 -190t180 -70q113 0 187.5 78t98.5 210l26 138q5 25 5 54zM200 -398l284 268h180l187 -268h-169l-113 167h-12l-180 -167h-177z" />
    <glyph glyph-name="Emacrongrave" unicode="&#x1e14;" horiz-adv-x="1133" 
d="M1015 1728h-197l-309 197h229zM1033 173l-29 -173h-827l241 1366h823l-30 -173h-626l-74 -408h595l-27 -167h-596l-80 -445h630zM1197 1614l-19 -112h-680l19 112h680z" />
    <glyph glyph-name="emacrongrave" unicode="&#x1e15;" horiz-adv-x="1094" 
d="M910 1475h-152l-241 349h204zM593 -18q-184 0 -299 105.5t-115 298.5q0 63 17 158l25 139q32 184 159.5 286t311.5 102q113 0 197.5 -40.5t128.5 -106.5t61 -142.5t6 -156.5q0 -11 -25 -144h-686q-10 -38 -10 -89q0 -105 59 -176t183 -71q89 0 149 37t77 92h189
q-20 -116 -137 -204t-291 -88zM899 620q0 1 1.5 10t1.5 10q21 116 -36.5 195t-178.5 79q-98 0 -173 -58t-99 -172l-14 -64h498zM1102 1321l-20 -112h-680l20 112h680z" />
    <glyph glyph-name="Emacronacute" unicode="&#x1e16;" horiz-adv-x="1133" 
d="M734 1728l294 199h237l-329 -199h-202zM1033 173l-29 -173h-827l241 1366h823l-30 -173h-626l-74 -408h595l-27 -167h-596l-80 -445h630zM1197 1614l-19 -112h-680l19 112h680z" />
    <glyph glyph-name="emacronacute" unicode="&#x1e17;" horiz-adv-x="1094" 
d="M816 1475h-146l286 350h201zM593 -18q-184 0 -299 105.5t-115 298.5q0 63 17 158l25 139q32 184 159.5 286t311.5 102q113 0 197.5 -40.5t128.5 -106.5t61 -142.5t6 -156.5q0 -11 -25 -144h-686q-10 -38 -10 -89q0 -105 59 -176t183 -71q89 0 149 37t77 92h189
q-20 -116 -137 -204t-291 -88zM899 620q0 1 1.5 10t1.5 10q21 116 -36.5 195t-178.5 79q-98 0 -173 -58t-99 -172l-14 -64h498zM1102 1321l-20 -112h-680l20 112h680z" />
    <glyph glyph-name="Ecircumflexbelow" unicode="&#x1e18;" horiz-adv-x="1133" 
d="M1033 173l-29 -173h-827l241 1366h823l-30 -173h-626l-74 -408h595l-27 -167h-596l-80 -445h630zM193 -398l284 268h180l187 -268h-169l-113 167h-12l-180 -167h-177z" />
    <glyph glyph-name="ecircumflexbelow" unicode="&#x1e19;" horiz-adv-x="1094" 
d="M593 -18q-184 0 -299 105.5t-115 298.5q0 63 17 158l25 139q32 184 159.5 286t311.5 102q113 0 197.5 -40.5t128.5 -106.5t61 -142.5t6 -156.5q0 -11 -25 -144h-686q-10 -38 -10 -89q0 -105 59 -176t183 -71q89 0 149 37t77 92h189q-20 -116 -137 -204t-291 -88zM899 620
q0 1 1.5 10t1.5 10q21 116 -36.5 195t-178.5 79q-98 0 -173 -58t-99 -172l-14 -64h498zM181 -398l284 268h180l187 -268h-169l-113 167h-12l-180 -167h-177z" />
    <glyph glyph-name="Etildebelow" unicode="&#x1e1a;" horiz-adv-x="1133" 
d="M649 -434q-83 0 -146 88q-3 4 -15.5 22t-17.5 23.5t-16 16.5t-22 14.5t-25 3.5q-37 0 -54.5 -31.5t-27.5 -83.5h-128q10 116 66 184t144 68q32 0 58.5 -8.5t48 -28t33 -32.5t30.5 -39q1 -2 7.5 -11t8.5 -11t7.5 -9.5t8 -9t7.5 -7t8.5 -7t8.5 -4t10 -3.5t11 -1
q65 0 86 119h128q-6 -101 -67 -177t-152 -76zM1033 173l-29 -173h-827l241 1366h823l-30 -173h-626l-74 -408h595l-27 -167h-596l-80 -445h630z" />
    <glyph glyph-name="etildebelow" unicode="&#x1e1b;" horiz-adv-x="1094" 
d="M637 -434q-83 0 -146 88q-3 4 -15.5 22t-17.5 23.5t-16 16.5t-22 14.5t-25 3.5q-37 0 -54.5 -31.5t-27.5 -83.5h-128q10 116 66 184t144 68q32 0 58.5 -8.5t48 -28t33 -32.5t30.5 -39q1 -2 7.5 -11t8.5 -11t7.5 -9.5t8 -9t7.5 -7t8.5 -7t8.5 -4t10 -3.5t11 -1
q65 0 86 119h128q-6 -101 -67 -177t-152 -76zM593 -18q-184 0 -299 105.5t-115 298.5q0 63 17 158l25 139q32 184 159.5 286t311.5 102q113 0 197.5 -40.5t128.5 -106.5t61 -142.5t6 -156.5q0 -11 -25 -144h-686q-10 -38 -10 -89q0 -105 59 -176t183 -71q89 0 149 37t77 92
h189q-20 -116 -137 -204t-291 -88zM899 620q0 1 1.5 10t1.5 10q21 116 -36.5 195t-178.5 79q-98 0 -173 -58t-99 -172l-14 -64h498z" />
    <glyph glyph-name="Ecedillabreve" unicode="&#x1e1c;" horiz-adv-x="1133" 
d="M505 0h-328l241 1366h823l-30 -173h-626l-74 -408h595l-27 -167h-596l-80 -445h630l-29 -173h-365l-41 -130q83 -2 134 -42.5t51 -113.5q0 -4 -1 -6q-2 -91 -69.5 -141t-173.5 -50q-80 0 -158 26l19 108q62 -19 127 -19q107 0 108 69v2q0 70 -135 70h-51l9 78zM559 1751
h131q-3 -65 43 -104t132 -39q85 0 137.5 40.5t63.5 102.5h134q-13 -111 -101 -188.5t-250 -77.5q-150 0 -229 80.5t-61 185.5z" />
    <glyph glyph-name="ecedillabreve" unicode="&#x1e1d;" horiz-adv-x="1094" 
d="M495 1474h127q-10 -66 29 -113t121 -47q81 0 130.5 46t60.5 114h127q-9 -110 -93.5 -194.5t-225.5 -84.5q-98 0 -167.5 43.5t-96 106.5t-12.5 129zM899 620q0 1 1.5 10t1.5 10q21 116 -36.5 195t-178.5 79q-98 0 -173 -58t-99 -172l-14 -64h498zM517 -483q-80 0 -158 26
l19 108q62 -19 127 -19q107 0 107 69l1 2q0 70 -135 70h-51l9 78l45 142q-138 30 -220 131t-82 262q0 63 17 158l25 139q32 184 159.5 286t311.5 102q113 0 197.5 -40.5t128.5 -106.5t61 -142.5t6 -156.5q0 -11 -25 -144h-686q-10 -38 -10 -89q0 -105 59 -176t183 -71
q89 0 149 37t77 92h189q-19 -113 -130.5 -199.5t-278.5 -92.5l-36 -112q83 -2 134 -42.5t51 -113.5q0 -4 -1 -6q-2 -91 -69.5 -141t-173.5 -50z" />
    <glyph glyph-name="Fdotaccent" unicode="&#x1e1e;" horiz-adv-x="1112" 
d="M744 1609q0 50 32 82t79 32q50 0 82.5 -32t32.5 -82q0 -49 -32.5 -81t-82.5 -32q-47 0 -79 32.5t-32 80.5zM378 0h-197l242 1366h821l-29 -173h-625l-80 -442h575l-27 -171h-576z" />
    <glyph glyph-name="fdotaccent" unicode="&#x1e1f;" horiz-adv-x="741" 
d="M640 1677q0 50 32 82t79 32q50 0 82.5 -32t32.5 -82q0 -49 -32.5 -81t-82.5 -32q-47 0 -79 32.5t-32 80.5zM210 0l156 881h-170l27 157h171l11 69q28 166 119.5 245.5t259.5 79.5q70 0 125 -11l-26 -149q-40 7 -93 7q-89 0 -133 -40.5t-60 -125.5l-13 -75h240l-28 -157
h-238l-155 -881h-193z" />
    <glyph glyph-name="Gmacron" unicode="&#x1e20;" horiz-adv-x="1355" 
d="M282 887q47 244 202 375.5t380 131.5q122 0 221 -37t159.5 -97.5t92.5 -133t32 -147.5q0 -27 -2 -33h-191q0 18 -1 27q-3 39 -21.5 79t-54 77.5t-98 61t-141.5 23.5q-154 0 -251 -94.5t-132 -269.5l-39 -190q-14 -81 -14 -154q0 -177 95.5 -267t244.5 -90q121 0 215.5 60
t113.5 167l30 169h-334l29 161h526l-60 -338q-33 -185 -180.5 -290t-353.5 -105q-106 0 -198 30.5t-166.5 92t-117.5 165.5t-43 240q0 91 11 152zM1252 1614l-19 -112h-680l19 112h680z" />
    <glyph glyph-name="gmacron" unicode="&#x1e21;" horiz-adv-x="1191" 
d="M1135 1321l-20 -112h-680l20 112h680zM654 1069q124 0 206 -61.5t107 -155.5h14l36 201h191l-186 -1052q-70 -398 -489 -398q-187 0 -300 91t-113 214v15h186v-6l1 -5q2 -58 69 -103.5t167 -45.5q132 0 202.5 69t95.5 204l27 152h-14q-31 -74 -107 -121.5t-188 -47.5
q-99 0 -183.5 47t-138 140.5t-53.5 215.5q0 79 14 143l21 110q39 196 158.5 295t276.5 99zM933 639q0 123 -70 195.5t-182 72.5q-108 0 -180.5 -75t-96.5 -206l-15 -79q-12 -65 -12 -106q0 -129 67 -198.5t186 -69.5q104 0 180 76.5t98 204.5l16 90q9 53 9 95z" />
    <glyph glyph-name="Hdotaccent" unicode="&#x1e22;" horiz-adv-x="1416" 
d="M372 0h-197l241 1366h197l-101 -575h658l102 575h197l-241 -1366h-192l105 619h-659zM877 1609q0 50 32 82t79 32q50 0 82.5 -32t32.5 -82q0 -49 -32.5 -81t-82.5 -32q-47 0 -79 32.5t-32 80.5z" />
    <glyph glyph-name="hdotaccent" unicode="&#x1e23;" horiz-adv-x="1197" 
d="M156 0l251 1421h193l-98 -538h13q41 87 120 137t192 50q157 0 241.5 -94t84.5 -234q0 -57 -21 -177l-100 -565h-194l102 576q13 75 13 125q0 92 -48.5 150t-147.5 58q-122 0 -199.5 -85.5t-100.5 -217.5l-107 -606h-194zM442 1664q0 50 32 82t79 32q50 0 82.5 -32
t32.5 -82q0 -49 -32.5 -81t-82.5 -32q-47 0 -79 32.5t-32 80.5z" />
    <glyph glyph-name="Hdotbelow" unicode="&#x1e24;" horiz-adv-x="1416" 
d="M372 0h-197l241 1366h197l-101 -575h658l102 575h197l-241 -1366h-192l105 619h-659zM563 -230q0 47 30 77.5t75 30.5q48 0 78 -30t30 -78q0 -47 -30 -77t-78 -30q-45 0 -75 30.5t-30 76.5z" />
    <glyph glyph-name="hdotbelow" unicode="&#x1e25;" horiz-adv-x="1197" 
d="M156 0l251 1421h193l-98 -538h13q41 87 120 137t192 50q157 0 241.5 -94t84.5 -234q0 -57 -21 -177l-100 -565h-194l102 576q13 75 13 125q0 92 -48.5 150t-147.5 58q-122 0 -199.5 -85.5t-100.5 -217.5l-107 -606h-194zM456 -230q0 47 30 77.5t75 30.5q48 0 78 -30
t30 -78q0 -47 -30 -77t-78 -30q-45 0 -75 30.5t-30 76.5z" />
    <glyph glyph-name="Hdieresis" unicode="&#x1e26;" horiz-adv-x="1416" 
d="M372 0h-197l241 1366h197l-101 -575h658l102 575h197l-241 -1366h-192l105 619h-659zM701 1586q0 48 30 77t78 29q47 0 77.5 -29.5t30.5 -76.5q0 -45 -30.5 -73.5t-77.5 -28.5t-77.5 28.5t-30.5 73.5zM1057 1586q0 47 30 76.5t75 29.5q49 0 79.5 -29t30.5 -77
q0 -45 -30.5 -73.5t-79.5 -28.5q-45 0 -75 28.5t-30 73.5z" />
    <glyph glyph-name="hdieresis" unicode="&#x1e27;" horiz-adv-x="1197" 
d="M156 0l251 1421h193l-98 -538h13q41 87 120 137t192 50q157 0 241.5 -94t84.5 -234q0 -57 -21 -177l-100 -565h-194l102 576q13 75 13 125q0 92 -48.5 150t-147.5 58q-122 0 -199.5 -85.5t-100.5 -217.5l-107 -606h-194zM258 1668q0 48 31.5 78t79.5 30q50 0 81 -30
t31 -78q0 -47 -31.5 -76.5t-80.5 -29.5q-48 0 -79.5 30t-31.5 76zM625 1668q0 48 31 78t78 30q51 0 83 -30t32 -78q0 -47 -32 -76.5t-83 -29.5q-47 0 -78 30t-31 76z" />
    <glyph glyph-name="Hcedilla" unicode="&#x1e28;" horiz-adv-x="1416" 
d="M245 0h-64l241 1366h197l-101 -575h658l102 575h197l-241 -1366h-192l105 619h-659l-110 -619l-40 -130q83 -2 134 -42.5t51 -113.5q0 -1 -0.5 -3t-0.5 -3q-2 -91 -70 -141t-174 -50q-79 0 -157 26l18 108q64 -19 128 -19q106 0 107 69v2q0 70 -135 70h-51l10 78z" />
    <glyph glyph-name="hcedilla" unicode="&#x1e29;" horiz-adv-x="1197" 
d="M224 0h-61l251 1421h193l-98 -538h13q41 87 120 137t192 50q157 0 241.5 -94t84.5 -234q0 -57 -21 -177l-100 -565h-194l102 576q13 75 13 125q0 92 -48.5 150t-147.5 58q-122 0 -199.5 -85.5t-100.5 -217.5l-107 -606l-40 -130q83 -2 134 -42.5t51 -113.5q0 -4 -1 -6
q-2 -91 -69.5 -141t-173.5 -50q-80 0 -158 26l19 108q62 -19 127 -19q107 0 107 69l1 2q0 70 -135 70h-52l10 78z" />
    <glyph glyph-name="Hbrevebelow" unicode="&#x1e2a;" horiz-adv-x="1416" 
d="M375 -113q-7 -52 6.5 -101.5t46.5 -90t93 -65t139 -24.5q78 0 141 26t101.5 68.5t60.5 90t26 96.5h-133q-10 -71 -63 -117.5t-134 -46.5q-80 0 -120 48.5t-30 115.5h-134zM372 0h-197l241 1366h197l-101 -575h658l102 575h197l-241 -1366h-192l105 619h-659z" />
    <glyph glyph-name="hbrevebelow" unicode="&#x1e2b;" horiz-adv-x="1197" 
d="M268 -113q-7 -52 6.5 -101.5t46.5 -90t93 -65t139 -24.5q78 0 141 26t101.5 68.5t60.5 90t26 96.5h-133q-10 -71 -63 -117.5t-134 -46.5q-80 0 -120 48.5t-30 115.5h-134zM156 0l251 1421h193l-98 -538h13q41 87 120 137t192 50q157 0 241.5 -94t84.5 -234
q0 -57 -21 -177l-100 -565h-194l102 576q13 75 13 125q0 92 -48.5 150t-147.5 58q-122 0 -199.5 -85.5t-100.5 -217.5l-107 -606h-194z" />
    <glyph glyph-name="Itildebelow" unicode="&#x1e2c;" horiz-adv-x="553" 
d="M366 0h-197l241 1366h197zM332 -434q-83 0 -146 88q-3 4 -15.5 22t-17.5 23.5t-16 16.5t-22 14.5t-25 3.5q-37 0 -54.5 -31.5t-27.5 -83.5h-128q10 116 66 184t144 68q32 0 58.5 -8.5t48 -28t33 -32.5t30.5 -39q1 -2 7.5 -11t8.5 -11t7.5 -9.5t8 -9t7.5 -7t8.5 -7t8.5 -4
t10 -3.5t11 -1q65 0 86 119h128q-6 -101 -67 -177t-152 -76z" />
    <glyph glyph-name="itildebelow" unicode="&#x1e2d;" horiz-adv-x="551" 
d="M173 0l186 1054h194l-186 -1054h-194zM362 1370q0 57 38.5 94t95.5 37q60 0 97 -36t37 -92t-38.5 -92.5t-98.5 -36.5q-57 0 -94 35.5t-37 90.5zM331 -434q-83 0 -146 88q-3 4 -15.5 22t-17.5 23.5t-16 16.5t-22 14.5t-25 3.5q-37 0 -54.5 -31.5t-27.5 -83.5h-128
q10 116 66 184t144 68q32 0 58.5 -8.5t48 -28t33 -32.5t30.5 -39q1 -2 7.5 -11t8.5 -11t7.5 -9.5t8 -9t7.5 -7t8.5 -7t8.5 -4t10 -3.5t11 -1q65 0 86 119h128q-6 -101 -67 -177t-152 -76z" />
    <glyph glyph-name="Idieresisacute" unicode="&#x1e2e;" horiz-adv-x="553" 
d="M366 0h-197l241 1366h197zM433 1728l294 199h237l-329 -199h-202zM272 1586q0 48 30 77t78 29q47 0 77.5 -29.5t30.5 -76.5q0 -45 -30.5 -73.5t-77.5 -28.5t-77.5 28.5t-30.5 73.5zM628 1586q0 47 30 76.5t75 29.5q49 0 79.5 -29t30.5 -77q0 -45 -30.5 -73.5t-79.5 -28.5
q-45 0 -75 28.5t-30 73.5z" />
    <glyph glyph-name="idieresisacute" unicode="&#x1e2f;" horiz-adv-x="581" 
d="M556 1475h-146l286 350h201zM175 0l187 1054h194l-187 -1054h-194zM212 1301q0 48 31.5 78t79.5 30q50 0 81 -30t31 -78q0 -47 -31.5 -76.5t-80.5 -29.5q-48 0 -79.5 30t-31.5 76zM579 1301q0 48 31 78t78 30q51 0 83 -30t32 -78q0 -47 -32 -76.5t-83 -29.5q-47 0 -78 30
t-31 76z" />
    <glyph glyph-name="Kacute" unicode="&#x1e30;" horiz-adv-x="1271" 
d="M734 1499l294 199h237l-329 -199h-202zM608 1366l-121 -654h14l698 654h248l-641 -610l409 -756h-227l-337 642l-204 -181l-81 -461h-197l242 1366h197z" />
    <glyph glyph-name="kacute" unicode="&#x1e31;" horiz-adv-x="1077" 
d="M415 422l-75 -422h-192l252 1421h190l-137 -779h13l482 412h254l-504 -422l326 -632h-211l-265 530zM546 1577h-146l286 350h201z" />
    <glyph glyph-name="Kdotbelow" unicode="&#x1e32;" horiz-adv-x="1271" 
d="M487 -230q0 47 30 77.5t75 30.5q48 0 78 -30t30 -78q0 -47 -30 -77t-78 -30q-45 0 -75 30.5t-30 76.5zM608 1366l-121 -654h14l698 654h248l-641 -610l409 -756h-227l-337 642l-204 -181l-81 -461h-197l242 1366h197z" />
    <glyph glyph-name="kdotbelow" unicode="&#x1e33;" horiz-adv-x="1077" 
d="M397 -230q0 47 30 77.5t75 30.5q48 0 78 -30t30 -78q0 -47 -30 -77t-78 -30q-45 0 -75 30.5t-30 76.5zM415 422l-75 -422h-192l252 1421h190l-137 -779h13l482 412h254l-504 -422l326 -632h-211l-265 530z" />
    <glyph glyph-name="Klinebelow" unicode="&#x1e34;" horiz-adv-x="1271" 
d="M608 1366l-121 -654h14l698 654h248l-641 -610l409 -756h-227l-337 642l-204 -181l-81 -461h-197l242 1366h197zM932 -183l-20 -112h-680l20 112h680z" />
    <glyph glyph-name="klinebelow" unicode="&#x1e35;" horiz-adv-x="1077" 
d="M415 422l-75 -422h-192l252 1421h190l-137 -779h13l482 412h254l-504 -422l326 -632h-211l-265 530zM843 -183l-20 -112h-680l20 112h680z" />
    <glyph glyph-name="Ldotbelow" unicode="&#x1e36;" horiz-adv-x="1048" 
d="M403 -230q0 47 30 77.5t75 30.5q48 0 78 -30t30 -78q0 -47 -30 -77t-78 -30q-45 0 -75 30.5t-30 76.5zM1023 175l-31 -175h-811l241 1366h197l-212 -1191h616z" />
    <glyph glyph-name="ldotbelow" unicode="&#x1e37;" horiz-adv-x="551" 
d="M132 -230q0 47 30 77.5t75 30.5q48 0 78 -30t30 -78q0 -47 -30 -77t-78 -30q-45 0 -75 30.5t-30 76.5zM173 0l251 1421h194l-252 -1421h-193z" />
    <glyph glyph-name="Ldotbelowmacron" unicode="&#x1e38;" horiz-adv-x="1048" 
d="M403 -230q0 47 30 77.5t75 30.5q48 0 78 -30t30 -78q0 -47 -30 -77t-78 -30q-45 0 -75 30.5t-30 76.5zM1023 175l-31 -175h-811l241 1366h197l-212 -1191h616zM899 1614l-19 -112h-680l19 112h680z" />
    <glyph glyph-name="ldotbelowmacron" unicode="&#x1e39;" horiz-adv-x="551" 
d="M132 -230q0 47 30 77.5t75 30.5q48 0 78 -30t30 -78q0 -47 -30 -77t-78 -30q-45 0 -75 30.5t-30 76.5zM173 0l251 1421h194l-252 -1421h-193zM900 1688l-20 -112h-680l20 112h680z" />
    <glyph glyph-name="Llinebelow" unicode="&#x1e3a;" horiz-adv-x="1048" 
d="M848 -183l-20 -112h-680l20 112h680zM1023 175l-31 -175h-811l241 1366h197l-212 -1191h616z" />
    <glyph glyph-name="llinebelow" unicode="&#x1e3b;" horiz-adv-x="551" 
d="M577 -183l-20 -112h-680l20 112h680zM173 0l251 1421h194l-252 -1421h-193z" />
    <glyph glyph-name="Lcircumflexbelow" unicode="&#x1e3c;" horiz-adv-x="1048" 
d="M1023 175l-31 -175h-811l241 1366h197l-212 -1191h616zM147 -398l284 268h180l187 -268h-169l-113 167h-12l-180 -167h-177z" />
    <glyph glyph-name="lcircumflexbelow" unicode="&#x1e3d;" horiz-adv-x="551" 
d="M173 0l251 1421h194l-252 -1421h-193zM-124 -398l284 268h180l187 -268h-169l-113 167h-12l-180 -167h-177z" />
    <glyph glyph-name="Macute" unicode="&#x1e3e;" horiz-adv-x="1633" 
d="M924 1499l294 199h237l-329 -199h-202zM363 0h-186l241 1366h192l265 -941h9l592 941h212l-241 -1366h-185l175 990h-11l-526 -826h-121l-232 826h-12z" />
    <glyph glyph-name="macute" unicode="&#x1e3f;" horiz-adv-x="1769" 
d="M1121 1210h-146l286 350h201zM152 0l186 1054h188l-31 -175h13q34 82 108 136.5t186 54.5q113 0 187.5 -53.5t102.5 -141.5h12q16 35 40 66t61 62t92 49t121 18q152 0 229.5 -90t77.5 -228q0 -56 -21 -180l-100 -572h-194l103 584q11 77 11 118q0 95 -41.5 151t-130.5 56
q-102 0 -168.5 -79.5t-90.5 -215.5l-109 -614h-192l104 584q10 56 10 120q0 92 -41 148.5t-135 56.5q-114 0 -183 -81t-92 -214l-109 -614h-194z" />
    <glyph glyph-name="Mdotaccent" unicode="&#x1e40;" horiz-adv-x="1633" 
d="M981 1609q0 50 32 82t79 32q50 0 82.5 -32t32.5 -82q0 -49 -32.5 -81t-82.5 -32q-47 0 -79 32.5t-32 80.5zM363 0h-186l241 1366h192l265 -941h9l592 941h212l-241 -1366h-185l175 990h-11l-526 -826h-121l-232 826h-12z" />
    <glyph glyph-name="mdotaccent" unicode="&#x1e41;" horiz-adv-x="1769" 
d="M1009 1297q0 50 32 82t79 32q50 0 82.5 -32t32.5 -82q0 -49 -32.5 -81t-82.5 -32q-47 0 -79 32.5t-32 80.5zM152 0l186 1054h188l-31 -175h13q34 82 108 136.5t186 54.5q113 0 187.5 -53.5t102.5 -141.5h12q16 35 40 66t61 62t92 49t121 18q152 0 229.5 -90t77.5 -228
q0 -56 -21 -180l-100 -572h-194l103 584q11 77 11 118q0 95 -41.5 151t-130.5 56q-102 0 -168.5 -79.5t-90.5 -215.5l-109 -614h-192l104 584q10 56 10 120q0 92 -41 148.5t-135 56.5q-114 0 -183 -81t-92 -214l-109 -614h-194z" />
    <glyph glyph-name="Mdotbelow" unicode="&#x1e42;" horiz-adv-x="1633" 
d="M668 -230q0 47 30 77.5t75 30.5q48 0 78 -30t30 -78q0 -47 -30 -77t-78 -30q-45 0 -75 30.5t-30 76.5zM363 0h-186l241 1366h192l265 -941h9l592 941h212l-241 -1366h-185l175 990h-11l-526 -826h-121l-232 826h-12z" />
    <glyph glyph-name="mdotbelow" unicode="&#x1e43;" horiz-adv-x="1769" 
d="M752 -230q0 47 30 77.5t75 30.5q48 0 78 -30t30 -78q0 -47 -30 -77t-78 -30q-45 0 -75 30.5t-30 76.5zM152 0l186 1054h188l-31 -175h13q34 82 108 136.5t186 54.5q113 0 187.5 -53.5t102.5 -141.5h12q16 35 40 66t61 62t92 49t121 18q152 0 229.5 -90t77.5 -228
q0 -56 -21 -180l-100 -572h-194l103 584q11 77 11 118q0 95 -41.5 151t-130.5 56q-102 0 -168.5 -79.5t-90.5 -215.5l-109 -614h-192l104 584q10 56 10 120q0 92 -41 148.5t-135 56.5q-114 0 -183 -81t-92 -214l-109 -614h-194z" />
    <glyph glyph-name="Ndotaccent" unicode="&#x1e44;" horiz-adv-x="1426" 
d="M896 1609q0 50 32 82t79 32q50 0 82.5 -32t32.5 -82q0 -49 -32.5 -81t-82.5 -32q-47 0 -79 32.5t-32 80.5zM1239 0h-180l-488 1031h-11l-182 -1031h-193l241 1366h183l483 -1032h11l184 1032h193z" />
    <glyph glyph-name="ndotaccent" unicode="&#x1e45;" horiz-adv-x="1192" 
d="M714 1297q0 50 32 82t79 32q50 0 82.5 -32t32.5 -82q0 -49 -32.5 -81t-82.5 -32q-47 0 -79 32.5t-32 80.5zM156 0l186 1054h190l-32 -171h14q91 187 311 187q159 0 240.5 -93.5t81.5 -233.5q0 -60 -21 -178l-99 -565h-194l102 576q13 78 13 125q0 92 -47.5 150t-145.5 58
q-123 0 -199 -85t-99 -218l-107 -606h-194z" />
    <glyph glyph-name="Ndotbelow" unicode="&#x1e46;" horiz-adv-x="1426" 
d="M582 -230q0 47 30 77.5t75 30.5q48 0 78 -30t30 -78q0 -47 -30 -77t-78 -30q-45 0 -75 30.5t-30 76.5zM1239 0h-180l-488 1031h-11l-182 -1031h-193l241 1366h183l483 -1032h11l184 1032h193z" />
    <glyph glyph-name="ndotbelow" unicode="&#x1e47;" horiz-adv-x="1192" 
d="M452 -230q0 47 30 77.5t75 30.5q48 0 78 -30t30 -78q0 -47 -30 -77t-78 -30q-45 0 -75 30.5t-30 76.5zM156 0l186 1054h190l-32 -171h14q91 187 311 187q159 0 240.5 -93.5t81.5 -233.5q0 -60 -21 -178l-99 -565h-194l102 576q13 78 13 125q0 92 -47.5 150t-145.5 58
q-123 0 -199 -85t-99 -218l-107 -606h-194z" />
    <glyph glyph-name="Nlinebelow" unicode="&#x1e48;" horiz-adv-x="1426" 
d="M1027 -183l-20 -112h-680l20 112h680zM1239 0h-180l-488 1031h-11l-182 -1031h-193l241 1366h183l483 -1032h11l184 1032h193z" />
    <glyph glyph-name="nlinebelow" unicode="&#x1e49;" horiz-adv-x="1192" 
d="M897 -183l-20 -112h-680l20 112h680zM156 0l186 1054h190l-32 -171h14q91 187 311 187q159 0 240.5 -93.5t81.5 -233.5q0 -60 -21 -178l-99 -565h-194l102 576q13 78 13 125q0 92 -47.5 150t-145.5 58q-123 0 -199 -85t-99 -218l-107 -606h-194z" />
    <glyph glyph-name="Ncircumflexbelow" unicode="&#x1e4a;" horiz-adv-x="1426" 
d="M1239 0h-180l-488 1031h-11l-182 -1031h-193l241 1366h183l483 -1032h11l184 1032h193zM326 -398l284 268h180l187 -268h-169l-113 167h-12l-180 -167h-177z" />
    <glyph glyph-name="ncircumflexbelow" unicode="&#x1e4b;" horiz-adv-x="1192" 
d="M156 0l186 1054h190l-32 -171h14q91 187 311 187q159 0 240.5 -93.5t81.5 -233.5q0 -60 -21 -178l-99 -565h-194l102 576q13 78 13 125q0 92 -47.5 150t-145.5 58q-123 0 -199 -85t-99 -218l-107 -606h-194zM196 -398l284 268h180l187 -268h-169l-113 167h-12l-180 -167
h-177z" />
    <glyph glyph-name="Otildeacute" unicode="&#x1e4c;" horiz-adv-x="1384" 
d="M846 1728l294 199h237l-329 -199h-202zM476 850l-35 -186q-15 -80 -15 -153q0 -165 94 -261.5t260 -96.5q152 0 247 95.5t129 284.5l36 199q8 44 8 131q0 159 -94 255t-256 96q-145 0 -242 -88t-132 -276zM240 678l38 207q43 241 199 375t379 134q246 0 396 -143
t150 -392q0 -83 -15 -166l-39 -208q-45 -248 -194 -380.5t-399 -132.5q-151 0 -269.5 59t-189 177t-70.5 277q0 110 14 193zM925 1529q-3 3 -15 14.5t-17.5 16t-16 12t-20.5 10.5t-21 3q-66 0 -73 -105h-127q0 93 49 158.5t143 65.5q47 0 84 -18.5t78 -56.5q5 -4 20 -19.5
t21.5 -20.5t19.5 -11t27 -6q35 0 54 36t22 79h127q0 -88 -53 -157.5t-139 -69.5q-58 0 -94 17.5t-69 51.5z" />
    <glyph glyph-name="otildeacute" unicode="&#x1e4d;" horiz-adv-x="1132" 
d="M832 1475h-146l286 350h201zM876 1132q-50 0 -83.5 23.5t-62.5 64.5q-3 4 -15.5 22t-17.5 23.5t-16 16.5t-22 14.5t-25 3.5q-37 0 -54.5 -31.5t-27.5 -83.5h-129q10 115 66.5 183.5t144.5 68.5q32 0 58 -8.5t48 -28.5t32.5 -32t31.5 -40q2 -3 7 -10t7 -9.5t7 -8.5t7 -8.5
t6.5 -7t7.5 -6.5l7.5 -5t8.5 -4t9 -2t10 -1q35 0 56.5 35.5t29.5 83.5h128q-6 -101 -67 -177t-152 -76zM401 638l-21 -118q-11 -57 -11 -106q0 -120 68.5 -193.5t187.5 -73.5q110 0 179.5 73.5t93.5 207.5l21 126q5 30 5 93q0 115 -68 188t-184 73q-105 0 -176.5 -68.5
t-94.5 -201.5zM189 543l23 129q33 184 158.5 291.5t304.5 107.5q199 0 322 -115.5t123 -314.5q0 -59 -12 -126l-24 -129q-36 -190 -156 -296.5t-320 -106.5q-187 0 -308.5 111t-121.5 302q0 90 11 147z" />
    <glyph glyph-name="Otildedieresis" unicode="&#x1e4e;" horiz-adv-x="1384" 
d="M731 1849q0 48 30 77t78 29q47 0 77.5 -29.5t30.5 -76.5q0 -45 -30.5 -73.5t-77.5 -28.5t-77.5 28.5t-30.5 73.5zM1087 1849q0 47 30 76.5t75 29.5q49 0 79.5 -29t30.5 -77q0 -45 -30.5 -73.5t-79.5 -28.5q-45 0 -75 28.5t-30 73.5zM476 850l-35 -186q-15 -80 -15 -153
q0 -165 94 -261.5t260 -96.5q152 0 247 95.5t129 284.5l36 199q8 44 8 131q0 159 -94 255t-256 96q-145 0 -242 -88t-132 -276zM240 678l38 207q43 241 199 375t379 134q246 0 396 -143t150 -392q0 -83 -15 -166l-39 -208q-45 -248 -194 -380.5t-399 -132.5
q-151 0 -269.5 59t-189 177t-70.5 277q0 110 14 193zM925 1529q-3 3 -15 14.5t-17.5 16t-16 12t-20.5 10.5t-21 3q-66 0 -73 -105h-127q0 93 49 158.5t143 65.5q47 0 84 -18.5t78 -56.5q5 -4 20 -19.5t21.5 -20.5t19.5 -11t27 -6q35 0 54 36t22 79h127q0 -88 -53 -157.5
t-139 -69.5q-58 0 -94 17.5t-69 51.5z" />
    <glyph glyph-name="otildedieresis" unicode="&#x1e4f;" horiz-adv-x="1132" 
d="M876 1132q-50 0 -83.5 23.5t-62.5 64.5q-3 4 -15.5 22t-17.5 23.5t-16 16.5t-22 14.5t-25 3.5q-37 0 -54.5 -31.5t-27.5 -83.5h-129q10 115 66.5 183.5t144.5 68.5q32 0 58 -8.5t48 -28.5t32.5 -32t31.5 -40q2 -3 7 -10t7 -9.5t7 -8.5t7 -8.5t6.5 -7t7.5 -6.5l7.5 -5
t8.5 -4t9 -2t10 -1q35 0 56.5 35.5t29.5 83.5h128q-6 -101 -67 -177t-152 -76zM539 1584q0 48 31.5 78t79.5 30q50 0 81 -30t31 -78q0 -47 -31.5 -76.5t-80.5 -29.5q-48 0 -79.5 30t-31.5 76zM906 1584q0 48 31 78t78 30q51 0 83 -30t32 -78q0 -47 -32 -76.5t-83 -29.5
q-47 0 -78 30t-31 76zM401 638l-21 -118q-11 -57 -11 -106q0 -120 68.5 -193.5t187.5 -73.5q110 0 179.5 73.5t93.5 207.5l21 126q5 30 5 93q0 115 -68 188t-184 73q-105 0 -176.5 -68.5t-94.5 -201.5zM189 543l23 129q33 184 158.5 291.5t304.5 107.5q199 0 322 -115.5
t123 -314.5q0 -59 -12 -126l-24 -129q-36 -190 -156 -296.5t-320 -106.5q-187 0 -308.5 111t-121.5 302q0 90 11 147z" />
    <glyph glyph-name="Omacrongrave" unicode="&#x1e50;" horiz-adv-x="1384" 
d="M1127 1728h-197l-309 197h229zM476 850l-35 -186q-15 -80 -15 -153q0 -165 94 -261.5t260 -96.5q152 0 247 95.5t129 284.5l36 199q8 44 8 131q0 159 -94 255t-256 96q-145 0 -242 -88t-132 -276zM240 678l38 207q43 241 199 375t379 134q246 0 396 -143t150 -392
q0 -83 -15 -166l-39 -208q-45 -248 -194 -380.5t-399 -132.5q-151 0 -269.5 59t-189 177t-70.5 277q0 110 14 193zM1309 1614l-19 -112h-680l19 112h680z" />
    <glyph glyph-name="omacrongrave" unicode="&#x1e51;" horiz-adv-x="1132" 
d="M926 1475h-152l-241 349h204zM1118 1321l-20 -112h-680l20 112h680zM401 638l-21 -118q-11 -57 -11 -106q0 -120 68.5 -193.5t187.5 -73.5q110 0 179.5 73.5t93.5 207.5l21 126q5 30 5 93q0 115 -68 188t-184 73q-105 0 -176.5 -68.5t-94.5 -201.5zM189 543l23 129
q33 184 158.5 291.5t304.5 107.5q199 0 322 -115.5t123 -314.5q0 -59 -12 -126l-24 -129q-36 -190 -156 -296.5t-320 -106.5q-187 0 -308.5 111t-121.5 302q0 90 11 147z" />
    <glyph glyph-name="Omacronacute" unicode="&#x1e52;" horiz-adv-x="1384" 
d="M846 1728l294 199h237l-329 -199h-202zM476 850l-35 -186q-15 -80 -15 -153q0 -165 94 -261.5t260 -96.5q152 0 247 95.5t129 284.5l36 199q8 44 8 131q0 159 -94 255t-256 96q-145 0 -242 -88t-132 -276zM240 678l38 207q43 241 199 375t379 134q246 0 396 -143
t150 -392q0 -83 -15 -166l-39 -208q-45 -248 -194 -380.5t-399 -132.5q-151 0 -269.5 59t-189 177t-70.5 277q0 110 14 193zM1309 1614l-19 -112h-680l19 112h680z" />
    <glyph glyph-name="omacronacute" unicode="&#x1e53;" horiz-adv-x="1132" 
d="M832 1475h-146l286 350h201zM1118 1321l-20 -112h-680l20 112h680zM401 638l-21 -118q-11 -57 -11 -106q0 -120 68.5 -193.5t187.5 -73.5q110 0 179.5 73.5t93.5 207.5l21 126q5 30 5 93q0 115 -68 188t-184 73q-105 0 -176.5 -68.5t-94.5 -201.5zM189 543l23 129
q33 184 158.5 291.5t304.5 107.5q199 0 322 -115.5t123 -314.5q0 -59 -12 -126l-24 -129q-36 -190 -156 -296.5t-320 -106.5q-187 0 -308.5 111t-121.5 302q0 90 11 147z" />
    <glyph glyph-name="Pacute" unicode="&#x1e54;" horiz-adv-x="1189" 
d="M695 1499l294 199h237l-329 -199h-202zM370 0h-197l241 1366h454q193 0 301 -102.5t108 -264.5q0 -29 -6 -85q-27 -201 -165.5 -306.5t-390.5 -105.5h-256zM829 1201h-247l-94 -530h240q87 0 153 20t105 56t60 78t27 94q6 30 6 66q0 97 -61.5 156.5t-188.5 59.5z" />
    <glyph glyph-name="pacute" unicode="&#x1e55;" horiz-adv-x="1196" 
d="M705 -17q-122 0 -205.5 71t-98.5 154h-14l-99 -571h-194l249 1416h192l-31 -171h14q13 33 34.5 62.5t56 59t88.5 47.5t119 18q166 0 267.5 -105.5t101.5 -286.5q0 -84 -9 -127l-33 -179q-27 -173 -142 -280.5t-296 -107.5zM433 431q0 -130 75.5 -203.5t172.5 -73.5
q112 0 186.5 76t95.5 192l26 141q5 31 5 89q0 119 -67.5 187.5t-181.5 68.5t-188.5 -78.5t-96.5 -209.5l-23 -137q-4 -32 -4 -52zM810 1210h-146l286 350h201z" />
    <glyph glyph-name="Pdotaccent" unicode="&#x1e56;" horiz-adv-x="1189" 
d="M370 0h-197l241 1366h454q193 0 301 -102.5t108 -264.5q0 -29 -6 -85q-27 -201 -165.5 -306.5t-390.5 -105.5h-256zM829 1201h-247l-94 -530h240q87 0 153 20t105 56t60 78t27 94q6 30 6 66q0 97 -61.5 156.5t-188.5 59.5zM752 1609q0 50 32 82t79 32q50 0 82.5 -32
t32.5 -82q0 -49 -32.5 -81t-82.5 -32q-47 0 -79 32.5t-32 80.5z" />
    <glyph glyph-name="pdotaccent" unicode="&#x1e57;" horiz-adv-x="1196" 
d="M705 -17q-122 0 -205.5 71t-98.5 154h-14l-99 -571h-194l249 1416h192l-31 -171h14q13 33 34.5 62.5t56 59t88.5 47.5t119 18q166 0 267.5 -105.5t101.5 -286.5q0 -84 -9 -127l-33 -179q-27 -173 -142 -280.5t-296 -107.5zM433 431q0 -130 75.5 -203.5t172.5 -73.5
q112 0 186.5 76t95.5 192l26 141q5 31 5 89q0 119 -67.5 187.5t-181.5 68.5t-188.5 -78.5t-96.5 -209.5l-23 -137q-4 -32 -4 -52zM698 1297q0 50 32 82t79 32q50 0 82.5 -32t32.5 -82q0 -49 -32.5 -81t-82.5 -32q-47 0 -79 32.5t-32 80.5z" />
    <glyph glyph-name="Rdotaccent" unicode="&#x1e58;" horiz-adv-x="1261" 
d="M368 0h-197l242 1366h469q195 0 299.5 -97t104.5 -258q0 -42 -6 -81q-18 -140 -104 -233.5t-212 -128.5l187 -568h-211l-172 538q-24 -1 -65 -1h-240zM835 1199h-254l-89 -498h247q86 0 149.5 19t101.5 53.5t58 75t27 90.5q5 30 5 63q0 92 -59.5 144.5t-185.5 52.5z
M751 1609q0 50 32 82t79 32q50 0 82.5 -32t32.5 -82q0 -49 -32.5 -81t-82.5 -32q-47 0 -79 32.5t-32 80.5z" />
    <glyph glyph-name="rdotaccent" unicode="&#x1e59;" horiz-adv-x="783" 
d="M152 0l186 1054h183l-31 -176h13q30 80 108 136t188 56q44 0 89 -10l-38 -182q-34 14 -94 14q-130 0 -206 -84.5t-101 -221.5l-103 -586h-194zM513 1297q0 50 32 82t79 32q50 0 82.5 -32t32.5 -82q0 -49 -32.5 -81t-82.5 -32q-47 0 -79 32.5t-32 80.5z" />
    <glyph glyph-name="Rdotbelow" unicode="&#x1e5a;" horiz-adv-x="1261" 
d="M439 -230q0 47 30 77.5t75 30.5q48 0 78 -30t30 -78q0 -47 -30 -77t-78 -30q-45 0 -75 30.5t-30 76.5zM368 0h-197l242 1366h469q195 0 299.5 -97t104.5 -258q0 -42 -6 -81q-18 -140 -104 -233.5t-212 -128.5l187 -568h-211l-172 538q-24 -1 -65 -1h-240zM835 1199h-254
l-89 -498h247q86 0 149.5 19t101.5 53.5t58 75t27 90.5q5 30 5 63q0 92 -59.5 144.5t-185.5 52.5z" />
    <glyph glyph-name="rdotbelow" unicode="&#x1e5b;" horiz-adv-x="783" 
d="M120 -230q0 47 30 77.5t75 30.5q48 0 78 -30t30 -78q0 -47 -30 -77t-78 -30q-45 0 -75 30.5t-30 76.5zM152 0l186 1054h183l-31 -176h13q30 80 108 136t188 56q44 0 89 -10l-38 -182q-34 14 -94 14q-130 0 -206 -84.5t-101 -221.5l-103 -586h-194z" />
    <glyph glyph-name="Rdotbelowmacron" unicode="&#x1e5c;" horiz-adv-x="1261" 
d="M439 -230q0 47 30 77.5t75 30.5q48 0 78 -30t30 -78q0 -47 -30 -77t-78 -30q-45 0 -75 30.5t-30 76.5zM368 0h-197l242 1366h469q195 0 299.5 -97t104.5 -258q0 -42 -6 -81q-18 -140 -104 -233.5t-212 -128.5l187 -568h-211l-172 538q-24 -1 -65 -1h-240zM835 1199h-254
l-89 -498h247q86 0 149.5 19t101.5 53.5t58 75t27 90.5q5 30 5 63q0 92 -59.5 144.5t-185.5 52.5zM1198 1614l-19 -112h-680l19 112h680z" />
    <glyph glyph-name="rdotbelowmacron" unicode="&#x1e5d;" horiz-adv-x="783" 
d="M120 -230q0 47 30 77.5t75 30.5q48 0 78 -30t30 -78q0 -47 -30 -77t-78 -30q-45 0 -75 30.5t-30 76.5zM152 0l186 1054h183l-31 -176h13q30 80 108 136t188 56q44 0 89 -10l-38 -182q-34 14 -94 14q-130 0 -206 -84.5t-101 -221.5l-103 -586h-194zM959 1321l-20 -112
h-680l20 112h680z" />
    <glyph glyph-name="Rlinebelow" unicode="&#x1e5e;" horiz-adv-x="1261" 
d="M368 0h-197l242 1366h469q195 0 299.5 -97t104.5 -258q0 -42 -6 -81q-18 -140 -104 -233.5t-212 -128.5l187 -568h-211l-172 538q-24 -1 -65 -1h-240zM835 1199h-254l-89 -498h247q86 0 149.5 19t101.5 53.5t58 75t27 90.5q5 30 5 63q0 92 -59.5 144.5t-185.5 52.5z
M884 -183l-20 -112h-680l20 112h680z" />
    <glyph glyph-name="rlinebelow" unicode="&#x1e5f;" horiz-adv-x="783" 
d="M152 0l186 1054h183l-31 -176h13q30 80 108 136t188 56q44 0 89 -10l-38 -182q-34 14 -94 14q-130 0 -206 -84.5t-101 -221.5l-103 -586h-194zM565 -183l-20 -112h-680l20 112h680z" />
    <glyph glyph-name="Sdotaccent" unicode="&#x1e60;" horiz-adv-x="1208" 
d="M166 388h191q-1 -8 -1 -24q0 -89 85 -155.5t223 -66.5q129 0 209.5 61.5t80.5 163.5q0 37 -13 67.5t-33 52t-54 41.5t-63.5 32.5t-74.5 28.5l-68 25q-74 26 -131.5 56.5t-112.5 76.5t-85 111t-30 144q0 121 64.5 211.5t171.5 135.5t241 45q121 0 222 -42t164 -125.5
t63 -192.5q0 -3 -1 -18.5t-1 -16.5h-184l1 2v5.5v8.5q0 94 -77.5 151.5t-188.5 57.5q-108 0 -189 -53.5t-81 -152.5q0 -80 62.5 -130.5t183.5 -97.5l85 -31q50 -19 85 -35t77.5 -39.5t70 -50.5t52 -62t36.5 -80.5t12 -100.5q0 -196 -140 -307t-363 -111q-214 0 -353 107.5
t-139 261.5q0 25 3 46zM758 1609q0 50 32 82t79 32q50 0 82.5 -32t32.5 -82q0 -49 -32.5 -81t-82.5 -32q-47 0 -79 32.5t-32 80.5z" />
    <glyph glyph-name="sdotaccent" unicode="&#x1e61;" horiz-adv-x="1029" 
d="M259 760q0 143 101 228t284 85q91 0 166.5 -25.5t123 -67t73.5 -93t26 -105.5q0 -1 -1 -12v-10h-176v10q0 57 -57 106t-156 49q-91 0 -143.5 -41t-52.5 -102q0 -28 12.5 -50.5t26.5 -36.5t48 -30t53 -23t65 -22q14 -5 21 -7q53 -17 91.5 -33t78.5 -41.5t65 -55.5t41 -74
t16 -98q0 -157 -113 -243t-302 -86q-179 0 -297.5 88.5t-118.5 219.5v14h180q0 -8 2 -18q12 -62 78 -105.5t167 -43.5q102 0 158 43t56 114q0 19 -4 35t-14 30t-18.5 24t-28 20.5t-30.5 16.5t-38 15.5t-38.5 13t-42.5 13.5q-32 10 -53.5 17.5t-56 22.5t-58 30t-51 39t-44 50
t-28 62t-11.5 77zM629 1297q0 50 32 82t79 32q50 0 82.5 -32t32.5 -82q0 -49 -32.5 -81t-82.5 -32q-47 0 -79 32.5t-32 80.5z" />
    <glyph glyph-name="Sdotbelow" unicode="&#x1e62;" horiz-adv-x="1208" 
d="M446 -230q0 47 30 77.5t75 30.5q48 0 78 -30t30 -78q0 -47 -30 -77t-78 -30q-45 0 -75 30.5t-30 76.5zM166 388h191q-1 -8 -1 -24q0 -89 85 -155.5t223 -66.5q129 0 209.5 61.5t80.5 163.5q0 37 -13 67.5t-33 52t-54 41.5t-63.5 32.5t-74.5 28.5l-68 25
q-74 26 -131.5 56.5t-112.5 76.5t-85 111t-30 144q0 121 64.5 211.5t171.5 135.5t241 45q121 0 222 -42t164 -125.5t63 -192.5q0 -3 -1 -18.5t-1 -16.5h-184l1 2v5.5v8.5q0 94 -77.5 151.5t-188.5 57.5q-108 0 -189 -53.5t-81 -152.5q0 -80 62.5 -130.5t183.5 -97.5l85 -31
q50 -19 85 -35t77.5 -39.5t70 -50.5t52 -62t36.5 -80.5t12 -100.5q0 -196 -140 -307t-363 -111q-214 0 -353 107.5t-139 261.5q0 25 3 46z" />
    <glyph glyph-name="sdotbelow" unicode="&#x1e63;" horiz-adv-x="1029" 
d="M370 -230q0 47 30 77.5t75 30.5q48 0 78 -30t30 -78q0 -47 -30 -77t-78 -30q-45 0 -75 30.5t-30 76.5zM259 760q0 143 101 228t284 85q91 0 166.5 -25.5t123 -67t73.5 -93t26 -105.5q0 -1 -1 -12v-10h-176v10q0 57 -57 106t-156 49q-91 0 -143.5 -41t-52.5 -102
q0 -28 12.5 -50.5t26.5 -36.5t48 -30t53 -23t65 -22q14 -5 21 -7q53 -17 91.5 -33t78.5 -41.5t65 -55.5t41 -74t16 -98q0 -157 -113 -243t-302 -86q-179 0 -297.5 88.5t-118.5 219.5v14h180q0 -8 2 -18q12 -62 78 -105.5t167 -43.5q102 0 158 43t56 114q0 19 -4 35t-14 30
t-18.5 24t-28 20.5t-30.5 16.5t-38 15.5t-38.5 13t-42.5 13.5q-32 10 -53.5 17.5t-56 22.5t-58 30t-51 39t-44 50t-28 62t-11.5 77z" />
    <glyph glyph-name="Sacutedotaccent" unicode="&#x1e64;" horiz-adv-x="1208" 
d="M539 1651q0 50 32 83t79 33q50 0 83 -32.5t33 -83.5q0 -49 -33 -80.5t-83 -31.5q-47 0 -79 32t-32 80zM878 1547l294 199h237l-329 -199h-202zM166 388h191q-1 -8 -1 -24q0 -89 85 -155.5t223 -66.5q129 0 209.5 61.5t80.5 163.5q0 37 -13 67.5t-33 52t-54 41.5
t-63.5 32.5t-74.5 28.5l-68 25q-74 26 -131.5 56.5t-112.5 76.5t-85 111t-30 144q0 121 64.5 211.5t171.5 135.5t241 45q121 0 222 -42t164 -125.5t63 -192.5q0 -3 -1 -18.5t-1 -16.5h-184l1 2v5.5v8.5q0 94 -77.5 151.5t-188.5 57.5q-108 0 -189 -53.5t-81 -152.5
q0 -80 62.5 -130.5t183.5 -97.5l85 -31q50 -19 85 -35t77.5 -39.5t70 -50.5t52 -62t36.5 -80.5t12 -100.5q0 -196 -140 -307t-363 -111q-214 0 -353 107.5t-139 261.5q0 25 3 46z" />
    <glyph glyph-name="sacutedotaccent" unicode="&#x1e65;" horiz-adv-x="1029" 
d="M473 1463q0 47 30 76.5t74 29.5q47 0 77 -29.5t30 -76.5q0 -46 -30 -75.5t-77 -29.5q-44 0 -74 30t-30 75zM259 760q0 143 101 228t284 85q91 0 166.5 -25.5t123 -67t73.5 -93t26 -105.5q0 -1 -1 -12v-10h-176v10q0 57 -57 106t-156 49q-91 0 -143.5 -41t-52.5 -102
q0 -28 12.5 -50.5t26.5 -36.5t48 -30t53 -23t65 -22q14 -5 21 -7q53 -17 91.5 -33t78.5 -41.5t65 -55.5t41 -74t16 -98q0 -157 -113 -243t-302 -86q-179 0 -297.5 88.5t-118.5 219.5v14h180q0 -8 2 -18q12 -62 78 -105.5t167 -43.5q102 0 158 43t56 114q0 19 -4 35t-14 30
t-18.5 24t-28 20.5t-30.5 16.5t-38 15.5t-38.5 13t-42.5 13.5q-32 10 -53.5 17.5t-56 22.5t-58 30t-51 39t-44 50t-28 62t-11.5 77zM828 1210h-146l286 350h201z" />
    </font>
</defs>
</svg>
