<?xml version="1.0" standalone="no"?>
<!DOCTYPE svg PUBLIC "-//W3C//DTD SVG 1.1//EN" "http://www.w3.org/Graphics/SVG/1.1/DTD/svg11.dtd" >
<svg xmlns="http://www.w3.org/2000/svg" xmlns:xlink="http://www.w3.org/1999/xlink" version="1.1">
<metadata>
Created by FontForge 20170731 at Wed Jan 14 10:07:47 2015
 By Aleksey,,,
(c) 2014 Apple Inc. All rights reserved.
</metadata>
<defs>
<font id="SanFranciscoText-MediumItalic" horiz-adv-x="0" >
  <font-face 
    font-family="San Francisco Text Med Ita"
    font-weight="500"
    font-style="italic"
    font-stretch="normal"
    units-per-em="2048"
    panose-1="0 0 0 0 0 0 0 0 0 0"
    ascent="1638"
    descent="-410"
    x-height="1056"
    cap-height="1366"
    bbox="-404 -487 2235 2006"
    underline-thickness="50"
    underline-position="-100"
    slope="-10"
    unicode-range="U+000D-FB02"
  />
<missing-glyph horiz-adv-x="1293" 
d="M120 0l241 1365h1053l-241 -1365h-1053zM573 303q0 -44 31 -72t80 -28q52 0 84.5 29t32.5 74q0 46 -31.5 74.5t-82.5 28.5q-50 0 -82 -29.5t-32 -76.5zM494 908h152q9 54 47.5 88.5t102.5 34.5q59 0 99.5 -29.5t40.5 -81.5q0 -22 -9 -41.5t-18 -31.5t-32.5 -29t-32.5 -22
t-38 -22q-84 -47 -120.5 -93.5t-45.5 -127.5l-6 -42h150l7 39q1 15 5.5 28t8 22t14.5 20.5t15 16.5t21 16t21 13.5t26.5 15.5t26.5 15q36 20 62 39t52.5 47t40.5 65t14 81q0 113 -85 174t-212 61q-140 0 -219 -72.5t-88 -183.5z" />
    <glyph glyph-name=".notdef" horiz-adv-x="1293" 
d="M120 0l241 1365h1053l-241 -1365h-1053zM573 303q0 -44 31 -72t80 -28q52 0 84.5 29t32.5 74q0 46 -31.5 74.5t-82.5 28.5q-50 0 -82 -29.5t-32 -76.5zM494 908h152q9 54 47.5 88.5t102.5 34.5q59 0 99.5 -29.5t40.5 -81.5q0 -22 -9 -41.5t-18 -31.5t-32.5 -29t-32.5 -22
t-38 -22q-84 -47 -120.5 -93.5t-45.5 -127.5l-6 -42h150l7 39q1 15 5.5 28t8 22t14.5 20.5t15 16.5t21 16t21 13.5t26.5 15.5t26.5 15q36 20 62 39t52.5 47t40.5 65t14 81q0 113 -85 174t-212 61q-140 0 -219 -72.5t-88 -183.5z" />
    <glyph glyph-name=".null" 
 />
    <glyph glyph-name="nonmarkingreturn" horiz-adv-x="682" 
 />
    <glyph glyph-name="CR" unicode="&#xd;" 
 />
    <glyph glyph-name="space" unicode=" " horiz-adv-x="461" 
 />
    <glyph glyph-name="exclam" unicode="!" horiz-adv-x="621" 
d="M433 1366h226l-199 -937h-160zM187 125q0 65 43 107t108 42q68 0 111 -41t43 -105t-43.5 -105t-112.5 -41q-64 0 -106.5 40.5t-42.5 102.5z" />
    <glyph glyph-name="quotedbl" unicode="&#x22;" horiz-adv-x="1039" 
d="M439 1366h224l-120 -525h-165zM858 1366h224l-120 -525h-165z" />
    <glyph glyph-name="numbersign" unicode="#" horiz-adv-x="1255" 
d="M1321 836h-210l-110 -289h200l-50 -168h-200q-20 -49 -67.5 -189.5t-67.5 -189.5h-165l135 379h-263q-20 -49 -67.5 -189.5t-67.5 -189.5h-165l135 379h-202l50 168h203l109 289h-193l50 168h194l131 362h165l-131 -362h263l126 362h164l-130 -362h213zM683 836
l-109 -289h263l108 289h-262z" />
    <glyph glyph-name="dollar" unicode="$" horiz-adv-x="1163" 
d="M452 -129l27 126q-154 34 -239 128.5t-85 217.5q0 24 1 34h175q-1 -5 -1 -13q0 -67 49.5 -125t133.5 -83l105 476q-14 5 -45 18q-286 121 -286 356q0 118 64 207t169 133.5t234 44.5q26 0 29 -1l27 123h129l-31 -142q131 -33 211.5 -119.5t80.5 -219.5v-22h-163
q0 14 -1 22q-7 64 -51 111.5t-111 70.5l-98 -440q3 -1 16.5 -7t17.5 -7q81 -32 133.5 -61t101.5 -72.5t72.5 -103t23.5 -136.5q0 -192 -140.5 -300t-363.5 -108q-23 0 -34 1l-23 -109h-128zM960 364q0 81 -53.5 130t-157.5 90q-5 1 -13 5l-100 -455h16q136 0 222 62.5
t86 167.5zM474 1018q0 -67 41.5 -110.5t126.5 -80.5q3 -2 16 -7l92 416h-11q-65 0 -124 -23t-100 -74t-41 -121z" />
    <glyph glyph-name="percent" unicode="%" horiz-adv-x="1518" 
d="M192 1055l5 35q20 128 100 207t196 79q118 0 186 -82.5t68 -211.5q0 -32 -6 -80l-5 -35q-19 -125 -99 -207t-199 -82q-120 0 -186 81.5t-66 213.5q0 41 6 82zM1160 377l-3 -28q-6 -33 -6 -69q0 -71 29.5 -114.5t88.5 -43.5q61 0 101.5 46.5t51.5 128.5l4 33q5 37 5 62
q0 72 -29.5 117.5t-87.5 45.5q-61 0 -101.5 -48.5t-52.5 -129.5zM336 1065l-4 -27q-6 -33 -6 -70q0 -70 30 -114t89 -44q61 0 101 46.5t51 128.5l4 33q5 37 5 63q0 72 -29.5 117.5t-87.5 45.5q-62 0 -101.5 -48.5t-51.5 -130.5zM1017 367l5 35q20 128 99.5 207t196.5 79
t185.5 -82.5t68.5 -211.5q0 -40 -7 -80l-5 -36q-18 -125 -98.5 -206.5t-199.5 -81.5t-185.5 81.5t-66.5 213.5q0 44 7 82zM403 0h-173l563 683l563 683h172l-563 -683z" />
    <glyph glyph-name="ampersand" unicode="&#x26;" horiz-adv-x="1406" 
d="M1220 748h179q-12 -102 -22 -153q-36 -203 -188 -372l156 -223l-221 -1l-73 104q-181 -121 -400 -121q-221 0 -342 110t-121 275q0 78 29.5 143t85 114.5t114.5 84t139 69.5l27 12q-61 94 -91 162.5t-30 140.5q0 142 107.5 223.5t262.5 81.5q157 0 252 -80.5t95 -206.5
q0 -66 -25 -121.5t-72.5 -98.5t-98 -74t-119.5 -63l-10 -5l-17 -8.5t-10 -4.5l264 -365q85 114 113 256q12 57 16 121zM665 147q82 0 161 25t135 71l-293 415l-23 -9q-258 -109 -258 -271q0 -42 16.5 -82t48.5 -74t87 -54.5t126 -20.5zM647 1080q0 -86 97 -220q1 1 11 4.5
t11 3.5q233 92 233 232q0 65 -50 102t-120 37q-75 0 -128.5 -41.5t-53.5 -117.5z" />
    <glyph glyph-name="quotesingle" unicode="'" horiz-adv-x="621" 
d="M439 1366h224l-120 -525h-165z" />
    <glyph glyph-name="parenleft" unicode="(" horiz-adv-x="701" 
d="M649 1364h189q-43 -38 -88 -90t-101 -142.5t-99 -193.5t-74.5 -247t-35.5 -298q-10 -218 23 -367t101 -290h-190q-68 125 -109.5 290.5t-31.5 350.5q5 182 45 345.5t103 284t129 207t139 150.5z" />
    <glyph glyph-name="parenright" unicode=")" horiz-adv-x="699" 
d="M330 1364h189q160 -301 143 -629q-5 -182 -45 -348t-103 -289t-129.5 -212t-137.5 -150h-189q45 44 88.5 97t100.5 146t99.5 195t74 246.5t35.5 298.5q10 216 -24 366.5t-102 278.5z" />
    <glyph glyph-name="asterisk" unicode="*" horiz-adv-x="984" 
d="M954 678l-238 217l-21 -319l-149 22l68 311l-288 -144l-56 148l307 94l-268 175l92 125l239 -219l20 321l149 -22l-70 -313l290 146l56 -148l-308 -93l269 -176z" />
    <glyph glyph-name="plus" unicode="+" horiz-adv-x="1181" 
d="M1160 459h-400l-78 -437h-177l78 437h-399l30 180h398l75 420h178l-75 -420h400z" />
    <glyph glyph-name="comma" unicode="," horiz-adv-x="544" 
d="M186 -400h-171l255 606h242z" />
    <glyph glyph-name="hyphen" unicode="-" horiz-adv-x="867" 
d="M833 466h-632l31 193h633z" />
    <glyph glyph-name="period" unicode="." horiz-adv-x="563" 
d="M152 131q0 70 44.5 114.5t108.5 44.5q66 0 109 -42.5t43 -109.5q0 -68 -45 -112t-112 -44q-62 0 -105 42t-43 107z" />
    <glyph glyph-name="slash" unicode="/" horiz-adv-x="736" 
d="M190 -284h-187l729 1704h186z" />
    <glyph glyph-name="zero" unicode="0" horiz-adv-x="1234" 
d="M470 774l-17 -104q-16 -84 -16 -172q0 -165 60 -250.5t173 -85.5q129 0 216 108t124 320l16 105q16 89 16 177q0 153 -61 242.5t-177 89.5q-250 0 -334 -430zM253 706l15 93q45 276 183 434.5t356 158.5q206 0 321 -139t115 -404q0 -103 -16 -190l-17 -94
q-24 -132 -68.5 -238t-110 -186.5t-157.5 -124t-203 -43.5q-207 0 -320.5 136.5t-113.5 398.5q0 106 16 198z" />
    <glyph glyph-name="one" unicode="1" horiz-adv-x="959" 
d="M661 0h-209l206 1152h-14l-325 -184l30 210l337 188h216z" />
    <glyph glyph-name="two" unicode="2" horiz-adv-x="1152" 
d="M501 1007h-195l1 14q6 160 129 267t317 107q184 0 298.5 -99.5t114.5 -263.5q0 -68 -20.5 -130.5t-63.5 -121.5t-86 -105.5t-111 -108.5l-401 -368l-3 -14h609l-32 -184h-894l26 159l563 532q48 45 77 75.5t64.5 75t53 88.5t17.5 87q0 78 -59 136.5t-164 58.5t-169 -58
t-72 -142v-5z" />
    <glyph glyph-name="three" unicode="3" horiz-adv-x="1159" 
d="M542 627l29 179q63 -3 102 -3q124 0 210 57t86 161q-1 91 -68 143.5t-167 52.5q-94 0 -149.5 -43.5t-70.5 -106.5h-199q14 147 130 237.5t296 90.5q81 0 154.5 -20t135 -60t98 -108t37.5 -156q0 -75 -26 -138t-70 -103.5t-96.5 -65t-108.5 -29.5l-2 -14q118 -26 184 -111
t66 -208q-1 -185 -139 -296t-350 -111q-203 0 -329 101t-126 253q0 30 4 46h196q-1 -6 -1 -22q0 -75 73 -134t189 -59q118 0 195.5 63.5t77.5 166.5q0 104 -77 167.5t-193 67.5z" />
    <glyph glyph-name="four" unicode="4" horiz-adv-x="1237" 
d="M899 1366h302l-158 -909h200l-28 -182h-202l-49 -275h-197l50 275h-647l27 186q94 138 225 309.5t222 284t255 311.5zM402 457h445l133 725h-15q-14 -17 -78.5 -97t-86.5 -107.5t-78.5 -97.5t-87 -109.5t-76 -98t-82.5 -108.5t-72 -98z" />
    <glyph glyph-name="five" unicode="5" horiz-adv-x="1184" 
d="M216 372h189q-2 -14 -2 -20q0 -73 66 -134.5t178 -61.5q131 0 220 87.5t90 224.5q0 119 -69 186.5t-178 67.5q-68 0 -133 -26.5t-102 -75.5h-193l177 746h746l-26 -185h-573l-99 -394h14q39 48 112.5 75t151.5 27q162 0 268 -111t107 -299q0 -140 -60.5 -254t-180 -182.5
t-277.5 -68.5q-106 0 -191.5 31.5t-136 82t-77 109t-26.5 118.5q0 17 5 57z" />
    <glyph glyph-name="six" unicode="6" horiz-adv-x="1200" 
d="M690 -14q-215 0 -333 145t-118 396q0 282 87 487q35 78 80 141.5t107 117t146 83.5t183 30q90 0 166 -29t125 -77t76 -106.5t28 -118.5q2 -13 0 -24h-186q-8 72 -70 121t-152 49q-145 0 -243.5 -128t-126.5 -344h14q37 64 109.5 109.5t182.5 45.5q164 0 279 -111.5
t115 -298.5q0 -211 -131.5 -349.5t-337.5 -138.5zM704 719q-117 0 -188 -80t-71 -197q0 -119 69.5 -199t180.5 -80q119 0 190 84.5t71 216.5q0 116 -71 185.5t-181 69.5z" />
    <glyph glyph-name="seven" unicode="7" horiz-adv-x="1122" 
d="M308 1366h892l-22 -176l-752 -1190h-230l752 1167l1 14h-666z" />
    <glyph glyph-name="eight" unicode="8" horiz-adv-x="1224" 
d="M942 706q45 -14 86 -39.5t78 -64.5t59 -98t22 -129q0 -78 -27.5 -144t-74.5 -112.5t-110.5 -79.5t-135 -48.5t-148.5 -15.5q-72 0 -140.5 13.5t-132.5 44t-112 74t-76.5 109.5t-28.5 145q0 69 22.5 128t58.5 100t83.5 71t95 46.5t94.5 21.5l3 15q-196 101 -196 291
q0 110 62 193.5t161.5 125.5t219.5 42q115 0 210.5 -39t156.5 -119.5t61 -189.5q0 -70 -26 -130t-68.5 -100t-92.5 -64.5t-102 -31.5zM690 147q123 0 206.5 69t83.5 181q0 111 -82.5 174.5t-195.5 63.5q-121 0 -204 -72.5t-83 -183.5q0 -110 80 -171t195 -61zM790 804
q104 0 172.5 62t68.5 160q0 95 -64.5 148.5t-159.5 53.5q-105 0 -173.5 -64t-68.5 -159q0 -92 64.5 -146.5t160.5 -54.5z" />
    <glyph glyph-name="nine" unicode="9" horiz-adv-x="1194" 
d="M758 1389q208 0 325.5 -135.5t117.5 -386.5q0 -212 -49 -396q-133 -484 -524 -484q-175 0 -292.5 97.5t-120.5 235.5q0 19 1 28h189q3 -78 69.5 -127t166.5 -49q140 0 228.5 123t120.5 355h-13q-31 -62 -108.5 -109.5t-183.5 -47.5q-105 0 -193.5 47.5t-145 143
t-56.5 222.5q0 133 58 243t166 175t244 65zM741 660q118 0 189 80.5t71 196.5q0 120 -68 196.5t-179 76.5q-113 0 -184.5 -85t-71.5 -211q0 -114 67.5 -184t175.5 -70z" />
    <glyph glyph-name="colon" unicode=":" horiz-adv-x="567" 
d="M274 809q0 70 44.5 115t108.5 45q66 0 109 -43t43 -110q0 -68 -45 -112t-112 -44q-62 0 -105 42t-43 107zM154 131q0 70 44.5 114.5t108.5 44.5q66 0 108.5 -42.5t42.5 -109.5q0 -68 -45 -112t-112 -44q-62 0 -104.5 42t-42.5 107z" />
    <glyph glyph-name="semicolon" unicode=";" horiz-adv-x="557" 
d="M272 809q0 70 44.5 115t108.5 45q66 0 109 -43t43 -110q0 -68 -45.5 -112t-112.5 -44q-62 0 -104.5 42t-42.5 107zM157 -400h-171l255 606h242z" />
    <glyph glyph-name="less" unicode="&#x3c;" horiz-adv-x="1095" 
d="M248 431l27 162l835 521l-38 -228l-633 -371l-3 -11l513 -340l-37 -217z" />
    <glyph glyph-name="equal" unicode="=" horiz-adv-x="1185" 
d="M1075 258h-869l29 180h865zM1139 661h-865l30 181h864z" />
    <glyph glyph-name="greater" unicode="&#x3e;" horiz-adv-x="1095" 
d="M1025 591l-26 -157l-834 -487l37 226l635 347l2 12l-509 363l37 205z" />
    <glyph glyph-name="question" unicode="?" horiz-adv-x="1056" 
d="M394 125q0 65 43 107t109 42q67 0 110.5 -41t43.5 -105t-43.5 -105t-112.5 -41q-65 0 -107.5 40.5t-42.5 102.5zM289 1033q17 158 126 260t301 102q115 0 207.5 -36.5t151 -115.5t58.5 -189q0 -66 -21 -121t-61.5 -97.5t-77.5 -69.5t-92 -59q-49 -28 -64 -37t-46.5 -32
t-42.5 -39t-23.5 -43t-16.5 -60l-12 -63h-189l11 67q15 119 64.5 183t174.5 135q29 16 41 23t37.5 24t38 27.5t30.5 29.5t26.5 35.5t15 39t6.5 46.5q0 83 -63.5 129t-156.5 46q-98 0 -157 -52t-73 -133h-193z" />
    <glyph glyph-name="at" unicode="@" horiz-adv-x="1737" 
d="M1133 275h-10q-25 -60 -84 -99.5t-148 -39.5q-112 0 -182 73t-70 193q0 54 8 95l16 87q26 141 105.5 220.5t197.5 79.5q86 0 139.5 -46t59.5 -108h8l23 131h153l-83 -471q-3 -13 -3 -33q0 -44 30 -70.5t76 -26.5q77 0 138.5 70t84.5 214l5 33q7 42 7 107q0 151 -76 264
t-203.5 170.5t-286.5 57.5q-160 0 -294.5 -66t-229 -195t-127.5 -305l-8 -43q-13 -68 -13 -148q0 -139 45 -247t127 -175t192 -101.5t244 -34.5q131 0 200 22l-23 -135q-79 -23 -199 -23q-161 0 -295 43.5t-233.5 127.5t-155 215t-55.5 297q0 84 16 169l10 56
q58 319 276 500t523 181q163 0 299 -49t225.5 -133t139 -197t49.5 -241q0 -84 -8 -127l-9 -50q-33 -185 -137.5 -283.5t-243.5 -98.5q-83 0 -146 41t-74 99zM823 556l-12 -59q-7 -35 -7 -72q0 -66 37.5 -108.5t107.5 -42.5q137 0 169 181l14 81q5 32 5 53q0 63 -38.5 109
t-106.5 46q-60 0 -104.5 -46.5t-64.5 -141.5z" />
    <glyph glyph-name="A" unicode="A" horiz-adv-x="1270" 
d="M44 0l714 1366h235l234 -1366h-217l-59 383h-492l-197 -383h-218zM844 1131h-13l-292 -577h391z" />
    <glyph glyph-name="B" unicode="B" horiz-adv-x="1291" 
d="M184 0l241 1366h481q106 0 184.5 -25.5t122 -70t63.5 -97t20 -113.5q0 -130 -83 -222t-194 -116l-2 -12q110 -19 177.5 -96t67.5 -202q0 -193 -148 -302.5t-409 -109.5h-521zM603 1195l-75 -407h259q129 0 211 63.5t82 173.5q0 86 -59 128t-184 42h-234zM500 621
l-81 -449h291q150 0 246 66t96 183q0 95 -70 147.5t-216 52.5h-266z" />
    <glyph glyph-name="C" unicode="C" horiz-adv-x="1306" 
d="M490 841l-37 -179q-13 -69 -13 -151q0 -168 91.5 -254t234.5 -86q130 0 208.5 62.5t98.5 158.5h202q-1 -5 -4 -22t-3 -19q-13 -71 -50 -135.5t-98 -120.5t-156.5 -89t-212.5 -33q-86 0 -163 20t-143 63t-113.5 105t-74.5 151.5t-27 197.5q0 92 9 140l45 228
q47 247 199.5 381t372.5 134q115 0 211 -35.5t158.5 -95t97 -134.5t34.5 -156q0 -36 -5 -54h-199q1 11 1 38q-4 44 -24 85t-55 77t-93 57.5t-129 21.5q-290 0 -363 -356z" />
    <glyph glyph-name="D" unicode="D" horiz-adv-x="1365" 
d="M425 1366h409q262 0 403.5 -142.5t141.5 -381.5q0 -79 -11 -146q0 -6 -12 -71t-15 -77q-51 -266 -240 -407t-508 -141h-409zM603 1178l-180 -990h162q224 0 367.5 95.5t181.5 286.5q2 7 13 66.5t12 66.5q9 53 9 123q0 177 -101.5 264.5t-294.5 87.5h-169z" />
    <glyph glyph-name="E" unicode="E" horiz-adv-x="1146" 
d="M1049 188l-30 -188h-835l241 1366h830l-31 -188h-622l-73 -389h591l-28 -179h-592l-78 -422h627z" />
    <glyph glyph-name="F" unicode="F" horiz-adv-x="1121" 
d="M392 0h-208l242 1366h828l-30 -188h-621l-79 -424h571l-28 -184h-573z" />
    <glyph glyph-name="G" unicode="G" horiz-adv-x="1362" 
d="M285 881q46 245 202 378.5t384 133.5q123 0 223 -37.5t160.5 -98.5t92.5 -133.5t32 -148.5q0 -28 -2 -35h-201q0 18 -1 27q-3 38 -21 76t-52.5 74.5t-96 59.5t-139.5 23q-151 0 -246.5 -92.5t-129.5 -265.5l-38 -184q-14 -84 -14 -149q0 -170 93.5 -257.5t239.5 -87.5
q119 0 212 58.5t112 160.5l29 157h-327l30 170h528l-60 -332q-33 -188 -181 -296.5t-357 -108.5q-108 0 -200.5 31t-167.5 93t-118 166.5t-43 240.5q0 83 12 153z" />
    <glyph glyph-name="H" unicode="H" horiz-adv-x="1430" 
d="M392 0h-208l241 1366h208l-101 -569h646l101 569h208l-241 -1366h-202l103 609h-646z" />
    <glyph glyph-name="I" unicode="I" horiz-adv-x="576" 
d="M392 0h-208l241 1366h208z" />
    <glyph glyph-name="J" unicode="J" horiz-adv-x="1048" 
d="M1107 1366l-176 -992q-36 -208 -148 -304t-272 -96q-173 0 -285 96t-112 252q0 43 6 67h195q-2 -32 -2 -37q0 -77 52.5 -128t140.5 -51q83 0 141.5 53.5t79.5 169.5l172 970h208z" />
    <glyph glyph-name="K" unicode="K" horiz-adv-x="1295" 
d="M633 1366l-119 -643h13l688 643h259l-638 -612l405 -754h-237l-331 630l-201 -178l-80 -452h-208l242 1366h207z" />
    <glyph glyph-name="L" unicode="L" horiz-adv-x="1056" 
d="M1032 191l-32 -191h-816l241 1366h208l-211 -1175h610z" />
    <glyph glyph-name="M" unicode="M" horiz-adv-x="1647" 
d="M379 0h-195l241 1366h205l259 -913h9l581 913h225l-241 -1366h-194l173 970h-11l-517 -802h-126l-226 802h-13z" />
    <glyph glyph-name="N" unicode="N" horiz-adv-x="1429" 
d="M1245 0h-187l-481 998h-11l-180 -998h-202l241 1366h189l477 -998h11l181 998h202z" />
    <glyph glyph-name="O" unicode="O" horiz-adv-x="1388" 
d="M485 842l-34 -180q-15 -78 -15 -149q0 -158 92 -251t254 -93q302 0 369 371l35 192q9 48 9 128q0 154 -92.5 246.5t-250.5 92.5q-142 0 -237.5 -86.5t-129.5 -270.5zM240 676l37 205q44 243 200.5 377.5t381.5 134.5q247 0 397.5 -143t150.5 -392q0 -81 -15 -163
l-38 -206q-46 -249 -196 -382.5t-401 -133.5q-232 0 -381.5 137.5t-149.5 376.5q0 109 14 189z" />
    <glyph glyph-name="P" unicode="P" horiz-adv-x="1208" 
d="M392 0h-208l241 1366h459q195 0 303.5 -103.5t108.5 -270.5q0 -45 -6 -90q-28 -199 -167 -306.5t-390 -107.5h-253zM843 1188h-240l-93 -515h234q164 0 244.5 66t93.5 172q6 30 6 66q0 97 -60.5 154t-184.5 57z" />
    <glyph glyph-name="Q" unicode="Q" horiz-adv-x="1407" 
d="M242 680l35 196q44 244 200 380.5t380 136.5q247 0 397.5 -143.5t150.5 -396.5q0 -82 -16 -163l-36 -197q-52 -278 -234 -406l132 -227h-212l-85 138q-87 -25 -195 -25q-233 0 -382.5 138t-149.5 381q0 107 15 188zM918 406l91 -147q105 87 140 273l37 201q9 51 9 132
q0 154 -93 245t-249 91q-143 0 -238.5 -88t-129.5 -270l-36 -185q-14 -84 -14 -155q0 -162 92 -254t253 -92q35 0 79 7l-147 242h206z" />
    <glyph glyph-name="R" unicode="R" horiz-adv-x="1282" 
d="M392 0h-208l242 1366h475q196 0 302 -98t106 -263q0 -42 -6 -78q-18 -140 -103.5 -235t-211.5 -133l186 -559h-222l-170 528q-23 -1 -64 -1h-232zM852 1185h-248l-88 -481h242q298 0 330 229q5 30 5 61q0 90 -59.5 140.5t-181.5 50.5z" />
    <glyph glyph-name="S" unicode="S" horiz-adv-x="1226" 
d="M178 392h200q-1 -7 -1 -23q0 -86 84 -149.5t219 -63.5q126 0 205 57.5t79 154.5q0 44 -17.5 77.5t-54 58.5t-71.5 40.5t-92 35.5l-72 27q-58 21 -104.5 43t-95.5 56t-81.5 73.5t-53.5 95t-21 119.5q0 185 137 292t344 107q190 0 322 -100.5t132 -263.5q0 -3 -1 -19
t-1 -17h-193l1 2v6v8q0 91 -76.5 146t-185.5 55q-67 0 -125.5 -20.5t-98.5 -66.5t-40 -109q0 -76 62 -125t180 -92l89 -34q60 -22 101 -41t88 -50.5t75.5 -67t47.5 -89t19 -118.5q0 -198 -141.5 -311t-366.5 -113q-216 0 -355.5 107t-139.5 267q0 24 3 45z" />
    <glyph glyph-name="T" unicode="T" horiz-adv-x="1124" 
d="M668 0h-208l211 1176h-411l31 190h1024l-30 -190h-407z" />
    <glyph glyph-name="U" unicode="U" horiz-adv-x="1389" 
d="M618 1366l-146 -825q-8 -34 -8 -92q0 -125 79 -200.5t216 -75.5q126 0 213 71t113 214l161 908h211l-166 -944q-39 -222 -183 -335.5t-356 -113.5q-220 0 -361 118t-141 326q0 59 13 131l144 818h211z" />
    <glyph glyph-name="V" unicode="V" horiz-adv-x="1260" 
d="M749 0h-236l-235 1366h226l158 -1124h11l560 1124h230z" />
    <glyph glyph-name="W" unicode="W" horiz-adv-x="1793" 
d="M602 0h-209l-87 1366h219l31 -1057h13l471 1057h180l103 -1057h13l414 1057h219l-568 -1366h-205l-115 1011h-12z" />
    <glyph glyph-name="X" unicode="X" horiz-adv-x="1241" 
d="M761 845l430 521h248l-576 -684l336 -682h-231l-254 523l-10 1l-419 -524h-244l558 689l-319 677h236l235 -520z" />
    <glyph glyph-name="Y" unicode="Y" horiz-adv-x="1158" 
d="M782 552l-99 -552h-207l98 548l-326 818h220l232 -612h11l438 612h236z" />
    <glyph glyph-name="Z" unicode="Z" horiz-adv-x="1214" 
d="M146 0l25 158l873 1008l2 15h-693l30 185h947l-25 -163l-871 -1004l-2 -14h722l-32 -185h-976z" />
    <glyph glyph-name="bracketleft" unicode="[" horiz-adv-x="710" 
d="M389 1366h464l-27 -161h-271l-229 -1272h285l-27 -162h-477z" />
    <glyph glyph-name="backslash" unicode="\" horiz-adv-x="661" 
d="M671 -284h-187l-218 1704h187z" />
    <glyph glyph-name="bracketright" unicode="]" horiz-adv-x="710" 
d="M340 1366h464l-282 -1595h-476l26 162h285l229 1272h-273z" />
    <glyph glyph-name="asciicircum" unicode="^" horiz-adv-x="851" 
d="M909 798h-176l-106 393h-11l-250 -393h-181l366 568h190z" />
    <glyph glyph-name="underscore" unicode="_" horiz-adv-x="903" 
d="M905 -261h-920l31 169h922z" />
    <glyph glyph-name="grave" unicode="`" horiz-adv-x="1000" 
d="M860 1209h-159l-241 345h211z" />
    <glyph glyph-name="a" unicode="a" horiz-adv-x="1116" 
d="M479 -17q-135 0 -226 80t-91 217q0 22 2 36q11 143 121 222.5t307 79.5h274l12 69q4 20 4 44q0 71 -50.5 122t-156.5 51q-84 0 -137 -33t-70 -85h-195q22 125 132 206.5t285 81.5q185 0 285.5 -92t100.5 -247q0 -44 -17 -144l-104 -591h-194l25 140h-13
q-32 -63 -108.5 -110t-185.5 -47zM366 307q0 -67 48 -110t131 -43q99 0 176 57t94 144l24 121h-245q-112 0 -170 -48t-58 -121z" />
    <glyph glyph-name="b" unicode="b" horiz-adv-x="1212" 
d="M730 -17q-120 0 -206 67.5t-105 155.5h-12l-37 -206h-203l253 1423h204l-98 -543h14q15 35 38 65.5t58.5 60.5t88.5 47.5t117 17.5q164 0 263.5 -106t99.5 -287q0 -75 -10 -131l-31 -167q-31 -180 -143 -288.5t-291 -108.5zM459 433q0 -123 73.5 -194t169.5 -71
q108 0 179.5 73t91.5 188l25 133q4 24 4 88q0 114 -63 179.5t-174 65.5q-110 0 -184 -76t-95 -203l-22 -129q-5 -30 -5 -54z" />
    <glyph glyph-name="c" unicode="c" horiz-adv-x="1078" 
d="M191 394q0 69 14 148l24 136q33 194 157 295t307 101q185 0 297.5 -97.5t112.5 -248.5q0 -17 -1 -20h-189v12q0 67 -59.5 122.5t-161.5 55.5q-103 0 -175 -67.5t-95 -191.5l-20 -113q-10 -59 -10 -102q0 -124 60.5 -192.5t178.5 -68.5q86 0 141.5 35.5t69.5 91.5h200
q-22 -145 -138.5 -227t-283.5 -82q-196 0 -312.5 112t-116.5 301z" />
    <glyph glyph-name="d" unicode="d" horiz-adv-x="1211" 
d="M672 1071q126 0 209 -69t96 -150h14l99 571h204l-250 -1423h-201l31 175h-14q-24 -73 -102 -131.5t-198 -58.5q-165 0 -267.5 109.5t-102.5 289.5q0 75 10 131l34 165q33 178 146 284.5t292 106.5zM948 634q0 123 -73.5 191.5t-171.5 68.5q-109 0 -179 -71.5t-94 -190.5
l-27 -131q-6 -32 -6 -85q0 -114 64.5 -182t176.5 -68q111 0 183.5 75.5t96.5 204.5l25 130q5 31 5 58z" />
    <glyph glyph-name="e" unicode="e" horiz-adv-x="1111" 
d="M609 -19q-186 0 -302 106.5t-116 303.5q0 70 17 155l24 131q33 190 161.5 293.5t314.5 103.5q91 0 164 -26t119.5 -70t75.5 -102t37.5 -121.5t0.5 -129.5q0 -2 -25 -146h-685q-9 -36 -9 -88q0 -100 57.5 -167t179.5 -67q88 0 146.5 35.5t74.5 89.5h198
q-9 -57 -43.5 -110.5t-88.5 -96t-132.5 -68.5t-168.5 -26zM909 624q3 9 3 21q21 110 -35.5 184.5t-174.5 74.5q-96 0 -169 -55.5t-97 -164.5l-13 -60h486z" />
    <glyph glyph-name="f" unicode="f" horiz-adv-x="768" 
d="M231 0l155 869h-170l28 170h171l11 74q28 166 120.5 244.5t263.5 78.5q74 0 129 -11l-27 -160q-30 7 -94 7q-88 0 -131.5 -38.5t-58.5 -118.5l-13 -76h239l-30 -170h-236l-155 -869h-202z" />
    <glyph glyph-name="g" unicode="g" horiz-adv-x="1209" 
d="M666 1071q124 0 205.5 -61t106.5 -155h14l36 200h201l-186 -1058q-70 -394 -493 -394q-190 0 -304 92t-114 217v9l1 7h195q0 -10 1 -12q2 -56 67.5 -98.5t163.5 -42.5q130 0 199 65.5t93 195.5l27 151h-15q-30 -73 -106.5 -119.5t-187.5 -46.5q-155 0 -264.5 110
t-109.5 293q0 77 14 144l21 103q20 102 63 180t102 125t127 71t143 24zM944 639q0 117 -68.5 186.5t-177.5 69.5q-106 0 -176.5 -73t-94.5 -201l-15 -77q-12 -60 -12 -102q0 -123 65.5 -190t180.5 -67q102 0 176.5 73.5t96.5 199.5l16 86q9 57 9 95z" />
    <glyph glyph-name="h" unicode="h" horiz-adv-x="1215" 
d="M168 0l250 1423h204l-99 -536h14q40 86 119 135.5t192 49.5q157 0 241.5 -93t84.5 -234q0 -62 -21 -180l-100 -565h-204l102 576q13 75 13 122q0 89 -48 144t-144 55q-120 0 -195.5 -82t-98.5 -210l-106 -605h-204z" />
    <glyph glyph-name="i" unicode="i" horiz-adv-x="566" 
d="M182 0l187 1056h203l-186 -1056h-204zM372 1370q0 60 39.5 98t99.5 38q62 0 100 -37.5t38 -95.5q0 -59 -40 -96.5t-102 -37.5q-59 0 -97 37t-38 94z" />
    <glyph glyph-name="j" unicode="j" horiz-adv-x="574" 
d="M580 1056l-187 -1060q-32 -181 -127 -261t-264 -80q-48 0 -105 13l33 171q37 -10 79 -10q71 0 118 42t61 118l188 1067h204zM380 1370q0 60 39.5 98t99.5 38q62 0 100 -37.5t38 -95.5q0 -59 -40 -96.5t-102 -37.5q-59 0 -97 37t-38 94z" />
    <glyph glyph-name="k" unicode="k" horiz-adv-x="1105" 
d="M442 412l-73 -412h-202l252 1423h200l-137 -776h13l475 409h262l-501 -427l324 -629h-221l-261 518z" />
    <glyph glyph-name="l" unicode="l" horiz-adv-x="566" 
d="M181 0l252 1423h203l-251 -1423h-204z" />
    <glyph glyph-name="m" unicode="m" horiz-adv-x="1791" 
d="M168 0l185 1056h198l-31 -175h13q35 82 108.5 136.5t185.5 54.5q114 0 188 -53.5t102 -141.5h12q16 35 40 66t61 62t92 49t121 18q152 0 230 -89.5t78 -228.5q0 -59 -21 -183l-101 -571h-203l102 583q12 67 12 116q0 92 -41 145t-128 53q-100 0 -164.5 -75.5
t-89.5 -208.5l-109 -613h-200l103 583q11 62 11 117q0 90 -40.5 143.5t-132.5 53.5q-112 0 -179.5 -77.5t-89.5 -207.5l-109 -612h-203z" />
    <glyph glyph-name="n" unicode="n" horiz-adv-x="1209" 
d="M168 0l185 1056h200l-31 -169h13q93 185 311 185q81 0 144 -26t101 -71.5t57.5 -103.5t19.5 -125q0 -66 -21 -181l-100 -565h-203l101 576q13 78 13 121q0 89 -46.5 144.5t-142.5 55.5q-120 0 -194 -80.5t-97 -211.5l-107 -605h-203z" />
    <glyph glyph-name="o" unicode="o" horiz-adv-x="1154" 
d="M425 634l-21 -114q-10 -62 -10 -104q0 -115 67 -185.5t183 -70.5q107 0 175.5 72t91.5 202l21 122q5 36 5 92q0 110 -66.5 180t-179.5 70q-103 0 -173.5 -68t-92.5 -196zM203 548l22 122q33 185 160 294.5t309 109.5q201 0 325 -116t124 -319q0 -59 -12 -126l-23 -123
q-36 -190 -158 -298.5t-323 -108.5q-189 0 -312 112.5t-123 307.5q0 88 11 145z" />
    <glyph glyph-name="p" unicode="p" horiz-adv-x="1211" 
d="M724 -17q-121 0 -204.5 69t-99.5 154h-13l-99 -566h-204l248 1415h202l-31 -175h14q14 34 35.5 64t56 60.5t88.5 48.5t119 18q165 0 266 -106.5t101 -286.5q0 -86 -9 -131l-32 -167q-28 -179 -143 -288t-295 -109zM452 433q0 -123 73.5 -194t168.5 -71q110 0 183 73
t94 188l25 133q5 30 5 88q0 114 -65.5 179.5t-177.5 65.5q-111 0 -184.5 -76t-94.5 -203l-22 -129q-5 -30 -5 -54z" />
    <glyph glyph-name="q" unicode="q" horiz-adv-x="1208" 
d="M672 1071q125 0 208.5 -68t98.5 -151h14l36 203h200l-253 -1414h-203l98 532h-14q-14 -32 -36.5 -62t-57 -59.5t-87 -47t-114.5 -17.5q-164 0 -268 108.5t-104 287.5q0 82 10 132l35 165q33 176 147 283.5t290 107.5zM945 635q0 84 -37 144.5t-90.5 87.5t-114.5 27
q-108 0 -178.5 -75t-93.5 -187l-28 -131q-6 -26 -6 -85q0 -113 65.5 -180.5t176.5 -67.5t184.5 75t94.5 203l23 130q4 23 4 59z" />
    <glyph glyph-name="r" unicode="r" horiz-adv-x="805" 
d="M167 0l186 1056h193l-32 -176h14q30 81 107 136.5t186 55.5q46 0 93 -13l-40 -196q-39 16 -97 16q-129 0 -204 -82.5t-99 -217.5l-103 -579h-204z" />
    <glyph glyph-name="s" unicode="s" horiz-adv-x="1046" 
d="M271 758q0 144 102 230.5t287 86.5q92 0 167.5 -25t124 -66.5t74.5 -93.5t26 -108v-24h-184v11q0 55 -56 101.5t-152 46.5q-89 0 -140.5 -39t-51.5 -97q0 -33 15.5 -57.5t45.5 -41.5t62 -29.5t78 -27.5q17 -5 26 -8q52 -17 91 -33t78.5 -41.5t64.5 -56t41 -74t16 -97.5
q0 -159 -114.5 -246t-305.5 -87q-180 0 -299.5 88t-119.5 223v17h188q0 -7 2 -19q11 -61 75.5 -102.5t163.5 -41.5q100 0 155 40.5t55 108.5q0 18 -3.5 33.5t-14.5 28.5t-18.5 22t-28 19.5t-29.5 16t-38 15t-38 12.5t-43 13q-32 10 -53 18t-56 23t-58.5 30.5t-51 39.5
t-44 50.5t-28 63t-11.5 77.5z" />
    <glyph glyph-name="t" unicode="t" horiz-adv-x="779" 
d="M405 1039l50 275h198l-47 -275h227l-28 -170h-227l-83 -466q-19 -108 -19 -133q0 -52 28 -77.5t97 -25.5q66 0 120 10l-29 -165q-52 -15 -150 -15q-276 0 -276 210q0 54 14 125l96 537h-157l29 170h157z" />
    <glyph glyph-name="u" unicode="u" horiz-adv-x="1198" 
d="M1215 1056l-185 -1056h-194l31 175h-14q-39 -85 -119 -138.5t-190 -53.5q-156 0 -243 90.5t-87 234.5q0 75 20 181l104 567h203l-103 -572q-13 -80 -13 -128q0 -90 51 -140.5t148 -50.5q119 0 191.5 80t95.5 211l105 600h199z" />
    <glyph glyph-name="v" unicode="v" horiz-adv-x="1058" 
d="M402 0l-174 1056h210l105 -842h11l388 842h210l-523 -1056h-227z" />
    <glyph glyph-name="w" unicode="w" horiz-adv-x="1505" 
d="M1621 1056l-463 -1056h-216l-67 789h-9l-318 -789h-222l-116 1056h205l55 -836h10l338 836h185l68 -836h11l333 836h206z" />
    <glyph glyph-name="x" unicode="x" horiz-adv-x="1037" 
d="M770 0l-183 386h-7l-301 -386h-225l426 530l-259 526h221l180 -393h9l303 393h231l-439 -532l264 -524h-220z" />
    <glyph glyph-name="y" unicode="y" horiz-adv-x="1060" 
d="M1177 1056l-531 -1046q-1 -3 -20 -37t-19 -35q-34 -66 -62.5 -109.5t-64.5 -81t-78 -58t-97.5 -32t-128.5 -11.5q-52 0 -104 13l35 167q40 -10 80 -10q84 0 130 37.5t81 111.5l23 53l-191 1038h212l121 -836h12l386 836h216z" />
    <glyph glyph-name="z" unicode="z" horiz-adv-x="987" 
d="M116 0l29 167l658 708l3 14h-557l31 167h796l-30 -172l-652 -699l-2 -13h554l-29 -172h-801z" />
    <glyph glyph-name="braceleft" unicode="{" horiz-adv-x="788" 
d="M392 592l-4 -26q78 -9 116.5 -68.5t21.5 -160.5q-59 -308 -59 -341q-2 -61 11 -92t53.5 -46.5t120.5 -15.5h42l-26 -163h-80q-169 0 -245.5 65t-68.5 199q0 55 52 330q19 107 -10 153.5t-129 46.5l36 211q98 0 144 46.5t65 154.5l40 212q14 82 43 142t67.5 97t91.5 59.5
t108 31t126 8.5h70l-27 -163h-42q-123 0 -179.5 -53t-73.5 -152l-47 -254q-18 -110 -71 -162.5t-146 -58.5z" />
    <glyph glyph-name="bar" unicode="|" horiz-adv-x="694" 
d="M396 -289h-187l301 1709h187z" />
    <glyph glyph-name="braceright" unicode="}" horiz-adv-x="787" 
d="M599 566l5 26q-79 8 -118 64t-21 157q52 268 52 304q4 90 -32 122.5t-153 32.5h-42l27 163h79q170 0 246.5 -64.5t68.5 -196.5q0 -60 -13 -143t-26 -143t-13 -66q-3 -72 30 -105t115 -33l-35 -211q-99 0 -144.5 -46.5t-64.5 -153.5l-47 -253q-18 -102 -57 -170.5
t-98 -105t-126 -51t-156 -14.5h-69l27 163h42q123 0 179.5 53t73.5 152l52 290q19 111 72.5 166.5t145.5 62.5z" />
    <glyph glyph-name="asciitilde" unicode="~" horiz-adv-x="1167" 
d="M908 482q-76 0 -132 31.5t-112 86.5q-4 4 -21 21.5t-22 22t-19.5 18.5t-21.5 19t-20.5 14t-23.5 12.5t-22.5 6.5t-25.5 3q-53 0 -92 -43.5t-49 -110.5h-163q3 89 38.5 165t103.5 124t154 48q55 0 106 -22.5t78 -45.5t69 -65q35 -36 53 -52.5t50.5 -33t64.5 -16.5
q57 0 92.5 41.5t46.5 103.5h163q-9 -140 -90 -234t-205 -94z" />
    <glyph glyph-name="nonbreakingspace" unicode="&#xa0;" horiz-adv-x="461" 
 />
    <glyph glyph-name="exclamdown" unicode="&#xa1;" horiz-adv-x="620" 
d="M621 933q0 -65 -43.5 -107t-108.5 -42q-68 0 -111 40.5t-43 105.5q0 63 43.5 104.5t112.5 41.5q64 0 107 -41t43 -102zM374 -309h-226l199 937h160z" />
    <glyph glyph-name="cent" unicode="&#xa2;" horiz-adv-x="1155" 
d="M244 544q0 67 14 148l24 136q31 183 148 283.5t290 108.5l42 235h164l-45 -250q128 -32 202 -122t74 -205q0 -3 -0.5 -11t-0.5 -10h-190v13q0 68 -59 123t-161 55q-104 0 -176 -67t-94 -192l-20 -114q-11 -55 -11 -101q0 -124 60.5 -193t178.5 -69q86 0 142 36t70 91h200
q-22 -135 -133.5 -217t-268.5 -86h-1l-40 -221h-164l41 236q-132 36 -209 140t-77 253z" />
    <glyph glyph-name="sterling" unicode="&#xa3;" horiz-adv-x="1155" 
d="M1270 1021h-187q10 79 -43 135.5t-148 56.5q-85 0 -133.5 -46.5t-62.5 -123.5l-51 -274h299l-27 -157h-295q-1 -11 -20.5 -108.5t-22.5 -102.5q-36 -164 -146 -210v-12h722l-30 -179h-1025l31 188q26 1 38.5 1.5t39 5t42 12t38 23.5t37.5 38.5t30 58t25 80.5
q3 5 22.5 99.5t20.5 105.5h-189l27 157h185l59 317q25 147 128 226.5t257 79.5q183 0 288.5 -102t90.5 -269z" />
    <glyph glyph-name="currency" unicode="&#xa4;" horiz-adv-x="1163" 
d="M462 652q0 -98 68.5 -167.5t165.5 -69.5t165.5 69.5t68.5 167.5q0 99 -68.5 168.5t-165.5 69.5t-165.5 -69.5t-68.5 -168.5zM981 118l-130 176q-70 -35 -162 -35q-138 0 -240 91l-208 -152l-94 128l207 152q-39 81 -39 181q0 136 93 242l-139 190l122 104l138 -189
q79 42 177 42q134 0 238 -95l221 161l95 -130l-222 -160q39 -83 39 -178q0 -140 -104 -252l128 -174z" />
    <glyph glyph-name="yen" unicode="&#xa5;" horiz-adv-x="1155" 
d="M270 392h280l24 136h-279l24 144h215l-282 694h222l232 -611h11l437 611h236l-521 -694h231l-25 -144h-293l-24 -136h292l-23 -144h-294l-45 -248h-208l46 248h-280z" />
    <glyph glyph-name="brokenbar" unicode="&#xa6;" horiz-adv-x="682" 
d="M573 782h-175l115 655h175zM381 -304h-175l120 682h175z" />
    <glyph glyph-name="section" unicode="&#xa7;" horiz-adv-x="984" 
d="M114 85h179v-4q1 -83 64 -126t159 -43q91 0 143.5 41.5t52.5 104.5q0 59 -46 94t-156 81q-1 0 -8.5 3t-8.5 4q-138 56 -212 128.5t-74 190.5q0 103 63.5 171.5t155.5 97.5l1 8q-48 33 -84.5 93t-36.5 142q0 150 110 236t278 86q151 0 261 -89t108 -227q0 -21 -4 -40h-175
q2 18 2 22q1 75 -59.5 120.5t-140.5 45.5q-78 0 -134 -37t-56 -104t49.5 -108.5t160.5 -85.5q56 -23 95.5 -43t80 -48.5t65.5 -59t41 -72t16 -90.5q0 -103 -57 -177.5t-146 -110.5v-8q103 -85 103 -206q0 -155 -115.5 -243t-285.5 -88q-72 0 -142 21.5t-126.5 60t-90.5 99.5
t-33 133q0 15 3 27zM658 367q61 15 106 65.5t45 117.5q0 59 -45.5 101.5t-133.5 76.5q-44 17 -69 23q-65 -11 -114 -62t-49 -113q0 -58 45.5 -100t129.5 -79q21 -10 85 -30z" />
    <glyph glyph-name="dieresis" unicode="&#xa8;" horiz-adv-x="1000" 
d="M428 1312q0 49 32 80t81 31q50 0 82 -31t32 -80q0 -47 -32 -78t-82 -31q-49 0 -81 31t-32 78zM798 1312q0 49 31 80t79 31q52 0 84 -30.5t32 -80.5q0 -48 -32.5 -78.5t-83.5 -30.5q-47 0 -78.5 31t-31.5 78z" />
    <glyph glyph-name="copyright" unicode="&#xa9;" horiz-adv-x="1726" 
d="M964 -66q-208 0 -369.5 91.5t-248.5 249.5t-87 354q0 51 6 102l13 103q20 173 118 309.5t255.5 213.5t347.5 77q156 0 290 -54t226 -146t144.5 -217.5t52.5 -266.5q0 -41 -5 -91l-13 -102q-33 -278 -235.5 -450.5t-494.5 -172.5zM384 622q0 -252 160.5 -408.5
t417.5 -156.5q244 0 413.5 140.5t196.5 371.5l12 106q4 32 4 66q0 162 -77.5 292.5t-213 203.5t-303.5 73q-239 0 -403.5 -140.5t-188.5 -351.5l-13 -105q-5 -48 -5 -91zM648 590q0 33 9 98l18 102q23 133 108.5 206.5t219.5 73.5q136 0 215 -71t79 -170q0 -21 -1 -26h-136
v15q0 49 -42 88t-112 39q-77 0 -128 -50t-67 -140l-13 -76q-7 -42 -7 -71q0 -90 42.5 -139.5t128.5 -49.5q60 0 100 25t50 66h140q-17 -101 -98 -161t-201 -60q-140 0 -222.5 81.5t-82.5 219.5z" />
    <glyph glyph-name="ordfeminine" unicode="&#xaa;" horiz-adv-x="718" 
d="M447 716q-75 0 -126 44.5t-51 125.5q0 92 67.5 138t182.5 46h137l7 40q0 2 0.5 6t0.5 9q0 40 -26 63t-73 23q-36 0 -64 -15t-34 -42h-137q11 72 75 121t170 49q107 0 167 -51.5t60 -145.5q0 -15 -4 -39l-63 -363h-135l14 77h-8q-18 -35 -60 -60.5t-100 -25.5zM410 899
q0 -33 24 -54t66 -21q48 0 84 27.5t45 70.5l12 62h-119q-55 0 -83.5 -24t-28.5 -61z" />
    <glyph glyph-name="guillemotleft" unicode="&#xab;" horiz-adv-x="1314" 
d="M249 565l415 404h213l-418 -414l-1 -6l258 -394h-203l-266 402zM720 565l415 404h213l-419 -414l-1 -6l258 -394h-203l-265 402z" />
    <glyph glyph-name="logicalnot" unicode="&#xac;" horiz-adv-x="1163" 
d="M1093 93h-180l65 363h-794l29 175h974z" />
    <glyph glyph-name="registered" unicode="&#xae;" horiz-adv-x="1215" 
d="M274 893q0 12 2 28l2 21q8 214 143 344t353 130q214 0 351.5 -132.5t137.5 -343.5q0 -23 -1 -30l-2 -26q-13 -217 -146.5 -343.5t-351.5 -126.5q-217 0 -352.5 131t-135.5 348zM374 892q0 -173 107 -275.5t281 -102.5q178 0 282.5 100t115.5 276l2 24q1 6 1 25
q0 169 -109 273t-281 104q-178 0 -284.5 -103.5t-111.5 -276.5l-2 -21q-1 -6 -1 -23zM649 666h-102l93 519h190q77 0 119 -39t42 -110q0 -1 -0.5 -8.5t-0.5 -12.5q-5 -52 -37 -89.5t-82 -54.5l70 -205h-106l-59 191h-27h-67zM807 1100h-81l-30 -162h79q102 0 114 78
q2 12 2 20q0 29 -22 46.5t-62 17.5z" />
    <glyph glyph-name="macron" unicode="&#xaf;" horiz-adv-x="1000" 
d="M1074 1328l-20 -117h-680l20 117h680z" />
    <glyph glyph-name="degree" unicode="&#xb0;" horiz-adv-x="723" 
d="M547 806q-121 0 -204.5 84.5t-83.5 205.5q0 120 83.5 204t204.5 84q118 0 202 -84t84 -204t-84 -205t-202 -85zM547 949q62 0 106 43.5t44 103.5q0 61 -44 104.5t-106 43.5q-61 0 -105.5 -43.5t-44.5 -104.5q0 -60 45 -103.5t105 -43.5z" />
    <glyph glyph-name="plusminus" unicode="&#xb1;" horiz-adv-x="1155" 
d="M773 651l-49 -271h-171l49 271h-391l28 169h391l46 256h171l-45 -256h393l-28 -169h-394zM1080 111h-956l27 165h957z" />
    <glyph glyph-name="twosuperior" unicode="&#xb2;" horiz-adv-x="743" 
d="M506 1161h-140q7 95 74 155t173 60q96 0 160 -52t64 -140q0 -64 -35 -113.5t-106 -110.5q-5 -3 -86 -70.5t-88 -73.5v-2h282l-22 -125h-482l18 105l274 242q30 28 43.5 41t32 42.5t18.5 54.5q0 32 -22.5 53.5t-61.5 21.5q-41 0 -66.5 -25t-29.5 -63z" />
    <glyph glyph-name="threesuperior" unicode="&#xb3;" horiz-adv-x="749" 
d="M458 982l7 115h60q52 0 89.5 22t37.5 62q0 34 -25.5 54t-64.5 20q-37 0 -60 -18.5t-29 -46.5h-142q8 82 71.5 134t161.5 52q94 0 163.5 -47t69.5 -133q0 -63 -38 -106.5t-91 -54.5l-1 -3q48 -16 75.5 -55.5t27.5 -95.5q0 -93 -73.5 -149.5t-188.5 -53.5q-104 3 -168 54.5
t-69 136.5q-1 12 -1 26h133q-1 -1 -1 -3q4 -40 34 -64t76 -24q47 0 77.5 24.5t30.5 67.5q0 75 -103 85q-12 1 -59 1z" />
    <glyph glyph-name="acute" unicode="&#xb4;" horiz-adv-x="1000" 
d="M620 1209h-153l283 347h208z" />
    <glyph glyph-name="paragraph" unicode="&#xb6;" horiz-adv-x="1338" 
d="M782 -210h-196l121 678l-19 3q-59 11 -119 41.5t-118 81.5t-94.5 132.5t-36.5 178.5q0 15 3 32q7 198 154.5 313t367.5 115h215zM942 -210l278 1575h196l-278 -1575h-196z" />
    <glyph glyph-name="periodcentered" unicode="&#xb7;" horiz-adv-x="562" 
d="M261 752q0 70 44.5 114.5t108.5 44.5q66 0 109 -42.5t43 -109.5q0 -68 -45 -112t-112 -44q-62 0 -105 42t-43 107z" />
    <glyph glyph-name="cedilla" unicode="&#xb8;" horiz-adv-x="1000" 
d="M335 -151l51 165h137l-44 -141q81 -2 131.5 -42t50.5 -112v-10q-4 -92 -72 -141.5t-175 -49.5q-82 0 -157 25l19 112q62 -19 127 -19q106 0 107 67v3q0 66 -133 66h-52z" />
    <glyph glyph-name="onesuperior" unicode="&#xb9;" horiz-adv-x="713" 
d="M587 689h-144l93 528h-6l-168 -91l24 142l176 98h144z" />
    <glyph glyph-name="ordmasculine" unicode="&#xba;" horiz-adv-x="751" 
d="M564 1316q127 0 203 -82.5t58 -217.5q0 -9 -7 -44l-6 -36q-18 -112 -89.5 -172t-178.5 -60q-127 0 -203.5 80t-57.5 221q0 2 3 22t3 23l7 37q18 106 90.5 167.5t177.5 61.5zM569 1200q-55 0 -91 -37.5t-47 -99.5l-7 -37q0 -1 -3 -17.5t-3 -18.5q-12 -73 20 -121t99 -48
q59 0 93.5 38t45.5 100l7 36q0 1 3 17.5t3 18.5q12 73 -21.5 121t-98.5 48z" />
    <glyph glyph-name="guillemotright" unicode="&#xbb;" horiz-adv-x="1314" 
d="M789 559l-413 -404h-215l418 414l1 6l-258 394h202l267 -402zM1265 559l-414 -404h-214l418 414l1 6l-258 394h201l268 -402z" />
    <glyph glyph-name="onequarter" unicode="&#xbc;" horiz-adv-x="1597" 
d="M1301 678h212l-75 -431h88l-17 -118h-89l-23 -129h-141l22 129h-334l18 118q97 143 339 431zM1108 241h192l59 319h-8q-184 -232 -242 -314zM522 689h-144l93 528h-6l-168 -91l24 142l176 98h144zM416 0h-173l563 683l563 683h172l-563 -683z" />
    <glyph glyph-name="onehalf" unicode="&#xbd;" horiz-adv-x="1597" 
d="M1254 474h-140q7 95 74 155t173 60q96 0 160 -52t64 -140q0 -65 -35 -114.5t-106 -110.5q-5 -3 -86 -70.5t-88 -73.5v-2h282l-22 -125h-483l19 105l274 242q30 28 43.5 41t32 42.5t18.5 55.5q0 32 -22.5 53.5t-61.5 21.5q-41 0 -66.5 -25t-29.5 -63zM521 689h-144l93 528
h-6l-168 -91l24 142l176 98h144zM415 0h-173l563 683l563 683h172l-563 -683z" />
    <glyph glyph-name="threequarters" unicode="&#xbe;" horiz-adv-x="1529" 
d="M1306 678h212l-75 -431h88l-17 -118h-89l-23 -129h-141l22 129h-334l18 118q97 143 339 431zM1113 241h192l59 319h-8q-184 -232 -242 -314zM338 985l7 114h60q52 0 89 22t37 62q0 33 -25.5 53t-63.5 20q-37 0 -60 -18.5t-29 -46.5h-141q8 82 71 133.5t161 51.5
q93 0 162.5 -46.5t69.5 -132.5q0 -63 -38 -106t-91 -54l-1 -3q48 -16 75.5 -55t27.5 -95q0 -92 -73.5 -148.5t-187.5 -53.5q-104 3 -167.5 54t-68.5 136q-1 12 -1 26h132q-1 -1 -1 -3q4 -40 34 -63.5t76 -23.5q47 0 77.5 24t30.5 67q0 75 -103 85q-12 1 -59 1zM408 0h-173
l563 683l563 683h172l-563 -683z" />
    <glyph glyph-name="questiondown" unicode="&#xbf;" horiz-adv-x="1056" 
d="M852 955q0 -65 -43 -107t-109 -42q-67 0 -110 41t-43 105t43.5 105t112.5 41q64 0 106.5 -40.5t42.5 -102.5zM958 47q-8 -75 -38 -139.5t-81.5 -115t-130.5 -79.5t-178 -29q-115 0 -207.5 36.5t-151 115.5t-58.5 190q0 66 21 121t61.5 97.5t77.5 69.5t92 59
q100 58 128 83q55 48 65 128l12 62h190l-12 -66q-15 -119 -64.5 -183t-174.5 -135q-31 -18 -41 -23.5t-37 -23.5t-38 -28t-30 -29t-27 -35.5t-15 -39t-7 -46.5q0 -83 63.5 -129t156.5 -46q98 0 157 52t73 133h194z" />
    <glyph glyph-name="Agrave" unicode="&#xc0;" horiz-adv-x="1270" 
d="M44 0l714 1366h235l234 -1366h-217l-59 383h-492l-197 -383h-218zM844 1131h-13l-292 -577h391zM1028 1498h-205l-310 200h236z" />
    <glyph glyph-name="Aacute" unicode="&#xc1;" horiz-adv-x="1270" 
d="M44 0l714 1366h235l234 -1366h-217l-59 383h-492l-197 -383h-218zM844 1131h-13l-292 -577h391zM741 1498l294 204h245l-330 -204h-209z" />
    <glyph glyph-name="Acircumflex" unicode="&#xc2;" horiz-adv-x="1270" 
d="M44 0l714 1366h235l234 -1366h-217l-59 383h-492l-197 -383h-218zM844 1131h-13l-292 -577h391zM547 1481l294 238h195l203 -238h-183l-127 139h-13l-175 -139h-194z" />
    <glyph glyph-name="Atilde" unicode="&#xc3;" horiz-adv-x="1270" 
d="M44 0l714 1366h235l234 -1366h-217l-59 383h-492l-197 -383h-218zM844 1131h-13l-292 -577h391zM864 1525q-2 2 -9 9.5t-10 10t-10 9t-11 9t-10.5 7t-12 6.5t-12.5 3.5t-14 1.5q-66 0 -73 -102h-130q0 93 49.5 160t143.5 67q49 0 85.5 -18t76.5 -56q4 -4 20 -19.5
t22 -20.5t19.5 -11t26.5 -6q36 0 54.5 35t21.5 78h130q0 -90 -54 -160t-140 -70q-58 0 -93 17t-70 50z" />
    <glyph glyph-name="Adieresis" unicode="&#xc4;" horiz-adv-x="1270" 
d="M44 0l714 1366h235l234 -1366h-217l-59 383h-492l-197 -383h-218zM844 1131h-13l-292 -577h391zM620 1584q0 50 30.5 80t79.5 30q48 0 79 -30t31 -80q0 -46 -31 -75.5t-79 -29.5t-79 29.5t-31 75.5zM979 1584q0 49 30.5 79.5t77.5 30.5q50 0 81 -30t31 -80q0 -47 -31 -76
t-81 -29q-46 0 -77 29.5t-31 75.5z" />
    <glyph glyph-name="Aring" unicode="&#xc5;" horiz-adv-x="1270" 
d="M858 1416q35 -13 66.5 3t40.5 49t-9.5 63.5t-54.5 43.5q-34 13 -66 -2.5t-42 -48.5q-9 -32 10.5 -63t54.5 -45zM844 1131h-13l-292 -577h391zM459 383l-197 -383h-218l700 1333q-82 61 -82 164q0 94 63 158.5t154 64.5q90 0 153 -64t63 -158q0 -54 -26.5 -101t-70.5 -75
l229 -1322h-217l-59 383h-492z" />
    <glyph glyph-name="AE" unicode="&#xc6;" horiz-adv-x="1853" 
d="M1082 1122l-426 -570h336l107 570h-17zM894 0l68 376h-415l-294 -376h-236l1017 1366h929l-31 -186h-624l-72 -391h592l-29 -179h-593l-78 -424h628l-30 -186h-832z" />
    <glyph glyph-name="Ccedilla" unicode="&#xc7;" horiz-adv-x="1306" 
d="M676 -482q-82 0 -157 25l19 112q62 -19 127 -19q105 0 107 67v3q0 66 -134 66h-51l10 77l40 134q-183 32 -295 165t-112 362q0 92 9 140l45 228q47 247 199.5 381t372.5 134q115 0 211 -35.5t158.5 -95t97 -134.5t34.5 -156q0 -36 -5 -54h-199q1 11 1 38q-4 44 -24 85
t-55 77t-93 57.5t-129 21.5q-290 0 -363 -356l-37 -179q-13 -69 -13 -151q0 -168 91.5 -254t234.5 -86q130 0 208.5 62.5t98.5 158.5h202q-1 -5 -4 -22t-3 -19q-13 -69 -48.5 -132t-94 -118t-150 -89.5t-203.5 -37.5l-31 -101q81 -2 131.5 -42t50.5 -112v-10
q-4 -92 -72 -141.5t-175 -49.5z" />
    <glyph glyph-name="Egrave" unicode="&#xc8;" horiz-adv-x="1146" 
d="M983 1498h-205l-310 200h236zM1049 188l-30 -188h-835l241 1366h830l-31 -188h-622l-73 -389h591l-28 -179h-592l-78 -422h627z" />
    <glyph glyph-name="Eacute" unicode="&#xc9;" horiz-adv-x="1146" 
d="M696 1498l294 204h245l-330 -204h-209zM1049 188l-30 -188h-835l241 1366h830l-31 -188h-622l-73 -389h591l-28 -179h-592l-78 -422h627z" />
    <glyph glyph-name="Ecircumflex" unicode="&#xca;" horiz-adv-x="1146" 
d="M502 1481l294 238h195l203 -238h-183l-127 139h-13l-175 -139h-194zM1049 188l-30 -188h-835l241 1366h830l-31 -188h-622l-73 -389h591l-28 -179h-592l-78 -422h627z" />
    <glyph glyph-name="Edieresis" unicode="&#xcb;" horiz-adv-x="1146" 
d="M575 1584q0 50 30.5 80t79.5 30q48 0 79 -30t31 -80q0 -46 -31 -75.5t-79 -29.5t-79 29.5t-31 75.5zM934 1584q0 49 30.5 79.5t77.5 30.5q50 0 81 -30t31 -80q0 -47 -31 -76t-81 -29q-46 0 -77 29.5t-31 75.5zM1049 188l-30 -188h-835l241 1366h830l-31 -188h-622
l-73 -389h591l-28 -179h-592l-78 -422h627z" />
    <glyph glyph-name="Igrave" unicode="&#xcc;" horiz-adv-x="576" 
d="M392 0h-208l241 1366h208zM688 1498h-205l-310 200h236z" />
    <glyph glyph-name="Iacute" unicode="&#xcd;" horiz-adv-x="576" 
d="M392 0h-208l241 1366h208zM401 1498l294 204h245l-330 -204h-209z" />
    <glyph glyph-name="Icircumflex" unicode="&#xce;" horiz-adv-x="576" 
d="M392 0h-208l241 1366h208zM207 1481l294 238h195l203 -238h-183l-127 139h-13l-175 -139h-194z" />
    <glyph glyph-name="Idieresis" unicode="&#xcf;" horiz-adv-x="576" 
d="M392 0h-208l241 1366h208zM280 1584q0 50 30.5 80t79.5 30q48 0 79 -30t31 -80q0 -46 -31 -75.5t-79 -29.5t-79 29.5t-31 75.5zM639 1584q0 49 30.5 79.5t77.5 30.5q50 0 81 -30t31 -80q0 -47 -31 -76t-81 -29q-46 0 -77 29.5t-31 75.5z" />
    <glyph glyph-name="Eth" unicode="&#xd0;" horiz-adv-x="1459" 
d="M519 1366h409q262 0 403.5 -142.5t141.5 -381.5q0 -79 -11 -146q-6 -53 -27 -148q-51 -267 -240 -407.5t-509 -140.5h-408l107 599h-163l32 193h162zM696 1178l-71 -386h284l-32 -193h-284l-77 -411h163q224 0 367 95.5t182 286.5q0 3 12 65t13 68q8 47 8 123
q0 177 -101 264.5t-295 87.5h-169z" />
    <glyph glyph-name="Ntilde" unicode="&#xd1;" horiz-adv-x="1429" 
d="M960 1525q-2 2 -9 9.5t-10 10t-10 9t-11 9t-10.5 7t-12 6.5t-12.5 3.5t-14 1.5q-66 0 -73 -102h-130q0 93 49.5 160t143.5 67q49 0 85.5 -18t76.5 -56q4 -4 20 -19.5t22 -20.5t19.5 -11t26.5 -6q36 0 54.5 35t21.5 78h130q0 -90 -54 -160t-140 -70q-58 0 -93 17t-70 50z
M1245 0h-187l-481 998h-11l-180 -998h-202l241 1366h189l477 -998h11l181 998h202z" />
    <glyph glyph-name="Ograve" unicode="&#xd2;" horiz-adv-x="1388" 
d="M1091 1498h-205l-310 200h236zM485 842l-34 -180q-15 -78 -15 -149q0 -158 92 -251t254 -93q302 0 369 371l35 192q9 48 9 128q0 154 -92.5 246.5t-250.5 92.5q-142 0 -237.5 -86.5t-129.5 -270.5zM240 676l37 205q44 243 200.5 377.5t381.5 134.5q247 0 397.5 -143
t150.5 -392q0 -81 -15 -163l-38 -206q-46 -249 -196 -382.5t-401 -133.5q-232 0 -381.5 137.5t-149.5 376.5q0 109 14 189z" />
    <glyph glyph-name="Oacute" unicode="&#xd3;" horiz-adv-x="1388" 
d="M804 1498l294 204h245l-330 -204h-209zM485 842l-34 -180q-15 -78 -15 -149q0 -158 92 -251t254 -93q302 0 369 371l35 192q9 48 9 128q0 154 -92.5 246.5t-250.5 92.5q-142 0 -237.5 -86.5t-129.5 -270.5zM240 676l37 205q44 243 200.5 377.5t381.5 134.5
q247 0 397.5 -143t150.5 -392q0 -81 -15 -163l-38 -206q-46 -249 -196 -382.5t-401 -133.5q-232 0 -381.5 137.5t-149.5 376.5q0 109 14 189z" />
    <glyph glyph-name="Ocircumflex" unicode="&#xd4;" horiz-adv-x="1388" 
d="M610 1481l294 238h195l203 -238h-183l-127 139h-13l-175 -139h-194zM485 842l-34 -180q-15 -78 -15 -149q0 -158 92 -251t254 -93q302 0 369 371l35 192q9 48 9 128q0 154 -92.5 246.5t-250.5 92.5q-142 0 -237.5 -86.5t-129.5 -270.5zM240 676l37 205
q44 243 200.5 377.5t381.5 134.5q247 0 397.5 -143t150.5 -392q0 -81 -15 -163l-38 -206q-46 -249 -196 -382.5t-401 -133.5q-232 0 -381.5 137.5t-149.5 376.5q0 109 14 189z" />
    <glyph glyph-name="Otilde" unicode="&#xd5;" horiz-adv-x="1388" 
d="M485 842l-34 -180q-15 -78 -15 -149q0 -158 92 -251t254 -93q302 0 369 371l35 192q9 48 9 128q0 154 -92.5 246.5t-250.5 92.5q-142 0 -237.5 -86.5t-129.5 -270.5zM240 676l37 205q44 243 200.5 377.5t381.5 134.5q247 0 397.5 -143t150.5 -392q0 -81 -15 -163
l-38 -206q-46 -249 -196 -382.5t-401 -133.5q-232 0 -381.5 137.5t-149.5 376.5q0 109 14 189zM927 1525q-2 2 -9 9.5t-10 10t-10 9t-11 9t-10.5 7t-12 6.5t-12.5 3.5t-14 1.5q-66 0 -73 -102h-130q0 93 49.5 160t143.5 67q49 0 85.5 -18t76.5 -56q4 -4 20 -19.5t22 -20.5
t19.5 -11t26.5 -6q36 0 54.5 35t21.5 78h130q0 -90 -54 -160t-140 -70q-58 0 -93 17t-70 50z" />
    <glyph glyph-name="Odieresis" unicode="&#xd6;" horiz-adv-x="1388" 
d="M683 1584q0 50 30.5 80t79.5 30q48 0 79 -30t31 -80q0 -46 -31 -75.5t-79 -29.5t-79 29.5t-31 75.5zM1042 1584q0 49 30.5 79.5t77.5 30.5q50 0 81 -30t31 -80q0 -47 -31 -76t-81 -29q-46 0 -77 29.5t-31 75.5zM485 842l-34 -180q-15 -78 -15 -149q0 -158 92 -251
t254 -93q302 0 369 371l35 192q9 48 9 128q0 154 -92.5 246.5t-250.5 92.5q-142 0 -237.5 -86.5t-129.5 -270.5zM240 676l37 205q44 243 200.5 377.5t381.5 134.5q247 0 397.5 -143t150.5 -392q0 -81 -15 -163l-38 -206q-46 -249 -196 -382.5t-401 -133.5
q-232 0 -381.5 137.5t-149.5 376.5q0 109 14 189z" />
    <glyph glyph-name="multiply" unicode="&#xd7;" horiz-adv-x="1155" 
d="M1143 790l-362 -293l255 -315l-130 -118l-255 316l-344 -291l-100 138l344 290l-253 315l130 117l254 -315l361 293z" />
    <glyph glyph-name="Oslash" unicode="&#xd8;" horiz-adv-x="1387" 
d="M237 676l37 205q43 243 199.5 377.5t381.5 134.5q139 0 250.5 -46.5t182.5 -134.5l110 103l92 -96l-132 -123q45 -104 45 -238q0 -88 -15 -163l-38 -206q-46 -249 -196 -382.5t-400 -133.5q-132 0 -240.5 45t-178.5 131l-109 -103l-88 101l126 119q-41 97 -41 221
q0 115 14 189zM1190 833q0 46 -8 83l-693 -613q90 -134 290 -134q148 0 242 93t127 278l33 177q9 42 9 116zM1137 1061q-43 66 -117 102t-171 36q-142 0 -237.5 -86.5t-130.5 -270.5l-34 -180q-13 -67 -14 -136q0 -43 9 -79z" />
    <glyph glyph-name="Ugrave" unicode="&#xd9;" horiz-adv-x="1389" 
d="M1095 1498h-205l-310 200h236zM618 1366l-146 -825q-8 -34 -8 -92q0 -125 79 -200.5t216 -75.5q126 0 213 71t113 214l161 908h211l-166 -944q-39 -222 -183 -335.5t-356 -113.5q-220 0 -361 118t-141 326q0 59 13 131l144 818h211z" />
    <glyph glyph-name="Uacute" unicode="&#xda;" horiz-adv-x="1389" 
d="M808 1498l294 204h245l-330 -204h-209zM618 1366l-146 -825q-8 -34 -8 -92q0 -125 79 -200.5t216 -75.5q126 0 213 71t113 214l161 908h211l-166 -944q-39 -222 -183 -335.5t-356 -113.5q-220 0 -361 118t-141 326q0 59 13 131l144 818h211z" />
    <glyph glyph-name="Ucircumflex" unicode="&#xdb;" horiz-adv-x="1389" 
d="M614 1481l294 238h195l203 -238h-183l-127 139h-13l-175 -139h-194zM618 1366l-146 -825q-8 -34 -8 -92q0 -125 79 -200.5t216 -75.5q126 0 213 71t113 214l161 908h211l-166 -944q-39 -222 -183 -335.5t-356 -113.5q-220 0 -361 118t-141 326q0 59 13 131l144 818h211z
" />
    <glyph glyph-name="Udieresis" unicode="&#xdc;" horiz-adv-x="1389" 
d="M687 1584q0 50 30.5 80t79.5 30q48 0 79 -30t31 -80q0 -46 -31 -75.5t-79 -29.5t-79 29.5t-31 75.5zM1046 1584q0 49 30.5 79.5t77.5 30.5q50 0 81 -30t31 -80q0 -47 -31 -76t-81 -29q-46 0 -77 29.5t-31 75.5zM618 1366l-146 -825q-8 -34 -8 -92q0 -125 79 -200.5
t216 -75.5q126 0 213 71t113 214l161 908h211l-166 -944q-39 -222 -183 -335.5t-356 -113.5q-220 0 -361 118t-141 326q0 59 13 131l144 818h211z" />
    <glyph glyph-name="Yacute" unicode="&#xdd;" horiz-adv-x="1158" 
d="M782 552l-99 -552h-207l98 548l-326 818h220l232 -612h11l438 612h236zM687 1498l294 204h245l-330 -204h-209z" />
    <glyph glyph-name="Thorn" unicode="&#xde;" horiz-adv-x="1213" 
d="M423 1365h205l-45 -252h250q194 0 300 -95t106 -256q0 -30 -7 -83q-53 -392 -548 -392h-244l-52 -287h-206zM790 934h-237l-84 -470h225q112 0 184.5 30t104.5 76t43 114q6 38 6 61q0 189 -242 189z" />
    <glyph glyph-name="germandbls" unicode="&#xdf;" horiz-adv-x="1299" 
d="M390 0h-205l205 1151q25 141 136.5 222t280.5 81q194 0 321 -104.5t127 -275.5q0 -75 -28.5 -140.5t-73.5 -107.5t-96.5 -68t-101.5 -32l-1 -10q131 -24 213.5 -113.5t82.5 -247.5q0 -92 -35 -166.5t-94 -122.5t-135.5 -73.5t-162.5 -25.5q-78 0 -150.5 18t-108.5 38
l30 170q28 -16 87 -31.5t118 -15.5q104 0 178 60t74 170q0 121 -86 190.5t-207 70.5h-64l32 191h62q121 0 196 63t75 171q0 102 -72 157.5t-181 55.5q-91 0 -147.5 -43.5t-72.5 -128.5z" />
    <glyph glyph-name="agrave" unicode="&#xe0;" horiz-adv-x="1116" 
d="M479 -17q-135 0 -226 80t-91 217q0 22 2 36q11 143 121 222.5t307 79.5h274l12 69q4 20 4 44q0 71 -50.5 122t-156.5 51q-84 0 -137 -33t-70 -85h-195q22 125 132 206.5t285 81.5q185 0 285.5 -92t100.5 -247q0 -44 -17 -144l-104 -591h-194l25 140h-13
q-32 -63 -108.5 -110t-185.5 -47zM366 307q0 -67 48 -110t131 -43q99 0 176 57t94 144l24 121h-245q-112 0 -170 -48t-58 -121zM850 1211h-159l-241 345h211z" />
    <glyph glyph-name="aacute" unicode="&#xe1;" horiz-adv-x="1116" 
d="M479 -17q-135 0 -226 80t-91 217q0 22 2 36q11 143 121 222.5t307 79.5h274l12 69q4 20 4 44q0 71 -50.5 122t-156.5 51q-84 0 -137 -33t-70 -85h-195q22 125 132 206.5t285 81.5q185 0 285.5 -92t100.5 -247q0 -44 -17 -144l-104 -591h-194l25 140h-13
q-32 -63 -108.5 -110t-185.5 -47zM366 307q0 -67 48 -110t131 -43q99 0 176 57t94 144l24 121h-245q-112 0 -170 -48t-58 -121zM756 1211h-153l283 347h208z" />
    <glyph glyph-name="acircumflex" unicode="&#xe2;" horiz-adv-x="1116" 
d="M479 -17q-135 0 -226 80t-91 217q0 22 2 36q11 143 121 222.5t307 79.5h274l12 69q4 20 4 44q0 71 -50.5 122t-156.5 51q-84 0 -137 -33t-70 -85h-195q22 125 132 206.5t285 81.5q185 0 285.5 -92t100.5 -247q0 -44 -17 -144l-104 -591h-194l25 140h-13
q-32 -63 -108.5 -110t-185.5 -47zM366 307q0 -67 48 -110t131 -43q99 0 176 57t94 144l24 121h-245q-112 0 -170 -48t-58 -121zM421 1208l308 368h141l182 -368h-164l-104 245h-7l-190 -245h-166z" />
    <glyph glyph-name="atilde" unicode="&#xe3;" horiz-adv-x="1116" 
d="M479 -17q-135 0 -226 80t-91 217q0 22 2 36q11 143 121 222.5t307 79.5h274l12 69q4 20 4 44q0 71 -50.5 122t-156.5 51q-84 0 -137 -33t-70 -85h-195q22 125 132 206.5t285 81.5q185 0 285.5 -92t100.5 -247q0 -44 -17 -144l-104 -591h-194l25 140h-13
q-32 -63 -108.5 -110t-185.5 -47zM366 307q0 -67 48 -110t131 -43q99 0 176 57t94 144l24 121h-245q-112 0 -170 -48t-58 -121zM844 1134q-49 0 -82.5 22.5t-63.5 62.5q-2 3 -15.5 21t-18 23t-15.5 15.5t-22 14t-24 3.5q-36 0 -54 -30t-27 -80h-130q9 115 65.5 184.5
t144.5 69.5q32 0 57.5 -8t47.5 -27t32.5 -31t31.5 -38q2 -2 7.5 -9.5t7 -10t6.5 -9t7.5 -8.5t7 -7t7.5 -7l7.5 -5t8.5 -4t9 -2t10 -1q35 0 56 34.5t29 81.5h130q-5 -103 -67 -179t-153 -76z" />
    <glyph glyph-name="adieresis" unicode="&#xe4;" horiz-adv-x="1116" 
d="M479 -17q-135 0 -226 80t-91 217q0 22 2 36q11 143 121 222.5t307 79.5h274l12 69q4 20 4 44q0 71 -50.5 122t-156.5 51q-84 0 -137 -33t-70 -85h-195q22 125 132 206.5t285 81.5q185 0 285.5 -92t100.5 -247q0 -44 -17 -144l-104 -591h-194l25 140h-13
q-32 -63 -108.5 -110t-185.5 -47zM366 307q0 -67 48 -110t131 -43q99 0 176 57t94 144l24 121h-245q-112 0 -170 -48t-58 -121zM453 1303q0 49 32 80t81 31q50 0 82 -31t32 -80q0 -47 -32 -78t-82 -31q-49 0 -81 31t-32 78zM823 1303q0 49 31 80t79 31q52 0 84 -30.5
t32 -80.5q0 -48 -32.5 -78.5t-83.5 -30.5q-47 0 -78.5 31t-31.5 78z" />
    <glyph glyph-name="aring" unicode="&#xe5;" horiz-adv-x="1116" 
d="M479 -17q-135 0 -226 80t-91 217q0 22 2 36q11 143 121 222.5t307 79.5h274l12 69q4 20 4 44q0 71 -50.5 122t-156.5 51q-84 0 -137 -33t-70 -85h-195q22 125 132 206.5t285 81.5q185 0 285.5 -92t100.5 -247q0 -44 -17 -144l-104 -591h-194l25 140h-13
q-32 -63 -108.5 -110t-185.5 -47zM366 307q0 -67 48 -110t131 -43q99 0 176 57t94 144l24 121h-245q-112 0 -170 -48t-58 -121zM774 1314q42 0 71.5 29t29.5 70q0 42 -29.5 70.5t-71.5 28.5t-72 -28.5t-30 -70.5q0 -40 30.5 -69.5t71.5 -29.5zM773 1213q-83 0 -140.5 58.5
t-57.5 141.5q0 84 58.5 141.5t141.5 57.5q82 0 138.5 -58t56.5 -141q0 -84 -57.5 -142t-139.5 -58z" />
    <glyph glyph-name="ae" unicode="&#xe6;" horiz-adv-x="1762" 
d="M1269 -19q-128 0 -222.5 58t-137.5 166h-4q-124 -222 -393 -222q-162 0 -256 79t-94 226q0 161 114 245.5t319 84.5h271l13 74q3 21 3 41q0 69 -51 120t-157 51q-84 0 -136.5 -33t-69.5 -85h-195q21 124 131.5 206t279.5 82q227 0 322 -144h4q60 68 150.5 106t198.5 38
q90 0 161.5 -26t117.5 -70t74.5 -102t37 -121.5t0.5 -129.5q0 -2 -25 -146h-682q-11 -58 -11 -86q0 -102 57.5 -169t178.5 -67q87 0 146 35t75 90h198q-18 -119 -134.5 -210t-283.5 -91zM366 303q0 -66 47 -107.5t131 -41.5q101 0 177.5 58.5t95.5 150.5l22 113h-245
q-113 0 -170.5 -49.5t-57.5 -123.5zM1558 624q0 2 1.5 11t1.5 10q20 110 -36.5 184.5t-174.5 74.5q-98 0 -172.5 -56.5t-97.5 -163.5q-5 -21 -8 -35t-4 -19t-1 -6h491z" />
    <glyph glyph-name="ccedilla" unicode="&#xe7;" horiz-adv-x="1078" 
d="M519 -482q-85 0 -157 25l19 112q62 -19 126 -19q106 0 107 67v3q0 66 -133 66h-51l9 77l46 148q-138 36 -216 139.5t-78 257.5q0 69 14 148l24 136q33 194 157 295t307 101q185 0 297.5 -97.5t112.5 -248.5q0 -17 -1 -20h-189v12q0 67 -59.5 122.5t-161.5 55.5
q-103 0 -175 -67.5t-95 -191.5l-20 -113q-10 -59 -10 -102q0 -124 60.5 -192.5t178.5 -68.5q86 0 141.5 35.5t69.5 91.5h200q-22 -141 -134.5 -222.5t-275.5 -85.5h-14l-35 -109q82 -2 132.5 -42t50.5 -112q0 -7 -1 -10q-3 -92 -71 -141.5t-175 -49.5z" />
    <glyph glyph-name="egrave" unicode="&#xe8;" horiz-adv-x="1111" 
d="M875 1211h-159l-241 345h211zM609 -19q-186 0 -302 106.5t-116 303.5q0 70 17 155l24 131q33 190 161.5 293.5t314.5 103.5q91 0 164 -26t119.5 -70t75.5 -102t37.5 -121.5t0.5 -129.5q0 -2 -25 -146h-685q-9 -36 -9 -88q0 -100 57.5 -167t179.5 -67q88 0 146.5 35.5
t74.5 89.5h198q-9 -57 -43.5 -110.5t-88.5 -96t-132.5 -68.5t-168.5 -26zM909 624q3 9 3 21q21 110 -35.5 184.5t-174.5 74.5q-96 0 -169 -55.5t-97 -164.5l-13 -60h486z" />
    <glyph glyph-name="eacute" unicode="&#xe9;" horiz-adv-x="1111" 
d="M781 1211h-153l283 347h208zM609 -19q-186 0 -302 106.5t-116 303.5q0 70 17 155l24 131q33 190 161.5 293.5t314.5 103.5q91 0 164 -26t119.5 -70t75.5 -102t37.5 -121.5t0.5 -129.5q0 -2 -25 -146h-685q-9 -36 -9 -88q0 -100 57.5 -167t179.5 -67q88 0 146.5 35.5
t74.5 89.5h198q-9 -57 -43.5 -110.5t-88.5 -96t-132.5 -68.5t-168.5 -26zM909 624q3 9 3 21q21 110 -35.5 184.5t-174.5 74.5q-96 0 -169 -55.5t-97 -164.5l-13 -60h486z" />
    <glyph glyph-name="ecircumflex" unicode="&#xea;" horiz-adv-x="1111" 
d="M446 1208l308 368h141l182 -368h-164l-104 245h-7l-190 -245h-166zM609 -19q-186 0 -302 106.5t-116 303.5q0 70 17 155l24 131q33 190 161.5 293.5t314.5 103.5q91 0 164 -26t119.5 -70t75.5 -102t37.5 -121.5t0.5 -129.5q0 -2 -25 -146h-685q-9 -36 -9 -88
q0 -100 57.5 -167t179.5 -67q88 0 146.5 35.5t74.5 89.5h198q-9 -57 -43.5 -110.5t-88.5 -96t-132.5 -68.5t-168.5 -26zM909 624q3 9 3 21q21 110 -35.5 184.5t-174.5 74.5q-96 0 -169 -55.5t-97 -164.5l-13 -60h486z" />
    <glyph glyph-name="edieresis" unicode="&#xeb;" horiz-adv-x="1111" 
d="M609 -19q-186 0 -302 106.5t-116 303.5q0 70 17 155l24 131q33 190 161.5 293.5t314.5 103.5q91 0 164 -26t119.5 -70t75.5 -102t37.5 -121.5t0.5 -129.5q0 -2 -25 -146h-685q-9 -36 -9 -88q0 -100 57.5 -167t179.5 -67q88 0 146.5 35.5t74.5 89.5h198
q-9 -57 -43.5 -110.5t-88.5 -96t-132.5 -68.5t-168.5 -26zM909 624q3 9 3 21q21 110 -35.5 184.5t-174.5 74.5q-96 0 -169 -55.5t-97 -164.5l-13 -60h486zM478 1303q0 49 32 80t81 31q50 0 82 -31t32 -80q0 -47 -32 -78t-82 -31q-49 0 -81 31t-32 78zM848 1303q0 49 31 80
t79 31q52 0 84 -30.5t32 -80.5q0 -48 -32.5 -78.5t-83.5 -30.5q-47 0 -78.5 31t-31.5 78z" />
    <glyph glyph-name="igrave" unicode="&#xec;" horiz-adv-x="600" 
d="M615 1211h-159l-241 345h211zM187 0l187 1056h203l-187 -1056h-203z" />
    <glyph glyph-name="iacute" unicode="&#xed;" horiz-adv-x="600" 
d="M521 1211h-153l283 347h208zM187 0l187 1056h203l-187 -1056h-203z" />
    <glyph glyph-name="icircumflex" unicode="&#xee;" horiz-adv-x="600" 
d="M186 1208l308 368h141l182 -368h-164l-104 245h-7l-190 -245h-166zM187 0l187 1056h203l-187 -1056h-203z" />
    <glyph glyph-name="idieresis" unicode="&#xef;" horiz-adv-x="600" 
d="M187 0l187 1056h203l-187 -1056h-203zM218 1303q0 49 32 80t81 31q50 0 82 -31t32 -80q0 -47 -32 -78t-82 -31q-49 0 -81 31t-32 78zM588 1303q0 49 31 80t79 31q52 0 84 -30.5t32 -80.5q0 -48 -32.5 -78.5t-83.5 -30.5q-47 0 -78.5 31t-31.5 78z" />
    <glyph glyph-name="eth" unicode="&#xf0;" horiz-adv-x="1201" 
d="M1101 389q-35 -183 -156 -296.5t-310 -113.5q-200 0 -322 120t-122 319q0 58 11 120q1 6 6 33.5t10 52.5l4 25q32 175 154 276.5t289 101.5q116 0 188.5 -45t110.5 -108l7 -1q0 63 -2 70q-2 125 -81 258l-292 -66l-18 116l242 52q-76 99 -166 179l173 72q91 -66 183 -199
l251 57l23 -112l-209 -44q104 -198 90 -452q0 -71 -14 -147zM692 858q-112 0 -185.5 -73t-94.5 -197l-12 -76q-8 -48 -8 -90q0 -119 64 -191t178 -72q110 0 180.5 71.5t92.5 197.5l14 87q9 46 9 93q0 117 -65.5 183.5t-172.5 66.5z" />
    <glyph glyph-name="ntilde" unicode="&#xf1;" horiz-adv-x="1209" 
d="M927 1134q-49 0 -82.5 22.5t-63.5 62.5q-2 3 -15.5 21t-18 23t-15.5 15.5t-22 14t-24 3.5q-36 0 -54 -30t-27 -80h-130q9 115 65.5 184.5t144.5 69.5q32 0 57.5 -8t47.5 -27t32.5 -31t31.5 -38q2 -2 7.5 -9.5t7 -10t6.5 -9t7.5 -8.5t7 -7t7.5 -7l7.5 -5t8.5 -4t9 -2
t10 -1q35 0 56 34.5t29 81.5h130q-5 -103 -67 -179t-153 -76zM168 0l185 1056h200l-31 -169h13q93 185 311 185q81 0 144 -26t101 -71.5t57.5 -103.5t19.5 -125q0 -66 -21 -181l-100 -565h-203l101 576q13 78 13 121q0 89 -46.5 144.5t-142.5 55.5q-120 0 -194 -80.5
t-97 -211.5l-107 -605h-203z" />
    <glyph glyph-name="ograve" unicode="&#xf2;" horiz-adv-x="1154" 
d="M892 1211h-159l-241 345h211zM425 634l-21 -114q-10 -62 -10 -104q0 -115 67 -185.5t183 -70.5q107 0 175.5 72t91.5 202l21 122q5 36 5 92q0 110 -66.5 180t-179.5 70q-103 0 -173.5 -68t-92.5 -196zM203 548l22 122q33 185 160 294.5t309 109.5q201 0 325 -116
t124 -319q0 -59 -12 -126l-23 -123q-36 -190 -158 -298.5t-323 -108.5q-189 0 -312 112.5t-123 307.5q0 88 11 145z" />
    <glyph glyph-name="oacute" unicode="&#xf3;" horiz-adv-x="1154" 
d="M798 1211h-153l283 347h208zM425 634l-21 -114q-10 -62 -10 -104q0 -115 67 -185.5t183 -70.5q107 0 175.5 72t91.5 202l21 122q5 36 5 92q0 110 -66.5 180t-179.5 70q-103 0 -173.5 -68t-92.5 -196zM203 548l22 122q33 185 160 294.5t309 109.5q201 0 325 -116t124 -319
q0 -59 -12 -126l-23 -123q-36 -190 -158 -298.5t-323 -108.5q-189 0 -312 112.5t-123 307.5q0 88 11 145z" />
    <glyph glyph-name="ocircumflex" unicode="&#xf4;" horiz-adv-x="1154" 
d="M463 1208l308 368h141l182 -368h-164l-104 245h-7l-190 -245h-166zM425 634l-21 -114q-10 -62 -10 -104q0 -115 67 -185.5t183 -70.5q107 0 175.5 72t91.5 202l21 122q5 36 5 92q0 110 -66.5 180t-179.5 70q-103 0 -173.5 -68t-92.5 -196zM203 548l22 122
q33 185 160 294.5t309 109.5q201 0 325 -116t124 -319q0 -59 -12 -126l-23 -123q-36 -190 -158 -298.5t-323 -108.5q-189 0 -312 112.5t-123 307.5q0 88 11 145z" />
    <glyph glyph-name="otilde" unicode="&#xf5;" horiz-adv-x="1154" 
d="M886 1134q-49 0 -82.5 22.5t-63.5 62.5q-2 3 -15.5 21t-18 23t-15.5 15.5t-22 14t-24 3.5q-36 0 -54 -30t-27 -80h-130q9 115 65.5 184.5t144.5 69.5q32 0 57.5 -8t47.5 -27t32.5 -31t31.5 -38q2 -2 7.5 -9.5t7 -10t6.5 -9t7.5 -8.5t7 -7t7.5 -7l7.5 -5t8.5 -4t9 -2
t10 -1q35 0 56 34.5t29 81.5h130q-5 -103 -67 -179t-153 -76zM425 634l-21 -114q-10 -62 -10 -104q0 -115 67 -185.5t183 -70.5q107 0 175.5 72t91.5 202l21 122q5 36 5 92q0 110 -66.5 180t-179.5 70q-103 0 -173.5 -68t-92.5 -196zM203 548l22 122q33 185 160 294.5
t309 109.5q201 0 325 -116t124 -319q0 -59 -12 -126l-23 -123q-36 -190 -158 -298.5t-323 -108.5q-189 0 -312 112.5t-123 307.5q0 88 11 145z" />
    <glyph glyph-name="odieresis" unicode="&#xf6;" horiz-adv-x="1154" 
d="M495 1303q0 49 32 80t81 31q50 0 82 -31t32 -80q0 -47 -32 -78t-82 -31q-49 0 -81 31t-32 78zM865 1303q0 49 31 80t79 31q52 0 84 -30.5t32 -80.5q0 -48 -32.5 -78.5t-83.5 -30.5q-47 0 -78.5 31t-31.5 78zM425 634l-21 -114q-10 -62 -10 -104q0 -115 67 -185.5
t183 -70.5q107 0 175.5 72t91.5 202l21 122q5 36 5 92q0 110 -66.5 180t-179.5 70q-103 0 -173.5 -68t-92.5 -196zM203 548l22 122q33 185 160 294.5t309 109.5q201 0 325 -116t124 -319q0 -59 -12 -126l-23 -123q-36 -190 -158 -298.5t-323 -108.5q-189 0 -312 112.5
t-123 307.5q0 88 11 145z" />
    <glyph glyph-name="divide" unicode="&#xf7;" horiz-adv-x="1181" 
d="M585 955q0 63 41 103t104 40q65 0 106 -39.5t41 -100.5t-42 -100.5t-107 -39.5q-62 0 -102.5 38.5t-40.5 98.5zM483 146q0 62 41.5 102.5t103.5 40.5q65 0 106.5 -39.5t41.5 -100.5q0 -62 -42 -101t-108 -39q-62 0 -102.5 38.5t-40.5 98.5zM1161 465h-976l28 169h977z
" />
    <glyph glyph-name="oslash" unicode="&#xf8;" horiz-adv-x="1154" 
d="M202 548l22 122q33 185 159.5 294.5t308.5 109.5q221 0 345 -136l123 111l87 -99l-140 -125q34 -83 34 -186q0 -64 -11 -126l-24 -123q-37 -190 -158 -298.5t-322 -108.5q-204 0 -326 124l-126 -113l-81 98l135 121q-38 85 -38 190q0 82 12 145zM423 634l-20 -114
q-10 -56 -10 -94q0 -29 6 -56l494 426q-67 102 -204 102q-103 0 -173 -68t-93 -196zM444 249q67 -89 198 -89q107 0 175.5 72t91.5 202l21 122q5 29 5 76q0 18 -3 35z" />
    <glyph glyph-name="ugrave" unicode="&#xf9;" horiz-adv-x="1198" 
d="M919 1211h-159l-241 345h211zM1215 1056l-185 -1056h-194l31 175h-14q-39 -85 -119 -138.5t-190 -53.5q-156 0 -243 90.5t-87 234.5q0 75 20 181l104 567h203l-103 -572q-13 -80 -13 -128q0 -90 51 -140.5t148 -50.5q119 0 191.5 80t95.5 211l105 600h199z" />
    <glyph glyph-name="uacute" unicode="&#xfa;" horiz-adv-x="1198" 
d="M825 1211h-153l283 347h208zM1215 1056l-185 -1056h-194l31 175h-14q-39 -85 -119 -138.5t-190 -53.5q-156 0 -243 90.5t-87 234.5q0 75 20 181l104 567h203l-103 -572q-13 -80 -13 -128q0 -90 51 -140.5t148 -50.5q119 0 191.5 80t95.5 211l105 600h199z" />
    <glyph glyph-name="ucircumflex" unicode="&#xfb;" horiz-adv-x="1198" 
d="M490 1208l308 368h141l182 -368h-164l-104 245h-7l-190 -245h-166zM1215 1056l-185 -1056h-194l31 175h-14q-39 -85 -119 -138.5t-190 -53.5q-156 0 -243 90.5t-87 234.5q0 75 20 181l104 567h203l-103 -572q-13 -80 -13 -128q0 -90 51 -140.5t148 -50.5q119 0 191.5 80
t95.5 211l105 600h199z" />
    <glyph glyph-name="udieresis" unicode="&#xfc;" horiz-adv-x="1198" 
d="M1215 1056l-185 -1056h-194l31 175h-14q-39 -85 -119 -138.5t-190 -53.5q-156 0 -243 90.5t-87 234.5q0 75 20 181l104 567h203l-103 -572q-13 -80 -13 -128q0 -90 51 -140.5t148 -50.5q119 0 191.5 80t95.5 211l105 600h199zM522 1303q0 49 32 80t81 31q50 0 82 -31
t32 -80q0 -47 -32 -78t-82 -31q-49 0 -81 31t-32 78zM892 1303q0 49 31 80t79 31q52 0 84 -30.5t32 -80.5q0 -48 -32.5 -78.5t-83.5 -30.5q-47 0 -78.5 31t-31.5 78z" />
    <glyph glyph-name="yacute" unicode="&#xfd;" horiz-adv-x="1060" 
d="M1177 1056l-531 -1046q-1 -3 -20 -37t-19 -35q-34 -66 -62.5 -109.5t-64.5 -81t-78 -58t-97.5 -32t-128.5 -11.5q-52 0 -104 13l35 167q40 -10 80 -10q84 0 130 37.5t81 111.5l23 53l-191 1038h212l121 -836h12l386 836h216zM761 1211h-153l283 347h208z" />
    <glyph glyph-name="thorn" unicode="&#xfe;" horiz-adv-x="1206" 
d="M735 -17q-133 0 -216.5 65.5t-105.5 157.5h-8l-98 -563h-204l317 1794h198l-97 -557h13q85 191 304 191q164 0 262 -106.5t98 -294.5q0 -67 -10 -123l-31 -167q-31 -178 -142.5 -287.5t-279.5 -109.5zM452 433q0 -124 73.5 -194.5t173.5 -70.5q102 0 174 73t93 188
l25 133q4 25 4 74q0 125 -61.5 192t-168.5 67q-116 0 -190.5 -75t-95.5 -204l-22 -129q-5 -24 -5 -54z" />
    <glyph glyph-name="ydieresis" unicode="&#xff;" horiz-adv-x="1060" 
d="M1177 1056l-531 -1046q-1 -3 -20 -37t-19 -35q-34 -66 -62.5 -109.5t-64.5 -81t-78 -58t-97.5 -32t-128.5 -11.5q-52 0 -104 13l35 167q40 -10 80 -10q84 0 130 37.5t81 111.5l23 53l-191 1038h212l121 -836h12l386 836h216zM458 1303q0 49 32 80t81 31q50 0 82 -31
t32 -80q0 -47 -32 -78t-82 -31q-49 0 -81 31t-32 78zM828 1303q0 49 31 80t79 31q52 0 84 -30.5t32 -80.5q0 -48 -32.5 -78.5t-83.5 -30.5q-47 0 -78.5 31t-31.5 78z" />
    <glyph glyph-name="Amacron" unicode="&#x100;" horiz-adv-x="1270" 
d="M44 0l714 1366h235l234 -1366h-217l-59 383h-492l-197 -383h-218zM844 1131h-13l-292 -577h391zM1248 1616l-20 -117h-680l20 117h680z" />
    <glyph glyph-name="amacron" unicode="&#x101;" horiz-adv-x="1116" 
d="M479 -17q-135 0 -226 80t-91 217q0 22 2 36q11 143 121 222.5t307 79.5h274l12 69q4 20 4 44q0 71 -50.5 122t-156.5 51q-84 0 -137 -33t-70 -85h-195q22 125 132 206.5t285 81.5q185 0 285.5 -92t100.5 -247q0 -44 -17 -144l-104 -591h-194l25 140h-13
q-32 -63 -108.5 -110t-185.5 -47zM366 307q0 -67 48 -110t131 -43q99 0 176 57t94 144l24 121h-245q-112 0 -170 -48t-58 -121zM1086 1328l-20 -117h-680l20 117h680z" />
    <glyph glyph-name="Abreve" unicode="&#x102;" horiz-adv-x="1270" 
d="M44 0l714 1366h235l234 -1366h-217l-59 383h-492l-197 -383h-218zM844 1131h-13l-292 -577h391zM610 1754h135q-5 -65 41 -103.5t131 -38.5q84 0 136.5 40t62.5 102h138q-13 -116 -102 -194t-252 -78q-150 0 -229.5 81.5t-60.5 190.5z" />
    <glyph glyph-name="abreve" unicode="&#x103;" horiz-adv-x="1116" 
d="M479 -17q-135 0 -226 80t-91 217q0 22 2 36q11 143 121 222.5t307 79.5h274l12 69q4 20 4 44q0 71 -50.5 122t-156.5 51q-84 0 -137 -33t-70 -85h-195q22 125 132 206.5t285 81.5q185 0 285.5 -92t100.5 -247q0 -44 -17 -144l-104 -591h-194l25 140h-13
q-32 -63 -108.5 -110t-185.5 -47zM366 307q0 -67 48 -110t131 -43q99 0 176 57t94 144l24 121h-245q-112 0 -170 -48t-58 -121zM475 1479h131q-9 -65 30 -112t120 -47q80 0 129.5 45.5t59.5 113.5h131q-9 -115 -94 -200t-227 -85q-146 0 -223.5 88t-56.5 197z" />
    <glyph glyph-name="Aogonek" unicode="&#x104;" horiz-adv-x="1270" 
d="M1058 -370q-91 0 -147 50t-53 130q4 153 167 224v5h-22l-52 344h-492l-197 -383h-218l714 1366h235l229 -1331q-84 -21 -139 -66t-56 -112q-1 -40 25.5 -62.5t75.5 -22.5q40 0 80 9l-22 -131q-44 -20 -128 -20zM844 1131h-13l-292 -577h391z" />
    <glyph glyph-name="aogonek" unicode="&#x105;" horiz-adv-x="1116" 
d="M366 307q0 -67 48 -110t131 -43q99 0 176 57t94 144l24 121h-245q-112 0 -170 -48t-58 -121zM902 -366q-58 -21 -133 -21q-91 0 -148.5 51t-44.5 146q3 17 8 33t10 28.5t16 26.5t16.5 22.5t21 21.5t21 18t24.5 17.5t23 15t25.5 15.5t24.5 15l20 117h-13
q-32 -63 -108.5 -110t-185.5 -47q-135 0 -226 80t-91 217q0 29 2 47q15 137 124.5 214t303.5 77h274l12 69q4 20 4 44q0 71 -50.5 122t-156.5 51q-84 0 -137 -33t-70 -85h-195q22 125 132 206.5t285 81.5q185 0 285.5 -92t100.5 -247q0 -44 -17 -144l-101 -571
q-32 -11 -62.5 -25t-65 -35.5t-57.5 -51t-28 -61.5q-7 -42 20.5 -65t76.5 -23q48 0 82 9z" />
    <glyph glyph-name="Cacute" unicode="&#x106;" horiz-adv-x="1306" 
d="M755 1498l294 204h245l-330 -204h-209zM490 841l-37 -179q-13 -69 -13 -151q0 -168 91.5 -254t234.5 -86q130 0 208.5 62.5t98.5 158.5h202q-1 -5 -4 -22t-3 -19q-13 -71 -50 -135.5t-98 -120.5t-156.5 -89t-212.5 -33q-86 0 -163 20t-143 63t-113.5 105t-74.5 151.5
t-27 197.5q0 92 9 140l45 228q47 247 199.5 381t372.5 134q115 0 211 -35.5t158.5 -95t97 -134.5t34.5 -156q0 -36 -5 -54h-199q1 11 1 38q-4 44 -24 85t-55 77t-93 57.5t-129 21.5q-290 0 -363 -356z" />
    <glyph glyph-name="cacute" unicode="&#x107;" horiz-adv-x="1078" 
d="M191 394q0 69 14 148l24 136q33 194 157 295t307 101q185 0 297.5 -97.5t112.5 -248.5q0 -17 -1 -20h-189v12q0 67 -59.5 122.5t-161.5 55.5q-103 0 -175 -67.5t-95 -191.5l-20 -113q-10 -59 -10 -102q0 -124 60.5 -192.5t178.5 -68.5q86 0 141.5 35.5t69.5 91.5h200
q-22 -145 -138.5 -227t-283.5 -82q-196 0 -312.5 112t-116.5 301zM771 1211h-153l283 347h208z" />
    <glyph glyph-name="Ccircumflex" unicode="&#x108;" horiz-adv-x="1306" 
d="M490 841l-37 -179q-13 -69 -13 -151q0 -168 91.5 -254t234.5 -86q130 0 208.5 62.5t98.5 158.5h202q-1 -5 -4 -22t-3 -19q-13 -71 -50 -135.5t-98 -120.5t-156.5 -89t-212.5 -33q-86 0 -163 20t-143 63t-113.5 105t-74.5 151.5t-27 197.5q0 92 9 140l45 228
q47 247 199.5 381t372.5 134q115 0 211 -35.5t158.5 -95t97 -134.5t34.5 -156q0 -36 -5 -54h-199q1 11 1 38q-4 44 -24 85t-55 77t-93 57.5t-129 21.5q-290 0 -363 -356zM561 1481l294 238h195l203 -238h-183l-127 139h-13l-175 -139h-194z" />
    <glyph glyph-name="ccircumflex" unicode="&#x109;" horiz-adv-x="1078" 
d="M436 1208l308 368h141l182 -368h-164l-104 245h-7l-190 -245h-166zM191 394q0 69 14 148l24 136q33 194 157 295t307 101q185 0 297.5 -97.5t112.5 -248.5q0 -17 -1 -20h-189v12q0 67 -59.5 122.5t-161.5 55.5q-103 0 -175 -67.5t-95 -191.5l-20 -113q-10 -59 -10 -102
q0 -124 60.5 -192.5t178.5 -68.5q86 0 141.5 35.5t69.5 91.5h200q-22 -145 -138.5 -227t-283.5 -82q-196 0 -312.5 112t-116.5 301z" />
    <glyph glyph-name="Cdotaccent" unicode="&#x10a;" horiz-adv-x="1306" 
d="M490 841l-37 -179q-13 -69 -13 -151q0 -168 91.5 -254t234.5 -86q130 0 208.5 62.5t98.5 158.5h202q-1 -5 -4 -22t-3 -19q-13 -71 -50 -135.5t-98 -120.5t-156.5 -89t-212.5 -33q-86 0 -163 20t-143 63t-113.5 105t-74.5 151.5t-27 197.5q0 92 9 140l45 228
q47 247 199.5 381t372.5 134q115 0 211 -35.5t158.5 -95t97 -134.5t34.5 -156q0 -36 -5 -54h-199q1 11 1 38q-4 44 -24 85t-55 77t-93 57.5t-129 21.5q-290 0 -363 -356zM812 1610q0 51 33 84.5t81 33.5q50 0 83 -33t33 -85q0 -50 -33 -83t-83 -33q-48 0 -81 33t-33 83z" />
    <glyph glyph-name="cdotaccent" unicode="&#x10b;" horiz-adv-x="1078" 
d="M191 394q0 69 14 148l24 136q33 194 157 295t307 101q185 0 297.5 -97.5t112.5 -248.5q0 -17 -1 -20h-189v12q0 67 -59.5 122.5t-161.5 55.5q-103 0 -175 -67.5t-95 -191.5l-20 -113q-10 -59 -10 -102q0 -124 60.5 -192.5t178.5 -68.5q86 0 141.5 35.5t69.5 91.5h200
q-22 -145 -138.5 -227t-283.5 -82q-196 0 -312.5 112t-116.5 301zM653 1300q0 51 33 84.5t81 33.5q50 0 83 -33t33 -85q0 -50 -33 -83t-83 -33q-48 0 -81 33t-33 83z" />
    <glyph glyph-name="Ccaron" unicode="&#x10c;" horiz-adv-x="1306" 
d="M490 841l-37 -179q-13 -69 -13 -151q0 -168 91.5 -254t234.5 -86q130 0 208.5 62.5t98.5 158.5h202q-1 -5 -4 -22t-3 -19q-13 -71 -50 -135.5t-98 -120.5t-156.5 -89t-212.5 -33q-86 0 -163 20t-143 63t-113.5 105t-74.5 151.5t-27 197.5q0 92 9 140l45 228
q47 247 199.5 381t372.5 134q115 0 211 -35.5t158.5 -95t97 -134.5t34.5 -156q0 -36 -5 -54h-199q1 11 1 38q-4 44 -24 85t-55 77t-93 57.5t-129 21.5q-290 0 -363 -356zM1306 1718l-301 -231h-181l-226 231h201l121 -126h8l162 126h216z" />
    <glyph glyph-name="ccaron" unicode="&#x10d;" horiz-adv-x="1078" 
d="M688 1212l-185 368h163l107 -245h6l187 245h169l-306 -368h-141zM191 394q0 69 14 148l24 136q33 194 157 295t307 101q185 0 297.5 -97.5t112.5 -248.5q0 -17 -1 -20h-189v12q0 67 -59.5 122.5t-161.5 55.5q-103 0 -175 -67.5t-95 -191.5l-20 -113q-10 -59 -10 -102
q0 -124 60.5 -192.5t178.5 -68.5q86 0 141.5 35.5t69.5 91.5h200q-22 -145 -138.5 -227t-283.5 -82q-196 0 -312.5 112t-116.5 301z" />
    <glyph glyph-name="Dcaron" unicode="&#x10e;" horiz-adv-x="1365" 
d="M1306 1718l-301 -231h-181l-226 231h201l121 -126h8l162 126h216zM425 1366h409q262 0 403.5 -142.5t141.5 -381.5q0 -79 -11 -146q0 -6 -12 -71t-15 -77q-51 -266 -240 -407t-508 -141h-409zM603 1178l-180 -990h162q224 0 367.5 95.5t181.5 286.5q2 7 13 66.5t12 66.5
q9 53 9 123q0 177 -101.5 264.5t-294.5 87.5h-169z" />
    <glyph glyph-name="dcaron" unicode="&#x10f;" horiz-adv-x="1404" 
d="M1465 1425h191l-144 -489h-141zM672 1071q126 0 209 -69t96 -150h14l99 571h204l-250 -1423h-201l31 175h-14q-24 -73 -102 -131.5t-198 -58.5q-165 0 -267.5 109.5t-102.5 289.5q0 75 10 131l34 165q33 178 146 284.5t292 106.5zM948 634q0 123 -73.5 191.5t-171.5 68.5
q-109 0 -179 -71.5t-94 -190.5l-27 -131q-6 -32 -6 -85q0 -114 64.5 -182t176.5 -68q111 0 183.5 75.5t96.5 204.5l25 130q5 31 5 58z" />
    <glyph glyph-name="Dcroat" unicode="&#x110;" horiz-adv-x="1459" 
d="M519 1366h409q262 0 403.5 -142.5t141.5 -381.5q0 -79 -11 -146q-6 -53 -27 -148q-51 -267 -240 -407.5t-509 -140.5h-408l107 599h-163l32 193h162zM696 1178l-71 -386h284l-32 -193h-284l-77 -411h163q224 0 367 95.5t182 286.5q0 3 12 65t13 68q8 47 8 123
q0 177 -101 264.5t-295 87.5h-169z" />
    <glyph glyph-name="dcroat" unicode="&#x111;" horiz-adv-x="1200" 
d="M672 1071q127 0 210 -69t96 -150h14l53 310h-219l25 142h223l20 119h196l-21 -119h164l-25 -142h-160l-204 -1162h-201l31 175h-14q-24 -73 -102 -131.5t-198 -58.5q-165 0 -267.5 109.5t-102.5 289.5q0 75 10 131l34 165q33 178 146 284.5t292 106.5zM948 634
q0 123 -73.5 191.5t-171.5 68.5q-110 0 -179 -71.5t-93 -190.5l-28 -131q-6 -32 -6 -85q0 -114 64.5 -182t176.5 -68q111 0 183.5 75.5t96.5 204.5l25 130q5 31 5 58z" />
    <glyph glyph-name="Emacron" unicode="&#x112;" horiz-adv-x="1146" 
d="M1049 188l-30 -188h-835l241 1366h830l-31 -188h-622l-73 -389h591l-28 -179h-592l-78 -422h627zM1203 1616l-20 -117h-680l20 117h680z" />
    <glyph glyph-name="emacron" unicode="&#x113;" horiz-adv-x="1111" 
d="M609 -19q-186 0 -302 106.5t-116 303.5q0 70 17 155l24 131q33 190 161.5 293.5t314.5 103.5q91 0 164 -26t119.5 -70t75.5 -102t37.5 -121.5t0.5 -129.5q0 -2 -25 -146h-685q-9 -36 -9 -88q0 -100 57.5 -167t179.5 -67q88 0 146.5 35.5t74.5 89.5h198
q-9 -57 -43.5 -110.5t-88.5 -96t-132.5 -68.5t-168.5 -26zM909 624q3 9 3 21q21 110 -35.5 184.5t-174.5 74.5q-96 0 -169 -55.5t-97 -164.5l-13 -60h486zM1111 1328l-20 -117h-680l20 117h680z" />
    <glyph glyph-name="Ebreve" unicode="&#x114;" horiz-adv-x="1146" 
d="M1049 188l-30 -188h-835l241 1366h830l-31 -188h-622l-73 -389h591l-28 -179h-592l-78 -422h627zM565 1754h135q-5 -65 41 -103.5t131 -38.5q84 0 136.5 40t62.5 102h138q-13 -116 -102 -194t-252 -78q-150 0 -229.5 81.5t-60.5 190.5z" />
    <glyph glyph-name="ebreve" unicode="&#x115;" horiz-adv-x="1111" 
d="M609 -19q-186 0 -302 106.5t-116 303.5q0 70 17 155l24 131q33 190 161.5 293.5t314.5 103.5q91 0 164 -26t119.5 -70t75.5 -102t37.5 -121.5t0.5 -129.5q0 -2 -25 -146h-685q-9 -36 -9 -88q0 -100 57.5 -167t179.5 -67q88 0 146.5 35.5t74.5 89.5h198
q-9 -57 -43.5 -110.5t-88.5 -96t-132.5 -68.5t-168.5 -26zM909 624q3 9 3 21q21 110 -35.5 184.5t-174.5 74.5q-96 0 -169 -55.5t-97 -164.5l-13 -60h486zM500 1479h131q-9 -65 30 -112t120 -47q80 0 129.5 45.5t59.5 113.5h131q-9 -115 -94 -200t-227 -85q-146 0 -223.5 88
t-56.5 197z" />
    <glyph glyph-name="Edotaccent" unicode="&#x116;" horiz-adv-x="1146" 
d="M753 1610q0 51 33 84.5t81 33.5q50 0 83 -33t33 -85q0 -50 -33 -83t-83 -33q-48 0 -81 33t-33 83zM1049 188l-30 -188h-835l241 1366h830l-31 -188h-622l-73 -389h591l-28 -179h-592l-78 -422h627z" />
    <glyph glyph-name="edotaccent" unicode="&#x117;" horiz-adv-x="1111" 
d="M663 1300q0 51 33 84.5t81 33.5q50 0 83 -33t33 -85q0 -50 -33 -83t-83 -33q-48 0 -81 33t-33 83zM609 -19q-186 0 -302 106.5t-116 303.5q0 70 17 155l24 131q33 190 161.5 293.5t314.5 103.5q91 0 164 -26t119.5 -70t75.5 -102t37.5 -121.5t0.5 -129.5q0 -2 -25 -146
h-685q-9 -36 -9 -88q0 -100 57.5 -167t179.5 -67q88 0 146.5 35.5t74.5 89.5h198q-9 -57 -43.5 -110.5t-88.5 -96t-132.5 -68.5t-168.5 -26zM909 624q3 9 3 21q21 110 -35.5 184.5t-174.5 74.5q-96 0 -169 -55.5t-97 -164.5l-13 -60h486z" />
    <glyph glyph-name="Eogonek" unicode="&#x118;" horiz-adv-x="1146" 
d="M831 -368q-90 0 -146 43t-53 127q2 121 115 193v5h-563l241 1366h830l-31 -188h-622l-72 -389h591l-29 -179h-592l-78 -422h627l-23 -144q-54 -12 -100.5 -32.5t-85.5 -61t-40 -91.5q-1 -41 26 -63t76 -22q38 0 78 8l-22 -131q-55 -19 -127 -19z" />
    <glyph glyph-name="eogonek" unicode="&#x119;" horiz-adv-x="1111" 
d="M592 -16q-180 -1 -290.5 104.5t-110.5 302.5q0 70 17 155l24 131q33 190 161.5 293.5t314.5 103.5q91 0 164 -26t119.5 -70t75.5 -102t37.5 -121.5t0.5 -129.5q0 -2 -25 -146h-685q-9 -36 -9 -88q0 -100 57.5 -167t179.5 -67q88 0 146.5 35.5t74.5 89.5h198
q-11 -50 -36.5 -92t-48 -65t-68.5 -62q-6 -6 -39.5 -36t-43 -41t-30 -35.5t-29 -46t-11.5 -45.5q-7 -47 21.5 -73.5t75.5 -26.5q41 0 81 10l-24 -136q-43 -20 -128 -20q-89 0 -145 52.5t-49 138.5q9 116 138 202l-6 9q-14 -10 -47 -20.5t-61 -10.5zM909 624q3 9 3 21
q20 110 -35.5 184.5t-173.5 74.5q-97 0 -170 -55.5t-97 -164.5l-13 -60h486z" />
    <glyph glyph-name="Ecaron" unicode="&#x11a;" horiz-adv-x="1146" 
d="M1247 1718l-301 -231h-181l-226 231h201l121 -126h8l162 126h216zM1049 188l-30 -188h-835l241 1366h830l-31 -188h-622l-73 -389h591l-28 -179h-592l-78 -422h627z" />
    <glyph glyph-name="ecaron" unicode="&#x11b;" horiz-adv-x="1111" 
d="M698 1212l-185 368h163l107 -245h6l187 245h169l-306 -368h-141zM609 -19q-186 0 -302 106.5t-116 303.5q0 70 17 155l24 131q33 190 161.5 293.5t314.5 103.5q91 0 164 -26t119.5 -70t75.5 -102t37.5 -121.5t0.5 -129.5q0 -2 -25 -146h-685q-9 -36 -9 -88
q0 -100 57.5 -167t179.5 -67q88 0 146.5 35.5t74.5 89.5h198q-9 -57 -43.5 -110.5t-88.5 -96t-132.5 -68.5t-168.5 -26zM909 624q3 9 3 21q21 110 -35.5 184.5t-174.5 74.5q-96 0 -169 -55.5t-97 -164.5l-13 -60h486z" />
    <glyph glyph-name="Gcircumflex" unicode="&#x11c;" horiz-adv-x="1362" 
d="M557 1481l294 238h195l203 -238h-183l-127 139h-13l-175 -139h-194zM285 881q46 245 202 378.5t384 133.5q123 0 223 -37.5t160.5 -98.5t92.5 -133.5t32 -148.5q0 -28 -2 -35h-201q0 18 -1 27q-3 38 -21 76t-52.5 74.5t-96 59.5t-139.5 23q-151 0 -246.5 -92.5
t-129.5 -265.5l-38 -184q-14 -84 -14 -149q0 -170 93.5 -257.5t239.5 -87.5q119 0 212 58.5t112 160.5l29 157h-327l30 170h528l-60 -332q-33 -188 -181 -296.5t-357 -108.5q-108 0 -200.5 31t-167.5 93t-118 166.5t-43 240.5q0 83 12 153z" />
    <glyph glyph-name="gcircumflex" unicode="&#x11d;" horiz-adv-x="1209" 
d="M480 1208l308 368h141l182 -368h-164l-104 245h-7l-190 -245h-166zM666 1071q124 0 205.5 -61t106.5 -155h14l36 200h201l-186 -1058q-70 -394 -493 -394q-190 0 -304 92t-114 217v9l1 7h195q0 -10 1 -12q2 -56 67.5 -98.5t163.5 -42.5q130 0 199 65.5t93 195.5l27 151
h-15q-30 -73 -106.5 -119.5t-187.5 -46.5q-155 0 -264.5 110t-109.5 293q0 77 14 144l21 103q20 102 63 180t102 125t127 71t143 24zM944 639q0 117 -68.5 186.5t-177.5 69.5q-106 0 -176.5 -73t-94.5 -201l-15 -77q-12 -60 -12 -102q0 -123 65.5 -190t180.5 -67
q102 0 176.5 73.5t96.5 199.5l16 86q9 57 9 95z" />
    <glyph glyph-name="Gbreve" unicode="&#x11e;" horiz-adv-x="1362" 
d="M285 881q46 245 202 378.5t384 133.5q123 0 223 -37.5t160.5 -98.5t92.5 -133.5t32 -148.5q0 -28 -2 -35h-201q0 18 -1 27q-3 38 -21 76t-52.5 74.5t-96 59.5t-139.5 23q-151 0 -246.5 -92.5t-129.5 -265.5l-38 -184q-14 -84 -14 -149q0 -170 93.5 -257.5t239.5 -87.5
q119 0 212 58.5t112 160.5l29 157h-327l30 170h528l-60 -332q-33 -188 -181 -296.5t-357 -108.5q-108 0 -200.5 31t-167.5 93t-118 166.5t-43 240.5q0 83 12 153zM620 1754h135q-5 -65 41 -103.5t131 -38.5q84 0 136.5 40t62.5 102h138q-13 -116 -102 -194t-252 -78
q-150 0 -229.5 81.5t-60.5 190.5z" />
    <glyph glyph-name="gbreve" unicode="&#x11f;" horiz-adv-x="1209" 
d="M534 1479h131q-9 -65 30 -112t120 -47q80 0 129.5 45.5t59.5 113.5h131q-9 -115 -94 -200t-227 -85q-146 0 -223.5 88t-56.5 197zM666 1071q124 0 205.5 -61t106.5 -155h14l36 200h201l-186 -1058q-70 -394 -493 -394q-190 0 -304 92t-114 217v9l1 7h195q0 -10 1 -12
q2 -56 67.5 -98.5t163.5 -42.5q130 0 199 65.5t93 195.5l27 151h-15q-30 -73 -106.5 -119.5t-187.5 -46.5q-155 0 -264.5 110t-109.5 293q0 77 14 144l21 103q20 102 63 180t102 125t127 71t143 24zM944 639q0 117 -68.5 186.5t-177.5 69.5q-106 0 -176.5 -73t-94.5 -201
l-15 -77q-12 -60 -12 -102q0 -123 65.5 -190t180.5 -67q102 0 176.5 73.5t96.5 199.5l16 86q9 57 9 95z" />
    <glyph glyph-name="Gdotaccent" unicode="&#x120;" horiz-adv-x="1362" 
d="M809 1610q0 51 33 84.5t81 33.5q50 0 83 -33t33 -85q0 -50 -33 -83t-83 -33q-48 0 -81 33t-33 83zM285 881q46 245 202 378.5t384 133.5q123 0 223 -37.5t160.5 -98.5t92.5 -133.5t32 -148.5q0 -28 -2 -35h-201q0 18 -1 27q-3 38 -21 76t-52.5 74.5t-96 59.5t-139.5 23
q-151 0 -246.5 -92.5t-129.5 -265.5l-38 -184q-14 -84 -14 -149q0 -170 93.5 -257.5t239.5 -87.5q119 0 212 58.5t112 160.5l29 157h-327l30 170h528l-60 -332q-33 -188 -181 -296.5t-357 -108.5q-108 0 -200.5 31t-167.5 93t-118 166.5t-43 240.5q0 83 12 153z" />
    <glyph glyph-name="gdotaccent" unicode="&#x121;" horiz-adv-x="1209" 
d="M697 1300q0 51 33 84.5t81 33.5q50 0 83 -33t33 -85q0 -50 -33 -83t-83 -33q-48 0 -81 33t-33 83zM666 1071q124 0 205.5 -61t106.5 -155h14l36 200h201l-186 -1058q-70 -394 -493 -394q-190 0 -304 92t-114 217v9l1 7h195q0 -10 1 -12q2 -56 67.5 -98.5t163.5 -42.5
q130 0 199 65.5t93 195.5l27 151h-15q-30 -73 -106.5 -119.5t-187.5 -46.5q-155 0 -264.5 110t-109.5 293q0 77 14 144l21 103q20 102 63 180t102 125t127 71t143 24zM944 639q0 117 -68.5 186.5t-177.5 69.5q-106 0 -176.5 -73t-94.5 -201l-15 -77q-12 -60 -12 -102
q0 -123 65.5 -190t180.5 -67q102 0 176.5 73.5t96.5 199.5l16 86q9 57 9 95z" />
    <glyph glyph-name="Gcommaaccent" unicode="&#x122;" horiz-adv-x="1362" 
d="M688 -455h-141l80 312h167zM285 881q46 245 202 378.5t384 133.5q123 0 223 -37.5t160.5 -98.5t92.5 -133.5t32 -148.5q0 -28 -2 -35h-201q0 18 -1 27q-3 38 -21 76t-52.5 74.5t-96 59.5t-139.5 23q-151 0 -246.5 -92.5t-129.5 -265.5l-38 -184q-14 -84 -14 -149
q0 -170 93.5 -257.5t239.5 -87.5q119 0 212 58.5t112 160.5l29 157h-327l30 170h528l-60 -332q-33 -188 -181 -296.5t-357 -108.5q-108 0 -200.5 31t-167.5 93t-118 166.5t-43 240.5q0 83 12 153z" />
    <glyph glyph-name="gcommaaccent" unicode="&#x123;" horiz-adv-x="1209" 
d="M825 1584h150l-85 -335h-179zM666 1071q124 0 205.5 -61t106.5 -155h14l36 200h201l-186 -1058q-70 -394 -493 -394q-190 0 -304 92t-114 217v9l1 7h195q0 -10 1 -12q2 -56 67.5 -98.5t163.5 -42.5q130 0 199 65.5t93 195.5l27 151h-15q-30 -73 -106.5 -119.5
t-187.5 -46.5q-155 0 -264.5 110t-109.5 293q0 77 14 144l21 103q20 102 63 180t102 125t127 71t143 24zM944 639q0 117 -68.5 186.5t-177.5 69.5q-106 0 -176.5 -73t-94.5 -201l-15 -77q-12 -60 -12 -102q0 -123 65.5 -190t180.5 -67q102 0 176.5 73.5t96.5 199.5l16 86
q9 57 9 95z" />
    <glyph glyph-name="Hcircumflex" unicode="&#x124;" horiz-adv-x="1430" 
d="M392 0h-208l241 1366h208l-101 -569h646l101 569h208l-241 -1366h-202l103 609h-646zM631 1481l294 238h195l203 -238h-183l-127 139h-13l-175 -139h-194z" />
    <glyph glyph-name="hcircumflex" unicode="&#x125;" horiz-adv-x="1215" 
d="M168 0l250 1423h204l-99 -536h14q40 86 119 135.5t192 49.5q157 0 241.5 -93t84.5 -234q0 -62 -21 -180l-100 -565h-204l102 576q13 75 13 122q0 89 -48 144t-144 55q-120 0 -195.5 -82t-98.5 -210l-106 -605h-204zM232 1575l308 368h141l182 -368h-164l-104 245h-7
l-190 -245h-166z" />
    <glyph glyph-name="Hbar" unicode="&#x126;" horiz-adv-x="1430" 
d="M531 786h646l35 192h-647zM500 598l-108 -598h-208l173 978h-89l31 188h89l37 200h208l-37 -200h647l36 200h208l-37 -200h89l-31 -188h-89l-173 -978h-202l102 598h-646z" />
    <glyph glyph-name="hbar" unicode="&#x127;" horiz-adv-x="1215" 
d="M478 605l-106 -605h-204l205 1162h-135l25 142h134l21 119h204l-21 -119h230l-25 -142h-231l-52 -275h14q40 86 119 135.5t192 49.5q157 0 241.5 -93t84.5 -234q0 -62 -21 -180l-100 -565h-204l102 576q13 75 13 122q0 89 -48 144t-144 55q-120 0 -195.5 -82t-98.5 -210z
" />
    <glyph glyph-name="Itilde" unicode="&#x128;" horiz-adv-x="576" 
d="M392 0h-208l241 1366h208zM524 1525q-2 2 -9 9.5t-10 10t-10 9t-11 9t-10.5 7t-12 6.5t-12.5 3.5t-14 1.5q-66 0 -73 -102h-130q0 93 49.5 160t143.5 67q49 0 85.5 -18t76.5 -56q4 -4 20 -19.5t22 -20.5t19.5 -11t26.5 -6q36 0 54.5 35t21.5 78h130q0 -90 -54 -160
t-140 -70q-58 0 -93 17t-70 50z" />
    <glyph glyph-name="itilde" unicode="&#x129;" horiz-adv-x="600" 
d="M187 0l187 1056h203l-187 -1056h-203zM609 1134q-49 0 -82.5 22.5t-63.5 62.5q-2 3 -15.5 21t-18 23t-15.5 15.5t-22 14t-24 3.5q-36 0 -54 -30t-27 -80h-130q9 115 65.5 184.5t144.5 69.5q32 0 57.5 -8t47.5 -27t32.5 -31t31.5 -38q2 -2 7.5 -9.5t7 -10t6.5 -9t7.5 -8.5
t7 -7t7.5 -7l7.5 -5t8.5 -4t9 -2t10 -1q35 0 56 34.5t29 81.5h130q-5 -103 -67 -179t-153 -76z" />
    <glyph glyph-name="Imacron" unicode="&#x12a;" horiz-adv-x="576" 
d="M392 0h-208l241 1366h208zM908 1616l-20 -117h-680l20 117h680z" />
    <glyph glyph-name="imacron" unicode="&#x12b;" horiz-adv-x="600" 
d="M187 0l187 1056h203l-187 -1056h-203zM851 1328l-20 -117h-680l20 117h680z" />
    <glyph glyph-name="Ibreve" unicode="&#x12c;" horiz-adv-x="576" 
d="M392 0h-208l241 1366h208zM270 1754h135q-5 -65 41 -103.5t131 -38.5q84 0 136.5 40t62.5 102h138q-13 -116 -102 -194t-252 -78q-150 0 -229.5 81.5t-60.5 190.5z" />
    <glyph glyph-name="ibreve" unicode="&#x12d;" horiz-adv-x="600" 
d="M187 0l187 1056h203l-187 -1056h-203zM240 1479h131q-9 -65 30 -112t120 -47q80 0 129.5 45.5t59.5 113.5h131q-9 -115 -94 -200t-227 -85q-146 0 -223.5 88t-56.5 197z" />
    <glyph glyph-name="Iogonek" unicode="&#x12e;" horiz-adv-x="576" 
d="M353 -349q-47 -21 -128 -21q-94 0 -148 51t-52 129q4 159 181 229l1 4h-15l233 1323h208l-235 -1328q-88 -23 -144.5 -70.5t-57.5 -111.5q-1 -41 25.5 -62.5t74.5 -21.5q46 0 79 9z" />
    <glyph glyph-name="iogonek" unicode="&#x12f;" horiz-adv-x="566" 
d="M372 1370q0 60 39.5 98t99.5 38q62 0 100 -37.5t38 -95.5q0 -59 -40 -96.5t-102 -37.5q-59 0 -97 37t-38 94zM341 -368q-46 -19 -127 -19q-103 0 -159.5 53t-48.5 139q15 137 182 222l181 1029h203l-184 -1035q-34 -9 -65.5 -22.5t-64 -34t-53 -50t-24.5 -63.5
q-5 -43 22.5 -69.5t78.5 -26.5q46 0 81 8z" />
    <glyph glyph-name="Idotaccent" unicode="&#x130;" horiz-adv-x="576" 
d="M392 0h-208l241 1366h208zM458 1610q0 51 33 84.5t81 33.5q50 0 83 -33t33 -85q0 -50 -33 -83t-83 -33q-48 0 -81 33t-33 83z" />
    <glyph glyph-name="dotlessi" unicode="&#x131;" horiz-adv-x="600" 
d="M187 0l187 1056h203l-187 -1056h-203z" />
    <glyph glyph-name="Jcircumflex" unicode="&#x134;" horiz-adv-x="1048" 
d="M1107 1366l-176 -992q-36 -208 -148 -304t-272 -96q-173 0 -285 96t-112 252q0 43 6 67h195q-2 -32 -2 -37q0 -77 52.5 -128t140.5 -51q83 0 141.5 53.5t79.5 169.5l172 970h208zM676 1481l294 238h195l203 -238h-183l-127 139h-13l-175 -139h-194z" />
    <glyph glyph-name="jcircumflex" unicode="&#x135;" horiz-adv-x="574" 
d="M580 1056l-187 -1060q-32 -181 -127 -261t-264 -80q-48 0 -105 13l33 171q37 -10 79 -10q71 0 118 42t61 118l188 1067h204zM203 1195l308 368h141l182 -368h-164l-104 245h-7l-190 -245h-166z" />
    <glyph glyph-name="Kcommaaccent" unicode="&#x136;" horiz-adv-x="1295" 
d="M633 1366l-119 -643h13l688 643h259l-638 -612l405 -754h-237l-331 630l-201 -178l-80 -452h-208l242 1366h207zM597 -455h-141l80 312h167z" />
    <glyph glyph-name="kcommaaccent" unicode="&#x137;" horiz-adv-x="1105" 
d="M442 412l-73 -412h-202l252 1423h200l-137 -776h13l475 409h262l-501 -427l324 -629h-221l-261 518zM511 -455h-141l80 312h167z" />
    <glyph glyph-name="Lacute" unicode="&#x139;" horiz-adv-x="1056" 
d="M397 1498l294 204h245l-330 -204h-209zM1032 191l-32 -191h-816l241 1366h208l-211 -1175h610z" />
    <glyph glyph-name="lacute" unicode="&#x13a;" horiz-adv-x="566" 
d="M577 1578h-153l283 347h208zM181 0l252 1423h203l-251 -1423h-204z" />
    <glyph glyph-name="Lcommaaccent" unicode="&#x13b;" horiz-adv-x="1056" 
d="M506 -455h-141l80 312h167zM1032 191l-32 -191h-816l241 1366h208l-211 -1175h610z" />
    <glyph glyph-name="lcommaaccent" unicode="&#x13c;" horiz-adv-x="566" 
d="M239 -455h-141l80 312h167zM181 0l252 1423h203l-251 -1423h-204z" />
    <glyph glyph-name="Lcaron" unicode="&#x13d;" horiz-adv-x="1056" 
d="M882 1425h191l-144 -489h-141zM1032 191l-32 -191h-816l241 1366h208l-211 -1175h610z" />
    <glyph glyph-name="lcaron" unicode="&#x13e;" horiz-adv-x="700" 
d="M777 1425h191l-144 -489h-140zM181 0l252 1423h203l-251 -1423h-204z" />
    <glyph glyph-name="Lslash" unicode="&#x141;" horiz-adv-x="1073" 
d="M1016 0h-817l94 526l-139 -72l33 199l139 72l114 641h207l-93 -514l395 204l-33 -202l-396 -202l-83 -461h610z" />
    <glyph glyph-name="lslash" unicode="&#x142;" horiz-adv-x="635" 
d="M418 0h-203l106 592l-167 -98l33 194l167 98l112 637h203l-89 -498l167 98l-34 -199l-166 -98z" />
    <glyph glyph-name="Nacute" unicode="&#x143;" horiz-adv-x="1429" 
d="M837 1498l294 204h245l-330 -204h-209zM1245 0h-187l-481 998h-11l-180 -998h-202l241 1366h189l477 -998h11l181 998h202z" />
    <glyph glyph-name="nacute" unicode="&#x144;" horiz-adv-x="1209" 
d="M839 1211h-153l283 347h208zM168 0l185 1056h200l-31 -169h13q93 185 311 185q81 0 144 -26t101 -71.5t57.5 -103.5t19.5 -125q0 -66 -21 -181l-100 -565h-203l101 576q13 78 13 121q0 89 -46.5 144.5t-142.5 55.5q-120 0 -194 -80.5t-97 -211.5l-107 -605h-203z" />
    <glyph glyph-name="Ncommaaccent" unicode="&#x145;" horiz-adv-x="1429" 
d="M682 -455h-141l80 312h167zM1245 0h-187l-481 998h-11l-180 -998h-202l241 1366h189l477 -998h11l181 998h202z" />
    <glyph glyph-name="ncommaaccent" unicode="&#x146;" horiz-adv-x="1209" 
d="M559 -455h-141l80 312h167zM168 0l185 1056h200l-31 -169h13q93 185 311 185q81 0 144 -26t101 -71.5t57.5 -103.5t19.5 -125q0 -66 -21 -181l-100 -565h-203l101 576q13 78 13 121q0 89 -46.5 144.5t-142.5 55.5q-120 0 -194 -80.5t-97 -211.5l-107 -605h-203z" />
    <glyph glyph-name="Ncaron" unicode="&#x147;" horiz-adv-x="1429" 
d="M1388 1718l-301 -231h-181l-226 231h201l121 -126h8l162 126h216zM1245 0h-187l-481 998h-11l-180 -998h-202l241 1366h189l477 -998h11l181 998h202z" />
    <glyph glyph-name="ncaron" unicode="&#x148;" horiz-adv-x="1209" 
d="M756 1212l-185 368h163l107 -245h6l187 245h169l-306 -368h-141zM168 0l185 1056h200l-31 -169h13q93 185 311 185q81 0 144 -26t101 -71.5t57.5 -103.5t19.5 -125q0 -66 -21 -181l-100 -565h-203l101 576q13 78 13 121q0 89 -46.5 144.5t-142.5 55.5q-120 0 -194 -80.5
t-97 -211.5l-107 -605h-203z" />
    <glyph glyph-name="Omacron" unicode="&#x14c;" horiz-adv-x="1388" 
d="M485 842l-34 -180q-15 -78 -15 -149q0 -158 92 -251t254 -93q302 0 369 371l35 192q9 48 9 128q0 154 -92.5 246.5t-250.5 92.5q-142 0 -237.5 -86.5t-129.5 -270.5zM240 676l37 205q44 243 200.5 377.5t381.5 134.5q247 0 397.5 -143t150.5 -392q0 -81 -15 -163
l-38 -206q-46 -249 -196 -382.5t-401 -133.5q-232 0 -381.5 137.5t-149.5 376.5q0 109 14 189zM1311 1616l-20 -117h-680l20 117h680z" />
    <glyph glyph-name="omacron" unicode="&#x14d;" horiz-adv-x="1154" 
d="M1128 1328l-20 -117h-680l20 117h680zM425 634l-21 -114q-10 -62 -10 -104q0 -115 67 -185.5t183 -70.5q107 0 175.5 72t91.5 202l21 122q5 36 5 92q0 110 -66.5 180t-179.5 70q-103 0 -173.5 -68t-92.5 -196zM203 548l22 122q33 185 160 294.5t309 109.5q201 0 325 -116
t124 -319q0 -59 -12 -126l-23 -123q-36 -190 -158 -298.5t-323 -108.5q-189 0 -312 112.5t-123 307.5q0 88 11 145z" />
    <glyph glyph-name="Obreve" unicode="&#x14e;" horiz-adv-x="1388" 
d="M485 842l-34 -180q-15 -78 -15 -149q0 -158 92 -251t254 -93q302 0 369 371l35 192q9 48 9 128q0 154 -92.5 246.5t-250.5 92.5q-142 0 -237.5 -86.5t-129.5 -270.5zM240 676l37 205q44 243 200.5 377.5t381.5 134.5q247 0 397.5 -143t150.5 -392q0 -81 -15 -163
l-38 -206q-46 -249 -196 -382.5t-401 -133.5q-232 0 -381.5 137.5t-149.5 376.5q0 109 14 189zM673 1754h135q-5 -65 41 -103.5t131 -38.5q84 0 136.5 40t62.5 102h138q-13 -116 -102 -194t-252 -78q-150 0 -229.5 81.5t-60.5 190.5z" />
    <glyph glyph-name="obreve" unicode="&#x14f;" horiz-adv-x="1154" 
d="M517 1479h131q-9 -65 30 -112t120 -47q80 0 129.5 45.5t59.5 113.5h131q-9 -115 -94 -200t-227 -85q-146 0 -223.5 88t-56.5 197zM425 634l-21 -114q-10 -62 -10 -104q0 -115 67 -185.5t183 -70.5q107 0 175.5 72t91.5 202l21 122q5 36 5 92q0 110 -66.5 180t-179.5 70
q-103 0 -173.5 -68t-92.5 -196zM203 548l22 122q33 185 160 294.5t309 109.5q201 0 325 -116t124 -319q0 -59 -12 -126l-23 -123q-36 -190 -158 -298.5t-323 -108.5q-189 0 -312 112.5t-123 307.5q0 88 11 145z" />
    <glyph glyph-name="Ohungarumlaut" unicode="&#x150;" horiz-adv-x="1388" 
d="M668 1498l314 250h199l-334 -250h-179zM1031 1498l314 250h199l-334 -250h-179zM485 842l-34 -180q-15 -78 -15 -149q0 -158 92 -251t254 -93q302 0 369 371l35 192q9 48 9 128q0 154 -92.5 246.5t-250.5 92.5q-142 0 -237.5 -86.5t-129.5 -270.5zM240 676l37 205
q44 243 200.5 377.5t381.5 134.5q247 0 397.5 -143t150.5 -392q0 -81 -15 -163l-38 -206q-46 -249 -196 -382.5t-401 -133.5q-232 0 -381.5 137.5t-149.5 376.5q0 109 14 189z" />
    <glyph glyph-name="ohungarumlaut" unicode="&#x151;" horiz-adv-x="1154" 
d="M685 1216h-136l259 309h200zM1004 1216h-139l263 309h197zM425 634l-21 -114q-10 -62 -10 -104q0 -115 67 -185.5t183 -70.5q107 0 175.5 72t91.5 202l21 122q5 36 5 92q0 110 -66.5 180t-179.5 70q-103 0 -173.5 -68t-92.5 -196zM203 548l22 122q33 185 160 294.5
t309 109.5q201 0 325 -116t124 -319q0 -59 -12 -126l-23 -123q-36 -190 -158 -298.5t-323 -108.5q-189 0 -312 112.5t-123 307.5q0 88 11 145z" />
    <glyph glyph-name="OE" unicode="&#x152;" horiz-adv-x="2025" 
d="M242 665l36 194q44 251 205 390t396 139q136 0 260 -53.5t163 -142.5l33 173h804l-32 -187h-625l-72 -394h589l-30 -180h-589l-76 -416h625l-31 -188h-804l19 100q-50 -63 -157.5 -92.5t-211.5 -29.5q-236 0 -376 130.5t-140 379.5q0 97 14 177zM489 838l-35 -185
q-13 -73 -13 -140q0 -167 94 -257t252 -90q145 0 240 79t121 224l41 252q4 22 11.5 92.5t7.5 83.5q0 128 -96 214.5t-243 86.5q-145 0 -246 -92.5t-134 -267.5z" />
    <glyph glyph-name="oe" unicode="&#x153;" horiz-adv-x="1839" 
d="M1344 -19q-124 0 -215.5 53.5t-132.5 154.5h-4q-48 -97 -145.5 -151.5t-226.5 -54.5q-186 0 -307.5 111t-121.5 316q0 64 11 136l23 128q31 182 155.5 291t304.5 109q125 0 224.5 -53.5t144.5 -156.5h4q118 210 378 210q112 0 196 -40.5t129 -106.5t63.5 -143t8.5 -157
q0 -12 -12.5 -79.5t-12.5 -68.5h-685q0 -1 -2.5 -13t-2.5 -14q-4 -24 -4 -56q0 -104 57.5 -171.5t179.5 -67.5q88 0 146.5 35.5t74.5 89.5h198q-18 -119 -137.5 -210t-288.5 -91zM423 634l-21 -114q-10 -62 -10 -101q0 -116 66 -187.5t180 -71.5q111 0 179.5 71.5
t91.5 202.5l21 122q5 30 5 83q0 117 -66 188t-179 71q-104 0 -174 -67.5t-93 -196.5zM1637 624q3 9 3 21q20 110 -35.5 184.5t-173.5 74.5q-97 0 -170 -56t-97 -164l-13 -60h486z" />
    <glyph glyph-name="Racute" unicode="&#x154;" horiz-adv-x="1282" 
d="M701 1498l294 204h245l-330 -204h-209zM392 0h-208l242 1366h475q196 0 302 -98t106 -263q0 -42 -6 -78q-18 -140 -103.5 -235t-211.5 -133l186 -559h-222l-170 528q-23 -1 -64 -1h-232zM852 1185h-248l-88 -481h242q298 0 330 229q5 30 5 61q0 90 -59.5 140.5
t-181.5 50.5z" />
    <glyph glyph-name="racute" unicode="&#x155;" horiz-adv-x="805" 
d="M643 1211h-153l283 347h208zM167 0l186 1056h193l-32 -176h14q30 81 107 136.5t186 55.5q46 0 93 -13l-40 -196q-39 16 -97 16q-129 0 -204 -82.5t-99 -217.5l-103 -579h-204z" />
    <glyph glyph-name="Rcommaaccent" unicode="&#x156;" horiz-adv-x="1282" 
d="M392 0h-208l242 1366h475q196 0 302 -98t106 -263q0 -42 -6 -78q-18 -140 -103.5 -235t-211.5 -133l186 -559h-222l-170 528q-23 -1 -64 -1h-232zM852 1185h-248l-88 -481h242q298 0 330 229q5 30 5 61q0 90 -59.5 140.5t-181.5 50.5zM547 -455h-141l80 312h167z" />
    <glyph glyph-name="rcommaaccent" unicode="&#x157;" horiz-adv-x="805" 
d="M167 0l186 1056h193l-32 -176h14q30 81 107 136.5t186 55.5q46 0 93 -13l-40 -196q-39 16 -97 16q-129 0 -204 -82.5t-99 -217.5l-103 -579h-204zM230 -455h-141l80 312h167z" />
    <glyph glyph-name="Rcaron" unicode="&#x158;" horiz-adv-x="1282" 
d="M392 0h-208l242 1366h475q196 0 302 -98t106 -263q0 -42 -6 -78q-18 -140 -103.5 -235t-211.5 -133l186 -559h-222l-170 528q-23 -1 -64 -1h-232zM852 1185h-248l-88 -481h242q298 0 330 229q5 30 5 61q0 90 -59.5 140.5t-181.5 50.5zM1252 1718l-301 -231h-181l-226 231
h201l121 -126h8l162 126h216z" />
    <glyph glyph-name="rcaron" unicode="&#x159;" horiz-adv-x="805" 
d="M560 1212l-185 368h163l107 -245h6l187 245h169l-306 -368h-141zM167 0l186 1056h193l-32 -176h14q30 81 107 136.5t186 55.5q46 0 93 -13l-40 -196q-39 16 -97 16q-129 0 -204 -82.5t-99 -217.5l-103 -579h-204z" />
    <glyph glyph-name="Sacute" unicode="&#x15a;" horiz-adv-x="1226" 
d="M709 1498l294 204h245l-330 -204h-209zM178 392h200q-1 -7 -1 -23q0 -86 84 -149.5t219 -63.5q126 0 205 57.5t79 154.5q0 44 -17.5 77.5t-54 58.5t-71.5 40.5t-92 35.5l-72 27q-58 21 -104.5 43t-95.5 56t-81.5 73.5t-53.5 95t-21 119.5q0 185 137 292t344 107
q190 0 322 -100.5t132 -263.5q0 -3 -1 -19t-1 -17h-193l1 2v6v8q0 91 -76.5 146t-185.5 55q-67 0 -125.5 -20.5t-98.5 -66.5t-40 -109q0 -76 62 -125t180 -92l89 -34q60 -22 101 -41t88 -50.5t75.5 -67t47.5 -89t19 -118.5q0 -198 -141.5 -311t-366.5 -113
q-216 0 -355.5 107t-139.5 267q0 24 3 45z" />
    <glyph glyph-name="sacute" unicode="&#x15b;" horiz-adv-x="1046" 
d="M271 758q0 144 102 230.5t287 86.5q92 0 167.5 -25t124 -66.5t74.5 -93.5t26 -108v-24h-184v11q0 55 -56 101.5t-152 46.5q-89 0 -140.5 -39t-51.5 -97q0 -33 15.5 -57.5t45.5 -41.5t62 -29.5t78 -27.5q17 -5 26 -8q52 -17 91 -33t78.5 -41.5t64.5 -56t41 -74t16 -97.5
q0 -159 -114.5 -246t-305.5 -87q-180 0 -299.5 88t-119.5 223v17h188q0 -7 2 -19q11 -61 75.5 -102.5t163.5 -41.5q100 0 155 40.5t55 108.5q0 18 -3.5 33.5t-14.5 28.5t-18.5 22t-28 19.5t-29.5 16t-38 15t-38 12.5t-43 13q-32 10 -53 18t-56 23t-58.5 30.5t-51 39.5
t-44 50.5t-28 63t-11.5 77.5zM754 1211h-153l283 347h208z" />
    <glyph glyph-name="Scircumflex" unicode="&#x15c;" horiz-adv-x="1226" 
d="M178 392h200q-1 -7 -1 -23q0 -86 84 -149.5t219 -63.5q126 0 205 57.5t79 154.5q0 44 -17.5 77.5t-54 58.5t-71.5 40.5t-92 35.5l-72 27q-58 21 -104.5 43t-95.5 56t-81.5 73.5t-53.5 95t-21 119.5q0 185 137 292t344 107q190 0 322 -100.5t132 -263.5q0 -3 -1 -19
t-1 -17h-193l1 2v6v8q0 91 -76.5 146t-185.5 55q-67 0 -125.5 -20.5t-98.5 -66.5t-40 -109q0 -76 62 -125t180 -92l89 -34q60 -22 101 -41t88 -50.5t75.5 -67t47.5 -89t19 -118.5q0 -198 -141.5 -311t-366.5 -113q-216 0 -355.5 107t-139.5 267q0 24 3 45zM515 1481l294 238
h195l203 -238h-183l-127 139h-13l-175 -139h-194z" />
    <glyph glyph-name="scircumflex" unicode="&#x15d;" horiz-adv-x="1046" 
d="M419 1208l308 368h141l182 -368h-164l-104 245h-7l-190 -245h-166zM271 758q0 144 102 230.5t287 86.5q92 0 167.5 -25t124 -66.5t74.5 -93.5t26 -108v-24h-184v11q0 55 -56 101.5t-152 46.5q-89 0 -140.5 -39t-51.5 -97q0 -33 15.5 -57.5t45.5 -41.5t62 -29.5t78 -27.5
q17 -5 26 -8q52 -17 91 -33t78.5 -41.5t64.5 -56t41 -74t16 -97.5q0 -159 -114.5 -246t-305.5 -87q-180 0 -299.5 88t-119.5 223v17h188q0 -7 2 -19q11 -61 75.5 -102.5t163.5 -41.5q100 0 155 40.5t55 108.5q0 18 -3.5 33.5t-14.5 28.5t-18.5 22t-28 19.5t-29.5 16t-38 15
t-38 12.5t-43 13q-32 10 -53 18t-56 23t-58.5 30.5t-51 39.5t-44 50.5t-28 63t-11.5 77.5z" />
    <glyph glyph-name="Scedilla" unicode="&#x15e;" horiz-adv-x="1226" 
d="M612 -482q-82 0 -157 25l19 112q62 -19 127 -19q105 0 107 67v3q0 66 -134 66h-51l10 77l39 132q-178 23 -287.5 125.5t-109.5 240.5q0 24 3 45h200q-1 -7 -1 -23q0 -86 84 -149.5t219 -63.5q126 0 205 57.5t79 154.5q0 44 -17.5 77.5t-54 58.5t-71.5 40.5t-92 35.5
l-72 27q-58 21 -104.5 43t-95.5 56t-81.5 73.5t-53.5 95t-21 119.5q0 185 137 292t344 107q190 0 322 -100.5t132 -263.5q0 -3 -1 -19t-1 -17h-193q1 1 1 16q0 91 -76.5 146t-185.5 55q-67 0 -125.5 -20.5t-98.5 -66.5t-40 -109q0 -76 62 -125t180 -92l89 -34
q60 -22 101 -41t88 -50.5t75.5 -67t47.5 -89t19 -118.5q0 -190 -129.5 -301t-340.5 -121l-31 -102q81 -2 131.5 -42t50.5 -112v-10q-4 -92 -72 -141.5t-175 -49.5z" />
    <glyph glyph-name="scedilla" unicode="&#x15f;" horiz-adv-x="1046" 
d="M500 -482q-82 0 -157 25l19 112q62 -19 127 -19q105 0 106 67q1 1 1 3q0 66 -134 66h-51l9 77l43 141q-142 24 -229 107t-87 196v17h188q0 -7 2 -19q11 -61 75.5 -102.5t163.5 -41.5q100 0 155 40.5t55 108.5q0 18 -3.5 33.5t-14.5 28.5t-18.5 22t-28 19.5t-29.5 16
t-38 15t-38 12.5t-43 13q-32 10 -53 18t-56 23t-58.5 30.5t-51 39.5t-44 50.5t-28 63t-11.5 77.5q0 144 102 230.5t287 86.5q92 0 167.5 -25t124 -66.5t74.5 -93.5t26 -108v-24h-184v11q0 55 -56 101.5t-152 46.5q-89 0 -140.5 -39t-51.5 -97q0 -33 15.5 -57.5t45.5 -41.5
t62 -29.5t78 -27.5q17 -5 26 -8q52 -17 91 -33t78.5 -41.5t64.5 -56t41 -74t16 -97.5q0 -151 -105 -237.5t-283 -94.5l-33 -110q81 -2 131.5 -42t50.5 -112q0 -7 -1 -10q-3 -92 -71 -141.5t-175 -49.5z" />
    <glyph glyph-name="Scaron" unicode="&#x160;" horiz-adv-x="1226" 
d="M178 392h200q-1 -7 -1 -23q0 -86 84 -149.5t219 -63.5q126 0 205 57.5t79 154.5q0 44 -17.5 77.5t-54 58.5t-71.5 40.5t-92 35.5l-72 27q-58 21 -104.5 43t-95.5 56t-81.5 73.5t-53.5 95t-21 119.5q0 185 137 292t344 107q190 0 322 -100.5t132 -263.5q0 -3 -1 -19
t-1 -17h-193l1 2v6v8q0 91 -76.5 146t-185.5 55q-67 0 -125.5 -20.5t-98.5 -66.5t-40 -109q0 -76 62 -125t180 -92l89 -34q60 -22 101 -41t88 -50.5t75.5 -67t47.5 -89t19 -118.5q0 -198 -141.5 -311t-366.5 -113q-216 0 -355.5 107t-139.5 267q0 24 3 45zM1260 1718
l-301 -231h-181l-226 231h201l121 -126h8l162 126h216z" />
    <glyph glyph-name="scaron" unicode="&#x161;" horiz-adv-x="1046" 
d="M671 1212l-185 368h163l107 -245h6l187 245h169l-306 -368h-141zM271 758q0 144 102 230.5t287 86.5q92 0 167.5 -25t124 -66.5t74.5 -93.5t26 -108v-24h-184v11q0 55 -56 101.5t-152 46.5q-89 0 -140.5 -39t-51.5 -97q0 -33 15.5 -57.5t45.5 -41.5t62 -29.5t78 -27.5
q17 -5 26 -8q52 -17 91 -33t78.5 -41.5t64.5 -56t41 -74t16 -97.5q0 -159 -114.5 -246t-305.5 -87q-180 0 -299.5 88t-119.5 223v17h188q0 -7 2 -19q11 -61 75.5 -102.5t163.5 -41.5q100 0 155 40.5t55 108.5q0 18 -3.5 33.5t-14.5 28.5t-18.5 22t-28 19.5t-29.5 16t-38 15
t-38 12.5t-43 13q-32 10 -53 18t-56 23t-58.5 30.5t-51 39.5t-44 50.5t-28 63t-11.5 77.5z" />
    <glyph glyph-name="Tcedilla" unicode="&#x162;" horiz-adv-x="1124" 
d="M511 0h-51l211 1176h-411l31 190h1024l-30 -190h-407l-210 -1176h-20l-39 -127q82 -2 132.5 -42t50.5 -112q0 -1 -0.5 -5t-0.5 -5q-3 -92 -71.5 -141.5t-175.5 -49.5q-84 0 -156 25l18 112q62 -19 127 -19q106 0 107 67v3q0 66 -133 66h-52l10 77z" />
    <glyph glyph-name="tcedilla" unicode="&#x163;" horiz-adv-x="779" 
d="M409 -462q-89 0 -157 26l19 111q59 -18 126 -18q106 0 107 66v3q0 67 -133 67h-51l9 77l48 155q-111 49 -111 182q0 54 14 125l96 537h-157l29 170h157l50 275h198l-47 -275h227l-28 -170h-227l-83 -466q-19 -108 -19 -133q0 -51 28.5 -77t96.5 -26q66 0 120 10l-29 -165
q-52 -15 -150 -15q-25 0 -35 1l-34 -104q82 -2 132.5 -42t50.5 -112q0 -7 -1 -10q-3 -92 -71 -142t-175 -50z" />
    <glyph glyph-name="Tcaron" unicode="&#x164;" horiz-adv-x="1124" 
d="M1224 1718l-301 -231h-181l-226 231h201l121 -126h8l162 126h216zM668 0h-208l211 1176h-411l31 190h1024l-30 -190h-407z" />
    <glyph glyph-name="tcaron" unicode="&#x165;" horiz-adv-x="811" 
d="M885 1687h191l-144 -489h-141zM405 1039l50 275h198l-47 -275h227l-28 -170h-227l-83 -466q-19 -108 -19 -133q0 -52 28 -77.5t97 -25.5q66 0 120 10l-29 -165q-52 -15 -150 -15q-276 0 -276 210q0 54 14 125l96 537h-157l29 170h157z" />
    <glyph glyph-name="Tbar" unicode="&#x166;" horiz-adv-x="1124" 
d="M1005 623h-226l-111 -623h-208l112 623h-234l25 150h234l74 403h-411l31 190h1024l-30 -190h-407l-73 -403h226z" />
    <glyph glyph-name="tbar" unicode="&#x167;" horiz-adv-x="779" 
d="M692 12q-52 -15 -150 -15q-276 0 -276 210q0 54 14 125l34 187h-138l24 142h138l38 208h-157l29 170h157l50 275h198l-47 -275h227l-28 -170h-227l-37 -208h180l-24 -142h-181l-21 -116q-19 -108 -19 -133q0 -51 28.5 -77t96.5 -26q66 0 120 10z" />
    <glyph glyph-name="Utilde" unicode="&#x168;" horiz-adv-x="1389" 
d="M618 1366l-146 -825q-8 -34 -8 -92q0 -125 79 -200.5t216 -75.5q126 0 213 71t113 214l161 908h211l-166 -944q-39 -222 -183 -335.5t-356 -113.5q-220 0 -361 118t-141 326q0 59 13 131l144 818h211zM931 1525q-2 2 -9 9.5t-10 10t-10 9t-11 9t-10.5 7t-12 6.5
t-12.5 3.5t-14 1.5q-66 0 -73 -102h-130q0 93 49.5 160t143.5 67q49 0 85.5 -18t76.5 -56q4 -4 20 -19.5t22 -20.5t19.5 -11t26.5 -6q36 0 54.5 35t21.5 78h130q0 -90 -54 -160t-140 -70q-58 0 -93 17t-70 50z" />
    <glyph glyph-name="utilde" unicode="&#x169;" horiz-adv-x="1198" 
d="M1215 1056l-185 -1056h-194l31 175h-14q-39 -85 -119 -138.5t-190 -53.5q-156 0 -243 90.5t-87 234.5q0 75 20 181l104 567h203l-103 -572q-13 -80 -13 -128q0 -90 51 -140.5t148 -50.5q119 0 191.5 80t95.5 211l105 600h199zM913 1134q-49 0 -82.5 22.5t-63.5 62.5
q-2 3 -15.5 21t-18 23t-15.5 15.5t-22 14t-24 3.5q-36 0 -54 -30t-27 -80h-130q9 115 65.5 184.5t144.5 69.5q32 0 57.5 -8t47.5 -27t32.5 -31t31.5 -38q2 -2 7.5 -9.5t7 -10t6.5 -9t7.5 -8.5t7 -7t7.5 -7l7.5 -5t8.5 -4t9 -2t10 -1q35 0 56 34.5t29 81.5h130
q-5 -103 -67 -179t-153 -76z" />
    <glyph glyph-name="Umacron" unicode="&#x16a;" horiz-adv-x="1389" 
d="M618 1366l-146 -825q-8 -34 -8 -92q0 -125 79 -200.5t216 -75.5q126 0 213 71t113 214l161 908h211l-166 -944q-39 -222 -183 -335.5t-356 -113.5q-220 0 -361 118t-141 326q0 59 13 131l144 818h211zM1315 1616l-20 -117h-680l20 117h680z" />
    <glyph glyph-name="umacron" unicode="&#x16b;" horiz-adv-x="1198" 
d="M1215 1056l-185 -1056h-194l31 175h-14q-39 -85 -119 -138.5t-190 -53.5q-156 0 -243 90.5t-87 234.5q0 75 20 181l104 567h203l-103 -572q-13 -80 -13 -128q0 -90 51 -140.5t148 -50.5q119 0 191.5 80t95.5 211l105 600h199zM1155 1328l-20 -117h-680l20 117h680z" />
    <glyph glyph-name="Ubreve" unicode="&#x16c;" horiz-adv-x="1389" 
d="M618 1366l-146 -825q-8 -34 -8 -92q0 -125 79 -200.5t216 -75.5q126 0 213 71t113 214l161 908h211l-166 -944q-39 -222 -183 -335.5t-356 -113.5q-220 0 -361 118t-141 326q0 59 13 131l144 818h211zM677 1754h135q-5 -65 41 -103.5t131 -38.5q84 0 136.5 40t62.5 102
h138q-13 -116 -102 -194t-252 -78q-150 0 -229.5 81.5t-60.5 190.5z" />
    <glyph glyph-name="ubreve" unicode="&#x16d;" horiz-adv-x="1198" 
d="M1215 1056l-185 -1056h-194l31 175h-14q-39 -85 -119 -138.5t-190 -53.5q-156 0 -243 90.5t-87 234.5q0 75 20 181l104 567h203l-103 -572q-13 -80 -13 -128q0 -90 51 -140.5t148 -50.5q119 0 191.5 80t95.5 211l105 600h199zM544 1479h131q-9 -65 30 -112t120 -47
q80 0 129.5 45.5t59.5 113.5h131q-9 -115 -94 -200t-227 -85q-146 0 -223.5 88t-56.5 197z" />
    <glyph glyph-name="Uring" unicode="&#x16e;" horiz-adv-x="1389" 
d="M618 1366l-146 -825q-8 -34 -8 -92q0 -125 79 -200.5t216 -75.5q126 0 213 71t113 214l161 908h211l-166 -944q-39 -222 -183 -335.5t-356 -113.5q-220 0 -361 118t-141 326q0 59 13 131l144 818h211zM1001 1624q42 0 71.5 29t29.5 70q0 42 -29.5 70.5t-71.5 28.5
t-72 -28.5t-30 -70.5q0 -40 30.5 -69.5t71.5 -29.5zM1000 1523q-83 0 -140.5 58.5t-57.5 141.5q0 84 58.5 141.5t141.5 57.5q82 0 138.5 -58t56.5 -141q0 -84 -57.5 -142t-139.5 -58z" />
    <glyph glyph-name="uring" unicode="&#x16f;" horiz-adv-x="1198" 
d="M1215 1056l-185 -1056h-194l31 175h-14q-39 -85 -119 -138.5t-190 -53.5q-156 0 -243 90.5t-87 234.5q0 75 20 181l104 567h203l-103 -572q-13 -80 -13 -128q0 -90 51 -140.5t148 -50.5q119 0 191.5 80t95.5 211l105 600h199zM843 1314q42 0 71.5 29t29.5 70
q0 42 -29.5 70.5t-71.5 28.5t-72 -28.5t-30 -70.5q0 -40 30.5 -69.5t71.5 -29.5zM842 1213q-83 0 -140.5 58.5t-57.5 141.5q0 84 58.5 141.5t141.5 57.5q82 0 138.5 -58t56.5 -141q0 -84 -57.5 -142t-139.5 -58z" />
    <glyph glyph-name="Uhungarumlaut" unicode="&#x170;" horiz-adv-x="1389" 
d="M618 1366l-146 -825q-8 -34 -8 -92q0 -125 79 -200.5t216 -75.5q126 0 213 71t113 214l161 908h211l-166 -944q-39 -222 -183 -335.5t-356 -113.5q-220 0 -361 118t-141 326q0 59 13 131l144 818h211zM672 1498l314 250h199l-334 -250h-179zM1035 1498l314 250h199
l-334 -250h-179z" />
    <glyph glyph-name="uhungarumlaut" unicode="&#x171;" horiz-adv-x="1198" 
d="M712 1216h-136l259 309h200zM1031 1216h-139l263 309h197zM1215 1056l-185 -1056h-194l31 175h-14q-39 -85 -119 -138.5t-190 -53.5q-156 0 -243 90.5t-87 234.5q0 75 20 181l104 567h203l-103 -572q-13 -80 -13 -128q0 -90 51 -140.5t148 -50.5q119 0 191.5 80t95.5 211
l105 600h199z" />
    <glyph glyph-name="Uogonek" unicode="&#x172;" horiz-adv-x="1389" 
d="M1089 71q-13 -12 -40.5 -35t-40.5 -34.5t-32.5 -31.5t-30 -34.5t-20 -34.5t-12.5 -40q-9 -51 18.5 -75.5t80.5 -24.5q43 0 76 9l-23 -138q-64 -20 -124 -19q-97 1 -155 54t-42 147q20 117 137 192l-2 12q-34 -20 -86 -31.5t-99 -11.5q-119 0 -219.5 51t-163 153
t-62.5 236q0 67 12 133l144 818h211l-146 -825q-8 -45 -8 -92q0 -125 79.5 -200.5t214.5 -75.5q128 0 215 71t112 214l161 908h211l-166 -944q-38 -213 -200 -351z" />
    <glyph glyph-name="uogonek" unicode="&#x173;" horiz-adv-x="1198" 
d="M1008 -232l-23 -135q-58 -20 -132 -20q-94 0 -150 52t-50 138q3 51 37.5 99t60.5 68.5t79 54.5q4 3 7 5l6 4l24 141h-14q-40 -85 -120 -138.5t-190 -53.5q-155 0 -242 90.5t-87 238.5q0 71 20 177l104 567h203l-103 -572q-13 -69 -13 -127q0 -92 50.5 -142t149.5 -50
q119 0 191 80t95 211l105 600h199l-182 -1035q-80 -20 -141 -67.5t-66 -102.5q-4 -44 22.5 -68t76.5 -24q47 0 83 9z" />
    <glyph glyph-name="Wcircumflex" unicode="&#x174;" horiz-adv-x="1793" 
d="M807 1481l294 238h195l203 -238h-183l-127 139h-13l-175 -139h-194zM602 0h-209l-87 1366h219l31 -1057h13l471 1057h180l103 -1057h13l414 1057h219l-568 -1366h-205l-115 1011h-12z" />
    <glyph glyph-name="wcircumflex" unicode="&#x175;" horiz-adv-x="1505" 
d="M624 1208l308 368h141l182 -368h-164l-104 245h-7l-190 -245h-166zM1621 1056l-463 -1056h-216l-67 789h-9l-318 -789h-222l-116 1056h205l55 -836h10l338 836h185l68 -836h11l333 836h206z" />
    <glyph glyph-name="Ycircumflex" unicode="&#x176;" horiz-adv-x="1158" 
d="M782 552l-99 -552h-207l98 548l-326 818h220l232 -612h11l438 612h236zM493 1481l294 238h195l203 -238h-183l-127 139h-13l-175 -139h-194z" />
    <glyph glyph-name="ycircumflex" unicode="&#x177;" horiz-adv-x="1060" 
d="M1177 1056l-531 -1046q-1 -3 -20 -37t-19 -35q-34 -66 -62.5 -109.5t-64.5 -81t-78 -58t-97.5 -32t-128.5 -11.5q-52 0 -104 13l35 167q40 -10 80 -10q84 0 130 37.5t81 111.5l23 53l-191 1038h212l121 -836h12l386 836h216zM426 1208l308 368h141l182 -368h-164
l-104 245h-7l-190 -245h-166z" />
    <glyph glyph-name="Ydieresis" unicode="&#x178;" horiz-adv-x="1158" 
d="M782 552l-99 -552h-207l98 548l-326 818h220l232 -612h11l438 612h236zM566 1584q0 50 30.5 80t79.5 30q48 0 79 -30t31 -80q0 -46 -31 -75.5t-79 -29.5t-79 29.5t-31 75.5zM925 1584q0 49 30.5 79.5t77.5 30.5q50 0 81 -30t31 -80q0 -47 -31 -76t-81 -29q-46 0 -77 29.5
t-31 75.5z" />
    <glyph glyph-name="Zacute" unicode="&#x179;" horiz-adv-x="1214" 
d="M734 1498l294 204h245l-330 -204h-209zM146 0l25 158l873 1008l2 15h-693l30 185h947l-25 -163l-871 -1004l-2 -14h722l-32 -185h-976z" />
    <glyph glyph-name="zacute" unicode="&#x17a;" horiz-adv-x="987" 
d="M724 1211h-153l283 347h208zM116 0l29 167l658 708l3 14h-557l31 167h796l-30 -172l-652 -699l-2 -13h554l-29 -172h-801z" />
    <glyph glyph-name="Zdotaccent" unicode="&#x17b;" horiz-adv-x="1214" 
d="M146 0l25 158l873 1008l2 15h-693l30 185h947l-25 -163l-871 -1004l-2 -14h722l-32 -185h-976zM792 1610q0 51 33 84.5t81 33.5q50 0 83 -33t33 -85q0 -50 -33 -83t-83 -33q-48 0 -81 33t-33 83z" />
    <glyph glyph-name="zdotaccent" unicode="&#x17c;" horiz-adv-x="987" 
d="M606 1300q0 51 33 84.5t81 33.5q50 0 83 -33t33 -85q0 -50 -33 -83t-83 -33q-48 0 -81 33t-33 83zM116 0l29 167l658 708l3 14h-557l31 167h796l-30 -172l-652 -699l-2 -13h554l-29 -172h-801z" />
    <glyph glyph-name="Zcaron" unicode="&#x17d;" horiz-adv-x="1214" 
d="M146 0l25 158l873 1008l2 15h-693l30 185h947l-25 -163l-871 -1004l-2 -14h722l-32 -185h-976zM1285 1718l-301 -231h-181l-226 231h201l121 -126h8l162 126h216z" />
    <glyph glyph-name="zcaron" unicode="&#x17e;" horiz-adv-x="987" 
d="M641 1212l-185 368h163l107 -245h6l187 245h169l-306 -368h-141zM116 0l29 167l658 708l3 14h-557l31 167h796l-30 -172l-652 -699l-2 -13h554l-29 -172h-801z" />
    <glyph glyph-name="florin" unicode="&#x192;" horiz-adv-x="1168" 
d="M320 -186l169 907h-208l28 176h209l30 174q54 321 379 321q86 0 149 -27t95 -71t45 -91.5t10 -96.5h-187q2 52 -33.5 83.5t-90.5 31.5q-130 0 -158 -163l-28 -161h294l-30 -176h-294l-167 -907h-212z" />
    <glyph glyph-name="Ohorn" unicode="&#x1a0;" horiz-adv-x="1548" 
d="M485 842l-35 -180q-14 -82 -14 -149q0 -158 92 -251t254 -93q149 0 243 93t127 278l34 192q9 48 9 128q0 154 -92.5 246.5t-250.5 92.5q-142 0 -237.5 -86.5t-129.5 -270.5zM1354 489q-46 -249 -196.5 -382.5t-400.5 -133.5q-232 0 -381.5 137.5t-149.5 376.5
q0 109 14 189l37 205q44 243 200 377t382 134q141 0 257 -45q103 -38 158 -38q136 0 164 149l16 104h171l-17 -118q-24 -140 -95 -213t-189 -71q82 -126 82 -302q0 -87 -14 -163z" />
    <glyph glyph-name="ohorn" unicode="&#x1a1;" horiz-adv-x="1243" 
d="M627 -17q-189 0 -312 112.5t-123 307.5q0 82 12 145l21 122q33 185 160 294.5t309 109.5q64 0 155.5 -20.5t132.5 -20.5q70 0 106 35.5t49 107.5l28 156h172l-29 -162q-12 -67 -27 -112t-41 -82.5t-66.5 -57t-97.5 -23.5l-4 -9q71 -105 71 -247q0 -59 -12 -126l-23 -123
q-36 -190 -158 -298.5t-323 -108.5zM425 634l-20 -114q-11 -57 -11 -104q0 -115 67 -185.5t183 -70.5q107 0 175.5 72t91.5 202l21 122q5 29 5 92q0 110 -66.5 180t-179.5 70q-103 0 -173.5 -68t-92.5 -196z" />
    <glyph glyph-name="Uhorn" unicode="&#x1af;" horiz-adv-x="1648" 
d="M753 -27q-221 0 -362 118t-141 326q0 45 13 131l144 818h210l-145 -825q-8 -45 -8 -92q0 -125 79 -200.5t216 -75.5q126 0 213.5 71.5t112.5 213.5l162 908h202q71 0 106 36t48 106l19 111h170l-20 -125q-22 -127 -100 -205t-203 -78h-37l-141 -789q-39 -222 -183 -335.5
t-355 -113.5z" />
    <glyph glyph-name="uhorn" unicode="&#x1b0;" horiz-adv-x="1356" 
d="M853 175q-39 -85 -119 -138.5t-190 -53.5q-156 0 -243 90.5t-87 234.5q0 75 20 181l104 567h203l-103 -572q-13 -69 -13 -128q0 -90 50.5 -140.5t148.5 -50.5q119 0 191.5 80t95.5 211l106 600h175q70 0 103 36t46 106l24 134h171l-26 -150q-23 -131 -98.5 -205
t-203.5 -74h-18l-161 -903h-193l31 175h-14z" />
    <glyph glyph-name="Acaron" unicode="&#x1cd;" horiz-adv-x="1270" 
d="M44 0l714 1366h235l234 -1366h-217l-59 383h-492l-197 -383h-218zM844 1131h-13l-292 -577h391zM1292 1718l-301 -231h-181l-226 231h201l121 -126h8l162 126h216z" />
    <glyph glyph-name="acaron" unicode="&#x1ce;" horiz-adv-x="1116" 
d="M479 -17q-135 0 -226 80t-91 217q0 22 2 36q11 143 121 222.5t307 79.5h274l12 69q4 20 4 44q0 71 -50.5 122t-156.5 51q-84 0 -137 -33t-70 -85h-195q22 125 132 206.5t285 81.5q185 0 285.5 -92t100.5 -247q0 -44 -17 -144l-104 -591h-194l25 140h-13
q-32 -63 -108.5 -110t-185.5 -47zM366 307q0 -67 48 -110t131 -43q99 0 176 57t94 144l24 121h-245q-112 0 -170 -48t-58 -121zM673 1212l-185 368h163l107 -245h6l187 245h169l-306 -368h-141z" />
    <glyph glyph-name="Icaron" unicode="&#x1cf;" horiz-adv-x="576" 
d="M392 0h-208l241 1366h208zM952 1718l-301 -231h-181l-226 231h201l121 -126h8l162 126h216z" />
    <glyph glyph-name="icaron" unicode="&#x1d0;" horiz-adv-x="600" 
d="M438 1212l-185 368h163l107 -245h6l187 245h169l-306 -368h-141zM187 0l187 1056h203l-187 -1056h-203z" />
    <glyph glyph-name="Ocaron" unicode="&#x1d1;" horiz-adv-x="1388" 
d="M1355 1718l-301 -231h-181l-226 231h201l121 -126h8l162 126h216zM485 842l-34 -180q-15 -78 -15 -149q0 -158 92 -251t254 -93q302 0 369 371l35 192q9 48 9 128q0 154 -92.5 246.5t-250.5 92.5q-142 0 -237.5 -86.5t-129.5 -270.5zM240 676l37 205q44 243 200.5 377.5
t381.5 134.5q247 0 397.5 -143t150.5 -392q0 -81 -15 -163l-38 -206q-46 -249 -196 -382.5t-401 -133.5q-232 0 -381.5 137.5t-149.5 376.5q0 109 14 189z" />
    <glyph glyph-name="ocaron" unicode="&#x1d2;" horiz-adv-x="1154" 
d="M715 1212l-185 368h163l107 -245h6l187 245h169l-306 -368h-141zM425 634l-21 -114q-10 -62 -10 -104q0 -115 67 -185.5t183 -70.5q107 0 175.5 72t91.5 202l21 122q5 36 5 92q0 110 -66.5 180t-179.5 70q-103 0 -173.5 -68t-92.5 -196zM203 548l22 122q33 185 160 294.5
t309 109.5q201 0 325 -116t124 -319q0 -59 -12 -126l-23 -123q-36 -190 -158 -298.5t-323 -108.5q-189 0 -312 112.5t-123 307.5q0 88 11 145z" />
    <glyph glyph-name="Ucaron" unicode="&#x1d3;" horiz-adv-x="1389" 
d="M1359 1718l-301 -231h-181l-226 231h201l121 -126h8l162 126h216zM618 1366l-146 -825q-8 -34 -8 -92q0 -125 79 -200.5t216 -75.5q126 0 213 71t113 214l161 908h211l-166 -944q-39 -222 -183 -335.5t-356 -113.5q-220 0 -361 118t-141 326q0 59 13 131l144 818h211z
" />
    <glyph glyph-name="ucaron" unicode="&#x1d4;" horiz-adv-x="1198" 
d="M742 1212l-185 368h163l107 -245h6l187 245h169l-306 -368h-141zM1215 1056l-185 -1056h-194l31 175h-14q-39 -85 -119 -138.5t-190 -53.5q-156 0 -243 90.5t-87 234.5q0 75 20 181l104 567h203l-103 -572q-13 -80 -13 -128q0 -90 51 -140.5t148 -50.5q119 0 191.5 80
t95.5 211l105 600h199z" />
    <glyph glyph-name="Udieresismacron" unicode="&#x1d5;" horiz-adv-x="1389" 
d="M687 1584q0 50 30.5 80t79.5 30q48 0 79 -30t31 -80q0 -46 -31 -75.5t-79 -29.5t-79 29.5t-31 75.5zM1046 1584q0 49 30.5 79.5t77.5 30.5q50 0 81 -30t31 -80q0 -47 -31 -76t-81 -29q-46 0 -77 29.5t-31 75.5zM618 1366l-146 -825q-8 -34 -8 -92q0 -125 79 -200.5
t216 -75.5q126 0 213 71t113 214l161 908h211l-166 -944q-39 -222 -183 -335.5t-356 -113.5q-220 0 -361 118t-141 326q0 59 13 131l144 818h211zM1367 1904l-20 -117h-680l20 117h680z" />
    <glyph glyph-name="udieresismacron" unicode="&#x1d6;" horiz-adv-x="1198" 
d="M1215 1056l-185 -1056h-194l31 175h-14q-39 -85 -119 -138.5t-190 -53.5q-156 0 -243 90.5t-87 234.5q0 75 20 181l104 567h203l-103 -572q-13 -80 -13 -128q0 -90 51 -140.5t148 -50.5q119 0 191.5 80t95.5 211l105 600h199zM522 1303q0 49 32 80t81 31q50 0 82 -31
t32 -80q0 -47 -32 -78t-82 -31q-49 0 -81 31t-32 78zM892 1303q0 49 31 80t79 31q52 0 84 -30.5t32 -80.5q0 -48 -32.5 -78.5t-83.5 -30.5q-47 0 -78.5 31t-31.5 78zM1214 1656l-20 -117h-680l20 117h680z" />
    <glyph glyph-name="Udieresisacute" unicode="&#x1d7;" horiz-adv-x="1389" 
d="M849 1730l294 204h245l-330 -204h-209zM687 1584q0 50 30.5 80t79.5 30q48 0 79 -30t31 -80q0 -46 -31 -75.5t-79 -29.5t-79 29.5t-31 75.5zM1046 1584q0 49 30.5 79.5t77.5 30.5q50 0 81 -30t31 -80q0 -47 -31 -76t-81 -29q-46 0 -77 29.5t-31 75.5zM618 1366l-146 -825
q-8 -34 -8 -92q0 -125 79 -200.5t216 -75.5q126 0 213 71t113 214l161 908h211l-166 -944q-39 -222 -183 -335.5t-356 -113.5q-220 0 -361 118t-141 326q0 59 13 131l144 818h211z" />
    <glyph glyph-name="udieresisacute" unicode="&#x1d8;" horiz-adv-x="1198" 
d="M874 1482h-153l283 347h208zM1215 1056l-185 -1056h-194l31 175h-14q-39 -85 -119 -138.5t-190 -53.5q-156 0 -243 90.5t-87 234.5q0 75 20 181l104 567h203l-103 -572q-13 -80 -13 -128q0 -90 51 -140.5t148 -50.5q119 0 191.5 80t95.5 211l105 600h199zM522 1303
q0 49 32 80t81 31q50 0 82 -31t32 -80q0 -47 -32 -78t-82 -31q-49 0 -81 31t-32 78zM892 1303q0 49 31 80t79 31q52 0 84 -30.5t32 -80.5q0 -48 -32.5 -78.5t-83.5 -30.5q-47 0 -78.5 31t-31.5 78z" />
    <glyph glyph-name="Udieresiscaron" unicode="&#x1d9;" horiz-adv-x="1389" 
d="M687 1584q0 50 30.5 80t79.5 30q48 0 79 -30t31 -80q0 -46 -31 -75.5t-79 -29.5t-79 29.5t-31 75.5zM1046 1584q0 49 30.5 79.5t77.5 30.5q50 0 81 -30t31 -80q0 -47 -31 -76t-81 -29q-46 0 -77 29.5t-31 75.5zM1400 1950l-301 -231h-181l-226 231h201l121 -126h8
l162 126h216zM618 1366l-146 -825q-8 -34 -8 -92q0 -125 79 -200.5t216 -75.5q126 0 213 71t113 214l161 908h211l-166 -944q-39 -222 -183 -335.5t-356 -113.5q-220 0 -361 118t-141 326q0 59 13 131l144 818h211z" />
    <glyph glyph-name="udieresiscaron" unicode="&#x1da;" horiz-adv-x="1198" 
d="M791 1483l-185 368h163l107 -245h6l187 245h169l-306 -368h-141zM1215 1056l-185 -1056h-194l31 175h-14q-39 -85 -119 -138.5t-190 -53.5q-156 0 -243 90.5t-87 234.5q0 75 20 181l104 567h203l-103 -572q-13 -80 -13 -128q0 -90 51 -140.5t148 -50.5q119 0 191.5 80
t95.5 211l105 600h199zM522 1303q0 49 32 80t81 31q50 0 82 -31t32 -80q0 -47 -32 -78t-82 -31q-49 0 -81 31t-32 78zM892 1303q0 49 31 80t79 31q52 0 84 -30.5t32 -80.5q0 -48 -32.5 -78.5t-83.5 -30.5q-47 0 -78.5 31t-31.5 78z" />
    <glyph glyph-name="Udieresisgrave" unicode="&#x1db;" horiz-adv-x="1389" 
d="M1136 1730h-205l-310 200h236zM687 1584q0 50 30.5 80t79.5 30q48 0 79 -30t31 -80q0 -46 -31 -75.5t-79 -29.5t-79 29.5t-31 75.5zM1046 1584q0 49 30.5 79.5t77.5 30.5q50 0 81 -30t31 -80q0 -47 -31 -76t-81 -29q-46 0 -77 29.5t-31 75.5zM618 1366l-146 -825
q-8 -34 -8 -92q0 -125 79 -200.5t216 -75.5q126 0 213 71t113 214l161 908h211l-166 -944q-39 -222 -183 -335.5t-356 -113.5q-220 0 -361 118t-141 326q0 59 13 131l144 818h211z" />
    <glyph glyph-name="udieresisgrave" unicode="&#x1dc;" horiz-adv-x="1198" 
d="M967 1482h-159l-241 345h211zM1215 1056l-185 -1056h-194l31 175h-14q-39 -85 -119 -138.5t-190 -53.5q-156 0 -243 90.5t-87 234.5q0 75 20 181l104 567h203l-103 -572q-13 -80 -13 -128q0 -90 51 -140.5t148 -50.5q119 0 191.5 80t95.5 211l105 600h199zM522 1303
q0 49 32 80t81 31q50 0 82 -31t32 -80q0 -47 -32 -78t-82 -31q-49 0 -81 31t-32 78zM892 1303q0 49 31 80t79 31q52 0 84 -30.5t32 -80.5q0 -48 -32.5 -78.5t-83.5 -30.5q-47 0 -78.5 31t-31.5 78z" />
    <glyph glyph-name="Adieresismacron" unicode="&#x1de;" horiz-adv-x="1270" 
d="M44 0l714 1366h235l234 -1366h-217l-59 383h-492l-197 -383h-218zM844 1131h-13l-292 -577h391zM620 1584q0 50 30.5 80t79.5 30q48 0 79 -30t31 -80q0 -46 -31 -75.5t-79 -29.5t-79 29.5t-31 75.5zM979 1584q0 49 30.5 79.5t77.5 30.5q50 0 81 -30t31 -80q0 -47 -31 -76
t-81 -29q-46 0 -77 29.5t-31 75.5zM1300 1904l-20 -117h-680l20 117h680z" />
    <glyph glyph-name="adieresismacron" unicode="&#x1df;" horiz-adv-x="1116" 
d="M479 -17q-135 0 -226 80t-91 217q0 22 2 36q11 143 121 222.5t307 79.5h274l12 69q4 20 4 44q0 71 -50.5 122t-156.5 51q-84 0 -137 -33t-70 -85h-195q22 125 132 206.5t285 81.5q185 0 285.5 -92t100.5 -247q0 -44 -17 -144l-104 -591h-194l25 140h-13
q-32 -63 -108.5 -110t-185.5 -47zM366 307q0 -67 48 -110t131 -43q99 0 176 57t94 144l24 121h-245q-112 0 -170 -48t-58 -121zM453 1303q0 49 32 80t81 31q50 0 82 -31t32 -80q0 -47 -32 -78t-82 -31q-49 0 -81 31t-32 78zM823 1303q0 49 31 80t79 31q52 0 84 -30.5
t32 -80.5q0 -48 -32.5 -78.5t-83.5 -30.5q-47 0 -78.5 31t-31.5 78zM1145 1656l-20 -117h-680l20 117h680z" />
    <glyph glyph-name="Adotmacron" unicode="&#x1e0;" horiz-adv-x="1270" 
d="M44 0l714 1366h235l234 -1366h-217l-59 383h-492l-197 -383h-218zM844 1131h-13l-292 -577h391zM799 1610q0 51 33 84.5t81 33.5q50 0 83 -33t33 -85q0 -50 -33 -83t-83 -33q-48 0 -81 33t-33 83zM1300 1904l-20 -117h-680l20 117h680z" />
    <glyph glyph-name="adotmacron" unicode="&#x1e1;" horiz-adv-x="1116" 
d="M479 -17q-135 0 -226 80t-91 217q0 22 2 36q11 143 121 222.5t307 79.5h274l12 69q4 20 4 44q0 71 -50.5 122t-156.5 51q-84 0 -137 -33t-70 -85h-195q22 125 132 206.5t285 81.5q185 0 285.5 -92t100.5 -247q0 -44 -17 -144l-104 -591h-194l25 140h-13
q-32 -63 -108.5 -110t-185.5 -47zM366 307q0 -67 48 -110t131 -43q99 0 176 57t94 144l24 121h-245q-112 0 -170 -48t-58 -121zM638 1300q0 51 33 84.5t81 33.5q50 0 83 -33t33 -85q0 -50 -33 -83t-83 -33q-48 0 -81 33t-33 83zM1145 1656l-20 -117h-680l20 117h680z" />
    <glyph glyph-name="AEmacron" unicode="&#x1e2;" horiz-adv-x="1853" 
d="M1082 1122l-426 -570h336l107 570h-17zM894 0l68 376h-415l-294 -376h-236l1017 1366h929l-31 -186h-624l-72 -391h592l-29 -179h-593l-78 -424h628l-30 -186h-832zM1933 1616l-20 -117h-680l20 117h680z" />
    <glyph glyph-name="aemacron" unicode="&#x1e3;" horiz-adv-x="1762" 
d="M1269 -19q-128 0 -222.5 58t-137.5 166h-4q-124 -222 -393 -222q-162 0 -256 79t-94 226q0 161 114 245.5t319 84.5h271l13 74q3 21 3 41q0 69 -51 120t-157 51q-84 0 -136.5 -33t-69.5 -85h-195q21 124 131.5 206t279.5 82q227 0 322 -144h4q60 68 150.5 106t198.5 38
q90 0 161.5 -26t117.5 -70t74.5 -102t37 -121.5t0.5 -129.5q0 -2 -25 -146h-682q-11 -58 -11 -86q0 -102 57.5 -169t178.5 -67q87 0 146 35t75 90h198q-18 -119 -134.5 -210t-283.5 -91zM366 303q0 -66 47 -107.5t131 -41.5q101 0 177.5 58.5t95.5 150.5l22 113h-245
q-113 0 -170.5 -49.5t-57.5 -123.5zM1558 624q0 2 1.5 11t1.5 10q20 110 -36.5 184.5t-174.5 74.5q-98 0 -172.5 -56.5t-97.5 -163.5q-5 -21 -8 -35t-4 -19t-1 -6h491zM1404 1328l-20 -117h-680l20 117h680z" />
    <glyph glyph-name="Gcaron" unicode="&#x1e6;" horiz-adv-x="1362" 
d="M1302 1718l-301 -231h-181l-226 231h201l121 -126h8l162 126h216zM285 881q46 245 202 378.5t384 133.5q123 0 223 -37.5t160.5 -98.5t92.5 -133.5t32 -148.5q0 -28 -2 -35h-201q0 18 -1 27q-3 38 -21 76t-52.5 74.5t-96 59.5t-139.5 23q-151 0 -246.5 -92.5
t-129.5 -265.5l-38 -184q-14 -84 -14 -149q0 -170 93.5 -257.5t239.5 -87.5q119 0 212 58.5t112 160.5l29 157h-327l30 170h528l-60 -332q-33 -188 -181 -296.5t-357 -108.5q-108 0 -200.5 31t-167.5 93t-118 166.5t-43 240.5q0 83 12 153z" />
    <glyph glyph-name="gcaron" unicode="&#x1e7;" horiz-adv-x="1209" 
d="M732 1212l-185 368h163l107 -245h6l187 245h169l-306 -368h-141zM666 1071q124 0 205.5 -61t106.5 -155h14l36 200h201l-186 -1058q-70 -394 -493 -394q-190 0 -304 92t-114 217v9l1 7h195q0 -10 1 -12q2 -56 67.5 -98.5t163.5 -42.5q130 0 199 65.5t93 195.5l27 151h-15
q-30 -73 -106.5 -119.5t-187.5 -46.5q-155 0 -264.5 110t-109.5 293q0 77 14 144l21 103q20 102 63 180t102 125t127 71t143 24zM944 639q0 117 -68.5 186.5t-177.5 69.5q-106 0 -176.5 -73t-94.5 -201l-15 -77q-12 -60 -12 -102q0 -123 65.5 -190t180.5 -67
q102 0 176.5 73.5t96.5 199.5l16 86q9 57 9 95z" />
    <glyph glyph-name="Kcaron" unicode="&#x1e8;" horiz-adv-x="1295" 
d="M633 1366l-119 -643h13l688 643h259l-638 -612l405 -754h-237l-331 630l-201 -178l-80 -452h-208l242 1366h207zM1293 1718l-301 -231h-181l-226 231h201l121 -126h8l162 126h216z" />
    <glyph glyph-name="kcaron" unicode="&#x1e9;" horiz-adv-x="1105" 
d="M480 1579l-185 368h163l107 -245h6l187 245h169l-306 -368h-141zM442 412l-73 -412h-202l252 1423h200l-137 -776h13l475 409h262l-501 -427l324 -629h-221l-261 518z" />
    <glyph glyph-name="Oogonek" unicode="&#x1ea;" horiz-adv-x="1388" 
d="M1118 -230l-24 -138q-56 -20 -124 -19q-90 1 -146 48.5t-53 129.5q3 131 134 214l-5 13q-31 -18 -81.5 -30t-91.5 -12q-97 0 -185.5 32.5t-159.5 94.5t-113.5 162.5t-42.5 226.5q0 104 14 184l37 205q44 243 200 377.5t381 134.5q248 0 398 -143t150 -397q0 -84 -14 -158
l-38 -206q-26 -141 -75 -228t-128 -162q-22 -20 -59.5 -52t-59 -51.5t-45.5 -45.5t-35 -51t-12 -51q-2 -43 25.5 -65t76.5 -22q40 0 76 9zM485 842l-35 -180q-14 -79 -14 -149q0 -158 92 -251t254 -93q149 0 243 93t127 278l34 192q9 46 9 128q0 153 -92.5 246t-249.5 93
q-143 0 -238.5 -86.5t-129.5 -270.5z" />
    <glyph glyph-name="oogonek" unicode="&#x1eb;" horiz-adv-x="1154" 
d="M783 -387q-96 1 -151 54t-43 148q6 51 40 98.5t90 85.5l-5 11q-42 -26 -128 -26q-80 0 -151 29t-125.5 82t-86 134t-31.5 178q0 78 12 141l21 122q33 186 160 295t310 109q201 0 324.5 -116.5t123.5 -323.5q0 -56 -12 -121l-23 -123q-18 -90 -66 -169.5t-109 -136.5
q-10 -8 -37 -30.5t-36.5 -31.5t-29.5 -27.5t-28.5 -30t-20 -29t-17 -34t-7.5 -35.5q-6 -51 20.5 -78t80.5 -27q38 0 76 9l-24 -138q-67 -20 -127 -19zM425 634l-20 -114q-11 -57 -11 -105q0 -114 67 -184.5t183 -70.5q107 0 175.5 72t91.5 202l21 122q5 29 5 92
q0 110 -66.5 180t-179.5 70q-103 0 -173 -67.5t-93 -196.5z" />
    <glyph glyph-name="Oogonekmacron" unicode="&#x1ec;" horiz-adv-x="1388" 
d="M1118 -230l-24 -138q-56 -20 -124 -19q-90 1 -146 48.5t-53 129.5q3 131 134 214l-5 13q-31 -18 -81.5 -30t-91.5 -12q-97 0 -185.5 32.5t-159.5 94.5t-113.5 162.5t-42.5 226.5q0 104 14 184l37 205q44 243 200 377.5t381 134.5q248 0 398 -143t150 -397q0 -84 -14 -158
l-38 -206q-26 -141 -75 -228t-128 -162q-22 -20 -59.5 -52t-59 -51.5t-45.5 -45.5t-35 -51t-12 -51q-2 -43 25.5 -65t76.5 -22q40 0 76 9zM485 842l-35 -180q-14 -79 -14 -149q0 -158 92 -251t254 -93q149 0 243 93t127 278l34 192q9 46 9 128q0 153 -92.5 246t-249.5 93
q-143 0 -238.5 -86.5t-129.5 -270.5zM1311 1616l-20 -117h-680l20 117h680z" />
    <glyph glyph-name="oogonekmacron" unicode="&#x1ed;" horiz-adv-x="1154" 
d="M783 -387q-96 1 -151 54t-43 148q6 51 40 98.5t90 85.5l-5 11q-42 -26 -128 -26q-80 0 -151 29t-125.5 82t-86 134t-31.5 178q0 78 12 141l21 122q33 186 160 295t310 109q201 0 324.5 -116.5t123.5 -323.5q0 -56 -12 -121l-23 -123q-18 -90 -66 -169.5t-109 -136.5
q-10 -8 -37 -30.5t-36.5 -31.5t-29.5 -27.5t-28.5 -30t-20 -29t-17 -34t-7.5 -35.5q-6 -51 20.5 -78t80.5 -27q38 0 76 9l-24 -138q-67 -20 -127 -19zM425 634l-20 -114q-11 -57 -11 -105q0 -114 67 -184.5t183 -70.5q107 0 175.5 72t91.5 202l21 122q5 29 5 92
q0 110 -66.5 180t-179.5 70q-103 0 -173 -67.5t-93 -196.5zM1128 1328l-20 -117h-680l20 117h680z" />
    <glyph glyph-name="Gacute" unicode="&#x1f4;" horiz-adv-x="1362" 
d="M751 1498l294 204h245l-330 -204h-209zM285 881q46 245 202 378.5t384 133.5q123 0 223 -37.5t160.5 -98.5t92.5 -133.5t32 -148.5q0 -28 -2 -35h-201q0 18 -1 27q-3 38 -21 76t-52.5 74.5t-96 59.5t-139.5 23q-151 0 -246.5 -92.5t-129.5 -265.5l-38 -184
q-14 -84 -14 -149q0 -170 93.5 -257.5t239.5 -87.5q119 0 212 58.5t112 160.5l29 157h-327l30 170h528l-60 -332q-33 -188 -181 -296.5t-357 -108.5q-108 0 -200.5 31t-167.5 93t-118 166.5t-43 240.5q0 83 12 153z" />
    <glyph glyph-name="gacute" unicode="&#x1f5;" horiz-adv-x="1209" 
d="M815 1211h-153l283 347h208zM666 1071q124 0 205.5 -61t106.5 -155h14l36 200h201l-186 -1058q-70 -394 -493 -394q-190 0 -304 92t-114 217v9l1 7h195q0 -10 1 -12q2 -56 67.5 -98.5t163.5 -42.5q130 0 199 65.5t93 195.5l27 151h-15q-30 -73 -106.5 -119.5
t-187.5 -46.5q-155 0 -264.5 110t-109.5 293q0 77 14 144l21 103q20 102 63 180t102 125t127 71t143 24zM944 639q0 117 -68.5 186.5t-177.5 69.5q-106 0 -176.5 -73t-94.5 -201l-15 -77q-12 -60 -12 -102q0 -123 65.5 -190t180.5 -67q102 0 176.5 73.5t96.5 199.5l16 86
q9 57 9 95z" />
    <glyph glyph-name="Ngrave" unicode="&#x1f8;" horiz-adv-x="1429" 
d="M1124 1498h-205l-310 200h236zM1245 0h-187l-481 998h-11l-180 -998h-202l241 1366h189l477 -998h11l181 998h202z" />
    <glyph glyph-name="ngrave" unicode="&#x1f9;" horiz-adv-x="1209" 
d="M933 1211h-159l-241 345h211zM168 0l185 1056h200l-31 -169h13q93 185 311 185q81 0 144 -26t101 -71.5t57.5 -103.5t19.5 -125q0 -66 -21 -181l-100 -565h-203l101 576q13 78 13 121q0 89 -46.5 144.5t-142.5 55.5q-120 0 -194 -80.5t-97 -211.5l-107 -605h-203z" />
    <glyph glyph-name="Aringacute" unicode="&#x1fa;" horiz-adv-x="1270" 
d="M818 1649l295 204h244l-329 -204h-210zM858 1416q35 -13 66.5 3t40.5 49t-9.5 63.5t-54.5 43.5q-34 13 -66 -2.5t-42 -48.5q-9 -32 10.5 -63t54.5 -45zM844 1131h-13l-292 -577h391zM459 383l-197 -383h-218l700 1333q-82 61 -82 164q0 94 63 158.5t154 64.5
q90 0 153 -64t63 -158q0 -54 -26.5 -101t-70.5 -75l229 -1322h-217l-59 383h-492z" />
    <glyph glyph-name="aringacute" unicode="&#x1fb;" horiz-adv-x="1116" 
d="M960 1526h-162l284 346h216zM479 -17q-135 0 -226 80t-91 217q0 22 2 36q11 143 121 222.5t307 79.5h274l12 69q4 20 4 44q0 71 -50.5 122t-156.5 51q-84 0 -137 -33t-70 -85h-195q22 125 132 206.5t285 81.5q185 0 285.5 -92t100.5 -247q0 -44 -17 -144l-104 -591h-194
l25 140h-13q-32 -63 -108.5 -110t-185.5 -47zM366 307q0 -67 48 -110t131 -43q99 0 176 57t94 144l24 121h-245q-112 0 -170 -48t-58 -121zM803 1313q42 0 71.5 29t29.5 70q0 42 -29.5 70.5t-71.5 28.5t-72 -28.5t-30 -70.5q0 -40 30.5 -69.5t71.5 -29.5zM802 1212
q-83 0 -140.5 58.5t-57.5 141.5q0 84 58.5 141.5t141.5 57.5q82 0 138.5 -58t56.5 -141q0 -84 -57.5 -142t-139.5 -58z" />
    <glyph glyph-name="AEacute" unicode="&#x1fc;" horiz-adv-x="1853" 
d="M1426 1498l294 204h245l-330 -204h-209zM1082 1122l-426 -570h336l107 570h-17zM894 0l68 376h-415l-294 -376h-236l1017 1366h929l-31 -186h-624l-72 -391h592l-29 -179h-593l-78 -424h628l-30 -186h-832z" />
    <glyph glyph-name="aeacute" unicode="&#x1fd;" horiz-adv-x="1762" 
d="M1074 1211h-153l283 347h208zM1269 -19q-128 0 -222.5 58t-137.5 166h-4q-124 -222 -393 -222q-162 0 -256 79t-94 226q0 161 114 245.5t319 84.5h271l13 74q3 21 3 41q0 69 -51 120t-157 51q-84 0 -136.5 -33t-69.5 -85h-195q21 124 131.5 206t279.5 82q227 0 322 -144
h4q60 68 150.5 106t198.5 38q90 0 161.5 -26t117.5 -70t74.5 -102t37 -121.5t0.5 -129.5q0 -2 -25 -146h-682q-11 -58 -11 -86q0 -102 57.5 -169t178.5 -67q87 0 146 35t75 90h198q-18 -119 -134.5 -210t-283.5 -91zM366 303q0 -66 47 -107.5t131 -41.5q101 0 177.5 58.5
t95.5 150.5l22 113h-245q-113 0 -170.5 -49.5t-57.5 -123.5zM1558 624q0 2 1.5 11t1.5 10q20 110 -36.5 184.5t-174.5 74.5q-98 0 -172.5 -56.5t-97.5 -163.5q-5 -21 -8 -35t-4 -19t-1 -6h491z" />
    <glyph glyph-name="Oslashacute" unicode="&#x1fe;" horiz-adv-x="1387" 
d="M237 676l37 205q43 243 199.5 377.5t381.5 134.5q139 0 250.5 -46.5t182.5 -134.5l110 103l92 -96l-132 -123q45 -104 45 -238q0 -88 -15 -163l-38 -206q-46 -249 -196 -382.5t-400 -133.5q-132 0 -240.5 45t-178.5 131l-109 -103l-88 101l126 119q-41 97 -41 221
q0 115 14 189zM1190 833q0 46 -8 83l-693 -613q90 -134 290 -134q148 0 242 93t127 278l33 177q9 42 9 116zM1137 1061q-43 66 -117 102t-171 36q-142 0 -237.5 -86.5t-130.5 -270.5l-34 -180q-13 -67 -14 -136q0 -43 9 -79zM802 1498l294 204h245l-330 -204h-209z" />
    <glyph glyph-name="oslashacute" unicode="&#x1ff;" horiz-adv-x="1154" 
d="M202 548l22 122q33 185 159.5 294.5t308.5 109.5q221 0 345 -136l123 111l87 -99l-140 -125q34 -83 34 -186q0 -64 -11 -126l-24 -123q-37 -190 -158 -298.5t-322 -108.5q-204 0 -326 124l-126 -113l-81 98l135 121q-38 85 -38 190q0 82 12 145zM423 634l-20 -114
q-10 -56 -10 -94q0 -29 6 -56l494 426q-67 102 -204 102q-103 0 -173 -68t-93 -196zM444 249q67 -89 198 -89q107 0 175.5 72t91.5 202l21 122q5 29 5 76q0 18 -3 35zM798 1211h-153l283 347h208z" />
    <glyph glyph-name="Adblgrave" unicode="&#x200;" horiz-adv-x="1270" 
d="M44 0l714 1366h235l234 -1366h-217l-59 383h-492l-197 -383h-218zM844 1131h-13l-292 -577h391zM816 1498h-179l-337 250h197zM1181 1498h-179l-337 250h197z" />
    <glyph glyph-name="adblgrave" unicode="&#x201;" horiz-adv-x="1116" 
d="M479 -17q-135 0 -226 80t-91 217q0 22 2 36q11 143 121 222.5t307 79.5h274l12 69q4 20 4 44q0 71 -50.5 122t-156.5 51q-84 0 -137 -33t-70 -85h-195q22 125 132 206.5t285 81.5q185 0 285.5 -92t100.5 -247q0 -44 -17 -144l-104 -591h-194l25 140h-13
q-32 -63 -108.5 -110t-185.5 -47zM366 307q0 -67 48 -110t131 -43q99 0 176 57t94 144l24 121h-245q-112 0 -170 -48t-58 -121zM663 1217h-141l-248 329h188zM985 1217h-138l-252 329h192z" />
    <glyph glyph-name="Ainvertedbreve" unicode="&#x202;" horiz-adv-x="1270" 
d="M44 0l714 1366h235l234 -1366h-217l-59 383h-492l-197 -383h-218zM844 1131h-13l-292 -577h391zM599 1473q14 115 95.5 195t226.5 80q149 0 223.5 -83t49.5 -192h-132q12 66 -26 108t-123 42q-80 0 -126 -41t-57 -109h-131z" />
    <glyph glyph-name="ainvertedbreve" unicode="&#x203;" horiz-adv-x="1116" 
d="M479 -17q-135 0 -226 80t-91 217q0 22 2 36q11 143 121 222.5t307 79.5h274l12 69q4 20 4 44q0 71 -50.5 122t-156.5 51q-84 0 -137 -33t-70 -85h-195q22 125 132 206.5t285 81.5q185 0 285.5 -92t100.5 -247q0 -44 -17 -144l-104 -591h-194l25 140h-13
q-32 -63 -108.5 -110t-185.5 -47zM366 307q0 -67 48 -110t131 -43q99 0 176 57t94 144l24 121h-245q-112 0 -170 -48t-58 -121zM455 1233q3 54 24.5 104t59 92t98 67.5t134.5 25.5q99 0 169.5 -44t97 -109.5t11.5 -135.5h-131q10 68 -28.5 115.5t-120.5 47.5
q-81 0 -127 -46.5t-56 -116.5h-131z" />
    <glyph glyph-name="Edblgrave" unicode="&#x204;" horiz-adv-x="1146" 
d="M771 1498h-179l-337 250h197zM1136 1498h-179l-337 250h197zM1049 188l-30 -188h-835l241 1366h830l-31 -188h-622l-73 -389h591l-28 -179h-592l-78 -422h627z" />
    <glyph glyph-name="edblgrave" unicode="&#x205;" horiz-adv-x="1111" 
d="M609 -19q-186 0 -302 106.5t-116 303.5q0 70 17 155l24 131q33 190 161.5 293.5t314.5 103.5q91 0 164 -26t119.5 -70t75.5 -102t37.5 -121.5t0.5 -129.5q0 -2 -25 -146h-685q-9 -36 -9 -88q0 -100 57.5 -167t179.5 -67q88 0 146.5 35.5t74.5 89.5h198
q-9 -57 -43.5 -110.5t-88.5 -96t-132.5 -68.5t-168.5 -26zM909 624q3 9 3 21q21 110 -35.5 184.5t-174.5 74.5q-96 0 -169 -55.5t-97 -164.5l-13 -60h486zM688 1217h-141l-248 329h188zM1010 1217h-138l-252 329h192z" />
    <glyph glyph-name="Einvertedbreve" unicode="&#x206;" horiz-adv-x="1146" 
d="M1049 188l-30 -188h-835l241 1366h830l-31 -188h-622l-73 -389h591l-28 -179h-592l-78 -422h627zM554 1473q14 115 95.5 195t226.5 80q149 0 223.5 -83t49.5 -192h-132q12 66 -26 108t-123 42q-80 0 -126 -41t-57 -109h-131z" />
    <glyph glyph-name="einvertedbreve" unicode="&#x207;" horiz-adv-x="1111" 
d="M609 -19q-186 0 -302 106.5t-116 303.5q0 70 17 155l24 131q33 190 161.5 293.5t314.5 103.5q91 0 164 -26t119.5 -70t75.5 -102t37.5 -121.5t0.5 -129.5q0 -2 -25 -146h-685q-9 -36 -9 -88q0 -100 57.5 -167t179.5 -67q88 0 146.5 35.5t74.5 89.5h198
q-9 -57 -43.5 -110.5t-88.5 -96t-132.5 -68.5t-168.5 -26zM909 624q3 9 3 21q21 110 -35.5 184.5t-174.5 74.5q-96 0 -169 -55.5t-97 -164.5l-13 -60h486zM480 1233q3 54 24.5 104t59 92t98 67.5t134.5 25.5q99 0 169.5 -44t97 -109.5t11.5 -135.5h-131q10 68 -28.5 115.5
t-120.5 47.5q-81 0 -127 -46.5t-56 -116.5h-131z" />
    <glyph glyph-name="Idblgrave" unicode="&#x208;" horiz-adv-x="576" 
d="M392 0h-208l241 1366h208zM476 1498h-179l-337 250h197zM841 1498h-179l-337 250h197z" />
    <glyph glyph-name="idblgrave" unicode="&#x209;" horiz-adv-x="600" 
d="M187 0l187 1056h203l-187 -1056h-203zM428 1217h-141l-248 329h188zM750 1217h-138l-252 329h192z" />
    <glyph glyph-name="Iinvertedbreve" unicode="&#x20a;" horiz-adv-x="576" 
d="M392 0h-208l241 1366h208zM259 1473q14 115 95.5 195t226.5 80q149 0 223.5 -83t49.5 -192h-132q12 66 -26 108t-123 42q-80 0 -126 -41t-57 -109h-131z" />
    <glyph glyph-name="iinvertedbreve" unicode="&#x20b;" horiz-adv-x="600" 
d="M187 0l187 1056h203l-187 -1056h-203zM220 1233q3 54 24.5 104t59 92t98 67.5t134.5 25.5q99 0 169.5 -44t97 -109.5t11.5 -135.5h-131q10 68 -28.5 115.5t-120.5 47.5q-81 0 -127 -46.5t-56 -116.5h-131z" />
    <glyph glyph-name="Odblgrave" unicode="&#x20c;" horiz-adv-x="1388" 
d="M879 1498h-179l-337 250h197zM1244 1498h-179l-337 250h197zM485 842l-34 -180q-15 -78 -15 -149q0 -158 92 -251t254 -93q302 0 369 371l35 192q9 48 9 128q0 154 -92.5 246.5t-250.5 92.5q-142 0 -237.5 -86.5t-129.5 -270.5zM240 676l37 205q44 243 200.5 377.5
t381.5 134.5q247 0 397.5 -143t150.5 -392q0 -81 -15 -163l-38 -206q-46 -249 -196 -382.5t-401 -133.5q-232 0 -381.5 137.5t-149.5 376.5q0 109 14 189z" />
    <glyph glyph-name="odblgrave" unicode="&#x20d;" horiz-adv-x="1154" 
d="M425 634l-21 -114q-10 -62 -10 -104q0 -115 67 -185.5t183 -70.5q107 0 175.5 72t91.5 202l21 122q5 36 5 92q0 110 -66.5 180t-179.5 70q-103 0 -173.5 -68t-92.5 -196zM203 548l22 122q33 185 160 294.5t309 109.5q201 0 325 -116t124 -319q0 -59 -12 -126l-23 -123
q-36 -190 -158 -298.5t-323 -108.5q-189 0 -312 112.5t-123 307.5q0 88 11 145zM705 1217h-141l-248 329h188zM1027 1217h-138l-252 329h192z" />
    <glyph glyph-name="Oinvertedbreve" unicode="&#x20e;" horiz-adv-x="1388" 
d="M662 1473q14 115 95.5 195t226.5 80q149 0 223.5 -83t49.5 -192h-132q12 66 -26 108t-123 42q-80 0 -126 -41t-57 -109h-131zM485 842l-34 -180q-15 -78 -15 -149q0 -158 92 -251t254 -93q302 0 369 371l35 192q9 48 9 128q0 154 -92.5 246.5t-250.5 92.5
q-142 0 -237.5 -86.5t-129.5 -270.5zM240 676l37 205q44 243 200.5 377.5t381.5 134.5q247 0 397.5 -143t150.5 -392q0 -81 -15 -163l-38 -206q-46 -249 -196 -382.5t-401 -133.5q-232 0 -381.5 137.5t-149.5 376.5q0 109 14 189z" />
    <glyph glyph-name="oinvertedbreve" unicode="&#x20f;" horiz-adv-x="1154" 
d="M425 634l-21 -114q-10 -62 -10 -104q0 -115 67 -185.5t183 -70.5q107 0 175.5 72t91.5 202l21 122q5 36 5 92q0 110 -66.5 180t-179.5 70q-103 0 -173.5 -68t-92.5 -196zM203 548l22 122q33 185 160 294.5t309 109.5q201 0 325 -116t124 -319q0 -59 -12 -126l-23 -123
q-36 -190 -158 -298.5t-323 -108.5q-189 0 -312 112.5t-123 307.5q0 88 11 145zM497 1233q3 54 24.5 104t59 92t98 67.5t134.5 25.5q99 0 169.5 -44t97 -109.5t11.5 -135.5h-131q10 68 -28.5 115.5t-120.5 47.5q-81 0 -127 -46.5t-56 -116.5h-131z" />
    <glyph glyph-name="Rdblgrave" unicode="&#x210;" horiz-adv-x="1282" 
d="M776 1498h-179l-337 250h197zM1141 1498h-179l-337 250h197zM392 0h-208l242 1366h475q196 0 302 -98t106 -263q0 -42 -6 -78q-18 -140 -103.5 -235t-211.5 -133l186 -559h-222l-170 528q-23 -1 -64 -1h-232zM852 1185h-248l-88 -481h242q298 0 330 229q5 30 5 61
q0 90 -59.5 140.5t-181.5 50.5z" />
    <glyph glyph-name="rdblgrave" unicode="&#x211;" horiz-adv-x="805" 
d="M167 0l186 1056h193l-32 -176h14q30 81 107 136.5t186 55.5q46 0 93 -13l-40 -196q-39 16 -97 16q-129 0 -204 -82.5t-99 -217.5l-103 -579h-204zM550 1217h-141l-248 329h188zM872 1217h-138l-252 329h192z" />
    <glyph glyph-name="Rinvertedbreve" unicode="&#x212;" horiz-adv-x="1282" 
d="M392 0h-208l242 1366h475q196 0 302 -98t106 -263q0 -42 -6 -78q-18 -140 -103.5 -235t-211.5 -133l186 -559h-222l-170 528q-23 -1 -64 -1h-232zM852 1185h-248l-88 -481h242q298 0 330 229q5 30 5 61q0 90 -59.5 140.5t-181.5 50.5zM559 1473q14 115 95.5 195t226.5 80
q149 0 223.5 -83t49.5 -192h-132q12 66 -26 108t-123 42q-80 0 -126 -41t-57 -109h-131z" />
    <glyph glyph-name="rinvertedbreve" unicode="&#x213;" horiz-adv-x="805" 
d="M167 0l186 1056h193l-32 -176h14q30 81 107 136.5t186 55.5q46 0 93 -13l-40 -196q-39 16 -97 16q-129 0 -204 -82.5t-99 -217.5l-103 -579h-204zM342 1233q3 54 24.5 104t59 92t98 67.5t134.5 25.5q99 0 169.5 -44t97 -109.5t11.5 -135.5h-131q10 68 -28.5 115.5
t-120.5 47.5q-81 0 -127 -46.5t-56 -116.5h-131z" />
    <glyph glyph-name="Udblgrave" unicode="&#x214;" horiz-adv-x="1389" 
d="M883 1498h-179l-337 250h197zM1248 1498h-179l-337 250h197zM618 1366l-146 -825q-8 -34 -8 -92q0 -125 79 -200.5t216 -75.5q126 0 213 71t113 214l161 908h211l-166 -944q-39 -222 -183 -335.5t-356 -113.5q-220 0 -361 118t-141 326q0 59 13 131l144 818h211z" />
    <glyph glyph-name="udblgrave" unicode="&#x215;" horiz-adv-x="1198" 
d="M1215 1056l-185 -1056h-194l31 175h-14q-39 -85 -119 -138.5t-190 -53.5q-156 0 -243 90.5t-87 234.5q0 75 20 181l104 567h203l-103 -572q-13 -80 -13 -128q0 -90 51 -140.5t148 -50.5q119 0 191.5 80t95.5 211l105 600h199zM732 1217h-141l-248 329h188zM1054 1217
h-138l-252 329h192z" />
    <glyph glyph-name="Uinvertedbreve" unicode="&#x216;" horiz-adv-x="1389" 
d="M618 1366l-146 -825q-8 -34 -8 -92q0 -125 79 -200.5t216 -75.5q126 0 213 71t113 214l161 908h211l-166 -944q-39 -222 -183 -335.5t-356 -113.5q-220 0 -361 118t-141 326q0 59 13 131l144 818h211zM666 1473q14 115 95.5 195t226.5 80q149 0 223.5 -83t49.5 -192h-132
q12 66 -26 108t-123 42q-80 0 -126 -41t-57 -109h-131z" />
    <glyph glyph-name="uinvertedbreve" unicode="&#x217;" horiz-adv-x="1198" 
d="M1215 1056l-185 -1056h-194l31 175h-14q-39 -85 -119 -138.5t-190 -53.5q-156 0 -243 90.5t-87 234.5q0 75 20 181l104 567h203l-103 -572q-13 -80 -13 -128q0 -90 51 -140.5t148 -50.5q119 0 191.5 80t95.5 211l105 600h199zM524 1233q3 54 24.5 104t59 92t98 67.5
t134.5 25.5q99 0 169.5 -44t97 -109.5t11.5 -135.5h-131q10 68 -28.5 115.5t-120.5 47.5q-81 0 -127 -46.5t-56 -116.5h-131z" />
    <glyph glyph-name="Scommaaccent" unicode="&#x218;" horiz-adv-x="1226" 
d="M178 392h200q-1 -7 -1 -23q0 -86 84 -149.5t219 -63.5q126 0 205 57.5t79 154.5q0 44 -17.5 77.5t-54 58.5t-71.5 40.5t-92 35.5l-72 27q-58 21 -104.5 43t-95.5 56t-81.5 73.5t-53.5 95t-21 119.5q0 185 137 292t344 107q190 0 322 -100.5t132 -263.5q0 -3 -1 -19
t-1 -17h-193l1 2v6v8q0 91 -76.5 146t-185.5 55q-67 0 -125.5 -20.5t-98.5 -66.5t-40 -109q0 -76 62 -125t180 -92l89 -34q60 -22 101 -41t88 -50.5t75.5 -67t47.5 -89t19 -118.5q0 -198 -141.5 -311t-366.5 -113q-216 0 -355.5 107t-139.5 267q0 24 3 45zM555 -455h-141
l80 312h167z" />
    <glyph glyph-name="scommaaccent" unicode="&#x219;" horiz-adv-x="1046" 
d="M271 758q0 144 102 230.5t287 86.5q92 0 167.5 -25t124 -66.5t74.5 -93.5t26 -108v-24h-184v11q0 55 -56 101.5t-152 46.5q-89 0 -140.5 -39t-51.5 -97q0 -33 15.5 -57.5t45.5 -41.5t62 -29.5t78 -27.5q17 -5 26 -8q52 -17 91 -33t78.5 -41.5t64.5 -56t41 -74t16 -97.5
q0 -159 -114.5 -246t-305.5 -87q-180 0 -299.5 88t-119.5 223v17h188q0 -7 2 -19q11 -61 75.5 -102.5t163.5 -41.5q100 0 155 40.5t55 108.5q0 18 -3.5 33.5t-14.5 28.5t-18.5 22t-28 19.5t-29.5 16t-38 15t-38 12.5t-43 13q-32 10 -53 18t-56 23t-58.5 30.5t-51 39.5
t-44 50.5t-28 63t-11.5 77.5zM478 -455h-141l80 312h167z" />
    <glyph glyph-name="Tcommaaccent" unicode="&#x21a;" horiz-adv-x="1124" 
d="M518 -455h-141l80 312h167zM668 0h-208l211 1176h-411l31 190h1024l-30 -190h-407z" />
    <glyph glyph-name="tcommaaccent" unicode="&#x21b;" horiz-adv-x="779" 
d="M420 -455h-141l80 312h167zM405 1039l50 275h198l-47 -275h227l-28 -170h-227l-83 -466q-19 -108 -19 -133q0 -52 28 -77.5t97 -25.5q66 0 120 10l-29 -165q-52 -15 -150 -15q-276 0 -276 210q0 54 14 125l96 537h-157l29 170h157z" />
    <glyph glyph-name="Hcaron" unicode="&#x21e;" horiz-adv-x="1430" 
d="M392 0h-208l241 1366h208l-101 -569h646l101 569h208l-241 -1366h-202l103 609h-646zM1376 1718l-301 -231h-181l-226 231h201l121 -126h8l162 126h216z" />
    <glyph glyph-name="hcaron" unicode="&#x21f;" horiz-adv-x="1215" 
d="M168 0l250 1423h204l-99 -536h14q40 86 119 135.5t192 49.5q157 0 241.5 -93t84.5 -234q0 -62 -21 -180l-100 -565h-204l102 576q13 75 13 122q0 89 -48 144t-144 55q-120 0 -195.5 -82t-98.5 -210l-106 -605h-204zM484 1579l-185 368h163l107 -245h6l187 245h169
l-306 -368h-141z" />
    <glyph glyph-name="Adotaccent" unicode="&#x226;" horiz-adv-x="1270" 
d="M44 0l714 1366h235l234 -1366h-217l-59 383h-492l-197 -383h-218zM844 1131h-13l-292 -577h391zM799 1610q0 51 33 84.5t81 33.5q50 0 83 -33t33 -85q0 -50 -33 -83t-83 -33q-48 0 -81 33t-33 83z" />
    <glyph glyph-name="adotaccent" unicode="&#x227;" horiz-adv-x="1116" 
d="M479 -17q-135 0 -226 80t-91 217q0 22 2 36q11 143 121 222.5t307 79.5h274l12 69q4 20 4 44q0 71 -50.5 122t-156.5 51q-84 0 -137 -33t-70 -85h-195q22 125 132 206.5t285 81.5q185 0 285.5 -92t100.5 -247q0 -44 -17 -144l-104 -591h-194l25 140h-13
q-32 -63 -108.5 -110t-185.5 -47zM366 307q0 -67 48 -110t131 -43q99 0 176 57t94 144l24 121h-245q-112 0 -170 -48t-58 -121zM638 1300q0 51 33 84.5t81 33.5q50 0 83 -33t33 -85q0 -50 -33 -83t-83 -33q-48 0 -81 33t-33 83z" />
    <glyph glyph-name="Ecedilla" unicode="&#x228;" horiz-adv-x="1146" 
d="M515 0h-331l241 1366h830l-31 -188h-622l-73 -389h591l-28 -179h-592l-78 -422h627l-30 -188h-367l-40 -127q82 -2 132.5 -42t50.5 -112q0 -7 -1 -10q-3 -92 -71 -141.5t-175 -49.5q-85 0 -157 25l19 112q60 -19 126 -19q106 0 107 67v3q0 66 -133 66h-51l9 77z" />
    <glyph glyph-name="ecedilla" unicode="&#x229;" horiz-adv-x="1111" 
d="M909 624q3 9 3 21q21 110 -35.5 184.5t-174.5 74.5q-96 0 -169 -55.5t-97 -164.5l-13 -60h486zM530 -482q-84 0 -156 25l18 112q62 -19 127 -19q106 0 107 67v3q0 66 -133 66h-52l10 77l44 144q-139 30 -221.5 132.5t-82.5 265.5q0 70 17 155l24 131q33 190 161.5 293.5
t314.5 103.5q91 0 164 -26t119.5 -70t75.5 -102t37.5 -121.5t0.5 -129.5q0 -2 -25 -146h-685q-9 -36 -9 -88q0 -100 57.5 -167t179.5 -67q88 0 146.5 35.5t74.5 89.5h198q-19 -116 -131.5 -205t-281.5 -95l-34 -109q82 -2 132.5 -42t50.5 -112q0 -1 -0.5 -5t-0.5 -5
q-4 -92 -72 -141.5t-175 -49.5z" />
    <glyph glyph-name="Odieresismacron" unicode="&#x22a;" horiz-adv-x="1388" 
d="M683 1584q0 50 30.5 80t79.5 30q48 0 79 -30t31 -80q0 -46 -31 -75.5t-79 -29.5t-79 29.5t-31 75.5zM1042 1584q0 49 30.5 79.5t77.5 30.5q50 0 81 -30t31 -80q0 -47 -31 -76t-81 -29q-46 0 -77 29.5t-31 75.5zM485 842l-34 -180q-15 -78 -15 -149q0 -158 92 -251
t254 -93q302 0 369 371l35 192q9 48 9 128q0 154 -92.5 246.5t-250.5 92.5q-142 0 -237.5 -86.5t-129.5 -270.5zM240 676l37 205q44 243 200.5 377.5t381.5 134.5q247 0 397.5 -143t150.5 -392q0 -81 -15 -163l-38 -206q-46 -249 -196 -382.5t-401 -133.5
q-232 0 -381.5 137.5t-149.5 376.5q0 109 14 189zM1362 1904l-20 -117h-680l20 117h680z" />
    <glyph glyph-name="odieresismacron" unicode="&#x22b;" horiz-adv-x="1154" 
d="M495 1303q0 49 32 80t81 31q50 0 82 -31t32 -80q0 -47 -32 -78t-82 -31q-49 0 -81 31t-32 78zM865 1303q0 49 31 80t79 31q52 0 84 -30.5t32 -80.5q0 -48 -32.5 -78.5t-83.5 -30.5q-47 0 -78.5 31t-31.5 78zM425 634l-21 -114q-10 -62 -10 -104q0 -115 67 -185.5
t183 -70.5q107 0 175.5 72t91.5 202l21 122q5 36 5 92q0 110 -66.5 180t-179.5 70q-103 0 -173.5 -68t-92.5 -196zM203 548l22 122q33 185 160 294.5t309 109.5q201 0 325 -116t124 -319q0 -59 -12 -126l-23 -123q-36 -190 -158 -298.5t-323 -108.5q-189 0 -312 112.5
t-123 307.5q0 88 11 145zM1188 1656l-20 -117h-680l20 117h680z" />
    <glyph glyph-name="Otildemacron" unicode="&#x22c;" horiz-adv-x="1388" 
d="M485 842l-34 -180q-15 -78 -15 -149q0 -158 92 -251t254 -93q302 0 369 371l35 192q9 48 9 128q0 154 -92.5 246.5t-250.5 92.5q-142 0 -237.5 -86.5t-129.5 -270.5zM240 676l37 205q44 243 200.5 377.5t381.5 134.5q247 0 397.5 -143t150.5 -392q0 -81 -15 -163
l-38 -206q-46 -249 -196 -382.5t-401 -133.5q-232 0 -381.5 137.5t-149.5 376.5q0 109 14 189zM927 1525q-2 2 -9 9.5t-10 10t-10 9t-11 9t-10.5 7t-12 6.5t-12.5 3.5t-14 1.5q-66 0 -73 -102h-130q0 93 49.5 160t143.5 67q49 0 85.5 -18t76.5 -56q4 -4 20 -19.5t22 -20.5
t19.5 -11t26.5 -6q36 0 54.5 35t21.5 78h130q0 -90 -54 -160t-140 -70q-58 0 -93 17t-70 50zM1362 1904l-20 -117h-680l20 117h680z" />
    <glyph glyph-name="otildemacron" unicode="&#x22d;" horiz-adv-x="1154" 
d="M886 1134q-49 0 -82.5 22.5t-63.5 62.5q-2 3 -15.5 21t-18 23t-15.5 15.5t-22 14t-24 3.5q-36 0 -54 -30t-27 -80h-130q9 115 65.5 184.5t144.5 69.5q32 0 57.5 -8t47.5 -27t32.5 -31t31.5 -38q2 -2 7.5 -9.5t7 -10t6.5 -9t7.5 -8.5t7 -7t7.5 -7l7.5 -5t8.5 -4t9 -2
t10 -1q35 0 56 34.5t29 81.5h130q-5 -103 -67 -179t-153 -76zM1188 1656l-20 -117h-680l20 117h680zM425 634l-21 -114q-10 -62 -10 -104q0 -115 67 -185.5t183 -70.5q107 0 175.5 72t91.5 202l21 122q5 36 5 92q0 110 -66.5 180t-179.5 70q-103 0 -173.5 -68t-92.5 -196z
M203 548l22 122q33 185 160 294.5t309 109.5q201 0 325 -116t124 -319q0 -59 -12 -126l-23 -123q-36 -190 -158 -298.5t-323 -108.5q-189 0 -312 112.5t-123 307.5q0 88 11 145z" />
    <glyph glyph-name="Odotaccent" unicode="&#x22e;" horiz-adv-x="1388" 
d="M861 1610q0 51 33 84.5t81 33.5q50 0 83 -33t33 -85q0 -50 -33 -83t-83 -33q-48 0 -81 33t-33 83zM485 842l-34 -180q-15 -78 -15 -149q0 -158 92 -251t254 -93q302 0 369 371l35 192q9 48 9 128q0 154 -92.5 246.5t-250.5 92.5q-142 0 -237.5 -86.5t-129.5 -270.5z
M240 676l37 205q44 243 200.5 377.5t381.5 134.5q247 0 397.5 -143t150.5 -392q0 -81 -15 -163l-38 -206q-46 -249 -196 -382.5t-401 -133.5q-232 0 -381.5 137.5t-149.5 376.5q0 109 14 189z" />
    <glyph glyph-name="odotaccent" unicode="&#x22f;" horiz-adv-x="1154" 
d="M680 1300q0 51 33 84.5t81 33.5q50 0 83 -33t33 -85q0 -50 -33 -83t-83 -33q-48 0 -81 33t-33 83zM425 634l-21 -114q-10 -62 -10 -104q0 -115 67 -185.5t183 -70.5q107 0 175.5 72t91.5 202l21 122q5 36 5 92q0 110 -66.5 180t-179.5 70q-103 0 -173.5 -68t-92.5 -196z
M203 548l22 122q33 185 160 294.5t309 109.5q201 0 325 -116t124 -319q0 -59 -12 -126l-23 -123q-36 -190 -158 -298.5t-323 -108.5q-189 0 -312 112.5t-123 307.5q0 88 11 145z" />
    <glyph glyph-name="Odotaccentmacron" unicode="&#x230;" horiz-adv-x="1388" 
d="M861 1610q0 51 33 84.5t81 33.5q50 0 83 -33t33 -85q0 -50 -33 -83t-83 -33q-48 0 -81 33t-33 83zM485 842l-34 -180q-15 -78 -15 -149q0 -158 92 -251t254 -93q302 0 369 371l35 192q9 48 9 128q0 154 -92.5 246.5t-250.5 92.5q-142 0 -237.5 -86.5t-129.5 -270.5z
M240 676l37 205q44 243 200.5 377.5t381.5 134.5q247 0 397.5 -143t150.5 -392q0 -81 -15 -163l-38 -206q-46 -249 -196 -382.5t-401 -133.5q-232 0 -381.5 137.5t-149.5 376.5q0 109 14 189zM1362 1904l-20 -117h-680l20 117h680z" />
    <glyph glyph-name="odotaccentmacron" unicode="&#x231;" horiz-adv-x="1154" 
d="M680 1300q0 51 33 84.5t81 33.5q50 0 83 -33t33 -85q0 -50 -33 -83t-83 -33q-48 0 -81 33t-33 83zM1188 1656l-20 -117h-680l20 117h680zM425 634l-21 -114q-10 -62 -10 -104q0 -115 67 -185.5t183 -70.5q107 0 175.5 72t91.5 202l21 122q5 36 5 92q0 110 -66.5 180
t-179.5 70q-103 0 -173.5 -68t-92.5 -196zM203 548l22 122q33 185 160 294.5t309 109.5q201 0 325 -116t124 -319q0 -59 -12 -126l-23 -123q-36 -190 -158 -298.5t-323 -108.5q-189 0 -312 112.5t-123 307.5q0 88 11 145z" />
    <glyph glyph-name="Ymacron" unicode="&#x232;" horiz-adv-x="1158" 
d="M782 552l-99 -552h-207l98 548l-326 818h220l232 -612h11l438 612h236zM1194 1616l-20 -117h-680l20 117h680z" />
    <glyph glyph-name="ymacron" unicode="&#x233;" horiz-adv-x="1060" 
d="M1177 1056l-531 -1046q-1 -3 -20 -37t-19 -35q-34 -66 -62.5 -109.5t-64.5 -81t-78 -58t-97.5 -32t-128.5 -11.5q-52 0 -104 13l35 167q40 -10 80 -10q84 0 130 37.5t81 111.5l23 53l-191 1038h212l121 -836h12l386 836h216zM1091 1328l-20 -117h-680l20 117h680z" />
    <glyph glyph-name="circumflex" unicode="&#x2c6;" horiz-adv-x="1000" 
d="M396 1195l308 368h141l182 -368h-164l-104 245h-7l-190 -245h-166z" />
    <glyph glyph-name="caron" unicode="&#x2c7;" horiz-adv-x="1000" 
d="M658 1219l-185 368h163l107 -245h6l187 245h169l-306 -368h-141z" />
    <glyph glyph-name="breve" unicode="&#x2d8;" horiz-adv-x="1000" 
d="M460 1518h131q-9 -65 30 -112t120 -47q80 0 129.5 45.5t59.5 113.5h131q-9 -115 -94 -200t-227 -85q-146 0 -223.5 88t-56.5 197z" />
    <glyph glyph-name="dotaccent" unicode="&#x2d9;" horiz-adv-x="1000" 
d="M593 1447q0 70 44.5 114.5t108.5 44.5q66 0 109 -42.5t43 -109.5q0 -68 -45 -112t-112 -44q-62 0 -105 42t-43 107z" />
    <glyph glyph-name="ring" unicode="&#x2da;" horiz-adv-x="1000" 
d="M737 1322q42 0 71.5 29t29.5 70q0 42 -29.5 70.5t-71.5 28.5t-72 -28.5t-30 -70.5q0 -40 30.5 -69.5t71.5 -29.5zM736 1221q-83 0 -140.5 58.5t-57.5 141.5q0 84 58.5 141.5t141.5 57.5q82 0 138.5 -58t56.5 -141q0 -84 -57.5 -142t-139.5 -58z" />
    <glyph glyph-name="ogonek" unicode="&#x2db;" horiz-adv-x="1000" 
d="M605 76q-58 -41 -105 -100t-47 -123q0 -49 32 -83.5t111 -34.5h34v-122q-29 -9 -81 -9q-107 0 -177.5 59t-70.5 159q0 118 108 211q8 11 77 60z" />
    <glyph glyph-name="tilde" unicode="&#x2dc;" horiz-adv-x="1000" 
d="M850 1171q-49 0 -82.5 22.5t-63.5 62.5q-2 3 -15.5 21t-18 23t-15.5 15.5t-22 14t-24 3.5q-36 0 -54 -30t-27 -80h-130q9 115 65.5 184.5t144.5 69.5q32 0 57.5 -8t47.5 -27t32.5 -31t31.5 -38q2 -2 7.5 -9.5t7 -10t6.5 -9t7.5 -8.5t7 -7t7.5 -7l7.5 -5t8.5 -4t9 -2
t10 -1q35 0 56 34.5t29 81.5h130q-5 -103 -67 -179t-153 -76z" />
    <glyph glyph-name="hungarumlaut" unicode="&#x2dd;" horiz-adv-x="1000" 
d="M524 1216h-136l259 309h200zM843 1216h-139l263 309h197z" />
    <glyph glyph-name="gravecmb" unicode="&#x300;" 
d="M324 1211h-159l-241 345h211z" />
    <glyph glyph-name="acutecmb" unicode="&#x301;" 
d="M231 1211h-153l283 347h208z" />
    <glyph glyph-name="circumflexcmb" unicode="&#x302;" 
d="M-104 1208l308 368h141l182 -368h-164l-104 245h-7l-190 -245h-166z" />
    <glyph glyph-name="tildecmb" unicode="&#x303;" 
d="M319 1134q-49 0 -82.5 22.5t-63.5 62.5q-2 3 -15.5 21t-18 23t-15.5 15.5t-22 14t-24 3.5q-36 0 -54 -30t-27 -80h-130q9 115 65.5 184.5t144.5 69.5q32 0 57.5 -8t47.5 -27t32.5 -31t31.5 -38q2 -2 7.5 -9.5t7 -10t6.5 -9t7.5 -8.5t7 -7t7.5 -7l7.5 -5t8.5 -4t9 -2
t10 -1q35 0 56 34.5t29 81.5h130q-5 -103 -67 -179t-153 -76z" />
    <glyph glyph-name="macroncmb" unicode="&#x304;" 
d="M561 1328l-20 -117h-680l20 117h680z" />
    <glyph glyph-name="brevecmb" unicode="&#x306;" 
d="M-50 1479h131q-9 -65 30 -112t120 -47q80 0 129.5 45.5t59.5 113.5h131q-9 -115 -94 -200t-227 -85q-146 0 -223.5 88t-56.5 197z" />
    <glyph glyph-name="dotaccentcmb" unicode="&#x307;" 
d="M113 1300q0 51 33 84.5t81 33.5q50 0 83 -33t33 -85q0 -50 -33 -83t-83 -33q-48 0 -81 33t-33 83z" />
    <glyph glyph-name="dieresiscmb" unicode="&#x308;" 
d="M-72 1303q0 49 32 80t81 31q50 0 82 -31t32 -80q0 -47 -32 -78t-82 -31q-49 0 -81 31t-32 78zM298 1303q0 49 31 80t79 31q52 0 84 -30.5t32 -80.5q0 -48 -32.5 -78.5t-83.5 -30.5q-47 0 -78.5 31t-31.5 78z" />
    <glyph glyph-name="hookabovecmb" unicode="&#x309;" 
d="M96 1446l16 109q40 17 114 17q89 0 143 -45t54 -114q0 -156 -192 -234l-56 92q66 32 91 59t25 61q0 29 -27.5 50t-67.5 21q-61 0 -100 -16z" />
    <glyph glyph-name="ringcmb" unicode="&#x30a;" 
d="M249 1314q42 0 71.5 29t29.5 70q0 42 -29.5 70.5t-71.5 28.5t-72 -28.5t-30 -70.5q0 -40 30.5 -69.5t71.5 -29.5zM248 1213q-83 0 -140.5 58.5t-57.5 141.5q0 84 58.5 141.5t141.5 57.5q82 0 138.5 -58t56.5 -141q0 -84 -57.5 -142t-139.5 -58z" />
    <glyph glyph-name="hungarumlautcmb" unicode="&#x30b;" 
d="M116 1216h-136l259 309h200zM435 1216h-139l263 309h197z" />
    <glyph glyph-name="caroncmb" unicode="&#x30c;" 
d="M148 1212l-185 368h163l107 -245h6l187 245h169l-306 -368h-141z" />
    <glyph glyph-name="dblgravecmb" unicode="&#x30f;" 
d="M137 1217h-141l-248 329h188zM459 1217h-138l-252 329h192z" />
    <glyph glyph-name="invertedbrevecmb" unicode="&#x311;" 
d="M-70 1233q3 54 24.5 104t59 92t98 67.5t134.5 25.5q99 0 169.5 -44t97 -109.5t11.5 -135.5h-131q10 68 -28.5 115.5t-120.5 47.5q-81 0 -127 -46.5t-56 -116.5h-131z" />
    <glyph glyph-name="horncmb" unicode="&#x31b;" 
d="M168 929l29 174q32 -32 86 -31q68 1 101.5 38t45.5 104l27 157h172l-29 -171q-11 -61 -34 -113t-59 -95t-90 -68t-119 -25q-91 0 -130 30z" />
    <glyph glyph-name="dotbelowcmb" unicode="&#x323;" 
d="M-147 -232q0 50 31 82t77 32q49 0 80 -31.5t31 -82.5q0 -49 -31 -80.5t-80 -31.5q-46 0 -77 32t-31 80z" />
    <glyph glyph-name="dieresisbelowcmb" unicode="&#x324;" 
d="M-343 -256q0 49 32 80t81 31q50 0 82 -31t32 -80q0 -47 -32 -78t-82 -31q-49 0 -81 31t-32 78zM27 -256q0 49 31 80t79 31q52 0 84 -30.5t32 -80.5q0 -48 -32.5 -78.5t-83.5 -30.5q-47 0 -78.5 31t-31.5 78z" />
    <glyph glyph-name="ringbelowcmb" unicode="&#x325;" 
d="M-46 -386q42 0 71.5 29t29.5 70q0 42 -29.5 70.5t-71.5 28.5t-72 -28.5t-30 -70.5q0 -40 30.5 -69.5t71.5 -29.5zM-47 -487q-83 0 -140.5 58.5t-57.5 141.5q0 84 58.5 141.5t141.5 57.5q82 0 138.5 -58t56.5 -141q0 -84 -57.5 -142t-139.5 -58z" />
    <glyph glyph-name="commabelowcmb" unicode="&#x326;" 
d="M-45 -455h-141l80 312h167z" />
    <glyph glyph-name="cedillacmb" unicode="&#x327;" 
d="M-118 -151l51 165h137l-44 -141q81 -2 131.5 -42t50.5 -112v-10q-4 -92 -72 -141.5t-175 -49.5q-82 0 -157 25l19 112q62 -19 127 -19q106 0 107 67v3q0 66 -133 66h-52z" />
    <glyph glyph-name="ogonekcmb" unicode="&#x328;" 
d="M62 43q-58 -41 -105 -100t-47 -123q0 -49 32 -83.5t111 -34.5h34v-122q-29 -9 -81 -9q-107 0 -177.5 59t-70.5 159q0 118 108 211q8 11 77 60z" />
    <glyph glyph-name="circumflexbelowcmb" unicode="&#x32d;" 
d="M-404 -400l286 273h185l188 -273h-175l-111 165h-13l-178 -165h-182z" />
    <glyph glyph-name="brevebelowcmb" unicode="&#x32e;" 
d="M-336 -112h138q-10 -67 30 -115.5t120 -48.5q81 0 133 46.5t61 117.5h137q-4 -52 -26 -101.5t-60.5 -93t-102 -69.5t-141.5 -26q-79 0 -139.5 25t-94 66.5t-48 92.5t-7.5 106z" />
    <glyph glyph-name="tildebelowcmb" unicode="&#x330;" 
d="M56 -435q-49 0 -82 22.5t-64 62.5q-4 6 -13 18.5t-14 18.5t-13.5 15.5t-15.5 14t-17.5 8t-21.5 3.5q-37 0 -54 -29.5t-28 -81.5h-130q9 115 66 185t145 70q32 0 57.5 -8.5t47.5 -27t33 -31t31 -38.5q2 -2 10 -13t10.5 -14t9.5 -11t11 -11t10.5 -7t13 -5.5t13.5 -1.5
q35 0 55.5 34.5t28.5 82.5h131q-6 -104 -67.5 -180t-152.5 -76z" />
    <glyph glyph-name="macronbelowcmb" unicode="&#x331;" 
d="M301 -185l-20 -117h-680l20 117h680z" />
    <glyph glyph-name="Delta" unicode="&#x394;" horiz-adv-x="1268" 
d="M1221 0h-1183l714 1365h235zM344 190h640l-144 942h-12z" />
    <glyph glyph-name="Omega" unicode="&#x3a9;" horiz-adv-x="1395" 
d="M780 0l32 219q50 16 96.5 42.5t92 69t80 108t49.5 145.5l30 163q12 70 12 127q0 160 -85 243.5t-227 83.5q-143 0 -244 -86t-133 -257l-30 -162q-10 -60 -10 -133q0 -123 45 -212t120 -131l-36 -220h-448l31 188h244l3 14q-68 51 -111.5 153.5t-43.5 235.5q0 81 10 141
l32 172q43 239 197.5 363.5t381.5 124.5q236 0 373 -130.5t137 -369.5q0 -84 -14 -160l-32 -172q-22 -121 -108.5 -218.5t-178.5 -135.5l-4 -18h271l-33 -188h-499z" />
    <glyph glyph-name="mu" unicode="&#x3bc;" horiz-adv-x="1270" 
d="M352 63l-57 -399h-189l250 1392h202l-103 -580q-14 -75 -13 -122q1 -90 51.5 -139.5t144.5 -49.5q120 0 193.5 78t96.5 208l106 605h198l-144 -802q-18 -102 81 -102q32 0 52 5l-27 -162q-58 -13 -117 -13q-94 0 -141 43t-45 125q0 4 2 18t2 15h-7q-36 -85 -116 -142
t-193 -57q-145 0 -224 79h-3z" />
    <glyph glyph-name="pi" unicode="&#x3c0;" horiz-adv-x="1323" 
d="M1201 0q-60 -13 -116 -13q-97 0 -151 42.5t-56 115.5q0 28 4 51l124 687h-360l-157 -883h-202l157 883h-225l29 173h1199l-29 -173h-209l-114 -630q-4 -16 -2 -35q8 -56 80 -56q33 0 56 6z" />
    <glyph glyph-name="Aringbelow" unicode="&#x1e00;" horiz-adv-x="1270" 
d="M44 0l714 1366h235l234 -1366h-217l-59 383h-492l-197 -383h-218zM844 1131h-13l-292 -577h391zM588 -386q42 0 71.5 29t29.5 70q0 42 -29.5 70.5t-71.5 28.5t-72 -28.5t-30 -70.5q0 -40 30.5 -69.5t71.5 -29.5zM587 -487q-83 0 -140.5 58.5t-57.5 141.5q0 84 58.5 141.5
t141.5 57.5q82 0 138.5 -58t56.5 -141q0 -84 -57.5 -142t-139.5 -58z" />
    <glyph glyph-name="aringbelow" unicode="&#x1e01;" horiz-adv-x="1116" 
d="M479 -17q-135 0 -226 80t-91 217q0 22 2 36q11 143 121 222.5t307 79.5h274l12 69q4 20 4 44q0 71 -50.5 122t-156.5 51q-84 0 -137 -33t-70 -85h-195q22 125 132 206.5t285 81.5q185 0 285.5 -92t100.5 -247q0 -44 -17 -144l-104 -591h-194l25 140h-13
q-32 -63 -108.5 -110t-185.5 -47zM366 307q0 -67 48 -110t131 -43q99 0 176 57t94 144l24 121h-245q-112 0 -170 -48t-58 -121zM464 -386q42 0 71.5 29t29.5 70q0 42 -29.5 70.5t-71.5 28.5t-72 -28.5t-30 -70.5q0 -40 30.5 -69.5t71.5 -29.5zM463 -487q-83 0 -140.5 58.5
t-57.5 141.5q0 84 58.5 141.5t141.5 57.5q82 0 138.5 -58t56.5 -141q0 -84 -57.5 -142t-139.5 -58z" />
    <glyph glyph-name="Bdotaccent" unicode="&#x1e02;" horiz-adv-x="1291" 
d="M184 0l241 1366h481q106 0 184.5 -25.5t122 -70t63.5 -97t20 -113.5q0 -130 -83 -222t-194 -116l-2 -12q110 -19 177.5 -96t67.5 -202q0 -193 -148 -302.5t-409 -109.5h-521zM603 1195l-75 -407h259q129 0 211 63.5t82 173.5q0 86 -59 128t-184 42h-234zM500 621
l-81 -449h291q150 0 246 66t96 183q0 95 -70 147.5t-216 52.5h-266zM777 1610q0 51 33 84.5t81 33.5q50 0 83 -33t33 -85q0 -50 -33 -83t-83 -33q-48 0 -81 33t-33 83z" />
    <glyph glyph-name="bdotaccent" unicode="&#x1e03;" horiz-adv-x="1212" 
d="M446 1667q0 51 33 84.5t81 33.5q50 0 83 -33t33 -85q0 -50 -33 -83t-83 -33q-48 0 -81 33t-33 83zM730 -17q-120 0 -206 67.5t-105 155.5h-12l-37 -206h-203l253 1423h204l-98 -543h14q15 35 38 65.5t58.5 60.5t88.5 47.5t117 17.5q164 0 263.5 -106t99.5 -287
q0 -75 -10 -131l-31 -167q-31 -180 -143 -288.5t-291 -108.5zM459 433q0 -123 73.5 -194t169.5 -71q108 0 179.5 73t91.5 188l25 133q4 24 4 88q0 114 -63 179.5t-174 65.5q-110 0 -184 -76t-95 -203l-22 -129q-5 -30 -5 -54z" />
    <glyph glyph-name="Bdotbelow" unicode="&#x1e04;" horiz-adv-x="1291" 
d="M499 -232q0 50 31 82t77 32q49 0 80 -31.5t31 -82.5q0 -49 -31 -80.5t-80 -31.5q-46 0 -77 32t-31 80zM184 0l241 1366h481q106 0 184.5 -25.5t122 -70t63.5 -97t20 -113.5q0 -130 -83 -222t-194 -116l-2 -12q110 -19 177.5 -96t67.5 -202q0 -193 -148 -302.5
t-409 -109.5h-521zM603 1195l-75 -407h259q129 0 211 63.5t82 173.5q0 86 -59 128t-184 42h-234zM500 621l-81 -449h291q150 0 246 66t96 183q0 95 -70 147.5t-216 52.5h-266z" />
    <glyph glyph-name="bdotbelow" unicode="&#x1e05;" horiz-adv-x="1212" 
d="M523 -232q0 50 31 82t77 32q49 0 80 -31.5t31 -82.5q0 -49 -31 -80.5t-80 -31.5q-46 0 -77 32t-31 80zM730 -17q-120 0 -206 67.5t-105 155.5h-12l-37 -206h-203l253 1423h204l-98 -543h14q15 35 38 65.5t58.5 60.5t88.5 47.5t117 17.5q164 0 263.5 -106t99.5 -287
q0 -75 -10 -131l-31 -167q-31 -180 -143 -288.5t-291 -108.5zM459 433q0 -123 73.5 -194t169.5 -71q108 0 179.5 73t91.5 188l25 133q4 24 4 88q0 114 -63 179.5t-174 65.5q-110 0 -184 -76t-95 -203l-22 -129q-5 -30 -5 -54z" />
    <glyph glyph-name="Blinebelow" unicode="&#x1e06;" horiz-adv-x="1291" 
d="M184 0l241 1366h481q106 0 184.5 -25.5t122 -70t63.5 -97t20 -113.5q0 -130 -83 -222t-194 -116l-2 -12q110 -19 177.5 -96t67.5 -202q0 -193 -148 -302.5t-409 -109.5h-521zM603 1195l-75 -407h259q129 0 211 63.5t82 173.5q0 86 -59 128t-184 42h-234zM500 621
l-81 -449h291q150 0 246 66t96 183q0 95 -70 147.5t-216 52.5h-266zM947 -185l-20 -117h-680l20 117h680z" />
    <glyph glyph-name="blinebelow" unicode="&#x1e07;" horiz-adv-x="1212" 
d="M971 -185l-20 -117h-680l20 117h680zM730 -17q-120 0 -206 67.5t-105 155.5h-12l-37 -206h-203l253 1423h204l-98 -543h14q15 35 38 65.5t58.5 60.5t88.5 47.5t117 17.5q164 0 263.5 -106t99.5 -287q0 -75 -10 -131l-31 -167q-31 -180 -143 -288.5t-291 -108.5zM459 433
q0 -123 73.5 -194t169.5 -71q108 0 179.5 73t91.5 188l25 133q4 24 4 88q0 114 -63 179.5t-174 65.5q-110 0 -184 -76t-95 -203l-22 -129q-5 -30 -5 -54z" />
    <glyph glyph-name="Ccedillaacute" unicode="&#x1e08;" horiz-adv-x="1306" 
d="M755 1498l294 204h245l-330 -204h-209zM676 -482q-82 0 -157 25l19 112q62 -19 127 -19q105 0 107 67v3q0 66 -134 66h-51l10 77l40 134q-183 32 -295 165t-112 362q0 92 9 140l45 228q47 247 199.5 381t372.5 134q115 0 211 -35.5t158.5 -95t97 -134.5t34.5 -156
q0 -36 -5 -54h-199q1 11 1 38q-4 44 -24 85t-55 77t-93 57.5t-129 21.5q-290 0 -363 -356l-37 -179q-13 -69 -13 -151q0 -168 91.5 -254t234.5 -86q130 0 208.5 62.5t98.5 158.5h202q-1 -5 -4 -22t-3 -19q-13 -69 -48.5 -132t-94 -118t-150 -89.5t-203.5 -37.5l-31 -101
q81 -2 131.5 -42t50.5 -112v-10q-4 -92 -72 -141.5t-175 -49.5z" />
    <glyph glyph-name="ccedillaacute" unicode="&#x1e09;" horiz-adv-x="1078" 
d="M771 1211h-153l283 347h208zM519 -482q-85 0 -157 25l19 112q62 -19 126 -19q106 0 107 67v3q0 66 -133 66h-51l9 77l46 148q-138 36 -216 139.5t-78 257.5q0 69 14 148l24 136q33 194 157 295t307 101q185 0 297.5 -97.5t112.5 -248.5q0 -17 -1 -20h-189v12
q0 67 -59.5 122.5t-161.5 55.5q-103 0 -175 -67.5t-95 -191.5l-20 -113q-10 -59 -10 -102q0 -124 60.5 -192.5t178.5 -68.5q86 0 141.5 35.5t69.5 91.5h200q-22 -141 -134.5 -222.5t-275.5 -85.5h-14l-35 -109q82 -2 132.5 -42t50.5 -112q0 -7 -1 -10q-3 -92 -71 -141.5
t-175 -49.5z" />
    <glyph glyph-name="Ddotaccent" unicode="&#x1e0a;" horiz-adv-x="1365" 
d="M812 1610q0 51 33 84.5t81 33.5q50 0 83 -33t33 -85q0 -50 -33 -83t-83 -33q-48 0 -81 33t-33 83zM425 1366h409q262 0 403.5 -142.5t141.5 -381.5q0 -79 -11 -146q0 -6 -12 -71t-15 -77q-51 -266 -240 -407t-508 -141h-409zM603 1178l-180 -990h162q224 0 367.5 95.5
t181.5 286.5q2 7 13 66.5t12 66.5q9 53 9 123q0 177 -101.5 264.5t-294.5 87.5h-169z" />
    <glyph glyph-name="ddotaccent" unicode="&#x1e0b;" horiz-adv-x="1211" 
d="M1118 1667q0 51 33 84.5t81 33.5q50 0 83 -33t33 -85q0 -50 -33 -83t-83 -33q-48 0 -81 33t-33 83zM672 1071q126 0 209 -69t96 -150h14l99 571h204l-250 -1423h-201l31 175h-14q-24 -73 -102 -131.5t-198 -58.5q-165 0 -267.5 109.5t-102.5 289.5q0 75 10 131l34 165
q33 178 146 284.5t292 106.5zM948 634q0 123 -73.5 191.5t-171.5 68.5q-109 0 -179 -71.5t-94 -190.5l-27 -131q-6 -32 -6 -85q0 -114 64.5 -182t176.5 -68q111 0 183.5 75.5t96.5 204.5l25 130q5 31 5 58z" />
    <glyph glyph-name="Ddotbelow" unicode="&#x1e0c;" horiz-adv-x="1365" 
d="M510 -232q0 50 31 82t77 32q49 0 80 -31.5t31 -82.5q0 -49 -31 -80.5t-80 -31.5q-46 0 -77 32t-31 80zM425 1366h409q262 0 403.5 -142.5t141.5 -381.5q0 -79 -11 -146q0 -6 -12 -71t-15 -77q-51 -266 -240 -407t-508 -141h-409zM603 1178l-180 -990h162
q224 0 367.5 95.5t181.5 286.5q2 7 13 66.5t12 66.5q9 53 9 123q0 177 -101.5 264.5t-294.5 87.5h-169z" />
    <glyph glyph-name="ddotbelow" unicode="&#x1e0d;" horiz-adv-x="1211" 
d="M462 -232q0 50 31 82t77 32q49 0 80 -31.5t31 -82.5q0 -49 -31 -80.5t-80 -31.5q-46 0 -77 32t-31 80zM672 1071q126 0 209 -69t96 -150h14l99 571h204l-250 -1423h-201l31 175h-14q-24 -73 -102 -131.5t-198 -58.5q-165 0 -267.5 109.5t-102.5 289.5q0 75 10 131l34 165
q33 178 146 284.5t292 106.5zM948 634q0 123 -73.5 191.5t-171.5 68.5q-109 0 -179 -71.5t-94 -190.5l-27 -131q-6 -32 -6 -85q0 -114 64.5 -182t176.5 -68q111 0 183.5 75.5t96.5 204.5l25 130q5 31 5 58z" />
    <glyph glyph-name="Dlinebelow" unicode="&#x1e0e;" horiz-adv-x="1365" 
d="M958 -185l-20 -117h-680l20 117h680zM425 1366h409q262 0 403.5 -142.5t141.5 -381.5q0 -79 -11 -146q0 -6 -12 -71t-15 -77q-51 -266 -240 -407t-508 -141h-409zM603 1178l-180 -990h162q224 0 367.5 95.5t181.5 286.5q2 7 13 66.5t12 66.5q9 53 9 123
q0 177 -101.5 264.5t-294.5 87.5h-169z" />
    <glyph glyph-name="dlinebelow" unicode="&#x1e0f;" horiz-adv-x="1211" 
d="M910 -185l-20 -117h-680l20 117h680zM672 1071q126 0 209 -69t96 -150h14l99 571h204l-250 -1423h-201l31 175h-14q-24 -73 -102 -131.5t-198 -58.5q-165 0 -267.5 109.5t-102.5 289.5q0 75 10 131l34 165q33 178 146 284.5t292 106.5zM948 634q0 123 -73.5 191.5
t-171.5 68.5q-109 0 -179 -71.5t-94 -190.5l-27 -131q-6 -32 -6 -85q0 -114 64.5 -182t176.5 -68q111 0 183.5 75.5t96.5 204.5l25 130q5 31 5 58z" />
    <glyph glyph-name="Dcommaaccent" unicode="&#x1e10;" horiz-adv-x="1365" 
d="M612 -455h-141l80 312h167zM425 1366h409q262 0 403.5 -142.5t141.5 -381.5q0 -79 -11 -146q0 -6 -12 -71t-15 -77q-51 -266 -240 -407t-508 -141h-409zM603 1178l-180 -990h162q224 0 367.5 95.5t181.5 286.5q2 7 13 66.5t12 66.5q9 53 9 123q0 177 -101.5 264.5
t-294.5 87.5h-169z" />
    <glyph glyph-name="dcommaaccent" unicode="&#x1e11;" horiz-adv-x="1211" 
d="M564 -455h-141l80 312h167zM672 1071q126 0 209 -69t96 -150h14l99 571h204l-250 -1423h-201l31 175h-14q-24 -73 -102 -131.5t-198 -58.5q-165 0 -267.5 109.5t-102.5 289.5q0 75 10 131l34 165q33 178 146 284.5t292 106.5zM948 634q0 123 -73.5 191.5t-171.5 68.5
q-109 0 -179 -71.5t-94 -190.5l-27 -131q-6 -32 -6 -85q0 -114 64.5 -182t176.5 -68q111 0 183.5 75.5t96.5 204.5l25 130q5 31 5 58z" />
    <glyph glyph-name="Dcircumflexbelow" unicode="&#x1e12;" horiz-adv-x="1365" 
d="M425 1366h409q262 0 403.5 -142.5t141.5 -381.5q0 -79 -11 -146q0 -6 -12 -71t-15 -77q-51 -266 -240 -407t-508 -141h-409zM603 1178l-180 -990h162q224 0 367.5 95.5t181.5 286.5q2 7 13 66.5t12 66.5q9 53 9 123q0 177 -101.5 264.5t-294.5 87.5h-169zM253 -400
l286 273h185l188 -273h-175l-111 165h-13l-178 -165h-182z" />
    <glyph glyph-name="dcircumflexbelow" unicode="&#x1e13;" horiz-adv-x="1211" 
d="M672 1071q126 0 209 -69t96 -150h14l99 571h204l-250 -1423h-201l31 175h-14q-24 -73 -102 -131.5t-198 -58.5q-165 0 -267.5 109.5t-102.5 289.5q0 75 10 131l34 165q33 178 146 284.5t292 106.5zM948 634q0 123 -73.5 191.5t-171.5 68.5q-109 0 -179 -71.5t-94 -190.5
l-27 -131q-6 -32 -6 -85q0 -114 64.5 -182t176.5 -68q111 0 183.5 75.5t96.5 204.5l25 130q5 31 5 58zM205 -400l286 273h185l188 -273h-175l-111 165h-13l-178 -165h-182z" />
    <glyph glyph-name="Emacrongrave" unicode="&#x1e14;" horiz-adv-x="1146" 
d="M1024 1730h-205l-310 200h236zM1049 188l-30 -188h-835l241 1366h830l-31 -188h-622l-73 -389h591l-28 -179h-592l-78 -422h627zM1203 1616l-20 -117h-680l20 117h680z" />
    <glyph glyph-name="emacrongrave" unicode="&#x1e15;" horiz-adv-x="1111" 
d="M923 1482h-159l-241 345h211zM609 -19q-186 0 -302 106.5t-116 303.5q0 70 17 155l24 131q33 190 161.5 293.5t314.5 103.5q91 0 164 -26t119.5 -70t75.5 -102t37.5 -121.5t0.5 -129.5q0 -2 -25 -146h-685q-9 -36 -9 -88q0 -100 57.5 -167t179.5 -67q88 0 146.5 35.5
t74.5 89.5h198q-9 -57 -43.5 -110.5t-88.5 -96t-132.5 -68.5t-168.5 -26zM909 624q3 9 3 21q21 110 -35.5 184.5t-174.5 74.5q-96 0 -169 -55.5t-97 -164.5l-13 -60h486zM1111 1328l-20 -117h-680l20 117h680z" />
    <glyph glyph-name="Emacronacute" unicode="&#x1e16;" horiz-adv-x="1146" 
d="M737 1730l294 204h245l-330 -204h-209zM1049 188l-30 -188h-835l241 1366h830l-31 -188h-622l-73 -389h591l-28 -179h-592l-78 -422h627zM1203 1616l-20 -117h-680l20 117h680z" />
    <glyph glyph-name="emacronacute" unicode="&#x1e17;" horiz-adv-x="1111" 
d="M830 1482h-153l283 347h208zM609 -19q-186 0 -302 106.5t-116 303.5q0 70 17 155l24 131q33 190 161.5 293.5t314.5 103.5q91 0 164 -26t119.5 -70t75.5 -102t37.5 -121.5t0.5 -129.5q0 -2 -25 -146h-685q-9 -36 -9 -88q0 -100 57.5 -167t179.5 -67q88 0 146.5 35.5
t74.5 89.5h198q-9 -57 -43.5 -110.5t-88.5 -96t-132.5 -68.5t-168.5 -26zM909 624q3 9 3 21q21 110 -35.5 184.5t-174.5 74.5q-96 0 -169 -55.5t-97 -164.5l-13 -60h486zM1111 1328l-20 -117h-680l20 117h680z" />
    <glyph glyph-name="Ecircumflexbelow" unicode="&#x1e18;" horiz-adv-x="1146" 
d="M1049 188l-30 -188h-835l241 1366h830l-31 -188h-622l-73 -389h591l-28 -179h-592l-78 -422h627zM194 -400l286 273h185l188 -273h-175l-111 165h-13l-178 -165h-182z" />
    <glyph glyph-name="ecircumflexbelow" unicode="&#x1e19;" horiz-adv-x="1111" 
d="M609 -19q-186 0 -302 106.5t-116 303.5q0 70 17 155l24 131q33 190 161.5 293.5t314.5 103.5q91 0 164 -26t119.5 -70t75.5 -102t37.5 -121.5t0.5 -129.5q0 -2 -25 -146h-685q-9 -36 -9 -88q0 -100 57.5 -167t179.5 -67q88 0 146.5 35.5t74.5 89.5h198
q-9 -57 -43.5 -110.5t-88.5 -96t-132.5 -68.5t-168.5 -26zM909 624q3 9 3 21q21 110 -35.5 184.5t-174.5 74.5q-96 0 -169 -55.5t-97 -164.5l-13 -60h486zM184 -400l286 273h185l188 -273h-175l-111 165h-13l-178 -165h-182z" />
    <glyph glyph-name="Etildebelow" unicode="&#x1e1a;" horiz-adv-x="1146" 
d="M654 -435q-49 0 -82 22.5t-64 62.5q-4 6 -13 18.5t-14 18.5t-13.5 15.5t-15.5 14t-17.5 8t-21.5 3.5q-37 0 -54 -29.5t-28 -81.5h-130q9 115 66 185t145 70q32 0 57.5 -8.5t47.5 -27t33 -31t31 -38.5q2 -2 10 -13t10.5 -14t9.5 -11t11 -11t10.5 -7t13 -5.5t13.5 -1.5
q35 0 55.5 34.5t28.5 82.5h131q-6 -104 -67.5 -180t-152.5 -76zM1049 188l-30 -188h-835l241 1366h830l-31 -188h-622l-73 -389h591l-28 -179h-592l-78 -422h627z" />
    <glyph glyph-name="etildebelow" unicode="&#x1e1b;" horiz-adv-x="1111" 
d="M644 -435q-49 0 -82 22.5t-64 62.5q-4 6 -13 18.5t-14 18.5t-13.5 15.5t-15.5 14t-17.5 8t-21.5 3.5q-37 0 -54 -29.5t-28 -81.5h-130q9 115 66 185t145 70q32 0 57.5 -8.5t47.5 -27t33 -31t31 -38.5q2 -2 10 -13t10.5 -14t9.5 -11t11 -11t10.5 -7t13 -5.5t13.5 -1.5
q35 0 55.5 34.5t28.5 82.5h131q-6 -104 -67.5 -180t-152.5 -76zM609 -19q-186 0 -302 106.5t-116 303.5q0 70 17 155l24 131q33 190 161.5 293.5t314.5 103.5q91 0 164 -26t119.5 -70t75.5 -102t37.5 -121.5t0.5 -129.5q0 -2 -25 -146h-685q-9 -36 -9 -88q0 -100 57.5 -167
t179.5 -67q88 0 146.5 35.5t74.5 89.5h198q-9 -57 -43.5 -110.5t-88.5 -96t-132.5 -68.5t-168.5 -26zM909 624q3 9 3 21q21 110 -35.5 184.5t-174.5 74.5q-96 0 -169 -55.5t-97 -164.5l-13 -60h486z" />
    <glyph glyph-name="Ecedillabreve" unicode="&#x1e1c;" horiz-adv-x="1146" 
d="M515 0h-331l241 1366h830l-31 -188h-622l-73 -389h591l-28 -179h-592l-78 -422h627l-30 -188h-367l-40 -127q82 -2 132.5 -42t50.5 -112q0 -7 -1 -10q-3 -92 -71 -141.5t-175 -49.5q-85 0 -157 25l19 112q60 -19 126 -19q106 0 107 67v3q0 66 -133 66h-51l9 77zM565 1754
h135q-5 -65 41 -103.5t131 -38.5q84 0 136.5 40t62.5 102h138q-13 -116 -102 -194t-252 -78q-150 0 -229.5 81.5t-60.5 190.5z" />
    <glyph glyph-name="ecedillabreve" unicode="&#x1e1d;" horiz-adv-x="1111" 
d="M500 1479h131q-9 -65 30 -112t120 -47q80 0 129.5 45.5t59.5 113.5h131q-9 -115 -94 -200t-227 -85q-146 0 -223.5 88t-56.5 197zM909 624q3 9 3 21q21 110 -35.5 184.5t-174.5 74.5q-96 0 -169 -55.5t-97 -164.5l-13 -60h486zM530 -482q-84 0 -156 25l18 112
q62 -19 127 -19q106 0 107 67v3q0 66 -133 66h-52l10 77l44 144q-139 30 -221.5 132.5t-82.5 265.5q0 70 17 155l24 131q33 190 161.5 293.5t314.5 103.5q91 0 164 -26t119.5 -70t75.5 -102t37.5 -121.5t0.5 -129.5q0 -2 -25 -146h-685q-9 -36 -9 -88q0 -100 57.5 -167
t179.5 -67q88 0 146.5 35.5t74.5 89.5h198q-19 -116 -131.5 -205t-281.5 -95l-34 -109q82 -2 132.5 -42t50.5 -112q0 -1 -0.5 -5t-0.5 -5q-4 -92 -72 -141.5t-175 -49.5z" />
    <glyph glyph-name="Fdotaccent" unicode="&#x1e1e;" horiz-adv-x="1121" 
d="M746 1610q0 51 33 84.5t81 33.5q50 0 83 -33t33 -85q0 -50 -33 -83t-83 -33q-48 0 -81 33t-33 83zM392 0h-208l242 1366h828l-30 -188h-621l-79 -424h571l-28 -184h-573z" />
    <glyph glyph-name="fdotaccent" unicode="&#x1e1f;" horiz-adv-x="768" 
d="M648 1682q0 51 33 84.5t81 33.5q50 0 83 -33t33 -85q0 -50 -33 -83t-83 -33q-48 0 -81 33t-33 83zM231 0l155 869h-170l28 170h171l11 74q28 166 120.5 244.5t263.5 78.5q74 0 129 -11l-27 -160q-30 7 -94 7q-88 0 -131.5 -38.5t-58.5 -118.5l-13 -76h239l-30 -170h-236
l-155 -869h-202z" />
    <glyph glyph-name="Gmacron" unicode="&#x1e20;" horiz-adv-x="1362" 
d="M285 881q46 245 202 378.5t384 133.5q123 0 223 -37.5t160.5 -98.5t92.5 -133.5t32 -148.5q0 -28 -2 -35h-201q0 18 -1 27q-3 38 -21 76t-52.5 74.5t-96 59.5t-139.5 23q-151 0 -246.5 -92.5t-129.5 -265.5l-38 -184q-14 -84 -14 -149q0 -170 93.5 -257.5t239.5 -87.5
q119 0 212 58.5t112 160.5l29 157h-327l30 170h528l-60 -332q-33 -188 -181 -296.5t-357 -108.5q-108 0 -200.5 31t-167.5 93t-118 166.5t-43 240.5q0 83 12 153zM1258 1616l-20 -117h-680l20 117h680z" />
    <glyph glyph-name="gmacron" unicode="&#x1e21;" horiz-adv-x="1209" 
d="M1145 1328l-20 -117h-680l20 117h680zM666 1071q124 0 205.5 -61t106.5 -155h14l36 200h201l-186 -1058q-70 -394 -493 -394q-190 0 -304 92t-114 217v9l1 7h195q0 -10 1 -12q2 -56 67.5 -98.5t163.5 -42.5q130 0 199 65.5t93 195.5l27 151h-15q-30 -73 -106.5 -119.5
t-187.5 -46.5q-155 0 -264.5 110t-109.5 293q0 77 14 144l21 103q20 102 63 180t102 125t127 71t143 24zM944 639q0 117 -68.5 186.5t-177.5 69.5q-106 0 -176.5 -73t-94.5 -201l-15 -77q-12 -60 -12 -102q0 -123 65.5 -190t180.5 -67q102 0 176.5 73.5t96.5 199.5l16 86
q9 57 9 95z" />
    <glyph glyph-name="Hdotaccent" unicode="&#x1e22;" horiz-adv-x="1430" 
d="M392 0h-208l241 1366h208l-101 -569h646l101 569h208l-241 -1366h-202l103 609h-646zM883 1610q0 51 33 84.5t81 33.5q50 0 83 -33t33 -85q0 -50 -33 -83t-83 -33q-48 0 -81 33t-33 83z" />
    <glyph glyph-name="hdotaccent" unicode="&#x1e23;" horiz-adv-x="1215" 
d="M168 0l250 1423h204l-99 -536h14q40 86 119 135.5t192 49.5q157 0 241.5 -93t84.5 -234q0 -62 -21 -180l-100 -565h-204l102 576q13 75 13 122q0 89 -48 144t-144 55q-120 0 -195.5 -82t-98.5 -210l-106 -605h-204zM449 1667q0 51 33 84.5t81 33.5q50 0 83 -33t33 -85
q0 -50 -33 -83t-83 -33q-48 0 -81 33t-33 83z" />
    <glyph glyph-name="Hdotbelow" unicode="&#x1e24;" horiz-adv-x="1430" 
d="M392 0h-208l241 1366h208l-101 -569h646l101 569h208l-241 -1366h-202l103 609h-646zM567 -232q0 50 31 82t77 32q49 0 80 -31.5t31 -82.5q0 -49 -31 -80.5t-80 -31.5q-46 0 -77 32t-31 80z" />
    <glyph glyph-name="hdotbelow" unicode="&#x1e25;" horiz-adv-x="1215" 
d="M168 0l250 1423h204l-99 -536h14q40 86 119 135.5t192 49.5q157 0 241.5 -93t84.5 -234q0 -62 -21 -180l-100 -565h-204l102 576q13 75 13 122q0 89 -48 144t-144 55q-120 0 -195.5 -82t-98.5 -210l-106 -605h-204zM462 -232q0 50 31 82t77 32q49 0 80 -31.5t31 -82.5
q0 -49 -31 -80.5t-80 -31.5q-46 0 -77 32t-31 80z" />
    <glyph glyph-name="Hdieresis" unicode="&#x1e26;" horiz-adv-x="1430" 
d="M392 0h-208l241 1366h208l-101 -569h646l101 569h208l-241 -1366h-202l103 609h-646zM704 1584q0 50 30.5 80t79.5 30q48 0 79 -30t31 -80q0 -46 -31 -75.5t-79 -29.5t-79 29.5t-31 75.5zM1063 1584q0 49 30.5 79.5t77.5 30.5q50 0 81 -30t31 -80q0 -47 -31 -76t-81 -29
q-46 0 -77 29.5t-31 75.5z" />
    <glyph glyph-name="hdieresis" unicode="&#x1e27;" horiz-adv-x="1215" 
d="M168 0l250 1423h204l-99 -536h14q40 86 119 135.5t192 49.5q157 0 241.5 -93t84.5 -234q0 -62 -21 -180l-100 -565h-204l102 576q13 75 13 122q0 89 -48 144t-144 55q-120 0 -195.5 -82t-98.5 -210l-106 -605h-204zM264 1670q0 49 32 80t81 31q50 0 82 -31t32 -80
q0 -47 -32 -78t-82 -31q-49 0 -81 31t-32 78zM634 1670q0 49 31 80t79 31q52 0 84 -30.5t32 -80.5q0 -48 -32.5 -78.5t-83.5 -30.5q-47 0 -78.5 31t-31.5 78z" />
    <glyph glyph-name="Hcedilla" unicode="&#x1e28;" horiz-adv-x="1430" 
d="M255 0h-71l241 1366h208l-101 -569h646l101 569h208l-241 -1366h-202l103 609h-646l-109 -609l-39 -127q81 -2 131.5 -42t50.5 -112v-10q-4 -92 -72 -141.5t-175 -49.5q-82 0 -157 25l19 112q62 -19 127 -19q105 0 106 67q1 1 1 3q0 66 -134 66h-51l10 77z" />
    <glyph glyph-name="hcedilla" unicode="&#x1e29;" horiz-adv-x="1215" 
d="M235 0h-67l250 1423h204l-99 -536h14q40 86 119 135.5t192 49.5q157 0 241.5 -93t84.5 -234q0 -62 -21 -180l-100 -565h-204l102 576q13 75 13 122q0 89 -48 144t-144 55q-120 0 -195.5 -82t-98.5 -210l-106 -605l-40 -127q82 -2 132.5 -42t50.5 -112q0 -7 -1 -10
q-3 -92 -71 -141.5t-175 -49.5q-85 0 -157 25l19 112q62 -19 126 -19q106 0 107 67q1 1 1 3q0 66 -134 66h-51l9 77z" />
    <glyph glyph-name="Hbrevebelow" unicode="&#x1e2a;" horiz-adv-x="1430" 
d="M378 -112q-7 -55 7.5 -106t48 -92.5t94 -66.5t139.5 -25q78 0 141.5 26t102 69.5t60.5 93t26 101.5h-137q-9 -71 -61 -117.5t-133 -46.5q-80 0 -120 48.5t-30 115.5h-138zM392 0h-208l241 1366h208l-101 -569h646l101 569h208l-241 -1366h-202l103 609h-646z" />
    <glyph glyph-name="hbrevebelow" unicode="&#x1e2b;" horiz-adv-x="1215" 
d="M273 -112q-7 -55 7.5 -106t48 -92.5t94 -66.5t139.5 -25q78 0 141.5 26t102 69.5t60.5 93t26 101.5h-137q-9 -71 -61 -117.5t-133 -46.5q-80 0 -120 48.5t-30 115.5h-138zM168 0l250 1423h204l-99 -536h14q40 86 119 135.5t192 49.5q157 0 241.5 -93t84.5 -234
q0 -62 -21 -180l-100 -565h-204l102 576q13 75 13 122q0 89 -48 144t-144 55q-120 0 -195.5 -82t-98.5 -210l-106 -605h-204z" />
    <glyph glyph-name="Itildebelow" unicode="&#x1e2c;" horiz-adv-x="576" 
d="M392 0h-208l241 1366h208zM344 -435q-49 0 -82 22.5t-64 62.5q-4 6 -13 18.5t-14 18.5t-13.5 15.5t-15.5 14t-17.5 8t-21.5 3.5q-37 0 -54 -29.5t-28 -81.5h-130q9 115 66 185t145 70q32 0 57.5 -8.5t47.5 -27t33 -31t31 -38.5q2 -2 10 -13t10.5 -14t9.5 -11t11 -11
t10.5 -7t13 -5.5t13.5 -1.5q35 0 55.5 34.5t28.5 82.5h131q-6 -104 -67.5 -180t-152.5 -76z" />
    <glyph glyph-name="itildebelow" unicode="&#x1e2d;" horiz-adv-x="566" 
d="M182 0l187 1056h203l-186 -1056h-204zM372 1370q0 60 39.5 98t99.5 38q62 0 100 -37.5t38 -95.5q0 -59 -40 -96.5t-102 -37.5q-59 0 -97 37t-38 94zM339 -435q-49 0 -82 22.5t-64 62.5q-4 6 -13 18.5t-14 18.5t-13.5 15.5t-15.5 14t-17.5 8t-21.5 3.5q-37 0 -54 -29.5
t-28 -81.5h-130q9 115 66 185t145 70q32 0 57.5 -8.5t47.5 -27t33 -31t31 -38.5q2 -2 10 -13t10.5 -14t9.5 -11t11 -11t10.5 -7t13 -5.5t13.5 -1.5q35 0 55.5 34.5t28.5 82.5h131q-6 -104 -67.5 -180t-152.5 -76z" />
    <glyph glyph-name="Idieresisacute" unicode="&#x1e2e;" horiz-adv-x="576" 
d="M392 0h-208l241 1366h208zM442 1730l294 204h245l-330 -204h-209zM280 1584q0 50 30.5 80t79.5 30q48 0 79 -30t31 -80q0 -46 -31 -75.5t-79 -29.5t-79 29.5t-31 75.5zM639 1584q0 49 30.5 79.5t77.5 30.5q50 0 81 -30t31 -80q0 -47 -31 -76t-81 -29q-46 0 -77 29.5
t-31 75.5z" />
    <glyph glyph-name="idieresisacute" unicode="&#x1e2f;" horiz-adv-x="600" 
d="M570 1482h-153l283 347h208zM187 0l187 1056h203l-187 -1056h-203zM218 1303q0 49 32 80t81 31q50 0 82 -31t32 -80q0 -47 -32 -78t-82 -31q-49 0 -81 31t-32 78zM588 1303q0 49 31 80t79 31q52 0 84 -30.5t32 -80.5q0 -48 -32.5 -78.5t-83.5 -30.5q-47 0 -78.5 31
t-31.5 78z" />
    <glyph glyph-name="Kacute" unicode="&#x1e30;" horiz-adv-x="1295" 
d="M742 1498l294 204h245l-330 -204h-209zM633 1366l-119 -643h13l688 643h259l-638 -612l405 -754h-237l-331 630l-201 -178l-80 -452h-208l242 1366h207z" />
    <glyph glyph-name="kacute" unicode="&#x1e31;" horiz-adv-x="1105" 
d="M442 412l-73 -412h-202l252 1423h200l-137 -776h13l475 409h262l-501 -427l324 -629h-221l-261 518zM563 1578h-153l283 347h208z" />
    <glyph glyph-name="Kdotbelow" unicode="&#x1e32;" horiz-adv-x="1295" 
d="M495 -232q0 50 31 82t77 32q49 0 80 -31.5t31 -82.5q0 -49 -31 -80.5t-80 -31.5q-46 0 -77 32t-31 80zM633 1366l-119 -643h13l688 643h259l-638 -612l405 -754h-237l-331 630l-201 -178l-80 -452h-208l242 1366h207z" />
    <glyph glyph-name="kdotbelow" unicode="&#x1e33;" horiz-adv-x="1105" 
d="M409 -232q0 50 31 82t77 32q49 0 80 -31.5t31 -82.5q0 -49 -31 -80.5t-80 -31.5q-46 0 -77 32t-31 80zM442 412l-73 -412h-202l252 1423h200l-137 -776h13l475 409h262l-501 -427l324 -629h-221l-261 518z" />
    <glyph glyph-name="Klinebelow" unicode="&#x1e34;" horiz-adv-x="1295" 
d="M633 1366l-119 -643h13l688 643h259l-638 -612l405 -754h-237l-331 630l-201 -178l-80 -452h-208l242 1366h207zM943 -185l-20 -117h-680l20 117h680z" />
    <glyph glyph-name="klinebelow" unicode="&#x1e35;" horiz-adv-x="1105" 
d="M442 412l-73 -412h-202l252 1423h200l-137 -776h13l475 409h262l-501 -427l324 -629h-221l-261 518zM857 -185l-20 -117h-680l20 117h680z" />
    <glyph glyph-name="Ldotbelow" unicode="&#x1e36;" horiz-adv-x="1056" 
d="M404 -232q0 50 31 82t77 32q49 0 80 -31.5t31 -82.5q0 -49 -31 -80.5t-80 -31.5q-46 0 -77 32t-31 80zM1032 191l-32 -191h-816l241 1366h208l-211 -1175h610z" />
    <glyph glyph-name="ldotbelow" unicode="&#x1e37;" horiz-adv-x="566" 
d="M137 -232q0 50 31 82t77 32q49 0 80 -31.5t31 -82.5q0 -49 -31 -80.5t-80 -31.5q-46 0 -77 32t-31 80zM181 0l252 1423h203l-251 -1423h-204z" />
    <glyph glyph-name="Ldotbelowmacron" unicode="&#x1e38;" horiz-adv-x="1056" 
d="M404 -232q0 50 31 82t77 32q49 0 80 -31.5t31 -82.5q0 -49 -31 -80.5t-80 -31.5q-46 0 -77 32t-31 80zM1032 191l-32 -191h-816l241 1366h208l-211 -1175h610zM904 1616l-20 -117h-680l20 117h680z" />
    <glyph glyph-name="ldotbelowmacron" unicode="&#x1e39;" horiz-adv-x="566" 
d="M137 -232q0 50 31 82t77 32q49 0 80 -31.5t31 -82.5q0 -49 -31 -80.5t-80 -31.5q-46 0 -77 32t-31 80zM181 0l252 1423h203l-251 -1423h-204zM907 1695l-20 -117h-680l20 117h680z" />
    <glyph glyph-name="Llinebelow" unicode="&#x1e3a;" horiz-adv-x="1056" 
d="M852 -185l-20 -117h-680l20 117h680zM1032 191l-32 -191h-816l241 1366h208l-211 -1175h610z" />
    <glyph glyph-name="llinebelow" unicode="&#x1e3b;" horiz-adv-x="566" 
d="M585 -185l-20 -117h-680l20 117h680zM181 0l252 1423h203l-251 -1423h-204z" />
    <glyph glyph-name="Lcircumflexbelow" unicode="&#x1e3c;" horiz-adv-x="1056" 
d="M1032 191l-32 -191h-816l241 1366h208l-211 -1175h610zM147 -400l286 273h185l188 -273h-175l-111 165h-13l-178 -165h-182z" />
    <glyph glyph-name="lcircumflexbelow" unicode="&#x1e3d;" horiz-adv-x="566" 
d="M181 0l252 1423h203l-251 -1423h-204zM-120 -400l286 273h185l188 -273h-175l-111 165h-13l-178 -165h-182z" />
    <glyph glyph-name="Macute" unicode="&#x1e3e;" horiz-adv-x="1647" 
d="M927 1498l294 204h245l-330 -204h-209zM379 0h-195l241 1366h205l259 -913h9l581 913h225l-241 -1366h-194l173 970h-11l-517 -802h-126l-226 802h-13z" />
    <glyph glyph-name="macute" unicode="&#x1e3f;" horiz-adv-x="1791" 
d="M1136 1211h-153l283 347h208zM168 0l185 1056h198l-31 -175h13q35 82 108.5 136.5t185.5 54.5q114 0 188 -53.5t102 -141.5h12q16 35 40 66t61 62t92 49t121 18q152 0 230 -89.5t78 -228.5q0 -59 -21 -183l-101 -571h-203l102 583q12 67 12 116q0 92 -41 145t-128 53
q-100 0 -164.5 -75.5t-89.5 -208.5l-109 -613h-200l103 583q11 62 11 117q0 90 -40.5 143.5t-132.5 53.5q-112 0 -179.5 -77.5t-89.5 -207.5l-109 -612h-203z" />
    <glyph glyph-name="Mdotaccent" unicode="&#x1e40;" horiz-adv-x="1647" 
d="M985 1610q0 51 33 84.5t81 33.5q50 0 83 -33t33 -85q0 -50 -33 -83t-83 -33q-48 0 -81 33t-33 83zM379 0h-195l241 1366h205l259 -913h9l581 913h225l-241 -1366h-194l173 970h-11l-517 -802h-126l-226 802h-13z" />
    <glyph glyph-name="mdotaccent" unicode="&#x1e41;" horiz-adv-x="1791" 
d="M1018 1300q0 51 33 84.5t81 33.5q50 0 83 -33t33 -85q0 -50 -33 -83t-83 -33q-48 0 -81 33t-33 83zM168 0l185 1056h198l-31 -175h13q35 82 108.5 136.5t185.5 54.5q114 0 188 -53.5t102 -141.5h12q16 35 40 66t61 62t92 49t121 18q152 0 230 -89.5t78 -228.5
q0 -59 -21 -183l-101 -571h-203l102 583q12 67 12 116q0 92 -41 145t-128 53q-100 0 -164.5 -75.5t-89.5 -208.5l-109 -613h-200l103 583q11 62 11 117q0 90 -40.5 143.5t-132.5 53.5q-112 0 -179.5 -77.5t-89.5 -207.5l-109 -612h-203z" />
    <glyph glyph-name="Mdotbelow" unicode="&#x1e42;" horiz-adv-x="1647" 
d="M671 -232q0 50 31 82t77 32q49 0 80 -31.5t31 -82.5q0 -49 -31 -80.5t-80 -31.5q-46 0 -77 32t-31 80zM379 0h-195l241 1366h205l259 -913h9l581 913h225l-241 -1366h-194l173 970h-11l-517 -802h-126l-226 802h-13z" />
    <glyph glyph-name="mdotbelow" unicode="&#x1e43;" horiz-adv-x="1791" 
d="M760 -232q0 50 31 82t77 32q49 0 80 -31.5t31 -82.5q0 -49 -31 -80.5t-80 -31.5q-46 0 -77 32t-31 80zM168 0l185 1056h198l-31 -175h13q35 82 108.5 136.5t185.5 54.5q114 0 188 -53.5t102 -141.5h12q16 35 40 66t61 62t92 49t121 18q152 0 230 -89.5t78 -228.5
q0 -59 -21 -183l-101 -571h-203l102 583q12 67 12 116q0 92 -41 145t-128 53q-100 0 -164.5 -75.5t-89.5 -208.5l-109 -613h-200l103 583q11 62 11 117q0 90 -40.5 143.5t-132.5 53.5q-112 0 -179.5 -77.5t-89.5 -207.5l-109 -612h-203z" />
    <glyph glyph-name="Ndotaccent" unicode="&#x1e44;" horiz-adv-x="1429" 
d="M895 1610q0 51 33 84.5t81 33.5q50 0 83 -33t33 -85q0 -50 -33 -83t-83 -33q-48 0 -81 33t-33 83zM1245 0h-187l-481 998h-11l-180 -998h-202l241 1366h189l477 -998h11l181 998h202z" />
    <glyph glyph-name="ndotaccent" unicode="&#x1e45;" horiz-adv-x="1209" 
d="M721 1300q0 51 33 84.5t81 33.5q50 0 83 -33t33 -85q0 -50 -33 -83t-83 -33q-48 0 -81 33t-33 83zM168 0l185 1056h200l-31 -169h13q93 185 311 185q81 0 144 -26t101 -71.5t57.5 -103.5t19.5 -125q0 -66 -21 -181l-100 -565h-203l101 576q13 78 13 121q0 89 -46.5 144.5
t-142.5 55.5q-120 0 -194 -80.5t-97 -211.5l-107 -605h-203z" />
    <glyph glyph-name="Ndotbelow" unicode="&#x1e46;" horiz-adv-x="1429" 
d="M580 -232q0 50 31 82t77 32q49 0 80 -31.5t31 -82.5q0 -49 -31 -80.5t-80 -31.5q-46 0 -77 32t-31 80zM1245 0h-187l-481 998h-11l-180 -998h-202l241 1366h189l477 -998h11l181 998h202z" />
    <glyph glyph-name="ndotbelow" unicode="&#x1e47;" horiz-adv-x="1209" 
d="M457 -232q0 50 31 82t77 32q49 0 80 -31.5t31 -82.5q0 -49 -31 -80.5t-80 -31.5q-46 0 -77 32t-31 80zM168 0l185 1056h200l-31 -169h13q93 185 311 185q81 0 144 -26t101 -71.5t57.5 -103.5t19.5 -125q0 -66 -21 -181l-100 -565h-203l101 576q13 78 13 121
q0 89 -46.5 144.5t-142.5 55.5q-120 0 -194 -80.5t-97 -211.5l-107 -605h-203z" />
    <glyph glyph-name="Nlinebelow" unicode="&#x1e48;" horiz-adv-x="1429" 
d="M1028 -185l-20 -117h-680l20 117h680zM1245 0h-187l-481 998h-11l-180 -998h-202l241 1366h189l477 -998h11l181 998h202z" />
    <glyph glyph-name="nlinebelow" unicode="&#x1e49;" horiz-adv-x="1209" 
d="M905 -185l-20 -117h-680l20 117h680zM168 0l185 1056h200l-31 -169h13q93 185 311 185q81 0 144 -26t101 -71.5t57.5 -103.5t19.5 -125q0 -66 -21 -181l-100 -565h-203l101 576q13 78 13 121q0 89 -46.5 144.5t-142.5 55.5q-120 0 -194 -80.5t-97 -211.5l-107 -605h-203z
" />
    <glyph glyph-name="Ncircumflexbelow" unicode="&#x1e4a;" horiz-adv-x="1429" 
d="M1245 0h-187l-481 998h-11l-180 -998h-202l241 1366h189l477 -998h11l181 998h202zM323 -400l286 273h185l188 -273h-175l-111 165h-13l-178 -165h-182z" />
    <glyph glyph-name="ncircumflexbelow" unicode="&#x1e4b;" horiz-adv-x="1209" 
d="M168 0l185 1056h200l-31 -169h13q93 185 311 185q81 0 144 -26t101 -71.5t57.5 -103.5t19.5 -125q0 -66 -21 -181l-100 -565h-203l101 576q13 78 13 121q0 89 -46.5 144.5t-142.5 55.5q-120 0 -194 -80.5t-97 -211.5l-107 -605h-203zM200 -400l286 273h185l188 -273h-175
l-111 165h-13l-178 -165h-182z" />
    <glyph glyph-name="Otildeacute" unicode="&#x1e4c;" horiz-adv-x="1388" 
d="M845 1730l294 204h245l-330 -204h-209zM485 842l-34 -180q-15 -78 -15 -149q0 -158 92 -251t254 -93q302 0 369 371l35 192q9 48 9 128q0 154 -92.5 246.5t-250.5 92.5q-142 0 -237.5 -86.5t-129.5 -270.5zM240 676l37 205q44 243 200.5 377.5t381.5 134.5
q247 0 397.5 -143t150.5 -392q0 -81 -15 -163l-38 -206q-46 -249 -196 -382.5t-401 -133.5q-232 0 -381.5 137.5t-149.5 376.5q0 109 14 189zM927 1525q-2 2 -9 9.5t-10 10t-10 9t-11 9t-10.5 7t-12 6.5t-12.5 3.5t-14 1.5q-66 0 -73 -102h-130q0 93 49.5 160t143.5 67
q49 0 85.5 -18t76.5 -56q4 -4 20 -19.5t22 -20.5t19.5 -11t26.5 -6q36 0 54.5 35t21.5 78h130q0 -90 -54 -160t-140 -70q-58 0 -93 17t-70 50z" />
    <glyph glyph-name="otildeacute" unicode="&#x1e4d;" horiz-adv-x="1154" 
d="M847 1482h-153l283 347h208zM886 1134q-49 0 -82.5 22.5t-63.5 62.5q-2 3 -15.5 21t-18 23t-15.5 15.5t-22 14t-24 3.5q-36 0 -54 -30t-27 -80h-130q9 115 65.5 184.5t144.5 69.5q32 0 57.5 -8t47.5 -27t32.5 -31t31.5 -38q2 -2 7.5 -9.5t7 -10t6.5 -9t7.5 -8.5t7 -7
t7.5 -7l7.5 -5t8.5 -4t9 -2t10 -1q35 0 56 34.5t29 81.5h130q-5 -103 -67 -179t-153 -76zM425 634l-21 -114q-10 -62 -10 -104q0 -115 67 -185.5t183 -70.5q107 0 175.5 72t91.5 202l21 122q5 36 5 92q0 110 -66.5 180t-179.5 70q-103 0 -173.5 -68t-92.5 -196zM203 548
l22 122q33 185 160 294.5t309 109.5q201 0 325 -116t124 -319q0 -59 -12 -126l-23 -123q-36 -190 -158 -298.5t-323 -108.5q-189 0 -312 112.5t-123 307.5q0 88 11 145z" />
    <glyph glyph-name="Otildedieresis" unicode="&#x1e4e;" horiz-adv-x="1388" 
d="M729 1851q0 50 30.5 80t79.5 30q48 0 79 -30t31 -80q0 -46 -31 -75.5t-79 -29.5t-79 29.5t-31 75.5zM1088 1851q0 49 30.5 79.5t77.5 30.5q50 0 81 -30t31 -80q0 -47 -31 -76t-81 -29q-46 0 -77 29.5t-31 75.5zM485 842l-34 -180q-15 -78 -15 -149q0 -158 92 -251
t254 -93q302 0 369 371l35 192q9 48 9 128q0 154 -92.5 246.5t-250.5 92.5q-142 0 -237.5 -86.5t-129.5 -270.5zM240 676l37 205q44 243 200.5 377.5t381.5 134.5q247 0 397.5 -143t150.5 -392q0 -81 -15 -163l-38 -206q-46 -249 -196 -382.5t-401 -133.5
q-232 0 -381.5 137.5t-149.5 376.5q0 109 14 189zM927 1525q-2 2 -9 9.5t-10 10t-10 9t-11 9t-10.5 7t-12 6.5t-12.5 3.5t-14 1.5q-66 0 -73 -102h-130q0 93 49.5 160t143.5 67q49 0 85.5 -18t76.5 -56q4 -4 20 -19.5t22 -20.5t19.5 -11t26.5 -6q36 0 54.5 35t21.5 78h130
q0 -90 -54 -160t-140 -70q-58 0 -93 17t-70 50z" />
    <glyph glyph-name="otildedieresis" unicode="&#x1e4f;" horiz-adv-x="1154" 
d="M886 1134q-49 0 -82.5 22.5t-63.5 62.5q-2 3 -15.5 21t-18 23t-15.5 15.5t-22 14t-24 3.5q-36 0 -54 -30t-27 -80h-130q9 115 65.5 184.5t144.5 69.5q32 0 57.5 -8t47.5 -27t32.5 -31t31.5 -38q2 -2 7.5 -9.5t7 -10t6.5 -9t7.5 -8.5t7 -7t7.5 -7l7.5 -5t8.5 -4t9 -2
t10 -1q35 0 56 34.5t29 81.5h130q-5 -103 -67 -179t-153 -76zM547 1590q0 49 32 80t81 31q50 0 82 -31t32 -80q0 -47 -32 -78t-82 -31q-49 0 -81 31t-32 78zM917 1590q0 49 31 80t79 31q52 0 84 -30.5t32 -80.5q0 -48 -32.5 -78.5t-83.5 -30.5q-47 0 -78.5 31t-31.5 78z
M425 634l-21 -114q-10 -62 -10 -104q0 -115 67 -185.5t183 -70.5q107 0 175.5 72t91.5 202l21 122q5 36 5 92q0 110 -66.5 180t-179.5 70q-103 0 -173.5 -68t-92.5 -196zM203 548l22 122q33 185 160 294.5t309 109.5q201 0 325 -116t124 -319q0 -59 -12 -126l-23 -123
q-36 -190 -158 -298.5t-323 -108.5q-189 0 -312 112.5t-123 307.5q0 88 11 145z" />
    <glyph glyph-name="Omacrongrave" unicode="&#x1e50;" horiz-adv-x="1388" 
d="M1132 1730h-205l-310 200h236zM485 842l-34 -180q-15 -78 -15 -149q0 -158 92 -251t254 -93q302 0 369 371l35 192q9 48 9 128q0 154 -92.5 246.5t-250.5 92.5q-142 0 -237.5 -86.5t-129.5 -270.5zM240 676l37 205q44 243 200.5 377.5t381.5 134.5q247 0 397.5 -143
t150.5 -392q0 -81 -15 -163l-38 -206q-46 -249 -196 -382.5t-401 -133.5q-232 0 -381.5 137.5t-149.5 376.5q0 109 14 189zM1311 1616l-20 -117h-680l20 117h680z" />
    <glyph glyph-name="omacrongrave" unicode="&#x1e51;" horiz-adv-x="1154" 
d="M940 1482h-159l-241 345h211zM1128 1328l-20 -117h-680l20 117h680zM425 634l-21 -114q-10 -62 -10 -104q0 -115 67 -185.5t183 -70.5q107 0 175.5 72t91.5 202l21 122q5 36 5 92q0 110 -66.5 180t-179.5 70q-103 0 -173.5 -68t-92.5 -196zM203 548l22 122
q33 185 160 294.5t309 109.5q201 0 325 -116t124 -319q0 -59 -12 -126l-23 -123q-36 -190 -158 -298.5t-323 -108.5q-189 0 -312 112.5t-123 307.5q0 88 11 145z" />
    <glyph glyph-name="Omacronacute" unicode="&#x1e52;" horiz-adv-x="1388" 
d="M845 1730l294 204h245l-330 -204h-209zM485 842l-34 -180q-15 -78 -15 -149q0 -158 92 -251t254 -93q302 0 369 371l35 192q9 48 9 128q0 154 -92.5 246.5t-250.5 92.5q-142 0 -237.5 -86.5t-129.5 -270.5zM240 676l37 205q44 243 200.5 377.5t381.5 134.5
q247 0 397.5 -143t150.5 -392q0 -81 -15 -163l-38 -206q-46 -249 -196 -382.5t-401 -133.5q-232 0 -381.5 137.5t-149.5 376.5q0 109 14 189zM1311 1616l-20 -117h-680l20 117h680z" />
    <glyph glyph-name="omacronacute" unicode="&#x1e53;" horiz-adv-x="1154" 
d="M847 1482h-153l283 347h208zM1128 1328l-20 -117h-680l20 117h680zM425 634l-21 -114q-10 -62 -10 -104q0 -115 67 -185.5t183 -70.5q107 0 175.5 72t91.5 202l21 122q5 36 5 92q0 110 -66.5 180t-179.5 70q-103 0 -173.5 -68t-92.5 -196zM203 548l22 122
q33 185 160 294.5t309 109.5q201 0 325 -116t124 -319q0 -59 -12 -126l-23 -123q-36 -190 -158 -298.5t-323 -108.5q-189 0 -312 112.5t-123 307.5q0 88 11 145z" />
    <glyph glyph-name="Pacute" unicode="&#x1e54;" horiz-adv-x="1208" 
d="M701 1498l294 204h245l-330 -204h-209zM392 0h-208l241 1366h459q195 0 303.5 -103.5t108.5 -270.5q0 -45 -6 -90q-28 -199 -167 -306.5t-390 -107.5h-253zM843 1188h-240l-93 -515h234q164 0 244.5 66t93.5 172q6 30 6 66q0 97 -60.5 154t-184.5 57z" />
    <glyph glyph-name="pacute" unicode="&#x1e55;" horiz-adv-x="1211" 
d="M724 -17q-121 0 -204.5 69t-99.5 154h-13l-99 -566h-204l248 1415h202l-31 -175h14q14 34 35.5 64t56 60.5t88.5 48.5t119 18q165 0 266 -106.5t101 -286.5q0 -86 -9 -131l-32 -167q-28 -179 -143 -288t-295 -109zM452 433q0 -123 73.5 -194t168.5 -71q110 0 183 73
t94 188l25 133q5 30 5 88q0 114 -65.5 179.5t-177.5 65.5q-111 0 -184.5 -76t-94.5 -203l-22 -129q-5 -30 -5 -54zM821 1211h-153l283 347h208z" />
    <glyph glyph-name="Pdotaccent" unicode="&#x1e56;" horiz-adv-x="1208" 
d="M392 0h-208l241 1366h459q195 0 303.5 -103.5t108.5 -270.5q0 -45 -6 -90q-28 -199 -167 -306.5t-390 -107.5h-253zM843 1188h-240l-93 -515h234q164 0 244.5 66t93.5 172q6 30 6 66q0 97 -60.5 154t-184.5 57zM758 1610q0 51 33 84.5t81 33.5q50 0 83 -33t33 -85
q0 -50 -33 -83t-83 -33q-48 0 -81 33t-33 83z" />
    <glyph glyph-name="pdotaccent" unicode="&#x1e57;" horiz-adv-x="1211" 
d="M724 -17q-121 0 -204.5 69t-99.5 154h-13l-99 -566h-204l248 1415h202l-31 -175h14q14 34 35.5 64t56 60.5t88.5 48.5t119 18q165 0 266 -106.5t101 -286.5q0 -86 -9 -131l-32 -167q-28 -179 -143 -288t-295 -109zM452 433q0 -123 73.5 -194t168.5 -71q110 0 183 73
t94 188l25 133q5 30 5 88q0 114 -65.5 179.5t-177.5 65.5q-111 0 -184.5 -76t-94.5 -203l-22 -129q-5 -30 -5 -54zM703 1300q0 51 33 84.5t81 33.5q50 0 83 -33t33 -85q0 -50 -33 -83t-83 -33q-48 0 -81 33t-33 83z" />
    <glyph glyph-name="Rdotaccent" unicode="&#x1e58;" horiz-adv-x="1282" 
d="M392 0h-208l242 1366h475q196 0 302 -98t106 -263q0 -42 -6 -78q-18 -140 -103.5 -235t-211.5 -133l186 -559h-222l-170 528q-23 -1 -64 -1h-232zM852 1185h-248l-88 -481h242q298 0 330 229q5 30 5 61q0 90 -59.5 140.5t-181.5 50.5zM758 1610q0 51 33 84.5t81 33.5
q50 0 83 -33t33 -85q0 -50 -33 -83t-83 -33q-48 0 -81 33t-33 83z" />
    <glyph glyph-name="rdotaccent" unicode="&#x1e59;" horiz-adv-x="805" 
d="M167 0l186 1056h193l-32 -176h14q30 81 107 136.5t186 55.5q46 0 93 -13l-40 -196q-39 16 -97 16q-129 0 -204 -82.5t-99 -217.5l-103 -579h-204zM525 1300q0 51 33 84.5t81 33.5q50 0 83 -33t33 -85q0 -50 -33 -83t-83 -33q-48 0 -81 33t-33 83z" />
    <glyph glyph-name="Rdotbelow" unicode="&#x1e5a;" horiz-adv-x="1282" 
d="M445 -232q0 50 31 82t77 32q49 0 80 -31.5t31 -82.5q0 -49 -31 -80.5t-80 -31.5q-46 0 -77 32t-31 80zM392 0h-208l242 1366h475q196 0 302 -98t106 -263q0 -42 -6 -78q-18 -140 -103.5 -235t-211.5 -133l186 -559h-222l-170 528q-23 -1 -64 -1h-232zM852 1185h-248
l-88 -481h242q298 0 330 229q5 30 5 61q0 90 -59.5 140.5t-181.5 50.5z" />
    <glyph glyph-name="rdotbelow" unicode="&#x1e5b;" horiz-adv-x="805" 
d="M128 -232q0 50 31 82t77 32q49 0 80 -31.5t31 -82.5q0 -49 -31 -80.5t-80 -31.5q-46 0 -77 32t-31 80zM167 0l186 1056h193l-32 -176h14q30 81 107 136.5t186 55.5q46 0 93 -13l-40 -196q-39 16 -97 16q-129 0 -204 -82.5t-99 -217.5l-103 -579h-204z" />
    <glyph glyph-name="Rdotbelowmacron" unicode="&#x1e5c;" horiz-adv-x="1282" 
d="M445 -232q0 50 31 82t77 32q49 0 80 -31.5t31 -82.5q0 -49 -31 -80.5t-80 -31.5q-46 0 -77 32t-31 80zM392 0h-208l242 1366h475q196 0 302 -98t106 -263q0 -42 -6 -78q-18 -140 -103.5 -235t-211.5 -133l186 -559h-222l-170 528q-23 -1 -64 -1h-232zM852 1185h-248
l-88 -481h242q298 0 330 229q5 30 5 61q0 90 -59.5 140.5t-181.5 50.5zM1208 1616l-20 -117h-680l20 117h680z" />
    <glyph glyph-name="rdotbelowmacron" unicode="&#x1e5d;" horiz-adv-x="805" 
d="M128 -232q0 50 31 82t77 32q49 0 80 -31.5t31 -82.5q0 -49 -31 -80.5t-80 -31.5q-46 0 -77 32t-31 80zM167 0l186 1056h193l-32 -176h14q30 81 107 136.5t186 55.5q46 0 93 -13l-40 -196q-39 16 -97 16q-129 0 -204 -82.5t-99 -217.5l-103 -579h-204zM973 1328l-20 -117
h-680l20 117h680z" />
    <glyph glyph-name="Rlinebelow" unicode="&#x1e5e;" horiz-adv-x="1282" 
d="M392 0h-208l242 1366h475q196 0 302 -98t106 -263q0 -42 -6 -78q-18 -140 -103.5 -235t-211.5 -133l186 -559h-222l-170 528q-23 -1 -64 -1h-232zM852 1185h-248l-88 -481h242q298 0 330 229q5 30 5 61q0 90 -59.5 140.5t-181.5 50.5zM893 -185l-20 -117h-680l20 117h680
z" />
    <glyph glyph-name="rlinebelow" unicode="&#x1e5f;" horiz-adv-x="805" 
d="M167 0l186 1056h193l-32 -176h14q30 81 107 136.5t186 55.5q46 0 93 -13l-40 -196q-39 16 -97 16q-129 0 -204 -82.5t-99 -217.5l-103 -579h-204zM576 -185l-20 -117h-680l20 117h680z" />
    <glyph glyph-name="Sdotaccent" unicode="&#x1e60;" horiz-adv-x="1226" 
d="M178 392h200q-1 -7 -1 -23q0 -86 84 -149.5t219 -63.5q126 0 205 57.5t79 154.5q0 44 -17.5 77.5t-54 58.5t-71.5 40.5t-92 35.5l-72 27q-58 21 -104.5 43t-95.5 56t-81.5 73.5t-53.5 95t-21 119.5q0 185 137 292t344 107q190 0 322 -100.5t132 -263.5q0 -3 -1 -19
t-1 -17h-193l1 2v6v8q0 91 -76.5 146t-185.5 55q-67 0 -125.5 -20.5t-98.5 -66.5t-40 -109q0 -76 62 -125t180 -92l89 -34q60 -22 101 -41t88 -50.5t75.5 -67t47.5 -89t19 -118.5q0 -198 -141.5 -311t-366.5 -113q-216 0 -355.5 107t-139.5 267q0 24 3 45zM766 1610
q0 51 33 84.5t81 33.5q50 0 83 -33t33 -85q0 -50 -33 -83t-83 -33q-48 0 -81 33t-33 83z" />
    <glyph glyph-name="sdotaccent" unicode="&#x1e61;" horiz-adv-x="1046" 
d="M271 758q0 144 102 230.5t287 86.5q92 0 167.5 -25t124 -66.5t74.5 -93.5t26 -108v-24h-184v11q0 55 -56 101.5t-152 46.5q-89 0 -140.5 -39t-51.5 -97q0 -33 15.5 -57.5t45.5 -41.5t62 -29.5t78 -27.5q17 -5 26 -8q52 -17 91 -33t78.5 -41.5t64.5 -56t41 -74t16 -97.5
q0 -159 -114.5 -246t-305.5 -87q-180 0 -299.5 88t-119.5 223v17h188q0 -7 2 -19q11 -61 75.5 -102.5t163.5 -41.5q100 0 155 40.5t55 108.5q0 18 -3.5 33.5t-14.5 28.5t-18.5 22t-28 19.5t-29.5 16t-38 15t-38 12.5t-43 13q-32 10 -53 18t-56 23t-58.5 30.5t-51 39.5
t-44 50.5t-28 63t-11.5 77.5zM636 1300q0 51 33 84.5t81 33.5q50 0 83 -33t33 -85q0 -50 -33 -83t-83 -33q-48 0 -81 33t-33 83z" />
    <glyph glyph-name="Sdotbelow" unicode="&#x1e62;" horiz-adv-x="1226" 
d="M453 -232q0 50 31 82t77 32q49 0 80 -31.5t31 -82.5q0 -49 -31 -80.5t-80 -31.5q-46 0 -77 32t-31 80zM178 392h200q-1 -7 -1 -23q0 -86 84 -149.5t219 -63.5q126 0 205 57.5t79 154.5q0 44 -17.5 77.5t-54 58.5t-71.5 40.5t-92 35.5l-72 27q-58 21 -104.5 43t-95.5 56
t-81.5 73.5t-53.5 95t-21 119.5q0 185 137 292t344 107q190 0 322 -100.5t132 -263.5q0 -3 -1 -19t-1 -17h-193l1 2v6v8q0 91 -76.5 146t-185.5 55q-67 0 -125.5 -20.5t-98.5 -66.5t-40 -109q0 -76 62 -125t180 -92l89 -34q60 -22 101 -41t88 -50.5t75.5 -67t47.5 -89
t19 -118.5q0 -198 -141.5 -311t-366.5 -113q-216 0 -355.5 107t-139.5 267q0 24 3 45z" />
    <glyph glyph-name="sdotbelow" unicode="&#x1e63;" horiz-adv-x="1046" 
d="M376 -232q0 50 31 82t77 32q49 0 80 -31.5t31 -82.5q0 -49 -31 -80.5t-80 -31.5q-46 0 -77 32t-31 80zM271 758q0 144 102 230.5t287 86.5q92 0 167.5 -25t124 -66.5t74.5 -93.5t26 -108v-24h-184v11q0 55 -56 101.5t-152 46.5q-89 0 -140.5 -39t-51.5 -97
q0 -33 15.5 -57.5t45.5 -41.5t62 -29.5t78 -27.5q17 -5 26 -8q52 -17 91 -33t78.5 -41.5t64.5 -56t41 -74t16 -97.5q0 -159 -114.5 -246t-305.5 -87q-180 0 -299.5 88t-119.5 223v17h188q0 -7 2 -19q11 -61 75.5 -102.5t163.5 -41.5q100 0 155 40.5t55 108.5q0 18 -3.5 33.5
t-14.5 28.5t-18.5 22t-28 19.5t-29.5 16t-38 15t-38 12.5t-43 13q-32 10 -53 18t-56 23t-58.5 30.5t-51 39.5t-44 50.5t-28 63t-11.5 77.5z" />
    <glyph glyph-name="Sacutedotaccent" unicode="&#x1e64;" horiz-adv-x="1226" 
d="M543 1650q0 53 32.5 87t81.5 34q52 0 85 -34t33 -87q0 -51 -33 -84.5t-85 -33.5q-48 0 -81 33.5t-33 84.5zM886 1544l294 204h245l-330 -204h-209zM178 392h200q-1 -7 -1 -23q0 -86 84 -149.5t219 -63.5q126 0 205 57.5t79 154.5q0 44 -17.5 77.5t-54 58.5t-71.5 40.5
t-92 35.5l-72 27q-58 21 -104.5 43t-95.5 56t-81.5 73.5t-53.5 95t-21 119.5q0 185 137 292t344 107q190 0 322 -100.5t132 -263.5q0 -3 -1 -19t-1 -17h-193l1 2v6v8q0 91 -76.5 146t-185.5 55q-67 0 -125.5 -20.5t-98.5 -66.5t-40 -109q0 -76 62 -125t180 -92l89 -34
q60 -22 101 -41t88 -50.5t75.5 -67t47.5 -89t19 -118.5q0 -198 -141.5 -311t-366.5 -113q-216 0 -355.5 107t-139.5 267q0 24 3 45z" />
    <glyph glyph-name="sacutedotaccent" unicode="&#x1e65;" horiz-adv-x="1046" 
d="M477 1456q0 48 30 79.5t75 31.5q48 0 78.5 -31t30.5 -80q0 -47 -30.5 -77.5t-78.5 -30.5q-44 0 -74.5 31t-30.5 77zM271 758q0 144 102 230.5t287 86.5q92 0 167.5 -25t124 -66.5t74.5 -93.5t26 -108v-24h-184v11q0 55 -56 101.5t-152 46.5q-89 0 -140.5 -39t-51.5 -97
q0 -33 15.5 -57.5t45.5 -41.5t62 -29.5t78 -27.5q17 -5 26 -8q52 -17 91 -33t78.5 -41.5t64.5 -56t41 -74t16 -97.5q0 -159 -114.5 -246t-305.5 -87q-180 0 -299.5 88t-119.5 223v17h188q0 -7 2 -19q11 -61 75.5 -102.5t163.5 -41.5q100 0 155 40.5t55 108.5q0 18 -3.5 33.5
t-14.5 28.5t-18.5 22t-28 19.5t-29.5 16t-38 15t-38 12.5t-43 13q-32 10 -53 18t-56 23t-58.5 30.5t-51 39.5t-44 50.5t-28 63t-11.5 77.5zM844 1211h-153l283 347h208z" />
    <glyph glyph-name="Scarondotaccent" unicode="&#x1e66;" horiz-adv-x="1226" 
d="M815 1880q0 51 32.5 84.5t80.5 33.5q51 0 84 -33t33 -85q0 -50 -33 -83t-84 -33q-48 0 -80.5 33t-32.5 83zM178 392h200q-1 -7 -1 -23q0 -86 84 -149.5t219 -63.5q126 0 205 57.5t79 154.5q0 44 -17.5 77.5t-54 58.5t-71.5 40.5t-92 35.5l-72 27q-58 21 -104.5 43
t-95.5 56t-81.5 73.5t-53.5 95t-21 119.5q0 185 137 292t344 107q190 0 322 -100.5t132 -263.5q0 -3 -1 -19t-1 -17h-193l1 2v6v8q0 91 -76.5 146t-185.5 55q-67 0 -125.5 -20.5t-98.5 -66.5t-40 -109q0 -76 62 -125t180 -92l89 -34q60 -22 101 -41t88 -50.5t75.5 -67
t47.5 -89t19 -118.5q0 -198 -141.5 -311t-366.5 -113q-216 0 -355.5 107t-139.5 267q0 24 3 45zM1260 1718l-301 -231h-181l-226 231h201l121 -126h8l162 126h216z" />
    <glyph glyph-name="scarondotaccent" unicode="&#x1e67;" horiz-adv-x="1046" 
d="M709 1745q0 48 30 79t74 31q47 0 77.5 -30.5t30.5 -79.5q0 -47 -30.5 -77t-77.5 -30q-44 0 -74 30.5t-30 76.5zM667 1212l-185 368h163l107 -245h6l187 245h169l-306 -368h-141zM271 758q0 144 102 230.5t287 86.5q92 0 167.5 -25t124 -66.5t74.5 -93.5t26 -108v-24h-184
v11q0 55 -56 101.5t-152 46.5q-89 0 -140.5 -39t-51.5 -97q0 -33 15.5 -57.5t45.5 -41.5t62 -29.5t78 -27.5q17 -5 26 -8q52 -17 91 -33t78.5 -41.5t64.5 -56t41 -74t16 -97.5q0 -159 -114.5 -246t-305.5 -87q-180 0 -299.5 88t-119.5 223v17h188q0 -7 2 -19
q11 -61 75.5 -102.5t163.5 -41.5q100 0 155 40.5t55 108.5q0 18 -3.5 33.5t-14.5 28.5t-18.5 22t-28 19.5t-29.5 16t-38 15t-38 12.5t-43 13q-32 10 -53 18t-56 23t-58.5 30.5t-51 39.5t-44 50.5t-28 63t-11.5 77.5z" />
    </font>
</defs>
</svg>
