<?xml version="1.0" standalone="no"?>
<!DOCTYPE svg PUBLIC "-//W3C//DTD SVG 1.1//EN" "http://www.w3.org/Graphics/SVG/1.1/DTD/svg11.dtd" >
<svg xmlns="http://www.w3.org/2000/svg" xmlns:xlink="http://www.w3.org/1999/xlink" version="1.1">
<metadata>
Created by FontForge 20170731 at Wed Jan 14 10:07:49 2015
 By Aleksey,,,
(c) 2014 Apple Inc. All rights reserved.
</metadata>
<defs>
<font id="SanFranciscoText-BoldItalicG3" horiz-adv-x="0" >
  <font-face 
    font-family="San Francisco Text BoldIta G3"
    font-weight="700"
    font-style="italic"
    font-stretch="normal"
    units-per-em="2048"
    panose-1="0 0 0 0 0 0 0 0 0 0"
    ascent="1638"
    descent="-410"
    x-height="1069"
    cap-height="1365"
    bbox="-448 -528 2343 2067"
    underline-thickness="50"
    underline-position="-100"
    slope="-10"
    unicode-range="U+000D-FB02"
  />
<missing-glyph horiz-adv-x="1293" 
d="M120 0l241 1365h1053l-241 -1365h-1053zM573 303q0 -44 31 -72t80 -28q52 0 84.5 29t32.5 74q0 46 -31.5 74.5t-82.5 28.5q-50 0 -82 -29.5t-32 -76.5zM494 908h152q9 54 47.5 88.5t102.5 34.5q59 0 99.5 -29.5t40.5 -81.5q0 -22 -9 -41.5t-18 -31.5t-32.5 -29t-32.5 -22
t-38 -22q-84 -47 -120.5 -93.5t-45.5 -127.5l-6 -42h150l7 39q1 15 5.5 28t8 22t14.5 20.5t15 16.5t21 16t21 13.5t26.5 15.5t26.5 15q36 20 62 39t52.5 47t40.5 65t14 81q0 113 -85 174t-212 61q-140 0 -219 -72.5t-88 -183.5z" />
    <glyph glyph-name=".notdef" horiz-adv-x="1293" 
d="M120 0l241 1365h1053l-241 -1365h-1053zM573 303q0 -44 31 -72t80 -28q52 0 84.5 29t32.5 74q0 46 -31.5 74.5t-82.5 28.5q-50 0 -82 -29.5t-32 -76.5zM494 908h152q9 54 47.5 88.5t102.5 34.5q59 0 99.5 -29.5t40.5 -81.5q0 -22 -9 -41.5t-18 -31.5t-32.5 -29t-32.5 -22
t-38 -22q-84 -47 -120.5 -93.5t-45.5 -127.5l-6 -42h150l7 39q1 15 5.5 28t8 22t14.5 20.5t15 16.5t21 16t21 13.5t26.5 15.5t26.5 15q36 20 62 39t52.5 47t40.5 65t14 81q0 113 -85 174t-212 61q-140 0 -219 -72.5t-88 -183.5z" />
    <glyph glyph-name=".null" 
 />
    <glyph glyph-name="nonmarkingreturn" horiz-adv-x="682" 
 />
    <glyph glyph-name="CR" unicode="&#xd;" 
 />
    <glyph glyph-name="space" unicode=" " horiz-adv-x="448" 
 />
    <glyph glyph-name="exclam" unicode="!" horiz-adv-x="635" 
d="M374 1365h356l-208 -937h-274zM145 141q0 78 55.5 124.5t148.5 46.5q91 0 144.5 -44.5t53.5 -118.5q0 -77 -55.5 -123.5t-150.5 -46.5q-90 0 -143 44.5t-53 117.5z" />
    <glyph glyph-name="quotedbl" unicode="&#x22;" horiz-adv-x="1125" 
d="M355 1365h354l-145 -594h-272zM899 1365h353l-145 -594h-272z" />
    <glyph glyph-name="numbersign" unicode="#" horiz-adv-x="1285" 
d="M1335 796h-199l-61 -209h193l-51 -235h-195q-7 -19 -46 -175t-47 -177h-245l93 352h-189q-7 -20 -45.5 -176t-46.5 -176h-245l92 352h-190l52 235h192l61 209h-187l51 235h189l88 334h246l-89 -334h188l86 334h245l-88 -334h199zM702 796l-60 -209h188l60 209h-188z" />
    <glyph glyph-name="dollar" unicode="$" horiz-adv-x="1225" 
d="M476 -128l32 128q-158 35 -253 130t-95 231q0 22 3 40h260q-2 -10 -2 -17q0 -56 38 -102.5t102 -68.5l88 367q-2 1 -26.5 9.5t-26.5 9.5q-313 112 -313 374q0 128 71 223t187 142t259 47q7 0 23.5 -0.5t22.5 -0.5l32 128h129l-37 -148q144 -37 229 -130t85 -221
q0 -6 -1 -18t-1 -14h-249q1 4 1 19q-3 52 -35 92t-82 59l-84 -348q1 0 67 -22q57 -20 100 -40.5t87.5 -52.5t73 -69t46.5 -91t18 -118q-1 -136 -75.5 -234.5t-196.5 -146t-278 -47.5q-29 0 -43 1l-28 -111h-128zM939 371q0 63 -42.5 102t-124.5 68q-1 0 -5 2l-83 -352h6
q105 0 177 47.5t72 132.5zM572 1002q0 -107 137 -156q1 -1 3 -1.5t3 -0.5l80 331h-5q-89 0 -153.5 -46.5t-64.5 -126.5z" />
    <glyph glyph-name="percent" unicode="%" horiz-adv-x="1576" 
d="M177 1037l8 51q20 132 104.5 210t212.5 78q127 0 204.5 -78.5t77.5 -209.5q0 -37 -5 -69l-8 -53q-19 -129 -104 -209t-213 -80t-205 78.5t-77 209.5q0 34 5 72zM1245 383l-11 -65q-4 -32 -4 -59q0 -45 21.5 -77t63.5 -32q44 0 74.5 35.5t40.5 102.5l10 69q5 30 5 51
q0 49 -21.5 82t-63.5 33q-44 0 -75 -37t-40 -103zM385 1072l-10 -65q-5 -28 -5 -59q0 -46 22 -78t64 -32q43 0 73.5 35.5t40.5 102.5l11 69q4 36 4 52q0 49 -21.5 81.5t-63.5 32.5q-44 0 -75 -36.5t-40 -102.5zM1037 348l8 52q20 131 104.5 209t212.5 78q127 0 204.5 -78.5
t77.5 -209.5q0 -21 -5 -68l-8 -54q-19 -129 -104.5 -209t-213.5 -80q-127 0 -204.5 78.5t-77.5 209.5q0 38 6 72zM409 0h-235l582 682l581 683h234l-581 -683z" />
    <glyph glyph-name="ampersand" unicode="&#x26;" horiz-adv-x="1432" 
d="M1185 731h254q-5 -52 -20 -141q-30 -187 -192 -356l167 -234l-329 -2l-53 78q-178 -97 -374 -97q-221 0 -351 106.5t-130 278.5q0 139 95.5 235t264.5 165l27 11q-129 170 -129 297q0 148 120 234.5t294 86.5q180 0 290 -83t110 -210q0 -66 -22.5 -121.5t-66.5 -98.5
t-91 -74.5t-113 -64.5q-15 -9 -51 -26l203 -285q72 106 88 225q5 21 9 76zM662 201q130 0 227 60l-232 340l-20 -10q-186 -79 -186 -205q0 -76 56 -130.5t155 -54.5zM689 1059q0 -40 20 -81t60 -99q2 0 8.5 3t7.5 4q83 35 127.5 80.5t44.5 111.5q0 51 -38.5 83t-92.5 32
q-57 0 -97 -37t-40 -97z" />
    <glyph glyph-name="quotesingle" unicode="'" horiz-adv-x="627" 
d="M377 1365h354l-145 -594h-272z" />
    <glyph glyph-name="parenleft" unicode="(" horiz-adv-x="741" 
d="M617 1363h311q-37 -34 -76 -81.5t-89.5 -128.5t-92 -173t-76.5 -219.5t-50 -263.5q-15 -111 -15 -213.5t8.5 -175.5t29 -149t37 -119.5t41.5 -102.5h-316q-182 316 -121 752q19 167 62.5 309.5t104 248t117 177.5t125.5 139z" />
    <glyph glyph-name="parenright" unicode=")" horiz-adv-x="740" 
d="M289 1363h310q25 -44 44 -82t40.5 -91.5t34 -110.5t21 -124.5t6.5 -149t-15 -170.5q-15 -135 -48.5 -260t-74.5 -219t-92.5 -178t-97.5 -139.5t-94 -101.5h-314q46 54 81.5 100.5t89 134.5t92 177t73 216.5t49.5 264.5q15 110 15.5 212.5t-9.5 178.5t-29.5 145t-39 113.5
t-42.5 83.5z" />
    <glyph glyph-name="asterisk" unicode="*" horiz-adv-x="984" 
d="M928 651l-207 223l5 -305l-219 31l89 291l-261 -157l-82 206l298 68l-268 147l136 175l209 -226l-7 308l219 -31l-92 -294l264 160l82 -206l-299 -67l269 -148z" />
    <glyph glyph-name="plus" unicode="+" horiz-adv-x="1235" 
d="M1217 419h-383l-71 -404h-287l71 404h-382l49 278h381l71 402h288l-71 -402h383z" />
    <glyph glyph-name="comma" unicode="," horiz-adv-x="566" 
d="M261 -376h-259l230 628h324z" />
    <glyph glyph-name="hyphen" unicode="-" horiz-adv-x="869" 
d="M824 415h-631l51 292h631z" />
    <glyph glyph-name="period" unicode="." horiz-adv-x="590" 
d="M125 158q0 92 60 147.5t149 55.5q82 0 136 -50t54 -132q0 -91 -60.5 -145.5t-149.5 -54.5q-82 0 -135.5 48.5t-53.5 130.5z" />
    <glyph glyph-name="slash" unicode="/" horiz-adv-x="772" 
d="M282 -275h-291l718 1705h291z" />
    <glyph glyph-name="zero" unicode="0" horiz-adv-x="1276" 
d="M573 783l-21 -149q-12 -72 -12 -136q0 -115 39.5 -182.5t124.5 -67.5q190 0 242 333l21 152q13 81 13 138q0 110 -40 178t-126 68q-186 0 -241 -334zM223 689l16 113q39 270 186.5 428t383.5 158q229 0 364.5 -145t135.5 -410q0 -93 -11 -155l-18 -116q-21 -131 -67 -237
t-115.5 -184.5t-168.5 -121.5t-219 -43q-230 0 -365 145.5t-135 410.5q0 69 13 157z" />
    <glyph glyph-name="one" unicode="1" horiz-adv-x="989" 
d="M754 0h-340l189 1067h-17l-323 -186l49 294l340 190h341z" />
    <glyph glyph-name="two" unicode="2" horiz-adv-x="1197" 
d="M573 965h-302l3 40q10 173 147.5 282t350.5 109q89 0 170.5 -22t150 -65.5t109.5 -118.5t41 -173q0 -74 -22.5 -140.5t-66 -124.5t-91 -104t-113.5 -98l-337 -272l-4 -17h558l-48 -261h-983l42 247l550 466q42 36 69 61.5t58 62t46.5 74t15.5 75.5q0 63 -42 108.5
t-117 45.5t-126 -45.5t-57 -114.5z" />
    <glyph glyph-name="three" unicode="3" horiz-adv-x="1214" 
d="M561 597l38 230q17 -1 122 -1q90 0 150.5 51t59.5 128q-1 67 -49.5 106.5t-121.5 39.5q-69 0 -111.5 -35.5t-56.5 -91.5h-319q14 93 60.5 165.5t115.5 117t152 67t176 22.5q85 0 164.5 -19t149.5 -58t113.5 -108.5t46.5 -160.5q4 -140 -82 -231t-223 -104l-2 -15
q124 -24 190 -106t66 -203q-1 -98 -47 -178t-123 -129.5t-173 -76t-200 -26.5q-99 0 -188.5 24t-163 70.5t-117.5 124t-44 176.5q0 32 4 53h320v-32q0 -63 55.5 -107.5t137.5 -44.5q84 0 139.5 48t55.5 126q0 76 -53 126.5t-139 51.5h-103z" />
    <glyph glyph-name="four" unicode="4" horiz-adv-x="1298" 
d="M803 1365h481l-153 -879h199l-44 -255h-200l-40 -231h-308l41 231h-653l44 263q54 82 114.5 168.5t133.5 186t122 165.5t138.5 185t124.5 166zM470 486h351l115 626h-17q-38 -52 -140 -189t-175.5 -239.5t-132.5 -193.5z" />
    <glyph glyph-name="five" unicode="5" horiz-adv-x="1231" 
d="M193 420h303q-2 -14 -2 -20q0 -64 50.5 -113t134.5 -49q99 0 165.5 69.5t67.5 175.5q1 89 -47.5 142.5t-132.5 53.5q-51 0 -99 -20t-75 -53h-306l184 759h847l-43 -262h-585l-81 -302h18q41 52 115 80t156 28q102 0 184.5 -42.5t135.5 -134t54 -219.5q1 -108 -35 -203.5
t-105 -169.5t-179.5 -117.5t-248.5 -43.5q-115 0 -208.5 31t-152 83t-89.5 117.5t-31 137.5q0 18 2.5 44t2.5 28z" />
    <glyph glyph-name="six" unicode="6" horiz-adv-x="1258" 
d="M728 -16q-246 0 -380.5 160.5t-134.5 432.5q0 271 112 480q85 154 222.5 245t323.5 91q87 0 161.5 -22t125.5 -58t88 -83t55.5 -96.5t20.5 -99.5q2 -15 0 -31h-304q-5 54 -54 93t-120 39q-124 0 -205.5 -120t-91.5 -283h19q40 65 115 110t184 45q167 0 280.5 -109.5
t113.5 -287.5q0 -104 -38 -196t-105.5 -161t-168 -109t-219.5 -40zM753 671q-90 0 -149 -67t-59 -157q0 -87 54 -148.5t137 -61.5q90 0 147.5 69.5t57.5 166.5q0 87 -53 142.5t-135 55.5z" />
    <glyph glyph-name="seven" unicode="7" horiz-adv-x="1141" 
d="M286 1365h982l-43 -258l-706 -1107h-371l714 1086l2 17h-621z" />
    <glyph glyph-name="eight" unicode="8" horiz-adv-x="1284" 
d="M1018 698q110 -27 184.5 -109.5t74.5 -212.5q0 -81 -32.5 -148t-86.5 -112t-125.5 -76t-147 -45t-154.5 -14q-78 0 -154 13t-150.5 44t-130.5 75.5t-90.5 113.5t-34.5 153q0 154 104 248.5t258 112.5l4 17q-210 92 -210 286q0 87 42 156t113 111t156.5 63.5t178.5 21.5
q137 0 250.5 -42.5t183 -126t69.5 -192.5q0 -130 -89 -219.5t-210 -99.5zM720 209q95 0 160 58.5t65 147.5q0 88 -63.5 141.5t-150.5 53.5q-93 0 -158 -61t-65 -151q0 -87 62 -138t150 -51zM813 825q79 0 133.5 52t54.5 130q0 73 -49.5 118.5t-122.5 45.5
q-81 0 -134.5 -52.5t-53.5 -128.5q0 -73 50 -119t122 -46z" />
    <glyph glyph-name="nine" unicode="9" horiz-adv-x="1243" 
d="M776 1394q239 0 368.5 -153t129.5 -422q0 -271 -101 -472q-156 -362 -521 -362q-203 0 -330.5 102.5t-139.5 246.5q-1 13 -1 42h303q1 -61 54.5 -96.5t123.5 -35.5q117 0 191.5 112t92.5 288h-12q-35 -63 -114.5 -108t-186.5 -45q-165 0 -275.5 109t-110.5 291
q0 102 38 193.5t105.5 160t168 109t217.5 40.5zM751 713q89 0 145 66t56 154q0 86 -50.5 144t-130.5 58q-86 0 -141.5 -67.5t-55.5 -161.5q0 -84 49 -138.5t128 -54.5z" />
    <glyph glyph-name="colon" unicode=":" horiz-adv-x="596" 
d="M244 827q0 92 60 147.5t149 55.5q82 0 136 -50t54 -132q0 -91 -60.5 -145.5t-149.5 -54.5q-82 0 -135.5 49t-53.5 130zM130 158q0 92 60 147.5t149 55.5q82 0 135.5 -50t53.5 -132q0 -91 -60 -145.5t-150 -54.5q-81 0 -134.5 49t-53.5 130z" />
    <glyph glyph-name="semicolon" unicode=";" horiz-adv-x="575" 
d="M246 827q0 92 60.5 147.5t148.5 55.5q83 0 137 -50t54 -132q0 -91 -60.5 -145.5t-150.5 -54.5q-82 0 -135.5 49t-53.5 130zM247 -376h-259l230 628h324z" />
    <glyph glyph-name="less" unicode="&#x3c;" horiz-adv-x="1054" 
d="M220 410l34 198l835 514l-57 -325l-510 -284l-3 -14l416 -268l-56 -313z" />
    <glyph glyph-name="equal" unicode="=" horiz-adv-x="1303" 
d="M1180 173h-995l49 279h993zM1263 656h-994l49 279h993z" />
    <glyph glyph-name="greater" unicode="&#x3e;" horiz-adv-x="1054" 
d="M1003 614l-35 -196l-834 -500l57 324l513 275l2 14l-416 277l55 309z" />
    <glyph glyph-name="question" unicode="?" horiz-adv-x="1111" 
d="M360 141q0 78 55.5 124.5t149.5 46.5q90 0 143.5 -44.5t53.5 -118.5q0 -77 -55.5 -123.5t-150.5 -46.5q-90 0 -143 44.5t-53 117.5zM223 977q3 86 36 161t93.5 133t154.5 91.5t211 33.5q131 0 236 -39t171 -122t66 -198q0 -61 -18.5 -112.5t-53.5 -91t-71.5 -67.5
t-85.5 -55q-14 -8 -45.5 -24.5t-46.5 -25.5t-39.5 -25.5t-37.5 -30.5t-27.5 -33.5t-21.5 -43t-8 -51.5l-4 -36h-289l4 44q3 67 22 121.5t54 96t74.5 72t93.5 60.5q5 3 26 14.5t27.5 15.5t25 15t25.5 17.5t21 18t19.5 21t13 22.5t10.5 26.5t3 28.5q0 61 -47 94.5t-115 33.5
q-79 0 -126 -46.5t-55 -118.5h-296z" />
    <glyph glyph-name="at" unicode="@" horiz-adv-x="1770" 
d="M1134 287h-9q-27 -65 -88.5 -105.5t-153.5 -40.5q-119 0 -193.5 78t-74.5 203q0 52 8 92l16 90q25 145 109.5 226t207.5 81q92 0 151.5 -51t66.5 -117h8l23 135h212l-81 -465q-5 -20 -5 -44q0 -34 23.5 -54.5t59.5 -20.5q66 0 114 62.5t68 195.5l4 26q6 32 6 114
q0 216 -155.5 345.5t-401.5 129.5q-244 0 -412.5 -148.5t-214.5 -406.5l-6 -35q-13 -71 -13 -140q0 -142 48 -249t132 -169.5t188.5 -92.5t227.5 -30q106 0 160 14l-29 -166q-62 -16 -157 -16q-165 0 -303.5 44t-243 128.5t-163 218.5t-58.5 305q0 74 16 168l8 47
q56 327 279 513.5t542 186.5q166 0 307 -49t237 -134t150 -201t54 -249q0 -91 -8 -140l-8 -48q-33 -189 -142 -287t-253 -98q-93 0 -162.5 43.5t-90.5 110.5zM863 561l-10 -52q-6 -35 -6 -64q0 -57 31 -93t91 -36q50 0 86.5 36.5t50.5 116.5l15 85q4 23 4 47q0 53 -31.5 89
t-87.5 36q-52 0 -90 -42t-53 -123z" />
    <glyph glyph-name="A" unicode="A" horiz-adv-x="1314" 
d="M14 0l673 1365h415l198 -1365h-361l-31 309h-412l-140 -309h-342zM847 1064h-18l-228 -511h291z" />
    <glyph glyph-name="B" unicode="B" horiz-adv-x="1319" 
d="M145 0l240 1365h590q194 0 291.5 -84.5t97.5 -222.5q0 -71 -28.5 -133t-73.5 -104t-97.5 -68t-104.5 -33l-3 -16q106 -10 185 -90t79 -202q0 -101 -43 -180.5t-119.5 -129.5t-179 -76t-225.5 -26h-609zM678 1138l-58 -324h187q97 0 157 49.5t60 139.5q0 135 -178 135
h-168zM582 596l-65 -364h210q114 0 184.5 54.5t70.5 151.5q0 158 -211 158h-189z" />
    <glyph glyph-name="C" unicode="C" horiz-adv-x="1325" 
d="M577 793l-26 -134q-11 -60 -11 -128q0 -124 64 -196t175 -72q98 0 157.5 52.5t75.5 137.5h315q-4 -16 -4 -30q-11 -90 -51 -169t-108.5 -142t-174 -99.5t-236.5 -36.5q-258 0 -407 143.5t-149 417.5q0 65 9 121l33 182q45 259 205 404t414 145q103 0 192 -25t152.5 -68
t109 -100t68 -122t22.5 -133q0 -63 -12 -99h-319q4 25 4 61q-3 85 -61 145t-158 60q-220 0 -279 -315z" />
    <glyph glyph-name="D" unicode="D" horiz-adv-x="1382" 
d="M387 1365h513q251 0 390.5 -149t139.5 -394q0 -71 -8 -127q-4 -60 -24 -136q-56 -261 -249 -410t-490 -149h-512zM677 1093l-146 -821h97q163 0 277 78.5t151 242.5q17 53 22 121q6 44 6 94q0 147 -81.5 216t-214.5 69h-111z" />
    <glyph glyph-name="E" unicode="E" horiz-adv-x="1168" 
d="M1111 272l-47 -272h-918l240 1365h917l-48 -272h-579l-52 -282h547l-42 -246h-547l-53 -293h582z" />
    <glyph glyph-name="F" unicode="F" horiz-adv-x="1136" 
d="M484 0h-336l240 1365h915l-47 -271h-578l-57 -320h526l-44 -262h-528z" />
    <glyph glyph-name="G" unicode="G" horiz-adv-x="1376" 
d="M242 850q46 252 206 395.5t421 143.5q114 0 208.5 -26.5t157.5 -70t106.5 -101.5t63 -119t19.5 -124q0 -31 -3 -41h-324v28q-1 28 -13.5 57t-37.5 58t-71 47.5t-105 18.5q-116 0 -191 -81.5t-104 -235.5l-28 -149q-11 -68 -11 -124q0 -129 69 -203t179 -74
q102 0 173.5 49t86.5 124l17 88h-241l39 220h553l-52 -294q-38 -212 -192.5 -336t-401.5 -124q-96 0 -180.5 20.5t-156.5 64t-123.5 106.5t-80.5 153.5t-29 200.5q0 80 14 155z" />
    <glyph glyph-name="H" unicode="H" horiz-adv-x="1456" 
d="M481 0h-336l240 1365h337l-93 -536h493l93 536h338l-241 -1365h-335l97 555h-493z" />
    <glyph glyph-name="I" unicode="I" horiz-adv-x="617" 
d="M477 0h-336l240 1365h337z" />
    <glyph glyph-name="J" unicode="J" horiz-adv-x="1126" 
d="M1245 1365l-165 -951q-26 -147 -99 -247t-175.5 -145.5t-231.5 -45.5q-133 0 -239.5 47t-171 141t-64.5 222q0 55 9 86l318 2q-3 -27 -3 -45q0 -66 39 -109.5t112 -43.5q143 0 175 183l159 906h337z" />
    <glyph glyph-name="K" unicode="K" horiz-adv-x="1337" 
d="M717 1365l-107 -577h15l544 577h405l-594 -621l353 -744h-372l-252 561l-163 -162l-70 -399h-336l240 1365h337z" />
    <glyph glyph-name="L" unicode="L" horiz-adv-x="1069" 
d="M1073 281l-49 -281h-876l240 1365h337l-192 -1084h540z" />
    <glyph glyph-name="M" unicode="M" horiz-adv-x="1672" 
d="M449 0h-304l240 1365h354l188 -751h12l454 751h376l-241 -1365h-301l151 854h-16l-403 -662h-185l-159 662h-17z" />
    <glyph glyph-name="N" unicode="N" horiz-adv-x="1434" 
d="M1284 0h-264l-398 808h-14l-141 -808h-316l240 1365h268l394 -801h14l141 801h316z" />
    <glyph glyph-name="O" unicode="O" horiz-adv-x="1394" 
d="M574 799l-27 -146q-11 -69 -11 -127q0 -122 64 -195.5t182 -73.5q108 0 180.5 79.5t101.5 241.5l27 151q10 60 10 119q0 120 -64.5 193.5t-180.5 73.5q-106 0 -179 -77t-103 -239zM207 663l35 193q45 254 210.5 393.5t417.5 139.5q256 0 412.5 -143t156.5 -389
q0 -93 -11 -154l-36 -193q-48 -256 -209.5 -395t-424.5 -139q-249 0 -405.5 141t-156.5 383q0 99 11 163z" />
    <glyph glyph-name="P" unicode="P" horiz-adv-x="1241" 
d="M479 0h-336l240 1365h523q211 0 329.5 -111t118.5 -302q0 -64 -11 -116q-35 -192 -179.5 -307t-387.5 -115h-223zM824 1117h-146l-78 -435h158q107 0 170 51t81 135q8 32 8 66q0 90 -54 136.5t-139 46.5z" />
    <glyph glyph-name="Q" unicode="Q" horiz-adv-x="1413" 
d="M214 677l29 165q45 256 207.5 401.5t411.5 145.5q167 0 295 -62t202 -187t74 -297q0 -67 -15 -154l-30 -165q-42 -244 -198 -384l148 -247h-316l-65 108q-87 -25 -192 -25q-251 0 -408.5 142t-157.5 395q0 84 15 164zM954 446l35 -60q51 65 70 180l31 168q10 56 10 126
q0 122 -66 191t-176 69q-227 0 -285 -317l-30 -162q-11 -63 -11 -133q0 -131 67 -204t179 -73q20 0 40 3l-127 212h263z" />
    <glyph glyph-name="R" unicode="R" horiz-adv-x="1319" 
d="M480 0h-338l240 1365h552q211 0 330.5 -103.5t119.5 -288.5q0 -29 -4 -63q-14 -144 -94 -246.5t-212 -150.5l177 -513h-353l-151 470q-9 -1 -51 -1h-134zM852 1109h-176l-71 -393h182q111 0 176 50.5t77 137.5q3 33 3 44q0 82 -53.5 121.5t-137.5 39.5z" />
    <glyph glyph-name="S" unicode="S" horiz-adv-x="1257" 
d="M144 417h314q-2 -10 -2 -20q0 -73 68 -120t167 -47q86 0 150 37.5t64 108.5q0 26 -10.5 47t-25.5 35.5t-43 28.5t-51.5 22.5t-61.5 20.5l-123 40q-70 22 -124.5 51.5t-102 74t-73.5 108.5t-26 144q0 138 73 239.5t194 151.5t274 50q227 0 368 -111t141 -279q0 -17 -3 -38
h-303q1 2 1 16q0 73 -60.5 114.5t-145.5 41.5q-83 0 -138.5 -39t-55.5 -103q0 -55 48 -92.5t140 -66.5l135 -42q67 -21 117 -46.5t98.5 -66.5t74.5 -104t26 -145q0 -142 -77 -246t-204 -155t-288 -51q-83 0 -161 15t-147 47t-120 78.5t-81 112.5t-30 145q0 26 4 43z" />
    <glyph glyph-name="T" unicode="T" horiz-adv-x="1126" 
d="M739 0h-338l194 1088h-370l49 277h1061l-49 -277h-355z" />
    <glyph glyph-name="U" unicode="U" horiz-adv-x="1406" 
d="M706 1365l-143 -815q-7 -35 -7 -75q0 -95 60 -151.5t164 -56.5q198 0 239 228l154 870h339l-166 -951q-37 -209 -194.5 -322.5t-391.5 -113.5q-112 0 -209.5 28.5t-173.5 83t-120 142t-44 197.5q0 45 10 111l144 825h339z" />
    <glyph glyph-name="V" unicode="V" horiz-adv-x="1304" 
d="M866 0h-420l-196 1365h368l83 -1044h16l450 1044h369z" />
    <glyph glyph-name="W" unicode="W" horiz-adv-x="1833" 
d="M684 0h-324l-99 1365h349l8 -931h17l385 931h267l65 -931h17l334 931h351l-579 -1365h-320l-80 848h-15z" />
    <glyph glyph-name="X" unicode="X" horiz-adv-x="1281" 
d="M805 915l327 450h381l-544 -680l304 -685h-375l-186 442h-14l-332 -442h-366l528 688l-289 677h390l163 -450h13z" />
    <glyph glyph-name="Y" unicode="Y" horiz-adv-x="1206" 
d="M857 476l-83 -476h-337l83 467l-306 898h361l160 -569h14l361 569h361z" />
    <glyph glyph-name="Z" unicode="Z" horiz-adv-x="1228" 
d="M115 0l37 220l750 860l1 18h-594l46 267h1006l-38 -222l-750 -859l-1 -17h623l-48 -267h-1032z" />
    <glyph glyph-name="bracketleft" unicode="[" horiz-adv-x="771" 
d="M349 1365h594l-42 -239h-281l-198 -1115h295l-43 -239h-606z" />
    <glyph glyph-name="backslash" unicode="\" horiz-adv-x="680" 
d="M689 -275h-292l-152 1705h291z" />
    <glyph glyph-name="bracketright" unicode="]" horiz-adv-x="771" 
d="M310 1365h594l-281 -1593h-606l40 239h296l198 1115h-283z" />
    <glyph glyph-name="asciicircum" unicode="^" horiz-adv-x="949" 
d="M1014 796h-285l-100 312h-16l-217 -312h-279l414 569h271z" />
    <glyph glyph-name="underscore" unicode="_" horiz-adv-x="910" 
d="M871 -348h-926l45 250h928z" />
    <glyph glyph-name="grave" unicode="`" horiz-adv-x="1000" 
d="M895 1213h-237l-246 324h291z" />
    <glyph glyph-name="a" unicode="a" horiz-adv-x="1136" 
d="M446 -16q-138 0 -227.5 81.5t-89.5 222.5q0 9 1 15q4 159 123.5 242t314.5 83h241l13 75q3 24 3 31q0 50 -37 83.5t-103 33.5q-56 0 -92.5 -25t-46.5 -67h-306q8 64 40 121t87 105t142 76t196 28q201 0 317.5 -95t116.5 -268q0 -39 -10 -96l-111 -630h-305l25 135h-17
q-31 -63 -101.5 -107t-173.5 -44zM454 331q0 -52 36.5 -85t94.5 -33q62 0 111.5 36.5t61.5 94.5l20 110h-164q-76 0 -118 -34.5t-42 -88.5z" />
    <glyph glyph-name="b" unicode="b" horiz-adv-x="1238" 
d="M802 -16q-115 0 -198 59t-103 154h-14l-35 -197h-326l253 1431h328l-102 -560h18q14 38 37 71.5t58.5 66t89.5 52t119 19.5q158 0 251 -107.5t93 -288.5q0 -80 -13 -152l-18 -100q-37 -217 -151 -332.5t-287 -115.5zM541 442q0 -86 46 -142t120 -56q79 0 132 59t72 165
l16 86q6 36 6 90q0 81 -43 131t-119 50q-81 0 -136 -61.5t-73 -169.5l-14 -86q-7 -33 -7 -66z" />
    <glyph glyph-name="c" unicode="c" horiz-adv-x="1108" 
d="M159 408q0 70 12 140l20 112q19 109 67 193t117.5 134.5t152.5 76t177 25.5q126 0 228.5 -42.5t166 -130t63.5 -206.5q0 -27 -4 -40h-302q1 6 1 16q0 58 -41.5 102.5t-114.5 44.5q-74 0 -127 -53t-71 -153l-17 -105q-8 -49 -8 -91q0 -193 170 -193q133 0 158 107h306
q-15 -121 -86 -205.5t-173 -123t-227 -38.5q-216 0 -342 115t-126 315z" />
    <glyph glyph-name="d" unicode="d" horiz-adv-x="1239" 
d="M623 1080q126 0 205.5 -66.5t92.5 -153.5h14l101 571h329l-251 -1431h-328l30 171h-17q-27 -75 -104 -130.5t-194 -55.5q-163 0 -255.5 108.5t-92.5 291.5q0 79 13 149l19 100q40 213 154 329.5t284 116.5zM889 637q0 85 -47 136t-118 51q-80 0 -133 -59.5t-73 -164.5
l-16 -86q-6 -34 -6 -79q0 -83 42 -137t122 -54t134 60t74 171l15 85q6 29 6 77z" />
    <glyph glyph-name="e" unicode="e" horiz-adv-x="1142" 
d="M629 -22q-101 0 -185.5 27t-149 80t-100.5 137.5t-36 192.5q0 54 14 140l16 90q25 146 103 248t185.5 149t238.5 47q210 0 335 -128t117 -337q0 -48 -24 -157h-661q-8 -35 -8 -80q0 -74 44 -120.5t132 -46.5q67 0 111 27.5t56 78.5h304q-16 -145 -150.5 -246.5
t-341.5 -101.5zM856 645q4 20 4 33q8 75 -31.5 125t-119.5 50q-70 0 -119 -43.5t-68 -125.5l-9 -39h343z" />
    <glyph glyph-name="f" unicode="f" horiz-adv-x="816" 
d="M204 0l142 803h-169l43 244h169l16 97q30 170 133.5 242.5t307.5 72.5q93 0 170 -11l-39 -220q-42 6 -100 6q-73 0 -110.5 -27t-48.5 -83l-13 -77h234l-44 -244h-225l-142 -803h-324z" />
    <glyph glyph-name="g" unicode="g" horiz-adv-x="1242" 
d="M632 1080q120 0 198 -59.5t101 -153.5h15l35 198h326l-190 -1088q-33 -184 -173 -280t-366 -96q-117 0 -209.5 27.5t-148.5 74t-85.5 104.5t-29.5 123q0 22 2 26h302q3 -16 4 -18q10 -43 59 -70.5t119 -27.5q96 0 145 49t67 148l24 143h-18q-30 -67 -105.5 -110
t-180.5 -43q-159 0 -256.5 109.5t-97.5 300.5q0 86 13 146l13 66q45 216 162 323.5t275 107.5zM896 639q0 83 -45 134t-121 51q-79 0 -132.5 -60t-72.5 -168l-12 -64q-9 -47 -9 -86q0 -87 43 -141t125 -54q77 0 131.5 59.5t72.5 169.5l12 67q8 47 8 92z" />
    <glyph glyph-name="h" unicode="h" horiz-adv-x="1246" 
d="M125 0l250 1431h329l-94 -523h17q39 79 114 128t186 49q150 0 238 -89.5t88 -232.5q0 -69 -24 -201l-99 -562h-328l101 577q9 52 9 103q0 71 -40 111.5t-102 40.5q-85 0 -138.5 -62t-72.5 -169l-106 -601h-328z" />
    <glyph glyph-name="i" unicode="i" horiz-adv-x="593" 
d="M137 0l189 1069h327l-189 -1069h-327zM338 1368q0 76 56 122t146 46q88 0 138 -43.5t50 -114.5q0 -75 -56.5 -121t-146.5 -46q-87 0 -137 43.5t-50 113.5z" />
    <glyph glyph-name="j" unicode="j" horiz-adv-x="616" 
d="M678 1069l-185 -1049q-18 -104 -59.5 -177.5t-103.5 -114.5t-135 -59t-165 -18q-66 0 -126 13l45 245q23 -8 68 -8q60 0 100 31.5t50 92.5l184 1044h327zM365 1368q0 75 56 121.5t146 46.5q88 0 138 -43.5t50 -114.5q0 -75 -56 -121t-147 -46q-86 0 -136.5 43.5
t-50.5 113.5z" />
    <glyph glyph-name="k" unicode="k" horiz-adv-x="1154" 
d="M498 357l-61 -357h-318l252 1431h318l-135 -757h19l373 395h378l-470 -459l294 -610h-342l-202 451z" />
    <glyph glyph-name="l" unicode="l" horiz-adv-x="594" 
d="M133 0l253 1431h326l-252 -1431h-327z" />
    <glyph glyph-name="m" unicode="m" horiz-adv-x="1830" 
d="M122 0l188 1069h317l-31 -175h16q16 36 39.5 67.5t59.5 60.5t87.5 46t113.5 17q113 0 182.5 -55t96.5 -139h14q98 194 319 194q149 0 232.5 -88t83.5 -230q0 -62 -23 -203l-100 -564h-328l102 580q9 54 9 100q0 71 -35 111.5t-96 40.5q-141 0 -181 -225l-107 -607h-314
l101 580q9 43 9 101q0 70 -34 110.5t-94 40.5q-153 0 -193 -226l-106 -606h-328z" />
    <glyph glyph-name="n" unicode="n" horiz-adv-x="1239" 
d="M125 0l188 1069h321l-29 -161h17q40 79 115 128t188 49q150 0 235.5 -89.5t85.5 -232.5q0 -75 -23 -201l-100 -562h-327l100 577q9 54 9 102q0 72 -38.5 112.5t-100.5 40.5q-166 0 -207 -231l-106 -601h-328z" />
    <glyph glyph-name="o" unicode="o" horiz-adv-x="1192" 
d="M516 613l-16 -98q-8 -54 -8 -89q0 -85 44 -139.5t126 -54.5q83 0 133.5 63t67.5 168l16 102q6 50 6 88q0 82 -43.5 134.5t-123.5 52.5q-83 0 -134.5 -61t-67.5 -166zM169 575l16 86q36 192 177 310t354 118q144 0 256.5 -51t180 -157t67.5 -253q0 -73 -10 -129l-18 -86
q-40 -195 -178 -312t-358 -117q-105 0 -194.5 29.5t-157.5 85t-107 143t-39 196.5q0 82 11 137z" />
    <glyph glyph-name="p" unicode="p" horiz-adv-x="1238" 
d="M802 -16q-112 0 -196 58t-103 155h-14l-95 -537h-328l246 1405h330l-36 -194h18q14 37 36 70t57 66.5t89 53t120 19.5q159 0 252 -107t93 -289q0 -86 -12 -152l-19 -100q-36 -216 -150 -332t-288 -116zM537 442q0 -86 46 -142t120 -56q80 0 133.5 59t72.5 165l16 86
q6 36 6 90q0 81 -44 131t-121 50q-80 0 -134.5 -61.5t-73.5 -169.5l-14 -86q-7 -33 -7 -66z" />
    <glyph glyph-name="q" unicode="q" horiz-adv-x="1236" 
d="M622 1080q122 0 202.5 -65t94.5 -155h19l36 205h326l-249 -1405h-328l93 510h-17q-30 -75 -105.5 -129.5t-185.5 -54.5q-164 0 -259 107.5t-95 286.5q0 89 12 154l20 100q40 211 155.5 328.5t280.5 117.5zM887 637q0 85 -47 136t-117 51q-80 0 -133.5 -60.5t-72.5 -163.5
l-17 -86q-6 -28 -6 -79q0 -83 42.5 -137t122.5 -54t134 60t73 171l15 85q6 35 6 77z" />
    <glyph glyph-name="r" unicode="r" horiz-adv-x="845" 
d="M121 0l189 1069h309l-31 -175h17q25 81 93.5 136t170.5 55q76 0 127 -27l-58 -284q-21 11 -61.5 20.5t-76.5 9.5q-114 0 -174.5 -71t-83.5 -198l-94 -535h-327z" />
    <glyph glyph-name="s" unicode="s" horiz-adv-x="1077" 
d="M234 745q0 154 114.5 249t326.5 95q196 0 319.5 -86t123.5 -220q0 -24 -2 -36h-281q1 4 1 18q0 42 -42.5 75t-112.5 33q-65 0 -101.5 -28.5t-36.5 -70.5q0 -21 10 -37.5t24.5 -27t41 -21t48 -16.5t58.5 -16.5t60 -17.5q132 -42 205 -112t73 -190q0 -115 -69.5 -196.5
t-176 -118.5t-236.5 -37q-87 0 -167 20t-146 58.5t-105 102t-39 143.5q0 27 2 35h288v-21q4 -55 52 -87t122 -32q71 0 111.5 28.5t40.5 73.5q0 11 -2.5 21t-9 18.5t-13 15t-19.5 13l-22 11t-27.5 10.5t-30 9.5t-34 10.5t-35.5 11q-47 14 -82.5 28t-82 41t-76 58.5t-51 82
t-21.5 110.5z" />
    <glyph glyph-name="t" unicode="t" horiz-adv-x="812" 
d="M375 1047l48 269h314l-47 -269h219l-43 -244h-214l-71 -405q-9 -49 -9 -66q0 -51 29.5 -74.5t93.5 -23.5q54 0 92 8l-42 -231q-55 -16 -166 -16q-345 0 -345 232q0 41 9 92l86 484h-150l43 244h153z" />
    <glyph glyph-name="u" unicode="u" horiz-adv-x="1232" 
d="M1297 1069l-188 -1069h-316l30 163h-18q-39 -77 -116 -128t-189 -51q-146 0 -235 85t-89 234q0 86 18 183l105 583h328l-101 -576q-10 -53 -10 -105q0 -72 40 -110t103 -38q166 0 206 230l105 599h327z" />
    <glyph glyph-name="v" unicode="v" horiz-adv-x="1104" 
d="M363 0l-165 1069h342l56 -783h14l309 783h344l-520 -1069h-380z" />
    <glyph glyph-name="w" unicode="w" horiz-adv-x="1586" 
d="M1763 1069l-451 -1069h-348l-44 726h-12l-279 -726h-349l-99 1069h322l9 -777h14l290 777h305l36 -777h14l267 777h325z" />
    <glyph glyph-name="x" unicode="x" horiz-adv-x="1097" 
d="M735 0l-119 345h-12l-232 -345h-346l403 533l-234 536h358l115 -355h12l236 355h361l-431 -538l233 -531h-344z" />
    <glyph glyph-name="y" unicode="y" horiz-adv-x="1095" 
d="M1263 1069l-507 -1051q-4 -9 -15 -30t-12 -22q-65 -121 -132.5 -189.5t-163.5 -103.5t-235 -35q-88 0 -163 15l44 236q49 -11 94 -11q130 0 170 92l20 51l-161 1048h330l69 -795h15l303 795h344z" />
    <glyph glyph-name="z" unicode="z" horiz-adv-x="1024" 
d="M87 0l33 187l583 626l3 16h-474l45 240h865l-36 -210l-557 -602l-3 -15h463l-44 -242h-878z" />
    <glyph glyph-name="braceleft" unicode="{" horiz-adv-x="851" 
d="M455 579l-5 -31q98 -9 141.5 -70t25.5 -170q-42 -229 -42 -241q-13 -101 18 -134t145 -33h42l-40 -232h-122q-218 0 -303.5 78t-59.5 262q0 23 36 217q18 104 -7 149.5t-117 45.5l50 288q93 0 134 45t59 150l27 151q36 207 152.5 286.5t341.5 79.5h117l-40 -233h-42
q-116 0 -162.5 -41.5t-64.5 -145.5l-36 -202q-20 -110 -79.5 -160t-168.5 -59z" />
    <glyph glyph-name="bar" unicode="|" horiz-adv-x="738" 
d="M466 -288h-291l303 1718h292z" />
    <glyph glyph-name="braceright" unicode="}" horiz-adv-x="851" 
d="M595 548l6 31q-101 9 -145.5 61t-25.5 158q37 205 37 222q14 101 -17 134t-146 33h-42l41 233h121q219 0 305 -77t60 -258q0 -24 -8 -74t-16 -91t-8 -43q-13 -90 14 -129.5t113 -39.5l-51 -288q-92 0 -133 -45t-59 -150l-34 -186q-19 -107 -58 -179.5t-102 -114.5
t-143.5 -59.5t-191.5 -17.5h-117l41 232h41q116 0 162.5 41t64.5 146l39 221q41 223 252 240z" />
    <glyph glyph-name="asciitilde" unicode="~" horiz-adv-x="1167" 
d="M907 469q-68 0 -121 25.5t-107 70.5q-6 5 -27.5 23t-28.5 23.5t-24.5 18t-28 17t-25 9t-28.5 4.5q-49 0 -75.5 -42.5t-32.5 -103.5h-226q2 185 80.5 298t225.5 113q49 0 95 -16.5t72 -34.5t62 -48q4 -4 16.5 -14.5t17.5 -14.5t16 -13t17 -12.5t16.5 -10.5t18 -9.5t17 -6
t19 -5t19.5 -1.5q96 0 110 140h227q-4 -182 -85 -296t-220 -114z" />
    <glyph glyph-name="nonbreakingspace" unicode="&#xa0;" horiz-adv-x="448" 
 />
    <glyph glyph-name="exclamdown" unicode="&#xa1;" horiz-adv-x="635" 
d="M679 932q0 -78 -55.5 -125t-148.5 -47q-91 0 -144.5 44.5t-53.5 118.5q0 78 55.5 124.5t150.5 46.5q90 0 143 -44.5t53 -117.5zM450 -293h-356l208 937h274z" />
    <glyph glyph-name="cent" unicode="&#xa2;" horiz-adv-x="1220" 
d="M230 553q0 64 13 140l19 112q33 190 154 295.5t290 123.5l39 216h263l-43 -237q122 -37 196 -130t74 -217q0 -28 -4 -41h-303q2 5 2 16q0 61 -41 105.5t-115 44.5q-75 0 -128 -53t-70 -156l-17 -105q-8 -49 -8 -91q0 -91 41.5 -143t128.5 -52q66 0 107.5 29.5t50.5 79.5
h306q-14 -102 -73.5 -181t-146 -121.5t-188.5 -49.5l-39 -217h-262l40 232q-131 39 -208.5 145t-77.5 255z" />
    <glyph glyph-name="sterling" unicode="&#xa3;" horiz-adv-x="1220" 
d="M1334 968h-298q10 68 -27 115t-111 47q-129 0 -157 -154l-35 -198h282l-38 -216h-281q-5 -30 -20 -84t-26 -69q-40 -98 -113 -135v-12h717l-46 -262h-1114l47 271q29 4 49 9.5t49.5 19.5t53 42.5t40.5 70.5q13 13 29.5 66t21.5 83h-164l38 216h162l44 242
q30 172 148.5 269.5t320.5 97.5q217 0 335.5 -110.5t92.5 -308.5z" />
    <glyph glyph-name="currency" unicode="&#xa4;" horiz-adv-x="1224" 
d="M564 647q0 -85 59.5 -145t143.5 -60t143.5 60t59.5 145t-59.5 145t-143.5 60t-143.5 -60t-59.5 -145zM1110 90l-139 158q-95 -50 -206 -50q-129 0 -237 73l-170 -148l-154 165l170 149q-53 97 -53 213q0 131 74 238l-143 163l164 156l142 -163q98 53 213 53
q129 0 237 -75l174 152l154 -166l-175 -151q52 -99 52 -212q0 -131 -78 -243l139 -157z" />
    <glyph glyph-name="yen" unicode="&#xa5;" horiz-adv-x="1220" 
d="M232 350h282l18 106h-281l35 196h189l-245 713h364l162 -567h13l359 567h359l-496 -713h204l-34 -196h-292l-19 -106h292l-34 -197h-292l-28 -153h-336l27 153h-281z" />
    <glyph glyph-name="brokenbar" unicode="&#xa6;" horiz-adv-x="737" 
d="M657 779h-297l116 658h297zM467 -295h-297l119 677h297z" />
    <glyph glyph-name="section" unicode="&#xa7;" horiz-adv-x="984" 
d="M92 90h253v-1q1 -65 47 -99.5t119 -34.5q58 0 92.5 27t34.5 67q0 43 -37 69t-133 65q-10 5 -16 7q-63 26 -107 51t-89.5 64t-69.5 93t-24 122q0 116 68 184t165 96l1 8q-130 88 -130 249q0 157 115.5 246t299.5 89q101 0 181.5 -30.5t128.5 -81t71.5 -112.5t20.5 -129
q0 -10 -1 -16h-255q1 3 1 9q6 62 -40 98.5t-109 36.5q-54 0 -92.5 -25t-38.5 -73q0 -28 12.5 -50t42 -41t56 -31.5t76.5 -32.5q151 -61 222.5 -131.5t71.5 -186.5q0 -120 -65.5 -198.5t-154.5 -109.5l-1 -8q111 -76 111 -214q0 -156 -119.5 -244t-301.5 -88
q-192 0 -303.5 100t-103.5 245q0 8 1 11zM612 389q52 16 89.5 61.5t37.5 103.5q0 83 -114 130q-31 14 -46 17q-60 -14 -96 -57t-36 -97q0 -47 27.5 -78t78.5 -56q20 -11 59 -24z" />
    <glyph glyph-name="dieresis" unicode="&#xa8;" horiz-adv-x="1000" 
d="M407 1359q0 58 35.5 92t95.5 34q61 0 96.5 -34t35.5 -92q0 -56 -35.5 -89.5t-96.5 -33.5q-60 0 -95.5 34t-35.5 89zM810 1359q0 58 35 92t95 34q61 0 97 -34t36 -92q0 -55 -35.5 -89t-97.5 -34q-59 0 -94.5 34t-35.5 89z" />
    <glyph glyph-name="copyright" unicode="&#xa9;" horiz-adv-x="1713" 
d="M957 -68q-207 0 -369 91.5t-249.5 249.5t-87.5 353q0 60 11 129l16 103q38 254 239 416t479 162q156 0 289.5 -54.5t225.5 -147.5t144 -219.5t52 -267.5q0 -53 -9 -111l-16 -103q-41 -271 -241.5 -436t-483.5 -165zM388 623q0 -243 159 -400.5t411 -157.5
q231 0 393.5 133.5t196.5 354.5l16 104q7 52 7 88q0 115 -43 217.5t-118.5 177.5t-184.5 119t-234 44q-227 0 -387.5 -132.5t-190.5 -335.5l-16 -104q-9 -54 -9 -108zM628 609q0 30 6 75l16 92q24 140 113.5 217.5t234.5 77.5q147 0 234 -74.5t87 -176.5q0 -35 -6 -53h-197
q2 9 2 31q0 45 -32 78t-84 33q-58 0 -97.5 -43.5t-54.5 -128.5l-12 -65q-6 -35 -6 -68q0 -66 32.5 -106t96.5 -40q49 0 80.5 24.5t40.5 67.5h196q-19 -121 -104.5 -190.5t-223.5 -69.5q-151 0 -236.5 85t-85.5 234z" />
    <glyph glyph-name="ordfeminine" unicode="&#xaa;" horiz-adv-x="728" 
d="M429 717q-76 0 -131.5 45.5t-55.5 130.5q0 96 71.5 141.5t186.5 45.5h134l7 43q1 5 1 13q0 30 -18.5 46t-49.5 16q-27 0 -46 -13.5t-24 -35.5h-200q10 78 81.5 134t195.5 56q116 0 189.5 -51.5t73.5 -145.5q0 -24 -4 -48l-65 -368h-194l14 75h-10q-16 -33 -57.5 -58.5
t-98.5 -25.5zM442 913q0 -27 19 -44.5t52 -17.5q34 0 60 19t32 49l11 60h-89q-40 0 -62.5 -18.5t-22.5 -47.5z" />
    <glyph glyph-name="guillemotleft" unicode="&#xab;" horiz-adv-x="1340" 
d="M212 565l415 404h288l-414 -419l-1 -6l264 -389h-289l-265 402zM707 565l415 404h287l-413 -419l-1 -6l263 -389h-289l-264 402z" />
    <glyph glyph-name="logicalnot" unicode="&#xac;" horiz-adv-x="1224" 
d="M1152 81h-296l59 331h-747l45 260h1043z" />
    <glyph glyph-name="registered" unicode="&#xae;" horiz-adv-x="1214" 
d="M261 902q0 36 6 74l9 51q22 193 162.5 309.5t341.5 116.5q220 0 362.5 -139t142.5 -345q0 -37 -6 -67l-8 -54q-26 -201 -164.5 -317.5t-342.5 -116.5q-223 0 -363 137t-140 351zM380 902q0 -165 106.5 -268.5t280.5 -103.5q161 0 263.5 89.5t122.5 245.5l8 50q4 21 4 51
q0 159 -108 265t-284 106q-161 0 -262.5 -89.5t-117.5 -239.5l-8 -49q-5 -28 -5 -57zM670 680h-140l93 526h217q83 0 129.5 -40.5t46.5 -115.5q0 -3 -0.5 -10t-0.5 -11q-11 -114 -118 -154l68 -195h-145l-56 177h-21h-43zM806 1101h-63l-25 -143h64q83 0 94 69q0 2 0.5 7
t0.5 8q0 29 -20.5 44t-50.5 15z" />
    <glyph glyph-name="macron" unicode="&#xaf;" horiz-adv-x="1000" 
d="M1084 1369l-26 -144h-680l26 144h680z" />
    <glyph glyph-name="degree" unicode="&#xb0;" horiz-adv-x="712" 
d="M528 779q-128 0 -217 89.5t-89 216.5q0 126 89 215t217 89q125 0 214 -89t89 -215q0 -127 -89 -216.5t-214 -89.5zM528 960q52 0 89 37t37 88q0 53 -36.5 89.5t-89.5 36.5q-51 0 -88.5 -36.5t-37.5 -89.5q0 -51 37.5 -88t88.5 -37z" />
    <glyph glyph-name="plusminus" unicode="&#xb1;" horiz-adv-x="1220" 
d="M865 635l-41 -228h-295l40 228h-337l43 244h337l37 210h295l-36 -210h343l-43 -244h-343zM1114 80h-976l41 233h976z" />
    <glyph glyph-name="twosuperior" unicode="&#xb2;" horiz-adv-x="837" 
d="M554 1147h-202q2 96 74.5 162.5t211.5 66.5q109 0 187 -53.5t78 -149.5q0 -68 -36.5 -115t-111.5 -99q-10 -6 -68.5 -49t-76.5 -54l-1 -6h265l-29 -162h-553l24 131l271 218q3 2 20.5 16.5t27 23.5t23 23.5t20 28.5t6.5 28q0 25 -16.5 40.5t-44.5 15.5q-27 0 -45.5 -18
t-23.5 -48z" />
    <glyph glyph-name="threesuperior" unicode="&#xb3;" horiz-adv-x="841" 
d="M500 966l20 138q69 -1 73 -1q39 0 64.5 18t25.5 46q0 26 -20 40.5t-52 14.5q-31 0 -51 -14.5t-24 -37.5h-202q6 90 80 148t198 58q71 0 133.5 -18.5t107 -62t44.5 -105.5q0 -65 -43 -107.5t-105 -48.5l-2 -8q53 -13 85 -49.5t32 -94.5q0 -92 -82.5 -149.5t-213.5 -55.5
q-54 0 -102.5 12t-90 35.5t-66.5 64.5t-26 94q-1 13 1 23h197q-1 -3 -1 -8q1 -29 25.5 -45.5t59.5 -16.5q40 0 62 20t22 50q0 56 -76 60h-73z" />
    <glyph glyph-name="acute" unicode="&#xb4;" horiz-adv-x="1000" 
d="M690 1213h-241l251 329h295z" />
    <glyph glyph-name="paragraph" unicode="&#xb6;" horiz-adv-x="1455" 
d="M838 -210h-305l106 604l-16 1q-69 4 -139 38t-129 90.5t-96.5 141t-37.5 180.5q0 50 10 91q26 191 177 310t383 119h324zM1003 -210l277 1575h305l-277 -1575h-305z" />
    <glyph glyph-name="periodcentered" unicode="&#xb7;" horiz-adv-x="589" 
d="M226 779q0 92 60 147.5t149 55.5q82 0 136 -50t54 -132q0 -91 -60.5 -145.5t-149.5 -54.5q-82 0 -135.5 48.5t-53.5 130.5z" />
    <glyph glyph-name="cedilla" unicode="&#xb8;" horiz-adv-x="1000" 
d="M359 -160l38 166h181l-28 -113q71 -1 114 -40.5t43 -107.5q0 -14 -3 -29q-12 -97 -85.5 -146t-195.5 -49q-96 0 -151 20l24 133q48 -15 117 -15q96 0 101 50q1 3 1 9q0 26 -26.5 37.5t-85.5 11.5h-55z" />
    <glyph glyph-name="onesuperior" unicode="&#xb9;" horiz-adv-x="819" 
d="M697 688h-218l86 488h-10l-172 -95l31 182l184 102h218z" />
    <glyph glyph-name="ordmasculine" unicode="&#xba;" horiz-adv-x="748" 
d="M561 1336q84 0 154 -30.5t114.5 -97t39.5 -158.5q0 -25 -6 -55l-5 -34q-22 -125 -102 -191.5t-204 -66.5q-86 0 -156.5 29t-116 95.5t-40.5 161.5q0 20 7 60l6 33q20 116 102.5 185t206.5 69zM569 1182q-86 0 -108 -122l-8 -42q-5 -25 -5 -43q-5 -51 19 -84.5t72 -33.5
q85 0 109 124l8 41q5 28 5 43q5 51 -20 84t-72 33z" />
    <glyph glyph-name="guillemotright" unicode="&#xbb;" horiz-adv-x="1340" 
d="M818 558l-409 -403h-293l413 421l1 6l-264 387h283l270 -403zM1332 558l-409 -403h-293l413 421l1 6l-264 387h283l271 -403z" />
    <glyph glyph-name="onequarter" unicode="&#xbc;" horiz-adv-x="1659" 
d="M1346 677h313l-73 -414h80l-26 -158h-80l-19 -105h-206l18 105h-344l27 161q34 50 79 111t68 91t88.5 113.5t74.5 95.5zM1226 247h168l52 286h-12q-145 -189 -207 -283zM517 688h-218l86 488h-10l-172 -95l31 182l184 102h218zM445 0h-235l582 682l581 683h234l-581 -683
z" />
    <glyph glyph-name="onehalf" unicode="&#xbd;" horiz-adv-x="1659" 
d="M1329 459h-202q2 96 74.5 162.5t211.5 66.5q109 0 187.5 -53.5t78.5 -149.5q0 -68 -36.5 -115.5t-112.5 -98.5q-10 -6 -68.5 -49t-76.5 -54l-1 -6h266l-29 -162h-554l24 131l271 218q3 2 20.5 16.5t27 23.5t23 23.5t20 28.5t6.5 28q0 25 -16.5 40.5t-44.5 15.5
q-27 0 -45.5 -18t-23.5 -48zM513 688h-218l86 488h-10l-172 -95l31 182l184 102h218zM412 0h-235l582 682l581 683h234l-581 -683z" />
    <glyph glyph-name="threequarters" unicode="&#xbe;" horiz-adv-x="1618" 
d="M1357 677h313l-73 -414h80l-26 -158h-80l-19 -105h-206l18 105h-344l27 161q34 50 79 111t68 91t88.5 113.5t74.5 95.5zM1237 247h168l52 286h-12q-145 -189 -207 -283zM350 973l20 136q68 -1 72 -1q38 0 63.5 17.5t25.5 45.5q0 25 -20 39.5t-51 14.5t-50.5 -14.5
t-23.5 -36.5h-199q6 89 79 145.5t195 56.5q70 0 131.5 -18t105 -61t43.5 -104q0 -63 -42 -105t-103 -48l-2 -8q52 -13 83.5 -49t31.5 -93q0 -91 -81.5 -147.5t-210.5 -54.5q-73 1 -133 20t-103 66.5t-44 116.5q-1 13 1 23h194q-1 -3 -1 -8q1 -28 24.5 -44.5t58.5 -16.5
q40 0 61.5 19.5t21.5 49.5q0 55 -75 59h-72zM451 0h-235l582 682l581 683h234l-581 -683z" />
    <glyph glyph-name="questiondown" unicode="&#xbf;" horiz-adv-x="1111" 
d="M943 948q0 -78 -55.5 -125t-148.5 -47q-91 0 -144 44.5t-53 119.5q0 77 55.5 123.5t150.5 46.5q89 0 142 -44.5t53 -117.5zM1081 112q-8 -180 -137 -300t-359 -120q-130 0 -235.5 39.5t-171 122.5t-65.5 197q0 61 18.5 112.5t53 91t71 68t85.5 55.5q14 8 46 25t46.5 25.5
t39.5 25t37.5 30.5t27.5 33.5t21.5 43t7.5 51.5l4 35h290l-5 -43q-3 -67 -22 -121.5t-54 -96t-74 -71.5t-94 -61q-5 -3 -26 -14.5t-27.5 -15.5t-25 -15t-25.5 -17.5t-21 -18t-19.5 -21t-13 -22.5t-10.5 -26.5t-3 -28.5q0 -61 47.5 -94.5t114.5 -33.5q79 0 126 46t55 119h297
z" />
    <glyph glyph-name="Agrave" unicode="&#xc0;" horiz-adv-x="1314" 
d="M2 0l673 1365h415l198 -1365h-361l-31 309h-412l-140 -309h-342zM835 1064h-18l-228 -511h291zM1077 1495h-292l-332 220h337z" />
    <glyph glyph-name="Aacute" unicode="&#xc1;" horiz-adv-x="1314" 
d="M2 0l673 1365h415l198 -1365h-361l-31 309h-412l-140 -309h-342zM835 1064h-18l-228 -511h291zM721 1495l293 231h340l-339 -231h-294z" />
    <glyph glyph-name="Acircumflex" unicode="&#xc2;" horiz-adv-x="1314" 
d="M2 0l673 1365h415l198 -1365h-361l-31 309h-412l-140 -309h-342zM835 1064h-18l-228 -511h291zM532 1478l284 247h258l215 -247h-242l-105 122h-19l-140 -122h-251z" />
    <glyph glyph-name="Atilde" unicode="&#xc3;" horiz-adv-x="1314" 
d="M2 0l673 1365h415l198 -1365h-361l-31 309h-412l-140 -309h-342zM835 1064h-18l-228 -511h291zM890 1507q-4 4 -14.5 14t-16.5 15t-15.5 12t-20 10t-21.5 3q-65 0 -71 -86h-165q0 94 54.5 166t151.5 72q56 0 91 -15.5t74 -49.5q7 -6 18 -16t17.5 -15t15.5 -11.5t18 -9
t19 -2.5q34 0 50.5 30.5t17.5 72.5h166q0 -103 -61 -174.5t-153 -71.5q-61 0 -93.5 14.5t-61.5 41.5z" />
    <glyph glyph-name="Adieresis" unicode="&#xc4;" horiz-adv-x="1314" 
d="M2 0l673 1365h415l198 -1365h-361l-31 309h-412l-140 -309h-342zM835 1064h-18l-228 -511h291zM594 1577q0 61 34.5 95t95.5 34q62 0 99 -34t37 -95q0 -56 -37 -88.5t-99 -32.5q-61 0 -95.5 32.5t-34.5 88.5zM995 1577q0 61 36.5 95t97.5 34q62 0 97 -34t35 -95
q0 -56 -35 -88.5t-97 -32.5q-61 0 -97.5 32.5t-36.5 88.5z" />
    <glyph glyph-name="Aring" unicode="&#xc5;" horiz-adv-x="1314" 
d="M806 1417q13 -36 46 -49t68 1q34 13 48 44t1 67q-13 35 -46 49t-69 0q-35 -14 -48 -44.5t0 -67.5zM847 1064h-18l-228 -511h291zM496 309l-140 -309h-342l630 1281q-59 73 -59 170q0 127 87 211.5t215 84.5q127 0 214 -83t87 -210q0 -107 -73 -190l185 -1264h-361
l-31 309h-412z" />
    <glyph glyph-name="AE" unicode="&#xc6;" horiz-adv-x="1901" 
d="M1052 1075l-336 -528l275 1l95 527h-34zM894 0l52 292h-378l-195 -292h-378l885 1365h1163l-47 -266h-584l-51 -287h549l-43 -246h-549l-53 -299h585l-47 -267h-909z" />
    <glyph glyph-name="Ccedilla" unicode="&#xc7;" horiz-adv-x="1325" 
d="M652 -479q-96 0 -151 20l24 133q48 -15 117 -15q96 0 101 50q1 3 1 9q0 26 -26.5 37.5t-85.5 11.5h-55l11 73l32 147q-199 34 -311 174t-112 376q0 65 9 121l33 182q45 259 205 404t414 145q103 0 192 -25t152.5 -68t109 -100t68 -122t22.5 -133q0 -63 -12 -99h-319
q4 25 4 61q-3 85 -61 145t-158 60q-220 0 -279 -315l-26 -134q-11 -60 -11 -128q0 -124 64 -196t175 -72q98 0 157.5 52.5t75.5 137.5h315q-4 -16 -4 -30q-10 -86 -47 -161.5t-100 -137.5t-160 -101t-217 -45l-20 -85q71 -1 114 -40.5t43 -107.5q0 -14 -3 -29
q-12 -97 -85.5 -146t-195.5 -49z" />
    <glyph glyph-name="Egrave" unicode="&#xc8;" horiz-adv-x="1168" 
d="M1020 1495h-292l-332 220h337zM1105 272l-47 -272h-918l240 1365h917l-48 -272h-579l-52 -282h547l-42 -246h-547l-53 -293h582z" />
    <glyph glyph-name="Eacute" unicode="&#xc9;" horiz-adv-x="1168" 
d="M664 1495l293 231h340l-339 -231h-294zM1105 272l-47 -272h-918l240 1365h917l-48 -272h-579l-52 -282h547l-42 -246h-547l-53 -293h582z" />
    <glyph glyph-name="Ecircumflex" unicode="&#xca;" horiz-adv-x="1168" 
d="M475 1478l284 247h258l215 -247h-242l-105 122h-19l-140 -122h-251zM1105 272l-47 -272h-918l240 1365h917l-48 -272h-579l-52 -282h547l-42 -246h-547l-53 -293h582z" />
    <glyph glyph-name="Edieresis" unicode="&#xcb;" horiz-adv-x="1168" 
d="M537 1577q0 61 34.5 95t95.5 34q62 0 99 -34t37 -95q0 -56 -37 -88.5t-99 -32.5q-61 0 -95.5 32.5t-34.5 88.5zM938 1577q0 61 36.5 95t97.5 34q62 0 97 -34t35 -95q0 -56 -35 -88.5t-97 -32.5q-61 0 -97.5 32.5t-36.5 88.5zM1105 272l-47 -272h-918l240 1365h917
l-48 -272h-579l-52 -282h547l-42 -246h-547l-53 -293h582z" />
    <glyph glyph-name="Igrave" unicode="&#xcc;" horiz-adv-x="617" 
d="M466 0h-336l240 1365h337zM739 1495h-292l-332 220h337z" />
    <glyph glyph-name="Iacute" unicode="&#xcd;" horiz-adv-x="617" 
d="M466 0h-336l240 1365h337zM383 1495l293 231h340l-339 -231h-294z" />
    <glyph glyph-name="Icircumflex" unicode="&#xce;" horiz-adv-x="617" 
d="M466 0h-336l240 1365h337zM194 1478l284 247h258l215 -247h-242l-105 122h-19l-140 -122h-251z" />
    <glyph glyph-name="Idieresis" unicode="&#xcf;" horiz-adv-x="617" 
d="M466 0h-336l240 1365h337zM256 1577q0 61 34.5 95t95.5 34q62 0 99 -34t37 -95q0 -56 -37 -88.5t-99 -32.5q-61 0 -95.5 32.5t-34.5 88.5zM657 1577q0 61 36.5 95t97.5 34q62 0 97 -34t35 -95q0 -56 -35 -88.5t-97 -32.5q-61 0 -97.5 32.5t-36.5 88.5z" />
    <glyph glyph-name="Eth" unicode="&#xd0;" horiz-adv-x="1493" 
d="M503 1365h513q251 0 390.5 -149t139.5 -394q0 -71 -8 -127q-7 -65 -23 -137q-57 -260 -250 -409t-490 -149h-512l96 543h-173l51 292h172zM793 1093l-46 -258h198l-51 -292h-199l-49 -271h98q163 0 276.5 78.5t151.5 242.5q14 53 22 121q5 36 5 94q0 147 -81.5 216
t-214.5 69h-110z" />
    <glyph glyph-name="Ntilde" unicode="&#xd1;" horiz-adv-x="1434" 
d="M972 1507q-4 4 -14.5 14t-16.5 15t-15.5 12t-20 10t-21.5 3q-65 0 -71 -86h-165q0 94 54.5 166t151.5 72q56 0 91 -15.5t74 -49.5q7 -6 18 -16t17.5 -15t15.5 -11.5t18 -9t19 -2.5q34 0 50.5 30.5t17.5 72.5h166q0 -103 -61 -174.5t-153 -71.5q-61 0 -93.5 14.5
t-61.5 41.5zM1283 0h-264l-398 808h-14l-141 -808h-316l240 1365h268l394 -801h14l141 801h316z" />
    <glyph glyph-name="Ograve" unicode="&#xd2;" horiz-adv-x="1394" 
d="M1122 1495h-292l-332 220h337zM572 799l-27 -146q-11 -69 -11 -127q0 -122 64 -195.5t182 -73.5q108 0 180.5 79.5t101.5 241.5l27 151q10 60 10 119q0 120 -64.5 193.5t-180.5 73.5q-106 0 -179 -77t-103 -239zM205 663l35 193q45 254 210.5 393.5t417.5 139.5
q256 0 412.5 -143t156.5 -389q0 -93 -11 -154l-36 -193q-48 -256 -209.5 -395t-424.5 -139q-249 0 -405.5 141t-156.5 383q0 99 11 163z" />
    <glyph glyph-name="Oacute" unicode="&#xd3;" horiz-adv-x="1394" 
d="M766 1495l293 231h340l-339 -231h-294zM572 799l-27 -146q-11 -69 -11 -127q0 -122 64 -195.5t182 -73.5q108 0 180.5 79.5t101.5 241.5l27 151q10 60 10 119q0 120 -64.5 193.5t-180.5 73.5q-106 0 -179 -77t-103 -239zM205 663l35 193q45 254 210.5 393.5t417.5 139.5
q256 0 412.5 -143t156.5 -389q0 -93 -11 -154l-36 -193q-48 -256 -209.5 -395t-424.5 -139q-249 0 -405.5 141t-156.5 383q0 99 11 163z" />
    <glyph glyph-name="Ocircumflex" unicode="&#xd4;" horiz-adv-x="1394" 
d="M577 1478l284 247h258l215 -247h-242l-105 122h-19l-140 -122h-251zM572 799l-27 -146q-11 -69 -11 -127q0 -122 64 -195.5t182 -73.5q108 0 180.5 79.5t101.5 241.5l27 151q10 60 10 119q0 120 -64.5 193.5t-180.5 73.5q-106 0 -179 -77t-103 -239zM205 663l35 193
q45 254 210.5 393.5t417.5 139.5q256 0 412.5 -143t156.5 -389q0 -93 -11 -154l-36 -193q-48 -256 -209.5 -395t-424.5 -139q-249 0 -405.5 141t-156.5 383q0 99 11 163z" />
    <glyph glyph-name="Otilde" unicode="&#xd5;" horiz-adv-x="1394" 
d="M572 799l-27 -146q-11 -69 -11 -127q0 -122 64 -195.5t182 -73.5q108 0 180.5 79.5t101.5 241.5l27 151q10 60 10 119q0 120 -64.5 193.5t-180.5 73.5q-106 0 -179 -77t-103 -239zM205 663l35 193q45 254 210.5 393.5t417.5 139.5q256 0 412.5 -143t156.5 -389
q0 -93 -11 -154l-36 -193q-48 -256 -209.5 -395t-424.5 -139q-249 0 -405.5 141t-156.5 383q0 99 11 163zM935 1507q-4 4 -14.5 14t-16.5 15t-15.5 12t-20 10t-21.5 3q-65 0 -71 -86h-165q0 94 54.5 166t151.5 72q56 0 91 -15.5t74 -49.5q7 -6 18 -16t17.5 -15t15.5 -11.5
t18 -9t19 -2.5q34 0 50.5 30.5t17.5 72.5h166q0 -103 -61 -174.5t-153 -71.5q-61 0 -93.5 14.5t-61.5 41.5z" />
    <glyph glyph-name="Odieresis" unicode="&#xd6;" horiz-adv-x="1394" 
d="M639 1577q0 61 34.5 95t95.5 34q62 0 99 -34t37 -95q0 -56 -37 -88.5t-99 -32.5q-61 0 -95.5 32.5t-34.5 88.5zM1040 1577q0 61 36.5 95t97.5 34q62 0 97 -34t35 -95q0 -56 -35 -88.5t-97 -32.5q-61 0 -97.5 32.5t-36.5 88.5zM572 799l-27 -146q-11 -69 -11 -127
q0 -122 64 -195.5t182 -73.5q108 0 180.5 79.5t101.5 241.5l27 151q10 60 10 119q0 120 -64.5 193.5t-180.5 73.5q-106 0 -179 -77t-103 -239zM205 663l35 193q45 254 210.5 393.5t417.5 139.5q256 0 412.5 -143t156.5 -389q0 -93 -11 -154l-36 -193q-48 -256 -209.5 -395
t-424.5 -139q-249 0 -405.5 141t-156.5 383q0 99 11 163z" />
    <glyph glyph-name="multiply" unicode="&#xd7;" horiz-adv-x="1220" 
d="M1252 807l-346 -273l243 -317l-227 -180l-244 317l-343 -273l-167 224l343 274l-241 315l228 179l241 -315l346 273z" />
    <glyph glyph-name="Oslash" unicode="&#xd8;" horiz-adv-x="1394" 
d="M207 663l34 193q46 254 211 393.5t417 139.5q257 0 411 -146l119 116l122 -110l-140 -136q58 -113 58 -256q0 -88 -12 -154l-35 -193q-48 -256 -210 -395t-424 -139q-251 0 -400 141l-129 -127l-117 117l142 139q-58 110 -58 254q0 106 11 163zM1093 770v55l-506 -481
q63 -87 194 -87q108 0 180.5 79.5t101.5 241.5l20 108q10 47 10 84zM1054 1018q-65 97 -199 97q-106 0 -179 -77t-103 -239l-26 -146q-10 -47 -11 -90q0 -19 4 -32z" />
    <glyph glyph-name="Ugrave" unicode="&#xd9;" horiz-adv-x="1406" 
d="M1127 1495h-292l-332 220h337zM701 1365l-143 -815q-7 -35 -7 -75q0 -95 60 -151.5t164 -56.5q198 0 239 228l154 870h339l-166 -951q-37 -209 -194.5 -322.5t-391.5 -113.5q-112 0 -209.5 28.5t-173.5 83t-120 142t-44 197.5q0 45 10 111l144 825h339z" />
    <glyph glyph-name="Uacute" unicode="&#xda;" horiz-adv-x="1406" 
d="M771 1495l293 231h340l-339 -231h-294zM701 1365l-143 -815q-7 -35 -7 -75q0 -95 60 -151.5t164 -56.5q198 0 239 228l154 870h339l-166 -951q-37 -209 -194.5 -322.5t-391.5 -113.5q-112 0 -209.5 28.5t-173.5 83t-120 142t-44 197.5q0 45 10 111l144 825h339z" />
    <glyph glyph-name="Ucircumflex" unicode="&#xdb;" horiz-adv-x="1406" 
d="M582 1478l284 247h258l215 -247h-242l-105 122h-19l-140 -122h-251zM701 1365l-143 -815q-7 -35 -7 -75q0 -95 60 -151.5t164 -56.5q198 0 239 228l154 870h339l-166 -951q-37 -209 -194.5 -322.5t-391.5 -113.5q-112 0 -209.5 28.5t-173.5 83t-120 142t-44 197.5
q0 45 10 111l144 825h339z" />
    <glyph glyph-name="Udieresis" unicode="&#xdc;" horiz-adv-x="1406" 
d="M644 1577q0 61 34.5 95t95.5 34q62 0 99 -34t37 -95q0 -56 -37 -88.5t-99 -32.5q-61 0 -95.5 32.5t-34.5 88.5zM1045 1577q0 61 36.5 95t97.5 34q62 0 97 -34t35 -95q0 -56 -35 -88.5t-97 -32.5q-61 0 -97.5 32.5t-36.5 88.5zM701 1365l-143 -815q-7 -35 -7 -75
q0 -95 60 -151.5t164 -56.5q198 0 239 228l154 870h339l-166 -951q-37 -209 -194.5 -322.5t-391.5 -113.5q-112 0 -209.5 28.5t-173.5 83t-120 142t-44 197.5q0 45 10 111l144 825h339z" />
    <glyph glyph-name="Yacute" unicode="&#xdd;" horiz-adv-x="1206" 
d="M844 476l-83 -476h-337l83 467l-306 898h361l160 -569h14l361 569h361zM676 1495l293 231h340l-339 -231h-294z" />
    <glyph glyph-name="Thorn" unicode="&#xde;" horiz-adv-x="1252" 
d="M380 1364h335l-37 -209h186q211 0 328.5 -106t117.5 -295q0 -61 -11 -112q-34 -190 -177.5 -302t-386.5 -112h-219l-41 -228h-336zM778 898h-146l-73 -417h154q106 0 168 48t80 131q9 34 9 64q0 89 -53.5 131.5t-138.5 42.5z" />
    <glyph glyph-name="germandbls" unicode="&#xdf;" horiz-adv-x="1371" 
d="M463 0h-328l197 1114q28 160 161 250.5t337 90.5q232 0 373 -112t141 -289q0 -74 -26.5 -137.5t-68 -104t-89 -65t-93.5 -29.5l-3 -15q122 -26 200 -111.5t78 -231.5q0 -92 -35.5 -167.5t-96.5 -124t-140.5 -74.5t-168.5 -26q-82 0 -164.5 19t-117.5 41l44 242
q26 -15 74 -27t94 -12q88 0 141.5 46.5t53.5 123.5q0 88 -65.5 138t-154.5 52l-72 2l42 253h54q85 0 144 50t59 133q0 76 -54 120t-144 44q-85 0 -130 -42t-60 -123z" />
    <glyph glyph-name="agrave" unicode="&#xe0;" horiz-adv-x="1136" 
d="M440 -16q-138 0 -227.5 81.5t-89.5 222.5q0 9 1 15q4 159 123.5 242t314.5 83h241l13 75q3 24 3 31q0 50 -37 83.5t-103 33.5q-56 0 -92.5 -25t-46.5 -67h-306q8 64 40 121t87 105t142 76t196 28q201 0 317.5 -95t116.5 -268q0 -39 -10 -96l-111 -630h-305l25 135h-17
q-31 -63 -101.5 -107t-173.5 -44zM448 331q0 -52 36.5 -85t94.5 -33q62 0 111.5 36.5t61.5 94.5l20 110h-164q-76 0 -118 -34.5t-42 -88.5zM925 1215h-237l-246 324h291z" />
    <glyph glyph-name="aacute" unicode="&#xe1;" horiz-adv-x="1136" 
d="M440 -16q-138 0 -227.5 81.5t-89.5 222.5q0 9 1 15q4 159 123.5 242t314.5 83h241l13 75q3 24 3 31q0 50 -37 83.5t-103 33.5q-56 0 -92.5 -25t-46.5 -67h-306q8 64 40 121t87 105t142 76t196 28q201 0 317.5 -95t116.5 -268q0 -39 -10 -96l-111 -630h-305l25 135h-17
q-31 -63 -101.5 -107t-173.5 -44zM448 331q0 -52 36.5 -85t94.5 -33q62 0 111.5 36.5t61.5 94.5l20 110h-164q-76 0 -118 -34.5t-42 -88.5zM839 1215h-241l251 329h295z" />
    <glyph glyph-name="acircumflex" unicode="&#xe2;" horiz-adv-x="1136" 
d="M440 -16q-138 0 -227.5 81.5t-89.5 222.5q0 9 1 15q4 159 123.5 242t314.5 83h241l13 75q3 24 3 31q0 50 -37 83.5t-103 33.5q-56 0 -92.5 -25t-46.5 -67h-306q8 64 40 121t87 105t142 76t196 28q201 0 317.5 -95t116.5 -268q0 -39 -10 -96l-111 -630h-305l25 135h-17
q-31 -63 -101.5 -107t-173.5 -44zM448 331q0 -52 36.5 -85t94.5 -33q62 0 111.5 36.5t61.5 94.5l20 110h-164q-76 0 -118 -34.5t-42 -88.5zM407 1226l312 342h236l184 -342h-237l-84 195h-17l-163 -195h-231z" />
    <glyph glyph-name="atilde" unicode="&#xe3;" horiz-adv-x="1136" 
d="M440 -16q-138 0 -227.5 81.5t-89.5 222.5q0 9 1 15q4 159 123.5 242t314.5 83h241l13 75q3 24 3 31q0 50 -37 83.5t-103 33.5q-56 0 -92.5 -25t-46.5 -67h-306q8 64 40 121t87 105t142 76t196 28q201 0 317.5 -95t116.5 -268q0 -39 -10 -96l-111 -630h-305l25 135h-17
q-31 -63 -101.5 -107t-173.5 -44zM448 331q0 -52 36.5 -85t94.5 -33q62 0 111.5 36.5t61.5 94.5l20 110h-164q-76 0 -118 -34.5t-42 -88.5zM885 1142q-46 0 -77.5 18t-62.5 51q-5 5 -19.5 21t-21.5 22.5t-21 13t-29 6.5q-54 0 -68 -85h-156q4 114 61 191.5t154 77.5
q34 0 64.5 -13.5t47.5 -27.5t42 -40q4 -4 12 -14t12 -14l11 -11t12 -10.5t12 -7.5t14 -5.5t15 -1.5q57 0 69 97h156q-6 -115 -68 -191.5t-159 -76.5z" />
    <glyph glyph-name="adieresis" unicode="&#xe4;" horiz-adv-x="1136" 
d="M440 -16q-138 0 -227.5 81.5t-89.5 222.5q0 9 1 15q4 159 123.5 242t314.5 83h241l13 75q3 24 3 31q0 50 -37 83.5t-103 33.5q-56 0 -92.5 -25t-46.5 -67h-306q8 64 40 121t87 105t142 76t196 28q201 0 317.5 -95t116.5 -268q0 -39 -10 -96l-111 -630h-305l25 135h-17
q-31 -63 -101.5 -107t-173.5 -44zM448 331q0 -52 36.5 -85t94.5 -33q62 0 111.5 36.5t61.5 94.5l20 110h-164q-76 0 -118 -34.5t-42 -88.5zM453 1315q0 58 35.5 92t95.5 34q61 0 96.5 -34t35.5 -92q0 -56 -35.5 -89.5t-96.5 -33.5q-60 0 -95.5 34t-35.5 89zM856 1315
q0 58 35 92t95 34q61 0 97 -34t36 -92q0 -55 -35.5 -89t-97.5 -34q-59 0 -94.5 34t-35.5 89z" />
    <glyph glyph-name="aring" unicode="&#xe5;" horiz-adv-x="1136" 
d="M440 -16q-138 0 -227.5 81.5t-89.5 222.5q0 9 1 15q4 159 123.5 242t314.5 83h241l13 75q3 24 3 31q0 50 -37 83.5t-103 33.5q-56 0 -92.5 -25t-46.5 -67h-306q8 64 40 121t87 105t142 76t196 28q201 0 317.5 -95t116.5 -268q0 -39 -10 -96l-111 -630h-305l25 135h-17
q-31 -63 -101.5 -107t-173.5 -44zM448 331q0 -52 36.5 -85t94.5 -33q62 0 111.5 36.5t61.5 94.5l20 110h-164q-76 0 -118 -34.5t-42 -88.5zM803 1324q38 0 64.5 25.5t26.5 62.5q0 38 -26.5 63t-64.5 25t-64.5 -25.5t-26.5 -62.5t26.5 -62.5t64.5 -25.5zM799 1186
q-98 0 -162 65.5t-64 159.5q0 97 69 161.5t165 64.5t160.5 -65.5t64.5 -159.5q0 -97 -68.5 -161.5t-164.5 -64.5z" />
    <glyph glyph-name="ae" unicode="&#xe6;" horiz-adv-x="1789" 
d="M1289 -22q-131 0 -229 53.5t-143 147.5h-15q-127 -197 -393 -197q-169 0 -275 81.5t-106 235.5q0 163 119.5 246t322.5 83h238l13 77q3 21 3 30q0 49 -37.5 82.5t-102.5 33.5q-56 0 -92.5 -25t-46.5 -67h-306q7 62 39.5 119.5t87.5 105t139 76.5t184 29q220 0 319 -138
h15q53 63 141 100.5t195 37.5q200 0 319 -128t111 -336q0 -56 -24 -158h-655q-9 -50 -9 -75q0 -78 43.5 -125t127.5 -47q64 0 109.5 27.5t57.5 78.5h304q-16 -145 -141.5 -246.5t-312.5 -101.5zM453 326q0 -50 34.5 -81.5t95.5 -31.5q69 0 117 41.5t61 111.5l16 88h-164
q-77 0 -118.5 -36t-41.5 -92zM1492 645q3 15 3 32q8 75 -34 125.5t-121 50.5q-73 0 -125.5 -45.5t-66.5 -122.5q-2 -8 -4 -18t-3 -16l-1 -6h352z" />
    <glyph glyph-name="ccedilla" unicode="&#xe7;" horiz-adv-x="1108" 
d="M519 -479q-96 0 -151 20l24 133q48 -15 117 -15q96 0 101 50v9q0 26 -26 37.5t-85 11.5h-56l11 73l35 152q-156 34 -243 142.5t-87 273.5q0 70 12 140l20 112q19 109 67 193t117.5 134.5t152.5 76t177 25.5q126 0 228.5 -42.5t166 -130t63.5 -206.5q0 -27 -4 -40h-302
q1 5 1 16q0 58 -41.5 102.5t-114.5 44.5q-74 0 -127 -53t-71 -153l-17 -105q-8 -49 -8 -91q0 -193 170 -193q133 0 158 107h306q-22 -168 -142.5 -261.5t-297.5 -103.5h-6l-21 -87q71 -1 114 -40.5t43 -107.5q0 -14 -3 -29q-12 -97 -86 -146t-195 -49z" />
    <glyph glyph-name="egrave" unicode="&#xe8;" horiz-adv-x="1142" 
d="M936 1215h-237l-246 324h291zM620 -22q-101 0 -185.5 27t-149 80t-100.5 137.5t-36 192.5q0 54 14 140l16 90q25 146 103 248t185.5 149t238.5 47q210 0 335 -128t117 -337q0 -48 -24 -157h-661q-8 -35 -8 -80q0 -74 44 -120.5t132 -46.5q67 0 111 27.5t56 78.5h304
q-16 -145 -150.5 -246.5t-341.5 -101.5zM847 645q4 20 4 33q8 75 -31.5 125t-119.5 50q-70 0 -119 -43.5t-68 -125.5l-9 -39h343z" />
    <glyph glyph-name="eacute" unicode="&#xe9;" horiz-adv-x="1142" 
d="M850 1215h-241l251 329h295zM620 -22q-101 0 -185.5 27t-149 80t-100.5 137.5t-36 192.5q0 54 14 140l16 90q25 146 103 248t185.5 149t238.5 47q210 0 335 -128t117 -337q0 -48 -24 -157h-661q-8 -35 -8 -80q0 -74 44 -120.5t132 -46.5q67 0 111 27.5t56 78.5h304
q-16 -145 -150.5 -246.5t-341.5 -101.5zM847 645q4 20 4 33q8 75 -31.5 125t-119.5 50q-70 0 -119 -43.5t-68 -125.5l-9 -39h343z" />
    <glyph glyph-name="ecircumflex" unicode="&#xea;" horiz-adv-x="1142" 
d="M418 1226l312 342h236l184 -342h-237l-84 195h-17l-163 -195h-231zM620 -22q-101 0 -185.5 27t-149 80t-100.5 137.5t-36 192.5q0 54 14 140l16 90q25 146 103 248t185.5 149t238.5 47q210 0 335 -128t117 -337q0 -48 -24 -157h-661q-8 -35 -8 -80q0 -74 44 -120.5
t132 -46.5q67 0 111 27.5t56 78.5h304q-16 -145 -150.5 -246.5t-341.5 -101.5zM847 645q4 20 4 33q8 75 -31.5 125t-119.5 50q-70 0 -119 -43.5t-68 -125.5l-9 -39h343z" />
    <glyph glyph-name="edieresis" unicode="&#xeb;" horiz-adv-x="1142" 
d="M620 -22q-101 0 -185.5 27t-149 80t-100.5 137.5t-36 192.5q0 54 14 140l16 90q25 146 103 248t185.5 149t238.5 47q210 0 335 -128t117 -337q0 -48 -24 -157h-661q-8 -35 -8 -80q0 -74 44 -120.5t132 -46.5q67 0 111 27.5t56 78.5h304q-16 -145 -150.5 -246.5
t-341.5 -101.5zM847 645q4 20 4 33q8 75 -31.5 125t-119.5 50q-70 0 -119 -43.5t-68 -125.5l-9 -39h343zM464 1315q0 58 35.5 92t95.5 34q61 0 96.5 -34t35.5 -92q0 -56 -35.5 -89.5t-96.5 -33.5q-60 0 -95.5 34t-35.5 89zM867 1315q0 58 35 92t95 34q61 0 97 -34t36 -92
q0 -55 -35.5 -89t-97.5 -34q-59 0 -94.5 34t-35.5 89z" />
    <glyph glyph-name="igrave" unicode="&#xec;" horiz-adv-x="635" 
d="M682 1215h-237l-246 324h291zM139 0l189 1069h327l-190 -1069h-326z" />
    <glyph glyph-name="iacute" unicode="&#xed;" horiz-adv-x="635" 
d="M595 1215h-241l251 329h295zM139 0l189 1069h327l-190 -1069h-326z" />
    <glyph glyph-name="icircumflex" unicode="&#xee;" horiz-adv-x="635" 
d="M163 1226l312 342h236l184 -342h-237l-84 195h-17l-163 -195h-231zM139 0l189 1069h327l-190 -1069h-326z" />
    <glyph glyph-name="idieresis" unicode="&#xef;" horiz-adv-x="635" 
d="M139 0l189 1069h327l-190 -1069h-326zM209 1315q0 58 35.5 92t95.5 34q61 0 96.5 -34t35.5 -92q0 -56 -35.5 -89.5t-96.5 -33.5q-60 0 -95.5 34t-35.5 89zM612 1315q0 58 35 92t95 34q61 0 97 -34t36 -92q0 -55 -35.5 -89t-97.5 -34q-59 0 -94.5 34t-35.5 89z" />
    <glyph glyph-name="eth" unicode="&#xf0;" horiz-adv-x="1223" 
d="M1172 433q-13 -65 -34 -122t-62 -119.5t-95.5 -106.5t-140 -73t-190.5 -29q-232 0 -361 126.5t-129 325.5q0 61 13 132q3 17 10 45.5t12 50t5 23.5q39 167 158.5 263t279.5 96q86 0 150.5 -28.5t99.5 -69.5l9 -1q-7 56 -14 77q-21 106 -82 187l-290 -94l-34 147l225 72
q-94 111 -189 189l345 29q57 -38 128 -116l248 81l38 -146l-179 -55q79 -115 114 -271.5t10 -335.5q0 -34 -17 -125zM712 824q-86 0 -138 -63.5t-68 -165.5l-13 -83q-7 -46 -7 -85q0 -85 43 -140t124 -55q84 0 135 62t68 167l13 87q8 52 8 89q0 85 -43.5 136t-121.5 51z" />
    <glyph glyph-name="ntilde" unicode="&#xf1;" horiz-adv-x="1239" 
d="M948 1142q-46 0 -77.5 18t-62.5 51q-5 5 -19.5 21t-21.5 22.5t-21 13t-29 6.5q-54 0 -68 -85h-156q4 114 61 191.5t154 77.5q34 0 64.5 -13.5t47.5 -27.5t42 -40q4 -4 12 -14t12 -14l11 -11t12 -10.5t12 -7.5t14 -5.5t15 -1.5q57 0 69 97h156q-6 -115 -68 -191.5
t-159 -76.5zM117 0l188 1069h321l-29 -161h17q40 79 115 128t188 49q150 0 235.5 -89.5t85.5 -232.5q0 -75 -23 -201l-100 -562h-327l100 577q9 54 9 102q0 72 -38.5 112.5t-100.5 40.5q-166 0 -207 -231l-106 -601h-328z" />
    <glyph glyph-name="ograve" unicode="&#xf2;" horiz-adv-x="1192" 
d="M960 1215h-237l-246 324h291zM505 613l-16 -98q-8 -54 -8 -89q0 -85 44 -139.5t126 -54.5q83 0 133.5 63t67.5 168l16 102q6 50 6 88q0 82 -43.5 134.5t-123.5 52.5q-83 0 -134.5 -61t-67.5 -166zM158 575l16 86q36 192 177 310t354 118q144 0 256.5 -51t180 -157
t67.5 -253q0 -73 -10 -129l-18 -86q-40 -195 -178 -312t-358 -117q-105 0 -194.5 29.5t-157.5 85t-107 143t-39 196.5q0 82 11 137z" />
    <glyph glyph-name="oacute" unicode="&#xf3;" horiz-adv-x="1192" 
d="M873 1215h-241l251 329h295zM505 613l-16 -98q-8 -54 -8 -89q0 -85 44 -139.5t126 -54.5q83 0 133.5 63t67.5 168l16 102q6 50 6 88q0 82 -43.5 134.5t-123.5 52.5q-83 0 -134.5 -61t-67.5 -166zM158 575l16 86q36 192 177 310t354 118q144 0 256.5 -51t180 -157
t67.5 -253q0 -73 -10 -129l-18 -86q-40 -195 -178 -312t-358 -117q-105 0 -194.5 29.5t-157.5 85t-107 143t-39 196.5q0 82 11 137z" />
    <glyph glyph-name="ocircumflex" unicode="&#xf4;" horiz-adv-x="1192" 
d="M441 1226l312 342h236l184 -342h-237l-84 195h-17l-163 -195h-231zM505 613l-16 -98q-8 -54 -8 -89q0 -85 44 -139.5t126 -54.5q83 0 133.5 63t67.5 168l16 102q6 50 6 88q0 82 -43.5 134.5t-123.5 52.5q-83 0 -134.5 -61t-67.5 -166zM158 575l16 86q36 192 177 310
t354 118q144 0 256.5 -51t180 -157t67.5 -253q0 -73 -10 -129l-18 -86q-40 -195 -178 -312t-358 -117q-105 0 -194.5 29.5t-157.5 85t-107 143t-39 196.5q0 82 11 137z" />
    <glyph glyph-name="otilde" unicode="&#xf5;" horiz-adv-x="1192" 
d="M919 1142q-46 0 -77.5 18t-62.5 51q-5 5 -19.5 21t-21.5 22.5t-21 13t-29 6.5q-54 0 -68 -85h-156q4 114 61 191.5t154 77.5q34 0 64.5 -13.5t47.5 -27.5t42 -40q4 -4 12 -14t12 -14l11 -11t12 -10.5t12 -7.5t14 -5.5t15 -1.5q57 0 69 97h156q-6 -115 -68 -191.5
t-159 -76.5zM505 613l-16 -98q-8 -54 -8 -89q0 -85 44 -139.5t126 -54.5q83 0 133.5 63t67.5 168l16 102q6 50 6 88q0 82 -43.5 134.5t-123.5 52.5q-83 0 -134.5 -61t-67.5 -166zM158 575l16 86q36 192 177 310t354 118q144 0 256.5 -51t180 -157t67.5 -253q0 -73 -10 -129
l-18 -86q-40 -195 -178 -312t-358 -117q-105 0 -194.5 29.5t-157.5 85t-107 143t-39 196.5q0 82 11 137z" />
    <glyph glyph-name="odieresis" unicode="&#xf6;" horiz-adv-x="1192" 
d="M487 1315q0 58 35.5 92t95.5 34q61 0 96.5 -34t35.5 -92q0 -56 -35.5 -89.5t-96.5 -33.5q-60 0 -95.5 34t-35.5 89zM890 1315q0 58 35 92t95 34q61 0 97 -34t36 -92q0 -55 -35.5 -89t-97.5 -34q-59 0 -94.5 34t-35.5 89zM505 613l-16 -98q-8 -54 -8 -89q0 -85 44 -139.5
t126 -54.5q83 0 133.5 63t67.5 168l16 102q6 50 6 88q0 82 -43.5 134.5t-123.5 52.5q-83 0 -134.5 -61t-67.5 -166zM158 575l16 86q36 192 177 310t354 118q144 0 256.5 -51t180 -157t67.5 -253q0 -73 -10 -129l-18 -86q-40 -195 -178 -312t-358 -117q-105 0 -194.5 29.5
t-157.5 85t-107 143t-39 196.5q0 82 11 137z" />
    <glyph glyph-name="divide" unicode="&#xf7;" horiz-adv-x="1235" 
d="M573 998q0 77 55 123t147 46q89 0 142 -44t53 -116q0 -77 -55 -122.5t-149 -45.5q-89 0 -141 43.5t-52 115.5zM454 106q0 77 54.5 123t146.5 46q90 0 142.5 -44t52.5 -117q0 -76 -55 -122t-148 -46q-89 0 -141 44t-52 116zM1220 437h-1052l44 244h1052z" />
    <glyph glyph-name="oslash" unicode="&#xf8;" horiz-adv-x="1192" 
d="M168 575l16 86q36 192 177.5 310t354.5 118q222 0 359 -120l134 120l102 -107l-144 -129q52 -98 52 -225q0 -79 -10 -129l-17 -86q-40 -195 -178 -312t-358 -117q-212 0 -347 112l-143 -126l-91 105l143 127q-60 101 -60 236q0 87 10 137zM516 613l-16 -98q-6 -34 -7 -58
q0 -9 2 -23l366 322q-44 84 -144 84q-83 0 -134 -61t-67 -166zM521 308q46 -76 140 -76q83 0 133.5 63t67.5 168l16 102q3 13 3 43q0 9 -1 14z" />
    <glyph glyph-name="ugrave" unicode="&#xf9;" horiz-adv-x="1232" 
d="M982 1215h-237l-246 324h291zM1287 1069l-188 -1069h-316l30 163h-18q-39 -77 -116 -128t-189 -51q-146 0 -235 85t-89 234q0 86 18 183l105 583h328l-101 -576q-10 -53 -10 -105q0 -72 40 -110t103 -38q166 0 206 230l105 599h327z" />
    <glyph glyph-name="uacute" unicode="&#xfa;" horiz-adv-x="1232" 
d="M895 1215h-241l251 329h295zM1287 1069l-188 -1069h-316l30 163h-18q-39 -77 -116 -128t-189 -51q-146 0 -235 85t-89 234q0 86 18 183l105 583h328l-101 -576q-10 -53 -10 -105q0 -72 40 -110t103 -38q166 0 206 230l105 599h327z" />
    <glyph glyph-name="ucircumflex" unicode="&#xfb;" horiz-adv-x="1232" 
d="M463 1226l312 342h236l184 -342h-237l-84 195h-17l-163 -195h-231zM1287 1069l-188 -1069h-316l30 163h-18q-39 -77 -116 -128t-189 -51q-146 0 -235 85t-89 234q0 86 18 183l105 583h328l-101 -576q-10 -53 -10 -105q0 -72 40 -110t103 -38q166 0 206 230l105 599h327z
" />
    <glyph glyph-name="udieresis" unicode="&#xfc;" horiz-adv-x="1232" 
d="M1287 1069l-188 -1069h-316l30 163h-18q-39 -77 -116 -128t-189 -51q-146 0 -235 85t-89 234q0 86 18 183l105 583h328l-101 -576q-10 -53 -10 -105q0 -72 40 -110t103 -38q166 0 206 230l105 599h327zM509 1315q0 58 35.5 92t95.5 34q61 0 96.5 -34t35.5 -92
q0 -56 -35.5 -89.5t-96.5 -33.5q-60 0 -95.5 34t-35.5 89zM912 1315q0 58 35 92t95 34q61 0 97 -34t36 -92q0 -55 -35.5 -89t-97.5 -34q-59 0 -94.5 34t-35.5 89z" />
    <glyph glyph-name="yacute" unicode="&#xfd;" horiz-adv-x="1095" 
d="M1253 1069l-507 -1051q-4 -9 -15 -30t-12 -22q-65 -121 -132.5 -189.5t-163.5 -103.5t-235 -35q-88 0 -163 15l44 236q49 -11 94 -11q130 0 170 92l20 51l-161 1048h330l69 -795h15l303 795h344zM841 1215h-241l251 329h295z" />
    <glyph glyph-name="thorn" unicode="&#xfe;" horiz-adv-x="1235" 
d="M806 -16q-117 0 -200.5 57t-104.5 156h-13l-94 -536h-329l312 1776h329l-100 -566h17q15 38 37 70.5t57 66t89.5 53t120.5 19.5q158 0 250 -107t92 -292q0 -77 -13 -149l-18 -100q-37 -215 -150 -331.5t-282 -116.5zM537 442q0 -86 46 -142t122 -56q77 0 130 59t72 165
l16 86q5 28 5 84q0 86 -42 136.5t-117 50.5q-83 0 -138 -61t-73 -170l-14 -86q-7 -33 -7 -66z" />
    <glyph glyph-name="ydieresis" unicode="&#xff;" horiz-adv-x="1095" 
d="M1253 1069l-507 -1051q-4 -9 -15 -30t-12 -22q-65 -121 -132.5 -189.5t-163.5 -103.5t-235 -35q-88 0 -163 15l44 236q49 -11 94 -11q130 0 170 92l20 51l-161 1048h330l69 -795h15l303 795h344zM455 1315q0 58 35.5 92t95.5 34q61 0 96.5 -34t35.5 -92
q0 -56 -35.5 -89.5t-96.5 -33.5q-60 0 -95.5 34t-35.5 89zM858 1315q0 58 35 92t95 34q61 0 97 -34t36 -92q0 -55 -35.5 -89t-97.5 -34q-59 0 -94.5 34t-35.5 89z" />
    <glyph glyph-name="Amacron" unicode="&#x100;" horiz-adv-x="1314" 
d="M2 0l673 1365h415l198 -1365h-361l-31 309h-412l-140 -309h-342zM835 1064h-18l-228 -511h291zM1269 1629l-25 -145h-680l25 145h680z" />
    <glyph glyph-name="amacron" unicode="&#x101;" horiz-adv-x="1136" 
d="M440 -16q-138 0 -227.5 81.5t-89.5 222.5q0 9 1 15q4 159 123.5 242t314.5 83h241l13 75q3 24 3 31q0 50 -37 83.5t-103 33.5q-56 0 -92.5 -25t-46.5 -67h-306q8 64 40 121t87 105t142 76t196 28q201 0 317.5 -95t116.5 -268q0 -39 -10 -96l-111 -630h-305l25 135h-17
q-31 -63 -101.5 -107t-173.5 -44zM448 331q0 -52 36.5 -85t94.5 -33q62 0 111.5 36.5t61.5 94.5l20 110h-164q-76 0 -118 -34.5t-42 -88.5zM1131 1370l-26 -144h-680l26 144h680z" />
    <glyph glyph-name="Abreve" unicode="&#x102;" horiz-adv-x="1314" 
d="M2 0l673 1365h415l198 -1365h-361l-31 309h-412l-140 -309h-342zM835 1064h-18l-228 -511h291zM621 1771h181q-8 -63 32 -100t115 -37q77 0 123 37t57 100h180q-22 -142 -120 -224t-267 -82q-151 0 -241 88t-60 218z" />
    <glyph glyph-name="abreve" unicode="&#x103;" horiz-adv-x="1136" 
d="M440 -16q-138 0 -227.5 81.5t-89.5 222.5q0 9 1 15q4 159 123.5 242t314.5 83h241l13 75q3 24 3 31q0 50 -37 83.5t-103 33.5q-56 0 -92.5 -25t-46.5 -67h-306q8 64 40 121t87 105t142 76t196 28q201 0 317.5 -95t116.5 -268q0 -39 -10 -96l-111 -630h-305l25 135h-17
q-31 -63 -101.5 -107t-173.5 -44zM448 331q0 -52 36.5 -85t94.5 -33q62 0 111.5 36.5t61.5 94.5l20 110h-164q-76 0 -118 -34.5t-42 -88.5zM470 1504h178q-2 -60 36.5 -103.5t110.5 -43.5q70 0 113 41.5t48 105.5h178q-8 -140 -101.5 -229t-240.5 -89q-151 0 -240.5 93
t-81.5 225z" />
    <glyph glyph-name="Aogonek" unicode="&#x104;" horiz-adv-x="1314" 
d="M1114 -384q-108 0 -171.5 54.5t-51.5 147.5q11 115 127 185v13h-82l-28 293h-412l-140 -309h-342l673 1365h415l190 -1309q-166 -65 -171 -167q-2 -39 24 -63.5t80 -24.5q45 0 75 7l-30 -170q-20 -8 -67 -15t-89 -7zM847 1064h-18l-228 -511h291z" />
    <glyph glyph-name="aogonek" unicode="&#x105;" horiz-adv-x="1135" 
d="M455 331q0 -52 36.5 -85t94.5 -33q63 0 112.5 36.5t60.5 94.5l20 110h-164q-76 0 -118 -34.5t-42 -88.5zM959 -369q-73 -22 -155 -22q-102 0 -170.5 49.5t-63.5 146.5q2 38 14.5 69t37 56.5t42 39.5t51.5 37l24 128h-17q-31 -63 -101.5 -107t-173.5 -44q-137 0 -227 81.5
t-90 222.5q0 22 3 45q15 144 132.5 219.5t303.5 75.5h241l13 75q3 24 3 31q0 50 -37 83.5t-103 33.5q-56 0 -92.5 -25t-46.5 -67h-306q8 64 40 121t87 105t142 76t196 28q201 0 318 -95t117 -268q0 -34 -11 -96l-101 -573q-214 -70 -220 -179q-3 -39 25.5 -60.5t76.5 -21.5
q44 0 77 7z" />
    <glyph glyph-name="Cacute" unicode="&#x106;" horiz-adv-x="1325" 
d="M745 1495l293 231h340l-339 -231h-294zM572 793l-26 -134q-11 -60 -11 -128q0 -124 64 -196t175 -72q98 0 157.5 52.5t75.5 137.5h315q-4 -16 -4 -30q-11 -90 -51 -169t-108.5 -142t-174 -99.5t-236.5 -36.5q-258 0 -407 143.5t-149 417.5q0 65 9 121l33 182
q45 259 205 404t414 145q103 0 192 -25t152.5 -68t109 -100t68 -122t22.5 -133q0 -63 -12 -99h-319q4 25 4 61q-3 85 -61 145t-158 60q-220 0 -279 -315z" />
    <glyph glyph-name="cacute" unicode="&#x107;" horiz-adv-x="1108" 
d="M151 408q0 70 12 140l20 112q19 109 67 193t117.5 134.5t152.5 76t177 25.5q126 0 228.5 -42.5t166 -130t63.5 -206.5q0 -27 -4 -40h-302q1 6 1 16q0 58 -41.5 102.5t-114.5 44.5q-74 0 -127 -53t-71 -153l-17 -105q-8 -49 -8 -91q0 -193 170 -193q133 0 158 107h306
q-15 -121 -86 -205.5t-173 -123t-227 -38.5q-216 0 -342 115t-126 315zM843 1215h-241l251 329h295z" />
    <glyph glyph-name="Ccircumflex" unicode="&#x108;" horiz-adv-x="1325" 
d="M572 793l-26 -134q-11 -60 -11 -128q0 -124 64 -196t175 -72q98 0 157.5 52.5t75.5 137.5h315q-4 -16 -4 -30q-11 -90 -51 -169t-108.5 -142t-174 -99.5t-236.5 -36.5q-258 0 -407 143.5t-149 417.5q0 65 9 121l33 182q45 259 205 404t414 145q103 0 192 -25t152.5 -68
t109 -100t68 -122t22.5 -133q0 -63 -12 -99h-319q4 25 4 61q-3 85 -61 145t-158 60q-220 0 -279 -315zM556 1478l284 247h258l215 -247h-242l-105 122h-19l-140 -122h-251z" />
    <glyph glyph-name="ccircumflex" unicode="&#x109;" horiz-adv-x="1108" 
d="M411 1226l312 342h236l184 -342h-237l-84 195h-17l-163 -195h-231zM151 408q0 70 12 140l20 112q19 109 67 193t117.5 134.5t152.5 76t177 25.5q126 0 228.5 -42.5t166 -130t63.5 -206.5q0 -27 -4 -40h-302q1 6 1 16q0 58 -41.5 102.5t-114.5 44.5q-74 0 -127 -53
t-71 -153l-17 -105q-8 -49 -8 -91q0 -193 170 -193q133 0 158 107h306q-15 -121 -86 -205.5t-173 -123t-227 -38.5q-216 0 -342 115t-126 315z" />
    <glyph glyph-name="Cdotaccent" unicode="&#x10a;" horiz-adv-x="1325" 
d="M572 793l-26 -134q-11 -60 -11 -128q0 -124 64 -196t175 -72q98 0 157.5 52.5t75.5 137.5h315q-4 -16 -4 -30q-11 -90 -51 -169t-108.5 -142t-174 -99.5t-236.5 -36.5q-258 0 -407 143.5t-149 417.5q0 65 9 121l33 182q45 259 205 404t414 145q103 0 192 -25t152.5 -68
t109 -100t68 -122t22.5 -133q0 -63 -12 -99h-319q4 25 4 61q-3 85 -61 145t-158 60q-220 0 -279 -315zM816 1614q0 60 40 99.5t96 39.5q60 0 100.5 -39.5t40.5 -99.5q0 -58 -40.5 -97t-100.5 -39q-56 0 -96 39.5t-40 96.5z" />
    <glyph glyph-name="cdotaccent" unicode="&#x10b;" horiz-adv-x="1108" 
d="M151 408q0 70 12 140l20 112q19 109 67 193t117.5 134.5t152.5 76t177 25.5q126 0 228.5 -42.5t166 -130t63.5 -206.5q0 -27 -4 -40h-302q1 6 1 16q0 58 -41.5 102.5t-114.5 44.5q-74 0 -127 -53t-71 -153l-17 -105q-8 -49 -8 -91q0 -193 170 -193q133 0 158 107h306
q-15 -121 -86 -205.5t-173 -123t-227 -38.5q-216 0 -342 115t-126 315zM652 1318q0 60 40 99.5t96 39.5q60 0 100.5 -39.5t40.5 -99.5q0 -58 -40.5 -97t-100.5 -39q-56 0 -96 39.5t-40 96.5z" />
    <glyph glyph-name="Ccaron" unicode="&#x10c;" horiz-adv-x="1325" 
d="M572 793l-26 -134q-11 -60 -11 -128q0 -124 64 -196t175 -72q98 0 157.5 52.5t75.5 137.5h315q-4 -16 -4 -30q-11 -90 -51 -169t-108.5 -142t-174 -99.5t-236.5 -36.5q-258 0 -407 143.5t-149 417.5q0 65 9 121l33 182q45 259 205 404t414 145q103 0 192 -25t152.5 -68
t109 -100t68 -122t22.5 -133q0 -63 -12 -99h-319q4 25 4 61q-3 85 -61 145t-158 60q-220 0 -279 -315zM1358 1729l-286 -244h-253l-224 244h249l102 -116h18l135 116h259z" />
    <glyph glyph-name="ccaron" unicode="&#x10d;" horiz-adv-x="1108" 
d="M658 1204l-194 342h230l96 -194h17l151 194h239l-302 -342h-237zM151 408q0 70 12 140l20 112q19 109 67 193t117.5 134.5t152.5 76t177 25.5q126 0 228.5 -42.5t166 -130t63.5 -206.5q0 -27 -4 -40h-302q1 6 1 16q0 58 -41.5 102.5t-114.5 44.5q-74 0 -127 -53t-71 -153
l-17 -105q-8 -49 -8 -91q0 -193 170 -193q133 0 158 107h306q-15 -121 -86 -205.5t-173 -123t-227 -38.5q-216 0 -342 115t-126 315z" />
    <glyph glyph-name="Dcaron" unicode="&#x10e;" horiz-adv-x="1382" 
d="M1358 1729l-286 -244h-253l-224 244h249l102 -116h18l135 116h259zM382 1365h513q251 0 390.5 -149t139.5 -394q0 -71 -8 -127q-4 -60 -24 -136q-56 -261 -249 -410t-490 -149h-512zM672 1093l-146 -821h97q163 0 277 78.5t151 242.5q17 53 22 121q6 44 6 94
q0 147 -81.5 216t-214.5 69h-111z" />
    <glyph glyph-name="dcaron" unicode="&#x10f;" horiz-adv-x="1507" 
d="M1502 1432h267l-148 -491h-213zM595 1080q126 0 205.5 -66.5t92.5 -153.5h14l101 571h329l-251 -1431h-328l30 171h-17q-27 -75 -104 -130.5t-194 -55.5q-163 0 -255.5 108.5t-92.5 291.5q0 79 13 149l19 100q40 213 154 329.5t284 116.5zM861 637q0 85 -47 136t-118 51
q-80 0 -133 -59.5t-73 -164.5l-16 -86q-6 -34 -6 -79q0 -83 42 -137t122 -54t134 60t74 171l15 85q6 29 6 77z" />
    <glyph glyph-name="Dcroat" unicode="&#x110;" horiz-adv-x="1493" 
d="M493 1365h513q251 0 390.5 -149t139.5 -394q0 -71 -8 -127q-7 -65 -23 -137q-57 -260 -250 -409t-490 -149h-512l96 543h-173l51 292h172zM783 1093l-46 -258h198l-51 -292h-199l-49 -271h98q163 0 276.5 78.5t151.5 242.5q14 53 22 121q5 36 5 94q0 147 -81.5 216
t-214.5 69h-110z" />
    <glyph glyph-name="dcroat" unicode="&#x111;" horiz-adv-x="1200" 
d="M632 1080q126 0 206.5 -66.5t93.5 -153.5h14l48 276h-195l29 174h211l22 121h299l-22 -121h140l-30 -174h-126l-200 -1136h-328l31 171h-17q-28 -75 -105 -130.5t-194 -55.5q-162 0 -255 109t-93 291q0 79 13 149l19 100q40 213 154 329.5t285 116.5zM897 637
q0 85 -47 136t-118 51q-80 0 -133 -59.5t-72 -164.5l-17 -86q-6 -34 -6 -79q0 -83 42 -137t122 -54q81 0 134.5 60t73.5 171l16 85q5 30 5 77z" />
    <glyph glyph-name="Emacron" unicode="&#x112;" horiz-adv-x="1168" 
d="M1105 272l-47 -272h-918l240 1365h917l-48 -272h-579l-52 -282h547l-42 -246h-547l-53 -293h582zM1212 1629l-25 -145h-680l25 145h680z" />
    <glyph glyph-name="emacron" unicode="&#x113;" horiz-adv-x="1142" 
d="M620 -22q-101 0 -185.5 27t-149 80t-100.5 137.5t-36 192.5q0 54 14 140l16 90q25 146 103 248t185.5 149t238.5 47q210 0 335 -128t117 -337q0 -48 -24 -157h-661q-8 -35 -8 -80q0 -74 44 -120.5t132 -46.5q67 0 111 27.5t56 78.5h304q-16 -145 -150.5 -246.5
t-341.5 -101.5zM847 645q4 20 4 33q8 75 -31.5 125t-119.5 50q-70 0 -119 -43.5t-68 -125.5l-9 -39h343zM1142 1370l-26 -144h-680l26 144h680z" />
    <glyph glyph-name="Ebreve" unicode="&#x114;" horiz-adv-x="1168" 
d="M1105 272l-47 -272h-918l240 1365h917l-48 -272h-579l-52 -282h547l-42 -246h-547l-53 -293h582zM564 1771h181q-8 -63 32 -100t115 -37q77 0 123 37t57 100h180q-22 -142 -120 -224t-267 -82q-151 0 -241 88t-60 218z" />
    <glyph glyph-name="ebreve" unicode="&#x115;" horiz-adv-x="1142" 
d="M620 -22q-101 0 -185.5 27t-149 80t-100.5 137.5t-36 192.5q0 54 14 140l16 90q25 146 103 248t185.5 149t238.5 47q210 0 335 -128t117 -337q0 -48 -24 -157h-661q-8 -35 -8 -80q0 -74 44 -120.5t132 -46.5q67 0 111 27.5t56 78.5h304q-16 -145 -150.5 -246.5
t-341.5 -101.5zM847 645q4 20 4 33q8 75 -31.5 125t-119.5 50q-70 0 -119 -43.5t-68 -125.5l-9 -39h343zM481 1504h178q-2 -60 36.5 -103.5t110.5 -43.5q70 0 113 41.5t48 105.5h178q-8 -140 -101.5 -229t-240.5 -89q-151 0 -240.5 93t-81.5 225z" />
    <glyph glyph-name="Edotaccent" unicode="&#x116;" horiz-adv-x="1168" 
d="M735 1614q0 60 40 99.5t96 39.5q60 0 100.5 -39.5t40.5 -99.5q0 -58 -40.5 -97t-100.5 -39q-56 0 -96 39.5t-40 96.5zM1105 272l-47 -272h-918l240 1365h917l-48 -272h-579l-52 -282h547l-42 -246h-547l-53 -293h582z" />
    <glyph glyph-name="edotaccent" unicode="&#x117;" horiz-adv-x="1142" 
d="M659 1318q0 60 40 99.5t96 39.5q60 0 100.5 -39.5t40.5 -99.5q0 -58 -40.5 -97t-100.5 -39q-56 0 -96 39.5t-40 96.5zM620 -22q-101 0 -185.5 27t-149 80t-100.5 137.5t-36 192.5q0 54 14 140l16 90q25 146 103 248t185.5 149t238.5 47q210 0 335 -128t117 -337
q0 -48 -24 -157h-661q-8 -35 -8 -80q0 -74 44 -120.5t132 -46.5q67 0 111 27.5t56 78.5h304q-16 -145 -150.5 -246.5t-341.5 -101.5zM847 645q4 20 4 33q8 75 -31.5 125t-119.5 50q-70 0 -119 -43.5t-68 -125.5l-9 -39h343z" />
    <glyph glyph-name="Eogonek" unicode="&#x118;" horiz-adv-x="1168" 
d="M844 -383q-106 0 -168.5 48.5t-53.5 143.5q9 104 114 178v13h-591l241 1365h917l-48 -272h-579l-51 -282h547l-43 -246h-547l-53 -293h582l-36 -210q-83 -18 -146.5 -62.5t-71.5 -109.5q-4 -41 24.5 -64.5t79.5 -23.5q38 0 70 7l-30 -171q-67 -21 -157 -21z" />
    <glyph glyph-name="eogonek" unicode="&#x119;" horiz-adv-x="1142" 
d="M587 -14q-202 -3 -315.5 104.5t-113.5 324.5q0 59 15 140l15 90q26 146 103.5 248t185 149t238.5 47q210 0 335 -128t117 -337q0 -55 -24 -157h-661q-8 -35 -8 -80q0 -74 44 -120.5t132 -46.5q67 0 111 27.5t56 78.5h304q-11 -67 -37.5 -117t-79.5 -98q-20 -19 -61 -51
t-65.5 -52.5t-46 -55t-22.5 -71.5q-3 -42 25.5 -64t69.5 -22q47 0 92 10l-30 -171q-67 -26 -159 -26q-104 0 -168.5 53.5t-61.5 137.5q4 121 126 197l-5 11q-9 -6 -45 -13.5t-66 -7.5zM856 645q4 20 4 33q8 75 -31 125t-119 50q-71 0 -119.5 -43.5t-68.5 -125.5l-9 -39h343z
" />
    <glyph glyph-name="Ecaron" unicode="&#x11a;" horiz-adv-x="1168" 
d="M1277 1729l-286 -244h-253l-224 244h249l102 -116h18l135 116h259zM1105 272l-47 -272h-918l240 1365h917l-48 -272h-579l-52 -282h547l-42 -246h-547l-53 -293h582z" />
    <glyph glyph-name="ecaron" unicode="&#x11b;" horiz-adv-x="1142" 
d="M665 1204l-194 342h230l96 -194h17l151 194h239l-302 -342h-237zM620 -22q-101 0 -185.5 27t-149 80t-100.5 137.5t-36 192.5q0 54 14 140l16 90q25 146 103 248t185.5 149t238.5 47q210 0 335 -128t117 -337q0 -48 -24 -157h-661q-8 -35 -8 -80q0 -74 44 -120.5
t132 -46.5q67 0 111 27.5t56 78.5h304q-16 -145 -150.5 -246.5t-341.5 -101.5zM847 645q4 20 4 33q8 75 -31.5 125t-119.5 50q-70 0 -119 -43.5t-68 -125.5l-9 -39h343z" />
    <glyph glyph-name="Gcircumflex" unicode="&#x11c;" horiz-adv-x="1376" 
d="M559 1478l284 247h258l215 -247h-242l-105 122h-19l-140 -122h-251zM239 850q46 252 206 395.5t421 143.5q114 0 208.5 -26.5t157.5 -70t106.5 -101.5t63 -119t19.5 -124q0 -31 -3 -41h-324v28q-1 28 -13.5 57t-37.5 58t-71 47.5t-105 18.5q-116 0 -191 -81.5
t-104 -235.5l-28 -149q-11 -68 -11 -124q0 -129 69 -203t179 -74q102 0 173.5 49t86.5 124l17 88h-241l39 220h553l-52 -294q-38 -212 -192.5 -336t-401.5 -124q-96 0 -180.5 20.5t-156.5 64t-123.5 106.5t-80.5 153.5t-29 200.5q0 80 14 155z" />
    <glyph glyph-name="gcircumflex" unicode="&#x11d;" horiz-adv-x="1242" 
d="M462 1226l312 342h236l184 -342h-237l-84 195h-17l-163 -195h-231zM623 1080q120 0 198 -59.5t101 -153.5h15l35 198h326l-190 -1088q-33 -184 -173 -280t-366 -96q-117 0 -209.5 27.5t-148.5 74t-85.5 104.5t-29.5 123q0 22 2 26h302q3 -16 4 -18q10 -43 59 -70.5
t119 -27.5q96 0 145 49t67 148l24 143h-18q-30 -67 -105.5 -110t-180.5 -43q-159 0 -256.5 109.5t-97.5 300.5q0 86 13 146l13 66q45 216 162 323.5t275 107.5zM887 639q0 83 -45 134t-121 51q-79 0 -132.5 -60t-72.5 -168l-12 -64q-9 -47 -9 -86q0 -87 43 -141t125 -54
q77 0 131.5 59.5t72.5 169.5l12 67q8 47 8 92z" />
    <glyph glyph-name="Gbreve" unicode="&#x11e;" horiz-adv-x="1376" 
d="M239 850q46 252 206 395.5t421 143.5q114 0 208.5 -26.5t157.5 -70t106.5 -101.5t63 -119t19.5 -124q0 -31 -3 -41h-324v28q-1 28 -13.5 57t-37.5 58t-71 47.5t-105 18.5q-116 0 -191 -81.5t-104 -235.5l-28 -149q-11 -68 -11 -124q0 -129 69 -203t179 -74
q102 0 173.5 49t86.5 124l17 88h-241l39 220h553l-52 -294q-38 -212 -192.5 -336t-401.5 -124q-96 0 -180.5 20.5t-156.5 64t-123.5 106.5t-80.5 153.5t-29 200.5q0 80 14 155zM648 1771h181q-8 -63 32 -100t115 -37q77 0 123 37t57 100h180q-22 -142 -120 -224t-267 -82
q-151 0 -241 88t-60 218z" />
    <glyph glyph-name="gbreve" unicode="&#x11f;" horiz-adv-x="1242" 
d="M525 1504h178q-2 -60 36.5 -103.5t110.5 -43.5q70 0 113 41.5t48 105.5h178q-8 -140 -101.5 -229t-240.5 -89q-151 0 -240.5 93t-81.5 225zM623 1080q120 0 198 -59.5t101 -153.5h15l35 198h326l-190 -1088q-33 -184 -173 -280t-366 -96q-117 0 -209.5 27.5t-148.5 74
t-85.5 104.5t-29.5 123q0 22 2 26h302q3 -16 4 -18q10 -43 59 -70.5t119 -27.5q96 0 145 49t67 148l24 143h-18q-30 -67 -105.5 -110t-180.5 -43q-159 0 -256.5 109.5t-97.5 300.5q0 86 13 146l13 66q45 216 162 323.5t275 107.5zM887 639q0 83 -45 134t-121 51
q-79 0 -132.5 -60t-72.5 -168l-12 -64q-9 -47 -9 -86q0 -87 43 -141t125 -54q77 0 131.5 59.5t72.5 169.5l12 67q8 47 8 92z" />
    <glyph glyph-name="Gdotaccent" unicode="&#x120;" horiz-adv-x="1376" 
d="M820 1614q0 60 40 99.5t96 39.5q60 0 100.5 -39.5t40.5 -99.5q0 -58 -40.5 -97t-100.5 -39q-56 0 -96 39.5t-40 96.5zM239 850q46 252 206 395.5t421 143.5q114 0 208.5 -26.5t157.5 -70t106.5 -101.5t63 -119t19.5 -124q0 -31 -3 -41h-324v28q-1 28 -13.5 57t-37.5 58
t-71 47.5t-105 18.5q-116 0 -191 -81.5t-104 -235.5l-28 -149q-11 -68 -11 -124q0 -129 69 -203t179 -74q102 0 173.5 49t86.5 124l17 88h-241l39 220h553l-52 -294q-38 -212 -192.5 -336t-401.5 -124q-96 0 -180.5 20.5t-156.5 64t-123.5 106.5t-80.5 153.5t-29 200.5
q0 80 14 155z" />
    <glyph glyph-name="gdotaccent" unicode="&#x121;" horiz-adv-x="1242" 
d="M703 1318q0 60 40 99.5t96 39.5q60 0 100.5 -39.5t40.5 -99.5q0 -58 -40.5 -97t-100.5 -39q-56 0 -96 39.5t-40 96.5zM623 1080q120 0 198 -59.5t101 -153.5h15l35 198h326l-190 -1088q-33 -184 -173 -280t-366 -96q-117 0 -209.5 27.5t-148.5 74t-85.5 104.5t-29.5 123
q0 22 2 26h302q3 -16 4 -18q10 -43 59 -70.5t119 -27.5q96 0 145 49t67 148l24 143h-18q-30 -67 -105.5 -110t-180.5 -43q-159 0 -256.5 109.5t-97.5 300.5q0 86 13 146l13 66q45 216 162 323.5t275 107.5zM887 639q0 83 -45 134t-121 51q-79 0 -132.5 -60t-72.5 -168
l-12 -64q-9 -47 -9 -86q0 -87 43 -141t125 -54q77 0 131.5 59.5t72.5 169.5l12 67q8 47 8 92z" />
    <glyph glyph-name="Gcommaaccent" unicode="&#x122;" horiz-adv-x="1376" 
d="M689 -475h-206l83 326h234zM239 850q46 252 206 395.5t421 143.5q114 0 208.5 -26.5t157.5 -70t106.5 -101.5t63 -119t19.5 -124q0 -31 -3 -41h-324v28q-1 28 -13.5 57t-37.5 58t-71 47.5t-105 18.5q-116 0 -191 -81.5t-104 -235.5l-28 -149q-11 -68 -11 -124
q0 -129 69 -203t179 -74q102 0 173.5 49t86.5 124l17 88h-241l39 220h553l-52 -294q-38 -212 -192.5 -336t-401.5 -124q-96 0 -180.5 20.5t-156.5 64t-123.5 106.5t-80.5 153.5t-29 200.5q0 80 14 155z" />
    <glyph glyph-name="gcommaaccent" unicode="&#x123;" horiz-adv-x="1242" 
d="M818 1599h210l-85 -335h-239zM623 1080q120 0 198 -59.5t101 -153.5h15l35 198h326l-190 -1088q-33 -184 -173 -280t-366 -96q-117 0 -209.5 27.5t-148.5 74t-85.5 104.5t-29.5 123q0 22 2 26h302q3 -16 4 -18q10 -43 59 -70.5t119 -27.5q96 0 145 49t67 148l24 143h-18
q-30 -67 -105.5 -110t-180.5 -43q-159 0 -256.5 109.5t-97.5 300.5q0 86 13 146l13 66q45 216 162 323.5t275 107.5zM887 639q0 83 -45 134t-121 51q-79 0 -132.5 -60t-72.5 -168l-12 -64q-9 -47 -9 -86q0 -87 43 -141t125 -54q77 0 131.5 59.5t72.5 169.5l12 67q8 47 8 92z
" />
    <glyph glyph-name="Hcircumflex" unicode="&#x124;" horiz-adv-x="1456" 
d="M474 0h-336l240 1365h337l-93 -536h493l93 536h338l-241 -1365h-335l97 555h-493zM610 1478l284 247h258l215 -247h-242l-105 122h-19l-140 -122h-251z" />
    <glyph glyph-name="hcircumflex" unicode="&#x125;" horiz-adv-x="1246" 
d="M116 0l250 1431h329l-94 -523h17q39 79 114 128t186 49q150 0 238 -89.5t88 -232.5q0 -69 -24 -201l-99 -562h-328l101 577q9 52 9 103q0 71 -40 111.5t-102 40.5q-85 0 -138.5 -62t-72.5 -169l-106 -601h-328zM199 1588l312 342h236l184 -342h-237l-84 195h-17
l-163 -195h-231z" />
    <glyph glyph-name="Hbar" unicode="&#x126;" horiz-adv-x="1456" 
d="M624 798h494l26 153h-494zM576 523l-95 -523h-336l167 951h-64l48 274h64l25 140h337l-25 -140h494l24 140h338l-25 -140h67l-48 -274h-67l-168 -951h-335l92 523h-493z" />
    <glyph glyph-name="hbar" unicode="&#x127;" horiz-adv-x="1246" 
d="M559 601l-106 -601h-328l199 1136h-99l29 174h100l21 121h329l-22 -121h167l-29 -174h-169l-41 -228h17q39 79 114 128t186 49q150 0 238 -89.5t88 -232.5q0 -69 -24 -201l-99 -562h-328l101 577q9 52 9 103q0 71 -40 111.5t-102 40.5q-85 0 -138.5 -62t-72.5 -169z" />
    <glyph glyph-name="Itilde" unicode="&#x128;" horiz-adv-x="617" 
d="M466 0h-336l240 1365h337zM552 1507q-4 4 -14.5 14t-16.5 15t-15.5 12t-20 10t-21.5 3q-65 0 -71 -86h-165q0 94 54.5 166t151.5 72q56 0 91 -15.5t74 -49.5q7 -6 18 -16t17.5 -15t15.5 -11.5t18 -9t19 -2.5q34 0 50.5 30.5t17.5 72.5h166q0 -103 -61 -174.5t-153 -71.5
q-61 0 -93.5 14.5t-61.5 41.5z" />
    <glyph glyph-name="itilde" unicode="&#x129;" horiz-adv-x="635" 
d="M139 0l189 1069h327l-190 -1069h-326zM641 1142q-46 0 -77.5 18t-62.5 51q-5 5 -19.5 21t-21.5 22.5t-21 13t-29 6.5q-54 0 -68 -85h-156q4 114 61 191.5t154 77.5q34 0 64.5 -13.5t47.5 -27.5t42 -40q4 -4 12 -14t12 -14l11 -11t12 -10.5t12 -7.5t14 -5.5t15 -1.5
q57 0 69 97h156q-6 -115 -68 -191.5t-159 -76.5z" />
    <glyph glyph-name="Imacron" unicode="&#x12a;" horiz-adv-x="617" 
d="M466 0h-336l240 1365h337zM931 1629l-25 -145h-680l25 145h680z" />
    <glyph glyph-name="imacron" unicode="&#x12b;" horiz-adv-x="635" 
d="M139 0l189 1069h327l-190 -1069h-326zM887 1370l-26 -144h-680l26 144h680z" />
    <glyph glyph-name="Ibreve" unicode="&#x12c;" horiz-adv-x="617" 
d="M466 0h-336l240 1365h337zM283 1771h181q-8 -63 32 -100t115 -37q77 0 123 37t57 100h180q-22 -142 -120 -224t-267 -82q-151 0 -241 88t-60 218z" />
    <glyph glyph-name="ibreve" unicode="&#x12d;" horiz-adv-x="635" 
d="M139 0l189 1069h327l-190 -1069h-326zM226 1504h178q-2 -60 36.5 -103.5t110.5 -43.5q70 0 113 41.5t48 105.5h178q-8 -140 -101.5 -229t-240.5 -89q-151 0 -240.5 93t-81.5 225z" />
    <glyph glyph-name="Iogonek" unicode="&#x12e;" horiz-adv-x="617" 
d="M435 -359q-60 -26 -161 -26q-118 0 -174 57.5t-46 143.5q12 123 142 191l2 11h-55l238 1347h337l-229 -1300q-188 -69 -197 -179q-5 -42 22 -64.5t75 -22.5q49 0 76 9z" />
    <glyph glyph-name="iogonek" unicode="&#x12f;" horiz-adv-x="593" 
d="M338 1368q0 76 56 122t146 46q88 0 138 -43.5t50 -114.5q0 -75 -56.5 -121t-146.5 -46q-87 0 -137 43.5t-50 113.5zM407 -373q-66 -18 -153 -18q-127 0 -196.5 51t-66.5 139q6 127 149 212l186 1058h326l-178 -1010q-33 -8 -68 -22.5t-71.5 -36t-61 -53.5t-25.5 -67
q-1 -39 28.5 -62.5t79.5 -23.5q53 0 81 7z" />
    <glyph glyph-name="Idotaccent" unicode="&#x130;" horiz-adv-x="617" 
d="M466 0h-336l240 1365h337zM454 1614q0 60 40 99.5t96 39.5q60 0 100.5 -39.5t40.5 -99.5q0 -58 -40.5 -97t-100.5 -39q-56 0 -96 39.5t-40 96.5z" />
    <glyph glyph-name="dotlessi" unicode="&#x131;" horiz-adv-x="635" 
d="M148 0l189 1069h327l-190 -1069h-326z" />
    <glyph glyph-name="Jcircumflex" unicode="&#x134;" horiz-adv-x="1126" 
d="M1223 1365l-165 -951q-26 -147 -99 -247t-175.5 -145.5t-231.5 -45.5q-133 0 -239.5 47t-171 141t-64.5 222q0 55 9 86l318 2q-3 -27 -3 -45q0 -66 39 -109.5t112 -43.5q143 0 175 183l159 906h337zM718 1478l284 247h258l215 -247h-242l-105 122h-19l-140 -122h-251z
" />
    <glyph glyph-name="jcircumflex" unicode="&#x135;" horiz-adv-x="616" 
d="M678 1069l-185 -1049q-18 -104 -59.5 -177.5t-103.5 -114.5t-135 -59t-165 -18q-66 0 -126 13l45 245q23 -8 68 -8q60 0 100 31.5t50 92.5l184 1044h327zM240 1213l312 342h236l184 -342h-237l-84 195h-17l-163 -195h-231z" />
    <glyph glyph-name="Kcommaaccent" unicode="&#x136;" horiz-adv-x="1337" 
d="M705 1365l-107 -577h15l544 577h405l-594 -621l353 -744h-372l-252 561l-163 -162l-70 -399h-336l240 1365h337zM627 -475h-206l83 326h234z" />
    <glyph glyph-name="kcommaaccent" unicode="&#x137;" horiz-adv-x="1154" 
d="M484 357l-61 -357h-318l252 1431h318l-135 -757h19l373 395h378l-470 -459l294 -610h-342l-202 451zM571 -475h-206l83 326h234z" />
    <glyph glyph-name="Lacute" unicode="&#x139;" horiz-adv-x="1069" 
d="M388 1495l293 231h340l-339 -231h-294zM1069 281l-49 -281h-876l240 1365h337l-192 -1084h540z" />
    <glyph glyph-name="lacute" unicode="&#x13a;" horiz-adv-x="594" 
d="M636 1577h-241l251 329h295zM125 0l253 1431h326l-252 -1431h-327z" />
    <glyph glyph-name="Lcommaaccent" unicode="&#x13b;" horiz-adv-x="1069" 
d="M548 -475h-206l83 326h234zM1069 281l-49 -281h-876l240 1365h337l-192 -1084h540z" />
    <glyph glyph-name="lcommaaccent" unicode="&#x13c;" horiz-adv-x="594" 
d="M278 -475h-206l83 326h234zM125 0l253 1431h326l-252 -1431h-327z" />
    <glyph glyph-name="Lcaron" unicode="&#x13d;" horiz-adv-x="1069" 
d="M924 1432h268l-149 -491h-213zM1069 281l-49 -281h-876l240 1365h337l-192 -1084h540z" />
    <glyph glyph-name="lcaron" unicode="&#x13e;" horiz-adv-x="804" 
d="M834 1432h267l-148 -491h-213zM104 0l253 1431h326l-252 -1431h-327z" />
    <glyph glyph-name="Lslash" unicode="&#x141;" horiz-adv-x="1107" 
d="M1061 0h-881l88 496l-125 -64l47 274l127 65l104 594h337l-72 -405l308 159l-47 -277l-310 -157l-71 -403h544z" />
    <glyph glyph-name="lslash" unicode="&#x142;" horiz-adv-x="700" 
d="M514 0h-327l93 528l-145 -77l45 257l146 79l113 644h327l-80 -455l144 79l-48 -274l-144 -76z" />
    <glyph glyph-name="Nacute" unicode="&#x143;" horiz-adv-x="1434" 
d="M803 1495l293 231h340l-339 -231h-294zM1283 0h-264l-398 808h-14l-141 -808h-316l240 1365h268l394 -801h14l141 801h316z" />
    <glyph glyph-name="nacute" unicode="&#x144;" horiz-adv-x="1239" 
d="M902 1215h-241l251 329h295zM117 0l188 1069h321l-29 -161h17q40 79 115 128t188 49q150 0 235.5 -89.5t85.5 -232.5q0 -75 -23 -201l-100 -562h-327l100 577q9 54 9 102q0 72 -38.5 112.5t-100.5 40.5q-166 0 -207 -231l-106 -601h-328z" />
    <glyph glyph-name="Ncommaaccent" unicode="&#x145;" horiz-adv-x="1434" 
d="M710 -475h-206l83 326h234zM1283 0h-264l-398 808h-14l-141 -808h-316l240 1365h268l394 -801h14l141 801h316z" />
    <glyph glyph-name="ncommaaccent" unicode="&#x146;" horiz-adv-x="1239" 
d="M600 -475h-206l83 326h234zM117 0l188 1069h321l-29 -161h17q40 79 115 128t188 49q150 0 235.5 -89.5t85.5 -232.5q0 -75 -23 -201l-100 -562h-327l100 577q9 54 9 102q0 72 -38.5 112.5t-100.5 40.5q-166 0 -207 -231l-106 -601h-328z" />
    <glyph glyph-name="Ncaron" unicode="&#x147;" horiz-adv-x="1434" 
d="M1416 1729l-286 -244h-253l-224 244h249l102 -116h18l135 116h259zM1283 0h-264l-398 808h-14l-141 -808h-316l240 1365h268l394 -801h14l141 801h316z" />
    <glyph glyph-name="ncaron" unicode="&#x148;" horiz-adv-x="1239" 
d="M717 1204l-194 342h230l96 -194h17l151 194h239l-302 -342h-237zM117 0l188 1069h321l-29 -161h17q40 79 115 128t188 49q150 0 235.5 -89.5t85.5 -232.5q0 -75 -23 -201l-100 -562h-327l100 577q9 54 9 102q0 72 -38.5 112.5t-100.5 40.5q-166 0 -207 -231l-106 -601
h-328z" />
    <glyph glyph-name="Omacron" unicode="&#x14c;" horiz-adv-x="1394" 
d="M572 799l-27 -146q-11 -69 -11 -127q0 -122 64 -195.5t182 -73.5q108 0 180.5 79.5t101.5 241.5l27 151q10 60 10 119q0 120 -64.5 193.5t-180.5 73.5q-106 0 -179 -77t-103 -239zM205 663l35 193q45 254 210.5 393.5t417.5 139.5q256 0 412.5 -143t156.5 -389
q0 -93 -11 -154l-36 -193q-48 -256 -209.5 -395t-424.5 -139q-249 0 -405.5 141t-156.5 383q0 99 11 163zM1314 1629l-25 -145h-680l25 145h680z" />
    <glyph glyph-name="omacron" unicode="&#x14d;" horiz-adv-x="1192" 
d="M1165 1370l-26 -144h-680l26 144h680zM505 613l-16 -98q-8 -54 -8 -89q0 -85 44 -139.5t126 -54.5q83 0 133.5 63t67.5 168l16 102q6 50 6 88q0 82 -43.5 134.5t-123.5 52.5q-83 0 -134.5 -61t-67.5 -166zM158 575l16 86q36 192 177 310t354 118q144 0 256.5 -51
t180 -157t67.5 -253q0 -73 -10 -129l-18 -86q-40 -195 -178 -312t-358 -117q-105 0 -194.5 29.5t-157.5 85t-107 143t-39 196.5q0 82 11 137z" />
    <glyph glyph-name="Obreve" unicode="&#x14e;" horiz-adv-x="1394" 
d="M572 799l-27 -146q-11 -69 -11 -127q0 -122 64 -195.5t182 -73.5q108 0 180.5 79.5t101.5 241.5l27 151q10 60 10 119q0 120 -64.5 193.5t-180.5 73.5q-106 0 -179 -77t-103 -239zM205 663l35 193q45 254 210.5 393.5t417.5 139.5q256 0 412.5 -143t156.5 -389
q0 -93 -11 -154l-36 -193q-48 -256 -209.5 -395t-424.5 -139q-249 0 -405.5 141t-156.5 383q0 99 11 163zM666 1771h181q-8 -63 32 -100t115 -37q77 0 123 37t57 100h180q-22 -142 -120 -224t-267 -82q-151 0 -241 88t-60 218z" />
    <glyph glyph-name="obreve" unicode="&#x14f;" horiz-adv-x="1192" 
d="M504 1504h178q-2 -60 36.5 -103.5t110.5 -43.5q70 0 113 41.5t48 105.5h178q-8 -140 -101.5 -229t-240.5 -89q-151 0 -240.5 93t-81.5 225zM505 613l-16 -98q-8 -54 -8 -89q0 -85 44 -139.5t126 -54.5q83 0 133.5 63t67.5 168l16 102q6 50 6 88q0 82 -43.5 134.5
t-123.5 52.5q-83 0 -134.5 -61t-67.5 -166zM158 575l16 86q36 192 177 310t354 118q144 0 256.5 -51t180 -157t67.5 -253q0 -73 -10 -129l-18 -86q-40 -195 -178 -312t-358 -117q-105 0 -194.5 29.5t-157.5 85t-107 143t-39 196.5q0 82 11 137z" />
    <glyph glyph-name="Ohungarumlaut" unicode="&#x150;" horiz-adv-x="1394" 
d="M616 1495l311 249h279l-358 -249h-232zM1039 1495l310 249h280l-358 -249h-232zM572 799l-27 -146q-11 -69 -11 -127q0 -122 64 -195.5t182 -73.5q108 0 180.5 79.5t101.5 241.5l27 151q10 60 10 119q0 120 -64.5 193.5t-180.5 73.5q-106 0 -179 -77t-103 -239zM205 663
l35 193q45 254 210.5 393.5t417.5 139.5q256 0 412.5 -143t156.5 -389q0 -93 -11 -154l-36 -193q-48 -256 -209.5 -395t-424.5 -139q-249 0 -405.5 141t-156.5 383q0 99 11 163z" />
    <glyph glyph-name="ohungarumlaut" unicode="&#x151;" horiz-adv-x="1192" 
d="M677 1232h-179l289 325h262zM1064 1232h-180l291 325h260zM505 613l-16 -98q-8 -54 -8 -89q0 -85 44 -139.5t126 -54.5q83 0 133.5 63t67.5 168l16 102q6 50 6 88q0 82 -43.5 134.5t-123.5 52.5q-83 0 -134.5 -61t-67.5 -166zM158 575l16 86q36 192 177 310t354 118
q144 0 256.5 -51t180 -157t67.5 -253q0 -73 -10 -129l-18 -86q-40 -195 -178 -312t-358 -117q-105 0 -194.5 29.5t-157.5 85t-107 143t-39 196.5q0 82 11 137z" />
    <glyph glyph-name="OE" unicode="&#x152;" horiz-adv-x="2019" 
d="M220 634l28 159q48 275 231 428t464 153q77 0 219 -23.5t156 -56.5l13 71h817l-48 -267h-584l-51 -289h548l-43 -246h-548l-53 -295h585l-47 -268h-818l8 41q-19 -24 -144.5 -37t-196.5 -13q-258 0 -403.5 124t-145.5 358q0 88 13 161zM593 788l-28 -162
q-10 -51 -10 -105q0 -128 75 -199.5t188 -71.5q66 0 140 34.5t83 88.5l57 324q0 3 12.5 77t23.5 143.5t11 72.5q0 32 -41.5 61.5t-94 45.5t-92.5 16q-117 0 -206.5 -85t-117.5 -240z" />
    <glyph glyph-name="oe" unicode="&#x153;" horiz-adv-x="1865" 
d="M1367 -22q-125 0 -217 47.5t-131 128.5h-15q-44 -75 -141 -122.5t-226 -47.5q-97 0 -181.5 27.5t-151 82t-105 144.5t-38.5 207q0 64 10 124l18 103q33 188 166 302.5t335 114.5q127 0 227 -46t146 -125h15q55 81 150 126t213 45q205 0 330.5 -129.5t117.5 -329.5
q0 -46 -25 -163h-661q0 -3 -2 -16.5t-3 -18.5q-3 -23 -3 -43q0 -75 44.5 -122t131.5 -47q67 0 111 27.5t56 78.5h305q-15 -142 -151 -245t-325 -103zM515 613l-16 -98q-8 -54 -8 -89q0 -85 44 -139.5t125 -54.5q84 0 134.5 62.5t67.5 168.5l16 102q6 46 6 85q0 84 -43.5 137
t-123.5 53q-83 0 -134 -60.5t-68 -166.5zM1578 645q3 15 3 33q8 75 -31 125t-118 50q-71 0 -120 -43.5t-68 -125.5l-9 -39h343z" />
    <glyph glyph-name="Racute" unicode="&#x154;" horiz-adv-x="1319" 
d="M669 1495l293 231h340l-339 -231h-294zM470 0h-338l240 1365h552q211 0 330.5 -103.5t119.5 -288.5q0 -29 -4 -63q-14 -144 -94 -246.5t-212 -150.5l177 -513h-353l-151 470q-9 -1 -51 -1h-134zM842 1109h-176l-71 -393h182q111 0 176 50.5t77 137.5q3 33 3 44
q0 82 -53.5 121.5t-137.5 39.5z" />
    <glyph glyph-name="racute" unicode="&#x155;" horiz-adv-x="845" 
d="M744 1215h-241l251 329h295zM110 0l189 1069h309l-31 -175h17q25 81 93.5 136t170.5 55q76 0 127 -27l-58 -284q-21 11 -61.5 20.5t-76.5 9.5q-114 0 -174.5 -71t-83.5 -198l-94 -535h-327z" />
    <glyph glyph-name="Rcommaaccent" unicode="&#x156;" horiz-adv-x="1319" 
d="M470 0h-338l240 1365h552q211 0 330.5 -103.5t119.5 -288.5q0 -29 -4 -63q-14 -144 -94 -246.5t-212 -150.5l177 -513h-353l-151 470q-9 -1 -51 -1h-134zM842 1109h-176l-71 -393h182q111 0 176 50.5t77 137.5q3 33 3 44q0 82 -53.5 121.5t-137.5 39.5zM577 -475h-206
l83 326h234z" />
    <glyph glyph-name="rcommaaccent" unicode="&#x157;" horiz-adv-x="845" 
d="M110 0l189 1069h309l-31 -175h17q25 81 93.5 136t170.5 55q76 0 127 -27l-58 -284q-21 11 -61.5 20.5t-76.5 9.5q-114 0 -174.5 -71t-83.5 -198l-94 -535h-327zM270 -475h-206l83 326h234z" />
    <glyph glyph-name="Rcaron" unicode="&#x158;" horiz-adv-x="1319" 
d="M470 0h-338l240 1365h552q211 0 330.5 -103.5t119.5 -288.5q0 -29 -4 -63q-14 -144 -94 -246.5t-212 -150.5l177 -513h-353l-151 470q-9 -1 -51 -1h-134zM842 1109h-176l-71 -393h182q111 0 176 50.5t77 137.5q3 33 3 44q0 82 -53.5 121.5t-137.5 39.5zM1282 1729
l-286 -244h-253l-224 244h249l102 -116h18l135 116h259z" />
    <glyph glyph-name="rcaron" unicode="&#x159;" horiz-adv-x="845" 
d="M559 1204l-194 342h230l96 -194h17l151 194h239l-302 -342h-237zM110 0l189 1069h309l-31 -175h17q25 81 93.5 136t170.5 55q76 0 127 -27l-58 -284q-21 11 -61.5 20.5t-76.5 9.5q-114 0 -174.5 -71t-83.5 -198l-94 -535h-327z" />
    <glyph glyph-name="Sacute" unicode="&#x15a;" horiz-adv-x="1257" 
d="M701 1495l293 231h340l-339 -231h-294zM135 417h314q-2 -10 -2 -20q0 -73 68 -120t167 -47q86 0 150 37.5t64 108.5q0 26 -10.5 47t-25.5 35.5t-43 28.5t-51.5 22.5t-61.5 20.5l-123 40q-70 22 -124.5 51.5t-102 74t-73.5 108.5t-26 144q0 138 73 239.5t194 151.5t274 50
q227 0 368 -111t141 -279q0 -17 -3 -38h-303q1 2 1 16q0 73 -60.5 114.5t-145.5 41.5q-83 0 -138.5 -39t-55.5 -103q0 -55 48 -92.5t140 -66.5l135 -42q67 -21 117 -46.5t98.5 -66.5t74.5 -104t26 -145q0 -142 -77 -246t-204 -155t-288 -51q-83 0 -161 15t-147 47t-120 78.5
t-81 112.5t-30 145q0 26 4 43z" />
    <glyph glyph-name="sacute" unicode="&#x15b;" horiz-adv-x="1077" 
d="M226 745q0 154 114.5 249t326.5 95q196 0 319.5 -86t123.5 -220q0 -24 -2 -36h-281q1 4 1 18q0 42 -42.5 75t-112.5 33q-65 0 -101.5 -28.5t-36.5 -70.5q0 -21 10 -37.5t24.5 -27t41 -21t48 -16.5t58.5 -16.5t60 -17.5q132 -42 205 -112t73 -190q0 -115 -69.5 -196.5
t-176 -118.5t-236.5 -37q-87 0 -167 20t-146 58.5t-105 102t-39 143.5q0 27 2 35h288v-21q4 -55 52 -87t122 -32q71 0 111.5 28.5t40.5 73.5q0 11 -2.5 21t-9 18.5t-13 15t-19.5 13l-22 11t-27.5 10.5t-30 9.5t-34 10.5t-35.5 11q-47 14 -82.5 28t-82 41t-76 58.5t-51 82
t-21.5 110.5zM820 1215h-241l251 329h295z" />
    <glyph glyph-name="Scircumflex" unicode="&#x15c;" horiz-adv-x="1257" 
d="M135 417h314q-2 -10 -2 -20q0 -73 68 -120t167 -47q86 0 150 37.5t64 108.5q0 26 -10.5 47t-25.5 35.5t-43 28.5t-51.5 22.5t-61.5 20.5l-123 40q-70 22 -124.5 51.5t-102 74t-73.5 108.5t-26 144q0 138 73 239.5t194 151.5t274 50q227 0 368 -111t141 -279q0 -17 -3 -38
h-303q1 2 1 16q0 73 -60.5 114.5t-145.5 41.5q-83 0 -138.5 -39t-55.5 -103q0 -55 48 -92.5t140 -66.5l135 -42q67 -21 117 -46.5t98.5 -66.5t74.5 -104t26 -145q0 -142 -77 -246t-204 -155t-288 -51q-83 0 -161 15t-147 47t-120 78.5t-81 112.5t-30 145q0 26 4 43z
M512 1478l284 247h258l215 -247h-242l-105 122h-19l-140 -122h-251z" />
    <glyph glyph-name="scircumflex" unicode="&#x15d;" horiz-adv-x="1077" 
d="M388 1226l312 342h236l184 -342h-237l-84 195h-17l-163 -195h-231zM226 745q0 154 114.5 249t326.5 95q196 0 319.5 -86t123.5 -220q0 -24 -2 -36h-281q1 4 1 18q0 42 -42.5 75t-112.5 33q-65 0 -101.5 -28.5t-36.5 -70.5q0 -21 10 -37.5t24.5 -27t41 -21t48 -16.5
t58.5 -16.5t60 -17.5q132 -42 205 -112t73 -190q0 -115 -69.5 -196.5t-176 -118.5t-236.5 -37q-87 0 -167 20t-146 58.5t-105 102t-39 143.5q0 27 2 35h288v-21q4 -55 52 -87t122 -32q71 0 111.5 28.5t40.5 73.5q0 11 -2.5 21t-9 18.5t-13 15t-19.5 13l-22 11t-27.5 10.5
t-30 9.5t-34 10.5t-35.5 11q-47 14 -82.5 28t-82 41t-76 58.5t-51 82t-21.5 110.5z" />
    <glyph glyph-name="Scedilla" unicode="&#x15e;" horiz-adv-x="1257" 
d="M584 -479q-96 0 -151 20l24 133q48 -15 117 -15q96 0 101 50q1 3 1 9q0 26 -26.5 37.5t-85.5 11.5h-55l11 73l32 146q-180 26 -296 126.5t-116 261.5q0 26 4 43h314q-2 -10 -2 -20q0 -73 68 -120t168 -47q86 0 149.5 37.5t63.5 108.5q0 26 -10.5 47t-25.5 35.5t-43 28.5
t-51.5 22.5t-61.5 20.5l-123 40q-70 22 -124 51.5t-102 74t-74 108.5t-26 144q0 138 73.5 239.5t194.5 151.5t273 50q227 0 368 -111t141 -279q0 -17 -3 -38h-303q1 2 1 16q0 73 -60.5 114.5t-145.5 41.5q-83 0 -138.5 -39t-55.5 -103q0 -55 48 -92.5t141 -66.5l134 -42
q67 -21 117 -46.5t98.5 -66.5t74.5 -104t26 -145q0 -134 -69 -234.5t-184.5 -154t-263.5 -61.5l-20 -85q71 -1 114 -40.5t43 -107.5q0 -14 -3 -29q-12 -97 -85.5 -146t-195.5 -49z" />
    <glyph glyph-name="scedilla" unicode="&#x15f;" horiz-adv-x="1077" 
d="M492 -479q-96 0 -151 20l24 133q48 -15 117 -15q96 0 101 50q1 3 1 9q0 26 -26.5 37.5t-85.5 11.5h-56l11 73l35 153q-148 24 -243 105t-95 210q0 27 2 35h288v-21q4 -55 52 -87t122 -32q71 0 111.5 28.5t40.5 73.5q0 11 -2.5 21t-9 18.5t-13 15t-19.5 13l-22 11
t-27.5 10.5t-30 9.5t-34 10.5t-35.5 11q-47 14 -82.5 28t-82 41t-76 58.5t-51 82t-21.5 110.5q0 154 114.5 249t326.5 95q196 0 319.5 -86t123.5 -220q0 -24 -2 -36h-281q1 4 1 18q0 42 -42.5 75t-112.5 33q-65 0 -101.5 -28.5t-36.5 -70.5q0 -21 10 -37.5t24.5 -27t41 -21
t48 -16.5t58.5 -16.5t60 -17.5q132 -42 205 -112t73 -190q0 -106 -58.5 -184t-152 -117.5t-211.5 -47.5l-22 -94q71 -1 114 -40.5t43 -107.5q0 -14 -3 -29q-12 -97 -85.5 -146t-195.5 -49z" />
    <glyph glyph-name="Scaron" unicode="&#x160;" horiz-adv-x="1257" 
d="M135 417h314q-2 -10 -2 -20q0 -73 68 -120t167 -47q86 0 150 37.5t64 108.5q0 26 -10.5 47t-25.5 35.5t-43 28.5t-51.5 22.5t-61.5 20.5l-123 40q-70 22 -124.5 51.5t-102 74t-73.5 108.5t-26 144q0 138 73 239.5t194 151.5t274 50q227 0 368 -111t141 -279q0 -17 -3 -38
h-303q1 2 1 16q0 73 -60.5 114.5t-145.5 41.5q-83 0 -138.5 -39t-55.5 -103q0 -55 48 -92.5t140 -66.5l135 -42q67 -21 117 -46.5t98.5 -66.5t74.5 -104t26 -145q0 -142 -77 -246t-204 -155t-288 -51q-83 0 -161 15t-147 47t-120 78.5t-81 112.5t-30 145q0 26 4 43z
M1314 1729l-286 -244h-253l-224 244h249l102 -116h18l135 116h259z" />
    <glyph glyph-name="scaron" unicode="&#x161;" horiz-adv-x="1077" 
d="M635 1204l-194 342h230l96 -194h17l151 194h239l-302 -342h-237zM226 745q0 154 114.5 249t326.5 95q196 0 319.5 -86t123.5 -220q0 -24 -2 -36h-281q1 4 1 18q0 42 -42.5 75t-112.5 33q-65 0 -101.5 -28.5t-36.5 -70.5q0 -21 10 -37.5t24.5 -27t41 -21t48 -16.5
t58.5 -16.5t60 -17.5q132 -42 205 -112t73 -190q0 -115 -69.5 -196.5t-176 -118.5t-236.5 -37q-87 0 -167 20t-146 58.5t-105 102t-39 143.5q0 27 2 35h288v-21q4 -55 52 -87t122 -32q71 0 111.5 28.5t40.5 73.5q0 11 -2.5 21t-9 18.5t-13 15t-19.5 13l-22 11t-27.5 10.5
t-30 9.5t-34 10.5t-35.5 11q-47 14 -82.5 28t-82 41t-76 58.5t-51 82t-21.5 110.5z" />
    <glyph glyph-name="Tcedilla" unicode="&#x162;" horiz-adv-x="1126" 
d="M484 0h-83l194 1088h-370l49 277h1061l-49 -277h-355l-192 -1088h-74l-26 -107q71 -1 114 -40.5t43 -107.5q0 -14 -3 -29q-12 -97 -85.5 -146t-195.5 -49q-95 0 -150 20l23 133q50 -15 118 -15q95 0 100 50q1 3 1 9q0 26 -26.5 37.5t-85.5 11.5h-55l11 73z" />
    <glyph glyph-name="tcedilla" unicode="&#x163;" horiz-adv-x="812" 
d="M408 -457q-96 0 -151 20l24 133q48 -15 117 -15q96 0 101 50v9q0 26 -26 37.5t-85 11.5h-56l11 73l37 161q-146 52 -146 204q0 43 10 92l85 484h-149l43 244h152l48 269h314l-47 -269h219l-42 -244h-214l-72 -405q-9 -49 -9 -66q0 -51 29.5 -74.5t93.5 -23.5q55 0 93 8
l-42 -231q-55 -16 -167 -16q-17 0 -24 1l-20 -81q71 -1 114 -40.5t43 -107.5q0 -14 -3 -29q-12 -97 -86 -146t-195 -49z" />
    <glyph glyph-name="Tcaron" unicode="&#x164;" horiz-adv-x="1126" 
d="M1254 1729l-286 -244h-253l-224 244h249l102 -116h18l135 116h259zM739 0h-338l194 1088h-370l49 277h1061l-49 -277h-355z" />
    <glyph glyph-name="tcaron" unicode="&#x165;" horiz-adv-x="900" 
d="M925 1672h267l-148 -491h-213zM350 1047l48 269h314l-47 -269h219l-43 -244h-214l-71 -405q-9 -49 -9 -66q0 -51 29.5 -74.5t93.5 -23.5q54 0 92 8l-42 -231q-55 -16 -166 -16q-345 0 -345 232q0 41 9 92l86 484h-150l43 244h153z" />
    <glyph glyph-name="Tbar" unicode="&#x166;" horiz-adv-x="1126" 
d="M1059 564h-221l-99 -564h-338l101 564h-232l34 197h232l59 327h-370l49 277h1061l-49 -277h-355l-58 -327h220z" />
    <glyph glyph-name="tbar" unicode="&#x167;" horiz-adv-x="812" 
d="M746 11q-55 -16 -167 -16q-345 0 -345 232q0 43 10 92l27 154h-135l30 173h136l27 157h-149l43 244h152l48 269h314l-47 -269h219l-42 -244h-214l-28 -157h185l-31 -173h-185l-13 -75q-9 -49 -9 -66q0 -51 29.5 -74.5t93.5 -23.5q55 0 93 8z" />
    <glyph glyph-name="Utilde" unicode="&#x168;" horiz-adv-x="1406" 
d="M701 1365l-143 -815q-7 -35 -7 -75q0 -95 60 -151.5t164 -56.5q198 0 239 228l154 870h339l-166 -951q-37 -209 -194.5 -322.5t-391.5 -113.5q-112 0 -209.5 28.5t-173.5 83t-120 142t-44 197.5q0 45 10 111l144 825h339zM940 1507q-4 4 -14.5 14t-16.5 15t-15.5 12
t-20 10t-21.5 3q-65 0 -71 -86h-165q0 94 54.5 166t151.5 72q56 0 91 -15.5t74 -49.5q7 -6 18 -16t17.5 -15t15.5 -11.5t18 -9t19 -2.5q34 0 50.5 30.5t17.5 72.5h166q0 -103 -61 -174.5t-153 -71.5q-61 0 -93.5 14.5t-61.5 41.5z" />
    <glyph glyph-name="utilde" unicode="&#x169;" horiz-adv-x="1232" 
d="M1287 1069l-188 -1069h-316l30 163h-18q-39 -77 -116 -128t-189 -51q-146 0 -235 85t-89 234q0 86 18 183l105 583h328l-101 -576q-10 -53 -10 -105q0 -72 40 -110t103 -38q166 0 206 230l105 599h327zM941 1142q-46 0 -77.5 18t-62.5 51q-5 5 -19.5 21t-21.5 22.5
t-21 13t-29 6.5q-54 0 -68 -85h-156q4 114 61 191.5t154 77.5q34 0 64.5 -13.5t47.5 -27.5t42 -40q4 -4 12 -14t12 -14l11 -11t12 -10.5t12 -7.5t14 -5.5t15 -1.5q57 0 69 97h156q-6 -115 -68 -191.5t-159 -76.5z" />
    <glyph glyph-name="Umacron" unicode="&#x16a;" horiz-adv-x="1406" 
d="M701 1365l-143 -815q-7 -35 -7 -75q0 -95 60 -151.5t164 -56.5q198 0 239 228l154 870h339l-166 -951q-37 -209 -194.5 -322.5t-391.5 -113.5q-112 0 -209.5 28.5t-173.5 83t-120 142t-44 197.5q0 45 10 111l144 825h339zM1319 1629l-25 -145h-680l25 145h680z" />
    <glyph glyph-name="umacron" unicode="&#x16b;" horiz-adv-x="1232" 
d="M1287 1069l-188 -1069h-316l30 163h-18q-39 -77 -116 -128t-189 -51q-146 0 -235 85t-89 234q0 86 18 183l105 583h328l-101 -576q-10 -53 -10 -105q0 -72 40 -110t103 -38q166 0 206 230l105 599h327zM1187 1370l-26 -144h-680l26 144h680z" />
    <glyph glyph-name="Ubreve" unicode="&#x16c;" horiz-adv-x="1406" 
d="M701 1365l-143 -815q-7 -35 -7 -75q0 -95 60 -151.5t164 -56.5q198 0 239 228l154 870h339l-166 -951q-37 -209 -194.5 -322.5t-391.5 -113.5q-112 0 -209.5 28.5t-173.5 83t-120 142t-44 197.5q0 45 10 111l144 825h339zM671 1771h181q-8 -63 32 -100t115 -37
q77 0 123 37t57 100h180q-22 -142 -120 -224t-267 -82q-151 0 -241 88t-60 218z" />
    <glyph glyph-name="ubreve" unicode="&#x16d;" horiz-adv-x="1232" 
d="M1287 1069l-188 -1069h-316l30 163h-18q-39 -77 -116 -128t-189 -51q-146 0 -235 85t-89 234q0 86 18 183l105 583h328l-101 -576q-10 -53 -10 -105q0 -72 40 -110t103 -38q166 0 206 230l105 599h327zM526 1504h178q-2 -60 36.5 -103.5t110.5 -43.5q70 0 113 41.5
t48 105.5h178q-8 -140 -101.5 -229t-240.5 -89q-151 0 -240.5 93t-81.5 225z" />
    <glyph glyph-name="Uring" unicode="&#x16e;" horiz-adv-x="1406" 
d="M701 1365l-143 -815q-7 -35 -7 -75q0 -95 60 -151.5t164 -56.5q198 0 239 228l154 870h339l-166 -951q-37 -209 -194.5 -322.5t-391.5 -113.5q-112 0 -209.5 28.5t-173.5 83t-120 142t-44 197.5q0 45 10 111l144 825h339zM998 1620q38 0 64.5 25.5t26.5 62.5
q0 38 -26.5 63t-64.5 25t-64.5 -25.5t-26.5 -62.5t26.5 -62.5t64.5 -25.5zM994 1482q-98 0 -162 65.5t-64 159.5q0 97 69 161.5t165 64.5t160.5 -65.5t64.5 -159.5q0 -97 -68.5 -161.5t-164.5 -64.5z" />
    <glyph glyph-name="uring" unicode="&#x16f;" horiz-adv-x="1232" 
d="M1287 1069l-188 -1069h-316l30 163h-18q-39 -77 -116 -128t-189 -51q-146 0 -235 85t-89 234q0 86 18 183l105 583h328l-101 -576q-10 -53 -10 -105q0 -72 40 -110t103 -38q166 0 206 230l105 599h327zM859 1324q38 0 64.5 25.5t26.5 62.5q0 38 -26.5 63t-64.5 25
t-64.5 -25.5t-26.5 -62.5t26.5 -62.5t64.5 -25.5zM855 1186q-98 0 -162 65.5t-64 159.5q0 97 69 161.5t165 64.5t160.5 -65.5t64.5 -159.5q0 -97 -68.5 -161.5t-164.5 -64.5z" />
    <glyph glyph-name="Uhungarumlaut" unicode="&#x170;" horiz-adv-x="1406" 
d="M701 1365l-143 -815q-7 -35 -7 -75q0 -95 60 -151.5t164 -56.5q198 0 239 228l154 870h339l-166 -951q-37 -209 -194.5 -322.5t-391.5 -113.5q-112 0 -209.5 28.5t-173.5 83t-120 142t-44 197.5q0 45 10 111l144 825h339zM621 1495l311 249h279l-358 -249h-232z
M1044 1495l310 249h280l-358 -249h-232z" />
    <glyph glyph-name="uhungarumlaut" unicode="&#x171;" horiz-adv-x="1232" 
d="M699 1232h-179l289 325h262zM1086 1232h-180l291 325h260zM1287 1069l-188 -1069h-316l30 163h-18q-39 -77 -116 -128t-189 -51q-146 0 -235 85t-89 234q0 86 18 183l105 583h328l-101 -576q-10 -53 -10 -105q0 -72 40 -110t103 -38q166 0 206 230l105 599h327z" />
    <glyph glyph-name="Uogonek" unicode="&#x172;" horiz-adv-x="1406" 
d="M1106 66q-44 -37 -63.5 -55t-41.5 -50t-28 -64q-9 -49 19.5 -73t82.5 -24q46 0 76 9l-31 -179q-92 -23 -161 -21q-120 2 -178.5 62t-43.5 153q17 101 118 171l2 18q-78 -32 -180 -32q-93 0 -177.5 30t-150 85t-104.5 140t-39 187q0 62 10 117l144 825h339l-143 -815
q-7 -35 -7 -74q0 -95 60 -152t162 -57q200 0 241 228l153 870h339l-166 -951q-19 -111 -76.5 -189t-155.5 -159z" />
    <glyph glyph-name="uogonek" unicode="&#x173;" horiz-adv-x="1232" 
d="M1089 -197l-30 -175q-63 -19 -156 -19q-123 0 -192 50.5t-67 140.5q4 119 152 214l26 149h-17q-40 -78 -117 -128.5t-190 -50.5q-147 0 -234.5 85t-87.5 244q0 76 18 173l105 583h328l-101 -576q-10 -53 -10 -101q0 -77 40 -114.5t107 -37.5q162 0 202 230l105 599h327
l-178 -1010q-95 -20 -156 -69.5t-63 -103.5q-2 -41 28 -65.5t82 -24.5q51 0 79 7z" />
    <glyph glyph-name="Wcircumflex" unicode="&#x174;" horiz-adv-x="1833" 
d="M801 1478l284 247h258l215 -247h-242l-105 122h-19l-140 -122h-251zM673 0h-324l-99 1365h349l8 -931h17l385 931h267l65 -931h17l334 931h351l-579 -1365h-320l-80 848h-15z" />
    <glyph glyph-name="wcircumflex" unicode="&#x175;" horiz-adv-x="1586" 
d="M632 1226l312 342h236l184 -342h-237l-84 195h-17l-163 -195h-231zM1740 1069l-451 -1069h-348l-44 726h-12l-279 -726h-349l-99 1069h322l9 -777h14l290 777h305l36 -777h14l267 777h325z" />
    <glyph glyph-name="Ycircumflex" unicode="&#x176;" horiz-adv-x="1206" 
d="M844 476l-83 -476h-337l83 467l-306 898h361l160 -569h14l361 569h361zM487 1478l284 247h258l215 -247h-242l-105 122h-19l-140 -122h-251z" />
    <glyph glyph-name="ycircumflex" unicode="&#x177;" horiz-adv-x="1095" 
d="M1253 1069l-507 -1051q-4 -9 -15 -30t-12 -22q-65 -121 -132.5 -189.5t-163.5 -103.5t-235 -35q-88 0 -163 15l44 236q49 -11 94 -11q130 0 170 92l20 51l-161 1048h330l69 -795h15l303 795h344zM409 1226l312 342h236l184 -342h-237l-84 195h-17l-163 -195h-231z" />
    <glyph glyph-name="Ydieresis" unicode="&#x178;" horiz-adv-x="1206" 
d="M844 476l-83 -476h-337l83 467l-306 898h361l160 -569h14l361 569h361zM549 1577q0 61 34.5 95t95.5 34q62 0 99 -34t37 -95q0 -56 -37 -88.5t-99 -32.5q-61 0 -95.5 32.5t-34.5 88.5zM950 1577q0 61 36.5 95t97.5 34q62 0 97 -34t35 -95q0 -56 -35 -88.5t-97 -32.5
q-61 0 -97.5 32.5t-36.5 88.5z" />
    <glyph glyph-name="Zacute" unicode="&#x179;" horiz-adv-x="1228" 
d="M703 1495l293 231h340l-339 -231h-294zM111 0l37 220l750 860l1 18h-594l46 267h1006l-38 -222l-750 -859l-1 -17h623l-48 -267h-1032z" />
    <glyph glyph-name="zacute" unicode="&#x17a;" horiz-adv-x="1024" 
d="M803 1215h-241l251 329h295zM77 0l33 187l583 626l3 16h-474l45 240h865l-36 -210l-557 -602l-3 -15h463l-44 -242h-878z" />
    <glyph glyph-name="Zdotaccent" unicode="&#x17b;" horiz-adv-x="1228" 
d="M111 0l37 220l750 860l1 18h-594l46 267h1006l-38 -222l-750 -859l-1 -17h623l-48 -267h-1032zM774 1614q0 60 40 99.5t96 39.5q60 0 100.5 -39.5t40.5 -99.5q0 -58 -40.5 -97t-100.5 -39q-56 0 -96 39.5t-40 96.5z" />
    <glyph glyph-name="zdotaccent" unicode="&#x17c;" horiz-adv-x="1024" 
d="M612 1318q0 60 40 99.5t96 39.5q60 0 100.5 -39.5t40.5 -99.5q0 -58 -40.5 -97t-100.5 -39q-56 0 -96 39.5t-40 96.5zM77 0l33 187l583 626l3 16h-474l45 240h865l-36 -210l-557 -602l-3 -15h463l-44 -242h-878z" />
    <glyph glyph-name="Zcaron" unicode="&#x17d;" horiz-adv-x="1228" 
d="M111 0l37 220l750 860l1 18h-594l46 267h1006l-38 -222l-750 -859l-1 -17h623l-48 -267h-1032zM1316 1729l-286 -244h-253l-224 244h249l102 -116h18l135 116h259z" />
    <glyph glyph-name="zcaron" unicode="&#x17e;" horiz-adv-x="1024" 
d="M618 1204l-194 342h230l96 -194h17l151 194h239l-302 -342h-237zM77 0l33 187l583 626l3 16h-474l45 240h865l-36 -210l-557 -602l-3 -15h463l-44 -242h-878z" />
    <glyph glyph-name="florin" unicode="&#x192;" horiz-adv-x="1240" 
d="M265 -186l149 797h-178l43 262h179l24 142q35 197 152.5 284.5t332.5 87.5q91 0 162 -20.5t115 -54t70.5 -80.5t35 -97.5t3.5 -107.5h-298q3 46 -20 80.5t-73 34.5q-101 0 -124 -128l-24 -141h294l-45 -262h-294l-147 -797h-357z" />
    <glyph glyph-name="Ohorn" unicode="&#x1a0;" horiz-adv-x="1557" 
d="M574 799l-27 -146q-12 -66 -12 -127q0 -121 64 -195t182 -74q109 0 181.5 79.5t101.5 241.5l27 151q9 54 9 119q0 120 -64 193.5t-181 73.5q-105 0 -178.5 -77t-102.5 -239zM1392 510q-48 -256 -210 -395t-424 -139q-249 0 -405.5 141t-156.5 383q0 99 11 163l34 193
q46 254 211 393t418 139q124 0 245 -32q124 -29 180 -29q81 0 114.5 32.5t44.5 94.5l24 137h251l-30 -181q-51 -296 -317 -294h-3q60 -114 60 -259q0 -93 -11 -154z" />
    <glyph glyph-name="ohorn" unicode="&#x1a1;" horiz-adv-x="1288" 
d="M655 -16q-140 0 -251 50t-179 154.5t-68 249.5q0 82 11 137l16 86q36 192 177.5 310t354.5 118q63 0 168 -14.5t136 -14.5q57 0 85.5 26t39.5 82l28 158h251l-35 -199q-22 -125 -70.5 -188.5t-147.5 -83.5l-2 -10q50 -98 50 -217q0 -73 -10 -129l-17 -86
q-41 -195 -179 -312t-358 -117zM515 613l-15 -98q-9 -49 -9 -89q0 -84 44.5 -139t125.5 -55q83 0 133.5 63t67.5 168l16 102q6 37 6 88q0 82 -43.5 134.5t-123.5 52.5q-83 0 -134.5 -61t-67.5 -166z" />
    <glyph glyph-name="Uhorn" unicode="&#x1af;" horiz-adv-x="1660" 
d="M761 -22q-112 0 -209.5 28.5t-173.5 83t-120 142t-44 197.5q0 45 10 111l145 825h338l-143 -815q-6 -40 -6 -75q0 -95 60 -151.5t164 -56.5q93 0 155.5 55.5t82.5 172.5l155 870h321q54 0 81.5 26t37.5 81l24 140h251l-32 -184q-22 -127 -109 -210t-215 -83h-61
l-126 -721q-37 -209 -194.5 -322.5t-391.5 -113.5z" />
    <glyph glyph-name="uhorn" unicode="&#x1b0;" horiz-adv-x="1391" 
d="M805 163q-39 -77 -116 -128t-189 -51q-146 0 -235 85t-89 234q0 86 18 183l105 583h328l-101 -576q-10 -53 -10 -105q0 -72 40 -110t103 -38q166 0 206 230l105 599h286q52 0 72.5 24.5t31.5 83.5l27 149h251l-35 -200q-25 -142 -107 -214t-216 -72h-24l-148 -840h-314
l28 163h-17z" />
    <glyph glyph-name="Acaron" unicode="&#x1cd;" horiz-adv-x="1314" 
d="M2 0l673 1365h415l198 -1365h-361l-31 309h-412l-140 -309h-342zM835 1064h-18l-228 -511h291zM1334 1729l-286 -244h-253l-224 244h249l102 -116h18l135 116h259z" />
    <glyph glyph-name="acaron" unicode="&#x1ce;" horiz-adv-x="1136" 
d="M440 -16q-138 0 -227.5 81.5t-89.5 222.5q0 9 1 15q4 159 123.5 242t314.5 83h241l13 75q3 24 3 31q0 50 -37 83.5t-103 33.5q-56 0 -92.5 -25t-46.5 -67h-306q8 64 40 121t87 105t142 76t196 28q201 0 317.5 -95t116.5 -268q0 -39 -10 -96l-111 -630h-305l25 135h-17
q-31 -63 -101.5 -107t-173.5 -44zM448 331q0 -52 36.5 -85t94.5 -33q62 0 111.5 36.5t61.5 94.5l20 110h-164q-76 0 -118 -34.5t-42 -88.5zM654 1204l-194 342h230l96 -194h17l151 194h239l-302 -342h-237z" />
    <glyph glyph-name="Icaron" unicode="&#x1cf;" horiz-adv-x="617" 
d="M466 0h-336l240 1365h337zM996 1729l-286 -244h-253l-224 244h249l102 -116h18l135 116h259z" />
    <glyph glyph-name="icaron" unicode="&#x1d0;" horiz-adv-x="635" 
d="M410 1204l-194 342h230l96 -194h17l151 194h239l-302 -342h-237zM139 0l189 1069h327l-190 -1069h-326z" />
    <glyph glyph-name="Ocaron" unicode="&#x1d1;" horiz-adv-x="1394" 
d="M1379 1729l-286 -244h-253l-224 244h249l102 -116h18l135 116h259zM572 799l-27 -146q-11 -69 -11 -127q0 -122 64 -195.5t182 -73.5q108 0 180.5 79.5t101.5 241.5l27 151q10 60 10 119q0 120 -64.5 193.5t-180.5 73.5q-106 0 -179 -77t-103 -239zM205 663l35 193
q45 254 210.5 393.5t417.5 139.5q256 0 412.5 -143t156.5 -389q0 -93 -11 -154l-36 -193q-48 -256 -209.5 -395t-424.5 -139q-249 0 -405.5 141t-156.5 383q0 99 11 163z" />
    <glyph glyph-name="ocaron" unicode="&#x1d2;" horiz-adv-x="1192" 
d="M688 1204l-194 342h230l96 -194h17l151 194h239l-302 -342h-237zM505 613l-16 -98q-8 -54 -8 -89q0 -85 44 -139.5t126 -54.5q83 0 133.5 63t67.5 168l16 102q6 50 6 88q0 82 -43.5 134.5t-123.5 52.5q-83 0 -134.5 -61t-67.5 -166zM158 575l16 86q36 192 177 310
t354 118q144 0 256.5 -51t180 -157t67.5 -253q0 -73 -10 -129l-18 -86q-40 -195 -178 -312t-358 -117q-105 0 -194.5 29.5t-157.5 85t-107 143t-39 196.5q0 82 11 137z" />
    <glyph glyph-name="Ucaron" unicode="&#x1d3;" horiz-adv-x="1406" 
d="M1384 1729l-286 -244h-253l-224 244h249l102 -116h18l135 116h259zM701 1365l-143 -815q-7 -35 -7 -75q0 -95 60 -151.5t164 -56.5q198 0 239 228l154 870h339l-166 -951q-37 -209 -194.5 -322.5t-391.5 -113.5q-112 0 -209.5 28.5t-173.5 83t-120 142t-44 197.5
q0 45 10 111l144 825h339z" />
    <glyph glyph-name="ucaron" unicode="&#x1d4;" horiz-adv-x="1232" 
d="M710 1204l-194 342h230l96 -194h17l151 194h239l-302 -342h-237zM1287 1069l-188 -1069h-316l30 163h-18q-39 -77 -116 -128t-189 -51q-146 0 -235 85t-89 234q0 86 18 183l105 583h328l-101 -576q-10 -53 -10 -105q0 -72 40 -110t103 -38q166 0 206 230l105 599h327z
" />
    <glyph glyph-name="Udieresismacron" unicode="&#x1d5;" horiz-adv-x="1406" 
d="M644 1577q0 61 34.5 95t95.5 34q62 0 99 -34t37 -95q0 -56 -37 -88.5t-99 -32.5q-61 0 -95.5 32.5t-34.5 88.5zM1045 1577q0 61 36.5 95t97.5 34q62 0 97 -34t35 -95q0 -56 -35 -88.5t-97 -32.5q-61 0 -97.5 32.5t-36.5 88.5zM701 1365l-143 -815q-7 -35 -7 -75
q0 -95 60 -151.5t164 -56.5q198 0 239 228l154 870h339l-166 -951q-37 -209 -194.5 -322.5t-391.5 -113.5q-112 0 -209.5 28.5t-173.5 83t-120 142t-44 197.5q0 45 10 111l144 825h339zM1373 1931l-25 -145h-680l25 145h680z" />
    <glyph glyph-name="udieresismacron" unicode="&#x1d6;" horiz-adv-x="1232" 
d="M1287 1069l-188 -1069h-316l30 163h-18q-39 -77 -116 -128t-189 -51q-146 0 -235 85t-89 234q0 86 18 183l105 583h328l-101 -576q-10 -53 -10 -105q0 -72 40 -110t103 -38q166 0 206 230l105 599h327zM509 1315q0 58 35.5 92t95.5 34q61 0 96.5 -34t35.5 -92
q0 -56 -35.5 -89.5t-96.5 -33.5q-60 0 -95.5 34t-35.5 89zM912 1315q0 58 35 92t95 34q61 0 97 -34t36 -92q0 -55 -35.5 -89t-97.5 -34q-59 0 -94.5 34t-35.5 89zM1245 1695l-26 -144h-680l26 144h680z" />
    <glyph glyph-name="Udieresisacute" unicode="&#x1d7;" horiz-adv-x="1406" 
d="M816 1744l293 231h340l-339 -231h-294zM644 1577q0 61 34.5 95t95.5 34q62 0 99 -34t37 -95q0 -56 -37 -88.5t-99 -32.5q-61 0 -95.5 32.5t-34.5 88.5zM1045 1577q0 61 36.5 95t97.5 34q62 0 97 -34t35 -95q0 -56 -35 -88.5t-97 -32.5q-61 0 -97.5 32.5t-36.5 88.5z
M701 1365l-143 -815q-7 -35 -7 -75q0 -95 60 -151.5t164 -56.5q198 0 239 228l154 870h339l-166 -951q-37 -209 -194.5 -322.5t-391.5 -113.5q-112 0 -209.5 28.5t-173.5 83t-120 142t-44 197.5q0 45 10 111l144 825h339z" />
    <glyph glyph-name="udieresisacute" unicode="&#x1d8;" horiz-adv-x="1232" 
d="M948 1517h-241l251 329h295zM1287 1069l-188 -1069h-316l30 163h-18q-39 -77 -116 -128t-189 -51q-146 0 -235 85t-89 234q0 86 18 183l105 583h328l-101 -576q-10 -53 -10 -105q0 -72 40 -110t103 -38q166 0 206 230l105 599h327zM509 1315q0 58 35.5 92t95.5 34
q61 0 96.5 -34t35.5 -92q0 -56 -35.5 -89.5t-96.5 -33.5q-60 0 -95.5 34t-35.5 89zM912 1315q0 58 35 92t95 34q61 0 97 -34t36 -92q0 -55 -35.5 -89t-97.5 -34q-59 0 -94.5 34t-35.5 89z" />
    <glyph glyph-name="Udieresiscaron" unicode="&#x1d9;" horiz-adv-x="1406" 
d="M644 1577q0 61 34.5 95t95.5 34q62 0 99 -34t37 -95q0 -56 -37 -88.5t-99 -32.5q-61 0 -95.5 32.5t-34.5 88.5zM1045 1577q0 61 36.5 95t97.5 34q62 0 97 -34t35 -95q0 -56 -35 -88.5t-97 -32.5q-61 0 -97.5 32.5t-36.5 88.5zM1429 1978l-286 -244h-253l-224 244h249
l102 -116h18l135 116h259zM701 1365l-143 -815q-7 -35 -7 -75q0 -95 60 -151.5t164 -56.5q198 0 239 228l154 870h339l-166 -951q-37 -209 -194.5 -322.5t-391.5 -113.5q-112 0 -209.5 28.5t-173.5 83t-120 142t-44 197.5q0 45 10 111l144 825h339z" />
    <glyph glyph-name="udieresiscaron" unicode="&#x1da;" horiz-adv-x="1232" 
d="M763 1506l-194 342h230l96 -194h17l151 194h239l-302 -342h-237zM1287 1069l-188 -1069h-316l30 163h-18q-39 -77 -116 -128t-189 -51q-146 0 -235 85t-89 234q0 86 18 183l105 583h328l-101 -576q-10 -53 -10 -105q0 -72 40 -110t103 -38q166 0 206 230l105 599h327z
M509 1315q0 58 35.5 92t95.5 34q61 0 96.5 -34t35.5 -92q0 -56 -35.5 -89.5t-96.5 -33.5q-60 0 -95.5 34t-35.5 89zM912 1315q0 58 35 92t95 34q61 0 97 -34t36 -92q0 -55 -35.5 -89t-97.5 -34q-59 0 -94.5 34t-35.5 89z" />
    <glyph glyph-name="Udieresisgrave" unicode="&#x1db;" horiz-adv-x="1406" 
d="M1172 1744h-292l-332 220h337zM644 1577q0 61 34.5 95t95.5 34q62 0 99 -34t37 -95q0 -56 -37 -88.5t-99 -32.5q-61 0 -95.5 32.5t-34.5 88.5zM1045 1577q0 61 36.5 95t97.5 34q62 0 97 -34t35 -95q0 -56 -35 -88.5t-97 -32.5q-61 0 -97.5 32.5t-36.5 88.5zM701 1365
l-143 -815q-7 -35 -7 -75q0 -95 60 -151.5t164 -56.5q198 0 239 228l154 870h339l-166 -951q-37 -209 -194.5 -322.5t-391.5 -113.5q-112 0 -209.5 28.5t-173.5 83t-120 142t-44 197.5q0 45 10 111l144 825h339z" />
    <glyph glyph-name="udieresisgrave" unicode="&#x1dc;" horiz-adv-x="1232" 
d="M1034 1517h-237l-246 324h291zM1287 1069l-188 -1069h-316l30 163h-18q-39 -77 -116 -128t-189 -51q-146 0 -235 85t-89 234q0 86 18 183l105 583h328l-101 -576q-10 -53 -10 -105q0 -72 40 -110t103 -38q166 0 206 230l105 599h327zM509 1315q0 58 35.5 92t95.5 34
q61 0 96.5 -34t35.5 -92q0 -56 -35.5 -89.5t-96.5 -33.5q-60 0 -95.5 34t-35.5 89zM912 1315q0 58 35 92t95 34q61 0 97 -34t36 -92q0 -55 -35.5 -89t-97.5 -34q-59 0 -94.5 34t-35.5 89z" />
    <glyph glyph-name="Adieresismacron" unicode="&#x1de;" horiz-adv-x="1314" 
d="M2 0l673 1365h415l198 -1365h-361l-31 309h-412l-140 -309h-342zM835 1064h-18l-228 -511h291zM594 1577q0 61 34.5 95t95.5 34q62 0 99 -34t37 -95q0 -56 -37 -88.5t-99 -32.5q-61 0 -95.5 32.5t-34.5 88.5zM995 1577q0 61 36.5 95t97.5 34q62 0 97 -34t35 -95
q0 -56 -35 -88.5t-97 -32.5q-61 0 -97.5 32.5t-36.5 88.5zM1323 1931l-25 -145h-680l25 145h680z" />
    <glyph glyph-name="adieresismacron" unicode="&#x1df;" horiz-adv-x="1136" 
d="M440 -16q-138 0 -227.5 81.5t-89.5 222.5q0 9 1 15q4 159 123.5 242t314.5 83h241l13 75q3 24 3 31q0 50 -37 83.5t-103 33.5q-56 0 -92.5 -25t-46.5 -67h-306q8 64 40 121t87 105t142 76t196 28q201 0 317.5 -95t116.5 -268q0 -39 -10 -96l-111 -630h-305l25 135h-17
q-31 -63 -101.5 -107t-173.5 -44zM448 331q0 -52 36.5 -85t94.5 -33q62 0 111.5 36.5t61.5 94.5l20 110h-164q-76 0 -118 -34.5t-42 -88.5zM453 1315q0 58 35.5 92t95.5 34q61 0 96.5 -34t35.5 -92q0 -56 -35.5 -89.5t-96.5 -33.5q-60 0 -95.5 34t-35.5 89zM856 1315
q0 58 35 92t95 34q61 0 97 -34t36 -92q0 -55 -35.5 -89t-97.5 -34q-59 0 -94.5 34t-35.5 89zM1188 1695l-26 -144h-680l26 144h680z" />
    <glyph glyph-name="Adotmacron" unicode="&#x1e0;" horiz-adv-x="1314" 
d="M2 0l673 1365h415l198 -1365h-361l-31 309h-412l-140 -309h-342zM835 1064h-18l-228 -511h291zM793 1614q0 60 40 99.5t96 39.5q60 0 100.5 -39.5t40.5 -99.5q0 -58 -40.5 -97t-100.5 -39q-56 0 -96 39.5t-40 96.5zM1323 1931l-25 -145h-680l25 145h680z" />
    <glyph glyph-name="adotmacron" unicode="&#x1e1;" horiz-adv-x="1136" 
d="M440 -16q-138 0 -227.5 81.5t-89.5 222.5q0 9 1 15q4 159 123.5 242t314.5 83h241l13 75q3 24 3 31q0 50 -37 83.5t-103 33.5q-56 0 -92.5 -25t-46.5 -67h-306q8 64 40 121t87 105t142 76t196 28q201 0 317.5 -95t116.5 -268q0 -39 -10 -96l-111 -630h-305l25 135h-17
q-31 -63 -101.5 -107t-173.5 -44zM448 331q0 -52 36.5 -85t94.5 -33q62 0 111.5 36.5t61.5 94.5l20 110h-164q-76 0 -118 -34.5t-42 -88.5zM648 1318q0 60 40 99.5t96 39.5q60 0 100.5 -39.5t40.5 -99.5q0 -58 -40.5 -97t-100.5 -39q-56 0 -96 39.5t-40 96.5zM1188 1695
l-26 -144h-680l26 144h680z" />
    <glyph glyph-name="AEmacron" unicode="&#x1e2;" horiz-adv-x="1901" 
d="M1038 1075l-336 -528l275 1l95 527h-34zM880 0l52 292h-378l-195 -292h-378l885 1365h1163l-47 -266h-584l-51 -287h549l-43 -246h-549l-53 -299h585l-47 -267h-909zM1981 1629l-25 -145h-680l25 145h680z" />
    <glyph glyph-name="aemacron" unicode="&#x1e3;" horiz-adv-x="1789" 
d="M1282 -22q-131 0 -229 53.5t-143 147.5h-15q-127 -197 -393 -197q-169 0 -275 81.5t-106 235.5q0 163 119.5 246t322.5 83h238l13 77q3 21 3 30q0 49 -37.5 82.5t-102.5 33.5q-56 0 -92.5 -25t-46.5 -67h-306q7 62 39.5 119.5t87.5 105t139 76.5t184 29q220 0 319 -138
h15q53 63 141 100.5t195 37.5q200 0 319 -128t111 -336q0 -56 -24 -158h-655q-9 -50 -9 -75q0 -78 43.5 -125t127.5 -47q64 0 109.5 27.5t57.5 78.5h304q-16 -145 -141.5 -246.5t-312.5 -101.5zM446 326q0 -50 34.5 -81.5t95.5 -31.5q69 0 117 41.5t61 111.5l16 88h-164
q-77 0 -118.5 -36t-41.5 -92zM1485 645q3 15 3 32q8 75 -34 125.5t-121 50.5q-73 0 -125.5 -45.5t-66.5 -122.5q-2 -8 -4 -18t-3 -16l-1 -6h352zM1423 1370l-26 -144h-680l26 144h680z" />
    <glyph glyph-name="Gcaron" unicode="&#x1e6;" horiz-adv-x="1376" 
d="M1361 1729l-286 -244h-253l-224 244h249l102 -116h18l135 116h259zM239 850q46 252 206 395.5t421 143.5q114 0 208.5 -26.5t157.5 -70t106.5 -101.5t63 -119t19.5 -124q0 -31 -3 -41h-324v28q-1 28 -13.5 57t-37.5 58t-71 47.5t-105 18.5q-116 0 -191 -81.5t-104 -235.5
l-28 -149q-11 -68 -11 -124q0 -129 69 -203t179 -74q102 0 173.5 49t86.5 124l17 88h-241l39 220h553l-52 -294q-38 -212 -192.5 -336t-401.5 -124q-96 0 -180.5 20.5t-156.5 64t-123.5 106.5t-80.5 153.5t-29 200.5q0 80 14 155z" />
    <glyph glyph-name="gcaron" unicode="&#x1e7;" horiz-adv-x="1242" 
d="M709 1204l-194 342h230l96 -194h17l151 194h239l-302 -342h-237zM623 1080q120 0 198 -59.5t101 -153.5h15l35 198h326l-190 -1088q-33 -184 -173 -280t-366 -96q-117 0 -209.5 27.5t-148.5 74t-85.5 104.5t-29.5 123q0 22 2 26h302q3 -16 4 -18q10 -43 59 -70.5
t119 -27.5q96 0 145 49t67 148l24 143h-18q-30 -67 -105.5 -110t-180.5 -43q-159 0 -256.5 109.5t-97.5 300.5q0 86 13 146l13 66q45 216 162 323.5t275 107.5zM887 639q0 83 -45 134t-121 51q-79 0 -132.5 -60t-72.5 -168l-12 -64q-9 -47 -9 -86q0 -87 43 -141t125 -54
q77 0 131.5 59.5t72.5 169.5l12 67q8 47 8 92z" />
    <glyph glyph-name="Kcaron" unicode="&#x1e8;" horiz-adv-x="1337" 
d="M705 1365l-107 -577h15l544 577h405l-594 -621l353 -744h-372l-252 561l-163 -162l-70 -399h-336l240 1365h337zM1330 1729l-286 -244h-253l-224 244h249l102 -116h18l135 116h259z" />
    <glyph glyph-name="kcaron" unicode="&#x1e9;" horiz-adv-x="1154" 
d="M439 1566l-194 342h230l96 -194h17l151 194h239l-302 -342h-237zM484 357l-61 -357h-318l252 1431h318l-135 -757h19l373 395h378l-470 -459l294 -610h-342l-202 451z" />
    <glyph glyph-name="Oogonek" unicode="&#x1ea;" horiz-adv-x="1394" 
d="M1165 -191l-31 -179q-84 -23 -161 -21q-117 2 -174.5 60t-47.5 146q10 108 117 180v18q-44 -27 -140 -27q-72 0 -143.5 17t-142.5 57.5t-125 99.5t-87.5 150t-33.5 202q0 87 11 151l34 193q46 254 211 393.5t416 139.5q260 0 415.5 -143t155.5 -406q0 -76 -11 -137
l-36 -193q-45 -247 -221 -402q-15 -14 -57.5 -49.5t-62 -54.5t-40.5 -50.5t-24 -61.5q-6 -46 22 -69t81 -23q46 0 75 9zM574 799l-27 -146q-12 -65 -12 -127q0 -121 64 -195t180 -74q228 0 285 321l27 151q9 56 9 119q0 119 -64 193t-178 74q-228 0 -284 -316z" />
    <glyph glyph-name="oogonek" unicode="&#x1eb;" horiz-adv-x="1192" 
d="M818 -391q-120 2 -177.5 62t-43.5 153q14 99 115 168l1 18q-58 -24 -130 -24q-185 0 -305 124t-120 340q0 68 11 125l16 86q36 193 178 310.5t358 117.5q106 0 195.5 -29.5t158 -86.5t107 -148.5t38.5 -209.5q0 -66 -10 -116l-17 -86q-35 -172 -193 -314
q-14 -12 -47.5 -40t-46 -40.5t-32.5 -34.5t-29 -42t-12 -43q-8 -49 20.5 -74t81.5 -25q49 0 76 9l-32 -179q-92 -23 -161 -21zM516 613l-15 -98q-9 -49 -9 -91q0 -84 44.5 -138t125.5 -54q83 0 133.5 62.5t67.5 168.5l16 102q6 37 6 88q0 82 -43.5 134.5t-124.5 52.5
q-82 0 -133 -61t-68 -166z" />
    <glyph glyph-name="Oogonekmacron" unicode="&#x1ec;" horiz-adv-x="1394" 
d="M1163 -191l-31 -179q-84 -23 -161 -21q-117 2 -174.5 60t-47.5 146q10 108 117 180v18q-44 -27 -140 -27q-72 0 -143.5 17t-142.5 57.5t-125 99.5t-87.5 150t-33.5 202q0 87 11 151l34 193q46 254 211 393.5t416 139.5q260 0 415.5 -143t155.5 -406q0 -76 -11 -137
l-36 -193q-45 -247 -221 -402q-15 -14 -57.5 -49.5t-62 -54.5t-40.5 -50.5t-24 -61.5q-6 -46 22 -69t81 -23q46 0 75 9zM572 799l-27 -146q-12 -65 -12 -127q0 -121 64 -195t180 -74q228 0 285 321l27 151q9 56 9 119q0 119 -64 193t-178 74q-228 0 -284 -316zM1314 1629
l-25 -145h-680l25 145h680z" />
    <glyph glyph-name="oogonekmacron" unicode="&#x1ed;" horiz-adv-x="1192" 
d="M807 -391q-120 2 -177.5 62t-43.5 153q14 99 115 168l1 18q-58 -24 -130 -24q-185 0 -305 124t-120 340q0 68 11 125l16 86q36 193 178 310.5t358 117.5q106 0 195.5 -29.5t158 -86.5t107 -148.5t38.5 -209.5q0 -66 -10 -116l-17 -86q-35 -172 -193 -314
q-14 -12 -47.5 -40t-46 -40.5t-32.5 -34.5t-29 -42t-12 -43q-8 -49 20.5 -74t81.5 -25q49 0 76 9l-32 -179q-92 -23 -161 -21zM505 613l-15 -98q-9 -49 -9 -91q0 -84 44.5 -138t125.5 -54q83 0 133.5 62.5t67.5 168.5l16 102q6 37 6 88q0 82 -43.5 134.5t-124.5 52.5
q-82 0 -133 -61t-68 -166zM1165 1370l-26 -144h-680l26 144h680z" />
    <glyph glyph-name="Gacute" unicode="&#x1f4;" horiz-adv-x="1376" 
d="M748 1495l293 231h340l-339 -231h-294zM239 850q46 252 206 395.5t421 143.5q114 0 208.5 -26.5t157.5 -70t106.5 -101.5t63 -119t19.5 -124q0 -31 -3 -41h-324v28q-1 28 -13.5 57t-37.5 58t-71 47.5t-105 18.5q-116 0 -191 -81.5t-104 -235.5l-28 -149q-11 -68 -11 -124
q0 -129 69 -203t179 -74q102 0 173.5 49t86.5 124l17 88h-241l39 220h553l-52 -294q-38 -212 -192.5 -336t-401.5 -124q-96 0 -180.5 20.5t-156.5 64t-123.5 106.5t-80.5 153.5t-29 200.5q0 80 14 155z" />
    <glyph glyph-name="gacute" unicode="&#x1f5;" horiz-adv-x="1242" 
d="M894 1215h-241l251 329h295zM623 1080q120 0 198 -59.5t101 -153.5h15l35 198h326l-190 -1088q-33 -184 -173 -280t-366 -96q-117 0 -209.5 27.5t-148.5 74t-85.5 104.5t-29.5 123q0 22 2 26h302q3 -16 4 -18q10 -43 59 -70.5t119 -27.5q96 0 145 49t67 148l24 143h-18
q-30 -67 -105.5 -110t-180.5 -43q-159 0 -256.5 109.5t-97.5 300.5q0 86 13 146l13 66q45 216 162 323.5t275 107.5zM887 639q0 83 -45 134t-121 51q-79 0 -132.5 -60t-72.5 -168l-12 -64q-9 -47 -9 -86q0 -87 43 -141t125 -54q77 0 131.5 59.5t72.5 169.5l12 67q8 47 8 92z
" />
    <glyph glyph-name="Ngrave" unicode="&#x1f8;" horiz-adv-x="1434" 
d="M1159 1495h-292l-332 220h337zM1283 0h-264l-398 808h-14l-141 -808h-316l240 1365h268l394 -801h14l141 801h316z" />
    <glyph glyph-name="ngrave" unicode="&#x1f9;" horiz-adv-x="1239" 
d="M989 1215h-237l-246 324h291zM117 0l188 1069h321l-29 -161h17q40 79 115 128t188 49q150 0 235.5 -89.5t85.5 -232.5q0 -75 -23 -201l-100 -562h-327l100 577q9 54 9 102q0 72 -38.5 112.5t-100.5 40.5q-166 0 -207 -231l-106 -601h-328z" />
    <glyph glyph-name="Aringacute" unicode="&#x1fa;" horiz-adv-x="1314" 
d="M834 1618l294 230h340l-340 -230h-294zM794 1417q13 -36 46 -49t68 1q34 13 48 44t1 67q-13 35 -46 49t-69 0q-35 -14 -48 -44.5t0 -67.5zM835 1064h-18l-228 -511h291zM484 309l-140 -309h-342l630 1281q-59 73 -59 170q0 127 87 211.5t215 84.5q127 0 214 -83t87 -210
q0 -107 -73 -190l185 -1264h-361l-31 309h-412z" />
    <glyph glyph-name="aringacute" unicode="&#x1fb;" horiz-adv-x="1136" 
d="M1023 1525h-275l252 329h329zM440 -16q-138 0 -227.5 81.5t-89.5 222.5q0 9 1 15q4 159 123.5 242t314.5 83h241l13 75q3 24 3 31q0 50 -37 83.5t-103 33.5q-56 0 -92.5 -25t-46.5 -67h-306q8 64 40 121t87 105t142 76t196 28q201 0 317.5 -95t116.5 -268q0 -39 -10 -96
l-111 -630h-305l25 135h-17q-31 -63 -101.5 -107t-173.5 -44zM448 331q0 -52 36.5 -85t94.5 -33q62 0 111.5 36.5t61.5 94.5l20 110h-164q-76 0 -118 -34.5t-42 -88.5zM827 1324q38 0 64.5 25.5t26.5 62.5q0 38 -26.5 63t-64.5 25t-64.5 -25.5t-26.5 -62.5t26.5 -62.5
t64.5 -25.5zM823 1186q-98 0 -162 65.5t-64 159.5q0 97 69 161.5t165 64.5t160.5 -65.5t64.5 -159.5q0 -97 -68.5 -161.5t-164.5 -64.5z" />
    <glyph glyph-name="AEacute" unicode="&#x1fc;" horiz-adv-x="1901" 
d="M1433 1495l293 231h340l-339 -231h-294zM1038 1075l-336 -528l275 1l95 527h-34zM880 0l52 292h-378l-195 -292h-378l885 1365h1163l-47 -266h-584l-51 -287h549l-43 -246h-549l-53 -299h585l-47 -267h-909z" />
    <glyph glyph-name="aeacute" unicode="&#x1fd;" horiz-adv-x="1789" 
d="M1131 1215h-241l251 329h295zM1282 -22q-131 0 -229 53.5t-143 147.5h-15q-127 -197 -393 -197q-169 0 -275 81.5t-106 235.5q0 163 119.5 246t322.5 83h238l13 77q3 21 3 30q0 49 -37.5 82.5t-102.5 33.5q-56 0 -92.5 -25t-46.5 -67h-306q7 62 39.5 119.5t87.5 105
t139 76.5t184 29q220 0 319 -138h15q53 63 141 100.5t195 37.5q200 0 319 -128t111 -336q0 -56 -24 -158h-655q-9 -50 -9 -75q0 -78 43.5 -125t127.5 -47q64 0 109.5 27.5t57.5 78.5h304q-16 -145 -141.5 -246.5t-312.5 -101.5zM446 326q0 -50 34.5 -81.5t95.5 -31.5
q69 0 117 41.5t61 111.5l16 88h-164q-77 0 -118.5 -36t-41.5 -92zM1485 645q3 15 3 32q8 75 -34 125.5t-121 50.5q-73 0 -125.5 -45.5t-66.5 -122.5q-2 -8 -4 -18t-3 -16l-1 -6h352z" />
    <glyph glyph-name="Oslashacute" unicode="&#x1fe;" horiz-adv-x="1394" 
d="M206 663l34 193q46 254 211 393.5t417 139.5q257 0 411 -146l119 116l122 -110l-140 -136q58 -113 58 -256q0 -88 -12 -154l-35 -193q-48 -256 -210 -395t-424 -139q-251 0 -400 141l-129 -127l-117 117l142 139q-58 110 -58 254q0 106 11 163zM1092 770v55l-506 -481
q63 -87 194 -87q108 0 180.5 79.5t101.5 241.5l20 108q10 47 10 84zM1053 1018q-65 97 -199 97q-106 0 -179 -77t-103 -239l-26 -146q-10 -47 -11 -90q0 -19 4 -32zM763 1495l293 231h340l-339 -231h-294z" />
    <glyph glyph-name="oslashacute" unicode="&#x1ff;" horiz-adv-x="1192" 
d="M157 575l16 86q36 192 177.5 310t354.5 118q222 0 359 -120l134 120l102 -107l-144 -129q52 -98 52 -225q0 -79 -10 -129l-17 -86q-40 -195 -178 -312t-358 -117q-212 0 -347 112l-143 -126l-91 105l143 127q-60 101 -60 236q0 87 10 137zM505 613l-16 -98q-6 -34 -7 -58
q0 -9 2 -23l366 322q-44 84 -144 84q-83 0 -134 -61t-67 -166zM510 308q46 -76 140 -76q83 0 133.5 63t67.5 168l16 102q3 13 3 43q0 9 -1 14zM873 1215h-241l251 329h295z" />
    <glyph glyph-name="Adblgrave" unicode="&#x200;" horiz-adv-x="1314" 
d="M2 0l673 1365h415l198 -1365h-361l-31 309h-412l-140 -309h-342zM835 1064h-18l-228 -511h291zM833 1496h-233l-368 249h272zM1264 1496h-233l-368 249h273z" />
    <glyph glyph-name="adblgrave" unicode="&#x201;" horiz-adv-x="1136" 
d="M440 -16q-138 0 -227.5 81.5t-89.5 222.5q0 9 1 15q4 159 123.5 242t314.5 83h241l13 75q3 24 3 31q0 50 -37 83.5t-103 33.5q-56 0 -92.5 -25t-46.5 -67h-306q8 64 40 121t87 105t142 76t196 28q201 0 317.5 -95t116.5 -268q0 -39 -10 -96l-111 -630h-305l25 135h-17
q-31 -63 -101.5 -107t-173.5 -44zM448 331q0 -52 36.5 -85t94.5 -33q62 0 111.5 36.5t61.5 94.5l20 110h-164q-76 0 -118 -34.5t-42 -88.5zM701 1237h-194l-327 329h251zM1085 1237h-192l-329 329h252z" />
    <glyph glyph-name="Ainvertedbreve" unicode="&#x202;" horiz-adv-x="1314" 
d="M2 0l673 1365h415l198 -1365h-361l-31 309h-412l-140 -309h-342zM835 1064h-18l-228 -511h291zM580 1466q23 142 118 228t253 86q160 0 241 -88.5t57 -225.5h-180q10 66 -26.5 106.5t-117.5 40.5q-71 0 -114.5 -40.5t-52.5 -106.5h-178z" />
    <glyph glyph-name="ainvertedbreve" unicode="&#x203;" horiz-adv-x="1136" 
d="M440 -16q-138 0 -227.5 81.5t-89.5 222.5q0 9 1 15q4 159 123.5 242t314.5 83h241l13 75q3 24 3 31q0 50 -37 83.5t-103 33.5q-56 0 -92.5 -25t-46.5 -67h-306q8 64 40 121t87 105t142 76t196 28q201 0 317.5 -95t116.5 -268q0 -39 -10 -96l-111 -630h-305l25 135h-17
q-31 -63 -101.5 -107t-173.5 -44zM448 331q0 -52 36.5 -85t94.5 -33q62 0 111.5 36.5t61.5 94.5l20 110h-164q-76 0 -118 -34.5t-42 -88.5zM454 1225q3 140 98.5 234.5t251.5 94.5q161 0 249 -95.5t70 -233.5h-180q4 69 -31 115.5t-111 46.5q-77 0 -121 -47t-48 -115h-178z
" />
    <glyph glyph-name="Edblgrave" unicode="&#x204;" horiz-adv-x="1168" 
d="M776 1496h-233l-368 249h272zM1207 1496h-233l-368 249h273zM1105 272l-47 -272h-918l240 1365h917l-48 -272h-579l-52 -282h547l-42 -246h-547l-53 -293h582z" />
    <glyph glyph-name="edblgrave" unicode="&#x205;" horiz-adv-x="1142" 
d="M620 -22q-101 0 -185.5 27t-149 80t-100.5 137.5t-36 192.5q0 54 14 140l16 90q25 146 103 248t185.5 149t238.5 47q210 0 335 -128t117 -337q0 -48 -24 -157h-661q-8 -35 -8 -80q0 -74 44 -120.5t132 -46.5q67 0 111 27.5t56 78.5h304q-16 -145 -150.5 -246.5
t-341.5 -101.5zM847 645q4 20 4 33q8 75 -31.5 125t-119.5 50q-70 0 -119 -43.5t-68 -125.5l-9 -39h343zM712 1237h-194l-327 329h251zM1096 1237h-192l-329 329h252z" />
    <glyph glyph-name="Einvertedbreve" unicode="&#x206;" horiz-adv-x="1168" 
d="M1105 272l-47 -272h-918l240 1365h917l-48 -272h-579l-52 -282h547l-42 -246h-547l-53 -293h582zM523 1466q23 142 118 228t253 86q160 0 241 -88.5t57 -225.5h-180q10 66 -26.5 106.5t-117.5 40.5q-71 0 -114.5 -40.5t-52.5 -106.5h-178z" />
    <glyph glyph-name="einvertedbreve" unicode="&#x207;" horiz-adv-x="1142" 
d="M620 -22q-101 0 -185.5 27t-149 80t-100.5 137.5t-36 192.5q0 54 14 140l16 90q25 146 103 248t185.5 149t238.5 47q210 0 335 -128t117 -337q0 -48 -24 -157h-661q-8 -35 -8 -80q0 -74 44 -120.5t132 -46.5q67 0 111 27.5t56 78.5h304q-16 -145 -150.5 -246.5
t-341.5 -101.5zM847 645q4 20 4 33q8 75 -31.5 125t-119.5 50q-70 0 -119 -43.5t-68 -125.5l-9 -39h343zM465 1225q3 140 98.5 234.5t251.5 94.5q161 0 249 -95.5t70 -233.5h-180q4 69 -31 115.5t-111 46.5q-77 0 -121 -47t-48 -115h-178z" />
    <glyph glyph-name="Idblgrave" unicode="&#x208;" horiz-adv-x="617" 
d="M466 0h-336l240 1365h337zM495 1496h-233l-368 249h272zM926 1496h-233l-368 249h273z" />
    <glyph glyph-name="idblgrave" unicode="&#x209;" horiz-adv-x="635" 
d="M139 0l189 1069h327l-190 -1069h-326zM458 1237h-194l-327 329h251zM842 1237h-192l-329 329h252z" />
    <glyph glyph-name="Iinvertedbreve" unicode="&#x20a;" horiz-adv-x="617" 
d="M466 0h-336l240 1365h337zM242 1466q23 142 118 228t253 86q160 0 241 -88.5t57 -225.5h-180q10 66 -26.5 106.5t-117.5 40.5q-71 0 -114.5 -40.5t-52.5 -106.5h-178z" />
    <glyph glyph-name="iinvertedbreve" unicode="&#x20b;" horiz-adv-x="635" 
d="M139 0l189 1069h327l-190 -1069h-326zM210 1225q3 140 98.5 234.5t251.5 94.5q161 0 249 -95.5t70 -233.5h-180q4 69 -31 115.5t-111 46.5q-77 0 -121 -47t-48 -115h-178z" />
    <glyph glyph-name="Odblgrave" unicode="&#x20c;" horiz-adv-x="1394" 
d="M878 1496h-233l-368 249h272zM1309 1496h-233l-368 249h273zM572 799l-27 -146q-11 -69 -11 -127q0 -122 64 -195.5t182 -73.5q108 0 180.5 79.5t101.5 241.5l27 151q10 60 10 119q0 120 -64.5 193.5t-180.5 73.5q-106 0 -179 -77t-103 -239zM205 663l35 193
q45 254 210.5 393.5t417.5 139.5q256 0 412.5 -143t156.5 -389q0 -93 -11 -154l-36 -193q-48 -256 -209.5 -395t-424.5 -139q-249 0 -405.5 141t-156.5 383q0 99 11 163z" />
    <glyph glyph-name="odblgrave" unicode="&#x20d;" horiz-adv-x="1192" 
d="M505 613l-16 -98q-8 -54 -8 -89q0 -85 44 -139.5t126 -54.5q83 0 133.5 63t67.5 168l16 102q6 50 6 88q0 82 -43.5 134.5t-123.5 52.5q-83 0 -134.5 -61t-67.5 -166zM158 575l16 86q36 192 177 310t354 118q144 0 256.5 -51t180 -157t67.5 -253q0 -73 -10 -129l-18 -86
q-40 -195 -178 -312t-358 -117q-105 0 -194.5 29.5t-157.5 85t-107 143t-39 196.5q0 82 11 137zM736 1237h-194l-327 329h251zM1120 1237h-192l-329 329h252z" />
    <glyph glyph-name="Oinvertedbreve" unicode="&#x20e;" horiz-adv-x="1394" 
d="M625 1466q23 142 118 228t253 86q160 0 241 -88.5t57 -225.5h-180q10 66 -26.5 106.5t-117.5 40.5q-71 0 -114.5 -40.5t-52.5 -106.5h-178zM572 799l-27 -146q-11 -69 -11 -127q0 -122 64 -195.5t182 -73.5q108 0 180.5 79.5t101.5 241.5l27 151q10 60 10 119
q0 120 -64.5 193.5t-180.5 73.5q-106 0 -179 -77t-103 -239zM205 663l35 193q45 254 210.5 393.5t417.5 139.5q256 0 412.5 -143t156.5 -389q0 -93 -11 -154l-36 -193q-48 -256 -209.5 -395t-424.5 -139q-249 0 -405.5 141t-156.5 383q0 99 11 163z" />
    <glyph glyph-name="oinvertedbreve" unicode="&#x20f;" horiz-adv-x="1192" 
d="M505 613l-16 -98q-8 -54 -8 -89q0 -85 44 -139.5t126 -54.5q83 0 133.5 63t67.5 168l16 102q6 50 6 88q0 82 -43.5 134.5t-123.5 52.5q-83 0 -134.5 -61t-67.5 -166zM158 575l16 86q36 192 177 310t354 118q144 0 256.5 -51t180 -157t67.5 -253q0 -73 -10 -129l-18 -86
q-40 -195 -178 -312t-358 -117q-105 0 -194.5 29.5t-157.5 85t-107 143t-39 196.5q0 82 11 137zM488 1225q3 140 98.5 234.5t251.5 94.5q161 0 249 -95.5t70 -233.5h-180q4 69 -31 115.5t-111 46.5q-77 0 -121 -47t-48 -115h-178z" />
    <glyph glyph-name="Rdblgrave" unicode="&#x210;" horiz-adv-x="1319" 
d="M781 1496h-233l-368 249h272zM1212 1496h-233l-368 249h273zM470 0h-338l240 1365h552q211 0 330.5 -103.5t119.5 -288.5q0 -29 -4 -63q-14 -144 -94 -246.5t-212 -150.5l177 -513h-353l-151 470q-9 -1 -51 -1h-134zM842 1109h-176l-71 -393h182q111 0 176 50.5t77 137.5
q3 33 3 44q0 82 -53.5 121.5t-137.5 39.5z" />
    <glyph glyph-name="rdblgrave" unicode="&#x211;" horiz-adv-x="845" 
d="M110 0l189 1069h309l-31 -175h17q25 81 93.5 136t170.5 55q76 0 127 -27l-58 -284q-21 11 -61.5 20.5t-76.5 9.5q-114 0 -174.5 -71t-83.5 -198l-94 -535h-327zM607 1237h-194l-327 329h251zM991 1237h-192l-329 329h252z" />
    <glyph glyph-name="Rinvertedbreve" unicode="&#x212;" horiz-adv-x="1319" 
d="M470 0h-338l240 1365h552q211 0 330.5 -103.5t119.5 -288.5q0 -29 -4 -63q-14 -144 -94 -246.5t-212 -150.5l177 -513h-353l-151 470q-9 -1 -51 -1h-134zM842 1109h-176l-71 -393h182q111 0 176 50.5t77 137.5q3 33 3 44q0 82 -53.5 121.5t-137.5 39.5zM528 1466
q23 142 118 228t253 86q160 0 241 -88.5t57 -225.5h-180q10 66 -26.5 106.5t-117.5 40.5q-71 0 -114.5 -40.5t-52.5 -106.5h-178z" />
    <glyph glyph-name="rinvertedbreve" unicode="&#x213;" horiz-adv-x="845" 
d="M110 0l189 1069h309l-31 -175h17q25 81 93.5 136t170.5 55q76 0 127 -27l-58 -284q-21 11 -61.5 20.5t-76.5 9.5q-114 0 -174.5 -71t-83.5 -198l-94 -535h-327zM359 1225q3 140 98.5 234.5t251.5 94.5q161 0 249 -95.5t70 -233.5h-180q4 69 -31 115.5t-111 46.5
q-77 0 -121 -47t-48 -115h-178z" />
    <glyph glyph-name="Udblgrave" unicode="&#x214;" horiz-adv-x="1406" 
d="M883 1496h-233l-368 249h272zM1314 1496h-233l-368 249h273zM701 1365l-143 -815q-7 -35 -7 -75q0 -95 60 -151.5t164 -56.5q198 0 239 228l154 870h339l-166 -951q-37 -209 -194.5 -322.5t-391.5 -113.5q-112 0 -209.5 28.5t-173.5 83t-120 142t-44 197.5q0 45 10 111
l144 825h339z" />
    <glyph glyph-name="udblgrave" unicode="&#x215;" horiz-adv-x="1232" 
d="M1287 1069l-188 -1069h-316l30 163h-18q-39 -77 -116 -128t-189 -51q-146 0 -235 85t-89 234q0 86 18 183l105 583h328l-101 -576q-10 -53 -10 -105q0 -72 40 -110t103 -38q166 0 206 230l105 599h327zM758 1237h-194l-327 329h251zM1142 1237h-192l-329 329h252z" />
    <glyph glyph-name="Uinvertedbreve" unicode="&#x216;" horiz-adv-x="1406" 
d="M701 1365l-143 -815q-7 -35 -7 -75q0 -95 60 -151.5t164 -56.5q198 0 239 228l154 870h339l-166 -951q-37 -209 -194.5 -322.5t-391.5 -113.5q-112 0 -209.5 28.5t-173.5 83t-120 142t-44 197.5q0 45 10 111l144 825h339zM630 1466q23 142 118 228t253 86
q160 0 241 -88.5t57 -225.5h-180q10 66 -26.5 106.5t-117.5 40.5q-71 0 -114.5 -40.5t-52.5 -106.5h-178z" />
    <glyph glyph-name="uinvertedbreve" unicode="&#x217;" horiz-adv-x="1232" 
d="M1287 1069l-188 -1069h-316l30 163h-18q-39 -77 -116 -128t-189 -51q-146 0 -235 85t-89 234q0 86 18 183l105 583h328l-101 -576q-10 -53 -10 -105q0 -72 40 -110t103 -38q166 0 206 230l105 599h327zM510 1225q3 140 98.5 234.5t251.5 94.5q161 0 249 -95.5t70 -233.5
h-180q4 69 -31 115.5t-111 46.5q-77 0 -121 -47t-48 -115h-178z" />
    <glyph glyph-name="Scommaaccent" unicode="&#x218;" horiz-adv-x="1257" 
d="M135 417h314q-2 -10 -2 -20q0 -73 68 -120t167 -47q86 0 150 37.5t64 108.5q0 26 -10.5 47t-25.5 35.5t-43 28.5t-51.5 22.5t-61.5 20.5l-123 40q-70 22 -124.5 51.5t-102 74t-73.5 108.5t-26 144q0 138 73 239.5t194 151.5t274 50q227 0 368 -111t141 -279q0 -17 -3 -38
h-303q1 2 1 16q0 73 -60.5 114.5t-145.5 41.5q-83 0 -138.5 -39t-55.5 -103q0 -55 48 -92.5t140 -66.5l135 -42q67 -21 117 -46.5t98.5 -66.5t74.5 -104t26 -145q0 -142 -77 -246t-204 -155t-288 -51q-83 0 -161 15t-147 47t-120 78.5t-81 112.5t-30 145q0 26 4 43z
M609 -475h-206l83 326h234z" />
    <glyph glyph-name="scommaaccent" unicode="&#x219;" horiz-adv-x="1077" 
d="M226 745q0 154 114.5 249t326.5 95q196 0 319.5 -86t123.5 -220q0 -24 -2 -36h-281q1 4 1 18q0 42 -42.5 75t-112.5 33q-65 0 -101.5 -28.5t-36.5 -70.5q0 -21 10 -37.5t24.5 -27t41 -21t48 -16.5t58.5 -16.5t60 -17.5q132 -42 205 -112t73 -190q0 -115 -69.5 -196.5
t-176 -118.5t-236.5 -37q-87 0 -167 20t-146 58.5t-105 102t-39 143.5q0 27 2 35h288v-21q4 -55 52 -87t122 -32q71 0 111.5 28.5t40.5 73.5q0 11 -2.5 21t-9 18.5t-13 15t-19.5 13l-22 11t-27.5 10.5t-30 9.5t-34 10.5t-35.5 11q-47 14 -82.5 28t-82 41t-76 58.5t-51 82
t-21.5 110.5zM519 -475h-206l83 326h234z" />
    <glyph glyph-name="Tcommaaccent" unicode="&#x21a;" horiz-adv-x="1126" 
d="M549 -475h-206l83 326h234zM739 0h-338l194 1088h-370l49 277h1061l-49 -277h-355z" />
    <glyph glyph-name="tcommaaccent" unicode="&#x21b;" horiz-adv-x="812" 
d="M487 -475h-206l83 326h234zM366 1047l48 269h314l-47 -269h219l-43 -244h-214l-71 -405q-9 -49 -9 -66q0 -51 29.5 -74.5t93.5 -23.5q54 0 92 8l-42 -231q-55 -16 -166 -16q-345 0 -345 232q0 41 9 92l86 484h-150l43 244h153z" />
    <glyph glyph-name="Hcaron" unicode="&#x21e;" horiz-adv-x="1456" 
d="M474 0h-336l240 1365h337l-93 -536h493l93 536h338l-241 -1365h-335l97 555h-493zM1412 1729l-286 -244h-253l-224 244h249l102 -116h18l135 116h259z" />
    <glyph glyph-name="hcaron" unicode="&#x21f;" horiz-adv-x="1246" 
d="M116 0l250 1431h329l-94 -523h17q39 79 114 128t186 49q150 0 238 -89.5t88 -232.5q0 -69 -24 -201l-99 -562h-328l101 577q9 52 9 103q0 71 -40 111.5t-102 40.5q-85 0 -138.5 -62t-72.5 -169l-106 -601h-328zM446 1566l-194 342h230l96 -194h17l151 194h239l-302 -342
h-237z" />
    <glyph glyph-name="Adotaccent" unicode="&#x226;" horiz-adv-x="1314" 
d="M2 0l673 1365h415l198 -1365h-361l-31 309h-412l-140 -309h-342zM835 1064h-18l-228 -511h291zM793 1614q0 60 40 99.5t96 39.5q60 0 100.5 -39.5t40.5 -99.5q0 -58 -40.5 -97t-100.5 -39q-56 0 -96 39.5t-40 96.5z" />
    <glyph glyph-name="adotaccent" unicode="&#x227;" horiz-adv-x="1136" 
d="M440 -16q-138 0 -227.5 81.5t-89.5 222.5q0 9 1 15q4 159 123.5 242t314.5 83h241l13 75q3 24 3 31q0 50 -37 83.5t-103 33.5q-56 0 -92.5 -25t-46.5 -67h-306q8 64 40 121t87 105t142 76t196 28q201 0 317.5 -95t116.5 -268q0 -39 -10 -96l-111 -630h-305l25 135h-17
q-31 -63 -101.5 -107t-173.5 -44zM448 331q0 -52 36.5 -85t94.5 -33q62 0 111.5 36.5t61.5 94.5l20 110h-164q-76 0 -118 -34.5t-42 -88.5zM648 1318q0 60 40 99.5t96 39.5q60 0 100.5 -39.5t40.5 -99.5q0 -58 -40.5 -97t-100.5 -39q-56 0 -96 39.5t-40 96.5z" />
    <glyph glyph-name="Ecedilla" unicode="&#x228;" horiz-adv-x="1168" 
d="M502 0h-356l240 1365h917l-48 -272h-579l-52 -282h547l-42 -246h-547l-53 -293h582l-47 -272h-381l-26 -107q71 -1 114 -40.5t43 -107.5q0 -14 -3 -29q-12 -97 -85.5 -146t-195.5 -49q-98 0 -150 20l23 133q48 -15 117 -15q96 0 101 50q1 3 1 9q0 26 -26.5 37.5
t-85.5 11.5h-55l11 73z" />
    <glyph glyph-name="ecedilla" unicode="&#x229;" horiz-adv-x="1142" 
d="M856 645q4 20 4 33q8 75 -31.5 125t-119.5 50q-70 0 -118.5 -43t-68.5 -126l-9 -39h343zM517 -479q-96 0 -151 20l24 133q48 -15 117 -15q96 0 101 50v9q0 26 -26 37.5t-85 11.5h-56l11 73l35 153q-151 34 -240 141t-89 281q0 59 15 140l15 90q26 146 103.5 248t185 149
t238.5 47q210 0 335 -128t117 -337q0 -55 -24 -157h-661q-8 -35 -8 -80q0 -74 44 -120.5t132 -46.5q67 0 111 27.5t56 78.5h304q-16 -138 -139.5 -238t-316.5 -109l-21 -86q71 -1 114 -40.5t43 -107.5q0 -14 -3 -29q-12 -97 -86 -146t-195 -49z" />
    <glyph glyph-name="Odieresismacron" unicode="&#x22a;" horiz-adv-x="1394" 
d="M639 1577q0 61 34.5 95t95.5 34q62 0 99 -34t37 -95q0 -56 -37 -88.5t-99 -32.5q-61 0 -95.5 32.5t-34.5 88.5zM1040 1577q0 61 36.5 95t97.5 34q62 0 97 -34t35 -95q0 -56 -35 -88.5t-97 -32.5q-61 0 -97.5 32.5t-36.5 88.5zM572 799l-27 -146q-11 -69 -11 -127
q0 -122 64 -195.5t182 -73.5q108 0 180.5 79.5t101.5 241.5l27 151q10 60 10 119q0 120 -64.5 193.5t-180.5 73.5q-106 0 -179 -77t-103 -239zM205 663l35 193q45 254 210.5 393.5t417.5 139.5q256 0 412.5 -143t156.5 -389q0 -93 -11 -154l-36 -193q-48 -256 -209.5 -395
t-424.5 -139q-249 0 -405.5 141t-156.5 383q0 99 11 163zM1368 1931l-25 -145h-680l25 145h680z" />
    <glyph glyph-name="odieresismacron" unicode="&#x22b;" horiz-adv-x="1192" 
d="M487 1315q0 58 35.5 92t95.5 34q61 0 96.5 -34t35.5 -92q0 -56 -35.5 -89.5t-96.5 -33.5q-60 0 -95.5 34t-35.5 89zM890 1315q0 58 35 92t95 34q61 0 97 -34t36 -92q0 -55 -35.5 -89t-97.5 -34q-59 0 -94.5 34t-35.5 89zM505 613l-16 -98q-8 -54 -8 -89q0 -85 44 -139.5
t126 -54.5q83 0 133.5 63t67.5 168l16 102q6 50 6 88q0 82 -43.5 134.5t-123.5 52.5q-83 0 -134.5 -61t-67.5 -166zM158 575l16 86q36 192 177 310t354 118q144 0 256.5 -51t180 -157t67.5 -253q0 -73 -10 -129l-18 -86q-40 -195 -178 -312t-358 -117q-105 0 -194.5 29.5
t-157.5 85t-107 143t-39 196.5q0 82 11 137zM1223 1695l-26 -144h-680l26 144h680z" />
    <glyph glyph-name="Otildemacron" unicode="&#x22c;" horiz-adv-x="1394" 
d="M572 799l-27 -146q-11 -69 -11 -127q0 -122 64 -195.5t182 -73.5q108 0 180.5 79.5t101.5 241.5l27 151q10 60 10 119q0 120 -64.5 193.5t-180.5 73.5q-106 0 -179 -77t-103 -239zM205 663l35 193q45 254 210.5 393.5t417.5 139.5q256 0 412.5 -143t156.5 -389
q0 -93 -11 -154l-36 -193q-48 -256 -209.5 -395t-424.5 -139q-249 0 -405.5 141t-156.5 383q0 99 11 163zM935 1507q-4 4 -14.5 14t-16.5 15t-15.5 12t-20 10t-21.5 3q-65 0 -71 -86h-165q0 94 54.5 166t151.5 72q56 0 91 -15.5t74 -49.5q7 -6 18 -16t17.5 -15t15.5 -11.5
t18 -9t19 -2.5q34 0 50.5 30.5t17.5 72.5h166q0 -103 -61 -174.5t-153 -71.5q-61 0 -93.5 14.5t-61.5 41.5zM1368 1931l-25 -145h-680l25 145h680z" />
    <glyph glyph-name="otildemacron" unicode="&#x22d;" horiz-adv-x="1192" 
d="M919 1142q-46 0 -77.5 18t-62.5 51q-5 5 -19.5 21t-21.5 22.5t-21 13t-29 6.5q-54 0 -68 -85h-156q4 114 61 191.5t154 77.5q34 0 64.5 -13.5t47.5 -27.5t42 -40q4 -4 12 -14t12 -14l11 -11t12 -10.5t12 -7.5t14 -5.5t15 -1.5q57 0 69 97h156q-6 -115 -68 -191.5
t-159 -76.5zM1223 1695l-26 -144h-680l26 144h680zM505 613l-16 -98q-8 -54 -8 -89q0 -85 44 -139.5t126 -54.5q83 0 133.5 63t67.5 168l16 102q6 50 6 88q0 82 -43.5 134.5t-123.5 52.5q-83 0 -134.5 -61t-67.5 -166zM158 575l16 86q36 192 177 310t354 118
q144 0 256.5 -51t180 -157t67.5 -253q0 -73 -10 -129l-18 -86q-40 -195 -178 -312t-358 -117q-105 0 -194.5 29.5t-157.5 85t-107 143t-39 196.5q0 82 11 137z" />
    <glyph glyph-name="Odotaccent" unicode="&#x22e;" horiz-adv-x="1394" 
d="M837 1614q0 60 40 99.5t96 39.5q60 0 100.5 -39.5t40.5 -99.5q0 -58 -40.5 -97t-100.5 -39q-56 0 -96 39.5t-40 96.5zM572 799l-27 -146q-11 -69 -11 -127q0 -122 64 -195.5t182 -73.5q108 0 180.5 79.5t101.5 241.5l27 151q10 60 10 119q0 120 -64.5 193.5t-180.5 73.5
q-106 0 -179 -77t-103 -239zM205 663l35 193q45 254 210.5 393.5t417.5 139.5q256 0 412.5 -143t156.5 -389q0 -93 -11 -154l-36 -193q-48 -256 -209.5 -395t-424.5 -139q-249 0 -405.5 141t-156.5 383q0 99 11 163z" />
    <glyph glyph-name="odotaccent" unicode="&#x22f;" horiz-adv-x="1192" 
d="M682 1318q0 60 40 99.5t96 39.5q60 0 100.5 -39.5t40.5 -99.5q0 -58 -40.5 -97t-100.5 -39q-56 0 -96 39.5t-40 96.5zM505 613l-16 -98q-8 -54 -8 -89q0 -85 44 -139.5t126 -54.5q83 0 133.5 63t67.5 168l16 102q6 50 6 88q0 82 -43.5 134.5t-123.5 52.5
q-83 0 -134.5 -61t-67.5 -166zM158 575l16 86q36 192 177 310t354 118q144 0 256.5 -51t180 -157t67.5 -253q0 -73 -10 -129l-18 -86q-40 -195 -178 -312t-358 -117q-105 0 -194.5 29.5t-157.5 85t-107 143t-39 196.5q0 82 11 137z" />
    <glyph glyph-name="Odotaccentmacron" unicode="&#x230;" horiz-adv-x="1394" 
d="M837 1614q0 60 40 99.5t96 39.5q60 0 100.5 -39.5t40.5 -99.5q0 -58 -40.5 -97t-100.5 -39q-56 0 -96 39.5t-40 96.5zM572 799l-27 -146q-11 -69 -11 -127q0 -122 64 -195.5t182 -73.5q108 0 180.5 79.5t101.5 241.5l27 151q10 60 10 119q0 120 -64.5 193.5t-180.5 73.5
q-106 0 -179 -77t-103 -239zM205 663l35 193q45 254 210.5 393.5t417.5 139.5q256 0 412.5 -143t156.5 -389q0 -93 -11 -154l-36 -193q-48 -256 -209.5 -395t-424.5 -139q-249 0 -405.5 141t-156.5 383q0 99 11 163zM1368 1931l-25 -145h-680l25 145h680z" />
    <glyph glyph-name="odotaccentmacron" unicode="&#x231;" horiz-adv-x="1192" 
d="M682 1318q0 60 40 99.5t96 39.5q60 0 100.5 -39.5t40.5 -99.5q0 -58 -40.5 -97t-100.5 -39q-56 0 -96 39.5t-40 96.5zM1223 1695l-26 -144h-680l26 144h680zM505 613l-16 -98q-8 -54 -8 -89q0 -85 44 -139.5t126 -54.5q83 0 133.5 63t67.5 168l16 102q6 50 6 88
q0 82 -43.5 134.5t-123.5 52.5q-83 0 -134.5 -61t-67.5 -166zM158 575l16 86q36 192 177 310t354 118q144 0 256.5 -51t180 -157t67.5 -253q0 -73 -10 -129l-18 -86q-40 -195 -178 -312t-358 -117q-105 0 -194.5 29.5t-157.5 85t-107 143t-39 196.5q0 82 11 137z" />
    <glyph glyph-name="Ymacron" unicode="&#x232;" horiz-adv-x="1206" 
d="M844 476l-83 -476h-337l83 467l-306 898h361l160 -569h14l361 569h361zM1224 1629l-25 -145h-680l25 145h680z" />
    <glyph glyph-name="ymacron" unicode="&#x233;" horiz-adv-x="1095" 
d="M1253 1069l-507 -1051q-4 -9 -15 -30t-12 -22q-65 -121 -132.5 -189.5t-163.5 -103.5t-235 -35q-88 0 -163 15l44 236q49 -11 94 -11q130 0 170 92l20 51l-161 1048h330l69 -795h15l303 795h344zM1133 1370l-26 -144h-680l26 144h680z" />
    <glyph glyph-name="circumflex" unicode="&#x2c6;" horiz-adv-x="1000" 
d="M347 1213l312 342h236l184 -342h-237l-84 195h-17l-163 -195h-231z" />
    <glyph glyph-name="caron" unicode="&#x2c7;" horiz-adv-x="1000" 
d="M607 1223l-194 342h230l96 -194h17l151 194h239l-302 -342h-237z" />
    <glyph glyph-name="breve" unicode="&#x2d8;" horiz-adv-x="1000" 
d="M434 1543h178q-2 -60 36.5 -103.5t110.5 -43.5q70 0 113 41.5t48 105.5h178q-8 -140 -101.5 -229t-240.5 -89q-151 0 -240.5 93t-81.5 225z" />
    <glyph glyph-name="dotaccent" unicode="&#x2d9;" horiz-adv-x="1000" 
d="M541 1474q0 92 60.5 147.5t148.5 55.5q83 0 136.5 -50t53.5 -132q0 -91 -60 -145.5t-150 -54.5q-82 0 -135.5 49t-53.5 130z" />
    <glyph glyph-name="ring" unicode="&#x2da;" horiz-adv-x="1000" 
d="M736 1347q38 0 64.5 25.5t26.5 62.5q0 38 -26.5 63t-64.5 25t-64.5 -25.5t-26.5 -62.5t26.5 -62.5t64.5 -25.5zM732 1209q-98 0 -162 65.5t-64 159.5q0 97 69 161.5t165 64.5t160.5 -65.5t64.5 -159.5q0 -97 -68.5 -161.5t-164.5 -64.5z" />
    <glyph glyph-name="ogonek" unicode="&#x2db;" horiz-adv-x="1000" 
d="M660 92q-166 -103 -166 -210q0 -49 33.5 -79.5t100.5 -30.5q29 0 43 2v-164q-33 -10 -115 -10q-135 0 -208.5 64t-73.5 164q0 113 98 201q50 44 104 70z" />
    <glyph glyph-name="tilde" unicode="&#x2dc;" horiz-adv-x="1000" 
d="M854 1198q-46 0 -77.5 18t-62.5 51q-5 5 -19.5 21t-21.5 22.5t-21 13t-29 6.5q-54 0 -68 -85h-156q4 114 61 191.5t154 77.5q34 0 64.5 -13.5t47.5 -27.5t42 -40q4 -4 12 -14t12 -14l11 -11t12 -10.5t12 -7.5t14 -5.5t15 -1.5q57 0 69 97h156q-6 -115 -68 -191.5
t-159 -76.5z" />
    <glyph glyph-name="hungarumlaut" unicode="&#x2dd;" horiz-adv-x="1000" 
d="M468 1232h-179l289 325h262zM855 1232h-180l291 325h260z" />
    <glyph glyph-name="gravecmb" unicode="&#x300;" 
d="M369 1215h-237l-246 324h291z" />
    <glyph glyph-name="acutecmb" unicode="&#x301;" 
d="M283 1215h-241l251 329h295z" />
    <glyph glyph-name="circumflexcmb" unicode="&#x302;" 
d="M-149 1226l312 342h236l184 -342h-237l-84 195h-17l-163 -195h-231z" />
    <glyph glyph-name="tildecmb" unicode="&#x303;" 
d="M329 1142q-46 0 -77.5 18t-62.5 51q-5 5 -19.5 21t-21.5 22.5t-21 13t-29 6.5q-54 0 -68 -85h-156q4 114 61 191.5t154 77.5q34 0 64.5 -13.5t47.5 -27.5t42 -40q4 -4 12 -14t12 -14l11 -11t12 -10.5t12 -7.5t14 -5.5t15 -1.5q57 0 69 97h156q-6 -115 -68 -191.5
t-159 -76.5z" />
    <glyph glyph-name="macroncmb" unicode="&#x304;" 
d="M575 1370l-26 -144h-680l26 144h680z" />
    <glyph glyph-name="brevecmb" unicode="&#x306;" 
d="M-86 1504h178q-2 -60 36.5 -103.5t110.5 -43.5q70 0 113 41.5t48 105.5h178q-8 -140 -101.5 -229t-240.5 -89q-151 0 -240.5 93t-81.5 225z" />
    <glyph glyph-name="dotaccentcmb" unicode="&#x307;" 
d="M92 1318q0 60 40 99.5t96 39.5q60 0 100.5 -39.5t40.5 -99.5q0 -58 -40.5 -97t-100.5 -39q-56 0 -96 39.5t-40 96.5z" />
    <glyph glyph-name="dieresiscmb" unicode="&#x308;" 
d="M-103 1315q0 58 35.5 92t95.5 34q61 0 96.5 -34t35.5 -92q0 -56 -35.5 -89.5t-96.5 -33.5q-60 0 -95.5 34t-35.5 89zM300 1315q0 58 35 92t95 34q61 0 97 -34t36 -92q0 -55 -35.5 -89t-97.5 -34q-59 0 -94.5 34t-35.5 89z" />
    <glyph glyph-name="hookabovecmb" unicode="&#x309;" 
d="M95 1444l19 132q40 16 121 16q92 0 152 -47t60 -118q0 -79 -54 -142t-148 -99l-71 102q56 27 79 51.5t23 55.5q0 25 -28 44.5t-65 19.5q-55 0 -88 -15z" />
    <glyph glyph-name="ringcmb" unicode="&#x30a;" 
d="M247 1324q38 0 64.5 25.5t26.5 62.5q0 38 -26.5 63t-64.5 25t-64.5 -25.5t-26.5 -62.5t26.5 -62.5t64.5 -25.5zM243 1186q-98 0 -162 65.5t-64 159.5q0 97 69 161.5t165 64.5t160.5 -65.5t64.5 -159.5q0 -97 -68.5 -161.5t-164.5 -64.5z" />
    <glyph glyph-name="hungarumlautcmb" unicode="&#x30b;" 
d="M86 1232h-179l289 325h262zM473 1232h-180l291 325h260z" />
    <glyph glyph-name="caroncmb" unicode="&#x30c;" 
d="M98 1204l-194 342h230l96 -194h17l151 194h239l-302 -342h-237z" />
    <glyph glyph-name="dblgravecmb" unicode="&#x30f;" 
d="M145 1237h-194l-327 329h251zM529 1237h-192l-329 329h252z" />
    <glyph glyph-name="invertedbrevecmb" unicode="&#x311;" 
d="M-102 1225q3 140 98.5 234.5t251.5 94.5q161 0 249 -95.5t70 -233.5h-180q4 69 -31 115.5t-111 46.5q-77 0 -121 -47t-48 -115h-178z" />
    <glyph glyph-name="horncmb" unicode="&#x31b;" 
d="M153 858l40 230q27 -15 58 -12q76 6 94 107l27 158h252l-35 -202q-24 -131 -102 -216t-205 -85q-96 0 -129 20z" />
    <glyph glyph-name="dotbelowcmb" unicode="&#x323;" 
d="M-185 -241q0 63 41 105t101 42q64 0 106.5 -41.5t42.5 -105.5q0 -62 -42.5 -103t-106.5 -41q-60 0 -101 41t-41 103z" />
    <glyph glyph-name="dieresisbelowcmb" unicode="&#x324;" 
d="M-376 -261q0 58 35.5 92t95.5 34q61 0 96.5 -34t35.5 -92q0 -56 -35.5 -89.5t-96.5 -33.5q-60 0 -95.5 34t-35.5 89zM27 -261q0 58 35 92t95 34q61 0 97 -34t36 -92q0 -55 -35.5 -89t-97.5 -34q-59 0 -94.5 34t-35.5 89z" />
    <glyph glyph-name="ringbelowcmb" unicode="&#x325;" 
d="M-51 -390q38 0 64.5 25.5t26.5 62.5q0 38 -26.5 63t-64.5 25t-64.5 -25.5t-26.5 -62.5t26.5 -62.5t64.5 -25.5zM-55 -528q-98 0 -162 65.5t-64 159.5q0 97 69 161.5t165 64.5t160.5 -65.5t64.5 -159.5q0 -97 -68.5 -161.5t-164.5 -64.5z" />
    <glyph glyph-name="commabelowcmb" unicode="&#x326;" 
d="M-20 -475h-206l83 326h234z" />
    <glyph glyph-name="cedillacmb" unicode="&#x327;" 
d="M-130 -160l38 166h181l-28 -113q71 -1 114 -40.5t43 -107.5q0 -14 -3 -29q-12 -97 -85.5 -146t-195.5 -49q-96 0 -151 20l24 133q48 -15 117 -15q96 0 101 50q1 3 1 9q0 26 -26.5 37.5t-85.5 11.5h-55z" />
    <glyph glyph-name="ogonekcmb" unicode="&#x328;" 
d="M118 78q-166 -103 -166 -210q0 -49 33.5 -79.5t100.5 -30.5q29 0 43 2v-164q-33 -10 -115 -10q-135 0 -208.5 64t-73.5 164q0 113 98 201q50 44 104 70z" />
    <glyph glyph-name="circumflexbelowcmb" unicode="&#x32d;" 
d="M-448 -416l303 303h253l187 -303h-241l-87 162h-20l-157 -162h-238z" />
    <glyph glyph-name="brevebelowcmb" unicode="&#x32e;" 
d="M-382 -111h183q-4 -68 35 -116t114 -48q76 0 119.5 47t47.5 117h179q-2 -140 -95 -235.5t-250 -95.5q-159 0 -248.5 94.5t-84.5 236.5z" />
    <glyph glyph-name="tildebelowcmb" unicode="&#x330;" 
d="M51 -441q-47 0 -78.5 18t-62.5 51q-5 5 -19.5 21t-21.5 22.5t-21 13t-29 6.5q-54 0 -68 -85h-156q4 114 61.5 191.5t153.5 77.5q50 0 85 -21.5t70 -59.5q5 -5 16.5 -18.5t16.5 -18.5t15 -13t19 -11t20 -3q57 0 69 97h156q-6 -115 -68 -191.5t-158 -76.5z" />
    <glyph glyph-name="macronbelowcmb" unicode="&#x331;" 
d="M304 -192l-26 -144h-680l26 144h680z" />
    <glyph glyph-name="Delta" unicode="&#x394;" horiz-adv-x="1313" 
d="M1298 0h-1288l678 1365h416zM476 277h455l-78 788h-17z" />
    <glyph glyph-name="Omega" unicode="&#x3a9;" horiz-adv-x="1415" 
d="M788 0l57 334q171 63 215 289l27 139q10 57 10 107q0 117 -60.5 182.5t-166.5 65.5q-108 0 -182.5 -71t-102.5 -217l-27 -139q-10 -56 -10 -107q0 -87 31.5 -151.5t87.5 -94.5l-59 -337h-514l49 280h219l1 14q-130 121 -130 323q0 76 9 125l33 166q45 232 206 356
t409 124q252 0 401 -127t149 -361q0 -75 -10 -130l-33 -164q-19 -98 -81 -177.5t-144 -133.5l-1 -15h235l-50 -280h-568z" />
    <glyph glyph-name="mu" unicode="&#x3bc;" horiz-adv-x="1331" 
d="M393 39l-62 -376h-277l250 1406h326l-105 -600q-9 -54 -8 -88q3 -72 43 -106.5t101 -34.5q80 0 134 56.5t72 159.5l108 613h324l-130 -733q-11 -61 8 -88t79 -27q28 0 48 3l-40 -228q-72 -17 -158 -17q-111 0 -175 42.5t-60 137.5q3 20 4 29h-15q-27 -83 -100.5 -142.5
t-180.5 -59.5q-56 0 -107 15.5t-69 37.5h-10z" />
    <glyph glyph-name="pi" unicode="&#x3c0;" horiz-adv-x="1409" 
d="M1334 0q-90 -18 -182 -18q-133 0 -200.5 50.5t-68.5 137.5q0 30 7 67l104 586h-267l-145 -823h-326l146 823h-214l43 246h1323l-43 -246h-191l-87 -488q-2 -20 -2 -30q1 -30 24 -47.5t60 -17.5q39 0 63 6z" />
    <glyph glyph-name="Aringbelow" unicode="&#x1e00;" horiz-adv-x="1314" 
d="M2 0l673 1365h415l198 -1365h-361l-31 309h-412l-140 -309h-342zM835 1064h-18l-228 -511h291zM600 -390q38 0 64.5 25.5t26.5 62.5q0 38 -26.5 63t-64.5 25t-64.5 -25.5t-26.5 -62.5t26.5 -62.5t64.5 -25.5zM596 -528q-98 0 -162 65.5t-64 159.5q0 97 69 161.5t165 64.5
t160.5 -65.5t64.5 -159.5q0 -97 -68.5 -161.5t-164.5 -64.5z" />
    <glyph glyph-name="aringbelow" unicode="&#x1e01;" horiz-adv-x="1136" 
d="M440 -16q-138 0 -227.5 81.5t-89.5 222.5q0 9 1 15q4 159 123.5 242t314.5 83h241l13 75q3 24 3 31q0 50 -37 83.5t-103 33.5q-56 0 -92.5 -25t-46.5 -67h-306q8 64 40 121t87 105t142 76t196 28q201 0 317.5 -95t116.5 -268q0 -39 -10 -96l-111 -630h-305l25 135h-17
q-31 -63 -101.5 -107t-173.5 -44zM448 331q0 -52 36.5 -85t94.5 -33q62 0 111.5 36.5t61.5 94.5l20 110h-164q-76 0 -118 -34.5t-42 -88.5zM498 -390q38 0 64.5 25.5t26.5 62.5q0 38 -26.5 63t-64.5 25t-64.5 -25.5t-26.5 -62.5t26.5 -62.5t64.5 -25.5zM494 -528
q-98 0 -162 65.5t-64 159.5q0 97 69 161.5t165 64.5t160.5 -65.5t64.5 -159.5q0 -97 -68.5 -161.5t-164.5 -64.5z" />
    <glyph glyph-name="Bdotaccent" unicode="&#x1e02;" horiz-adv-x="1319" 
d="M138 0l240 1365h590q194 0 291.5 -84.5t97.5 -222.5q0 -71 -28.5 -133t-73.5 -104t-97.5 -68t-104.5 -33l-3 -16q106 -10 185 -90t79 -202q0 -101 -43 -180.5t-119.5 -129.5t-179 -76t-225.5 -26h-609zM671 1138l-58 -324h187q97 0 157 49.5t60 139.5q0 135 -178 135
h-168zM575 596l-65 -364h210q114 0 184.5 54.5t70.5 151.5q0 158 -211 158h-189zM789 1614q0 60 40 99.5t96 39.5q60 0 100.5 -39.5t40.5 -99.5q0 -58 -40.5 -97t-100.5 -39q-56 0 -96 39.5t-40 96.5z" />
    <glyph glyph-name="bdotaccent" unicode="&#x1e03;" horiz-adv-x="1238" 
d="M441 1680q0 60 40 99.5t96 39.5q60 0 100.5 -39.5t40.5 -99.5q0 -58 -40.5 -97t-100.5 -39q-56 0 -96 39.5t-40 96.5zM795 -16q-115 0 -198 59t-103 154h-14l-35 -197h-326l253 1431h328l-102 -560h18q14 38 37 71.5t58.5 66t89.5 52t119 19.5q158 0 251 -107.5
t93 -288.5q0 -80 -13 -152l-18 -100q-37 -217 -151 -332.5t-287 -115.5zM534 442q0 -86 46 -142t120 -56q79 0 132 59t72 165l16 86q6 36 6 90q0 81 -43 131t-119 50q-81 0 -136 -61.5t-73 -169.5l-14 -86q-7 -33 -7 -66z" />
    <glyph glyph-name="Bdotbelow" unicode="&#x1e04;" horiz-adv-x="1319" 
d="M475 -241q0 63 41 105t101 42q64 0 106.5 -41.5t42.5 -105.5q0 -62 -42.5 -103t-106.5 -41q-60 0 -101 41t-41 103zM138 0l240 1365h590q194 0 291.5 -84.5t97.5 -222.5q0 -71 -28.5 -133t-73.5 -104t-97.5 -68t-104.5 -33l-3 -16q106 -10 185 -90t79 -202
q0 -101 -43 -180.5t-119.5 -129.5t-179 -76t-225.5 -26h-609zM671 1138l-58 -324h187q97 0 157 49.5t60 139.5q0 135 -178 135h-168zM575 596l-65 -364h210q114 0 184.5 54.5t70.5 151.5q0 158 -211 158h-189z" />
    <glyph glyph-name="bdotbelow" unicode="&#x1e05;" horiz-adv-x="1238" 
d="M459 -241q0 63 41 105t101 42q64 0 106.5 -41.5t42.5 -105.5q0 -62 -42.5 -103t-106.5 -41q-60 0 -101 41t-41 103zM795 -16q-115 0 -198 59t-103 154h-14l-35 -197h-326l253 1431h328l-102 -560h18q14 38 37 71.5t58.5 66t89.5 52t119 19.5q158 0 251 -107.5t93 -288.5
q0 -80 -13 -152l-18 -100q-37 -217 -151 -332.5t-287 -115.5zM534 442q0 -86 46 -142t120 -56q79 0 132 59t72 165l16 86q6 36 6 90q0 81 -43 131t-119 50q-81 0 -136 -61.5t-73 -169.5l-14 -86q-7 -33 -7 -66z" />
    <glyph glyph-name="Blinebelow" unicode="&#x1e06;" horiz-adv-x="1319" 
d="M138 0l240 1365h590q194 0 291.5 -84.5t97.5 -222.5q0 -71 -28.5 -133t-73.5 -104t-97.5 -68t-104.5 -33l-3 -16q106 -10 185 -90t79 -202q0 -101 -43 -180.5t-119.5 -129.5t-179 -76t-225.5 -26h-609zM671 1138l-58 -324h187q97 0 157 49.5t60 139.5q0 135 -178 135
h-168zM575 596l-65 -364h210q114 0 184.5 54.5t70.5 151.5q0 158 -211 158h-189zM964 -192l-26 -144h-680l26 144h680z" />
    <glyph glyph-name="blinebelow" unicode="&#x1e07;" horiz-adv-x="1238" 
d="M948 -192l-26 -144h-680l26 144h680zM795 -16q-115 0 -198 59t-103 154h-14l-35 -197h-326l253 1431h328l-102 -560h18q14 38 37 71.5t58.5 66t89.5 52t119 19.5q158 0 251 -107.5t93 -288.5q0 -80 -13 -152l-18 -100q-37 -217 -151 -332.5t-287 -115.5zM534 442
q0 -86 46 -142t120 -56q79 0 132 59t72 165l16 86q6 36 6 90q0 81 -43 131t-119 50q-81 0 -136 -61.5t-73 -169.5l-14 -86q-7 -33 -7 -66z" />
    <glyph glyph-name="Ccedillaacute" unicode="&#x1e08;" horiz-adv-x="1325" 
d="M745 1495l293 231h340l-339 -231h-294zM647 -479q-96 0 -151 20l24 133q48 -15 117 -15q96 0 101 50q1 3 1 9q0 26 -26.5 37.5t-85.5 11.5h-55l11 73l32 147q-199 34 -311 174t-112 376q0 65 9 121l33 182q45 259 205 404t414 145q103 0 192 -25t152.5 -68t109 -100
t68 -122t22.5 -133q0 -63 -12 -99h-319q4 25 4 61q-3 85 -61 145t-158 60q-220 0 -279 -315l-26 -134q-11 -60 -11 -128q0 -124 64 -196t175 -72q98 0 157.5 52.5t75.5 137.5h315q-4 -16 -4 -30q-10 -86 -47 -161.5t-100 -137.5t-160 -101t-217 -45l-20 -85q71 -1 114 -40.5
t43 -107.5q0 -14 -3 -29q-12 -97 -85.5 -146t-195.5 -49z" />
    <glyph glyph-name="ccedillaacute" unicode="&#x1e09;" horiz-adv-x="1108" 
d="M843 1215h-241l251 329h295zM511 -479q-96 0 -151 20l24 133q48 -15 117 -15q96 0 101 50v9q0 26 -26 37.5t-85 11.5h-56l11 73l35 152q-156 34 -243 142.5t-87 273.5q0 70 12 140l20 112q19 109 67 193t117.5 134.5t152.5 76t177 25.5q126 0 228.5 -42.5t166 -130
t63.5 -206.5q0 -27 -4 -40h-302q1 5 1 16q0 58 -41.5 102.5t-114.5 44.5q-74 0 -127 -53t-71 -153l-17 -105q-8 -49 -8 -91q0 -193 170 -193q133 0 158 107h306q-22 -168 -142.5 -261.5t-297.5 -103.5h-6l-21 -87q71 -1 114 -40.5t43 -107.5q0 -14 -3 -29q-12 -97 -86 -146
t-195 -49z" />
    <glyph glyph-name="Ddotaccent" unicode="&#x1e0a;" horiz-adv-x="1382" 
d="M816 1614q0 60 40 99.5t96 39.5q60 0 100.5 -39.5t40.5 -99.5q0 -58 -40.5 -97t-100.5 -39q-56 0 -96 39.5t-40 96.5zM382 1365h513q251 0 390.5 -149t139.5 -394q0 -71 -8 -127q-4 -60 -24 -136q-56 -261 -249 -410t-490 -149h-512zM672 1093l-146 -821h97
q163 0 277 78.5t151 242.5q17 53 22 121q6 44 6 94q0 147 -81.5 216t-214.5 69h-111z" />
    <glyph glyph-name="ddotaccent" unicode="&#x1e0b;" horiz-adv-x="1239" 
d="M1104 1680q0 60 40 99.5t96 39.5q60 0 100.5 -39.5t40.5 -99.5q0 -58 -40.5 -97t-100.5 -39q-56 0 -96 39.5t-40 96.5zM615 1080q126 0 205.5 -66.5t92.5 -153.5h14l101 571h329l-251 -1431h-328l30 171h-17q-27 -75 -104 -130.5t-194 -55.5q-163 0 -255.5 108.5
t-92.5 291.5q0 79 13 149l19 100q40 213 154 329.5t284 116.5zM881 637q0 85 -47 136t-118 51q-80 0 -133 -59.5t-73 -164.5l-16 -86q-6 -34 -6 -79q0 -83 42 -137t122 -54t134 60t74 171l15 85q6 29 6 77z" />
    <glyph glyph-name="Ddotbelow" unicode="&#x1e0c;" horiz-adv-x="1382" 
d="M492 -241q0 63 41 105t101 42q64 0 106.5 -41.5t42.5 -105.5q0 -62 -42.5 -103t-106.5 -41q-60 0 -101 41t-41 103zM382 1365h513q251 0 390.5 -149t139.5 -394q0 -71 -8 -127q-4 -60 -24 -136q-56 -261 -249 -410t-490 -149h-512zM672 1093l-146 -821h97q163 0 277 78.5
t151 242.5q17 53 22 121q6 44 6 94q0 147 -81.5 216t-214.5 69h-111z" />
    <glyph glyph-name="ddotbelow" unicode="&#x1e0d;" horiz-adv-x="1239" 
d="M445 -241q0 63 41 105t101 42q64 0 106.5 -41.5t42.5 -105.5q0 -62 -42.5 -103t-106.5 -41q-60 0 -101 41t-41 103zM615 1080q126 0 205.5 -66.5t92.5 -153.5h14l101 571h329l-251 -1431h-328l30 171h-17q-27 -75 -104 -130.5t-194 -55.5q-163 0 -255.5 108.5
t-92.5 291.5q0 79 13 149l19 100q40 213 154 329.5t284 116.5zM881 637q0 85 -47 136t-118 51q-80 0 -133 -59.5t-73 -164.5l-16 -86q-6 -34 -6 -79q0 -83 42 -137t122 -54t134 60t74 171l15 85q6 29 6 77z" />
    <glyph glyph-name="Dlinebelow" unicode="&#x1e0e;" horiz-adv-x="1382" 
d="M981 -192l-26 -144h-680l26 144h680zM382 1365h513q251 0 390.5 -149t139.5 -394q0 -71 -8 -127q-4 -60 -24 -136q-56 -261 -249 -410t-490 -149h-512zM672 1093l-146 -821h97q163 0 277 78.5t151 242.5q17 53 22 121q6 44 6 94q0 147 -81.5 216t-214.5 69h-111z" />
    <glyph glyph-name="dlinebelow" unicode="&#x1e0f;" horiz-adv-x="1239" 
d="M934 -192l-26 -144h-680l26 144h680zM615 1080q126 0 205.5 -66.5t92.5 -153.5h14l101 571h329l-251 -1431h-328l30 171h-17q-27 -75 -104 -130.5t-194 -55.5q-163 0 -255.5 108.5t-92.5 291.5q0 79 13 149l19 100q40 213 154 329.5t284 116.5zM881 637q0 85 -47 136
t-118 51q-80 0 -133 -59.5t-73 -164.5l-16 -86q-6 -34 -6 -79q0 -83 42 -137t122 -54t134 60t74 171l15 85q6 29 6 77z" />
    <glyph glyph-name="Dcommaaccent" unicode="&#x1e10;" horiz-adv-x="1382" 
d="M657 -475h-206l83 326h234zM382 1365h513q251 0 390.5 -149t139.5 -394q0 -71 -8 -127q-4 -60 -24 -136q-56 -261 -249 -410t-490 -149h-512zM672 1093l-146 -821h97q163 0 277 78.5t151 242.5q17 53 22 121q6 44 6 94q0 147 -81.5 216t-214.5 69h-111z" />
    <glyph glyph-name="dcommaaccent" unicode="&#x1e11;" horiz-adv-x="1239" 
d="M610 -475h-206l83 326h234zM615 1080q126 0 205.5 -66.5t92.5 -153.5h14l101 571h329l-251 -1431h-328l30 171h-17q-27 -75 -104 -130.5t-194 -55.5q-163 0 -255.5 108.5t-92.5 291.5q0 79 13 149l19 100q40 213 154 329.5t284 116.5zM881 637q0 85 -47 136t-118 51
q-80 0 -133 -59.5t-73 -164.5l-16 -86q-6 -34 -6 -79q0 -83 42 -137t122 -54t134 60t74 171l15 85q6 29 6 77z" />
    <glyph glyph-name="Dcircumflexbelow" unicode="&#x1e12;" horiz-adv-x="1382" 
d="M382 1365h513q251 0 390.5 -149t139.5 -394q0 -71 -8 -127q-4 -60 -24 -136q-56 -261 -249 -410t-490 -149h-512zM672 1093l-146 -821h97q163 0 277 78.5t151 242.5q17 53 22 121q6 44 6 94q0 147 -81.5 216t-214.5 69h-111zM229 -416l303 303h253l187 -303h-241l-87 162
h-20l-157 -162h-238z" />
    <glyph glyph-name="dcircumflexbelow" unicode="&#x1e13;" horiz-adv-x="1239" 
d="M615 1080q126 0 205.5 -66.5t92.5 -153.5h14l101 571h329l-251 -1431h-328l30 171h-17q-27 -75 -104 -130.5t-194 -55.5q-163 0 -255.5 108.5t-92.5 291.5q0 79 13 149l19 100q40 213 154 329.5t284 116.5zM881 637q0 85 -47 136t-118 51q-80 0 -133 -59.5t-73 -164.5
l-16 -86q-6 -34 -6 -79q0 -83 42 -137t122 -54t134 60t74 171l15 85q6 29 6 77zM182 -416l303 303h253l187 -303h-241l-87 162h-20l-157 -162h-238z" />
    <glyph glyph-name="Emacrongrave" unicode="&#x1e14;" horiz-adv-x="1168" 
d="M1065 1744h-292l-332 220h337zM1105 272l-47 -272h-918l240 1365h917l-48 -272h-579l-52 -282h547l-42 -246h-547l-53 -293h582zM1212 1629l-25 -145h-680l25 145h680z" />
    <glyph glyph-name="emacrongrave" unicode="&#x1e15;" horiz-adv-x="1142" 
d="M989 1517h-237l-246 324h291zM620 -22q-101 0 -185.5 27t-149 80t-100.5 137.5t-36 192.5q0 54 14 140l16 90q25 146 103 248t185.5 149t238.5 47q210 0 335 -128t117 -337q0 -48 -24 -157h-661q-8 -35 -8 -80q0 -74 44 -120.5t132 -46.5q67 0 111 27.5t56 78.5h304
q-16 -145 -150.5 -246.5t-341.5 -101.5zM847 645q4 20 4 33q8 75 -31.5 125t-119.5 50q-70 0 -119 -43.5t-68 -125.5l-9 -39h343zM1142 1370l-26 -144h-680l26 144h680z" />
    <glyph glyph-name="Emacronacute" unicode="&#x1e16;" horiz-adv-x="1168" 
d="M709 1744l293 231h340l-339 -231h-294zM1105 272l-47 -272h-918l240 1365h917l-48 -272h-579l-52 -282h547l-42 -246h-547l-53 -293h582zM1212 1629l-25 -145h-680l25 145h680z" />
    <glyph glyph-name="emacronacute" unicode="&#x1e17;" horiz-adv-x="1142" 
d="M903 1517h-241l251 329h295zM620 -22q-101 0 -185.5 27t-149 80t-100.5 137.5t-36 192.5q0 54 14 140l16 90q25 146 103 248t185.5 149t238.5 47q210 0 335 -128t117 -337q0 -48 -24 -157h-661q-8 -35 -8 -80q0 -74 44 -120.5t132 -46.5q67 0 111 27.5t56 78.5h304
q-16 -145 -150.5 -246.5t-341.5 -101.5zM847 645q4 20 4 33q8 75 -31.5 125t-119.5 50q-70 0 -119 -43.5t-68 -125.5l-9 -39h343zM1142 1370l-26 -144h-680l26 144h680z" />
    <glyph glyph-name="Ecircumflexbelow" unicode="&#x1e18;" horiz-adv-x="1168" 
d="M1105 272l-47 -272h-918l240 1365h917l-48 -272h-579l-52 -282h547l-42 -246h-547l-53 -293h582zM146 -416l303 303h253l187 -303h-241l-87 162h-20l-157 -162h-238z" />
    <glyph glyph-name="ecircumflexbelow" unicode="&#x1e19;" horiz-adv-x="1142" 
d="M620 -22q-101 0 -185.5 27t-149 80t-100.5 137.5t-36 192.5q0 54 14 140l16 90q25 146 103 248t185.5 149t238.5 47q210 0 335 -128t117 -337q0 -48 -24 -157h-661q-8 -35 -8 -80q0 -74 44 -120.5t132 -46.5q67 0 111 27.5t56 78.5h304q-16 -145 -150.5 -246.5
t-341.5 -101.5zM847 645q4 20 4 33q8 75 -31.5 125t-119.5 50q-70 0 -119 -43.5t-68 -125.5l-9 -39h343zM135 -416l303 303h253l187 -303h-241l-87 162h-20l-157 -162h-238z" />
    <glyph glyph-name="Etildebelow" unicode="&#x1e1a;" horiz-adv-x="1168" 
d="M645 -441q-47 0 -78.5 18t-62.5 51q-5 5 -19.5 21t-21.5 22.5t-21 13t-29 6.5q-54 0 -68 -85h-156q4 114 61.5 191.5t153.5 77.5q50 0 85 -21.5t70 -59.5q5 -5 16.5 -18.5t16.5 -18.5t15 -13t19 -11t20 -3q57 0 69 97h156q-6 -115 -68 -191.5t-158 -76.5zM1105 272
l-47 -272h-918l240 1365h917l-48 -272h-579l-52 -282h547l-42 -246h-547l-53 -293h582z" />
    <glyph glyph-name="etildebelow" unicode="&#x1e1b;" horiz-adv-x="1142" 
d="M634 -441q-47 0 -78.5 18t-62.5 51q-5 5 -19.5 21t-21.5 22.5t-21 13t-29 6.5q-54 0 -68 -85h-156q4 114 61.5 191.5t153.5 77.5q50 0 85 -21.5t70 -59.5q5 -5 16.5 -18.5t16.5 -18.5t15 -13t19 -11t20 -3q57 0 69 97h156q-6 -115 -68 -191.5t-158 -76.5zM620 -22
q-101 0 -185.5 27t-149 80t-100.5 137.5t-36 192.5q0 54 14 140l16 90q25 146 103 248t185.5 149t238.5 47q210 0 335 -128t117 -337q0 -48 -24 -157h-661q-8 -35 -8 -80q0 -74 44 -120.5t132 -46.5q67 0 111 27.5t56 78.5h304q-16 -145 -150.5 -246.5t-341.5 -101.5z
M847 645q4 20 4 33q8 75 -31.5 125t-119.5 50q-70 0 -119 -43.5t-68 -125.5l-9 -39h343z" />
    <glyph glyph-name="Ecedillabreve" unicode="&#x1e1c;" horiz-adv-x="1168" 
d="M496 0h-356l240 1365h917l-48 -272h-579l-52 -282h547l-42 -246h-547l-53 -293h582l-47 -272h-381l-26 -107q71 -1 114 -40.5t43 -107.5q0 -14 -3 -29q-12 -97 -85.5 -146t-195.5 -49q-97 0 -150 20l23 133q48 -15 117 -15q96 0 101 50q1 3 1 9q0 26 -26.5 37.5
t-85.5 11.5h-55l11 73zM564 1771h181q-8 -63 32 -100t115 -37q77 0 123 37t57 100h180q-22 -142 -120 -224t-267 -82q-151 0 -241 88t-60 218z" />
    <glyph glyph-name="ecedillabreve" unicode="&#x1e1d;" horiz-adv-x="1142" 
d="M481 1504h178q-2 -60 36.5 -103.5t110.5 -43.5q70 0 113 41.5t48 105.5h178q-8 -140 -101.5 -229t-240.5 -89q-151 0 -240.5 93t-81.5 225zM847 645q4 20 4 33q8 75 -31.5 125t-119.5 50q-70 0 -118.5 -43t-68.5 -126l-9 -39h343zM508 -479q-96 0 -151 20l24 133
q48 -15 117 -15q96 0 101 50v9q0 26 -26 37.5t-85 11.5h-56l11 73l35 153q-151 34 -240 141t-89 281q0 59 15 140l15 90q26 146 103.5 248t185 149t238.5 47q210 0 335 -128t117 -337q0 -55 -24 -157h-661q-8 -35 -8 -80q0 -74 44 -120.5t132 -46.5q67 0 111 27.5t56 78.5
h304q-16 -138 -139.5 -238t-316.5 -109l-21 -86q71 -1 114 -40.5t43 -107.5q0 -14 -3 -29q-12 -97 -86 -146t-195 -49z" />
    <glyph glyph-name="Fdotaccent" unicode="&#x1e1e;" horiz-adv-x="1136" 
d="M736 1614q0 60 40 99.5t96 39.5q60 0 100.5 -39.5t40.5 -99.5q0 -58 -40.5 -97t-100.5 -39q-56 0 -96 39.5t-40 96.5zM480 0h-336l240 1365h915l-47 -271h-578l-57 -320h526l-44 -262h-528z" />
    <glyph glyph-name="fdotaccent" unicode="&#x1e1f;" horiz-adv-x="816" 
d="M599 1711q0 60 40 99.5t96 39.5q60 0 100.5 -39.5t40.5 -99.5q0 -58 -40.5 -97t-100.5 -39q-56 0 -96 39.5t-40 96.5zM190 0l142 803h-169l43 244h169l16 97q30 170 133.5 242.5t307.5 72.5q93 0 170 -11l-39 -220q-42 6 -100 6q-73 0 -110.5 -27t-48.5 -83l-13 -77h234
l-44 -244h-225l-142 -803h-324z" />
    <glyph glyph-name="Gmacron" unicode="&#x1e20;" horiz-adv-x="1376" 
d="M239 850q46 252 206 395.5t421 143.5q114 0 208.5 -26.5t157.5 -70t106.5 -101.5t63 -119t19.5 -124q0 -31 -3 -41h-324v28q-1 28 -13.5 57t-37.5 58t-71 47.5t-105 18.5q-116 0 -191 -81.5t-104 -235.5l-28 -149q-11 -68 -11 -124q0 -129 69 -203t179 -74
q102 0 173.5 49t86.5 124l17 88h-241l39 220h553l-52 -294q-38 -212 -192.5 -336t-401.5 -124q-96 0 -180.5 20.5t-156.5 64t-123.5 106.5t-80.5 153.5t-29 200.5q0 80 14 155zM1296 1629l-25 -145h-680l25 145h680z" />
    <glyph glyph-name="gmacron" unicode="&#x1e21;" horiz-adv-x="1242" 
d="M1186 1370l-26 -144h-680l26 144h680zM623 1080q120 0 198 -59.5t101 -153.5h15l35 198h326l-190 -1088q-33 -184 -173 -280t-366 -96q-117 0 -209.5 27.5t-148.5 74t-85.5 104.5t-29.5 123q0 22 2 26h302q3 -16 4 -18q10 -43 59 -70.5t119 -27.5q96 0 145 49t67 148
l24 143h-18q-30 -67 -105.5 -110t-180.5 -43q-159 0 -256.5 109.5t-97.5 300.5q0 86 13 146l13 66q45 216 162 323.5t275 107.5zM887 639q0 83 -45 134t-121 51q-79 0 -132.5 -60t-72.5 -168l-12 -64q-9 -47 -9 -86q0 -87 43 -141t125 -54q77 0 131.5 59.5t72.5 169.5l12 67
q8 47 8 92z" />
    <glyph glyph-name="Hdotaccent" unicode="&#x1e22;" horiz-adv-x="1456" 
d="M474 0h-336l240 1365h337l-93 -536h493l93 536h338l-241 -1365h-335l97 555h-493zM870 1614q0 60 40 99.5t96 39.5q60 0 100.5 -39.5t40.5 -99.5q0 -58 -40.5 -97t-100.5 -39q-56 0 -96 39.5t-40 96.5z" />
    <glyph glyph-name="hdotaccent" unicode="&#x1e23;" horiz-adv-x="1246" 
d="M116 0l250 1431h329l-94 -523h17q39 79 114 128t186 49q150 0 238 -89.5t88 -232.5q0 -69 -24 -201l-99 -562h-328l101 577q9 52 9 103q0 71 -40 111.5t-102 40.5q-85 0 -138.5 -62t-72.5 -169l-106 -601h-328zM440 1680q0 60 40 99.5t96 39.5q60 0 100.5 -39.5
t40.5 -99.5q0 -58 -40.5 -97t-100.5 -39q-56 0 -96 39.5t-40 96.5z" />
    <glyph glyph-name="Hdotbelow" unicode="&#x1e24;" horiz-adv-x="1456" 
d="M474 0h-336l240 1365h337l-93 -536h493l93 536h338l-241 -1365h-335l97 555h-493zM540 -241q0 63 41 105t101 42q64 0 106.5 -41.5t42.5 -105.5q0 -62 -42.5 -103t-106.5 -41q-60 0 -101 41t-41 103z" />
    <glyph glyph-name="hdotbelow" unicode="&#x1e25;" horiz-adv-x="1246" 
d="M116 0l250 1431h329l-94 -523h17q39 79 114 128t186 49q150 0 238 -89.5t88 -232.5q0 -69 -24 -201l-99 -562h-328l101 577q9 52 9 103q0 71 -40 111.5t-102 40.5q-85 0 -138.5 -62t-72.5 -169l-106 -601h-328zM444 -241q0 63 41 105t101 42q64 0 106.5 -41.5
t42.5 -105.5q0 -62 -42.5 -103t-106.5 -41q-60 0 -101 41t-41 103z" />
    <glyph glyph-name="Hdieresis" unicode="&#x1e26;" horiz-adv-x="1456" 
d="M474 0h-336l240 1365h337l-93 -536h493l93 536h338l-241 -1365h-335l97 555h-493zM672 1577q0 61 34.5 95t95.5 34q62 0 99 -34t37 -95q0 -56 -37 -88.5t-99 -32.5q-61 0 -95.5 32.5t-34.5 88.5zM1073 1577q0 61 36.5 95t97.5 34q62 0 97 -34t35 -95q0 -56 -35 -88.5
t-97 -32.5q-61 0 -97.5 32.5t-36.5 88.5z" />
    <glyph glyph-name="hdieresis" unicode="&#x1e27;" horiz-adv-x="1246" 
d="M116 0l250 1431h329l-94 -523h17q39 79 114 128t186 49q150 0 238 -89.5t88 -232.5q0 -69 -24 -201l-99 -562h-328l101 577q9 52 9 103q0 71 -40 111.5t-102 40.5q-85 0 -138.5 -62t-72.5 -169l-106 -601h-328zM245 1677q0 58 35.5 92t95.5 34q61 0 96.5 -34t35.5 -92
q0 -56 -35.5 -89.5t-96.5 -33.5q-60 0 -95.5 34t-35.5 89zM648 1677q0 58 35 92t95 34q61 0 97 -34t36 -92q0 -55 -35.5 -89t-97.5 -34q-59 0 -94.5 34t-35.5 89z" />
    <glyph glyph-name="Hcedilla" unicode="&#x1e28;" horiz-adv-x="1456" 
d="M300 0h-155l240 1365h337l-93 -536h493l93 536h338l-241 -1365h-335l97 555h-493l-100 -555l-25 -107q71 -1 113.5 -40.5t42.5 -107.5q0 -19 -2 -29q-12 -97 -86 -146t-195 -49q-96 0 -151 20l24 133q48 -15 117 -15q95 0 100 50q1 3 1 9q0 26 -26.5 37.5t-85.5 11.5h-55
l11 73z" />
    <glyph glyph-name="hcedilla" unicode="&#x1e29;" horiz-adv-x="1246" 
d="M272 0h-147l250 1431h329l-94 -523h17q39 79 114 128t186 49q150 0 238 -89.5t88 -232.5q0 -69 -24 -201l-99 -562h-328l101 577q9 52 9 103q0 71 -40 111.5t-102 40.5q-85 0 -138.5 -62t-72.5 -169l-106 -601l-26 -107q71 -1 114 -40.5t43 -107.5q0 -14 -3 -29
q-12 -97 -85.5 -146t-195.5 -49q-98 0 -150 20l23 133q50 -15 117 -15q96 0 101 50q1 3 1 9q0 26 -26.5 37.5t-85.5 11.5h-55l11 73z" />
    <glyph glyph-name="Hbrevebelow" unicode="&#x1e2a;" horiz-adv-x="1456" 
d="M343 -111q-5 -142 84.5 -236.5t248.5 -94.5q157 0 250 95.5t95 235.5h-179q-4 -70 -47.5 -117t-119.5 -47q-75 0 -114 48t-35 116h-183zM474 0h-336l240 1365h337l-93 -536h493l93 536h338l-241 -1365h-335l97 555h-493z" />
    <glyph glyph-name="hbrevebelow" unicode="&#x1e2b;" horiz-adv-x="1246" 
d="M247 -111q-5 -142 84.5 -236.5t248.5 -94.5q157 0 250 95.5t95 235.5h-179q-4 -70 -47.5 -117t-119.5 -47q-75 0 -114 48t-35 116h-183zM116 0l250 1431h329l-94 -523h17q39 79 114 128t186 49q150 0 238 -89.5t88 -232.5q0 -69 -24 -201l-99 -562h-328l101 577
q9 52 9 103q0 71 -40 111.5t-102 40.5q-85 0 -138.5 -62t-72.5 -169l-106 -601h-328z" />
    <glyph glyph-name="Itildebelow" unicode="&#x1e2c;" horiz-adv-x="617" 
d="M466 0h-336l240 1365h337zM360 -441q-47 0 -78.5 18t-62.5 51q-5 5 -19.5 21t-21.5 22.5t-21 13t-29 6.5q-54 0 -68 -85h-156q4 114 61.5 191.5t153.5 77.5q50 0 85 -21.5t70 -59.5q5 -5 16.5 -18.5t16.5 -18.5t15 -13t19 -11t20 -3q57 0 69 97h156q-6 -115 -68 -191.5
t-158 -76.5z" />
    <glyph glyph-name="itildebelow" unicode="&#x1e2d;" horiz-adv-x="593" 
d="M129 0l189 1069h327l-189 -1069h-327zM330 1368q0 76 56 122t146 46q88 0 138 -43.5t50 -114.5q0 -75 -56.5 -121t-146.5 -46q-87 0 -137 43.5t-50 113.5zM347 -441q-47 0 -78.5 18t-62.5 51q-5 5 -19.5 21t-21.5 22.5t-21 13t-29 6.5q-54 0 -68 -85h-156
q4 114 61.5 191.5t153.5 77.5q50 0 85 -21.5t70 -59.5q5 -5 16.5 -18.5t16.5 -18.5t15 -13t19 -11t20 -3q57 0 69 97h156q-6 -115 -68 -191.5t-158 -76.5z" />
    <glyph glyph-name="Idieresisacute" unicode="&#x1e2e;" horiz-adv-x="617" 
d="M466 0h-336l240 1365h337zM428 1744l293 231h340l-339 -231h-294zM256 1577q0 61 34.5 95t95.5 34q62 0 99 -34t37 -95q0 -56 -37 -88.5t-99 -32.5q-61 0 -95.5 32.5t-34.5 88.5zM657 1577q0 61 36.5 95t97.5 34q62 0 97 -34t35 -95q0 -56 -35 -88.5t-97 -32.5
q-61 0 -97.5 32.5t-36.5 88.5z" />
    <glyph glyph-name="idieresisacute" unicode="&#x1e2f;" horiz-adv-x="635" 
d="M648 1517h-241l251 329h295zM139 0l189 1069h327l-190 -1069h-326zM209 1315q0 58 35.5 92t95.5 34q61 0 96.5 -34t35.5 -92q0 -56 -35.5 -89.5t-96.5 -33.5q-60 0 -95.5 34t-35.5 89zM612 1315q0 58 35 92t95 34q61 0 97 -34t36 -92q0 -55 -35.5 -89t-97.5 -34
q-59 0 -94.5 34t-35.5 89z" />
    <glyph glyph-name="Kacute" unicode="&#x1e30;" horiz-adv-x="1337" 
d="M717 1495l293 231h340l-339 -231h-294zM705 1365l-107 -577h15l544 577h405l-594 -621l353 -744h-372l-252 561l-163 -162l-70 -399h-336l240 1365h337z" />
    <glyph glyph-name="kacute" unicode="&#x1e31;" horiz-adv-x="1154" 
d="M484 357l-61 -357h-318l252 1431h318l-135 -757h19l373 395h378l-470 -459l294 -610h-342l-202 451zM624 1577h-241l251 329h295z" />
    <glyph glyph-name="Kdotbelow" unicode="&#x1e32;" horiz-adv-x="1337" 
d="M462 -241q0 63 41 105t101 42q64 0 106.5 -41.5t42.5 -105.5q0 -62 -42.5 -103t-106.5 -41q-60 0 -101 41t-41 103zM705 1365l-107 -577h15l544 577h405l-594 -621l353 -744h-372l-252 561l-163 -162l-70 -399h-336l240 1365h337z" />
    <glyph glyph-name="kdotbelow" unicode="&#x1e33;" horiz-adv-x="1154" 
d="M406 -241q0 63 41 105t101 42q64 0 106.5 -41.5t42.5 -105.5q0 -62 -42.5 -103t-106.5 -41q-60 0 -101 41t-41 103zM484 357l-61 -357h-318l252 1431h318l-135 -757h19l373 395h378l-470 -459l294 -610h-342l-202 451z" />
    <glyph glyph-name="Klinebelow" unicode="&#x1e34;" horiz-adv-x="1337" 
d="M705 1365l-107 -577h15l544 577h405l-594 -621l353 -744h-372l-252 561l-163 -162l-70 -399h-336l240 1365h337zM951 -192l-26 -144h-680l26 144h680z" />
    <glyph glyph-name="klinebelow" unicode="&#x1e35;" horiz-adv-x="1154" 
d="M484 357l-61 -357h-318l252 1431h318l-135 -757h19l373 395h378l-470 -459l294 -610h-342l-202 451zM895 -192l-26 -144h-680l26 144h680z" />
    <glyph glyph-name="Ldotbelow" unicode="&#x1e36;" horiz-adv-x="1069" 
d="M383 -241q0 63 41 105t101 42q64 0 106.5 -41.5t42.5 -105.5q0 -62 -42.5 -103t-106.5 -41q-60 0 -101 41t-41 103zM1069 281l-49 -281h-876l240 1365h337l-192 -1084h540z" />
    <glyph glyph-name="ldotbelow" unicode="&#x1e37;" horiz-adv-x="594" 
d="M113 -241q0 63 41 105t101 42q64 0 106.5 -41.5t42.5 -105.5q0 -62 -42.5 -103t-106.5 -41q-60 0 -101 41t-41 103zM125 0l253 1431h326l-252 -1431h-327z" />
    <glyph glyph-name="Ldotbelowmacron" unicode="&#x1e38;" horiz-adv-x="1069" 
d="M383 -241q0 63 41 105t101 42q64 0 106.5 -41.5t42.5 -105.5q0 -62 -42.5 -103t-106.5 -41q-60 0 -101 41t-41 103zM1069 281l-49 -281h-876l240 1365h337l-192 -1084h540zM936 1629l-25 -145h-680l25 145h680z" />
    <glyph glyph-name="ldotbelowmacron" unicode="&#x1e39;" horiz-adv-x="594" 
d="M113 -241q0 63 41 105t101 42q64 0 106.5 -41.5t42.5 -105.5q0 -62 -42.5 -103t-106.5 -41q-60 0 -101 41t-41 103zM125 0l253 1431h326l-252 -1431h-327zM928 1732l-26 -144h-680l26 144h680z" />
    <glyph glyph-name="Llinebelow" unicode="&#x1e3a;" horiz-adv-x="1069" 
d="M872 -192l-26 -144h-680l26 144h680zM1069 281l-49 -281h-876l240 1365h337l-192 -1084h540z" />
    <glyph glyph-name="llinebelow" unicode="&#x1e3b;" horiz-adv-x="594" 
d="M602 -192l-26 -144h-680l26 144h680zM125 0l253 1431h326l-252 -1431h-327z" />
    <glyph glyph-name="Lcircumflexbelow" unicode="&#x1e3c;" horiz-adv-x="1069" 
d="M1069 281l-49 -281h-876l240 1365h337l-192 -1084h540zM120 -416l303 303h253l187 -303h-241l-87 162h-20l-157 -162h-238z" />
    <glyph glyph-name="lcircumflexbelow" unicode="&#x1e3d;" horiz-adv-x="594" 
d="M125 0l253 1431h326l-252 -1431h-327zM-150 -416l303 303h253l187 -303h-241l-87 162h-20l-157 -162h-238z" />
    <glyph glyph-name="Macute" unicode="&#x1e3e;" horiz-adv-x="1672" 
d="M898 1495l293 231h340l-339 -231h-294zM442 0h-304l240 1365h354l188 -751h12l454 751h376l-241 -1365h-301l151 854h-16l-403 -662h-185l-159 662h-17z" />
    <glyph glyph-name="macute" unicode="&#x1e3f;" horiz-adv-x="1830" 
d="M1200 1215h-241l251 329h295zM111 0l188 1069h317l-31 -175h16q16 36 39.5 67.5t59.5 60.5t87.5 46t113.5 17q113 0 182.5 -55t96.5 -139h14q98 194 319 194q149 0 232.5 -88t83.5 -230q0 -62 -23 -203l-100 -564h-328l102 580q9 54 9 100q0 71 -35 111.5t-96 40.5
q-141 0 -181 -225l-107 -607h-314l101 580q9 43 9 101q0 70 -34 110.5t-94 40.5q-153 0 -193 -226l-106 -606h-328z" />
    <glyph glyph-name="Mdotaccent" unicode="&#x1e40;" horiz-adv-x="1672" 
d="M970 1614q0 60 40 99.5t96 39.5q60 0 100.5 -39.5t40.5 -99.5q0 -58 -40.5 -97t-100.5 -39q-56 0 -96 39.5t-40 96.5zM442 0h-304l240 1365h354l188 -751h12l454 751h376l-241 -1365h-301l151 854h-16l-403 -662h-185l-159 662h-17z" />
    <glyph glyph-name="mdotaccent" unicode="&#x1e41;" horiz-adv-x="1830" 
d="M1009 1318q0 60 40 99.5t96 39.5q60 0 100.5 -39.5t40.5 -99.5q0 -58 -40.5 -97t-100.5 -39q-56 0 -96 39.5t-40 96.5zM111 0l188 1069h317l-31 -175h16q16 36 39.5 67.5t59.5 60.5t87.5 46t113.5 17q113 0 182.5 -55t96.5 -139h14q98 194 319 194q149 0 232.5 -88
t83.5 -230q0 -62 -23 -203l-100 -564h-328l102 580q9 54 9 100q0 71 -35 111.5t-96 40.5q-141 0 -181 -225l-107 -607h-314l101 580q9 43 9 101q0 70 -34 110.5t-94 40.5q-153 0 -193 -226l-106 -606h-328z" />
    <glyph glyph-name="Mdotbelow" unicode="&#x1e42;" horiz-adv-x="1672" 
d="M641 -241q0 63 41 105t101 42q64 0 106.5 -41.5t42.5 -105.5q0 -62 -42.5 -103t-106.5 -41q-60 0 -101 41t-41 103zM442 0h-304l240 1365h354l188 -751h12l454 751h376l-241 -1365h-301l151 854h-16l-403 -662h-185l-159 662h-17z" />
    <glyph glyph-name="mdotbelow" unicode="&#x1e43;" horiz-adv-x="1830" 
d="M734 -241q0 63 41 105t101 42q64 0 106.5 -41.5t42.5 -105.5q0 -62 -42.5 -103t-106.5 -41q-60 0 -101 41t-41 103zM111 0l188 1069h317l-31 -175h16q16 36 39.5 67.5t59.5 60.5t87.5 46t113.5 17q113 0 182.5 -55t96.5 -139h14q98 194 319 194q149 0 232.5 -88
t83.5 -230q0 -62 -23 -203l-100 -564h-328l102 580q9 54 9 100q0 71 -35 111.5t-96 40.5q-141 0 -181 -225l-107 -607h-314l101 580q9 43 9 101q0 70 -34 110.5t-94 40.5q-153 0 -193 -226l-106 -606h-328z" />
    <glyph glyph-name="Ndotaccent" unicode="&#x1e44;" horiz-adv-x="1434" 
d="M875 1614q0 60 40 99.5t96 39.5q60 0 100.5 -39.5t40.5 -99.5q0 -58 -40.5 -97t-100.5 -39q-56 0 -96 39.5t-40 96.5zM1283 0h-264l-398 808h-14l-141 -808h-316l240 1365h268l394 -801h14l141 801h316z" />
    <glyph glyph-name="ndotaccent" unicode="&#x1e45;" horiz-adv-x="1239" 
d="M711 1318q0 60 40 99.5t96 39.5q60 0 100.5 -39.5t40.5 -99.5q0 -58 -40.5 -97t-100.5 -39q-56 0 -96 39.5t-40 96.5zM117 0l188 1069h321l-29 -161h17q40 79 115 128t188 49q150 0 235.5 -89.5t85.5 -232.5q0 -75 -23 -201l-100 -562h-327l100 577q9 54 9 102
q0 72 -38.5 112.5t-100.5 40.5q-166 0 -207 -231l-106 -601h-328z" />
    <glyph glyph-name="Ndotbelow" unicode="&#x1e46;" horiz-adv-x="1434" 
d="M545 -241q0 63 41 105t101 42q64 0 106.5 -41.5t42.5 -105.5q0 -62 -42.5 -103t-106.5 -41q-60 0 -101 41t-41 103zM1283 0h-264l-398 808h-14l-141 -808h-316l240 1365h268l394 -801h14l141 801h316z" />
    <glyph glyph-name="ndotbelow" unicode="&#x1e47;" horiz-adv-x="1239" 
d="M435 -241q0 63 41 105t101 42q64 0 106.5 -41.5t42.5 -105.5q0 -62 -42.5 -103t-106.5 -41q-60 0 -101 41t-41 103zM117 0l188 1069h321l-29 -161h17q40 79 115 128t188 49q150 0 235.5 -89.5t85.5 -232.5q0 -75 -23 -201l-100 -562h-327l100 577q9 54 9 102
q0 72 -38.5 112.5t-100.5 40.5q-166 0 -207 -231l-106 -601h-328z" />
    <glyph glyph-name="Nlinebelow" unicode="&#x1e48;" horiz-adv-x="1434" 
d="M1034 -192l-26 -144h-680l26 144h680zM1283 0h-264l-398 808h-14l-141 -808h-316l240 1365h268l394 -801h14l141 801h316z" />
    <glyph glyph-name="nlinebelow" unicode="&#x1e49;" horiz-adv-x="1239" 
d="M924 -192l-26 -144h-680l26 144h680zM117 0l188 1069h321l-29 -161h17q40 79 115 128t188 49q150 0 235.5 -89.5t85.5 -232.5q0 -75 -23 -201l-100 -562h-327l100 577q9 54 9 102q0 72 -38.5 112.5t-100.5 40.5q-166 0 -207 -231l-106 -601h-328z" />
    <glyph glyph-name="Ncircumflexbelow" unicode="&#x1e4a;" horiz-adv-x="1434" 
d="M1283 0h-264l-398 808h-14l-141 -808h-316l240 1365h268l394 -801h14l141 801h316zM282 -416l303 303h253l187 -303h-241l-87 162h-20l-157 -162h-238z" />
    <glyph glyph-name="ncircumflexbelow" unicode="&#x1e4b;" horiz-adv-x="1239" 
d="M117 0l188 1069h321l-29 -161h17q40 79 115 128t188 49q150 0 235.5 -89.5t85.5 -232.5q0 -75 -23 -201l-100 -562h-327l100 577q9 54 9 102q0 72 -38.5 112.5t-100.5 40.5q-166 0 -207 -231l-106 -601h-328zM172 -416l303 303h253l187 -303h-241l-87 162h-20l-157 -162
h-238z" />
    <glyph glyph-name="Otildeacute" unicode="&#x1e4c;" horiz-adv-x="1394" 
d="M811 1744l293 231h340l-339 -231h-294zM572 799l-27 -146q-11 -69 -11 -127q0 -122 64 -195.5t182 -73.5q108 0 180.5 79.5t101.5 241.5l27 151q10 60 10 119q0 120 -64.5 193.5t-180.5 73.5q-106 0 -179 -77t-103 -239zM205 663l35 193q45 254 210.5 393.5t417.5 139.5
q256 0 412.5 -143t156.5 -389q0 -93 -11 -154l-36 -193q-48 -256 -209.5 -395t-424.5 -139q-249 0 -405.5 141t-156.5 383q0 99 11 163zM935 1507q-4 4 -14.5 14t-16.5 15t-15.5 12t-20 10t-21.5 3q-65 0 -71 -86h-165q0 94 54.5 166t151.5 72q56 0 91 -15.5t74 -49.5
q7 -6 18 -16t17.5 -15t15.5 -11.5t18 -9t19 -2.5q34 0 50.5 30.5t17.5 72.5h166q0 -103 -61 -174.5t-153 -71.5q-61 0 -93.5 14.5t-61.5 41.5z" />
    <glyph glyph-name="otildeacute" unicode="&#x1e4d;" horiz-adv-x="1192" 
d="M926 1517h-241l251 329h295zM919 1142q-46 0 -77.5 18t-62.5 51q-5 5 -19.5 21t-21.5 22.5t-21 13t-29 6.5q-54 0 -68 -85h-156q4 114 61 191.5t154 77.5q34 0 64.5 -13.5t47.5 -27.5t42 -40q4 -4 12 -14t12 -14l11 -11t12 -10.5t12 -7.5t14 -5.5t15 -1.5q57 0 69 97h156
q-6 -115 -68 -191.5t-159 -76.5zM505 613l-16 -98q-8 -54 -8 -89q0 -85 44 -139.5t126 -54.5q83 0 133.5 63t67.5 168l16 102q6 50 6 88q0 82 -43.5 134.5t-123.5 52.5q-83 0 -134.5 -61t-67.5 -166zM158 575l16 86q36 192 177 310t354 118q144 0 256.5 -51t180 -157
t67.5 -253q0 -73 -10 -129l-18 -86q-40 -195 -178 -312t-358 -117q-105 0 -194.5 29.5t-157.5 85t-107 143t-39 196.5q0 82 11 137z" />
    <glyph glyph-name="Otildedieresis" unicode="&#x1e4e;" horiz-adv-x="1394" 
d="M691 1870q0 61 34.5 95t95.5 34q62 0 99 -34t37 -95q0 -56 -37 -88.5t-99 -32.5q-61 0 -95.5 32.5t-34.5 88.5zM1092 1870q0 61 36.5 95t97.5 34q62 0 97 -34t35 -95q0 -56 -35 -88.5t-97 -32.5q-61 0 -97.5 32.5t-36.5 88.5zM572 799l-27 -146q-11 -69 -11 -127
q0 -122 64 -195.5t182 -73.5q108 0 180.5 79.5t101.5 241.5l27 151q10 60 10 119q0 120 -64.5 193.5t-180.5 73.5q-106 0 -179 -77t-103 -239zM205 663l35 193q45 254 210.5 393.5t417.5 139.5q256 0 412.5 -143t156.5 -389q0 -93 -11 -154l-36 -193q-48 -256 -209.5 -395
t-424.5 -139q-249 0 -405.5 141t-156.5 383q0 99 11 163zM935 1507q-4 4 -14.5 14t-16.5 15t-15.5 12t-20 10t-21.5 3q-65 0 -71 -86h-165q0 94 54.5 166t151.5 72q56 0 91 -15.5t74 -49.5q7 -6 18 -16t17.5 -15t15.5 -11.5t18 -9t19 -2.5q34 0 50.5 30.5t17.5 72.5h166
q0 -103 -61 -174.5t-153 -71.5q-61 0 -93.5 14.5t-61.5 41.5z" />
    <glyph glyph-name="otildedieresis" unicode="&#x1e4f;" horiz-adv-x="1192" 
d="M919 1142q-46 0 -77.5 18t-62.5 51q-5 5 -19.5 21t-21.5 22.5t-21 13t-29 6.5q-54 0 -68 -85h-156q4 114 61 191.5t154 77.5q34 0 64.5 -13.5t47.5 -27.5t42 -40q4 -4 12 -14t12 -14l11 -11t12 -10.5t12 -7.5t14 -5.5t15 -1.5q57 0 69 97h156q-6 -115 -68 -191.5
t-159 -76.5zM542 1623q0 58 35.5 92t95.5 34q61 0 96.5 -34t35.5 -92q0 -56 -35.5 -89.5t-96.5 -33.5q-60 0 -95.5 34t-35.5 89zM945 1623q0 58 35 92t95 34q61 0 97 -34t36 -92q0 -55 -35.5 -89t-97.5 -34q-59 0 -94.5 34t-35.5 89zM505 613l-16 -98q-8 -54 -8 -89
q0 -85 44 -139.5t126 -54.5q83 0 133.5 63t67.5 168l16 102q6 50 6 88q0 82 -43.5 134.5t-123.5 52.5q-83 0 -134.5 -61t-67.5 -166zM158 575l16 86q36 192 177 310t354 118q144 0 256.5 -51t180 -157t67.5 -253q0 -73 -10 -129l-18 -86q-40 -195 -178 -312t-358 -117
q-105 0 -194.5 29.5t-157.5 85t-107 143t-39 196.5q0 82 11 137z" />
    <glyph glyph-name="Omacrongrave" unicode="&#x1e50;" horiz-adv-x="1394" 
d="M1167 1744h-292l-332 220h337zM572 799l-27 -146q-11 -69 -11 -127q0 -122 64 -195.5t182 -73.5q108 0 180.5 79.5t101.5 241.5l27 151q10 60 10 119q0 120 -64.5 193.5t-180.5 73.5q-106 0 -179 -77t-103 -239zM205 663l35 193q45 254 210.5 393.5t417.5 139.5
q256 0 412.5 -143t156.5 -389q0 -93 -11 -154l-36 -193q-48 -256 -209.5 -395t-424.5 -139q-249 0 -405.5 141t-156.5 383q0 99 11 163zM1314 1629l-25 -145h-680l25 145h680z" />
    <glyph glyph-name="omacrongrave" unicode="&#x1e51;" horiz-adv-x="1192" 
d="M1012 1517h-237l-246 324h291zM1165 1370l-26 -144h-680l26 144h680zM505 613l-16 -98q-8 -54 -8 -89q0 -85 44 -139.5t126 -54.5q83 0 133.5 63t67.5 168l16 102q6 50 6 88q0 82 -43.5 134.5t-123.5 52.5q-83 0 -134.5 -61t-67.5 -166zM158 575l16 86q36 192 177 310
t354 118q144 0 256.5 -51t180 -157t67.5 -253q0 -73 -10 -129l-18 -86q-40 -195 -178 -312t-358 -117q-105 0 -194.5 29.5t-157.5 85t-107 143t-39 196.5q0 82 11 137z" />
    <glyph glyph-name="Omacronacute" unicode="&#x1e52;" horiz-adv-x="1394" 
d="M811 1744l293 231h340l-339 -231h-294zM572 799l-27 -146q-11 -69 -11 -127q0 -122 64 -195.5t182 -73.5q108 0 180.5 79.5t101.5 241.5l27 151q10 60 10 119q0 120 -64.5 193.5t-180.5 73.5q-106 0 -179 -77t-103 -239zM205 663l35 193q45 254 210.5 393.5t417.5 139.5
q256 0 412.5 -143t156.5 -389q0 -93 -11 -154l-36 -193q-48 -256 -209.5 -395t-424.5 -139q-249 0 -405.5 141t-156.5 383q0 99 11 163zM1314 1629l-25 -145h-680l25 145h680z" />
    <glyph glyph-name="omacronacute" unicode="&#x1e53;" horiz-adv-x="1192" 
d="M926 1517h-241l251 329h295zM1165 1370l-26 -144h-680l26 144h680zM505 613l-16 -98q-8 -54 -8 -89q0 -85 44 -139.5t126 -54.5q83 0 133.5 63t67.5 168l16 102q6 50 6 88q0 82 -43.5 134.5t-123.5 52.5q-83 0 -134.5 -61t-67.5 -166zM158 575l16 86q36 192 177 310
t354 118q144 0 256.5 -51t180 -157t67.5 -253q0 -73 -10 -129l-18 -86q-40 -195 -178 -312t-358 -117q-105 0 -194.5 29.5t-157.5 85t-107 143t-39 196.5q0 82 11 137z" />
    <glyph glyph-name="Pacute" unicode="&#x1e54;" horiz-adv-x="1241" 
d="M670 1495l293 231h340l-339 -231h-294zM470 0h-336l240 1365h523q211 0 329.5 -111t118.5 -302q0 -64 -11 -116q-35 -192 -179.5 -307t-387.5 -115h-223zM815 1117h-146l-78 -435h158q107 0 170 51t81 135q8 32 8 66q0 90 -54 136.5t-139 46.5z" />
    <glyph glyph-name="pacute" unicode="&#x1e55;" horiz-adv-x="1238" 
d="M794 -16q-112 0 -196 58t-103 155h-14l-95 -537h-328l246 1405h330l-36 -194h18q14 37 36 70t57 66.5t89 53t120 19.5q159 0 252 -107t93 -289q0 -86 -12 -152l-19 -100q-36 -216 -150 -332t-288 -116zM529 442q0 -86 46 -142t120 -56q80 0 133.5 59t72.5 165l16 86
q6 36 6 90q0 81 -44 131t-121 50q-80 0 -134.5 -61.5t-73.5 -169.5l-14 -86q-7 -33 -7 -66zM883 1215h-241l251 329h295z" />
    <glyph glyph-name="Pdotaccent" unicode="&#x1e56;" horiz-adv-x="1241" 
d="M470 0h-336l240 1365h523q211 0 329.5 -111t118.5 -302q0 -64 -11 -116q-35 -192 -179.5 -307t-387.5 -115h-223zM815 1117h-146l-78 -435h158q107 0 170 51t81 135q8 32 8 66q0 90 -54 136.5t-139 46.5zM741 1614q0 60 40 99.5t96 39.5q60 0 100.5 -39.5t40.5 -99.5
q0 -58 -40.5 -97t-100.5 -39q-56 0 -96 39.5t-40 96.5z" />
    <glyph glyph-name="pdotaccent" unicode="&#x1e57;" horiz-adv-x="1238" 
d="M794 -16q-112 0 -196 58t-103 155h-14l-95 -537h-328l246 1405h330l-36 -194h18q14 37 36 70t57 66.5t89 53t120 19.5q159 0 252 -107t93 -289q0 -86 -12 -152l-19 -100q-36 -216 -150 -332t-288 -116zM529 442q0 -86 46 -142t120 -56q80 0 133.5 59t72.5 165l16 86
q6 36 6 90q0 81 -44 131t-121 50q-80 0 -134.5 -61.5t-73.5 -169.5l-14 -86q-7 -33 -7 -66zM692 1318q0 60 40 99.5t96 39.5q60 0 100.5 -39.5t40.5 -99.5q0 -58 -40.5 -97t-100.5 -39q-56 0 -96 39.5t-40 96.5z" />
    <glyph glyph-name="Rdotaccent" unicode="&#x1e58;" horiz-adv-x="1319" 
d="M470 0h-338l240 1365h552q211 0 330.5 -103.5t119.5 -288.5q0 -29 -4 -63q-14 -144 -94 -246.5t-212 -150.5l177 -513h-353l-151 470q-9 -1 -51 -1h-134zM842 1109h-176l-71 -393h182q111 0 176 50.5t77 137.5q3 33 3 44q0 82 -53.5 121.5t-137.5 39.5zM740 1614
q0 60 40 99.5t96 39.5q60 0 100.5 -39.5t40.5 -99.5q0 -58 -40.5 -97t-100.5 -39q-56 0 -96 39.5t-40 96.5z" />
    <glyph glyph-name="rdotaccent" unicode="&#x1e59;" horiz-adv-x="845" 
d="M110 0l189 1069h309l-31 -175h17q25 81 93.5 136t170.5 55q76 0 127 -27l-58 -284q-21 11 -61.5 20.5t-76.5 9.5q-114 0 -174.5 -71t-83.5 -198l-94 -535h-327zM553 1318q0 60 40 99.5t96 39.5q60 0 100.5 -39.5t40.5 -99.5q0 -58 -40.5 -97t-100.5 -39q-56 0 -96 39.5
t-40 96.5z" />
    <glyph glyph-name="Rdotbelow" unicode="&#x1e5a;" horiz-adv-x="1319" 
d="M412 -241q0 63 41 105t101 42q64 0 106.5 -41.5t42.5 -105.5q0 -62 -42.5 -103t-106.5 -41q-60 0 -101 41t-41 103zM470 0h-338l240 1365h552q211 0 330.5 -103.5t119.5 -288.5q0 -29 -4 -63q-14 -144 -94 -246.5t-212 -150.5l177 -513h-353l-151 470q-9 -1 -51 -1h-134z
M842 1109h-176l-71 -393h182q111 0 176 50.5t77 137.5q3 33 3 44q0 82 -53.5 121.5t-137.5 39.5z" />
    <glyph glyph-name="rdotbelow" unicode="&#x1e5b;" horiz-adv-x="845" 
d="M105 -241q0 63 41 105t101 42q64 0 106.5 -41.5t42.5 -105.5q0 -62 -42.5 -103t-106.5 -41q-60 0 -101 41t-41 103zM110 0l189 1069h309l-31 -175h17q25 81 93.5 136t170.5 55q76 0 127 -27l-58 -284q-21 11 -61.5 20.5t-76.5 9.5q-114 0 -174.5 -71t-83.5 -198l-94 -535
h-327z" />
    <glyph glyph-name="Rdotbelowmacron" unicode="&#x1e5c;" horiz-adv-x="1319" 
d="M412 -241q0 63 41 105t101 42q64 0 106.5 -41.5t42.5 -105.5q0 -62 -42.5 -103t-106.5 -41q-60 0 -101 41t-41 103zM470 0h-338l240 1365h552q211 0 330.5 -103.5t119.5 -288.5q0 -29 -4 -63q-14 -144 -94 -246.5t-212 -150.5l177 -513h-353l-151 470q-9 -1 -51 -1h-134z
M842 1109h-176l-71 -393h182q111 0 176 50.5t77 137.5q3 33 3 44q0 82 -53.5 121.5t-137.5 39.5zM1217 1629l-25 -145h-680l25 145h680z" />
    <glyph glyph-name="rdotbelowmacron" unicode="&#x1e5d;" horiz-adv-x="845" 
d="M105 -241q0 63 41 105t101 42q64 0 106.5 -41.5t42.5 -105.5q0 -62 -42.5 -103t-106.5 -41q-60 0 -101 41t-41 103zM110 0l189 1069h309l-31 -175h17q25 81 93.5 136t170.5 55q76 0 127 -27l-58 -284q-21 11 -61.5 20.5t-76.5 9.5q-114 0 -174.5 -71t-83.5 -198l-94 -535
h-327zM1036 1370l-26 -144h-680l26 144h680z" />
    <glyph glyph-name="Rlinebelow" unicode="&#x1e5e;" horiz-adv-x="1319" 
d="M470 0h-338l240 1365h552q211 0 330.5 -103.5t119.5 -288.5q0 -29 -4 -63q-14 -144 -94 -246.5t-212 -150.5l177 -513h-353l-151 470q-9 -1 -51 -1h-134zM842 1109h-176l-71 -393h182q111 0 176 50.5t77 137.5q3 33 3 44q0 82 -53.5 121.5t-137.5 39.5zM901 -192
l-26 -144h-680l26 144h680z" />
    <glyph glyph-name="rlinebelow" unicode="&#x1e5f;" horiz-adv-x="845" 
d="M110 0l189 1069h309l-31 -175h17q25 81 93.5 136t170.5 55q76 0 127 -27l-58 -284q-21 11 -61.5 20.5t-76.5 9.5q-114 0 -174.5 -71t-83.5 -198l-94 -535h-327zM594 -192l-26 -144h-680l26 144h680z" />
    <glyph glyph-name="Sdotaccent" unicode="&#x1e60;" horiz-adv-x="1257" 
d="M135 417h314q-2 -10 -2 -20q0 -73 68 -120t167 -47q86 0 150 37.5t64 108.5q0 26 -10.5 47t-25.5 35.5t-43 28.5t-51.5 22.5t-61.5 20.5l-123 40q-70 22 -124.5 51.5t-102 74t-73.5 108.5t-26 144q0 138 73 239.5t194 151.5t274 50q227 0 368 -111t141 -279q0 -17 -3 -38
h-303q1 2 1 16q0 73 -60.5 114.5t-145.5 41.5q-83 0 -138.5 -39t-55.5 -103q0 -55 48 -92.5t140 -66.5l135 -42q67 -21 117 -46.5t98.5 -66.5t74.5 -104t26 -145q0 -142 -77 -246t-204 -155t-288 -51q-83 0 -161 15t-147 47t-120 78.5t-81 112.5t-30 145q0 26 4 43z
M773 1614q0 60 40 99.5t96 39.5q60 0 100.5 -39.5t40.5 -99.5q0 -58 -40.5 -97t-100.5 -39q-56 0 -96 39.5t-40 96.5z" />
    <glyph glyph-name="sdotaccent" unicode="&#x1e61;" horiz-adv-x="1077" 
d="M226 745q0 154 114.5 249t326.5 95q196 0 319.5 -86t123.5 -220q0 -24 -2 -36h-281q1 4 1 18q0 42 -42.5 75t-112.5 33q-65 0 -101.5 -28.5t-36.5 -70.5q0 -21 10 -37.5t24.5 -27t41 -21t48 -16.5t58.5 -16.5t60 -17.5q132 -42 205 -112t73 -190q0 -115 -69.5 -196.5
t-176 -118.5t-236.5 -37q-87 0 -167 20t-146 58.5t-105 102t-39 143.5q0 27 2 35h288v-21q4 -55 52 -87t122 -32q71 0 111.5 28.5t40.5 73.5q0 11 -2.5 21t-9 18.5t-13 15t-19.5 13l-22 11t-27.5 10.5t-30 9.5t-34 10.5t-35.5 11q-47 14 -82.5 28t-82 41t-76 58.5t-51 82
t-21.5 110.5zM629 1318q0 60 40 99.5t96 39.5q60 0 100.5 -39.5t40.5 -99.5q0 -58 -40.5 -97t-100.5 -39q-56 0 -96 39.5t-40 96.5z" />
    <glyph glyph-name="Sdotbelow" unicode="&#x1e62;" horiz-adv-x="1257" 
d="M444 -241q0 63 41 105t101 42q64 0 106.5 -41.5t42.5 -105.5q0 -62 -42.5 -103t-106.5 -41q-60 0 -101 41t-41 103zM135 417h314q-2 -10 -2 -20q0 -73 68 -120t167 -47q86 0 150 37.5t64 108.5q0 26 -10.5 47t-25.5 35.5t-43 28.5t-51.5 22.5t-61.5 20.5l-123 40
q-70 22 -124.5 51.5t-102 74t-73.5 108.5t-26 144q0 138 73 239.5t194 151.5t274 50q227 0 368 -111t141 -279q0 -17 -3 -38h-303q1 2 1 16q0 73 -60.5 114.5t-145.5 41.5q-83 0 -138.5 -39t-55.5 -103q0 -55 48 -92.5t140 -66.5l135 -42q67 -21 117 -46.5t98.5 -66.5
t74.5 -104t26 -145q0 -142 -77 -246t-204 -155t-288 -51q-83 0 -161 15t-147 47t-120 78.5t-81 112.5t-30 145q0 26 4 43z" />
    <glyph glyph-name="sdotbelow" unicode="&#x1e63;" horiz-adv-x="1077" 
d="M354 -241q0 63 41 105t101 42q64 0 106.5 -41.5t42.5 -105.5q0 -62 -42.5 -103t-106.5 -41q-60 0 -101 41t-41 103zM226 745q0 154 114.5 249t326.5 95q196 0 319.5 -86t123.5 -220q0 -24 -2 -36h-281q1 4 1 18q0 42 -42.5 75t-112.5 33q-65 0 -101.5 -28.5t-36.5 -70.5
q0 -21 10 -37.5t24.5 -27t41 -21t48 -16.5t58.5 -16.5t60 -17.5q132 -42 205 -112t73 -190q0 -115 -69.5 -196.5t-176 -118.5t-236.5 -37q-87 0 -167 20t-146 58.5t-105 102t-39 143.5q0 27 2 35h288v-21q4 -55 52 -87t122 -32q71 0 111.5 28.5t40.5 73.5q0 11 -2.5 21
t-9 18.5t-13 15t-19.5 13l-22 11t-27.5 10.5t-30 9.5t-34 10.5t-35.5 11q-47 14 -82.5 28t-82 41t-76 58.5t-51 82t-21.5 110.5z" />
    <glyph glyph-name="Sacutedotaccent" unicode="&#x1e64;" horiz-adv-x="1257" 
d="M500 1643q0 65 42.5 107.5t103.5 42.5q65 0 107.5 -42.5t42.5 -107.5q0 -62 -43 -104t-107 -42q-61 0 -103.5 42t-42.5 104zM880 1534l293 231h340l-339 -231h-294zM135 417h314q-2 -10 -2 -20q0 -73 68 -120t167 -47q86 0 150 37.5t64 108.5q0 26 -10.5 47t-25.5 35.5
t-43 28.5t-51.5 22.5t-61.5 20.5l-123 40q-70 22 -124.5 51.5t-102 74t-73.5 108.5t-26 144q0 138 73 239.5t194 151.5t274 50q227 0 368 -111t141 -279q0 -17 -3 -38h-303q1 2 1 16q0 73 -60.5 114.5t-145.5 41.5q-83 0 -138.5 -39t-55.5 -103q0 -55 48 -92.5t140 -66.5
l135 -42q67 -21 117 -46.5t98.5 -66.5t74.5 -104t26 -145q0 -142 -77 -246t-204 -155t-288 -51q-83 0 -161 15t-147 47t-120 78.5t-81 112.5t-30 145q0 26 4 43z" />
    <glyph glyph-name="sacutedotaccent" unicode="&#x1e65;" horiz-adv-x="1077" 
d="M424 1421q0 56 38 94t91 38q57 0 95.5 -37.5t38.5 -94.5q0 -55 -38.5 -92t-95.5 -37q-53 0 -91 37.5t-38 91.5zM226 745q0 154 114.5 249t326.5 95q196 0 319.5 -86t123.5 -220q0 -24 -2 -36h-281q1 4 1 18q0 42 -42.5 75t-112.5 33q-65 0 -101.5 -28.5t-36.5 -70.5
q0 -21 10 -37.5t24.5 -27t41 -21t48 -16.5t58.5 -16.5t60 -17.5q132 -42 205 -112t73 -190q0 -115 -69.5 -196.5t-176 -118.5t-236.5 -37q-87 0 -167 20t-146 58.5t-105 102t-39 143.5q0 27 2 35h288v-21q4 -55 52 -87t122 -32q71 0 111.5 28.5t40.5 73.5q0 11 -2.5 21
t-9 18.5t-13 15t-19.5 13l-22 11t-27.5 10.5t-30 9.5t-34 10.5t-35.5 11q-47 14 -82.5 28t-82 41t-76 58.5t-51 82t-21.5 110.5zM950 1215h-241l251 329h295z" />
    <glyph glyph-name="Scarondotaccent" unicode="&#x1e66;" horiz-adv-x="1257" 
d="M826 1916q0 59 40 98.5t96 39.5q60 0 100.5 -39t40.5 -99q0 -58 -40.5 -97.5t-100.5 -39.5q-56 0 -96 40t-40 97zM135 417h314q-2 -10 -2 -20q0 -73 68 -120t167 -47q86 0 150 37.5t64 108.5q0 26 -10.5 47t-25.5 35.5t-43 28.5t-51.5 22.5t-61.5 20.5l-123 40
q-70 22 -124.5 51.5t-102 74t-73.5 108.5t-26 144q0 138 73 239.5t194 151.5t274 50q227 0 368 -111t141 -279q0 -17 -3 -38h-303q1 2 1 16q0 73 -60.5 114.5t-145.5 41.5q-83 0 -138.5 -39t-55.5 -103q0 -55 48 -92.5t140 -66.5l135 -42q67 -21 117 -46.5t98.5 -66.5
t74.5 -104t26 -145q0 -142 -77 -246t-204 -155t-288 -51q-83 0 -161 15t-147 47t-120 78.5t-81 112.5t-30 145q0 26 4 43zM1314 1729l-286 -244h-253l-224 244h249l102 -116h18l135 116h259z" />
    <glyph glyph-name="scarondotaccent" unicode="&#x1e67;" horiz-adv-x="1077" 
d="M689 1737q0 57 38 95t92 38q58 0 97 -38t39 -95q0 -56 -39 -93.5t-97 -37.5q-54 0 -92 38t-38 93zM635 1204l-194 342h230l96 -194h17l151 194h239l-302 -342h-237zM226 745q0 154 114.5 249t326.5 95q196 0 319.5 -86t123.5 -220q0 -24 -2 -36h-281q1 4 1 18
q0 42 -42.5 75t-112.5 33q-65 0 -101.5 -28.5t-36.5 -70.5q0 -21 10 -37.5t24.5 -27t41 -21t48 -16.5t58.5 -16.5t60 -17.5q132 -42 205 -112t73 -190q0 -115 -69.5 -196.5t-176 -118.5t-236.5 -37q-87 0 -167 20t-146 58.5t-105 102t-39 143.5q0 27 2 35h288v-21
q4 -55 52 -87t122 -32q71 0 111.5 28.5t40.5 73.5q0 11 -2.5 21t-9 18.5t-13 15t-19.5 13l-22 11t-27.5 10.5t-30 9.5t-34 10.5t-35.5 11q-47 14 -82.5 28t-82 41t-76 58.5t-51 82t-21.5 110.5z" />
    </font>
</defs>
</svg>
