<?xml version="1.0" standalone="no"?>
<!DOCTYPE svg PUBLIC "-//W3C//DTD SVG 1.1//EN" "http://www.w3.org/Graphics/SVG/1.1/DTD/svg11.dtd" >
<svg xmlns="http://www.w3.org/2000/svg" xmlns:xlink="http://www.w3.org/1999/xlink" version="1.1">
<metadata>
Created by FontForge 20170731 at Wed Jan 14 10:07:44 2015
 By Aleksey,,,
(c) 2014 Apple Inc. All rights reserved.
</metadata>
<defs>
<font id="SanFranciscoText-ThinItalic" horiz-adv-x="0" >
  <font-face 
    font-family="San Francisco Text Thin Italic"
    font-weight="265"
    font-style="italic"
    font-stretch="normal"
    units-per-em="2048"
    panose-1="0 0 0 0 0 0 0 0 0 0"
    ascent="1638"
    descent="-410"
    x-height="1035"
    cap-height="1360"
    bbox="-397 -483 2181 1980"
    underline-thickness="50"
    underline-position="-125"
    slope="-10"
    unicode-range="U+000D-FB02"
  />
<missing-glyph horiz-adv-x="1293" 
d="M120 0l241 1365h1053l-241 -1365h-1053zM573 303q0 -44 31 -72t80 -28q52 0 84.5 29t32.5 74q0 46 -31.5 74.5t-82.5 28.5q-50 0 -82 -29.5t-32 -76.5zM494 908h152q9 54 47.5 88.5t102.5 34.5q59 0 99.5 -29.5t40.5 -81.5q0 -22 -9 -41.5t-18 -31.5t-32.5 -29t-32.5 -22
t-38 -22q-84 -47 -120.5 -93.5t-45.5 -127.5l-6 -42h150l7 39q1 15 5.5 28t8 22t14.5 20.5t15 16.5t21 16t21 13.5t26.5 15.5t26.5 15q36 20 62 39t52.5 47t40.5 65t14 81q0 113 -85 174t-212 61q-140 0 -219 -72.5t-88 -183.5z" />
    <glyph glyph-name=".notdef" horiz-adv-x="1293" 
d="M120 0l241 1365h1053l-241 -1365h-1053zM573 303q0 -44 31 -72t80 -28q52 0 84.5 29t32.5 74q0 46 -31.5 74.5t-82.5 28.5q-50 0 -82 -29.5t-32 -76.5zM494 908h152q9 54 47.5 88.5t102.5 34.5q59 0 99.5 -29.5t40.5 -81.5q0 -22 -9 -41.5t-18 -31.5t-32.5 -29t-32.5 -22
t-38 -22q-84 -47 -120.5 -93.5t-45.5 -127.5l-6 -42h150l7 39q1 15 5.5 28t8 22t14.5 20.5t15 16.5t21 16t21 13.5t26.5 15.5t26.5 15q36 20 62 39t52.5 47t40.5 65t14 81q0 113 -85 174t-212 61q-140 0 -219 -72.5t-88 -183.5z" />
    <glyph glyph-name=".null" 
 />
    <glyph glyph-name="nonmarkingreturn" horiz-adv-x="682" 
 />
    <glyph glyph-name="CR" unicode="&#xd;" 
 />
    <glyph glyph-name="space" unicode=" " horiz-adv-x="466" 
 />
    <glyph glyph-name="exclam" unicode="!" horiz-adv-x="555" 
d="M467 1360h87l-183 -981h-65zM208 68q0 36 24 60.5t59 24.5t60 -24.5t25 -60.5q0 -34 -25 -58.5t-60 -24.5t-59 24.5t-24 58.5z" />
    <glyph glyph-name="quotedbl" unicode="&#x22;" horiz-adv-x="693" 
d="M414 1360h95l-91 -429h-62zM662 1360h96l-92 -429h-61z" />
    <glyph glyph-name="numbersign" unicode="#" horiz-adv-x="1303" 
d="M1339 881h-246l-147 -391h233l-26 -71h-234q-37 -99 -161 -419h-73l160 419h-352q-37 -99 -161 -419h-73l160 419h-234l27 71h235l147 391h-223l28 72h223l157 411h74l-158 -411h353l156 411h73l-157 -411h247zM668 881l-147 -391h352l146 391h-351z" />
    <glyph glyph-name="dollar" unicode="$" horiz-adv-x="1174" 
d="M515 -143l22 123q-164 26 -260 123t-96 228q0 23 4 45h78q-3 -12 -3 -35q0 -109 80.5 -188t210.5 -102l113 617q-2 1 -32.5 13t-32.5 13q-266 107 -266 331q0 164 124 264.5t320 100.5q3 0 10 -0.5t9 -0.5l22 117h75l-23 -123q152 -22 242.5 -109.5t90.5 -213.5
q0 -30 -3 -38h-73q3 16 2 31q-2 96 -74 169t-198 90l-110 -592q1 0 9 -3t16.5 -6.5t9.5 -3.5q63 -25 107 -46t89 -52t72.5 -65.5t44.5 -83t17 -107.5q0 -172 -129 -277.5t-338 -105.5q-6 0 -18 0.5t-17 0.5l-21 -114h-74zM1032 347q0 48 -14.5 87t-37.5 66.5t-62.5 53.5
t-77 43t-94.5 39l-6 3q-6 3 -7 3l-110 -601h27q165 0 273.5 82t108.5 224zM413 1029q0 -95 56 -157.5t169 -107.5l10 -4q10 -4 20 -8.5t11 -4.5l104 573h-9q-154 0 -257.5 -77.5t-103.5 -213.5z" />
    <glyph glyph-name="percent" unicode="%" horiz-adv-x="1491" 
d="M240 1067l7 36q21 127 96 200t167 73q91 0 150.5 -71.5t59.5 -191.5q0 -50 -8 -95l-6 -37q-22 -128 -96.5 -201t-167.5 -73q-92 0 -150.5 72t-58.5 193q0 53 7 95zM994 366l-5 -31q-6 -40 -6 -83q0 -95 39.5 -147.5t104.5 -52.5q68 0 121 58t71 163l5 32q7 38 7 84
q0 93 -40 145.5t-104 52.5q-67 0 -122 -58.5t-71 -162.5zM314 1088l-5 -31q-6 -39 -6 -83q0 -95 39 -147.5t104 -52.5q68 0 121.5 58t70.5 163l6 32q6 41 6 84q0 93 -40 145.5t-103 52.5q-67 0 -122 -58.5t-71 -162.5zM921 344l6 37q22 127 96.5 200t166.5 73
q91 0 150.5 -71.5t59.5 -191.5q0 -50 -8 -95l-6 -37q-22 -128 -96 -201t-168 -73q-92 0 -150.5 72t-58.5 193q0 48 8 94zM311 0h-84l561 680l560 680h84l-560 -680z" />
    <glyph glyph-name="ampersand" unicode="&#x26;" horiz-adv-x="1385" 
d="M1253 768h83q-7 -62 -24 -142q-41 -231 -177 -396l173 -230h-100l-131 174q-207 -202 -469 -202q-195 0 -306 100t-111 250q0 78 30.5 143.5t89 117.5t118.5 89t144 77q36 17 58 26q-29 40 -44.5 63t-45 73.5t-44 100t-14.5 97.5q0 119 91.5 201t245.5 82
q138 0 222 -73.5t84 -190.5q0 -62 -24 -114.5t-71 -95t-98 -74.5t-122 -66q-34 -17 -64 -29l341 -455q107 141 141 331q22 121 24 143zM616 46q237 0 416 190l-359 480q-45 -21 -49 -23q-76 -35 -132.5 -70t-108 -80t-79 -100.5t-27.5 -118.5q0 -118 90.5 -198t248.5 -80z
M566 1101q0 -42 14 -86t40 -87t42.5 -66.5t42.5 -55.5q6 3 20 9l14 6q70 31 119.5 59t95 65.5t68.5 82.5t23 98q0 89 -64 140.5t-165 51.5q-113 0 -181.5 -62t-68.5 -155z" />
    <glyph glyph-name="quotesingle" unicode="'" horiz-adv-x="444" 
d="M414 1360h95l-92 -434h-62z" />
    <glyph glyph-name="parenleft" unicode="(" horiz-adv-x="640" 
d="M676 1362h85q-32 -32 -61 -64.5t-73.5 -91.5t-81 -119t-76.5 -145.5t-67 -174t-44.5 -201.5t-17.5 -230q0 -344 124 -599h-74q-51 91 -91.5 247.5t-40.5 344.5q0 612 418 1033z" />
    <glyph glyph-name="parenright" unicode=")" horiz-adv-x="631" 
d="M356 1362h77q139 -247 139 -575q0 -156 -30.5 -305.5t-75.5 -260t-105 -212t-108.5 -162.5t-97.5 -110h-82q35 40 62 72.5t73.5 97t81 125t74.5 148.5t66 176t43.5 200.5t17.5 227.5q0 328 -135 578z" />
    <glyph glyph-name="asterisk" unicode="*" horiz-adv-x="1049" 
d="M988 709l-270 223l-39 -348l-72 11l59 345l-323 -140l-27 67l329 123l-282 208l45 57l270 -223l39 348l72 -10l-58 -346l321 140l28 -67l-329 -122l282 -209z" />
    <glyph glyph-name="plus" unicode="+" horiz-adv-x="1215" 
d="M1173 517h-438l-84 -475h-77l83 475h-431l12 72h432l80 454h78l-81 -454h438z" />
    <glyph glyph-name="comma" unicode="," horiz-adv-x="512" 
d="M149 -339h-72l170 450h104z" />
    <glyph glyph-name="hyphen" unicode="-" horiz-adv-x="885" 
d="M851 526h-631l13 73h631z" />
    <glyph glyph-name="period" unicode="." horiz-adv-x="479" 
d="M167 68q0 36 24.5 60.5t58.5 24.5q36 0 61 -24.5t25 -60.5q0 -35 -25 -59t-61 -24q-34 0 -58.5 24.5t-24.5 58.5z" />
    <glyph glyph-name="slash" unicode="/" horiz-adv-x="687" 
d="M110 -289h-79l740 1704h78z" />
    <glyph glyph-name="zero" unicode="0" horiz-adv-x="1220" 
d="M372 771l-19 -107q-19 -113 -19 -222q0 -110 33 -198t106.5 -144.5t178.5 -56.5q161 0 272.5 138t158.5 404l18 107q20 109 20 223q0 78 -19.5 148t-57 127t-100.5 90.5t-143 33.5q-161 0 -271 -138.5t-158 -404.5zM274 678l17 102q52 295 184 451.5t329 156.5
q127 0 217.5 -63t134.5 -170t44 -247q0 -113 -19 -230l-17 -102q-48 -292 -181 -449.5t-332 -157.5q-190 0 -294 128t-104 342q0 123 21 239z" />
    <glyph glyph-name="one" unicode="1" horiz-adv-x="925" 
d="M575 0h-83l224 1266h-6l-379 -214l13 88l385 218h86z" />
    <glyph glyph-name="two" unicode="2" horiz-adv-x="1097" 
d="M406 1058h-81q10 136 118 234.5t278 98.5q164 0 272.5 -89t108.5 -240q0 -55 -16.5 -109t-38 -94t-62 -89t-67.5 -76.5t-76 -75.5l-561 -538l-1 -7h711l-12 -73h-831l12 67l631 607q54 52 84.5 85t69 84.5t56.5 104.5t18 111q0 115 -85 186.5t-214 71.5
q-133 0 -217 -75.5t-97 -183.5z" />
    <glyph glyph-name="three" unicode="3" horiz-adv-x="1148" 
d="M530 670l13 77q13 -1 154 -1q142 0 246 82.5t104 221.5q0 122 -87.5 194.5t-225.5 72.5q-131 0 -211.5 -64t-95.5 -143h-82q7 50 35 98.5t74.5 90t120.5 67t163 25.5q169 0 280 -90t111 -240q0 -80 -29.5 -147t-77.5 -110t-104.5 -68t-114.5 -30l-2 -6
q115 -18 190.5 -106.5t75.5 -216.5q0 -186 -130.5 -297t-329.5 -111q-176 0 -297 93t-121 234q0 23 5 43h81q-2 -11 -2 -33q0 -114 101.5 -188.5t237.5 -74.5q155 0 263 88t108 240q0 131 -90.5 214t-240.5 84z" />
    <glyph glyph-name="four" unicode="4" horiz-adv-x="1143" 
d="M974 1360h129l-167 -953h196l-9 -73h-199l-60 -334h-81l59 334h-654l8 74q33 47 361 446.5t417 505.5zM293 407h562l155 880h-6q-13 -16 -187.5 -229.5t-339 -415.5t-183.5 -229z" />
    <glyph glyph-name="five" unicode="5" horiz-adv-x="1176" 
d="M234 338h81q-2 -16 -2 -26q0 -103 95.5 -186t243.5 -83q169 0 277.5 115t108.5 287q0 150 -95 247.5t-242 97.5q-100 0 -178 -43.5t-116 -105.5l-82 4l183 715h684l-10 -73h-613l-145 -554l8 -1q34 51 109.5 90.5t178.5 39.5q173 0 287.5 -116.5t114.5 -295.5
q0 -132 -56 -240.5t-165 -174.5t-252 -66q-97 0 -178.5 30.5t-132.5 79.5t-79 107t-28 117q0 20 3 35z" />
    <glyph glyph-name="six" unicode="6" horiz-adv-x="1181" 
d="M678 -26q-192 0 -308.5 129.5t-116.5 368.5q0 124 28.5 266.5t73.5 248.5q164 377 491 377q142 0 247.5 -86.5t105.5 -219.5q0 -7 -1 -8h-74q-2 104 -87 172t-193 68q-191 0 -317 -161t-180 -486l10 -1q42 90 132.5 152t222.5 62q172 0 291.5 -116t119.5 -299
q0 -198 -123.5 -332.5t-321.5 -134.5zM701 784q-153 0 -257.5 -106t-104.5 -270q0 -157 93.5 -259.5t249.5 -102.5q159 0 258 111t99 279q0 149 -96 248.5t-242 99.5z" />
    <glyph glyph-name="seven" unicode="7" horiz-adv-x="1033" 
d="M310 1360h828l-12 -74l-806 -1286h-94l810 1280v6h-736z" />
    <glyph glyph-name="eight" unicode="8" horiz-adv-x="1211" 
d="M864 710q33 -9 66 -25t70 -45t65 -66.5t46.5 -92t18.5 -118.5q0 -175 -130.5 -284.5t-327.5 -109.5t-326 106.5t-129 281.5q0 88 35 160t91 116.5t121.5 68.5t132.5 26l2 6q-33 13 -66 34t-69.5 56.5t-59 91t-22.5 122.5q0 155 114.5 253.5t292.5 98.5q176 0 288.5 -95
t112.5 -251q0 -100 -51 -176.5t-123.5 -112.5t-150.5 -39zM672 42q163 0 268.5 91.5t105.5 238.5q0 138 -105 225.5t-266 87.5q-164 0 -268.5 -90t-104.5 -228q0 -146 105 -235.5t265 -89.5zM785 754q138 0 230 79.5t92 202.5q0 128 -90 205t-228 77q-141 0 -231.5 -79.5
t-90.5 -208.5q0 -121 91 -198.5t227 -77.5z" />
    <glyph glyph-name="nine" unicode="9" horiz-adv-x="1180" 
d="M744 1388q86 0 160 -27t134.5 -82t95.5 -150t35 -219q0 -119 -28 -264t-65 -243q-79 -210 -200.5 -313.5t-293.5 -103.5q-152 0 -254 91t-102 231v8h76q1 -110 81.5 -183t202.5 -73q188 0 313 165t178 497l-10 1q-41 -91 -132 -153t-222 -62q-171 0 -292 118t-121 302
q0 195 123 327.5t321 132.5zM721 580q154 0 258 106.5t104 269.5q0 157 -93 259t-249 102t-256 -109.5t-100 -274.5q0 -149 95 -251t241 -102z" />
    <glyph glyph-name="colon" unicode=":" horiz-adv-x="481" 
d="M299 812q0 35 24.5 60t58.5 25q36 0 61 -25t25 -60t-25 -59t-61 -24q-34 0 -58.5 24.5t-24.5 58.5zM170 79q0 35 24.5 60t58.5 25q36 0 61 -25t25 -60t-25 -59t-61 -24q-34 0 -58.5 24.5t-24.5 58.5z" />
    <glyph glyph-name="semicolon" unicode=";" horiz-adv-x="479" 
d="M299 812q0 35 24.5 60t58.5 25q35 0 60 -25t25 -60q0 -34 -25 -58.5t-60 -24.5q-34 0 -58.5 24.5t-24.5 58.5zM152 -339h-73l170 450h104z" />
    <glyph glyph-name="less" unicode="&#x3c;" horiz-adv-x="987" 
d="M196 468l14 80l845 540l-15 -96l-768 -486l-1 -5l605 -448l-16 -85z" />
    <glyph glyph-name="equal" unicode="=" horiz-adv-x="1164" 
d="M1051 332h-821l12 71h820zM1112 690h-819l12 71h820z" />
    <glyph glyph-name="greater" unicode="&#x3e;" horiz-adv-x="987" 
d="M971 546l-14 -78l-841 -499l16 95l762 448l1 6l-597 485l15 81z" />
    <glyph glyph-name="question" unicode="?" horiz-adv-x="964" 
d="M416 68q0 36 24 60.5t59 24.5t60 -24.5t25 -60.5q0 -34 -25 -58.5t-60 -24.5t-59 24.5t-24 58.5zM294 1072q11 62 42 118t81.5 103.5t128.5 74t172 23.5q151 -5 243 -80.5t92 -211.5q0 -51 -15.5 -96.5t-36 -77t-62 -69.5t-70.5 -59.5t-86 -60.5q-107 -74 -145 -120
t-53 -130l-16 -93h-81l17 97q18 103 64.5 162t173.5 145q104 72 137 103q91 85 91 195q0 74 -37 125.5t-94 73.5t-129 24q-65 2 -120 -15t-90.5 -43.5t-63 -62t-41.5 -66t-22 -60.5z" />
    <glyph glyph-name="at" unicode="@" horiz-adv-x="1682" 
d="M1125 319h-5q-8 -23 -24 -46t-42.5 -47t-67.5 -39t-90 -15q-110 0 -175.5 70.5t-65.5 181.5q0 43 7 86l17 97q24 129 94 201.5t178 72.5q54 0 97 -17t67.5 -43.5t38 -54.5t15.5 -54h5l25 142h69l-81 -463q-3 -14 -3 -38q0 -49 38.5 -84.5t116.5 -35.5q31 0 59.5 7
t61 27.5t58.5 52.5t49 86.5t35 125.5l7 38q10 63 10 115q0 241 -171.5 397t-445.5 156q-264 0 -449 -161t-235 -459l-6 -35q-14 -82 -14 -155q0 -151 51 -267.5t141.5 -187t207.5 -106t256 -35.5q123 0 187 19l-9 -65q-62 -20 -183 -20q-157 0 -287.5 40t-229 119
t-153.5 205.5t-55 289.5q0 82 15 164l8 47q56 326 259 499.5t497 173.5q153 0 282 -48t216.5 -130.5t136.5 -195.5t49 -242q0 -64 -11 -128l-7 -40q-18 -96 -52.5 -165t-80.5 -108t-96 -56.5t-108 -17.5q-91 0 -148 42t-59 104zM753 594l-16 -84q-6 -34 -6 -76
q0 -87 49.5 -141.5t131.5 -54.5q75 0 134 49t77 155l21 121q5 32 5 54q0 84 -53 141.5t-135 57.5q-80 0 -134 -58t-74 -164z" />
    <glyph glyph-name="A" unicode="A" horiz-adv-x="1186" 
d="M71 0l730 1360h91l246 -1360h-85l-80 461h-567l-242 -461h-93zM834 1259h-6l-384 -728h516z" />
    <glyph glyph-name="B" unicode="B" horiz-adv-x="1250" 
d="M215 0l239 1360h431q171 0 261 -86t90 -222q0 -142 -91 -236t-216 -110l-1 -5q127 -18 203 -95t76 -213q0 -188 -145.5 -290.5t-383.5 -102.5h-463zM524 1286l-98 -550h337q74 0 142 19t123 55.5t88 96.5t33 135q0 112 -73 178t-216 66h-336zM414 662l-103 -588h377
q87 0 163.5 18.5t138 56t97 100t35.5 143.5q0 127 -88.5 198.5t-263.5 71.5h-356z" />
    <glyph glyph-name="C" unicode="C" horiz-adv-x="1287" 
d="M391 861l-45 -252q-12 -62 -12 -142q0 -200 109 -311t297 -111q159 0 265 81t129 209h81q0 -1 -2 -12.5t-3 -14.5q-28 -151 -158 -245t-317 -94q-222 0 -353 131t-131 363q0 85 12 155l45 247q43 241 182 383.5t355 142.5q95 0 175 -25.5t132.5 -66t89 -92.5t52.5 -104.5
t16 -102.5q0 -30 -5 -50h-79q3 15 3 47q-1 38 -14 78.5t-43 84t-73 77.5t-110 56t-147 22q-93 0 -171 -35t-133.5 -97t-92.5 -143.5t-54 -178.5z" />
    <glyph glyph-name="D" unicode="D" horiz-adv-x="1342" 
d="M454 1360h350q259 0 387.5 -134t128.5 -365q0 -63 -9 -141q-5 -59 -20 -142q-53 -298 -229 -438t-503 -140h-345zM523 1285l-213 -1210h258q279 0 436.5 124t204.5 388q14 65 19 132q9 67 9 129q0 205 -112 321t-338 116h-264z" />
    <glyph glyph-name="E" unicode="E" horiz-adv-x="1113" 
d="M1001 75l-11 -75h-776l240 1360h771l-12 -75h-690l-97 -550h657l-13 -75h-658l-103 -585h692z" />
    <glyph glyph-name="F" unicode="F" horiz-adv-x="1070" 
d="M297 0h-83l240 1360h766l-14 -75h-683l-100 -564h629l-13 -75h-629z" />
    <glyph glyph-name="G" unicode="G" horiz-adv-x="1322" 
d="M308 865q43 240 185 383t362 143q118 0 211.5 -37t146.5 -95.5t80 -123t27 -127.5q0 -30 -5 -50h-79q3 20 3 46q-1 37 -13.5 77t-42.5 82t-73 75.5t-110.5 54.5t-148.5 21q-124 0 -222 -61t-156 -161t-82 -231l-45 -252q-12 -70 -12 -142q0 -200 110.5 -311.5
t300.5 -111.5q70 0 133 17t119.5 53t96.5 99.5t55 149.5l41 235h-405l13 75h485l-54 -322q-18 -103 -67 -180t-118.5 -119.5t-145 -62.5t-159.5 -20q-223 0 -356 130.5t-133 363.5q0 82 14 155z" />
    <glyph glyph-name="H" unicode="H" horiz-adv-x="1391" 
d="M297 0h-83l240 1360h82l-108 -609h798l108 609h82l-239 -1360h-81l117 677h-797z" />
    <glyph glyph-name="I" unicode="I" horiz-adv-x="520" 
d="M301 0h-82l239 1360h83z" />
    <glyph glyph-name="J" unicode="J" horiz-adv-x="983" 
d="M1013 1360l-188 -1062q-29 -164 -125 -240.5t-228 -76.5q-148 0 -235.5 83t-87.5 205q0 37 6 58h77q-4 -34 -4 -47q0 -97 66.5 -161t177.5 -64q99 0 174.5 61.5t98.5 193.5l185 1050h83z" />
    <glyph glyph-name="K" unicode="K" horiz-adv-x="1180" 
d="M536 1360l-130 -730h4l812 730h109l-675 -612l462 -748h-98l-428 699l-204 -180l-91 -519h-83l240 1360h82z" />
    <glyph glyph-name="L" unicode="L" horiz-adv-x="1030" 
d="M983 74l-13 -74h-756l240 1360h82l-227 -1286h674z" />
    <glyph glyph-name="M" unicode="M" horiz-adv-x="1622" 
d="M292 0h-78l240 1360h82l307 -1141h5l709 1141h90l-239 -1360h-78l207 1186h-5l-667 -1069h-69l-290 1069h-6z" />
    <glyph glyph-name="N" unicode="N" horiz-adv-x="1401" 
d="M1187 0h-76l-595 1218h-5l-214 -1218h-83l240 1360h80l590 -1218h5l215 1218h82z" />
    <glyph glyph-name="O" unicode="O" horiz-adv-x="1356" 
d="M388 863l-45 -253q-13 -76 -13 -138q0 -190 115.5 -308t303.5 -118q183 0 305.5 122.5t158.5 334.5l44 256q11 62 11 132q0 187 -115.5 305t-300.5 118q-180 0 -303 -119t-161 -332zM262 625l44 242q43 243 187 383.5t361 140.5q139 0 251 -57t179.5 -171.5t67.5 -269.5
q0 -78 -14 -156l-44 -243q-44 -248 -187 -386.5t-365 -138.5q-137 0 -248 57t-178.5 170t-67.5 263q0 85 14 166z" />
    <glyph glyph-name="P" unicode="P" horiz-adv-x="1170" 
d="M297 0h-83l240 1360h427q172 0 270 -94t98 -241q0 -49 -9 -105q-30 -176 -160.5 -266t-345.5 -90h-338zM865 1286h-343l-114 -649h336q173 0 281.5 74.5t132.5 212.5q7 44 7 90q0 120 -75 196t-225 76z" />
    <glyph glyph-name="Q" unicode="Q" horiz-adv-x="1359" 
d="M262 625l44 242q43 243 187 383.5t361 140.5q104 0 194 -33.5t158 -95t107 -157t39 -212.5q0 -78 -14 -156l-46 -253q-53 -295 -249 -429l128 -224h-91l-108 186q-105 -48 -230 -48q-137 0 -247.5 56.5t-178 169.5t-67.5 264q0 91 13 166zM878 347l126 -223
q163 117 206 367l47 268q10 56 10 132q0 187 -115 305t-300 118q-180 0 -303 -119t-161 -332l-45 -253q-12 -70 -12 -139q0 -189 115.5 -307.5t301.5 -118.5q101 0 185 41l-151 261h96z" />
    <glyph glyph-name="R" unicode="R" horiz-adv-x="1223" 
d="M297 0h-83l240 1360h436q176 0 268 -92t92 -241q0 -53 -8 -94q-28 -137 -123 -218t-238 -107l211 -608h-90l-203 597q-42 -3 -80 -3h-318zM872 1287h-349l-110 -620h331q167 0 278.5 73t135.5 207q7 42 7 79q0 114 -72.5 187.5t-220.5 73.5z" />
    <glyph glyph-name="S" unicode="S" horiz-adv-x="1198" 
d="M199 381h82q-3 -12 -3 -42q0 -127 105 -211t278 -84q162 0 269 82.5t107 222.5q0 48 -15.5 88t-39 67t-64.5 53t-77.5 42t-93.5 38l-117 45q-138 53 -213 136t-75 211q0 165 124 263t322 98q188 0 308 -94.5t120 -236.5q0 -29 -4 -43h-80q2 12 2 30q0 110 -95 189.5
t-253 79.5q-99 0 -178.5 -31t-129 -96t-49.5 -155q0 -103 62 -167t181 -111l123 -47q63 -24 105.5 -44.5t89 -51t73.5 -64.5t45 -83t18 -108q0 -175 -129 -281.5t-338 -106.5q-214 0 -339.5 104.5t-125.5 259.5q0 30 5 48z" />
    <glyph glyph-name="T" unicode="T" horiz-adv-x="1109" 
d="M597 0h-83l227 1285h-460l13 75h1000l-12 -75h-459z" />
    <glyph glyph-name="U" unicode="U" horiz-adv-x="1347" 
d="M502 1360l-147 -835q-8 -50 -8 -104q0 -177 105 -275.5t281 -98.5q169 0 281 102.5t144 283.5l163 927h85l-165 -934q-38 -221 -174.5 -339.5t-340.5 -118.5q-210 0 -336.5 117t-126.5 326q0 62 11 123l145 826h83z" />
    <glyph glyph-name="V" unicode="V" horiz-adv-x="1194" 
d="M646 0h-91l-248 1360h89l218 -1254h5l656 1254h92z" />
    <glyph glyph-name="W" unicode="W" horiz-adv-x="1755" 
d="M533 0h-94l-126 1360h89l102 -1243h5l557 1243h93l127 -1243h5l539 1243h90l-600 -1360h-93l-132 1232h-6z" />
    <glyph glyph-name="X" unicode="X" horiz-adv-x="1196" 
d="M727 744l538 616h101l-601 -686l361 -674h-92l-326 614h-5l-530 -614h-101l593 682l-359 678h92l323 -616h6z" />
    <glyph glyph-name="Y" unicode="Y" horiz-adv-x="1113" 
d="M705 606l-104 -606h-81l105 605l-343 755h92l296 -673h7l529 673h102z" />
    <glyph glyph-name="Z" unicode="Z" horiz-adv-x="1178" 
d="M129 0l12 66l1033 1215l1 6h-812l14 73h920l-12 -68l-1035 -1213l-1 -7h838l-11 -72h-947z" />
    <glyph glyph-name="bracketleft" unicode="[" horiz-adv-x="620" 
d="M414 1360h343l-11 -62h-266l-258 -1458h280l-11 -63h-356z" />
    <glyph glyph-name="backslash" unicode="\" horiz-adv-x="672" 
d="M606 -289h-78l-242 1704h78z" />
    <glyph glyph-name="bracketright" unicode="]" horiz-adv-x="620" 
d="M343 1360h343l-279 -1583h-356l11 63h279l258 1458h-267z" />
    <glyph glyph-name="asciicircum" unicode="^" horiz-adv-x="794" 
d="M835 795h-76l-127 487h-5l-299 -487h-77l351 569h81z" />
    <glyph glyph-name="underscore" unicode="_" horiz-adv-x="897" 
d="M884 -190h-901l13 68h902z" />
    <glyph glyph-name="grave" unicode="`" horiz-adv-x="849" 
d="M744 1231h-68l-196 315h94z" />
    <glyph glyph-name="a" unicode="a" horiz-adv-x="1064" 
d="M494 -17q-134 0 -223 75.5t-91 202.5q0 26 1 39q12 135 120 207.5t287 72.5h307l17 97q8 53 8 81q0 105 -71.5 163t-188.5 58q-115 0 -183 -46.5t-81 -106.5h-81q16 91 108 158.5t241 67.5q96 0 170 -29.5t120 -95.5t46 -161q0 -39 -12 -116l-114 -650h-81l26 149l-6 1
q-29 -58 -113 -112.5t-206 -54.5zM263 275q0 -104 70 -160.5t176 -56.5q126 0 221.5 75t118.5 199l33 179h-301q-146 0 -232 -62t-86 -174z" />
    <glyph glyph-name="b" unicode="b" horiz-adv-x="1162" 
d="M666 -17q-126 0 -219.5 68t-121.5 179h-6l-41 -230h-81l250 1416h82l-100 -555h6q37 78 123.5 134.5t202.5 56.5q163 0 264 -104t101 -278q0 -60 -10 -126l-29 -171q-31 -186 -146 -288t-275 -102zM354 378q4 -150 94.5 -234.5t216.5 -84.5q129 0 223.5 88t121.5 250
l28 161q7 46 7 105q0 141 -84 228.5t-216 87.5q-136 0 -231 -93t-118 -223l-37 -210q-5 -29 -5 -75z" />
    <glyph glyph-name="c" unicode="c" horiz-adv-x="1060" 
d="M217 364q0 74 11 133l26 157q32 192 146.5 295t284.5 103q160 0 262.5 -89t102.5 -229q0 -21 -3 -30h-76q1 7 1 23q0 108 -80.5 180.5t-208.5 72.5q-138 0 -230.5 -91.5t-119.5 -254.5l-24 -137q-10 -59 -10 -115q0 -155 82 -240t229 -85q121 0 198 55t92 135h81
q-19 -116 -119 -190t-258 -74q-174 0 -280.5 101t-106.5 280z" />
    <glyph glyph-name="d" unicode="d" horiz-adv-x="1162" 
d="M677 1052q128 0 222 -69t121 -176h6l106 609h82l-249 -1416h-81l32 179h-6q-16 -33 -40 -63t-63 -62t-98 -51.5t-129 -19.5q-160 0 -261 102.5t-101 269.5q0 81 10 138l30 175q32 188 147 286t272 98zM994 659q0 140 -90 230t-223 90q-128 0 -222.5 -85.5t-123.5 -253.5
l-28 -160q-8 -50 -8 -106q0 -146 81.5 -231t217.5 -85q140 0 234 92t118 224l37 210q7 36 7 75z" />
    <glyph glyph-name="e" unicode="e" horiz-adv-x="1073" 
d="M602 -17q-175 0 -279.5 100.5t-104.5 285.5q0 67 12 137l20 116q31 191 140.5 310.5t292.5 119.5q172 0 268.5 -107.5t90.5 -290.5q0 -45 -20 -143h-712q-13 -75 -13 -133q0 -146 78.5 -233.5t228.5 -87.5q120 0 199.5 53.5t93.5 123.5h80q-7 -44 -34.5 -87t-72.5 -80.5
t-115 -60.5t-153 -23zM955 579q9 33 9 80q6 142 -68 232t-215 90q-138 0 -224.5 -90.5t-121.5 -249.5q-10 -48 -12 -62h632z" />
    <glyph glyph-name="f" unicode="f" horiz-adv-x="655" 
d="M227 0l170 960h-188l13 70h187l22 127q22 128 93.5 198t212.5 70q83 0 125 -14l-14 -70q-44 11 -110 11q-98 0 -152 -46.5t-73 -149.5l-23 -126h282l-13 -70h-282l-168 -960h-82z" />
    <glyph glyph-name="g" unicode="g" horiz-adv-x="1155" 
d="M667 1052q71 0 132.5 -23.5t102 -61.5t66.5 -79t36 -81h6l39 228h81l-181 -1033q-17 -98 -57 -170t-97.5 -113.5t-125.5 -61t-149 -19.5q-160 0 -260.5 78.5t-100.5 199.5q0 25 2 32h78q-1 -8 -1 -30q0 -86 78.5 -146.5t209.5 -60.5q61 0 113 15t100.5 48.5t83 96
t50.5 148.5l35 203h-6q-16 -34 -41.5 -64.5t-64 -60.5t-95.5 -48t-125 -18q-153 0 -255.5 103.5t-102.5 267.5q0 81 11 144l20 117q17 99 58 175t97.5 122t123 69t139.5 23zM977 661q0 135 -88 226.5t-221 91.5q-124 0 -218 -86.5t-124 -255.5l-18 -104q-10 -57 -10 -111
q0 -147 82 -232.5t215 -85.5q135 0 228.5 91.5t117.5 221.5l28 157q8 45 8 87z" />
    <glyph glyph-name="h" unicode="h" horiz-adv-x="1161" 
d="M199 0l248 1416h82l-100 -560h6q38 85 124.5 140.5t202.5 55.5q146 0 239 -89t93 -230q0 -57 -11 -116l-108 -617h-82l109 619q9 43 9 100q0 114 -73 187t-193 73q-140 0 -232.5 -94t-116.5 -227l-115 -658h-82z" />
    <glyph glyph-name="i" unicode="i" horiz-adv-x="511" 
d="M215 0l182 1035h82l-182 -1035h-82zM402 1340q0 31 22 52.5t52 21.5q32 0 54 -21.5t22 -52.5q0 -32 -22 -53.5t-54 -21.5q-30 0 -52 22t-22 53z" />
    <glyph glyph-name="j" unicode="j" horiz-adv-x="512" 
d="M478 1035l-194 -1093q-26 -143 -92 -205t-193 -62q-35 0 -76 9l15 72q34 -8 69 -8q82 0 129 46.5t66 148.5l194 1092h82zM404 1340q0 31 22 52.5t52 21.5q32 0 54 -21.5t22 -52.5t-22 -53t-54 -22q-30 0 -52 22t-22 53z" />
    <glyph glyph-name="k" unicode="k" horiz-adv-x="1026" 
d="M347 440l-77 -440h-82l250 1416h81l-153 -874h5l634 507h116l-543 -433l373 -616h-95l-341 572z" />
    <glyph glyph-name="l" unicode="l" horiz-adv-x="514" 
d="M218 0l246 1416h82l-246 -1416h-82z" />
    <glyph glyph-name="m" unicode="m" horiz-adv-x="1729" 
d="M197 0l181 1035h81l-32 -179h6q39 87 118 141.5t183 54.5q66 0 119.5 -20t87.5 -53t55 -70t31 -77h6q11 32 34 66t60.5 71t96.5 60t129 23q138 0 221.5 -83.5t83.5 -222.5q0 -61 -11 -120l-108 -626h-82l109 629q9 57 9 100q0 114 -61.5 182t-171.5 68
q-68 0 -123.5 -27.5t-93.5 -76t-62 -108.5t-37 -131l-112 -636h-81l110 639q8 38 8 92q0 122 -67.5 185t-166.5 63q-89 0 -159.5 -49t-110.5 -124t-56 -167l-112 -639h-82z" />
    <glyph glyph-name="n" unicode="n" horiz-adv-x="1157" 
d="M197 0l181 1035h81l-32 -179h6q39 86 125 141t200 55q145 0 236.5 -89.5t91.5 -229.5q0 -57 -11 -116l-108 -617h-82l109 619q9 45 9 99q0 114 -72.5 187.5t-190.5 73.5q-139 0 -231 -94.5t-115 -226.5l-115 -658h-82z" />
    <glyph glyph-name="o" unicode="o" horiz-adv-x="1124" 
d="M331 625l-24 -129q-10 -55 -10 -111q0 -145 86.5 -236.5t229.5 -91.5q140 0 236.5 94t125.5 263l23 131q9 49 9 112q0 141 -86 231t-229 90q-133 0 -230.5 -86.5t-130.5 -266.5zM226 498l26 146q36 203 156 305.5t285 102.5q81 0 151 -24t125.5 -71.5t87 -125.5
t31.5 -178q0 -57 -9 -114l-26 -147q-34 -199 -153 -304t-293 -105q-173 0 -282 106t-109 290q0 54 10 119z" />
    <glyph glyph-name="p" unicode="p" horiz-adv-x="1161" 
d="M664 -17q-126 0 -220 69t-121 178h-6l-101 -580h-82l244 1385h81l-31 -174h6q36 77 122 134t203 57q163 0 264.5 -104t101.5 -278q0 -68 -10 -126l-29 -171q-30 -186 -146 -288t-276 -102zM352 378q4 -150 94.5 -234.5t216.5 -84.5q130 0 224.5 88t122.5 250l27 161
q8 53 8 105q0 141 -84.5 228.5t-217.5 87.5q-136 0 -231 -92.5t-118 -223.5l-37 -210q-5 -29 -5 -75z" />
    <glyph glyph-name="q" unicode="q" horiz-adv-x="1160" 
d="M677 1052q128 0 222 -69t122 -176h6l39 228h81l-244 -1385h-82l94 529h-6q-16 -33 -40 -62.5t-62.5 -62t-97.5 -51.5t-129 -19q-160 0 -261 102t-101 269q0 81 10 138l30 175q32 187 147.5 285.5t271.5 98.5zM993 660q0 139 -89 229t-222 90q-127 0 -222.5 -86.5
t-124.5 -252.5l-28 -160q-8 -44 -8 -106q0 -146 82 -230.5t217 -84.5q140 0 234.5 92t117.5 223l37 210q6 31 6 76z" />
    <glyph glyph-name="r" unicode="r" horiz-adv-x="750" 
d="M198 0l180 1035h80l-32 -182h6q36 88 107.5 143.5t180.5 55.5q65 0 119 -19l-19 -77q-40 20 -109 20q-131 0 -213.5 -95t-106.5 -242l-111 -639h-82z" />
    <glyph glyph-name="s" unicode="s" horiz-adv-x="980" 
d="M284 770q0 132 96.5 207.5t249.5 75.5q146 0 247 -73.5t101 -199.5q0 -22 -2 -28h-79q1 7 1 24q0 92 -77 149t-190 57q-112 0 -188 -54.5t-76 -150.5q0 -37 14 -68t34 -51.5t56 -40t66.5 -31t78.5 -27.5q74 -24 119.5 -44t89 -52.5t63.5 -77.5t20 -107
q0 -96 -53.5 -164.5t-136.5 -99.5t-185 -31q-158 0 -268.5 77.5t-110.5 204.5q0 11 3 32h80q-2 -18 -1 -29q3 -99 92 -155.5t208 -56.5q77 0 140.5 22.5t106 72.5t42.5 121q0 28 -7.5 52.5t-17.5 42t-30.5 34t-37 26.5t-47 22.5t-49.5 19t-55 18.5q-54 18 -86.5 30.5
t-77.5 37.5t-70.5 52t-44 69t-18.5 94z" />
    <glyph glyph-name="t" unicode="t" horiz-adv-x="724" 
d="M426 1031l50 281h80l-49 -281h275l-11 -69h-276l-122 -691q-9 -54 -9 -82q0 -62 35.5 -90.5t119.5 -28.5q79 0 127 8l-13 -70q-53 -8 -126 -8q-122 0 -174 43.5t-52 129.5q0 40 10 93l123 696h-206l12 69h206z" />
    <glyph glyph-name="u" unicode="u" horiz-adv-x="1145" 
d="M1131 1035l-181 -1035h-79l32 180h-7q-34 -85 -121 -141t-199 -56q-145 0 -240 86t-95 225q0 65 11 120l110 621h81l-110 -624q-8 -50 -8 -100q0 -114 73 -183.5t196 -69.5q137 0 228 94t114 226l115 657h80z" />
    <glyph glyph-name="v" unicode="v" horiz-adv-x="968" 
d="M416 0l-176 1035h83l149 -937h6l496 937h85l-555 -1035h-88z" />
    <glyph glyph-name="w" unicode="w" horiz-adv-x="1386" 
d="M1485 1035l-468 -1035h-86l-90 912h-5l-409 -912h-89l-103 1035h81l80 -930h6l416 930h78l91 -930h6l407 930h85z" />
    <glyph glyph-name="x" unicode="x" horiz-adv-x="986" 
d="M825 0l-243 459h-4l-411 -459h-98l473 525l-271 510h89l237 -453h5l404 453h98l-467 -517l278 -518h-90z" />
    <glyph glyph-name="y" unicode="y" horiz-adv-x="1004" 
d="M1101 1035l-577 -1045l-52 -99q-63 -119 -130 -168t-182 -49q-47 0 -89 10l15 72q40 -10 87 -10q79 0 128.5 40.5t91.5 120.5l50 98l-196 1030h86l166 -935h6l508 935h88z" />
    <glyph glyph-name="z" unicode="z" horiz-adv-x="908" 
d="M96 0l12 73l779 886v7h-631l10 69h740l-17 -72l-775 -886v-7h632l-10 -70h-740z" />
    <glyph glyph-name="braceleft" unicode="{" horiz-adv-x="720" 
d="M309 606l-4 -20q157 -15 122 -215q-12 -62 -40.5 -225.5t-28.5 -167.5q-15 -103 34 -150t167 -47h62l-13 -71h-39q-170 0 -239.5 61.5t-46.5 215.5q0 3 58 347q19 111 -6.5 157t-124.5 46l20 116q99 0 142 47.5t62 158.5l47 269q16 90 48.5 149t84.5 90.5t112.5 43.5
t147.5 12h36l-12 -70h-61q-124 0 -190.5 -53.5t-84.5 -160.5l-57 -317q-19 -106 -65.5 -157t-130.5 -59z" />
    <glyph glyph-name="bar" unicode="|" horiz-adv-x="600" 
d="M291 -289h-79l300 1704h78z" />
    <glyph glyph-name="braceright" unicode="}" horiz-adv-x="720" 
d="M621 586l3 20q-155 15 -120 216q6 34 20.5 115.5t26 148.5t11.5 69q15 105 -32 151.5t-169 46.5h-62l12 70h39q172 0 241.5 -59t46.5 -212q0 -19 -13 -95.5t-25.5 -146t-12.5 -71.5q-15 -99 12.5 -142.5t120.5 -43.5l-20 -116q-99 0 -141.5 -46.5t-62.5 -156.5l-56 -322
q-16 -91 -48.5 -151t-84.5 -93t-113.5 -45.5t-147.5 -12.5h-36l12 71h61q238 0 275 213l66 377q20 106 66.5 157t130.5 58z" />
    <glyph glyph-name="asciitilde" unicode="~" horiz-adv-x="1138" 
d="M879 515q-62 0 -109.5 28.5t-96.5 79.5q-7 7 -29.5 31t-31.5 32.5t-29.5 25.5t-34 23.5t-33.5 13t-40 6.5q-66 0 -116.5 -55.5t-67.5 -149.5h-76q16 118 88.5 198.5t174.5 80.5q20 0 40 -4.5t34 -8t33.5 -16.5t28 -18t28.5 -24t24 -22.5t26 -27t23 -24.5q44 -46 81 -70.5
t85 -24.5q78 0 129.5 65t69.5 148h75q-7 -49 -28.5 -98t-55.5 -92t-84.5 -70t-107.5 -27z" />
    <glyph glyph-name="nonbreakingspace" unicode="&#xa0;" horiz-adv-x="466" 
 />
    <glyph glyph-name="exclamdown" unicode="&#xa1;" horiz-adv-x="555" 
d="M530 966q0 -35 -24.5 -60t-58.5 -25q-35 0 -60 25t-25 60t25 59t60 24t59 -24t24 -59zM270 -325h-87l184 981h65z" />
    <glyph glyph-name="cent" unicode="&#xa2;" horiz-adv-x="1090" 
d="M157 524q0 73 10 133l26 157q32 192 146.5 295t282.5 104q12 0 18 -1l43 242h75l-46 -250q125 -23 201.5 -107t76.5 -202q0 -13 -3 -31h-77q2 6 2 23q0 108 -80.5 180.5t-209.5 72.5q-138 0 -230 -91.5t-120 -254.5l-23 -137q-11 -56 -11 -115q0 -154 82 -239t229 -85
q122 0 198.5 54.5t92.5 134.5h80q-19 -116 -119 -190t-257 -74h-19l-41 -234h-74l43 243q-136 25 -216 121.5t-80 250.5z" />
    <glyph glyph-name="sterling" unicode="&#xa3;" horiz-adv-x="1090" 
d="M1183 1075h-79q1 5 1 16q1 40 -12.5 78.5t-40.5 72t-73.5 54t-104.5 20.5q-222 0 -264 -242l-59 -334h331l-13 -72h-329l-59 -331q-36 -207 -149 -253l-2 -10h717l-13 -74h-925l13 77q37 0 62.5 2.5t63 17.5t63.5 41.5t51.5 79t38.5 126.5l58 324h-244l13 72h242l62 349
q26 148 113 225t229 77q145 0 229 -88.5t81 -205.5q0 -4 -0.5 -11.5t-0.5 -10.5z" />
    <glyph glyph-name="currency" unicode="&#xa4;" horiz-adv-x="1092" 
d="M396 656q0 -110 78 -188.5t186 -78.5q112 0 189 78t76 189q0 113 -77 190.5t-189 77.5q-108 0 -185.5 -78t-77.5 -190zM969 197l-136 172q-77 -49 -172 -49q-139 0 -237 98l-190 -152l-44 57l190 153q-54 83 -54 184q0 139 97 234l-140 178l60 47l139 -179q80 52 183 52
q134 0 230 -96l209 164l44 -58l-208 -164q53 -82 53 -182q1 -140 -101 -242l136 -171z" />
    <glyph glyph-name="yen" unicode="&#xa5;" horiz-adv-x="1110" 
d="M322 402h267l32 186h-266l12 68h234l-319 704h91l297 -673h7l528 673h103l-563 -704h241l-12 -68h-272l-32 -186h271l-11 -68h-272l-57 -334h-81l57 334h-267z" />
    <glyph glyph-name="brokenbar" unicode="&#xa6;" horiz-adv-x="465" 
d="M410 783h-75l115 654h75zM218 -309h-75l120 685h75z" />
    <glyph glyph-name="section" unicode="&#xa7;" horiz-adv-x="1049" 
d="M148 94l75 -4q-3 -15 -3 -29q0 -80 51 -136t122 -79.5t153 -23.5q125 0 211.5 64.5t86.5 175.5q0 79 -64 129t-208 102q-8 2 -16 6q-163 52 -238 117.5t-75 178.5q0 103 69 172.5t178 95.5l2 5q-135 82 -135 230q0 135 101 213.5t251 78.5q63 0 124 -16.5t113.5 -48.5
t85 -87.5t32.5 -126.5q0 -24 -5 -57l-78 5q4 20 4 42q0 70 -43 120t-104.5 72t-132.5 22q-105 0 -186 -56.5t-81 -154.5q0 -47 17.5 -84t56 -67t82.5 -53t113 -50q58 -23 94 -39t79 -42t66.5 -52.5t40 -65t16.5 -84.5q0 -105 -58.5 -175.5t-150.5 -107.5l-1 -5
q135 -81 135 -207q0 -99 -53.5 -173.5t-141.5 -112t-195 -37.5q-52 0 -105 10t-106 32.5t-93.5 55.5t-65.5 83t-25 111q0 25 5 53zM719 320q78 24 139 86t61 152q0 121 -176 193q-1 0 -44.5 18t-86 35.5t-45.5 18.5q-94 -12 -167 -72t-73 -151q0 -131 175 -201
q3 -2 55 -20.5t106.5 -38.5t55.5 -20z" />
    <glyph glyph-name="dieresis" unicode="&#xa8;" horiz-adv-x="849" 
d="M429 1303q0 29 21 49.5t50 20.5q31 0 52 -20.5t21 -49.5q0 -30 -21 -51t-52 -21q-29 0 -50 21t-21 51zM724 1303q0 29 21 49.5t50 20.5q31 0 52.5 -20.5t21.5 -49.5q0 -30 -21.5 -51t-52.5 -21q-29 0 -50 21t-21 51z" />
    <glyph glyph-name="copyright" unicode="&#xa9;" horiz-adv-x="1703" 
d="M947 -60q-200 0 -357.5 84t-244.5 231.5t-87 331.5q0 72 9 127l17 113q38 265 234 430t478 165q148 0 277.5 -50t220 -136t142.5 -204t52 -250q0 -62 -8 -111l-16 -112q-41 -282 -235.5 -450.5t-481.5 -168.5zM330 588q0 -170 81.5 -303.5t222 -205.5t314.5 -72
q257 0 433 151.5t212 404.5l16 116q7 46 7 97q0 125 -49.5 233.5t-134 183.5t-198.5 118t-240 43q-254 0 -429.5 -149.5t-210.5 -385.5l-17 -116q-7 -45 -7 -115zM666 596q0 42 9 90l17 96q25 138 103.5 208.5t204.5 70.5q109 0 186.5 -63t82.5 -166v-6h-75v1
q-4 71 -61 118.5t-134 47.5q-96 0 -156 -58t-80 -169l-14 -88q-7 -34 -7 -66q0 -109 58 -165t166 -56q71 0 117 27t61 71h81q-20 -77 -91 -122t-175 -45q-127 0 -210 72t-83 202z" />
    <glyph glyph-name="ordfeminine" unicode="&#xaa;" horiz-adv-x="661" 
d="M458 766q-72 0 -119 39.5t-47 112.5q0 81 59.5 124.5t160.5 43.5h145q4 16 6 29t3 19t1 7q2 14 2 22q0 49 -33 76.5t-89 27.5q-51 0 -83.5 -22t-38.5 -52h-68q6 55 58.5 94.5t135.5 39.5t134 -42t51 -120q0 -24 -6 -52l-59 -339h-67l15 72h-5q-17 -31 -58 -55.5
t-98 -24.5zM362 924q0 -47 31 -72.5t81 -25.5q58 0 103 36t55 93q14 71 15 77h-139q-68 0 -107 -29t-39 -79z" />
    <glyph glyph-name="guillemotleft" unicode="&#xab;" horiz-adv-x="1228" 
d="M274 565l437 404h105l-441 -411l-1 -6l286 -397h-100l-288 402zM677 565l438 404h104l-440 -411l-1 -6l286 -397h-101l-287 402z" />
    <glyph glyph-name="logicalnot" unicode="&#xac;" horiz-adv-x="1092" 
d="M975 156h-78l63 357h-743l13 72h820z" />
    <glyph glyph-name="registered" unicode="&#xae;" horiz-adv-x="1212" 
d="M293 851q0 37 5 66l10 59q23 188 151.5 301.5t319.5 113.5q199 0 329.5 -122t130.5 -307q0 -33 -4 -61l-9 -60q-25 -197 -152 -311t-322 -114q-203 0 -331 120.5t-128 314.5zM350 853q0 -175 114 -278.5t289 -103.5q172 0 282.5 100.5t132.5 272.5l9 60q5 32 5 57
q0 165 -116.5 270t-287.5 105q-168 0 -281.5 -101t-132.5 -265l-9 -58q-5 -29 -5 -59zM616 651h-60l94 528h172q80 0 116.5 -39t36.5 -101q0 -19 -4 -35q-10 -46 -42.5 -80t-83.5 -47l75 -226h-63l-71 218q-8 -1 -33 -1h-100zM817 1128h-117l-37 -209h106q122 0 142 92
q4 16 4 30q0 40 -25.5 63.5t-72.5 23.5z" />
    <glyph glyph-name="macron" unicode="&#xaf;" horiz-adv-x="849" 
d="M958 1342l-11 -59h-588l11 59h588z" />
    <glyph glyph-name="degree" unicode="&#xb0;" horiz-adv-x="689" 
d="M528 865q-107 0 -182 74.5t-75 181.5q0 106 75 180.5t182 74.5q105 0 180 -75t75 -180q0 -106 -75 -181t-180 -75zM528 933q77 0 132.5 56t55.5 132q0 78 -55 133t-133 55q-76 0 -131.5 -55.5t-55.5 -132.5q0 -76 56 -132t131 -56z" />
    <glyph glyph-name="plusminus" unicode="&#xb1;" horiz-adv-x="1126" 
d="M720 690l-58 -324h-75l57 324h-408l13 75h408l55 305h75l-54 -305h409l-13 -75h-409zM1032 151h-894l14 75h893z" />
    <glyph glyph-name="twosuperior" unicode="&#xb2;" horiz-adv-x="690" 
d="M430 1206h-66q5 74 62 122t147 48q87 0 140.5 -46.5t53.5 -120.5q0 -59 -33.5 -110t-95.5 -107l-222 -201v-3h321l-10 -61h-420l10 50l278 259q102 96 102 169q0 48 -34 78.5t-95 30.5q-62 0 -97.5 -31t-40.5 -77z" />
    <glyph glyph-name="threesuperior" unicode="&#xb3;" horiz-adv-x="666" 
d="M420 1026l7 62q13 -1 54 -1q62 0 112.5 33t50.5 89q0 48 -37.5 77.5t-94.5 29.5q-52 0 -84 -24t-39 -57h-70q8 60 60 100.5t135 40.5t140.5 -42t57.5 -120q0 -69 -46 -111.5t-107 -49.5v-3q58 -12 90.5 -54t32.5 -100q0 -84 -63.5 -137t-163.5 -52q-92 1 -147.5 47
t-57.5 112q0 13 1 19h63v-5q1 -47 42.5 -79t104.5 -32q64 0 107 34.5t43 98.5q0 56 -36 84.5t-108 37.5q-17 2 -47 2z" />
    <glyph glyph-name="acute" unicode="&#xb4;" horiz-adv-x="849" 
d="M556 1231h-72l258 315h96z" />
    <glyph glyph-name="paragraph" unicode="&#xb6;" horiz-adv-x="1203" 
d="M690 -210h-82l130 740l-20 1q-43 3 -90.5 19t-97 48.5t-89 76.5t-64.5 108.5t-25 137.5q0 28 6 70q13 95 61.5 168.5t120 117.5t154 66t172.5 22h101zM863 -210l277 1575h81l-277 -1575h-81z" />
    <glyph glyph-name="periodcentered" unicode="&#xb7;" horiz-adv-x="479" 
d="M277 689q0 36 24.5 60.5t58.5 24.5q36 0 61 -24.5t25 -60.5q0 -35 -25 -59t-61 -24q-34 0 -58.5 24.5t-24.5 58.5z" />
    <glyph glyph-name="cedilla" unicode="&#xb8;" horiz-adv-x="849" 
d="M289 -140l43 144h68l-38 -142q78 -4 129.5 -39.5t51.5 -106.5q0 -82 -66 -129t-157 -47q-81 0 -150 28l11 62q63 -26 141 -26q56 0 99 26.5t43 82.5q0 82 -135 95l-50 3z" />
    <glyph glyph-name="onesuperior" unicode="&#xb9;" horiz-adv-x="566" 
d="M493 727h-69l99 557h-5l-179 -104l12 71l185 109h69z" />
    <glyph glyph-name="ordmasculine" unicode="&#xba;" horiz-adv-x="659" 
d="M532 1324q94 0 159 -59t60 -164q0 -34 -6 -62q-1 -7 -4.5 -28.5t-4.5 -30.5q-18 -105 -82.5 -161.5t-159.5 -56.5q-98 0 -161 62t-57 163q0 26 5 61l11 58q19 106 83.5 162t156.5 56zM531 1262q-65 0 -112 -43t-63 -130l-9 -44q0 -4 -1.5 -27.5t-1.5 -30.5
q-4 -71 37.5 -117t113.5 -46q69 0 115.5 46t60.5 128l8 44q4 28 4 59q4 70 -38.5 115.5t-113.5 45.5z" />
    <glyph glyph-name="guillemotright" unicode="&#xbb;" horiz-adv-x="1218" 
d="M728 557l-431 -402h-104l434 411l1 6l-286 397h94l294 -404zM1132 557l-431 -402h-104l434 411l1 6l-287 397h94l294 -404z" />
    <glyph glyph-name="onequarter" unicode="&#xbc;" horiz-adv-x="1444" 
d="M1227 638h102l-77 -437h93l-9 -56h-93l-26 -145h-66l25 145h-324l10 56q29 40 98 123t162 191.5zM935 201h251l68 378h-4q-260 -304 -314 -374zM453 727h-69l99 557h-5l-179 -104l12 71l185 109h69zM279 0h-84l561 680l560 680h84l-560 -680z" />
    <glyph glyph-name="onehalf" unicode="&#xbd;" horiz-adv-x="1444" 
d="M1048 480h-66q5 74 62 122t147 48q87 0 140.5 -46.5t53.5 -120.5q0 -59 -33.5 -110t-95.5 -107l-222 -201v-3h321l-10 -61h-420l10 50l278 259q102 96 102 169q0 48 -34 78.5t-95 30.5q-62 0 -97.5 -31t-40.5 -77zM446 727h-69l99 557h-5l-179 -104l12 71l185 109h69z
M254 0h-84l561 680l560 680h84l-560 -680z" />
    <glyph glyph-name="threequarters" unicode="&#xbe;" horiz-adv-x="1424" 
d="M1246 638h102l-77 -437h93l-9 -56h-93l-26 -145h-66l25 145h-324l10 56q29 40 98 123t162 191.5zM954 201h251l68 378h-4q-268 -313 -314 -374zM306 1026l7 62q13 -1 54 -1q62 0 112.5 33t50.5 89q0 48 -37.5 77.5t-94.5 29.5q-52 0 -84 -24t-39 -57h-70q8 60 60 100.5
t135 40.5t140.5 -42t57.5 -120q0 -69 -46 -111.5t-107 -49.5v-3q58 -12 90.5 -54t32.5 -100q0 -84 -63.5 -137t-163.5 -52q-92 1 -147.5 47t-57.5 112q0 13 1 19h63v-5q1 -47 42.5 -79t104.5 -32q64 0 107 34.5t43 98.5q0 56 -36 84.5t-108 37.5q-17 2 -47 2zM261 0h-84
l561 680l560 680h84l-560 -680z" />
    <glyph glyph-name="questiondown" unicode="&#xbf;" horiz-adv-x="963" 
d="M738 1008q0 -35 -24.5 -60t-58.5 -25q-36 0 -61 24.5t-25 61.5q0 34 25 58t60 24t59.5 -24.5t24.5 -58.5zM859 4q-11 -61 -42 -117t-81.5 -103.5t-128.5 -74.5t-172 -24q-150 5 -242.5 80.5t-91.5 211.5q0 37 8 71t19 60t34 55t40.5 47.5t51.5 45.5t54.5 41.5l61.5 43.5
q108 75 146 120t53 130l16 92h80l-16 -96q-18 -103 -65 -162t-174 -145q-105 -73 -138 -105q-89 -85 -89 -194t73.5 -164.5t186.5 -57.5q64 -2 119 15t91 43.5t63.5 62t41.5 65.5t22 60z" />
    <glyph glyph-name="Agrave" unicode="&#xc0;" horiz-adv-x="1186" 
d="M71 0l730 1360h91l246 -1360h-85l-80 461h-567l-242 -461h-93zM834 1259h-6l-384 -728h516zM998 1509h-95l-298 236h110z" />
    <glyph glyph-name="Aacute" unicode="&#xc1;" horiz-adv-x="1186" 
d="M71 0l730 1360h91l246 -1360h-85l-80 461h-567l-242 -461h-93zM834 1259h-6l-384 -728h516zM758 1509l310 236h113l-326 -236h-97z" />
    <glyph glyph-name="Acircumflex" unicode="&#xc2;" horiz-adv-x="1186" 
d="M71 0l730 1360h91l246 -1360h-85l-80 461h-567l-242 -461h-93zM834 1259h-6l-384 -728h516zM562 1495l309 211h72l209 -211h-86l-163 157h-6l-236 -157h-99z" />
    <glyph glyph-name="Atilde" unicode="&#xc3;" horiz-adv-x="1186" 
d="M71 0l730 1360h91l246 -1360h-85l-80 461h-567l-242 -461h-93zM834 1259h-6l-384 -728h516zM847 1560q-23 28 -33.5 39.5t-31 24.5t-40.5 13q-91 0 -91 -134h-65q0 90 40.5 141t116.5 51q44 0 78 -20.5t72 -67.5q27 -35 49.5 -50.5t53.5 -15.5q43 0 71 40.5t29 102.5h65
q0 -84 -46.5 -141t-116.5 -57q-53 0 -84.5 17t-66.5 57z" />
    <glyph glyph-name="Adieresis" unicode="&#xc4;" horiz-adv-x="1186" 
d="M71 0l730 1360h91l246 -1360h-85l-80 461h-567l-242 -461h-93zM834 1259h-6l-384 -728h516zM647 1572q0 27 19 45.5t46 18.5q26 0 45 -18.5t19 -45.5q0 -26 -19 -44.5t-45 -18.5q-27 0 -46 18.5t-19 44.5zM986 1572q0 27 19 45.5t45 18.5q27 0 46 -18.5t19 -45.5
q0 -26 -19 -44.5t-46 -18.5q-26 0 -45 18.5t-19 44.5z" />
    <glyph glyph-name="Aring" unicode="&#xc5;" horiz-adv-x="1186" 
d="M849 1372q49 0 83.5 35t34.5 83q0 49 -34.5 84t-83.5 35q-48 0 -83 -35t-35 -84q0 -48 35.5 -83t82.5 -35zM834 1259h-6l-384 -728h516zM406 461l-242 -461h-93l713 1329q-49 19 -79 63t-30 98q0 71 50.5 121t123.5 50q71 0 120.5 -50t49.5 -121q0 -58 -34 -103.5
t-87 -61.5l240 -1325h-85l-80 461h-567z" />
    <glyph glyph-name="AE" unicode="&#xc6;" horiz-adv-x="1864" 
d="M1139 1266l-563 -715h487l128 715h-52zM966 0l85 481h-527l-379 -481h-95l1065 1360h864l-13 -75h-691l-97 -549h657l-12 -75h-658l-104 -586h692l-12 -75h-775z" />
    <glyph glyph-name="Ccedilla" unicode="&#xc7;" horiz-adv-x="1287" 
d="M629 -460q-82 0 -150 28l10 62q63 -26 141 -26q56 0 99 26.5t43 82.5q0 83 -135 95l-50 3l10 48l35 118q-177 30 -279 156.5t-102 329.5q0 85 12 155l45 247q43 241 182 383.5t355 142.5q95 0 175 -25.5t132.5 -66t89 -92.5t52.5 -104.5t16 -102.5q0 -30 -5 -50h-79
q3 15 3 47q-1 38 -14 78.5t-43 84t-73 77.5t-110 56t-147 22q-93 0 -171 -35t-133.5 -97t-92.5 -143.5t-54 -178.5l-45 -252q-12 -62 -12 -142q0 -200 109 -311t297 -111q159 0 265 81t129 209h81q0 -1 -2 -12.5t-3 -14.5q-28 -150 -157.5 -244t-314.5 -95q-7 0 -20 0.5
t-19 0.5l-29 -108q78 -4 129.5 -39.5t51.5 -106.5q0 -82 -65.5 -129t-156.5 -47z" />
    <glyph glyph-name="Egrave" unicode="&#xc8;" horiz-adv-x="1113" 
d="M977 1509h-95l-298 236h110zM1001 75l-11 -75h-776l240 1360h771l-12 -75h-690l-97 -550h657l-13 -75h-658l-103 -585h692z" />
    <glyph glyph-name="Eacute" unicode="&#xc9;" horiz-adv-x="1113" 
d="M737 1509l310 236h113l-326 -236h-97zM1001 75l-11 -75h-776l240 1360h771l-12 -75h-690l-97 -550h657l-13 -75h-658l-103 -585h692z" />
    <glyph glyph-name="Ecircumflex" unicode="&#xca;" horiz-adv-x="1113" 
d="M541 1495l309 211h72l209 -211h-86l-163 157h-6l-236 -157h-99zM1001 75l-11 -75h-776l240 1360h771l-12 -75h-690l-97 -550h657l-13 -75h-658l-103 -585h692z" />
    <glyph glyph-name="Edieresis" unicode="&#xcb;" horiz-adv-x="1113" 
d="M626 1572q0 27 19 45.5t46 18.5q26 0 45 -18.5t19 -45.5q0 -26 -19 -44.5t-45 -18.5q-27 0 -46 18.5t-19 44.5zM965 1572q0 27 19 45.5t45 18.5q27 0 46 -18.5t19 -45.5q0 -26 -19 -44.5t-46 -18.5q-26 0 -45 18.5t-19 44.5zM1001 75l-11 -75h-776l240 1360h771l-12 -75
h-690l-97 -550h657l-13 -75h-658l-103 -585h692z" />
    <glyph glyph-name="Igrave" unicode="&#xcc;" horiz-adv-x="520" 
d="M301 0h-82l239 1360h83zM652 1509h-95l-298 236h110z" />
    <glyph glyph-name="Iacute" unicode="&#xcd;" horiz-adv-x="520" 
d="M301 0h-82l239 1360h83zM412 1509l310 236h113l-326 -236h-97z" />
    <glyph glyph-name="Icircumflex" unicode="&#xce;" horiz-adv-x="520" 
d="M301 0h-82l239 1360h83zM216 1495l309 211h72l209 -211h-86l-163 157h-6l-236 -157h-99z" />
    <glyph glyph-name="Idieresis" unicode="&#xcf;" horiz-adv-x="520" 
d="M301 0h-82l239 1360h83zM301 1572q0 27 19 45.5t46 18.5q26 0 45 -18.5t19 -45.5q0 -26 -19 -44.5t-45 -18.5q-27 0 -46 18.5t-19 44.5zM640 1572q0 27 19 45.5t45 18.5q27 0 46 -18.5t19 -45.5q0 -26 -19 -44.5t-46 -18.5q-26 0 -45 18.5t-19 44.5z" />
    <glyph glyph-name="Eth" unicode="&#xd0;" horiz-adv-x="1400" 
d="M512 1360h351q259 0 387.5 -134t128.5 -365q0 -63 -9 -141q-7 -66 -21 -142q-53 -298 -229 -438t-502 -140h-346l117 660h-159l13 74h158zM582 1285l-98 -551h360l-13 -74h-360l-103 -585h258q279 0 436.5 124t204.5 388q12 57 20 132q8 72 8 129q0 205 -111.5 321
t-337.5 116h-264z" />
    <glyph glyph-name="Ntilde" unicode="&#xd1;" horiz-adv-x="1401" 
d="M946 1560q-23 28 -33.5 39.5t-31 24.5t-40.5 13q-91 0 -91 -134h-65q0 90 40.5 141t116.5 51q44 0 78 -20.5t72 -67.5q27 -35 49.5 -50.5t53.5 -15.5q43 0 71 40.5t29 102.5h65q0 -84 -46.5 -141t-116.5 -57q-53 0 -84.5 17t-66.5 57zM1187 0h-76l-595 1218h-5
l-214 -1218h-83l240 1360h80l590 -1218h5l215 1218h82z" />
    <glyph glyph-name="Ograve" unicode="&#xd2;" horiz-adv-x="1356" 
d="M1064 1509h-95l-298 236h110zM388 863l-45 -253q-13 -76 -13 -138q0 -190 115.5 -308t303.5 -118q183 0 305.5 122.5t158.5 334.5l44 256q11 62 11 132q0 187 -115.5 305t-300.5 118q-180 0 -303 -119t-161 -332zM262 625l44 242q43 243 187 383.5t361 140.5
q139 0 251 -57t179.5 -171.5t67.5 -269.5q0 -78 -14 -156l-44 -243q-44 -248 -187 -386.5t-365 -138.5q-137 0 -248 57t-178.5 170t-67.5 263q0 85 14 166z" />
    <glyph glyph-name="Oacute" unicode="&#xd3;" horiz-adv-x="1356" 
d="M824 1509l310 236h113l-326 -236h-97zM388 863l-45 -253q-13 -76 -13 -138q0 -190 115.5 -308t303.5 -118q183 0 305.5 122.5t158.5 334.5l44 256q11 62 11 132q0 187 -115.5 305t-300.5 118q-180 0 -303 -119t-161 -332zM262 625l44 242q43 243 187 383.5t361 140.5
q139 0 251 -57t179.5 -171.5t67.5 -269.5q0 -78 -14 -156l-44 -243q-44 -248 -187 -386.5t-365 -138.5q-137 0 -248 57t-178.5 170t-67.5 263q0 85 14 166z" />
    <glyph glyph-name="Ocircumflex" unicode="&#xd4;" horiz-adv-x="1356" 
d="M628 1495l309 211h72l209 -211h-86l-163 157h-6l-236 -157h-99zM388 863l-45 -253q-13 -76 -13 -138q0 -190 115.5 -308t303.5 -118q183 0 305.5 122.5t158.5 334.5l44 256q11 62 11 132q0 187 -115.5 305t-300.5 118q-180 0 -303 -119t-161 -332zM262 625l44 242
q43 243 187 383.5t361 140.5q139 0 251 -57t179.5 -171.5t67.5 -269.5q0 -78 -14 -156l-44 -243q-44 -248 -187 -386.5t-365 -138.5q-137 0 -248 57t-178.5 170t-67.5 263q0 85 14 166z" />
    <glyph glyph-name="Otilde" unicode="&#xd5;" horiz-adv-x="1356" 
d="M388 863l-45 -253q-13 -76 -13 -138q0 -190 115.5 -308t303.5 -118q183 0 305.5 122.5t158.5 334.5l44 256q11 62 11 132q0 187 -115.5 305t-300.5 118q-180 0 -303 -119t-161 -332zM262 625l44 242q43 243 187 383.5t361 140.5q139 0 251 -57t179.5 -171.5t67.5 -269.5
q0 -78 -14 -156l-44 -243q-44 -248 -187 -386.5t-365 -138.5q-137 0 -248 57t-178.5 170t-67.5 263q0 85 14 166zM913 1560q-23 28 -33.5 39.5t-31 24.5t-40.5 13q-91 0 -91 -134h-65q0 90 40.5 141t116.5 51q44 0 78 -20.5t72 -67.5q27 -35 49.5 -50.5t53.5 -15.5
q43 0 71 40.5t29 102.5h65q0 -84 -46.5 -141t-116.5 -57q-53 0 -84.5 17t-66.5 57z" />
    <glyph glyph-name="Odieresis" unicode="&#xd6;" horiz-adv-x="1356" 
d="M713 1572q0 27 19 45.5t46 18.5q26 0 45 -18.5t19 -45.5q0 -26 -19 -44.5t-45 -18.5q-27 0 -46 18.5t-19 44.5zM1052 1572q0 27 19 45.5t45 18.5q27 0 46 -18.5t19 -45.5q0 -26 -19 -44.5t-46 -18.5q-26 0 -45 18.5t-19 44.5zM388 863l-45 -253q-13 -76 -13 -138
q0 -190 115.5 -308t303.5 -118q183 0 305.5 122.5t158.5 334.5l44 256q11 62 11 132q0 187 -115.5 305t-300.5 118q-180 0 -303 -119t-161 -332zM262 625l44 242q43 243 187 383.5t361 140.5q139 0 251 -57t179.5 -171.5t67.5 -269.5q0 -78 -14 -156l-44 -243
q-44 -248 -187 -386.5t-365 -138.5q-137 0 -248 57t-178.5 170t-67.5 263q0 85 14 166z" />
    <glyph glyph-name="multiply" unicode="&#xd7;" horiz-adv-x="1090" 
d="M1061 803l-383 -324l268 -322l-54 -47l-267 323l-376 -321l-45 53l377 321l-263 321l52 49l265 -324l382 324z" />
    <glyph glyph-name="Oslash" unicode="&#xd8;" horiz-adv-x="1356" 
d="M262 625l43 243q44 242 188 382.5t360 140.5q132 0 241 -53.5t175 -152.5l160 151l48 -49l-172 -164q46 -105 46 -231q0 -77 -15 -156l-43 -242q-44 -247 -186.5 -386t-364.5 -139q-136 0 -247.5 57.5t-176.5 164.5l-149 -141l-43 52l161 152q-41 95 -41 206q0 80 16 165
zM1267 891q0 101 -29 171l-858 -815q51 -96 147 -148.5t222 -52.5q183 0 305 122.5t159 334.5l43 257q11 61 11 131zM1209 1129q-55 88 -147.5 136.5t-210.5 48.5q-180 0 -303 -119.5t-160 -331.5l-45 -252q-13 -78 -13 -139q0 -95 21 -157z" />
    <glyph glyph-name="Ugrave" unicode="&#xd9;" horiz-adv-x="1347" 
d="M1073 1509h-95l-298 236h110zM502 1360l-147 -835q-8 -50 -8 -104q0 -177 105 -275.5t281 -98.5q169 0 281 102.5t144 283.5l163 927h85l-165 -934q-38 -221 -174.5 -339.5t-340.5 -118.5q-210 0 -336.5 117t-126.5 326q0 62 11 123l145 826h83z" />
    <glyph glyph-name="Uacute" unicode="&#xda;" horiz-adv-x="1347" 
d="M833 1509l310 236h113l-326 -236h-97zM502 1360l-147 -835q-8 -50 -8 -104q0 -177 105 -275.5t281 -98.5q169 0 281 102.5t144 283.5l163 927h85l-165 -934q-38 -221 -174.5 -339.5t-340.5 -118.5q-210 0 -336.5 117t-126.5 326q0 62 11 123l145 826h83z" />
    <glyph glyph-name="Ucircumflex" unicode="&#xdb;" horiz-adv-x="1347" 
d="M637 1495l309 211h72l209 -211h-86l-163 157h-6l-236 -157h-99zM502 1360l-147 -835q-8 -50 -8 -104q0 -177 105 -275.5t281 -98.5q169 0 281 102.5t144 283.5l163 927h85l-165 -934q-38 -221 -174.5 -339.5t-340.5 -118.5q-210 0 -336.5 117t-126.5 326q0 62 11 123
l145 826h83z" />
    <glyph glyph-name="Udieresis" unicode="&#xdc;" horiz-adv-x="1347" 
d="M722 1572q0 27 19 45.5t46 18.5q26 0 45 -18.5t19 -45.5q0 -26 -19 -44.5t-45 -18.5q-27 0 -46 18.5t-19 44.5zM1061 1572q0 27 19 45.5t45 18.5q27 0 46 -18.5t19 -45.5q0 -26 -19 -44.5t-46 -18.5q-26 0 -45 18.5t-19 44.5zM502 1360l-147 -835q-8 -50 -8 -104
q0 -177 105 -275.5t281 -98.5q169 0 281 102.5t144 283.5l163 927h85l-165 -934q-38 -221 -174.5 -339.5t-340.5 -118.5q-210 0 -336.5 117t-126.5 326q0 62 11 123l145 826h83z" />
    <glyph glyph-name="Yacute" unicode="&#xdd;" horiz-adv-x="1113" 
d="M705 606l-104 -606h-81l105 605l-343 755h92l296 -673h7l529 673h102zM709 1509l310 236h113l-326 -236h-97z" />
    <glyph glyph-name="Thorn" unicode="&#xde;" horiz-adv-x="1174" 
d="M458 1360h82l-47 -265h364q168 0 257 -89t89 -226q0 -46 -10 -98q-34 -161 -153 -243t-355 -82h-326l-63 -357h-82zM841 1023h-360l-110 -594h339q340 0 402 263q9 34 9 86q0 104 -68.5 174.5t-211.5 70.5z" />
    <glyph glyph-name="germandbls" unicode="&#xdf;" horiz-adv-x="1199" 
d="M298 0h-82l198 1129q24 138 122 219t249 81q72 0 138 -20.5t118.5 -59.5t84 -102t31.5 -142q0 -78 -27.5 -144.5t-73 -110t-98 -71t-107.5 -36.5l-2 -5q56 -9 109 -35.5t97.5 -69.5t71.5 -108t27 -142q0 -125 -63 -216.5t-163.5 -135.5t-222.5 -44q-101 0 -228 38l14 77
q97 -41 221 -41q70 0 132.5 19t113 56.5t80.5 100.5t30 145q0 140 -99.5 230.5t-243.5 90.5h-105l14 83h128q55 0 109 20.5t99.5 58t74 99t28.5 135.5q0 121 -82 188t-204 67q-118 0 -196.5 -61.5t-97.5 -173.5z" />
    <glyph glyph-name="agrave" unicode="&#xe0;" horiz-adv-x="1064" 
d="M494 -17q-134 0 -223 75.5t-91 202.5q0 26 1 39q12 135 120 207.5t287 72.5h307l17 97q8 53 8 81q0 105 -71.5 163t-188.5 58q-115 0 -183 -46.5t-81 -106.5h-81q16 91 108 158.5t241 67.5q96 0 170 -29.5t120 -95.5t46 -161q0 -39 -12 -116l-114 -650h-81l26 149l-6 1
q-29 -58 -113 -112.5t-206 -54.5zM263 275q0 -104 70 -160.5t176 -56.5q126 0 221.5 75t118.5 199l33 179h-301q-146 0 -232 -62t-86 -174zM793 1231h-68l-196 315h94z" />
    <glyph glyph-name="aacute" unicode="&#xe1;" horiz-adv-x="1064" 
d="M494 -17q-134 0 -223 75.5t-91 202.5q0 26 1 39q12 135 120 207.5t287 72.5h307l17 97q8 53 8 81q0 105 -71.5 163t-188.5 58q-115 0 -183 -46.5t-81 -106.5h-81q16 91 108 158.5t241 67.5q96 0 170 -29.5t120 -95.5t46 -161q0 -39 -12 -116l-114 -650h-81l26 149l-6 1
q-29 -58 -113 -112.5t-206 -54.5zM263 275q0 -104 70 -160.5t176 -56.5q126 0 221.5 75t118.5 199l33 179h-301q-146 0 -232 -62t-86 -174zM708 1231h-72l258 315h96z" />
    <glyph glyph-name="acircumflex" unicode="&#xe2;" horiz-adv-x="1064" 
d="M494 -17q-134 0 -223 75.5t-91 202.5q0 26 1 39q12 135 120 207.5t287 72.5h307l17 97q8 53 8 81q0 105 -71.5 163t-188.5 58q-115 0 -183 -46.5t-81 -106.5h-81q16 91 108 158.5t241 67.5q96 0 170 -29.5t120 -95.5t46 -161q0 -39 -12 -116l-114 -650h-81l26 149l-6 1
q-29 -58 -113 -112.5t-206 -54.5zM263 275q0 -104 70 -160.5t176 -56.5q126 0 221.5 75t118.5 199l33 179h-301q-146 0 -232 -62t-86 -174zM437 1229l288 278h86l188 -278h-84l-148 222h-11l-230 -222h-89z" />
    <glyph glyph-name="atilde" unicode="&#xe3;" horiz-adv-x="1064" 
d="M494 -17q-134 0 -223 75.5t-91 202.5q0 26 1 39q12 135 120 207.5t287 72.5h307l17 97q8 53 8 81q0 105 -71.5 163t-188.5 58q-115 0 -183 -46.5t-81 -106.5h-81q16 91 108 158.5t241 67.5q96 0 170 -29.5t120 -95.5t46 -161q0 -39 -12 -116l-114 -650h-81l26 149l-6 1
q-29 -58 -113 -112.5t-206 -54.5zM263 275q0 -104 70 -160.5t176 -56.5q126 0 221.5 75t118.5 199l33 179h-301q-146 0 -232 -62t-86 -174zM855 1185q-53 0 -90.5 25t-71.5 74q-24 34 -35 48t-36 31.5t-51 17.5q-44 0 -70.5 -34t-39.5 -106h-72q11 103 58.5 156.5
t127.5 53.5q39 0 74 -20.5t52.5 -41.5t44.5 -58q54 -77 114 -77q45 0 78 38.5t46 107.5h71q-9 -93 -65 -154t-135 -61z" />
    <glyph glyph-name="adieresis" unicode="&#xe4;" horiz-adv-x="1064" 
d="M494 -17q-134 0 -223 75.5t-91 202.5q0 26 1 39q12 135 120 207.5t287 72.5h307l17 97q8 53 8 81q0 105 -71.5 163t-188.5 58q-115 0 -183 -46.5t-81 -106.5h-81q16 91 108 158.5t241 67.5q96 0 170 -29.5t120 -95.5t46 -161q0 -39 -12 -116l-114 -650h-81l26 149l-6 1
q-29 -58 -113 -112.5t-206 -54.5zM263 275q0 -104 70 -160.5t176 -56.5q126 0 221.5 75t118.5 199l33 179h-301q-146 0 -232 -62t-86 -174zM517 1314q0 29 21 49.5t50 20.5q31 0 52 -20.5t21 -49.5q0 -30 -21 -51t-52 -21q-29 0 -50 21t-21 51zM812 1314q0 29 21 49.5
t50 20.5q31 0 52.5 -20.5t21.5 -49.5q0 -30 -21.5 -51t-52.5 -21q-29 0 -50 21t-21 51z" />
    <glyph glyph-name="aring" unicode="&#xe5;" horiz-adv-x="1064" 
d="M494 -17q-134 0 -223 75.5t-91 202.5q0 26 1 39q12 135 120 207.5t287 72.5h307l17 97q8 53 8 81q0 105 -71.5 163t-188.5 58q-115 0 -183 -46.5t-81 -106.5h-81q16 91 108 158.5t241 67.5q96 0 170 -29.5t120 -95.5t46 -161q0 -39 -12 -116l-114 -650h-81l26 149l-6 1
q-29 -58 -113 -112.5t-206 -54.5zM263 275q0 -104 70 -160.5t176 -56.5q126 0 221.5 75t118.5 199l33 179h-301q-146 0 -232 -62t-86 -174zM742 1245q49 0 84 35t35 83q0 49 -34.5 84t-84.5 35q-47 0 -82 -35t-35 -84q0 -48 35 -83t82 -35zM743 1192q-73 0 -123 50.5
t-50 122.5t50 121.5t123 49.5q71 0 121 -49.5t50 -121.5t-50 -122.5t-121 -50.5z" />
    <glyph glyph-name="ae" unicode="&#xe6;" horiz-adv-x="1726" 
d="M1257 -17q-155 0 -250 81t-111 199h-3q-28 -114 -137 -197t-255 -83q-143 0 -232 76.5t-89 211.5q0 150 111 229.5t299 79.5h305l17 99q8 51 8 80q0 104 -71.5 162t-188.5 58q-115 0 -183 -46.5t-81 -106.5h-81q16 91 108 158.5t240 67.5q119 0 205.5 -50t113.5 -149h3
q120 199 351 199q172 0 268.5 -107.5t90.5 -290.5q0 -52 -20 -143h-712q-12 -77 -12 -133q0 -146 78 -233.5t228 -87.5q121 0 200.5 53.5t92.5 123.5h80q-7 -43 -34 -86t-72 -80.5t-115 -61t-152 -23.5zM263 274q0 -104 69.5 -160t176.5 -56q126 0 221.5 75t118.5 199
l33 179h-301q-146 0 -232 -62.5t-86 -174.5zM1608 579q10 37 10 80q5 142 -69 232t-215 90q-138 0 -225 -90.5t-122 -249.5q-9 -45 -12 -62h633z" />
    <glyph glyph-name="ccedilla" unicode="&#xe7;" horiz-adv-x="1060" 
d="M502 -460q-81 0 -150 28l11 62q63 -26 141 -26q56 0 99 26.5t43 82.5q0 82 -135 95l-50 3l11 48l38 133q-134 25 -213.5 122t-79.5 250q0 74 11 133l26 157q32 192 146.5 295t284.5 103q160 0 262.5 -89t102.5 -229q0 -21 -3 -30h-76q1 6 1 23q0 108 -80.5 180.5
t-208.5 72.5q-138 0 -230.5 -91.5t-119.5 -254.5l-24 -137q-10 -59 -10 -115q0 -155 82 -240t229 -85q121 0 198 55t92 135h81q-19 -116 -119 -190t-258 -74q-19 0 -27 1l-33 -122q78 -4 129.5 -39.5t51.5 -106.5q0 -82 -65.5 -129t-157.5 -47z" />
    <glyph glyph-name="egrave" unicode="&#xe8;" horiz-adv-x="1073" 
d="M828 1231h-68l-196 315h94zM602 -17q-175 0 -279.5 100.5t-104.5 285.5q0 67 12 137l20 116q31 191 140.5 310.5t292.5 119.5q172 0 268.5 -107.5t90.5 -290.5q0 -45 -20 -143h-712q-13 -75 -13 -133q0 -146 78.5 -233.5t228.5 -87.5q120 0 199.5 53.5t93.5 123.5h80
q-7 -44 -34.5 -87t-72.5 -80.5t-115 -60.5t-153 -23zM955 579q9 33 9 80q6 142 -68 232t-215 90q-138 0 -224.5 -90.5t-121.5 -249.5q-10 -48 -12 -62h632z" />
    <glyph glyph-name="eacute" unicode="&#xe9;" horiz-adv-x="1073" 
d="M743 1231h-72l258 315h96zM602 -17q-175 0 -279.5 100.5t-104.5 285.5q0 67 12 137l20 116q31 191 140.5 310.5t292.5 119.5q172 0 268.5 -107.5t90.5 -290.5q0 -45 -20 -143h-712q-13 -75 -13 -133q0 -146 78.5 -233.5t228.5 -87.5q120 0 199.5 53.5t93.5 123.5h80
q-7 -44 -34.5 -87t-72.5 -80.5t-115 -60.5t-153 -23zM955 579q9 33 9 80q6 142 -68 232t-215 90q-138 0 -224.5 -90.5t-121.5 -249.5q-10 -48 -12 -62h632z" />
    <glyph glyph-name="ecircumflex" unicode="&#xea;" horiz-adv-x="1073" 
d="M472 1229l288 278h86l188 -278h-84l-148 222h-11l-230 -222h-89zM602 -17q-175 0 -279.5 100.5t-104.5 285.5q0 67 12 137l20 116q31 191 140.5 310.5t292.5 119.5q172 0 268.5 -107.5t90.5 -290.5q0 -45 -20 -143h-712q-13 -75 -13 -133q0 -146 78.5 -233.5t228.5 -87.5
q120 0 199.5 53.5t93.5 123.5h80q-7 -44 -34.5 -87t-72.5 -80.5t-115 -60.5t-153 -23zM955 579q9 33 9 80q6 142 -68 232t-215 90q-138 0 -224.5 -90.5t-121.5 -249.5q-10 -48 -12 -62h632z" />
    <glyph glyph-name="edieresis" unicode="&#xeb;" horiz-adv-x="1073" 
d="M602 -17q-175 0 -279.5 100.5t-104.5 285.5q0 67 12 137l20 116q31 191 140.5 310.5t292.5 119.5q172 0 268.5 -107.5t90.5 -290.5q0 -45 -20 -143h-712q-13 -75 -13 -133q0 -146 78.5 -233.5t228.5 -87.5q120 0 199.5 53.5t93.5 123.5h80q-7 -44 -34.5 -87t-72.5 -80.5
t-115 -60.5t-153 -23zM955 579q9 33 9 80q6 142 -68 232t-215 90q-138 0 -224.5 -90.5t-121.5 -249.5q-10 -48 -12 -62h632zM552 1314q0 29 21 49.5t50 20.5q31 0 52 -20.5t21 -49.5q0 -30 -21 -51t-52 -21q-29 0 -50 21t-21 51zM847 1314q0 29 21 49.5t50 20.5
q31 0 52.5 -20.5t21.5 -49.5q0 -30 -21.5 -51t-52.5 -21q-29 0 -50 21t-21 51z" />
    <glyph glyph-name="igrave" unicode="&#xec;" horiz-adv-x="518" 
d="M544 1231h-68l-196 315h94zM215 0l183 1035h81l-182 -1035h-82z" />
    <glyph glyph-name="iacute" unicode="&#xed;" horiz-adv-x="518" 
d="M459 1231h-72l258 315h96zM215 0l183 1035h81l-182 -1035h-82z" />
    <glyph glyph-name="icircumflex" unicode="&#xee;" horiz-adv-x="518" 
d="M188 1229l288 278h86l188 -278h-84l-148 222h-11l-230 -222h-89zM215 0l183 1035h81l-182 -1035h-82z" />
    <glyph glyph-name="idieresis" unicode="&#xef;" horiz-adv-x="518" 
d="M215 0l183 1035h81l-182 -1035h-82zM268 1314q0 29 21 49.5t50 20.5q31 0 52 -20.5t21 -49.5q0 -30 -21 -51t-52 -21q-29 0 -50 21t-21 51zM563 1314q0 29 21 49.5t50 20.5q31 0 52.5 -20.5t21.5 -49.5q0 -30 -21.5 -51t-52.5 -21q-29 0 -50 21t-21 51z" />
    <glyph glyph-name="eth" unicode="&#xf0;" horiz-adv-x="1169" 
d="M1053 385q-35 -197 -155 -300t-288 -103q-175 0 -284.5 108t-109.5 296q0 47 10 109l18 101q35 202 156 304.5t285 102.5q140 0 230.5 -68.5t119.5 -159.5l5 -1q5 54 5 119q2 198 -89 345l-298 -67l-6 59l269 61q-66 99 -179 176l54 51q122 -83 206 -211l251 57l7 -57
l-226 -51q87 -161 87 -377q0 -104 -22 -231zM687 928q-135 0 -233 -89t-132 -266l-15 -79q-10 -55 -10 -107q0 -147 85.5 -238.5t228.5 -91.5q141 0 237 93.5t127 262.5l27 148q5 25 5 59q0 129 -89.5 218.5t-230.5 89.5z" />
    <glyph glyph-name="ntilde" unicode="&#xf1;" horiz-adv-x="1157" 
d="M931 1185q-53 0 -90.5 25t-71.5 74q-24 34 -35 48t-36 31.5t-51 17.5q-44 0 -70.5 -34t-39.5 -106h-72q11 103 58.5 156.5t127.5 53.5q39 0 74 -20.5t52.5 -41.5t44.5 -58q54 -77 114 -77q45 0 78 38.5t46 107.5h71q-9 -93 -65 -154t-135 -61zM197 0l181 1035h81
l-32 -179h6q39 86 125 141t200 55q145 0 236.5 -89.5t91.5 -229.5q0 -57 -11 -116l-108 -617h-82l109 619q9 45 9 99q0 114 -72.5 187.5t-190.5 73.5q-139 0 -231 -94.5t-115 -226.5l-115 -658h-82z" />
    <glyph glyph-name="ograve" unicode="&#xf2;" horiz-adv-x="1124" 
d="M854 1231h-68l-196 315h94zM331 625l-24 -129q-10 -55 -10 -111q0 -145 86.5 -236.5t229.5 -91.5q140 0 236.5 94t125.5 263l23 131q9 49 9 112q0 141 -86 231t-229 90q-133 0 -230.5 -86.5t-130.5 -266.5zM226 498l26 146q36 203 156 305.5t285 102.5q81 0 151 -24
t125.5 -71.5t87 -125.5t31.5 -178q0 -57 -9 -114l-26 -147q-34 -199 -153 -304t-293 -105q-173 0 -282 106t-109 290q0 54 10 119z" />
    <glyph glyph-name="oacute" unicode="&#xf3;" horiz-adv-x="1124" 
d="M769 1231h-72l258 315h96zM331 625l-24 -129q-10 -55 -10 -111q0 -145 86.5 -236.5t229.5 -91.5q140 0 236.5 94t125.5 263l23 131q9 49 9 112q0 141 -86 231t-229 90q-133 0 -230.5 -86.5t-130.5 -266.5zM226 498l26 146q36 203 156 305.5t285 102.5q81 0 151 -24
t125.5 -71.5t87 -125.5t31.5 -178q0 -57 -9 -114l-26 -147q-34 -199 -153 -304t-293 -105q-173 0 -282 106t-109 290q0 54 10 119z" />
    <glyph glyph-name="ocircumflex" unicode="&#xf4;" horiz-adv-x="1124" 
d="M498 1229l288 278h86l188 -278h-84l-148 222h-11l-230 -222h-89zM331 625l-24 -129q-10 -55 -10 -111q0 -145 86.5 -236.5t229.5 -91.5q140 0 236.5 94t125.5 263l23 131q9 49 9 112q0 141 -86 231t-229 90q-133 0 -230.5 -86.5t-130.5 -266.5zM226 498l26 146
q36 203 156 305.5t285 102.5q81 0 151 -24t125.5 -71.5t87 -125.5t31.5 -178q0 -57 -9 -114l-26 -147q-34 -199 -153 -304t-293 -105q-173 0 -282 106t-109 290q0 54 10 119z" />
    <glyph glyph-name="otilde" unicode="&#xf5;" horiz-adv-x="1124" 
d="M916 1185q-53 0 -90.5 25t-71.5 74q-24 34 -35 48t-36 31.5t-51 17.5q-44 0 -70.5 -34t-39.5 -106h-72q11 103 58.5 156.5t127.5 53.5q39 0 74 -20.5t52.5 -41.5t44.5 -58q54 -77 114 -77q45 0 78 38.5t46 107.5h71q-9 -93 -65 -154t-135 -61zM331 625l-24 -129
q-10 -55 -10 -111q0 -145 86.5 -236.5t229.5 -91.5q140 0 236.5 94t125.5 263l23 131q9 49 9 112q0 141 -86 231t-229 90q-133 0 -230.5 -86.5t-130.5 -266.5zM226 498l26 146q36 203 156 305.5t285 102.5q81 0 151 -24t125.5 -71.5t87 -125.5t31.5 -178q0 -57 -9 -114
l-26 -147q-34 -199 -153 -304t-293 -105q-173 0 -282 106t-109 290q0 54 10 119z" />
    <glyph glyph-name="odieresis" unicode="&#xf6;" horiz-adv-x="1124" 
d="M578 1314q0 29 21 49.5t50 20.5q31 0 52 -20.5t21 -49.5q0 -30 -21 -51t-52 -21q-29 0 -50 21t-21 51zM873 1314q0 29 21 49.5t50 20.5q31 0 52.5 -20.5t21.5 -49.5q0 -30 -21.5 -51t-52.5 -21q-29 0 -50 21t-21 51zM331 625l-24 -129q-10 -55 -10 -111
q0 -145 86.5 -236.5t229.5 -91.5q140 0 236.5 94t125.5 263l23 131q9 49 9 112q0 141 -86 231t-229 90q-133 0 -230.5 -86.5t-130.5 -266.5zM226 498l26 146q36 203 156 305.5t285 102.5q81 0 151 -24t125.5 -71.5t87 -125.5t31.5 -178q0 -57 -9 -114l-26 -147
q-34 -199 -153 -304t-293 -105q-173 0 -282 106t-109 290q0 54 10 119z" />
    <glyph glyph-name="divide" unicode="&#xf7;" horiz-adv-x="1163" 
d="M643 896q0 35 23.5 59t57.5 24t58.5 -24.5t24.5 -58.5t-24 -57.5t-59 -23.5q-34 0 -57.5 23.5t-23.5 57.5zM521 143q0 35 23.5 59t57.5 24t58.5 -24t24.5 -59q0 -34 -24 -57.5t-59 -23.5q-34 0 -57.5 23.5t-23.5 57.5zM1117 504h-894l14 75h894z" />
    <glyph glyph-name="oslash" unicode="&#xf8;" horiz-adv-x="1124" 
d="M226 498l25 146q36 203 156.5 305.5t285.5 102.5q108 0 197 -43t140 -129l142 121l40 -48l-153 -131q29 -77 29 -169q0 -60 -10 -114l-25 -147q-35 -199 -154 -304t-293 -105q-109 0 -195 44t-135 126l-135 -114l-40 48l144 123q-30 77 -30 169q0 58 11 119zM330 625
l-23 -129q-11 -60 -11 -111q0 -60 17 -116l653 556q-39 72 -110 112.5t-164 40.5q-134 0 -231.5 -86.5t-130.5 -266.5zM339 208q40 -71 110.5 -111t162.5 -40q140 0 236.5 94t126.5 263l23 131q9 57 9 112t-17 106z" />
    <glyph glyph-name="ugrave" unicode="&#xf9;" horiz-adv-x="1145" 
d="M854 1231h-68l-196 315h94zM1131 1035l-181 -1035h-79l32 180h-7q-34 -85 -121 -141t-199 -56q-145 0 -240 86t-95 225q0 65 11 120l110 621h81l-110 -624q-8 -50 -8 -100q0 -114 73 -183.5t196 -69.5q137 0 228 94t114 226l115 657h80z" />
    <glyph glyph-name="uacute" unicode="&#xfa;" horiz-adv-x="1145" 
d="M769 1231h-72l258 315h96zM1131 1035l-181 -1035h-79l32 180h-7q-34 -85 -121 -141t-199 -56q-145 0 -240 86t-95 225q0 65 11 120l110 621h81l-110 -624q-8 -50 -8 -100q0 -114 73 -183.5t196 -69.5q137 0 228 94t114 226l115 657h80z" />
    <glyph glyph-name="ucircumflex" unicode="&#xfb;" horiz-adv-x="1145" 
d="M498 1229l288 278h86l188 -278h-84l-148 222h-11l-230 -222h-89zM1131 1035l-181 -1035h-79l32 180h-7q-34 -85 -121 -141t-199 -56q-145 0 -240 86t-95 225q0 65 11 120l110 621h81l-110 -624q-8 -50 -8 -100q0 -114 73 -183.5t196 -69.5q137 0 228 94t114 226l115 657
h80z" />
    <glyph glyph-name="udieresis" unicode="&#xfc;" horiz-adv-x="1145" 
d="M1131 1035l-181 -1035h-79l32 180h-7q-34 -85 -121 -141t-199 -56q-145 0 -240 86t-95 225q0 65 11 120l110 621h81l-110 -624q-8 -50 -8 -100q0 -114 73 -183.5t196 -69.5q137 0 228 94t114 226l115 657h80zM578 1314q0 29 21 49.5t50 20.5q31 0 52 -20.5t21 -49.5
q0 -30 -21 -51t-52 -21q-29 0 -50 21t-21 51zM873 1314q0 29 21 49.5t50 20.5q31 0 52.5 -20.5t21.5 -49.5q0 -30 -21.5 -51t-52.5 -21q-29 0 -50 21t-21 51z" />
    <glyph glyph-name="yacute" unicode="&#xfd;" horiz-adv-x="1004" 
d="M1101 1035l-577 -1045l-52 -99q-63 -119 -130 -168t-182 -49q-47 0 -89 10l15 72q40 -10 87 -10q79 0 128.5 40.5t91.5 120.5l50 98l-196 1030h86l166 -935h6l508 935h88zM687 1231h-72l258 315h96z" />
    <glyph glyph-name="thorn" unicode="&#xfe;" horiz-adv-x="1159" 
d="M666 -17q-129 0 -223 68t-122 179h-5l-101 -580h-82l315 1785h80l-101 -574h5q37 78 123 134.5t204 56.5q163 0 263.5 -104t100.5 -281q0 -57 -10 -123l-29 -171q-31 -185 -146.5 -287.5t-271.5 -102.5zM351 378q4 -150 94.5 -234.5t218.5 -84.5q127 0 221.5 88
t121.5 250l28 161q7 43 7 100q0 145 -83 233t-215 88q-137 0 -232.5 -92.5t-118.5 -223.5l-37 -210q-5 -29 -5 -75z" />
    <glyph glyph-name="ydieresis" unicode="&#xff;" horiz-adv-x="1004" 
d="M1101 1035l-577 -1045l-52 -99q-63 -119 -130 -168t-182 -49q-47 0 -89 10l15 72q40 -10 87 -10q79 0 128.5 40.5t91.5 120.5l50 98l-196 1030h86l166 -935h6l508 935h88zM496 1314q0 29 21 49.5t50 20.5q31 0 52 -20.5t21 -49.5q0 -30 -21 -51t-52 -21q-29 0 -50 21
t-21 51zM791 1314q0 29 21 49.5t50 20.5q31 0 52.5 -20.5t21.5 -49.5q0 -30 -21.5 -51t-52.5 -21q-29 0 -50 21t-21 51z" />
    <glyph glyph-name="Amacron" unicode="&#x100;" horiz-adv-x="1186" 
d="M71 0l730 1360h91l246 -1360h-85l-80 461h-567l-242 -461h-93zM834 1259h-6l-384 -728h516zM1177 1579l-11 -58h-587l10 58h588z" />
    <glyph glyph-name="amacron" unicode="&#x101;" horiz-adv-x="1064" 
d="M494 -17q-134 0 -223 75.5t-91 202.5q0 26 1 39q12 135 120 207.5t287 72.5h307l17 97q8 53 8 81q0 105 -71.5 163t-188.5 58q-115 0 -183 -46.5t-81 -106.5h-81q16 91 108 158.5t241 67.5q96 0 170 -29.5t120 -95.5t46 -161q0 -39 -12 -116l-114 -650h-81l26 149l-6 1
q-29 -58 -113 -112.5t-206 -54.5zM263 275q0 -104 70 -160.5t176 -56.5q126 0 221.5 75t118.5 199l33 179h-301q-146 0 -232 -62t-86 -174zM1022 1303l-11 -59h-588l11 59h588z" />
    <glyph glyph-name="Abreve" unicode="&#x102;" horiz-adv-x="1186" 
d="M71 0l730 1360h91l246 -1360h-85l-80 461h-567l-242 -461h-93zM834 1259h-6l-384 -728h516zM631 1714h68q-11 -77 38.5 -121.5t142.5 -44.5q95 0 154 44.5t72 121.5h69q-14 -103 -90.5 -166t-214.5 -63q-131 0 -193.5 66.5t-45.5 162.5z" />
    <glyph glyph-name="abreve" unicode="&#x103;" horiz-adv-x="1064" 
d="M494 -17q-134 0 -223 75.5t-91 202.5q0 26 1 39q12 135 120 207.5t287 72.5h307l17 97q8 53 8 81q0 105 -71.5 163t-188.5 58q-115 0 -183 -46.5t-81 -106.5h-81q16 91 108 158.5t241 67.5q96 0 170 -29.5t120 -95.5t46 -161q0 -39 -12 -116l-114 -650h-81l26 149l-6 1
q-29 -58 -113 -112.5t-206 -54.5zM263 275q0 -104 70 -160.5t176 -56.5q126 0 221.5 75t118.5 199l33 179h-301q-146 0 -232 -62t-86 -174zM483 1444h66q-3 -80 48.5 -131t136.5 -51q95 0 150.5 51t65.5 131h67q-12 -104 -85 -174t-200 -70q-112 0 -183 69.5t-66 174.5z" />
    <glyph glyph-name="Aogonek" unicode="&#x104;" horiz-adv-x="1186" 
d="M1002 -430q-70 0 -114 37t-44 102q0 89 55 162.5t151 148.5l-77 441h-567l-242 -461h-93l730 1360h91l244 -1354q-214 -144 -214 -279q0 -43 30.5 -67t81.5 -24q47 0 87 14l-9 -60q-42 -20 -110 -20zM834 1259h-6l-384 -728h516z" />
    <glyph glyph-name="aogonek" unicode="&#x105;" horiz-adv-x="1064" 
d="M263 275q0 -104 70 -160.5t176 -56.5q126 0 221.5 75t118.5 199l33 179h-301q-146 0 -232 -62t-86 -174zM851 -342q-37 -17 -96 -17q-75 0 -118 44t-29 123q13 72 61 121.5t130 102.5l20 117l-6 1q-29 -58 -113 -112.5t-206 -54.5q-134 0 -223 75.5t-91 202.5q0 26 1 39
q12 135 120 207.5t287 72.5h307l18 97q8 53 8 81q0 105 -72 163t-189 58q-115 0 -183 -46.5t-81 -106.5h-81q16 91 108 158.5t241 67.5q96 0 170 -29.5t120 -95.5t46 -161q0 -39 -12 -116l-113 -643q-171 -88 -189 -191q-9 -50 16.5 -78t77.5 -28q46 0 82 12z" />
    <glyph glyph-name="Cacute" unicode="&#x106;" horiz-adv-x="1287" 
d="M798 1509l310 236h113l-326 -236h-97zM391 861l-45 -252q-12 -62 -12 -142q0 -200 109 -311t297 -111q159 0 265 81t129 209h81q0 -1 -2 -12.5t-3 -14.5q-28 -151 -158 -245t-317 -94q-222 0 -353 131t-131 363q0 85 12 155l45 247q43 241 182 383.5t355 142.5
q95 0 175 -25.5t132.5 -66t89 -92.5t52.5 -104.5t16 -102.5q0 -30 -5 -50h-79q3 15 3 47q-1 38 -14 78.5t-43 84t-73 77.5t-110 56t-147 22q-93 0 -171 -35t-133.5 -97t-92.5 -143.5t-54 -178.5z" />
    <glyph glyph-name="cacute" unicode="&#x107;" horiz-adv-x="1060" 
d="M217 364q0 74 11 133l26 157q32 192 146.5 295t284.5 103q160 0 262.5 -89t102.5 -229q0 -21 -3 -30h-76q1 7 1 23q0 108 -80.5 180.5t-208.5 72.5q-138 0 -230.5 -91.5t-119.5 -254.5l-24 -137q-10 -59 -10 -115q0 -155 82 -240t229 -85q121 0 198 55t92 135h81
q-19 -116 -119 -190t-258 -74q-174 0 -280.5 101t-106.5 280zM741 1231h-72l258 315h96z" />
    <glyph glyph-name="Ccircumflex" unicode="&#x108;" horiz-adv-x="1287" 
d="M391 861l-45 -252q-12 -62 -12 -142q0 -200 109 -311t297 -111q159 0 265 81t129 209h81q0 -1 -2 -12.5t-3 -14.5q-28 -151 -158 -245t-317 -94q-222 0 -353 131t-131 363q0 85 12 155l45 247q43 241 182 383.5t355 142.5q95 0 175 -25.5t132.5 -66t89 -92.5t52.5 -104.5
t16 -102.5q0 -30 -5 -50h-79q3 15 3 47q-1 38 -14 78.5t-43 84t-73 77.5t-110 56t-147 22q-93 0 -171 -35t-133.5 -97t-92.5 -143.5t-54 -178.5zM602 1495l309 211h72l209 -211h-86l-163 157h-6l-236 -157h-99z" />
    <glyph glyph-name="ccircumflex" unicode="&#x109;" horiz-adv-x="1060" 
d="M470 1229l288 278h86l188 -278h-84l-148 222h-11l-230 -222h-89zM217 364q0 74 11 133l26 157q32 192 146.5 295t284.5 103q160 0 262.5 -89t102.5 -229q0 -21 -3 -30h-76q1 7 1 23q0 108 -80.5 180.5t-208.5 72.5q-138 0 -230.5 -91.5t-119.5 -254.5l-24 -137
q-10 -59 -10 -115q0 -155 82 -240t229 -85q121 0 198 55t92 135h81q-19 -116 -119 -190t-258 -74q-174 0 -280.5 101t-106.5 280z" />
    <glyph glyph-name="Cdotaccent" unicode="&#x10a;" horiz-adv-x="1287" 
d="M391 861l-45 -252q-12 -62 -12 -142q0 -200 109 -311t297 -111q159 0 265 81t129 209h81q0 -1 -2 -12.5t-3 -14.5q-28 -151 -158 -245t-317 -94q-222 0 -353 131t-131 363q0 85 12 155l45 247q43 241 182 383.5t355 142.5q95 0 175 -25.5t132.5 -66t89 -92.5t52.5 -104.5
t16 -102.5q0 -30 -5 -50h-79q3 15 3 47q-1 38 -14 78.5t-43 84t-73 77.5t-110 56t-147 22q-93 0 -171 -35t-133.5 -97t-92.5 -143.5t-54 -178.5zM858 1611q0 32 20.5 53t50.5 21q32 0 53.5 -21t21.5 -53q0 -31 -21.5 -51.5t-53.5 -20.5q-29 0 -50 20.5t-21 51.5z" />
    <glyph glyph-name="cdotaccent" unicode="&#x10b;" horiz-adv-x="1060" 
d="M217 364q0 74 11 133l26 157q32 192 146.5 295t284.5 103q160 0 262.5 -89t102.5 -229q0 -21 -3 -30h-76q1 7 1 23q0 108 -80.5 180.5t-208.5 72.5q-138 0 -230.5 -91.5t-119.5 -254.5l-24 -137q-10 -59 -10 -115q0 -155 82 -240t229 -85q121 0 198 55t92 135h81
q-19 -116 -119 -190t-258 -74q-174 0 -280.5 101t-106.5 280zM692 1286q0 32 20.5 53t50.5 21q32 0 53.5 -21t21.5 -53q0 -31 -21.5 -51.5t-53.5 -20.5q-29 0 -50 21t-21 51z" />
    <glyph glyph-name="Ccaron" unicode="&#x10c;" horiz-adv-x="1287" 
d="M391 861l-45 -252q-12 -62 -12 -142q0 -200 109 -311t297 -111q159 0 265 81t129 209h81q0 -1 -2 -12.5t-3 -14.5q-28 -151 -158 -245t-317 -94q-222 0 -353 131t-131 363q0 85 12 155l45 247q43 241 182 383.5t355 142.5q95 0 175 -25.5t132.5 -66t89 -92.5t52.5 -104.5
t16 -102.5q0 -30 -5 -50h-79q3 15 3 47q-1 38 -14 78.5t-43 84t-73 77.5t-110 56t-147 22q-93 0 -171 -35t-133.5 -97t-92.5 -143.5t-54 -178.5zM1254 1690l-309 -209h-71l-215 209h92l162 -159h5l233 159h103z" />
    <glyph glyph-name="ccaron" unicode="&#x10d;" horiz-adv-x="1060" 
d="M710 1203l-193 278h81l157 -221h11l229 221h85l-284 -278h-86zM217 364q0 74 11 133l26 157q32 192 146.5 295t284.5 103q160 0 262.5 -89t102.5 -229q0 -21 -3 -30h-76q1 7 1 23q0 108 -80.5 180.5t-208.5 72.5q-138 0 -230.5 -91.5t-119.5 -254.5l-24 -137
q-10 -59 -10 -115q0 -155 82 -240t229 -85q121 0 198 55t92 135h81q-19 -116 -119 -190t-258 -74q-174 0 -280.5 101t-106.5 280z" />
    <glyph glyph-name="Dcaron" unicode="&#x10e;" horiz-adv-x="1342" 
d="M1206 1690l-309 -209h-71l-215 209h92l162 -159h5l233 159h103zM454 1360h350q259 0 387.5 -134t128.5 -365q0 -63 -9 -141q-5 -59 -20 -142q-53 -298 -229 -438t-503 -140h-345zM523 1285l-213 -1210h258q279 0 436.5 124t204.5 388q14 65 19 132q9 67 9 129
q0 205 -112 321t-338 116h-264z" />
    <glyph glyph-name="dcaron" unicode="&#x10f;" horiz-adv-x="1265" 
d="M1414 1416h88l-113 -467h-61zM677 1052q128 0 222 -69t121 -176h6l106 609h82l-249 -1416h-81l32 179h-6q-16 -33 -40 -63t-63 -62t-98 -51.5t-129 -19.5q-160 0 -261 102.5t-101 269.5q0 81 10 138l30 175q32 188 147 286t272 98zM994 659q0 140 -90 230t-223 90
q-128 0 -222.5 -85.5t-123.5 -253.5l-28 -160q-8 -50 -8 -106q0 -146 81.5 -231t217.5 -85q140 0 234 92t118 224l37 210q7 36 7 75z" />
    <glyph glyph-name="Dcroat" unicode="&#x110;" horiz-adv-x="1400" 
d="M512 1360h351q259 0 387.5 -134t128.5 -365q0 -63 -9 -141q-7 -66 -21 -142q-53 -298 -229 -438t-502 -140h-346l117 660h-159l13 74h158zM582 1285l-98 -551h360l-13 -74h-360l-103 -585h258q279 0 436.5 124t204.5 388q12 57 20 132q8 72 8 129q0 205 -111.5 321
t-337.5 116h-264z" />
    <glyph glyph-name="dcroat" unicode="&#x111;" horiz-adv-x="1150" 
d="M586 1052q128 0 222.5 -69t120.5 -176h6l75 423h-240l13 71h239l21 115h82l-21 -115h137l-13 -71h-137l-216 -1230h-81l31 179h-6q-15 -32 -39.5 -63t-63 -62.5t-98 -51t-129.5 -19.5q-159 0 -260.5 102.5t-101.5 269.5q0 81 10 138l30 175q32 188 147.5 286t271.5 98z
M903 659q0 140 -89.5 230t-222.5 90q-127 0 -221.5 -85.5t-124.5 -253.5l-29 -160q-8 -50 -8 -106q0 -146 81.5 -231t217.5 -85q140 0 234.5 92.5t117.5 223.5l37 210q7 36 7 75z" />
    <glyph glyph-name="Emacron" unicode="&#x112;" horiz-adv-x="1113" 
d="M1001 75l-11 -75h-776l240 1360h771l-12 -75h-690l-97 -550h657l-13 -75h-658l-103 -585h692zM1156 1579l-11 -58h-587l10 58h588z" />
    <glyph glyph-name="emacron" unicode="&#x113;" horiz-adv-x="1073" 
d="M602 -17q-175 0 -279.5 100.5t-104.5 285.5q0 67 12 137l20 116q31 191 140.5 310.5t292.5 119.5q172 0 268.5 -107.5t90.5 -290.5q0 -45 -20 -143h-712q-13 -75 -13 -133q0 -146 78.5 -233.5t228.5 -87.5q120 0 199.5 53.5t93.5 123.5h80q-7 -44 -34.5 -87t-72.5 -80.5
t-115 -60.5t-153 -23zM955 579q9 33 9 80q6 142 -68 232t-215 90q-138 0 -224.5 -90.5t-121.5 -249.5q-10 -48 -12 -62h632zM1057 1303l-11 -59h-588l11 59h588z" />
    <glyph glyph-name="Ebreve" unicode="&#x114;" horiz-adv-x="1113" 
d="M1001 75l-11 -75h-776l240 1360h771l-12 -75h-690l-97 -550h657l-13 -75h-658l-103 -585h692zM610 1714h68q-11 -77 38.5 -121.5t142.5 -44.5q95 0 154 44.5t72 121.5h69q-14 -103 -90.5 -166t-214.5 -63q-131 0 -193.5 66.5t-45.5 162.5z" />
    <glyph glyph-name="ebreve" unicode="&#x115;" horiz-adv-x="1073" 
d="M602 -17q-175 0 -279.5 100.5t-104.5 285.5q0 67 12 137l20 116q31 191 140.5 310.5t292.5 119.5q172 0 268.5 -107.5t90.5 -290.5q0 -45 -20 -143h-712q-13 -75 -13 -133q0 -146 78.5 -233.5t228.5 -87.5q120 0 199.5 53.5t93.5 123.5h80q-7 -44 -34.5 -87t-72.5 -80.5
t-115 -60.5t-153 -23zM955 579q9 33 9 80q6 142 -68 232t-215 90q-138 0 -224.5 -90.5t-121.5 -249.5q-10 -48 -12 -62h632zM518 1444h66q-3 -80 48.5 -131t136.5 -51q95 0 150.5 51t65.5 131h67q-12 -104 -85 -174t-200 -70q-112 0 -183 69.5t-66 174.5z" />
    <glyph glyph-name="Edotaccent" unicode="&#x116;" horiz-adv-x="1113" 
d="M796 1611q0 32 20.5 53t50.5 21q32 0 53.5 -21t21.5 -53q0 -31 -21.5 -51.5t-53.5 -20.5q-29 0 -50 20.5t-21 51.5zM1001 75l-11 -75h-776l240 1360h771l-12 -75h-690l-97 -550h657l-13 -75h-658l-103 -585h692z" />
    <glyph glyph-name="edotaccent" unicode="&#x117;" horiz-adv-x="1073" 
d="M694 1286q0 32 20.5 53t50.5 21q32 0 53.5 -21t21.5 -53q0 -31 -21.5 -51.5t-53.5 -20.5q-29 0 -50 21t-21 51zM602 -17q-175 0 -279.5 100.5t-104.5 285.5q0 67 12 137l20 116q31 191 140.5 310.5t292.5 119.5q172 0 268.5 -107.5t90.5 -290.5q0 -45 -20 -143h-712
q-13 -75 -13 -133q0 -146 78.5 -233.5t228.5 -87.5q120 0 199.5 53.5t93.5 123.5h80q-7 -44 -34.5 -87t-72.5 -80.5t-115 -60.5t-153 -23zM955 579q9 33 9 80q6 142 -68 232t-215 90q-138 0 -224.5 -90.5t-121.5 -249.5q-10 -48 -12 -62h632z" />
    <glyph glyph-name="Eogonek" unicode="&#x118;" horiz-adv-x="1113" 
d="M826 -430q-68 0 -113.5 37.5t-45.5 102.5q0 153 199 290h-652l240 1360h771l-12 -75h-690l-97 -550h657l-13 -75h-657l-104 -585h693l-10 -59q-34 -20 -55 -33.5t-62 -44.5t-65.5 -59t-44.5 -68t-20 -80q0 -45 28.5 -69.5t83.5 -24.5q46 0 87 13l-9 -59q-44 -21 -109 -21
z" />
    <glyph glyph-name="eogonek" unicode="&#x119;" horiz-adv-x="1073" 
d="M600 -17q-174 0 -278 100.5t-104 285.5q0 67 12 137l20 116q31 191 140.5 310.5t292.5 119.5q172 0 268.5 -107.5t90.5 -290.5q0 -45 -20 -143h-712q-13 -75 -13 -133q0 -146 78.5 -233.5t228.5 -87.5q120 0 199.5 53.5t93.5 123.5h80q-7 -55 -38 -97t-90 -98
q-6 -6 -25.5 -25t-26.5 -26t-24 -24.5t-24.5 -26.5t-20.5 -25.5t-19 -28.5t-13.5 -27.5t-11 -30.5t-4.5 -31q-4 -50 25.5 -75t77.5 -25q44 0 96 16l-12 -63q-42 -21 -110 -21q-69 0 -113 39t-43 108q3 113 142 233l-3 4q-75 -27 -140 -27zM955 579q9 33 9 80q6 142 -68 232
t-215 90q-138 0 -224.5 -90.5t-121.5 -249.5q-10 -48 -12 -62h632z" />
    <glyph glyph-name="Ecaron" unicode="&#x11a;" horiz-adv-x="1113" 
d="M1193 1690l-309 -209h-71l-215 209h92l162 -159h5l233 159h103zM1001 75l-11 -75h-776l240 1360h771l-12 -75h-690l-97 -550h657l-13 -75h-658l-103 -585h692z" />
    <glyph glyph-name="ecaron" unicode="&#x11b;" horiz-adv-x="1073" 
d="M712 1203l-193 278h81l157 -221h11l229 221h85l-284 -278h-86zM602 -17q-175 0 -279.5 100.5t-104.5 285.5q0 67 12 137l20 116q31 191 140.5 310.5t292.5 119.5q172 0 268.5 -107.5t90.5 -290.5q0 -45 -20 -143h-712q-13 -75 -13 -133q0 -146 78.5 -233.5t228.5 -87.5
q120 0 199.5 53.5t93.5 123.5h80q-7 -44 -34.5 -87t-72.5 -80.5t-115 -60.5t-153 -23zM955 579q9 33 9 80q6 142 -68 232t-215 90q-138 0 -224.5 -90.5t-121.5 -249.5q-10 -48 -12 -62h632z" />
    <glyph glyph-name="Gcircumflex" unicode="&#x11c;" horiz-adv-x="1322" 
d="M597 1495l309 211h72l209 -211h-86l-163 157h-6l-236 -157h-99zM308 865q43 240 185 383t362 143q118 0 211.5 -37t146.5 -95.5t80 -123t27 -127.5q0 -30 -5 -50h-79q3 20 3 46q-1 37 -13.5 77t-42.5 82t-73 75.5t-110.5 54.5t-148.5 21q-124 0 -222 -61t-156 -161
t-82 -231l-45 -252q-12 -70 -12 -142q0 -200 110.5 -311.5t300.5 -111.5q70 0 133 17t119.5 53t96.5 99.5t55 149.5l41 235h-405l13 75h485l-54 -322q-18 -103 -67 -180t-118.5 -119.5t-145 -62.5t-159.5 -20q-223 0 -356 130.5t-133 363.5q0 82 14 155z" />
    <glyph glyph-name="gcircumflex" unicode="&#x11d;" horiz-adv-x="1155" 
d="M471 1230l288 278h86l188 -278h-84l-148 222h-11l-230 -222h-89zM667 1052q71 0 132.5 -23.5t102 -61.5t66.5 -79t36 -81h6l39 228h81l-181 -1033q-17 -98 -57 -170t-97.5 -113.5t-125.5 -61t-149 -19.5q-160 0 -260.5 78.5t-100.5 199.5q0 25 2 32h78q-1 -8 -1 -30
q0 -86 78.5 -146.5t209.5 -60.5q61 0 113 15t100.5 48.5t83 96t50.5 148.5l35 203h-6q-16 -34 -41.5 -64.5t-64 -60.5t-95.5 -48t-125 -18q-153 0 -255.5 103.5t-102.5 267.5q0 81 11 144l20 117q17 99 58 175t97.5 122t123 69t139.5 23zM977 661q0 135 -88 226.5t-221 91.5
q-124 0 -218 -86.5t-124 -255.5l-18 -104q-10 -57 -10 -111q0 -147 82 -232.5t215 -85.5q135 0 228.5 91.5t117.5 221.5l28 157q8 45 8 87z" />
    <glyph glyph-name="Gbreve" unicode="&#x11e;" horiz-adv-x="1322" 
d="M308 865q43 240 185 383t362 143q118 0 211.5 -37t146.5 -95.5t80 -123t27 -127.5q0 -30 -5 -50h-79q3 20 3 46q-1 37 -13.5 77t-42.5 82t-73 75.5t-110.5 54.5t-148.5 21q-124 0 -222 -61t-156 -161t-82 -231l-45 -252q-12 -70 -12 -142q0 -200 110.5 -311.5
t300.5 -111.5q70 0 133 17t119.5 53t96.5 99.5t55 149.5l41 235h-405l13 75h485l-54 -322q-18 -103 -67 -180t-118.5 -119.5t-145 -62.5t-159.5 -20q-223 0 -356 130.5t-133 363.5q0 82 14 155zM666 1714h68q-11 -77 38.5 -121.5t142.5 -44.5q95 0 154 44.5t72 121.5h69
q-14 -103 -90.5 -166t-214.5 -63q-131 0 -193.5 66.5t-45.5 162.5z" />
    <glyph glyph-name="gbreve" unicode="&#x11f;" horiz-adv-x="1155" 
d="M517 1445h66q-3 -80 48.5 -131t136.5 -51q95 0 150.5 51t65.5 131h67q-12 -104 -85 -174t-200 -70q-112 0 -183 69.5t-66 174.5zM667 1052q71 0 132.5 -23.5t102 -61.5t66.5 -79t36 -81h6l39 228h81l-181 -1033q-17 -98 -57 -170t-97.5 -113.5t-125.5 -61t-149 -19.5
q-160 0 -260.5 78.5t-100.5 199.5q0 25 2 32h78q-1 -8 -1 -30q0 -86 78.5 -146.5t209.5 -60.5q61 0 113 15t100.5 48.5t83 96t50.5 148.5l35 203h-6q-16 -34 -41.5 -64.5t-64 -60.5t-95.5 -48t-125 -18q-153 0 -255.5 103.5t-102.5 267.5q0 81 11 144l20 117q17 99 58 175
t97.5 122t123 69t139.5 23zM977 661q0 135 -88 226.5t-221 91.5q-124 0 -218 -86.5t-124 -255.5l-18 -104q-10 -57 -10 -111q0 -147 82 -232.5t215 -85.5q135 0 228.5 91.5t117.5 221.5l28 157q8 45 8 87z" />
    <glyph glyph-name="Gdotaccent" unicode="&#x120;" horiz-adv-x="1322" 
d="M853 1611q0 32 20.5 53t50.5 21q32 0 53.5 -21t21.5 -53q0 -31 -21.5 -51.5t-53.5 -20.5q-30 0 -50.5 20.5t-20.5 51.5zM308 865q43 240 185 383t362 143q118 0 211.5 -37t146.5 -95.5t80 -123t27 -127.5q0 -30 -5 -50h-79q3 20 3 46q-1 37 -13.5 77t-42.5 82t-73 75.5
t-110.5 54.5t-148.5 21q-124 0 -222 -61t-156 -161t-82 -231l-45 -252q-12 -70 -12 -142q0 -200 110.5 -311.5t300.5 -111.5q70 0 133 17t119.5 53t96.5 99.5t55 149.5l41 235h-405l13 75h485l-54 -322q-18 -103 -67 -180t-118.5 -119.5t-145 -62.5t-159.5 -20
q-223 0 -356 130.5t-133 363.5q0 82 14 155z" />
    <glyph glyph-name="gdotaccent" unicode="&#x121;" horiz-adv-x="1155" 
d="M693 1287q0 32 20.5 53t50.5 21q32 0 53.5 -21t21.5 -53q0 -31 -21.5 -51.5t-53.5 -20.5q-30 0 -50.5 20.5t-20.5 51.5zM667 1052q71 0 132.5 -23.5t102 -61.5t66.5 -79t36 -81h6l39 228h81l-181 -1033q-17 -98 -57 -170t-97.5 -113.5t-125.5 -61t-149 -19.5
q-160 0 -260.5 78.5t-100.5 199.5q0 25 2 32h78q-1 -8 -1 -30q0 -86 78.5 -146.5t209.5 -60.5q61 0 113 15t100.5 48.5t83 96t50.5 148.5l35 203h-6q-16 -34 -41.5 -64.5t-64 -60.5t-95.5 -48t-125 -18q-153 0 -255.5 103.5t-102.5 267.5q0 81 11 144l20 117q17 99 58 175
t97.5 122t123 69t139.5 23zM977 661q0 135 -88 226.5t-221 91.5q-124 0 -218 -86.5t-124 -255.5l-18 -104q-10 -57 -10 -111q0 -147 82 -232.5t215 -85.5q135 0 228.5 91.5t117.5 221.5l28 157q8 45 8 87z" />
    <glyph glyph-name="Gcommaaccent" unicode="&#x122;" horiz-adv-x="1322" 
d="M577 -470h-58l84 327h85zM308 865q43 240 185 383t362 143q118 0 211.5 -37t146.5 -95.5t80 -123t27 -127.5q0 -30 -5 -50h-79q3 20 3 46q-1 37 -13.5 77t-42.5 82t-73 75.5t-110.5 54.5t-148.5 21q-124 0 -222 -61t-156 -161t-82 -231l-45 -252q-12 -70 -12 -142
q0 -200 110.5 -311.5t300.5 -111.5q70 0 133 17t119.5 53t96.5 99.5t55 149.5l41 235h-405l13 75h485l-54 -322q-18 -103 -67 -180t-118.5 -119.5t-145 -62.5t-159.5 -20q-223 0 -356 130.5t-133 363.5q0 82 14 155z" />
    <glyph glyph-name="gcommaaccent" unicode="&#x123;" horiz-adv-x="1155" 
d="M819 1559h60l-85 -335h-89zM667 1052q71 0 132.5 -23.5t102 -61.5t66.5 -79t36 -81h6l39 228h81l-181 -1033q-17 -98 -57 -170t-97.5 -113.5t-125.5 -61t-149 -19.5q-160 0 -260.5 78.5t-100.5 199.5q0 25 2 32h78q-1 -8 -1 -30q0 -86 78.5 -146.5t209.5 -60.5
q61 0 113 15t100.5 48.5t83 96t50.5 148.5l35 203h-6q-16 -34 -41.5 -64.5t-64 -60.5t-95.5 -48t-125 -18q-153 0 -255.5 103.5t-102.5 267.5q0 81 11 144l20 117q17 99 58 175t97.5 122t123 69t139.5 23zM977 661q0 135 -88 226.5t-221 91.5q-124 0 -218 -86.5t-124 -255.5
l-18 -104q-10 -57 -10 -111q0 -147 82 -232.5t215 -85.5q135 0 228.5 91.5t117.5 221.5l28 157q8 45 8 87z" />
    <glyph glyph-name="Hcircumflex" unicode="&#x124;" horiz-adv-x="1391" 
d="M297 0h-83l240 1360h82l-108 -609h798l108 609h82l-239 -1360h-81l117 677h-797zM644 1495l309 211h72l209 -211h-86l-163 157h-6l-236 -157h-99z" />
    <glyph glyph-name="hcircumflex" unicode="&#x125;" horiz-adv-x="1161" 
d="M199 0l248 1416h82l-100 -560h6q38 85 124.5 140.5t202.5 55.5q146 0 239 -89t93 -230q0 -57 -11 -116l-108 -617h-82l109 619q9 43 9 100q0 114 -73 187t-193 73q-140 0 -232.5 -94t-116.5 -227l-115 -658h-82zM238 1610l288 278h86l188 -278h-84l-148 222h-11
l-230 -222h-89z" />
    <glyph glyph-name="Hbar" unicode="&#x126;" horiz-adv-x="1391" 
d="M428 751h798l45 253h-798zM416 677l-119 -677h-83l177 1004h-100l13 74h100l50 282h82l-50 -282h798l50 282h82l-49 -282h100l-13 -74h-101l-176 -1004h-81l117 677h-797z" />
    <glyph glyph-name="hbar" unicode="&#x127;" horiz-adv-x="1161" 
d="M396 658l-115 -658h-82l215 1230h-129l13 71h128l21 115h83l-21 -115h247l-12 -71h-248l-67 -374h6q38 85 124.5 140.5t202.5 55.5q146 0 239 -89t93 -230q0 -57 -11 -116l-108 -617h-82l109 619q9 43 9 100q0 114 -73 187t-193 73q-140 0 -232.5 -94t-116.5 -227z" />
    <glyph glyph-name="Itilde" unicode="&#x128;" horiz-adv-x="520" 
d="M301 0h-82l239 1360h83zM501 1560q-23 28 -33.5 39.5t-31 24.5t-40.5 13q-91 0 -91 -134h-65q0 90 40.5 141t116.5 51q44 0 78 -20.5t72 -67.5q27 -35 49.5 -50.5t53.5 -15.5q43 0 71 40.5t29 102.5h65q0 -84 -46.5 -141t-116.5 -57q-53 0 -84.5 17t-66.5 57z" />
    <glyph glyph-name="itilde" unicode="&#x129;" horiz-adv-x="518" 
d="M215 0l183 1035h81l-182 -1035h-82zM606 1185q-53 0 -90.5 25t-71.5 74q-24 34 -35 48t-36 31.5t-51 17.5q-44 0 -70.5 -34t-39.5 -106h-72q11 103 58.5 156.5t127.5 53.5q39 0 74 -20.5t52.5 -41.5t44.5 -58q54 -77 114 -77q45 0 78 38.5t46 107.5h71q-9 -93 -65 -154
t-135 -61z" />
    <glyph glyph-name="Imacron" unicode="&#x12a;" horiz-adv-x="520" 
d="M301 0h-82l239 1360h83zM831 1579l-11 -58h-587l10 58h588z" />
    <glyph glyph-name="imacron" unicode="&#x12b;" horiz-adv-x="518" 
d="M215 0l183 1035h81l-182 -1035h-82zM773 1303l-11 -59h-588l11 59h588z" />
    <glyph glyph-name="Ibreve" unicode="&#x12c;" horiz-adv-x="520" 
d="M301 0h-82l239 1360h83zM285 1714h68q-11 -77 38.5 -121.5t142.5 -44.5q95 0 154 44.5t72 121.5h69q-14 -103 -90.5 -166t-214.5 -63q-131 0 -193.5 66.5t-45.5 162.5z" />
    <glyph glyph-name="ibreve" unicode="&#x12d;" horiz-adv-x="518" 
d="M215 0l183 1035h81l-182 -1035h-82zM234 1444h66q-3 -80 48.5 -131t136.5 -51q95 0 150.5 51t65.5 131h67q-12 -104 -85 -174t-200 -70q-112 0 -183 69.5t-66 174.5z" />
    <glyph glyph-name="Iogonek" unicode="&#x12e;" horiz-adv-x="520" 
d="M280 -348q-38 -20 -107 -20t-108 43t-30 118q16 133 188 236l234 1331h84l-239 -1354q-75 -35 -127.5 -87t-60.5 -117q-7 -49 18 -76.5t72 -27.5q48 0 87 14z" />
    <glyph glyph-name="iogonek" unicode="&#x12f;" horiz-adv-x="511" 
d="M402 1340q0 31 22 52.5t52 21.5q32 0 54 -21.5t22 -52.5q0 -32 -22 -53.5t-54 -21.5q-30 0 -52 22t-22 53zM276 -339q-38 -20 -107 -20q-71 0 -110 43.5t-27 121.5q21 129 189 232l176 997h82l-181 -1021q-169 -83 -187 -199q-9 -49 16 -78.5t73 -29.5t87 13z" />
    <glyph glyph-name="Idotaccent" unicode="&#x130;" horiz-adv-x="520" 
d="M301 0h-82l239 1360h83zM472 1611q0 32 20.5 53t50.5 21q32 0 53.5 -21t21.5 -53q0 -31 -21.5 -51.5t-53.5 -20.5q-29 0 -50 20.5t-21 51.5z" />
    <glyph glyph-name="dotlessi" unicode="&#x131;" horiz-adv-x="518" 
d="M215 0l183 1035h81l-182 -1035h-82z" />
    <glyph glyph-name="Jcircumflex" unicode="&#x134;" horiz-adv-x="983" 
d="M1013 1360l-188 -1062q-29 -164 -125 -240.5t-228 -76.5q-148 0 -235.5 83t-87.5 205q0 37 6 58h77q-4 -34 -4 -47q0 -97 66.5 -161t177.5 -64q99 0 174.5 61.5t98.5 193.5l185 1050h83zM687 1495l309 211h72l209 -211h-86l-163 157h-6l-236 -157h-99z" />
    <glyph glyph-name="jcircumflex" unicode="&#x135;" horiz-adv-x="512" 
d="M478 1035l-194 -1093q-26 -143 -92 -205t-193 -62q-35 0 -76 9l15 72q34 -8 69 -8q82 0 129 46.5t66 148.5l194 1092h82zM174 1216l288 278h86l188 -278h-84l-148 222h-11l-230 -222h-89z" />
    <glyph glyph-name="Kcommaaccent" unicode="&#x136;" horiz-adv-x="1180" 
d="M536 1360l-130 -730h4l812 730h109l-675 -612l462 -748h-98l-428 699l-204 -180l-91 -519h-83l240 1360h82zM496 -470h-58l84 327h85z" />
    <glyph glyph-name="kcommaaccent" unicode="&#x137;" horiz-adv-x="1026" 
d="M347 440l-77 -440h-82l250 1416h81l-153 -874h5l634 507h116l-543 -433l373 -616h-95l-341 572zM454 -470h-58l84 327h85z" />
    <glyph glyph-name="Lacute" unicode="&#x139;" horiz-adv-x="1030" 
d="M405 1509l310 236h113l-326 -236h-97zM983 74l-13 -74h-756l240 1360h82l-227 -1286h674z" />
    <glyph glyph-name="lacute" unicode="&#x13a;" horiz-adv-x="514" 
d="M527 1612h-72l258 315h96zM218 0l246 1416h82l-246 -1416h-82z" />
    <glyph glyph-name="Lcommaaccent" unicode="&#x13b;" horiz-adv-x="1030" 
d="M456 -470h-58l84 327h85zM983 74l-13 -74h-756l240 1360h82l-227 -1286h674z" />
    <glyph glyph-name="lcommaaccent" unicode="&#x13c;" horiz-adv-x="514" 
d="M163 -470h-58l84 327h85zM218 0l246 1416h82l-246 -1416h-82z" />
    <glyph glyph-name="Lcaron" unicode="&#x13d;" horiz-adv-x="1030" 
d="M856 1416h88l-113 -467h-61zM983 74l-13 -74h-756l240 1360h82l-227 -1286h674z" />
    <glyph glyph-name="lcaron" unicode="&#x13e;" horiz-adv-x="572" 
d="M736 1416h89l-114 -467h-61zM218 0l246 1416h82l-246 -1416h-82z" />
    <glyph glyph-name="Lslash" unicode="&#x141;" horiz-adv-x="1053" 
d="M971 0h-757l103 584l-164 -87l14 81l165 87l122 695h82l-114 -646l492 263l-14 -84l-492 -261l-99 -558h675z" />
    <glyph glyph-name="lslash" unicode="&#x142;" horiz-adv-x="525" 
d="M305 0h-82l117 668l-210 -143l15 87l210 142l115 662h82l-104 -601l217 149l-15 -86l-218 -148z" />
    <glyph glyph-name="Nacute" unicode="&#x143;" horiz-adv-x="1401" 
d="M857 1509l310 236h113l-326 -236h-97zM1187 0h-76l-595 1218h-5l-214 -1218h-83l240 1360h80l590 -1218h5l215 1218h82z" />
    <glyph glyph-name="nacute" unicode="&#x144;" horiz-adv-x="1157" 
d="M784 1231h-72l258 315h96zM197 0l181 1035h81l-32 -179h6q39 86 125 141t200 55q145 0 236.5 -89.5t91.5 -229.5q0 -57 -11 -116l-108 -617h-82l109 619q9 45 9 99q0 114 -72.5 187.5t-190.5 73.5q-139 0 -231 -94.5t-115 -226.5l-115 -658h-82z" />
    <glyph glyph-name="Ncommaaccent" unicode="&#x145;" horiz-adv-x="1401" 
d="M610 -470h-58l84 327h85zM1187 0h-76l-595 1218h-5l-214 -1218h-83l240 1360h80l590 -1218h5l215 1218h82z" />
    <glyph glyph-name="ncommaaccent" unicode="&#x146;" horiz-adv-x="1157" 
d="M485 -470h-58l84 327h85zM197 0l181 1035h81l-32 -179h6q39 86 125 141t200 55q145 0 236.5 -89.5t91.5 -229.5q0 -57 -11 -116l-108 -617h-82l109 619q9 45 9 99q0 114 -72.5 187.5t-190.5 73.5q-139 0 -231 -94.5t-115 -226.5l-115 -658h-82z" />
    <glyph glyph-name="Ncaron" unicode="&#x147;" horiz-adv-x="1401" 
d="M1313 1690l-309 -209h-71l-215 209h92l162 -159h5l233 159h103zM1187 0h-76l-595 1218h-5l-214 -1218h-83l240 1360h80l590 -1218h5l215 1218h82z" />
    <glyph glyph-name="ncaron" unicode="&#x148;" horiz-adv-x="1157" 
d="M753 1203l-193 278h81l157 -221h11l229 221h85l-284 -278h-86zM197 0l181 1035h81l-32 -179h6q39 86 125 141t200 55q145 0 236.5 -89.5t91.5 -229.5q0 -57 -11 -116l-108 -617h-82l109 619q9 45 9 99q0 114 -72.5 187.5t-190.5 73.5q-139 0 -231 -94.5t-115 -226.5
l-115 -658h-82z" />
    <glyph glyph-name="Omacron" unicode="&#x14c;" horiz-adv-x="1356" 
d="M388 863l-45 -253q-13 -76 -13 -138q0 -190 115.5 -308t303.5 -118q183 0 305.5 122.5t158.5 334.5l44 256q11 62 11 132q0 187 -115.5 305t-300.5 118q-180 0 -303 -119t-161 -332zM262 625l44 242q43 243 187 383.5t361 140.5q139 0 251 -57t179.5 -171.5t67.5 -269.5
q0 -78 -14 -156l-44 -243q-44 -248 -187 -386.5t-365 -138.5q-137 0 -248 57t-178.5 170t-67.5 263q0 85 14 166zM1243 1579l-11 -58h-587l10 58h588z" />
    <glyph glyph-name="omacron" unicode="&#x14d;" horiz-adv-x="1124" 
d="M1083 1303l-11 -59h-588l11 59h588zM331 625l-24 -129q-10 -55 -10 -111q0 -145 86.5 -236.5t229.5 -91.5q140 0 236.5 94t125.5 263l23 131q9 49 9 112q0 141 -86 231t-229 90q-133 0 -230.5 -86.5t-130.5 -266.5zM226 498l26 146q36 203 156 305.5t285 102.5
q81 0 151 -24t125.5 -71.5t87 -125.5t31.5 -178q0 -57 -9 -114l-26 -147q-34 -199 -153 -304t-293 -105q-173 0 -282 106t-109 290q0 54 10 119z" />
    <glyph glyph-name="Obreve" unicode="&#x14e;" horiz-adv-x="1356" 
d="M388 863l-45 -253q-13 -76 -13 -138q0 -190 115.5 -308t303.5 -118q183 0 305.5 122.5t158.5 334.5l44 256q11 62 11 132q0 187 -115.5 305t-300.5 118q-180 0 -303 -119t-161 -332zM262 625l44 242q43 243 187 383.5t361 140.5q139 0 251 -57t179.5 -171.5t67.5 -269.5
q0 -78 -14 -156l-44 -243q-44 -248 -187 -386.5t-365 -138.5q-137 0 -248 57t-178.5 170t-67.5 263q0 85 14 166zM697 1714h68q-11 -77 38.5 -121.5t142.5 -44.5q95 0 154 44.5t72 121.5h69q-14 -103 -90.5 -166t-214.5 -63q-131 0 -193.5 66.5t-45.5 162.5z" />
    <glyph glyph-name="obreve" unicode="&#x14f;" horiz-adv-x="1124" 
d="M544 1444h66q-3 -80 48.5 -131t136.5 -51q95 0 150.5 51t65.5 131h67q-12 -104 -85 -174t-200 -70q-112 0 -183 69.5t-66 174.5zM331 625l-24 -129q-10 -55 -10 -111q0 -145 86.5 -236.5t229.5 -91.5q140 0 236.5 94t125.5 263l23 131q9 49 9 112q0 141 -86 231t-229 90
q-133 0 -230.5 -86.5t-130.5 -266.5zM226 498l26 146q36 203 156 305.5t285 102.5q81 0 151 -24t125.5 -71.5t87 -125.5t31.5 -178q0 -57 -9 -114l-26 -147q-34 -199 -153 -304t-293 -105q-173 0 -282 106t-109 290q0 54 10 119z" />
    <glyph glyph-name="Ohungarumlaut" unicode="&#x150;" horiz-adv-x="1356" 
d="M720 1509l356 248h105l-372 -248h-89zM1009 1509l355 248h105l-372 -248h-88zM388 863l-45 -253q-13 -76 -13 -138q0 -190 115.5 -308t303.5 -118q183 0 305.5 122.5t158.5 334.5l44 256q11 62 11 132q0 187 -115.5 305t-300.5 118q-180 0 -303 -119t-161 -332zM262 625
l44 242q43 243 187 383.5t361 140.5q139 0 251 -57t179.5 -171.5t67.5 -269.5q0 -78 -14 -156l-44 -243q-44 -248 -187 -386.5t-365 -138.5q-137 0 -248 57t-178.5 170t-67.5 263q0 85 14 166z" />
    <glyph glyph-name="ohungarumlaut" unicode="&#x151;" horiz-adv-x="1124" 
d="M669 1231h-65l247 301h93zM908 1231h-65l247 301h92zM331 625l-24 -129q-10 -55 -10 -111q0 -145 86.5 -236.5t229.5 -91.5q140 0 236.5 94t125.5 263l23 131q9 49 9 112q0 141 -86 231t-229 90q-133 0 -230.5 -86.5t-130.5 -266.5zM226 498l26 146q36 203 156 305.5
t285 102.5q81 0 151 -24t125.5 -71.5t87 -125.5t31.5 -178q0 -57 -9 -114l-26 -147q-34 -199 -153 -304t-293 -105q-173 0 -282 106t-109 290q0 54 10 119z" />
    <glyph glyph-name="OE" unicode="&#x152;" horiz-adv-x="2024" 
d="M262 625l44 242q43 243 187 383.5t362 140.5q164 0 288 -83.5t169 -234.5h3l50 287h772l-13 -76h-690l-97 -550h656l-13 -75h-656l-103 -584h691l-12 -75h-775l34 187h-3q-146 -218 -418 -218q-136 0 -246 56.5t-176.5 170t-66.5 267.5q0 87 13 162zM388 863l-45 -253
q-12 -70 -12 -137q0 -192 115 -309.5t301 -117.5q182 0 305 115.5t157 313.5l49 284q11 62 11 127q0 188 -115.5 308t-301.5 120q-180 0 -303 -120.5t-161 -330.5z" />
    <glyph glyph-name="oe" unicode="&#x153;" horiz-adv-x="1836" 
d="M1366 -17q-141 0 -236.5 67.5t-127.5 195.5q-54 -129 -158 -196t-238 -67q-172 0 -281 106.5t-109 291.5q0 52 10 117l26 146q35 203 155.5 305.5t285.5 102.5q86 0 159 -26.5t131.5 -88.5t81.5 -154q52 126 147 197.5t234 71.5q172 0 268.5 -108t90.5 -290
q0 -50 -19 -143h-713l-4 -27q-8 -57 -8 -105q0 -147 78 -234.5t228 -87.5q121 0 200.5 53.5t93.5 123.5h79q-7 -44 -34 -87t-72.5 -80.5t-115.5 -60.5t-152 -23zM330 625l-23 -129q-10 -55 -10 -109q0 -147 86 -238.5t228 -91.5t238 93.5t126 263.5l23 131q9 54 9 109
q0 144 -86 234t-229 90q-134 0 -231 -86.5t-131 -266.5zM1719 579q9 40 9 80q5 143 -68.5 232.5t-214.5 89.5q-139 0 -225.5 -90.5t-121.5 -249.5q-3 -14 -12 -62h633z" />
    <glyph glyph-name="Racute" unicode="&#x154;" horiz-adv-x="1223" 
d="M723 1509l310 236h113l-326 -236h-97zM297 0h-83l240 1360h436q176 0 268 -92t92 -241q0 -53 -8 -94q-28 -137 -123 -218t-238 -107l211 -608h-90l-203 597q-42 -3 -80 -3h-318zM872 1287h-349l-110 -620h331q167 0 278.5 73t135.5 207q7 42 7 79q0 114 -72.5 187.5
t-220.5 73.5z" />
    <glyph glyph-name="racute" unicode="&#x155;" horiz-adv-x="750" 
d="M631 1231h-72l258 315h96zM198 0l180 1035h80l-32 -182h6q36 88 107.5 143.5t180.5 55.5q65 0 119 -19l-19 -77q-40 20 -109 20q-131 0 -213.5 -95t-106.5 -242l-111 -639h-82z" />
    <glyph glyph-name="Rcommaaccent" unicode="&#x156;" horiz-adv-x="1223" 
d="M297 0h-83l240 1360h436q176 0 268 -92t92 -241q0 -53 -8 -94q-28 -137 -123 -218t-238 -107l211 -608h-90l-203 597q-42 -3 -80 -3h-318zM872 1287h-349l-110 -620h331q167 0 278.5 73t135.5 207q7 42 7 79q0 114 -72.5 187.5t-220.5 73.5zM479 -470h-58l84 327h85z" />
    <glyph glyph-name="rcommaaccent" unicode="&#x157;" horiz-adv-x="750" 
d="M198 0l180 1035h80l-32 -182h6q36 88 107.5 143.5t180.5 55.5q65 0 119 -19l-19 -77q-40 20 -109 20q-131 0 -213.5 -95t-106.5 -242l-111 -639h-82zM145 -470h-58l84 327h85z" />
    <glyph glyph-name="Rcaron" unicode="&#x158;" horiz-adv-x="1223" 
d="M297 0h-83l240 1360h436q176 0 268 -92t92 -241q0 -53 -8 -94q-28 -137 -123 -218t-238 -107l211 -608h-90l-203 597q-42 -3 -80 -3h-318zM872 1287h-349l-110 -620h331q167 0 278.5 73t135.5 207q7 42 7 79q0 114 -72.5 187.5t-220.5 73.5zM1179 1690l-309 -209h-71
l-215 209h92l162 -159h5l233 159h103z" />
    <glyph glyph-name="rcaron" unicode="&#x159;" horiz-adv-x="750" 
d="M600 1203l-193 278h81l157 -221h11l229 221h85l-284 -278h-86zM198 0l180 1035h80l-32 -182h6q36 88 107.5 143.5t180.5 55.5q65 0 119 -19l-19 -77q-40 20 -109 20q-131 0 -213.5 -95t-106.5 -242l-111 -639h-82z" />
    <glyph glyph-name="Sacute" unicode="&#x15a;" horiz-adv-x="1198" 
d="M743 1509l310 236h113l-326 -236h-97zM199 381h82q-3 -12 -3 -42q0 -127 105 -211t278 -84q162 0 269 82.5t107 222.5q0 48 -15.5 88t-39 67t-64.5 53t-77.5 42t-93.5 38l-117 45q-138 53 -213 136t-75 211q0 165 124 263t322 98q188 0 308 -94.5t120 -236.5
q0 -29 -4 -43h-80q2 12 2 30q0 110 -95 189.5t-253 79.5q-99 0 -178.5 -31t-129 -96t-49.5 -155q0 -103 62 -167t181 -111l123 -47q63 -24 105.5 -44.5t89 -51t73.5 -64.5t45 -83t18 -108q0 -175 -129 -281.5t-338 -106.5q-214 0 -339.5 104.5t-125.5 259.5q0 30 5 48z" />
    <glyph glyph-name="sacute" unicode="&#x15b;" horiz-adv-x="980" 
d="M284 770q0 132 96.5 207.5t249.5 75.5q146 0 247 -73.5t101 -199.5q0 -22 -2 -28h-79q1 7 1 24q0 92 -77 149t-190 57q-112 0 -188 -54.5t-76 -150.5q0 -37 14 -68t34 -51.5t56 -40t66.5 -31t78.5 -27.5q74 -24 119.5 -44t89 -52.5t63.5 -77.5t20 -107
q0 -96 -53.5 -164.5t-136.5 -99.5t-185 -31q-158 0 -268.5 77.5t-110.5 204.5q0 11 3 32h80q-2 -18 -1 -29q3 -99 92 -155.5t208 -56.5q77 0 140.5 22.5t106 72.5t42.5 121q0 28 -7.5 52.5t-17.5 42t-30.5 34t-37 26.5t-47 22.5t-49.5 19t-55 18.5q-54 18 -86.5 30.5
t-77.5 37.5t-70.5 52t-44 69t-18.5 94zM694 1231h-72l258 315h96z" />
    <glyph glyph-name="Scircumflex" unicode="&#x15c;" horiz-adv-x="1198" 
d="M199 381h82q-3 -12 -3 -42q0 -127 105 -211t278 -84q162 0 269 82.5t107 222.5q0 48 -15.5 88t-39 67t-64.5 53t-77.5 42t-93.5 38l-117 45q-138 53 -213 136t-75 211q0 165 124 263t322 98q188 0 308 -94.5t120 -236.5q0 -29 -4 -43h-80q2 12 2 30q0 110 -95 189.5
t-253 79.5q-99 0 -178.5 -31t-129 -96t-49.5 -155q0 -103 62 -167t181 -111l123 -47q63 -24 105.5 -44.5t89 -51t73.5 -64.5t45 -83t18 -108q0 -175 -129 -281.5t-338 -106.5q-214 0 -339.5 104.5t-125.5 259.5q0 30 5 48zM547 1495l309 211h72l209 -211h-86l-163 157h-6
l-236 -157h-99z" />
    <glyph glyph-name="scircumflex" unicode="&#x15d;" horiz-adv-x="980" 
d="M423 1229l288 278h86l188 -278h-84l-148 222h-11l-230 -222h-89zM284 770q0 132 96.5 207.5t249.5 75.5q146 0 247 -73.5t101 -199.5q0 -22 -2 -28h-79q1 7 1 24q0 92 -77 149t-190 57q-112 0 -188 -54.5t-76 -150.5q0 -37 14 -68t34 -51.5t56 -40t66.5 -31t78.5 -27.5
q74 -24 119.5 -44t89 -52.5t63.5 -77.5t20 -107q0 -96 -53.5 -164.5t-136.5 -99.5t-185 -31q-158 0 -268.5 77.5t-110.5 204.5q0 11 3 32h80q-2 -18 -1 -29q3 -99 92 -155.5t208 -56.5q77 0 140.5 22.5t106 72.5t42.5 121q0 28 -7.5 52.5t-17.5 42t-30.5 34t-37 26.5
t-47 22.5t-49.5 19t-55 18.5q-54 18 -86.5 30.5t-77.5 37.5t-70.5 52t-44 69t-18.5 94z" />
    <glyph glyph-name="Scedilla" unicode="&#x15e;" horiz-adv-x="1198" 
d="M579 -460q-81 0 -150 28l10 62q65 -26 142 -26q56 0 99 26.5t43 82.5q0 82 -135 95l-50 3l10 48l33 114q-180 19 -283.5 119.5t-103.5 240.5q0 30 5 48h82q-3 -12 -3 -42q0 -127 105 -211t278 -84q162 0 269 82.5t107 222.5q0 48 -15.5 88t-39 67t-64.5 53t-77.5 42
t-93.5 38l-117 45q-138 53 -213 136t-75 211q0 165 124 263t322 98q188 0 308 -94.5t120 -236.5q0 -29 -4 -43h-80q2 12 2 30q0 110 -95 189.5t-253 79.5q-99 0 -178.5 -31t-129 -96t-49.5 -155q0 -103 62 -167t181 -111l123 -47q63 -24 105.5 -44.5t89 -51t73.5 -64.5
t45 -83t18 -108q0 -173 -126.5 -279.5t-332.5 -108.5h-18l-29 -107q78 -4 130 -39.5t52 -106.5q0 -82 -66 -129t-157 -47z" />
    <glyph glyph-name="scedilla" unicode="&#x15f;" horiz-adv-x="980" 
d="M462 -460q-81 0 -150 28l10 62q65 -26 142 -26q56 0 99 26.5t43 82.5q0 82 -135 95l-50 3l11 48l37 128q-136 16 -225.5 90t-89.5 188q0 11 3 32h80q-2 -18 -1 -29q3 -99 92 -155.5t208 -56.5q77 0 140.5 22.5t106 72.5t42.5 121q0 28 -7.5 52.5t-17.5 42t-30.5 34
t-37 26.5t-47 22.5t-49.5 19t-55 18.5q-54 18 -86.5 30.5t-77.5 37.5t-70.5 52t-44 69t-18.5 94q0 132 96.5 207.5t249.5 75.5q146 0 247 -73.5t101 -199.5q0 -22 -2 -28h-79q1 7 1 24q0 92 -77 149t-190 57q-112 0 -188 -54.5t-76 -150.5q0 -37 14 -68t34 -51.5t56 -40
t66.5 -31t78.5 -27.5q74 -24 119.5 -44t89 -52.5t63.5 -77.5t20 -107q0 -96 -53 -164t-135 -99t-184 -32l-33 -121q78 -4 130 -39.5t52 -106.5q0 -82 -66 -129t-157 -47z" />
    <glyph glyph-name="Scaron" unicode="&#x160;" horiz-adv-x="1198" 
d="M199 381h82q-3 -12 -3 -42q0 -127 105 -211t278 -84q162 0 269 82.5t107 222.5q0 48 -15.5 88t-39 67t-64.5 53t-77.5 42t-93.5 38l-117 45q-138 53 -213 136t-75 211q0 165 124 263t322 98q188 0 308 -94.5t120 -236.5q0 -29 -4 -43h-80q2 12 2 30q0 110 -95 189.5
t-253 79.5q-99 0 -178.5 -31t-129 -96t-49.5 -155q0 -103 62 -167t181 -111l123 -47q63 -24 105.5 -44.5t89 -51t73.5 -64.5t45 -83t18 -108q0 -175 -129 -281.5t-338 -106.5q-214 0 -339.5 104.5t-125.5 259.5q0 30 5 48zM1199 1690l-309 -209h-71l-215 209h92l162 -159h5
l233 159h103z" />
    <glyph glyph-name="scaron" unicode="&#x161;" horiz-adv-x="980" 
d="M663 1203l-193 278h81l157 -221h11l229 221h85l-284 -278h-86zM284 770q0 132 96.5 207.5t249.5 75.5q146 0 247 -73.5t101 -199.5q0 -22 -2 -28h-79q1 7 1 24q0 92 -77 149t-190 57q-112 0 -188 -54.5t-76 -150.5q0 -37 14 -68t34 -51.5t56 -40t66.5 -31t78.5 -27.5
q74 -24 119.5 -44t89 -52.5t63.5 -77.5t20 -107q0 -96 -53.5 -164.5t-136.5 -99.5t-185 -31q-158 0 -268.5 77.5t-110.5 204.5q0 11 3 32h80q-2 -18 -1 -29q3 -99 92 -155.5t208 -56.5q77 0 140.5 22.5t106 72.5t42.5 121q0 28 -7.5 52.5t-17.5 42t-30.5 34t-37 26.5
t-47 22.5t-49.5 19t-55 18.5q-54 18 -86.5 30.5t-77.5 37.5t-70.5 52t-44 69t-18.5 94z" />
    <glyph glyph-name="Tcedilla" unicode="&#x162;" horiz-adv-x="1109" 
d="M529 0h-15l227 1285h-460l13 75h1000l-12 -75h-459l-226 -1285l-38 -138q78 -4 130 -39.5t52 -106.5q0 -82 -66 -129t-157 -47q-81 0 -150 28l10 62q65 -26 142 -26q56 0 99 26.5t43 82.5q0 82 -135 95l-50 3l11 48z" />
    <glyph glyph-name="tcedilla" unicode="&#x163;" horiz-adv-x="724" 
d="M404 -455q-81 0 -149 28l10 62q63 -26 141 -26q56 0 99 26.5t43 81.5q0 84 -135 95l-50 4l11 48l42 146q-72 15 -103.5 55t-31.5 108q0 40 10 93l123 696h-206l12 69h206l50 281h80l-49 -281h275l-11 -69h-276l-122 -691q-9 -54 -9 -82q0 -62 35.5 -90.5t119.5 -28.5
q79 0 127 8l-13 -70q-53 -8 -126 -8h-26l-35 -133q78 -4 129.5 -39.5t51.5 -106.5q0 -82 -65.5 -129t-157.5 -47z" />
    <glyph glyph-name="Tcaron" unicode="&#x164;" horiz-adv-x="1109" 
d="M1163 1690l-309 -209h-71l-215 209h92l162 -159h5l233 159h103zM597 0h-83l227 1285h-460l13 75h1000l-12 -75h-459z" />
    <glyph glyph-name="tcaron" unicode="&#x165;" horiz-adv-x="724" 
d="M776 1675h88l-114 -468h-61zM426 1031l50 281h80l-49 -281h275l-11 -69h-276l-122 -691q-9 -54 -9 -82q0 -62 35.5 -90.5t119.5 -28.5q79 0 127 8l-13 -70q-53 -8 -126 -8q-122 0 -174 43.5t-52 129.5q0 40 10 93l123 696h-206l12 69h206z" />
    <glyph glyph-name="Tbar" unicode="&#x166;" horiz-adv-x="1109" 
d="M980 691h-261l-122 -691h-83l122 691h-271l11 68h272l93 526h-460l13 75h1000l-12 -75h-459l-92 -526h260z" />
    <glyph glyph-name="tbar" unicode="&#x167;" horiz-adv-x="724" 
d="M633 8q-53 -8 -126 -8q-122 0 -174 43.5t-52 129.5q0 40 10 93l54 306h-151l11 68h152l57 322h-206l12 69h206l50 281h80l-49 -281h275l-11 -69h-276l-57 -322h198l-11 -68h-198l-54 -301q-9 -54 -9 -82q0 -62 35.5 -90.5t119.5 -28.5q79 0 127 8z" />
    <glyph glyph-name="Utilde" unicode="&#x168;" horiz-adv-x="1347" 
d="M502 1360l-147 -835q-8 -50 -8 -104q0 -177 105 -275.5t281 -98.5q169 0 281 102.5t144 283.5l163 927h85l-165 -934q-38 -221 -174.5 -339.5t-340.5 -118.5q-210 0 -336.5 117t-126.5 326q0 62 11 123l145 826h83zM922 1560q-23 28 -33.5 39.5t-31 24.5t-40.5 13
q-91 0 -91 -134h-65q0 90 40.5 141t116.5 51q44 0 78 -20.5t72 -67.5q27 -35 49.5 -50.5t53.5 -15.5q43 0 71 40.5t29 102.5h65q0 -84 -46.5 -141t-116.5 -57q-53 0 -84.5 17t-66.5 57z" />
    <glyph glyph-name="utilde" unicode="&#x169;" horiz-adv-x="1145" 
d="M1131 1035l-181 -1035h-79l32 180h-7q-34 -85 -121 -141t-199 -56q-145 0 -240 86t-95 225q0 65 11 120l110 621h81l-110 -624q-8 -50 -8 -100q0 -114 73 -183.5t196 -69.5q137 0 228 94t114 226l115 657h80zM916 1185q-53 0 -90.5 25t-71.5 74q-24 34 -35 48t-36 31.5
t-51 17.5q-44 0 -70.5 -34t-39.5 -106h-72q11 103 58.5 156.5t127.5 53.5q39 0 74 -20.5t52.5 -41.5t44.5 -58q54 -77 114 -77q45 0 78 38.5t46 107.5h71q-9 -93 -65 -154t-135 -61z" />
    <glyph glyph-name="Umacron" unicode="&#x16a;" horiz-adv-x="1347" 
d="M502 1360l-147 -835q-8 -50 -8 -104q0 -177 105 -275.5t281 -98.5q169 0 281 102.5t144 283.5l163 927h85l-165 -934q-38 -221 -174.5 -339.5t-340.5 -118.5q-210 0 -336.5 117t-126.5 326q0 62 11 123l145 826h83zM1252 1579l-11 -58h-587l10 58h588z" />
    <glyph glyph-name="umacron" unicode="&#x16b;" horiz-adv-x="1145" 
d="M1131 1035l-181 -1035h-79l32 180h-7q-34 -85 -121 -141t-199 -56q-145 0 -240 86t-95 225q0 65 11 120l110 621h81l-110 -624q-8 -50 -8 -100q0 -114 73 -183.5t196 -69.5q137 0 228 94t114 226l115 657h80zM1083 1303l-11 -59h-588l11 59h588z" />
    <glyph glyph-name="Ubreve" unicode="&#x16c;" horiz-adv-x="1347" 
d="M502 1360l-147 -835q-8 -50 -8 -104q0 -177 105 -275.5t281 -98.5q169 0 281 102.5t144 283.5l163 927h85l-165 -934q-38 -221 -174.5 -339.5t-340.5 -118.5q-210 0 -336.5 117t-126.5 326q0 62 11 123l145 826h83zM706 1714h68q-11 -77 38.5 -121.5t142.5 -44.5
q95 0 154 44.5t72 121.5h69q-14 -103 -90.5 -166t-214.5 -63q-131 0 -193.5 66.5t-45.5 162.5z" />
    <glyph glyph-name="ubreve" unicode="&#x16d;" horiz-adv-x="1145" 
d="M1131 1035l-181 -1035h-79l32 180h-7q-34 -85 -121 -141t-199 -56q-145 0 -240 86t-95 225q0 65 11 120l110 621h81l-110 -624q-8 -50 -8 -100q0 -114 73 -183.5t196 -69.5q137 0 228 94t114 226l115 657h80zM544 1444h66q-3 -80 48.5 -131t136.5 -51q95 0 150.5 51
t65.5 131h67q-12 -104 -85 -174t-200 -70q-112 0 -183 69.5t-66 174.5z" />
    <glyph glyph-name="Uring" unicode="&#x16e;" horiz-adv-x="1347" 
d="M502 1360l-147 -835q-8 -50 -8 -104q0 -177 105 -275.5t281 -98.5q169 0 281 102.5t144 283.5l163 927h85l-165 -934q-38 -221 -174.5 -339.5t-340.5 -118.5q-210 0 -336.5 117t-126.5 326q0 62 11 123l145 826h83zM976 1570q49 0 84 35t35 83q0 50 -34.5 84.5
t-84.5 34.5q-47 0 -82 -35t-35 -84q0 -48 35 -83t82 -35zM977 1517q-73 0 -123 50.5t-50 122.5t50 121.5t123 49.5q71 0 121 -49.5t50 -121.5t-50 -122.5t-121 -50.5z" />
    <glyph glyph-name="uring" unicode="&#x16f;" horiz-adv-x="1145" 
d="M1131 1035l-181 -1035h-79l32 180h-7q-34 -85 -121 -141t-199 -56q-145 0 -240 86t-95 225q0 65 11 120l110 621h81l-110 -624q-8 -50 -8 -100q0 -114 73 -183.5t196 -69.5q137 0 228 94t114 226l115 657h80zM803 1245q49 0 84 35t35 83q0 49 -35 84t-84 35
q-47 0 -82 -35t-35 -84q0 -48 35 -83t82 -35zM804 1192q-73 0 -123 50.5t-50 122.5t50 121.5t123 49.5q71 0 121 -49.5t50 -121.5t-50 -122.5t-121 -50.5z" />
    <glyph glyph-name="Uhungarumlaut" unicode="&#x170;" horiz-adv-x="1347" 
d="M502 1360l-147 -835q-8 -50 -8 -104q0 -177 105 -275.5t281 -98.5q169 0 281 102.5t144 283.5l163 927h85l-165 -934q-38 -221 -174.5 -339.5t-340.5 -118.5q-210 0 -336.5 117t-126.5 326q0 62 11 123l145 826h83zM729 1509l356 248h105l-372 -248h-89zM1018 1509
l355 248h105l-372 -248h-88z" />
    <glyph glyph-name="uhungarumlaut" unicode="&#x171;" horiz-adv-x="1145" 
d="M669 1231h-65l247 301h93zM908 1231h-65l247 301h92zM1131 1035l-181 -1035h-79l32 180h-7q-34 -85 -121 -141t-199 -56q-145 0 -240 86t-95 225q0 65 11 120l110 621h81l-110 -624q-8 -50 -8 -100q0 -114 73 -183.5t196 -69.5q137 0 228 94t114 226l115 657h80z" />
    <glyph glyph-name="Uogonek" unicode="&#x172;" horiz-adv-x="1347" 
d="M1019 51q-36 -28 -57 -46t-62 -57t-66 -78t-31 -75q-10 -55 20.5 -85.5t88.5 -30.5q45 0 87 14l-11 -62q-44 -20 -107 -20q-78 0 -124.5 44.5t-31.5 128.5q9 55 46.5 109.5t96.5 97.5l-1 2q-69 -25 -153 -25q-202 0 -326.5 117.5t-124.5 325.5q0 62 11 123l145 826h83
l-147 -835q-8 -50 -8 -104q0 -177 105 -275.5t281 -98.5q169 0 281 102.5t144 283.5l163 927h85l-165 -934q-43 -248 -222 -375z" />
    <glyph glyph-name="uogonek" unicode="&#x173;" horiz-adv-x="1145" 
d="M935 -355l-9 -60q-46 -21 -112 -21q-69 0 -112.5 38.5t-42.5 106.5q1 37 14.5 73.5t30 63t51 62t55 53.5t63.5 54l30 165h-7q-34 -85 -121 -141t-199 -56q-145 0 -240 86t-95 225q0 65 11 120l110 621h81l-110 -624q-8 -50 -8 -100q0 -114 73 -183.5t196 -69.5
q137 0 228 94t114 226l115 657h80l-181 -1035q-211 -150 -213 -272q-1 -45 28.5 -70.5t81.5 -25.5q46 0 88 13z" />
    <glyph glyph-name="Wcircumflex" unicode="&#x174;" horiz-adv-x="1755" 
d="M830 1495l309 211h72l209 -211h-86l-163 157h-6l-236 -157h-99zM533 0h-94l-126 1360h89l102 -1243h5l557 1243h93l127 -1243h5l539 1243h90l-600 -1360h-93l-132 1232h-6z" />
    <glyph glyph-name="wcircumflex" unicode="&#x175;" horiz-adv-x="1386" 
d="M609 1229l288 278h86l188 -278h-84l-148 222h-11l-230 -222h-89zM1485 1035l-468 -1035h-86l-90 912h-5l-409 -912h-89l-103 1035h81l80 -930h6l416 930h78l91 -930h6l407 930h85z" />
    <glyph glyph-name="Ycircumflex" unicode="&#x176;" horiz-adv-x="1113" 
d="M705 606l-104 -606h-81l105 605l-343 755h92l296 -673h7l529 673h102zM513 1495l309 211h72l209 -211h-86l-163 157h-6l-236 -157h-99z" />
    <glyph glyph-name="ycircumflex" unicode="&#x177;" horiz-adv-x="1004" 
d="M1101 1035l-577 -1045l-52 -99q-63 -119 -130 -168t-182 -49q-47 0 -89 10l15 72q40 -10 87 -10q79 0 128.5 40.5t91.5 120.5l50 98l-196 1030h86l166 -935h6l508 935h88zM416 1229l288 278h86l188 -278h-84l-148 222h-11l-230 -222h-89z" />
    <glyph glyph-name="Ydieresis" unicode="&#x178;" horiz-adv-x="1113" 
d="M705 606l-104 -606h-81l105 605l-343 755h92l296 -673h7l529 673h102zM598 1572q0 27 19 45.5t46 18.5q26 0 45 -18.5t19 -45.5q0 -26 -19 -44.5t-45 -18.5q-27 0 -46 18.5t-19 44.5zM937 1572q0 27 19 45.5t45 18.5q27 0 46 -18.5t19 -45.5q0 -26 -19 -44.5t-46 -18.5
q-26 0 -45 18.5t-19 44.5z" />
    <glyph glyph-name="Zacute" unicode="&#x179;" horiz-adv-x="1178" 
d="M753 1509l310 236h113l-326 -236h-97zM129 0l12 66l1033 1215l1 6h-812l14 73h920l-12 -68l-1035 -1213l-1 -7h838l-11 -72h-947z" />
    <glyph glyph-name="zacute" unicode="&#x17a;" horiz-adv-x="908" 
d="M660 1231h-72l258 315h96zM96 0l12 73l779 886v7h-631l10 69h740l-17 -72l-775 -886v-7h632l-10 -70h-740z" />
    <glyph glyph-name="Zdotaccent" unicode="&#x17b;" horiz-adv-x="1178" 
d="M129 0l12 66l1033 1215l1 6h-812l14 73h920l-12 -68l-1035 -1213l-1 -7h838l-11 -72h-947zM813 1611q0 32 20.5 53t50.5 21q32 0 53.5 -21t21.5 -53q0 -31 -21.5 -51.5t-53.5 -20.5q-30 0 -50.5 20.5t-20.5 51.5z" />
    <glyph glyph-name="zdotaccent" unicode="&#x17c;" horiz-adv-x="908" 
d="M611 1286q0 32 20.5 53t50.5 21q32 0 53.5 -21t21.5 -53q0 -31 -21.5 -51.5t-53.5 -20.5q-30 0 -50.5 21t-20.5 51zM96 0l12 73l779 886v7h-631l10 69h740l-17 -72l-775 -886v-7h632l-10 -70h-740z" />
    <glyph glyph-name="Zcaron" unicode="&#x17d;" horiz-adv-x="1178" 
d="M129 0l12 66l1033 1215l1 6h-812l14 73h920l-12 -68l-1035 -1213l-1 -7h838l-11 -72h-947zM1209 1690l-309 -209h-71l-215 209h92l162 -159h5l233 159h103z" />
    <glyph glyph-name="zcaron" unicode="&#x17e;" horiz-adv-x="908" 
d="M629 1203l-193 278h81l157 -221h11l229 221h85l-284 -278h-86zM96 0l12 73l779 886v7h-631l10 69h740l-17 -72l-775 -886v-7h632l-10 -70h-740z" />
    <glyph glyph-name="florin" unicode="&#x192;" horiz-adv-x="1091" 
d="M208 -186l324 1024h-256l19 72h256l65 199q43 137 118.5 209t198.5 72q114 0 180.5 -69.5t64.5 -155.5h-79q1 63 -47 107.5t-123 44.5q-89 0 -144 -56.5t-92 -168.5l-59 -182h333l-21 -72h-332l-324 -1024h-82z" />
    <glyph glyph-name="Ohorn" unicode="&#x1a0;" horiz-adv-x="1430" 
d="M388 863l-46 -253q-12 -70 -12 -138q0 -190 115.5 -308t302.5 -118q184 0 306 122.5t158 334.5l44 256q11 62 11 132q0 187 -115.5 305t-300.5 118q-175 0 -300.5 -120t-162.5 -331zM1294 494q-44 -248 -187 -386.5t-365 -138.5q-137 0 -248 57t-179 170t-68 263
q0 79 15 166l43 242q43 245 191 384.5t370 139.5q105 0 217 -38q121 -35 180 -35q74 0 119.5 39.5t57.5 110.5l18 101h75l-17 -99q-22 -129 -106 -181t-200 -29l-3 -4q145 -135 145 -363q0 -80 -15 -156z" />
    <glyph glyph-name="ohorn" unicode="&#x1a1;" horiz-adv-x="1145" 
d="M607 -17q-173 0 -282 106t-109 290q0 54 10 119l26 146q35 202 154.5 305t283.5 103q40 0 118 -12.5t122 -12.5q66 0 117 41.5t63 110.5l22 118h76l-21 -113q-38 -209 -222 -220l-2 -5q125 -102 125 -306q0 -57 -9 -114l-26 -147q-34 -199 -153 -304t-293 -105zM331 625
l-24 -129q-10 -55 -10 -111q0 -145 86.5 -236.5t229.5 -91.5q140 0 236.5 94t125.5 263l23 131q9 49 9 112q0 141 -86 231t-229 90q-133 0 -230.5 -86.5t-130.5 -266.5z" />
    <glyph glyph-name="Uhorn" unicode="&#x1af;" horiz-adv-x="1411" 
d="M726 -32q-210 0 -336.5 117t-126.5 326q0 62 11 123l145 826h83l-147 -835q-8 -50 -8 -104q0 -177 105 -275.5t281 -98.5q169 0 281 102.5t144 283.5l163 927h82q75 0 124 40.5t61 111.5l18 103h76l-18 -101q-18 -104 -85 -162t-158 -58h-27l-153 -868
q-38 -221 -174.5 -339.5t-340.5 -118.5z" />
    <glyph glyph-name="uhorn" unicode="&#x1b0;" horiz-adv-x="1355" 
d="M896 180q-34 -85 -121 -141t-199 -56q-145 0 -240 86t-95 225q0 65 11 120l110 621h82l-111 -624q-8 -50 -8 -100q0 -114 73 -183.5t196 -69.5q137 0 228 94t114 226l116 657h82q75 0 123.5 40.5t61.5 111.5l20 110h75l-19 -108q-19 -110 -90 -166t-173 -56h-12
l-171 -967h-78l32 180h-7z" />
    <glyph glyph-name="Acaron" unicode="&#x1cd;" horiz-adv-x="1186" 
d="M71 0l730 1360h91l246 -1360h-85l-80 461h-567l-242 -461h-93zM834 1259h-6l-384 -728h516zM1214 1690l-309 -209h-71l-215 209h92l162 -159h5l233 159h103z" />
    <glyph glyph-name="acaron" unicode="&#x1ce;" horiz-adv-x="1064" 
d="M494 -17q-134 0 -223 75.5t-91 202.5q0 26 1 39q12 135 120 207.5t287 72.5h307l17 97q8 53 8 81q0 105 -71.5 163t-188.5 58q-115 0 -183 -46.5t-81 -106.5h-81q16 91 108 158.5t241 67.5q96 0 170 -29.5t120 -95.5t46 -161q0 -39 -12 -116l-114 -650h-81l26 149l-6 1
q-29 -58 -113 -112.5t-206 -54.5zM263 275q0 -104 70 -160.5t176 -56.5q126 0 221.5 75t118.5 199l33 179h-301q-146 0 -232 -62t-86 -174zM677 1203l-193 278h81l157 -221h11l229 221h85l-284 -278h-86z" />
    <glyph glyph-name="Icaron" unicode="&#x1cf;" horiz-adv-x="520" 
d="M301 0h-82l239 1360h83zM868 1690l-309 -209h-71l-215 209h92l162 -159h5l233 159h103z" />
    <glyph glyph-name="icaron" unicode="&#x1d0;" horiz-adv-x="518" 
d="M428 1203l-193 278h81l157 -221h11l229 221h85l-284 -278h-86zM215 0l183 1035h81l-182 -1035h-82z" />
    <glyph glyph-name="Ocaron" unicode="&#x1d1;" horiz-adv-x="1356" 
d="M1280 1690l-309 -209h-71l-215 209h92l162 -159h5l233 159h103zM388 863l-45 -253q-13 -76 -13 -138q0 -190 115.5 -308t303.5 -118q183 0 305.5 122.5t158.5 334.5l44 256q11 62 11 132q0 187 -115.5 305t-300.5 118q-180 0 -303 -119t-161 -332zM262 625l44 242
q43 243 187 383.5t361 140.5q139 0 251 -57t179.5 -171.5t67.5 -269.5q0 -78 -14 -156l-44 -243q-44 -248 -187 -386.5t-365 -138.5q-137 0 -248 57t-178.5 170t-67.5 263q0 85 14 166z" />
    <glyph glyph-name="ocaron" unicode="&#x1d2;" horiz-adv-x="1124" 
d="M738 1203l-193 278h81l157 -221h11l229 221h85l-284 -278h-86zM331 625l-24 -129q-10 -55 -10 -111q0 -145 86.5 -236.5t229.5 -91.5q140 0 236.5 94t125.5 263l23 131q9 49 9 112q0 141 -86 231t-229 90q-133 0 -230.5 -86.5t-130.5 -266.5zM226 498l26 146
q36 203 156 305.5t285 102.5q81 0 151 -24t125.5 -71.5t87 -125.5t31.5 -178q0 -57 -9 -114l-26 -147q-34 -199 -153 -304t-293 -105q-173 0 -282 106t-109 290q0 54 10 119z" />
    <glyph glyph-name="Ucaron" unicode="&#x1d3;" horiz-adv-x="1347" 
d="M1289 1690l-309 -209h-71l-215 209h92l162 -159h5l233 159h103zM502 1360l-147 -835q-8 -50 -8 -104q0 -177 105 -275.5t281 -98.5q169 0 281 102.5t144 283.5l163 927h85l-165 -934q-38 -221 -174.5 -339.5t-340.5 -118.5q-210 0 -336.5 117t-126.5 326q0 62 11 123
l145 826h83z" />
    <glyph glyph-name="ucaron" unicode="&#x1d4;" horiz-adv-x="1145" 
d="M738 1203l-193 278h81l157 -221h11l229 221h85l-284 -278h-86zM1131 1035l-181 -1035h-79l32 180h-7q-34 -85 -121 -141t-199 -56q-145 0 -240 86t-95 225q0 65 11 120l110 621h81l-110 -624q-8 -50 -8 -100q0 -114 73 -183.5t196 -69.5q137 0 228 94t114 226l115 657h80
z" />
    <glyph glyph-name="Udieresismacron" unicode="&#x1d5;" horiz-adv-x="1347" 
d="M722 1572q0 27 19 45.5t46 18.5q26 0 45 -18.5t19 -45.5q0 -26 -19 -44.5t-45 -18.5q-27 0 -46 18.5t-19 44.5zM1061 1572q0 27 19 45.5t45 18.5q27 0 46 -18.5t19 -45.5q0 -26 -19 -44.5t-46 -18.5q-26 0 -45 18.5t-19 44.5zM502 1360l-147 -835q-8 -50 -8 -104
q0 -177 105 -275.5t281 -98.5q169 0 281 102.5t144 283.5l163 927h85l-165 -934q-38 -221 -174.5 -339.5t-340.5 -118.5q-210 0 -336.5 117t-126.5 326q0 62 11 123l145 826h83zM1303 1865l-11 -58h-587l10 58h588z" />
    <glyph glyph-name="udieresismacron" unicode="&#x1d6;" horiz-adv-x="1145" 
d="M1131 1035l-181 -1035h-79l32 180h-7q-34 -85 -121 -141t-199 -56q-145 0 -240 86t-95 225q0 65 11 120l110 621h81l-110 -624q-8 -50 -8 -100q0 -114 73 -183.5t196 -69.5q137 0 228 94t114 226l115 657h80zM578 1314q0 29 21 49.5t50 20.5q31 0 52 -20.5t21 -49.5
q0 -30 -21 -51t-52 -21q-29 0 -50 21t-21 51zM873 1314q0 29 21 49.5t50 20.5q31 0 52.5 -20.5t21.5 -49.5q0 -30 -21.5 -51t-52.5 -21q-29 0 -50 21t-21 51zM1140 1630l-11 -59h-588l11 59h588z" />
    <glyph glyph-name="Udieresisacute" unicode="&#x1d7;" horiz-adv-x="1347" 
d="M867 1705l310 236h113l-326 -236h-97zM722 1572q0 27 19 45.5t46 18.5q26 0 45 -18.5t19 -45.5q0 -26 -19 -44.5t-45 -18.5q-27 0 -46 18.5t-19 44.5zM1061 1572q0 27 19 45.5t45 18.5q27 0 46 -18.5t19 -45.5q0 -26 -19 -44.5t-46 -18.5q-26 0 -45 18.5t-19 44.5z
M502 1360l-147 -835q-8 -50 -8 -104q0 -177 105 -275.5t281 -98.5q169 0 281 102.5t144 283.5l163 927h85l-165 -934q-38 -221 -174.5 -339.5t-340.5 -118.5q-210 0 -336.5 117t-126.5 326q0 62 11 123l145 826h83z" />
    <glyph glyph-name="udieresisacute" unicode="&#x1d8;" horiz-adv-x="1145" 
d="M811 1471h-72l258 315h96zM1131 1035l-181 -1035h-79l32 180h-7q-34 -85 -121 -141t-199 -56q-145 0 -240 86t-95 225q0 65 11 120l110 621h81l-110 -624q-8 -50 -8 -100q0 -114 73 -183.5t196 -69.5q137 0 228 94t114 226l115 657h80zM578 1314q0 29 21 49.5t50 20.5
q31 0 52 -20.5t21 -49.5q0 -30 -21 -51t-52 -21q-29 0 -50 21t-21 51zM873 1314q0 29 21 49.5t50 20.5q31 0 52.5 -20.5t21.5 -49.5q0 -30 -21.5 -51t-52.5 -21q-29 0 -50 21t-21 51z" />
    <glyph glyph-name="Udieresiscaron" unicode="&#x1d9;" horiz-adv-x="1347" 
d="M722 1572q0 27 19 45.5t46 18.5q26 0 45 -18.5t19 -45.5q0 -26 -19 -44.5t-45 -18.5q-27 0 -46 18.5t-19 44.5zM1061 1572q0 27 19 45.5t45 18.5q27 0 46 -18.5t19 -45.5q0 -26 -19 -44.5t-46 -18.5q-26 0 -45 18.5t-19 44.5zM1331 1931l-309 -209h-71l-215 209h92
l162 -159h5l233 159h103zM502 1360l-147 -835q-8 -50 -8 -104q0 -177 105 -275.5t281 -98.5q169 0 281 102.5t144 283.5l163 927h85l-165 -934q-38 -221 -174.5 -339.5t-340.5 -118.5q-210 0 -336.5 117t-126.5 326q0 62 11 123l145 826h83z" />
    <glyph glyph-name="udieresiscaron" unicode="&#x1da;" horiz-adv-x="1145" 
d="M780 1443l-193 278h81l157 -221h11l229 221h85l-284 -278h-86zM1131 1035l-181 -1035h-79l32 180h-7q-34 -85 -121 -141t-199 -56q-145 0 -240 86t-95 225q0 65 11 120l110 621h81l-110 -624q-8 -50 -8 -100q0 -114 73 -183.5t196 -69.5q137 0 228 94t114 226l115 657h80
zM578 1314q0 29 21 49.5t50 20.5q31 0 52 -20.5t21 -49.5q0 -30 -21 -51t-52 -21q-29 0 -50 21t-21 51zM873 1314q0 29 21 49.5t50 20.5q31 0 52.5 -20.5t21.5 -49.5q0 -30 -21.5 -51t-52.5 -21q-29 0 -50 21t-21 51z" />
    <glyph glyph-name="Udieresisgrave" unicode="&#x1db;" horiz-adv-x="1347" 
d="M1107 1705h-95l-298 236h110zM722 1572q0 27 19 45.5t46 18.5q26 0 45 -18.5t19 -45.5q0 -26 -19 -44.5t-45 -18.5q-27 0 -46 18.5t-19 44.5zM1061 1572q0 27 19 45.5t45 18.5q27 0 46 -18.5t19 -45.5q0 -26 -19 -44.5t-46 -18.5q-26 0 -45 18.5t-19 44.5zM502 1360
l-147 -835q-8 -50 -8 -104q0 -177 105 -275.5t281 -98.5q169 0 281 102.5t144 283.5l163 927h85l-165 -934q-38 -221 -174.5 -339.5t-340.5 -118.5q-210 0 -336.5 117t-126.5 326q0 62 11 123l145 826h83z" />
    <glyph glyph-name="udieresisgrave" unicode="&#x1dc;" horiz-adv-x="1145" 
d="M896 1471h-68l-196 315h94zM1131 1035l-181 -1035h-79l32 180h-7q-34 -85 -121 -141t-199 -56q-145 0 -240 86t-95 225q0 65 11 120l110 621h81l-110 -624q-8 -50 -8 -100q0 -114 73 -183.5t196 -69.5q137 0 228 94t114 226l115 657h80zM578 1314q0 29 21 49.5t50 20.5
q31 0 52 -20.5t21 -49.5q0 -30 -21 -51t-52 -21q-29 0 -50 21t-21 51zM873 1314q0 29 21 49.5t50 20.5q31 0 52.5 -20.5t21.5 -49.5q0 -30 -21.5 -51t-52.5 -21q-29 0 -50 21t-21 51z" />
    <glyph glyph-name="Adieresismacron" unicode="&#x1de;" horiz-adv-x="1186" 
d="M71 0l730 1360h91l246 -1360h-85l-80 461h-567l-242 -461h-93zM834 1259h-6l-384 -728h516zM647 1572q0 27 19 45.5t46 18.5q26 0 45 -18.5t19 -45.5q0 -26 -19 -44.5t-45 -18.5q-27 0 -46 18.5t-19 44.5zM986 1572q0 27 19 45.5t45 18.5q27 0 46 -18.5t19 -45.5
q0 -26 -19 -44.5t-46 -18.5q-26 0 -45 18.5t-19 44.5zM1228 1865l-11 -58h-587l10 58h588z" />
    <glyph glyph-name="adieresismacron" unicode="&#x1df;" horiz-adv-x="1064" 
d="M494 -17q-134 0 -223 75.5t-91 202.5q0 26 1 39q12 135 120 207.5t287 72.5h307l17 97q8 53 8 81q0 105 -71.5 163t-188.5 58q-115 0 -183 -46.5t-81 -106.5h-81q16 91 108 158.5t241 67.5q96 0 170 -29.5t120 -95.5t46 -161q0 -39 -12 -116l-114 -650h-81l26 149l-6 1
q-29 -58 -113 -112.5t-206 -54.5zM263 275q0 -104 70 -160.5t176 -56.5q126 0 221.5 75t118.5 199l33 179h-301q-146 0 -232 -62t-86 -174zM517 1314q0 29 21 49.5t50 20.5q31 0 52 -20.5t21 -49.5q0 -30 -21 -51t-52 -21q-29 0 -50 21t-21 51zM812 1314q0 29 21 49.5
t50 20.5q31 0 52.5 -20.5t21.5 -49.5q0 -30 -21.5 -51t-52.5 -21q-29 0 -50 21t-21 51zM1079 1630l-11 -59h-588l11 59h588z" />
    <glyph glyph-name="Adotmacron" unicode="&#x1e0;" horiz-adv-x="1186" 
d="M71 0l730 1360h91l246 -1360h-85l-80 461h-567l-242 -461h-93zM834 1259h-6l-384 -728h516zM818 1611q0 32 20.5 53t50.5 21q32 0 53.5 -21t21.5 -53q0 -31 -21.5 -51.5t-53.5 -20.5q-29 0 -50 20.5t-21 51.5zM1228 1865l-11 -58h-587l10 58h588z" />
    <glyph glyph-name="adotmacron" unicode="&#x1e1;" horiz-adv-x="1064" 
d="M494 -17q-134 0 -223 75.5t-91 202.5q0 26 1 39q12 135 120 207.5t287 72.5h307l17 97q8 53 8 81q0 105 -71.5 163t-188.5 58q-115 0 -183 -46.5t-81 -106.5h-81q16 91 108 158.5t241 67.5q96 0 170 -29.5t120 -95.5t46 -161q0 -39 -12 -116l-114 -650h-81l26 149l-6 1
q-29 -58 -113 -112.5t-206 -54.5zM263 275q0 -104 70 -160.5t176 -56.5q126 0 221.5 75t118.5 199l33 179h-301q-146 0 -232 -62t-86 -174zM659 1286q0 32 20.5 53t50.5 21q32 0 53.5 -21t21.5 -53q0 -31 -21.5 -51.5t-53.5 -20.5q-30 0 -50.5 21t-20.5 51zM1079 1630
l-11 -59h-588l11 59h588z" />
    <glyph glyph-name="AEmacron" unicode="&#x1e2;" horiz-adv-x="1864" 
d="M1139 1266l-563 -715h487l128 715h-52zM966 0l85 481h-527l-379 -481h-95l1065 1360h864l-13 -75h-691l-97 -549h657l-12 -75h-658l-104 -586h692l-12 -75h-775zM1931 1579l-11 -58h-587l10 58h588z" />
    <glyph glyph-name="aemacron" unicode="&#x1e3;" horiz-adv-x="1726" 
d="M1257 -17q-155 0 -250 81t-111 199h-3q-28 -114 -137 -197t-255 -83q-143 0 -232 76.5t-89 211.5q0 150 111 229.5t299 79.5h305l17 99q8 51 8 80q0 104 -71.5 162t-188.5 58q-115 0 -183 -46.5t-81 -106.5h-81q16 91 108 158.5t240 67.5q119 0 205.5 -50t113.5 -149h3
q120 199 351 199q172 0 268.5 -107.5t90.5 -290.5q0 -52 -20 -143h-712q-12 -77 -12 -133q0 -146 78 -233.5t228 -87.5q121 0 200.5 53.5t92.5 123.5h80q-7 -43 -34 -86t-72 -80.5t-115 -61t-152 -23.5zM263 274q0 -104 69.5 -160t176.5 -56q126 0 221.5 75t118.5 199
l33 179h-301q-146 0 -232 -62.5t-86 -174.5zM1608 579q10 37 10 80q5 142 -69 232t-215 90q-138 0 -225 -90.5t-122 -249.5q-9 -45 -12 -62h633zM1351 1303l-11 -59h-588l11 59h588z" />
    <glyph glyph-name="Gcaron" unicode="&#x1e6;" horiz-adv-x="1322" 
d="M1249 1690l-309 -209h-71l-215 209h92l162 -159h5l233 159h103zM308 865q43 240 185 383t362 143q118 0 211.5 -37t146.5 -95.5t80 -123t27 -127.5q0 -30 -5 -50h-79q3 20 3 46q-1 37 -13.5 77t-42.5 82t-73 75.5t-110.5 54.5t-148.5 21q-124 0 -222 -61t-156 -161
t-82 -231l-45 -252q-12 -70 -12 -142q0 -200 110.5 -311.5t300.5 -111.5q70 0 133 17t119.5 53t96.5 99.5t55 149.5l41 235h-405l13 75h485l-54 -322q-18 -103 -67 -180t-118.5 -119.5t-145 -62.5t-159.5 -20q-223 0 -356 130.5t-133 363.5q0 82 14 155z" />
    <glyph glyph-name="gcaron" unicode="&#x1e7;" horiz-adv-x="1155" 
d="M711 1204l-193 278h81l157 -221h11l229 221h85l-284 -278h-86zM667 1052q71 0 132.5 -23.5t102 -61.5t66.5 -79t36 -81h6l39 228h81l-181 -1033q-17 -98 -57 -170t-97.5 -113.5t-125.5 -61t-149 -19.5q-160 0 -260.5 78.5t-100.5 199.5q0 25 2 32h78q-1 -8 -1 -30
q0 -86 78.5 -146.5t209.5 -60.5q61 0 113 15t100.5 48.5t83 96t50.5 148.5l35 203h-6q-16 -34 -41.5 -64.5t-64 -60.5t-95.5 -48t-125 -18q-153 0 -255.5 103.5t-102.5 267.5q0 81 11 144l20 117q17 99 58 175t97.5 122t123 69t139.5 23zM977 661q0 135 -88 226.5t-221 91.5
q-124 0 -218 -86.5t-124 -255.5l-18 -104q-10 -57 -10 -111q0 -147 82 -232.5t215 -85.5q135 0 228.5 91.5t117.5 221.5l28 157q8 45 8 87z" />
    <glyph glyph-name="Kcaron" unicode="&#x1e8;" horiz-adv-x="1180" 
d="M536 1360l-130 -730h4l812 730h109l-675 -612l462 -748h-98l-428 699l-204 -180l-91 -519h-83l240 1360h82zM1194 1690l-309 -209h-71l-215 209h92l162 -159h5l233 159h103z" />
    <glyph glyph-name="kcaron" unicode="&#x1e9;" horiz-adv-x="1026" 
d="M470 1584l-193 278h81l157 -221h11l229 221h85l-284 -278h-86zM347 440l-77 -440h-82l250 1416h81l-153 -874h5l634 507h116l-543 -433l373 -616h-95l-341 572z" />
    <glyph glyph-name="Oogonek" unicode="&#x1ea;" horiz-adv-x="1356" 
d="M1049 -293l-9 -61q-44 -20 -108 -20q-69 0 -114 35.5t-45 102.5q0 120 119 229l-1 2q-72 -26 -156 -26q-99 0 -187 33.5t-155 95t-106 155t-39 206.5q0 85 14 166l44 242q43 243 187 383.5t361 140.5q139 0 251 -57t179.5 -171.5t67.5 -269.5q0 -78 -14 -156l-43 -243
q-28 -152 -96 -256.5t-173 -192.5q-81 -70 -127.5 -130.5t-46.5 -126.5q0 -45 30 -70t82 -25q46 0 85 14zM388 863l-45 -253q-13 -76 -13 -138q0 -190 115.5 -308t303.5 -118q183 0 305.5 122.5t158.5 334.5l44 256q11 62 11 132q0 187 -115.5 305t-300.5 118
q-180 0 -303 -119t-161 -332z" />
    <glyph glyph-name="oogonek" unicode="&#x1eb;" horiz-adv-x="1124" 
d="M762 -359q-77 0 -123 45t-32 129q16 101 143 205l-3 5q-58 -42 -163 -42q-161 0 -264.5 108t-103.5 288q0 54 10 119l26 146q36 203 156 305.5t285 102.5q81 0 151 -24t125.5 -71.5t87 -125.5t31.5 -178q0 -57 -9 -114l-26 -147q-18 -109 -67 -193.5t-117 -134.5
q-85 -68 -129.5 -119.5t-54.5 -117.5q-9 -54 21 -86t88 -32q44 0 88 14l-12 -62q-40 -20 -108 -20zM331 625l-24 -129q-10 -55 -10 -111q0 -145 86.5 -236.5t229.5 -91.5q140 0 236.5 94t125.5 263l23 131q9 49 9 112q0 141 -86 231t-229 90q-133 0 -230.5 -86.5
t-130.5 -266.5z" />
    <glyph glyph-name="Oogonekmacron" unicode="&#x1ec;" horiz-adv-x="1356" 
d="M1049 -293l-9 -61q-44 -20 -108 -20q-69 0 -114 35.5t-45 102.5q0 120 119 229l-1 2q-72 -26 -156 -26q-99 0 -187 33.5t-155 95t-106 155t-39 206.5q0 85 14 166l44 242q43 243 187 383.5t361 140.5q139 0 251 -57t179.5 -171.5t67.5 -269.5q0 -78 -14 -156l-43 -243
q-28 -152 -96 -256.5t-173 -192.5q-81 -70 -127.5 -130.5t-46.5 -126.5q0 -45 30 -70t82 -25q46 0 85 14zM388 863l-45 -253q-13 -76 -13 -138q0 -190 115.5 -308t303.5 -118q183 0 305.5 122.5t158.5 334.5l44 256q11 62 11 132q0 187 -115.5 305t-300.5 118
q-180 0 -303 -119t-161 -332zM1243 1579l-11 -58h-587l10 58h588z" />
    <glyph glyph-name="oogonekmacron" unicode="&#x1ed;" horiz-adv-x="1124" 
d="M762 -359q-77 0 -123 45t-32 129q16 101 143 205l-3 5q-58 -42 -163 -42q-161 0 -264.5 108t-103.5 288q0 54 10 119l26 146q36 203 156 305.5t285 102.5q81 0 151 -24t125.5 -71.5t87 -125.5t31.5 -178q0 -57 -9 -114l-26 -147q-18 -109 -67 -193.5t-117 -134.5
q-85 -68 -129.5 -119.5t-54.5 -117.5q-9 -54 21 -86t88 -32q44 0 88 14l-12 -62q-40 -20 -108 -20zM331 625l-24 -129q-10 -55 -10 -111q0 -145 86.5 -236.5t229.5 -91.5q140 0 236.5 94t125.5 263l23 131q9 49 9 112q0 141 -86 231t-229 90q-133 0 -230.5 -86.5
t-130.5 -266.5zM1083 1303l-11 -59h-588l11 59h588z" />
    <glyph glyph-name="Gacute" unicode="&#x1f4;" horiz-adv-x="1322" 
d="M793 1509l310 236h113l-326 -236h-97zM308 865q43 240 185 383t362 143q118 0 211.5 -37t146.5 -95.5t80 -123t27 -127.5q0 -30 -5 -50h-79q3 20 3 46q-1 37 -13.5 77t-42.5 82t-73 75.5t-110.5 54.5t-148.5 21q-124 0 -222 -61t-156 -161t-82 -231l-45 -252
q-12 -70 -12 -142q0 -200 110.5 -311.5t300.5 -111.5q70 0 133 17t119.5 53t96.5 99.5t55 149.5l41 235h-405l13 75h485l-54 -322q-18 -103 -67 -180t-118.5 -119.5t-145 -62.5t-159.5 -20q-223 0 -356 130.5t-133 363.5q0 82 14 155z" />
    <glyph glyph-name="gacute" unicode="&#x1f5;" horiz-adv-x="1155" 
d="M742 1232h-72l258 315h96zM667 1052q71 0 132.5 -23.5t102 -61.5t66.5 -79t36 -81h6l39 228h81l-181 -1033q-17 -98 -57 -170t-97.5 -113.5t-125.5 -61t-149 -19.5q-160 0 -260.5 78.5t-100.5 199.5q0 25 2 32h78q-1 -8 -1 -30q0 -86 78.5 -146.5t209.5 -60.5
q61 0 113 15t100.5 48.5t83 96t50.5 148.5l35 203h-6q-16 -34 -41.5 -64.5t-64 -60.5t-95.5 -48t-125 -18q-153 0 -255.5 103.5t-102.5 267.5q0 81 11 144l20 117q17 99 58 175t97.5 122t123 69t139.5 23zM977 661q0 135 -88 226.5t-221 91.5q-124 0 -218 -86.5t-124 -255.5
l-18 -104q-10 -57 -10 -111q0 -147 82 -232.5t215 -85.5q135 0 228.5 91.5t117.5 221.5l28 157q8 45 8 87z" />
    <glyph glyph-name="Ngrave" unicode="&#x1f8;" horiz-adv-x="1401" 
d="M1097 1509h-95l-298 236h110zM1187 0h-76l-595 1218h-5l-214 -1218h-83l240 1360h80l590 -1218h5l215 1218h82z" />
    <glyph glyph-name="ngrave" unicode="&#x1f9;" horiz-adv-x="1157" 
d="M870 1231h-68l-196 315h94zM197 0l181 1035h81l-32 -179h6q39 86 125 141t200 55q145 0 236.5 -89.5t91.5 -229.5q0 -57 -11 -116l-108 -617h-82l109 619q9 45 9 99q0 114 -72.5 187.5t-190.5 73.5q-139 0 -231 -94.5t-115 -226.5l-115 -658h-82z" />
    <glyph glyph-name="Aringacute" unicode="&#x1fa;" horiz-adv-x="1186" 
d="M869 1613l310 235h113l-326 -235h-97zM849 1372q49 0 83.5 35t34.5 83q0 49 -34.5 84t-83.5 35q-48 0 -83 -35t-35 -84q0 -48 35.5 -83t82.5 -35zM834 1259h-6l-384 -728h516zM406 461l-242 -461h-93l713 1329q-49 19 -79 63t-30 98q0 71 50.5 121t123.5 50
q71 0 120.5 -50t49.5 -121q0 -58 -34 -103.5t-87 -61.5l240 -1325h-85l-80 461h-567z" />
    <glyph glyph-name="aringacute" unicode="&#x1fb;" horiz-adv-x="1064" 
d="M873 1483h-73l258 314h96zM494 -17q-134 0 -223 75.5t-91 202.5q0 26 1 39q12 135 120 207.5t287 72.5h307l17 97q8 53 8 81q0 105 -71.5 163t-188.5 58q-115 0 -183 -46.5t-81 -106.5h-81q16 91 108 158.5t241 67.5q96 0 170 -29.5t120 -95.5t46 -161q0 -39 -12 -116
l-114 -650h-81l26 149l-6 1q-29 -58 -113 -112.5t-206 -54.5zM263 275q0 -104 70 -160.5t176 -56.5q126 0 221.5 75t118.5 199l33 179h-301q-146 0 -232 -62t-86 -174zM749 1245q49 0 84 35t35 83q0 49 -35 84t-84 35q-47 0 -82 -35t-35 -84q0 -48 35 -83t82 -35zM750 1192
q-73 0 -123 50.5t-50 122.5t50 121.5t123 49.5q71 0 121 -49.5t50 -121.5t-50 -122.5t-121 -50.5z" />
    <glyph glyph-name="AEacute" unicode="&#x1fc;" horiz-adv-x="1864" 
d="M1512 1509l310 236h113l-326 -236h-97zM1139 1266l-563 -715h487l128 715h-52zM966 0l85 481h-527l-379 -481h-95l1065 1360h864l-13 -75h-691l-97 -549h657l-12 -75h-658l-104 -586h692l-12 -75h-775z" />
    <glyph glyph-name="aeacute" unicode="&#x1fd;" horiz-adv-x="1726" 
d="M1037 1231h-72l258 315h96zM1257 -17q-155 0 -250 81t-111 199h-3q-28 -114 -137 -197t-255 -83q-143 0 -232 76.5t-89 211.5q0 150 111 229.5t299 79.5h305l17 99q8 51 8 80q0 104 -71.5 162t-188.5 58q-115 0 -183 -46.5t-81 -106.5h-81q16 91 108 158.5t240 67.5
q119 0 205.5 -50t113.5 -149h3q120 199 351 199q172 0 268.5 -107.5t90.5 -290.5q0 -52 -20 -143h-712q-12 -77 -12 -133q0 -146 78 -233.5t228 -87.5q121 0 200.5 53.5t92.5 123.5h80q-7 -43 -34 -86t-72 -80.5t-115 -61t-152 -23.5zM263 274q0 -104 69.5 -160t176.5 -56
q126 0 221.5 75t118.5 199l33 179h-301q-146 0 -232 -62.5t-86 -174.5zM1608 579q10 37 10 80q5 142 -69 232t-215 90q-138 0 -225 -90.5t-122 -249.5q-9 -45 -12 -62h633z" />
    <glyph glyph-name="Oslashacute" unicode="&#x1fe;" horiz-adv-x="1356" 
d="M262 625l43 243q44 242 188 382.5t360 140.5q132 0 241 -53.5t175 -152.5l160 151l48 -49l-172 -164q46 -105 46 -231q0 -77 -15 -156l-43 -242q-44 -247 -186.5 -386t-364.5 -139q-136 0 -247.5 57.5t-176.5 164.5l-149 -141l-43 52l161 152q-41 95 -41 206q0 80 16 165
zM1267 891q0 101 -29 171l-858 -815q51 -96 147 -148.5t222 -52.5q183 0 305 122.5t159 334.5l43 257q11 61 11 131zM1209 1129q-55 88 -147.5 136.5t-210.5 48.5q-180 0 -303 -119.5t-160 -331.5l-45 -252q-13 -78 -13 -139q0 -95 21 -157zM822 1509l310 236h113l-326 -236
h-97z" />
    <glyph glyph-name="oslashacute" unicode="&#x1ff;" horiz-adv-x="1124" 
d="M226 498l25 146q36 203 156.5 305.5t285.5 102.5q108 0 197 -43t140 -129l142 121l40 -48l-153 -131q29 -77 29 -169q0 -60 -10 -114l-25 -147q-35 -199 -154 -304t-293 -105q-109 0 -195 44t-135 126l-135 -114l-40 48l144 123q-30 77 -30 169q0 58 11 119zM330 625
l-23 -129q-11 -60 -11 -111q0 -60 17 -116l653 556q-39 72 -110 112.5t-164 40.5q-134 0 -231.5 -86.5t-130.5 -266.5zM339 208q40 -71 110.5 -111t162.5 -40q140 0 236.5 94t126.5 263l23 131q9 57 9 112t-17 106zM760 1231h-72l258 315h96z" />
    <glyph glyph-name="Adblgrave" unicode="&#x200;" horiz-adv-x="1186" 
d="M71 0l730 1360h91l246 -1360h-85l-80 461h-567l-242 -461h-93zM834 1259h-6l-384 -728h516zM803 1509h-81l-280 258h96zM1056 1509h-80l-281 258h97z" />
    <glyph glyph-name="adblgrave" unicode="&#x201;" horiz-adv-x="1064" 
d="M494 -17q-134 0 -223 75.5t-91 202.5q0 26 1 39q12 135 120 207.5t287 72.5h307l17 97q8 53 8 81q0 105 -71.5 163t-188.5 58q-115 0 -183 -46.5t-81 -106.5h-81q16 91 108 158.5t241 67.5q96 0 170 -29.5t120 -95.5t46 -161q0 -39 -12 -116l-114 -650h-81l26 149l-6 1
q-29 -58 -113 -112.5t-206 -54.5zM263 275q0 -104 70 -160.5t176 -56.5q126 0 221.5 75t118.5 199l33 179h-301q-146 0 -232 -62t-86 -174zM651 1231h-66l-192 308h91zM879 1231h-66l-192 308h92z" />
    <glyph glyph-name="Ainvertedbreve" unicode="&#x202;" horiz-adv-x="1186" 
d="M71 0l730 1360h91l246 -1360h-85l-80 461h-567l-242 -461h-93zM834 1259h-6l-384 -728h516zM614 1506q8 95 81 167t200 72q130 0 195 -72t52 -167h-65q7 80 -40.5 129t-140.5 49q-94 0 -149.5 -49t-64.5 -129h-68z" />
    <glyph glyph-name="ainvertedbreve" unicode="&#x203;" horiz-adv-x="1064" 
d="M494 -17q-134 0 -223 75.5t-91 202.5q0 26 1 39q12 135 120 207.5t287 72.5h307l17 97q8 53 8 81q0 105 -71.5 163t-188.5 58q-115 0 -183 -46.5t-81 -106.5h-81q16 91 108 158.5t241 67.5q96 0 170 -29.5t120 -95.5t46 -161q0 -39 -12 -116l-114 -650h-81l26 149l-6 1
q-29 -58 -113 -112.5t-206 -54.5zM263 275q0 -104 70 -160.5t176 -56.5q126 0 221.5 75t118.5 199l33 179h-301q-146 0 -232 -62t-86 -174zM450 1228q16 102 89 172t205 70q126 0 190 -74t45 -168h-67q14 79 -32.5 130t-138.5 51q-93 0 -151.5 -50t-72.5 -131h-67z" />
    <glyph glyph-name="Edblgrave" unicode="&#x204;" horiz-adv-x="1113" 
d="M782 1509h-81l-280 258h96zM1035 1509h-80l-281 258h97zM1001 75l-11 -75h-776l240 1360h771l-12 -75h-690l-97 -550h657l-13 -75h-658l-103 -585h692z" />
    <glyph glyph-name="edblgrave" unicode="&#x205;" horiz-adv-x="1073" 
d="M602 -17q-175 0 -279.5 100.5t-104.5 285.5q0 67 12 137l20 116q31 191 140.5 310.5t292.5 119.5q172 0 268.5 -107.5t90.5 -290.5q0 -45 -20 -143h-712q-13 -75 -13 -133q0 -146 78.5 -233.5t228.5 -87.5q120 0 199.5 53.5t93.5 123.5h80q-7 -44 -34.5 -87t-72.5 -80.5
t-115 -60.5t-153 -23zM955 579q9 33 9 80q6 142 -68 232t-215 90q-138 0 -224.5 -90.5t-121.5 -249.5q-10 -48 -12 -62h632zM686 1231h-66l-192 308h91zM914 1231h-66l-192 308h92z" />
    <glyph glyph-name="Einvertedbreve" unicode="&#x206;" horiz-adv-x="1113" 
d="M1001 75l-11 -75h-776l240 1360h771l-12 -75h-690l-97 -550h657l-13 -75h-658l-103 -585h692zM593 1506q8 95 81 167t200 72q130 0 195 -72t52 -167h-65q7 80 -40.5 129t-140.5 49q-94 0 -149.5 -49t-64.5 -129h-68z" />
    <glyph glyph-name="einvertedbreve" unicode="&#x207;" horiz-adv-x="1073" 
d="M602 -17q-175 0 -279.5 100.5t-104.5 285.5q0 67 12 137l20 116q31 191 140.5 310.5t292.5 119.5q172 0 268.5 -107.5t90.5 -290.5q0 -45 -20 -143h-712q-13 -75 -13 -133q0 -146 78.5 -233.5t228.5 -87.5q120 0 199.5 53.5t93.5 123.5h80q-7 -44 -34.5 -87t-72.5 -80.5
t-115 -60.5t-153 -23zM955 579q9 33 9 80q6 142 -68 232t-215 90q-138 0 -224.5 -90.5t-121.5 -249.5q-10 -48 -12 -62h632zM485 1228q16 102 89 172t205 70q126 0 190 -74t45 -168h-67q14 79 -32.5 130t-138.5 51q-93 0 -151.5 -50t-72.5 -131h-67z" />
    <glyph glyph-name="Idblgrave" unicode="&#x208;" horiz-adv-x="520" 
d="M301 0h-82l239 1360h83zM457 1509h-81l-280 258h96zM710 1509h-80l-281 258h97z" />
    <glyph glyph-name="idblgrave" unicode="&#x209;" horiz-adv-x="518" 
d="M215 0l183 1035h81l-182 -1035h-82zM402 1231h-66l-192 308h91zM630 1231h-66l-192 308h92z" />
    <glyph glyph-name="Iinvertedbreve" unicode="&#x20a;" horiz-adv-x="520" 
d="M301 0h-82l239 1360h83zM268 1506q8 95 81 167t200 72q130 0 195 -72t52 -167h-65q7 80 -40.5 129t-140.5 49q-94 0 -149.5 -49t-64.5 -129h-68z" />
    <glyph glyph-name="iinvertedbreve" unicode="&#x20b;" horiz-adv-x="518" 
d="M215 0l183 1035h81l-182 -1035h-82zM201 1228q16 102 89 172t205 70q126 0 190 -74t45 -168h-67q14 79 -32.5 130t-138.5 51q-93 0 -151.5 -50t-72.5 -131h-67z" />
    <glyph glyph-name="Odblgrave" unicode="&#x20c;" horiz-adv-x="1356" 
d="M869 1509h-81l-280 258h96zM1122 1509h-80l-281 258h97zM388 863l-45 -253q-13 -76 -13 -138q0 -190 115.5 -308t303.5 -118q183 0 305.5 122.5t158.5 334.5l44 256q11 62 11 132q0 187 -115.5 305t-300.5 118q-180 0 -303 -119t-161 -332zM262 625l44 242
q43 243 187 383.5t361 140.5q139 0 251 -57t179.5 -171.5t67.5 -269.5q0 -78 -14 -156l-44 -243q-44 -248 -187 -386.5t-365 -138.5q-137 0 -248 57t-178.5 170t-67.5 263q0 85 14 166z" />
    <glyph glyph-name="odblgrave" unicode="&#x20d;" horiz-adv-x="1124" 
d="M331 625l-24 -129q-10 -55 -10 -111q0 -145 86.5 -236.5t229.5 -91.5q140 0 236.5 94t125.5 263l23 131q9 49 9 112q0 141 -86 231t-229 90q-133 0 -230.5 -86.5t-130.5 -266.5zM226 498l26 146q36 203 156 305.5t285 102.5q81 0 151 -24t125.5 -71.5t87 -125.5
t31.5 -178q0 -57 -9 -114l-26 -147q-34 -199 -153 -304t-293 -105q-173 0 -282 106t-109 290q0 54 10 119zM712 1231h-66l-192 308h91zM940 1231h-66l-192 308h92z" />
    <glyph glyph-name="Oinvertedbreve" unicode="&#x20e;" horiz-adv-x="1356" 
d="M680 1506q8 95 81 167t200 72q130 0 195 -72t52 -167h-65q7 80 -40.5 129t-140.5 49q-94 0 -149.5 -49t-64.5 -129h-68zM388 863l-45 -253q-13 -76 -13 -138q0 -190 115.5 -308t303.5 -118q183 0 305.5 122.5t158.5 334.5l44 256q11 62 11 132q0 187 -115.5 305
t-300.5 118q-180 0 -303 -119t-161 -332zM262 625l44 242q43 243 187 383.5t361 140.5q139 0 251 -57t179.5 -171.5t67.5 -269.5q0 -78 -14 -156l-44 -243q-44 -248 -187 -386.5t-365 -138.5q-137 0 -248 57t-178.5 170t-67.5 263q0 85 14 166z" />
    <glyph glyph-name="oinvertedbreve" unicode="&#x20f;" horiz-adv-x="1124" 
d="M331 625l-24 -129q-10 -55 -10 -111q0 -145 86.5 -236.5t229.5 -91.5q140 0 236.5 94t125.5 263l23 131q9 49 9 112q0 141 -86 231t-229 90q-133 0 -230.5 -86.5t-130.5 -266.5zM226 498l26 146q36 203 156 305.5t285 102.5q81 0 151 -24t125.5 -71.5t87 -125.5
t31.5 -178q0 -57 -9 -114l-26 -147q-34 -199 -153 -304t-293 -105q-173 0 -282 106t-109 290q0 54 10 119zM511 1228q16 102 89 172t205 70q126 0 190 -74t45 -168h-67q14 79 -32.5 130t-138.5 51q-93 0 -151.5 -50t-72.5 -131h-67z" />
    <glyph glyph-name="Rdblgrave" unicode="&#x210;" horiz-adv-x="1223" 
d="M768 1509h-81l-280 258h96zM1021 1509h-80l-281 258h97zM297 0h-83l240 1360h436q176 0 268 -92t92 -241q0 -53 -8 -94q-28 -137 -123 -218t-238 -107l211 -608h-90l-203 597q-42 -3 -80 -3h-318zM872 1287h-349l-110 -620h331q167 0 278.5 73t135.5 207q7 42 7 79
q0 114 -72.5 187.5t-220.5 73.5z" />
    <glyph glyph-name="rdblgrave" unicode="&#x211;" horiz-adv-x="750" 
d="M198 0l180 1035h80l-32 -182h6q36 88 107.5 143.5t180.5 55.5q65 0 119 -19l-19 -77q-40 20 -109 20q-131 0 -213.5 -95t-106.5 -242l-111 -639h-82zM574 1231h-66l-192 308h91zM802 1231h-66l-192 308h92z" />
    <glyph glyph-name="Rinvertedbreve" unicode="&#x212;" horiz-adv-x="1223" 
d="M297 0h-83l240 1360h436q176 0 268 -92t92 -241q0 -53 -8 -94q-28 -137 -123 -218t-238 -107l211 -608h-90l-203 597q-42 -3 -80 -3h-318zM872 1287h-349l-110 -620h331q167 0 278.5 73t135.5 207q7 42 7 79q0 114 -72.5 187.5t-220.5 73.5zM579 1506q8 95 81 167t200 72
q130 0 195 -72t52 -167h-65q7 80 -40.5 129t-140.5 49q-94 0 -149.5 -49t-64.5 -129h-68z" />
    <glyph glyph-name="rinvertedbreve" unicode="&#x213;" horiz-adv-x="750" 
d="M198 0l180 1035h80l-32 -182h6q36 88 107.5 143.5t180.5 55.5q65 0 119 -19l-19 -77q-40 20 -109 20q-131 0 -213.5 -95t-106.5 -242l-111 -639h-82zM373 1228q16 102 89 172t205 70q126 0 190 -74t45 -168h-67q14 79 -32.5 130t-138.5 51q-93 0 -151.5 -50t-72.5 -131
h-67z" />
    <glyph glyph-name="Udblgrave" unicode="&#x214;" horiz-adv-x="1347" 
d="M878 1509h-81l-280 258h96zM1131 1509h-80l-281 258h97zM502 1360l-147 -835q-8 -50 -8 -104q0 -177 105 -275.5t281 -98.5q169 0 281 102.5t144 283.5l163 927h85l-165 -934q-38 -221 -174.5 -339.5t-340.5 -118.5q-210 0 -336.5 117t-126.5 326q0 62 11 123l145 826h83
z" />
    <glyph glyph-name="udblgrave" unicode="&#x215;" horiz-adv-x="1145" 
d="M1131 1035l-181 -1035h-79l32 180h-7q-34 -85 -121 -141t-199 -56q-145 0 -240 86t-95 225q0 65 11 120l110 621h81l-110 -624q-8 -50 -8 -100q0 -114 73 -183.5t196 -69.5q137 0 228 94t114 226l115 657h80zM712 1231h-66l-192 308h91zM940 1231h-66l-192 308h92z" />
    <glyph glyph-name="Uinvertedbreve" unicode="&#x216;" horiz-adv-x="1347" 
d="M502 1360l-147 -835q-8 -50 -8 -104q0 -177 105 -275.5t281 -98.5q169 0 281 102.5t144 283.5l163 927h85l-165 -934q-38 -221 -174.5 -339.5t-340.5 -118.5q-210 0 -336.5 117t-126.5 326q0 62 11 123l145 826h83zM689 1506q8 95 81 167t200 72q130 0 195 -72t52 -167
h-65q7 80 -40.5 129t-140.5 49q-94 0 -149.5 -49t-64.5 -129h-68z" />
    <glyph glyph-name="uinvertedbreve" unicode="&#x217;" horiz-adv-x="1145" 
d="M1131 1035l-181 -1035h-79l32 180h-7q-34 -85 -121 -141t-199 -56q-145 0 -240 86t-95 225q0 65 11 120l110 621h81l-110 -624q-8 -50 -8 -100q0 -114 73 -183.5t196 -69.5q137 0 228 94t114 226l115 657h80zM511 1228q16 102 89 172t205 70q126 0 190 -74t45 -168h-67
q14 79 -32.5 130t-138.5 51q-93 0 -151.5 -50t-72.5 -131h-67z" />
    <glyph glyph-name="Scommaaccent" unicode="&#x218;" horiz-adv-x="1198" 
d="M199 381h82q-3 -12 -3 -42q0 -127 105 -211t278 -84q162 0 269 82.5t107 222.5q0 48 -15.5 88t-39 67t-64.5 53t-77.5 42t-93.5 38l-117 45q-138 53 -213 136t-75 211q0 165 124 263t322 98q188 0 308 -94.5t120 -236.5q0 -29 -4 -43h-80q2 12 2 30q0 110 -95 189.5
t-253 79.5q-99 0 -178.5 -31t-129 -96t-49.5 -155q0 -103 62 -167t181 -111l123 -47q63 -24 105.5 -44.5t89 -51t73.5 -64.5t45 -83t18 -108q0 -175 -129 -281.5t-338 -106.5q-214 0 -339.5 104.5t-125.5 259.5q0 30 5 48zM498 -470h-58l84 327h85z" />
    <glyph glyph-name="scommaaccent" unicode="&#x219;" horiz-adv-x="980" 
d="M284 770q0 132 96.5 207.5t249.5 75.5q146 0 247 -73.5t101 -199.5q0 -22 -2 -28h-79q1 7 1 24q0 92 -77 149t-190 57q-112 0 -188 -54.5t-76 -150.5q0 -37 14 -68t34 -51.5t56 -40t66.5 -31t78.5 -27.5q74 -24 119.5 -44t89 -52.5t63.5 -77.5t20 -107
q0 -96 -53.5 -164.5t-136.5 -99.5t-185 -31q-158 0 -268.5 77.5t-110.5 204.5q0 11 3 32h80q-2 -18 -1 -29q3 -99 92 -155.5t208 -56.5q77 0 140.5 22.5t106 72.5t42.5 121q0 28 -7.5 52.5t-17.5 42t-30.5 34t-37 26.5t-47 22.5t-49.5 19t-55 18.5q-54 18 -86.5 30.5
t-77.5 37.5t-70.5 52t-44 69t-18.5 94zM396 -470h-58l84 327h85z" />
    <glyph glyph-name="Tcommaaccent" unicode="&#x21a;" horiz-adv-x="1109" 
d="M461 -470h-58l84 327h85zM597 0h-83l227 1285h-460l13 75h1000l-12 -75h-459z" />
    <glyph glyph-name="tcommaaccent" unicode="&#x21b;" horiz-adv-x="724" 
d="M363 -470h-58l84 327h85zM426 1031l50 281h80l-49 -281h275l-11 -69h-276l-122 -691q-9 -54 -9 -82q0 -62 35.5 -90.5t119.5 -28.5q79 0 127 8l-13 -70q-53 -8 -126 -8q-122 0 -174 43.5t-52 129.5q0 40 10 93l123 696h-206l12 69h206z" />
    <glyph glyph-name="Hcaron" unicode="&#x21e;" horiz-adv-x="1391" 
d="M297 0h-83l240 1360h82l-108 -609h798l108 609h82l-239 -1360h-81l117 677h-797zM1296 1690l-309 -209h-71l-215 209h92l162 -159h5l233 159h103z" />
    <glyph glyph-name="hcaron" unicode="&#x21f;" horiz-adv-x="1161" 
d="M199 0l248 1416h82l-100 -560h6q38 85 124.5 140.5t202.5 55.5q146 0 239 -89t93 -230q0 -57 -11 -116l-108 -617h-82l109 619q9 43 9 100q0 114 -73 187t-193 73q-140 0 -232.5 -94t-116.5 -227l-115 -658h-82zM478 1584l-193 278h81l157 -221h11l229 221h85l-284 -278
h-86z" />
    <glyph glyph-name="Adotaccent" unicode="&#x226;" horiz-adv-x="1186" 
d="M71 0l730 1360h91l246 -1360h-85l-80 461h-567l-242 -461h-93zM834 1259h-6l-384 -728h516zM818 1611q0 32 20.5 53t50.5 21q32 0 53.5 -21t21.5 -53q0 -31 -21.5 -51.5t-53.5 -20.5q-29 0 -50 20.5t-21 51.5z" />
    <glyph glyph-name="adotaccent" unicode="&#x227;" horiz-adv-x="1064" 
d="M494 -17q-134 0 -223 75.5t-91 202.5q0 26 1 39q12 135 120 207.5t287 72.5h307l17 97q8 53 8 81q0 105 -71.5 163t-188.5 58q-115 0 -183 -46.5t-81 -106.5h-81q16 91 108 158.5t241 67.5q96 0 170 -29.5t120 -95.5t46 -161q0 -39 -12 -116l-114 -650h-81l26 149l-6 1
q-29 -58 -113 -112.5t-206 -54.5zM263 275q0 -104 70 -160.5t176 -56.5q126 0 221.5 75t118.5 199l33 179h-301q-146 0 -232 -62t-86 -174zM659 1286q0 32 20.5 53t50.5 21q32 0 53.5 -21t21.5 -53q0 -31 -21.5 -51.5t-53.5 -20.5q-30 0 -50.5 21t-20.5 51z" />
    <glyph glyph-name="Ecedilla" unicode="&#x228;" horiz-adv-x="1113" 
d="M540 0h-326l240 1360h771l-12 -75h-690l-97 -550h657l-13 -75h-658l-103 -585h692l-11 -75h-382l-37 -138q78 -4 129.5 -39.5t51.5 -106.5q0 -82 -66 -129t-157 -47q-81 0 -150 28l11 62q63 -26 141 -26q56 0 99 26.5t43 82.5q0 82 -135 95l-50 3l10 48z" />
    <glyph glyph-name="ecedilla" unicode="&#x229;" horiz-adv-x="1073" 
d="M955 579q9 33 9 80q6 142 -68 232t-215 90q-138 0 -224.5 -90.5t-121.5 -249.5q-10 -48 -12 -62h632zM509 -460q-82 0 -150 28l10 62q63 -26 141 -26q56 0 99 26.5t43 82.5q0 83 -135 95l-50 3l11 48l38 131q-139 23 -218.5 120.5t-79.5 258.5q0 67 12 137l20 116
q31 191 140.5 310.5t292.5 119.5q172 0 268.5 -107.5t90.5 -290.5q0 -45 -20 -143h-712q-13 -75 -13 -133q0 -146 78.5 -233.5t228.5 -87.5q120 0 199.5 53.5t93.5 123.5h80q-15 -95 -114 -172.5t-258 -78.5q-15 0 -22 1l-33 -122q78 -4 129.5 -39.5t51.5 -106.5
q0 -82 -65.5 -129t-156.5 -47z" />
    <glyph glyph-name="Odieresismacron" unicode="&#x22a;" horiz-adv-x="1356" 
d="M713 1572q0 27 19 45.5t46 18.5q26 0 45 -18.5t19 -45.5q0 -26 -19 -44.5t-45 -18.5q-27 0 -46 18.5t-19 44.5zM1052 1572q0 27 19 45.5t45 18.5q27 0 46 -18.5t19 -45.5q0 -26 -19 -44.5t-46 -18.5q-26 0 -45 18.5t-19 44.5zM388 863l-45 -253q-13 -76 -13 -138
q0 -190 115.5 -308t303.5 -118q183 0 305.5 122.5t158.5 334.5l44 256q11 62 11 132q0 187 -115.5 305t-300.5 118q-180 0 -303 -119t-161 -332zM262 625l44 242q43 243 187 383.5t361 140.5q139 0 251 -57t179.5 -171.5t67.5 -269.5q0 -78 -14 -156l-44 -243
q-44 -248 -187 -386.5t-365 -138.5q-137 0 -248 57t-178.5 170t-67.5 263q0 85 14 166zM1293 1865l-11 -58h-587l10 58h588z" />
    <glyph glyph-name="odieresismacron" unicode="&#x22b;" horiz-adv-x="1124" 
d="M578 1314q0 29 21 49.5t50 20.5q31 0 52 -20.5t21 -49.5q0 -30 -21 -51t-52 -21q-29 0 -50 21t-21 51zM873 1314q0 29 21 49.5t50 20.5q31 0 52.5 -20.5t21.5 -49.5q0 -30 -21.5 -51t-52.5 -21q-29 0 -50 21t-21 51zM331 625l-24 -129q-10 -55 -10 -111
q0 -145 86.5 -236.5t229.5 -91.5q140 0 236.5 94t125.5 263l23 131q9 49 9 112q0 141 -86 231t-229 90q-133 0 -230.5 -86.5t-130.5 -266.5zM226 498l26 146q36 203 156 305.5t285 102.5q81 0 151 -24t125.5 -71.5t87 -125.5t31.5 -178q0 -57 -9 -114l-26 -147
q-34 -199 -153 -304t-293 -105q-173 0 -282 106t-109 290q0 54 10 119zM1140 1630l-11 -59h-588l11 59h588z" />
    <glyph glyph-name="Otildemacron" unicode="&#x22c;" horiz-adv-x="1356" 
d="M388 863l-45 -253q-13 -76 -13 -138q0 -190 115.5 -308t303.5 -118q183 0 305.5 122.5t158.5 334.5l44 256q11 62 11 132q0 187 -115.5 305t-300.5 118q-180 0 -303 -119t-161 -332zM262 625l44 242q43 243 187 383.5t361 140.5q139 0 251 -57t179.5 -171.5t67.5 -269.5
q0 -78 -14 -156l-44 -243q-44 -248 -187 -386.5t-365 -138.5q-137 0 -248 57t-178.5 170t-67.5 263q0 85 14 166zM913 1560q-23 28 -33.5 39.5t-31 24.5t-40.5 13q-91 0 -91 -134h-65q0 90 40.5 141t116.5 51q44 0 78 -20.5t72 -67.5q27 -35 49.5 -50.5t53.5 -15.5
q43 0 71 40.5t29 102.5h65q0 -84 -46.5 -141t-116.5 -57q-53 0 -84.5 17t-66.5 57zM1293 1865l-11 -58h-587l10 58h588z" />
    <glyph glyph-name="otildemacron" unicode="&#x22d;" horiz-adv-x="1124" 
d="M916 1185q-53 0 -90.5 25t-71.5 74q-24 34 -35 48t-36 31.5t-51 17.5q-44 0 -70.5 -34t-39.5 -106h-72q11 103 58.5 156.5t127.5 53.5q39 0 74 -20.5t52.5 -41.5t44.5 -58q54 -77 114 -77q45 0 78 38.5t46 107.5h71q-9 -93 -65 -154t-135 -61zM1140 1630l-11 -59h-588
l11 59h588zM331 625l-24 -129q-10 -55 -10 -111q0 -145 86.5 -236.5t229.5 -91.5q140 0 236.5 94t125.5 263l23 131q9 49 9 112q0 141 -86 231t-229 90q-133 0 -230.5 -86.5t-130.5 -266.5zM226 498l26 146q36 203 156 305.5t285 102.5q81 0 151 -24t125.5 -71.5t87 -125.5
t31.5 -178q0 -57 -9 -114l-26 -147q-34 -199 -153 -304t-293 -105q-173 0 -282 106t-109 290q0 54 10 119z" />
    <glyph glyph-name="Odotaccent" unicode="&#x22e;" horiz-adv-x="1356" 
d="M883 1611q0 32 20.5 53t50.5 21q32 0 53.5 -21t21.5 -53q0 -31 -21.5 -51.5t-53.5 -20.5q-30 0 -50.5 20.5t-20.5 51.5zM388 863l-45 -253q-13 -76 -13 -138q0 -190 115.5 -308t303.5 -118q183 0 305.5 122.5t158.5 334.5l44 256q11 62 11 132q0 187 -115.5 305
t-300.5 118q-180 0 -303 -119t-161 -332zM262 625l44 242q43 243 187 383.5t361 140.5q139 0 251 -57t179.5 -171.5t67.5 -269.5q0 -78 -14 -156l-44 -243q-44 -248 -187 -386.5t-365 -138.5q-137 0 -248 57t-178.5 170t-67.5 263q0 85 14 166z" />
    <glyph glyph-name="odotaccent" unicode="&#x22f;" horiz-adv-x="1124" 
d="M720 1286q0 32 20.5 53t50.5 21q32 0 53.5 -21t21.5 -53q0 -31 -21.5 -51.5t-53.5 -20.5q-29 0 -50 21t-21 51zM331 625l-24 -129q-10 -55 -10 -111q0 -145 86.5 -236.5t229.5 -91.5q140 0 236.5 94t125.5 263l23 131q9 49 9 112q0 141 -86 231t-229 90
q-133 0 -230.5 -86.5t-130.5 -266.5zM226 498l26 146q36 203 156 305.5t285 102.5q81 0 151 -24t125.5 -71.5t87 -125.5t31.5 -178q0 -57 -9 -114l-26 -147q-34 -199 -153 -304t-293 -105q-173 0 -282 106t-109 290q0 54 10 119z" />
    <glyph glyph-name="Odotaccentmacron" unicode="&#x230;" horiz-adv-x="1356" 
d="M883 1611q0 32 20.5 53t50.5 21q32 0 53.5 -21t21.5 -53q0 -31 -21.5 -51.5t-53.5 -20.5q-30 0 -50.5 20.5t-20.5 51.5zM388 863l-45 -253q-13 -76 -13 -138q0 -190 115.5 -308t303.5 -118q183 0 305.5 122.5t158.5 334.5l44 256q11 62 11 132q0 187 -115.5 305
t-300.5 118q-180 0 -303 -119t-161 -332zM262 625l44 242q43 243 187 383.5t361 140.5q139 0 251 -57t179.5 -171.5t67.5 -269.5q0 -78 -14 -156l-44 -243q-44 -248 -187 -386.5t-365 -138.5q-137 0 -248 57t-178.5 170t-67.5 263q0 85 14 166zM1293 1865l-11 -58h-587
l10 58h588z" />
    <glyph glyph-name="odotaccentmacron" unicode="&#x231;" horiz-adv-x="1124" 
d="M720 1286q0 32 20.5 53t50.5 21q32 0 53.5 -21t21.5 -53q0 -31 -21.5 -51.5t-53.5 -20.5q-29 0 -50 21t-21 51zM1140 1630l-11 -59h-588l11 59h588zM331 625l-24 -129q-10 -55 -10 -111q0 -145 86.5 -236.5t229.5 -91.5q140 0 236.5 94t125.5 263l23 131q9 49 9 112
q0 141 -86 231t-229 90q-133 0 -230.5 -86.5t-130.5 -266.5zM226 498l26 146q36 203 156 305.5t285 102.5q81 0 151 -24t125.5 -71.5t87 -125.5t31.5 -178q0 -57 -9 -114l-26 -147q-34 -199 -153 -304t-293 -105q-173 0 -282 106t-109 290q0 54 10 119z" />
    <glyph glyph-name="Ymacron" unicode="&#x232;" horiz-adv-x="1113" 
d="M705 606l-104 -606h-81l105 605l-343 755h92l296 -673h7l529 673h102zM1128 1579l-11 -58h-587l10 58h588z" />
    <glyph glyph-name="ymacron" unicode="&#x233;" horiz-adv-x="1004" 
d="M1101 1035l-577 -1045l-52 -99q-63 -119 -130 -168t-182 -49q-47 0 -89 10l15 72q40 -10 87 -10q79 0 128.5 40.5t91.5 120.5l50 98l-196 1030h86l166 -935h6l508 935h88zM1001 1303l-11 -59h-588l11 59h588z" />
    <glyph glyph-name="circumflex" unicode="&#x2c6;" horiz-adv-x="849" 
d="M356 1216l288 278h86l188 -278h-84l-148 222h-11l-230 -222h-89z" />
    <glyph glyph-name="caron" unicode="&#x2c7;" horiz-adv-x="849" 
d="M601 1224l-193 278h81l157 -221h11l229 221h85l-284 -278h-86z" />
    <glyph glyph-name="breve" unicode="&#x2d8;" horiz-adv-x="849" 
d="M416 1483h66q-3 -80 48.5 -131t136.5 -51q95 0 150.5 51t65.5 131h67q-12 -104 -85 -174t-200 -70q-112 0 -183 69.5t-66 174.5z" />
    <glyph glyph-name="dotaccent" unicode="&#x2d9;" horiz-adv-x="849" 
d="M589 1384q0 36 24.5 60.5t58.5 24.5q36 0 61 -24.5t25 -60.5q0 -35 -25 -59t-61 -24q-34 0 -58.5 24.5t-24.5 58.5z" />
    <glyph glyph-name="ring" unicode="&#x2da;" horiz-adv-x="849" 
d="M667 1271q49 0 84 35t35 83q0 49 -35 84t-84 35q-47 0 -82 -35t-35 -84q0 -48 35 -83t82 -35zM668 1218q-73 0 -123 50.5t-50 122.5t50 121.5t123 49.5q71 0 121 -49.5t50 -121.5t-50 -122.5t-121 -50.5z" />
    <glyph glyph-name="ogonek" unicode="&#x2db;" horiz-adv-x="849" 
d="M487 78q-94 -80 -132 -128q-68 -84 -68 -158q0 -46 31.5 -75t91.5 -29q44 0 74 11l-4 -57q-40 -18 -98 -18q-73 0 -121 39t-48 111t37 132t102 121q10 10 38.5 34.5t30.5 26.5z" />
    <glyph glyph-name="tilde" unicode="&#x2dc;" horiz-adv-x="849" 
d="M796 1212q-53 0 -90.5 25t-71.5 74q-24 34 -35 48t-36 31.5t-51 17.5q-44 0 -70.5 -34t-39.5 -106h-72q11 103 58.5 156.5t127.5 53.5q39 0 74 -20.5t52.5 -41.5t44.5 -58q54 -77 114 -77q45 0 78 38.5t46 107.5h71q-9 -93 -65 -154t-135 -61z" />
    <glyph glyph-name="hungarumlaut" unicode="&#x2dd;" horiz-adv-x="849" 
d="M453 1231h-65l247 301h93zM692 1231h-65l247 301h92z" />
    <glyph glyph-name="gravecmb" unicode="&#x300;" 
d="M288 1231h-68l-196 315h94z" />
    <glyph glyph-name="acutecmb" unicode="&#x301;" 
d="M203 1231h-72l258 315h96z" />
    <glyph glyph-name="circumflexcmb" unicode="&#x302;" 
d="M-68 1229l288 278h86l188 -278h-84l-148 222h-11l-230 -222h-89z" />
    <glyph glyph-name="tildecmb" unicode="&#x303;" 
d="M350 1185q-53 0 -90.5 25t-71.5 74q-24 34 -35 48t-36 31.5t-51 17.5q-44 0 -70.5 -34t-39.5 -106h-72q11 103 58.5 156.5t127.5 53.5q39 0 74 -20.5t52.5 -41.5t44.5 -58q54 -77 114 -77q45 0 78 38.5t46 107.5h71q-9 -93 -65 -154t-135 -61z" />
    <glyph glyph-name="macroncmb" unicode="&#x304;" 
d="M517 1303l-11 -59h-588l11 59h588z" />
    <glyph glyph-name="brevecmb" unicode="&#x306;" 
d="M-22 1444h66q-3 -80 48.5 -131t136.5 -51q95 0 150.5 51t65.5 131h67q-12 -104 -85 -174t-200 -70q-112 0 -183 69.5t-66 174.5z" />
    <glyph glyph-name="dotaccentcmb" unicode="&#x307;" 
d="M154 1286q0 32 20.5 53t50.5 21q32 0 53.5 -21t21.5 -53q0 -31 -21.5 -51.5t-53.5 -20.5q-29 0 -50 21t-21 51z" />
    <glyph glyph-name="dieresiscmb" unicode="&#x308;" 
d="M12 1314q0 29 21 49.5t50 20.5q31 0 52 -20.5t21 -49.5q0 -30 -21 -51t-52 -21q-29 0 -50 21t-21 51zM307 1314q0 29 21 49.5t50 20.5q31 0 52.5 -20.5t21.5 -49.5q0 -30 -21.5 -51t-52.5 -21q-29 0 -50 21t-21 51z" />
    <glyph glyph-name="hookabovecmb" unicode="&#x309;" 
d="M120 1455l9 61q37 25 107 25q71 0 114.5 -36t43.5 -93q0 -111 -134 -180l-34 49q97 54 97 121q0 35 -27.5 56t-69.5 21q-61 0 -106 -24z" />
    <glyph glyph-name="ringcmb" unicode="&#x30a;" 
d="M237 1245q49 0 84 35t35 83q0 49 -35 84t-84 35q-47 0 -82 -35t-35 -84q0 -48 35 -83t82 -35zM238 1192q-73 0 -123 50.5t-50 122.5t50 121.5t123 49.5q71 0 121 -49.5t50 -121.5t-50 -122.5t-121 -50.5z" />
    <glyph glyph-name="hungarumlautcmb" unicode="&#x30b;" 
d="M103 1231h-65l247 301h93zM342 1231h-65l247 301h92z" />
    <glyph glyph-name="caroncmb" unicode="&#x30c;" 
d="M172 1203l-193 278h81l157 -221h11l229 221h85l-284 -278h-86z" />
    <glyph glyph-name="dblgravecmb" unicode="&#x30f;" 
d="M146 1231h-66l-192 308h91zM374 1231h-66l-192 308h92z" />
    <glyph glyph-name="invertedbrevecmb" unicode="&#x311;" 
d="M-55 1228q16 102 89 172t205 70q126 0 190 -74t45 -168h-67q14 79 -32.5 130t-138.5 51q-93 0 -151.5 -50t-72.5 -131h-67z" />
    <glyph glyph-name="horncmb" unicode="&#x31b;" 
d="M172 974l14 76q7 -10 36 -10q75 0 123.5 40.5t61.5 111.5l21 118h75l-20 -116q-20 -111 -88.5 -169.5t-169.5 -58.5q-42 0 -53 8z" />
    <glyph glyph-name="dotbelowcmb" unicode="&#x323;" 
d="M-117 -276q0 30 20 50.5t49 20.5q31 0 51.5 -20t20.5 -51q0 -30 -20.5 -49.5t-51.5 -19.5q-29 0 -49 19.5t-20 49.5z" />
    <glyph glyph-name="dieresisbelowcmb" unicode="&#x324;" 
d="M-264 -250q0 29 21 49.5t50 20.5q31 0 52 -20.5t21 -49.5q0 -30 -21 -51t-52 -21q-29 0 -50 21t-21 51zM31 -250q0 29 21 49.5t50 20.5q31 0 52.5 -20.5t21.5 -49.5q0 -30 -21.5 -51t-52.5 -21q-29 0 -50 21t-21 51z" />
    <glyph glyph-name="ringbelowcmb" unicode="&#x325;" 
d="M-54 -430q49 0 84 35t35 83q0 50 -34.5 84.5t-84.5 34.5q-47 0 -82 -35t-35 -84q0 -48 35 -83t82 -35zM-53 -483q-73 0 -123 50.5t-50 122.5t50 121.5t123 49.5q71 0 121 -49.5t50 -121.5t-50 -122.5t-121 -50.5z" />
    <glyph glyph-name="commabelowcmb" unicode="&#x326;" 
d="M-94 -470h-58l84 327h85z" />
    <glyph glyph-name="cedillacmb" unicode="&#x327;" 
d="M-78 -140l43 144h68l-38 -142q78 -4 129.5 -39.5t51.5 -106.5q0 -82 -66 -129t-157 -47q-81 0 -150 28l11 62q63 -26 141 -26q56 0 99 26.5t43 82.5q0 82 -135 95l-50 3z" />
    <glyph glyph-name="ogonekcmb" unicode="&#x328;" 
d="M37 5q-94 -80 -132 -128q-68 -84 -68 -158q0 -46 31.5 -75t91.5 -29q44 0 74 11l-4 -57q-40 -18 -98 -18q-73 0 -121 39t-48 111t37 132t102 121q10 10 38.5 34.5t30.5 26.5z" />
    <glyph glyph-name="circumflexbelowcmb" unicode="&#x32d;" 
d="M-364 -418l282 247h99l190 -247h-87l-151 196h-12l-227 -196h-94z" />
    <glyph glyph-name="brevebelowcmb" unicode="&#x32e;" 
d="M-294 -136h69q-14 -80 32 -130.5t139 -50.5t153.5 50t74.5 131h68q-15 -97 -94 -169.5t-208 -72.5q-130 0 -190.5 71.5t-43.5 170.5z" />
    <glyph glyph-name="tildebelowcmb" unicode="&#x330;" 
d="M69 -414q-53 0 -90 25t-73 74q-42 59 -62 75q-28 23 -60 23q-84 0 -109 -140h-72q11 103 58.5 156.5t127.5 53.5q30 0 55.5 -9.5t47.5 -31t34.5 -36.5t33.5 -44q52 -77 113 -77q45 0 78 38.5t46 107.5h71q-8 -93 -64 -154t-135 -61z" />
    <glyph glyph-name="macronbelowcmb" unicode="&#x331;" 
d="M250 -210l-11 -59h-588l11 59h588z" />
    <glyph glyph-name="Delta" unicode="&#x394;" horiz-adv-x="1193" 
d="M1128 0h-1063l726 1360h89zM194 75h836l-206 1184h-6z" />
    <glyph glyph-name="Omega" unicode="&#x3a9;" horiz-adv-x="1358" 
d="M786 0l19 129q150 18 258.5 135t141.5 311l32 185q12 70 12 133q0 191 -113.5 306.5t-294.5 115.5q-179 0 -304 -120t-162 -330l-33 -186q-12 -67 -12 -134q0 -342 253 -416l-21 -129h-418l12 73h337l6 31q-248 84 -248 440q0 79 13 154l31 171q44 244 187.5 383
t361.5 139q137 0 246.5 -56t175 -169t65.5 -266q0 -81 -14 -158l-31 -171q-36 -197 -144.5 -321.5t-251.5 -148.5l-5 -28h346l-14 -73h-431z" />
    <glyph glyph-name="mu" unicode="&#x3bc;" horiz-adv-x="1208" 
d="M304 155l-83 -487h-82l240 1367h81l-113 -643q-7 -47 -7 -81q0 -114 73 -183.5t197 -69.5q138 0 228.5 93.5t114.5 226.5l115 657h80l-149 -850q-10 -59 9 -91t64 -32q34 0 61 11l-12 -70q-33 -11 -77 -11q-61 0 -96 33t-35 94q0 3 2.5 24t1.5 37h-1q-34 -85 -122 -141
t-202 -56q-109 0 -185 49t-103 123z" />
    <glyph glyph-name="pi" unicode="&#x3c0;" horiz-adv-x="1250" 
d="M1094 1q-45 -5 -92 -5q-68 0 -99 26.5t-32 70.5q0 26 5 49l144 819h-448l-169 -961h-81l169 961h-252l13 74h1111l-13 -74h-248l-142 -806q-4 -20 -4 -38q3 -50 75 -50q50 0 75 4z" />
    <glyph glyph-name="Aringbelow" unicode="&#x1e00;" horiz-adv-x="1186" 
d="M71 0l730 1360h91l246 -1360h-85l-80 461h-567l-242 -461h-93zM834 1259h-6l-384 -728h516zM560 -430q49 0 84 35t35 83q0 50 -34.5 84.5t-84.5 34.5q-47 0 -82 -35t-35 -84q0 -48 35 -83t82 -35zM561 -483q-73 0 -123 50.5t-50 122.5t50 121.5t123 49.5q71 0 121 -49.5
t50 -121.5t-50 -122.5t-121 -50.5z" />
    <glyph glyph-name="aringbelow" unicode="&#x1e01;" horiz-adv-x="1064" 
d="M494 -17q-134 0 -223 75.5t-91 202.5q0 26 1 39q12 135 120 207.5t287 72.5h307l17 97q8 53 8 81q0 105 -71.5 163t-188.5 58q-115 0 -183 -46.5t-81 -106.5h-81q16 91 108 158.5t241 67.5q96 0 170 -29.5t120 -95.5t46 -161q0 -39 -12 -116l-114 -650h-81l26 149l-6 1
q-29 -58 -113 -112.5t-206 -54.5zM263 275q0 -104 70 -160.5t176 -56.5q126 0 221.5 75t118.5 199l33 179h-301q-146 0 -232 -62t-86 -174zM447 -430q49 0 84 35t35 83q0 50 -35 84.5t-84 34.5q-47 0 -82 -35t-35 -84q0 -48 35 -83t82 -35zM448 -483q-73 0 -123 50.5
t-50 122.5t50 121.5t123 49.5q71 0 121 -49.5t50 -121.5t-50 -122.5t-121 -50.5z" />
    <glyph glyph-name="Bdotaccent" unicode="&#x1e02;" horiz-adv-x="1250" 
d="M215 0l239 1360h431q171 0 261 -86t90 -222q0 -142 -91 -236t-216 -110l-1 -5q127 -18 203 -95t76 -213q0 -188 -145.5 -290.5t-383.5 -102.5h-463zM524 1286l-98 -550h337q74 0 142 19t123 55.5t88 96.5t33 135q0 112 -73 178t-216 66h-336zM414 662l-103 -588h377
q87 0 163.5 18.5t138 56t97 100t35.5 143.5q0 127 -88.5 198.5t-263.5 71.5h-356zM818 1611q0 32 20.5 53t50.5 21q32 0 53.5 -21t21.5 -53q0 -31 -21.5 -51.5t-53.5 -20.5q-29 0 -50 20.5t-21 51.5z" />
    <glyph glyph-name="bdotaccent" unicode="&#x1e03;" horiz-adv-x="1162" 
d="M459 1667q0 32 20.5 53t50.5 21q32 0 53.5 -21t21.5 -53q0 -31 -21.5 -51.5t-53.5 -20.5q-30 0 -50.5 20.5t-20.5 51.5zM666 -17q-126 0 -219.5 68t-121.5 179h-6l-41 -230h-81l250 1416h82l-100 -555h6q37 78 123.5 134.5t202.5 56.5q163 0 264 -104t101 -278
q0 -60 -10 -126l-29 -171q-31 -186 -146 -288t-275 -102zM354 378q4 -150 94.5 -234.5t216.5 -84.5q129 0 223.5 88t121.5 250l28 161q7 46 7 105q0 141 -84 228.5t-216 87.5q-136 0 -231 -93t-118 -223l-37 -210q-5 -29 -5 -75z" />
    <glyph glyph-name="Bdotbelow" unicode="&#x1e04;" horiz-adv-x="1250" 
d="M501 -276q0 30 20 50.5t49 20.5q31 0 51.5 -20t20.5 -51q0 -30 -20.5 -49.5t-51.5 -19.5q-29 0 -49 19.5t-20 49.5zM215 0l239 1360h431q171 0 261 -86t90 -222q0 -142 -91 -236t-216 -110l-1 -5q127 -18 203 -95t76 -213q0 -188 -145.5 -290.5t-383.5 -102.5h-463z
M524 1286l-98 -550h337q74 0 142 19t123 55.5t88 96.5t33 135q0 112 -73 178t-216 66h-336zM414 662l-103 -588h377q87 0 163.5 18.5t138 56t97 100t35.5 143.5q0 127 -88.5 198.5t-263.5 71.5h-356z" />
    <glyph glyph-name="bdotbelow" unicode="&#x1e05;" horiz-adv-x="1162" 
d="M503 -276q0 30 20 50.5t49 20.5q31 0 51.5 -20t20.5 -51q0 -30 -20.5 -49.5t-51.5 -19.5q-29 0 -49 19.5t-20 49.5zM666 -17q-126 0 -219.5 68t-121.5 179h-6l-41 -230h-81l250 1416h82l-100 -555h6q37 78 123.5 134.5t202.5 56.5q163 0 264 -104t101 -278
q0 -60 -10 -126l-29 -171q-31 -186 -146 -288t-275 -102zM354 378q4 -150 94.5 -234.5t216.5 -84.5q129 0 223.5 88t121.5 250l28 161q7 46 7 105q0 141 -84 228.5t-216 87.5q-136 0 -231 -93t-118 -223l-37 -210q-5 -29 -5 -75z" />
    <glyph glyph-name="Blinebelow" unicode="&#x1e06;" horiz-adv-x="1250" 
d="M215 0l239 1360h431q171 0 261 -86t90 -222q0 -142 -91 -236t-216 -110l-1 -5q127 -18 203 -95t76 -213q0 -188 -145.5 -290.5t-383.5 -102.5h-463zM524 1286l-98 -550h337q74 0 142 19t123 55.5t88 96.5t33 135q0 112 -73 178t-216 66h-336zM414 662l-103 -588h377
q87 0 163.5 18.5t138 56t97 100t35.5 143.5q0 127 -88.5 198.5t-263.5 71.5h-356zM868 -210l-11 -59h-588l11 59h588z" />
    <glyph glyph-name="blinebelow" unicode="&#x1e07;" horiz-adv-x="1162" 
d="M870 -210l-11 -59h-588l11 59h588zM666 -17q-126 0 -219.5 68t-121.5 179h-6l-41 -230h-81l250 1416h82l-100 -555h6q37 78 123.5 134.5t202.5 56.5q163 0 264 -104t101 -278q0 -60 -10 -126l-29 -171q-31 -186 -146 -288t-275 -102zM354 378q4 -150 94.5 -234.5
t216.5 -84.5q129 0 223.5 88t121.5 250l28 161q7 46 7 105q0 141 -84 228.5t-216 87.5q-136 0 -231 -93t-118 -223l-37 -210q-5 -29 -5 -75z" />
    <glyph glyph-name="Ccedillaacute" unicode="&#x1e08;" horiz-adv-x="1287" 
d="M798 1509l310 236h113l-326 -236h-97zM629 -460q-82 0 -150 28l10 62q63 -26 141 -26q56 0 99 26.5t43 82.5q0 83 -135 95l-50 3l10 48l35 118q-177 30 -279 156.5t-102 329.5q0 85 12 155l45 247q43 241 182 383.5t355 142.5q95 0 175 -25.5t132.5 -66t89 -92.5
t52.5 -104.5t16 -102.5q0 -30 -5 -50h-79q3 15 3 47q-1 38 -14 78.5t-43 84t-73 77.5t-110 56t-147 22q-93 0 -171 -35t-133.5 -97t-92.5 -143.5t-54 -178.5l-45 -252q-12 -62 -12 -142q0 -200 109 -311t297 -111q159 0 265 81t129 209h81q0 -1 -2 -12.5t-3 -14.5
q-28 -150 -157.5 -244t-314.5 -95q-7 0 -20 0.5t-19 0.5l-29 -108q78 -4 129.5 -39.5t51.5 -106.5q0 -82 -65.5 -129t-156.5 -47z" />
    <glyph glyph-name="ccedillaacute" unicode="&#x1e09;" horiz-adv-x="1060" 
d="M741 1231h-72l258 315h96zM502 -460q-81 0 -150 28l11 62q63 -26 141 -26q56 0 99 26.5t43 82.5q0 82 -135 95l-50 3l11 48l38 133q-134 25 -213.5 122t-79.5 250q0 74 11 133l26 157q32 192 146.5 295t284.5 103q160 0 262.5 -89t102.5 -229q0 -21 -3 -30h-76q1 6 1 23
q0 108 -80.5 180.5t-208.5 72.5q-138 0 -230.5 -91.5t-119.5 -254.5l-24 -137q-10 -59 -10 -115q0 -155 82 -240t229 -85q121 0 198 55t92 135h81q-19 -116 -119 -190t-258 -74q-19 0 -27 1l-33 -122q78 -4 129.5 -39.5t51.5 -106.5q0 -82 -65.5 -129t-157.5 -47z" />
    <glyph glyph-name="Ddotaccent" unicode="&#x1e0a;" horiz-adv-x="1342" 
d="M809 1611q0 32 20.5 53t50.5 21q32 0 53.5 -21t21.5 -53q0 -31 -21.5 -51.5t-53.5 -20.5q-30 0 -50.5 20.5t-20.5 51.5zM454 1360h350q259 0 387.5 -134t128.5 -365q0 -63 -9 -141q-5 -59 -20 -142q-53 -298 -229 -438t-503 -140h-345zM523 1285l-213 -1210h258
q279 0 436.5 124t204.5 388q14 65 19 132q9 67 9 129q0 205 -112 321t-338 116h-264z" />
    <glyph glyph-name="ddotaccent" unicode="&#x1e0b;" horiz-adv-x="1162" 
d="M1144 1667q0 32 20.5 53t50.5 21q32 0 53.5 -21t21.5 -53q0 -31 -21.5 -51.5t-53.5 -20.5q-29 0 -50 20.5t-21 51.5zM677 1052q128 0 222 -69t121 -176h6l106 609h82l-249 -1416h-81l32 179h-6q-16 -33 -40 -63t-63 -62t-98 -51.5t-129 -19.5q-160 0 -261 102.5
t-101 269.5q0 81 10 138l30 175q32 188 147 286t272 98zM994 659q0 140 -90 230t-223 90q-128 0 -222.5 -85.5t-123.5 -253.5l-28 -160q-8 -50 -8 -106q0 -146 81.5 -231t217.5 -85q140 0 234 92t118 224l37 210q7 36 7 75z" />
    <glyph glyph-name="Ddotbelow" unicode="&#x1e0c;" horiz-adv-x="1342" 
d="M487 -276q0 30 20 50.5t49 20.5q31 0 51.5 -20t20.5 -51q0 -30 -20.5 -49.5t-51.5 -19.5q-29 0 -49 19.5t-20 49.5zM454 1360h350q259 0 387.5 -134t128.5 -365q0 -63 -9 -141q-5 -59 -20 -142q-53 -298 -229 -438t-503 -140h-345zM523 1285l-213 -1210h258
q279 0 436.5 124t204.5 388q14 65 19 132q9 67 9 129q0 205 -112 321t-338 116h-264z" />
    <glyph glyph-name="ddotbelow" unicode="&#x1e0d;" horiz-adv-x="1162" 
d="M439 -275q0 30 20 50.5t49 20.5q31 0 51.5 -20t20.5 -51q0 -30 -20.5 -49.5t-51.5 -19.5q-29 0 -49 19.5t-20 49.5zM677 1052q128 0 222 -69t121 -176h6l106 609h82l-249 -1416h-81l32 179h-6q-16 -33 -40 -63t-63 -62t-98 -51.5t-129 -19.5q-160 0 -261 102.5
t-101 269.5q0 81 10 138l30 175q32 188 147 286t272 98zM994 659q0 140 -90 230t-223 90q-128 0 -222.5 -85.5t-123.5 -253.5l-28 -160q-8 -50 -8 -106q0 -146 81.5 -231t217.5 -85q140 0 234 92t118 224l37 210q7 36 7 75z" />
    <glyph glyph-name="Dlinebelow" unicode="&#x1e0e;" horiz-adv-x="1342" 
d="M854 -210l-11 -59h-588l11 59h588zM454 1360h350q259 0 387.5 -134t128.5 -365q0 -63 -9 -141q-5 -59 -20 -142q-53 -298 -229 -438t-503 -140h-345zM523 1285l-213 -1210h258q279 0 436.5 124t204.5 388q14 65 19 132q9 67 9 129q0 205 -112 321t-338 116h-264z" />
    <glyph glyph-name="dlinebelow" unicode="&#x1e0f;" horiz-adv-x="1162" 
d="M806 -209l-11 -59h-588l11 59h588zM677 1052q128 0 222 -69t121 -176h6l106 609h82l-249 -1416h-81l32 179h-6q-16 -33 -40 -63t-63 -62t-98 -51.5t-129 -19.5q-160 0 -261 102.5t-101 269.5q0 81 10 138l30 175q32 188 147 286t272 98zM994 659q0 140 -90 230t-223 90
q-128 0 -222.5 -85.5t-123.5 -253.5l-28 -160q-8 -50 -8 -106q0 -146 81.5 -231t217.5 -85q140 0 234 92t118 224l37 210q7 36 7 75z" />
    <glyph glyph-name="Dcommaaccent" unicode="&#x1e10;" horiz-adv-x="1342" 
d="M510 -470h-58l84 327h85zM454 1360h350q259 0 387.5 -134t128.5 -365q0 -63 -9 -141q-5 -59 -20 -142q-53 -298 -229 -438t-503 -140h-345zM523 1285l-213 -1210h258q279 0 436.5 124t204.5 388q14 65 19 132q9 67 9 129q0 205 -112 321t-338 116h-264z" />
    <glyph glyph-name="dcommaaccent" unicode="&#x1e11;" horiz-adv-x="1162" 
d="M462 -469h-58l84 327h85zM677 1052q128 0 222 -69t121 -176h6l106 609h82l-249 -1416h-81l32 179h-6q-16 -33 -40 -63t-63 -62t-98 -51.5t-129 -19.5q-160 0 -261 102.5t-101 269.5q0 81 10 138l30 175q32 188 147 286t272 98zM994 659q0 140 -90 230t-223 90
q-128 0 -222.5 -85.5t-123.5 -253.5l-28 -160q-8 -50 -8 -106q0 -146 81.5 -231t217.5 -85q140 0 234 92t118 224l37 210q7 36 7 75z" />
    <glyph glyph-name="Dcircumflexbelow" unicode="&#x1e12;" horiz-adv-x="1342" 
d="M454 1360h350q259 0 387.5 -134t128.5 -365q0 -63 -9 -141q-5 -59 -20 -142q-53 -298 -229 -438t-503 -140h-345zM523 1285l-213 -1210h258q279 0 436.5 124t204.5 388q14 65 19 132q9 67 9 129q0 205 -112 321t-338 116h-264zM240 -418l282 247h99l190 -247h-87
l-151 196h-12l-227 -196h-94z" />
    <glyph glyph-name="dcircumflexbelow" unicode="&#x1e13;" horiz-adv-x="1162" 
d="M677 1052q128 0 222 -69t121 -176h6l106 609h82l-249 -1416h-81l32 179h-6q-16 -33 -40 -63t-63 -62t-98 -51.5t-129 -19.5q-160 0 -261 102.5t-101 269.5q0 81 10 138l30 175q32 188 147 286t272 98zM994 659q0 140 -90 230t-223 90q-128 0 -222.5 -85.5t-123.5 -253.5
l-28 -160q-8 -50 -8 -106q0 -146 81.5 -231t217.5 -85q140 0 234 92t118 224l37 210q7 36 7 75zM192 -417l282 247h99l190 -247h-87l-151 196h-12l-227 -196h-94z" />
    <glyph glyph-name="Emacrongrave" unicode="&#x1e14;" horiz-adv-x="1113" 
d="M1011 1705h-95l-298 236h110zM1001 75l-11 -75h-776l240 1360h771l-12 -75h-690l-97 -550h657l-13 -75h-658l-103 -585h692zM1156 1579l-11 -58h-587l10 58h588z" />
    <glyph glyph-name="emacrongrave" unicode="&#x1e15;" horiz-adv-x="1073" 
d="M871 1471h-68l-196 315h94zM602 -17q-175 0 -279.5 100.5t-104.5 285.5q0 67 12 137l20 116q31 191 140.5 310.5t292.5 119.5q172 0 268.5 -107.5t90.5 -290.5q0 -45 -20 -143h-712q-13 -75 -13 -133q0 -146 78.5 -233.5t228.5 -87.5q120 0 199.5 53.5t93.5 123.5h80
q-7 -44 -34.5 -87t-72.5 -80.5t-115 -60.5t-153 -23zM955 579q9 33 9 80q6 142 -68 232t-215 90q-138 0 -224.5 -90.5t-121.5 -249.5q-10 -48 -12 -62h632zM1057 1303l-11 -59h-588l11 59h588z" />
    <glyph glyph-name="Emacronacute" unicode="&#x1e16;" horiz-adv-x="1113" 
d="M771 1705l310 236h113l-326 -236h-97zM1001 75l-11 -75h-776l240 1360h771l-12 -75h-690l-97 -550h657l-13 -75h-658l-103 -585h692zM1156 1579l-11 -58h-587l10 58h588z" />
    <glyph glyph-name="emacronacute" unicode="&#x1e17;" horiz-adv-x="1073" 
d="M786 1471h-72l258 315h96zM602 -17q-175 0 -279.5 100.5t-104.5 285.5q0 67 12 137l20 116q31 191 140.5 310.5t292.5 119.5q172 0 268.5 -107.5t90.5 -290.5q0 -45 -20 -143h-712q-13 -75 -13 -133q0 -146 78.5 -233.5t228.5 -87.5q120 0 199.5 53.5t93.5 123.5h80
q-7 -44 -34.5 -87t-72.5 -80.5t-115 -60.5t-153 -23zM955 579q9 33 9 80q6 142 -68 232t-215 90q-138 0 -224.5 -90.5t-121.5 -249.5q-10 -48 -12 -62h632zM1057 1303l-11 -59h-588l11 59h588z" />
    <glyph glyph-name="Ecircumflexbelow" unicode="&#x1e18;" horiz-adv-x="1113" 
d="M1001 75l-11 -75h-776l240 1360h771l-12 -75h-690l-97 -550h657l-13 -75h-658l-103 -585h692zM225 -418l282 247h99l190 -247h-87l-151 196h-12l-227 -196h-94z" />
    <glyph glyph-name="ecircumflexbelow" unicode="&#x1e19;" horiz-adv-x="1073" 
d="M602 -17q-175 0 -279.5 100.5t-104.5 285.5q0 67 12 137l20 116q31 191 140.5 310.5t292.5 119.5q172 0 268.5 -107.5t90.5 -290.5q0 -45 -20 -143h-712q-13 -75 -13 -133q0 -146 78.5 -233.5t228.5 -87.5q120 0 199.5 53.5t93.5 123.5h80q-7 -44 -34.5 -87t-72.5 -80.5
t-115 -60.5t-153 -23zM955 579q9 33 9 80q6 142 -68 232t-215 90q-138 0 -224.5 -90.5t-121.5 -249.5q-10 -48 -12 -62h632zM189 -418l282 247h99l190 -247h-87l-151 196h-12l-227 -196h-94z" />
    <glyph glyph-name="Etildebelow" unicode="&#x1e1a;" horiz-adv-x="1113" 
d="M658 -414q-53 0 -90 25t-73 74q-42 59 -62 75q-28 23 -60 23q-84 0 -109 -140h-72q11 103 58.5 156.5t127.5 53.5q30 0 55.5 -9.5t47.5 -31t34.5 -36.5t33.5 -44q53 -77 113 -77q45 0 78 38.5t46 107.5h71q-8 -93 -64 -154t-135 -61zM1001 75l-11 -75h-776l240 1360h771
l-12 -75h-690l-97 -550h657l-13 -75h-658l-103 -585h692z" />
    <glyph glyph-name="etildebelow" unicode="&#x1e1b;" horiz-adv-x="1073" 
d="M622 -414q-53 0 -90 25t-73 74q-42 59 -62 75q-28 23 -60 23q-84 0 -109 -140h-72q11 103 58.5 156.5t127.5 53.5q30 0 55.5 -9.5t47.5 -31t34.5 -36.5t33.5 -44q53 -77 113 -77q45 0 78 38.5t46 107.5h71q-8 -93 -64 -154t-135 -61zM602 -17q-175 0 -279.5 100.5
t-104.5 285.5q0 67 12 137l20 116q31 191 140.5 310.5t292.5 119.5q172 0 268.5 -107.5t90.5 -290.5q0 -45 -20 -143h-712q-13 -75 -13 -133q0 -146 78.5 -233.5t228.5 -87.5q120 0 199.5 53.5t93.5 123.5h80q-7 -44 -34.5 -87t-72.5 -80.5t-115 -60.5t-153 -23zM955 579
q9 33 9 80q6 142 -68 232t-215 90q-138 0 -224.5 -90.5t-121.5 -249.5q-10 -48 -12 -62h632z" />
    <glyph glyph-name="Ecedillabreve" unicode="&#x1e1c;" horiz-adv-x="1113" 
d="M540 0h-326l240 1360h771l-12 -75h-690l-97 -550h657l-13 -75h-658l-103 -585h692l-11 -75h-382l-37 -138q78 -4 129.5 -39.5t51.5 -106.5q0 -82 -66 -129t-157 -47q-81 0 -150 28l11 62q63 -26 141 -26q56 0 99 26.5t43 82.5q0 82 -135 95l-50 3l10 48zM610 1714h68
q-11 -77 38.5 -121.5t142.5 -44.5q95 0 154 44.5t72 121.5h69q-14 -103 -90.5 -166t-214.5 -63q-131 0 -193.5 66.5t-45.5 162.5z" />
    <glyph glyph-name="ecedillabreve" unicode="&#x1e1d;" horiz-adv-x="1073" 
d="M518 1444h66q-3 -80 48.5 -131t136.5 -51q95 0 150.5 51t65.5 131h67q-12 -104 -85 -174t-200 -70q-112 0 -183 69.5t-66 174.5zM955 579q9 33 9 80q6 142 -68 232t-215 90q-138 0 -224.5 -90.5t-121.5 -249.5q-10 -48 -12 -62h632zM509 -460q-82 0 -150 28l10 62
q63 -26 141 -26q56 0 99 26.5t43 82.5q0 83 -135 95l-50 3l11 48l38 131q-139 23 -218.5 120.5t-79.5 258.5q0 67 12 137l20 116q31 191 140.5 310.5t292.5 119.5q172 0 268.5 -107.5t90.5 -290.5q0 -45 -20 -143h-712q-13 -75 -13 -133q0 -146 78.5 -233.5t228.5 -87.5
q120 0 199.5 53.5t93.5 123.5h80q-15 -95 -114 -172.5t-258 -78.5q-15 0 -22 1l-33 -122q78 -4 129.5 -39.5t51.5 -106.5q0 -82 -65.5 -129t-156.5 -47z" />
    <glyph glyph-name="Fdotaccent" unicode="&#x1e1e;" horiz-adv-x="1070" 
d="M791 1611q0 32 20.5 53t50.5 21q32 0 53.5 -21t21.5 -53q0 -31 -21.5 -51.5t-53.5 -20.5q-30 0 -50.5 20.5t-20.5 51.5zM297 0h-83l240 1360h766l-14 -75h-683l-100 -564h629l-13 -75h-629z" />
    <glyph glyph-name="fdotaccent" unicode="&#x1e1f;" horiz-adv-x="655" 
d="M658 1676q0 32 20.5 53t50.5 21q32 0 53.5 -21t21.5 -53q0 -31 -21.5 -51.5t-53.5 -20.5q-29 0 -50 21t-21 51zM227 0l170 960h-188l13 70h187l22 127q22 128 93.5 198t212.5 70q83 0 125 -14l-14 -70q-44 11 -110 11q-98 0 -152 -46.5t-73 -149.5l-23 -126h282l-13 -70
h-282l-168 -960h-82z" />
    <glyph glyph-name="Gmacron" unicode="&#x1e20;" horiz-adv-x="1322" 
d="M308 865q43 240 185 383t362 143q118 0 211.5 -37t146.5 -95.5t80 -123t27 -127.5q0 -30 -5 -50h-79q3 20 3 46q-1 37 -13.5 77t-42.5 82t-73 75.5t-110.5 54.5t-148.5 21q-124 0 -222 -61t-156 -161t-82 -231l-45 -252q-12 -70 -12 -142q0 -200 110.5 -311.5
t300.5 -111.5q70 0 133 17t119.5 53t96.5 99.5t55 149.5l41 235h-405l13 75h485l-54 -322q-18 -103 -67 -180t-118.5 -119.5t-145 -62.5t-159.5 -20q-223 0 -356 130.5t-133 363.5q0 82 14 155zM1212 1579l-11 -58h-587l10 58h588z" />
    <glyph glyph-name="gmacron" unicode="&#x1e21;" horiz-adv-x="1155" 
d="M1056 1304l-11 -59h-588l11 59h588zM667 1052q71 0 132.5 -23.5t102 -61.5t66.5 -79t36 -81h6l39 228h81l-181 -1033q-17 -98 -57 -170t-97.5 -113.5t-125.5 -61t-149 -19.5q-160 0 -260.5 78.5t-100.5 199.5q0 25 2 32h78q-1 -8 -1 -30q0 -86 78.5 -146.5t209.5 -60.5
q61 0 113 15t100.5 48.5t83 96t50.5 148.5l35 203h-6q-16 -34 -41.5 -64.5t-64 -60.5t-95.5 -48t-125 -18q-153 0 -255.5 103.5t-102.5 267.5q0 81 11 144l20 117q17 99 58 175t97.5 122t123 69t139.5 23zM977 661q0 135 -88 226.5t-221 91.5q-124 0 -218 -86.5t-124 -255.5
l-18 -104q-10 -57 -10 -111q0 -147 82 -232.5t215 -85.5q135 0 228.5 91.5t117.5 221.5l28 157q8 45 8 87z" />
    <glyph glyph-name="Hdotaccent" unicode="&#x1e22;" horiz-adv-x="1391" 
d="M297 0h-83l240 1360h82l-108 -609h798l108 609h82l-239 -1360h-81l117 677h-797zM899 1611q0 32 20.5 53t50.5 21q32 0 53.5 -21t21.5 -53q0 -31 -21.5 -51.5t-53.5 -20.5q-30 0 -50.5 20.5t-20.5 51.5z" />
    <glyph glyph-name="hdotaccent" unicode="&#x1e23;" horiz-adv-x="1161" 
d="M199 0l248 1416h82l-100 -560h6q38 85 124.5 140.5t202.5 55.5q146 0 239 -89t93 -230q0 -57 -11 -116l-108 -617h-82l109 619q9 43 9 100q0 114 -73 187t-193 73q-140 0 -232.5 -94t-116.5 -227l-115 -658h-82zM460 1667q0 32 20.5 53t50.5 21q32 0 53.5 -21t21.5 -53
q0 -31 -21.5 -51.5t-53.5 -20.5q-29 0 -50 20.5t-21 51.5z" />
    <glyph glyph-name="Hdotbelow" unicode="&#x1e24;" horiz-adv-x="1391" 
d="M297 0h-83l240 1360h82l-108 -609h798l108 609h82l-239 -1360h-81l117 677h-797zM571 -276q0 30 20 50.5t49 20.5q31 0 51.5 -20t20.5 -51q0 -30 -20.5 -49.5t-51.5 -19.5q-29 0 -49 19.5t-20 49.5z" />
    <glyph glyph-name="hdotbelow" unicode="&#x1e25;" horiz-adv-x="1161" 
d="M199 0l248 1416h82l-100 -560h6q38 85 124.5 140.5t202.5 55.5q146 0 239 -89t93 -230q0 -57 -11 -116l-108 -617h-82l109 619q9 43 9 100q0 114 -73 187t-193 73q-140 0 -232.5 -94t-116.5 -227l-115 -658h-82zM463 -276q0 30 20 50.5t49 20.5q31 0 51.5 -20t20.5 -51
q0 -30 -20.5 -49.5t-51.5 -19.5q-29 0 -49 19.5t-20 49.5z" />
    <glyph glyph-name="Hdieresis" unicode="&#x1e26;" horiz-adv-x="1391" 
d="M297 0h-83l240 1360h82l-108 -609h798l108 609h82l-239 -1360h-81l117 677h-797zM729 1572q0 27 19 45.5t46 18.5q26 0 45 -18.5t19 -45.5q0 -26 -19 -44.5t-45 -18.5q-27 0 -46 18.5t-19 44.5zM1068 1572q0 27 19 45.5t45 18.5q27 0 46 -18.5t19 -45.5q0 -26 -19 -44.5
t-46 -18.5q-26 0 -45 18.5t-19 44.5z" />
    <glyph glyph-name="hdieresis" unicode="&#x1e27;" horiz-adv-x="1161" 
d="M199 0l248 1416h82l-100 -560h6q38 85 124.5 140.5t202.5 55.5q146 0 239 -89t93 -230q0 -57 -11 -116l-108 -617h-82l109 619q9 43 9 100q0 114 -73 187t-193 73q-140 0 -232.5 -94t-116.5 -227l-115 -658h-82zM318 1695q0 29 21 49.5t50 20.5q31 0 52 -20.5t21 -49.5
q0 -30 -21 -51t-52 -21q-29 0 -50 21t-21 51zM613 1695q0 29 21 49.5t50 20.5q31 0 52.5 -20.5t21.5 -49.5q0 -30 -21.5 -51t-52.5 -21q-29 0 -50 21t-21 51z" />
    <glyph glyph-name="Hcedilla" unicode="&#x1e28;" horiz-adv-x="1391" 
d="M228 0h-14l240 1360h82l-108 -609h798l108 609h82l-239 -1360h-81l117 677h-797l-119 -677l-38 -138q78 -4 130 -39.5t52 -106.5q0 -82 -66 -129t-157 -47q-81 0 -150 28l10 62q65 -26 142 -26q56 0 99 26.5t43 82.5q0 82 -135 95l-50 3l11 48z" />
    <glyph glyph-name="hcedilla" unicode="&#x1e29;" horiz-adv-x="1161" 
d="M213 0h-14l248 1416h82l-100 -560h6q38 85 124.5 140.5t202.5 55.5q146 0 239 -89t93 -230q0 -57 -11 -116l-108 -617h-82l109 619q9 43 9 100q0 114 -73 187t-193 73q-140 0 -232.5 -94t-116.5 -227l-115 -658l-37 -138q78 -4 129.5 -39.5t51.5 -106.5q0 -82 -66 -129
t-157 -47q-81 0 -150 28l11 62q63 -26 141 -26q56 0 99 26.5t43 82.5q0 82 -135 95l-50 3l11 48z" />
    <glyph glyph-name="Hbrevebelow" unicode="&#x1e2a;" horiz-adv-x="1391" 
d="M394 -136q-17 -99 43.5 -170.5t190.5 -71.5q129 0 208 72.5t94 169.5h-68q-14 -81 -74.5 -131t-153.5 -50t-139 50.5t-32 130.5h-69zM297 0h-83l240 1360h82l-108 -609h798l108 609h82l-239 -1360h-81l117 677h-797z" />
    <glyph glyph-name="hbrevebelow" unicode="&#x1e2b;" horiz-adv-x="1161" 
d="M286 -136q-17 -99 43.5 -170.5t190.5 -71.5q129 0 208 72.5t94 169.5h-68q-14 -81 -74.5 -131t-153.5 -50t-139 50.5t-32 130.5h-69zM199 0l248 1416h82l-100 -560h6q38 85 124.5 140.5t202.5 55.5q146 0 239 -89t93 -230q0 -57 -11 -116l-108 -617h-82l109 619
q9 43 9 100q0 114 -73 187t-193 73q-140 0 -232.5 -94t-116.5 -227l-115 -658h-82z" />
    <glyph glyph-name="Itildebelow" unicode="&#x1e2c;" horiz-adv-x="520" 
d="M301 0h-82l239 1360h83zM329 -414q-53 0 -90 25t-73 74q-42 59 -62 75q-28 23 -60 23q-84 0 -109 -140h-72q11 103 58.5 156.5t127.5 53.5q30 0 55.5 -9.5t47.5 -31t34.5 -36.5t33.5 -44q52 -77 113 -77q45 0 78 38.5t46 107.5h71q-8 -93 -64 -154t-135 -61z" />
    <glyph glyph-name="itildebelow" unicode="&#x1e2d;" horiz-adv-x="511" 
d="M215 0l182 1035h82l-182 -1035h-82zM402 1340q0 31 22 52.5t52 21.5q32 0 54 -21.5t22 -52.5q0 -32 -22 -53.5t-54 -21.5q-30 0 -52 22t-22 53zM324 -414q-53 0 -90 25t-73 74q-42 59 -62 75q-28 23 -60 23q-84 0 -109 -140h-72q11 103 58.5 156.5t127.5 53.5
q30 0 55.5 -9.5t47.5 -31t34.5 -36.5t33.5 -44q53 -77 113 -77q45 0 78 38.5t46 107.5h71q-8 -93 -64 -154t-135 -61z" />
    <glyph glyph-name="Idieresisacute" unicode="&#x1e2e;" horiz-adv-x="520" 
d="M301 0h-82l239 1360h83zM446 1705l310 236h113l-326 -236h-97zM301 1572q0 27 19 45.5t46 18.5q26 0 45 -18.5t19 -45.5q0 -26 -19 -44.5t-45 -18.5q-27 0 -46 18.5t-19 44.5zM640 1572q0 27 19 45.5t45 18.5q27 0 46 -18.5t19 -45.5q0 -26 -19 -44.5t-46 -18.5
q-26 0 -45 18.5t-19 44.5z" />
    <glyph glyph-name="idieresisacute" unicode="&#x1e2f;" horiz-adv-x="518" 
d="M501 1471h-72l258 315h96zM215 0l183 1035h81l-182 -1035h-82zM268 1314q0 29 21 49.5t50 20.5q31 0 52 -20.5t21 -49.5q0 -30 -21 -51t-52 -21q-29 0 -50 21t-21 51zM563 1314q0 29 21 49.5t50 20.5q31 0 52.5 -20.5t21.5 -49.5q0 -30 -21.5 -51t-52.5 -21q-29 0 -50 21
t-21 51z" />
    <glyph glyph-name="Kacute" unicode="&#x1e30;" horiz-adv-x="1180" 
d="M738 1509l310 236h113l-326 -236h-97zM536 1360l-130 -730h4l812 730h109l-675 -612l462 -748h-98l-428 699l-204 -180l-91 -519h-83l240 1360h82z" />
    <glyph glyph-name="kacute" unicode="&#x1e31;" horiz-adv-x="1026" 
d="M347 440l-77 -440h-82l250 1416h81l-153 -874h5l634 507h116l-543 -433l373 -616h-95l-341 572zM501 1612h-72l258 315h96z" />
    <glyph glyph-name="Kdotbelow" unicode="&#x1e32;" horiz-adv-x="1180" 
d="M473 -276q0 30 20 50.5t49 20.5q31 0 51.5 -20t20.5 -51q0 -30 -20.5 -49.5t-51.5 -19.5q-29 0 -49 19.5t-20 49.5zM536 1360l-130 -730h4l812 730h109l-675 -612l462 -748h-98l-428 699l-204 -180l-91 -519h-83l240 1360h82z" />
    <glyph glyph-name="kdotbelow" unicode="&#x1e33;" horiz-adv-x="1026" 
d="M431 -276q0 30 20 50.5t49 20.5q31 0 51.5 -20t20.5 -51q0 -30 -20.5 -49.5t-51.5 -19.5q-29 0 -49 19.5t-20 49.5zM347 440l-77 -440h-82l250 1416h81l-153 -874h5l634 507h116l-543 -433l373 -616h-95l-341 572z" />
    <glyph glyph-name="Klinebelow" unicode="&#x1e34;" horiz-adv-x="1180" 
d="M536 1360l-130 -730h4l812 730h109l-675 -612l462 -748h-98l-428 699l-204 -180l-91 -519h-83l240 1360h82zM840 -210l-11 -59h-588l11 59h588z" />
    <glyph glyph-name="klinebelow" unicode="&#x1e35;" horiz-adv-x="1026" 
d="M347 440l-77 -440h-82l250 1416h81l-153 -874h5l634 507h116l-543 -433l373 -616h-95l-341 572zM798 -210l-11 -59h-588l11 59h588z" />
    <glyph glyph-name="Ldotbelow" unicode="&#x1e36;" horiz-adv-x="1030" 
d="M433 -276q0 30 20 50.5t49 20.5q31 0 51.5 -20t20.5 -51q0 -30 -20.5 -49.5t-51.5 -19.5q-29 0 -49 19.5t-20 49.5zM983 74l-13 -74h-756l240 1360h82l-227 -1286h674z" />
    <glyph glyph-name="ldotbelow" unicode="&#x1e37;" horiz-adv-x="514" 
d="M140 -276q0 30 20 50.5t49 20.5q31 0 51.5 -20t20.5 -51q0 -30 -20.5 -49.5t-51.5 -19.5q-29 0 -49 19.5t-20 49.5zM218 0l246 1416h82l-246 -1416h-82z" />
    <glyph glyph-name="Ldotbelowmacron" unicode="&#x1e38;" horiz-adv-x="1030" 
d="M433 -276q0 30 20 50.5t49 20.5q31 0 51.5 -20t20.5 -51q0 -30 -20.5 -49.5t-51.5 -19.5q-29 0 -49 19.5t-20 49.5zM983 74l-13 -74h-756l240 1360h82l-227 -1286h674zM824 1579l-11 -58h-587l10 58h588z" />
    <glyph glyph-name="ldotbelowmacron" unicode="&#x1e39;" horiz-adv-x="514" 
d="M140 -276q0 30 20 50.5t49 20.5q31 0 51.5 -20t20.5 -51q0 -30 -20.5 -49.5t-51.5 -19.5q-29 0 -49 19.5t-20 49.5zM218 0l246 1416h82l-246 -1416h-82zM841 1684l-11 -59h-588l11 59h588z" />
    <glyph glyph-name="Llinebelow" unicode="&#x1e3a;" horiz-adv-x="1030" 
d="M800 -210l-11 -59h-588l11 59h588zM983 74l-13 -74h-756l240 1360h82l-227 -1286h674z" />
    <glyph glyph-name="llinebelow" unicode="&#x1e3b;" horiz-adv-x="514" 
d="M507 -210l-11 -59h-588l11 59h588zM218 0l246 1416h82l-246 -1416h-82z" />
    <glyph glyph-name="Lcircumflexbelow" unicode="&#x1e3c;" horiz-adv-x="1030" 
d="M983 74l-13 -74h-756l240 1360h82l-227 -1286h674zM186 -418l282 247h99l190 -247h-87l-151 196h-12l-227 -196h-94z" />
    <glyph glyph-name="lcircumflexbelow" unicode="&#x1e3d;" horiz-adv-x="514" 
d="M218 0l246 1416h82l-246 -1416h-82zM-107 -418l282 247h99l190 -247h-87l-151 196h-12l-227 -196h-94z" />
    <glyph glyph-name="Macute" unicode="&#x1e3e;" horiz-adv-x="1622" 
d="M959 1509l310 236h113l-326 -236h-97zM292 0h-78l240 1360h82l307 -1141h5l709 1141h90l-239 -1360h-78l207 1186h-5l-667 -1069h-69l-290 1069h-6z" />
    <glyph glyph-name="macute" unicode="&#x1e3f;" horiz-adv-x="1729" 
d="M1076 1231h-72l258 315h96zM197 0l181 1035h81l-32 -179h6q39 87 118 141.5t183 54.5q66 0 119.5 -20t87.5 -53t55 -70t31 -77h6q11 32 34 66t60.5 71t96.5 60t129 23q138 0 221.5 -83.5t83.5 -222.5q0 -61 -11 -120l-108 -626h-82l109 629q9 57 9 100q0 114 -61.5 182
t-171.5 68q-68 0 -123.5 -27.5t-93.5 -76t-62 -108.5t-37 -131l-112 -636h-81l110 639q8 38 8 92q0 122 -67.5 185t-166.5 63q-89 0 -159.5 -49t-110.5 -124t-56 -167l-112 -639h-82z" />
    <glyph glyph-name="Mdotaccent" unicode="&#x1e40;" horiz-adv-x="1622" 
d="M1019 1611q0 32 20.5 53t50.5 21q32 0 53.5 -21t21.5 -53q0 -31 -21.5 -51.5t-53.5 -20.5q-30 0 -50.5 20.5t-20.5 51.5zM292 0h-78l240 1360h82l307 -1141h5l709 1141h90l-239 -1360h-78l207 1186h-5l-667 -1069h-69l-290 1069h-6z" />
    <glyph glyph-name="mdotaccent" unicode="&#x1e41;" horiz-adv-x="1729" 
d="M1027 1286q0 32 20.5 53t50.5 21q32 0 53.5 -21t21.5 -53q0 -31 -21.5 -51.5t-53.5 -20.5q-30 0 -50.5 21t-20.5 51zM197 0l181 1035h81l-32 -179h6q39 87 118 141.5t183 54.5q66 0 119.5 -20t87.5 -53t55 -70t31 -77h6q11 32 34 66t60.5 71t96.5 60t129 23
q138 0 221.5 -83.5t83.5 -222.5q0 -61 -11 -120l-108 -626h-82l109 629q9 57 9 100q0 114 -61.5 182t-171.5 68q-68 0 -123.5 -27.5t-93.5 -76t-62 -108.5t-37 -131l-112 -636h-81l110 639q8 38 8 92q0 122 -67.5 185t-166.5 63q-89 0 -159.5 -49t-110.5 -124t-56 -167
l-112 -639h-82z" />
    <glyph glyph-name="Mdotbelow" unicode="&#x1e42;" horiz-adv-x="1622" 
d="M693 -276q0 30 20 50.5t49 20.5q31 0 51.5 -20t20.5 -51q0 -30 -20.5 -49.5t-51.5 -19.5q-29 0 -49 19.5t-20 49.5zM292 0h-78l240 1360h82l307 -1141h5l709 1141h90l-239 -1360h-78l207 1186h-5l-667 -1069h-69l-290 1069h-6z" />
    <glyph glyph-name="mdotbelow" unicode="&#x1e43;" horiz-adv-x="1729" 
d="M755 -276q0 30 20 50.5t49 20.5q31 0 51.5 -20t20.5 -51q0 -30 -20.5 -49.5t-51.5 -19.5q-29 0 -49 19.5t-20 49.5zM197 0l181 1035h81l-32 -179h6q39 87 118 141.5t183 54.5q66 0 119.5 -20t87.5 -53t55 -70t31 -77h6q11 32 34 66t60.5 71t96.5 60t129 23
q138 0 221.5 -83.5t83.5 -222.5q0 -61 -11 -120l-108 -626h-82l109 629q9 57 9 100q0 114 -61.5 182t-171.5 68q-68 0 -123.5 -27.5t-93.5 -76t-62 -108.5t-37 -131l-112 -636h-81l110 639q8 38 8 92q0 122 -67.5 185t-166.5 63q-89 0 -159.5 -49t-110.5 -124t-56 -167
l-112 -639h-82z" />
    <glyph glyph-name="Ndotaccent" unicode="&#x1e44;" horiz-adv-x="1401" 
d="M916 1611q0 32 20.5 53t50.5 21q32 0 53.5 -21t21.5 -53q0 -31 -21.5 -51.5t-53.5 -20.5q-29 0 -50 20.5t-21 51.5zM1187 0h-76l-595 1218h-5l-214 -1218h-83l240 1360h80l590 -1218h5l215 1218h82z" />
    <glyph glyph-name="ndotaccent" unicode="&#x1e45;" horiz-adv-x="1157" 
d="M735 1286q0 32 20.5 53t50.5 21q32 0 53.5 -21t21.5 -53q0 -31 -21.5 -51.5t-53.5 -20.5q-30 0 -50.5 21t-20.5 51zM197 0l181 1035h81l-32 -179h6q39 86 125 141t200 55q145 0 236.5 -89.5t91.5 -229.5q0 -57 -11 -116l-108 -617h-82l109 619q9 45 9 99
q0 114 -72.5 187.5t-190.5 73.5q-139 0 -231 -94.5t-115 -226.5l-115 -658h-82z" />
    <glyph glyph-name="Ndotbelow" unicode="&#x1e46;" horiz-adv-x="1401" 
d="M587 -276q0 30 20 50.5t49 20.5q31 0 51.5 -20t20.5 -51q0 -30 -20.5 -49.5t-51.5 -19.5q-29 0 -49 19.5t-20 49.5zM1187 0h-76l-595 1218h-5l-214 -1218h-83l240 1360h80l590 -1218h5l215 1218h82z" />
    <glyph glyph-name="ndotbelow" unicode="&#x1e47;" horiz-adv-x="1157" 
d="M462 -276q0 30 20 50.5t49 20.5q31 0 51.5 -20t20.5 -51q0 -30 -20.5 -49.5t-51.5 -19.5q-29 0 -49 19.5t-20 49.5zM197 0l181 1035h81l-32 -179h6q39 86 125 141t200 55q145 0 236.5 -89.5t91.5 -229.5q0 -57 -11 -116l-108 -617h-82l109 619q9 45 9 99
q0 114 -72.5 187.5t-190.5 73.5q-139 0 -231 -94.5t-115 -226.5l-115 -658h-82z" />
    <glyph glyph-name="Nlinebelow" unicode="&#x1e48;" horiz-adv-x="1401" 
d="M954 -210l-11 -59h-588l11 59h588zM1187 0h-76l-595 1218h-5l-214 -1218h-83l240 1360h80l590 -1218h5l215 1218h82z" />
    <glyph glyph-name="nlinebelow" unicode="&#x1e49;" horiz-adv-x="1157" 
d="M829 -210l-11 -59h-588l11 59h588zM197 0l181 1035h81l-32 -179h6q39 86 125 141t200 55q145 0 236.5 -89.5t91.5 -229.5q0 -57 -11 -116l-108 -617h-82l109 619q9 45 9 99q0 114 -72.5 187.5t-190.5 73.5q-139 0 -231 -94.5t-115 -226.5l-115 -658h-82z" />
    <glyph glyph-name="Ncircumflexbelow" unicode="&#x1e4a;" horiz-adv-x="1401" 
d="M1187 0h-76l-595 1218h-5l-214 -1218h-83l240 1360h80l590 -1218h5l215 1218h82zM340 -418l282 247h99l190 -247h-87l-151 196h-12l-227 -196h-94z" />
    <glyph glyph-name="ncircumflexbelow" unicode="&#x1e4b;" horiz-adv-x="1157" 
d="M197 0l181 1035h81l-32 -179h6q39 86 125 141t200 55q145 0 236.5 -89.5t91.5 -229.5q0 -57 -11 -116l-108 -617h-82l109 619q9 45 9 99q0 114 -72.5 187.5t-190.5 73.5q-139 0 -231 -94.5t-115 -226.5l-115 -658h-82zM215 -418l282 247h99l190 -247h-87l-151 196h-12
l-227 -196h-94z" />
    <glyph glyph-name="Otildeacute" unicode="&#x1e4c;" horiz-adv-x="1356" 
d="M858 1705l310 236h113l-326 -236h-97zM388 863l-45 -253q-13 -76 -13 -138q0 -190 115.5 -308t303.5 -118q183 0 305.5 122.5t158.5 334.5l44 256q11 62 11 132q0 187 -115.5 305t-300.5 118q-180 0 -303 -119t-161 -332zM262 625l44 242q43 243 187 383.5t361 140.5
q139 0 251 -57t179.5 -171.5t67.5 -269.5q0 -78 -14 -156l-44 -243q-44 -248 -187 -386.5t-365 -138.5q-137 0 -248 57t-178.5 170t-67.5 263q0 85 14 166zM913 1560q-23 28 -33.5 39.5t-31 24.5t-40.5 13q-91 0 -91 -134h-65q0 90 40.5 141t116.5 51q44 0 78 -20.5
t72 -67.5q27 -35 49.5 -50.5t53.5 -15.5q43 0 71 40.5t29 102.5h65q0 -84 -46.5 -141t-116.5 -57q-53 0 -84.5 17t-66.5 57z" />
    <glyph glyph-name="otildeacute" unicode="&#x1e4d;" horiz-adv-x="1124" 
d="M811 1471h-72l258 315h96zM916 1185q-53 0 -90.5 25t-71.5 74q-24 34 -35 48t-36 31.5t-51 17.5q-44 0 -70.5 -34t-39.5 -106h-72q11 103 58.5 156.5t127.5 53.5q39 0 74 -20.5t52.5 -41.5t44.5 -58q54 -77 114 -77q45 0 78 38.5t46 107.5h71q-9 -93 -65 -154t-135 -61z
M331 625l-24 -129q-10 -55 -10 -111q0 -145 86.5 -236.5t229.5 -91.5q140 0 236.5 94t125.5 263l23 131q9 49 9 112q0 141 -86 231t-229 90q-133 0 -230.5 -86.5t-130.5 -266.5zM226 498l26 146q36 203 156 305.5t285 102.5q81 0 151 -24t125.5 -71.5t87 -125.5t31.5 -178
q0 -57 -9 -114l-26 -147q-34 -199 -153 -304t-293 -105q-173 0 -282 106t-109 290q0 54 10 119z" />
    <glyph glyph-name="Otildedieresis" unicode="&#x1e4e;" horiz-adv-x="1356" 
d="M755 1821q0 27 19 45.5t46 18.5q26 0 45 -18.5t19 -45.5q0 -26 -19 -44.5t-45 -18.5q-27 0 -46 18.5t-19 44.5zM1094 1821q0 27 19 45.5t45 18.5q27 0 46 -18.5t19 -45.5q0 -26 -19 -44.5t-46 -18.5q-26 0 -45 18.5t-19 44.5zM388 863l-45 -253q-13 -76 -13 -138
q0 -190 115.5 -308t303.5 -118q183 0 305.5 122.5t158.5 334.5l44 256q11 62 11 132q0 187 -115.5 305t-300.5 118q-180 0 -303 -119t-161 -332zM262 625l44 242q43 243 187 383.5t361 140.5q139 0 251 -57t179.5 -171.5t67.5 -269.5q0 -78 -14 -156l-44 -243
q-44 -248 -187 -386.5t-365 -138.5q-137 0 -248 57t-178.5 170t-67.5 263q0 85 14 166zM913 1560q-23 28 -33.5 39.5t-31 24.5t-40.5 13q-91 0 -91 -134h-65q0 90 40.5 141t116.5 51q44 0 78 -20.5t72 -67.5q27 -35 49.5 -50.5t53.5 -15.5q43 0 71 40.5t29 102.5h65
q0 -84 -46.5 -141t-116.5 -57q-53 0 -84.5 17t-66.5 57z" />
    <glyph glyph-name="otildedieresis" unicode="&#x1e4f;" horiz-adv-x="1124" 
d="M916 1185q-53 0 -90.5 25t-71.5 74q-24 34 -35 48t-36 31.5t-51 17.5q-44 0 -70.5 -34t-39.5 -106h-72q11 103 58.5 156.5t127.5 53.5q39 0 74 -20.5t52.5 -41.5t44.5 -58q54 -77 114 -77q45 0 78 38.5t46 107.5h71q-9 -93 -65 -154t-135 -61zM626 1592q0 29 21 49.5
t50 20.5q31 0 52 -20.5t21 -49.5q0 -30 -21 -51t-52 -21q-29 0 -50 21t-21 51zM921 1592q0 29 21 49.5t50 20.5q31 0 52.5 -20.5t21.5 -49.5q0 -30 -21.5 -51t-52.5 -21q-29 0 -50 21t-21 51zM331 625l-24 -129q-10 -55 -10 -111q0 -145 86.5 -236.5t229.5 -91.5
q140 0 236.5 94t125.5 263l23 131q9 49 9 112q0 141 -86 231t-229 90q-133 0 -230.5 -86.5t-130.5 -266.5zM226 498l26 146q36 203 156 305.5t285 102.5q81 0 151 -24t125.5 -71.5t87 -125.5t31.5 -178q0 -57 -9 -114l-26 -147q-34 -199 -153 -304t-293 -105
q-173 0 -282 106t-109 290q0 54 10 119z" />
    <glyph glyph-name="Omacrongrave" unicode="&#x1e50;" horiz-adv-x="1356" 
d="M1098 1705h-95l-298 236h110zM388 863l-45 -253q-13 -76 -13 -138q0 -190 115.5 -308t303.5 -118q183 0 305.5 122.5t158.5 334.5l44 256q11 62 11 132q0 187 -115.5 305t-300.5 118q-180 0 -303 -119t-161 -332zM262 625l44 242q43 243 187 383.5t361 140.5
q139 0 251 -57t179.5 -171.5t67.5 -269.5q0 -78 -14 -156l-44 -243q-44 -248 -187 -386.5t-365 -138.5q-137 0 -248 57t-178.5 170t-67.5 263q0 85 14 166zM1243 1579l-11 -58h-587l10 58h588z" />
    <glyph glyph-name="omacrongrave" unicode="&#x1e51;" horiz-adv-x="1124" 
d="M896 1471h-68l-196 315h94zM1083 1303l-11 -59h-588l11 59h588zM331 625l-24 -129q-10 -55 -10 -111q0 -145 86.5 -236.5t229.5 -91.5q140 0 236.5 94t125.5 263l23 131q9 49 9 112q0 141 -86 231t-229 90q-133 0 -230.5 -86.5t-130.5 -266.5zM226 498l26 146
q36 203 156 305.5t285 102.5q81 0 151 -24t125.5 -71.5t87 -125.5t31.5 -178q0 -57 -9 -114l-26 -147q-34 -199 -153 -304t-293 -105q-173 0 -282 106t-109 290q0 54 10 119z" />
    <glyph glyph-name="Omacronacute" unicode="&#x1e52;" horiz-adv-x="1356" 
d="M858 1705l310 236h113l-326 -236h-97zM388 863l-45 -253q-13 -76 -13 -138q0 -190 115.5 -308t303.5 -118q183 0 305.5 122.5t158.5 334.5l44 256q11 62 11 132q0 187 -115.5 305t-300.5 118q-180 0 -303 -119t-161 -332zM262 625l44 242q43 243 187 383.5t361 140.5
q139 0 251 -57t179.5 -171.5t67.5 -269.5q0 -78 -14 -156l-44 -243q-44 -248 -187 -386.5t-365 -138.5q-137 0 -248 57t-178.5 170t-67.5 263q0 85 14 166zM1243 1579l-11 -58h-587l10 58h588z" />
    <glyph glyph-name="omacronacute" unicode="&#x1e53;" horiz-adv-x="1124" 
d="M811 1471h-72l258 315h96zM1083 1303l-11 -59h-588l11 59h588zM331 625l-24 -129q-10 -55 -10 -111q0 -145 86.5 -236.5t229.5 -91.5q140 0 236.5 94t125.5 263l23 131q9 49 9 112q0 141 -86 231t-229 90q-133 0 -230.5 -86.5t-130.5 -266.5zM226 498l26 146
q36 203 156 305.5t285 102.5q81 0 151 -24t125.5 -71.5t87 -125.5t31.5 -178q0 -57 -9 -114l-26 -147q-34 -199 -153 -304t-293 -105q-173 0 -282 106t-109 290q0 54 10 119z" />
    <glyph glyph-name="Pacute" unicode="&#x1e54;" horiz-adv-x="1170" 
d="M724 1509l310 236h113l-326 -236h-97zM297 0h-83l240 1360h427q172 0 270 -94t98 -241q0 -49 -9 -105q-30 -176 -160.5 -266t-345.5 -90h-338zM865 1286h-343l-114 -649h336q173 0 281.5 74.5t132.5 212.5q7 44 7 90q0 120 -75 196t-225 76z" />
    <glyph glyph-name="pacute" unicode="&#x1e55;" horiz-adv-x="1161" 
d="M664 -17q-126 0 -220 69t-121 178h-6l-101 -580h-82l244 1385h81l-31 -174h6q36 77 122 134t203 57q163 0 264.5 -104t101.5 -278q0 -68 -10 -126l-29 -171q-30 -186 -146 -288t-276 -102zM352 378q4 -150 94.5 -234.5t216.5 -84.5q130 0 224.5 88t122.5 250l27 161
q8 53 8 105q0 141 -84.5 228.5t-217.5 87.5q-136 0 -231 -92.5t-118 -223.5l-37 -210q-5 -29 -5 -75zM777 1231h-72l258 315h96z" />
    <glyph glyph-name="Pdotaccent" unicode="&#x1e56;" horiz-adv-x="1170" 
d="M297 0h-83l240 1360h427q172 0 270 -94t98 -241q0 -49 -9 -105q-30 -176 -160.5 -266t-345.5 -90h-338zM865 1286h-343l-114 -649h336q173 0 281.5 74.5t132.5 212.5q7 44 7 90q0 120 -75 196t-225 76zM783 1611q0 32 20.5 53t50.5 21q32 0 53.5 -21t21.5 -53
q0 -31 -21.5 -51.5t-53.5 -20.5q-30 0 -50.5 20.5t-20.5 51.5z" />
    <glyph glyph-name="pdotaccent" unicode="&#x1e57;" horiz-adv-x="1161" 
d="M664 -17q-126 0 -220 69t-121 178h-6l-101 -580h-82l244 1385h81l-31 -174h6q36 77 122 134t203 57q163 0 264.5 -104t101.5 -278q0 -68 -10 -126l-29 -171q-30 -186 -146 -288t-276 -102zM352 378q4 -150 94.5 -234.5t216.5 -84.5q130 0 224.5 88t122.5 250l27 161
q8 53 8 105q0 141 -84.5 228.5t-217.5 87.5q-136 0 -231 -92.5t-118 -223.5l-37 -210q-5 -29 -5 -75zM728 1286q0 32 20.5 53t50.5 21q32 0 53.5 -21t21.5 -53q0 -31 -21.5 -51.5t-53.5 -20.5q-29 0 -50 21t-21 51z" />
    <glyph glyph-name="Rdotaccent" unicode="&#x1e58;" horiz-adv-x="1223" 
d="M297 0h-83l240 1360h436q176 0 268 -92t92 -241q0 -53 -8 -94q-28 -137 -123 -218t-238 -107l211 -608h-90l-203 597q-42 -3 -80 -3h-318zM872 1287h-349l-110 -620h331q167 0 278.5 73t135.5 207q7 42 7 79q0 114 -72.5 187.5t-220.5 73.5zM783 1611q0 32 20.5 53
t50.5 21q32 0 53.5 -21t21.5 -53q0 -31 -21.5 -51.5t-53.5 -20.5q-30 0 -50.5 20.5t-20.5 51.5z" />
    <glyph glyph-name="rdotaccent" unicode="&#x1e59;" horiz-adv-x="750" 
d="M198 0l180 1035h80l-32 -182h6q36 88 107.5 143.5t180.5 55.5q65 0 119 -19l-19 -77q-40 20 -109 20q-131 0 -213.5 -95t-106.5 -242l-111 -639h-82zM582 1286q0 32 20.5 53t50.5 21q32 0 53.5 -21t21.5 -53q0 -31 -21.5 -51.5t-53.5 -20.5q-29 0 -50 21t-21 51z" />
    <glyph glyph-name="Rdotbelow" unicode="&#x1e5a;" horiz-adv-x="1223" 
d="M456 -276q0 30 20 50.5t49 20.5q31 0 51.5 -20t20.5 -51q0 -30 -20.5 -49.5t-51.5 -19.5q-29 0 -49 19.5t-20 49.5zM297 0h-83l240 1360h436q176 0 268 -92t92 -241q0 -53 -8 -94q-28 -137 -123 -218t-238 -107l211 -608h-90l-203 597q-42 -3 -80 -3h-318zM872 1287h-349
l-110 -620h331q167 0 278.5 73t135.5 207q7 42 7 79q0 114 -72.5 187.5t-220.5 73.5z" />
    <glyph glyph-name="rdotbelow" unicode="&#x1e5b;" horiz-adv-x="750" 
d="M122 -276q0 30 20 50.5t49 20.5q31 0 51.5 -20t20.5 -51q0 -30 -20.5 -49.5t-51.5 -19.5q-29 0 -49 19.5t-20 49.5zM198 0l180 1035h80l-32 -182h6q36 88 107.5 143.5t180.5 55.5q65 0 119 -19l-19 -77q-40 20 -109 20q-131 0 -213.5 -95t-106.5 -242l-111 -639h-82z" />
    <glyph glyph-name="Rdotbelowmacron" unicode="&#x1e5c;" horiz-adv-x="1223" 
d="M456 -276q0 30 20 50.5t49 20.5q31 0 51.5 -20t20.5 -51q0 -30 -20.5 -49.5t-51.5 -19.5q-29 0 -49 19.5t-20 49.5zM297 0h-83l240 1360h436q176 0 268 -92t92 -241q0 -53 -8 -94q-28 -137 -123 -218t-238 -107l211 -608h-90l-203 597q-42 -3 -80 -3h-318zM872 1287h-349
l-110 -620h331q167 0 278.5 73t135.5 207q7 42 7 79q0 114 -72.5 187.5t-220.5 73.5zM1142 1579l-11 -58h-587l10 58h588z" />
    <glyph glyph-name="rdotbelowmacron" unicode="&#x1e5d;" horiz-adv-x="750" 
d="M122 -276q0 30 20 50.5t49 20.5q31 0 51.5 -20t20.5 -51q0 -30 -20.5 -49.5t-51.5 -19.5q-29 0 -49 19.5t-20 49.5zM198 0l180 1035h80l-32 -182h6q36 88 107.5 143.5t180.5 55.5q65 0 119 -19l-19 -77q-40 20 -109 20q-131 0 -213.5 -95t-106.5 -242l-111 -639h-82z
M945 1303l-11 -59h-588l11 59h588z" />
    <glyph glyph-name="Rlinebelow" unicode="&#x1e5e;" horiz-adv-x="1223" 
d="M297 0h-83l240 1360h436q176 0 268 -92t92 -241q0 -53 -8 -94q-28 -137 -123 -218t-238 -107l211 -608h-90l-203 597q-42 -3 -80 -3h-318zM872 1287h-349l-110 -620h331q167 0 278.5 73t135.5 207q7 42 7 79q0 114 -72.5 187.5t-220.5 73.5zM823 -210l-11 -59h-588l11 59
h588z" />
    <glyph glyph-name="rlinebelow" unicode="&#x1e5f;" horiz-adv-x="750" 
d="M198 0l180 1035h80l-32 -182h6q36 88 107.5 143.5t180.5 55.5q65 0 119 -19l-19 -77q-40 20 -109 20q-131 0 -213.5 -95t-106.5 -242l-111 -639h-82zM489 -210l-11 -59h-588l11 59h588z" />
    <glyph glyph-name="Sdotaccent" unicode="&#x1e60;" horiz-adv-x="1198" 
d="M199 381h82q-3 -12 -3 -42q0 -127 105 -211t278 -84q162 0 269 82.5t107 222.5q0 48 -15.5 88t-39 67t-64.5 53t-77.5 42t-93.5 38l-117 45q-138 53 -213 136t-75 211q0 165 124 263t322 98q188 0 308 -94.5t120 -236.5q0 -29 -4 -43h-80q2 12 2 30q0 110 -95 189.5
t-253 79.5q-99 0 -178.5 -31t-129 -96t-49.5 -155q0 -103 62 -167t181 -111l123 -47q63 -24 105.5 -44.5t89 -51t73.5 -64.5t45 -83t18 -108q0 -175 -129 -281.5t-338 -106.5q-214 0 -339.5 104.5t-125.5 259.5q0 30 5 48zM802 1611q0 32 20.5 53t50.5 21q32 0 53.5 -21
t21.5 -53q0 -31 -21.5 -51.5t-53.5 -20.5q-29 0 -50 20.5t-21 51.5z" />
    <glyph glyph-name="sdotaccent" unicode="&#x1e61;" horiz-adv-x="980" 
d="M284 770q0 132 96.5 207.5t249.5 75.5q146 0 247 -73.5t101 -199.5q0 -22 -2 -28h-79q1 7 1 24q0 92 -77 149t-190 57q-112 0 -188 -54.5t-76 -150.5q0 -37 14 -68t34 -51.5t56 -40t66.5 -31t78.5 -27.5q74 -24 119.5 -44t89 -52.5t63.5 -77.5t20 -107
q0 -96 -53.5 -164.5t-136.5 -99.5t-185 -31q-158 0 -268.5 77.5t-110.5 204.5q0 11 3 32h80q-2 -18 -1 -29q3 -99 92 -155.5t208 -56.5q77 0 140.5 22.5t106 72.5t42.5 121q0 28 -7.5 52.5t-17.5 42t-30.5 34t-37 26.5t-47 22.5t-49.5 19t-55 18.5q-54 18 -86.5 30.5
t-77.5 37.5t-70.5 52t-44 69t-18.5 94zM645 1286q0 32 20.5 53t50.5 21q32 0 53.5 -21t21.5 -53q0 -31 -21.5 -51.5t-53.5 -20.5q-30 0 -50.5 21t-20.5 51z" />
    <glyph glyph-name="Sdotbelow" unicode="&#x1e62;" horiz-adv-x="1198" 
d="M475 -276q0 30 20 50.5t49 20.5q31 0 51.5 -20t20.5 -51q0 -30 -20.5 -49.5t-51.5 -19.5q-29 0 -49 19.5t-20 49.5zM199 381h82q-3 -12 -3 -42q0 -127 105 -211t278 -84q162 0 269 82.5t107 222.5q0 48 -15.5 88t-39 67t-64.5 53t-77.5 42t-93.5 38l-117 45
q-138 53 -213 136t-75 211q0 165 124 263t322 98q188 0 308 -94.5t120 -236.5q0 -29 -4 -43h-80q2 12 2 30q0 110 -95 189.5t-253 79.5q-99 0 -178.5 -31t-129 -96t-49.5 -155q0 -103 62 -167t181 -111l123 -47q63 -24 105.5 -44.5t89 -51t73.5 -64.5t45 -83t18 -108
q0 -175 -129 -281.5t-338 -106.5q-214 0 -339.5 104.5t-125.5 259.5q0 30 5 48z" />
    <glyph glyph-name="sdotbelow" unicode="&#x1e63;" horiz-adv-x="980" 
d="M373 -276q0 30 20 50.5t49 20.5q31 0 51.5 -20t20.5 -51q0 -30 -20.5 -49.5t-51.5 -19.5q-29 0 -49 19.5t-20 49.5zM284 770q0 132 96.5 207.5t249.5 75.5q146 0 247 -73.5t101 -199.5q0 -22 -2 -28h-79q1 7 1 24q0 92 -77 149t-190 57q-112 0 -188 -54.5t-76 -150.5
q0 -37 14 -68t34 -51.5t56 -40t66.5 -31t78.5 -27.5q74 -24 119.5 -44t89 -52.5t63.5 -77.5t20 -107q0 -96 -53.5 -164.5t-136.5 -99.5t-185 -31q-158 0 -268.5 77.5t-110.5 204.5q0 11 3 32h80q-2 -18 -1 -29q3 -99 92 -155.5t208 -56.5q77 0 140.5 22.5t106 72.5t42.5 121
q0 28 -7.5 52.5t-17.5 42t-30.5 34t-37 26.5t-47 22.5t-49.5 19t-55 18.5q-54 18 -86.5 30.5t-77.5 37.5t-70.5 52t-44 69t-18.5 94z" />
    <glyph glyph-name="Sacutedotaccent" unicode="&#x1e64;" horiz-adv-x="1198" 
d="M663 1719q0 31 20.5 52t50.5 21q32 0 53.5 -21t21.5 -52t-21.5 -51t-53.5 -20q-30 0 -50.5 20.5t-20.5 50.5zM861 1550l310 236h113l-326 -236h-97zM199 381h82q-3 -12 -3 -42q0 -127 105 -211t278 -84q162 0 269 82.5t107 222.5q0 48 -15.5 88t-39 67t-64.5 53t-77.5 42
t-93.5 38l-117 45q-138 53 -213 136t-75 211q0 165 124 263t322 98q188 0 308 -94.5t120 -236.5q0 -29 -4 -43h-80q2 12 2 30q0 110 -95 189.5t-253 79.5q-99 0 -178.5 -31t-129 -96t-49.5 -155q0 -103 62 -167t181 -111l123 -47q63 -24 105.5 -44.5t89 -51t73.5 -64.5
t45 -83t18 -108q0 -175 -129 -281.5t-338 -106.5q-214 0 -339.5 104.5t-125.5 259.5q0 30 5 48z" />
    <glyph glyph-name="sacutedotaccent" unicode="&#x1e65;" horiz-adv-x="980" 
d="M503 1464q0 30 20.5 50.5t49.5 20.5q31 0 51.5 -20t20.5 -51t-20.5 -50.5t-51.5 -19.5q-30 0 -50 20t-20 50zM284 770q0 132 96.5 207.5t249.5 75.5q146 0 247 -73.5t101 -199.5q0 -22 -2 -28h-79q1 7 1 24q0 92 -77 149t-190 57q-112 0 -188 -54.5t-76 -150.5
q0 -37 14 -68t34 -51.5t56 -40t66.5 -31t78.5 -27.5q74 -24 119.5 -44t89 -52.5t63.5 -77.5t20 -107q0 -96 -53.5 -164.5t-136.5 -99.5t-185 -31q-158 0 -268.5 77.5t-110.5 204.5q0 11 3 32h80q-2 -18 -1 -29q3 -99 92 -155.5t208 -56.5q77 0 140.5 22.5t106 72.5t42.5 121
q0 28 -7.5 52.5t-17.5 42t-30.5 34t-37 26.5t-47 22.5t-49.5 19t-55 18.5q-54 18 -86.5 30.5t-77.5 37.5t-70.5 52t-44 69t-18.5 94zM789 1231h-72l258 315h96z" />
    <glyph glyph-name="Scarondotaccent" unicode="&#x1e66;" horiz-adv-x="1198" 
d="M844 1851q0 32 21 53t51 21q32 0 53.5 -21t21.5 -53q0 -31 -21.5 -51.5t-53.5 -20.5q-30 0 -51 21t-21 51zM199 381h82q-3 -12 -3 -42q0 -127 105 -211t278 -84q162 0 269 82.5t107 222.5q0 48 -15.5 88t-39 67t-64.5 53t-77.5 42t-93.5 38l-117 45q-138 53 -213 136
t-75 211q0 165 124 263t322 98q188 0 308 -94.5t120 -236.5q0 -29 -4 -43h-80q2 12 2 30q0 110 -95 189.5t-253 79.5q-99 0 -178.5 -31t-129 -96t-49.5 -155q0 -103 62 -167t181 -111l123 -47q63 -24 105.5 -44.5t89 -51t73.5 -64.5t45 -83t18 -108q0 -175 -129 -281.5
t-338 -106.5q-214 0 -339.5 104.5t-125.5 259.5q0 30 5 48zM1199 1690l-309 -209h-71l-215 209h92l162 -159h5l233 159h103z" />
    <glyph glyph-name="scarondotaccent" unicode="&#x1e67;" horiz-adv-x="980" 
d="M705 1634q0 31 20 51.5t49 20.5q31 0 51.5 -20.5t20.5 -51.5q0 -30 -20.5 -49.5t-51.5 -19.5q-29 0 -49 19.5t-20 49.5zM662 1203l-193 278h81l157 -221h11l229 221h85l-284 -278h-86zM284 770q0 132 96.5 207.5t249.5 75.5q146 0 247 -73.5t101 -199.5q0 -22 -2 -28h-79
q1 7 1 24q0 92 -77 149t-190 57q-112 0 -188 -54.5t-76 -150.5q0 -37 14 -68t34 -51.5t56 -40t66.5 -31t78.5 -27.5q74 -24 119.5 -44t89 -52.5t63.5 -77.5t20 -107q0 -96 -53.5 -164.5t-136.5 -99.5t-185 -31q-158 0 -268.5 77.5t-110.5 204.5q0 11 3 32h80q-2 -18 -1 -29
q3 -99 92 -155.5t208 -56.5q77 0 140.5 22.5t106 72.5t42.5 121q0 28 -7.5 52.5t-17.5 42t-30.5 34t-37 26.5t-47 22.5t-49.5 19t-55 18.5q-54 18 -86.5 30.5t-77.5 37.5t-70.5 52t-44 69t-18.5 94z" />
    <glyph glyph-name="Sdotbelowdotaccent" unicode="&#x1e68;" horiz-adv-x="1198" 
d="M475 -276q0 30 20 50.5t49 20.5q31 0 51.5 -20t20.5 -51q0 -30 -20.5 -49.5t-51.5 -19.5q-29 0 -49 19.5t-20 49.5zM199 381h82q-3 -12 -3 -42q0 -127 105 -211t278 -84q162 0 269 82.5t107 222.5q0 48 -15.5 88t-39 67t-64.5 53t-77.5 42t-93.5 38l-117 45
q-138 53 -213 136t-75 211q0 165 124 263t322 98q188 0 308 -94.5t120 -236.5q0 -29 -4 -43h-80q2 12 2 30q0 110 -95 189.5t-253 79.5q-99 0 -178.5 -31t-129 -96t-49.5 -155q0 -103 62 -167t181 -111l123 -47q63 -24 105.5 -44.5t89 -51t73.5 -64.5t45 -83t18 -108
q0 -175 -129 -281.5t-338 -106.5q-214 0 -339.5 104.5t-125.5 259.5q0 30 5 48zM802 1611q0 32 20.5 53t50.5 21q32 0 53.5 -21t21.5 -53q0 -31 -21.5 -51.5t-53.5 -20.5q-29 0 -50 20.5t-21 51.5z" />
    </font>
</defs>
</svg>
