<?xml version="1.0" standalone="no"?>
<!DOCTYPE svg PUBLIC "-//W3C//DTD SVG 1.1//EN" "http://www.w3.org/Graphics/SVG/1.1/DTD/svg11.dtd" >
<svg xmlns="http://www.w3.org/2000/svg" xmlns:xlink="http://www.w3.org/1999/xlink" version="1.1">
<metadata>
Created by FontForge 20170731 at Wed Jan 14 10:07:58 2015
 By Aleksey,,,
(c) 2014 Apple Inc. All rights reserved.
</metadata>
<defs>
<font id="SanFranciscoDisplay-Bold" horiz-adv-x="0" >
  <font-face 
    font-family="San Francisco Display Bold"
    font-weight="700"
    font-stretch="normal"
    units-per-em="2048"
    panose-1="0 0 0 0 0 0 0 0 0 0"
    ascent="1638"
    descent="-410"
    x-height="1064"
    cap-height="1365"
    bbox="-676 -507 2074 2003"
    underline-thickness="50"
    underline-position="-125"
    unicode-range="U+000D-FB02"
  />
<missing-glyph horiz-adv-x="1293" 
d="M120 0v1365h1053v-1365h-1053zM501 313q0 -47 33.5 -77t86.5 -30q55 0 88.5 29.5t33.5 77.5q0 49 -33.5 78.5t-88.5 29.5q-54 0 -87 -30t-33 -78zM339 888h169q1 59 34.5 94.5t90.5 35.5q54 0 87 -30t33 -80q0 -38 -20.5 -65.5t-82.5 -72.5q-69 -48 -96 -100t-22 -121
l1 -18h166v15q0 48 19 76t88 77q73 52 103 102t30 116q0 113 -81 181.5t-215 68.5q-143 0 -225.5 -76t-78.5 -203z" />
    <glyph glyph-name=".notdef" horiz-adv-x="1293" 
d="M120 0v1365h1053v-1365h-1053zM501 313q0 -47 33.5 -77t86.5 -30q55 0 88.5 29.5t33.5 77.5q0 49 -33.5 78.5t-88.5 29.5q-54 0 -87 -30t-33 -78zM339 888h169q1 59 34.5 94.5t90.5 35.5q54 0 87 -30t33 -80q0 -38 -20.5 -65.5t-82.5 -72.5q-69 -48 -96 -100t-22 -121
l1 -18h166v15q0 48 19 76t88 77q73 52 103 102t30 116q0 113 -81 181.5t-215 68.5q-143 0 -225.5 -76t-78.5 -203z" />
    <glyph glyph-name=".null" 
 />
    <glyph glyph-name="nonmarkingreturn" horiz-adv-x="682" 
 />
    <glyph glyph-name="CR" unicode="&#xd;" 
 />
    <glyph glyph-name="space" unicode=" " horiz-adv-x="402" 
 />
    <glyph glyph-name="exclam" unicode="!" horiz-adv-x="564" 
d="M113 124q0 66 46.5 106t122.5 40q78 0 124.5 -40t46.5 -106q0 -64 -46.5 -104t-124.5 -40q-76 0 -122.5 40t-46.5 104zM129 1365h309l-33 -948h-244z" />
    <glyph glyph-name="quotedbl" unicode="&#x22;" horiz-adv-x="990" 
d="M93 1365h306l-36 -564h-234zM591 1365h307l-37 -564h-233z" />
    <glyph glyph-name="numbersign" unicode="#" horiz-adv-x="1237" 
d="M1174 812h-207l-49 -244h198l-39 -204h-200l-72 -364h-212l72 364h-218l-74 -364h-211l72 364h-194l39 204h196l49 244h-188l39 204h190l69 349h214l-71 -349h219l69 349h213l-70 -349h204zM521 834l-58 -288h259l57 288h-258z" />
    <glyph glyph-name="dollar" unicode="$" horiz-adv-x="1185" 
d="M345 1013q0 -116 144 -166q26 -9 36 -11v352q-80 -10 -130 -56t-50 -119zM873 383q0 67 -41.5 112t-134.5 72l-24 6v-379q90 8 145 58t55 131zM675 -129h-154v125q-115 9 -203.5 46t-140 93t-77.5 121t-27 137h238q5 -78 60 -131.5t154 -66.5v406l-83 20
q-70 16 -129 44.5t-107.5 73t-76 110t-27.5 146.5q0 170 117 270.5t303 118.5v129h154v-130q184 -19 297 -123.5t117 -262.5h-232q-2 70 -51.5 123.5t-133.5 66.5v-382l84 -19q80 -18 142 -46.5t112.5 -73t77 -110t26.5 -150.5q0 -176 -119 -282.5t-322 -125.5z" />
    <glyph glyph-name="percent" unicode="%" horiz-adv-x="1385" 
d="M175 1041v-11q0 -90 32 -140t87 -50q54 0 86.5 49.5t32.5 138.5v11q0 90 -31.5 139t-86.5 49q-56 0 -88 -49t-32 -137zM-2 1020v31q0 143 81 236.5t217 93.5q135 0 215 -93t80 -239v-31q0 -140 -80 -236.5t-219 -96.5q-136 0 -215 94.5t-79 240.5zM976 340v-11
q0 -90 32 -140t87 -50q54 0 86.5 49.5t32.5 139.5v11q0 90 -31.5 138.5t-86.5 48.5q-56 0 -88 -49t-32 -137zM799 319v31q0 144 81 237.5t217 93.5q135 0 215 -93t80 -239v-31q0 -141 -80 -237.5t-219 -96.5q-135 0 -214.5 94.5t-79.5 240.5zM270 -1h-209l559 717l493 649
h209l-549 -703z" />
    <glyph glyph-name="ampersand" unicode="&#x26;" horiz-adv-x="1362" 
d="M1066 0l-105 112q-78 -68 -188 -104t-232 -36q-215 0 -345 104t-130 279q0 84 33.5 153.5t86.5 117.5t131 92q40 22 62 32q-84 87 -126.5 157.5t-42.5 153.5q0 137 110.5 226.5t274.5 89.5q100 0 184.5 -34.5t139.5 -107.5t55 -170q0 -63 -22 -117t-64 -97t-86.5 -74.5
t-103.5 -63.5l260 -282q48 87 48 267v70h228v-86q0 -262 -114 -418l252 -264h-306zM468 588q-147 -82 -147 -211q0 -97 71 -151.5t176 -54.5q70 0 138.5 24.5t111.5 71.5l-313 340q-21 -10 -37 -19zM571 840q86 45 130.5 92.5t44.5 114.5t-42.5 107.5t-107.5 40.5
q-66 0 -108.5 -41.5t-42.5 -106.5q0 -47 28 -92t98 -115z" />
    <glyph glyph-name="quotesingle" unicode="'" horiz-adv-x="492" 
d="M93 1365h306l-36 -564h-234z" />
    <glyph glyph-name="parenleft" unicode="(" horiz-adv-x="686" 
d="M377 1363h259q-35 -40 -71.5 -104t-75.5 -161.5t-64 -236.5t-25 -293q0 -104 10 -199.5t32.5 -178.5t41 -142t52.5 -128t49 -97t48 -85h-265q-46 56 -85.5 125t-80.5 170.5t-65 239.5t-24 293q0 127 17 238t40.5 187.5t63 152.5t69 119t74.5 100z" />
    <glyph glyph-name="parenright" unicode=")" horiz-adv-x="686" 
d="M50 1363h257q45 -57 75 -100t70 -119t63.5 -152.5t40.5 -187.5t17 -238q0 -155 -24 -293t-65.5 -239.5t-81.5 -170.5t-86 -125h-264q38 65 58.5 103.5t58.5 126t59.5 165.5t38.5 194.5t17 240.5q0 154 -24.5 293t-63.5 236.5t-75 161.5t-71 104z" />
    <glyph glyph-name="asterisk" unicode="*" horiz-adv-x="779" 
d="M468 719h-156l26 224l-183 -133l-79 135l208 91l-208 91l79 136l184 -137l-27 227h156l-28 -227l186 137l78 -136l-209 -91l209 -91l-78 -135l-184 133z" />
    <glyph glyph-name="plus" unicode="+" horiz-adv-x="1185" 
d="M716 434v-419h-243v419h-391v238h391v405h243v-405h392v-238h-392z" />
    <glyph glyph-name="comma" unicode="," horiz-adv-x="456" 
d="M221 -264h-213l97 541h274z" />
    <glyph glyph-name="hyphen" unicode="-" horiz-adv-x="788" 
d="M709 435h-630v250h630v-250z" />
    <glyph glyph-name="period" unicode="." horiz-adv-x="543" 
d="M108 139q0 72 47 115.5t116 43.5q71 0 118.5 -44t47.5 -115t-47.5 -114.5t-118.5 -43.5q-69 0 -116 43.5t-47 114.5z" />
    <glyph glyph-name="slash" unicode="/" horiz-adv-x="685" 
d="M242 -289h-253l460 1726h252z" />
    <glyph glyph-name="zero" unicode="0" horiz-adv-x="1198" 
d="M365 728v-90q0 -209 62.5 -319t171.5 -110t172 110t63 319v90q0 208 -63 318t-172 110t-171.5 -109.5t-62.5 -318.5zM75 637v92q0 302 139.5 482t387.5 180q249 0 385 -179t136 -483v-92q0 -192 -57.5 -339.5t-178 -235.5t-290.5 -88q-249 0 -385.5 180t-136.5 483z" />
    <glyph glyph-name="one" unicode="1" horiz-adv-x="847" 
d="M693 0h-286v1091h-11q-26 -14 -150 -95t-162 -108v266q41 30 166 110.5t163 100.5h280v-1365z" />
    <glyph glyph-name="two" unicode="2" horiz-adv-x="1148" 
d="M364 952h-274v15q0 80 29.5 154.5t86 135.5t149.5 97.5t210 36.5q212 0 343 -109t131 -275q0 -35 -7 -69.5t-13.5 -60t-26.5 -60t-29 -50.5t-39 -52.5t-38 -46t-45.5 -49.5t-42.5 -46l-297 -331v-9h562v-233h-954v179l492 528q37 39 56 61.5t45.5 60t38.5 74.5t12 76
q0 79 -55 130.5t-139 51.5q-89 0 -142.5 -56t-53.5 -136q0 -3 0.5 -9.5t0.5 -7.5z" />
    <glyph glyph-name="three" unicode="3" horiz-adv-x="1172" 
d="M423 593v220h141q94 0 151.5 51t57.5 132q-1 76 -57.5 125t-147.5 49q-94 0 -148 -55t-57 -127h-270q5 176 133 289.5t352 113.5q206 0 341 -100t137 -256q1 -69 -22.5 -128t-61 -96t-79.5 -59.5t-83 -28.5v-11q50 -4 99 -25.5t92 -60t70 -102t28 -141.5
q1 -121 -71.5 -215.5t-193.5 -144.5t-267 -50q-122 0 -218 33t-155.5 90.5t-91 131t-33.5 157.5h266q8 -82 71.5 -134.5t167.5 -52.5q109 0 173.5 56.5t63.5 143.5t-64.5 141t-175.5 54h-148z" />
    <glyph glyph-name="four" unicode="4" horiz-adv-x="1213" 
d="M584 1365h413v-887h164v-231h-164v-247h-271v247h-660v232q55 105 126.5 230t121.5 208.5t141.5 234.5t128.5 213zM324 478h402v673h-11q-252 -403 -391 -670v-3z" />
    <glyph glyph-name="five" unicode="5" horiz-adv-x="1213" 
d="M108 372h266q12 -79 76.5 -125t162.5 -46q97 0 170 69t73 181q0 110 -69 179t-173 69q-89 0 -148 -41t-85 -96h-255l63 804h850v-231h-620l-33 -337h11q29 43 106.5 80t185.5 37q120 0 222 -53.5t165 -158t63 -239.5q0 -222 -149 -356t-384 -134q-227 0 -359.5 114
t-138.5 284z" />
    <glyph glyph-name="six" unicode="6" horiz-adv-x="1177" 
d="M1077 1022h-270q-7 56 -60 99.5t-133 43.5q-128 0 -198.5 -127.5t-68.5 -336.5h12q33 79 113.5 137.5t205.5 58.5q114 0 210.5 -50t158.5 -153t62 -241q0 -149 -67.5 -259t-180 -165t-252.5 -55q-249 0 -391 177t-142 504q0 352 145.5 543t399.5 191q105 0 192.5 -33.5
t142.5 -87.5t86 -117.5t35 -128.5zM381 441q0 -111 65.5 -176t162.5 -65q96 0 160.5 64t64.5 177q0 112 -65.5 177t-160.5 65q-98 0 -162.5 -66t-64.5 -176z" />
    <glyph glyph-name="seven" unicode="7" horiz-adv-x="1110" 
d="M70 1365h955v-238l-553 -1127h-304l572 1124v8h-670v233z" />
    <glyph glyph-name="eight" unicode="8" horiz-adv-x="1225" 
d="M613 179q108 0 179 60.5t71 156.5q0 97 -71 158t-179 61q-107 0 -178.5 -61.5t-71.5 -157.5t71.5 -156.5t178.5 -60.5zM613 807q90 0 148.5 53t58.5 137q0 83 -58.5 135t-148.5 52q-89 0 -148 -52.5t-59 -134.5q0 -83 59 -136.5t148 -53.5zM611 -26q-244 0 -390 111.5
t-146 290.5q0 77 27 140.5t71 103t92 63t99 33.5v9q-102 31 -168 107t-66 198q0 158 133 259.5t350 101.5t350.5 -101.5t133.5 -259.5q0 -123 -67 -198.5t-168 -106.5v-9q51 -10 99 -34t92 -63.5t70.5 -102t26.5 -139.5q0 -179 -147.5 -291t-391.5 -112z" />
    <glyph glyph-name="nine" unicode="9" horiz-adv-x="1177" 
d="M95 352h269q10 -62 65.5 -107t139.5 -45q71 0 125.5 38t85.5 104t45.5 148t11.5 177h-14q-26 -81 -109.5 -138.5t-215.5 -57.5q-84 0 -159.5 29.5t-134.5 84t-93.5 140.5t-34.5 191q0 147 69.5 256.5t180 163.5t244.5 54q255 0 396.5 -174.5t141.5 -517.5
q0 -338 -143 -530.5t-402 -192.5q-110 0 -200.5 34.5t-146.5 90.5t-86.5 121t-34.5 131zM805 921q0 115 -63.5 179.5t-163.5 64.5q-96 0 -161.5 -64t-65.5 -177t63.5 -176.5t160.5 -63.5t163.5 67.5t66.5 169.5z" />
    <glyph glyph-name="colon" unicode=":" horiz-adv-x="567" 
d="M117 815q0 72 47 115.5t117 43.5q71 0 118 -44t47 -115t-47 -114.5t-118 -43.5q-69 0 -116.5 43.5t-47.5 114.5zM117 139q0 72 47 115.5t117 43.5q71 0 118 -44t47 -115t-47 -114.5t-118 -43.5q-69 0 -116.5 43.5t-47.5 114.5z" />
    <glyph glyph-name="semicolon" unicode=";" horiz-adv-x="565" 
d="M121 815q0 72 47 115.5t117 43.5q71 0 118 -44t47 -115t-47 -114.5t-118 -43.5q-69 0 -116.5 43.5t-47.5 114.5zM273 -314h-214l89 541h273z" />
    <glyph glyph-name="less" unicode="&#x3c;" horiz-adv-x="1185" 
d="M124 439v180l933 512v-280l-607 -310v-12l607 -303v-276z" />
    <glyph glyph-name="equal" unicode="=" horiz-adv-x="1185" 
d="M1067 224h-948v221h948v-221zM1067 657h-948v222h948v-222z" />
    <glyph glyph-name="greater" unicode="&#x3e;" horiz-adv-x="1185" 
d="M1057 619v-180l-933 -489v276l607 303v12l-607 310v280z" />
    <glyph glyph-name="question" unicode="?" horiz-adv-x="982" 
d="M293 124q0 66 46.5 106t122.5 40q78 0 124.5 -40t46.5 -106q0 -64 -46.5 -104t-124.5 -40q-76 0 -122.5 40t-46.5 104zM39 983q-4 107 34 188.5t105 128t147.5 69.5t171.5 23q123 0 222 -39t162 -124t63 -204q0 -62 -16 -112.5t-49 -90t-61 -63.5t-74 -56
q-99 -69 -130.5 -108t-31.5 -116v-51h-252l-2 56q-8 108 38 186t138 140q44 30 65.5 47t45.5 42t33.5 51.5t9.5 59.5q0 80 -51 120.5t-126 40.5q-87 0 -134.5 -52.5t-48.5 -135.5h-259z" />
    <glyph glyph-name="at" unicode="@" horiz-adv-x="1717" 
d="M1280 133q-93 0 -162.5 40t-87.5 106h-9q-19 -65 -82.5 -105t-147.5 -40q-130 0 -205.5 88.5t-75.5 239.5v113q0 145 76.5 233t207.5 88q89 0 142.5 -41.5t69.5 -97.5h8v125h190v-498q0 -48 28.5 -75t73.5 -27q65 0 111 82.5t46 241.5v29q0 110 -40 207.5t-112.5 171
t-181.5 116.5t-240 43h-9q-272 0 -440.5 -172t-168.5 -458v-38q0 -125 32 -227.5t87.5 -173.5t131.5 -119.5t162.5 -71t182.5 -22.5h9q185 0 284 43v-157q-93 -42 -294 -42h-9q-163 0 -302 50t-242.5 144t-162 240.5t-58.5 329.5v51q0 232 100.5 410t279 274t408.5 96h8
q175 0 319.5 -56.5t237 -152.5t143 -219t50.5 -260v-49q0 -205 -97 -332.5t-261 -127.5zM716 492q0 -192 140 -192q138 0 138 180v83q0 86 -39.5 129.5t-100.5 43.5q-64 0 -101 -47t-37 -142v-55z" />
    <glyph glyph-name="A" unicode="A" horiz-adv-x="1271" 
d="M302 0h-289l452 1365h343l450 -1365h-309l-101 339h-444zM634 1093h-13l-160 -541h331z" />
    <glyph glyph-name="B" unicode="B" horiz-adv-x="1266" 
d="M141 0v1365h581q185 0 297 -89t112 -246q0 -124 -66.5 -199.5t-170.5 -99.5v-13q131 -12 218 -99t87 -233q0 -182 -134 -284t-341 -102h-583zM428 1153v-351h172q247 0 247 178q0 83 -53 128t-141 45h-225zM428 606v-393h193q284 0 284 193q0 96 -62 148t-174 52h-241z
" />
    <glyph glyph-name="C" unicode="C" horiz-adv-x="1286" 
d="M380 757v-154q0 -192 76 -289t212 -97q124 0 192.5 73.5t68.5 184.5h278v-30q0 -94 -37 -178.5t-104.5 -150t-172 -104t-230.5 -38.5q-273 0 -425 165.5t-152 464.5v154q0 299 153 466t425 167q124 0 227 -38.5t171.5 -104.5t106.5 -154t38 -187v-29h-278q0 112 -70 191
t-193 79q-133 0 -209.5 -99.5t-76.5 -291.5z" />
    <glyph glyph-name="D" unicode="D" horiz-adv-x="1336" 
d="M141 1365h511q162 0 281 -48.5t191 -140t106 -213t34 -276.5q0 -123 -21 -225.5t-67.5 -189t-117 -146.5t-173.5 -93t-233 -33h-511v1365zM431 1132v-898h179q176 0 266.5 103t90.5 344q0 101 -17.5 179t-57 141t-111 97t-171.5 34h-179z" />
    <glyph glyph-name="E" unicode="E" horiz-adv-x="1133" 
d="M1032 234v-234h-891v1365h891v-234h-604v-332h568v-218h-568v-347h604z" />
    <glyph glyph-name="F" unicode="F" horiz-adv-x="1077" 
d="M431 0h-290v1365h883v-236h-593v-364h541v-231h-541v-534z" />
    <glyph glyph-name="G" unicode="G" horiz-adv-x="1311" 
d="M1223 924h-282q-13 106 -85.5 166t-182.5 60q-135 0 -215 -95.5t-80 -284.5v-167q0 -179 72.5 -283.5t225.5 -104.5q124 0 199 68t75 168v77h-267v212h542v-270q0 -69 -17.5 -136t-59.5 -133t-104 -116t-158 -80.5t-214 -30.5q-149 0 -262.5 47t-183.5 132.5t-105 198.5
t-35 250v170q0 284 157.5 451.5t433.5 167.5q130 0 235 -39.5t170.5 -105.5t101.5 -148.5t39 -173.5z" />
    <glyph glyph-name="H" unicode="H" horiz-adv-x="1412" 
d="M1271 0h-290v577h-550v-577h-290v1365h290v-550h550v550h290v-1365z" />
    <glyph glyph-name="I" unicode="I" horiz-adv-x="572" 
d="M431 0h-290v1365h290v-1365z" />
    <glyph glyph-name="J" unicode="J" horiz-adv-x="1083" 
d="M26 405h278q2 -81 51 -127.5t124 -46.5q183 0 183 207v927h290v-922q0 -231 -125.5 -350t-344.5 -119q-111 0 -199.5 35t-143.5 94.5t-84 136.5t-29 165z" />
    <glyph glyph-name="K" unicode="K" horiz-adv-x="1273" 
d="M1260 1365l-483 -589l503 -776h-346l-369 584l-134 -154v-430h-290v1365h290v-601h13l501 601h315z" />
    <glyph glyph-name="L" unicode="L" horiz-adv-x="1025" 
d="M1000 245v-245h-859v1365h290v-1120h569z" />
    <glyph glyph-name="M" unicode="M" horiz-adv-x="1640" 
d="M402 0h-258v1365h296l377 -846h9l377 846h294v-1365h-261v884h-12l-314 -702h-181l-315 702h-12v-884z" />
    <glyph glyph-name="N" unicode="N" horiz-adv-x="1385" 
d="M413 0h-272v1365h237l584 -876h10v876h272v-1365h-236l-585 882h-10v-882z" />
    <glyph glyph-name="O" unicode="O" horiz-adv-x="1357" 
d="M380 766v-174q0 -185 81 -281.5t217 -96.5t217 96.5t81 281.5v174q0 186 -81.5 286t-216.5 100t-216.5 -100.5t-81.5 -285.5zM86 593v170q0 292 158 460t435 168q278 0 435 -168.5t157 -459.5v-170q0 -289 -157.5 -454t-436.5 -165q-278 0 -434.5 165t-156.5 454z" />
    <glyph glyph-name="P" unicode="P" horiz-adv-x="1207" 
d="M141 1365h556q218 0 342.5 -130.5t124.5 -330.5q0 -201 -125 -328.5t-345 -127.5h-264v-448h-289v1365zM429 1138v-468h153q142 0 215 53.5t73 180.5q0 112 -61.5 173t-171.5 61h-208z" />
    <glyph glyph-name="Q" unicode="Q" horiz-adv-x="1361" 
d="M89 599v165q0 289 160 458t432 169t432.5 -169.5t160.5 -457.5v-165q0 -311 -186 -480l170 -251h-283l-95 139q-93 -33 -199 -33q-272 0 -432 168.5t-160 456.5zM373 766v-172q0 -192 82.5 -294t217.5 -105q40 0 76 14l-140 205h261l55 -75q65 99 65 255v172
q0 187 -85 287t-224 100q-138 0 -223 -100t-85 -287z" />
    <glyph glyph-name="R" unicode="R" horiz-adv-x="1270" 
d="M697 1365q120 0 214 -33.5t152.5 -92.5t89 -137.5t30.5 -172.5q0 -65 -16.5 -122.5t-41.5 -98.5t-59 -75t-66 -54.5t-64 -33.5l274 -545h-322l-237 502h-225v-502h-285v1365h556zM426 714h225q110 0 172 54.5t62 155.5q0 105 -63.5 162t-166.5 57h-229v-429z" />
    <glyph glyph-name="S" unicode="S" horiz-adv-x="1217" 
d="M59 392h278q6 -81 77.5 -136t194.5 -55q118 0 182.5 48.5t64.5 129.5q0 68 -50 106.5t-158 62.5l-205 47q-76 16 -137 44.5t-110.5 73.5t-77 112t-27.5 151q0 130 69.5 226t185.5 143.5t262 47.5q228 0 369.5 -113.5t143.5 -295.5h-270q-6 78 -69 131.5t-175 53.5
q-105 0 -166 -46t-61 -125q0 -119 186 -157l207 -46q81 -17 143 -44.5t115.5 -72t82 -113t28.5 -158.5q0 -201 -146.5 -317t-400.5 -116q-116 0 -209 25t-152.5 66t-99.5 96.5t-57 112.5t-18 118z" />
    <glyph glyph-name="T" unicode="T" horiz-adv-x="1083" 
d="M686 0h-289v1125h-383v240h1055v-240h-383v-1125z" />
    <glyph glyph-name="U" unicode="U" horiz-adv-x="1367" 
d="M415 1365v-862q0 -136 72.5 -210t196.5 -74q122 0 195.5 74.5t73.5 209.5v862h289v-892q0 -226 -152 -362.5t-406 -136.5t-406 137.5t-152 363.5v890h289z" />
    <glyph glyph-name="V" unicode="V" horiz-adv-x="1261" 
d="M809 0h-353l-449 1365h335l292 -1044h12l288 1044h321z" />
    <glyph glyph-name="W" unicode="W" horiz-adv-x="1763" 
d="M630 0h-268l-357 1365h311l196 -955h11l236 955h247l235 -955h12l195 955h310l-357 -1365h-268l-246 921h-10z" />
    <glyph glyph-name="X" unicode="X" horiz-adv-x="1198" 
d="M1215 1365l-431 -684l425 -681h-330l-280 472h-13l-280 -472h-313l418 688l-416 677h341l271 -481h13l269 481h326z" />
    <glyph glyph-name="Y" unicode="Y" horiz-adv-x="1164" 
d="M727 0h-289v505l-457 860h319l281 -573h10l282 573h311l-457 -853v-512z" />
    <glyph glyph-name="Z" unicode="Z" horiz-adv-x="1183" 
d="M84 0v188l646 931v11h-630v235h980v-187l-644 -930v-12h664v-236h-1016z" />
    <glyph glyph-name="bracketleft" unicode="[" horiz-adv-x="730" 
d="M113 1365h546v-206h-277v-1182h290v-205h-559v1593z" />
    <glyph glyph-name="backslash" unicode="\" horiz-adv-x="685" 
d="M701 -289h-252l-460 1726h253z" />
    <glyph glyph-name="bracketright" unicode="]" horiz-adv-x="730" 
d="M70 1365h547v-1593h-559v205h290v1182h-278v206z" />
    <glyph glyph-name="asciicircum" unicode="^" horiz-adv-x="896" 
d="M861 795h-244l-164 348h-11l-168 -348h-238l294 570h240z" />
    <glyph glyph-name="underscore" unicode="_" horiz-adv-x="856" 
d="M883 -318h-910v215h910v-215z" />
    <glyph glyph-name="grave" unicode="`" horiz-adv-x="948" 
d="M672 1229h-236l-263 290h283z" />
    <glyph glyph-name="a" unicode="a" horiz-adv-x="1105" 
d="M709 134q-34 -65 -105.5 -107.5t-180.5 -42.5q-157 0 -253.5 87t-96.5 235q0 147 98.5 232t280.5 85h256v103q0 142 -164 142q-78 0 -120 -36t-47 -98h-265q3 71 27.5 130.5t73.5 109t135 78t202 28.5q202 0 319 -87.5t117 -274.5v-718h-265v134h-12zM516 186
q80 0 136 47.5t56 119.5v105h-189q-81 0 -124 -36t-43 -96q0 -67 48 -103.5t116 -36.5z" />
    <glyph glyph-name="b" unicode="b" horiz-adv-x="1205" 
d="M724 -13q-115 0 -195 49t-110 129h-12v-165h-278v1437h282v-530h12q34 76 109 123t195 47q189 0 293.5 -130t104.5 -363v-102q0 -237 -106.5 -366t-294.5 -129zM625 209q96 0 153 73t57 209v78q0 138 -56 212t-154 74q-97 0 -155.5 -76t-58.5 -203v-91q0 -122 56 -199
t158 -77z" />
    <glyph glyph-name="c" unicode="c" horiz-adv-x="1073" 
d="M78 489v94q0 223 128 361.5t352 138.5q204 0 323.5 -109.5t121.5 -274.5h-258q-6 65 -54 114.5t-125 49.5q-99 0 -152 -78.5t-53 -204.5v-89q0 -131 54.5 -208.5t150.5 -77.5q85 0 129 42t54 108h258q-4 -172 -128 -273t-322 -101q-223 0 -351 136t-128 372z" />
    <glyph glyph-name="d" unicode="d" horiz-adv-x="1206" 
d="M480 1077q116 0 195.5 -47t107.5 -123h11v530h282v-1437h-278v165h-11q-24 -77 -106.5 -127.5t-200.5 -50.5q-189 0 -294.5 131t-105.5 360v109q0 228 105 359t295 131zM579 854q-101 0 -155.5 -76.5t-54.5 -211.5v-68q0 -136 55.5 -212.5t157.5 -76.5q99 0 155.5 75
t56.5 213v73q0 134 -57.5 209t-157.5 75z" />
    <glyph glyph-name="e" unicode="e" horiz-adv-x="1106" 
d="M570 -19q-232 0 -362 133.5t-130 374.5v83q0 239 130 375t348 136q223 0 349 -138t126 -372v-100h-677v-36q0 -105 57.5 -173.5t157.5 -68.5q83 0 132.5 37.5t57.5 94.5h263q-4 -47 -21 -93t-52.5 -92.5t-85.5 -81.5t-126 -57t-167 -22zM354 645h406v2q0 101 -54.5 164.5
t-147.5 63.5t-148.5 -64t-55.5 -164v-2z" />
    <glyph glyph-name="f" unicode="f" horiz-adv-x="759" 
d="M210 0v836h-158v215h158v106q0 160 87 230.5t278 70.5q55 0 121 -7v-197q-21 3 -65 3q-76 0 -111.5 -28t-35.5 -96v-82h203v-215h-197v-836h-280z" />
    <glyph glyph-name="g" unicode="g" horiz-adv-x="1182" 
d="M565 -189q110 0 165.5 57t55.5 164v150h-12q-30 -73 -110 -120t-190 -47q-179 0 -289 128t-110 355v93q0 227 110 356.5t291 129.5q118 0 193.5 -47t107.5 -123h12v157h277v-1050q0 -89 -28 -159.5t-76 -116.5t-114 -76t-138 -43t-153 -13q-115 0 -204.5 27t-143.5 73.5
t-82 103t-30 121.5h271q10 -54 61 -87t136 -33zM579 855q-99 0 -157.5 -74t-58.5 -205v-80q0 -130 59.5 -201.5t157.5 -71.5q95 0 150 73.5t55 193.5v86q0 126 -55.5 202.5t-150.5 76.5z" />
    <glyph glyph-name="h" unicode="h" horiz-adv-x="1210" 
d="M130 0v1437h281v-531h13q26 68 101 121t195 53q170 0 271 -108t101 -296v-676h-282v609q0 115 -53 174t-142 59q-92 0 -148 -60.5t-56 -173.5v-608h-281z" />
    <glyph glyph-name="i" unicode="i" horiz-adv-x="570" 
d="M145 0v1064h281v-1064h-281zM123 1332q0 61 44 99.5t117 38.5q74 0 118.5 -38.5t44.5 -99.5q0 -62 -44 -100.5t-119 -38.5q-73 0 -117 39t-44 100z" />
    <glyph glyph-name="j" unicode="j" horiz-adv-x="570" 
d="M123 1332q0 61 44 99.5t117 38.5q74 0 118.5 -38.5t44.5 -99.5q0 -62 -44 -100.5t-119 -38.5q-73 0 -117 39t-44 100zM425 1064v-1076q0 -178 -96.5 -265t-265.5 -87q-74 0 -112 8v200q19 -4 57 -4q70 0 103.5 35.5t33.5 115.5v1073h280z" />
    <glyph glyph-name="k" unicode="k" horiz-adv-x="1120" 
d="M409 366v-366h-281v1437h281v-810h13l339 437h316l-381 -459l408 -605h-328l-295 446z" />
    <glyph glyph-name="l" unicode="l" horiz-adv-x="550" 
d="M134 0v1437h282v-1437h-282z" />
    <glyph glyph-name="m" unicode="m" horiz-adv-x="1791" 
d="M126 0v1064h274v-157h14q25 69 97 121t184 52q118 0 193.5 -49.5t102.5 -135.5h12q28 75 112.5 130t210.5 55q161 0 252.5 -96t91.5 -256v-728h-281v647q0 98 -47.5 149t-128.5 51q-84 0 -132 -54.5t-48 -154.5v-638h-270v638q0 107 -48.5 158t-129.5 51q-78 0 -128 -52
t-50 -155v-640h-281z" />
    <glyph glyph-name="n" unicode="n" horiz-adv-x="1204" 
d="M126 0v1064h274v-158h12q29 70 109 122t198 52q164 0 264 -99t100 -282v-699h-281v617q0 117 -52.5 171t-142.5 54q-92 0 -146 -59t-54 -172v-611h-281z" />
    <glyph glyph-name="o" unicode="o" horiz-adv-x="1141" 
d="M572 1083q236 0 363.5 -140t127.5 -373v-70q0 -243 -126.5 -381t-364.5 -138q-240 0 -367 137t-127 381v70q0 112 32 205.5t93 162.5t155.5 107.5t213.5 38.5zM571 868q-59 0 -101 -25t-65 -69.5t-33 -95.5t-10 -112v-67q0 -61 10 -111.5t32.5 -95t65 -70t101.5 -25.5
q48 0 85 17t59.5 45.5t37 68.5t20 81.5t5.5 89.5v67q0 62 -10 113t-32 95t-64 69t-101 25z" />
    <glyph glyph-name="p" unicode="p" horiz-adv-x="1202" 
d="M724 -13q-114 0 -191 46t-112 123h-12v-508h-282v1416h278v-157h12q33 78 113 124t197 46q181 0 287.5 -127.5t106.5 -360.5v-114q0 -233 -106.5 -360.5t-290.5 -127.5zM623 209q96 0 152.5 72.5t56.5 210.5v81q0 136 -56 209t-155 73q-97 0 -154.5 -73.5t-57.5 -199.5
v-96q0 -124 58 -200.5t156 -76.5z" />
    <glyph glyph-name="q" unicode="q" horiz-adv-x="1201" 
d="M479 1077q116 0 195.5 -46t110.5 -124h12v157h278v-1417h-282v509h-12q-30 -77 -110.5 -123t-193.5 -46q-185 0 -291 128.5t-106 359.5v117q0 228 107.5 356.5t291.5 128.5zM580 854q-100 0 -155.5 -73.5t-55.5 -207.5v-83q0 -134 56.5 -208t155.5 -74t155.5 77t56.5 203
v86q0 132 -57 206t-156 74z" />
    <glyph glyph-name="r" unicode="r" horiz-adv-x="789" 
d="M135 0v1064h282v-147h12q10 29 26.5 54.5t44.5 51.5t73 41t102 15q55 0 87 -8v-242q-33 11 -108 11q-230 0 -230 -242v-598h-289z" />
    <glyph glyph-name="s" unicode="s" horiz-adv-x="1037" 
d="M87 748q0 70 23 126.5t63 95t96 64.5t118.5 37.5t133.5 11.5q190 0 301 -87.5t111 -238.5h-248q-6 56 -46.5 96t-122.5 40q-75 0 -118 -33t-43 -89q0 -17 5.5 -32t17 -26.5t23.5 -20.5t32 -16.5t36 -13t41 -10.5t40.5 -7.5t42 -7t39.5 -6.5q161 -27 247.5 -96t86.5 -205
q0 -163 -122 -256t-340 -93q-205 0 -321.5 88t-116.5 232h273q7 -57 53.5 -92.5t124.5 -35.5q89 0 132.5 34.5t43.5 90.5q0 16 -4 29.5t-14 24.5t-19 19.5t-28 16t-31 12t-38.5 10.5t-39.5 8.5t-44.5 8.5t-44.5 8q-78 16 -134.5 36.5t-106.5 55.5t-76 90.5t-26 130.5z" />
    <glyph glyph-name="t" unicode="t" horiz-adv-x="757" 
d="M204 1051v264h273v-264h205v-215h-205v-493q0 -75 35 -104.5t116 -29.5q46 0 58 2v-207q-50 -9 -127 -9q-198 0 -279.5 70.5t-81.5 236.5v534h-152v215h158z" />
    <glyph glyph-name="u" unicode="u" horiz-adv-x="1201" 
d="M1075 1064v-1064h-274v158h-13q-28 -71 -106.5 -122.5t-200.5 -51.5q-166 0 -263.5 97t-97.5 281v702h281v-628q0 -117 55 -166t139 -49q87 0 142.5 56.5t55.5 161.5v625h282z" />
    <glyph glyph-name="v" unicode="v" horiz-adv-x="1058" 
d="M361 0l-349 1064h306l199 -806h11l223 806h296l-370 -1064h-316z" />
    <glyph glyph-name="w" unicode="w" horiz-adv-x="1584" 
d="M1565 1064l-275 -1064h-293l-197 745h-9l-194 -745h-296l-282 1064h295l148 -774h11l191 774h264l195 -774h11l151 774h280z" />
    <glyph glyph-name="x" unicode="x" horiz-adv-x="1094" 
d="M743 0l-197 352h-11l-198 -352h-298l327 529l-339 535h325l193 -350h12l198 350h309l-346 -526l339 -538h-314z" />
    <glyph glyph-name="y" unicode="y" horiz-adv-x="1099" 
d="M1073 1064q-339 -1015 -343 -1027l-27 -73q-31 -80 -64.5 -136.5t-86 -106t-129 -74t-177.5 -24.5q-96 0 -152 12v200q31 -7 88 -7q94 0 136.5 34t54.5 104l9 34l-363 1064h310l214 -826h12l219 826h299z" />
    <glyph glyph-name="z" unicode="z" horiz-adv-x="1006" 
d="M84 0v157l497 679v13h-490v215h830v-174l-479 -661v-13h492v-216h-850z" />
    <glyph glyph-name="braceleft" unicode="{" horiz-adv-x="804" 
d="M316 598v-28q198 -17 198 -235v-249q0 -110 42.5 -152.5t159.5 -42.5h41v-204h-100q-212 0 -311.5 83.5t-99.5 279.5v209q0 107 -32.5 152t-125.5 45v256q93 0 125.5 45t32.5 152v178q0 193 99 273.5t312 80.5h100v-203h-41q-117 0 -159.5 -42.5t-42.5 -152.5v-226
q0 -106 -49 -158t-149 -61z" />
    <glyph glyph-name="bar" unicode="|" horiz-adv-x="711" 
d="M482 -299h-253v1736h253v-1736z" />
    <glyph glyph-name="braceright" unicode="}" horiz-adv-x="805" 
d="M489 570v28q-99 9 -148 61t-49 158v226q0 110 -43 152.5t-159 42.5h-42v203h100q213 0 311.5 -80t98.5 -274v-178q0 -107 33 -152t127 -45v-256q-94 0 -127 -45t-33 -152v-209q0 -196 -99 -279.5t-311 -83.5h-100v204h42q116 0 159 42.5t43 152.5v249q0 218 197 235z" />
    <glyph glyph-name="asciitilde" unicode="~" horiz-adv-x="1115" 
d="M754 477q-110 0 -225 100q-5 4 -22 18.5t-23 19t-20.5 16t-22.5 15.5t-20.5 10.5t-23 8.5t-21.5 2q-105 0 -113 -157h-206q0 85 17 154t52 123t94 83.5t138 29.5q114 0 224 -97q35 -31 51.5 -44.5t45.5 -28.5t55 -15q107 0 115 155h206q0 -113 -31 -199.5t-100.5 -140
t-169.5 -53.5z" />
    <glyph glyph-name="nonbreakingspace" unicode="&#xa0;" horiz-adv-x="402" 
 />
    <glyph glyph-name="exclamdown" unicode="&#xa1;" horiz-adv-x="564" 
d="M435 -278h-309l34 949h243zM452 961q0 -65 -46 -104.5t-125 -39.5q-76 0 -122.5 39.5t-46.5 104.5q0 66 46 105.5t123 39.5q79 0 125 -39.5t46 -105.5z" />
    <glyph glyph-name="cent" unicode="&#xa2;" horiz-adv-x="1185" 
d="M1054 501q-3 -143 -102.5 -243t-252.5 -117v-223h-212v222q-164 18 -272.5 142t-108.5 333v142q0 101 31 186t84 142t121 92t145 45v225h212v-228q154 -17 251 -122.5t100 -242.5h-253q-6 62 -60 113.5t-146 51.5q-105 0 -165.5 -72.5t-60.5 -188.5v-145
q0 -122 62 -193.5t166 -71.5q92 0 145.5 44.5t62.5 108.5h253z" />
    <glyph glyph-name="sterling" unicode="&#xa3;" horiz-adv-x="1185" 
d="M1119 227v-227h-1028v236q38 4 64.5 14.5t50 33t35 64.5t11.5 103v132h-173v191h173v245q0 172 115 271t313 99q202 0 315.5 -98.5t116.5 -282.5h-264q-2 68 -45.5 111.5t-119.5 43.5q-82 0 -123.5 -49t-41.5 -128v-212h291v-191h-291l-1 -142q-3 -160 -85 -198v-16h687z
" />
    <glyph glyph-name="currency" unicode="&#xa4;" horiz-adv-x="1185" 
d="M969 124l-161 162q-99 -60 -216 -60q-120 0 -219 62l-163 -164l-142 142l163 163q-64 100 -64 221q0 118 61 218l-160 159l142 142l159 -159q101 65 223 65q119 0 220 -63l157 157l142 -142l-157 -157q62 -102 62 -220q0 -121 -65 -224l160 -160zM375 650
q0 -89 63.5 -152.5t153.5 -63.5q89 0 152.5 63.5t63.5 152.5q0 90 -63.5 153.5t-152.5 63.5q-90 0 -153.5 -63.5t-63.5 -153.5z" />
    <glyph glyph-name="yen" unicode="&#xa5;" horiz-adv-x="1185" 
d="M1027 194h-290v-194h-288v194h-285v174h285v118h-285v175h205l-378 704h319l280 -573h12l281 573h311l-380 -704h213v-175h-290v-118h290v-174z" />
    <glyph glyph-name="brokenbar" unicode="&#xa6;" horiz-adv-x="581" 
d="M417 780h-253v657h253v-657zM417 -299h-253v679h253v-679z" />
    <glyph glyph-name="section" unicode="&#xa7;" horiz-adv-x="932" 
d="M627 73q0 17 -4 31t-14 26t-19.5 21t-27.5 18.5t-31.5 15.5t-38 13.5t-40 12t-44.5 12.5t-45 13q-68 19 -117 41t-94.5 56.5t-69 85.5t-23.5 118q0 161 166 253v7q-158 92 -158 259q0 107 57 184.5t147.5 114.5t203.5 37q179 0 285.5 -90.5t106.5 -236.5h-231
q-3 52 -48.5 92.5t-119.5 40.5q-67 0 -108 -35.5t-41 -91.5q0 -34 16.5 -59.5t56 -44t68 -27.5t89.5 -25q20 -5 30 -8q53 -14 91.5 -27.5t82.5 -38t71 -54t45.5 -75.5t18.5 -103q0 -162 -156 -267v-7q70 -42 109 -96t39 -142q0 -156 -114 -252t-303 -96q-180 0 -294 88
t-116 238h234q9 -60 53.5 -95.5t121.5 -35.5q83 0 124 37t41 92zM545 405q42 19 70 62t28 92q0 63 -44.5 99t-127.5 56q-8 2 -63 13q-43 -17 -74.5 -59.5t-31.5 -93.5q0 -63 43.5 -96.5t127.5 -55.5l39 -9t33 -8z" />
    <glyph glyph-name="dieresis" unicode="&#xa8;" horiz-adv-x="948" 
d="M143 1333q0 54 34 87.5t90 33.5q57 0 91 -33.5t34 -87.5t-34 -87t-91 -33q-55 0 -89.5 33.5t-34.5 86.5zM547 1333q0 54 34 87.5t89 33.5q57 0 91 -33.5t34 -87.5t-34 -87t-91 -33q-55 0 -89 33.5t-34 86.5z" />
    <glyph glyph-name="copyright" unicode="&#xa9;" horiz-adv-x="1641" 
d="M484 632v99q0 155 97.5 243.5t250.5 88.5q140 0 230 -80t92 -190h-175q-4 45 -40.5 80t-105.5 35q-167 0 -167 -183v-94q0 -88 45.5 -131t121.5 -43q68 0 105.5 27t43.5 72h174q-2 -108 -89 -183.5t-235 -75.5q-154 0 -251 88t-97 247zM240 642q0 -252 162 -413t424 -161
t425 161.5t163 412.5v105q0 114 -43.5 215.5t-119.5 176t-186.5 118t-238.5 43.5q-171 0 -305.5 -74t-207.5 -200t-73 -279v-105zM826 -64q-209 0 -374 92t-255.5 253.5t-90.5 362.5v103q0 142 54 268t148 218t229 145.5t289 53.5q155 0 290 -54t228.5 -146.5t147.5 -218.5
t54 -266v-103q0 -151 -53 -282t-146.5 -224.5t-228.5 -147.5t-292 -54z" />
    <glyph glyph-name="ordfeminine" unicode="&#xaa;" horiz-adv-x="661" 
d="M256 753q-100 0 -157.5 47.5t-57.5 132.5q0 84 58 131.5t175 47.5h145v49q0 70 -89 70q-79 0 -87 -54h-175q10 186 266 186q274 0 274 -207v-394h-180v73h-9q-41 -82 -163 -82zM318 879q42 0 71.5 22t29.5 58v51h-98q-93 0 -93 -63q0 -34 26 -51t64 -17z" />
    <glyph glyph-name="guillemotleft" unicode="&#xab;" horiz-adv-x="1298" 
d="M597 565l344 404h260l-339 -403v-6l339 -405h-269l-335 402v8zM91 565l344 404h260l-339 -403v-6l339 -405h-269l-335 402v8z" />
    <glyph glyph-name="logicalnot" unicode="&#xac;" horiz-adv-x="1185" 
d="M1099 86h-244v345h-774v224h1018v-569z" />
    <glyph glyph-name="registered" unicode="&#xae;" horiz-adv-x="1159" 
d="M578 414q-218 0 -361 138t-143 346v71q0 197 144.5 332.5t359.5 135.5q213 0 358 -136.5t145 -331.5v-71q0 -209 -142 -346.5t-361 -137.5zM578 523q169 0 280 107.5t111 268.5v68q0 151 -112 257t-279 106q-168 0 -279 -105.5t-111 -257.5v-68q0 -161 110.5 -268.5
t279.5 -107.5zM504 1088v-132h78q88 0 88 66q0 31 -21 48.5t-59 17.5h-86zM504 696h-120v482h241q77 0 124 -44t47 -111q0 -53 -27 -92t-68 -51l110 -184h-133l-95 170h-79v-170z" />
    <glyph glyph-name="macron" unicode="&#xaf;" horiz-adv-x="948" 
d="M768 1258h-590v145h590v-145z" />
    <glyph glyph-name="degree" unicode="&#xb0;" horiz-adv-x="562" 
d="M282 885q-106 0 -178.5 72.5t-72.5 178.5q0 105 72.5 177t178.5 72q105 0 177.5 -72t72.5 -177q0 -106 -72.5 -178.5t-177.5 -72.5zM282 1028q45 0 75.5 31.5t30.5 76.5t-30.5 76t-75.5 31q-44 0 -75 -31t-31 -76q0 -44 31.5 -76t74.5 -32z" />
    <glyph glyph-name="plusminus" unicode="&#xb1;" horiz-adv-x="1185" 
d="M711 642v-246h-243v246h-361v212h361v230h243v-230h365v-212h-365zM1078 64h-969v219h969v-219z" />
    <glyph glyph-name="twosuperior" unicode="&#xb2;" horiz-adv-x="647" 
d="M237 1148h-181v13q0 89 67 155t196 66q117 0 187.5 -56t70.5 -144q0 -15 -2.5 -30.5t-6.5 -28.5t-11 -27.5t-12.5 -24t-15.5 -22.5t-15.5 -20t-17 -19t-15.5 -16t-15.5 -14.5t-12.5 -11.5l-132 -117v-5h266v-148h-514v115l243 232q75 73 75 119q0 31 -22 51.5t-55 20.5
q-35 0 -56 -21.5t-21 -52.5v-14z" />
    <glyph glyph-name="threesuperior" unicode="&#xb3;" horiz-adv-x="660" 
d="M244 971v136h75q39 0 61 20t22 50t-23 48.5t-60 18.5q-40 0 -61.5 -21t-23.5 -53h-175q4 97 73 154.5t192 57.5q117 0 186.5 -49.5t69.5 -130.5q0 -59 -38 -100t-90 -52v-6q65 -8 106.5 -47t41.5 -108q0 -97 -80.5 -150.5t-195.5 -53.5q-132 0 -201.5 62t-70.5 151h175
q1 -32 24.5 -52.5t65.5 -20.5q43 0 69.5 21t26.5 53q0 31 -24.5 51.5t-67.5 20.5h-77z" />
    <glyph glyph-name="acute" unicode="&#xb4;" horiz-adv-x="948" 
d="M449 1225h-236l207 294h283z" />
    <glyph glyph-name="paragraph" unicode="&#xb6;" horiz-adv-x="1422" 
d="M847 -210h-266v650h-20q-65 0 -130 17.5t-126.5 55t-108.5 91t-76 131.5t-29 169q0 99 29 179.5t76 132t109.5 86t126.5 49t130 14.5h285v-1575zM1010 -210v1575h266v-1575h-266z" />
    <glyph glyph-name="periodcentered" unicode="&#xb7;" horiz-adv-x="609" 
d="M125 760q0 72 47 115.5t116 43.5q71 0 118.5 -44t47.5 -115t-47.5 -114.5t-118.5 -43.5q-69 0 -116 43.5t-47 114.5z" />
    <glyph glyph-name="cedilla" unicode="&#xb8;" horiz-adv-x="948" 
d="M355 -236v105l52 136h161l-47 -122q88 0 140 -45t52 -124q0 -97 -66.5 -145.5t-181.5 -50.5q-86 -3 -146 15v126q47 -14 111 -14q109 0 109 60q0 35 -30 47t-99 12h-55z" />
    <glyph glyph-name="onesuperior" unicode="&#xb9;" horiz-adv-x="562" 
d="M434 698h-192v498h-9l-155 -107v163l164 113h192v-667z" />
    <glyph glyph-name="ordmasculine" unicode="&#xba;" horiz-adv-x="673" 
d="M337 1226q-56 0 -84 -40t-28 -103v-56q0 -63 27 -103.5t85 -40.5q57 0 83.5 40.5t26.5 103.5v56q0 64 -27 103.5t-83 39.5zM337 1363q136 0 216.5 -76t80.5 -204v-53q0 -135 -79.5 -209.5t-217.5 -74.5q-139 0 -218.5 74t-79.5 209v54q0 126 81 203t217 77z" />
    <glyph glyph-name="guillemotright" unicode="&#xbb;" horiz-adv-x="1298" 
d="M1206 565v-8l-335 -402h-269l339 405v6l-339 403h260zM700 565v-8l-335 -402h-269l339 405v6l-339 403h260z" />
    <glyph glyph-name="onequarter" unicode="&#xbc;" horiz-adv-x="1393" 
d="M960 242h168v290h-8q-80 -130 -160 -288v-2zM1041 666h257v-424h81v-137h-81v-105h-170v105h-332v136q86 160 245 425zM365 698h-192v498h-9l-155 -107v163l164 113h192v-667zM256 -1h-209l559 717l493 649h209l-549 -703z" />
    <glyph glyph-name="onehalf" unicode="&#xbd;" horiz-adv-x="1403" 
d="M1058 443h-182v13q0 41 15.5 79.5t46 71.5t83 52.5t120.5 19.5q118 0 189.5 -57t71.5 -145q0 -16 -2.5 -31.5t-6.5 -28.5t-11 -27.5t-12.5 -24.5t-16 -23t-16 -20t-17 -19t-15.5 -16t-15.5 -14.5t-12.5 -11.5l-134 -118v-5h269v-149h-519v116l245 234q76 71 76 120
q0 31 -22.5 52t-55.5 21q-35 0 -56.5 -22t-21.5 -53v-14zM365 698h-192v498h-9l-155 -107v163l164 113h192v-667zM256 -1h-209l559 717l493 649h209l-549 -703z" />
    <glyph glyph-name="threequarters" unicode="&#xbe;" horiz-adv-x="1444" 
d="M1011 243h169v289h-9q-74 -120 -160 -287v-2zM1092 666h259v-423h79v-138h-79v-105h-171v105h-333v136q86 160 245 425zM201 959v137h75q39 0 61.5 20t22.5 51t-23 49t-61 18q-40 0 -61.5 -21.5t-23.5 -53.5h-177q4 98 73.5 156t193.5 58q119 0 188.5 -49.5t69.5 -131.5
q0 -60 -38 -101t-91 -52v-6q66 -8 108 -47.5t42 -109.5q0 -98 -81 -151.5t-198 -53.5q-133 0 -203 63t-71 152h177q1 -33 24.5 -53.5t65.5 -20.5q44 0 70.5 21t26.5 54q0 31 -24.5 51.5t-68.5 20.5h-77zM307 -1h-209l559 717l493 649h209l-549 -703z" />
    <glyph glyph-name="questiondown" unicode="&#xbf;" horiz-adv-x="982" 
d="M690 952q0 -65 -46.5 -104.5t-124.5 -39.5q-76 0 -122.5 39.5t-46.5 104.5q0 66 46 105.5t123 39.5q79 0 125 -39.5t46 -105.5zM943 95q3 -86 -21.5 -156.5t-68 -117t-104 -78t-126.5 -45t-138 -13.5q-123 0 -222 39t-162 124.5t-63 204.5q0 62 16 112.5t49 89.5t61 63
t74 56q44 31 63 45.5t43.5 37t33.5 40.5t15.5 43t6.5 58v51h252l2 -56q8 -108 -37.5 -185.5t-138.5 -140.5q-43 -30 -65 -46.5t-46 -41.5t-33.5 -51.5t-9.5 -60.5q0 -80 51 -120.5t126 -40.5q87 0 134.5 52.5t48.5 136.5h259z" />
    <glyph glyph-name="Agrave" unicode="&#xc0;" horiz-adv-x="1271" 
d="M302 0h-289l452 1365h343l450 -1365h-309l-101 339h-444zM634 1093h-13l-160 -541h331zM778 1504h-234l-305 214h278z" />
    <glyph glyph-name="Aacute" unicode="&#xc1;" horiz-adv-x="1271" 
d="M302 0h-289l452 1365h343l450 -1365h-309l-101 339h-444zM634 1093h-13l-160 -541h331zM474 1504l271 222h290l-316 -222h-245z" />
    <glyph glyph-name="Acircumflex" unicode="&#xc2;" horiz-adv-x="1271" 
d="M302 0h-289l452 1365h343l450 -1365h-309l-101 339h-444zM634 1093h-13l-160 -541h331zM277 1495l269 244h190l262 -244h-219l-133 128h-14l-137 -128h-218z" />
    <glyph glyph-name="Atilde" unicode="&#xc3;" horiz-adv-x="1271" 
d="M302 0h-289l452 1365h343l450 -1365h-309l-101 339h-444zM634 1093h-13l-160 -541h331zM620 1521q-1 1 -16.5 16t-21 19t-18.5 10t-26 6q-62 0 -66 -85h-144q0 87 48.5 152t138.5 65q50 0 83 -15t69 -48q4 -4 19.5 -18t21.5 -18t17.5 -9.5t23.5 -5.5q32 0 47.5 29.5
t17.5 69.5h144q0 -92 -54 -157.5t-138 -65.5q-56 0 -86.5 14t-59.5 41z" />
    <glyph glyph-name="Adieresis" unicode="&#xc4;" horiz-adv-x="1271" 
d="M302 0h-289l452 1365h343l450 -1365h-309l-101 339h-444zM634 1093h-13l-160 -541h331zM358 1581q0 49 30.5 79t81.5 30t81.5 -30t30.5 -79q0 -48 -30.5 -78t-81.5 -30q-50 0 -81 30t-31 78zM716 1581q0 49 30 79t81 30t82 -30t31 -79t-30.5 -78.5t-82.5 -29.5
q-51 0 -81 30t-30 78z" />
    <glyph glyph-name="Aring" unicode="&#xc5;" horiz-adv-x="1272" 
d="M518 1468q0 -46 33 -78t80 -32t80 32t33 78q0 48 -33 79.5t-80 31.5q-48 0 -80.5 -31.5t-32.5 -79.5zM793 552l-158 541h-14l-160 -541h332zM302 0h-289l429 1289q-82 69 -82 181t78.5 189t192.5 77t192.5 -77t78.5 -189q0 -102 -73 -170l430 -1300h-310l-100 339h-445z
" />
    <glyph glyph-name="AE" unicode="&#xc6;" horiz-adv-x="1900" 
d="M845 1132l-261 -572l328 1v571h-67zM912 338h-423l-164 -338h-318l657 1365h1135v-233h-601v-333h565v-218h-565v-347h601v-234h-887v338z" />
    <glyph glyph-name="Ccedilla" unicode="&#xc7;" horiz-adv-x="1286" 
d="M649 -482q-84 -2 -146 15v126q47 -14 111 -14q109 0 109 60q0 35 -30 47t-98 12h-55v105l41 109q-236 25 -365.5 188t-129.5 438v154q0 299 153 466t425 167q124 0 227 -38.5t171.5 -104.5t106.5 -154t38 -187v-29h-278q0 112 -70 191t-193 79q-133 0 -209.5 -99.5
t-76.5 -291.5v-154q0 -192 76 -289t212 -97q124 0 192.5 73.5t68.5 184.5h278v-30q0 -178 -124 -311t-340 -155l-38 -96q88 0 140 -45t52 -124q0 -97 -66.5 -145.5t-181.5 -50.5z" />
    <glyph glyph-name="Egrave" unicode="&#xc8;" horiz-adv-x="1133" 
d="M719 1504h-234l-305 214h278zM1032 234v-234h-891v1365h891v-234h-604v-332h568v-218h-568v-347h604z" />
    <glyph glyph-name="Eacute" unicode="&#xc9;" horiz-adv-x="1133" 
d="M415 1504l271 222h290l-316 -222h-245zM1032 234v-234h-891v1365h891v-234h-604v-332h568v-218h-568v-347h604z" />
    <glyph glyph-name="Ecircumflex" unicode="&#xca;" horiz-adv-x="1133" 
d="M218 1495l269 244h190l262 -244h-219l-133 128h-14l-137 -128h-218zM1032 234v-234h-891v1365h891v-234h-604v-332h568v-218h-568v-347h604z" />
    <glyph glyph-name="Edieresis" unicode="&#xcb;" horiz-adv-x="1133" 
d="M300 1581q0 49 30.5 79t81.5 30t81.5 -30t30.5 -79q0 -48 -30.5 -78t-81.5 -30q-50 0 -81 30t-31 78zM658 1581q0 49 30 79t81 30t82 -30t31 -79t-30.5 -78.5t-82.5 -29.5q-51 0 -81 30t-30 78zM1032 234v-234h-891v1365h891v-234h-604v-332h568v-218h-568v-347h604z" />
    <glyph glyph-name="Igrave" unicode="&#xcc;" horiz-adv-x="572" 
d="M431 0h-290v1365h290v-1365zM428 1504h-234l-305 214h278z" />
    <glyph glyph-name="Iacute" unicode="&#xcd;" horiz-adv-x="572" 
d="M431 0h-290v1365h290v-1365zM124 1504l271 222h290l-316 -222h-245z" />
    <glyph glyph-name="Icircumflex" unicode="&#xce;" horiz-adv-x="572" 
d="M431 0h-290v1365h290v-1365zM-73 1495l269 244h190l262 -244h-219l-133 128h-14l-137 -128h-218z" />
    <glyph glyph-name="Idieresis" unicode="&#xcf;" horiz-adv-x="572" 
d="M431 0h-290v1365h290v-1365zM8 1581q0 49 30.5 79t81.5 30t81.5 -30t30.5 -79q0 -48 -30.5 -78t-81.5 -30q-50 0 -81 30t-31 78zM366 1581q0 49 30 79t81 30t82 -30t31 -79t-30.5 -78.5t-82.5 -29.5q-51 0 -81 30t-30 78z" />
    <glyph glyph-name="Eth" unicode="&#xd0;" horiz-adv-x="1426" 
d="M742 0h-511v567h-165v250h165v548h511q162 0 281 -48.5t191 -140t106 -213t34 -276.5q0 -123 -21 -225.5t-67.5 -189t-117 -146.5t-173.5 -93t-233 -33zM520 240h179q176 0 266 102.5t90 343.5q0 101 -17.5 179.5t-56.5 141.5t-110.5 97t-171.5 34h-179v-321h235v-250
h-235v-327z" />
    <glyph glyph-name="Ntilde" unicode="&#xd1;" horiz-adv-x="1385" 
d="M676 1521q-1 1 -16.5 16t-21 19t-18.5 10t-26 6q-62 0 -66 -85h-144q0 87 48.5 152t138.5 65q50 0 83 -15t69 -48q4 -4 19.5 -18t21.5 -18t17.5 -9.5t23.5 -5.5q32 0 47.5 29.5t17.5 69.5h144q0 -92 -54 -157.5t-138 -65.5q-56 0 -86.5 14t-59.5 41zM413 0h-272v1365h237
l584 -876h10v876h272v-1365h-236l-585 882h-10v-882z" />
    <glyph glyph-name="Ograve" unicode="&#xd2;" horiz-adv-x="1357" 
d="M820 1504h-234l-305 214h278zM380 766v-174q0 -185 81 -281.5t217 -96.5t217 96.5t81 281.5v174q0 186 -81.5 286t-216.5 100t-216.5 -100.5t-81.5 -285.5zM86 593v170q0 292 158 460t435 168q278 0 435 -168.5t157 -459.5v-170q0 -289 -157.5 -454t-436.5 -165
q-278 0 -434.5 165t-156.5 454z" />
    <glyph glyph-name="Oacute" unicode="&#xd3;" horiz-adv-x="1357" 
d="M516 1504l271 222h290l-316 -222h-245zM380 766v-174q0 -185 81 -281.5t217 -96.5t217 96.5t81 281.5v174q0 186 -81.5 286t-216.5 100t-216.5 -100.5t-81.5 -285.5zM86 593v170q0 292 158 460t435 168q278 0 435 -168.5t157 -459.5v-170q0 -289 -157.5 -454t-436.5 -165
q-278 0 -434.5 165t-156.5 454z" />
    <glyph glyph-name="Ocircumflex" unicode="&#xd4;" horiz-adv-x="1357" 
d="M319 1495l269 244h190l262 -244h-219l-133 128h-14l-137 -128h-218zM380 766v-174q0 -185 81 -281.5t217 -96.5t217 96.5t81 281.5v174q0 186 -81.5 286t-216.5 100t-216.5 -100.5t-81.5 -285.5zM86 593v170q0 292 158 460t435 168q278 0 435 -168.5t157 -459.5v-170
q0 -289 -157.5 -454t-436.5 -165q-278 0 -434.5 165t-156.5 454z" />
    <glyph glyph-name="Otilde" unicode="&#xd5;" horiz-adv-x="1357" 
d="M380 766v-174q0 -185 81 -281.5t217 -96.5t217 96.5t81 281.5v174q0 186 -81.5 286t-216.5 100t-216.5 -100.5t-81.5 -285.5zM86 593v170q0 292 158 460t435 168q278 0 435 -168.5t157 -459.5v-170q0 -289 -157.5 -454t-436.5 -165q-278 0 -434.5 165t-156.5 454z
M662 1521q-1 1 -16.5 16t-21 19t-18.5 10t-26 6q-62 0 -66 -85h-144q0 87 48.5 152t138.5 65q50 0 83 -15t69 -48q4 -4 19.5 -18t21.5 -18t17.5 -9.5t23.5 -5.5q32 0 47.5 29.5t17.5 69.5h144q0 -92 -54 -157.5t-138 -65.5q-56 0 -86.5 14t-59.5 41z" />
    <glyph glyph-name="Odieresis" unicode="&#xd6;" horiz-adv-x="1357" 
d="M400 1581q0 49 30.5 79t81.5 30t81.5 -30t30.5 -79q0 -48 -30.5 -78t-81.5 -30q-50 0 -81 30t-31 78zM758 1581q0 49 30 79t81 30t82 -30t31 -79t-30.5 -78.5t-82.5 -29.5q-51 0 -81 30t-30 78zM380 766v-174q0 -185 81 -281.5t217 -96.5t217 96.5t81 281.5v174
q0 186 -81.5 286t-216.5 100t-216.5 -100.5t-81.5 -285.5zM86 593v170q0 292 158 460t435 168q278 0 435 -168.5t157 -459.5v-170q0 -289 -157.5 -454t-436.5 -165q-278 0 -434.5 165t-156.5 454z" />
    <glyph glyph-name="multiply" unicode="&#xd7;" horiz-adv-x="1185" 
d="M895 60l-302 303l-303 -303l-172 173l302 303l-302 302l172 173l303 -303l302 303l172 -173l-302 -302l302 -303z" />
    <glyph glyph-name="Oslash" unicode="&#xd8;" horiz-adv-x="1357" 
d="M677 -26q-230 0 -376 119l-99 -122l-126 103l111 137q-101 153 -101 382v170q0 292 158 460t435 168q226 0 372 -117l88 109l130 -96l-105 -129q107 -157 107 -395v-170q0 -289 -157.5 -454t-436.5 -165zM373 589q0 -77 18 -129l494 611q-80 86 -208 86
q-138 0 -221 -101.5t-83 -289.5v-177zM677 206q139 0 222 97.5t83 285.5v177q0 85 -21 142l-497 -614q78 -88 213 -88z" />
    <glyph glyph-name="Ugrave" unicode="&#xd9;" horiz-adv-x="1367" 
d="M825 1504h-234l-305 214h278zM415 1365v-862q0 -136 72.5 -210t196.5 -74q122 0 195.5 74.5t73.5 209.5v862h289v-892q0 -226 -152 -362.5t-406 -136.5t-406 137.5t-152 363.5v890h289z" />
    <glyph glyph-name="Uacute" unicode="&#xda;" horiz-adv-x="1367" 
d="M521 1504l271 222h290l-316 -222h-245zM415 1365v-862q0 -136 72.5 -210t196.5 -74q122 0 195.5 74.5t73.5 209.5v862h289v-892q0 -226 -152 -362.5t-406 -136.5t-406 137.5t-152 363.5v890h289z" />
    <glyph glyph-name="Ucircumflex" unicode="&#xdb;" horiz-adv-x="1367" 
d="M324 1495l269 244h190l262 -244h-219l-133 128h-14l-137 -128h-218zM415 1365v-862q0 -136 72.5 -210t196.5 -74q122 0 195.5 74.5t73.5 209.5v862h289v-892q0 -226 -152 -362.5t-406 -136.5t-406 137.5t-152 363.5v890h289z" />
    <glyph glyph-name="Udieresis" unicode="&#xdc;" horiz-adv-x="1367" 
d="M406 1581q0 49 30.5 79t81.5 30t81.5 -30t30.5 -79q0 -48 -30.5 -78t-81.5 -30q-50 0 -81 30t-31 78zM764 1581q0 49 30 79t81 30t82 -30t31 -79t-30.5 -78.5t-82.5 -29.5q-51 0 -81 30t-30 78zM415 1365v-862q0 -136 72.5 -210t196.5 -74q122 0 195.5 74.5t73.5 209.5
v862h289v-892q0 -226 -152 -362.5t-406 -136.5t-406 137.5t-152 363.5v890h289z" />
    <glyph glyph-name="Yacute" unicode="&#xdd;" horiz-adv-x="1164" 
d="M727 0h-289v505l-457 860h319l281 -573h10l282 573h311l-457 -853v-512zM420 1504l271 222h290l-316 -222h-245z" />
    <glyph glyph-name="Thorn" unicode="&#xde;" horiz-adv-x="1205" 
d="M141 1365h288v-224h258q220 0 343.5 -121.5t123.5 -319.5q0 -199 -124 -318t-346 -119h-254v-263h-289v1365zM429 914v-428h176q121 0 188 47.5t67 166.5q0 107 -61 160.5t-172 53.5h-198z" />
    <glyph glyph-name="germandbls" unicode="&#xdf;" horiz-adv-x="1323" 
d="M419 0h-283v1048q0 98 38.5 175.5t106.5 125.5t156.5 73t192.5 25q223 0 357 -101.5t133 -261.5q0 -133 -73 -217.5t-162 -100.5v-16q68 -1 131.5 -24.5t115.5 -67t83.5 -113.5t31.5 -156q0 -100 -39.5 -178.5t-108 -127.5t-156.5 -74.5t-188 -25.5q-115 0 -180 19v221
q50 -19 134 -19q110 0 180 49.5t70 149.5q0 98 -78.5 151.5t-202.5 53.5h-79v233h47q79 0 139 55t60 140q0 82 -54.5 133.5t-154.5 51.5q-217 0 -217 -230v-991z" />
    <glyph glyph-name="agrave" unicode="&#xe0;" horiz-adv-x="1105" 
d="M709 134q-34 -65 -105.5 -107.5t-180.5 -42.5q-157 0 -253.5 87t-96.5 235q0 147 98.5 232t280.5 85h256v103q0 142 -164 142q-78 0 -120 -36t-47 -98h-265q3 71 27.5 130.5t73.5 109t135 78t202 28.5q202 0 319 -87.5t117 -274.5v-718h-265v134h-12zM516 186
q80 0 136 47.5t56 119.5v105h-189q-81 0 -124 -36t-43 -96q0 -67 48 -103.5t116 -36.5zM718 1230h-236l-263 290h283z" />
    <glyph glyph-name="aacute" unicode="&#xe1;" horiz-adv-x="1105" 
d="M709 134q-34 -65 -105.5 -107.5t-180.5 -42.5q-157 0 -253.5 87t-96.5 235q0 147 98.5 232t280.5 85h256v103q0 142 -164 142q-78 0 -120 -36t-47 -98h-265q3 71 27.5 130.5t73.5 109t135 78t202 28.5q202 0 319 -87.5t117 -274.5v-718h-265v134h-12zM516 186
q80 0 136 47.5t56 119.5v105h-189q-81 0 -124 -36t-43 -96q0 -67 48 -103.5t116 -36.5zM663 1226h-236l207 294h283z" />
    <glyph glyph-name="acircumflex" unicode="&#xe2;" horiz-adv-x="1105" 
d="M709 134q-34 -65 -105.5 -107.5t-180.5 -42.5q-157 0 -253.5 87t-96.5 235q0 147 98.5 232t280.5 85h256v103q0 142 -164 142q-78 0 -120 -36t-47 -98h-265q3 71 27.5 130.5t73.5 109t135 78t202 28.5q202 0 319 -87.5t117 -274.5v-718h-265v134h-12zM516 186
q80 0 136 47.5t56 119.5v105h-189q-81 0 -124 -36t-43 -96q0 -67 48 -103.5t116 -36.5zM217 1226l230 308h201l219 -309h-216l-101 176h-9l-113 -175h-211z" />
    <glyph glyph-name="atilde" unicode="&#xe3;" horiz-adv-x="1105" 
d="M709 134q-34 -65 -105.5 -107.5t-180.5 -42.5q-157 0 -253.5 87t-96.5 235q0 147 98.5 232t280.5 85h256v103q0 142 -164 142q-78 0 -120 -36t-47 -98h-265q3 71 27.5 130.5t73.5 109t135 78t202 28.5q202 0 319 -87.5t117 -274.5v-718h-265v134h-12zM516 186
q80 0 136 47.5t56 119.5v105h-189q-81 0 -124 -36t-43 -96q0 -67 48 -103.5t116 -36.5zM519 1238q-15 16 -24 24t-26 16.5t-35 8.5q-69 0 -73 -97h-160q0 118 55 198.5t162 80.5q47 0 83 -18.5t77 -58.5l14.5 -14.5t17 -16t14.5 -10.5t19.5 -10t19.5 -2q35 0 51.5 33.5
t18.5 78.5h159q0 -113 -62 -196t-161 -83q-53 0 -86 17.5t-64 48.5z" />
    <glyph glyph-name="adieresis" unicode="&#xe4;" horiz-adv-x="1105" 
d="M709 134q-34 -65 -105.5 -107.5t-180.5 -42.5q-157 0 -253.5 87t-96.5 235q0 147 98.5 232t280.5 85h256v103q0 142 -164 142q-78 0 -120 -36t-47 -98h-265q3 71 27.5 130.5t73.5 109t135 78t202 28.5q202 0 319 -87.5t117 -274.5v-718h-265v134h-12zM516 186
q80 0 136 47.5t56 119.5v105h-189q-81 0 -124 -36t-43 -96q0 -67 48 -103.5t116 -36.5zM229 1296q0 54 34 87.5t90 33.5q57 0 91 -33.5t34 -87.5t-34 -87t-91 -33q-55 0 -89.5 33.5t-34.5 86.5zM633 1296q0 54 34 87.5t89 33.5q57 0 91 -33.5t34 -87.5t-34 -87t-91 -33
q-55 0 -89 33.5t-34 86.5z" />
    <glyph glyph-name="aring" unicode="&#xe5;" horiz-adv-x="1105" 
d="M709 134q-34 -65 -105.5 -107.5t-180.5 -42.5q-157 0 -253.5 87t-96.5 235q0 147 98.5 232t280.5 85h256v103q0 142 -164 142q-78 0 -120 -36t-47 -98h-265q3 71 27.5 130.5t73.5 109t135 78t202 28.5q202 0 319 -87.5t117 -274.5v-718h-265v134h-12zM516 186
q80 0 136 47.5t56 119.5v105h-189q-81 0 -124 -36t-43 -96q0 -67 48 -103.5t116 -36.5zM549 1183q-94 0 -156.5 60t-62.5 152t62.5 151.5t156.5 59.5t156 -59.5t62 -151.5t-62.5 -152t-155.5 -60zM456 1394q0 -40 26 -66.5t66 -26.5t66.5 26.5t26.5 66.5t-26.5 66.5
t-66.5 26.5t-66 -26.5t-26 -66.5z" />
    <glyph glyph-name="ae" unicode="&#xe6;" horiz-adv-x="1751" 
d="M1218 -19q-149 0 -248.5 53t-143.5 142h-16q-47 -83 -140 -139t-225 -56q-172 0 -273 87t-101 239q0 148 100.5 234t283.5 86h254v93q0 73 -44 110.5t-123 37.5q-74 0 -116 -30t-51 -80h-265q4 67 31 124t77.5 102.5t135 71.5t194.5 26q106 0 194 -34.5t134 -93.5h16
q45 59 129 93.5t183 34.5q212 0 341.5 -132.5t129.5 -357.5v-121h-673v-64q0 -94 60.5 -153t154.5 -59q76 0 126.5 32.5t58.5 83.5h264q-3 -43 -20 -86.5t-53 -88t-85.5 -78.5t-125 -55.5t-164.5 -21.5zM1206 875q-88 0 -146 -61.5t-58 -156.5v-20h401v14q0 103 -53 163.5
t-144 60.5zM518 186q79 0 135 47.5t56 119.5v109h-189q-82 0 -127 -36.5t-45 -97.5q0 -67 50 -104.5t120 -37.5z" />
    <glyph glyph-name="ccedilla" unicode="&#xe7;" horiz-adv-x="1073" 
d="M539 -472q-92 -1 -146 16v125q44 -13 111 -13q109 0 109 60q0 35 -28 47t-95 12h-55v104l44 107q-189 22 -295 155t-106 348v94q0 223 128 361.5t352 138.5q204 0 323.5 -109.5t121.5 -274.5h-258q-6 65 -54 114.5t-125 49.5q-99 0 -152 -78.5t-53 -204.5v-89
q0 -131 54.5 -208.5t150.5 -77.5q85 0 129 42t54 108h258q-3 -152 -102 -250.5t-264 -118.5l-41 -93q88 0 137.5 -44.5t49.5 -123.5q0 -98 -66.5 -146.5t-181.5 -50.5z" />
    <glyph glyph-name="egrave" unicode="&#xe8;" horiz-adv-x="1106" 
d="M719 1230h-236l-263 290h283zM570 -19q-232 0 -362 133.5t-130 374.5v83q0 239 130 375t348 136q223 0 349 -138t126 -372v-100h-677v-36q0 -105 57.5 -173.5t157.5 -68.5q83 0 132.5 37.5t57.5 94.5h263q-4 -47 -21 -93t-52.5 -92.5t-85.5 -81.5t-126 -57t-167 -22z
M354 645h406v2q0 101 -54.5 164.5t-147.5 63.5t-148.5 -64t-55.5 -164v-2z" />
    <glyph glyph-name="eacute" unicode="&#xe9;" horiz-adv-x="1106" 
d="M664 1226h-236l207 294h283zM570 -19q-232 0 -362 133.5t-130 374.5v83q0 239 130 375t348 136q223 0 349 -138t126 -372v-100h-677v-36q0 -105 57.5 -173.5t157.5 -68.5q83 0 132.5 37.5t57.5 94.5h263q-4 -47 -21 -93t-52.5 -92.5t-85.5 -81.5t-126 -57t-167 -22z
M354 645h406v2q0 101 -54.5 164.5t-147.5 63.5t-148.5 -64t-55.5 -164v-2z" />
    <glyph glyph-name="ecircumflex" unicode="&#xea;" horiz-adv-x="1106" 
d="M218 1226l230 308h201l219 -309h-216l-101 176h-9l-113 -175h-211zM570 -19q-232 0 -362 133.5t-130 374.5v83q0 239 130 375t348 136q223 0 349 -138t126 -372v-100h-677v-36q0 -105 57.5 -173.5t157.5 -68.5q83 0 132.5 37.5t57.5 94.5h263q-4 -47 -21 -93t-52.5 -92.5
t-85.5 -81.5t-126 -57t-167 -22zM354 645h406v2q0 101 -54.5 164.5t-147.5 63.5t-148.5 -64t-55.5 -164v-2z" />
    <glyph glyph-name="edieresis" unicode="&#xeb;" horiz-adv-x="1106" 
d="M570 -19q-232 0 -362 133.5t-130 374.5v83q0 239 130 375t348 136q223 0 349 -138t126 -372v-100h-677v-36q0 -105 57.5 -173.5t157.5 -68.5q83 0 132.5 37.5t57.5 94.5h263q-4 -47 -21 -93t-52.5 -92.5t-85.5 -81.5t-126 -57t-167 -22zM354 645h406v2q0 101 -54.5 164.5
t-147.5 63.5t-148.5 -64t-55.5 -164v-2zM230 1296q0 54 34 87.5t90 33.5q57 0 91 -33.5t34 -87.5t-34 -87t-91 -33q-55 0 -89.5 33.5t-34.5 86.5zM634 1296q0 54 34 87.5t89 33.5q57 0 91 -33.5t34 -87.5t-34 -87t-91 -33q-55 0 -89 33.5t-34 86.5z" />
    <glyph glyph-name="igrave" unicode="&#xec;" horiz-adv-x="570" 
d="M456 1230h-236l-263 290h283zM148 0v1064h288v-1064h-288z" />
    <glyph glyph-name="iacute" unicode="&#xed;" horiz-adv-x="570" 
d="M401 1226h-236l207 294h283zM148 0v1064h288v-1064h-288z" />
    <glyph glyph-name="icircumflex" unicode="&#xee;" horiz-adv-x="570" 
d="M-45 1226l230 308h201l219 -309h-216l-101 176h-9l-113 -175h-211zM148 0v1064h288v-1064h-288z" />
    <glyph glyph-name="idieresis" unicode="&#xef;" horiz-adv-x="570" 
d="M148 0v1064h288v-1064h-288zM-33 1296q0 54 34 87.5t90 33.5q57 0 91 -33.5t34 -87.5t-34 -87t-91 -33q-55 0 -89.5 33.5t-34.5 86.5zM371 1296q0 54 34 87.5t89 33.5q57 0 91 -33.5t34 -87.5t-34 -87t-91 -33q-55 0 -89 33.5t-34 86.5z" />
    <glyph glyph-name="eth" unicode="&#xf0;" horiz-adv-x="1141" 
d="M570 -19q-225 0 -358.5 131t-133.5 367v60q0 223 116.5 358.5t312.5 135.5q153 0 232 -93h13q0 1 -5.5 25.5t-7.5 29.5q-30 109 -129 223l-276 -107l-52 131l220 85q-83 76 -214 168l276 49q91 -45 173 -123l237 92l55 -128l-180 -70q100 -118 157 -273t57 -333v-220
q0 -238 -133 -373t-360 -135zM572 819q-97 0 -156.5 -73.5t-59.5 -201.5v-66q0 -130 58 -202.5t158 -72.5q99 0 156.5 72.5t57.5 202.5v73q0 130 -57.5 199t-156.5 69z" />
    <glyph glyph-name="ntilde" unicode="&#xf1;" horiz-adv-x="1204" 
d="M569 1238q-15 16 -24 24t-26 16.5t-35 8.5q-69 0 -73 -97h-160q0 118 55 198.5t162 80.5q47 0 83 -18.5t77 -58.5l14.5 -14.5t17 -16t14.5 -10.5t19.5 -10t19.5 -2q35 0 51.5 33.5t18.5 78.5h159q0 -113 -62 -196t-161 -83q-53 0 -86 17.5t-64 48.5zM126 0v1064h274v-158
h12q29 70 109 122t198 52q164 0 264 -99t100 -282v-699h-281v617q0 117 -52.5 171t-142.5 54q-92 0 -146 -59t-54 -172v-611h-281z" />
    <glyph glyph-name="ograve" unicode="&#xf2;" horiz-adv-x="1141" 
d="M736 1230h-236l-263 290h283zM572 1083q236 0 363.5 -140t127.5 -373v-70q0 -243 -126.5 -381t-364.5 -138q-240 0 -367 137t-127 381v70q0 112 32 205.5t93 162.5t155.5 107.5t213.5 38.5zM571 868q-59 0 -101 -25t-65 -69.5t-33 -95.5t-10 -112v-67q0 -61 10 -111.5
t32.5 -95t65 -70t101.5 -25.5q48 0 85 17t59.5 45.5t37 68.5t20 81.5t5.5 89.5v67q0 62 -10 113t-32 95t-64 69t-101 25z" />
    <glyph glyph-name="oacute" unicode="&#xf3;" horiz-adv-x="1141" 
d="M681 1226h-236l207 294h283zM572 1083q236 0 363.5 -140t127.5 -373v-70q0 -243 -126.5 -381t-364.5 -138q-240 0 -367 137t-127 381v70q0 112 32 205.5t93 162.5t155.5 107.5t213.5 38.5zM571 868q-59 0 -101 -25t-65 -69.5t-33 -95.5t-10 -112v-67q0 -61 10 -111.5
t32.5 -95t65 -70t101.5 -25.5q48 0 85 17t59.5 45.5t37 68.5t20 81.5t5.5 89.5v67q0 62 -10 113t-32 95t-64 69t-101 25z" />
    <glyph glyph-name="ocircumflex" unicode="&#xf4;" horiz-adv-x="1141" 
d="M235 1226l230 308h201l219 -309h-216l-101 176h-9l-113 -175h-211zM572 1083q236 0 363.5 -140t127.5 -373v-70q0 -243 -126.5 -381t-364.5 -138q-240 0 -367 137t-127 381v70q0 112 32 205.5t93 162.5t155.5 107.5t213.5 38.5zM571 868q-59 0 -101 -25t-65 -69.5
t-33 -95.5t-10 -112v-67q0 -61 10 -111.5t32.5 -95t65 -70t101.5 -25.5q48 0 85 17t59.5 45.5t37 68.5t20 81.5t5.5 89.5v67q0 62 -10 113t-32 95t-64 69t-101 25z" />
    <glyph glyph-name="otilde" unicode="&#xf5;" horiz-adv-x="1141" 
d="M537 1238q-15 16 -24 24t-26 16.5t-35 8.5q-69 0 -73 -97h-160q0 118 55 198.5t162 80.5q47 0 83 -18.5t77 -58.5l14.5 -14.5t17 -16t14.5 -10.5t19.5 -10t19.5 -2q35 0 51.5 33.5t18.5 78.5h159q0 -113 -62 -196t-161 -83q-53 0 -86 17.5t-64 48.5zM572 1083
q236 0 363.5 -140t127.5 -373v-70q0 -243 -126.5 -381t-364.5 -138q-240 0 -367 137t-127 381v70q0 112 32 205.5t93 162.5t155.5 107.5t213.5 38.5zM571 868q-59 0 -101 -25t-65 -69.5t-33 -95.5t-10 -112v-67q0 -61 10 -111.5t32.5 -95t65 -70t101.5 -25.5q48 0 85 17
t59.5 45.5t37 68.5t20 81.5t5.5 89.5v67q0 62 -10 113t-32 95t-64 69t-101 25z" />
    <glyph glyph-name="odieresis" unicode="&#xf6;" horiz-adv-x="1141" 
d="M247 1296q0 54 34 87.5t90 33.5q57 0 91 -33.5t34 -87.5t-34 -87t-91 -33q-55 0 -89.5 33.5t-34.5 86.5zM651 1296q0 54 34 87.5t89 33.5q57 0 91 -33.5t34 -87.5t-34 -87t-91 -33q-55 0 -89 33.5t-34 86.5zM572 1083q236 0 363.5 -140t127.5 -373v-70
q0 -243 -126.5 -381t-364.5 -138q-240 0 -367 137t-127 381v70q0 112 32 205.5t93 162.5t155.5 107.5t213.5 38.5zM571 868q-59 0 -101 -25t-65 -69.5t-33 -95.5t-10 -112v-67q0 -61 10 -111.5t32.5 -95t65 -70t101.5 -25.5q48 0 85 17t59.5 45.5t37 68.5t20 81.5t5.5 89.5
v67q0 62 -10 113t-32 95t-64 69t-101 25z" />
    <glyph glyph-name="divide" unicode="&#xf7;" horiz-adv-x="1185" 
d="M1077 473h-968v206h968v-206zM425 988q0 69 46 113t115 44q70 0 116.5 -44t46.5 -113q0 -68 -47 -111t-116 -43q-68 0 -114.5 43t-46.5 111zM431 166q0 69 46 113t115 44t116 -44.5t47 -112.5q0 -69 -46.5 -111.5t-116.5 -42.5q-68 0 -114.5 43t-46.5 111z" />
    <glyph glyph-name="oslash" unicode="&#xf8;" horiz-adv-x="1141" 
d="M425 256q54 -64 146 -64q107 0 161 82t54 206v123q0 49 -18 90zM355 465q0 -55 18 -94l343 441q-54 65 -145 65q-104 0 -160 -82.5t-56 -206.5v-123zM572 -19q-174 0 -297 83l-105 -128l-106 89l110 135q-96 127 -96 319v110q0 222 135.5 358t358.5 136q168 0 291 -84
l102 124l111 -91l-108 -133q95 -128 95 -309v-110q0 -236 -133 -367.5t-358 -131.5z" />
    <glyph glyph-name="ugrave" unicode="&#xf9;" horiz-adv-x="1201" 
d="M766 1230h-236l-263 290h283zM1075 1064v-1064h-274v158h-13q-28 -71 -106.5 -122.5t-200.5 -51.5q-166 0 -263.5 97t-97.5 281v702h281v-628q0 -117 55 -166t139 -49q87 0 142.5 56.5t55.5 161.5v625h282z" />
    <glyph glyph-name="uacute" unicode="&#xfa;" horiz-adv-x="1201" 
d="M711 1226h-236l207 294h283zM1075 1064v-1064h-274v158h-13q-28 -71 -106.5 -122.5t-200.5 -51.5q-166 0 -263.5 97t-97.5 281v702h281v-628q0 -117 55 -166t139 -49q87 0 142.5 56.5t55.5 161.5v625h282z" />
    <glyph glyph-name="ucircumflex" unicode="&#xfb;" horiz-adv-x="1201" 
d="M265 1226l230 308h201l219 -309h-216l-101 176h-9l-113 -175h-211zM1075 1064v-1064h-274v158h-13q-28 -71 -106.5 -122.5t-200.5 -51.5q-166 0 -263.5 97t-97.5 281v702h281v-628q0 -117 55 -166t139 -49q87 0 142.5 56.5t55.5 161.5v625h282z" />
    <glyph glyph-name="udieresis" unicode="&#xfc;" horiz-adv-x="1201" 
d="M1075 1064v-1064h-274v158h-13q-28 -71 -106.5 -122.5t-200.5 -51.5q-166 0 -263.5 97t-97.5 281v702h281v-628q0 -117 55 -166t139 -49q87 0 142.5 56.5t55.5 161.5v625h282zM277 1296q0 54 34 87.5t90 33.5q57 0 91 -33.5t34 -87.5t-34 -87t-91 -33q-55 0 -89.5 33.5
t-34.5 86.5zM681 1296q0 54 34 87.5t89 33.5q57 0 91 -33.5t34 -87.5t-34 -87t-91 -33q-55 0 -89 33.5t-34 86.5z" />
    <glyph glyph-name="yacute" unicode="&#xfd;" horiz-adv-x="1099" 
d="M1073 1064q-339 -1015 -343 -1027l-27 -73q-31 -80 -64.5 -136.5t-86 -106t-129 -74t-177.5 -24.5q-96 0 -152 12v200q31 -7 88 -7q94 0 136.5 34t54.5 104l9 34l-363 1064h310l214 -826h12l219 826h299zM660 1226h-236l207 294h283z" />
    <glyph glyph-name="thorn" unicode="&#xfe;" horiz-adv-x="1202" 
d="M724 -13q-116 0 -192.5 49t-108.5 128h-14v-516h-282l-1 1789h278l1 -542h14q31 81 111 131.5t197 50.5q182 0 288 -125t106 -351v-136q0 -228 -107 -353t-290 -125zM623 209q96 0 152.5 70.5t56.5 208.5v88q0 136 -56 207.5t-155 71.5q-98 0 -155 -70t-57 -195v-127
q0 -117 59 -185.5t155 -68.5z" />
    <glyph glyph-name="ydieresis" unicode="&#xff;" horiz-adv-x="1099" 
d="M1073 1064q-339 -1015 -343 -1027l-27 -73q-31 -80 -64.5 -136.5t-86 -106t-129 -74t-177.5 -24.5q-96 0 -152 12v200q31 -7 88 -7q94 0 136.5 34t54.5 104l9 34l-363 1064h310l214 -826h12l219 826h299zM226 1296q0 54 34 87.5t90 33.5q57 0 91 -33.5t34 -87.5t-34 -87
t-91 -33q-55 0 -89.5 33.5t-34.5 86.5zM630 1296q0 54 34 87.5t89 33.5q57 0 91 -33.5t34 -87.5t-34 -87t-91 -33q-55 0 -89 33.5t-34 86.5z" />
    <glyph glyph-name="Amacron" unicode="&#x100;" horiz-adv-x="1271" 
d="M302 0h-289l452 1365h343l450 -1365h-309l-101 339h-444zM634 1093h-13l-160 -541h331zM931 1505h-590v140h590v-140z" />
    <glyph glyph-name="amacron" unicode="&#x101;" horiz-adv-x="1105" 
d="M709 134q-34 -65 -105.5 -107.5t-180.5 -42.5q-157 0 -253.5 87t-96.5 235q0 147 98.5 232t280.5 85h256v103q0 142 -164 142q-78 0 -120 -36t-47 -98h-265q3 71 27.5 130.5t73.5 109t135 78t202 28.5q202 0 319 -87.5t117 -274.5v-718h-265v134h-12zM516 186
q80 0 136 47.5t56 119.5v105h-189q-81 0 -124 -36t-43 -96q0 -67 48 -103.5t116 -36.5zM849 1226h-590v145h590v-145z" />
    <glyph glyph-name="Abreve" unicode="&#x102;" horiz-adv-x="1271" 
d="M302 0h-289l452 1365h343l450 -1365h-309l-101 339h-444zM634 1093h-13l-160 -541h331zM298 1766h164q0 -62 46 -100.5t128 -38.5t128 38.5t46 100.5h161q0 -128 -86.5 -209.5t-248.5 -81.5q-163 0 -250.5 81t-87.5 210z" />
    <glyph glyph-name="abreve" unicode="&#x103;" horiz-adv-x="1105" 
d="M709 134q-34 -65 -105.5 -107.5t-180.5 -42.5q-157 0 -253.5 87t-96.5 235q0 147 98.5 232t280.5 85h256v103q0 142 -164 142q-78 0 -120 -36t-47 -98h-265q3 71 27.5 130.5t73.5 109t135 78t202 28.5q202 0 319 -87.5t117 -274.5v-718h-265v134h-12zM516 186
q80 0 136 47.5t56 119.5v105h-189q-81 0 -124 -36t-43 -96q0 -67 48 -103.5t116 -36.5zM221 1482h163q0 -69 40.5 -116.5t118.5 -47.5t119 47.5t41 116.5h160q0 -130 -84.5 -222t-235.5 -92t-237 92t-85 222z" />
    <glyph glyph-name="Aogonek" unicode="&#x104;" horiz-adv-x="1272" 
d="M302 0h-289l452 1365h344l437 -1325q-66 -26 -111.5 -68.5t-47.5 -93.5q-2 -46 30 -73.5t88 -27.5q43 0 77 8v-154q-48 -21 -147 -21q-104 0 -176.5 51.5t-72.5 148.5q0 118 115 203v9h-59l-93 317h-445zM635 1093h-14l-160 -541h332z" />
    <glyph glyph-name="aogonek" unicode="&#x105;" horiz-adv-x="1105" 
d="M516 186q80 0 136 47.5t56 119.5v105h-189q-81 0 -124 -36t-43 -96q0 -67 48 -103.5t116 -36.5zM998 -368q-64 -22 -142 -22q-66 0 -120 20.5t-90.5 68t-36.5 115.5q0 128 125 206v114h-14q-34 -65 -107.5 -107.5t-183.5 -42.5q-157 0 -256.5 87.5t-99.5 236.5
q0 145 99 230t280 85h256v103q0 142 -164 142q-78 0 -120 -36t-47 -98h-265q3 72 27.5 131.5t74 109t136 77.5t202.5 28q97 0 174 -20t136.5 -62t91.5 -113t32 -167v-679q-71 -22 -123.5 -65.5t-52.5 -102.5q0 -43 32.5 -67t82.5 -24q43 0 73 8v-156z" />
    <glyph glyph-name="Cacute" unicode="&#x106;" horiz-adv-x="1286" 
d="M491 1504l271 222h290l-316 -222h-245zM380 757v-154q0 -192 76 -289t212 -97q124 0 192.5 73.5t68.5 184.5h278v-30q0 -94 -37 -178.5t-104.5 -150t-172 -104t-230.5 -38.5q-273 0 -425 165.5t-152 464.5v154q0 299 153 466t425 167q124 0 227 -38.5t171.5 -104.5
t106.5 -154t38 -187v-29h-278q0 112 -70 191t-193 79q-133 0 -209.5 -99.5t-76.5 -291.5z" />
    <glyph glyph-name="cacute" unicode="&#x107;" horiz-adv-x="1073" 
d="M78 489v94q0 223 128 361.5t352 138.5q204 0 323.5 -109.5t121.5 -274.5h-258q-6 65 -54 114.5t-125 49.5q-99 0 -152 -78.5t-53 -204.5v-89q0 -131 54.5 -208.5t150.5 -77.5q85 0 129 42t54 108h258q-4 -172 -128 -273t-322 -101q-223 0 -351 136t-128 372zM647 1226
h-236l207 294h283z" />
    <glyph glyph-name="Ccircumflex" unicode="&#x108;" horiz-adv-x="1286" 
d="M380 757v-154q0 -192 76 -289t212 -97q124 0 192.5 73.5t68.5 184.5h278v-30q0 -94 -37 -178.5t-104.5 -150t-172 -104t-230.5 -38.5q-273 0 -425 165.5t-152 464.5v154q0 299 153 466t425 167q124 0 227 -38.5t171.5 -104.5t106.5 -154t38 -187v-29h-278q0 112 -70 191
t-193 79q-133 0 -209.5 -99.5t-76.5 -291.5zM294 1495l269 244h190l262 -244h-219l-133 128h-14l-137 -128h-218z" />
    <glyph glyph-name="ccircumflex" unicode="&#x109;" horiz-adv-x="1073" 
d="M201 1226l230 308h201l219 -309h-216l-101 176h-9l-113 -175h-211zM78 489v94q0 223 128 361.5t352 138.5q204 0 323.5 -109.5t121.5 -274.5h-258q-6 65 -54 114.5t-125 49.5q-99 0 -152 -78.5t-53 -204.5v-89q0 -131 54.5 -208.5t150.5 -77.5q85 0 129 42t54 108h258
q-4 -172 -128 -273t-322 -101q-223 0 -351 136t-128 372z" />
    <glyph glyph-name="Cdotaccent" unicode="&#x10a;" horiz-adv-x="1286" 
d="M380 757v-154q0 -192 76 -289t212 -97q124 0 192.5 73.5t68.5 184.5h278v-30q0 -94 -37 -178.5t-104.5 -150t-172 -104t-230.5 -38.5q-273 0 -425 165.5t-152 464.5v154q0 299 153 466t425 167q124 0 227 -38.5t171.5 -104.5t106.5 -154t38 -187v-29h-278q0 112 -70 191
t-193 79q-133 0 -209.5 -99.5t-76.5 -291.5zM527 1605q0 56 36 92.5t91 36.5q56 0 93.5 -37t37.5 -92t-37.5 -90.5t-93.5 -35.5q-55 0 -91 35.5t-36 90.5z" />
    <glyph glyph-name="cdotaccent" unicode="&#x10b;" horiz-adv-x="1073" 
d="M78 489v94q0 223 128 361.5t352 138.5q204 0 323.5 -109.5t121.5 -274.5h-258q-6 65 -54 114.5t-125 49.5q-99 0 -152 -78.5t-53 -204.5v-89q0 -131 54.5 -208.5t150.5 -77.5q85 0 129 42t54 108h258q-4 -172 -128 -273t-322 -101q-223 0 -351 136t-128 372zM410 1303
q0 56 36 92.5t91 36.5q56 0 93.5 -37t37.5 -92t-37.5 -90.5t-93.5 -35.5q-55 0 -91 35.5t-36 90.5z" />
    <glyph glyph-name="Ccaron" unicode="&#x10c;" horiz-adv-x="1286" 
d="M380 757v-154q0 -192 76 -289t212 -97q124 0 192.5 73.5t68.5 184.5h278v-30q0 -94 -37 -178.5t-104.5 -150t-172 -104t-230.5 -38.5q-273 0 -425 165.5t-152 464.5v154q0 299 153 466t425 167q124 0 227 -38.5t171.5 -104.5t106.5 -154t38 -187v-29h-278q0 112 -70 191
t-193 79q-133 0 -209.5 -99.5t-76.5 -291.5zM293 1732h218l137 -120h14l133 120h219l-262 -233h-190z" />
    <glyph glyph-name="ccaron" unicode="&#x10d;" horiz-adv-x="1073" 
d="M215 1507h210l113 -175h10l101 176h216l-220 -309h-200zM78 489v94q0 223 128 361.5t352 138.5q204 0 323.5 -109.5t121.5 -274.5h-258q-6 65 -54 114.5t-125 49.5q-99 0 -152 -78.5t-53 -204.5v-89q0 -131 54.5 -208.5t150.5 -77.5q85 0 129 42t54 108h258
q-4 -172 -128 -273t-322 -101q-223 0 -351 136t-128 372z" />
    <glyph glyph-name="Dcaron" unicode="&#x10e;" horiz-adv-x="1336" 
d="M250 1732h218l137 -120h14l133 120h219l-262 -233h-190zM141 1365h511q162 0 281 -48.5t191 -140t106 -213t34 -276.5q0 -123 -21 -225.5t-67.5 -189t-117 -146.5t-173.5 -93t-233 -33h-511v1365zM431 1132v-898h179q176 0 266.5 103t90.5 344q0 101 -17.5 179t-57 141
t-111 97t-171.5 34h-179z" />
    <glyph glyph-name="dcaron" unicode="&#x10f;" horiz-adv-x="1448" 
d="M1253 1436h225l-47 -488h-178v488zM480 1077q116 0 195.5 -47t107.5 -123h11v530h282v-1437h-278v165h-11q-24 -77 -106.5 -127.5t-200.5 -50.5q-189 0 -294.5 131t-105.5 360v109q0 228 105 359t295 131zM579 854q-101 0 -155.5 -76.5t-54.5 -211.5v-68
q0 -136 55.5 -212.5t157.5 -76.5q99 0 155.5 75t56.5 213v73q0 134 -57.5 209t-157.5 75z" />
    <glyph glyph-name="Dcroat" unicode="&#x110;" horiz-adv-x="1426" 
d="M742 0h-511v567h-165v250h165v548h511q162 0 281 -48.5t191 -140t106 -213t34 -276.5q0 -123 -21 -225.5t-67.5 -189t-117 -146.5t-173.5 -93t-233 -33zM520 240h179q176 0 266 102.5t90 343.5q0 101 -17.5 179.5t-56.5 141.5t-110.5 97t-171.5 34h-179v-321h235v-250
h-235v-327z" />
    <glyph glyph-name="dcroat" unicode="&#x111;" horiz-adv-x="1206" 
d="M578 854q-96 0 -152 -71t-56 -202v-98q0 -132 57 -203t154 -71t155.5 70t58.5 195v127q0 116 -60.5 184.5t-156.5 68.5zM785 170q-25 -78 -107 -130.5t-202 -52.5q-181 0 -288 125t-107 346v149q0 219 107 344.5t290 125.5q117 0 196 -48.5t107 -126.5h14v245h-225v161
h236v154h261v-154h128v-161h-118v-1147h-278v170h-14z" />
    <glyph glyph-name="Emacron" unicode="&#x112;" horiz-adv-x="1133" 
d="M1032 234v-234h-891v1365h891v-234h-604v-332h568v-218h-568v-347h604zM872 1505h-590v140h590v-140z" />
    <glyph glyph-name="emacron" unicode="&#x113;" horiz-adv-x="1106" 
d="M570 -19q-232 0 -362 133.5t-130 374.5v83q0 239 130 375t348 136q223 0 349 -138t126 -372v-100h-677v-36q0 -105 57.5 -173.5t157.5 -68.5q83 0 132.5 37.5t57.5 94.5h263q-4 -47 -21 -93t-52.5 -92.5t-85.5 -81.5t-126 -57t-167 -22zM354 645h406v2q0 101 -54.5 164.5
t-147.5 63.5t-148.5 -64t-55.5 -164v-2zM850 1226h-590v145h590v-145z" />
    <glyph glyph-name="Ebreve" unicode="&#x114;" horiz-adv-x="1133" 
d="M1032 234v-234h-891v1365h891v-234h-604v-332h568v-218h-568v-347h604zM239 1766h164q0 -62 46 -100.5t128 -38.5t128 38.5t46 100.5h161q0 -128 -86.5 -209.5t-248.5 -81.5q-163 0 -250.5 81t-87.5 210z" />
    <glyph glyph-name="ebreve" unicode="&#x115;" horiz-adv-x="1106" 
d="M570 -19q-232 0 -362 133.5t-130 374.5v83q0 239 130 375t348 136q223 0 349 -138t126 -372v-100h-677v-36q0 -105 57.5 -173.5t157.5 -68.5q83 0 132.5 37.5t57.5 94.5h263q-4 -47 -21 -93t-52.5 -92.5t-85.5 -81.5t-126 -57t-167 -22zM354 645h406v2q0 101 -54.5 164.5
t-147.5 63.5t-148.5 -64t-55.5 -164v-2zM222 1482h163q0 -69 40.5 -116.5t118.5 -47.5t119 47.5t41 116.5h160q0 -130 -84.5 -222t-235.5 -92t-237 92t-85 222z" />
    <glyph glyph-name="Edotaccent" unicode="&#x116;" horiz-adv-x="1133" 
d="M451 1605q0 56 36 92.5t91 36.5q56 0 93.5 -37t37.5 -92t-37.5 -90.5t-93.5 -35.5q-55 0 -91 35.5t-36 90.5zM1032 234v-234h-891v1365h891v-234h-604v-332h568v-218h-568v-347h604z" />
    <glyph glyph-name="edotaccent" unicode="&#x117;" horiz-adv-x="1106" 
d="M427 1303q0 56 36 92.5t91 36.5q56 0 93.5 -37t37.5 -92t-37.5 -90.5t-93.5 -35.5q-55 0 -91 35.5t-36 90.5zM570 -19q-232 0 -362 133.5t-130 374.5v83q0 239 130 375t348 136q223 0 349 -138t126 -372v-100h-677v-36q0 -105 57.5 -173.5t157.5 -68.5q83 0 132.5 37.5
t57.5 94.5h263q-4 -47 -21 -93t-52.5 -92.5t-85.5 -81.5t-126 -57t-167 -22zM354 645h406v2q0 101 -54.5 164.5t-147.5 63.5t-148.5 -64t-55.5 -164v-2z" />
    <glyph glyph-name="Eogonek" unicode="&#x118;" horiz-adv-x="1133" 
d="M1033 -369q-65 -21 -142 -21q-106 0 -176.5 51t-70.5 149q0 110 102 180v10h-605v1365h891v-234h-604v-332h568v-218h-568v-347h604v-189q-74 -16 -131.5 -61t-57.5 -111q0 -46 32.5 -71t86.5 -25q37 0 71 8v-154z" />
    <glyph glyph-name="eogonek" unicode="&#x119;" horiz-adv-x="1106" 
d="M657 5q-41 -19 -122 -19q-208 0 -332.5 132.5t-124.5 370.5v83q0 239 130 375t348 136q223 0 349 -138t126 -372v-100h-677v-36q0 -105 57.5 -173.5t159.5 -68.5q82 0 131 37.5t57 94.5h261q-7 -79 -41 -138.5t-93 -116.5q-39 -38 -59 -61t-37.5 -58t-17.5 -70
q0 -50 34 -76.5t86 -26.5q36 0 73 8v-157q-58 -21 -141 -21q-113 0 -182 53t-69 145q0 44 17 83.5t33 58t41 42.5zM354 645h406v2q0 101 -54.5 164.5t-147.5 63.5t-148.5 -64t-55.5 -164v-2z" />
    <glyph glyph-name="Ecaron" unicode="&#x11a;" horiz-adv-x="1133" 
d="M217 1732h218l137 -120h14l133 120h219l-262 -233h-190zM1032 234v-234h-891v1365h891v-234h-604v-332h568v-218h-568v-347h604z" />
    <glyph glyph-name="ecaron" unicode="&#x11b;" horiz-adv-x="1106" 
d="M232 1507h210l113 -175h10l101 176h216l-220 -309h-200zM570 -19q-232 0 -362 133.5t-130 374.5v83q0 239 130 375t348 136q223 0 349 -138t126 -372v-100h-677v-36q0 -105 57.5 -173.5t157.5 -68.5q83 0 132.5 37.5t57.5 94.5h263q-4 -47 -21 -93t-52.5 -92.5
t-85.5 -81.5t-126 -57t-167 -22zM354 645h406v2q0 101 -54.5 164.5t-147.5 63.5t-148.5 -64t-55.5 -164v-2z" />
    <glyph glyph-name="Gcircumflex" unicode="&#x11c;" horiz-adv-x="1311" 
d="M306 1495l269 244h190l262 -244h-219l-133 128h-14l-137 -128h-218zM1223 924h-282q-13 106 -85.5 166t-182.5 60q-135 0 -215 -95.5t-80 -284.5v-167q0 -179 72.5 -283.5t225.5 -104.5q124 0 199 68t75 168v77h-267v212h542v-270q0 -69 -17.5 -136t-59.5 -133t-104 -116
t-158 -80.5t-214 -30.5q-149 0 -262.5 47t-183.5 132.5t-105 198.5t-35 250v170q0 284 157.5 451.5t433.5 167.5q130 0 235 -39.5t170.5 -105.5t101.5 -148.5t39 -173.5z" />
    <glyph glyph-name="gcircumflex" unicode="&#x11d;" horiz-adv-x="1182" 
d="M256 1226l230 308h201l219 -309h-216l-101 176h-9l-113 -175h-211zM565 -189q110 0 165.5 57t55.5 164v150h-12q-30 -73 -110 -120t-190 -47q-179 0 -289 128t-110 355v93q0 227 110 356.5t291 129.5q118 0 193.5 -47t107.5 -123h12v157h277v-1050q0 -89 -28 -159.5
t-76 -116.5t-114 -76t-138 -43t-153 -13q-115 0 -204.5 27t-143.5 73.5t-82 103t-30 121.5h271q10 -54 61 -87t136 -33zM579 855q-99 0 -157.5 -74t-58.5 -205v-80q0 -130 59.5 -201.5t157.5 -71.5q95 0 150 73.5t55 193.5v86q0 126 -55.5 202.5t-150.5 76.5z" />
    <glyph glyph-name="Gbreve" unicode="&#x11e;" horiz-adv-x="1311" 
d="M1223 924h-282q-13 106 -85.5 166t-182.5 60q-135 0 -215 -95.5t-80 -284.5v-167q0 -179 72.5 -283.5t225.5 -104.5q124 0 199 68t75 168v77h-267v212h542v-270q0 -69 -17.5 -136t-59.5 -133t-104 -116t-158 -80.5t-214 -30.5q-149 0 -262.5 47t-183.5 132.5t-105 198.5
t-35 250v170q0 284 157.5 451.5t433.5 167.5q130 0 235 -39.5t170.5 -105.5t101.5 -148.5t39 -173.5zM327 1766h164q0 -62 46 -100.5t128 -38.5t128 38.5t46 100.5h161q0 -128 -86.5 -209.5t-248.5 -81.5q-163 0 -250.5 81t-87.5 210z" />
    <glyph glyph-name="gbreve" unicode="&#x11f;" horiz-adv-x="1182" 
d="M260 1482h163q0 -69 40.5 -116.5t118.5 -47.5t119 47.5t41 116.5h160q0 -130 -84.5 -222t-235.5 -92t-237 92t-85 222zM565 -189q110 0 165.5 57t55.5 164v150h-12q-30 -73 -110 -120t-190 -47q-179 0 -289 128t-110 355v93q0 227 110 356.5t291 129.5q118 0 193.5 -47
t107.5 -123h12v157h277v-1050q0 -89 -28 -159.5t-76 -116.5t-114 -76t-138 -43t-153 -13q-115 0 -204.5 27t-143.5 73.5t-82 103t-30 121.5h271q10 -54 61 -87t136 -33zM579 855q-99 0 -157.5 -74t-58.5 -205v-80q0 -130 59.5 -201.5t157.5 -71.5q95 0 150 73.5t55 193.5v86
q0 126 -55.5 202.5t-150.5 76.5z" />
    <glyph glyph-name="Gdotaccent" unicode="&#x120;" horiz-adv-x="1311" 
d="M539 1605q0 56 36 92.5t91 36.5q56 0 93.5 -37t37.5 -92t-37.5 -90.5t-93.5 -35.5q-55 0 -91 35.5t-36 90.5zM1223 924h-282q-13 106 -85.5 166t-182.5 60q-135 0 -215 -95.5t-80 -284.5v-167q0 -179 72.5 -283.5t225.5 -104.5q124 0 199 68t75 168v77h-267v212h542v-270
q0 -69 -17.5 -136t-59.5 -133t-104 -116t-158 -80.5t-214 -30.5q-149 0 -262.5 47t-183.5 132.5t-105 198.5t-35 250v170q0 284 157.5 451.5t433.5 167.5q130 0 235 -39.5t170.5 -105.5t101.5 -148.5t39 -173.5z" />
    <glyph glyph-name="gdotaccent" unicode="&#x121;" horiz-adv-x="1182" 
d="M465 1303q0 56 36 92.5t91 36.5q56 0 93.5 -37t37.5 -92t-37.5 -90.5t-93.5 -35.5q-55 0 -91 35.5t-36 90.5zM565 -189q110 0 165.5 57t55.5 164v150h-12q-30 -73 -110 -120t-190 -47q-179 0 -289 128t-110 355v93q0 227 110 356.5t291 129.5q118 0 193.5 -47t107.5 -123
h12v157h277v-1050q0 -89 -28 -159.5t-76 -116.5t-114 -76t-138 -43t-153 -13q-115 0 -204.5 27t-143.5 73.5t-82 103t-30 121.5h271q10 -54 61 -87t136 -33zM579 855q-99 0 -157.5 -74t-58.5 -205v-80q0 -130 59.5 -201.5t157.5 -71.5q95 0 150 73.5t55 193.5v86
q0 126 -55.5 202.5t-150.5 76.5z" />
    <glyph glyph-name="Gcommaaccent" unicode="&#x122;" horiz-adv-x="1311" 
d="M668 -489h-189l85 335h218zM1223 924h-282q-13 106 -85.5 166t-182.5 60q-135 0 -215 -95.5t-80 -284.5v-167q0 -179 72.5 -283.5t225.5 -104.5q124 0 199 68t75 168v77h-267v212h542v-270q0 -69 -17.5 -136t-59.5 -133t-104 -116t-158 -80.5t-214 -30.5
q-149 0 -262.5 47t-183.5 132.5t-105 198.5t-35 250v170q0 284 157.5 451.5t433.5 167.5q130 0 235 -39.5t170.5 -105.5t101.5 -148.5t39 -173.5z" />
    <glyph glyph-name="gcommaaccent" unicode="&#x123;" horiz-adv-x="1182" 
d="M563 1593h188l-85 -335h-217zM565 -189q110 0 165.5 57t55.5 164v150h-12q-30 -73 -110 -120t-190 -47q-179 0 -289 128t-110 355v93q0 227 110 356.5t291 129.5q118 0 193.5 -47t107.5 -123h12v157h277v-1050q0 -89 -28 -159.5t-76 -116.5t-114 -76t-138 -43t-153 -13
q-115 0 -204.5 27t-143.5 73.5t-82 103t-30 121.5h271q10 -54 61 -87t136 -33zM579 855q-99 0 -157.5 -74t-58.5 -205v-80q0 -130 59.5 -201.5t157.5 -71.5q95 0 150 73.5t55 193.5v86q0 126 -55.5 202.5t-150.5 76.5z" />
    <glyph glyph-name="Hcircumflex" unicode="&#x124;" horiz-adv-x="1412" 
d="M1271 0h-290v577h-550v-577h-290v1365h290v-550h550v550h290v-1365zM346 1495l269 244h190l262 -244h-219l-133 128h-14l-137 -128h-218z" />
    <glyph glyph-name="hcircumflex" unicode="&#x125;" horiz-adv-x="1210" 
d="M130 0v1437h281v-531h13q26 68 101 121t195 53q170 0 271 -108t101 -296v-676h-282v609q0 115 -53 174t-142 59q-92 0 -148 -60.5t-56 -173.5v-608h-281zM-65 1600l230 308h201l219 -309h-216l-101 176h-9l-113 -175h-211z" />
    <glyph glyph-name="Hbar" unicode="&#x126;" horiz-adv-x="1412" 
d="M431 800h550v195h-550v-195zM431 562v-562h-290v995h-90v177h90v193h290v-193h550v193h290v-193h89v-177h-89v-995h-290v562h-550z" />
    <glyph glyph-name="hbar" unicode="&#x127;" horiz-adv-x="1210" 
d="M411 591v-591h-281v1147h-112v161h123v129h261v-129h235v-161h-226v-270h14q10 32 31.5 64.5t58 65t95.5 53t130 20.5q161 0 256.5 -95.5t95.5 -276.5v-708h-282v633q0 109 -51.5 161t-135.5 52q-96 0 -154 -69.5t-58 -185.5z" />
    <glyph glyph-name="Itilde" unicode="&#x128;" horiz-adv-x="572" 
d="M431 0h-290v1365h290v-1365zM270 1521q-1 1 -16.5 16t-21 19t-18.5 10t-26 6q-62 0 -66 -85h-144q0 87 48.5 152t138.5 65q50 0 83 -15t69 -48q4 -4 19.5 -18t21.5 -18t17.5 -9.5t23.5 -5.5q32 0 47.5 29.5t17.5 69.5h144q0 -92 -54 -157.5t-138 -65.5q-56 0 -86.5 14
t-59.5 41z" />
    <glyph glyph-name="itilde" unicode="&#x129;" horiz-adv-x="570" 
d="M148 0v1064h288v-1064h-288zM257 1238q-15 16 -24 24t-26 16.5t-35 8.5q-69 0 -73 -97h-160q0 118 55 198.5t162 80.5q47 0 83 -18.5t77 -58.5l14.5 -14.5t17 -16t14.5 -10.5t19.5 -10t19.5 -2q35 0 51.5 33.5t18.5 78.5h159q0 -113 -62 -196t-161 -83q-53 0 -86 17.5
t-64 48.5z" />
    <glyph glyph-name="Imacron" unicode="&#x12a;" horiz-adv-x="572" 
d="M431 0h-290v1365h290v-1365zM581 1505h-590v140h590v-140z" />
    <glyph glyph-name="imacron" unicode="&#x12b;" horiz-adv-x="570" 
d="M148 0v1064h288v-1064h-288zM587 1226h-590v145h590v-145z" />
    <glyph glyph-name="Ibreve" unicode="&#x12c;" horiz-adv-x="572" 
d="M431 0h-290v1365h290v-1365zM-52 1766h164q0 -62 46 -100.5t128 -38.5t128 38.5t46 100.5h161q0 -128 -86.5 -209.5t-248.5 -81.5q-163 0 -250.5 81t-87.5 210z" />
    <glyph glyph-name="ibreve" unicode="&#x12d;" horiz-adv-x="570" 
d="M148 0v1064h288v-1064h-288zM-41 1482h163q0 -69 40.5 -116.5t118.5 -47.5t119 47.5t41 116.5h160q0 -130 -84.5 -222t-235.5 -92t-237 92t-85 222z" />
    <glyph glyph-name="Iogonek" unicode="&#x12e;" horiz-adv-x="571" 
d="M453 -366q-48 -24 -146 -24q-117 0 -181.5 55.5t-64.5 148.5q0 123 120 196v8h-40v1347h290v-1323q-167 -67 -167 -171q0 -46 31.5 -70.5t82.5 -24.5q46 0 75 9v-151z" />
    <glyph glyph-name="iogonek" unicode="&#x12f;" horiz-adv-x="570" 
d="M438 -371q-55 -19 -140 -19q-129 0 -203 53.5t-74 153.5q0 127 124 201v1046h281v-1010q-45 -16 -84 -38t-72 -60.5t-33 -81.5q0 -46 33.5 -71.5t88.5 -25.5q52 0 79 8v-156zM112 1374q0 67 47 109t125 42q79 0 127 -42t48 -109q0 -66 -47.5 -108t-127.5 -42
q-78 0 -125 42t-47 108z" />
    <glyph glyph-name="Idotaccent" unicode="&#x130;" horiz-adv-x="572" 
d="M431 0h-290v1365h290v-1365zM160 1605q0 56 36 92.5t91 36.5q56 0 93.5 -37t37.5 -92t-37.5 -90.5t-93.5 -35.5q-55 0 -91 35.5t-36 90.5z" />
    <glyph glyph-name="dotlessi" unicode="&#x131;" horiz-adv-x="570" 
d="M148 0v1064h288v-1064h-288z" />
    <glyph glyph-name="Jcircumflex" unicode="&#x134;" horiz-adv-x="1083" 
d="M26 405h278q2 -81 51 -127.5t124 -46.5q183 0 183 207v927h290v-922q0 -231 -125.5 -350t-344.5 -119q-111 0 -199.5 35t-143.5 94.5t-84 136.5t-29 165zM448 1495l269 244h190l262 -244h-219l-133 128h-14l-137 -128h-218z" />
    <glyph glyph-name="jcircumflex" unicode="&#x135;" horiz-adv-x="570" 
d="M425 1064v-1076q0 -178 -96.5 -265t-265.5 -87q-74 0 -112 8v200q19 -4 57 -4q70 0 103.5 35.5t33.5 115.5v1073h280zM-36 1213l230 308h201l219 -309h-216l-101 176h-9l-113 -175h-211z" />
    <glyph glyph-name="Kcommaaccent" unicode="&#x136;" horiz-adv-x="1273" 
d="M1260 1365l-483 -589l503 -776h-346l-369 584l-134 -154v-430h-290v1365h290v-601h13l501 601h315zM639 -489h-189l85 335h218z" />
    <glyph glyph-name="kcommaaccent" unicode="&#x137;" horiz-adv-x="1120" 
d="M409 366v-366h-281v1437h281v-810h13l339 437h316l-381 -459l408 -605h-328l-295 446zM577 -489h-189l85 335h218z" />
    <glyph glyph-name="Lacute" unicode="&#x139;" horiz-adv-x="1025" 
d="M123 1504l271 222h290l-316 -222h-245zM1000 245v-245h-859v1365h290v-1120h569z" />
    <glyph glyph-name="lacute" unicode="&#x13a;" horiz-adv-x="550" 
d="M386 1600h-236l207 294h283zM134 0v1437h282v-1437h-282z" />
    <glyph glyph-name="Lcommaaccent" unicode="&#x13b;" horiz-adv-x="1025" 
d="M522 -489h-189l85 335h218zM1000 245v-245h-859v1365h290v-1120h569z" />
    <glyph glyph-name="lcommaaccent" unicode="&#x13c;" horiz-adv-x="550" 
d="M278 -489h-189l85 335h218zM134 0v1437h282v-1437h-282z" />
    <glyph glyph-name="Lcaron" unicode="&#x13d;" horiz-adv-x="1025" 
d="M634 1436h229l-50 -488h-179v488zM1000 245v-245h-859v1365h290v-1120h569z" />
    <glyph glyph-name="lcaron" unicode="&#x13e;" horiz-adv-x="759" 
d="M570 1436h224l-47 -488h-177v488zM134 0v1437h282v-1437h-282z" />
    <glyph glyph-name="Lslash" unicode="&#x141;" horiz-adv-x="1052" 
d="M1027 0h-859v510l-119 -68v242l119 68v613h289v-451l309 178v-245l-309 -176v-426h570v-245z" />
    <glyph glyph-name="lslash" unicode="&#x142;" horiz-adv-x="648" 
d="M466 0h-282v556l-139 -86v230l139 88v649h282v-482l137 87v-243l-137 -85v-714z" />
    <glyph glyph-name="Nacute" unicode="&#x143;" horiz-adv-x="1385" 
d="M530 1504l271 222h290l-316 -222h-245zM413 0h-272v1365h237l584 -876h10v876h272v-1365h-236l-585 882h-10v-882z" />
    <glyph glyph-name="nacute" unicode="&#x144;" horiz-adv-x="1204" 
d="M713 1226h-236l207 294h283zM126 0v1064h274v-158h12q29 70 109 122t198 52q164 0 264 -99t100 -282v-699h-281v617q0 117 -52.5 171t-142.5 54q-92 0 -146 -59t-54 -172v-611h-281z" />
    <glyph glyph-name="Ncommaaccent" unicode="&#x145;" horiz-adv-x="1385" 
d="M695 -489h-189l85 335h218zM413 0h-272v1365h237l584 -876h10v876h272v-1365h-236l-585 882h-10v-882z" />
    <glyph glyph-name="ncommaaccent" unicode="&#x146;" horiz-adv-x="1204" 
d="M605 -489h-189l85 335h218zM126 0v1064h274v-158h12q29 70 109 122t198 52q164 0 264 -99t100 -282v-699h-281v617q0 117 -52.5 171t-142.5 54q-92 0 -146 -59t-54 -172v-611h-281z" />
    <glyph glyph-name="Ncaron" unicode="&#x147;" horiz-adv-x="1385" 
d="M332 1732h218l137 -120h14l133 120h219l-262 -233h-190zM413 0h-272v1365h237l584 -876h10v876h272v-1365h-236l-585 882h-10v-882z" />
    <glyph glyph-name="ncaron" unicode="&#x148;" horiz-adv-x="1204" 
d="M281 1507h210l113 -175h10l101 176h216l-220 -309h-200zM126 0v1064h274v-158h12q29 70 109 122t198 52q164 0 264 -99t100 -282v-699h-281v617q0 117 -52.5 171t-142.5 54q-92 0 -146 -59t-54 -172v-611h-281z" />
    <glyph glyph-name="Omacron" unicode="&#x14c;" horiz-adv-x="1357" 
d="M380 766v-174q0 -185 81 -281.5t217 -96.5t217 96.5t81 281.5v174q0 186 -81.5 286t-216.5 100t-216.5 -100.5t-81.5 -285.5zM86 593v170q0 292 158 460t435 168q278 0 435 -168.5t157 -459.5v-170q0 -289 -157.5 -454t-436.5 -165q-278 0 -434.5 165t-156.5 454z
M973 1505h-590v140h590v-140z" />
    <glyph glyph-name="omacron" unicode="&#x14d;" horiz-adv-x="1141" 
d="M867 1226h-590v145h590v-145zM572 1083q236 0 363.5 -140t127.5 -373v-70q0 -243 -126.5 -381t-364.5 -138q-240 0 -367 137t-127 381v70q0 112 32 205.5t93 162.5t155.5 107.5t213.5 38.5zM571 868q-59 0 -101 -25t-65 -69.5t-33 -95.5t-10 -112v-67q0 -61 10 -111.5
t32.5 -95t65 -70t101.5 -25.5q48 0 85 17t59.5 45.5t37 68.5t20 81.5t5.5 89.5v67q0 62 -10 113t-32 95t-64 69t-101 25z" />
    <glyph glyph-name="Obreve" unicode="&#x14e;" horiz-adv-x="1357" 
d="M380 766v-174q0 -185 81 -281.5t217 -96.5t217 96.5t81 281.5v174q0 186 -81.5 286t-216.5 100t-216.5 -100.5t-81.5 -285.5zM86 593v170q0 292 158 460t435 168q278 0 435 -168.5t157 -459.5v-170q0 -289 -157.5 -454t-436.5 -165q-278 0 -434.5 165t-156.5 454z
M340 1766h164q0 -62 46 -100.5t128 -38.5t128 38.5t46 100.5h161q0 -128 -86.5 -209.5t-248.5 -81.5q-163 0 -250.5 81t-87.5 210z" />
    <glyph glyph-name="obreve" unicode="&#x14f;" horiz-adv-x="1141" 
d="M239 1482h163q0 -69 40.5 -116.5t118.5 -47.5t119 47.5t41 116.5h160q0 -130 -84.5 -222t-235.5 -92t-237 92t-85 222zM572 1083q236 0 363.5 -140t127.5 -373v-70q0 -243 -126.5 -381t-364.5 -138q-240 0 -367 137t-127 381v70q0 112 32 205.5t93 162.5t155.5 107.5
t213.5 38.5zM571 868q-59 0 -101 -25t-65 -69.5t-33 -95.5t-10 -112v-67q0 -61 10 -111.5t32.5 -95t65 -70t101.5 -25.5q48 0 85 17t59.5 45.5t37 68.5t20 81.5t5.5 89.5v67q0 62 -10 113t-32 95t-64 69t-101 25z" />
    <glyph glyph-name="Ohungarumlaut" unicode="&#x150;" horiz-adv-x="1357" 
d="M367 1504l280 229h236l-314 -229h-202zM745 1504l280 229h236l-313 -229h-203zM380 766v-174q0 -185 81 -281.5t217 -96.5t217 96.5t81 281.5v174q0 186 -81.5 286t-216.5 100t-216.5 -100.5t-81.5 -285.5zM86 593v170q0 292 158 460t435 168q278 0 435 -168.5
t157 -459.5v-170q0 -289 -157.5 -454t-436.5 -165q-278 0 -434.5 165t-156.5 454z" />
    <glyph glyph-name="ohungarumlaut" unicode="&#x151;" horiz-adv-x="1141" 
d="M450 1226h-168l229 329h213zM794 1226h-169l229 329h213zM572 1083q236 0 363.5 -140t127.5 -373v-70q0 -243 -126.5 -381t-364.5 -138q-240 0 -367 137t-127 381v70q0 112 32 205.5t93 162.5t155.5 107.5t213.5 38.5zM571 868q-59 0 -101 -25t-65 -69.5t-33 -95.5
t-10 -112v-67q0 -61 10 -111.5t32.5 -95t65 -70t101.5 -25.5q48 0 85 17t59.5 45.5t37 68.5t20 81.5t5.5 89.5v67q0 62 -10 113t-32 95t-64 69t-101 25z" />
    <glyph glyph-name="OE" unicode="&#x152;" horiz-adv-x="1966" 
d="M390 766v-175q0 -185 81.5 -282t217.5 -97q137 0 218.5 93.5t81.5 278.5v193q0 184 -81.5 279.5t-218.5 95.5q-135 0 -217 -100.5t-82 -285.5zM635 -26q-254 0 -401.5 167.5t-147.5 453.5v167q0 298 151 463.5t400 165.5q122 0 218 -43t147 -124h17v141h846v-234h-599
v-332h563v-218h-563v-347h599v-234h-846v145h-17q-52 -80 -147.5 -125.5t-219.5 -45.5z" />
    <glyph glyph-name="oe" unicode="&#x153;" horiz-adv-x="1817" 
d="M1280 -19q-112 0 -205 40t-142 106h-17q-51 -66 -144.5 -106t-199.5 -40q-228 0 -361 130.5t-133 367.5v110q0 222 135.5 358t358.5 136q108 0 201 -40t142 -112h17q48 69 138 110.5t196 41.5q212 0 343.5 -133t131.5 -358v-121h-678v-49q0 -101 59 -164t156 -63
q77 0 129.5 33t60.5 83h264q-4 -54 -32.5 -109.5t-80 -106t-140.5 -82.5t-199 -32zM571 868q-101 0 -155 -80t-54 -202v-107q0 -122 52.5 -202t156.5 -80q103 0 155 80t52 202v107q0 123 -52.5 202.5t-154.5 79.5zM1063 637h406v10q0 103 -55 165.5t-146 62.5
q-92 0 -148.5 -62.5t-56.5 -165.5v-10z" />
    <glyph glyph-name="Racute" unicode="&#x154;" horiz-adv-x="1270" 
d="M453 1504l271 222h290l-316 -222h-245zM697 1365q120 0 214 -33.5t152.5 -92.5t89 -137.5t30.5 -172.5q0 -65 -16.5 -122.5t-41.5 -98.5t-59 -75t-66 -54.5t-64 -33.5l274 -545h-322l-237 502h-225v-502h-285v1365h556zM426 714h225q110 0 172 54.5t62 155.5
q0 105 -63.5 162t-166.5 57h-229v-429z" />
    <glyph glyph-name="racute" unicode="&#x155;" horiz-adv-x="789" 
d="M541 1226h-236l207 294h283zM135 0v1064h282v-147h12q10 29 26.5 54.5t44.5 51.5t73 41t102 15q55 0 87 -8v-242q-33 11 -108 11q-230 0 -230 -242v-598h-289z" />
    <glyph glyph-name="Rcommaaccent" unicode="&#x156;" horiz-adv-x="1270" 
d="M697 1365q120 0 214 -33.5t152.5 -92.5t89 -137.5t30.5 -172.5q0 -65 -16.5 -122.5t-41.5 -98.5t-59 -75t-66 -54.5t-64 -33.5l274 -545h-322l-237 502h-225v-502h-285v1365h556zM426 714h225q110 0 172 54.5t62 155.5q0 105 -63.5 162t-166.5 57h-229v-429zM618 -489
h-189l85 335h218z" />
    <glyph glyph-name="rcommaaccent" unicode="&#x157;" horiz-adv-x="789" 
d="M135 0v1064h282v-147h12q10 29 26.5 54.5t44.5 51.5t73 41t102 15q55 0 87 -8v-242q-33 11 -108 11q-230 0 -230 -242v-598h-289zM285 -489h-189l85 335h218z" />
    <glyph glyph-name="Rcaron" unicode="&#x158;" horiz-adv-x="1270" 
d="M697 1365q120 0 214 -33.5t152.5 -92.5t89 -137.5t30.5 -172.5q0 -65 -16.5 -122.5t-41.5 -98.5t-59 -75t-66 -54.5t-64 -33.5l274 -545h-322l-237 502h-225v-502h-285v1365h556zM426 714h225q110 0 172 54.5t62 155.5q0 105 -63.5 162t-166.5 57h-229v-429zM255 1732
h218l137 -120h14l133 120h219l-262 -233h-190z" />
    <glyph glyph-name="rcaron" unicode="&#x159;" horiz-adv-x="789" 
d="M109 1507h210l113 -175h10l101 176h216l-220 -309h-200zM135 0v1064h282v-147h12q10 29 26.5 54.5t44.5 51.5t73 41t102 15q55 0 87 -8v-242q-33 11 -108 11q-230 0 -230 -242v-598h-289z" />
    <glyph glyph-name="Sacute" unicode="&#x15a;" horiz-adv-x="1217" 
d="M445 1504l271 222h290l-316 -222h-245zM59 392h278q6 -81 77.5 -136t194.5 -55q118 0 182.5 48.5t64.5 129.5q0 68 -50 106.5t-158 62.5l-205 47q-76 16 -137 44.5t-110.5 73.5t-77 112t-27.5 151q0 130 69.5 226t185.5 143.5t262 47.5q228 0 369.5 -113.5t143.5 -295.5
h-270q-6 78 -69 131.5t-175 53.5q-105 0 -166 -46t-61 -125q0 -119 186 -157l207 -46q81 -17 143 -44.5t115.5 -72t82 -113t28.5 -158.5q0 -201 -146.5 -317t-400.5 -116q-116 0 -209 25t-152.5 66t-99.5 96.5t-57 112.5t-18 118z" />
    <glyph glyph-name="sacute" unicode="&#x15b;" horiz-adv-x="1037" 
d="M87 748q0 70 23 126.5t63 95t96 64.5t118.5 37.5t133.5 11.5q190 0 301 -87.5t111 -238.5h-248q-6 56 -46.5 96t-122.5 40q-75 0 -118 -33t-43 -89q0 -17 5.5 -32t17 -26.5t23.5 -20.5t32 -16.5t36 -13t41 -10.5t40.5 -7.5t42 -7t39.5 -6.5q161 -27 247.5 -96t86.5 -205
q0 -163 -122 -256t-340 -93q-205 0 -321.5 88t-116.5 232h273q7 -57 53.5 -92.5t124.5 -35.5q89 0 132.5 34.5t43.5 90.5q0 16 -4 29.5t-14 24.5t-19 19.5t-28 16t-31 12t-38.5 10.5t-39.5 8.5t-44.5 8.5t-44.5 8q-78 16 -134.5 36.5t-106.5 55.5t-76 90.5t-26 130.5z
M629 1226h-236l207 294h283z" />
    <glyph glyph-name="Scircumflex" unicode="&#x15c;" horiz-adv-x="1217" 
d="M59 392h278q6 -81 77.5 -136t194.5 -55q118 0 182.5 48.5t64.5 129.5q0 68 -50 106.5t-158 62.5l-205 47q-76 16 -137 44.5t-110.5 73.5t-77 112t-27.5 151q0 130 69.5 226t185.5 143.5t262 47.5q228 0 369.5 -113.5t143.5 -295.5h-270q-6 78 -69 131.5t-175 53.5
q-105 0 -166 -46t-61 -125q0 -119 186 -157l207 -46q81 -17 143 -44.5t115.5 -72t82 -113t28.5 -158.5q0 -201 -146.5 -317t-400.5 -116q-116 0 -209 25t-152.5 66t-99.5 96.5t-57 112.5t-18 118zM248 1495l269 244h190l262 -244h-219l-133 128h-14l-137 -128h-218z" />
    <glyph glyph-name="scircumflex" unicode="&#x15d;" horiz-adv-x="1037" 
d="M183 1226l230 308h201l219 -309h-216l-101 176h-9l-113 -175h-211zM87 748q0 70 23 126.5t63 95t96 64.5t118.5 37.5t133.5 11.5q190 0 301 -87.5t111 -238.5h-248q-6 56 -46.5 96t-122.5 40q-75 0 -118 -33t-43 -89q0 -17 5.5 -32t17 -26.5t23.5 -20.5t32 -16.5t36 -13
t41 -10.5t40.5 -7.5t42 -7t39.5 -6.5q161 -27 247.5 -96t86.5 -205q0 -163 -122 -256t-340 -93q-205 0 -321.5 88t-116.5 232h273q7 -57 53.5 -92.5t124.5 -35.5q89 0 132.5 34.5t43.5 90.5q0 16 -4 29.5t-14 24.5t-19 19.5t-28 16t-31 12t-38.5 10.5t-39.5 8.5t-44.5 8.5
t-44.5 8q-78 16 -134.5 36.5t-106.5 55.5t-76 90.5t-26 130.5z" />
    <glyph glyph-name="Scedilla" unicode="&#x15e;" horiz-adv-x="1217" 
d="M607 -472q-94 -1 -146 16v125q44 -13 111 -13q109 0 109 60q0 35 -28.5 47t-95.5 12h-55v104l39 96q-104 5 -187.5 33t-137 69t-89.5 94.5t-51.5 108t-16.5 112.5h278q6 -81 77.5 -136t194.5 -55q118 0 182.5 48.5t64.5 129.5q0 68 -50 106.5t-158 62.5l-205 47
q-76 16 -137 44.5t-110.5 73.5t-77 112t-27.5 151q0 130 69.5 226t185.5 143.5t262 47.5q228 0 369.5 -113.5t143.5 -295.5h-270q-6 78 -69 131.5t-175 53.5q-105 0 -166 -46t-61 -125q0 -119 186 -157l207 -46q81 -17 143 -44.5t115.5 -72t82 -113t28.5 -158.5
q0 -177 -116.5 -289.5t-321.5 -137.5l-37 -87q88 0 138 -44.5t50 -123.5q0 -98 -66.5 -146.5t-181.5 -50.5z" />
    <glyph glyph-name="scedilla" unicode="&#x15f;" horiz-adv-x="1037" 
d="M510 -469q-92 -1 -146 16v125q44 -13 111 -13q109 0 109 60q0 35 -30 47t-98 12h-55v104l38 101q-176 15 -274.5 100.5t-98.5 217.5h273q7 -57 53.5 -92.5t124.5 -35.5q89 0 132.5 34.5t43.5 90.5q0 16 -4 29.5t-14 24.5t-19 19.5t-28 16t-31 12t-38.5 10.5t-39.5 8.5
t-44.5 8.5t-44.5 8q-78 16 -134.5 36.5t-106.5 55.5t-76 90.5t-26 130.5q0 70 23 126.5t63 95t96 64.5t118.5 37.5t133.5 11.5q190 0 301 -87.5t111 -238.5h-248q-6 56 -46.5 96t-122.5 40q-75 0 -118 -33t-43 -89q0 -17 5.5 -32t17 -26.5t23.5 -20.5t32 -16.5t36 -13
t41 -10.5t40.5 -7.5t42 -7t39.5 -6.5q161 -27 247.5 -96t86.5 -205q0 -144 -95.5 -233.5t-268.5 -109.5l-36 -91q89 0 140.5 -44.5t51.5 -123.5q0 -98 -66.5 -146.5t-181.5 -50.5z" />
    <glyph glyph-name="Scaron" unicode="&#x160;" horiz-adv-x="1217" 
d="M59 392h278q6 -81 77.5 -136t194.5 -55q118 0 182.5 48.5t64.5 129.5q0 68 -50 106.5t-158 62.5l-205 47q-76 16 -137 44.5t-110.5 73.5t-77 112t-27.5 151q0 130 69.5 226t185.5 143.5t262 47.5q228 0 369.5 -113.5t143.5 -295.5h-270q-6 78 -69 131.5t-175 53.5
q-105 0 -166 -46t-61 -125q0 -119 186 -157l207 -46q81 -17 143 -44.5t115.5 -72t82 -113t28.5 -158.5q0 -201 -146.5 -317t-400.5 -116q-116 0 -209 25t-152.5 66t-99.5 96.5t-57 112.5t-18 118zM247 1732h218l137 -120h14l133 120h219l-262 -233h-190z" />
    <glyph glyph-name="scaron" unicode="&#x161;" horiz-adv-x="1037" 
d="M197 1507h210l113 -175h10l101 176h216l-220 -309h-200zM87 748q0 70 23 126.5t63 95t96 64.5t118.5 37.5t133.5 11.5q190 0 301 -87.5t111 -238.5h-248q-6 56 -46.5 96t-122.5 40q-75 0 -118 -33t-43 -89q0 -17 5.5 -32t17 -26.5t23.5 -20.5t32 -16.5t36 -13t41 -10.5
t40.5 -7.5t42 -7t39.5 -6.5q161 -27 247.5 -96t86.5 -205q0 -163 -122 -256t-340 -93q-205 0 -321.5 88t-116.5 232h273q7 -57 53.5 -92.5t124.5 -35.5q89 0 132.5 34.5t43.5 90.5q0 16 -4 29.5t-14 24.5t-19 19.5t-28 16t-31 12t-38.5 10.5t-39.5 8.5t-44.5 8.5t-44.5 8
q-78 16 -134.5 36.5t-106.5 55.5t-76 90.5t-26 130.5z" />
    <glyph glyph-name="Tcedilla" unicode="&#x162;" horiz-adv-x="1083" 
d="M533 -482q-86 -3 -146 15v126q47 -14 111 -14q109 0 109 60q0 35 -30 47t-99 12h-55v105l50 131h-76v1125h-383v240h1055v-240h-383v-1125h-52l-45 -117q88 0 140 -45t52 -124q0 -97 -66.5 -145.5t-181.5 -50.5z" />
    <glyph glyph-name="tcedilla" unicode="&#x163;" horiz-adv-x="770" 
d="M421 -461q-94 -1 -146 16v125q44 -13 111 -13q109 0 109 60q0 35 -30.5 47t-98.5 12h-55v104l49 132q-86 30 -124 97t-38 183v534h-152v215h158v264h273v-264h205v-215h-205v-493q0 -75 35 -104.5t116 -29.5q46 0 58 2v-207q-50 -9 -127 -9q-32 0 -46 1l-36 -92
q89 0 140.5 -44.5t51.5 -123.5q0 -98 -66.5 -146.5t-181.5 -50.5z" />
    <glyph glyph-name="Tcaron" unicode="&#x164;" horiz-adv-x="1083" 
d="M181 1732h218l137 -120h14l133 120h219l-262 -233h-190zM686 0h-289v1125h-383v240h1055v-240h-383v-1125z" />
    <glyph glyph-name="tcaron" unicode="&#x165;" horiz-adv-x="831" 
d="M637 1679h224l-47 -488h-177v488zM204 1051v264h273v-264h205v-215h-205v-493q0 -75 35 -104.5t116 -29.5q46 0 58 2v-207q-50 -9 -127 -9q-198 0 -279.5 70.5t-81.5 236.5v534h-152v215h158z" />
    <glyph glyph-name="Tbar" unicode="&#x166;" horiz-adv-x="1083" 
d="M915 589h-229v-589h-288v589h-228v177h228v359h-383v240h1055v-240h-384v-359h229v-177z" />
    <glyph glyph-name="tbar" unicode="&#x167;" horiz-adv-x="757" 
d="M686 4q-45 -9 -127 -9q-198 0 -279.5 70.5t-81.5 236.5v190h-136v161h136v183h-152v215h158v264h273v-264h205v-215h-205v-183h198v-161h-198v-149q0 -75 35 -104.5t116 -29.5q40 0 58 2v-207z" />
    <glyph glyph-name="Utilde" unicode="&#x168;" horiz-adv-x="1367" 
d="M415 1365v-862q0 -136 72.5 -210t196.5 -74q122 0 195.5 74.5t73.5 209.5v862h289v-892q0 -226 -152 -362.5t-406 -136.5t-406 137.5t-152 363.5v890h289zM667 1521q-1 1 -16.5 16t-21 19t-18.5 10t-26 6q-62 0 -66 -85h-144q0 87 48.5 152t138.5 65q50 0 83 -15t69 -48
q4 -4 19.5 -18t21.5 -18t17.5 -9.5t23.5 -5.5q32 0 47.5 29.5t17.5 69.5h144q0 -92 -54 -157.5t-138 -65.5q-56 0 -86.5 14t-59.5 41z" />
    <glyph glyph-name="utilde" unicode="&#x169;" horiz-adv-x="1201" 
d="M1075 1064v-1064h-274v158h-13q-28 -71 -106.5 -122.5t-200.5 -51.5q-166 0 -263.5 97t-97.5 281v702h281v-628q0 -117 55 -166t139 -49q87 0 142.5 56.5t55.5 161.5v625h282zM567 1238q-15 16 -24 24t-26 16.5t-35 8.5q-69 0 -73 -97h-160q0 118 55 198.5t162 80.5
q47 0 83 -18.5t77 -58.5l14.5 -14.5t17 -16t14.5 -10.5t19.5 -10t19.5 -2q35 0 51.5 33.5t18.5 78.5h159q0 -113 -62 -196t-161 -83q-53 0 -86 17.5t-64 48.5z" />
    <glyph glyph-name="Umacron" unicode="&#x16a;" horiz-adv-x="1367" 
d="M415 1365v-862q0 -136 72.5 -210t196.5 -74q122 0 195.5 74.5t73.5 209.5v862h289v-892q0 -226 -152 -362.5t-406 -136.5t-406 137.5t-152 363.5v890h289zM978 1505h-590v140h590v-140z" />
    <glyph glyph-name="umacron" unicode="&#x16b;" horiz-adv-x="1201" 
d="M1075 1064v-1064h-274v158h-13q-28 -71 -106.5 -122.5t-200.5 -51.5q-166 0 -263.5 97t-97.5 281v702h281v-628q0 -117 55 -166t139 -49q87 0 142.5 56.5t55.5 161.5v625h282zM897 1226h-590v145h590v-145z" />
    <glyph glyph-name="Ubreve" unicode="&#x16c;" horiz-adv-x="1367" 
d="M415 1365v-862q0 -136 72.5 -210t196.5 -74q122 0 195.5 74.5t73.5 209.5v862h289v-892q0 -226 -152 -362.5t-406 -136.5t-406 137.5t-152 363.5v890h289zM345 1766h164q0 -62 46 -100.5t128 -38.5t128 38.5t46 100.5h161q0 -128 -86.5 -209.5t-248.5 -81.5
q-163 0 -250.5 81t-87.5 210z" />
    <glyph glyph-name="ubreve" unicode="&#x16d;" horiz-adv-x="1201" 
d="M1075 1064v-1064h-274v158h-13q-28 -71 -106.5 -122.5t-200.5 -51.5q-166 0 -263.5 97t-97.5 281v702h281v-628q0 -117 55 -166t139 -49q87 0 142.5 56.5t55.5 161.5v625h282zM269 1482h163q0 -69 40.5 -116.5t118.5 -47.5t119 47.5t41 116.5h160q0 -130 -84.5 -222
t-235.5 -92t-237 92t-85 222z" />
    <glyph glyph-name="Uring" unicode="&#x16e;" horiz-adv-x="1367" 
d="M415 1365v-862q0 -136 72.5 -210t196.5 -74q122 0 195.5 74.5t73.5 209.5v862h289v-892q0 -226 -152 -362.5t-406 -136.5t-406 137.5t-152 363.5v890h289zM680 1485q-94 0 -156.5 60t-62.5 152t62.5 151.5t156.5 59.5t156 -59.5t62 -151.5t-62.5 -152t-155.5 -60z
M587 1696q0 -40 26 -66.5t66 -26.5t66.5 26.5t26.5 66.5t-26.5 66.5t-66.5 26.5t-66 -26.5t-26 -66.5z" />
    <glyph glyph-name="uring" unicode="&#x16f;" horiz-adv-x="1201" 
d="M1075 1064v-1064h-274v158h-13q-28 -71 -106.5 -122.5t-200.5 -51.5q-166 0 -263.5 97t-97.5 281v702h281v-628q0 -117 55 -166t139 -49q87 0 142.5 56.5t55.5 161.5v625h282zM597 1183q-94 0 -156.5 60t-62.5 152t62.5 151.5t156.5 59.5t156 -59.5t62 -151.5t-62.5 -152
t-155.5 -60zM504 1394q0 -40 26 -66.5t66 -26.5t66.5 26.5t26.5 66.5t-26.5 66.5t-66.5 26.5t-66 -26.5t-26 -66.5z" />
    <glyph glyph-name="Uhungarumlaut" unicode="&#x170;" horiz-adv-x="1367" 
d="M415 1365v-862q0 -136 72.5 -210t196.5 -74q122 0 195.5 74.5t73.5 209.5v862h289v-892q0 -226 -152 -362.5t-406 -136.5t-406 137.5t-152 363.5v890h289zM372 1504l280 229h236l-314 -229h-202zM750 1504l280 229h236l-313 -229h-203z" />
    <glyph glyph-name="uhungarumlaut" unicode="&#x171;" horiz-adv-x="1201" 
d="M480 1226h-168l229 329h213zM824 1226h-169l229 329h213zM1075 1064v-1064h-274v158h-13q-28 -71 -106.5 -122.5t-200.5 -51.5q-166 0 -263.5 97t-97.5 281v702h281v-628q0 -117 55 -166t139 -49q87 0 142.5 56.5t55.5 161.5v625h282z" />
    <glyph glyph-name="Uogonek" unicode="&#x172;" horiz-adv-x="1367" 
d="M988 -390q-113 0 -179.5 54.5t-66.5 148.5q0 110 77 183l-2 5q-73 -27 -141 -27q-246 0 -398 138t-152 363v890h289v-862q0 -136 72.5 -210t196.5 -74q122 0 195.5 74.5t73.5 209.5v862h289v-892q0 -226 -150 -374q-15 -16 -52 -51.5t-54 -54t-33 -50.5t-16 -64
q0 -51 33 -75.5t85 -24.5q40 0 76 11v-157q-64 -23 -143 -23z" />
    <glyph glyph-name="uogonek" unicode="&#x173;" horiz-adv-x="1201" 
d="M1081 -370q-54 -20 -144 -20q-107 0 -180 51.5t-73 152.5q0 70 35 118.5t92 90.5v155h-14q-25 -75 -107 -134.5t-212 -59.5q-165 0 -261.5 90.5t-96.5 272.5v717h281v-646q0 -109 52 -155t131 -46q88 0 148.5 59t60.5 154v634h282v-1059q-33 -6 -63 -15.5t-60.5 -25
t-49 -40.5t-18.5 -55q0 -44 33.5 -66.5t87.5 -22.5q49 0 76 8v-158z" />
    <glyph glyph-name="Wcircumflex" unicode="&#x174;" horiz-adv-x="1763" 
d="M522 1495l269 244h190l262 -244h-219l-133 128h-14l-137 -128h-218zM630 0h-268l-357 1365h311l196 -955h11l236 955h247l235 -955h12l195 955h310l-357 -1365h-268l-246 921h-10z" />
    <glyph glyph-name="wcircumflex" unicode="&#x175;" horiz-adv-x="1584" 
d="M457 1226l230 308h201l219 -309h-216l-101 176h-9l-113 -175h-211zM1565 1064l-275 -1064h-293l-197 745h-9l-194 -745h-296l-282 1064h295l148 -774h11l191 774h264l195 -774h11l151 774h280z" />
    <glyph glyph-name="Ycircumflex" unicode="&#x176;" horiz-adv-x="1164" 
d="M727 0h-289v505l-457 860h319l281 -573h10l282 573h311l-457 -853v-512zM223 1495l269 244h190l262 -244h-219l-133 128h-14l-137 -128h-218z" />
    <glyph glyph-name="ycircumflex" unicode="&#x177;" horiz-adv-x="1099" 
d="M1073 1064q-339 -1015 -343 -1027l-27 -73q-31 -80 -64.5 -136.5t-86 -106t-129 -74t-177.5 -24.5q-96 0 -152 12v200q31 -7 88 -7q94 0 136.5 34t54.5 104l9 34l-363 1064h310l214 -826h12l219 826h299zM214 1226l230 308h201l219 -309h-216l-101 176h-9l-113 -175h-211
z" />
    <glyph glyph-name="Ydieresis" unicode="&#x178;" horiz-adv-x="1164" 
d="M727 0h-289v505l-457 860h319l281 -573h10l282 573h311l-457 -853v-512zM304 1581q0 49 30.5 79t81.5 30t81.5 -30t30.5 -79q0 -48 -30.5 -78t-81.5 -30q-50 0 -81 30t-31 78zM662 1581q0 49 30 79t81 30t82 -30t31 -79t-30.5 -78.5t-82.5 -29.5q-51 0 -81 30t-30 78z
" />
    <glyph glyph-name="Zacute" unicode="&#x179;" horiz-adv-x="1183" 
d="M429 1504l271 222h290l-316 -222h-245zM84 0v188l646 931v11h-630v235h980v-187l-644 -930v-12h664v-236h-1016z" />
    <glyph glyph-name="zacute" unicode="&#x17a;" horiz-adv-x="1006" 
d="M613 1226h-236l207 294h283zM84 0v157l497 679v13h-490v215h830v-174l-479 -661v-13h492v-216h-850z" />
    <glyph glyph-name="Zdotaccent" unicode="&#x17b;" horiz-adv-x="1183" 
d="M84 0v188l646 931v11h-630v235h980v-187l-644 -930v-12h664v-236h-1016zM465 1605q0 56 36 92.5t91 36.5q56 0 93.5 -37t37.5 -92t-37.5 -90.5t-93.5 -35.5q-55 0 -91 35.5t-36 90.5z" />
    <glyph glyph-name="zdotaccent" unicode="&#x17c;" horiz-adv-x="1006" 
d="M376 1303q0 56 36 92.5t91 36.5q56 0 93.5 -37t37.5 -92t-37.5 -90.5t-93.5 -35.5q-55 0 -91 35.5t-36 90.5zM84 0v157l497 679v13h-490v215h830v-174l-479 -661v-13h492v-216h-850z" />
    <glyph glyph-name="Zcaron" unicode="&#x17d;" horiz-adv-x="1183" 
d="M84 0v188l646 931v11h-630v235h980v-187l-644 -930v-12h664v-236h-1016zM231 1732h218l137 -120h14l133 120h219l-262 -233h-190z" />
    <glyph glyph-name="zcaron" unicode="&#x17e;" horiz-adv-x="1006" 
d="M181 1507h210l113 -175h10l101 176h216l-220 -309h-200zM84 0v157l497 679v13h-490v215h830v-174l-479 -661v-13h492v-216h-850z" />
    <glyph glyph-name="florin" unicode="&#x192;" horiz-adv-x="1185" 
d="M113 -186l155 844h-188l38 226h189l27 155q32 183 141.5 267t304.5 84q104 0 178.5 -29t113 -78t53.5 -104.5t10 -117.5h-258q2 48 -25.5 81t-78.5 33q-113 0 -137 -142l-25 -149h294l-39 -226h-294l-155 -844h-304z" />
    <glyph glyph-name="Ohorn" unicode="&#x1a0;" horiz-adv-x="1386" 
d="M1271 593q0 -289 -157.5 -454t-436.5 -165q-278 0 -434.5 165t-156.5 454v170q0 292 158 460t435 168q100 0 228 -36t184 -36q79 0 106.5 35t27.5 102v123h223v-154q0 -132 -71 -210.5t-197 -78.5l-3 -3q41 -66 67.5 -165t26.5 -205v-170zM380 766v-175q0 -185 81.5 -282
t216.5 -97q136 0 217.5 97t81.5 282v175q0 186 -82 286t-217 100t-216.5 -100.5t-81.5 -285.5z" />
    <glyph glyph-name="ohorn" unicode="&#x1a1;" horiz-adv-x="1173" 
d="M572 -19q-228 0 -361 130.5t-133 367.5v110q0 222 135.5 358t358.5 136q65 0 141.5 -17t122.5 -17q64 0 87 29t23 93v158h223v-184q0 -110 -47 -182.5t-141 -90.5v-9q82 -132 82 -273v-110q0 -236 -133 -367.5t-358 -131.5zM571 868q-101 0 -155 -80t-54 -202v-107
q0 -122 52.5 -202t156.5 -80q103 0 155 80t52 202v107q0 123 -52.5 202.5t-154.5 79.5z" />
    <glyph glyph-name="Uhorn" unicode="&#x1af;" horiz-adv-x="1470" 
d="M684 -25q-254 0 -406 137.5t-152 364.5v888h289v-861q0 -136 72.5 -210t196.5 -74q122 0 195.5 75t73.5 209v861h290q60 0 84.5 31t24.5 92v127h222v-159q0 -127 -69 -208t-196 -81h-67v-692q0 -227 -152 -363.5t-406 -136.5z" />
    <glyph glyph-name="uhorn" unicode="&#x1b0;" horiz-adv-x="1355" 
d="M786 178q-11 -34 -35 -66t-61 -62t-93 -48t-123 -18q-166 0 -260 90t-94 273v717h281v-646q0 -57 15.5 -98t42.5 -62.5t58 -31t68 -9.5q88 0 148 59t60 154v634h250q59 0 79 29.5t20 92.5v143h223v-174q0 -126 -69 -207t-197 -81h-24v-867h-275v178h-14z" />
    <glyph glyph-name="Acaron" unicode="&#x1cd;" horiz-adv-x="1271" 
d="M302 0h-289l452 1365h343l450 -1365h-309l-101 339h-444zM634 1093h-13l-160 -541h331zM276 1732h218l137 -120h14l133 120h219l-262 -233h-190z" />
    <glyph glyph-name="acaron" unicode="&#x1ce;" horiz-adv-x="1105" 
d="M709 134q-34 -65 -105.5 -107.5t-180.5 -42.5q-157 0 -253.5 87t-96.5 235q0 147 98.5 232t280.5 85h256v103q0 142 -164 142q-78 0 -120 -36t-47 -98h-265q3 71 27.5 130.5t73.5 109t135 78t202 28.5q202 0 319 -87.5t117 -274.5v-718h-265v134h-12zM516 186
q80 0 136 47.5t56 119.5v105h-189q-81 0 -124 -36t-43 -96q0 -67 48 -103.5t116 -36.5zM231 1507h210l113 -175h10l101 176h216l-220 -309h-200z" />
    <glyph glyph-name="Icaron" unicode="&#x1cf;" horiz-adv-x="572" 
d="M431 0h-290v1365h290v-1365zM-74 1732h218l137 -120h14l133 120h219l-262 -233h-190z" />
    <glyph glyph-name="icaron" unicode="&#x1d0;" horiz-adv-x="570" 
d="M-31 1507h210l113 -175h10l101 176h216l-220 -309h-200zM148 0v1064h288v-1064h-288z" />
    <glyph glyph-name="Ocaron" unicode="&#x1d1;" horiz-adv-x="1357" 
d="M318 1732h218l137 -120h14l133 120h219l-262 -233h-190zM380 766v-174q0 -185 81 -281.5t217 -96.5t217 96.5t81 281.5v174q0 186 -81.5 286t-216.5 100t-216.5 -100.5t-81.5 -285.5zM86 593v170q0 292 158 460t435 168q278 0 435 -168.5t157 -459.5v-170
q0 -289 -157.5 -454t-436.5 -165q-278 0 -434.5 165t-156.5 454z" />
    <glyph glyph-name="ocaron" unicode="&#x1d2;" horiz-adv-x="1141" 
d="M249 1507h210l113 -175h10l101 176h216l-220 -309h-200zM572 1083q236 0 363.5 -140t127.5 -373v-70q0 -243 -126.5 -381t-364.5 -138q-240 0 -367 137t-127 381v70q0 112 32 205.5t93 162.5t155.5 107.5t213.5 38.5zM571 868q-59 0 -101 -25t-65 -69.5t-33 -95.5
t-10 -112v-67q0 -61 10 -111.5t32.5 -95t65 -70t101.5 -25.5q48 0 85 17t59.5 45.5t37 68.5t20 81.5t5.5 89.5v67q0 62 -10 113t-32 95t-64 69t-101 25z" />
    <glyph glyph-name="Ucaron" unicode="&#x1d3;" horiz-adv-x="1367" 
d="M323 1732h218l137 -120h14l133 120h219l-262 -233h-190zM415 1365v-862q0 -136 72.5 -210t196.5 -74q122 0 195.5 74.5t73.5 209.5v862h289v-892q0 -226 -152 -362.5t-406 -136.5t-406 137.5t-152 363.5v890h289z" />
    <glyph glyph-name="ucaron" unicode="&#x1d4;" horiz-adv-x="1201" 
d="M279 1507h210l113 -175h10l101 176h216l-220 -309h-200zM1075 1064v-1064h-274v158h-13q-28 -71 -106.5 -122.5t-200.5 -51.5q-166 0 -263.5 97t-97.5 281v702h281v-628q0 -117 55 -166t139 -49q87 0 142.5 56.5t55.5 161.5v625h282z" />
    <glyph glyph-name="Udieresismacron" unicode="&#x1d5;" horiz-adv-x="1367" 
d="M406 1581q0 49 30.5 79t81.5 30t81.5 -30t30.5 -79q0 -48 -30.5 -78t-81.5 -30q-50 0 -81 30t-31 78zM764 1581q0 49 30 79t81 30t82 -30t31 -79t-30.5 -78.5t-82.5 -29.5q-51 0 -81 30t-30 78zM415 1365v-862q0 -136 72.5 -210t196.5 -74q122 0 195.5 74.5t73.5 209.5
v862h289v-892q0 -226 -152 -362.5t-406 -136.5t-406 137.5t-152 363.5v890h289zM978 1792h-590v140h590v-140z" />
    <glyph glyph-name="udieresismacron" unicode="&#x1d6;" horiz-adv-x="1201" 
d="M1075 1064v-1064h-274v158h-13q-28 -71 -106.5 -122.5t-200.5 -51.5q-166 0 -263.5 97t-97.5 281v702h281v-628q0 -117 55 -166t139 -49q87 0 142.5 56.5t55.5 161.5v625h282zM277 1296q0 54 34 87.5t90 33.5q57 0 91 -33.5t34 -87.5t-34 -87t-91 -33q-55 0 -89.5 33.5
t-34.5 86.5zM681 1296q0 54 34 87.5t89 33.5q57 0 91 -33.5t34 -87.5t-34 -87t-91 -33q-55 0 -89 33.5t-34 86.5zM897 1562h-590v145h590v-145z" />
    <glyph glyph-name="Udieresisacute" unicode="&#x1d7;" horiz-adv-x="1367" 
d="M521 1746l271 222h290l-316 -222h-245zM406 1581q0 49 30.5 79t81.5 30t81.5 -30t30.5 -79q0 -48 -30.5 -78t-81.5 -30q-50 0 -81 30t-31 78zM764 1581q0 49 30 79t81 30t82 -30t31 -79t-30.5 -78.5t-82.5 -29.5q-51 0 -81 30t-30 78zM415 1365v-862q0 -136 72.5 -210
t196.5 -74q122 0 195.5 74.5t73.5 209.5v862h289v-892q0 -226 -152 -362.5t-406 -136.5t-406 137.5t-152 363.5v890h289z" />
    <glyph glyph-name="udieresisacute" unicode="&#x1d8;" horiz-adv-x="1201" 
d="M711 1515h-236l207 294h283zM1075 1064v-1064h-274v158h-13q-28 -71 -106.5 -122.5t-200.5 -51.5q-166 0 -263.5 97t-97.5 281v702h281v-628q0 -117 55 -166t139 -49q87 0 142.5 56.5t55.5 161.5v625h282zM277 1296q0 54 34 87.5t90 33.5q57 0 91 -33.5t34 -87.5t-34 -87
t-91 -33q-55 0 -89.5 33.5t-34.5 86.5zM681 1296q0 54 34 87.5t89 33.5q57 0 91 -33.5t34 -87.5t-34 -87t-91 -33q-55 0 -89 33.5t-34 86.5z" />
    <glyph glyph-name="Udieresiscaron" unicode="&#x1d9;" horiz-adv-x="1367" 
d="M406 1581q0 49 30.5 79t81.5 30t81.5 -30t30.5 -79q0 -48 -30.5 -78t-81.5 -30q-50 0 -81 30t-31 78zM764 1581q0 49 30 79t81 30t82 -30t31 -79t-30.5 -78.5t-82.5 -29.5q-51 0 -81 30t-30 78zM323 1994h218l137 -120h14l133 120h219l-262 -233h-190zM415 1365v-862
q0 -136 72.5 -210t196.5 -74q122 0 195.5 74.5t73.5 209.5v862h289v-892q0 -226 -152 -362.5t-406 -136.5t-406 137.5t-152 363.5v890h289z" />
    <glyph glyph-name="udieresiscaron" unicode="&#x1da;" horiz-adv-x="1201" 
d="M279 1823h210l113 -175h10l101 176h216l-220 -309h-200zM1075 1064v-1064h-274v158h-13q-28 -71 -106.5 -122.5t-200.5 -51.5q-166 0 -263.5 97t-97.5 281v702h281v-628q0 -117 55 -166t139 -49q87 0 142.5 56.5t55.5 161.5v625h282zM277 1296q0 54 34 87.5t90 33.5
q57 0 91 -33.5t34 -87.5t-34 -87t-91 -33q-55 0 -89.5 33.5t-34.5 86.5zM681 1296q0 54 34 87.5t89 33.5q57 0 91 -33.5t34 -87.5t-34 -87t-91 -33q-55 0 -89 33.5t-34 86.5z" />
    <glyph glyph-name="Udieresisgrave" unicode="&#x1db;" horiz-adv-x="1367" 
d="M825 1746h-234l-305 214h278zM406 1581q0 49 30.5 79t81.5 30t81.5 -30t30.5 -79q0 -48 -30.5 -78t-81.5 -30q-50 0 -81 30t-31 78zM764 1581q0 49 30 79t81 30t82 -30t31 -79t-30.5 -78.5t-82.5 -29.5q-51 0 -81 30t-30 78zM415 1365v-862q0 -136 72.5 -210t196.5 -74
q122 0 195.5 74.5t73.5 209.5v862h289v-892q0 -226 -152 -362.5t-406 -136.5t-406 137.5t-152 363.5v890h289z" />
    <glyph glyph-name="udieresisgrave" unicode="&#x1dc;" horiz-adv-x="1201" 
d="M766 1514h-236l-263 290h283zM1075 1064v-1064h-274v158h-13q-28 -71 -106.5 -122.5t-200.5 -51.5q-166 0 -263.5 97t-97.5 281v702h281v-628q0 -117 55 -166t139 -49q87 0 142.5 56.5t55.5 161.5v625h282zM277 1296q0 54 34 87.5t90 33.5q57 0 91 -33.5t34 -87.5
t-34 -87t-91 -33q-55 0 -89.5 33.5t-34.5 86.5zM681 1296q0 54 34 87.5t89 33.5q57 0 91 -33.5t34 -87.5t-34 -87t-91 -33q-55 0 -89 33.5t-34 86.5z" />
    <glyph glyph-name="Adieresismacron" unicode="&#x1de;" horiz-adv-x="1271" 
d="M302 0h-289l452 1365h343l450 -1365h-309l-101 339h-444zM634 1093h-13l-160 -541h331zM358 1581q0 49 30.5 79t81.5 30t81.5 -30t30.5 -79q0 -48 -30.5 -78t-81.5 -30q-50 0 -81 30t-31 78zM716 1581q0 49 30 79t81 30t82 -30t31 -79t-30.5 -78.5t-82.5 -29.5
q-51 0 -81 30t-30 78zM931 1792h-590v140h590v-140z" />
    <glyph glyph-name="adieresismacron" unicode="&#x1df;" horiz-adv-x="1105" 
d="M709 134q-34 -65 -105.5 -107.5t-180.5 -42.5q-157 0 -253.5 87t-96.5 235q0 147 98.5 232t280.5 85h256v103q0 142 -164 142q-78 0 -120 -36t-47 -98h-265q3 71 27.5 130.5t73.5 109t135 78t202 28.5q202 0 319 -87.5t117 -274.5v-718h-265v134h-12zM516 186
q80 0 136 47.5t56 119.5v105h-189q-81 0 -124 -36t-43 -96q0 -67 48 -103.5t116 -36.5zM229 1296q0 54 34 87.5t90 33.5q57 0 91 -33.5t34 -87.5t-34 -87t-91 -33q-55 0 -89.5 33.5t-34.5 86.5zM633 1296q0 54 34 87.5t89 33.5q57 0 91 -33.5t34 -87.5t-34 -87t-91 -33
q-55 0 -89 33.5t-34 86.5zM849 1562h-590v145h590v-145z" />
    <glyph glyph-name="Adotmacron" unicode="&#x1e0;" horiz-adv-x="1271" 
d="M302 0h-289l452 1365h343l450 -1365h-309l-101 339h-444zM634 1093h-13l-160 -541h331zM510 1605q0 56 36 92.5t91 36.5q56 0 93.5 -37t37.5 -92t-37.5 -90.5t-93.5 -35.5q-55 0 -91 35.5t-36 90.5zM931 1792h-590v140h590v-140z" />
    <glyph glyph-name="adotmacron" unicode="&#x1e1;" horiz-adv-x="1105" 
d="M709 134q-34 -65 -105.5 -107.5t-180.5 -42.5q-157 0 -253.5 87t-96.5 235q0 147 98.5 232t280.5 85h256v103q0 142 -164 142q-78 0 -120 -36t-47 -98h-265q3 71 27.5 130.5t73.5 109t135 78t202 28.5q202 0 319 -87.5t117 -274.5v-718h-265v134h-12zM516 186
q80 0 136 47.5t56 119.5v105h-189q-81 0 -124 -36t-43 -96q0 -67 48 -103.5t116 -36.5zM426 1303q0 56 36 92.5t91 36.5q56 0 93.5 -37t37.5 -92t-37.5 -90.5t-93.5 -35.5q-55 0 -91 35.5t-36 90.5zM849 1562h-590v145h590v-145z" />
    <glyph glyph-name="AEmacron" unicode="&#x1e2;" horiz-adv-x="1900" 
d="M845 1132l-261 -572l328 1v571h-67zM912 338h-423l-164 -338h-318l657 1365h1135v-233h-601v-333h565v-218h-565v-347h601v-234h-887v338zM1644 1505h-590v140h590v-140z" />
    <glyph glyph-name="aemacron" unicode="&#x1e3;" horiz-adv-x="1751" 
d="M1218 -19q-149 0 -248.5 53t-143.5 142h-16q-47 -83 -140 -139t-225 -56q-172 0 -273 87t-101 239q0 148 100.5 234t283.5 86h254v93q0 73 -44 110.5t-123 37.5q-74 0 -116 -30t-51 -80h-265q4 67 31 124t77.5 102.5t135 71.5t194.5 26q106 0 194 -34.5t134 -93.5h16
q45 59 129 93.5t183 34.5q212 0 341.5 -132.5t129.5 -357.5v-121h-673v-64q0 -94 60.5 -153t154.5 -59q76 0 126.5 32.5t58.5 83.5h264q-3 -43 -20 -86.5t-53 -88t-85.5 -78.5t-125 -55.5t-164.5 -21.5zM1206 875q-88 0 -146 -61.5t-58 -156.5v-20h401v14q0 103 -53 163.5
t-144 60.5zM518 186q79 0 135 47.5t56 119.5v109h-189q-82 0 -127 -36.5t-45 -97.5q0 -67 50 -104.5t120 -37.5zM1172 1226h-590v145h590v-145z" />
    <glyph glyph-name="Gcaron" unicode="&#x1e6;" horiz-adv-x="1311" 
d="M305 1732h218l137 -120h14l133 120h219l-262 -233h-190zM1223 924h-282q-13 106 -85.5 166t-182.5 60q-135 0 -215 -95.5t-80 -284.5v-167q0 -179 72.5 -283.5t225.5 -104.5q124 0 199 68t75 168v77h-267v212h542v-270q0 -69 -17.5 -136t-59.5 -133t-104 -116t-158 -80.5
t-214 -30.5q-149 0 -262.5 47t-183.5 132.5t-105 198.5t-35 250v170q0 284 157.5 451.5t433.5 167.5q130 0 235 -39.5t170.5 -105.5t101.5 -148.5t39 -173.5z" />
    <glyph glyph-name="gcaron" unicode="&#x1e7;" horiz-adv-x="1182" 
d="M270 1507h210l113 -175h10l101 176h216l-220 -309h-200zM565 -189q110 0 165.5 57t55.5 164v150h-12q-30 -73 -110 -120t-190 -47q-179 0 -289 128t-110 355v93q0 227 110 356.5t291 129.5q118 0 193.5 -47t107.5 -123h12v157h277v-1050q0 -89 -28 -159.5t-76 -116.5
t-114 -76t-138 -43t-153 -13q-115 0 -204.5 27t-143.5 73.5t-82 103t-30 121.5h271q10 -54 61 -87t136 -33zM579 855q-99 0 -157.5 -74t-58.5 -205v-80q0 -130 59.5 -201.5t157.5 -71.5q95 0 150 73.5t55 193.5v86q0 126 -55.5 202.5t-150.5 76.5z" />
    <glyph glyph-name="Kcaron" unicode="&#x1e8;" horiz-adv-x="1273" 
d="M1260 1365l-483 -589l503 -776h-346l-369 584l-134 -154v-430h-290v1365h290v-601h13l501 601h315zM264 1732h218l137 -120h14l133 120h219l-262 -233h-190z" />
    <glyph glyph-name="kcaron" unicode="&#x1e9;" horiz-adv-x="1120" 
d="M-54 1881h210l113 -175h10l101 176h216l-220 -309h-200zM409 366v-366h-281v1437h281v-810h13l339 437h316l-381 -459l408 -605h-328l-295 446z" />
    <glyph glyph-name="Oogonek" unicode="&#x1ea;" horiz-adv-x="1357" 
d="M380 766v-174q0 -185 81 -281.5t217 -96.5t217 96.5t81 281.5v174q0 186 -81.5 286t-216.5 100t-216.5 -100.5t-81.5 -285.5zM644 -23q-247 0 -402.5 169t-155.5 447v170q0 292 158 460t435 168q278 0 435 -168.5t157 -459.5v-170q0 -94 -16.5 -172t-48 -138t-60 -98
t-69.5 -83q-15 -16 -53.5 -55t-53 -56.5t-29.5 -48t-15 -60.5q0 -51 33 -75t87 -24q44 0 74 9v-161q-76 -21 -144 -21q-113 2 -180.5 55t-68.5 146q0 107 92 190l-6 13q-69 -37 -169 -37z" />
    <glyph glyph-name="oogonek" unicode="&#x1eb;" horiz-adv-x="1141" 
d="M571 868q-101 0 -155 -80t-54 -202v-107q0 -121 52.5 -201.5t156.5 -80.5t155.5 80t51.5 202v107q0 123 -53 202.5t-154 79.5zM664 14q-77 -28 -146 -28q-192 0 -316 132.5t-124 355.5v115q0 223 136 358.5t360 135.5q221 0 355 -133.5t134 -359.5v-110q0 -80 -14 -145
t-42 -114.5t-52 -79.5t-62 -68l-21.5 -21.5t-21.5 -22t-18 -19t-18 -20.5t-14 -19t-12.5 -20.5t-8.5 -20t-6.5 -22.5t-1.5 -23q0 -51 33.5 -78t88.5 -27q32 0 72 8v-157q-60 -21 -139 -21q-66 0 -121 18.5t-94 65t-39 114.5q0 113 100 193z" />
    <glyph glyph-name="Oogonekmacron" unicode="&#x1ec;" horiz-adv-x="1357" 
d="M380 766v-174q0 -185 81 -281.5t217 -96.5t217 96.5t81 281.5v174q0 186 -81.5 286t-216.5 100t-216.5 -100.5t-81.5 -285.5zM644 -23q-247 0 -402.5 169t-155.5 447v170q0 292 158 460t435 168q278 0 435 -168.5t157 -459.5v-170q0 -94 -16.5 -172t-48 -138t-60 -98
t-69.5 -83q-15 -16 -53.5 -55t-53 -56.5t-29.5 -48t-15 -60.5q0 -51 33 -75t87 -24q44 0 74 9v-161q-76 -21 -144 -21q-113 2 -180.5 55t-68.5 146q0 107 92 190l-6 13q-69 -37 -169 -37zM973 1505h-590v140h590v-140z" />
    <glyph glyph-name="oogonekmacron" unicode="&#x1ed;" horiz-adv-x="1141" 
d="M571 868q-101 0 -155 -80t-54 -202v-107q0 -121 52.5 -201.5t156.5 -80.5t155.5 80t51.5 202v107q0 123 -53 202.5t-154 79.5zM664 14q-77 -28 -146 -28q-192 0 -316 132.5t-124 355.5v115q0 223 136 358.5t360 135.5q221 0 355 -133.5t134 -359.5v-110q0 -80 -14 -145
t-42 -114.5t-52 -79.5t-62 -68l-21.5 -21.5t-21.5 -22t-18 -19t-18 -20.5t-14 -19t-12.5 -20.5t-8.5 -20t-6.5 -22.5t-1.5 -23q0 -51 33.5 -78t88.5 -27q32 0 72 8v-157q-60 -21 -139 -21q-66 0 -121 18.5t-94 65t-39 114.5q0 113 100 193zM867 1226h-590v145h590v-145z" />
    <glyph glyph-name="Gacute" unicode="&#x1f4;" horiz-adv-x="1311" 
d="M503 1504l271 222h290l-316 -222h-245zM1223 924h-282q-13 106 -85.5 166t-182.5 60q-135 0 -215 -95.5t-80 -284.5v-167q0 -179 72.5 -283.5t225.5 -104.5q124 0 199 68t75 168v77h-267v212h542v-270q0 -69 -17.5 -136t-59.5 -133t-104 -116t-158 -80.5t-214 -30.5
q-149 0 -262.5 47t-183.5 132.5t-105 198.5t-35 250v170q0 284 157.5 451.5t433.5 167.5q130 0 235 -39.5t170.5 -105.5t101.5 -148.5t39 -173.5z" />
    <glyph glyph-name="gacute" unicode="&#x1f5;" horiz-adv-x="1182" 
d="M702 1226h-236l207 294h283zM565 -189q110 0 165.5 57t55.5 164v150h-12q-30 -73 -110 -120t-190 -47q-179 0 -289 128t-110 355v93q0 227 110 356.5t291 129.5q118 0 193.5 -47t107.5 -123h12v157h277v-1050q0 -89 -28 -159.5t-76 -116.5t-114 -76t-138 -43t-153 -13
q-115 0 -204.5 27t-143.5 73.5t-82 103t-30 121.5h271q10 -54 61 -87t136 -33zM579 855q-99 0 -157.5 -74t-58.5 -205v-80q0 -130 59.5 -201.5t157.5 -71.5q95 0 150 73.5t55 193.5v86q0 126 -55.5 202.5t-150.5 76.5z" />
    <glyph glyph-name="Ngrave" unicode="&#x1f8;" horiz-adv-x="1385" 
d="M834 1504h-234l-305 214h278zM413 0h-272v1365h237l584 -876h10v876h272v-1365h-236l-585 882h-10v-882z" />
    <glyph glyph-name="ngrave" unicode="&#x1f9;" horiz-adv-x="1204" 
d="M768 1230h-236l-263 290h283zM126 0v1064h274v-158h12q29 70 109 122t198 52q164 0 264 -99t100 -282v-699h-281v617q0 117 -52.5 171t-142.5 54q-92 0 -146 -59t-54 -172v-611h-281z" />
    <glyph glyph-name="Aringacute" unicode="&#x1fa;" horiz-adv-x="1272" 
d="M567 1647l304 249h296l-336 -249h-264zM518 1468q0 -46 33 -78t80 -32t80 32t33 78q0 48 -33 79.5t-80 31.5q-48 0 -80.5 -31.5t-32.5 -79.5zM793 552l-158 541h-14l-160 -541h332zM302 0h-289l429 1289q-82 69 -82 181t78.5 189t192.5 77t192.5 -77t78.5 -189
q0 -102 -73 -170l430 -1300h-310l-100 339h-445z" />
    <glyph glyph-name="aringacute" unicode="&#x1fb;" horiz-adv-x="1105" 
d="M729 1522h-211l223 312h261zM709 134q-34 -65 -105.5 -107.5t-180.5 -42.5q-157 0 -253.5 87t-96.5 235q0 147 98.5 232t280.5 85h256v103q0 142 -164 142q-78 0 -120 -36t-47 -98h-265q3 71 27.5 130.5t73.5 109t135 78t202 28.5q202 0 319 -87.5t117 -274.5v-718h-265
v134h-12zM516 186q80 0 136 47.5t56 119.5v105h-189q-81 0 -124 -36t-43 -96q0 -67 48 -103.5t116 -36.5zM557 1183q-94 0 -156.5 60t-62.5 152t62.5 151.5t156.5 59.5t156 -59.5t62 -151.5t-62.5 -152t-155.5 -60zM464 1394q0 -40 26 -66.5t66 -26.5t66.5 26.5t26.5 66.5
t-26.5 66.5t-66.5 26.5t-66 -26.5t-26 -66.5z" />
    <glyph glyph-name="AEacute" unicode="&#x1fc;" horiz-adv-x="1900" 
d="M1187 1504l271 222h290l-316 -222h-245zM845 1132l-261 -572l328 1v571h-67zM912 338h-423l-164 -338h-318l657 1365h1135v-233h-601v-333h565v-218h-565v-347h601v-234h-887v338z" />
    <glyph glyph-name="aeacute" unicode="&#x1fd;" horiz-adv-x="1751" 
d="M986 1226h-236l207 294h283zM1218 -19q-149 0 -248.5 53t-143.5 142h-16q-47 -83 -140 -139t-225 -56q-172 0 -273 87t-101 239q0 148 100.5 234t283.5 86h254v93q0 73 -44 110.5t-123 37.5q-74 0 -116 -30t-51 -80h-265q4 67 31 124t77.5 102.5t135 71.5t194.5 26
q106 0 194 -34.5t134 -93.5h16q45 59 129 93.5t183 34.5q212 0 341.5 -132.5t129.5 -357.5v-121h-673v-64q0 -94 60.5 -153t154.5 -59q76 0 126.5 32.5t58.5 83.5h264q-3 -43 -20 -86.5t-53 -88t-85.5 -78.5t-125 -55.5t-164.5 -21.5zM1206 875q-88 0 -146 -61.5t-58 -156.5
v-20h401v14q0 103 -53 163.5t-144 60.5zM518 186q79 0 135 47.5t56 119.5v109h-189q-82 0 -127 -36.5t-45 -97.5q0 -67 50 -104.5t120 -37.5z" />
    <glyph glyph-name="Oslashacute" unicode="&#x1fe;" horiz-adv-x="1357" 
d="M677 -26q-230 0 -376 119l-99 -122l-126 103l111 137q-101 153 -101 382v170q0 292 158 460t435 168q226 0 372 -117l88 109l130 -96l-105 -129q107 -157 107 -395v-170q0 -289 -157.5 -454t-436.5 -165zM373 589q0 -77 18 -129l494 611q-80 86 -208 86
q-138 0 -221 -101.5t-83 -289.5v-177zM677 206q139 0 222 97.5t83 285.5v177q0 85 -21 142l-497 -614q78 -88 213 -88zM516 1504l271 222h290l-316 -222h-245z" />
    <glyph glyph-name="oslashacute" unicode="&#x1ff;" horiz-adv-x="1141" 
d="M425 256q54 -64 146 -64q107 0 161 82t54 206v123q0 49 -18 90zM355 465q0 -55 18 -94l343 441q-54 65 -145 65q-104 0 -160 -82.5t-56 -206.5v-123zM572 -19q-174 0 -297 83l-105 -128l-106 89l110 135q-96 127 -96 319v110q0 222 135.5 358t358.5 136q168 0 291 -84
l102 124l111 -91l-108 -133q95 -128 95 -309v-110q0 -236 -133 -367.5t-358 -131.5zM681 1226h-236l207 294h283z" />
    <glyph glyph-name="Adblgrave" unicode="&#x200;" horiz-adv-x="1271" 
d="M302 0h-289l452 1365h343l450 -1365h-309l-101 339h-444zM634 1093h-13l-160 -541h331zM948 1504h-202l-314 230h236zM570 1504h-203l-313 230h236z" />
    <glyph glyph-name="adblgrave" unicode="&#x201;" horiz-adv-x="1105" 
d="M709 134q-34 -65 -105.5 -107.5t-180.5 -42.5q-157 0 -253.5 87t-96.5 235q0 147 98.5 232t280.5 85h256v103q0 142 -164 142q-78 0 -120 -36t-47 -98h-265q3 71 27.5 130.5t73.5 109t135 78t202 28.5q202 0 319 -87.5t117 -274.5v-718h-265v134h-12zM516 186
q80 0 136 47.5t56 119.5v105h-189q-81 0 -124 -36t-43 -96q0 -67 48 -103.5t116 -36.5zM312 1226l-273 329h213l229 -329h-169zM656 1226l-274 329h213l229 -329h-168z" />
    <glyph glyph-name="Ainvertedbreve" unicode="&#x202;" horiz-adv-x="1271" 
d="M302 0h-289l452 1365h343l450 -1365h-309l-101 339h-444zM634 1093h-13l-160 -541h331zM636 1618q-79 0 -126.5 -37.5t-47.5 -98.5h-164q0 127 89 208t249 81t247.5 -81t87.5 -208h-161q0 61 -47.5 98.5t-126.5 37.5z" />
    <glyph glyph-name="ainvertedbreve" unicode="&#x203;" horiz-adv-x="1105" 
d="M709 134q-34 -65 -105.5 -107.5t-180.5 -42.5q-157 0 -253.5 87t-96.5 235q0 147 98.5 232t280.5 85h256v103q0 142 -164 142q-78 0 -120 -36t-47 -98h-265q3 71 27.5 130.5t73.5 109t135 78t202 28.5q202 0 319 -87.5t117 -274.5v-718h-265v134h-12zM516 186
q80 0 136 47.5t56 119.5v105h-189q-81 0 -124 -36t-43 -96q0 -67 48 -103.5t116 -36.5zM229 1203q1 130 86.5 222t236.5 92t236 -92t84 -222h-160q0 69 -41 116.5t-119 47.5t-119 -47.5t-41 -116.5h-163z" />
    <glyph glyph-name="Edblgrave" unicode="&#x204;" horiz-adv-x="1133" 
d="M889 1504h-202l-314 230h236zM511 1504h-203l-313 230h236zM1032 234v-234h-891v1365h891v-234h-604v-332h568v-218h-568v-347h604z" />
    <glyph glyph-name="edblgrave" unicode="&#x205;" horiz-adv-x="1106" 
d="M570 -19q-232 0 -362 133.5t-130 374.5v83q0 239 130 375t348 136q223 0 349 -138t126 -372v-100h-677v-36q0 -105 57.5 -173.5t157.5 -68.5q83 0 132.5 37.5t57.5 94.5h263q-4 -47 -21 -93t-52.5 -92.5t-85.5 -81.5t-126 -57t-167 -22zM354 645h406v2q0 101 -54.5 164.5
t-147.5 63.5t-148.5 -64t-55.5 -164v-2zM313 1226l-273 329h213l229 -329h-169zM657 1226l-274 329h213l229 -329h-168z" />
    <glyph glyph-name="Einvertedbreve" unicode="&#x206;" horiz-adv-x="1133" 
d="M1032 234v-234h-891v1365h891v-234h-604v-332h568v-218h-568v-347h604zM577 1618q-79 0 -126.5 -37.5t-47.5 -98.5h-164q0 127 89 208t249 81t247.5 -81t87.5 -208h-161q0 61 -47.5 98.5t-126.5 37.5z" />
    <glyph glyph-name="einvertedbreve" unicode="&#x207;" horiz-adv-x="1106" 
d="M570 -19q-232 0 -362 133.5t-130 374.5v83q0 239 130 375t348 136q223 0 349 -138t126 -372v-100h-677v-36q0 -105 57.5 -173.5t157.5 -68.5q83 0 132.5 37.5t57.5 94.5h263q-4 -47 -21 -93t-52.5 -92.5t-85.5 -81.5t-126 -57t-167 -22zM354 645h406v2q0 101 -54.5 164.5
t-147.5 63.5t-148.5 -64t-55.5 -164v-2zM230 1203q1 130 86.5 222t236.5 92t236 -92t84 -222h-160q0 69 -41 116.5t-119 47.5t-119 -47.5t-41 -116.5h-163z" />
    <glyph glyph-name="Idblgrave" unicode="&#x208;" horiz-adv-x="572" 
d="M431 0h-290v1365h290v-1365zM598 1504h-202l-314 230h236zM220 1504h-203l-313 230h236z" />
    <glyph glyph-name="idblgrave" unicode="&#x209;" horiz-adv-x="570" 
d="M148 0v1064h288v-1064h-288zM50 1226l-273 329h213l229 -329h-169zM394 1226l-274 329h213l229 -329h-168z" />
    <glyph glyph-name="Iinvertedbreve" unicode="&#x20a;" horiz-adv-x="572" 
d="M431 0h-290v1365h290v-1365zM286 1618q-79 0 -126.5 -37.5t-47.5 -98.5h-164q0 127 89 208t249 81t247.5 -81t87.5 -208h-161q0 61 -47.5 98.5t-126.5 37.5z" />
    <glyph glyph-name="iinvertedbreve" unicode="&#x20b;" horiz-adv-x="570" 
d="M148 0v1064h288v-1064h-288zM-33 1203q1 130 86.5 222t236.5 92t236 -92t84 -222h-160q0 69 -41 116.5t-119 47.5t-119 -47.5t-41 -116.5h-163z" />
    <glyph glyph-name="Odblgrave" unicode="&#x20c;" horiz-adv-x="1357" 
d="M990 1504h-202l-314 230h236zM612 1504h-203l-313 230h236zM380 766v-174q0 -185 81 -281.5t217 -96.5t217 96.5t81 281.5v174q0 186 -81.5 286t-216.5 100t-216.5 -100.5t-81.5 -285.5zM86 593v170q0 292 158 460t435 168q278 0 435 -168.5t157 -459.5v-170
q0 -289 -157.5 -454t-436.5 -165q-278 0 -434.5 165t-156.5 454z" />
    <glyph glyph-name="odblgrave" unicode="&#x20d;" horiz-adv-x="1141" 
d="M572 1083q236 0 363.5 -140t127.5 -373v-70q0 -243 -126.5 -381t-364.5 -138q-240 0 -367 137t-127 381v70q0 112 32 205.5t93 162.5t155.5 107.5t213.5 38.5zM571 868q-59 0 -101 -25t-65 -69.5t-33 -95.5t-10 -112v-67q0 -61 10 -111.5t32.5 -95t65 -70t101.5 -25.5
q48 0 85 17t59.5 45.5t37 68.5t20 81.5t5.5 89.5v67q0 62 -10 113t-32 95t-64 69t-101 25zM330 1226l-273 329h213l229 -329h-169zM674 1226l-274 329h213l229 -329h-168z" />
    <glyph glyph-name="Oinvertedbreve" unicode="&#x20e;" horiz-adv-x="1357" 
d="M678 1618q-79 0 -126.5 -37.5t-47.5 -98.5h-164q0 127 89 208t249 81t247.5 -81t87.5 -208h-161q0 61 -47.5 98.5t-126.5 37.5zM380 766v-174q0 -185 81 -281.5t217 -96.5t217 96.5t81 281.5v174q0 186 -81.5 286t-216.5 100t-216.5 -100.5t-81.5 -285.5zM86 593v170
q0 292 158 460t435 168q278 0 435 -168.5t157 -459.5v-170q0 -289 -157.5 -454t-436.5 -165q-278 0 -434.5 165t-156.5 454z" />
    <glyph glyph-name="oinvertedbreve" unicode="&#x20f;" horiz-adv-x="1141" 
d="M572 1083q236 0 363.5 -140t127.5 -373v-70q0 -243 -126.5 -381t-364.5 -138q-240 0 -367 137t-127 381v70q0 112 32 205.5t93 162.5t155.5 107.5t213.5 38.5zM571 868q-59 0 -101 -25t-65 -69.5t-33 -95.5t-10 -112v-67q0 -61 10 -111.5t32.5 -95t65 -70t101.5 -25.5
q48 0 85 17t59.5 45.5t37 68.5t20 81.5t5.5 89.5v67q0 62 -10 113t-32 95t-64 69t-101 25zM247 1203q1 130 86.5 222t236.5 92t236 -92t84 -222h-160q0 69 -41 116.5t-119 47.5t-119 -47.5t-41 -116.5h-163z" />
    <glyph glyph-name="Rdblgrave" unicode="&#x210;" horiz-adv-x="1270" 
d="M927 1504h-202l-314 230h236zM549 1504h-203l-313 230h236zM697 1365q120 0 214 -33.5t152.5 -92.5t89 -137.5t30.5 -172.5q0 -65 -16.5 -122.5t-41.5 -98.5t-59 -75t-66 -54.5t-64 -33.5l274 -545h-322l-237 502h-225v-502h-285v1365h556zM426 714h225q110 0 172 54.5
t62 155.5q0 105 -63.5 162t-166.5 57h-229v-429z" />
    <glyph glyph-name="rdblgrave" unicode="&#x211;" horiz-adv-x="789" 
d="M135 0v1064h282v-147h12q10 29 26.5 54.5t44.5 51.5t73 41t102 15q55 0 87 -8v-242q-33 11 -108 11q-230 0 -230 -242v-598h-289zM190 1226l-273 329h213l229 -329h-169zM534 1226l-274 329h213l229 -329h-168z" />
    <glyph glyph-name="Rinvertedbreve" unicode="&#x212;" horiz-adv-x="1270" 
d="M697 1365q120 0 214 -33.5t152.5 -92.5t89 -137.5t30.5 -172.5q0 -65 -16.5 -122.5t-41.5 -98.5t-59 -75t-66 -54.5t-64 -33.5l274 -545h-322l-237 502h-225v-502h-285v1365h556zM426 714h225q110 0 172 54.5t62 155.5q0 105 -63.5 162t-166.5 57h-229v-429zM615 1618
q-79 0 -126.5 -37.5t-47.5 -98.5h-164q0 127 89 208t249 81t247.5 -81t87.5 -208h-161q0 61 -47.5 98.5t-126.5 37.5z" />
    <glyph glyph-name="rinvertedbreve" unicode="&#x213;" horiz-adv-x="789" 
d="M135 0v1064h282v-147h12q10 29 26.5 54.5t44.5 51.5t73 41t102 15q55 0 87 -8v-242q-33 11 -108 11q-230 0 -230 -242v-598h-289zM107 1203q1 130 86.5 222t236.5 92t236 -92t84 -222h-160q0 69 -41 116.5t-119 47.5t-119 -47.5t-41 -116.5h-163z" />
    <glyph glyph-name="Udblgrave" unicode="&#x214;" horiz-adv-x="1367" 
d="M995 1504h-202l-314 230h236zM617 1504h-203l-313 230h236zM415 1365v-862q0 -136 72.5 -210t196.5 -74q122 0 195.5 74.5t73.5 209.5v862h289v-892q0 -226 -152 -362.5t-406 -136.5t-406 137.5t-152 363.5v890h289z" />
    <glyph glyph-name="udblgrave" unicode="&#x215;" horiz-adv-x="1201" 
d="M1075 1064v-1064h-274v158h-13q-28 -71 -106.5 -122.5t-200.5 -51.5q-166 0 -263.5 97t-97.5 281v702h281v-628q0 -117 55 -166t139 -49q87 0 142.5 56.5t55.5 161.5v625h282zM360 1226l-273 329h213l229 -329h-169zM704 1226l-274 329h213l229 -329h-168z" />
    <glyph glyph-name="Uinvertedbreve" unicode="&#x216;" horiz-adv-x="1367" 
d="M415 1365v-862q0 -136 72.5 -210t196.5 -74q122 0 195.5 74.5t73.5 209.5v862h289v-892q0 -226 -152 -362.5t-406 -136.5t-406 137.5t-152 363.5v890h289zM683 1618q-79 0 -126.5 -37.5t-47.5 -98.5h-164q0 127 89 208t249 81t247.5 -81t87.5 -208h-161q0 61 -47.5 98.5
t-126.5 37.5z" />
    <glyph glyph-name="uinvertedbreve" unicode="&#x217;" horiz-adv-x="1201" 
d="M1075 1064v-1064h-274v158h-13q-28 -71 -106.5 -122.5t-200.5 -51.5q-166 0 -263.5 97t-97.5 281v702h281v-628q0 -117 55 -166t139 -49q87 0 142.5 56.5t55.5 161.5v625h282zM277 1203q1 130 86.5 222t236.5 92t236 -92t84 -222h-160q0 69 -41 116.5t-119 47.5
t-119 -47.5t-41 -116.5h-163z" />
    <glyph glyph-name="Scommaaccent" unicode="&#x218;" horiz-adv-x="1217" 
d="M59 392h278q6 -81 77.5 -136t194.5 -55q118 0 182.5 48.5t64.5 129.5q0 68 -50 106.5t-158 62.5l-205 47q-76 16 -137 44.5t-110.5 73.5t-77 112t-27.5 151q0 130 69.5 226t185.5 143.5t262 47.5q228 0 369.5 -113.5t143.5 -295.5h-270q-6 78 -69 131.5t-175 53.5
q-105 0 -166 -46t-61 -125q0 -119 186 -157l207 -46q81 -17 143 -44.5t115.5 -72t82 -113t28.5 -158.5q0 -201 -146.5 -317t-400.5 -116q-116 0 -209 25t-152.5 66t-99.5 96.5t-57 112.5t-18 118zM598 -489h-189l85 335h218z" />
    <glyph glyph-name="scommaaccent" unicode="&#x219;" horiz-adv-x="1037" 
d="M87 748q0 70 23 126.5t63 95t96 64.5t118.5 37.5t133.5 11.5q190 0 301 -87.5t111 -238.5h-248q-6 56 -46.5 96t-122.5 40q-75 0 -118 -33t-43 -89q0 -17 5.5 -32t17 -26.5t23.5 -20.5t32 -16.5t36 -13t41 -10.5t40.5 -7.5t42 -7t39.5 -6.5q161 -27 247.5 -96t86.5 -205
q0 -163 -122 -256t-340 -93q-205 0 -321.5 88t-116.5 232h273q7 -57 53.5 -92.5t124.5 -35.5q89 0 132.5 34.5t43.5 90.5q0 16 -4 29.5t-14 24.5t-19 19.5t-28 16t-31 12t-38.5 10.5t-39.5 8.5t-44.5 8.5t-44.5 8q-78 16 -134.5 36.5t-106.5 55.5t-76 90.5t-26 130.5z
M521 -489h-189l85 335h218z" />
    <glyph glyph-name="Tcommaaccent" unicode="&#x21a;" horiz-adv-x="1083" 
d="M544 -489h-189l85 335h218zM686 0h-289v1125h-383v240h1055v-240h-383v-1125z" />
    <glyph glyph-name="tcommaaccent" unicode="&#x21b;" horiz-adv-x="757" 
d="M449 -489h-189l85 335h218zM204 1051v264h273v-264h205v-215h-205v-493q0 -75 35 -104.5t116 -29.5q46 0 58 2v-207q-50 -9 -127 -9q-198 0 -279.5 70.5t-81.5 236.5v534h-152v215h158z" />
    <glyph glyph-name="Hcaron" unicode="&#x21e;" horiz-adv-x="1412" 
d="M1271 0h-290v577h-550v-577h-290v1365h290v-550h550v550h290v-1365zM345 1732h218l137 -120h14l133 120h219l-262 -233h-190z" />
    <glyph glyph-name="hcaron" unicode="&#x21f;" horiz-adv-x="1210" 
d="M130 0v1437h281v-531h13q26 68 101 121t195 53q170 0 271 -108t101 -296v-676h-282v609q0 115 -53 174t-142 59q-92 0 -148 -60.5t-56 -173.5v-608h-281zM-51 1881h210l113 -175h10l101 176h216l-220 -309h-200z" />
    <glyph glyph-name="Adotaccent" unicode="&#x226;" horiz-adv-x="1271" 
d="M302 0h-289l452 1365h343l450 -1365h-309l-101 339h-444zM634 1093h-13l-160 -541h331zM510 1605q0 56 36 92.5t91 36.5q56 0 93.5 -37t37.5 -92t-37.5 -90.5t-93.5 -35.5q-55 0 -91 35.5t-36 90.5z" />
    <glyph glyph-name="adotaccent" unicode="&#x227;" horiz-adv-x="1105" 
d="M709 134q-34 -65 -105.5 -107.5t-180.5 -42.5q-157 0 -253.5 87t-96.5 235q0 147 98.5 232t280.5 85h256v103q0 142 -164 142q-78 0 -120 -36t-47 -98h-265q3 71 27.5 130.5t73.5 109t135 78t202 28.5q202 0 319 -87.5t117 -274.5v-718h-265v134h-12zM516 186
q80 0 136 47.5t56 119.5v105h-189q-81 0 -124 -36t-43 -96q0 -67 48 -103.5t116 -36.5zM426 1303q0 56 36 92.5t91 36.5q56 0 93.5 -37t37.5 -92t-37.5 -90.5t-93.5 -35.5q-55 0 -91 35.5t-36 90.5z" />
    <glyph glyph-name="Ecedilla" unicode="&#x228;" horiz-adv-x="1133" 
d="M578 -472q-86 -3 -146 15v126q47 -14 111 -14q109 0 109 60q0 35 -30 47t-99 12h-55v105l46 121h-373v1365h891v-234h-604v-332h568v-218h-568v-347h604v-234h-356l-42 -107q88 0 140 -45t52 -124q0 -97 -66.5 -145.5t-181.5 -50.5z" />
    <glyph glyph-name="ecedilla" unicode="&#x229;" horiz-adv-x="1106" 
d="M354 645h406v2q0 101 -54.5 164.5t-147.5 63.5t-148.5 -64t-55.5 -164v-2zM560 -482q-84 -2 -146 15v126q47 -14 111 -14q109 0 109 60q0 35 -30 47t-98 12h-55v105l44 116q-198 21 -307.5 152.5t-109.5 351.5v83q0 239 130 375t348 136q223 0 349 -138t126 -372v-100
h-677v-36q0 -105 57.5 -173.5t157.5 -68.5q83 0 132.5 37.5t57.5 94.5h263q-5 -53 -27.5 -105.5t-64 -102t-112.5 -85.5t-161 -48l-41 -103q88 0 140 -45t52 -124q0 -97 -66.5 -145.5t-181.5 -50.5z" />
    <glyph glyph-name="Odieresismacron" unicode="&#x22a;" horiz-adv-x="1357" 
d="M400 1581q0 49 30.5 79t81.5 30t81.5 -30t30.5 -79q0 -48 -30.5 -78t-81.5 -30q-50 0 -81 30t-31 78zM758 1581q0 49 30 79t81 30t82 -30t31 -79t-30.5 -78.5t-82.5 -29.5q-51 0 -81 30t-30 78zM380 766v-174q0 -185 81 -281.5t217 -96.5t217 96.5t81 281.5v174
q0 186 -81.5 286t-216.5 100t-216.5 -100.5t-81.5 -285.5zM86 593v170q0 292 158 460t435 168q278 0 435 -168.5t157 -459.5v-170q0 -289 -157.5 -454t-436.5 -165q-278 0 -434.5 165t-156.5 454zM973 1792h-590v140h590v-140z" />
    <glyph glyph-name="odieresismacron" unicode="&#x22b;" horiz-adv-x="1141" 
d="M247 1296q0 54 34 87.5t90 33.5q57 0 91 -33.5t34 -87.5t-34 -87t-91 -33q-55 0 -89.5 33.5t-34.5 86.5zM651 1296q0 54 34 87.5t89 33.5q57 0 91 -33.5t34 -87.5t-34 -87t-91 -33q-55 0 -89 33.5t-34 86.5zM572 1083q236 0 363.5 -140t127.5 -373v-70
q0 -243 -126.5 -381t-364.5 -138q-240 0 -367 137t-127 381v70q0 112 32 205.5t93 162.5t155.5 107.5t213.5 38.5zM571 868q-59 0 -101 -25t-65 -69.5t-33 -95.5t-10 -112v-67q0 -61 10 -111.5t32.5 -95t65 -70t101.5 -25.5q48 0 85 17t59.5 45.5t37 68.5t20 81.5t5.5 89.5
v67q0 62 -10 113t-32 95t-64 69t-101 25zM867 1562h-590v145h590v-145z" />
    <glyph glyph-name="Otildemacron" unicode="&#x22c;" horiz-adv-x="1357" 
d="M380 766v-174q0 -185 81 -281.5t217 -96.5t217 96.5t81 281.5v174q0 186 -81.5 286t-216.5 100t-216.5 -100.5t-81.5 -285.5zM86 593v170q0 292 158 460t435 168q278 0 435 -168.5t157 -459.5v-170q0 -289 -157.5 -454t-436.5 -165q-278 0 -434.5 165t-156.5 454z
M662 1521q-1 1 -16.5 16t-21 19t-18.5 10t-26 6q-62 0 -66 -85h-144q0 87 48.5 152t138.5 65q50 0 83 -15t69 -48q4 -4 19.5 -18t21.5 -18t17.5 -9.5t23.5 -5.5q32 0 47.5 29.5t17.5 69.5h144q0 -92 -54 -157.5t-138 -65.5q-56 0 -86.5 14t-59.5 41zM973 1792h-590v140h590
v-140z" />
    <glyph glyph-name="otildemacron" unicode="&#x22d;" horiz-adv-x="1141" 
d="M537 1238q-15 16 -24 24t-26 16.5t-35 8.5q-69 0 -73 -97h-160q0 118 55 198.5t162 80.5q47 0 83 -18.5t77 -58.5l14.5 -14.5t17 -16t14.5 -10.5t19.5 -10t19.5 -2q35 0 51.5 33.5t18.5 78.5h159q0 -113 -62 -196t-161 -83q-53 0 -86 17.5t-64 48.5zM867 1562h-590v145
h590v-145zM572 1083q236 0 363.5 -140t127.5 -373v-70q0 -243 -126.5 -381t-364.5 -138q-240 0 -367 137t-127 381v70q0 112 32 205.5t93 162.5t155.5 107.5t213.5 38.5zM571 868q-59 0 -101 -25t-65 -69.5t-33 -95.5t-10 -112v-67q0 -61 10 -111.5t32.5 -95t65 -70
t101.5 -25.5q48 0 85 17t59.5 45.5t37 68.5t20 81.5t5.5 89.5v67q0 62 -10 113t-32 95t-64 69t-101 25z" />
    <glyph glyph-name="Odotaccent" unicode="&#x22e;" horiz-adv-x="1357" 
d="M552 1605q0 56 36 92.5t91 36.5q56 0 93.5 -37t37.5 -92t-37.5 -90.5t-93.5 -35.5q-55 0 -91 35.5t-36 90.5zM380 766v-174q0 -185 81 -281.5t217 -96.5t217 96.5t81 281.5v174q0 186 -81.5 286t-216.5 100t-216.5 -100.5t-81.5 -285.5zM86 593v170q0 292 158 460
t435 168q278 0 435 -168.5t157 -459.5v-170q0 -289 -157.5 -454t-436.5 -165q-278 0 -434.5 165t-156.5 454z" />
    <glyph glyph-name="odotaccent" unicode="&#x22f;" horiz-adv-x="1141" 
d="M444 1303q0 56 36 92.5t91 36.5q56 0 93.5 -37t37.5 -92t-37.5 -90.5t-93.5 -35.5q-55 0 -91 35.5t-36 90.5zM572 1083q236 0 363.5 -140t127.5 -373v-70q0 -243 -126.5 -381t-364.5 -138q-240 0 -367 137t-127 381v70q0 112 32 205.5t93 162.5t155.5 107.5t213.5 38.5z
M571 868q-59 0 -101 -25t-65 -69.5t-33 -95.5t-10 -112v-67q0 -61 10 -111.5t32.5 -95t65 -70t101.5 -25.5q48 0 85 17t59.5 45.5t37 68.5t20 81.5t5.5 89.5v67q0 62 -10 113t-32 95t-64 69t-101 25z" />
    <glyph glyph-name="Odotaccentmacron" unicode="&#x230;" horiz-adv-x="1357" 
d="M552 1605q0 56 36 92.5t91 36.5q56 0 93.5 -37t37.5 -92t-37.5 -90.5t-93.5 -35.5q-55 0 -91 35.5t-36 90.5zM380 766v-174q0 -185 81 -281.5t217 -96.5t217 96.5t81 281.5v174q0 186 -81.5 286t-216.5 100t-216.5 -100.5t-81.5 -285.5zM86 593v170q0 292 158 460
t435 168q278 0 435 -168.5t157 -459.5v-170q0 -289 -157.5 -454t-436.5 -165q-278 0 -434.5 165t-156.5 454zM973 1792h-590v140h590v-140z" />
    <glyph glyph-name="odotaccentmacron" unicode="&#x231;" horiz-adv-x="1141" 
d="M444 1303q0 56 36 92.5t91 36.5q56 0 93.5 -37t37.5 -92t-37.5 -90.5t-93.5 -35.5q-55 0 -91 35.5t-36 90.5zM867 1562h-590v145h590v-145zM572 1083q236 0 363.5 -140t127.5 -373v-70q0 -243 -126.5 -381t-364.5 -138q-240 0 -367 137t-127 381v70q0 112 32 205.5
t93 162.5t155.5 107.5t213.5 38.5zM571 868q-59 0 -101 -25t-65 -69.5t-33 -95.5t-10 -112v-67q0 -61 10 -111.5t32.5 -95t65 -70t101.5 -25.5q48 0 85 17t59.5 45.5t37 68.5t20 81.5t5.5 89.5v67q0 62 -10 113t-32 95t-64 69t-101 25z" />
    <glyph glyph-name="Ymacron" unicode="&#x232;" horiz-adv-x="1164" 
d="M727 0h-289v505l-457 860h319l281 -573h10l282 573h311l-457 -853v-512zM877 1505h-590v140h590v-140z" />
    <glyph glyph-name="ymacron" unicode="&#x233;" horiz-adv-x="1099" 
d="M1073 1064q-339 -1015 -343 -1027l-27 -73q-31 -80 -64.5 -136.5t-86 -106t-129 -74t-177.5 -24.5q-96 0 -152 12v200q31 -7 88 -7q94 0 136.5 34t54.5 104l9 34l-363 1064h310l214 -826h12l219 826h299zM846 1226h-590v145h590v-145z" />
    <glyph glyph-name="circumflex" unicode="&#x2c6;" horiz-adv-x="948" 
d="M172 1213l230 308h201l219 -309h-216l-101 176h-9l-113 -175h-211z" />
    <glyph glyph-name="caron" unicode="&#x2c7;" horiz-adv-x="948" 
d="M151 1535h210l113 -175h10l101 176h216l-220 -309h-200z" />
    <glyph glyph-name="breve" unicode="&#x2d8;" horiz-adv-x="948" 
d="M152 1551h163q0 -69 40.5 -116.5t118.5 -47.5t119 47.5t41 116.5h160q0 -130 -84.5 -222t-235.5 -92t-237 92t-85 222z" />
    <glyph glyph-name="dotaccent" unicode="&#x2d9;" horiz-adv-x="948" 
d="M318 1462q0 72 47 116t118 44t118.5 -44.5t47.5 -115.5q0 -72 -47 -115t-119 -43q-70 0 -117.5 43t-47.5 115z" />
    <glyph glyph-name="ring" unicode="&#x2da;" horiz-adv-x="948" 
d="M473 1217q-94 0 -156.5 60t-62.5 152t62.5 151.5t156.5 59.5t156 -59.5t62 -151.5t-62.5 -152t-155.5 -60zM380 1428q0 -40 26 -66.5t66 -26.5t66.5 26.5t26.5 66.5t-26.5 66.5t-66.5 26.5t-66 -26.5t-26 -66.5z" />
    <glyph glyph-name="ogonek" unicode="&#x2db;" horiz-adv-x="948" 
d="M677 -210v-156q-62 -24 -152 -24q-110 0 -173 53t-63 144q0 46 16.5 90.5t47 84t57 66.5t64.5 60h160q-151 -130 -151 -233q0 -47 32 -71.5t81 -24.5q40 0 81 11z" />
    <glyph glyph-name="tilde" unicode="&#x2dc;" horiz-adv-x="948" 
d="M416 1290q-15 16 -24 24t-26 16.5t-35 8.5q-69 0 -73 -97h-160q0 118 55 198.5t162 80.5q47 0 83 -18.5t77 -58.5l14.5 -14.5t17 -16t14.5 -10.5t19.5 -10t19.5 -2q35 0 51.5 33.5t18.5 78.5h159q0 -113 -62 -196t-161 -83q-52 0 -85.5 17.5t-64.5 48.5z" />
    <glyph glyph-name="hungarumlaut" unicode="&#x2dd;" horiz-adv-x="948" 
d="M248 1229h-168l229 329h213zM592 1229h-169l229 329h213z" />
    <glyph glyph-name="gravecmb" unicode="&#x300;" 
d="M166 1230h-236l-263 290h283z" />
    <glyph glyph-name="acutecmb" unicode="&#x301;" 
d="M111 1226h-236l207 294h283z" />
    <glyph glyph-name="circumflexcmb" unicode="&#x302;" 
d="M-335 1226l230 308h201l219 -309h-216l-101 176h-9l-113 -175h-211z" />
    <glyph glyph-name="tildecmb" unicode="&#x303;" 
d="M-33 1238q-15 16 -24 24t-26 16.5t-35 8.5q-69 0 -73 -97h-160q0 118 55 198.5t162 80.5q47 0 83 -18.5t77 -58.5l14.5 -14.5t17 -16t14.5 -10.5t19.5 -10t19.5 -2q35 0 51.5 33.5t18.5 78.5h159q0 -113 -62 -196t-161 -83q-53 0 -86 17.5t-64 48.5z" />
    <glyph glyph-name="macroncmb" unicode="&#x304;" 
d="M297 1226h-590v145h590v-145z" />
    <glyph glyph-name="brevecmb" unicode="&#x306;" 
d="M-331 1482h163q0 -69 40.5 -116.5t118.5 -47.5t119 47.5t41 116.5h160q0 -130 -84.5 -222t-235.5 -92t-237 92t-85 222z" />
    <glyph glyph-name="dotaccentcmb" unicode="&#x307;" 
d="M-126 1303q0 56 36 92.5t91 36.5q56 0 93.5 -37t37.5 -92t-37.5 -90.5t-93.5 -35.5q-55 0 -91 35.5t-36 90.5z" />
    <glyph glyph-name="dieresiscmb" unicode="&#x308;" 
d="M-323 1296q0 54 34 87.5t90 33.5q57 0 91 -33.5t34 -87.5t-34 -87t-91 -33q-55 0 -89.5 33.5t-34.5 86.5zM81 1296q0 54 34 87.5t89 33.5q57 0 91 -33.5t34 -87.5t-34 -87t-91 -33q-55 0 -89 33.5t-34 86.5z" />
    <glyph glyph-name="hookabovecmb" unicode="&#x309;" 
d="M-144 1433v123q43 18 112 18q106 0 166.5 -50t60.5 -137q0 -77 -42.5 -124t-122.5 -88l-78 96q49 27 69.5 50t20.5 51q0 33 -26.5 54t-71.5 21q-51 0 -88 -14z" />
    <glyph glyph-name="ringcmb" unicode="&#x30a;" 
d="M-3 1183q-94 0 -156.5 60t-62.5 152t62.5 151.5t156.5 59.5t156 -59.5t62 -151.5t-62.5 -152t-155.5 -60zM-96 1394q0 -40 26 -66.5t66 -26.5t66.5 26.5t26.5 66.5t-26.5 66.5t-66.5 26.5t-66 -26.5t-26 -66.5z" />
    <glyph glyph-name="hungarumlautcmb" unicode="&#x30b;" 
d="M-120 1226h-168l229 329h213zM224 1226h-169l229 329h213z" />
    <glyph glyph-name="caroncmb" unicode="&#x30c;" 
d="M-321 1507h210l113 -175h10l101 176h216l-220 -309h-200z" />
    <glyph glyph-name="dblgravecmb" unicode="&#x30f;" 
d="M-240 1226l-273 329h213l229 -329h-169zM104 1226l-274 329h213l229 -329h-168z" />
    <glyph glyph-name="invertedbrevecmb" unicode="&#x311;" 
d="M-323 1203q1 130 86.5 222t236.5 92t236 -92t84 -222h-160q0 69 -41 116.5t-119 47.5t-119 -47.5t-41 -116.5h-163z" />
    <glyph glyph-name="horncmb" unicode="&#x31b;" 
d="M-243 888v207q31 -23 72 -21q50 3 70 34.5t20 88.5v157h224v-189q0 -61 -14.5 -114t-43.5 -95.5t-79 -67t-115 -24.5q-96 0 -134 24z" />
    <glyph glyph-name="dotbelowcmb" unicode="&#x323;" 
d="M-132 -262q0 59 39 98t94 39q59 0 98.5 -39t39.5 -98q0 -56 -39.5 -94t-98.5 -38q-55 0 -94 38t-39 94z" />
    <glyph glyph-name="dieresisbelowcmb" unicode="&#x324;" 
d="M-325 -308q0 54 34 87.5t90 33.5q57 0 91 -33.5t34 -87.5t-34 -87t-91 -33q-55 0 -89.5 33.5t-34.5 86.5zM79 -308q0 54 34 87.5t89 33.5q57 0 91 -33.5t34 -87.5t-34 -87t-91 -33q-55 0 -89 33.5t-34 86.5z" />
    <glyph glyph-name="ringbelowcmb" unicode="&#x325;" 
d="M1 -507q-94 0 -156.5 60t-62.5 152t62.5 151.5t156.5 59.5t156 -59.5t62 -151.5t-62.5 -152t-155.5 -60zM-92 -296q0 -40 26 -66.5t66 -26.5t66.5 26.5t26.5 66.5t-26.5 66.5t-66.5 26.5t-66 -26.5t-26 -66.5z" />
    <glyph glyph-name="commabelowcmb" unicode="&#x326;" 
d="M3 -489h-189l85 335h218z" />
    <glyph glyph-name="cedillacmb" unicode="&#x327;" 
d="M-124 -236v105l52 136h161l-47 -122q88 0 140 -45t52 -124q0 -97 -66.5 -145.5t-181.5 -50.5q-86 -3 -146 15v126q47 -14 111 -14q109 0 109 60q0 35 -30 47t-99 12h-55z" />
    <glyph glyph-name="ogonekcmb" unicode="&#x328;" 
d="M170 -210v-156q-62 -24 -152 -24q-110 0 -173 53t-63 144q0 46 16.5 90.5t47 84t57 66.5t64.5 60h160q-151 -130 -151 -233q0 -47 32 -71.5t81 -24.5q40 0 81 11z" />
    <glyph glyph-name="circumflexbelowcmb" unicode="&#x32d;" 
d="M-329 -400l230 287h201l219 -288h-216l-101 161h-10l-113 -160h-210z" />
    <glyph glyph-name="brevebelowcmb" unicode="&#x32e;" 
d="M-332 -127h168q0 -69 42 -116.5t122 -47.5t122 47.5t42 116.5h161q0 -131 -85 -222t-240 -91q-156 0 -244 90.5t-88 222.5z" />
    <glyph glyph-name="tildebelowcmb" unicode="&#x330;" 
d="M-21 -308l-14 14t-16 15t-14.5 11t-19 10t-19.5 3q-63 0 -67 -89h-146q0 90 49.5 158t140.5 68q50 0 84 -16t71 -50q4 -4 16 -15.5t17 -15.5t14 -10.5t17.5 -9t18.5 -2.5q33 0 48.5 30.5t17.5 72.5h146q0 -95 -55 -163.5t-140 -68.5q-40 0 -69.5 9t-44.5 19.5t-35 29.5z
" />
    <glyph glyph-name="macronbelowcmb" unicode="&#x331;" 
d="M298 -326h-590v145h590v-145z" />
    <glyph glyph-name="Delta" unicode="&#x394;" horiz-adv-x="1272" 
d="M13 0l452 1365h344l450 -1365h-1246zM621 1093l-251 -841h513l-248 841h-14z" />
    <glyph glyph-name="Omega" unicode="&#x3a9;" horiz-adv-x="1375" 
d="M778 0v292q91 29 149.5 133t58.5 251v125q0 179 -80 265t-218 86t-218 -86t-80 -265v-125q0 -144 55.5 -246.5t141.5 -133.5v-295h-522v241h238v20q-92 46 -149.5 164t-57.5 257v125q0 286 155 434.5t437 148.5q283 0 437.5 -148.5t154.5 -434.5v-125
q0 -138 -60.5 -257.5t-152.5 -163.5v-22h244v-240h-533z" />
    <glyph glyph-name="mu" unicode="&#x3bc;" horiz-adv-x="1249" 
d="M367 43h-12l10 -380h-245v1401h281v-646q0 -109 52 -155t131 -46q88 0 148.5 59t60.5 154v634h282v-762q0 -56 23.5 -82t77.5 -26q23 0 51 4v-200q-66 -16 -150 -16q-100 0 -168.5 46t-73.5 140l-1 15h-14q-16 -76 -92.5 -137t-192.5 -61q-54 0 -101 16.5t-67 41.5z" />
    <glyph glyph-name="pi" unicode="&#x3c0;" horiz-adv-x="1367" 
d="M1274 0q-74 -16 -166 -16q-130 0 -198 64.5t-68 171.5v629h-300v-849h-282v849h-217v215h1278v-215h-198v-548q0 -44 22 -69t64 -25q41 0 65 6v-213z" />
    <glyph glyph-name="Aringbelow" unicode="&#x1e00;" horiz-adv-x="1272" 
d="M302 0h-289l452 1365h343l450 -1365h-309l-101 339h-444zM634 1093h-13l-160 -541h331zM625 -493q-94 0 -156.5 60t-62.5 152t62.5 151.5t156.5 59.5t156 -59.5t62 -151.5t-62.5 -152t-155.5 -60zM532 -282q0 -40 26 -66.5t66 -26.5t66.5 26.5t26.5 66.5t-26.5 66.5
t-66.5 26.5t-66 -26.5t-26 -66.5z" />
    <glyph glyph-name="aringbelow" unicode="&#x1e01;" horiz-adv-x="1105" 
d="M709 134q-34 -65 -105.5 -107.5t-180.5 -42.5q-157 0 -253.5 87t-96.5 235q0 147 98.5 232t280.5 85h256v103q0 142 -164 142q-78 0 -120 -36t-47 -98h-265q3 71 27.5 130.5t73.5 109t135 78t202 28.5q202 0 319 -87.5t117 -274.5v-718h-265v134h-12zM516 186
q80 0 136 47.5t56 119.5v105h-189q-81 0 -124 -36t-43 -96q0 -67 48 -103.5t116 -36.5zM553 -507q-94 0 -156.5 60t-62.5 152t62.5 151.5t156.5 59.5t156 -59.5t62 -151.5t-62.5 -152t-155.5 -60zM460 -296q0 -40 26 -66.5t66 -26.5t66.5 26.5t26.5 66.5t-26.5 66.5
t-66.5 26.5t-66 -26.5t-26 -66.5z" />
    <glyph glyph-name="Bdotaccent" unicode="&#x1e02;" horiz-adv-x="1266" 
d="M141 0v1365h581q185 0 297 -89t112 -246q0 -124 -66.5 -199.5t-170.5 -99.5v-13q131 -12 218 -99t87 -233q0 -182 -134 -284t-341 -102h-583zM428 1153v-351h172q247 0 247 178q0 83 -53 128t-141 45h-225zM428 606v-393h193q284 0 284 193q0 96 -62 148t-174 52h-241z
M484 1605q0 56 36 92.5t91 36.5q56 0 93.5 -37t37.5 -92t-37.5 -90.5t-93.5 -35.5q-55 0 -91 35.5t-36 90.5z" />
    <glyph glyph-name="bdotaccent" unicode="&#x1e03;" horiz-adv-x="1205" 
d="M141 1677q0 56 36 92.5t91 36.5q56 0 93.5 -37t37.5 -92t-37.5 -90.5t-93.5 -35.5q-55 0 -91 35.5t-36 90.5zM724 -13q-115 0 -195 49t-110 129h-12v-165h-278v1437h282v-530h12q34 76 109 123t195 47q189 0 293.5 -130t104.5 -363v-102q0 -237 -106.5 -366t-294.5 -129z
M625 209q96 0 153 73t57 209v78q0 138 -56 212t-154 74q-97 0 -155.5 -76t-58.5 -203v-91q0 -122 56 -199t158 -77z" />
    <glyph glyph-name="Bdotbelow" unicode="&#x1e04;" horiz-adv-x="1266" 
d="M478 -262q0 59 39 98t94 39q59 0 98.5 -39t39.5 -98q0 -56 -39.5 -94t-98.5 -38q-55 0 -94 38t-39 94zM141 0v1365h581q185 0 297 -89t112 -246q0 -124 -66.5 -199.5t-170.5 -99.5v-13q131 -12 218 -99t87 -233q0 -182 -134 -284t-341 -102h-583zM428 1153v-351h172
q247 0 247 178q0 83 -53 128t-141 45h-225zM428 606v-393h193q284 0 284 193q0 96 -62 148t-174 52h-241z" />
    <glyph glyph-name="bdotbelow" unicode="&#x1e05;" horiz-adv-x="1205" 
d="M470 -262q0 59 39 98t94 39q59 0 98.5 -39t39.5 -98q0 -56 -39.5 -94t-98.5 -38q-55 0 -94 38t-39 94zM724 -13q-115 0 -195 49t-110 129h-12v-165h-278v1437h282v-530h12q34 76 109 123t195 47q189 0 293.5 -130t104.5 -363v-102q0 -237 -106.5 -366t-294.5 -129z
M625 209q96 0 153 73t57 209v78q0 138 -56 212t-154 74q-97 0 -155.5 -76t-58.5 -203v-91q0 -122 56 -199t158 -77z" />
    <glyph glyph-name="Blinebelow" unicode="&#x1e06;" horiz-adv-x="1266" 
d="M141 0v1365h581q185 0 297 -89t112 -246q0 -124 -66.5 -199.5t-170.5 -99.5v-13q131 -12 218 -99t87 -233q0 -182 -134 -284t-341 -102h-583zM428 1153v-351h172q247 0 247 178q0 83 -53 128t-141 45h-225zM428 606v-393h193q284 0 284 193q0 96 -62 148t-174 52h-241z
M908 -326h-590v145h590v-145z" />
    <glyph glyph-name="blinebelow" unicode="&#x1e07;" horiz-adv-x="1205" 
d="M900 -326h-590v145h590v-145zM724 -13q-115 0 -195 49t-110 129h-12v-165h-278v1437h282v-530h12q34 76 109 123t195 47q189 0 293.5 -130t104.5 -363v-102q0 -237 -106.5 -366t-294.5 -129zM625 209q96 0 153 73t57 209v78q0 138 -56 212t-154 74q-97 0 -155.5 -76
t-58.5 -203v-91q0 -122 56 -199t158 -77z" />
    <glyph glyph-name="Ccedillaacute" unicode="&#x1e08;" horiz-adv-x="1286" 
d="M491 1504l271 222h290l-316 -222h-245zM649 -482q-84 -2 -146 15v126q47 -14 111 -14q109 0 109 60q0 35 -30 47t-98 12h-55v105l41 109q-236 25 -365.5 188t-129.5 438v154q0 299 153 466t425 167q124 0 227 -38.5t171.5 -104.5t106.5 -154t38 -187v-29h-278
q0 112 -70 191t-193 79q-133 0 -209.5 -99.5t-76.5 -291.5v-154q0 -192 76 -289t212 -97q124 0 192.5 73.5t68.5 184.5h278v-30q0 -178 -124 -311t-340 -155l-38 -96q88 0 140 -45t52 -124q0 -97 -66.5 -145.5t-181.5 -50.5z" />
    <glyph glyph-name="ccedillaacute" unicode="&#x1e09;" horiz-adv-x="1073" 
d="M647 1226h-236l207 294h283zM539 -472q-92 -1 -146 16v125q44 -13 111 -13q109 0 109 60q0 35 -28 47t-95 12h-55v104l44 107q-189 22 -295 155t-106 348v94q0 223 128 361.5t352 138.5q204 0 323.5 -109.5t121.5 -274.5h-258q-6 65 -54 114.5t-125 49.5
q-99 0 -152 -78.5t-53 -204.5v-89q0 -131 54.5 -208.5t150.5 -77.5q85 0 129 42t54 108h258q-3 -152 -102 -250.5t-264 -118.5l-41 -93q88 0 137.5 -44.5t49.5 -123.5q0 -98 -66.5 -146.5t-181.5 -50.5z" />
    <glyph glyph-name="Ddotaccent" unicode="&#x1e0a;" horiz-adv-x="1336" 
d="M484 1605q0 56 36 92.5t91 36.5q56 0 93.5 -37t37.5 -92t-37.5 -90.5t-93.5 -35.5q-55 0 -91 35.5t-36 90.5zM141 1365h511q162 0 281 -48.5t191 -140t106 -213t34 -276.5q0 -123 -21 -225.5t-67.5 -189t-117 -146.5t-173.5 -93t-233 -33h-511v1365zM431 1132v-898h179
q176 0 266.5 103t90.5 344q0 101 -17.5 179t-57 141t-111 97t-171.5 34h-179z" />
    <glyph glyph-name="ddotaccent" unicode="&#x1e0b;" horiz-adv-x="1206" 
d="M811 1677q0 56 36 92.5t91 36.5q56 0 93.5 -37t37.5 -92t-37.5 -90.5t-93.5 -35.5q-55 0 -91 35.5t-36 90.5zM480 1077q116 0 195.5 -47t107.5 -123h11v530h282v-1437h-278v165h-11q-24 -77 -106.5 -127.5t-200.5 -50.5q-189 0 -294.5 131t-105.5 360v109q0 228 105 359
t295 131zM579 854q-101 0 -155.5 -76.5t-54.5 -211.5v-68q0 -136 55.5 -212.5t157.5 -76.5q99 0 155.5 75t56.5 213v73q0 134 -57.5 209t-157.5 75z" />
    <glyph glyph-name="Ddotbelow" unicode="&#x1e0c;" horiz-adv-x="1336" 
d="M478 -262q0 59 39 98t94 39q59 0 98.5 -39t39.5 -98q0 -56 -39.5 -94t-98.5 -38q-55 0 -94 38t-39 94zM141 1365h511q162 0 281 -48.5t191 -140t106 -213t34 -276.5q0 -123 -21 -225.5t-67.5 -189t-117 -146.5t-173.5 -93t-233 -33h-511v1365zM431 1132v-898h179
q176 0 266.5 103t90.5 344q0 101 -17.5 179t-57 141t-111 97t-171.5 34h-179z" />
    <glyph glyph-name="ddotbelow" unicode="&#x1e0d;" horiz-adv-x="1206" 
d="M470 -262q0 59 39 98t94 39q59 0 98.5 -39t39.5 -98q0 -56 -39.5 -94t-98.5 -38q-55 0 -94 38t-39 94zM480 1077q116 0 195.5 -47t107.5 -123h11v530h282v-1437h-278v165h-11q-24 -77 -106.5 -127.5t-200.5 -50.5q-189 0 -294.5 131t-105.5 360v109q0 228 105 359
t295 131zM579 854q-101 0 -155.5 -76.5t-54.5 -211.5v-68q0 -136 55.5 -212.5t157.5 -76.5q99 0 155.5 75t56.5 213v73q0 134 -57.5 209t-157.5 75z" />
    <glyph glyph-name="Dlinebelow" unicode="&#x1e0e;" horiz-adv-x="1336" 
d="M908 -326h-590v145h590v-145zM141 1365h511q162 0 281 -48.5t191 -140t106 -213t34 -276.5q0 -123 -21 -225.5t-67.5 -189t-117 -146.5t-173.5 -93t-233 -33h-511v1365zM431 1132v-898h179q176 0 266.5 103t90.5 344q0 101 -17.5 179t-57 141t-111 97t-171.5 34h-179z
" />
    <glyph glyph-name="dlinebelow" unicode="&#x1e0f;" horiz-adv-x="1206" 
d="M900 -326h-590v145h590v-145zM480 1077q116 0 195.5 -47t107.5 -123h11v530h282v-1437h-278v165h-11q-24 -77 -106.5 -127.5t-200.5 -50.5q-189 0 -294.5 131t-105.5 360v109q0 228 105 359t295 131zM579 854q-101 0 -155.5 -76.5t-54.5 -211.5v-68q0 -136 55.5 -212.5
t157.5 -76.5q99 0 155.5 75t56.5 213v73q0 134 -57.5 209t-157.5 75z" />
    <glyph glyph-name="Dcommaaccent" unicode="&#x1e10;" horiz-adv-x="1336" 
d="M613 -489h-189l85 335h218zM141 1365h511q162 0 281 -48.5t191 -140t106 -213t34 -276.5q0 -123 -21 -225.5t-67.5 -189t-117 -146.5t-173.5 -93t-233 -33h-511v1365zM431 1132v-898h179q176 0 266.5 103t90.5 344q0 101 -17.5 179t-57 141t-111 97t-171.5 34h-179z" />
    <glyph glyph-name="dcommaaccent" unicode="&#x1e11;" horiz-adv-x="1206" 
d="M605 -489h-189l85 335h218zM480 1077q116 0 195.5 -47t107.5 -123h11v530h282v-1437h-278v165h-11q-24 -77 -106.5 -127.5t-200.5 -50.5q-189 0 -294.5 131t-105.5 360v109q0 228 105 359t295 131zM579 854q-101 0 -155.5 -76.5t-54.5 -211.5v-68q0 -136 55.5 -212.5
t157.5 -76.5q99 0 155.5 75t56.5 213v73q0 134 -57.5 209t-157.5 75z" />
    <glyph glyph-name="Dcircumflexbelow" unicode="&#x1e12;" horiz-adv-x="1336" 
d="M141 1365h511q162 0 281 -48.5t191 -140t106 -213t34 -276.5q0 -123 -21 -225.5t-67.5 -189t-117 -146.5t-173.5 -93t-233 -33h-511v1365zM431 1132v-898h179q176 0 266.5 103t90.5 344q0 101 -17.5 179t-57 141t-111 97t-171.5 34h-179zM281 -400l230 287h201l219 -288
h-216l-101 161h-10l-113 -160h-210z" />
    <glyph glyph-name="dcircumflexbelow" unicode="&#x1e13;" horiz-adv-x="1206" 
d="M480 1077q116 0 195.5 -47t107.5 -123h11v530h282v-1437h-278v165h-11q-24 -77 -106.5 -127.5t-200.5 -50.5q-189 0 -294.5 131t-105.5 360v109q0 228 105 359t295 131zM579 854q-101 0 -155.5 -76.5t-54.5 -211.5v-68q0 -136 55.5 -212.5t157.5 -76.5q99 0 155.5 75
t56.5 213v73q0 134 -57.5 209t-157.5 75zM273 -400l230 287h201l219 -288h-216l-101 161h-10l-113 -160h-210z" />
    <glyph glyph-name="Emacrongrave" unicode="&#x1e14;" horiz-adv-x="1133" 
d="M719 1746h-234l-305 214h278zM1032 234v-234h-891v1365h891v-234h-604v-332h568v-218h-568v-347h604zM872 1505h-590v140h590v-140z" />
    <glyph glyph-name="emacrongrave" unicode="&#x1e15;" horiz-adv-x="1106" 
d="M719 1514h-236l-263 290h283zM570 -19q-232 0 -362 133.5t-130 374.5v83q0 239 130 375t348 136q223 0 349 -138t126 -372v-100h-677v-36q0 -105 57.5 -173.5t157.5 -68.5q83 0 132.5 37.5t57.5 94.5h263q-4 -47 -21 -93t-52.5 -92.5t-85.5 -81.5t-126 -57t-167 -22z
M354 645h406v2q0 101 -54.5 164.5t-147.5 63.5t-148.5 -64t-55.5 -164v-2zM850 1226h-590v145h590v-145z" />
    <glyph glyph-name="Emacronacute" unicode="&#x1e16;" horiz-adv-x="1133" 
d="M415 1746l271 222h290l-316 -222h-245zM1032 234v-234h-891v1365h891v-234h-604v-332h568v-218h-568v-347h604zM872 1505h-590v140h590v-140z" />
    <glyph glyph-name="emacronacute" unicode="&#x1e17;" horiz-adv-x="1106" 
d="M664 1515h-236l207 294h283zM570 -19q-232 0 -362 133.5t-130 374.5v83q0 239 130 375t348 136q223 0 349 -138t126 -372v-100h-677v-36q0 -105 57.5 -173.5t157.5 -68.5q83 0 132.5 37.5t57.5 94.5h263q-4 -47 -21 -93t-52.5 -92.5t-85.5 -81.5t-126 -57t-167 -22z
M354 645h406v2q0 101 -54.5 164.5t-147.5 63.5t-148.5 -64t-55.5 -164v-2zM850 1226h-590v145h590v-145z" />
    <glyph glyph-name="Ecircumflexbelow" unicode="&#x1e18;" horiz-adv-x="1133" 
d="M1032 234v-234h-891v1365h891v-234h-604v-332h568v-218h-568v-347h604zM248 -400l230 287h201l219 -288h-216l-101 161h-10l-113 -160h-210z" />
    <glyph glyph-name="ecircumflexbelow" unicode="&#x1e19;" horiz-adv-x="1106" 
d="M570 -19q-232 0 -362 133.5t-130 374.5v83q0 239 130 375t348 136q223 0 349 -138t126 -372v-100h-677v-36q0 -105 57.5 -173.5t157.5 -68.5q83 0 132.5 37.5t57.5 94.5h263q-4 -47 -21 -93t-52.5 -92.5t-85.5 -81.5t-126 -57t-167 -22zM354 645h406v2q0 101 -54.5 164.5
t-147.5 63.5t-148.5 -64t-55.5 -164v-2zM224 -400l230 287h201l219 -288h-216l-101 161h-10l-113 -160h-210z" />
    <glyph glyph-name="Etildebelow" unicode="&#x1e1a;" horiz-adv-x="1133" 
d="M556 -308l-14 14t-16 15t-14.5 11t-19 10t-19.5 3q-63 0 -67 -89h-146q0 90 49.5 158t140.5 68q50 0 84 -16t71 -50q4 -4 16 -15.5t17 -15.5t14 -10.5t17.5 -9t18.5 -2.5q33 0 48.5 30.5t17.5 72.5h146q0 -95 -55 -163.5t-140 -68.5q-40 0 -69.5 9t-44.5 19.5t-35 29.5z
M1032 234v-234h-891v1365h891v-234h-604v-332h568v-218h-568v-347h604z" />
    <glyph glyph-name="etildebelow" unicode="&#x1e1b;" horiz-adv-x="1106" 
d="M532 -308l-14 14t-16 15t-14.5 11t-19 10t-19.5 3q-63 0 -67 -89h-146q0 90 49.5 158t140.5 68q50 0 84 -16t71 -50q4 -4 16 -15.5t17 -15.5t14 -10.5t17.5 -9t18.5 -2.5q33 0 48.5 30.5t17.5 72.5h146q0 -95 -55 -163.5t-140 -68.5q-40 0 -69.5 9t-44.5 19.5t-35 29.5z
M570 -19q-232 0 -362 133.5t-130 374.5v83q0 239 130 375t348 136q223 0 349 -138t126 -372v-100h-677v-36q0 -105 57.5 -173.5t157.5 -68.5q83 0 132.5 37.5t57.5 94.5h263q-4 -47 -21 -93t-52.5 -92.5t-85.5 -81.5t-126 -57t-167 -22zM354 645h406v2q0 101 -54.5 164.5
t-147.5 63.5t-148.5 -64t-55.5 -164v-2z" />
    <glyph glyph-name="Ecedillabreve" unicode="&#x1e1c;" horiz-adv-x="1133" 
d="M578 -472q-86 -3 -146 15v126q47 -14 111 -14q109 0 109 60q0 35 -30 47t-99 12h-55v105l46 121h-373v1365h891v-234h-604v-332h568v-218h-568v-347h604v-234h-356l-42 -107q88 0 140 -45t52 -124q0 -97 -66.5 -145.5t-181.5 -50.5zM239 1766h164q0 -62 46 -100.5
t128 -38.5t128 38.5t46 100.5h161q0 -128 -86.5 -209.5t-248.5 -81.5q-163 0 -250.5 81t-87.5 210z" />
    <glyph glyph-name="ecedillabreve" unicode="&#x1e1d;" horiz-adv-x="1106" 
d="M222 1482h163q0 -69 40.5 -116.5t118.5 -47.5t119 47.5t41 116.5h160q0 -130 -84.5 -222t-235.5 -92t-237 92t-85 222zM354 645h406v2q0 101 -54.5 164.5t-147.5 63.5t-148.5 -64t-55.5 -164v-2zM560 -482q-84 -2 -146 15v126q47 -14 111 -14q109 0 109 60q0 35 -30 47
t-98 12h-55v105l44 116q-198 21 -307.5 152.5t-109.5 351.5v83q0 239 130 375t348 136q223 0 349 -138t126 -372v-100h-677v-36q0 -105 57.5 -173.5t157.5 -68.5q83 0 132.5 37.5t57.5 94.5h263q-5 -53 -27.5 -105.5t-64 -102t-112.5 -85.5t-161 -48l-41 -103q88 0 140 -45
t52 -124q0 -97 -66.5 -145.5t-181.5 -50.5z" />
    <glyph glyph-name="Fdotaccent" unicode="&#x1e1e;" horiz-adv-x="1077" 
d="M441 1605q0 56 36 92.5t91 36.5q56 0 93.5 -37t37.5 -92t-37.5 -90.5t-93.5 -35.5q-55 0 -91 35.5t-36 90.5zM431 0h-290v1365h883v-236h-593v-364h541v-231h-541v-534z" />
    <glyph glyph-name="fdotaccent" unicode="&#x1e1f;" horiz-adv-x="759" 
d="M273 1695q0 56 36 92.5t91 36.5q56 0 93.5 -37t37.5 -92t-37.5 -90.5t-93.5 -35.5q-55 0 -91 35.5t-36 90.5zM210 0v836h-158v215h158v106q0 160 87 230.5t278 70.5q55 0 121 -7v-197q-21 3 -65 3q-76 0 -111.5 -28t-35.5 -96v-82h203v-215h-197v-836h-280z" />
    <glyph glyph-name="Gmacron" unicode="&#x1e20;" horiz-adv-x="1311" 
d="M1223 924h-282q-13 106 -85.5 166t-182.5 60q-135 0 -215 -95.5t-80 -284.5v-167q0 -179 72.5 -283.5t225.5 -104.5q124 0 199 68t75 168v77h-267v212h542v-270q0 -69 -17.5 -136t-59.5 -133t-104 -116t-158 -80.5t-214 -30.5q-149 0 -262.5 47t-183.5 132.5t-105 198.5
t-35 250v170q0 284 157.5 451.5t433.5 167.5q130 0 235 -39.5t170.5 -105.5t101.5 -148.5t39 -173.5zM960 1505h-590v140h590v-140z" />
    <glyph glyph-name="gmacron" unicode="&#x1e21;" horiz-adv-x="1182" 
d="M888 1226h-590v145h590v-145zM565 -189q110 0 165.5 57t55.5 164v150h-12q-30 -73 -110 -120t-190 -47q-179 0 -289 128t-110 355v93q0 227 110 356.5t291 129.5q118 0 193.5 -47t107.5 -123h12v157h277v-1050q0 -89 -28 -159.5t-76 -116.5t-114 -76t-138 -43t-153 -13
q-115 0 -204.5 27t-143.5 73.5t-82 103t-30 121.5h271q10 -54 61 -87t136 -33zM579 855q-99 0 -157.5 -74t-58.5 -205v-80q0 -130 59.5 -201.5t157.5 -71.5q95 0 150 73.5t55 193.5v86q0 126 -55.5 202.5t-150.5 76.5z" />
    <glyph glyph-name="Hdotaccent" unicode="&#x1e22;" horiz-adv-x="1412" 
d="M1271 0h-290v577h-550v-577h-290v1365h290v-550h550v550h290v-1365zM579 1605q0 56 36 92.5t91 36.5q56 0 93.5 -37t37.5 -92t-37.5 -90.5t-93.5 -35.5q-55 0 -91 35.5t-36 90.5z" />
    <glyph glyph-name="hdotaccent" unicode="&#x1e23;" horiz-adv-x="1210" 
d="M130 0v1437h281v-531h13q26 68 101 121t195 53q170 0 271 -108t101 -296v-676h-282v609q0 115 -53 174t-142 59q-92 0 -148 -60.5t-56 -173.5v-608h-281zM144 1677q0 56 36 92.5t91 36.5q56 0 93.5 -37t37.5 -92t-37.5 -90.5t-93.5 -35.5q-55 0 -91 35.5t-36 90.5z" />
    <glyph glyph-name="Hdotbelow" unicode="&#x1e24;" horiz-adv-x="1412" 
d="M1271 0h-290v577h-550v-577h-290v1365h290v-550h550v550h290v-1365zM573 -262q0 59 39 98t94 39q59 0 98.5 -39t39.5 -98q0 -56 -39.5 -94t-98.5 -38q-55 0 -94 38t-39 94z" />
    <glyph glyph-name="hdotbelow" unicode="&#x1e25;" horiz-adv-x="1210" 
d="M130 0v1437h281v-531h13q26 68 101 121t195 53q170 0 271 -108t101 -296v-676h-282v609q0 115 -53 174t-142 59q-92 0 -148 -60.5t-56 -173.5v-608h-281zM469 -262q0 59 39 98t94 39q59 0 98.5 -39t39.5 -98q0 -56 -39.5 -94t-98.5 -38q-55 0 -94 38t-39 94z" />
    <glyph glyph-name="Hdieresis" unicode="&#x1e26;" horiz-adv-x="1412" 
d="M1271 0h-290v577h-550v-577h-290v1365h290v-550h550v550h290v-1365zM428 1581q0 49 30.5 79t81.5 30t81.5 -30t30.5 -79q0 -48 -30.5 -78t-81.5 -30q-50 0 -81 30t-31 78zM786 1581q0 49 30 79t81 30t82 -30t31 -79t-30.5 -78.5t-82.5 -29.5q-51 0 -81 30t-30 78z" />
    <glyph glyph-name="hdieresis" unicode="&#x1e27;" horiz-adv-x="1210" 
d="M130 0v1437h281v-531h13q26 68 101 121t195 53q170 0 271 -108t101 -296v-676h-282v609q0 115 -53 174t-142 59q-92 0 -148 -60.5t-56 -173.5v-608h-281zM-53 1670q0 54 34 87.5t90 33.5q57 0 91 -33.5t34 -87.5t-34 -87t-91 -33q-55 0 -89.5 33.5t-34.5 86.5zM351 1670
q0 54 34 87.5t89 33.5q57 0 91 -33.5t34 -87.5t-34 -87t-91 -33q-55 0 -89 33.5t-34 86.5z" />
    <glyph glyph-name="Hcedilla" unicode="&#x1e28;" horiz-adv-x="1412" 
d="M334 -472q-86 -3 -146 15v126q47 -14 111 -14q109 0 109 60q0 35 -30 47t-99 12h-55v105l46 121h-129v1365h290v-550h550v550h290v-1365h-290v577h-550v-577l-41 -107q88 0 140 -45t52 -124q0 -97 -66.5 -145.5t-181.5 -50.5z" />
    <glyph glyph-name="hcedilla" unicode="&#x1e29;" horiz-adv-x="1210" 
d="M310 -482q-86 -3 -146 15v126q47 -14 111 -14q109 0 109 60q0 35 -30 47t-99 12h-55v105l50 131h-120v1437h281v-531h13q26 68 101 121t195 53q170 0 271 -108t101 -296v-676h-282v609q0 115 -53 174t-142 59q-92 0 -148 -60.5t-56 -173.5v-608l-45 -117q88 0 140 -45
t52 -124q0 -97 -66.5 -145.5t-181.5 -50.5z" />
    <glyph glyph-name="Hbrevebelow" unicode="&#x1e2a;" horiz-adv-x="1412" 
d="M373 -127q0 -132 88 -222.5t244 -90.5q155 0 240 91t85 222h-161q0 -69 -42 -116.5t-122 -47.5t-122 47.5t-42 116.5h-168zM1271 0h-290v577h-550v-577h-290v1365h290v-550h550v550h290v-1365z" />
    <glyph glyph-name="hbrevebelow" unicode="&#x1e2b;" horiz-adv-x="1210" 
d="M269 -127q0 -132 88 -222.5t244 -90.5q155 0 240 91t85 222h-161q0 -69 -42 -116.5t-122 -47.5t-122 47.5t-42 116.5h-168zM130 0v1437h281v-531h13q26 68 101 121t195 53q170 0 271 -108t101 -296v-676h-282v609q0 115 -53 174t-142 59q-92 0 -148 -60.5t-56 -173.5
v-608h-281z" />
    <glyph glyph-name="Itildebelow" unicode="&#x1e2c;" horiz-adv-x="572" 
d="M431 0h-290v1365h290v-1365zM264 -308l-14 14t-16 15t-14.5 11t-19 10t-19.5 3q-63 0 -67 -89h-146q0 90 49.5 158t140.5 68q50 0 84 -16t71 -50q4 -4 16 -15.5t17 -15.5t14 -10.5t17.5 -9t18.5 -2.5q33 0 48.5 30.5t17.5 72.5h146q0 -95 -55 -163.5t-140 -68.5
q-40 0 -69.5 9t-44.5 19.5t-35 29.5z" />
    <glyph glyph-name="itildebelow" unicode="&#x1e2d;" horiz-adv-x="570" 
d="M145 0v1064h281v-1064h-281zM123 1332q0 61 44 99.5t117 38.5q74 0 118.5 -38.5t44.5 -99.5q0 -62 -44 -100.5t-119 -38.5q-73 0 -117 39t-44 100zM264 -308l-14 14t-16 15t-14.5 11t-19 10t-19.5 3q-63 0 -67 -89h-146q0 90 49.5 158t140.5 68q50 0 84 -16t71 -50
q4 -4 16 -15.5t17 -15.5t14 -10.5t17.5 -9t18.5 -2.5q33 0 48.5 30.5t17.5 72.5h146q0 -95 -55 -163.5t-140 -68.5q-40 0 -69.5 9t-44.5 19.5t-35 29.5z" />
    <glyph glyph-name="Idieresisacute" unicode="&#x1e2e;" horiz-adv-x="572" 
d="M431 0h-290v1365h290v-1365zM124 1746l271 222h290l-316 -222h-245zM8 1581q0 49 30.5 79t81.5 30t81.5 -30t30.5 -79q0 -48 -30.5 -78t-81.5 -30q-50 0 -81 30t-31 78zM366 1581q0 49 30 79t81 30t82 -30t31 -79t-30.5 -78.5t-82.5 -29.5q-51 0 -81 30t-30 78z" />
    <glyph glyph-name="idieresisacute" unicode="&#x1e2f;" horiz-adv-x="570" 
d="M401 1515h-236l207 294h283zM148 0v1064h288v-1064h-288zM-33 1296q0 54 34 87.5t90 33.5q57 0 91 -33.5t34 -87.5t-34 -87t-91 -33q-55 0 -89.5 33.5t-34.5 86.5zM371 1296q0 54 34 87.5t89 33.5q57 0 91 -33.5t34 -87.5t-34 -87t-91 -33q-55 0 -89 33.5t-34 86.5z" />
    <glyph glyph-name="Kacute" unicode="&#x1e30;" horiz-adv-x="1273" 
d="M462 1504l271 222h290l-316 -222h-245zM1260 1365l-483 -589l503 -776h-346l-369 584l-134 -154v-430h-290v1365h290v-601h13l501 601h315z" />
    <glyph glyph-name="kacute" unicode="&#x1e31;" horiz-adv-x="1120" 
d="M409 366v-366h-281v1437h281v-810h13l339 437h316l-381 -459l408 -605h-328l-295 446zM378 1600h-236l207 294h283z" />
    <glyph glyph-name="Kdotbelow" unicode="&#x1e32;" horiz-adv-x="1273" 
d="M504 -262q0 59 39 98t94 39q59 0 98.5 -39t39.5 -98q0 -56 -39.5 -94t-98.5 -38q-55 0 -94 38t-39 94zM1260 1365l-483 -589l503 -776h-346l-369 584l-134 -154v-430h-290v1365h290v-601h13l501 601h315z" />
    <glyph glyph-name="kdotbelow" unicode="&#x1e33;" horiz-adv-x="1120" 
d="M442 -262q0 59 39 98t94 39q59 0 98.5 -39t39.5 -98q0 -56 -39.5 -94t-98.5 -38q-55 0 -94 38t-39 94zM409 366v-366h-281v1437h281v-810h13l339 437h316l-381 -459l408 -605h-328l-295 446z" />
    <glyph glyph-name="Klinebelow" unicode="&#x1e34;" horiz-adv-x="1273" 
d="M1260 1365l-483 -589l503 -776h-346l-369 584l-134 -154v-430h-290v1365h290v-601h13l501 601h315zM934 -326h-590v145h590v-145z" />
    <glyph glyph-name="klinebelow" unicode="&#x1e35;" horiz-adv-x="1120" 
d="M409 366v-366h-281v1437h281v-810h13l339 437h316l-381 -459l408 -605h-328l-295 446zM872 -326h-590v145h590v-145z" />
    <glyph glyph-name="Ldotbelow" unicode="&#x1e36;" horiz-adv-x="1025" 
d="M387 -262q0 59 39 98t94 39q59 0 98.5 -39t39.5 -98q0 -56 -39.5 -94t-98.5 -38q-55 0 -94 38t-39 94zM1000 245v-245h-859v1365h290v-1120h569z" />
    <glyph glyph-name="ldotbelow" unicode="&#x1e37;" horiz-adv-x="550" 
d="M143 -262q0 59 39 98t94 39q59 0 98.5 -39t39.5 -98q0 -56 -39.5 -94t-98.5 -38q-55 0 -94 38t-39 94zM134 0v1437h282v-1437h-282z" />
    <glyph glyph-name="Ldotbelowmacron" unicode="&#x1e38;" horiz-adv-x="1025" 
d="M387 -262q0 59 39 98t94 39q59 0 98.5 -39t39.5 -98q0 -56 -39.5 -94t-98.5 -38q-55 0 -94 38t-39 94zM1000 245v-245h-859v1365h290v-1120h569zM580 1505h-590v140h590v-140z" />
    <glyph glyph-name="ldotbelowmacron" unicode="&#x1e39;" horiz-adv-x="550" 
d="M143 -262q0 59 39 98t94 39q59 0 98.5 -39t39.5 -98q0 -56 -39.5 -94t-98.5 -38q-55 0 -94 38t-39 94zM134 0v1437h282v-1437h-282zM572 1600h-590v145h590v-145z" />
    <glyph glyph-name="Llinebelow" unicode="&#x1e3a;" horiz-adv-x="1025" 
d="M817 -326h-590v145h590v-145zM1000 245v-245h-859v1365h290v-1120h569z" />
    <glyph glyph-name="llinebelow" unicode="&#x1e3b;" horiz-adv-x="550" 
d="M573 -326h-590v145h590v-145zM134 0v1437h282v-1437h-282z" />
    <glyph glyph-name="Lcircumflexbelow" unicode="&#x1e3c;" horiz-adv-x="1025" 
d="M1000 245v-245h-859v1365h290v-1120h569zM190 -400l230 287h201l219 -288h-216l-101 161h-10l-113 -160h-210z" />
    <glyph glyph-name="lcircumflexbelow" unicode="&#x1e3d;" horiz-adv-x="550" 
d="M134 0v1437h282v-1437h-282zM-54 -400l230 287h201l219 -288h-216l-101 161h-10l-113 -160h-210z" />
    <glyph glyph-name="Macute" unicode="&#x1e3e;" horiz-adv-x="1640" 
d="M658 1504l271 222h290l-316 -222h-245zM402 0h-258v1365h296l377 -846h9l377 846h294v-1365h-261v884h-12l-314 -702h-181l-315 702h-12v-884z" />
    <glyph glyph-name="macute" unicode="&#x1e3f;" horiz-adv-x="1791" 
d="M1006 1226h-236l207 294h283zM126 0v1064h274v-157h14q25 69 97 121t184 52q118 0 193.5 -49.5t102.5 -135.5h12q28 75 112.5 130t210.5 55q161 0 252.5 -96t91.5 -256v-728h-281v647q0 98 -47.5 149t-128.5 51q-84 0 -132 -54.5t-48 -154.5v-638h-270v638
q0 107 -48.5 158t-129.5 51q-78 0 -128 -52t-50 -155v-640h-281z" />
    <glyph glyph-name="Mdotaccent" unicode="&#x1e40;" horiz-adv-x="1640" 
d="M694 1605q0 56 36 92.5t91 36.5q56 0 93.5 -37t37.5 -92t-37.5 -90.5t-93.5 -35.5q-55 0 -91 35.5t-36 90.5zM402 0h-258v1365h296l377 -846h9l377 846h294v-1365h-261v884h-12l-314 -702h-181l-315 702h-12v-884z" />
    <glyph glyph-name="mdotaccent" unicode="&#x1e41;" horiz-adv-x="1791" 
d="M769 1303q0 56 36 92.5t91 36.5q56 0 93.5 -37t37.5 -92t-37.5 -90.5t-93.5 -35.5q-55 0 -91 35.5t-36 90.5zM126 0v1064h274v-157h14q25 69 97 121t184 52q118 0 193.5 -49.5t102.5 -135.5h12q28 75 112.5 130t210.5 55q161 0 252.5 -96t91.5 -256v-728h-281v647
q0 98 -47.5 149t-128.5 51q-84 0 -132 -54.5t-48 -154.5v-638h-270v638q0 107 -48.5 158t-129.5 51q-78 0 -128 -52t-50 -155v-640h-281z" />
    <glyph glyph-name="Mdotbelow" unicode="&#x1e42;" horiz-adv-x="1640" 
d="M688 -262q0 59 39 98t94 39q59 0 98.5 -39t39.5 -98q0 -56 -39.5 -94t-98.5 -38q-55 0 -94 38t-39 94zM402 0h-258v1365h296l377 -846h9l377 846h294v-1365h-261v884h-12l-314 -702h-181l-315 702h-12v-884z" />
    <glyph glyph-name="mdotbelow" unicode="&#x1e43;" horiz-adv-x="1791" 
d="M763 -262q0 59 39 98t94 39q59 0 98.5 -39t39.5 -98q0 -56 -39.5 -94t-98.5 -38q-55 0 -94 38t-39 94zM126 0v1064h274v-157h14q25 69 97 121t184 52q118 0 193.5 -49.5t102.5 -135.5h12q28 75 112.5 130t210.5 55q161 0 252.5 -96t91.5 -256v-728h-281v647
q0 98 -47.5 149t-128.5 51q-84 0 -132 -54.5t-48 -154.5v-638h-270v638q0 107 -48.5 158t-129.5 51q-78 0 -128 -52t-50 -155v-640h-281z" />
    <glyph glyph-name="Ndotaccent" unicode="&#x1e44;" horiz-adv-x="1385" 
d="M566 1605q0 56 36 92.5t91 36.5q56 0 93.5 -37t37.5 -92t-37.5 -90.5t-93.5 -35.5q-55 0 -91 35.5t-36 90.5zM413 0h-272v1365h237l584 -876h10v876h272v-1365h-236l-585 882h-10v-882z" />
    <glyph glyph-name="ndotaccent" unicode="&#x1e45;" horiz-adv-x="1204" 
d="M476 1303q0 56 36 92.5t91 36.5q56 0 93.5 -37t37.5 -92t-37.5 -90.5t-93.5 -35.5q-55 0 -91 35.5t-36 90.5zM126 0v1064h274v-158h12q29 70 109 122t198 52q164 0 264 -99t100 -282v-699h-281v617q0 117 -52.5 171t-142.5 54q-92 0 -146 -59t-54 -172v-611h-281z" />
    <glyph glyph-name="Ndotbelow" unicode="&#x1e46;" horiz-adv-x="1385" 
d="M560 -262q0 59 39 98t94 39q59 0 98.5 -39t39.5 -98q0 -56 -39.5 -94t-98.5 -38q-55 0 -94 38t-39 94zM413 0h-272v1365h237l584 -876h10v876h272v-1365h-236l-585 882h-10v-882z" />
    <glyph glyph-name="ndotbelow" unicode="&#x1e47;" horiz-adv-x="1204" 
d="M470 -262q0 59 39 98t94 39q59 0 98.5 -39t39.5 -98q0 -56 -39.5 -94t-98.5 -38q-55 0 -94 38t-39 94zM126 0v1064h274v-158h12q29 70 109 122t198 52q164 0 264 -99t100 -282v-699h-281v617q0 117 -52.5 171t-142.5 54q-92 0 -146 -59t-54 -172v-611h-281z" />
    <glyph glyph-name="Nlinebelow" unicode="&#x1e48;" horiz-adv-x="1385" 
d="M990 -326h-590v145h590v-145zM413 0h-272v1365h237l584 -876h10v876h272v-1365h-236l-585 882h-10v-882z" />
    <glyph glyph-name="nlinebelow" unicode="&#x1e49;" horiz-adv-x="1204" 
d="M900 -326h-590v145h590v-145zM126 0v1064h274v-158h12q29 70 109 122t198 52q164 0 264 -99t100 -282v-699h-281v617q0 117 -52.5 171t-142.5 54q-92 0 -146 -59t-54 -172v-611h-281z" />
    <glyph glyph-name="Ncircumflexbelow" unicode="&#x1e4a;" horiz-adv-x="1385" 
d="M413 0h-272v1365h237l584 -876h10v876h272v-1365h-236l-585 882h-10v-882zM363 -400l230 287h201l219 -288h-216l-101 161h-10l-113 -160h-210z" />
    <glyph glyph-name="ncircumflexbelow" unicode="&#x1e4b;" horiz-adv-x="1204" 
d="M126 0v1064h274v-158h12q29 70 109 122t198 52q164 0 264 -99t100 -282v-699h-281v617q0 117 -52.5 171t-142.5 54q-92 0 -146 -59t-54 -172v-611h-281zM273 -400l230 287h201l219 -288h-216l-101 161h-10l-113 -160h-210z" />
    <glyph glyph-name="Otildeacute" unicode="&#x1e4c;" horiz-adv-x="1357" 
d="M516 1746l271 222h290l-316 -222h-245zM380 766v-174q0 -185 81 -281.5t217 -96.5t217 96.5t81 281.5v174q0 186 -81.5 286t-216.5 100t-216.5 -100.5t-81.5 -285.5zM86 593v170q0 292 158 460t435 168q278 0 435 -168.5t157 -459.5v-170q0 -289 -157.5 -454t-436.5 -165
q-278 0 -434.5 165t-156.5 454zM662 1521q-1 1 -16.5 16t-21 19t-18.5 10t-26 6q-62 0 -66 -85h-144q0 87 48.5 152t138.5 65q50 0 83 -15t69 -48q4 -4 19.5 -18t21.5 -18t17.5 -9.5t23.5 -5.5q32 0 47.5 29.5t17.5 69.5h144q0 -92 -54 -157.5t-138 -65.5q-56 0 -86.5 14
t-59.5 41z" />
    <glyph glyph-name="otildeacute" unicode="&#x1e4d;" horiz-adv-x="1141" 
d="M681 1515h-236l207 294h283zM537 1238q-15 16 -24 24t-26 16.5t-35 8.5q-69 0 -73 -97h-160q0 118 55 198.5t162 80.5q47 0 83 -18.5t77 -58.5l14.5 -14.5t17 -16t14.5 -10.5t19.5 -10t19.5 -2q35 0 51.5 33.5t18.5 78.5h159q0 -113 -62 -196t-161 -83q-53 0 -86 17.5
t-64 48.5zM572 1083q236 0 363.5 -140t127.5 -373v-70q0 -243 -126.5 -381t-364.5 -138q-240 0 -367 137t-127 381v70q0 112 32 205.5t93 162.5t155.5 107.5t213.5 38.5zM571 868q-59 0 -101 -25t-65 -69.5t-33 -95.5t-10 -112v-67q0 -61 10 -111.5t32.5 -95t65 -70
t101.5 -25.5q48 0 85 17t59.5 45.5t37 68.5t20 81.5t5.5 89.5v67q0 62 -10 113t-32 95t-64 69t-101 25z" />
    <glyph glyph-name="Otildedieresis" unicode="&#x1e4e;" horiz-adv-x="1357" 
d="M387 1863q0 49 30.5 79t81.5 30t81.5 -30t30.5 -79q0 -48 -30.5 -78t-81.5 -30q-50 0 -81 30t-31 78zM745 1863q0 49 30 79t81 30t82 -30t31 -79t-30.5 -78.5t-82.5 -29.5q-51 0 -81 30t-30 78zM380 766v-174q0 -185 81 -281.5t217 -96.5t217 96.5t81 281.5v174
q0 186 -81.5 286t-216.5 100t-216.5 -100.5t-81.5 -285.5zM86 593v170q0 292 158 460t435 168q278 0 435 -168.5t157 -459.5v-170q0 -289 -157.5 -454t-436.5 -165q-278 0 -434.5 165t-156.5 454zM662 1521q-1 1 -16.5 16t-21 19t-18.5 10t-26 6q-62 0 -66 -85h-144
q0 87 48.5 152t138.5 65q50 0 83 -15t69 -48q4 -4 19.5 -18t21.5 -18t17.5 -9.5t23.5 -5.5q32 0 47.5 29.5t17.5 69.5h144q0 -92 -54 -157.5t-138 -65.5q-56 0 -86.5 14t-59.5 41z" />
    <glyph glyph-name="otildedieresis" unicode="&#x1e4f;" horiz-adv-x="1141" 
d="M537 1238q-15 16 -24 24t-26 16.5t-35 8.5q-69 0 -73 -97h-160q0 118 55 198.5t162 80.5q47 0 83 -18.5t77 -58.5l14.5 -14.5t17 -16t14.5 -10.5t19.5 -10t19.5 -2q35 0 51.5 33.5t18.5 78.5h159q0 -113 -62 -196t-161 -83q-53 0 -86 17.5t-64 48.5zM247 1607
q0 54 34 87.5t90 33.5q57 0 91 -33.5t34 -87.5t-34 -87t-91 -33q-55 0 -89.5 33.5t-34.5 86.5zM651 1607q0 54 34 87.5t89 33.5q57 0 91 -33.5t34 -87.5t-34 -87t-91 -33q-55 0 -89 33.5t-34 86.5zM572 1083q236 0 363.5 -140t127.5 -373v-70q0 -243 -126.5 -381
t-364.5 -138q-240 0 -367 137t-127 381v70q0 112 32 205.5t93 162.5t155.5 107.5t213.5 38.5zM571 868q-59 0 -101 -25t-65 -69.5t-33 -95.5t-10 -112v-67q0 -61 10 -111.5t32.5 -95t65 -70t101.5 -25.5q48 0 85 17t59.5 45.5t37 68.5t20 81.5t5.5 89.5v67q0 62 -10 113
t-32 95t-64 69t-101 25z" />
    <glyph glyph-name="Omacrongrave" unicode="&#x1e50;" horiz-adv-x="1357" 
d="M820 1746h-234l-305 214h278zM380 766v-174q0 -185 81 -281.5t217 -96.5t217 96.5t81 281.5v174q0 186 -81.5 286t-216.5 100t-216.5 -100.5t-81.5 -285.5zM86 593v170q0 292 158 460t435 168q278 0 435 -168.5t157 -459.5v-170q0 -289 -157.5 -454t-436.5 -165
q-278 0 -434.5 165t-156.5 454zM973 1505h-590v140h590v-140z" />
    <glyph glyph-name="omacrongrave" unicode="&#x1e51;" horiz-adv-x="1141" 
d="M736 1514h-236l-263 290h283zM867 1226h-590v145h590v-145zM572 1083q236 0 363.5 -140t127.5 -373v-70q0 -243 -126.5 -381t-364.5 -138q-240 0 -367 137t-127 381v70q0 112 32 205.5t93 162.5t155.5 107.5t213.5 38.5zM571 868q-59 0 -101 -25t-65 -69.5t-33 -95.5
t-10 -112v-67q0 -61 10 -111.5t32.5 -95t65 -70t101.5 -25.5q48 0 85 17t59.5 45.5t37 68.5t20 81.5t5.5 89.5v67q0 62 -10 113t-32 95t-64 69t-101 25z" />
    <glyph glyph-name="Omacronacute" unicode="&#x1e52;" horiz-adv-x="1357" 
d="M516 1746l271 222h290l-316 -222h-245zM380 766v-174q0 -185 81 -281.5t217 -96.5t217 96.5t81 281.5v174q0 186 -81.5 286t-216.5 100t-216.5 -100.5t-81.5 -285.5zM86 593v170q0 292 158 460t435 168q278 0 435 -168.5t157 -459.5v-170q0 -289 -157.5 -454t-436.5 -165
q-278 0 -434.5 165t-156.5 454zM973 1505h-590v140h590v-140z" />
    <glyph glyph-name="omacronacute" unicode="&#x1e53;" horiz-adv-x="1141" 
d="M681 1515h-236l207 294h283zM867 1226h-590v145h590v-145zM572 1083q236 0 363.5 -140t127.5 -373v-70q0 -243 -126.5 -381t-364.5 -138q-240 0 -367 137t-127 381v70q0 112 32 205.5t93 162.5t155.5 107.5t213.5 38.5zM571 868q-59 0 -101 -25t-65 -69.5t-33 -95.5
t-10 -112v-67q0 -61 10 -111.5t32.5 -95t65 -70t101.5 -25.5q48 0 85 17t59.5 45.5t37 68.5t20 81.5t5.5 89.5v67q0 62 -10 113t-32 95t-64 69t-101 25z" />
    <glyph glyph-name="Pacute" unicode="&#x1e54;" horiz-adv-x="1207" 
d="M426 1504l271 222h290l-316 -222h-245zM141 1365h556q218 0 342.5 -130.5t124.5 -330.5q0 -201 -125 -328.5t-345 -127.5h-264v-448h-289v1365zM429 1138v-468h153q142 0 215 53.5t73 180.5q0 112 -61.5 173t-171.5 61h-208z" />
    <glyph glyph-name="pacute" unicode="&#x1e55;" horiz-adv-x="1202" 
d="M724 -13q-114 0 -191 46t-112 123h-12v-508h-282v1416h278v-157h12q33 78 113 124t197 46q181 0 287.5 -127.5t106.5 -360.5v-114q0 -233 -106.5 -360.5t-290.5 -127.5zM623 209q96 0 152.5 72.5t56.5 210.5v81q0 136 -56 209t-155 73q-97 0 -154.5 -73.5t-57.5 -199.5
v-96q0 -124 58 -200.5t156 -76.5zM711 1226h-236l207 294h283z" />
    <glyph glyph-name="Pdotaccent" unicode="&#x1e56;" horiz-adv-x="1207" 
d="M141 1365h556q218 0 342.5 -130.5t124.5 -330.5q0 -201 -125 -328.5t-345 -127.5h-264v-448h-289v1365zM429 1138v-468h153q142 0 215 53.5t73 180.5q0 112 -61.5 173t-171.5 61h-208zM462 1605q0 56 36 92.5t91 36.5q56 0 93.5 -37t37.5 -92t-37.5 -90.5t-93.5 -35.5
q-55 0 -91 35.5t-36 90.5z" />
    <glyph glyph-name="pdotaccent" unicode="&#x1e57;" horiz-adv-x="1202" 
d="M724 -13q-114 0 -191 46t-112 123h-12v-508h-282v1416h278v-157h12q33 78 113 124t197 46q181 0 287.5 -127.5t106.5 -360.5v-114q0 -233 -106.5 -360.5t-290.5 -127.5zM623 209q96 0 152.5 72.5t56.5 210.5v81q0 136 -56 209t-155 73q-97 0 -154.5 -73.5t-57.5 -199.5
v-96q0 -124 58 -200.5t156 -76.5zM474 1303q0 56 36 92.5t91 36.5q56 0 93.5 -37t37.5 -92t-37.5 -90.5t-93.5 -35.5q-55 0 -91 35.5t-36 90.5z" />
    <glyph glyph-name="Rdotaccent" unicode="&#x1e58;" horiz-adv-x="1270" 
d="M697 1365q120 0 214 -33.5t152.5 -92.5t89 -137.5t30.5 -172.5q0 -65 -16.5 -122.5t-41.5 -98.5t-59 -75t-66 -54.5t-64 -33.5l274 -545h-322l-237 502h-225v-502h-285v1365h556zM426 714h225q110 0 172 54.5t62 155.5q0 105 -63.5 162t-166.5 57h-229v-429zM489 1605
q0 56 36 92.5t91 36.5q56 0 93.5 -37t37.5 -92t-37.5 -90.5t-93.5 -35.5q-55 0 -91 35.5t-36 90.5z" />
    <glyph glyph-name="rdotaccent" unicode="&#x1e59;" horiz-adv-x="789" 
d="M135 0v1064h282v-147h12q10 29 26.5 54.5t44.5 51.5t73 41t102 15q55 0 87 -8v-242q-33 11 -108 11q-230 0 -230 -242v-598h-289zM304 1303q0 56 36 92.5t91 36.5q56 0 93.5 -37t37.5 -92t-37.5 -90.5t-93.5 -35.5q-55 0 -91 35.5t-36 90.5z" />
    <glyph glyph-name="Rdotbelow" unicode="&#x1e5a;" horiz-adv-x="1270" 
d="M483 -262q0 59 39 98t94 39q59 0 98.5 -39t39.5 -98q0 -56 -39.5 -94t-98.5 -38q-55 0 -94 38t-39 94zM697 1365q120 0 214 -33.5t152.5 -92.5t89 -137.5t30.5 -172.5q0 -65 -16.5 -122.5t-41.5 -98.5t-59 -75t-66 -54.5t-64 -33.5l274 -545h-322l-237 502h-225v-502
h-285v1365h556zM426 714h225q110 0 172 54.5t62 155.5q0 105 -63.5 162t-166.5 57h-229v-429z" />
    <glyph glyph-name="rdotbelow" unicode="&#x1e5b;" horiz-adv-x="789" 
d="M150 -262q0 59 39 98t94 39q59 0 98.5 -39t39.5 -98q0 -56 -39.5 -94t-98.5 -38q-55 0 -94 38t-39 94zM135 0v1064h282v-147h12q10 29 26.5 54.5t44.5 51.5t73 41t102 15q55 0 87 -8v-242q-33 11 -108 11q-230 0 -230 -242v-598h-289z" />
    <glyph glyph-name="Rdotbelowmacron" unicode="&#x1e5c;" horiz-adv-x="1270" 
d="M483 -262q0 59 39 98t94 39q59 0 98.5 -39t39.5 -98q0 -56 -39.5 -94t-98.5 -38q-55 0 -94 38t-39 94zM697 1365q120 0 214 -33.5t152.5 -92.5t89 -137.5t30.5 -172.5q0 -65 -16.5 -122.5t-41.5 -98.5t-59 -75t-66 -54.5t-64 -33.5l274 -545h-322l-237 502h-225v-502
h-285v1365h556zM426 714h225q110 0 172 54.5t62 155.5q0 105 -63.5 162t-166.5 57h-229v-429zM910 1505h-590v140h590v-140z" />
    <glyph glyph-name="rdotbelowmacron" unicode="&#x1e5d;" horiz-adv-x="789" 
d="M150 -262q0 59 39 98t94 39q59 0 98.5 -39t39.5 -98q0 -56 -39.5 -94t-98.5 -38q-55 0 -94 38t-39 94zM135 0v1064h282v-147h12q10 29 26.5 54.5t44.5 51.5t73 41t102 15q55 0 87 -8v-242q-33 11 -108 11q-230 0 -230 -242v-598h-289zM727 1226h-590v145h590v-145z" />
    <glyph glyph-name="Rlinebelow" unicode="&#x1e5e;" horiz-adv-x="1270" 
d="M697 1365q120 0 214 -33.5t152.5 -92.5t89 -137.5t30.5 -172.5q0 -65 -16.5 -122.5t-41.5 -98.5t-59 -75t-66 -54.5t-64 -33.5l274 -545h-322l-237 502h-225v-502h-285v1365h556zM426 714h225q110 0 172 54.5t62 155.5q0 105 -63.5 162t-166.5 57h-229v-429zM913 -326
h-590v145h590v-145z" />
    <glyph glyph-name="rlinebelow" unicode="&#x1e5f;" horiz-adv-x="789" 
d="M135 0v1064h282v-147h12q10 29 26.5 54.5t44.5 51.5t73 41t102 15q55 0 87 -8v-242q-33 11 -108 11q-230 0 -230 -242v-598h-289zM580 -326h-590v145h590v-145z" />
    <glyph glyph-name="Sdotaccent" unicode="&#x1e60;" horiz-adv-x="1217" 
d="M59 392h278q6 -81 77.5 -136t194.5 -55q118 0 182.5 48.5t64.5 129.5q0 68 -50 106.5t-158 62.5l-205 47q-76 16 -137 44.5t-110.5 73.5t-77 112t-27.5 151q0 130 69.5 226t185.5 143.5t262 47.5q228 0 369.5 -113.5t143.5 -295.5h-270q-6 78 -69 131.5t-175 53.5
q-105 0 -166 -46t-61 -125q0 -119 186 -157l207 -46q81 -17 143 -44.5t115.5 -72t82 -113t28.5 -158.5q0 -201 -146.5 -317t-400.5 -116q-116 0 -209 25t-152.5 66t-99.5 96.5t-57 112.5t-18 118zM481 1605q0 56 36 92.5t91 36.5q56 0 93.5 -37t37.5 -92t-37.5 -90.5
t-93.5 -35.5q-55 0 -91 35.5t-36 90.5z" />
    <glyph glyph-name="sdotaccent" unicode="&#x1e61;" horiz-adv-x="1037" 
d="M87 748q0 70 23 126.5t63 95t96 64.5t118.5 37.5t133.5 11.5q190 0 301 -87.5t111 -238.5h-248q-6 56 -46.5 96t-122.5 40q-75 0 -118 -33t-43 -89q0 -17 5.5 -32t17 -26.5t23.5 -20.5t32 -16.5t36 -13t41 -10.5t40.5 -7.5t42 -7t39.5 -6.5q161 -27 247.5 -96t86.5 -205
q0 -163 -122 -256t-340 -93q-205 0 -321.5 88t-116.5 232h273q7 -57 53.5 -92.5t124.5 -35.5q89 0 132.5 34.5t43.5 90.5q0 16 -4 29.5t-14 24.5t-19 19.5t-28 16t-31 12t-38.5 10.5t-39.5 8.5t-44.5 8.5t-44.5 8q-78 16 -134.5 36.5t-106.5 55.5t-76 90.5t-26 130.5z
M392 1303q0 56 36 92.5t91 36.5q56 0 93.5 -37t37.5 -92t-37.5 -90.5t-93.5 -35.5q-55 0 -91 35.5t-36 90.5z" />
    <glyph glyph-name="Sdotbelow" unicode="&#x1e62;" horiz-adv-x="1217" 
d="M463 -262q0 59 39 98t94 39q59 0 98.5 -39t39.5 -98q0 -56 -39.5 -94t-98.5 -38q-55 0 -94 38t-39 94zM59 392h278q6 -81 77.5 -136t194.5 -55q118 0 182.5 48.5t64.5 129.5q0 68 -50 106.5t-158 62.5l-205 47q-76 16 -137 44.5t-110.5 73.5t-77 112t-27.5 151
q0 130 69.5 226t185.5 143.5t262 47.5q228 0 369.5 -113.5t143.5 -295.5h-270q-6 78 -69 131.5t-175 53.5q-105 0 -166 -46t-61 -125q0 -119 186 -157l207 -46q81 -17 143 -44.5t115.5 -72t82 -113t28.5 -158.5q0 -201 -146.5 -317t-400.5 -116q-116 0 -209 25t-152.5 66
t-99.5 96.5t-57 112.5t-18 118z" />
    <glyph glyph-name="sdotbelow" unicode="&#x1e63;" horiz-adv-x="1037" 
d="M386 -262q0 59 39 98t94 39q59 0 98.5 -39t39.5 -98q0 -56 -39.5 -94t-98.5 -38q-55 0 -94 38t-39 94zM87 748q0 70 23 126.5t63 95t96 64.5t118.5 37.5t133.5 11.5q190 0 301 -87.5t111 -238.5h-248q-6 56 -46.5 96t-122.5 40q-75 0 -118 -33t-43 -89q0 -17 5.5 -32
t17 -26.5t23.5 -20.5t32 -16.5t36 -13t41 -10.5t40.5 -7.5t42 -7t39.5 -6.5q161 -27 247.5 -96t86.5 -205q0 -163 -122 -256t-340 -93q-205 0 -321.5 88t-116.5 232h273q7 -57 53.5 -92.5t124.5 -35.5q89 0 132.5 34.5t43.5 90.5q0 16 -4 29.5t-14 24.5t-19 19.5t-28 16
t-31 12t-38.5 10.5t-39.5 8.5t-44.5 8.5t-44.5 8q-78 16 -134.5 36.5t-106.5 55.5t-76 90.5t-26 130.5z" />
    <glyph glyph-name="Sacutedotaccent" unicode="&#x1e64;" horiz-adv-x="1217" 
d="M228 1661q0 51 34 85.5t82 34.5q53 0 87.5 -34t34.5 -86q0 -50 -34.5 -83t-87.5 -33q-49 0 -82.5 33t-33.5 83zM577 1541l271 222h290l-316 -222h-245zM59 392h278q6 -81 77.5 -136t194.5 -55q118 0 182.5 48.5t64.5 129.5q0 68 -50 106.5t-158 62.5l-205 47
q-76 16 -137 44.5t-110.5 73.5t-77 112t-27.5 151q0 130 69.5 226t185.5 143.5t262 47.5q228 0 369.5 -113.5t143.5 -295.5h-270q-6 78 -69 131.5t-175 53.5q-105 0 -166 -46t-61 -125q0 -119 186 -157l207 -46q81 -17 143 -44.5t115.5 -72t82 -113t28.5 -158.5
q0 -201 -146.5 -317t-400.5 -116q-116 0 -209 25t-152.5 66t-99.5 96.5t-57 112.5t-18 118z" />
    <glyph glyph-name="sacutedotaccent" unicode="&#x1e65;" horiz-adv-x="1037" 
d="M168 1409q0 56 36.5 92.5t88.5 36.5q56 0 93.5 -36.5t37.5 -92.5q0 -54 -37.5 -90t-93.5 -36q-52 0 -88.5 36t-36.5 90zM87 748q0 70 23 126.5t63 95t96 64.5t118.5 37.5t133.5 11.5q190 0 301 -87.5t111 -238.5h-248q-6 56 -46.5 96t-122.5 40q-75 0 -118 -33t-43 -89
q0 -17 5.5 -32t17 -26.5t23.5 -20.5t32 -16.5t36 -13t41 -10.5t40.5 -7.5t42 -7t39.5 -6.5q161 -27 247.5 -96t86.5 -205q0 -163 -122 -256t-340 -93q-205 0 -321.5 88t-116.5 232h273q7 -57 53.5 -92.5t124.5 -35.5q89 0 132.5 34.5t43.5 90.5q0 16 -4 29.5t-14 24.5
t-19 19.5t-28 16t-31 12t-38.5 10.5t-39.5 8.5t-44.5 8.5t-44.5 8q-78 16 -134.5 36.5t-106.5 55.5t-76 90.5t-26 130.5zM701 1226h-236l207 294h283z" />
    <glyph glyph-name="Scarondotaccent" unicode="&#x1e66;" horiz-adv-x="1217" 
d="M490 1880q0 53 33 87.5t84 34.5q53 0 88 -35t35 -87q0 -51 -35 -84t-88 -33q-51 0 -84 32.5t-33 84.5zM59 392h278q6 -81 77.5 -136t194.5 -55q118 0 182.5 48.5t64.5 129.5q0 68 -50 106.5t-158 62.5l-205 47q-76 16 -137 44.5t-110.5 73.5t-77 112t-27.5 151
q0 130 69.5 226t185.5 143.5t262 47.5q228 0 369.5 -113.5t143.5 -295.5h-270q-6 78 -69 131.5t-175 53.5q-105 0 -166 -46t-61 -125q0 -119 186 -157l207 -46q81 -17 143 -44.5t115.5 -72t82 -113t28.5 -158.5q0 -201 -146.5 -317t-400.5 -116q-116 0 -209 25t-152.5 66
t-99.5 96.5t-57 112.5t-18 118zM247 1732h218l137 -120h14l133 120h219l-262 -233h-190z" />
    <glyph glyph-name="scarondotaccent" unicode="&#x1e67;" horiz-adv-x="1037" 
d="M382 1722q0 56 37 93.5t90 37.5q57 0 94.5 -37t37.5 -94q0 -54 -38 -90t-94 -36q-53 0 -90 36t-37 90zM191 1507h210l113 -175h10l101 176h216l-220 -309h-200zM87 748q0 70 23 126.5t63 95t96 64.5t118.5 37.5t133.5 11.5q190 0 301 -87.5t111 -238.5h-248
q-6 56 -46.5 96t-122.5 40q-75 0 -118 -33t-43 -89q0 -17 5.5 -32t17 -26.5t23.5 -20.5t32 -16.5t36 -13t41 -10.5t40.5 -7.5t42 -7t39.5 -6.5q161 -27 247.5 -96t86.5 -205q0 -163 -122 -256t-340 -93q-205 0 -321.5 88t-116.5 232h273q7 -57 53.5 -92.5t124.5 -35.5
q89 0 132.5 34.5t43.5 90.5q0 16 -4 29.5t-14 24.5t-19 19.5t-28 16t-31 12t-38.5 10.5t-39.5 8.5t-44.5 8.5t-44.5 8q-78 16 -134.5 36.5t-106.5 55.5t-76 90.5t-26 130.5z" />
    <glyph glyph-name="Sdotbelowdotaccent" unicode="&#x1e68;" horiz-adv-x="1217" 
d="M463 -262q0 59 39 98t94 39q59 0 98.5 -39t39.5 -98q0 -56 -39.5 -94t-98.5 -38q-55 0 -94 38t-39 94zM59 392h278q6 -81 77.5 -136t194.5 -55q118 0 182.5 48.5t64.5 129.5q0 68 -50 106.5t-158 62.5l-205 47q-76 16 -137 44.5t-110.5 73.5t-77 112t-27.5 151
q0 130 69.5 226t185.5 143.5t262 47.5q228 0 369.5 -113.5t143.5 -295.5h-270q-6 78 -69 131.5t-175 53.5q-105 0 -166 -46t-61 -125q0 -119 186 -157l207 -46q81 -17 143 -44.5t115.5 -72t82 -113t28.5 -158.5q0 -201 -146.5 -317t-400.5 -116q-116 0 -209 25t-152.5 66
t-99.5 96.5t-57 112.5t-18 118zM481 1605q0 56 36 92.5t91 36.5q56 0 93.5 -37t37.5 -92t-37.5 -90.5t-93.5 -35.5q-55 0 -91 35.5t-36 90.5z" />
    <glyph glyph-name="sdotbelowdotaccent" unicode="&#x1e69;" horiz-adv-x="1037" 
d="M386 -262q0 59 39 98t94 39q59 0 98.5 -39t39.5 -98q0 -56 -39.5 -94t-98.5 -38q-55 0 -94 38t-39 94zM87 748q0 70 23 126.5t63 95t96 64.5t118.5 37.5t133.5 11.5q190 0 301 -87.5t111 -238.5h-248q-6 56 -46.5 96t-122.5 40q-75 0 -118 -33t-43 -89q0 -17 5.5 -32
t17 -26.5t23.5 -20.5t32 -16.5t36 -13t41 -10.5t40.5 -7.5t42 -7t39.5 -6.5q161 -27 247.5 -96t86.5 -205q0 -163 -122 -256t-340 -93q-205 0 -321.5 88t-116.5 232h273q7 -57 53.5 -92.5t124.5 -35.5q89 0 132.5 34.5t43.5 90.5q0 16 -4 29.5t-14 24.5t-19 19.5t-28 16
t-31 12t-38.5 10.5t-39.5 8.5t-44.5 8.5t-44.5 8q-78 16 -134.5 36.5t-106.5 55.5t-76 90.5t-26 130.5zM392 1303q0 56 36 92.5t91 36.5q56 0 93.5 -37t37.5 -92t-37.5 -90.5t-93.5 -35.5q-55 0 -91 35.5t-36 90.5z" />
    <glyph glyph-name="Tdotaccent" unicode="&#x1e6a;" horiz-adv-x="1083" 
d="M415 1605q0 56 36 92.5t91 36.5q56 0 93.5 -37t37.5 -92t-37.5 -90.5t-93.5 -35.5q-55 0 -91 35.5t-36 90.5zM686 0h-289v1125h-383v240h1055v-240h-383v-1125z" />
    <glyph glyph-name="tdotaccent" unicode="&#x1e6b;" horiz-adv-x="757" 
d="M221 1549q0 56 36 92.5t91 36.5q56 0 93.5 -37t37.5 -92t-37.5 -90.5t-93.5 -35.5q-55 0 -91 35.5t-36 90.5zM204 1051v264h273v-264h205v-215h-205v-493q0 -75 35 -104.5t116 -29.5q46 0 58 2v-207q-50 -9 -127 -9q-198 0 -279.5 70.5t-81.5 236.5v534h-152v215h158z
" />
    <glyph glyph-name="Tdotbelow" unicode="&#x1e6c;" horiz-adv-x="1083" 
d="M409 -262q0 59 39 98t94 39q59 0 98.5 -39t39.5 -98q0 -56 -39.5 -94t-98.5 -38q-55 0 -94 38t-39 94zM686 0h-289v1125h-383v240h1055v-240h-383v-1125z" />
    <glyph glyph-name="tdotbelow" unicode="&#x1e6d;" horiz-adv-x="757" 
d="M314 -262q0 59 39 98t94 39q59 0 98.5 -39t39.5 -98q0 -56 -39.5 -94t-98.5 -38q-55 0 -94 38t-39 94zM204 1051v264h273v-264h205v-215h-205v-493q0 -75 35 -104.5t116 -29.5q46 0 58 2v-207q-50 -9 -127 -9q-198 0 -279.5 70.5t-81.5 236.5v534h-152v215h158z" />
    <glyph glyph-name="Tlinebelow" unicode="&#x1e6e;" horiz-adv-x="1083" 
d="M839 -326h-590v145h590v-145zM686 0h-289v1125h-383v240h1055v-240h-383v-1125z" />
    <glyph glyph-name="tlinebelow" unicode="&#x1e6f;" horiz-adv-x="757" 
d="M744 -326h-590v145h590v-145zM204 1051v264h273v-264h205v-215h-205v-493q0 -75 35 -104.5t116 -29.5q46 0 58 2v-207q-50 -9 -127 -9q-198 0 -279.5 70.5t-81.5 236.5v534h-152v215h158z" />
    <glyph glyph-name="Tcircumflexbelow" unicode="&#x1e70;" horiz-adv-x="1083" 
d="M686 0h-289v1125h-383v240h1055v-240h-383v-1125zM212 -400l230 287h201l219 -288h-216l-101 161h-10l-113 -160h-210z" />
    <glyph glyph-name="tcircumflexbelow" unicode="&#x1e71;" horiz-adv-x="757" 
d="M204 1051v264h273v-264h205v-215h-205v-493q0 -75 35 -104.5t116 -29.5q46 0 58 2v-207q-50 -9 -127 -9q-198 0 -279.5 70.5t-81.5 236.5v534h-152v215h158zM117 -400l230 287h201l219 -288h-216l-101 161h-10l-113 -160h-210z" />
    <glyph glyph-name="Udieresisbelow" unicode="&#x1e72;" horiz-adv-x="1367" 
d="M415 1365v-862q0 -136 72.5 -210t196.5 -74q122 0 195.5 74.5t73.5 209.5v862h289v-892q0 -226 -152 -362.5t-406 -136.5t-406 137.5t-152 363.5v890h289zM358 -308q0 54 34 87.5t90 33.5q57 0 91 -33.5t34 -87.5t-34 -87t-91 -33q-55 0 -89.5 33.5t-34.5 86.5zM762 -308
q0 54 34 87.5t89 33.5q57 0 91 -33.5t34 -87.5t-34 -87t-91 -33q-55 0 -89 33.5t-34 86.5z" />
    <glyph glyph-name="udieresisbelow" unicode="&#x1e73;" horiz-adv-x="1201" 
d="M1075 1064v-1064h-274v158h-13q-28 -71 -106.5 -122.5t-200.5 -51.5q-166 0 -263.5 97t-97.5 281v702h281v-628q0 -117 55 -166t139 -49q87 0 142.5 56.5t55.5 161.5v625h282zM275 -308q0 54 34 87.5t90 33.5q57 0 91 -33.5t34 -87.5t-34 -87t-91 -33q-55 0 -89.5 33.5
t-34.5 86.5zM679 -308q0 54 34 87.5t89 33.5q57 0 91 -33.5t34 -87.5t-34 -87t-91 -33q-55 0 -89 33.5t-34 86.5z" />
    <glyph glyph-name="Utildebelow" unicode="&#x1e74;" horiz-adv-x="1367" 
d="M662 -308l-14 14t-16 15t-14.5 11t-19 10t-19.5 3q-63 0 -67 -89h-146q0 90 49.5 158t140.5 68q50 0 84 -16t71 -50q4 -4 16 -15.5t17 -15.5t14 -10.5t17.5 -9t18.5 -2.5q33 0 48.5 30.5t17.5 72.5h146q0 -95 -55 -163.5t-140 -68.5q-40 0 -69.5 9t-44.5 19.5t-35 29.5z
M415 1365v-862q0 -136 72.5 -210t196.5 -74q122 0 195.5 74.5t73.5 209.5v862h289v-892q0 -226 -152 -362.5t-406 -136.5t-406 137.5t-152 363.5v890h289z" />
    <glyph glyph-name="utildebelow" unicode="&#x1e75;" horiz-adv-x="1201" 
d="M579 -308l-14 14t-16 15t-14.5 11t-19 10t-19.5 3q-63 0 -67 -89h-146q0 90 49.5 158t140.5 68q50 0 84 -16t71 -50q4 -4 16 -15.5t17 -15.5t14 -10.5t17.5 -9t18.5 -2.5q33 0 48.5 30.5t17.5 72.5h146q0 -95 -55 -163.5t-140 -68.5q-40 0 -69.5 9t-44.5 19.5t-35 29.5z
M1075 1064v-1064h-274v158h-13q-28 -71 -106.5 -122.5t-200.5 -51.5q-166 0 -263.5 97t-97.5 281v702h281v-628q0 -117 55 -166t139 -49q87 0 142.5 56.5t55.5 161.5v625h282z" />
    <glyph glyph-name="Ucircumflexbelow" unicode="&#x1e76;" horiz-adv-x="1367" 
d="M415 1365v-862q0 -136 72.5 -210t196.5 -74q122 0 195.5 74.5t73.5 209.5v862h289v-892q0 -226 -152 -362.5t-406 -136.5t-406 137.5t-152 363.5v890h289zM354 -400l230 287h201l219 -288h-216l-101 161h-10l-113 -160h-210z" />
    <glyph glyph-name="ucircumflexbelow" unicode="&#x1e77;" horiz-adv-x="1201" 
d="M1075 1064v-1064h-274v158h-13q-28 -71 -106.5 -122.5t-200.5 -51.5q-166 0 -263.5 97t-97.5 281v702h281v-628q0 -117 55 -166t139 -49q87 0 142.5 56.5t55.5 161.5v625h282zM271 -400l230 287h201l219 -288h-216l-101 161h-10l-113 -160h-210z" />
    <glyph glyph-name="Utildeacute" unicode="&#x1e78;" horiz-adv-x="1367" 
d="M521 1746l271 222h290l-316 -222h-245zM415 1365v-862q0 -136 72.5 -210t196.5 -74q122 0 195.5 74.5t73.5 209.5v862h289v-892q0 -226 -152 -362.5t-406 -136.5t-406 137.5t-152 363.5v890h289zM667 1521q-1 1 -16.5 16t-21 19t-18.5 10t-26 6q-62 0 -66 -85h-144
q0 87 48.5 152t138.5 65q50 0 83 -15t69 -48q4 -4 19.5 -18t21.5 -18t17.5 -9.5t23.5 -5.5q32 0 47.5 29.5t17.5 69.5h144q0 -92 -54 -157.5t-138 -65.5q-56 0 -86.5 14t-59.5 41z" />
    <glyph glyph-name="utildeacute" unicode="&#x1e79;" horiz-adv-x="1201" 
d="M1075 1064v-1064h-274v158h-13q-28 -71 -106.5 -122.5t-200.5 -51.5q-166 0 -263.5 97t-97.5 281v702h281v-628q0 -117 55 -166t139 -49q87 0 142.5 56.5t55.5 161.5v625h282zM711 1515h-236l207 294h283zM567 1238q-15 16 -24 24t-26 16.5t-35 8.5q-69 0 -73 -97h-160
q0 118 55 198.5t162 80.5q47 0 83 -18.5t77 -58.5l14.5 -14.5t17 -16t14.5 -10.5t19.5 -10t19.5 -2q35 0 51.5 33.5t18.5 78.5h159q0 -113 -62 -196t-161 -83q-53 0 -86 17.5t-64 48.5z" />
    <glyph glyph-name="Umacrondieresis" unicode="&#x1e7a;" horiz-adv-x="1367" 
d="M392 1863q0 49 30.5 79t81.5 30t81.5 -30t30.5 -79q0 -48 -30.5 -78t-81.5 -30q-50 0 -81 30t-31 78zM750 1863q0 49 30 79t81 30t82 -30t31 -79t-30.5 -78.5t-82.5 -29.5q-51 0 -81 30t-30 78zM415 1365v-862q0 -136 72.5 -210t196.5 -74q122 0 195.5 74.5t73.5 209.5
v862h289v-892q0 -226 -152 -362.5t-406 -136.5t-406 137.5t-152 363.5v890h289zM978 1505h-590v140h590v-140z" />
    <glyph glyph-name="umacrondieresis" unicode="&#x1e7b;" horiz-adv-x="1201" 
d="M1075 1064v-1064h-274v158h-13q-28 -71 -106.5 -122.5t-200.5 -51.5q-166 0 -263.5 97t-97.5 281v702h281v-628q0 -117 55 -166t139 -49q87 0 142.5 56.5t55.5 161.5v625h282zM897 1226h-590v145h590v-145zM277 1607q0 54 34 87.5t90 33.5q57 0 91 -33.5t34 -87.5
t-34 -87t-91 -33q-55 0 -89.5 33.5t-34.5 86.5zM681 1607q0 54 34 87.5t89 33.5q57 0 91 -33.5t34 -87.5t-34 -87t-91 -33q-55 0 -89 33.5t-34 86.5z" />
    <glyph glyph-name="Vtilde" unicode="&#x1e7c;" horiz-adv-x="1261" 
d="M614 1521q-1 1 -16.5 16t-21 19t-18.5 10t-26 6q-62 0 -66 -85h-144q0 87 48.5 152t138.5 65q50 0 83 -15t69 -48q4 -4 19.5 -18t21.5 -18t17.5 -9.5t23.5 -5.5q32 0 47.5 29.5t17.5 69.5h144q0 -92 -54 -157.5t-138 -65.5q-56 0 -86.5 14t-59.5 41zM809 0h-353
l-449 1365h335l292 -1044h12l288 1044h321z" />
    <glyph glyph-name="vtilde" unicode="&#x1e7d;" horiz-adv-x="1058" 
d="M496 1238q-15 16 -24 24t-26 16.5t-35 8.5q-69 0 -73 -97h-160q0 118 55 198.5t162 80.5q47 0 83 -18.5t77 -58.5l14.5 -14.5t17 -16t14.5 -10.5t19.5 -10t19.5 -2q35 0 51.5 33.5t18.5 78.5h159q0 -113 -62 -196t-161 -83q-52 0 -85.5 17.5t-64.5 48.5zM361 0l-349 1064
h306l199 -806h11l223 806h296l-370 -1064h-316z" />
    <glyph glyph-name="Vdotbelow" unicode="&#x1e7e;" horiz-adv-x="1261" 
d="M498 -262q0 59 39 98t94 39q59 0 98.5 -39t39.5 -98q0 -56 -39.5 -94t-98.5 -38q-55 0 -94 38t-39 94zM809 0h-353l-449 1365h335l292 -1044h12l288 1044h321z" />
    <glyph glyph-name="vdotbelow" unicode="&#x1e7f;" horiz-adv-x="1058" 
d="M397 -262q0 59 39 98t94 39q59 0 98.5 -39t39.5 -98q0 -56 -39.5 -94t-98.5 -38q-55 0 -94 38t-39 94zM361 0l-349 1064h306l199 -806h11l223 806h296l-370 -1064h-316z" />
    <glyph glyph-name="Wgrave" unicode="&#x1e80;" horiz-adv-x="1763" 
d="M1023 1504h-234l-305 214h278zM630 0h-268l-357 1365h311l196 -955h11l236 955h247l235 -955h12l195 955h310l-357 -1365h-268l-246 921h-10z" />
    <glyph glyph-name="wgrave" unicode="&#x1e81;" horiz-adv-x="1584" 
d="M958 1230h-236l-263 290h283zM1565 1064l-275 -1064h-293l-197 745h-9l-194 -745h-296l-282 1064h295l148 -774h11l191 774h264l195 -774h11l151 774h280z" />
    <glyph glyph-name="Wacute" unicode="&#x1e82;" horiz-adv-x="1763" 
d="M719 1504l271 222h290l-316 -222h-245zM630 0h-268l-357 1365h311l196 -955h11l236 955h247l235 -955h12l195 955h310l-357 -1365h-268l-246 921h-10z" />
    <glyph glyph-name="wacute" unicode="&#x1e83;" horiz-adv-x="1584" 
d="M903 1226h-236l207 294h283zM1565 1064l-275 -1064h-293l-197 745h-9l-194 -745h-296l-282 1064h295l148 -774h11l191 774h264l195 -774h11l151 774h280z" />
    <glyph glyph-name="Wdieresis" unicode="&#x1e84;" horiz-adv-x="1763" 
d="M604 1581q0 49 30.5 79t81.5 30t81.5 -30t30.5 -79q0 -48 -30.5 -78t-81.5 -30q-50 0 -81 30t-31 78zM962 1581q0 49 30 79t81 30t82 -30t31 -79t-30.5 -78.5t-82.5 -29.5q-51 0 -81 30t-30 78zM630 0h-268l-357 1365h311l196 -955h11l236 955h247l235 -955h12l195 955
h310l-357 -1365h-268l-246 921h-10z" />
    <glyph glyph-name="wdieresis" unicode="&#x1e85;" horiz-adv-x="1584" 
d="M469 1296q0 54 34 87.5t90 33.5q57 0 91 -33.5t34 -87.5t-34 -87t-91 -33q-55 0 -89.5 33.5t-34.5 86.5zM873 1296q0 54 34 87.5t89 33.5q57 0 91 -33.5t34 -87.5t-34 -87t-91 -33q-55 0 -89 33.5t-34 86.5zM1565 1064l-275 -1064h-293l-197 745h-9l-194 -745h-296
l-282 1064h295l148 -774h11l191 774h264l195 -774h11l151 774h280z" />
    <glyph glyph-name="Wdotaccent" unicode="&#x1e86;" horiz-adv-x="1763" 
d="M755 1605q0 56 36 92.5t91 36.5q56 0 93.5 -37t37.5 -92t-37.5 -90.5t-93.5 -35.5q-55 0 -91 35.5t-36 90.5zM630 0h-268l-357 1365h311l196 -955h11l236 955h247l235 -955h12l195 955h310l-357 -1365h-268l-246 921h-10z" />
    <glyph glyph-name="wdotaccent" unicode="&#x1e87;" horiz-adv-x="1584" 
d="M666 1303q0 56 36 92.5t91 36.5q56 0 93.5 -37t37.5 -92t-37.5 -90.5t-93.5 -35.5q-55 0 -91 35.5t-36 90.5zM1565 1064l-275 -1064h-293l-197 745h-9l-194 -745h-296l-282 1064h295l148 -774h11l191 774h264l195 -774h11l151 774h280z" />
    <glyph glyph-name="Wdotbelow" unicode="&#x1e88;" horiz-adv-x="1763" 
d="M749 -262q0 59 39 98t94 39q59 0 98.5 -39t39.5 -98q0 -56 -39.5 -94t-98.5 -38q-55 0 -94 38t-39 94zM630 0h-268l-357 1365h311l196 -955h11l236 955h247l235 -955h12l195 955h310l-357 -1365h-268l-246 921h-10z" />
    <glyph glyph-name="wdotbelow" unicode="&#x1e89;" horiz-adv-x="1584" 
d="M660 -262q0 59 39 98t94 39q59 0 98.5 -39t39.5 -98q0 -56 -39.5 -94t-98.5 -38q-55 0 -94 38t-39 94zM1565 1064l-275 -1064h-293l-197 745h-9l-194 -745h-296l-282 1064h295l148 -774h11l191 774h264l195 -774h11l151 774h280z" />
    <glyph glyph-name="Xdotaccent" unicode="&#x1e8a;" horiz-adv-x="1198" 
d="M1215 1365l-431 -684l425 -681h-330l-280 472h-13l-280 -472h-313l418 688l-416 677h341l271 -481h13l269 481h326zM472 1605q0 56 36 92.5t91 36.5q56 0 93.5 -37t37.5 -92t-37.5 -90.5t-93.5 -35.5q-55 0 -91 35.5t-36 90.5z" />
    <glyph glyph-name="xdotaccent" unicode="&#x1e8b;" horiz-adv-x="1094" 
d="M743 0l-197 352h-11l-198 -352h-298l327 529l-339 535h325l193 -350h12l198 350h309l-346 -526l339 -538h-314zM421 1303q0 56 36 92.5t91 36.5q56 0 93.5 -37t37.5 -92t-37.5 -90.5t-93.5 -35.5q-55 0 -91 35.5t-36 90.5z" />
    <glyph glyph-name="Xdieresis" unicode="&#x1e8c;" horiz-adv-x="1198" 
d="M1215 1365l-431 -684l425 -681h-330l-280 472h-13l-280 -472h-313l418 688l-416 677h341l271 -481h13l269 481h326zM321 1581q0 49 30.5 79t81.5 30t81.5 -30t30.5 -79q0 -48 -30.5 -78t-81.5 -30q-50 0 -81 30t-31 78zM679 1581q0 49 30 79t81 30t82 -30t31 -79
t-30.5 -78.5t-82.5 -29.5q-51 0 -81 30t-30 78z" />
    <glyph glyph-name="xdieresis" unicode="&#x1e8d;" horiz-adv-x="1094" 
d="M743 0l-197 352h-11l-198 -352h-298l327 529l-339 535h325l193 -350h12l198 350h309l-346 -526l339 -538h-314zM224 1296q0 54 34 87.5t90 33.5q57 0 91 -33.5t34 -87.5t-34 -87t-91 -33q-55 0 -89.5 33.5t-34.5 86.5zM628 1296q0 54 34 87.5t89 33.5q57 0 91 -33.5
t34 -87.5t-34 -87t-91 -33q-55 0 -89 33.5t-34 86.5z" />
    <glyph glyph-name="Ydotaccent" unicode="&#x1e8e;" horiz-adv-x="1164" 
d="M727 0h-289v505l-457 860h319l281 -573h10l282 573h311l-457 -853v-512zM456 1605q0 56 36 92.5t91 36.5q56 0 93.5 -37t37.5 -92t-37.5 -90.5t-93.5 -35.5q-55 0 -91 35.5t-36 90.5z" />
    <glyph glyph-name="ydotaccent" unicode="&#x1e8f;" horiz-adv-x="1099" 
d="M1073 1064q-339 -1015 -343 -1027l-27 -73q-31 -80 -64.5 -136.5t-86 -106t-129 -74t-177.5 -24.5q-96 0 -152 12v200q31 -7 88 -7q94 0 136.5 34t54.5 104l9 34l-363 1064h310l214 -826h12l219 826h299zM423 1303q0 56 36 92.5t91 36.5q56 0 93.5 -37t37.5 -92
t-37.5 -90.5t-93.5 -35.5q-55 0 -91 35.5t-36 90.5z" />
    <glyph glyph-name="Zcircumflex" unicode="&#x1e90;" horiz-adv-x="1183" 
d="M84 0v188l646 931v11h-630v235h980v-187l-644 -930v-12h664v-236h-1016zM232 1495l269 244h190l262 -244h-219l-133 128h-14l-137 -128h-218z" />
    <glyph glyph-name="zcircumflex" unicode="&#x1e91;" horiz-adv-x="1006" 
d="M167 1226l230 308h201l219 -309h-216l-101 176h-9l-113 -175h-211zM84 0v157l497 679v13h-490v215h830v-174l-479 -661v-13h492v-216h-850z" />
    <glyph glyph-name="Zdotbelow" unicode="&#x1e92;" horiz-adv-x="1183" 
d="M459 -262q0 59 39 98t94 39q59 0 98.5 -39t39.5 -98q0 -56 -39.5 -94t-98.5 -38q-55 0 -94 38t-39 94zM84 0v188l646 931v11h-630v235h980v-187l-644 -930v-12h664v-236h-1016z" />
    <glyph glyph-name="zdotbelow" unicode="&#x1e93;" horiz-adv-x="1006" 
d="M370 -262q0 59 39 98t94 39q59 0 98.5 -39t39.5 -98q0 -56 -39.5 -94t-98.5 -38q-55 0 -94 38t-39 94zM84 0v157l497 679v13h-490v215h830v-174l-479 -661v-13h492v-216h-850z" />
    <glyph glyph-name="Zlinebelow" unicode="&#x1e94;" horiz-adv-x="1183" 
d="M84 0v188l646 931v11h-630v235h980v-187l-644 -930v-12h664v-236h-1016zM889 -326h-590v145h590v-145z" />
    <glyph glyph-name="zlinebelow" unicode="&#x1e95;" horiz-adv-x="1006" 
d="M800 -326h-590v145h590v-145zM84 0v157l497 679v13h-490v215h830v-174l-479 -661v-13h492v-216h-850z" />
    <glyph glyph-name="hlinebelow" unicode="&#x1e96;" horiz-adv-x="1210" 
d="M130 0v1437h281v-531h13q26 68 101 121t195 53q170 0 271 -108t101 -296v-676h-282v609q0 115 -53 174t-142 59q-92 0 -148 -60.5t-56 -173.5v-608h-281zM899 -326h-590v145h590v-145z" />
    <glyph glyph-name="tdieresis" unicode="&#x1e97;" horiz-adv-x="757" 
d="M204 1051v264h273v-264h205v-215h-205v-493q0 -75 35 -104.5t116 -29.5q46 0 58 2v-207q-50 -9 -127 -9q-198 0 -279.5 70.5t-81.5 236.5v534h-152v215h158zM24 1542q0 54 34 87.5t90 33.5q57 0 91 -33.5t34 -87.5t-34 -87t-91 -33q-55 0 -89.5 33.5t-34.5 86.5z
M428 1542q0 54 34 87.5t89 33.5q57 0 91 -33.5t34 -87.5t-34 -87t-91 -33q-55 0 -89 33.5t-34 86.5z" />
    <glyph glyph-name="wring" unicode="&#x1e98;" horiz-adv-x="1584" 
d="M1565 1064l-275 -1064h-293l-197 745h-9l-194 -745h-296l-282 1064h295l148 -774h11l191 774h264l195 -774h11l151 774h280zM789 1183q-94 0 -156.5 60t-62.5 152t62.5 151.5t156.5 59.5t156 -59.5t62 -151.5t-62.5 -152t-155.5 -60zM696 1394q0 -40 26 -66.5t66 -26.5
t66.5 26.5t26.5 66.5t-26.5 66.5t-66.5 26.5t-66 -26.5t-26 -66.5z" />
    <glyph glyph-name="yring" unicode="&#x1e99;" horiz-adv-x="1099" 
d="M1073 1064q-339 -1015 -343 -1027l-27 -73q-31 -80 -64.5 -136.5t-86 -106t-129 -74t-177.5 -24.5q-96 0 -152 12v200q31 -7 88 -7q94 0 136.5 34t54.5 104l9 34l-363 1064h310l214 -826h12l219 826h299zM546 1183q-94 0 -156.5 60t-62.5 152t62.5 151.5t156.5 59.5
t156 -59.5t62 -151.5t-62.5 -152t-155.5 -60zM453 1394q0 -40 26 -66.5t66 -26.5t66.5 26.5t26.5 66.5t-26.5 66.5t-66.5 26.5t-66 -26.5t-26 -66.5z" />
    <glyph glyph-name="Adotbelow" unicode="&#x1ea0;" horiz-adv-x="1271" 
d="M302 0h-289l452 1365h343l450 -1365h-309l-101 339h-444zM634 1093h-13l-160 -541h331zM503 -262q0 59 39 98t94 39q59 0 98.5 -39t39.5 -98q0 -56 -39.5 -94t-98.5 -38q-55 0 -94 38t-39 94z" />
    <glyph glyph-name="adotbelow" unicode="&#x1ea1;" horiz-adv-x="1105" 
d="M709 134q-34 -65 -105.5 -107.5t-180.5 -42.5q-157 0 -253.5 87t-96.5 235q0 147 98.5 232t280.5 85h256v103q0 142 -164 142q-78 0 -120 -36t-47 -98h-265q3 71 27.5 130.5t73.5 109t135 78t202 28.5q202 0 319 -87.5t117 -274.5v-718h-265v134h-12zM516 186
q80 0 136 47.5t56 119.5v105h-189q-81 0 -124 -36t-43 -96q0 -67 48 -103.5t116 -36.5zM420 -262q0 59 39 98t94 39q59 0 98.5 -39t39.5 -98q0 -56 -39.5 -94t-98.5 -38q-55 0 -94 38t-39 94z" />
    <glyph glyph-name="Ahookabove" unicode="&#x1ea2;" horiz-adv-x="1271" 
d="M302 0h-289l452 1365h343l450 -1365h-309l-101 339h-444zM634 1093h-13l-160 -541h331zM483 1671v116q45 19 112 19q101 0 161 -46t60 -129q0 -37 -13.5 -68t-38.5 -52.5t-46 -34t-49 -25.5l-84 95q81 26 81 75q0 32 -27 46.5t-68 14.5q-48 0 -88 -11z" />
    <glyph glyph-name="ahookabove" unicode="&#x1ea3;" horiz-adv-x="1105" 
d="M709 134q-34 -65 -105.5 -107.5t-180.5 -42.5q-157 0 -253.5 87t-96.5 235q0 147 98.5 232t280.5 85h256v103q0 142 -164 142q-78 0 -120 -36t-47 -98h-265q3 71 27.5 130.5t73.5 109t135 78t202 28.5q202 0 319 -87.5t117 -274.5v-718h-265v134h-12zM516 186
q80 0 136 47.5t56 119.5v105h-189q-81 0 -124 -36t-43 -96q0 -67 48 -103.5t116 -36.5zM408 1433v123q43 18 112 18q106 0 166.5 -50t60.5 -137q0 -77 -42.5 -124t-122.5 -88l-78 96q49 27 69.5 50t20.5 51q0 33 -26.5 54t-71.5 21q-51 0 -88 -14z" />
    <glyph glyph-name="Acircumflexacute" unicode="&#x1ea4;" horiz-adv-x="1271" 
d="M302 0h-289l452 1365h343l450 -1365h-309l-101 339h-444zM634 1093h-13l-160 -541h331zM277 1504l262 244h190l269 -244h-218l-137 128h-15l-132 -128h-219zM848 1721l174 187h213l-272 -241z" />
    <glyph glyph-name="acircumflexacute" unicode="&#x1ea5;" horiz-adv-x="1105" 
d="M709 134q-34 -65 -105.5 -107.5t-180.5 -42.5q-157 0 -253.5 87t-96.5 235q0 147 98.5 232t280.5 85h256v103q0 142 -164 142q-78 0 -120 -36t-47 -98h-265q3 71 27.5 130.5t73.5 109t135 78t202 28.5q202 0 319 -87.5t117 -274.5v-718h-265v134h-12zM516 186
q80 0 136 47.5t56 119.5v105h-189q-81 0 -124 -36t-43 -96q0 -67 48 -103.5t116 -36.5zM193 1202l262 244h190l269 -244h-218l-137 128h-15l-132 -128h-219zM764 1419l174 187h213l-272 -241z" />
    <glyph glyph-name="Acircumflexgrave" unicode="&#x1ea6;" horiz-adv-x="1271" 
d="M302 0h-289l452 1365h343l450 -1365h-309l-101 339h-444zM634 1093h-13l-160 -541h331zM1153 1668h-175l-255 240h209zM998 1504h-218l-137 128h-15l-132 -128h-219l262 244h190z" />
    </font>
</defs>
</svg>
