<?xml version="1.0" standalone="no"?>
<!DOCTYPE svg PUBLIC "-//W3C//DTD SVG 1.1//EN" "http://www.w3.org/Graphics/SVG/1.1/DTD/svg11.dtd" >
<svg xmlns="http://www.w3.org/2000/svg" xmlns:xlink="http://www.w3.org/1999/xlink" version="1.1">
<metadata>
Created by FontForge 20170731 at Wed Jan 14 10:07:57 2015
 By Aleksey,,,
(c) 2014 Apple Inc. All rights reserved.
</metadata>
<defs>
<font id="SanFranciscoDisplay-Medium" horiz-adv-x="0" >
  <font-face 
    font-family="San Francisco Display Med"
    font-weight="500"
    font-stretch="normal"
    units-per-em="2048"
    panose-1="0 0 0 0 0 0 0 0 0 0"
    ascent="1638"
    descent="-410"
    x-height="1054"
    cap-height="1365"
    bbox="-644 -489 2048 1994"
    underline-thickness="50"
    underline-position="-125"
    unicode-range="U+000D-FB02"
  />
<missing-glyph horiz-adv-x="1293" 
d="M120 0v1365h1053v-1365h-1053zM501 313q0 -47 33.5 -77t86.5 -30q55 0 88.5 29.5t33.5 77.5q0 49 -33.5 78.5t-88.5 29.5q-54 0 -87 -30t-33 -78zM339 888h169q1 59 34.5 94.5t90.5 35.5q54 0 87 -30t33 -80q0 -38 -20.5 -65.5t-82.5 -72.5q-69 -48 -96 -100t-22 -121
l1 -18h166v15q0 48 19 76t88 77q73 52 103 102t30 116q0 113 -81 181.5t-215 68.5q-143 0 -225.5 -76t-78.5 -203z" />
    <glyph glyph-name=".notdef" horiz-adv-x="1293" 
d="M120 0v1365h1053v-1365h-1053zM501 313q0 -47 33.5 -77t86.5 -30q55 0 88.5 29.5t33.5 77.5q0 49 -33.5 78.5t-88.5 29.5q-54 0 -87 -30t-33 -78zM339 888h169q1 59 34.5 94.5t90.5 35.5q54 0 87 -30t33 -80q0 -38 -20.5 -65.5t-82.5 -72.5q-69 -48 -96 -100t-22 -121
l1 -18h166v15q0 48 19 76t88 77q73 52 103 102t30 116q0 113 -81 181.5t-215 68.5q-143 0 -225.5 -76t-78.5 -203z" />
    <glyph glyph-name=".null" 
 />
    <glyph glyph-name="nonmarkingreturn" horiz-adv-x="682" 
 />
    <glyph glyph-name="CR" unicode="&#xd;" 
 />
    <glyph glyph-name="space" unicode=" " horiz-adv-x="408" 
 />
    <glyph glyph-name="exclam" unicode="!" horiz-adv-x="529" 
d="M134 102q0 55 36.5 89t92.5 34q60 0 96.5 -34t36.5 -89q0 -52 -37 -86t-96 -34q-55 0 -92 34t-37 86zM154 1365h226l-25 -956h-177z" />
    <glyph glyph-name="quotedbl" unicode="&#x22;" horiz-adv-x="850" 
d="M104 1365h223l-29 -516h-165zM523 1365h223l-29 -516h-165z" />
    <glyph glyph-name="numbersign" unicode="#" horiz-adv-x="1203" 
d="M1149 840h-215l-62 -302h204l-31 -156h-205l-77 -382h-158l77 382h-268l-78 -382h-158l76 382h-201l31 156h203l61 302h-192l30 154h194l74 371h160l-76 -371h270l74 371h158l-75 -371h214zM501 847l-65 -317h283l65 317h-283z" />
    <glyph glyph-name="dollar" unicode="$" horiz-adv-x="1114" 
d="M279 1018q0 -128 161 -189q34 -12 52 -17v411q-96 -12 -154.5 -65t-58.5 -140zM868 376q0 78 -47.5 129t-162.5 86q-5 1 -15 3.5t-15 3.5v-442q109 9 174.5 66.5t65.5 153.5zM628 -129h-137v126q-208 16 -317.5 124.5t-111.5 258.5h184q6 -89 69 -148.5t177 -74.5v472
l-77 20q-65 16 -119.5 43t-101 69t-73 104t-26.5 139q0 112 53.5 195.5t141 127.5t201.5 55v131h138v-131q172 -16 283.5 -115.5t115.5 -256.5h-180q-3 82 -62 141t-158 72v-444l80 -20q168 -42 256 -128t88 -241q0 -174 -116.5 -274.5t-307.5 -116.5v-128z" />
    <glyph glyph-name="percent" unicode="%" horiz-adv-x="1394" 
d="M155 1036v-8q0 -101 37 -161t105 -60q66 0 104 59.5t38 158.5v9q0 100 -37 159t-105 59q-69 0 -105.5 -60t-36.5 -156zM14 1018v28q0 141 76.5 236.5t206.5 95.5t206.5 -95t76.5 -240v-28q0 -142 -77 -238.5t-209 -96.5q-130 0 -205 96t-75 242zM956 344v-8
q0 -100 37.5 -160.5t104.5 -60.5t105 59.5t38 159.5v8q0 100 -37 159t-105 59q-69 0 -106 -60t-37 -156zM816 326v28q0 142 76.5 237t206.5 95t206.5 -95t76.5 -240v-27q0 -143 -77 -239.5t-209 -96.5q-130 0 -205 96t-75 242zM256 0h-167l534 695l510 670h167l-530 -690z
" />
    <glyph glyph-name="ampersand" unicode="&#x26;" horiz-adv-x="1316" 
d="M1087 0l-118 127q-91 -80 -203.5 -117t-225.5 -37q-202 0 -332 104.5t-130 280.5q0 126 69 215t194 158q41 21 53 27q-81 85 -124.5 157t-43.5 156q0 130 101 218t255 88q150 0 252 -85t102 -222q0 -61 -22 -113t-64.5 -94.5t-88.5 -74.5t-111 -66l312 -339
q59 111 59 343v49h178v-54q0 -300 -112 -467l241 -254h-241zM454 623q-89 -49 -135.5 -108t-46.5 -143q0 -115 83 -178t203 -63q80 0 162 29.5t137 87.5l-361 397l-19 -9.5t-23 -12.5zM548 827q104 53 156 105.5t52 129.5q0 75 -49 121.5t-124 46.5q-77 0 -125.5 -47.5
t-48.5 -122.5q0 -52 30.5 -103.5t108.5 -129.5z" />
    <glyph glyph-name="quotesingle" unicode="'" horiz-adv-x="431" 
d="M104 1365h223l-29 -516h-165z" />
    <glyph glyph-name="parenleft" unicode="(" horiz-adv-x="635" 
d="M391 1363h174q-35 -40 -71 -104t-75.5 -161.5t-64 -237t-24.5 -292.5q0 -124 17.5 -240.5t38.5 -194.5t59.5 -166t59 -125.5t58.5 -103.5h-182q-46 56 -85.5 125t-80 170.5t-64.5 239.5t-24 293q0 127 17 238t40.5 187.5t62.5 152t69 119t75 100.5z" />
    <glyph glyph-name="parenright" unicode=")" horiz-adv-x="635" 
d="M69 1363h173q45 -57 75 -100t70 -119t63.5 -152.5t40.5 -187.5t17 -238q0 -155 -24.5 -293t-66 -239.5t-81 -170t-85.5 -125.5h-180q39 67 58.5 103.5t58.5 125.5t59.5 166t38 194t17.5 241q0 153 -24.5 292.5t-64 237t-75 161.5t-70.5 104z" />
    <glyph glyph-name="asterisk" unicode="*" horiz-adv-x="748" 
d="M435 750h-122l16 236l-198 -132l-62 108l213 104l-213 104l62 109l198 -135l-16 239h122l-17 -239l200 135l61 -108l-214 -105l214 -104l-61 -108l-199 132z" />
    <glyph glyph-name="plus" unicode="+" horiz-adv-x="1114" 
d="M642 461v-439h-169v439h-403v168h403v418h169v-418h404v-168h-404z" />
    <glyph glyph-name="comma" unicode="," horiz-adv-x="437" 
d="M170 -236h-148l110 444h209z" />
    <glyph glyph-name="hyphen" unicode="-" horiz-adv-x="787" 
d="M708 470h-630v180h630v-180z" />
    <glyph glyph-name="period" unicode="." horiz-adv-x="499" 
d="M124 105q0 55 36 89.5t89 34.5q55 0 91.5 -35t36.5 -89t-36.5 -89t-91.5 -35q-53 0 -89 35t-36 89z" />
    <glyph glyph-name="slash" unicode="/" horiz-adv-x="689" 
d="M191 -302h-180l490 1739h180z" />
    <glyph glyph-name="zero" unicode="0" horiz-adv-x="1167" 
d="M296 732v-100q0 -232 76.5 -358.5t211.5 -126.5q134 0 210.5 126.5t76.5 358.5v100q0 232 -76.5 359t-210.5 127q-135 0 -211.5 -127t-76.5 -359zM91 630v103q0 305 129.5 482.5t364.5 177.5q236 0 363.5 -177t127.5 -483v-103q0 -301 -128 -479.5t-365 -178.5
q-235 0 -363.5 177t-128.5 481z" />
    <glyph glyph-name="one" unicode="1" horiz-adv-x="817" 
d="M632 0h-204v1150h-5q-44 -24 -152.5 -92t-166.5 -108v208q63 45 166 108.5t168 98.5h194v-1365z" />
    <glyph glyph-name="two" unicode="2" horiz-adv-x="1118" 
d="M308 978h-199v9q0 79 28.5 151t82.5 129.5t139.5 91.5t191.5 34q196 0 316.5 -106.5t120.5 -270.5q0 -26 -4 -51.5t-7.5 -46t-16 -47t-18.5 -41t-25.5 -43t-26 -39t-32 -42t-31.5 -38.5t-37 -42.5t-36 -41.5l-349 -405v-4h609v-175h-894v129l506 574q36 41 56.5 66.5
t47 65.5t39 81t12.5 84q0 99 -66 160t-168 61q-109 0 -174.5 -68.5t-65.5 -165.5q0 -1 1 -5v-4z" />
    <glyph glyph-name="three" unicode="3" horiz-adv-x="1140" 
d="M411 619v170h134q110 0 179 62t69 160q-1 95 -66.5 154t-173.5 59q-112 0 -172 -63t-67 -147h-195q2 73 31 140t82 121t137 86t187 32q193 0 315.5 -99.5t126.5 -250.5q3 -134 -76.5 -223.5t-170.5 -103.5v-5q37 -3 76 -16.5t78 -41t70 -64.5t51 -91t21 -118
q3 -177 -140 -293t-359 -116q-218 0 -336 111t-124 280h192q13 -98 82.5 -159t191.5 -61q134 0 210.5 67.5t74.5 175.5q-2 106 -77.5 170t-208.5 64h-142z" />
    <glyph glyph-name="four" unicode="4" horiz-adv-x="1177" 
d="M645 1365h297v-917h175v-175h-175v-273h-195v273h-662v173q59 107 135 235t132.5 218.5t152 242t140.5 223.5zM282 448h465v748h-5q-274 -415 -460 -746v-2z" />
    <glyph glyph-name="five" unicode="5" horiz-adv-x="1194" 
d="M129 351h195q15 -99 89.5 -153.5t188.5 -54.5q52 0 102 20t92 56.5t67.5 95t25.5 128.5q0 134 -81.5 215.5t-203.5 81.5q-108 0 -178 -49.5t-103 -120.5h-177l71 797h776v-174h-606l-42 -404h5q31 42 111.5 79.5t182.5 37.5q122 0 224.5 -55.5t164.5 -161t62 -239.5
q0 -212 -143 -345t-360 -133q-209 0 -331 109t-132 270z" />
    <glyph glyph-name="six" unicode="6" horiz-adv-x="1145" 
d="M1033 1041h-201q-7 66 -68.5 122.5t-162.5 56.5q-137 0 -224 -135t-93 -395h6q32 81 121.5 140.5t213.5 59.5q85 0 163.5 -30t141.5 -84.5t100.5 -141t37.5 -191.5q0 -216 -136 -343t-342 -127q-233 0 -368 168.5t-135 495.5q0 367 142 560t379 193q95 0 175 -31
t131.5 -81.5t82.5 -111.5t36 -125zM312 432q0 -135 81.5 -211.5t198.5 -76.5q116 0 196 75t80 214q0 70 -23.5 126.5t-63 91.5t-88 53.5t-102.5 18.5q-118 0 -198.5 -78t-80.5 -213z" />
    <glyph glyph-name="seven" unicode="7" horiz-adv-x="1087" 
d="M89 1365h890v-181l-557 -1184h-216l574 1186v4h-691v175z" />
    <glyph glyph-name="eight" unicode="8" horiz-adv-x="1189" 
d="M595 134q127 0 210.5 69.5t83.5 179.5q0 111 -83.5 181t-210.5 70t-211 -70t-84 -181q0 -110 84 -179.5t211 -69.5zM595 790q107 0 176 62t69 160q0 96 -69 156.5t-176 60.5t-176 -60.5t-69 -156.5q0 -98 69.5 -160t175.5 -62zM591 -28q-220 0 -357 111.5t-137 289.5
q0 62 18 116t46.5 91.5t66.5 66.5t75 45.5t74 25.5v4q-90 29 -157.5 107t-67.5 200q0 159 124.5 261.5t318.5 102.5q195 0 319.5 -102.5t124.5 -261.5q0 -64 -21 -119t-56 -91.5t-72 -60t-77 -36.5v-4q48 -11 94 -36t89 -65.5t69 -103.5t26 -139q0 -177 -140 -289.5
t-360 -112.5z" />
    <glyph glyph-name="nine" unicode="9" horiz-adv-x="1145" 
d="M104 339h200q10 -76 76.5 -135t175.5 -59q153 0 235 144.5t81 385.5h-9q-30 -84 -120.5 -142t-225.5 -58q-83 0 -159 29.5t-136.5 84.5t-96 142t-35.5 194t39 196.5t104 147.5t149.5 90t176.5 32q242 0 376.5 -166.5t134.5 -518.5q0 -344 -138 -537.5t-384 -193.5
q-84 0 -156 22t-122.5 58.5t-87.5 84t-56 98t-22 101.5zM847 925q0 142 -78.5 219t-199.5 77q-115 0 -197 -76t-82 -215t78.5 -214t195.5 -75q116 0 199.5 80.5t83.5 203.5z" />
    <glyph glyph-name="colon" unicode=":" horiz-adv-x="537" 
d="M139 812q0 54 36.5 89t88.5 35q55 0 91.5 -35t36.5 -89t-36.5 -89t-91.5 -35q-52 0 -88.5 35t-36.5 89zM139 105q0 54 36.5 89t88.5 35q55 0 91.5 -35t36.5 -89t-36.5 -89t-91.5 -35q-52 0 -88.5 35t-36.5 89z" />
    <glyph glyph-name="semicolon" unicode=";" horiz-adv-x="537" 
d="M141 812q0 55 36 89.5t89 34.5q55 0 91.5 -35t36.5 -89t-36.5 -89t-91.5 -35q-53 0 -89 35t-36 89zM204 -254h-149l107 444h208z" />
    <glyph glyph-name="less" unicode="&#x3c;" horiz-adv-x="1114" 
d="M118 440v151l876 514v-209l-655 -369v-10l655 -351v-208z" />
    <glyph glyph-name="equal" unicode="=" horiz-adv-x="1114" 
d="M990 274h-866v161h866v-161zM990 658h-866v163h866v-163z" />
    <glyph glyph-name="greater" unicode="&#x3e;" horiz-adv-x="1114" 
d="M995 591v-151l-877 -482v208l657 351v10l-657 369v209z" />
    <glyph glyph-name="question" unicode="?" horiz-adv-x="956" 
d="M323 102q0 55 36.5 89t92.5 34q60 0 96.5 -34t36.5 -89q0 -52 -37 -86t-96 -34q-55 0 -92 34t-37 86zM59 1000q-1 86 23.5 155t66 113.5t98 74t115.5 41.5t122 12q111 0 202.5 -37t151 -118t59.5 -194q0 -60 -15.5 -109.5t-48 -90t-59 -64.5t-72.5 -60q-68 -53 -95 -78
t-45 -64t-18 -95v-58h-191l-1 78q-2 68 25.5 128t65 98.5t96.5 83.5q44 34 64.5 51.5t45 45.5t33.5 57t9 66q0 96 -62 144t-155 48q-108 0 -166 -63.5t-59 -164.5h-190z" />
    <glyph glyph-name="at" unicode="@" horiz-adv-x="1682" 
d="M1254 133q-98 0 -160 41t-75 99h-10q-15 -55 -77 -97.5t-145 -42.5q-125 0 -195.5 89t-70.5 239v97q0 145 72.5 234t200.5 89q82 0 134 -39.5t68 -91.5h8v116h154v-490q0 -55 32.5 -85t84.5 -30q76 0 128.5 86t52.5 251v34q0 110 -40 208.5t-112.5 174.5t-185 120.5
t-248.5 44.5h-8q-132 0 -245.5 -45t-196.5 -127t-130 -203.5t-47 -267.5v-45q0 -155 49 -277t134 -197t194 -114t235 -39h8q203 0 314 49v-136q-99 -46 -317 -46h-9q-160 0 -296.5 48.5t-240.5 140.5t-163 237t-59 328v57q0 173 58 318t160.5 243.5t244.5 153.5t307 55h8
q172 0 313.5 -56t231.5 -151t139 -215.5t49 -253.5v-50q0 -204 -97.5 -329t-251.5 -125zM684 483q0 -109 41.5 -160t115.5 -51q71 0 113 49t42 153v81q0 94 -44.5 145t-112.5 51q-69 0 -112 -52.5t-43 -154.5v-61z" />
    <glyph glyph-name="A" unicode="A" horiz-adv-x="1218" 
d="M230 0h-209l476 1365h223l476 -1365h-221l-127 391h-490zM607 1141h-7l-193 -590h392z" />
    <glyph glyph-name="B" unicode="B" horiz-adv-x="1234" 
d="M158 0v1365h531q175 0 281 -89.5t106 -246.5q0 -120 -60.5 -196t-163.5 -105v-9q139 -17 219 -106t80 -230q0 -182 -131.5 -282.5t-344.5 -100.5h-517zM363 1197v-413h199q155 0 231.5 50.5t76.5 159.5q0 101 -60.5 152t-160.5 51h-286zM363 621v-452h225q82 0 142.5 9.5
t110 33t75 67.5t25.5 109q0 114 -73 173.5t-200 59.5h-305z" />
    <glyph glyph-name="C" unicode="C" horiz-adv-x="1258" 
d="M310 764v-171q0 -222 91.5 -331t253.5 -109q146 0 227 79.5t81 196.5h201v-11q0 -64 -19.5 -126.5t-61.5 -120.5t-101.5 -102t-145.5 -70.5t-187 -26.5q-256 0 -401 160.5t-145 459.5v174q0 300 146.5 463.5t400.5 163.5q121 0 221 -40t162.5 -106t96.5 -149t34 -172v-10
h-201q0 56 -20.5 108.5t-58.5 95t-98.5 68t-134.5 25.5q-157 0 -249 -114t-92 -335z" />
    <glyph glyph-name="D" unicode="D" horiz-adv-x="1303" 
d="M158 1365h457q129 0 231.5 -33t171.5 -91.5t114.5 -144.5t66 -187.5t20.5 -224.5q0 -121 -19.5 -222t-64.5 -188t-114 -147t-172 -93.5t-234 -33.5h-457v1365zM364 1189v-1012h233q207 0 308 125t101 379q0 508 -409 508h-233z" />
    <glyph glyph-name="E" unicode="E" horiz-adv-x="1107" 
d="M996 177v-177h-838v1365h838v-177h-633v-408h597v-170h-597v-433h633z" />
    <glyph glyph-name="F" unicode="F" horiz-adv-x="1042" 
d="M364 0h-206v1365h827v-178h-621v-437h569v-176h-569v-574z" />
    <glyph glyph-name="G" unicode="G" horiz-adv-x="1283" 
d="M1177 942h-203q-16 133 -103.5 202t-212.5 69q-154 0 -251.5 -108.5t-97.5 -327.5v-182q0 -208 88 -325.5t259 -117.5q143 0 234 79.5t91 202.5v116h-329v170h528v-279q0 -61 -16 -122.5t-55.5 -125t-97.5 -112t-150 -79t-205 -30.5q-272 0 -412.5 167t-140.5 456v183
q0 287 151 451t408 164q119 0 216.5 -37t160 -100.5t98 -143.5t40.5 -170z" />
    <glyph glyph-name="H" unicode="H" horiz-adv-x="1377" 
d="M1220 0h-206v615h-650v-615h-206v1365h206v-572h650v572h206v-1365z" />
    <glyph glyph-name="I" unicode="I" horiz-adv-x="521" 
d="M364 0h-206v1365h206v-1365z" />
    <glyph glyph-name="J" unicode="J" horiz-adv-x="997" 
d="M25 338h200q3 -83 59.5 -131.5t138.5 -48.5q101 0 158.5 58t57.5 180v969h207v-956q0 -215 -114 -326t-308 -111q-184 0 -291.5 103t-107.5 263z" />
    <glyph glyph-name="K" unicode="K" horiz-adv-x="1209" 
d="M1177 1365l-502 -583l527 -782h-256l-423 641l-159 -175v-466h-206v1365h206v-644h9l568 644h236z" />
    <glyph glyph-name="L" unicode="L" horiz-adv-x="999" 
d="M976 181v-181h-818v1365h206v-1184h612z" />
    <glyph glyph-name="M" unicode="M" horiz-adv-x="1600" 
d="M347 0h-185v1365h204l432 -998h5l431 998h204v-1365h-186v963h-8l-366 -830h-157l-367 830h-7v-963z" />
    <glyph glyph-name="N" unicode="N" horiz-adv-x="1368" 
d="M357 0h-199v1365h187l659 -1014h6v1014h200v-1365h-187l-660 1016h-6v-1016z" />
    <glyph glyph-name="O" unicode="O" horiz-adv-x="1324" 
d="M310 774v-194q0 -211 97 -319.5t254 -108.5q158 0 255 108.5t97 319.5v194q0 211 -97.5 325.5t-254.5 114.5q-156 0 -253.5 -114.5t-97.5 -325.5zM103 580v192q0 289 151 455t409 166t408 -165.5t150 -455.5v-192q0 -287 -151 -447.5t-410 -160.5t-408 160.5t-149 447.5z
" />
    <glyph glyph-name="P" unicode="P" horiz-adv-x="1165" 
d="M158 1365h513q201 0 322 -121t121 -314q0 -194 -121 -313t-323 -119h-307v-498h-205v1365zM363 1191v-522h192q87 0 147.5 11.5t107.5 40t70 80t23 129.5q0 124 -68 192.5t-190 68.5h-282z" />
    <glyph glyph-name="Q" unicode="Q" horiz-adv-x="1327" 
d="M104 587v190q0 288 151 452t407 164q257 0 408.5 -164.5t151.5 -451.5v-190q0 -312 -178 -477l183 -258h-220l-118 164q-104 -44 -227 -44q-256 0 -407 163.5t-151 451.5zM308 777v-191q0 -214 97.5 -326.5t254.5 -114.5q70 0 123 23l-163 226h215l91 -122q92 115 92 314
v191q0 212 -98.5 324.5t-257.5 112.5q-158 0 -256 -112.5t-98 -324.5z" />
    <glyph glyph-name="R" unicode="R" horiz-adv-x="1228" 
d="M668 1365q113 0 201 -33t142 -91t81.5 -132t27.5 -159q0 -80 -23 -147t-61 -112.5t-80 -75t-88 -46.5l277 -569h-233l-248 532h-302v-532h-204v1365h510zM362 701h272q133 0 203 62t70 178q0 122 -72 187t-195 65h-278v-492z" />
    <glyph glyph-name="S" unicode="S" horiz-adv-x="1172" 
d="M60 375h203q10 -99 93 -163.5t226 -64.5q136 0 215 60t79 163q0 80 -52.5 128t-166.5 76l-230 58q-68 17 -124 45t-103.5 70.5t-74 106t-26.5 142.5q0 125 68.5 217.5t177 137.5t239.5 45q129 0 236 -43.5t176 -134.5t71 -216h-199q-9 97 -82.5 159t-204.5 62
q-124 0 -199.5 -56.5t-75.5 -155.5q0 -144 191 -190l228 -58q65 -16 117 -37t98.5 -52.5t77 -71t48.5 -94t18 -121.5q0 -196 -144.5 -305.5t-375.5 -109.5q-107 0 -194 24.5t-143 64.5t-94 93.5t-54.5 108.5t-18.5 112z" />
    <glyph glyph-name="T" unicode="T" horiz-adv-x="1054" 
d="M629 0h-204v1186h-407v179h1018v-179h-407v-1186z" />
    <glyph glyph-name="U" unicode="U" horiz-adv-x="1341" 
d="M348 1365v-881q0 -153 87 -242t235 -89t236 89.5t88 241.5v881h205v-891q0 -226 -145.5 -364t-383.5 -138q-237 0 -382.5 139t-145.5 366v888h206z" />
    <glyph glyph-name="V" unicode="V" horiz-adv-x="1214" 
d="M721 0h-227l-480 1365h236l357 -1114h8l354 1114h231z" />
    <glyph glyph-name="W" unicode="W" horiz-adv-x="1698" 
d="M569 0h-187l-371 1365h233l238 -1037h7l261 1037h198l260 -1037h8l238 1037h232l-371 -1365h-187l-276 1030h-7z" />
    <glyph glyph-name="X" unicode="X" horiz-adv-x="1144" 
d="M1144 1365l-447 -688l439 -677h-243l-324 521h-11l-326 -521h-229l439 688l-433 677h245l324 -525h11l320 525h235z" />
    <glyph glyph-name="Y" unicode="Y" horiz-adv-x="1108" 
d="M656 0h-205v565l-456 800h232l324 -597h7l327 597h228l-457 -797v-568z" />
    <glyph glyph-name="Z" unicode="Z" horiz-adv-x="1156" 
d="M83 0v141l708 1041v6h-685v177h937v-139l-703 -1042v-6h721v-178h-978z" />
    <glyph glyph-name="bracketleft" unicode="[" horiz-adv-x="668" 
d="M127 1365h463v-150h-270v-1293h283v-150h-476v1593z" />
    <glyph glyph-name="backslash" unicode="\" horiz-adv-x="689" 
d="M681 -302h-180l-490 1739h180z" />
    <glyph glyph-name="bracketright" unicode="]" horiz-adv-x="668" 
d="M78 1365h463v-1593h-475v150h283v1293h-271v150z" />
    <glyph glyph-name="asciicircum" unicode="^" horiz-adv-x="795" 
d="M751 795h-173l-177 408h-7l-179 -408h-171l262 570h185z" />
    <glyph glyph-name="underscore" unicode="_" horiz-adv-x="846" 
d="M873 -260h-901v157h901v-157z" />
    <glyph glyph-name="grave" unicode="`" horiz-adv-x="946" 
d="M588 1215h-164l-237 277h208z" />
    <glyph glyph-name="a" unicode="a" horiz-adv-x="1072" 
d="M733 138q-41 -68 -116.5 -111.5t-184.5 -43.5q-154 0 -249 87t-95 232q0 142 96.5 225.5t274.5 83.5h271v118q0 175 -204 175q-189 0 -205 -158h-194q7 148 107.5 236.5t299.5 88.5q188 0 293 -84t105 -260v-727h-192v138h-7zM491 143q102 0 170.5 61.5t68.5 152.5v111
h-243q-97 0 -146 -42t-49 -114q0 -82 57.5 -125.5t141.5 -43.5z" />
    <glyph glyph-name="b" unicode="b" horiz-adv-x="1166" 
d="M658 -16q-118 0 -197.5 49t-110.5 127h-7v-160h-195v1437h202v-531h6q89 164 307 164q194 0 300.5 -130.5t106.5 -352.5v-117q0 -230 -109 -358t-303 -128zM610 154q116 0 185 84.5t69 240.5v91q0 159 -67 245.5t-187 86.5q-119 0 -189.5 -90t-70.5 -231v-111
q0 -85 27 -155t87 -115.5t146 -45.5z" />
    <glyph glyph-name="c" unicode="c" horiz-adv-x="1040" 
d="M95 473v113q0 215 119 350.5t329 135.5q189 0 299.5 -100t112.5 -239h-193q-8 65 -65 118t-150 53q-123 0 -186.5 -90.5t-63.5 -232.5v-109q0 -139 66.5 -227t183.5 -88q97 0 152 42t70 108h193q-5 -136 -119.5 -230.5t-299.5 -94.5q-212 0 -330 134.5t-118 356.5z" />
    <glyph glyph-name="d" unicode="d" horiz-adv-x="1168" 
d="M505 1071q118 0 197.5 -46.5t107.5 -118.5h6v531h202v-1437h-195v160h-7q-21 -72 -105 -123.5t-206 -51.5q-196 0 -302.5 130t-106.5 349v127q0 217 107 348.5t302 131.5zM555 901q-126 0 -190 -91t-64 -245v-74q0 -157 65 -247.5t193 -90.5q121 0 189 88t68 248v82
q0 153 -69.5 241.5t-191.5 88.5z" />
    <glyph glyph-name="e" unicode="e" horiz-adv-x="1075" 
d="M554 -18q-222 0 -340.5 134t-118.5 361v93q0 228 116.5 365t329.5 137q215 0 329.5 -136.5t114.5 -363.5v-92h-689v-30q0 -128 65.5 -214.5t191.5 -86.5q97 0 150.5 42.5t67.5 105.5h201q-8 -56 -34.5 -108t-74 -100t-127.5 -77.5t-182 -29.5zM296 628h490v3
q0 123 -66 200.5t-179 77.5t-179 -78t-66 -200v-3z" />
    <glyph glyph-name="f" unicode="f" horiz-adv-x="701" 
d="M214 0v887h-151v163h151v105q0 153 80 224.5t250 71.5q33 0 90 -6v-156q-45 3 -58 3q-85 0 -124 -33.5t-39 -119.5v-89h205v-163h-202v-887h-202z" />
    <glyph glyph-name="g" unicode="g" horiz-adv-x="1134" 
d="M538 -230q132 0 199 65.5t67 187.5v153h-7q-32 -71 -113 -118t-188 -47q-179 0 -295.5 125t-116.5 336v132q0 210 116.5 338t298.5 128q120 0 194.5 -46.5t109.5 -117.5h6v148h196v-1033q0 -107 -35.5 -188t-100.5 -130t-149.5 -73t-188.5 -24q-203 0 -310 90.5
t-114 221.5h203q9 -64 67 -106t161 -42zM553 902q-122 0 -193.5 -87t-71.5 -235v-94q0 -146 73.5 -228.5t193.5 -82.5q116 0 182 86t66 215v105q0 139 -67.5 230t-182.5 91z" />
    <glyph glyph-name="h" unicode="h" horiz-adv-x="1177" 
d="M149 0v1437h202v-526h8q27 63 101 111.5t192 48.5q174 0 279.5 -113t105.5 -297v-661h-202v617q0 128 -62 202t-175 74q-116 0 -181.5 -72t-65.5 -204v-617h-202z" />
    <glyph glyph-name="i" unicode="i" horiz-adv-x="541" 
d="M170 0v1054h201v-1054h-201zM145 1312q0 50 35.5 83t88.5 33q56 0 91.5 -32.5t35.5 -83.5t-35.5 -84t-91.5 -33q-53 0 -88.5 33.5t-35.5 83.5z" />
    <glyph glyph-name="j" unicode="j" horiz-adv-x="541" 
d="M145 1312q0 50 35.5 83t88.5 33q56 0 91.5 -32.5t35.5 -83.5t-35.5 -84t-91.5 -33q-53 0 -88.5 33.5t-35.5 83.5zM371 1054v-1080q0 -177 -80 -261.5t-226 -84.5q-66 0 -102 9v154q25 -5 63 -5q77 0 110.5 45t33.5 145v1078h201z" />
    <glyph glyph-name="k" unicode="k" horiz-adv-x="1041" 
d="M350 382v-382h-202v1437h202v-848h9l406 465h231l-405 -457l432 -597h-239l-343 476z" />
    <glyph glyph-name="l" unicode="l" horiz-adv-x="507" 
d="M153 0v1437h201v-1437h-201z" />
    <glyph glyph-name="m" unicode="m" horiz-adv-x="1749" 
d="M146 0v1054h199v-136h10q28 62 98.5 107.5t171.5 45.5q119 0 195 -45.5t106 -127.5h9q31 73 115.5 123t206.5 50q165 0 258 -95t93 -258v-718h-201v671q0 103 -55.5 163.5t-157.5 60.5q-103 0 -160.5 -65t-57.5 -173v-657h-198v657q0 116 -57 177t-158 61q-94 0 -155 -62
t-61 -174v-659h-201z" />
    <glyph glyph-name="n" unicode="n" horiz-adv-x="1171" 
d="M146 0v1054h199v-143h7q31 67 111 113.5t192 46.5q164 0 269.5 -98t105.5 -274v-699h-203v630q0 263 -237 263q-116 0 -179.5 -69.5t-63.5 -200.5v-623h-201z" />
    <glyph glyph-name="o" unicode="o" horiz-adv-x="1115" 
d="M558 1072q227 0 344.5 -136.5t117.5 -366.5v-81q0 -234 -117 -370t-345 -136q-229 0 -346 135.5t-117 370.5v80q0 225 118.5 364.5t344.5 139.5zM558 906q-58 0 -103.5 -19t-74.5 -51t-48 -77.5t-27 -95t-8 -107.5v-57q0 -58 8 -108t26.5 -95t48 -77t75 -50.5
t103.5 -18.5q72 0 124 27.5t80.5 78t41 110t12.5 133.5v57q0 58 -7.5 107.5t-26 95t-47.5 77.5t-74 51t-103 19z" />
    <glyph glyph-name="p" unicode="p" horiz-adv-x="1164" 
d="M660 -16q-116 0 -191.5 44.5t-112.5 115.5h-7v-506h-202v1417h195v-149h7q33 75 114.5 119.5t202.5 44.5q181 0 290.5 -126t109.5 -349v-137q0 -223 -110 -348.5t-296 -125.5zM610 154q115 0 183.5 83.5t68.5 242.5v95q0 157 -67.5 242t-188.5 85q-119 0 -188 -86
t-69 -226v-119q0 -136 70 -226.5t191 -90.5z" />
    <glyph glyph-name="q" unicode="q" horiz-adv-x="1163" 
d="M504 1070q118 0 196.5 -44t113.5 -120h7v148h195v-1416h-202v506h-7q-34 -72 -113.5 -116t-192.5 -44q-189 0 -297 127.5t-108 347.5v140q0 215 111 343t297 128zM556 900q-124 0 -189.5 -85t-65.5 -239v-98q0 -153 68 -239.5t189 -86.5q122 0 189 91.5t67 230.5v104
q0 150 -68 236t-190 86z" />
    <glyph glyph-name="r" unicode="r" horiz-adv-x="724" 
d="M161 0v1054h201v-130h7q13 29 28.5 50.5t44 45.5t75 37t108.5 13q37 0 70 -5v-181q-27 6 -90 6q-240 0 -240 -250v-640h-204z" />
    <glyph glyph-name="s" unicode="s" horiz-adv-x="998" 
d="M98 750q0 82 32.5 145t89.5 101t127.5 57t151.5 19q181 0 282.5 -88.5t101.5 -229.5h-184q-5 68 -54 117.5t-152 49.5q-90 0 -145 -40.5t-55 -111.5q0 -32 16.5 -57.5t32.5 -39.5t58.5 -27t59.5 -16.5t70 -12.5q6 -1 9.5 -1.5t8.5 -1.5t9 -2q65 -12 113 -25t96 -36
t78 -53.5t48.5 -76.5t18.5 -105q0 -157 -115.5 -245t-312.5 -88q-183 0 -293.5 82.5t-110.5 223.5h196q10 -70 66 -111.5t151 -41.5q112 0 167 43.5t55 112.5q0 81 -90 119q-45 18 -174 43q-67 14 -112 26.5t-94.5 35.5t-78.5 52.5t-48 76t-19 106.5z" />
    <glyph glyph-name="t" unicode="t" horiz-adv-x="683" 
d="M202 1050v264h199v-264h207v-163h-207v-581q0 -89 35.5 -120.5t129.5 -31.5q22 0 48 2v-157q-40 -7 -98 -7q-94 0 -156 17.5t-97 56.5t-49 93.5t-14 136.5v591h-145v163h147z" />
    <glyph glyph-name="u" unicode="u" horiz-adv-x="1166" 
d="M1020 1054v-1054h-199v143h-9q-30 -69 -107.5 -114.5t-196.5 -45.5q-168 0 -269 95.5t-101 273.5v702h203v-646q0 -133 64.5 -190t170.5 -57q108 0 174.5 66t66.5 184v643h203z" />
    <glyph glyph-name="v" unicode="v" horiz-adv-x="1002" 
d="M388 0l-366 1054h222l247 -853h8l267 853h214l-378 -1054h-214z" />
    <glyph glyph-name="w" unicode="w" horiz-adv-x="1493" 
d="M1465 1054l-279 -1054h-203l-229 792h-5l-224 -792h-205l-292 1054h221l177 -815h9l221 815h190l228 -815h8l182 815h201z" />
    <glyph glyph-name="x" unicode="x" horiz-adv-x="1034" 
d="M752 0l-236 382h-8l-237 -382h-222l346 522l-351 532h238l230 -380h9l237 380h227l-354 -517l355 -537h-234z" />
    <glyph glyph-name="y" unicode="y" horiz-adv-x="1052" 
d="M1009 1054q-365 -1044 -366 -1048l-27 -73q-21 -57 -41 -97.5t-52 -84.5t-70 -71t-93.5 -44.5t-124.5 -17.5q-61 0 -119 9v157q27 -5 80 -5q91 0 136.5 39.5t65.5 120.5l14 50l-381 1065h224l264 -864h9l266 864h215z" />
    <glyph glyph-name="z" unicode="z" horiz-adv-x="977" 
d="M92 0v128l544 755v11h-544v160h792v-133l-537 -749v-10h545v-162h-800z" />
    <glyph glyph-name="braceleft" unicode="{" horiz-adv-x="737" 
d="M260 596v-24q178 -17 178 -227v-297q0 -111 48 -159t167 -48h41v-154h-69q-187 0 -281.5 80.5t-94.5 261.5v254q0 108 -34.5 154t-131.5 46v201q97 0 131.5 46t34.5 155v223q0 179 94 256.5t282 77.5h69v-154h-41q-119 0 -167 -48t-48 -159v-264q0 -105 -44.5 -159
t-133.5 -62z" />
    <glyph glyph-name="bar" unicode="|" horiz-adv-x="676" 
d="M426 -305h-175v1742h175v-1742z" />
    <glyph glyph-name="braceright" unicode="}" horiz-adv-x="737" 
d="M477 572v24q-177 17 -177 221v264q0 111 -48.5 159t-167.5 48h-41v154h69q188 0 282 -77.5t94 -256.5v-223q0 -109 34.5 -155t131.5 -46v-201q-97 0 -131.5 -46t-34.5 -154v-254q0 -181 -94.5 -261.5t-281.5 -80.5h-69v154h41q119 0 167.5 48t48.5 159v297q0 210 177 227
z" />
    <glyph glyph-name="asciitilde" unicode="~" horiz-adv-x="1114" 
d="M750 487q-63 0 -117 27.5t-114 84.5q-68 64 -96 80q-30 17 -57 17q-120 0 -130 -168h-167q0 71 16 131t50 109t92 76.5t136 27.5q63 0 117.5 -27t112.5 -83q46 -47 81 -71.5t73 -24.5q121 0 130 167h166q0 -71 -16.5 -131.5t-50.5 -109.5t-92 -77t-134 -28z" />
    <glyph glyph-name="nonbreakingspace" unicode="&#xa0;" horiz-adv-x="408" 
 />
    <glyph glyph-name="exclamdown" unicode="&#xa1;" horiz-adv-x="529" 
d="M376 -276h-226l25 956h177zM397 983q0 -53 -37 -87t-96 -34q-55 0 -92 34.5t-37 86.5q0 54 37 88t92 34q60 0 96.5 -33.5t36.5 -88.5z" />
    <glyph glyph-name="cent" unicode="&#xa2;" horiz-adv-x="1114" 
d="M985 455q-4 -120 -95 -209.5t-249 -105.5v-226h-159v226q-168 19 -269.5 140t-101.5 317v169q0 191 102 311.5t269 139.5v240h159v-240q153 -17 243.5 -112t93.5 -214h-191q-4 27 -17.5 53.5t-38 53.5t-68.5 44t-101 17q-123 0 -190.5 -81t-67.5 -216v-167
q0 -133 70 -211t189 -78q105 0 160.5 42t69.5 107h192z" />
    <glyph glyph-name="sterling" unicode="&#xa3;" horiz-adv-x="1114" 
d="M1049 167v-167h-955v176q39 1 62 5.5t46.5 18.5t35 40t19 70.5t7.5 110.5v197h-189v150h189v280q0 163 110 253.5t283 90.5q176 0 278 -88.5t106 -242.5h-189q-5 71 -56.5 117.5t-138.5 46.5q-97 0 -147 -56.5t-50 -142.5v-258h296v-150h-296v-205q-1 -94 -17 -152
t-56 -82v-12h662z" />
    <glyph glyph-name="currency" unicode="&#xa4;" horiz-adv-x="1114" 
d="M933 158l-172 171q-94 -59 -204 -59q-115 0 -209 63l-174 -175l-110 110l173 174q-65 97 -65 212q0 114 61 206l-169 169l111 111l167 -168q96 66 215 66q115 0 210 -63l165 165l110 -111l-164 -165q63 -97 63 -210q0 -119 -68 -217l169 -169zM319 654q0 -98 69.5 -167.5
t168.5 -69.5q98 0 168 69.5t70 167.5t-70 168t-168 70q-99 0 -168.5 -70t-69.5 -168z" />
    <glyph glyph-name="yen" unicode="&#xa5;" horiz-adv-x="1114" 
d="M949 261h-289v-261h-205v261h-287v137h287v139h-287v137h227l-396 691h232l322 -597h10l325 597h229l-397 -691h229v-137h-289v-139h289v-137z" />
    <glyph glyph-name="brokenbar" unicode="&#xa6;" horiz-adv-x="463" 
d="M319 782h-175v655h175v-655zM319 -305h-175v682h175v-682z" />
    <glyph glyph-name="section" unicode="&#xa7;" horiz-adv-x="931" 
d="M668 72q0 40 -16.5 68.5t-58 49t-70.5 30t-96 26.5q-13 3 -19 5q-75 19 -128 40.5t-101 56t-72.5 86t-24.5 120.5q0 159 168 246v7q-162 92 -162 256q0 105 54.5 182t140 113t189.5 36q167 0 270 -89.5t103 -226.5h-178q-3 59 -56.5 108.5t-144.5 49.5q-84 0 -135.5 -45
t-51.5 -118q0 -29 9 -52.5t29.5 -41.5t39 -30t54.5 -23.5t57.5 -17t64.5 -15.5q59 -14 99 -26.5t88.5 -36.5t77.5 -54t49 -77.5t20 -108.5q0 -84 -44 -149t-108 -107v-7q67 -42 106.5 -96t39.5 -140q0 -155 -111.5 -249t-290.5 -94q-168 0 -280 85t-113 229h183
q11 -72 65 -113t147 -41q105 0 156 47t51 117zM566 380q48 20 80.5 71t32.5 108q0 74 -53.5 115t-157.5 64q-31 7 -74 16q-46 -14 -85.5 -64.5t-39.5 -111.5q0 -74 52.5 -112.5t154.5 -64.5q14 -4 90 -21z" />
    <glyph glyph-name="dieresis" unicode="&#xa8;" horiz-adv-x="946" 
d="M179 1320q0 45 28.5 74t72.5 29q45 0 73.5 -28.5t28.5 -74.5q0 -44 -28.5 -72.5t-73.5 -28.5q-44 0 -72.5 28.5t-28.5 72.5zM542 1320q0 46 28 74.5t72 28.5q46 0 74.5 -28.5t28.5 -74.5q0 -44 -29 -72.5t-74 -28.5q-43 0 -71.5 28.5t-28.5 72.5z" />
    <glyph glyph-name="copyright" unicode="&#xa9;" horiz-adv-x="1640" 
d="M500 632v99q0 157 90 244.5t241 87.5q137 0 219.5 -76t84.5 -177h-138q-8 49 -46.5 88t-118.5 39q-191 0 -191 -212v-94q0 -101 50.5 -151.5t140.5 -50.5q146 0 170 109h138q-3 -98 -83.5 -169.5t-225.5 -71.5q-152 0 -241.5 87.5t-89.5 247.5zM231 641
q0 -168 73.5 -300.5t209 -207.5t311.5 -75q266 0 431.5 164t165.5 419v106q0 116 -44 219t-121.5 178.5t-189.5 119.5t-242 44q-173 0 -309.5 -75t-210.5 -203t-74 -283v-106zM825 -64q-209 0 -374 92t-255.5 253.5t-90.5 362.5v103q0 142 54 268t148 218t229 145.5
t289 53.5q155 0 290 -54t228.5 -146.5t147.5 -218.5t54 -266v-103q0 -151 -53 -282t-146.5 -224.5t-228.5 -147.5t-292 -54z" />
    <glyph glyph-name="ordfeminine" unicode="&#xaa;" horiz-adv-x="641" 
d="M263 775q-90 0 -144 47t-54 129q0 81 54.5 127.5t160.5 46.5h147v51q0 87 -106 87q-90 0 -101 -59h-132q6 76 64.5 121.5t172.5 45.5q111 0 176.5 -47t65.5 -150v-390h-133v74h-7q-47 -83 -164 -83zM307 878q50 0 85 28.5t35 72.5v56h-120q-51 1 -78 -19.5t-27 -55.5
q0 -40 30.5 -61t74.5 -21z" />
    <glyph glyph-name="guillemotleft" unicode="&#xab;" horiz-adv-x="1265" 
d="M589 565l344 404h212l-339 -403v-6l339 -405h-221l-335 402v8zM105 565l344 404h212l-339 -403v-6l339 -405h-221l-335 402v8z" />
    <glyph glyph-name="logicalnot" unicode="&#xac;" horiz-adv-x="1114" 
d="M1043 95h-176v367h-798v164h974v-531z" />
    <glyph glyph-name="registered" unicode="&#xae;" horiz-adv-x="1158" 
d="M580 414q-212 0 -351 134t-139 337v69q0 192 140.5 324t349.5 132t350 -133t141 -323v-69q0 -203 -138.5 -337t-352.5 -134zM580 513q170 0 280.5 105.5t110.5 266.5v68q0 151 -111.5 255.5t-279.5 104.5t-279 -104t-111 -256v-68q0 -161 110 -266.5t280 -105.5z
M503 1086v-148h78q98 0 98 74q0 36 -23.5 55t-62.5 19h-90zM503 683h-100v479h225q68 0 111.5 -42t43.5 -105q0 -51 -27 -90t-68 -51l110 -191h-117l-95 180h-83v-180z" />
    <glyph glyph-name="macron" unicode="&#xaf;" horiz-adv-x="946" 
d="M746 1250h-558v118h558v-118z" />
    <glyph glyph-name="degree" unicode="&#xb0;" horiz-adv-x="543" 
d="M273 925q-96 0 -163 67t-67 163q0 95 66.5 162t163.5 67q95 0 162 -67t67 -162q0 -96 -67 -163t-162 -67zM273 1042q47 0 79.5 33.5t32.5 79.5q0 47 -32.5 80t-79.5 33q-46 0 -79.5 -33t-33.5 -80q0 -46 33.5 -79.5t79.5 -33.5z" />
    <glyph glyph-name="plusminus" unicode="&#xb1;" horiz-adv-x="1114" 
d="M639 653v-277h-169v277h-392v159h392v262h169v-262h395v-159h-395zM1036 104h-956v162h956v-162z" />
    <glyph glyph-name="twosuperior" unicode="&#xb2;" horiz-adv-x="640" 
d="M213 1156h-138v11q0 86 61.5 148.5t175.5 62.5q105 0 169.5 -55t64.5 -140q0 -43 -21.5 -87.5t-41.5 -67.5t-56 -60l-157 -153v-2h288v-121h-471v92l243 257q74 76 74 131q0 39 -27 63t-68 24q-44 0 -70 -27t-26 -65v-11z" />
    <glyph glyph-name="threesuperior" unicode="&#xb3;" horiz-adv-x="649" 
d="M237 980v115h76q43 0 69.5 24t26.5 62q0 37 -26.5 60t-68.5 23q-44 0 -71 -24t-29 -58h-134q3 84 65.5 140t170.5 56q103 0 167 -49t64 -128q0 -57 -34.5 -98.5t-88.5 -56.5v-2q63 -11 104 -51t41 -108q0 -92 -72.5 -148.5t-180.5 -56.5q-114 0 -180 59t-68 140h133
q3 -36 33.5 -59.5t78.5 -23.5q50 0 82 26.5t32 66.5t-30.5 65.5t-81.5 25.5h-78z" />
    <glyph glyph-name="acute" unicode="&#xb4;" horiz-adv-x="946" 
d="M384 1213h-163l190 279h208z" />
    <glyph glyph-name="paragraph" unicode="&#xb6;" horiz-adv-x="1291" 
d="M760 -210h-196v712h-20q-55 0 -113 14t-118.5 47t-108 81t-77.5 123t-30 166q0 99 30.5 176.5t77 124.5t108 77.5t118.5 42t114 11.5h215v-1575zM920 -210v1575h196v-1575h-196z" />
    <glyph glyph-name="periodcentered" unicode="&#xb7;" horiz-adv-x="606" 
d="M151 726q0 55 36 89.5t89 34.5q55 0 91.5 -35t36.5 -89t-36.5 -89t-91.5 -35q-53 0 -89 35t-36 89z" />
    <glyph glyph-name="cedilla" unicode="&#xb8;" horiz-adv-x="946" 
d="M352 -235v86l59 157h131l-53 -140q96 0 151.5 -42t55.5 -121q0 -92 -63 -139t-166 -51q-85 -4 -149 15v110q44 -13 114 -13q48 0 82 16.5t34 56.5q0 18 -8 31t-19.5 19.5t-33 10t-38 4t-44.5 0.5h-53z" />
    <glyph glyph-name="onesuperior" unicode="&#xb9;" horiz-adv-x="586" 
d="M422 692h-145v531h-6l-153 -113v135l159 120h145v-673z" />
    <glyph glyph-name="ordmasculine" unicode="&#xba;" horiz-adv-x="638" 
d="M320 1261q-63 0 -97 -44t-34 -114v-62q0 -71 33 -114.5t98 -43.5q64 0 97 43.5t33 114.5v62q0 70 -34 114t-96 44zM320 1371q122 0 196.5 -71.5t74.5 -192.5v-68q0 -126 -74 -196.5t-197 -70.5q-125 0 -198.5 70t-73.5 197v68q0 119 75.5 191.5t196.5 72.5z" />
    <glyph glyph-name="guillemotright" unicode="&#xbb;" horiz-adv-x="1265" 
d="M1153 565v-8l-335 -402h-221l339 405v6l-339 403h212zM669 565v-8l-335 -402h-221l339 405v6l-339 403h212z" />
    <glyph glyph-name="onequarter" unicode="&#xbc;" horiz-adv-x="1353" 
d="M910 230h198v329h-7q-72 -110 -191 -326v-3zM1042 674h195v-444h80v-112h-80v-118h-129v118h-334v109q58 106 268 447zM335 692h-145v531h-6l-153 -113v135l159 120h145v-673zM224 0h-167l534 695l510 670h167l-530 -690z" />
    <glyph glyph-name="onehalf" unicode="&#xbd;" horiz-adv-x="1368" 
d="M1012 452h-141v11q0 88 62.5 151t178.5 63q107 0 172.5 -56t65.5 -142q0 -34 -10 -65t-31.5 -61t-36.5 -47t-43 -45l-160 -155v-2h293v-123h-479v93l247 261q76 78 76 133q0 40 -27.5 64.5t-69.5 24.5q-45 0 -71 -27.5t-26 -66.5v-11zM335 692h-145v531h-6l-153 -113v135
l159 120h145v-673zM224 0h-167l534 695l510 670h167l-530 -690z" />
    <glyph glyph-name="threequarters" unicode="&#xbe;" horiz-adv-x="1402" 
d="M959 232h197v327h-6q-73 -111 -191 -324v-3zM1091 674h196v-442h79v-114h-79v-118h-131v118h-333v109q69 126 268 447zM193 961v116h77q44 0 70.5 24t26.5 63q0 38 -26.5 61t-69.5 23q-45 0 -72 -24t-29 -59h-136q3 85 66 141.5t173 56.5q104 0 169 -49.5t65 -129.5
q0 -58 -35 -99.5t-90 -57.5v-2q64 -11 105.5 -51t41.5 -109q0 -94 -73 -151t-183 -57q-115 0 -182 59.5t-69 141.5h134q4 -36 34.5 -60t79.5 -24q51 0 83 27t32 68q0 40 -30.5 66t-82.5 26h-79zM272 0h-167l534 695l510 670h167l-530 -690z" />
    <glyph glyph-name="questiondown" unicode="&#xbf;" horiz-adv-x="956" 
d="M634 968q0 -52 -37 -86t-96 -34q-56 0 -92.5 34t-36.5 86q0 55 36.5 89t92.5 34q59 0 96 -34t37 -89zM897 73q1 -86 -24 -155t-66.5 -113.5t-98 -74t-115 -41.5t-121.5 -12q-82 0 -155.5 22t-131.5 63.5t-92.5 109.5t-34.5 154q0 60 15.5 109.5t48 90t59 64.5t72.5 60
q53 41 75 60t45.5 48t30.5 57.5t7 71.5v58h192v-78q2 -69 -25.5 -128.5t-64.5 -98t-97 -83.5q-43 -33 -64.5 -51.5t-45 -46t-33 -56.5t-9.5 -66q0 -96 62.5 -144t154.5 -48q109 0 167 63.5t58 164.5h191z" />
    <glyph glyph-name="Agrave" unicode="&#xc0;" horiz-adv-x="1218" 
d="M230 0h-209l476 1365h223l476 -1365h-221l-127 391h-490zM607 1141h-7l-193 -590h392zM725 1510h-175l-292 203h215z" />
    <glyph glyph-name="Aacute" unicode="&#xc1;" horiz-adv-x="1218" 
d="M230 0h-209l476 1365h223l476 -1365h-221l-127 391h-490zM607 1141h-7l-193 -590h392zM493 1510l255 206h219l-296 -206h-178z" />
    <glyph glyph-name="Acircumflex" unicode="&#xc2;" horiz-adv-x="1218" 
d="M230 0h-209l476 1365h223l476 -1365h-221l-127 391h-490zM607 1141h-7l-193 -590h392zM277 1507l277 238h119l274 -238h-176l-155 140h-8l-155 -140h-176z" />
    <glyph glyph-name="Atilde" unicode="&#xc3;" horiz-adv-x="1218" 
d="M230 0h-209l476 1365h223l476 -1365h-221l-127 391h-490zM607 1141h-7l-193 -590h392zM585 1538l-9 9l-10.5 10.5t-9.5 8.5t-12 9t-11 6t-13 5t-13 1q-60 0 -64 -91h-116q0 82 43.5 140.5t126.5 58.5q43 0 75 -16t67 -50q5 -4 18 -17t19 -17.5t17.5 -9.5t23.5 -5
q31 0 47 30.5t19 68.5h116q0 -78 -47.5 -139t-123.5 -61q-51 0 -82 14.5t-61 44.5z" />
    <glyph glyph-name="Adieresis" unicode="&#xc4;" horiz-adv-x="1218" 
d="M230 0h-209l476 1365h223l476 -1365h-221l-127 391h-490zM607 1141h-7l-193 -590h392zM388 1583q0 40 25.5 65.5t64.5 25.5q40 0 65 -25.5t25 -65.5q0 -39 -25.5 -64.5t-64.5 -25.5t-64.5 26t-25.5 64zM697 1583q0 40 25 65.5t64 25.5q40 0 65 -25.5t25 -65.5
q0 -39 -25 -64.5t-65 -25.5q-39 0 -64 25.5t-25 64.5z" />
    <glyph glyph-name="Aring" unicode="&#xc5;" horiz-adv-x="1219" 
d="M499 1502q0 -44 32 -75.5t76 -31.5t75.5 31.5t31.5 75.5q0 45 -31.5 76t-75.5 31q-45 0 -76.5 -31t-31.5 -76zM800 551l-191 590h-9l-192 -590h392zM230 0h-208l465 1329q-45 27 -71.5 73t-26.5 101q0 89 63.5 151.5t154.5 62.5q89 0 152.5 -62.5t63.5 -151.5
q0 -53 -25 -97.5t-67 -70.5l466 -1335h-221l-127 391h-490z" />
    <glyph glyph-name="AE" unicode="&#xc6;" horiz-adv-x="1864" 
d="M851 1188l-316 -618h387v618h-71zM922 405h-468l-212 -405h-230l719 1365h1021v-177h-626v-408h590v-170h-590v-433h626v-177h-830v405z" />
    <glyph glyph-name="Ccedilla" unicode="&#xc7;" horiz-adv-x="1258" 
d="M641 -485q-84 -4 -150 15v110q44 -13 115 -13q48 0 82 16.5t34 56.5q0 18 -8 31t-19.5 19.5t-33 10t-38 4t-44.5 0.5h-53v86l47 125q-222 24 -346 182.5t-124 433.5v174q0 300 146.5 463.5t400.5 163.5q121 0 221 -40t162.5 -106t96.5 -149t34 -172v-10h-201
q0 56 -20.5 108.5t-58.5 95t-98.5 68t-134.5 25.5q-157 0 -249 -114t-92 -335v-171q0 -222 91.5 -331t253.5 -109q146 0 227 79.5t81 196.5h201v-11q0 -76 -28.5 -149.5t-83.5 -137t-145.5 -106t-203.5 -50.5l-40 -107q95 0 151 -42t56 -121q0 -92 -63 -139t-166 -51z" />
    <glyph glyph-name="Egrave" unicode="&#xc8;" horiz-adv-x="1107" 
d="M687 1510h-175l-292 203h215zM996 177v-177h-838v1365h838v-177h-633v-408h597v-170h-597v-433h633z" />
    <glyph glyph-name="Eacute" unicode="&#xc9;" horiz-adv-x="1107" 
d="M455 1510l255 206h219l-296 -206h-178zM996 177v-177h-838v1365h838v-177h-633v-408h597v-170h-597v-433h633z" />
    <glyph glyph-name="Ecircumflex" unicode="&#xca;" horiz-adv-x="1107" 
d="M239 1507l277 238h119l274 -238h-176l-155 140h-8l-155 -140h-176zM996 177v-177h-838v1365h838v-177h-633v-408h597v-170h-597v-433h633z" />
    <glyph glyph-name="Edieresis" unicode="&#xcb;" horiz-adv-x="1107" 
d="M350 1583q0 40 25.5 65.5t64.5 25.5q40 0 65 -25.5t25 -65.5q0 -39 -25.5 -64.5t-64.5 -25.5t-64.5 26t-25.5 64zM659 1583q0 40 25 65.5t64 25.5q40 0 65 -25.5t25 -65.5q0 -39 -25 -64.5t-65 -25.5q-39 0 -64 25.5t-25 64.5zM996 177v-177h-838v1365h838v-177h-633
v-408h597v-170h-597v-433h633z" />
    <glyph glyph-name="Igrave" unicode="&#xcc;" horiz-adv-x="521" 
d="M364 0h-206v1365h206v-1365zM376 1510h-175l-292 203h215z" />
    <glyph glyph-name="Iacute" unicode="&#xcd;" horiz-adv-x="521" 
d="M364 0h-206v1365h206v-1365zM144 1510l255 206h219l-296 -206h-178z" />
    <glyph glyph-name="Icircumflex" unicode="&#xce;" horiz-adv-x="521" 
d="M364 0h-206v1365h206v-1365zM-72 1507l277 238h119l274 -238h-176l-155 140h-8l-155 -140h-176z" />
    <glyph glyph-name="Idieresis" unicode="&#xcf;" horiz-adv-x="521" 
d="M364 0h-206v1365h206v-1365zM39 1583q0 40 25.5 65.5t64.5 25.5q40 0 65 -25.5t25 -65.5q0 -39 -25.5 -64.5t-64.5 -25.5t-64.5 26t-25.5 64zM348 1583q0 40 25 65.5t64 25.5q40 0 65 -25.5t25 -65.5q0 -39 -25 -64.5t-65 -25.5q-39 0 -64 25.5t-25 64.5z" />
    <glyph glyph-name="Eth" unicode="&#xd0;" horiz-adv-x="1384" 
d="M696 0h-457v607h-162v179h162v579h457q129 0 231.5 -33t171.5 -91.5t114.5 -144.5t66 -187.5t20.5 -224.5q0 -121 -19.5 -222t-64.5 -188t-114 -147t-172 -93.5t-234 -33.5zM444 179h233q207 0 308 124.5t101 379.5q0 508 -409 508h-233v-405h288v-179h-288v-428z" />
    <glyph glyph-name="Ntilde" unicode="&#xd1;" horiz-adv-x="1368" 
d="M659 1538l-9 9l-10.5 10.5t-9.5 8.5t-12 9t-11 6t-13 5t-13 1q-60 0 -64 -91h-116q0 82 43.5 140.5t126.5 58.5q43 0 75 -16t67 -50q5 -4 18 -17t19 -17.5t17.5 -9.5t23.5 -5q31 0 47 30.5t19 68.5h116q0 -78 -47.5 -139t-123.5 -61q-51 0 -82 14.5t-61 44.5zM357 0h-199
v1365h187l659 -1014h6v1014h200v-1365h-187l-660 1016h-6v-1016z" />
    <glyph glyph-name="Ograve" unicode="&#xd2;" horiz-adv-x="1324" 
d="M777 1510h-175l-292 203h215zM310 774v-194q0 -211 97 -319.5t254 -108.5q158 0 255 108.5t97 319.5v194q0 211 -97.5 325.5t-254.5 114.5q-156 0 -253.5 -114.5t-97.5 -325.5zM103 580v192q0 289 151 455t409 166t408 -165.5t150 -455.5v-192q0 -287 -151 -447.5
t-410 -160.5t-408 160.5t-149 447.5z" />
    <glyph glyph-name="Oacute" unicode="&#xd3;" horiz-adv-x="1324" 
d="M545 1510l255 206h219l-296 -206h-178zM310 774v-194q0 -211 97 -319.5t254 -108.5q158 0 255 108.5t97 319.5v194q0 211 -97.5 325.5t-254.5 114.5q-156 0 -253.5 -114.5t-97.5 -325.5zM103 580v192q0 289 151 455t409 166t408 -165.5t150 -455.5v-192
q0 -287 -151 -447.5t-410 -160.5t-408 160.5t-149 447.5z" />
    <glyph glyph-name="Ocircumflex" unicode="&#xd4;" horiz-adv-x="1324" 
d="M329 1507l277 238h119l274 -238h-176l-155 140h-8l-155 -140h-176zM310 774v-194q0 -211 97 -319.5t254 -108.5q158 0 255 108.5t97 319.5v194q0 211 -97.5 325.5t-254.5 114.5q-156 0 -253.5 -114.5t-97.5 -325.5zM103 580v192q0 289 151 455t409 166t408 -165.5
t150 -455.5v-192q0 -287 -151 -447.5t-410 -160.5t-408 160.5t-149 447.5z" />
    <glyph glyph-name="Otilde" unicode="&#xd5;" horiz-adv-x="1324" 
d="M310 774v-194q0 -211 97 -319.5t254 -108.5q158 0 255 108.5t97 319.5v194q0 211 -97.5 325.5t-254.5 114.5q-156 0 -253.5 -114.5t-97.5 -325.5zM103 580v192q0 289 151 455t409 166t408 -165.5t150 -455.5v-192q0 -287 -151 -447.5t-410 -160.5t-408 160.5t-149 447.5z
M637 1538l-9 9l-10.5 10.5t-9.5 8.5t-12 9t-11 6t-13 5t-13 1q-60 0 -64 -91h-116q0 82 43.5 140.5t126.5 58.5q43 0 75 -16t67 -50q5 -4 18 -17t19 -17.5t17.5 -9.5t23.5 -5q31 0 47 30.5t19 68.5h116q0 -78 -47.5 -139t-123.5 -61q-51 0 -82 14.5t-61 44.5z" />
    <glyph glyph-name="Odieresis" unicode="&#xd6;" horiz-adv-x="1324" 
d="M440 1583q0 40 25.5 65.5t64.5 25.5q40 0 65 -25.5t25 -65.5q0 -39 -25.5 -64.5t-64.5 -25.5t-64.5 26t-25.5 64zM749 1583q0 40 25 65.5t64 25.5q40 0 65 -25.5t25 -65.5q0 -39 -25 -64.5t-65 -25.5q-39 0 -64 25.5t-25 64.5zM310 774v-194q0 -211 97 -319.5t254 -108.5
q158 0 255 108.5t97 319.5v194q0 211 -97.5 325.5t-254.5 114.5q-156 0 -253.5 -114.5t-97.5 -325.5zM103 580v192q0 289 151 455t409 166t408 -165.5t150 -455.5v-192q0 -287 -151 -447.5t-410 -160.5t-408 160.5t-149 447.5z" />
    <glyph glyph-name="multiply" unicode="&#xd7;" horiz-adv-x="1114" 
d="M867 72l-310 310l-311 -310l-120 121l310 310l-310 310l120 120l311 -310l310 310l120 -120l-310 -310l310 -310z" />
    <glyph glyph-name="Oslash" unicode="&#xd8;" horiz-adv-x="1324" 
d="M660 -28q-236 0 -380 136l-100 -124l-105 86l116 145q-88 148 -88 365v192q0 289 151 455t409 166q228 0 373 -133l95 118l109 -79l-116 -144q97 -154 97 -383v-192q0 -287 -151 -447.5t-410 -160.5zM308 579q0 -107 28 -186l576 714q-95 109 -251 109
q-157 0 -255 -114.5t-98 -327.5v-195zM661 149q160 0 257 109t97 321v195q0 117 -34 204l-578 -718q93 -111 258 -111z" />
    <glyph glyph-name="Ugrave" unicode="&#xd9;" horiz-adv-x="1341" 
d="M786 1510h-175l-292 203h215zM348 1365v-881q0 -153 87 -242t235 -89t236 89.5t88 241.5v881h205v-891q0 -226 -145.5 -364t-383.5 -138q-237 0 -382.5 139t-145.5 366v888h206z" />
    <glyph glyph-name="Uacute" unicode="&#xda;" horiz-adv-x="1341" 
d="M554 1510l255 206h219l-296 -206h-178zM348 1365v-881q0 -153 87 -242t235 -89t236 89.5t88 241.5v881h205v-891q0 -226 -145.5 -364t-383.5 -138q-237 0 -382.5 139t-145.5 366v888h206z" />
    <glyph glyph-name="Ucircumflex" unicode="&#xdb;" horiz-adv-x="1341" 
d="M338 1507l277 238h119l274 -238h-176l-155 140h-8l-155 -140h-176zM348 1365v-881q0 -153 87 -242t235 -89t236 89.5t88 241.5v881h205v-891q0 -226 -145.5 -364t-383.5 -138q-237 0 -382.5 139t-145.5 366v888h206z" />
    <glyph glyph-name="Udieresis" unicode="&#xdc;" horiz-adv-x="1341" 
d="M449 1583q0 40 25.5 65.5t64.5 25.5q40 0 65 -25.5t25 -65.5q0 -39 -25.5 -64.5t-64.5 -25.5t-64.5 26t-25.5 64zM758 1583q0 40 25 65.5t64 25.5q40 0 65 -25.5t25 -65.5q0 -39 -25 -64.5t-65 -25.5q-39 0 -64 25.5t-25 64.5zM348 1365v-881q0 -153 87 -242t235 -89
t236 89.5t88 241.5v881h205v-891q0 -226 -145.5 -364t-383.5 -138q-237 0 -382.5 139t-145.5 366v888h206z" />
    <glyph glyph-name="Yacute" unicode="&#xdd;" horiz-adv-x="1108" 
d="M656 0h-205v565l-456 800h232l324 -597h7l327 597h228l-457 -797v-568zM438 1510l255 206h219l-296 -206h-178z" />
    <glyph glyph-name="Thorn" unicode="&#xde;" horiz-adv-x="1161" 
d="M158 1365h204v-252h292q206 0 325 -106t119 -295q0 -191 -119.5 -296t-325.5 -105h-290v-311h-205v1365zM363 939v-456h230q55 0 94.5 4.5t79.5 18.5t64.5 38.5t40 66.5t15.5 101q0 227 -258 227h-266z" />
    <glyph glyph-name="germandbls" unicode="&#xdf;" horiz-adv-x="1252" 
d="M359 0h-203v1045q0 186 121 290.5t320 104.5q198 1 319.5 -97.5t120.5 -256.5q0 -74 -25.5 -136.5t-65.5 -100.5t-82 -60.5t-81 -26.5v-13q70 0 137 -23.5t122.5 -67t89 -114.5t33.5 -158q0 -98 -40 -176.5t-108 -127t-153 -74t-180 -25.5t-156 19v164q50 -19 140 -19
q56 0 105.5 13t92 40t68 75.5t25.5 113.5q0 117 -89.5 183.5t-238.5 66.5h-77v188h47q89 0 162.5 66t73.5 169q0 93 -63 152t-172 59q-243 0 -243 -259v-1014z" />
    <glyph glyph-name="agrave" unicode="&#xe0;" horiz-adv-x="1072" 
d="M733 138q-41 -68 -116.5 -111.5t-184.5 -43.5q-154 0 -249 87t-95 232q0 142 96.5 225.5t274.5 83.5h271v118q0 175 -204 175q-189 0 -205 -158h-194q7 148 107.5 236.5t299.5 88.5q188 0 293 -84t105 -260v-727h-192v138h-7zM491 143q102 0 170.5 61.5t68.5 152.5v111
h-243q-97 0 -146 -42t-49 -114q0 -82 57.5 -125.5t141.5 -43.5zM643 1217h-164l-237 277h208z" />
    <glyph glyph-name="aacute" unicode="&#xe1;" horiz-adv-x="1072" 
d="M733 138q-41 -68 -116.5 -111.5t-184.5 -43.5q-154 0 -249 87t-95 232q0 142 96.5 225.5t274.5 83.5h271v118q0 175 -204 175q-189 0 -205 -158h-194q7 148 107.5 236.5t299.5 88.5q188 0 293 -84t105 -260v-727h-192v138h-7zM491 143q102 0 170.5 61.5t68.5 152.5v111
h-243q-97 0 -146 -42t-49 -114q0 -82 57.5 -125.5t141.5 -43.5zM589 1215h-163l190 279h208z" />
    <glyph glyph-name="acircumflex" unicode="&#xe2;" horiz-adv-x="1072" 
d="M733 138q-41 -68 -116.5 -111.5t-184.5 -43.5q-154 0 -249 87t-95 232q0 142 96.5 225.5t274.5 83.5h271v118q0 175 -204 175q-189 0 -205 -158h-194q7 148 107.5 236.5t299.5 88.5q188 0 293 -84t105 -260v-727h-192v138h-7zM491 143q102 0 170.5 61.5t68.5 152.5v111
h-243q-97 0 -146 -42t-49 -114q0 -82 57.5 -125.5t141.5 -43.5zM255 1217l213 298h133l204 -300h-162l-108 187h-4l-116 -185h-160z" />
    <glyph glyph-name="atilde" unicode="&#xe3;" horiz-adv-x="1072" 
d="M733 138q-41 -68 -116.5 -111.5t-184.5 -43.5q-154 0 -249 87t-95 232q0 142 96.5 225.5t274.5 83.5h271v118q0 175 -204 175q-189 0 -205 -158h-194q7 148 107.5 236.5t299.5 88.5q188 0 293 -84t105 -260v-727h-192v138h-7zM491 143q102 0 170.5 61.5t68.5 152.5v111
h-243q-97 0 -146 -42t-49 -114q0 -82 57.5 -125.5t141.5 -43.5zM502 1225q-18 19 -25 25.5t-24 16.5t-33 10q-61 0 -68 -101h-124q0 98 46.5 165t138.5 67q76 0 148 -74q4 -4 14.5 -15.5t15.5 -16t14 -11t18 -9t19 -2.5q33 0 49.5 34t19.5 76h124q0 -91 -51.5 -161.5
t-134.5 -70.5q-51 0 -84 17t-63 50z" />
    <glyph glyph-name="adieresis" unicode="&#xe4;" horiz-adv-x="1072" 
d="M733 138q-41 -68 -116.5 -111.5t-184.5 -43.5q-154 0 -249 87t-95 232q0 142 96.5 225.5t274.5 83.5h271v118q0 175 -204 175q-189 0 -205 -158h-194q7 148 107.5 236.5t299.5 88.5q188 0 293 -84t105 -260v-727h-192v138h-7zM491 143q102 0 170.5 61.5t68.5 152.5v111
h-243q-97 0 -146 -42t-49 -114q0 -82 57.5 -125.5t141.5 -43.5zM253 1263q0 45 28.5 74t72.5 29q45 0 73.5 -28.5t28.5 -74.5q0 -44 -28.5 -72.5t-73.5 -28.5q-44 0 -72.5 29t-28.5 72zM616 1263q0 46 28 74.5t72 28.5q46 0 74.5 -28.5t28.5 -74.5q0 -44 -29 -72.5
t-74 -28.5q-43 0 -71.5 28.5t-28.5 72.5z" />
    <glyph glyph-name="aring" unicode="&#xe5;" horiz-adv-x="1072" 
d="M733 138q-41 -68 -116.5 -111.5t-184.5 -43.5q-154 0 -249 87t-95 232q0 142 96.5 225.5t274.5 83.5h271v118q0 175 -204 175q-189 0 -205 -158h-194q7 148 107.5 236.5t299.5 88.5q188 0 293 -84t105 -260v-727h-192v138h-7zM491 143q102 0 170.5 61.5t68.5 152.5v111
h-243q-97 0 -146 -42t-49 -114q0 -82 57.5 -125.5t141.5 -43.5zM534 1192q-84 0 -141 55t-57 138q0 82 57 137t141 55q83 0 140 -55t57 -137q0 -83 -57 -138t-140 -55zM434 1384q0 -42 28.5 -71t71.5 -29q42 0 70 29t28 71q0 43 -28 71.5t-70 28.5q-43 0 -71.5 -28.5
t-28.5 -71.5z" />
    <glyph glyph-name="ae" unicode="&#xe6;" horiz-adv-x="1714" 
d="M1198 -18q-148 0 -247 57.5t-137 145.5h-14q-43 -86 -133 -144.5t-223 -58.5q-162 0 -260.5 86.5t-98.5 235.5q0 145 99 229t280 84h269v102q0 93 -55 139t-155 46q-174 0 -206 -120h-193q11 135 116.5 211.5t289.5 76.5q107 0 193.5 -35t129.5 -103h13q45 66 130.5 102
t187.5 36q196 0 316.5 -127.5t120.5 -341.5v-126h-681v-76q0 -110 70.5 -181t185.5 -71q86 0 141.5 35t68.5 87h202q-6 -47 -32.5 -95.5t-74 -93t-126.5 -72.5t-177 -28zM1185 909q-106 0 -175.5 -74t-69.5 -188v-32h482v22q0 126 -63.5 199t-173.5 73zM494 143
q101 0 170 61.5t69 152.5v117h-244q-99 0 -151 -43.5t-52 -115.5q0 -83 61 -127.5t147 -44.5z" />
    <glyph glyph-name="ccedilla" unicode="&#xe7;" horiz-adv-x="1040" 
d="M535 -468q-89 -3 -149 15v111q47 -14 115 -14q115 0 115 73q0 23 -9.5 37t-30.5 20t-40 7.5t-54 1.5h-54v85l52 118q-184 20 -284.5 151.5t-100.5 335.5v113q0 215 119 350.5t329 135.5q189 0 299.5 -100t112.5 -239h-193q-8 65 -65 118t-150 53q-123 0 -186.5 -90.5
t-63.5 -232.5v-109q0 -139 66.5 -227t183.5 -88q97 0 152 42t70 108h193q-4 -122 -99 -213t-252 -108l-45 -101q94 0 146.5 -41.5t52.5 -121.5q0 -92 -63 -139t-167 -51z" />
    <glyph glyph-name="egrave" unicode="&#xe8;" horiz-adv-x="1075" 
d="M645 1217h-164l-237 277h208zM554 -18q-222 0 -340.5 134t-118.5 361v93q0 228 116.5 365t329.5 137q215 0 329.5 -136.5t114.5 -363.5v-92h-689v-30q0 -128 65.5 -214.5t191.5 -86.5q97 0 150.5 42.5t67.5 105.5h201q-8 -56 -34.5 -108t-74 -100t-127.5 -77.5
t-182 -29.5zM296 628h490v3q0 123 -66 200.5t-179 77.5t-179 -78t-66 -200v-3z" />
    <glyph glyph-name="eacute" unicode="&#xe9;" horiz-adv-x="1075" 
d="M591 1215h-163l190 279h208zM554 -18q-222 0 -340.5 134t-118.5 361v93q0 228 116.5 365t329.5 137q215 0 329.5 -136.5t114.5 -363.5v-92h-689v-30q0 -128 65.5 -214.5t191.5 -86.5q97 0 150.5 42.5t67.5 105.5h201q-8 -56 -34.5 -108t-74 -100t-127.5 -77.5t-182 -29.5
zM296 628h490v3q0 123 -66 200.5t-179 77.5t-179 -78t-66 -200v-3z" />
    <glyph glyph-name="ecircumflex" unicode="&#xea;" horiz-adv-x="1075" 
d="M257 1217l213 298h133l204 -300h-162l-108 187h-4l-116 -185h-160zM554 -18q-222 0 -340.5 134t-118.5 361v93q0 228 116.5 365t329.5 137q215 0 329.5 -136.5t114.5 -363.5v-92h-689v-30q0 -128 65.5 -214.5t191.5 -86.5q97 0 150.5 42.5t67.5 105.5h201
q-8 -56 -34.5 -108t-74 -100t-127.5 -77.5t-182 -29.5zM296 628h490v3q0 123 -66 200.5t-179 77.5t-179 -78t-66 -200v-3z" />
    <glyph glyph-name="edieresis" unicode="&#xeb;" horiz-adv-x="1075" 
d="M554 -18q-222 0 -340.5 134t-118.5 361v93q0 228 116.5 365t329.5 137q215 0 329.5 -136.5t114.5 -363.5v-92h-689v-30q0 -128 65.5 -214.5t191.5 -86.5q97 0 150.5 42.5t67.5 105.5h201q-8 -56 -34.5 -108t-74 -100t-127.5 -77.5t-182 -29.5zM296 628h490v3
q0 123 -66 200.5t-179 77.5t-179 -78t-66 -200v-3zM255 1263q0 45 28.5 74t72.5 29q45 0 73.5 -28.5t28.5 -74.5q0 -44 -28.5 -72.5t-73.5 -28.5q-44 0 -72.5 29t-28.5 72zM618 1263q0 46 28 74.5t72 28.5q46 0 74.5 -28.5t28.5 -74.5q0 -44 -29 -72.5t-74 -28.5
q-43 0 -71.5 28.5t-28.5 72.5z" />
    <glyph glyph-name="igrave" unicode="&#xec;" horiz-adv-x="540" 
d="M379 1217h-164l-237 277h208zM170 0v1054h205v-1054h-205z" />
    <glyph glyph-name="iacute" unicode="&#xed;" horiz-adv-x="540" 
d="M325 1215h-163l190 279h208zM170 0v1054h205v-1054h-205z" />
    <glyph glyph-name="icircumflex" unicode="&#xee;" horiz-adv-x="540" 
d="M-9 1217l213 298h133l204 -300h-162l-108 187h-4l-116 -185h-160zM170 0v1054h205v-1054h-205z" />
    <glyph glyph-name="idieresis" unicode="&#xef;" horiz-adv-x="540" 
d="M170 0v1054h205v-1054h-205zM-11 1263q0 45 28.5 74t72.5 29q45 0 73.5 -28.5t28.5 -74.5q0 -44 -28.5 -72.5t-73.5 -28.5q-44 0 -72.5 29t-28.5 72zM352 1263q0 46 28 74.5t72 28.5q46 0 74.5 -28.5t28.5 -74.5q0 -44 -29 -72.5t-74 -28.5q-43 0 -71.5 28.5t-28.5 72.5z
" />
    <glyph glyph-name="eth" unicode="&#xf0;" horiz-adv-x="1115" 
d="M558 -18q-209 0 -336 125t-127 348v90q0 213 122.5 342t317.5 129q171 0 261 -113h10q0 2 -5 30.5t-6 30.5q-11 59 -46.5 127.5t-84.5 127.5l-282 -104l-37 108l233 84q-82 76 -197 150l160 81q119 -60 218 -163l243 88l41 -102l-201 -74q86 -113 132 -253t46 -285v-290
q0 -222 -127.5 -349.5t-334.5 -127.5zM558 851q-119 0 -191 -86t-72 -229v-70q0 -146 70.5 -230t192.5 -84t191.5 84t69.5 230v81q0 147 -69.5 225.5t-191.5 78.5z" />
    <glyph glyph-name="ntilde" unicode="&#xf1;" horiz-adv-x="1171" 
d="M552 1225q-18 19 -25 25.5t-24 16.5t-33 10q-61 0 -68 -101h-124q0 98 46.5 165t138.5 67q76 0 148 -74q4 -4 14.5 -15.5t15.5 -16t14 -11t18 -9t19 -2.5q33 0 49.5 34t19.5 76h124q0 -91 -51.5 -161.5t-134.5 -70.5q-51 0 -84 17t-63 50zM146 0v1054h199v-143h7
q31 67 111 113.5t192 46.5q164 0 269.5 -98t105.5 -274v-699h-203v630q0 263 -237 263q-116 0 -179.5 -69.5t-63.5 -200.5v-623h-201z" />
    <glyph glyph-name="ograve" unicode="&#xf2;" horiz-adv-x="1115" 
d="M665 1217h-164l-237 277h208zM558 1072q227 0 344.5 -136.5t117.5 -366.5v-81q0 -234 -117 -370t-345 -136q-229 0 -346 135.5t-117 370.5v80q0 225 118.5 364.5t344.5 139.5zM558 906q-58 0 -103.5 -19t-74.5 -51t-48 -77.5t-27 -95t-8 -107.5v-57q0 -58 8 -108
t26.5 -95t48 -77t75 -50.5t103.5 -18.5q72 0 124 27.5t80.5 78t41 110t12.5 133.5v57q0 58 -7.5 107.5t-26 95t-47.5 77.5t-74 51t-103 19z" />
    <glyph glyph-name="oacute" unicode="&#xf3;" horiz-adv-x="1115" 
d="M611 1215h-163l190 279h208zM558 1072q227 0 344.5 -136.5t117.5 -366.5v-81q0 -234 -117 -370t-345 -136q-229 0 -346 135.5t-117 370.5v80q0 225 118.5 364.5t344.5 139.5zM558 906q-58 0 -103.5 -19t-74.5 -51t-48 -77.5t-27 -95t-8 -107.5v-57q0 -58 8 -108t26.5 -95
t48 -77t75 -50.5t103.5 -18.5q72 0 124 27.5t80.5 78t41 110t12.5 133.5v57q0 58 -7.5 107.5t-26 95t-47.5 77.5t-74 51t-103 19z" />
    <glyph glyph-name="ocircumflex" unicode="&#xf4;" horiz-adv-x="1115" 
d="M277 1217l213 298h133l204 -300h-162l-108 187h-4l-116 -185h-160zM558 1072q227 0 344.5 -136.5t117.5 -366.5v-81q0 -234 -117 -370t-345 -136q-229 0 -346 135.5t-117 370.5v80q0 225 118.5 364.5t344.5 139.5zM558 906q-58 0 -103.5 -19t-74.5 -51t-48 -77.5t-27 -95
t-8 -107.5v-57q0 -58 8 -108t26.5 -95t48 -77t75 -50.5t103.5 -18.5q72 0 124 27.5t80.5 78t41 110t12.5 133.5v57q0 58 -7.5 107.5t-26 95t-47.5 77.5t-74 51t-103 19z" />
    <glyph glyph-name="otilde" unicode="&#xf5;" horiz-adv-x="1115" 
d="M524 1225q-18 19 -25 25.5t-24 16.5t-33 10q-61 0 -68 -101h-124q0 98 46.5 165t138.5 67q76 0 148 -74q4 -4 14.5 -15.5t15.5 -16t14 -11t18 -9t19 -2.5q33 0 49.5 34t19.5 76h124q0 -91 -51.5 -161.5t-134.5 -70.5q-51 0 -84 17t-63 50zM558 1072q227 0 344.5 -136.5
t117.5 -366.5v-81q0 -234 -117 -370t-345 -136q-229 0 -346 135.5t-117 370.5v80q0 225 118.5 364.5t344.5 139.5zM558 906q-58 0 -103.5 -19t-74.5 -51t-48 -77.5t-27 -95t-8 -107.5v-57q0 -58 8 -108t26.5 -95t48 -77t75 -50.5t103.5 -18.5q72 0 124 27.5t80.5 78t41 110
t12.5 133.5v57q0 58 -7.5 107.5t-26 95t-47.5 77.5t-74 51t-103 19z" />
    <glyph glyph-name="odieresis" unicode="&#xf6;" horiz-adv-x="1115" 
d="M275 1263q0 45 28.5 74t72.5 29q45 0 73.5 -28.5t28.5 -74.5q0 -44 -28.5 -72.5t-73.5 -28.5q-44 0 -72.5 29t-28.5 72zM638 1263q0 46 28 74.5t72 28.5q46 0 74.5 -28.5t28.5 -74.5q0 -44 -29 -72.5t-74 -28.5q-43 0 -71.5 28.5t-28.5 72.5zM558 1072
q227 0 344.5 -136.5t117.5 -366.5v-81q0 -234 -117 -370t-345 -136q-229 0 -346 135.5t-117 370.5v80q0 225 118.5 364.5t344.5 139.5zM558 906q-58 0 -103.5 -19t-74.5 -51t-48 -77.5t-27 -95t-8 -107.5v-57q0 -58 8 -108t26.5 -95t48 -77t75 -50.5t103.5 -18.5
q72 0 124 27.5t80.5 78t41 110t12.5 133.5v57q0 58 -7.5 107.5t-26 95t-47.5 77.5t-74 51t-103 19z" />
    <glyph glyph-name="divide" unicode="&#xf7;" horiz-adv-x="1114" 
d="M1035 477h-956v157h956v-157zM417 952q0 60 39.5 99.5t97.5 39.5q61 0 101.5 -39.5t40.5 -99.5q0 -59 -40.5 -97t-101.5 -38q-58 0 -97.5 38t-39.5 97zM422 166q0 61 40 100.5t98 39.5q60 0 101 -40t41 -100q0 -58 -41 -96.5t-101 -38.5q-58 0 -98 38.5t-40 96.5z" />
    <glyph glyph-name="oslash" unicode="&#xf8;" horiz-adv-x="1115" 
d="M390 201q67 -56 168 -56q125 0 194.5 89t69.5 233v148q0 77 -30 137zM292 442q0 -81 30 -141l402 553q-66 58 -166 58q-121 0 -193.5 -90.5t-72.5 -231.5v-148zM558 -18q-154 0 -272 79l-101 -136l-99 75l108 146q-99 126 -99 309v146q0 213 129.5 342t333.5 129
q151 0 269 -80l101 135l99 -77l-107 -144q100 -125 100 -304v-146q0 -222 -128 -348t-334 -126z" />
    <glyph glyph-name="ugrave" unicode="&#xf9;" horiz-adv-x="1166" 
d="M690 1217h-164l-237 277h208zM1020 1054v-1054h-199v143h-9q-30 -69 -107.5 -114.5t-196.5 -45.5q-168 0 -269 95.5t-101 273.5v702h203v-646q0 -133 64.5 -190t170.5 -57q108 0 174.5 66t66.5 184v643h203z" />
    <glyph glyph-name="uacute" unicode="&#xfa;" horiz-adv-x="1166" 
d="M636 1215h-163l190 279h208zM1020 1054v-1054h-199v143h-9q-30 -69 -107.5 -114.5t-196.5 -45.5q-168 0 -269 95.5t-101 273.5v702h203v-646q0 -133 64.5 -190t170.5 -57q108 0 174.5 66t66.5 184v643h203z" />
    <glyph glyph-name="ucircumflex" unicode="&#xfb;" horiz-adv-x="1166" 
d="M302 1217l213 298h133l204 -300h-162l-108 187h-4l-116 -185h-160zM1020 1054v-1054h-199v143h-9q-30 -69 -107.5 -114.5t-196.5 -45.5q-168 0 -269 95.5t-101 273.5v702h203v-646q0 -133 64.5 -190t170.5 -57q108 0 174.5 66t66.5 184v643h203z" />
    <glyph glyph-name="udieresis" unicode="&#xfc;" horiz-adv-x="1166" 
d="M1020 1054v-1054h-199v143h-9q-30 -69 -107.5 -114.5t-196.5 -45.5q-168 0 -269 95.5t-101 273.5v702h203v-646q0 -133 64.5 -190t170.5 -57q108 0 174.5 66t66.5 184v643h203zM300 1263q0 45 28.5 74t72.5 29q45 0 73.5 -28.5t28.5 -74.5q0 -44 -28.5 -72.5t-73.5 -28.5
q-43 0 -72 29t-29 72zM663 1263q0 46 28 74.5t72 28.5q46 0 74.5 -28.5t28.5 -74.5q0 -44 -29 -72.5t-74 -28.5q-43 0 -71.5 28.5t-28.5 72.5z" />
    <glyph glyph-name="yacute" unicode="&#xfd;" horiz-adv-x="1052" 
d="M1009 1054q-365 -1044 -366 -1048l-27 -73q-21 -57 -41 -97.5t-52 -84.5t-70 -71t-93.5 -44.5t-124.5 -17.5q-61 0 -119 9v157q27 -5 80 -5q91 0 136.5 39.5t65.5 120.5l14 50l-381 1065h224l264 -864h9l266 864h215zM579 1215h-163l190 279h208z" />
    <glyph glyph-name="thorn" unicode="&#xfe;" horiz-adv-x="1164" 
d="M660 -16q-119 0 -193.5 48.5t-107.5 124.5h-10v-519h-202l-2 1799h195l2 -550h10q30 79 111.5 131t202.5 52q183 0 291.5 -121.5t108.5 -334.5v-172q0 -214 -110 -336t-296 -122zM610 154q115 0 183.5 81t68.5 239v106q0 157 -67.5 239.5t-188.5 82.5q-120 0 -188.5 -80
t-68.5 -218v-171q0 -124 72 -201.5t189 -77.5z" />
    <glyph glyph-name="ydieresis" unicode="&#xff;" horiz-adv-x="1052" 
d="M1009 1054q-365 -1044 -366 -1048l-27 -73q-21 -57 -41 -97.5t-52 -84.5t-70 -71t-93.5 -44.5t-124.5 -17.5q-61 0 -119 9v157q27 -5 80 -5q91 0 136.5 39.5t65.5 120.5l14 50l-381 1065h224l264 -864h9l266 864h215zM243 1263q0 45 28.5 74t72.5 29q45 0 73.5 -28.5
t28.5 -74.5q0 -44 -28.5 -72.5t-73.5 -28.5q-44 0 -72.5 29t-28.5 72zM606 1263q0 46 28 74.5t72 28.5q46 0 74.5 -28.5t28.5 -74.5q0 -44 -29 -72.5t-74 -28.5q-43 0 -71.5 28.5t-28.5 72.5z" />
    <glyph glyph-name="Amacron" unicode="&#x100;" horiz-adv-x="1218" 
d="M230 0h-209l476 1365h223l476 -1365h-221l-127 391h-490zM607 1141h-7l-193 -590h392zM888 1525h-558v110h558v-110z" />
    <glyph glyph-name="amacron" unicode="&#x101;" horiz-adv-x="1072" 
d="M733 138q-41 -68 -116.5 -111.5t-184.5 -43.5q-154 0 -249 87t-95 232q0 142 96.5 225.5t274.5 83.5h271v118q0 175 -204 175q-189 0 -205 -158h-194q7 148 107.5 236.5t299.5 88.5q188 0 293 -84t105 -260v-727h-192v138h-7zM491 143q102 0 170.5 61.5t68.5 152.5v111
h-243q-97 0 -146 -42t-49 -114q0 -82 57.5 -125.5t141.5 -43.5zM814 1214h-558v118h558v-118z" />
    <glyph glyph-name="Abreve" unicode="&#x102;" horiz-adv-x="1218" 
d="M230 0h-209l476 1365h223l476 -1365h-221l-127 391h-490zM607 1141h-7l-193 -590h392zM287 1756h132q0 -60 52 -101t138 -41t138 41t52 101h132q0 -52 -18.5 -98.5t-56 -85t-101 -61t-146.5 -22.5t-146.5 22.5t-101 61t-56 85t-18.5 98.5z" />
    <glyph glyph-name="abreve" unicode="&#x103;" horiz-adv-x="1072" 
d="M733 138q-41 -68 -116.5 -111.5t-184.5 -43.5q-154 0 -249 87t-95 232q0 142 96.5 225.5t274.5 83.5h271v118q0 175 -204 175q-189 0 -205 -158h-194q7 148 107.5 236.5t299.5 88.5q188 0 293 -84t105 -260v-727h-192v138h-7zM491 143q102 0 170.5 61.5t68.5 152.5v111
h-243q-97 0 -146 -42t-49 -114q0 -82 57.5 -125.5t141.5 -43.5zM234 1446h132q0 -69 42 -116.5t124 -47.5t124 47.5t42 116.5h131q0 -52 -18 -101t-53 -90.5t-93.5 -67t-132.5 -25.5t-133.5 25.5t-94 67t-52.5 90.5t-18 101z" />
    <glyph glyph-name="Aogonek" unicode="&#x104;" horiz-adv-x="1219" 
d="M230 0h-208l476 1365h223l469 -1344q-67 -20 -122 -62.5t-58 -101.5q-3 -52 29 -79.5t87 -27.5q45 0 80 8v-125q-42 -20 -131 -20q-95 0 -164 50t-69 145q0 131 143 225v3h-21l-115 355h-490zM609 1141h-9l-192 -590h392z" />
    <glyph glyph-name="aogonek" unicode="&#x105;" horiz-adv-x="1072" 
d="M491 143q102 0 170.5 61.5t68.5 152.5v111h-243q-97 0 -146 -42t-49 -114q0 -82 57.5 -125.5t141.5 -43.5zM946 -365q-55 -22 -129 -22q-94 0 -159.5 49t-65.5 145q0 78 40 131.5t112 96.5v103h-8q-41 -69 -116 -112t-185 -43q-155 0 -251 87t-96 233q0 142 96.5 225
t274.5 83h271v118q0 175 -204 175q-189 0 -205 -158h-194q7 148 108 236.5t300 88.5q187 0 292 -84t105 -260v-713q-72 -21 -125 -64.5t-53 -103.5q0 -44 31 -67.5t81 -23.5q43 0 80 8v-128z" />
    <glyph glyph-name="Cacute" unicode="&#x106;" horiz-adv-x="1258" 
d="M530 1510l255 206h219l-296 -206h-178zM310 764v-171q0 -222 91.5 -331t253.5 -109q146 0 227 79.5t81 196.5h201v-11q0 -64 -19.5 -126.5t-61.5 -120.5t-101.5 -102t-145.5 -70.5t-187 -26.5q-256 0 -401 160.5t-145 459.5v174q0 300 146.5 463.5t400.5 163.5
q121 0 221 -40t162.5 -106t96.5 -149t34 -172v-10h-201q0 56 -20.5 108.5t-58.5 95t-98.5 68t-134.5 25.5q-157 0 -249 -114t-92 -335z" />
    <glyph glyph-name="cacute" unicode="&#x107;" horiz-adv-x="1040" 
d="M95 473v113q0 215 119 350.5t329 135.5q189 0 299.5 -100t112.5 -239h-193q-8 65 -65 118t-150 53q-123 0 -186.5 -90.5t-63.5 -232.5v-109q0 -139 66.5 -227t183.5 -88q97 0 152 42t70 108h193q-5 -136 -119.5 -230.5t-299.5 -94.5q-212 0 -330 134.5t-118 356.5z
M573 1215h-163l190 279h208z" />
    <glyph glyph-name="Ccircumflex" unicode="&#x108;" horiz-adv-x="1258" 
d="M310 764v-171q0 -222 91.5 -331t253.5 -109q146 0 227 79.5t81 196.5h201v-11q0 -64 -19.5 -126.5t-61.5 -120.5t-101.5 -102t-145.5 -70.5t-187 -26.5q-256 0 -401 160.5t-145 459.5v174q0 300 146.5 463.5t400.5 163.5q121 0 221 -40t162.5 -106t96.5 -149t34 -172v-10
h-201q0 56 -20.5 108.5t-58.5 95t-98.5 68t-134.5 25.5q-157 0 -249 -114t-92 -335zM314 1507l277 238h119l274 -238h-176l-155 140h-8l-155 -140h-176z" />
    <glyph glyph-name="ccircumflex" unicode="&#x109;" horiz-adv-x="1040" 
d="M239 1217l213 298h133l204 -300h-162l-108 187h-4l-116 -185h-160zM95 473v113q0 215 119 350.5t329 135.5q189 0 299.5 -100t112.5 -239h-193q-8 65 -65 118t-150 53q-123 0 -186.5 -90.5t-63.5 -232.5v-109q0 -139 66.5 -227t183.5 -88q97 0 152 42t70 108h193
q-5 -136 -119.5 -230.5t-299.5 -94.5q-212 0 -330 134.5t-118 356.5z" />
    <glyph glyph-name="Cdotaccent" unicode="&#x10a;" horiz-adv-x="1258" 
d="M310 764v-171q0 -222 91.5 -331t253.5 -109q146 0 227 79.5t81 196.5h201v-11q0 -64 -19.5 -126.5t-61.5 -120.5t-101.5 -102t-145.5 -70.5t-187 -26.5q-256 0 -401 160.5t-145 459.5v174q0 300 146.5 463.5t400.5 163.5q121 0 221 -40t162.5 -106t96.5 -149t34 -172v-10
h-201q0 56 -20.5 108.5t-58.5 95t-98.5 68t-134.5 25.5q-157 0 -249 -114t-92 -335zM540 1605q0 47 31 78.5t76 31.5q47 0 79 -31.5t32 -78.5q0 -46 -32 -76.5t-79 -30.5q-45 0 -76 30.5t-31 76.5z" />
    <glyph glyph-name="cdotaccent" unicode="&#x10b;" horiz-adv-x="1040" 
d="M95 473v113q0 215 119 350.5t329 135.5q189 0 299.5 -100t112.5 -239h-193q-8 65 -65 118t-150 53q-123 0 -186.5 -90.5t-63.5 -232.5v-109q0 -139 66.5 -227t183.5 -88q97 0 152 42t70 108h193q-5 -136 -119.5 -230.5t-299.5 -94.5q-212 0 -330 134.5t-118 356.5z
M413 1294q0 47 31 78.5t76 31.5q47 0 79 -31.5t32 -78.5q0 -46 -32 -76.5t-79 -30.5q-45 0 -76 30.5t-31 76.5z" />
    <glyph glyph-name="Ccaron" unicode="&#x10c;" horiz-adv-x="1258" 
d="M310 764v-171q0 -222 91.5 -331t253.5 -109q146 0 227 79.5t81 196.5h201v-11q0 -64 -19.5 -126.5t-61.5 -120.5t-101.5 -102t-145.5 -70.5t-187 -26.5q-256 0 -401 160.5t-145 459.5v174q0 300 146.5 463.5t400.5 163.5q121 0 221 -40t162.5 -106t96.5 -149t34 -172v-10
h-201q0 56 -20.5 108.5t-58.5 95t-98.5 68t-134.5 25.5q-157 0 -249 -114t-92 -335zM312 1729h177l155 -127h8l154 127h177l-275 -221h-119z" />
    <glyph glyph-name="ccaron" unicode="&#x10d;" horiz-adv-x="1040" 
d="M244 1497h159l117 -186h4l108 187h162l-205 -299h-133zM95 473v113q0 215 119 350.5t329 135.5q189 0 299.5 -100t112.5 -239h-193q-8 65 -65 118t-150 53q-123 0 -186.5 -90.5t-63.5 -232.5v-109q0 -139 66.5 -227t183.5 -88q97 0 152 42t70 108h193
q-5 -136 -119.5 -230.5t-299.5 -94.5q-212 0 -330 134.5t-118 356.5z" />
    <glyph glyph-name="Dcaron" unicode="&#x10e;" horiz-adv-x="1303" 
d="M264 1729h177l155 -127h8l154 127h177l-275 -221h-119zM158 1365h457q129 0 231.5 -33t171.5 -91.5t114.5 -144.5t66 -187.5t20.5 -224.5q0 -121 -19.5 -222t-64.5 -188t-114 -147t-172 -93.5t-234 -33.5h-457v1365zM364 1189v-1012h233q207 0 308 125t101 379
q0 508 -409 508h-233z" />
    <glyph glyph-name="dcaron" unicode="&#x10f;" horiz-adv-x="1356" 
d="M1209 1436h175l-45 -488h-130v488zM505 1071q118 0 197.5 -46.5t107.5 -118.5h6v531h202v-1437h-195v160h-7q-21 -72 -105 -123.5t-206 -51.5q-196 0 -302.5 130t-106.5 349v127q0 217 107 348.5t302 131.5zM555 901q-126 0 -190 -91t-64 -245v-74q0 -157 65 -247.5
t193 -90.5q121 0 189 88t68 248v82q0 153 -69.5 241.5t-191.5 88.5z" />
    <glyph glyph-name="Dcroat" unicode="&#x110;" horiz-adv-x="1384" 
d="M696 0h-457v607h-162v179h162v579h457q129 0 231.5 -33t171.5 -91.5t114.5 -144.5t66 -187.5t20.5 -224.5q0 -121 -19.5 -222t-64.5 -188t-114 -147t-172 -93.5t-234 -33.5zM444 179h233q207 0 308 124.5t101 379.5q0 508 -409 508h-233v-405h288v-179h-288v-428z" />
    <glyph glyph-name="dcroat" unicode="&#x111;" horiz-adv-x="1168" 
d="M552 901q-116 0 -183.5 -82.5t-67.5 -229.5v-123q0 -149 68.5 -231t187.5 -82t189.5 80t70.5 218v171q0 123 -74.5 201t-190.5 78zM814 168q-22 -74 -106 -128.5t-209 -54.5q-183 0 -292.5 120t-109.5 326v193q0 204 110 325.5t296 121.5q120 0 198 -49.5t106 -123.5h10
v267h-252v138h256v175h195v-175h131v-138h-128v-1165h-195v168h-10z" />
    <glyph glyph-name="Emacron" unicode="&#x112;" horiz-adv-x="1107" 
d="M996 177v-177h-838v1365h838v-177h-633v-408h597v-170h-597v-433h633zM850 1525h-558v110h558v-110z" />
    <glyph glyph-name="emacron" unicode="&#x113;" horiz-adv-x="1075" 
d="M554 -18q-222 0 -340.5 134t-118.5 361v93q0 228 116.5 365t329.5 137q215 0 329.5 -136.5t114.5 -363.5v-92h-689v-30q0 -128 65.5 -214.5t191.5 -86.5q97 0 150.5 42.5t67.5 105.5h201q-8 -56 -34.5 -108t-74 -100t-127.5 -77.5t-182 -29.5zM296 628h490v3
q0 123 -66 200.5t-179 77.5t-179 -78t-66 -200v-3zM816 1214h-558v118h558v-118z" />
    <glyph glyph-name="Ebreve" unicode="&#x114;" horiz-adv-x="1107" 
d="M996 177v-177h-838v1365h838v-177h-633v-408h597v-170h-597v-433h633zM249 1756h132q0 -60 52 -101t138 -41t138 41t52 101h132q0 -52 -18.5 -98.5t-56 -85t-101 -61t-146.5 -22.5t-146.5 22.5t-101 61t-56 85t-18.5 98.5z" />
    <glyph glyph-name="ebreve" unicode="&#x115;" horiz-adv-x="1075" 
d="M554 -18q-222 0 -340.5 134t-118.5 361v93q0 228 116.5 365t329.5 137q215 0 329.5 -136.5t114.5 -363.5v-92h-689v-30q0 -128 65.5 -214.5t191.5 -86.5q97 0 150.5 42.5t67.5 105.5h201q-8 -56 -34.5 -108t-74 -100t-127.5 -77.5t-182 -29.5zM296 628h490v3
q0 123 -66 200.5t-179 77.5t-179 -78t-66 -200v-3zM236 1446h132q0 -69 42 -116.5t124 -47.5t124 47.5t42 116.5h131q0 -52 -18 -101t-53 -90.5t-93.5 -67t-132.5 -25.5t-133.5 25.5t-94 67t-52.5 90.5t-18 101z" />
    <glyph glyph-name="Edotaccent" unicode="&#x116;" horiz-adv-x="1107" 
d="M465 1605q0 47 31 78.5t76 31.5q47 0 79 -31.5t32 -78.5q0 -46 -32 -76.5t-79 -30.5q-45 0 -76 30.5t-31 76.5zM996 177v-177h-838v1365h838v-177h-633v-408h597v-170h-597v-433h633z" />
    <glyph glyph-name="edotaccent" unicode="&#x117;" horiz-adv-x="1075" 
d="M431 1294q0 47 31 78.5t76 31.5q47 0 79 -31.5t32 -78.5q0 -46 -32 -76.5t-79 -30.5q-45 0 -76 30.5t-31 76.5zM554 -18q-222 0 -340.5 134t-118.5 361v93q0 228 116.5 365t329.5 137q215 0 329.5 -136.5t114.5 -363.5v-92h-689v-30q0 -128 65.5 -214.5t191.5 -86.5
q97 0 150.5 42.5t67.5 105.5h201q-8 -56 -34.5 -108t-74 -100t-127.5 -77.5t-182 -29.5zM296 628h490v3q0 123 -66 200.5t-179 77.5t-179 -78t-66 -200v-3z" />
    <glyph glyph-name="Eogonek" unicode="&#x118;" horiz-adv-x="1107" 
d="M997 -368q-57 -19 -123 -19q-99 0 -164.5 49t-65.5 146q0 118 117 189v3h-603v1365h838v-177h-634v-408h598v-170h-597v-433h633v-151q-75 -17 -134 -62.5t-59 -114.5q0 -48 32 -73.5t87 -25.5q46 0 75 8v-126z" />
    <glyph glyph-name="eogonek" unicode="&#x119;" horiz-adv-x="1075" 
d="M647 3q-38 -19 -106 -19q-213 0 -329.5 133.5t-116.5 359.5v93q0 228 116.5 365t329.5 137q215 0 329.5 -136.5t114.5 -363.5v-92h-689v-30q0 -128 65.5 -214.5t192.5 -86.5q97 0 150 42.5t67 105.5h200q-11 -73 -46.5 -131t-96.5 -117q-53 -49 -81 -93.5t-28 -95.5
q0 -49 34.5 -77t84.5 -28q40 0 74 9v-132q-51 -19 -124 -19q-97 0 -162.5 51.5t-65.5 143.5q0 46 17.5 85.5t31.5 55.5t43 44zM296 628h490v3q0 123 -66 200.5t-179 77.5t-179 -78t-66 -200v-3z" />
    <glyph glyph-name="Ecaron" unicode="&#x11a;" horiz-adv-x="1107" 
d="M237 1729h177l155 -127h8l154 127h177l-275 -221h-119zM996 177v-177h-838v1365h838v-177h-633v-408h597v-170h-597v-433h633z" />
    <glyph glyph-name="ecaron" unicode="&#x11b;" horiz-adv-x="1075" 
d="M262 1497h159l117 -186h4l108 187h162l-205 -299h-133zM554 -18q-222 0 -340.5 134t-118.5 361v93q0 228 116.5 365t329.5 137q215 0 329.5 -136.5t114.5 -363.5v-92h-689v-30q0 -128 65.5 -214.5t191.5 -86.5q97 0 150.5 42.5t67.5 105.5h201q-8 -56 -34.5 -108
t-74 -100t-127.5 -77.5t-182 -29.5zM296 628h490v3q0 123 -66 200.5t-179 77.5t-179 -78t-66 -200v-3z" />
    <glyph glyph-name="Gcircumflex" unicode="&#x11c;" horiz-adv-x="1283" 
d="M325 1507l277 238h119l274 -238h-176l-155 140h-8l-155 -140h-176zM1177 942h-203q-16 133 -103.5 202t-212.5 69q-154 0 -251.5 -108.5t-97.5 -327.5v-182q0 -208 88 -325.5t259 -117.5q143 0 234 79.5t91 202.5v116h-329v170h528v-279q0 -61 -16 -122.5t-55.5 -125
t-97.5 -112t-150 -79t-205 -30.5q-272 0 -412.5 167t-140.5 456v183q0 287 151 451t408 164q119 0 216.5 -37t160 -100.5t98 -143.5t40.5 -170z" />
    <glyph glyph-name="gcircumflex" unicode="&#x11d;" horiz-adv-x="1134" 
d="M286 1217l213 298h133l204 -300h-162l-108 187h-4l-116 -185h-160zM538 -230q132 0 199 65.5t67 187.5v153h-7q-32 -71 -113 -118t-188 -47q-179 0 -295.5 125t-116.5 336v132q0 210 116.5 338t298.5 128q120 0 194.5 -46.5t109.5 -117.5h6v148h196v-1033
q0 -107 -35.5 -188t-100.5 -130t-149.5 -73t-188.5 -24q-203 0 -310 90.5t-114 221.5h203q9 -64 67 -106t161 -42zM553 902q-122 0 -193.5 -87t-71.5 -235v-94q0 -146 73.5 -228.5t193.5 -82.5q116 0 182 86t66 215v105q0 139 -67.5 230t-182.5 91z" />
    <glyph glyph-name="Gbreve" unicode="&#x11e;" horiz-adv-x="1283" 
d="M1177 942h-203q-16 133 -103.5 202t-212.5 69q-154 0 -251.5 -108.5t-97.5 -327.5v-182q0 -208 88 -325.5t259 -117.5q143 0 234 79.5t91 202.5v116h-329v170h528v-279q0 -61 -16 -122.5t-55.5 -125t-97.5 -112t-150 -79t-205 -30.5q-272 0 -412.5 167t-140.5 456v183
q0 287 151 451t408 164q119 0 216.5 -37t160 -100.5t98 -143.5t40.5 -170zM335 1756h132q0 -60 52 -101t138 -41t138 41t52 101h132q0 -52 -18.5 -98.5t-56 -85t-101 -61t-146.5 -22.5t-146.5 22.5t-101 61t-56 85t-18.5 98.5z" />
    <glyph glyph-name="gbreve" unicode="&#x11f;" horiz-adv-x="1134" 
d="M265 1446h132q0 -69 42 -116.5t124 -47.5t124 47.5t42 116.5h131q0 -52 -18 -101t-53 -90.5t-93.5 -67t-132.5 -25.5t-133.5 25.5t-94 67t-52.5 90.5t-18 101zM538 -230q132 0 199 65.5t67 187.5v153h-7q-32 -71 -113 -118t-188 -47q-179 0 -295.5 125t-116.5 336v132
q0 210 116.5 338t298.5 128q120 0 194.5 -46.5t109.5 -117.5h6v148h196v-1033q0 -107 -35.5 -188t-100.5 -130t-149.5 -73t-188.5 -24q-203 0 -310 90.5t-114 221.5h203q9 -64 67 -106t161 -42zM553 902q-122 0 -193.5 -87t-71.5 -235v-94q0 -146 73.5 -228.5t193.5 -82.5
q116 0 182 86t66 215v105q0 139 -67.5 230t-182.5 91z" />
    <glyph glyph-name="Gdotaccent" unicode="&#x120;" horiz-adv-x="1283" 
d="M551 1605q0 47 31 78.5t76 31.5q47 0 79 -31.5t32 -78.5q0 -46 -32 -76.5t-79 -30.5q-45 0 -76 30.5t-31 76.5zM1177 942h-203q-16 133 -103.5 202t-212.5 69q-154 0 -251.5 -108.5t-97.5 -327.5v-182q0 -208 88 -325.5t259 -117.5q143 0 234 79.5t91 202.5v116h-329v170
h528v-279q0 -61 -16 -122.5t-55.5 -125t-97.5 -112t-150 -79t-205 -30.5q-272 0 -412.5 167t-140.5 456v183q0 287 151 451t408 164q119 0 216.5 -37t160 -100.5t98 -143.5t40.5 -170z" />
    <glyph glyph-name="gdotaccent" unicode="&#x121;" horiz-adv-x="1134" 
d="M460 1294q0 47 31 78.5t76 31.5q47 0 79 -31.5t32 -78.5q0 -46 -32 -76.5t-79 -30.5q-45 0 -76 30.5t-31 76.5zM538 -230q132 0 199 65.5t67 187.5v153h-7q-32 -71 -113 -118t-188 -47q-179 0 -295.5 125t-116.5 336v132q0 210 116.5 338t298.5 128q120 0 194.5 -46.5
t109.5 -117.5h6v148h196v-1033q0 -107 -35.5 -188t-100.5 -130t-149.5 -73t-188.5 -24q-203 0 -310 90.5t-114 221.5h203q9 -64 67 -106t161 -42zM553 902q-122 0 -193.5 -87t-71.5 -235v-94q0 -146 73.5 -228.5t193.5 -82.5q116 0 182 86t66 215v105q0 139 -67.5 230
t-182.5 91z" />
    <glyph glyph-name="Gcommaaccent" unicode="&#x122;" horiz-adv-x="1283" 
d="M643 -489h-149l85 335h178zM1177 942h-203q-16 133 -103.5 202t-212.5 69q-154 0 -251.5 -108.5t-97.5 -327.5v-182q0 -208 88 -325.5t259 -117.5q143 0 234 79.5t91 202.5v116h-329v170h528v-279q0 -61 -16 -122.5t-55.5 -125t-97.5 -112t-150 -79t-205 -30.5
q-272 0 -412.5 167t-140.5 456v183q0 287 151 451t408 164q119 0 216.5 -37t160 -100.5t98 -143.5t40.5 -170z" />
    <glyph glyph-name="gcommaaccent" unicode="&#x123;" horiz-adv-x="1134" 
d="M549 1589h149l-85 -335h-178zM538 -230q132 0 199 65.5t67 187.5v153h-7q-32 -71 -113 -118t-188 -47q-179 0 -295.5 125t-116.5 336v132q0 210 116.5 338t298.5 128q120 0 194.5 -46.5t109.5 -117.5h6v148h196v-1033q0 -107 -35.5 -188t-100.5 -130t-149.5 -73
t-188.5 -24q-203 0 -310 90.5t-114 221.5h203q9 -64 67 -106t161 -42zM553 902q-122 0 -193.5 -87t-71.5 -235v-94q0 -146 73.5 -228.5t193.5 -82.5q116 0 182 86t66 215v105q0 139 -67.5 230t-182.5 91z" />
    <glyph glyph-name="Hcircumflex" unicode="&#x124;" horiz-adv-x="1377" 
d="M1220 0h-206v615h-650v-615h-206v1365h206v-572h650v572h206v-1365zM356 1507l277 238h119l274 -238h-176l-155 140h-8l-155 -140h-176z" />
    <glyph glyph-name="hcircumflex" unicode="&#x125;" horiz-adv-x="1177" 
d="M149 0v1437h202v-526h8q27 63 101 111.5t192 48.5q174 0 279.5 -113t105.5 -297v-661h-202v617q0 128 -62 202t-175 74q-116 0 -181.5 -72t-65.5 -204v-617h-202zM-33 1600l213 298h133l204 -300h-162l-108 187h-4l-116 -185h-160z" />
    <glyph glyph-name="Hbar" unicode="&#x126;" horiz-adv-x="1377" 
d="M364 768h650v231h-650v-231zM364 590v-590h-206v999h-105v145h105v221h206v-221h650v221h206v-221h105v-145h-105v-999h-206v590h-650z" />
    <glyph glyph-name="hbar" unicode="&#x127;" horiz-adv-x="1177" 
d="M351 589v-589h-202v1165h-119v138h123v134h194v-134h263v-138h-259v-301h10q7 25 21 50.5t41 54.5t61 51t86.5 36.5t113.5 14.5q160 0 256.5 -91.5t96.5 -265.5v-714h-202v656q0 119 -60 181.5t-163 62.5q-123 0 -192 -87t-69 -224z" />
    <glyph glyph-name="Itilde" unicode="&#x128;" horiz-adv-x="521" 
d="M364 0h-206v1365h206v-1365zM236 1538l-9 9l-10.5 10.5t-9.5 8.5t-12 9t-11 6t-13 5t-13 1q-60 0 -64 -91h-116q0 82 43.5 140.5t126.5 58.5q43 0 75 -16t67 -50q5 -4 18 -17t19 -17.5t17.5 -9.5t23.5 -5q31 0 47 30.5t19 68.5h116q0 -78 -47.5 -139t-123.5 -61
q-51 0 -82 14.5t-61 44.5z" />
    <glyph glyph-name="itilde" unicode="&#x129;" horiz-adv-x="540" 
d="M170 0v1054h205v-1054h-205zM238 1225q-18 19 -25 25.5t-24 16.5t-33 10q-61 0 -68 -101h-124q0 98 46.5 165t138.5 67q76 0 148 -74q4 -4 14.5 -15.5t15.5 -16t14 -11t18 -9t19 -2.5q33 0 49.5 34t19.5 76h124q0 -91 -51.5 -161.5t-134.5 -70.5q-51 0 -84 17t-63 50z
" />
    <glyph glyph-name="Imacron" unicode="&#x12a;" horiz-adv-x="521" 
d="M364 0h-206v1365h206v-1365zM539 1525h-558v110h558v-110z" />
    <glyph glyph-name="imacron" unicode="&#x12b;" horiz-adv-x="540" 
d="M170 0v1054h205v-1054h-205zM550 1214h-558v118h558v-118z" />
    <glyph glyph-name="Ibreve" unicode="&#x12c;" horiz-adv-x="521" 
d="M364 0h-206v1365h206v-1365zM-62 1756h132q0 -60 52 -101t138 -41t138 41t52 101h132q0 -52 -18.5 -98.5t-56 -85t-101 -61t-146.5 -22.5t-146.5 22.5t-101 61t-56 85t-18.5 98.5z" />
    <glyph glyph-name="ibreve" unicode="&#x12d;" horiz-adv-x="540" 
d="M170 0v1054h205v-1054h-205zM-30 1446h132q0 -69 42 -116.5t124 -47.5t124 47.5t42 116.5h131q0 -52 -18 -101t-53 -90.5t-93.5 -67t-132.5 -25.5t-133.5 25.5t-94 67t-52.5 90.5t-18 101z" />
    <glyph glyph-name="Iogonek" unicode="&#x12e;" horiz-adv-x="521" 
d="M388 -366q-42 -21 -126 -21q-106 0 -168 51.5t-62 145.5q0 141 140 216v3h-14v1336h206v-1350q-170 -58 -170 -167q0 -48 31 -73.5t84 -25.5q46 0 79 9v-124z" />
    <glyph glyph-name="iogonek" unicode="&#x12f;" horiz-adv-x="541" 
d="M392 -368q-48 -19 -123 -19q-111 0 -176.5 51t-65.5 147q0 141 143 218v1025h201v-1035q-32 -10 -60.5 -24t-56 -34.5t-44 -49.5t-16.5 -62q0 -48 32 -73.5t86 -25.5q45 0 80 8v-126zM132 1375q0 57 39 94t98 37q62 0 101 -37t39 -94q0 -56 -39 -92.5t-101 -36.5
q-59 0 -98 36.5t-39 92.5z" />
    <glyph glyph-name="Idotaccent" unicode="&#x130;" horiz-adv-x="521" 
d="M364 0h-206v1365h206v-1365zM154 1605q0 47 31 78.5t76 31.5q47 0 79 -31.5t32 -78.5q0 -46 -32 -76.5t-79 -30.5q-45 0 -76 30.5t-31 76.5z" />
    <glyph glyph-name="dotlessi" unicode="&#x131;" horiz-adv-x="540" 
d="M170 0v1054h205v-1054h-205z" />
    <glyph glyph-name="Jcircumflex" unicode="&#x134;" horiz-adv-x="997" 
d="M25 338h200q3 -83 59.5 -131.5t138.5 -48.5q101 0 158.5 58t57.5 180v969h207v-956q0 -215 -114 -326t-308 -111q-184 0 -291.5 103t-107.5 263zM409 1507l277 238h119l274 -238h-176l-155 140h-8l-155 -140h-176z" />
    <glyph glyph-name="jcircumflex" unicode="&#x135;" horiz-adv-x="541" 
d="M371 1054v-1080q0 -177 -80 -261.5t-226 -84.5q-66 0 -102 9v154q25 -5 63 -5q77 0 110.5 45t33.5 145v1078h201zM-2 1204l213 298h133l204 -300h-162l-108 187h-4l-116 -185h-160z" />
    <glyph glyph-name="Kcommaaccent" unicode="&#x136;" horiz-adv-x="1209" 
d="M1177 1365l-502 -583l527 -782h-256l-423 641l-159 -175v-466h-206v1365h206v-644h9l568 644h236zM590 -489h-149l85 335h178z" />
    <glyph glyph-name="kcommaaccent" unicode="&#x137;" horiz-adv-x="1041" 
d="M350 382v-382h-202v1437h202v-848h9l406 465h231l-405 -457l432 -597h-239l-343 476zM528 -489h-149l85 335h178z" />
    <glyph glyph-name="Lacute" unicode="&#x139;" horiz-adv-x="999" 
d="M143 1510l255 206h219l-296 -206h-178zM976 181v-181h-818v1365h206v-1184h612z" />
    <glyph glyph-name="lacute" unicode="&#x13a;" horiz-adv-x="507" 
d="M307 1598h-163l190 279h208zM153 0v1437h201v-1437h-201z" />
    <glyph glyph-name="Lcommaaccent" unicode="&#x13b;" horiz-adv-x="999" 
d="M493 -489h-149l85 335h178zM976 181v-181h-818v1365h206v-1184h612z" />
    <glyph glyph-name="lcommaaccent" unicode="&#x13c;" horiz-adv-x="507" 
d="M239 -489h-149l85 335h178zM153 0v1437h201v-1437h-201z" />
    <glyph glyph-name="Lcaron" unicode="&#x13d;" horiz-adv-x="999" 
d="M588 1437h183l-50 -488h-133v488zM976 181v-181h-818v1365h206v-1184h612z" />
    <glyph glyph-name="lcaron" unicode="&#x13e;" horiz-adv-x="671" 
d="M526 1436h175l-45 -488h-130v488zM153 0v1437h201v-1437h-201z" />
    <glyph glyph-name="Lslash" unicode="&#x141;" horiz-adv-x="1014" 
d="M992 0h-819v531l-127 -74v189l127 74v645h206v-528l359 210v-192l-359 -208v-466h613v-181z" />
    <glyph glyph-name="lslash" unicode="&#x142;" horiz-adv-x="581" 
d="M392 0h-202v601l-150 -101v185l150 102v650h202v-519l150 102v-190l-150 -101v-729z" />
    <glyph glyph-name="Nacute" unicode="&#x143;" horiz-adv-x="1368" 
d="M567 1510l255 206h219l-296 -206h-178zM357 0h-199v1365h187l659 -1014h6v1014h200v-1365h-187l-660 1016h-6v-1016z" />
    <glyph glyph-name="nacute" unicode="&#x144;" horiz-adv-x="1171" 
d="M639 1215h-163l190 279h208zM146 0v1054h199v-143h7q31 67 111 113.5t192 46.5q164 0 269.5 -98t105.5 -274v-699h-203v630q0 263 -237 263q-116 0 -179.5 -69.5t-63.5 -200.5v-623h-201z" />
    <glyph glyph-name="Ncommaaccent" unicode="&#x145;" horiz-adv-x="1368" 
d="M669 -489h-149l85 335h178zM357 0h-199v1365h187l659 -1014h6v1014h200v-1365h-187l-660 1016h-6v-1016z" />
    <glyph glyph-name="ncommaaccent" unicode="&#x146;" horiz-adv-x="1171" 
d="M571 -489h-149l85 335h178zM146 0v1054h199v-143h7q31 67 111 113.5t192 46.5q164 0 269.5 -98t105.5 -274v-699h-203v630q0 263 -237 263q-116 0 -179.5 -69.5t-63.5 -200.5v-623h-201z" />
    <glyph glyph-name="Ncaron" unicode="&#x147;" horiz-adv-x="1368" 
d="M349 1729h177l155 -127h8l154 127h177l-275 -221h-119zM357 0h-199v1365h187l659 -1014h6v1014h200v-1365h-187l-660 1016h-6v-1016z" />
    <glyph glyph-name="ncaron" unicode="&#x148;" horiz-adv-x="1171" 
d="M310 1497h159l117 -186h4l108 187h162l-205 -299h-133zM146 0v1054h199v-143h7q31 67 111 113.5t192 46.5q164 0 269.5 -98t105.5 -274v-699h-203v630q0 263 -237 263q-116 0 -179.5 -69.5t-63.5 -200.5v-623h-201z" />
    <glyph glyph-name="Omacron" unicode="&#x14c;" horiz-adv-x="1324" 
d="M310 774v-194q0 -211 97 -319.5t254 -108.5q158 0 255 108.5t97 319.5v194q0 211 -97.5 325.5t-254.5 114.5q-156 0 -253.5 -114.5t-97.5 -325.5zM103 580v192q0 289 151 455t409 166t408 -165.5t150 -455.5v-192q0 -287 -151 -447.5t-410 -160.5t-408 160.5t-149 447.5z
M940 1525h-558v110h558v-110z" />
    <glyph glyph-name="omacron" unicode="&#x14d;" horiz-adv-x="1115" 
d="M836 1214h-558v118h558v-118zM558 1072q227 0 344.5 -136.5t117.5 -366.5v-81q0 -234 -117 -370t-345 -136q-229 0 -346 135.5t-117 370.5v80q0 225 118.5 364.5t344.5 139.5zM558 906q-58 0 -103.5 -19t-74.5 -51t-48 -77.5t-27 -95t-8 -107.5v-57q0 -58 8 -108
t26.5 -95t48 -77t75 -50.5t103.5 -18.5q72 0 124 27.5t80.5 78t41 110t12.5 133.5v57q0 58 -7.5 107.5t-26 95t-47.5 77.5t-74 51t-103 19z" />
    <glyph glyph-name="Obreve" unicode="&#x14e;" horiz-adv-x="1324" 
d="M310 774v-194q0 -211 97 -319.5t254 -108.5q158 0 255 108.5t97 319.5v194q0 211 -97.5 325.5t-254.5 114.5q-156 0 -253.5 -114.5t-97.5 -325.5zM103 580v192q0 289 151 455t409 166t408 -165.5t150 -455.5v-192q0 -287 -151 -447.5t-410 -160.5t-408 160.5t-149 447.5z
M339 1756h132q0 -60 52 -101t138 -41t138 41t52 101h132q0 -52 -18.5 -98.5t-56 -85t-101 -61t-146.5 -22.5t-146.5 22.5t-101 61t-56 85t-18.5 98.5z" />
    <glyph glyph-name="obreve" unicode="&#x14f;" horiz-adv-x="1115" 
d="M256 1446h132q0 -69 42 -116.5t124 -47.5t124 47.5t42 116.5h131q0 -52 -18 -101t-53 -90.5t-93.5 -67t-132.5 -25.5t-133.5 25.5t-94 67t-52.5 90.5t-18 101zM558 1072q227 0 344.5 -136.5t117.5 -366.5v-81q0 -234 -117 -370t-345 -136q-229 0 -346 135.5t-117 370.5
v80q0 225 118.5 364.5t344.5 139.5zM558 906q-58 0 -103.5 -19t-74.5 -51t-48 -77.5t-27 -95t-8 -107.5v-57q0 -58 8 -108t26.5 -95t48 -77t75 -50.5t103.5 -18.5q72 0 124 27.5t80.5 78t41 110t12.5 133.5v57q0 58 -7.5 107.5t-26 95t-47.5 77.5t-74 51t-103 19z" />
    <glyph glyph-name="Ohungarumlaut" unicode="&#x150;" horiz-adv-x="1324" 
d="M399 1510l271 218h188l-292 -218h-167zM724 1510l272 218h188l-293 -218h-167zM310 774v-194q0 -211 97 -319.5t254 -108.5q158 0 255 108.5t97 319.5v194q0 211 -97.5 325.5t-254.5 114.5q-156 0 -253.5 -114.5t-97.5 -325.5zM103 580v192q0 289 151 455t409 166
t408 -165.5t150 -455.5v-192q0 -287 -151 -447.5t-410 -160.5t-408 160.5t-149 447.5z" />
    <glyph glyph-name="ohungarumlaut" unicode="&#x151;" horiz-adv-x="1115" 
d="M448 1214h-129l214 315h169zM740 1214h-130l215 315h169zM558 1072q227 0 344.5 -136.5t117.5 -366.5v-81q0 -234 -117 -370t-345 -136q-229 0 -346 135.5t-117 370.5v80q0 225 118.5 364.5t344.5 139.5zM558 906q-58 0 -103.5 -19t-74.5 -51t-48 -77.5t-27 -95
t-8 -107.5v-57q0 -58 8 -108t26.5 -95t48 -77t75 -50.5t103.5 -18.5q72 0 124 27.5t80.5 78t41 110t12.5 133.5v57q0 58 -7.5 107.5t-26 95t-47.5 77.5t-74 51t-103 19z" />
    <glyph glyph-name="OE" unicode="&#x152;" horiz-adv-x="1958" 
d="M314 774v-195q0 -211 97 -319.5t254 -108.5q160 0 257.5 104t97.5 313v224q0 209 -98 315.5t-257 106.5q-156 0 -253.5 -114.5t-97.5 -325.5zM644 -28q-250 0 -395.5 161.5t-145.5 447.5v191q0 292 148.5 456.5t396.5 164.5q119 0 217.5 -42.5t150.5 -124.5h15v139h815
v-177h-625v-408h589v-170h-589v-433h625v-177h-815v144h-14q-55 -82 -154 -127t-219 -45z" />
    <glyph glyph-name="oe" unicode="&#x153;" horiz-adv-x="1802" 
d="M1279 -18q-117 0 -211 46.5t-143 124.5h-13q-52 -78 -147.5 -124.5t-206.5 -46.5q-209 0 -336 124.5t-127 348.5v146q0 213 129.5 342t333.5 129q115 0 207.5 -43.5t146.5 -128.5h13q50 79 141 125.5t199 46.5q197 0 320.5 -128t123.5 -341v-126h-689v-51
q0 -122 68 -199.5t189 -77.5q87 0 146 35t72 87h202q-6 -47 -34 -95.5t-76.5 -93t-129 -72.5t-178.5 -28zM558 906q-120 0 -190.5 -88t-70.5 -229v-123q0 -143 68.5 -229.5t192.5 -86.5t191 86.5t67 229.5v123q0 141 -69 229t-189 88zM1020 615h491v16q0 125 -67 201.5
t-178 76.5t-178.5 -76.5t-67.5 -201.5v-16z" />
    <glyph glyph-name="Racute" unicode="&#x154;" horiz-adv-x="1228" 
d="M465 1510l255 206h219l-296 -206h-178zM668 1365q113 0 201 -33t142 -91t81.5 -132t27.5 -159q0 -80 -23 -147t-61 -112.5t-80 -75t-88 -46.5l277 -569h-233l-248 532h-302v-532h-204v1365h510zM362 701h272q133 0 203 62t70 178q0 122 -72 187t-195 65h-278v-492z" />
    <glyph glyph-name="racute" unicode="&#x155;" horiz-adv-x="724" 
d="M474 1215h-163l190 279h208zM161 0v1054h201v-130h7q13 29 28.5 50.5t44 45.5t75 37t108.5 13q37 0 70 -5v-181q-27 6 -90 6q-240 0 -240 -250v-640h-204z" />
    <glyph glyph-name="Rcommaaccent" unicode="&#x156;" horiz-adv-x="1228" 
d="M668 1365q113 0 201 -33t142 -91t81.5 -132t27.5 -159q0 -80 -23 -147t-61 -112.5t-80 -75t-88 -46.5l277 -569h-233l-248 532h-302v-532h-204v1365h510zM362 701h272q133 0 203 62t70 178q0 122 -72 187t-195 65h-278v-492zM567 -489h-149l85 335h178z" />
    <glyph glyph-name="rcommaaccent" unicode="&#x157;" horiz-adv-x="724" 
d="M161 0v1054h201v-130h7q13 29 28.5 50.5t44 45.5t75 37t108.5 13q37 0 70 -5v-181q-27 6 -90 6q-240 0 -240 -250v-640h-204zM251 -489h-149l85 335h178z" />
    <glyph glyph-name="Rcaron" unicode="&#x158;" horiz-adv-x="1228" 
d="M668 1365q113 0 201 -33t142 -91t81.5 -132t27.5 -159q0 -80 -23 -147t-61 -112.5t-80 -75t-88 -46.5l277 -569h-233l-248 532h-302v-532h-204v1365h510zM362 701h272q133 0 203 62t70 178q0 122 -72 187t-195 65h-278v-492zM247 1729h177l155 -127h8l154 127h177
l-275 -221h-119z" />
    <glyph glyph-name="rcaron" unicode="&#x159;" horiz-adv-x="724" 
d="M145 1497h159l117 -186h4l108 187h162l-205 -299h-133zM161 0v1054h201v-130h7q13 29 28.5 50.5t44 45.5t75 37t108.5 13q37 0 70 -5v-181q-27 6 -90 6q-240 0 -240 -250v-640h-204z" />
    <glyph glyph-name="Sacute" unicode="&#x15a;" horiz-adv-x="1172" 
d="M467 1510l255 206h219l-296 -206h-178zM60 375h203q10 -99 93 -163.5t226 -64.5q136 0 215 60t79 163q0 80 -52.5 128t-166.5 76l-230 58q-68 17 -124 45t-103.5 70.5t-74 106t-26.5 142.5q0 125 68.5 217.5t177 137.5t239.5 45q129 0 236 -43.5t176 -134.5t71 -216h-199
q-9 97 -82.5 159t-204.5 62q-124 0 -199.5 -56.5t-75.5 -155.5q0 -144 191 -190l228 -58q65 -16 117 -37t98.5 -52.5t77 -71t48.5 -94t18 -121.5q0 -196 -144.5 -305.5t-375.5 -109.5q-107 0 -194 24.5t-143 64.5t-94 93.5t-54.5 108.5t-18.5 112z" />
    <glyph glyph-name="sacute" unicode="&#x15b;" horiz-adv-x="998" 
d="M98 750q0 82 32.5 145t89.5 101t127.5 57t151.5 19q181 0 282.5 -88.5t101.5 -229.5h-184q-5 68 -54 117.5t-152 49.5q-90 0 -145 -40.5t-55 -111.5q0 -32 16.5 -57.5t32.5 -39.5t58.5 -27t59.5 -16.5t70 -12.5q6 -1 9.5 -1.5t8.5 -1.5t9 -2q65 -12 113 -25t96 -36
t78 -53.5t48.5 -76.5t18.5 -105q0 -157 -115.5 -245t-312.5 -88q-183 0 -293.5 82.5t-110.5 223.5h196q10 -70 66 -111.5t151 -41.5q112 0 167 43.5t55 112.5q0 81 -90 119q-45 18 -174 43q-67 14 -112 26.5t-94.5 35.5t-78.5 52.5t-48 76t-19 106.5zM552 1215h-163l190 279
h208z" />
    <glyph glyph-name="Scircumflex" unicode="&#x15c;" horiz-adv-x="1172" 
d="M60 375h203q10 -99 93 -163.5t226 -64.5q136 0 215 60t79 163q0 80 -52.5 128t-166.5 76l-230 58q-68 17 -124 45t-103.5 70.5t-74 106t-26.5 142.5q0 125 68.5 217.5t177 137.5t239.5 45q129 0 236 -43.5t176 -134.5t71 -216h-199q-9 97 -82.5 159t-204.5 62
q-124 0 -199.5 -56.5t-75.5 -155.5q0 -144 191 -190l228 -58q65 -16 117 -37t98.5 -52.5t77 -71t48.5 -94t18 -121.5q0 -196 -144.5 -305.5t-375.5 -109.5q-107 0 -194 24.5t-143 64.5t-94 93.5t-54.5 108.5t-18.5 112zM251 1507l277 238h119l274 -238h-176l-155 140h-8
l-155 -140h-176z" />
    <glyph glyph-name="scircumflex" unicode="&#x15d;" horiz-adv-x="998" 
d="M218 1217l213 298h133l204 -300h-162l-108 187h-4l-116 -185h-160zM98 750q0 82 32.5 145t89.5 101t127.5 57t151.5 19q181 0 282.5 -88.5t101.5 -229.5h-184q-5 68 -54 117.5t-152 49.5q-90 0 -145 -40.5t-55 -111.5q0 -32 16.5 -57.5t32.5 -39.5t58.5 -27t59.5 -16.5
t70 -12.5q6 -1 9.5 -1.5t8.5 -1.5t9 -2q65 -12 113 -25t96 -36t78 -53.5t48.5 -76.5t18.5 -105q0 -157 -115.5 -245t-312.5 -88q-183 0 -293.5 82.5t-110.5 223.5h196q10 -70 66 -111.5t151 -41.5q112 0 167 43.5t55 112.5q0 81 -90 119q-45 18 -174 43q-67 14 -112 26.5
t-94.5 35.5t-78.5 52.5t-48 76t-19 106.5z" />
    <glyph glyph-name="Scedilla" unicode="&#x15e;" horiz-adv-x="1172" 
d="M584 -468q-89 -3 -149 15v111q47 -14 114 -14q48 0 82 16.5t34 56.5q0 23 -9.5 37t-31 20t-41 7.5t-54.5 1.5h-53v85l44 105q-98 5 -177 32t-130 66.5t-86 91.5t-50 104.5t-17 107.5h203q10 -99 93 -163.5t226 -64.5q136 0 215 60t79 163q0 80 -52.5 128t-166.5 76
l-230 58q-68 17 -124 45t-103.5 70.5t-74 106t-26.5 142.5q0 125 68.5 217.5t177 137.5t239.5 45q129 0 236 -43.5t176 -134.5t71 -216h-199q-9 97 -82.5 159t-204.5 62q-124 0 -199.5 -56.5t-75.5 -155.5q0 -144 191 -190l228 -58q65 -16 117 -37t98.5 -52.5t77 -71
t48.5 -94t18 -121.5q0 -176 -118.5 -283t-313.5 -127l-38 -92q94 0 146.5 -41.5t52.5 -121.5q0 -92 -63 -139t-166 -51z" />
    <glyph glyph-name="scedilla" unicode="&#x15f;" horiz-adv-x="998" 
d="M493 -463q-85 -4 -149 15v111q47 -14 114 -14q48 0 82 16.5t34 56.5q0 18 -8 31t-19.5 19.5t-32.5 10t-38 4.5t-45 1h-53v85l42 112q-157 14 -249 94.5t-92 208.5h196q10 -70 66 -111.5t151 -41.5q112 0 167 43.5t55 112.5q0 81 -90 119q-45 18 -174 43q-67 14 -112 26.5
t-94.5 35.5t-78.5 52.5t-48 76t-19 106.5q0 82 32.5 145t89.5 101t127.5 57t151.5 19q181 0 282.5 -88.5t101.5 -229.5h-184q-5 68 -54 117.5t-152 49.5q-90 0 -145 -40.5t-55 -111.5q0 -32 16.5 -57.5t32.5 -39.5t58.5 -27t59.5 -16.5t70 -12.5q6 -1 9.5 -1.5t8.5 -1.5
t9 -2q65 -12 113 -25t96 -36t78 -53.5t48.5 -76.5t18.5 -105q0 -143 -96.5 -229t-263.5 -100l-36 -96q95 0 151 -42t56 -121q0 -92 -63 -139t-166 -51z" />
    <glyph glyph-name="Scaron" unicode="&#x160;" horiz-adv-x="1172" 
d="M60 375h203q10 -99 93 -163.5t226 -64.5q136 0 215 60t79 163q0 80 -52.5 128t-166.5 76l-230 58q-68 17 -124 45t-103.5 70.5t-74 106t-26.5 142.5q0 125 68.5 217.5t177 137.5t239.5 45q129 0 236 -43.5t176 -134.5t71 -216h-199q-9 97 -82.5 159t-204.5 62
q-124 0 -199.5 -56.5t-75.5 -155.5q0 -144 191 -190l228 -58q65 -16 117 -37t98.5 -52.5t77 -71t48.5 -94t18 -121.5q0 -196 -144.5 -305.5t-375.5 -109.5q-107 0 -194 24.5t-143 64.5t-94 93.5t-54.5 108.5t-18.5 112zM249 1729h177l155 -127h8l154 127h177l-275 -221h-119
z" />
    <glyph glyph-name="scaron" unicode="&#x161;" horiz-adv-x="998" 
d="M223 1497h159l117 -186h4l108 187h162l-205 -299h-133zM98 750q0 82 32.5 145t89.5 101t127.5 57t151.5 19q181 0 282.5 -88.5t101.5 -229.5h-184q-5 68 -54 117.5t-152 49.5q-90 0 -145 -40.5t-55 -111.5q0 -32 16.5 -57.5t32.5 -39.5t58.5 -27t59.5 -16.5t70 -12.5
q6 -1 9.5 -1.5t8.5 -1.5t9 -2q65 -12 113 -25t96 -36t78 -53.5t48.5 -76.5t18.5 -105q0 -157 -115.5 -245t-312.5 -88q-183 0 -293.5 82.5t-110.5 223.5h196q10 -70 66 -111.5t151 -41.5q112 0 167 43.5t55 112.5q0 81 -90 119q-45 18 -174 43q-67 14 -112 26.5t-94.5 35.5
t-78.5 52.5t-48 76t-19 106.5z" />
    <glyph glyph-name="Tcedilla" unicode="&#x162;" horiz-adv-x="1054" 
d="M539 -485q-84 -4 -150 15v110q44 -13 115 -13q48 0 82 16.5t34 56.5q0 18 -8 31t-19.5 19.5t-33 10t-38 4t-44.5 0.5h-53v86l55 149h-54v1186h-407v179h1018v-179h-407v-1186h-19l-49 -132q95 0 151 -42t56 -121q0 -92 -63 -139t-166 -51z" />
    <glyph glyph-name="tcedilla" unicode="&#x163;" horiz-adv-x="700" 
d="M391 -465q-86 -3 -149 16v110q47 -14 114 -14q48 0 82 17t34 57q0 18 -8 31t-19.5 19.5t-33 10t-38 4t-44.5 0.5h-53v86l55 149q-73 30 -102 96t-29 179v591h-145v163h147v264h199v-264h207v-163h-207v-581q0 -89 35.5 -120.5t129.5 -31.5q22 0 48 2v-157q-40 -7 -98 -7
q-23 0 -63 2l-40 -105q96 0 151.5 -42t55.5 -121q0 -93 -63 -140t-166 -51z" />
    <glyph glyph-name="Tcaron" unicode="&#x164;" horiz-adv-x="1054" 
d="M192 1729h177l155 -127h8l154 127h177l-275 -221h-119zM629 0h-204v1186h-407v179h1018v-179h-407v-1186z" />
    <glyph glyph-name="tcaron" unicode="&#x165;" horiz-adv-x="722" 
d="M589 1698h175l-45 -488h-130v488zM202 1050v264h199v-264h207v-163h-207v-581q0 -89 35.5 -120.5t129.5 -31.5q22 0 48 2v-157q-40 -7 -98 -7q-94 0 -156 17.5t-97 56.5t-49 93.5t-14 136.5v591h-145v163h147z" />
    <glyph glyph-name="Tbar" unicode="&#x166;" horiz-adv-x="1054" 
d="M861 631h-232v-631h-204v631h-231v144h231v411h-406v179h1017v-179h-407v-411h232v-144z" />
    <glyph glyph-name="tbar" unicode="&#x167;" horiz-adv-x="683" 
d="M614 -1q-42 -7 -98 -7q-94 0 -156 17.5t-97 56.5t-49 93.5t-14 136.5v229h-139v138h139v224h-145v163h147v264h199v-264h207v-163h-207v-224h204v-138h-204v-219q0 -89 35.5 -120.5t129.5 -31.5q26 0 48 3v-158z" />
    <glyph glyph-name="Utilde" unicode="&#x168;" horiz-adv-x="1341" 
d="M348 1365v-881q0 -153 87 -242t235 -89t236 89.5t88 241.5v881h205v-891q0 -226 -145.5 -364t-383.5 -138q-237 0 -382.5 139t-145.5 366v888h206zM646 1538l-9 9l-10.5 10.5t-9.5 8.5t-12 9t-11 6t-13 5t-13 1q-60 0 -64 -91h-116q0 82 43.5 140.5t126.5 58.5
q43 0 75 -16t67 -50q5 -4 18 -17t19 -17.5t17.5 -9.5t23.5 -5q31 0 47 30.5t19 68.5h116q0 -78 -47.5 -139t-123.5 -61q-51 0 -82 14.5t-61 44.5z" />
    <glyph glyph-name="utilde" unicode="&#x169;" horiz-adv-x="1166" 
d="M1020 1054v-1054h-199v143h-9q-30 -69 -107.5 -114.5t-196.5 -45.5q-168 0 -269 95.5t-101 273.5v702h203v-646q0 -133 64.5 -190t170.5 -57q108 0 174.5 66t66.5 184v643h203zM549 1225q-18 19 -25 25.5t-24 16.5t-33 10q-61 0 -68 -101h-124q0 98 46.5 165t138.5 67
q76 0 148 -74q4 -4 14.5 -15.5t15.5 -16t14 -11t18 -9t19 -2.5q33 0 49.5 34t19.5 76h124q0 -91 -51.5 -161.5t-134.5 -70.5q-51 0 -84 17t-63 50z" />
    <glyph glyph-name="Umacron" unicode="&#x16a;" horiz-adv-x="1341" 
d="M348 1365v-881q0 -153 87 -242t235 -89t236 89.5t88 241.5v881h205v-891q0 -226 -145.5 -364t-383.5 -138q-237 0 -382.5 139t-145.5 366v888h206zM949 1525h-558v110h558v-110z" />
    <glyph glyph-name="umacron" unicode="&#x16b;" horiz-adv-x="1166" 
d="M1020 1054v-1054h-199v143h-9q-30 -69 -107.5 -114.5t-196.5 -45.5q-168 0 -269 95.5t-101 273.5v702h203v-646q0 -133 64.5 -190t170.5 -57q108 0 174.5 66t66.5 184v643h203zM861 1214h-558v118h558v-118z" />
    <glyph glyph-name="Ubreve" unicode="&#x16c;" horiz-adv-x="1341" 
d="M348 1365v-881q0 -153 87 -242t235 -89t236 89.5t88 241.5v881h205v-891q0 -226 -145.5 -364t-383.5 -138q-237 0 -382.5 139t-145.5 366v888h206zM348 1756h132q0 -60 52 -101t138 -41t138 41t52 101h132q0 -52 -18.5 -98.5t-56 -85t-101 -61t-146.5 -22.5t-146.5 22.5
t-101 61t-56 85t-18.5 98.5z" />
    <glyph glyph-name="ubreve" unicode="&#x16d;" horiz-adv-x="1166" 
d="M1020 1054v-1054h-199v143h-9q-30 -69 -107.5 -114.5t-196.5 -45.5q-168 0 -269 95.5t-101 273.5v702h203v-646q0 -133 64.5 -190t170.5 -57q108 0 174.5 66t66.5 184v643h203zM281 1446h132q0 -69 42 -116.5t124 -47.5t124 47.5t42 116.5h131q0 -52 -18 -101t-53 -90.5
t-93.5 -67t-132.5 -25.5t-133.5 25.5t-94 67t-52.5 90.5t-18 101z" />
    <glyph glyph-name="Uring" unicode="&#x16e;" horiz-adv-x="1341" 
d="M348 1365v-881q0 -153 87 -242t235 -89t236 89.5t88 241.5v881h205v-891q0 -226 -145.5 -364t-383.5 -138q-237 0 -382.5 139t-145.5 366v888h206zM669 1503q-84 0 -141 55t-57 138q0 82 57 137t141 55q83 0 140 -55t57 -137q0 -83 -57 -138t-140 -55zM569 1695
q0 -42 28.5 -71t71.5 -29q42 0 70 29t28 71q0 43 -28 71.5t-70 28.5q-43 0 -71.5 -28.5t-28.5 -71.5z" />
    <glyph glyph-name="uring" unicode="&#x16f;" horiz-adv-x="1166" 
d="M1020 1054v-1054h-199v143h-9q-30 -69 -107.5 -114.5t-196.5 -45.5q-168 0 -269 95.5t-101 273.5v702h203v-646q0 -133 64.5 -190t170.5 -57q108 0 174.5 66t66.5 184v643h203zM581 1192q-84 0 -141 55t-57 138q0 82 57 137t141 55q83 0 140 -55t57 -137q0 -83 -57 -138
t-140 -55zM481 1384q0 -42 28.5 -71t71.5 -29q42 0 70 29t28 71q0 43 -28 71.5t-70 28.5q-43 0 -71.5 -28.5t-28.5 -71.5z" />
    <glyph glyph-name="Uhungarumlaut" unicode="&#x170;" horiz-adv-x="1341" 
d="M348 1365v-881q0 -153 87 -242t235 -89t236 89.5t88 241.5v881h205v-891q0 -226 -145.5 -364t-383.5 -138q-237 0 -382.5 139t-145.5 366v888h206zM408 1510l271 218h188l-292 -218h-167zM733 1510l272 218h188l-293 -218h-167z" />
    <glyph glyph-name="uhungarumlaut" unicode="&#x171;" horiz-adv-x="1166" 
d="M473 1214h-129l214 315h169zM765 1214h-130l215 315h169zM1020 1054v-1054h-199v143h-9q-30 -69 -107.5 -114.5t-196.5 -45.5q-168 0 -269 95.5t-101 273.5v702h203v-646q0 -133 64.5 -190t170.5 -57q108 0 174.5 66t66.5 184v643h203z" />
    <glyph glyph-name="Uogonek" unicode="&#x172;" horiz-adv-x="1341" 
d="M968 -387q-98 0 -164.5 51t-66.5 147q0 118 97 195l-4 8q-80 -42 -172 -42q-225 0 -370.5 140t-145.5 365v888h206v-881q0 -153 87 -242t235 -89t236 89.5t88 241.5v881h205v-891q0 -231 -151 -391q-14 -16 -52.5 -55.5t-53.5 -57.5t-30.5 -50.5t-15.5 -64.5
q0 -51 32.5 -76t84.5 -25q37 0 76 10v-131q-60 -20 -121 -20z" />
    <glyph glyph-name="uogonek" unicode="&#x173;" horiz-adv-x="1166" 
d="M1030 -366q-49 -21 -129 -21q-95 0 -161 49.5t-66 145.5q0 34 11 66t23.5 53t38 45.5t38 34.5t39.5 30v138h-11q-26 -76 -106.5 -134t-208.5 -58q-166 0 -263 84t-97 260v727h203v-676q0 -120 60.5 -172t158.5 -52q108 0 182.5 70t74.5 171v659h203v-1047
q-74 -23 -129.5 -64.5t-55.5 -97.5q0 -44 31.5 -67t83.5 -23q45 0 80 8v-129z" />
    <glyph glyph-name="Wcircumflex" unicode="&#x174;" horiz-adv-x="1698" 
d="M516 1507l277 238h119l274 -238h-176l-155 140h-8l-155 -140h-176zM569 0h-187l-371 1365h233l238 -1037h7l261 1037h198l260 -1037h8l238 1037h232l-371 -1365h-187l-276 1030h-7z" />
    <glyph glyph-name="wcircumflex" unicode="&#x175;" horiz-adv-x="1493" 
d="M466 1217l213 298h133l204 -300h-162l-108 187h-4l-116 -185h-160zM1465 1054l-279 -1054h-203l-229 792h-5l-224 -792h-205l-292 1054h221l177 -815h9l221 815h190l228 -815h8l182 815h201z" />
    <glyph glyph-name="Ycircumflex" unicode="&#x176;" horiz-adv-x="1108" 
d="M656 0h-205v565l-456 800h232l324 -597h7l327 597h228l-457 -797v-568zM222 1507l277 238h119l274 -238h-176l-155 140h-8l-155 -140h-176z" />
    <glyph glyph-name="ycircumflex" unicode="&#x177;" horiz-adv-x="1052" 
d="M1009 1054q-365 -1044 -366 -1048l-27 -73q-21 -57 -41 -97.5t-52 -84.5t-70 -71t-93.5 -44.5t-124.5 -17.5q-61 0 -119 9v157q27 -5 80 -5q91 0 136.5 39.5t65.5 120.5l14 50l-381 1065h224l264 -864h9l266 864h215zM245 1217l213 298h133l204 -300h-162l-108 187h-4
l-116 -185h-160z" />
    <glyph glyph-name="Ydieresis" unicode="&#x178;" horiz-adv-x="1108" 
d="M656 0h-205v565l-456 800h232l324 -597h7l327 597h228l-457 -797v-568zM333 1583q0 40 25.5 65.5t64.5 25.5q40 0 65 -25.5t25 -65.5q0 -39 -25.5 -64.5t-64.5 -25.5t-64.5 26t-25.5 64zM642 1583q0 40 25 65.5t64 25.5q40 0 65 -25.5t25 -65.5q0 -39 -25 -64.5
t-65 -25.5q-39 0 -64 25.5t-25 64.5z" />
    <glyph glyph-name="Zacute" unicode="&#x179;" horiz-adv-x="1156" 
d="M462 1510l255 206h219l-296 -206h-178zM83 0v141l708 1041v6h-685v177h937v-139l-703 -1042v-6h721v-178h-978z" />
    <glyph glyph-name="zacute" unicode="&#x17a;" horiz-adv-x="977" 
d="M542 1215h-163l190 279h208zM92 0v128l544 755v11h-544v160h792v-133l-537 -749v-10h545v-162h-800z" />
    <glyph glyph-name="Zdotaccent" unicode="&#x17b;" horiz-adv-x="1156" 
d="M83 0v141l708 1041v6h-685v177h937v-139l-703 -1042v-6h721v-178h-978zM472 1605q0 47 31 78.5t76 31.5q47 0 79 -31.5t32 -78.5q0 -46 -32 -76.5t-79 -30.5q-45 0 -76 30.5t-31 76.5z" />
    <glyph glyph-name="zdotaccent" unicode="&#x17c;" horiz-adv-x="977" 
d="M382 1294q0 47 31 78.5t76 31.5q47 0 79 -31.5t32 -78.5q0 -46 -32 -76.5t-79 -30.5q-45 0 -76 30.5t-31 76.5zM92 0v128l544 755v11h-544v160h792v-133l-537 -749v-10h545v-162h-800z" />
    <glyph glyph-name="Zcaron" unicode="&#x17d;" horiz-adv-x="1156" 
d="M83 0v141l708 1041v6h-685v177h937v-139l-703 -1042v-6h721v-178h-978zM244 1729h177l155 -127h8l154 127h177l-275 -221h-119z" />
    <glyph glyph-name="zcaron" unicode="&#x17e;" horiz-adv-x="977" 
d="M213 1497h159l117 -186h4l108 187h162l-205 -299h-133zM92 0v128l544 755v11h-544v160h792v-133l-537 -749v-10h545v-162h-800z" />
    <glyph glyph-name="florin" unicode="&#x192;" horiz-adv-x="1114" 
d="M141 -186l169 922h-208l28 164h209l30 179q55 314 379 314q69 0 124 -18t88 -46.5t54 -66t28 -73.5t5 -72h-187q2 53 -33.5 83.5t-90.5 30.5q-130 0 -159 -167l-28 -164h294l-29 -164h-294l-168 -922h-211z" />
    <glyph glyph-name="Ohorn" unicode="&#x1a0;" horiz-adv-x="1335" 
d="M1221 580q0 -287 -151 -447.5t-410 -160.5t-408 160.5t-149 447.5v192q0 289 151 455t409 166q65 0 127.5 -13.5t102 -30t87.5 -30t88 -13.5q77 0 106.5 39.5t29.5 113.5v99h172v-109q0 -135 -67 -208t-191 -73l-3 -6q43 -63 74.5 -170t31.5 -220v-192zM310 774v-195
q0 -211 97 -319.5t254 -108.5q158 0 255 108.5t97 319.5v195q0 211 -97.5 325.5t-254.5 114.5q-156 0 -253.5 -114.5t-97.5 -325.5z" />
    <glyph glyph-name="ohorn" unicode="&#x1a1;" horiz-adv-x="1124" 
d="M558 -18q-209 0 -336 124.5t-127 348.5v146q0 213 129.5 342t333.5 129q61 0 141 -21t134 -21q71 0 99.5 36.5t28.5 110.5v156h172v-157q0 -262 -206 -276v-8q38 -52 65.5 -130t27.5 -160v-146q0 -222 -128 -348t-334 -126zM558 906q-120 0 -190.5 -88t-70.5 -229v-123
q0 -143 68.5 -229.5t192.5 -86.5t191 86.5t67 229.5v123q0 141 -69 229t-189 88z" />
    <glyph glyph-name="Uhorn" unicode="&#x1af;" horiz-adv-x="1411" 
d="M670 -27q-237 0 -382.5 139t-145.5 365v888h206v-880q0 -153 87 -242.5t235 -89.5t236 89.5t88 242.5v880h207q71 0 99 37.5t28 109.5v107h170v-117q0 -126 -63.5 -203.5t-188.5 -77.5h-47v-747q0 -226 -145.5 -363.5t-383.5 -137.5z" />
    <glyph glyph-name="uhorn" unicode="&#x1b0;" horiz-adv-x="1265" 
d="M809 175q-12 -34 -36 -66t-61 -61.5t-93 -47t-122 -17.5q-167 0 -263 83.5t-96 260.5v727h203v-676q0 -120 60.5 -172t158.5 -52q108 0 182.5 70t74.5 171v659h182q70 0 97 37.5t27 109.5v132h171v-142q0 -125 -63 -202t-190 -77h-21v-912h-200v175h-11z" />
    <glyph glyph-name="Acaron" unicode="&#x1cd;" horiz-adv-x="1218" 
d="M230 0h-209l476 1365h223l476 -1365h-221l-127 391h-490zM607 1141h-7l-193 -590h392zM275 1729h177l155 -127h8l154 127h177l-275 -221h-119z" />
    <glyph glyph-name="acaron" unicode="&#x1ce;" horiz-adv-x="1072" 
d="M733 138q-41 -68 -116.5 -111.5t-184.5 -43.5q-154 0 -249 87t-95 232q0 142 96.5 225.5t274.5 83.5h271v118q0 175 -204 175q-189 0 -205 -158h-194q7 148 107.5 236.5t299.5 88.5q188 0 293 -84t105 -260v-727h-192v138h-7zM491 143q102 0 170.5 61.5t68.5 152.5v111
h-243q-97 0 -146 -42t-49 -114q0 -82 57.5 -125.5t141.5 -43.5zM260 1497h159l117 -186h4l108 187h162l-205 -299h-133z" />
    <glyph glyph-name="Icaron" unicode="&#x1cf;" horiz-adv-x="521" 
d="M364 0h-206v1365h206v-1365zM-74 1729h177l155 -127h8l154 127h177l-275 -221h-119z" />
    <glyph glyph-name="icaron" unicode="&#x1d0;" horiz-adv-x="540" 
d="M-4 1497h159l117 -186h4l108 187h162l-205 -299h-133zM170 0v1054h205v-1054h-205z" />
    <glyph glyph-name="Ocaron" unicode="&#x1d1;" horiz-adv-x="1324" 
d="M327 1729h177l155 -127h8l154 127h177l-275 -221h-119zM310 774v-194q0 -211 97 -319.5t254 -108.5q158 0 255 108.5t97 319.5v194q0 211 -97.5 325.5t-254.5 114.5q-156 0 -253.5 -114.5t-97.5 -325.5zM103 580v192q0 289 151 455t409 166t408 -165.5t150 -455.5v-192
q0 -287 -151 -447.5t-410 -160.5t-408 160.5t-149 447.5z" />
    <glyph glyph-name="ocaron" unicode="&#x1d2;" horiz-adv-x="1115" 
d="M282 1497h159l117 -186h4l108 187h162l-205 -299h-133zM558 1072q227 0 344.5 -136.5t117.5 -366.5v-81q0 -234 -117 -370t-345 -136q-229 0 -346 135.5t-117 370.5v80q0 225 118.5 364.5t344.5 139.5zM558 906q-58 0 -103.5 -19t-74.5 -51t-48 -77.5t-27 -95t-8 -107.5
v-57q0 -58 8 -108t26.5 -95t48 -77t75 -50.5t103.5 -18.5q72 0 124 27.5t80.5 78t41 110t12.5 133.5v57q0 58 -7.5 107.5t-26 95t-47.5 77.5t-74 51t-103 19z" />
    <glyph glyph-name="Ucaron" unicode="&#x1d3;" horiz-adv-x="1341" 
d="M336 1729h177l155 -127h8l154 127h177l-275 -221h-119zM348 1365v-881q0 -153 87 -242t235 -89t236 89.5t88 241.5v881h205v-891q0 -226 -145.5 -364t-383.5 -138q-237 0 -382.5 139t-145.5 366v888h206z" />
    <glyph glyph-name="ucaron" unicode="&#x1d4;" horiz-adv-x="1166" 
d="M307 1497h159l117 -186h4l108 187h162l-205 -299h-133zM1020 1054v-1054h-199v143h-9q-30 -69 -107.5 -114.5t-196.5 -45.5q-168 0 -269 95.5t-101 273.5v702h203v-646q0 -133 64.5 -190t170.5 -57q108 0 174.5 66t66.5 184v643h203z" />
    <glyph glyph-name="Udieresismacron" unicode="&#x1d5;" horiz-adv-x="1341" 
d="M449 1583q0 40 25.5 65.5t64.5 25.5q40 0 65 -25.5t25 -65.5q0 -39 -25.5 -64.5t-64.5 -25.5t-64.5 26t-25.5 64zM758 1583q0 40 25 65.5t64 25.5q40 0 65 -25.5t25 -65.5q0 -39 -25 -64.5t-65 -25.5q-39 0 -64 25.5t-25 64.5zM348 1365v-881q0 -153 87 -242t235 -89
t236 89.5t88 241.5v881h205v-891q0 -226 -145.5 -364t-383.5 -138q-237 0 -382.5 139t-145.5 366v888h206zM949 1795h-558v110h558v-110z" />
    <glyph glyph-name="udieresismacron" unicode="&#x1d6;" horiz-adv-x="1166" 
d="M1020 1054v-1054h-199v143h-9q-30 -69 -107.5 -114.5t-196.5 -45.5q-168 0 -269 95.5t-101 273.5v702h203v-646q0 -133 64.5 -190t170.5 -57q108 0 174.5 66t66.5 184v643h203zM300 1263q0 45 28.5 74t72.5 29q45 0 73.5 -28.5t28.5 -74.5q0 -44 -28.5 -72.5t-73.5 -28.5
q-43 0 -72 29t-29 72zM663 1263q0 46 28 74.5t72 28.5q46 0 74.5 -28.5t28.5 -74.5q0 -44 -29 -72.5t-74 -28.5q-43 0 -71.5 28.5t-28.5 72.5zM861 1520h-558v118h558v-118z" />
    <glyph glyph-name="Udieresisacute" unicode="&#x1d7;" horiz-adv-x="1341" 
d="M554 1738l255 206h219l-296 -206h-178zM449 1583q0 40 25.5 65.5t64.5 25.5q40 0 65 -25.5t25 -65.5q0 -39 -25.5 -64.5t-64.5 -25.5t-64.5 26t-25.5 64zM758 1583q0 40 25 65.5t64 25.5q40 0 65 -25.5t25 -65.5q0 -39 -25 -64.5t-65 -25.5q-39 0 -64 25.5t-25 64.5z
M348 1365v-881q0 -153 87 -242t235 -89t236 89.5t88 241.5v881h205v-891q0 -226 -145.5 -364t-383.5 -138q-237 0 -382.5 139t-145.5 366v888h206z" />
    <glyph glyph-name="udieresisacute" unicode="&#x1d8;" horiz-adv-x="1166" 
d="M636 1481h-163l190 279h208zM1020 1054v-1054h-199v143h-9q-30 -69 -107.5 -114.5t-196.5 -45.5q-168 0 -269 95.5t-101 273.5v702h203v-646q0 -133 64.5 -190t170.5 -57q108 0 174.5 66t66.5 184v643h203zM300 1263q0 45 28.5 74t72.5 29q45 0 73.5 -28.5t28.5 -74.5
q0 -44 -28.5 -72.5t-73.5 -28.5q-43 0 -72 29t-29 72zM663 1263q0 46 28 74.5t72 28.5q46 0 74.5 -28.5t28.5 -74.5q0 -44 -29 -72.5t-74 -28.5q-43 0 -71.5 28.5t-28.5 72.5z" />
    <glyph glyph-name="Udieresiscaron" unicode="&#x1d9;" horiz-adv-x="1341" 
d="M449 1583q0 40 25.5 65.5t64.5 25.5q40 0 65 -25.5t25 -65.5q0 -39 -25.5 -64.5t-64.5 -25.5t-64.5 26t-25.5 64zM758 1583q0 40 25 65.5t64 25.5q40 0 65 -25.5t25 -65.5q0 -39 -25 -64.5t-65 -25.5q-39 0 -64 25.5t-25 64.5zM336 1990h177l155 -127h8l154 127h177
l-275 -221h-119zM348 1365v-881q0 -153 87 -242t235 -89t236 89.5t88 241.5v881h205v-891q0 -226 -145.5 -364t-383.5 -138q-237 0 -382.5 139t-145.5 366v888h206z" />
    <glyph glyph-name="udieresiscaron" unicode="&#x1da;" horiz-adv-x="1166" 
d="M307 1796h159l117 -186h4l108 187h162l-205 -299h-133zM1020 1054v-1054h-199v143h-9q-30 -69 -107.5 -114.5t-196.5 -45.5q-168 0 -269 95.5t-101 273.5v702h203v-646q0 -133 64.5 -190t170.5 -57q108 0 174.5 66t66.5 184v643h203zM300 1263q0 45 28.5 74t72.5 29
q45 0 73.5 -28.5t28.5 -74.5q0 -44 -28.5 -72.5t-73.5 -28.5q-43 0 -72 29t-29 72zM663 1263q0 46 28 74.5t72 28.5q46 0 74.5 -28.5t28.5 -74.5q0 -44 -29 -72.5t-74 -28.5q-43 0 -71.5 28.5t-28.5 72.5z" />
    <glyph glyph-name="Udieresisgrave" unicode="&#x1db;" horiz-adv-x="1341" 
d="M786 1738h-175l-292 203h215zM449 1583q0 40 25.5 65.5t64.5 25.5q40 0 65 -25.5t25 -65.5q0 -39 -25.5 -64.5t-64.5 -25.5t-64.5 26t-25.5 64zM758 1583q0 40 25 65.5t64 25.5q40 0 65 -25.5t25 -65.5q0 -39 -25 -64.5t-65 -25.5q-39 0 -64 25.5t-25 64.5zM348 1365
v-881q0 -153 87 -242t235 -89t236 89.5t88 241.5v881h205v-891q0 -226 -145.5 -364t-383.5 -138q-237 0 -382.5 139t-145.5 366v888h206z" />
    <glyph glyph-name="udieresisgrave" unicode="&#x1dc;" horiz-adv-x="1166" 
d="M690 1482h-164l-237 277h208zM1020 1054v-1054h-199v143h-9q-30 -69 -107.5 -114.5t-196.5 -45.5q-168 0 -269 95.5t-101 273.5v702h203v-646q0 -133 64.5 -190t170.5 -57q108 0 174.5 66t66.5 184v643h203zM300 1263q0 45 28.5 74t72.5 29q45 0 73.5 -28.5t28.5 -74.5
q0 -44 -28.5 -72.5t-73.5 -28.5q-43 0 -72 29t-29 72zM663 1263q0 46 28 74.5t72 28.5q46 0 74.5 -28.5t28.5 -74.5q0 -44 -29 -72.5t-74 -28.5q-43 0 -71.5 28.5t-28.5 72.5z" />
    <glyph glyph-name="Adieresismacron" unicode="&#x1de;" horiz-adv-x="1218" 
d="M230 0h-209l476 1365h223l476 -1365h-221l-127 391h-490zM607 1141h-7l-193 -590h392zM388 1583q0 40 25.5 65.5t64.5 25.5q40 0 65 -25.5t25 -65.5q0 -39 -25.5 -64.5t-64.5 -25.5t-64.5 26t-25.5 64zM697 1583q0 40 25 65.5t64 25.5q40 0 65 -25.5t25 -65.5
q0 -39 -25 -64.5t-65 -25.5q-39 0 -64 25.5t-25 64.5zM888 1795h-558v110h558v-110z" />
    <glyph glyph-name="adieresismacron" unicode="&#x1df;" horiz-adv-x="1072" 
d="M733 138q-41 -68 -116.5 -111.5t-184.5 -43.5q-154 0 -249 87t-95 232q0 142 96.5 225.5t274.5 83.5h271v118q0 175 -204 175q-189 0 -205 -158h-194q7 148 107.5 236.5t299.5 88.5q188 0 293 -84t105 -260v-727h-192v138h-7zM491 143q102 0 170.5 61.5t68.5 152.5v111
h-243q-97 0 -146 -42t-49 -114q0 -82 57.5 -125.5t141.5 -43.5zM253 1263q0 45 28.5 74t72.5 29q45 0 73.5 -28.5t28.5 -74.5q0 -44 -28.5 -72.5t-73.5 -28.5q-44 0 -72.5 29t-28.5 72zM616 1263q0 46 28 74.5t72 28.5q46 0 74.5 -28.5t28.5 -74.5q0 -44 -29 -72.5
t-74 -28.5q-43 0 -71.5 28.5t-28.5 72.5zM814 1520h-558v118h558v-118z" />
    <glyph glyph-name="Adotmacron" unicode="&#x1e0;" horiz-adv-x="1218" 
d="M230 0h-209l476 1365h223l476 -1365h-221l-127 391h-490zM607 1141h-7l-193 -590h392zM503 1605q0 47 31 78.5t76 31.5q47 0 79 -31.5t32 -78.5q0 -46 -32 -76.5t-79 -30.5q-45 0 -76 30.5t-31 76.5zM888 1795h-558v110h558v-110z" />
    <glyph glyph-name="adotmacron" unicode="&#x1e1;" horiz-adv-x="1072" 
d="M733 138q-41 -68 -116.5 -111.5t-184.5 -43.5q-154 0 -249 87t-95 232q0 142 96.5 225.5t274.5 83.5h271v118q0 175 -204 175q-189 0 -205 -158h-194q7 148 107.5 236.5t299.5 88.5q188 0 293 -84t105 -260v-727h-192v138h-7zM491 143q102 0 170.5 61.5t68.5 152.5v111
h-243q-97 0 -146 -42t-49 -114q0 -82 57.5 -125.5t141.5 -43.5zM429 1294q0 47 31 78.5t76 31.5q47 0 79 -31.5t32 -78.5q0 -46 -32 -76.5t-79 -30.5q-45 0 -76 30.5t-31 76.5zM814 1520h-558v118h558v-118z" />
    <glyph glyph-name="AEmacron" unicode="&#x1e2;" horiz-adv-x="1864" 
d="M851 1188l-316 -618h387v618h-71zM922 405h-468l-212 -405h-230l719 1365h1021v-177h-626v-408h590v-170h-590v-433h626v-177h-830v405zM1620 1525h-558v110h558v-110z" />
    <glyph glyph-name="aemacron" unicode="&#x1e3;" horiz-adv-x="1714" 
d="M1198 -18q-148 0 -247 57.5t-137 145.5h-14q-43 -86 -133 -144.5t-223 -58.5q-162 0 -260.5 86.5t-98.5 235.5q0 145 99 229t280 84h269v102q0 93 -55 139t-155 46q-174 0 -206 -120h-193q11 135 116.5 211.5t289.5 76.5q107 0 193.5 -35t129.5 -103h13q45 66 130.5 102
t187.5 36q196 0 316.5 -127.5t120.5 -341.5v-126h-681v-76q0 -110 70.5 -181t185.5 -71q86 0 141.5 35t68.5 87h202q-6 -47 -32.5 -95.5t-74 -93t-126.5 -72.5t-177 -28zM1185 909q-106 0 -175.5 -74t-69.5 -188v-32h482v22q0 126 -63.5 199t-173.5 73zM494 143
q101 0 170 61.5t69 152.5v117h-244q-99 0 -151 -43.5t-52 -115.5q0 -83 61 -127.5t147 -44.5zM1135 1214h-558v118h558v-118z" />
    <glyph glyph-name="Gcaron" unicode="&#x1e6;" horiz-adv-x="1283" 
d="M323 1729h177l155 -127h8l154 127h177l-275 -221h-119zM1177 942h-203q-16 133 -103.5 202t-212.5 69q-154 0 -251.5 -108.5t-97.5 -327.5v-182q0 -208 88 -325.5t259 -117.5q143 0 234 79.5t91 202.5v116h-329v170h528v-279q0 -61 -16 -122.5t-55.5 -125t-97.5 -112
t-150 -79t-205 -30.5q-272 0 -412.5 167t-140.5 456v183q0 287 151 451t408 164q119 0 216.5 -37t160 -100.5t98 -143.5t40.5 -170z" />
    <glyph glyph-name="gcaron" unicode="&#x1e7;" horiz-adv-x="1134" 
d="M291 1497h159l117 -186h4l108 187h162l-205 -299h-133zM538 -230q132 0 199 65.5t67 187.5v153h-7q-32 -71 -113 -118t-188 -47q-179 0 -295.5 125t-116.5 336v132q0 210 116.5 338t298.5 128q120 0 194.5 -46.5t109.5 -117.5h6v148h196v-1033q0 -107 -35.5 -188
t-100.5 -130t-149.5 -73t-188.5 -24q-203 0 -310 90.5t-114 221.5h203q9 -64 67 -106t161 -42zM553 902q-122 0 -193.5 -87t-71.5 -235v-94q0 -146 73.5 -228.5t193.5 -82.5q116 0 182 86t66 215v105q0 139 -67.5 230t-182.5 91z" />
    <glyph glyph-name="Kcaron" unicode="&#x1e8;" horiz-adv-x="1209" 
d="M1177 1365l-502 -583l527 -782h-256l-423 641l-159 -175v-466h-206v1365h206v-644h9l568 644h236zM250 1729h177l155 -127h8l154 127h177l-275 -221h-119z" />
    <glyph glyph-name="kcaron" unicode="&#x1e9;" horiz-adv-x="1041" 
d="M-29 1880h159l117 -186h4l108 187h162l-205 -299h-133zM350 382v-382h-202v1437h202v-848h9l406 465h231l-405 -457l432 -597h-239l-343 476z" />
    <glyph glyph-name="Oogonek" unicode="&#x1ea;" horiz-adv-x="1324" 
d="M310 774v-194q0 -211 97 -319.5t254 -108.5q158 0 255 108.5t97 319.5v194q0 211 -97.5 325.5t-254.5 114.5q-156 0 -253.5 -114.5t-97.5 -325.5zM640 -27q-240 0 -388.5 163t-148.5 444v192q0 289 151 455t409 166t408 -165.5t150 -455.5v-192q0 -173 -48 -285.5
t-128 -202.5q-18 -21 -57 -61t-55.5 -59.5t-32.5 -51.5t-16 -64q0 -51 32.5 -75.5t86.5 -24.5q39 0 74 9v-133q-68 -19 -121 -19q-99 1 -165 52t-67 145q0 117 103 198l-6 10q-78 -45 -181 -45z" />
    <glyph glyph-name="oogonek" unicode="&#x1eb;" horiz-adv-x="1115" 
d="M558 906q-120 0 -190.5 -88t-70.5 -228v-124q0 -143 68.5 -229.5t192.5 -86.5t191 86.5t67 229.5v124q0 141 -69 228.5t-189 87.5zM668 18q-66 -33 -146 -33q-185 0 -306 125t-121 337v154q0 213 130 342t337 129q202 0 330 -126.5t128 -343.5v-146q0 -133 -41 -219.5
t-113 -164.5q-7 -7 -39.5 -41t-41 -44.5t-27 -36t-24 -46t-5.5 -43.5q0 -50 33 -78t87 -28q43 0 74 9v-132q-57 -19 -121 -19q-61 0 -111.5 19t-85.5 65t-35 112q0 117 106 199z" />
    <glyph glyph-name="Oogonekmacron" unicode="&#x1ec;" horiz-adv-x="1324" 
d="M310 774v-194q0 -211 97 -319.5t254 -108.5q158 0 255 108.5t97 319.5v194q0 211 -97.5 325.5t-254.5 114.5q-156 0 -253.5 -114.5t-97.5 -325.5zM640 -27q-240 0 -388.5 163t-148.5 444v192q0 289 151 455t409 166t408 -165.5t150 -455.5v-192q0 -173 -48 -285.5
t-128 -202.5q-18 -21 -57 -61t-55.5 -59.5t-32.5 -51.5t-16 -64q0 -51 32.5 -75.5t86.5 -24.5q39 0 74 9v-133q-68 -19 -121 -19q-99 1 -165 52t-67 145q0 117 103 198l-6 10q-78 -45 -181 -45zM940 1525h-558v110h558v-110z" />
    <glyph glyph-name="oogonekmacron" unicode="&#x1ed;" horiz-adv-x="1115" 
d="M558 906q-120 0 -190.5 -88t-70.5 -228v-124q0 -143 68.5 -229.5t192.5 -86.5t191 86.5t67 229.5v124q0 141 -69 228.5t-189 87.5zM668 18q-66 -33 -146 -33q-185 0 -306 125t-121 337v154q0 213 130 342t337 129q202 0 330 -126.5t128 -343.5v-146q0 -133 -41 -219.5
t-113 -164.5q-7 -7 -39.5 -41t-41 -44.5t-27 -36t-24 -46t-5.5 -43.5q0 -50 33 -78t87 -28q43 0 74 9v-132q-57 -19 -121 -19q-61 0 -111.5 19t-85.5 65t-35 112q0 117 106 199zM836 1214h-558v118h558v-118z" />
    <glyph glyph-name="Gacute" unicode="&#x1f4;" horiz-adv-x="1283" 
d="M541 1510l255 206h219l-296 -206h-178zM1177 942h-203q-16 133 -103.5 202t-212.5 69q-154 0 -251.5 -108.5t-97.5 -327.5v-182q0 -208 88 -325.5t259 -117.5q143 0 234 79.5t91 202.5v116h-329v170h528v-279q0 -61 -16 -122.5t-55.5 -125t-97.5 -112t-150 -79
t-205 -30.5q-272 0 -412.5 167t-140.5 456v183q0 287 151 451t408 164q119 0 216.5 -37t160 -100.5t98 -143.5t40.5 -170z" />
    <glyph glyph-name="gacute" unicode="&#x1f5;" horiz-adv-x="1134" 
d="M620 1215h-163l190 279h208zM538 -230q132 0 199 65.5t67 187.5v153h-7q-32 -71 -113 -118t-188 -47q-179 0 -295.5 125t-116.5 336v132q0 210 116.5 338t298.5 128q120 0 194.5 -46.5t109.5 -117.5h6v148h196v-1033q0 -107 -35.5 -188t-100.5 -130t-149.5 -73
t-188.5 -24q-203 0 -310 90.5t-114 221.5h203q9 -64 67 -106t161 -42zM553 902q-122 0 -193.5 -87t-71.5 -235v-94q0 -146 73.5 -228.5t193.5 -82.5q116 0 182 86t66 215v105q0 139 -67.5 230t-182.5 91z" />
    <glyph glyph-name="Ngrave" unicode="&#x1f8;" horiz-adv-x="1368" 
d="M799 1510h-175l-292 203h215zM357 0h-199v1365h187l659 -1014h6v1014h200v-1365h-187l-660 1016h-6v-1016z" />
    <glyph glyph-name="ngrave" unicode="&#x1f9;" horiz-adv-x="1171" 
d="M693 1217h-164l-237 277h208zM146 0v1054h199v-143h7q31 67 111 113.5t192 46.5q164 0 269.5 -98t105.5 -274v-699h-203v630q0 263 -237 263q-116 0 -179.5 -69.5t-63.5 -200.5v-623h-201z" />
    <glyph glyph-name="Aringacute" unicode="&#x1fa;" horiz-adv-x="1219" 
d="M557 1644l311 250h228l-330 -250h-209zM499 1502q0 -44 32 -75.5t76 -31.5t75.5 31.5t31.5 75.5q0 45 -31.5 76t-75.5 31q-45 0 -76.5 -31t-31.5 -76zM800 551l-191 590h-9l-192 -590h392zM230 0h-208l465 1329q-45 27 -71.5 73t-26.5 101q0 89 63.5 151.5t154.5 62.5
q89 0 152.5 -62.5t63.5 -151.5q0 -53 -25 -97.5t-67 -70.5l466 -1335h-221l-127 391h-490z" />
    <glyph glyph-name="aringacute" unicode="&#x1fb;" horiz-adv-x="1072" 
d="M691 1510h-158l239 339h210zM733 138q-41 -68 -116.5 -111.5t-184.5 -43.5q-154 0 -249 87t-95 232q0 142 96.5 225.5t274.5 83.5h271v118q0 175 -204 175q-189 0 -205 -158h-194q7 148 107.5 236.5t299.5 88.5q188 0 293 -84t105 -260v-727h-192v138h-7zM491 143
q102 0 170.5 61.5t68.5 152.5v111h-243q-97 0 -146 -42t-49 -114q0 -82 57.5 -125.5t141.5 -43.5zM542 1192q-84 0 -141 55t-57 138q0 82 57 137t141 55q83 0 140 -55t57 -137q0 -83 -57 -138t-140 -55zM442 1384q0 -42 28.5 -71t71.5 -29q42 0 70 29t28 71q0 43 -28 71.5
t-70 28.5q-43 0 -71.5 -28.5t-28.5 -71.5z" />
    <glyph glyph-name="AEacute" unicode="&#x1fc;" horiz-adv-x="1864" 
d="M1225 1510l255 206h219l-296 -206h-178zM851 1188l-316 -618h387v618h-71zM922 405h-468l-212 -405h-230l719 1365h1021v-177h-626v-408h590v-170h-590v-433h626v-177h-830v405z" />
    <glyph glyph-name="aeacute" unicode="&#x1fd;" horiz-adv-x="1714" 
d="M910 1215h-163l190 279h208zM1198 -18q-148 0 -247 57.5t-137 145.5h-14q-43 -86 -133 -144.5t-223 -58.5q-162 0 -260.5 86.5t-98.5 235.5q0 145 99 229t280 84h269v102q0 93 -55 139t-155 46q-174 0 -206 -120h-193q11 135 116.5 211.5t289.5 76.5q107 0 193.5 -35
t129.5 -103h13q45 66 130.5 102t187.5 36q196 0 316.5 -127.5t120.5 -341.5v-126h-681v-76q0 -110 70.5 -181t185.5 -71q86 0 141.5 35t68.5 87h202q-6 -47 -32.5 -95.5t-74 -93t-126.5 -72.5t-177 -28zM1185 909q-106 0 -175.5 -74t-69.5 -188v-32h482v22q0 126 -63.5 199
t-173.5 73zM494 143q101 0 170 61.5t69 152.5v117h-244q-99 0 -151 -43.5t-52 -115.5q0 -83 61 -127.5t147 -44.5z" />
    <glyph glyph-name="Oslashacute" unicode="&#x1fe;" horiz-adv-x="1324" 
d="M660 -28q-236 0 -380 136l-100 -124l-105 86l116 145q-88 148 -88 365v192q0 289 151 455t409 166q228 0 373 -133l95 118l109 -79l-116 -144q97 -154 97 -383v-192q0 -287 -151 -447.5t-410 -160.5zM308 579q0 -107 28 -186l576 714q-95 109 -251 109
q-157 0 -255 -114.5t-98 -327.5v-195zM661 149q160 0 257 109t97 321v195q0 117 -34 204l-578 -718q93 -111 258 -111zM545 1510l255 206h219l-296 -206h-178z" />
    <glyph glyph-name="oslashacute" unicode="&#x1ff;" horiz-adv-x="1115" 
d="M390 201q67 -56 168 -56q125 0 194.5 89t69.5 233v148q0 77 -30 137zM292 442q0 -81 30 -141l402 553q-66 58 -166 58q-121 0 -193.5 -90.5t-72.5 -231.5v-148zM558 -18q-154 0 -272 79l-101 -136l-99 75l108 146q-99 126 -99 309v146q0 213 129.5 342t333.5 129
q151 0 269 -80l101 135l99 -77l-107 -144q100 -125 100 -304v-146q0 -222 -128 -348t-334 -126zM611 1215h-163l190 279h208z" />
    <glyph glyph-name="Adblgrave" unicode="&#x200;" horiz-adv-x="1218" 
d="M230 0h-209l476 1365h223l476 -1365h-221l-127 391h-490zM607 1141h-7l-193 -590h392zM872 1510h-166l-293 218h188zM547 1510h-167l-292 218h188z" />
    <glyph glyph-name="adblgrave" unicode="&#x201;" horiz-adv-x="1072" 
d="M733 138q-41 -68 -116.5 -111.5t-184.5 -43.5q-154 0 -249 87t-95 232q0 142 96.5 225.5t274.5 83.5h271v118q0 175 -204 175q-189 0 -205 -158h-194q7 148 107.5 236.5t299.5 88.5q188 0 293 -84t105 -260v-727h-192v138h-7zM491 143q102 0 170.5 61.5t68.5 152.5v111
h-243q-97 0 -146 -42t-49 -114q0 -82 57.5 -125.5t141.5 -43.5zM334 1214l-254 315h170l215 -315h-131zM627 1214l-255 315h169l215 -315h-129z" />
    <glyph glyph-name="Ainvertedbreve" unicode="&#x202;" horiz-adv-x="1218" 
d="M230 0h-209l476 1365h223l476 -1365h-221l-127 391h-490zM607 1141h-7l-193 -590h392zM609 1636q-85 0 -137.5 -41t-52.5 -100h-132q0 111 81 188.5t241 77.5t241 -77.5t81 -188.5h-132q0 59 -52.5 100t-137.5 41z" />
    <glyph glyph-name="ainvertedbreve" unicode="&#x203;" horiz-adv-x="1072" 
d="M733 138q-41 -68 -116.5 -111.5t-184.5 -43.5q-154 0 -249 87t-95 232q0 142 96.5 225.5t274.5 83.5h271v118q0 175 -204 175q-189 0 -205 -158h-194q7 148 107.5 236.5t299.5 88.5q188 0 293 -84t105 -260v-727h-192v138h-7zM491 143q102 0 170.5 61.5t68.5 152.5v111
h-243q-97 0 -146 -42t-49 -114q0 -82 57.5 -125.5t141.5 -43.5zM237 1193q0 52 18 101t53 90.5t94 67t133 25.5t133 -25.5t94 -67t52.5 -90.5t17.5 -101h-131q0 69 -42 116.5t-124 47.5t-124 -47.5t-42 -116.5h-132z" />
    <glyph glyph-name="Edblgrave" unicode="&#x204;" horiz-adv-x="1107" 
d="M834 1510h-166l-293 218h188zM509 1510h-167l-292 218h188zM996 177v-177h-838v1365h838v-177h-633v-408h597v-170h-597v-433h633z" />
    <glyph glyph-name="edblgrave" unicode="&#x205;" horiz-adv-x="1075" 
d="M554 -18q-222 0 -340.5 134t-118.5 361v93q0 228 116.5 365t329.5 137q215 0 329.5 -136.5t114.5 -363.5v-92h-689v-30q0 -128 65.5 -214.5t191.5 -86.5q97 0 150.5 42.5t67.5 105.5h201q-8 -56 -34.5 -108t-74 -100t-127.5 -77.5t-182 -29.5zM296 628h490v3
q0 123 -66 200.5t-179 77.5t-179 -78t-66 -200v-3zM336 1214l-254 315h170l215 -315h-131zM629 1214l-255 315h169l215 -315h-129z" />
    <glyph glyph-name="Einvertedbreve" unicode="&#x206;" horiz-adv-x="1107" 
d="M996 177v-177h-838v1365h838v-177h-633v-408h597v-170h-597v-433h633zM571 1636q-85 0 -137.5 -41t-52.5 -100h-132q0 111 81 188.5t241 77.5t241 -77.5t81 -188.5h-132q0 59 -52.5 100t-137.5 41z" />
    <glyph glyph-name="einvertedbreve" unicode="&#x207;" horiz-adv-x="1075" 
d="M554 -18q-222 0 -340.5 134t-118.5 361v93q0 228 116.5 365t329.5 137q215 0 329.5 -136.5t114.5 -363.5v-92h-689v-30q0 -128 65.5 -214.5t191.5 -86.5q97 0 150.5 42.5t67.5 105.5h201q-8 -56 -34.5 -108t-74 -100t-127.5 -77.5t-182 -29.5zM296 628h490v3
q0 123 -66 200.5t-179 77.5t-179 -78t-66 -200v-3zM239 1193q0 52 18 101t53 90.5t94 67t133 25.5t133 -25.5t94 -67t52.5 -90.5t17.5 -101h-131q0 69 -42 116.5t-124 47.5t-124 -47.5t-42 -116.5h-132z" />
    <glyph glyph-name="Idblgrave" unicode="&#x208;" horiz-adv-x="521" 
d="M364 0h-206v1365h206v-1365zM523 1510h-166l-293 218h188zM198 1510h-167l-292 218h188z" />
    <glyph glyph-name="idblgrave" unicode="&#x209;" horiz-adv-x="540" 
d="M170 0v1054h205v-1054h-205zM70 1214l-254 315h170l215 -315h-131zM363 1214l-255 315h169l215 -315h-129z" />
    <glyph glyph-name="Iinvertedbreve" unicode="&#x20a;" horiz-adv-x="521" 
d="M364 0h-206v1365h206v-1365zM260 1636q-85 0 -137.5 -41t-52.5 -100h-132q0 111 81 188.5t241 77.5t241 -77.5t81 -188.5h-132q0 59 -52.5 100t-137.5 41z" />
    <glyph glyph-name="iinvertedbreve" unicode="&#x20b;" horiz-adv-x="540" 
d="M170 0v1054h205v-1054h-205zM-27 1193q0 52 18 101t53 90.5t94 67t133 25.5t133 -25.5t94 -67t52.5 -90.5t17.5 -101h-131q0 69 -42 116.5t-124 47.5t-124 -47.5t-42 -116.5h-132z" />
    <glyph glyph-name="Odblgrave" unicode="&#x20c;" horiz-adv-x="1324" 
d="M924 1510h-166l-293 218h188zM599 1510h-167l-292 218h188zM310 774v-194q0 -211 97 -319.5t254 -108.5q158 0 255 108.5t97 319.5v194q0 211 -97.5 325.5t-254.5 114.5q-156 0 -253.5 -114.5t-97.5 -325.5zM103 580v192q0 289 151 455t409 166t408 -165.5t150 -455.5
v-192q0 -287 -151 -447.5t-410 -160.5t-408 160.5t-149 447.5z" />
    <glyph glyph-name="odblgrave" unicode="&#x20d;" horiz-adv-x="1115" 
d="M558 1072q227 0 344.5 -136.5t117.5 -366.5v-81q0 -234 -117 -370t-345 -136q-229 0 -346 135.5t-117 370.5v80q0 225 118.5 364.5t344.5 139.5zM558 906q-58 0 -103.5 -19t-74.5 -51t-48 -77.5t-27 -95t-8 -107.5v-57q0 -58 8 -108t26.5 -95t48 -77t75 -50.5
t103.5 -18.5q72 0 124 27.5t80.5 78t41 110t12.5 133.5v57q0 58 -7.5 107.5t-26 95t-47.5 77.5t-74 51t-103 19zM356 1214l-254 315h170l215 -315h-131zM649 1214l-255 315h169l215 -315h-129z" />
    <glyph glyph-name="Oinvertedbreve" unicode="&#x20e;" horiz-adv-x="1324" 
d="M661 1636q-85 0 -137.5 -41t-52.5 -100h-132q0 111 81 188.5t241 77.5t241 -77.5t81 -188.5h-132q0 59 -52.5 100t-137.5 41zM310 774v-194q0 -211 97 -319.5t254 -108.5q158 0 255 108.5t97 319.5v194q0 211 -97.5 325.5t-254.5 114.5q-156 0 -253.5 -114.5
t-97.5 -325.5zM103 580v192q0 289 151 455t409 166t408 -165.5t150 -455.5v-192q0 -287 -151 -447.5t-410 -160.5t-408 160.5t-149 447.5z" />
    <glyph glyph-name="oinvertedbreve" unicode="&#x20f;" horiz-adv-x="1115" 
d="M558 1072q227 0 344.5 -136.5t117.5 -366.5v-81q0 -234 -117 -370t-345 -136q-229 0 -346 135.5t-117 370.5v80q0 225 118.5 364.5t344.5 139.5zM558 906q-58 0 -103.5 -19t-74.5 -51t-48 -77.5t-27 -95t-8 -107.5v-57q0 -58 8 -108t26.5 -95t48 -77t75 -50.5
t103.5 -18.5q72 0 124 27.5t80.5 78t41 110t12.5 133.5v57q0 58 -7.5 107.5t-26 95t-47.5 77.5t-74 51t-103 19zM259 1193q0 52 18 101t53 90.5t94 67t133 25.5t133 -25.5t94 -67t52.5 -90.5t17.5 -101h-131q0 69 -42 116.5t-124 47.5t-124 -47.5t-42 -116.5h-132z" />
    <glyph glyph-name="Rdblgrave" unicode="&#x210;" horiz-adv-x="1228" 
d="M844 1510h-166l-293 218h188zM519 1510h-167l-292 218h188zM668 1365q113 0 201 -33t142 -91t81.5 -132t27.5 -159q0 -80 -23 -147t-61 -112.5t-80 -75t-88 -46.5l277 -569h-233l-248 532h-302v-532h-204v1365h510zM362 701h272q133 0 203 62t70 178q0 122 -72 187
t-195 65h-278v-492z" />
    <glyph glyph-name="rdblgrave" unicode="&#x211;" horiz-adv-x="724" 
d="M161 0v1054h201v-130h7q13 29 28.5 50.5t44 45.5t75 37t108.5 13q37 0 70 -5v-181q-27 6 -90 6q-240 0 -240 -250v-640h-204zM219 1214l-254 315h170l215 -315h-131zM512 1214l-255 315h169l215 -315h-129z" />
    <glyph glyph-name="Rinvertedbreve" unicode="&#x212;" horiz-adv-x="1228" 
d="M668 1365q113 0 201 -33t142 -91t81.5 -132t27.5 -159q0 -80 -23 -147t-61 -112.5t-80 -75t-88 -46.5l277 -569h-233l-248 532h-302v-532h-204v1365h510zM362 701h272q133 0 203 62t70 178q0 122 -72 187t-195 65h-278v-492zM581 1636q-85 0 -137.5 -41t-52.5 -100h-132
q0 111 81 188.5t241 77.5t241 -77.5t81 -188.5h-132q0 59 -52.5 100t-137.5 41z" />
    <glyph glyph-name="rinvertedbreve" unicode="&#x213;" horiz-adv-x="724" 
d="M161 0v1054h201v-130h7q13 29 28.5 50.5t44 45.5t75 37t108.5 13q37 0 70 -5v-181q-27 6 -90 6q-240 0 -240 -250v-640h-204zM122 1193q0 52 18 101t53 90.5t94 67t133 25.5t133 -25.5t94 -67t52.5 -90.5t17.5 -101h-131q0 69 -42 116.5t-124 47.5t-124 -47.5t-42 -116.5
h-132z" />
    <glyph glyph-name="Udblgrave" unicode="&#x214;" horiz-adv-x="1341" 
d="M933 1510h-166l-293 218h188zM608 1510h-167l-292 218h188zM348 1365v-881q0 -153 87 -242t235 -89t236 89.5t88 241.5v881h205v-891q0 -226 -145.5 -364t-383.5 -138q-237 0 -382.5 139t-145.5 366v888h206z" />
    <glyph glyph-name="udblgrave" unicode="&#x215;" horiz-adv-x="1166" 
d="M1020 1054v-1054h-199v143h-9q-30 -69 -107.5 -114.5t-196.5 -45.5q-168 0 -269 95.5t-101 273.5v702h203v-646q0 -133 64.5 -190t170.5 -57q108 0 174.5 66t66.5 184v643h203zM381 1214l-254 315h170l215 -315h-131zM674 1214l-255 315h169l215 -315h-129z" />
    <glyph glyph-name="Uinvertedbreve" unicode="&#x216;" horiz-adv-x="1341" 
d="M348 1365v-881q0 -153 87 -242t235 -89t236 89.5t88 241.5v881h205v-891q0 -226 -145.5 -364t-383.5 -138q-237 0 -382.5 139t-145.5 366v888h206zM670 1636q-85 0 -137.5 -41t-52.5 -100h-132q0 111 81 188.5t241 77.5t241 -77.5t81 -188.5h-132q0 59 -52.5 100
t-137.5 41z" />
    <glyph glyph-name="uinvertedbreve" unicode="&#x217;" horiz-adv-x="1166" 
d="M1020 1054v-1054h-199v143h-9q-30 -69 -107.5 -114.5t-196.5 -45.5q-168 0 -269 95.5t-101 273.5v702h203v-646q0 -133 64.5 -190t170.5 -57q108 0 174.5 66t66.5 184v643h203zM284 1193q0 52 18 101t53 90.5t94 67t133 25.5t133 -25.5t94 -67t52.5 -90.5t17.5 -101h-131
q0 69 -42 116.5t-124 47.5t-124 -47.5t-42 -116.5h-132z" />
    <glyph glyph-name="Scommaaccent" unicode="&#x218;" horiz-adv-x="1172" 
d="M60 375h203q10 -99 93 -163.5t226 -64.5q136 0 215 60t79 163q0 80 -52.5 128t-166.5 76l-230 58q-68 17 -124 45t-103.5 70.5t-74 106t-26.5 142.5q0 125 68.5 217.5t177 137.5t239.5 45q129 0 236 -43.5t176 -134.5t71 -216h-199q-9 97 -82.5 159t-204.5 62
q-124 0 -199.5 -56.5t-75.5 -155.5q0 -144 191 -190l228 -58q65 -16 117 -37t98.5 -52.5t77 -71t48.5 -94t18 -121.5q0 -196 -144.5 -305.5t-375.5 -109.5q-107 0 -194 24.5t-143 64.5t-94 93.5t-54.5 108.5t-18.5 112zM550 -489h-149l85 335h178z" />
    <glyph glyph-name="scommaaccent" unicode="&#x219;" horiz-adv-x="998" 
d="M98 750q0 82 32.5 145t89.5 101t127.5 57t151.5 19q181 0 282.5 -88.5t101.5 -229.5h-184q-5 68 -54 117.5t-152 49.5q-90 0 -145 -40.5t-55 -111.5q0 -32 16.5 -57.5t32.5 -39.5t58.5 -27t59.5 -16.5t70 -12.5q6 -1 9.5 -1.5t8.5 -1.5t9 -2q65 -12 113 -25t96 -36
t78 -53.5t48.5 -76.5t18.5 -105q0 -157 -115.5 -245t-312.5 -88q-183 0 -293.5 82.5t-110.5 223.5h196q10 -70 66 -111.5t151 -41.5q112 0 167 43.5t55 112.5q0 81 -90 119q-45 18 -174 43q-67 14 -112 26.5t-94.5 35.5t-78.5 52.5t-48 76t-19 106.5zM484 -489h-149l85 335
h178z" />
    <glyph glyph-name="Tcommaaccent" unicode="&#x21a;" horiz-adv-x="1054" 
d="M512 -489h-149l85 335h178zM629 0h-204v1186h-407v179h1018v-179h-407v-1186z" />
    <glyph glyph-name="tcommaaccent" unicode="&#x21b;" horiz-adv-x="683" 
d="M402 -489h-149l85 335h178zM202 1050v264h199v-264h207v-163h-207v-581q0 -89 35.5 -120.5t129.5 -31.5q22 0 48 2v-157q-40 -7 -98 -7q-94 0 -156 17.5t-97 56.5t-49 93.5t-14 136.5v591h-145v163h147z" />
    <glyph glyph-name="Hcaron" unicode="&#x21e;" horiz-adv-x="1377" 
d="M1220 0h-206v615h-650v-615h-206v1365h206v-572h650v572h206v-1365zM354 1729h177l155 -127h8l154 127h177l-275 -221h-119z" />
    <glyph glyph-name="hcaron" unicode="&#x21f;" horiz-adv-x="1177" 
d="M149 0v1437h202v-526h8q27 63 101 111.5t192 48.5q174 0 279.5 -113t105.5 -297v-661h-202v617q0 128 -62 202t-175 74q-116 0 -181.5 -72t-65.5 -204v-617h-202zM-28 1880h159l117 -186h4l108 187h162l-205 -299h-133z" />
    <glyph glyph-name="Adotaccent" unicode="&#x226;" horiz-adv-x="1218" 
d="M230 0h-209l476 1365h223l476 -1365h-221l-127 391h-490zM607 1141h-7l-193 -590h392zM503 1605q0 47 31 78.5t76 31.5q47 0 79 -31.5t32 -78.5q0 -46 -32 -76.5t-79 -30.5q-45 0 -76 30.5t-31 76.5z" />
    <glyph glyph-name="adotaccent" unicode="&#x227;" horiz-adv-x="1072" 
d="M733 138q-41 -68 -116.5 -111.5t-184.5 -43.5q-154 0 -249 87t-95 232q0 142 96.5 225.5t274.5 83.5h271v118q0 175 -204 175q-189 0 -205 -158h-194q7 148 107.5 236.5t299.5 88.5q188 0 293 -84t105 -260v-727h-192v138h-7zM491 143q102 0 170.5 61.5t68.5 152.5v111
h-243q-97 0 -146 -42t-49 -114q0 -82 57.5 -125.5t141.5 -43.5zM429 1294q0 47 31 78.5t76 31.5q47 0 79 -31.5t32 -78.5q0 -46 -32 -76.5t-79 -30.5q-45 0 -76 30.5t-31 76.5z" />
    <glyph glyph-name="Ecedilla" unicode="&#x228;" horiz-adv-x="1107" 
d="M573 -469q-81 -3 -149 15v111q47 -14 114 -14q48 0 82 16.5t34 56.5q0 23 -10.5 37t-33.5 20t-43 7.5t-56 1.5h-53v85l50 133h-350v1365h838v-177h-633v-408h597v-170h-597v-433h633v-177h-357l-44 -115q95 0 151 -42t56 -121q0 -93 -63 -140t-166 -51z" />
    <glyph glyph-name="ecedilla" unicode="&#x229;" horiz-adv-x="1075" 
d="M296 628h490v3q0 123 -66 200.5t-179 77.5t-179 -78t-66 -200v-3zM551 -485q-85 -4 -149 15v110q44 -13 115 -13q115 0 115 73q0 18 -8 31t-19.5 19.5t-33 10t-38 4t-44.5 0.5h-53v86l51 135q-191 20 -291.5 150.5t-100.5 340.5v93q0 228 116.5 365t329.5 137
q215 0 329.5 -136.5t114.5 -363.5v-92h-689v-30q0 -128 65.5 -214.5t191.5 -86.5q97 0 150.5 42.5t67.5 105.5h201q-7 -51 -30 -99t-63.5 -94t-108 -77.5t-152.5 -40.5l-44 -118q95 0 150.5 -42t55.5 -121q0 -92 -63 -139t-166 -51z" />
    <glyph glyph-name="Odieresismacron" unicode="&#x22a;" horiz-adv-x="1324" 
d="M440 1583q0 40 25.5 65.5t64.5 25.5q40 0 65 -25.5t25 -65.5q0 -39 -25.5 -64.5t-64.5 -25.5t-64.5 26t-25.5 64zM749 1583q0 40 25 65.5t64 25.5q40 0 65 -25.5t25 -65.5q0 -39 -25 -64.5t-65 -25.5q-39 0 -64 25.5t-25 64.5zM310 774v-194q0 -211 97 -319.5t254 -108.5
q158 0 255 108.5t97 319.5v194q0 211 -97.5 325.5t-254.5 114.5q-156 0 -253.5 -114.5t-97.5 -325.5zM103 580v192q0 289 151 455t409 166t408 -165.5t150 -455.5v-192q0 -287 -151 -447.5t-410 -160.5t-408 160.5t-149 447.5zM940 1795h-558v110h558v-110z" />
    <glyph glyph-name="odieresismacron" unicode="&#x22b;" horiz-adv-x="1115" 
d="M275 1263q0 45 28.5 74t72.5 29q45 0 73.5 -28.5t28.5 -74.5q0 -44 -28.5 -72.5t-73.5 -28.5q-44 0 -72.5 29t-28.5 72zM638 1263q0 46 28 74.5t72 28.5q46 0 74.5 -28.5t28.5 -74.5q0 -44 -29 -72.5t-74 -28.5q-43 0 -71.5 28.5t-28.5 72.5zM558 1072
q227 0 344.5 -136.5t117.5 -366.5v-81q0 -234 -117 -370t-345 -136q-229 0 -346 135.5t-117 370.5v80q0 225 118.5 364.5t344.5 139.5zM558 906q-58 0 -103.5 -19t-74.5 -51t-48 -77.5t-27 -95t-8 -107.5v-57q0 -58 8 -108t26.5 -95t48 -77t75 -50.5t103.5 -18.5
q72 0 124 27.5t80.5 78t41 110t12.5 133.5v57q0 58 -7.5 107.5t-26 95t-47.5 77.5t-74 51t-103 19zM836 1520h-558v118h558v-118z" />
    <glyph glyph-name="Otildemacron" unicode="&#x22c;" horiz-adv-x="1324" 
d="M310 774v-194q0 -211 97 -319.5t254 -108.5q158 0 255 108.5t97 319.5v194q0 211 -97.5 325.5t-254.5 114.5q-156 0 -253.5 -114.5t-97.5 -325.5zM103 580v192q0 289 151 455t409 166t408 -165.5t150 -455.5v-192q0 -287 -151 -447.5t-410 -160.5t-408 160.5t-149 447.5z
M637 1538l-9 9l-10.5 10.5t-9.5 8.5t-12 9t-11 6t-13 5t-13 1q-60 0 -64 -91h-116q0 82 43.5 140.5t126.5 58.5q43 0 75 -16t67 -50q5 -4 18 -17t19 -17.5t17.5 -9.5t23.5 -5q31 0 47 30.5t19 68.5h116q0 -78 -47.5 -139t-123.5 -61q-51 0 -82 14.5t-61 44.5zM940 1795h-558
v110h558v-110z" />
    <glyph glyph-name="otildemacron" unicode="&#x22d;" horiz-adv-x="1115" 
d="M524 1225q-18 19 -25 25.5t-24 16.5t-33 10q-61 0 -68 -101h-124q0 98 46.5 165t138.5 67q76 0 148 -74q4 -4 14.5 -15.5t15.5 -16t14 -11t18 -9t19 -2.5q33 0 49.5 34t19.5 76h124q0 -91 -51.5 -161.5t-134.5 -70.5q-51 0 -84 17t-63 50zM836 1520h-558v118h558v-118z
M558 1072q227 0 344.5 -136.5t117.5 -366.5v-81q0 -234 -117 -370t-345 -136q-229 0 -346 135.5t-117 370.5v80q0 225 118.5 364.5t344.5 139.5zM558 906q-58 0 -103.5 -19t-74.5 -51t-48 -77.5t-27 -95t-8 -107.5v-57q0 -58 8 -108t26.5 -95t48 -77t75 -50.5t103.5 -18.5
q72 0 124 27.5t80.5 78t41 110t12.5 133.5v57q0 58 -7.5 107.5t-26 95t-47.5 77.5t-74 51t-103 19z" />
    <glyph glyph-name="Odotaccent" unicode="&#x22e;" horiz-adv-x="1324" 
d="M555 1605q0 47 31 78.5t76 31.5q47 0 79 -31.5t32 -78.5q0 -46 -32 -76.5t-79 -30.5q-45 0 -76 30.5t-31 76.5zM310 774v-194q0 -211 97 -319.5t254 -108.5q158 0 255 108.5t97 319.5v194q0 211 -97.5 325.5t-254.5 114.5q-156 0 -253.5 -114.5t-97.5 -325.5zM103 580
v192q0 289 151 455t409 166t408 -165.5t150 -455.5v-192q0 -287 -151 -447.5t-410 -160.5t-408 160.5t-149 447.5z" />
    <glyph glyph-name="odotaccent" unicode="&#x22f;" horiz-adv-x="1115" 
d="M451 1294q0 47 31 78.5t76 31.5q47 0 79 -31.5t32 -78.5q0 -46 -32 -76.5t-79 -30.5q-45 0 -76 30.5t-31 76.5zM558 1072q227 0 344.5 -136.5t117.5 -366.5v-81q0 -234 -117 -370t-345 -136q-229 0 -346 135.5t-117 370.5v80q0 225 118.5 364.5t344.5 139.5zM558 906
q-58 0 -103.5 -19t-74.5 -51t-48 -77.5t-27 -95t-8 -107.5v-57q0 -58 8 -108t26.5 -95t48 -77t75 -50.5t103.5 -18.5q72 0 124 27.5t80.5 78t41 110t12.5 133.5v57q0 58 -7.5 107.5t-26 95t-47.5 77.5t-74 51t-103 19z" />
    <glyph glyph-name="Odotaccentmacron" unicode="&#x230;" horiz-adv-x="1324" 
d="M555 1605q0 47 31 78.5t76 31.5q47 0 79 -31.5t32 -78.5q0 -46 -32 -76.5t-79 -30.5q-45 0 -76 30.5t-31 76.5zM310 774v-194q0 -211 97 -319.5t254 -108.5q158 0 255 108.5t97 319.5v194q0 211 -97.5 325.5t-254.5 114.5q-156 0 -253.5 -114.5t-97.5 -325.5zM103 580
v192q0 289 151 455t409 166t408 -165.5t150 -455.5v-192q0 -287 -151 -447.5t-410 -160.5t-408 160.5t-149 447.5zM940 1795h-558v110h558v-110z" />
    <glyph glyph-name="odotaccentmacron" unicode="&#x231;" horiz-adv-x="1115" 
d="M451 1294q0 47 31 78.5t76 31.5q47 0 79 -31.5t32 -78.5q0 -46 -32 -76.5t-79 -30.5q-45 0 -76 30.5t-31 76.5zM836 1520h-558v118h558v-118zM558 1072q227 0 344.5 -136.5t117.5 -366.5v-81q0 -234 -117 -370t-345 -136q-229 0 -346 135.5t-117 370.5v80
q0 225 118.5 364.5t344.5 139.5zM558 906q-58 0 -103.5 -19t-74.5 -51t-48 -77.5t-27 -95t-8 -107.5v-57q0 -58 8 -108t26.5 -95t48 -77t75 -50.5t103.5 -18.5q72 0 124 27.5t80.5 78t41 110t12.5 133.5v57q0 58 -7.5 107.5t-26 95t-47.5 77.5t-74 51t-103 19z" />
    <glyph glyph-name="Ymacron" unicode="&#x232;" horiz-adv-x="1108" 
d="M656 0h-205v565l-456 800h232l324 -597h7l327 597h228l-457 -797v-568zM833 1525h-558v110h558v-110z" />
    <glyph glyph-name="ymacron" unicode="&#x233;" horiz-adv-x="1052" 
d="M1009 1054q-365 -1044 -366 -1048l-27 -73q-21 -57 -41 -97.5t-52 -84.5t-70 -71t-93.5 -44.5t-124.5 -17.5q-61 0 -119 9v157q27 -5 80 -5q91 0 136.5 39.5t65.5 120.5l14 50l-381 1065h224l264 -864h9l266 864h215zM804 1214h-558v118h558v-118z" />
    <glyph glyph-name="circumflex" unicode="&#x2c6;" horiz-adv-x="946" 
d="M222 1204l213 298h133l204 -300h-162l-108 187h-4l-116 -185h-160z" />
    <glyph glyph-name="caron" unicode="&#x2c7;" horiz-adv-x="946" 
d="M194 1525h159l117 -186h4l108 187h162l-205 -299h-133z" />
    <glyph glyph-name="breve" unicode="&#x2d8;" horiz-adv-x="946" 
d="M171 1534h132q0 -69 42 -116.5t124 -47.5t124 47.5t42 116.5h131q0 -52 -18 -101t-53 -90.5t-93.5 -67t-132.5 -25.5t-133.5 25.5t-94 67t-52.5 90.5t-18 101z" />
    <glyph glyph-name="dotaccent" unicode="&#x2d9;" horiz-adv-x="946" 
d="M366 1432q0 54 35.5 88.5t87.5 34.5q54 0 90.5 -34.5t36.5 -88.5q0 -53 -36.5 -87t-90.5 -34q-52 0 -87.5 34t-35.5 87z" />
    <glyph glyph-name="ring" unicode="&#x2da;" horiz-adv-x="946" 
d="M482 1226q-84 0 -141 55t-57 138q0 82 57 137t141 55q83 0 140 -55t57 -137q0 -83 -57 -138t-140 -55zM382 1418q0 -42 28.5 -71t71.5 -29q42 0 70 29t28 71q0 43 -28 71.5t-70 28.5q-43 0 -71.5 -28.5t-28.5 -71.5z" />
    <glyph glyph-name="ogonek" unicode="&#x2db;" horiz-adv-x="946" 
d="M649 -236v-129q-50 -22 -135 -22q-93 0 -153.5 48.5t-60.5 139.5q0 46 22 95t46 79t60.5 70.5t46.5 52.5h128q-28 -30 -46.5 -52t-45 -58t-40.5 -71t-14 -67q0 -47 30.5 -71t77.5 -24q45 0 84 9z" />
    <glyph glyph-name="tilde" unicode="&#x2dc;" horiz-adv-x="946" 
d="M392 1293q-18 19 -25 25.5t-24 16.5t-33 10q-61 0 -68 -101h-124q0 98 46.5 165t138.5 67q76 0 148 -74q4 -4 14.5 -15.5t15.5 -16t14 -11t18 -9t19 -2.5q33 0 49.5 34t19.5 76h124q0 -91 -51.5 -161.5t-134.5 -70.5q-51 0 -84 17t-63 50z" />
    <glyph glyph-name="hungarumlaut" unicode="&#x2dd;" horiz-adv-x="946" 
d="M252 1215h-129l214 315h169zM544 1215h-130l215 315h169z" />
    <glyph glyph-name="gravecmb" unicode="&#x300;" 
d="M108 1217h-164l-237 277h208z" />
    <glyph glyph-name="acutecmb" unicode="&#x301;" 
d="M54 1215h-163l190 279h208z" />
    <glyph glyph-name="circumflexcmb" unicode="&#x302;" 
d="M-280 1217l213 298h133l204 -300h-162l-108 187h-4l-116 -185h-160z" />
    <glyph glyph-name="tildecmb" unicode="&#x303;" 
d="M-33 1225q-18 19 -25 25.5t-24 16.5t-33 10q-61 0 -68 -101h-124q0 98 46.5 165t138.5 67q76 0 148 -74q4 -4 14.5 -15.5t15.5 -16t14 -11t18 -9t19 -2.5q33 0 49.5 34t19.5 76h124q0 -91 -51.5 -161.5t-134.5 -70.5q-51 0 -84 17t-63 50z" />
    <glyph glyph-name="macroncmb" unicode="&#x304;" 
d="M279 1214h-558v118h558v-118z" />
    <glyph glyph-name="brevecmb" unicode="&#x306;" 
d="M-301 1446h132q0 -69 42 -116.5t124 -47.5t124 47.5t42 116.5h131q0 -52 -18 -101t-53 -90.5t-93.5 -67t-132.5 -25.5t-133.5 25.5t-94 67t-52.5 90.5t-18 101z" />
    <glyph glyph-name="dotaccentcmb" unicode="&#x307;" 
d="M-106 1294q0 47 31 78.5t76 31.5q47 0 79 -31.5t32 -78.5q0 -46 -32 -76.5t-79 -30.5q-45 0 -76 30.5t-31 76.5z" />
    <glyph glyph-name="dieresiscmb" unicode="&#x308;" 
d="M-282 1263q0 45 28.5 74t72.5 29q45 0 73.5 -28.5t28.5 -74.5q0 -44 -28.5 -72.5t-73.5 -28.5q-43 0 -72 29t-29 72zM81 1263q0 46 28 74.5t72 28.5q46 0 74.5 -28.5t28.5 -74.5q0 -44 -29 -72.5t-74 -28.5q-43 0 -71.5 28.5t-28.5 72.5z" />
    <glyph glyph-name="hookabovecmb" unicode="&#x309;" 
d="M-134 1437v110q43 18 111 18q102 0 161.5 -49.5t59.5 -136.5q0 -73 -42 -119.5t-120 -88.5l-68 90q54 30 76 55t22 55q0 37 -29 59.5t-74 22.5q-55 0 -97 -16z" />
    <glyph glyph-name="ringcmb" unicode="&#x30a;" 
d="M-1 1192q-84 0 -141 55t-57 138q0 82 57 137t141 55q83 0 140 -55t57 -137q0 -83 -57 -138t-140 -55zM-101 1384q0 -42 28.5 -71t71.5 -29q42 0 70 29t28 71q0 43 -28 71.5t-70 28.5q-43 0 -71.5 -28.5t-28.5 -71.5z" />
    <glyph glyph-name="hungarumlautcmb" unicode="&#x30b;" 
d="M-109 1214h-129l214 315h169zM183 1214h-130l215 315h169z" />
    <glyph glyph-name="caroncmb" unicode="&#x30c;" 
d="M-275 1497h159l117 -186h4l108 187h162l-205 -299h-133z" />
    <glyph glyph-name="dblgravecmb" unicode="&#x30f;" 
d="M-201 1214l-254 315h170l215 -315h-131zM92 1214l-255 315h169l215 -315h-129z" />
    <glyph glyph-name="invertedbrevecmb" unicode="&#x311;" 
d="M-298 1193q0 52 18 101t53 90.5t94 67t133 25.5t133 -25.5t94 -67t52.5 -90.5t17.5 -101h-131q0 69 -42 116.5t-124 47.5t-124 -47.5t-42 -116.5h-132z" />
    <glyph glyph-name="horncmb" unicode="&#x31b;" 
d="M-86 938v167q36 -34 92 -34q67 1 93.5 39t26.5 109v156h172v-166q0 -61 -14 -113t-42.5 -95t-78 -68t-114.5 -25q-93 0 -135 30z" />
    <glyph glyph-name="dotbelowcmb" unicode="&#x323;" 
d="M-110 -271q0 49 32.5 82t79.5 33q50 0 83 -33t33 -82q0 -48 -33 -80t-83 -32q-47 0 -79.5 32t-32.5 80z" />
    <glyph glyph-name="dieresisbelowcmb" unicode="&#x324;" 
d="M-285 -312q0 45 28.5 74t72.5 29q45 0 73.5 -28.5t28.5 -74.5q0 -44 -28.5 -72.5t-73.5 -28.5q-44 0 -72.5 28.5t-28.5 72.5zM78 -312q0 46 28 74.5t72 28.5q46 0 74.5 -28.5t28.5 -74.5q0 -44 -29 -72.5t-74 -28.5q-43 0 -71.5 28.5t-28.5 72.5z" />
    <glyph glyph-name="ringbelowcmb" unicode="&#x325;" 
d="M-198 -477q-84 0 -141 55t-57 138q0 82 57 137t141 55q83 0 140 -55t57 -137q0 -83 -57 -138t-140 -55zM-298 -285q0 -42 28.5 -71t71.5 -29q42 0 70 29t28 71q0 43 -28 71.5t-70 28.5q-43 0 -71.5 -28.5t-28.5 -71.5z" />
    <glyph glyph-name="commabelowcmb" unicode="&#x326;" 
d="M-14 -489h-149l85 335h178z" />
    <glyph glyph-name="cedillacmb" unicode="&#x327;" 
d="M-117 -235v86l59 157h131l-53 -140q96 0 151.5 -42t55.5 -121q0 -92 -63 -139t-166 -51q-85 -4 -149 15v110q44 -13 114 -13q48 0 82 16.5t34 56.5q0 18 -8 31t-19.5 19.5t-33 10t-38 4t-44.5 0.5h-53z" />
    <glyph glyph-name="ogonekcmb" unicode="&#x328;" 
d="M154 -236v-129q-49 -22 -135 -22q-93 0 -153.5 48.5t-60.5 139.5q0 46 22 95t46 79t60.5 70.5t46.5 52.5h128q-28 -30 -46.5 -52t-45 -58t-40.5 -71t-14 -67q0 -47 30.5 -71t77.5 -24q45 0 84 9z" />
    <glyph glyph-name="circumflexbelowcmb" unicode="&#x32d;" 
d="M-278 -403l212 291h133l205 -292h-162l-108 181h-5l-116 -180h-159z" />
    <glyph glyph-name="brevebelowcmb" unicode="&#x32e;" 
d="M-313 -137h139q0 -68 45 -116t129 -48t129 48t45 116h131q0 -53 -17.5 -101.5t-52.5 -90.5t-96 -67t-139 -25q-79 0 -140.5 24.5t-98 66t-55.5 90.5t-19 103z" />
    <glyph glyph-name="tildebelowcmb" unicode="&#x330;" 
d="M-31 -292l-11.5 11.5l-13 13t-12 10.5t-14 10t-14 5.5t-16.5 2.5q-60 0 -65 -98h-120q0 88 45 150.5t130 62.5q45 0 78 -17t69 -53q4 -4 14.5 -15.5t15.5 -16t14 -11t17.5 -9t18.5 -2.5q32 0 48 32.5t20 74.5h119q0 -84 -49 -149.5t-127 -65.5q-53 0 -85 16t-62 48z" />
    <glyph glyph-name="macronbelowcmb" unicode="&#x331;" 
d="M279 -327h-558v118h558v-118z" />
    <glyph glyph-name="Delta" unicode="&#x394;" horiz-adv-x="1219" 
d="M22 0l476 1365h223l476 -1365h-1175zM600 1141l-313 -958h633l-311 958h-9z" />
    <glyph glyph-name="Omega" unicode="&#x3a9;" horiz-adv-x="1331" 
d="M764 0v204q108 34 180.5 158t72.5 293v157q0 207 -95.5 304.5t-256.5 97.5t-256 -97.5t-95 -304.5v-157q0 -165 68.5 -288t171.5 -159v-207h-468v175h236v19q-94 43 -154.5 170.5t-60.5 291.5v157q0 285 148.5 432t410.5 147q263 0 410.5 -147t147.5 -432v-157
q0 -162 -64.5 -290t-160.5 -172v-22h247v-173h-482z" />
    <glyph glyph-name="mu" unicode="&#x3bc;" horiz-adv-x="1183" 
d="M321 55h-10l16 -391h-189v1390h203v-676q0 -120 60.5 -172t158.5 -52q108 0 182.5 70t74.5 171v659h203v-811q0 -96 93 -96q36 0 55 5v-153q-53 -13 -130 -13q-82 0 -140.5 44.5t-63.5 122.5l-2 24h-11q-23 -76 -101 -134.5t-201 -58.5q-60 0 -116.5 19t-81.5 52z" />
    <glyph glyph-name="pi" unicode="&#x3c0;" horiz-adv-x="1293" 
d="M1185 0q-53 -12 -125 -12q-102 0 -163.5 55t-61.5 147v701h-360v-891h-203v891h-225v163h1200v-163h-210v-648q0 -43 23 -67.5t65 -24.5q36 0 60 6v-157z" />
    <glyph glyph-name="Aringbelow" unicode="&#x1e00;" horiz-adv-x="1219" 
d="M230 0h-209l476 1365h223l476 -1365h-221l-127 391h-490zM607 1141h-7l-193 -590h392zM602 -455q-84 0 -141 55t-57 138q0 82 57 137t141 55q83 0 140 -55t57 -137q0 -83 -57 -138t-140 -55zM502 -263q0 -42 28.5 -71t71.5 -29q42 0 70 29t28 71q0 43 -28 71.5t-70 28.5
q-43 0 -71.5 -28.5t-28.5 -71.5z" />
    <glyph glyph-name="aringbelow" unicode="&#x1e01;" horiz-adv-x="1072" 
d="M733 138q-41 -68 -116.5 -111.5t-184.5 -43.5q-154 0 -249 87t-95 232q0 142 96.5 225.5t274.5 83.5h271v118q0 175 -204 175q-189 0 -205 -158h-194q7 148 107.5 236.5t299.5 88.5q188 0 293 -84t105 -260v-727h-192v138h-7zM491 143q102 0 170.5 61.5t68.5 152.5v111
h-243q-97 0 -146 -42t-49 -114q0 -82 57.5 -125.5t141.5 -43.5zM535 -477q-84 0 -141 55t-57 138q0 82 57 137t141 55q83 0 140 -55t57 -137q0 -83 -57 -138t-140 -55zM435 -285q0 -42 28.5 -71t71.5 -29q42 0 70 29t28 71q0 43 -28 71.5t-70 28.5q-43 0 -71.5 -28.5
t-28.5 -71.5z" />
    <glyph glyph-name="Bdotaccent" unicode="&#x1e02;" horiz-adv-x="1234" 
d="M158 0v1365h531q175 0 281 -89.5t106 -246.5q0 -120 -60.5 -196t-163.5 -105v-9q139 -17 219 -106t80 -230q0 -182 -131.5 -282.5t-344.5 -100.5h-517zM363 1197v-413h199q155 0 231.5 50.5t76.5 159.5q0 101 -60.5 152t-160.5 51h-286zM363 621v-452h225q82 0 142.5 9.5
t110 33t75 67.5t25.5 109q0 114 -73 173.5t-200 59.5h-305zM474 1605q0 47 31 78.5t76 31.5q47 0 79 -31.5t32 -78.5q0 -46 -32 -76.5t-79 -30.5q-45 0 -76 30.5t-31 76.5z" />
    <glyph glyph-name="bdotaccent" unicode="&#x1e03;" horiz-adv-x="1166" 
d="M140 1677q0 47 31 78.5t76 31.5q47 0 79 -31.5t32 -78.5q0 -46 -32 -76.5t-79 -30.5q-45 0 -76 30.5t-31 76.5zM658 -16q-118 0 -197.5 49t-110.5 127h-7v-160h-195v1437h202v-531h6q89 164 307 164q194 0 300.5 -130.5t106.5 -352.5v-117q0 -230 -109 -358t-303 -128z
M610 154q116 0 185 84.5t69 240.5v91q0 159 -67 245.5t-187 86.5q-119 0 -189.5 -90t-70.5 -231v-111q0 -85 27 -155t87 -115.5t146 -45.5z" />
    <glyph glyph-name="Bdotbelow" unicode="&#x1e04;" horiz-adv-x="1234" 
d="M470 -271q0 49 32.5 82t79.5 33q50 0 83 -33t33 -82q0 -48 -33 -80t-83 -32q-47 0 -79.5 32t-32.5 80zM158 0v1365h531q175 0 281 -89.5t106 -246.5q0 -120 -60.5 -196t-163.5 -105v-9q139 -17 219 -106t80 -230q0 -182 -131.5 -282.5t-344.5 -100.5h-517zM363 1197v-413
h199q155 0 231.5 50.5t76.5 159.5q0 101 -60.5 152t-160.5 51h-286zM363 621v-452h225q82 0 142.5 9.5t110 33t75 67.5t25.5 109q0 114 -73 173.5t-200 59.5h-305z" />
    <glyph glyph-name="bdotbelow" unicode="&#x1e05;" horiz-adv-x="1166" 
d="M472 -271q0 49 32.5 82t79.5 33q50 0 83 -33t33 -82q0 -48 -33 -80t-83 -32q-47 0 -79.5 32t-32.5 80zM658 -16q-118 0 -197.5 49t-110.5 127h-7v-160h-195v1437h202v-531h6q89 164 307 164q194 0 300.5 -130.5t106.5 -352.5v-117q0 -230 -109 -358t-303 -128zM610 154
q116 0 185 84.5t69 240.5v91q0 159 -67 245.5t-187 86.5q-119 0 -189.5 -90t-70.5 -231v-111q0 -85 27 -155t87 -115.5t146 -45.5z" />
    <glyph glyph-name="Blinebelow" unicode="&#x1e06;" horiz-adv-x="1234" 
d="M158 0v1365h531q175 0 281 -89.5t106 -246.5q0 -120 -60.5 -196t-163.5 -105v-9q139 -17 219 -106t80 -230q0 -182 -131.5 -282.5t-344.5 -100.5h-517zM363 1197v-413h199q155 0 231.5 50.5t76.5 159.5q0 101 -60.5 152t-160.5 51h-286zM363 621v-452h225q82 0 142.5 9.5
t110 33t75 67.5t25.5 109q0 114 -73 173.5t-200 59.5h-305zM859 -327h-558v118h558v-118z" />
    <glyph glyph-name="blinebelow" unicode="&#x1e07;" horiz-adv-x="1166" 
d="M861 -327h-558v118h558v-118zM658 -16q-118 0 -197.5 49t-110.5 127h-7v-160h-195v1437h202v-531h6q89 164 307 164q194 0 300.5 -130.5t106.5 -352.5v-117q0 -230 -109 -358t-303 -128zM610 154q116 0 185 84.5t69 240.5v91q0 159 -67 245.5t-187 86.5
q-119 0 -189.5 -90t-70.5 -231v-111q0 -85 27 -155t87 -115.5t146 -45.5z" />
    <glyph glyph-name="Ccedillaacute" unicode="&#x1e08;" horiz-adv-x="1258" 
d="M530 1510l255 206h219l-296 -206h-178zM641 -485q-84 -4 -150 15v110q44 -13 115 -13q48 0 82 16.5t34 56.5q0 18 -8 31t-19.5 19.5t-33 10t-38 4t-44.5 0.5h-53v86l47 125q-222 24 -346 182.5t-124 433.5v174q0 300 146.5 463.5t400.5 163.5q121 0 221 -40t162.5 -106
t96.5 -149t34 -172v-10h-201q0 56 -20.5 108.5t-58.5 95t-98.5 68t-134.5 25.5q-157 0 -249 -114t-92 -335v-171q0 -222 91.5 -331t253.5 -109q146 0 227 79.5t81 196.5h201v-11q0 -76 -28.5 -149.5t-83.5 -137t-145.5 -106t-203.5 -50.5l-40 -107q95 0 151 -42t56 -121
q0 -92 -63 -139t-166 -51z" />
    <glyph glyph-name="ccedillaacute" unicode="&#x1e09;" horiz-adv-x="1040" 
d="M573 1215h-163l190 279h208zM535 -468q-89 -3 -149 15v111q47 -14 115 -14q115 0 115 73q0 23 -9.5 37t-30.5 20t-40 7.5t-54 1.5h-54v85l52 118q-184 20 -284.5 151.5t-100.5 335.5v113q0 215 119 350.5t329 135.5q189 0 299.5 -100t112.5 -239h-193q-8 65 -65 118
t-150 53q-123 0 -186.5 -90.5t-63.5 -232.5v-109q0 -139 66.5 -227t183.5 -88q97 0 152 42t70 108h193q-4 -122 -99 -213t-252 -108l-45 -101q94 0 146.5 -41.5t52.5 -121.5q0 -92 -63 -139t-167 -51z" />
    <glyph glyph-name="Ddotaccent" unicode="&#x1e0a;" horiz-adv-x="1303" 
d="M492 1605q0 47 31 78.5t76 31.5q47 0 79 -31.5t32 -78.5q0 -46 -32 -76.5t-79 -30.5q-45 0 -76 30.5t-31 76.5zM158 1365h457q129 0 231.5 -33t171.5 -91.5t114.5 -144.5t66 -187.5t20.5 -224.5q0 -121 -19.5 -222t-64.5 -188t-114 -147t-172 -93.5t-234 -33.5h-457v1365
zM364 1189v-1012h233q207 0 308 125t101 379q0 508 -409 508h-233z" />
    <glyph glyph-name="ddotaccent" unicode="&#x1e0b;" horiz-adv-x="1168" 
d="M812 1677q0 47 31 78.5t76 31.5q47 0 79 -31.5t32 -78.5q0 -46 -32 -76.5t-79 -30.5q-45 0 -76 30.5t-31 76.5zM505 1071q118 0 197.5 -46.5t107.5 -118.5h6v531h202v-1437h-195v160h-7q-21 -72 -105 -123.5t-206 -51.5q-196 0 -302.5 130t-106.5 349v127
q0 217 107 348.5t302 131.5zM555 901q-126 0 -190 -91t-64 -245v-74q0 -157 65 -247.5t193 -90.5q121 0 189 88t68 248v82q0 153 -69.5 241.5t-191.5 88.5z" />
    <glyph glyph-name="Ddotbelow" unicode="&#x1e0c;" horiz-adv-x="1303" 
d="M488 -271q0 49 32.5 82t79.5 33q50 0 83 -33t33 -82q0 -48 -33 -80t-83 -32q-47 0 -79.5 32t-32.5 80zM158 1365h457q129 0 231.5 -33t171.5 -91.5t114.5 -144.5t66 -187.5t20.5 -224.5q0 -121 -19.5 -222t-64.5 -188t-114 -147t-172 -93.5t-234 -33.5h-457v1365z
M364 1189v-1012h233q207 0 308 125t101 379q0 508 -409 508h-233z" />
    <glyph glyph-name="ddotbelow" unicode="&#x1e0d;" horiz-adv-x="1168" 
d="M472 -271q0 49 32.5 82t79.5 33q50 0 83 -33t33 -82q0 -48 -33 -80t-83 -32q-47 0 -79.5 32t-32.5 80zM505 1071q118 0 197.5 -46.5t107.5 -118.5h6v531h202v-1437h-195v160h-7q-21 -72 -105 -123.5t-206 -51.5q-196 0 -302.5 130t-106.5 349v127q0 217 107 348.5
t302 131.5zM555 901q-126 0 -190 -91t-64 -245v-74q0 -157 65 -247.5t193 -90.5q121 0 189 88t68 248v82q0 153 -69.5 241.5t-191.5 88.5z" />
    <glyph glyph-name="Dlinebelow" unicode="&#x1e0e;" horiz-adv-x="1303" 
d="M877 -327h-558v118h558v-118zM158 1365h457q129 0 231.5 -33t171.5 -91.5t114.5 -144.5t66 -187.5t20.5 -224.5q0 -121 -19.5 -222t-64.5 -188t-114 -147t-172 -93.5t-234 -33.5h-457v1365zM364 1189v-1012h233q207 0 308 125t101 379q0 508 -409 508h-233z" />
    <glyph glyph-name="dlinebelow" unicode="&#x1e0f;" horiz-adv-x="1168" 
d="M861 -327h-558v118h558v-118zM505 1071q118 0 197.5 -46.5t107.5 -118.5h6v531h202v-1437h-195v160h-7q-21 -72 -105 -123.5t-206 -51.5q-196 0 -302.5 130t-106.5 349v127q0 217 107 348.5t302 131.5zM555 901q-126 0 -190 -91t-64 -245v-74q0 -157 65 -247.5t193 -90.5
q121 0 189 88t68 248v82q0 153 -69.5 241.5t-191.5 88.5z" />
    <glyph glyph-name="Dcommaaccent" unicode="&#x1e10;" horiz-adv-x="1303" 
d="M584 -489h-149l85 335h178zM158 1365h457q129 0 231.5 -33t171.5 -91.5t114.5 -144.5t66 -187.5t20.5 -224.5q0 -121 -19.5 -222t-64.5 -188t-114 -147t-172 -93.5t-234 -33.5h-457v1365zM364 1189v-1012h233q207 0 308 125t101 379q0 508 -409 508h-233z" />
    <glyph glyph-name="dcommaaccent" unicode="&#x1e11;" horiz-adv-x="1168" 
d="M568 -489h-149l85 335h178zM505 1071q118 0 197.5 -46.5t107.5 -118.5h6v531h202v-1437h-195v160h-7q-21 -72 -105 -123.5t-206 -51.5q-196 0 -302.5 130t-106.5 349v127q0 217 107 348.5t302 131.5zM555 901q-126 0 -190 -91t-64 -245v-74q0 -157 65 -247.5t193 -90.5
q121 0 189 88t68 248v82q0 153 -69.5 241.5t-191.5 88.5z" />
    <glyph glyph-name="Dcircumflexbelow" unicode="&#x1e12;" horiz-adv-x="1303" 
d="M158 1365h457q129 0 231.5 -33t171.5 -91.5t114.5 -144.5t66 -187.5t20.5 -224.5q0 -121 -19.5 -222t-64.5 -188t-114 -147t-172 -93.5t-234 -33.5h-457v1365zM364 1189v-1012h233q207 0 308 125t101 379q0 508 -409 508h-233zM320 -403l212 291h133l205 -292h-162
l-108 181h-5l-116 -180h-159z" />
    <glyph glyph-name="dcircumflexbelow" unicode="&#x1e13;" horiz-adv-x="1168" 
d="M505 1071q118 0 197.5 -46.5t107.5 -118.5h6v531h202v-1437h-195v160h-7q-21 -72 -105 -123.5t-206 -51.5q-196 0 -302.5 130t-106.5 349v127q0 217 107 348.5t302 131.5zM555 901q-126 0 -190 -91t-64 -245v-74q0 -157 65 -247.5t193 -90.5q121 0 189 88t68 248v82
q0 153 -69.5 241.5t-191.5 88.5zM304 -403l212 291h133l205 -292h-162l-108 181h-5l-116 -180h-159z" />
    <glyph glyph-name="Emacrongrave" unicode="&#x1e14;" horiz-adv-x="1107" 
d="M687 1738h-175l-292 203h215zM996 177v-177h-838v1365h838v-177h-633v-408h597v-170h-597v-433h633zM850 1525h-558v110h558v-110z" />
    <glyph glyph-name="emacrongrave" unicode="&#x1e15;" horiz-adv-x="1075" 
d="M645 1482h-164l-237 277h208zM554 -18q-222 0 -340.5 134t-118.5 361v93q0 228 116.5 365t329.5 137q215 0 329.5 -136.5t114.5 -363.5v-92h-689v-30q0 -128 65.5 -214.5t191.5 -86.5q97 0 150.5 42.5t67.5 105.5h201q-8 -56 -34.5 -108t-74 -100t-127.5 -77.5
t-182 -29.5zM296 628h490v3q0 123 -66 200.5t-179 77.5t-179 -78t-66 -200v-3zM816 1214h-558v118h558v-118z" />
    <glyph glyph-name="Emacronacute" unicode="&#x1e16;" horiz-adv-x="1107" 
d="M455 1738l255 206h219l-296 -206h-178zM996 177v-177h-838v1365h838v-177h-633v-408h597v-170h-597v-433h633zM850 1525h-558v110h558v-110z" />
    <glyph glyph-name="emacronacute" unicode="&#x1e17;" horiz-adv-x="1075" 
d="M591 1481h-163l190 279h208zM554 -18q-222 0 -340.5 134t-118.5 361v93q0 228 116.5 365t329.5 137q215 0 329.5 -136.5t114.5 -363.5v-92h-689v-30q0 -128 65.5 -214.5t191.5 -86.5q97 0 150.5 42.5t67.5 105.5h201q-8 -56 -34.5 -108t-74 -100t-127.5 -77.5t-182 -29.5
zM296 628h490v3q0 123 -66 200.5t-179 77.5t-179 -78t-66 -200v-3zM816 1214h-558v118h558v-118z" />
    <glyph glyph-name="Ecircumflexbelow" unicode="&#x1e18;" horiz-adv-x="1107" 
d="M996 177v-177h-838v1365h838v-177h-633v-408h597v-170h-597v-433h633zM293 -403l212 291h133l205 -292h-162l-108 181h-5l-116 -180h-159z" />
    <glyph glyph-name="ecircumflexbelow" unicode="&#x1e19;" horiz-adv-x="1075" 
d="M554 -18q-222 0 -340.5 134t-118.5 361v93q0 228 116.5 365t329.5 137q215 0 329.5 -136.5t114.5 -363.5v-92h-689v-30q0 -128 65.5 -214.5t191.5 -86.5q97 0 150.5 42.5t67.5 105.5h201q-8 -56 -34.5 -108t-74 -100t-127.5 -77.5t-182 -29.5zM296 628h490v3
q0 123 -66 200.5t-179 77.5t-179 -78t-66 -200v-3zM259 -403l212 291h133l205 -292h-162l-108 181h-5l-116 -180h-159z" />
    <glyph glyph-name="Etildebelow" unicode="&#x1e1a;" horiz-adv-x="1107" 
d="M540 -292l-11.5 11.5l-13 13t-12 10.5t-14 10t-14 5.5t-16.5 2.5q-60 0 -65 -98h-120q0 88 45 150.5t130 62.5q45 0 78 -17t69 -53q4 -4 14.5 -15.5t15.5 -16t14 -11t17.5 -9t18.5 -2.5q32 0 48 32.5t20 74.5h119q0 -84 -49 -149.5t-127 -65.5q-53 0 -85 16t-62 48z
M996 177v-177h-838v1365h838v-177h-633v-408h597v-170h-597v-433h633z" />
    <glyph glyph-name="etildebelow" unicode="&#x1e1b;" horiz-adv-x="1075" 
d="M506 -292l-11.5 11.5l-13 13t-12 10.5t-14 10t-14 5.5t-16.5 2.5q-60 0 -65 -98h-120q0 88 45 150.5t130 62.5q45 0 78 -17t69 -53q4 -4 14.5 -15.5t15.5 -16t14 -11t17.5 -9t18.5 -2.5q32 0 48 32.5t20 74.5h119q0 -84 -49 -149.5t-127 -65.5q-53 0 -85 16t-62 48z
M554 -18q-222 0 -340.5 134t-118.5 361v93q0 228 116.5 365t329.5 137q215 0 329.5 -136.5t114.5 -363.5v-92h-689v-30q0 -128 65.5 -214.5t191.5 -86.5q97 0 150.5 42.5t67.5 105.5h201q-8 -56 -34.5 -108t-74 -100t-127.5 -77.5t-182 -29.5zM296 628h490v3
q0 123 -66 200.5t-179 77.5t-179 -78t-66 -200v-3z" />
    <glyph glyph-name="Ecedillabreve" unicode="&#x1e1c;" horiz-adv-x="1107" 
d="M573 -469q-81 -3 -149 15v111q47 -14 114 -14q48 0 82 16.5t34 56.5q0 23 -10.5 37t-33.5 20t-43 7.5t-56 1.5h-53v85l50 133h-350v1365h838v-177h-633v-408h597v-170h-597v-433h633v-177h-357l-44 -115q95 0 151 -42t56 -121q0 -93 -63 -140t-166 -51zM249 1756h132
q0 -60 52 -101t138 -41t138 41t52 101h132q0 -52 -18.5 -98.5t-56 -85t-101 -61t-146.5 -22.5t-146.5 22.5t-101 61t-56 85t-18.5 98.5z" />
    <glyph glyph-name="ecedillabreve" unicode="&#x1e1d;" horiz-adv-x="1075" 
d="M236 1446h132q0 -69 42 -116.5t124 -47.5t124 47.5t42 116.5h131q0 -52 -18 -101t-53 -90.5t-93.5 -67t-132.5 -25.5t-133.5 25.5t-94 67t-52.5 90.5t-18 101zM296 628h490v3q0 123 -66 200.5t-179 77.5t-179 -78t-66 -200v-3zM551 -485q-85 -4 -149 15v110
q44 -13 115 -13q115 0 115 73q0 18 -8 31t-19.5 19.5t-33 10t-38 4t-44.5 0.5h-53v86l51 135q-191 20 -291.5 150.5t-100.5 340.5v93q0 228 116.5 365t329.5 137q215 0 329.5 -136.5t114.5 -363.5v-92h-689v-30q0 -128 65.5 -214.5t191.5 -86.5q97 0 150.5 42.5t67.5 105.5
h201q-7 -51 -30 -99t-63.5 -94t-108 -77.5t-152.5 -40.5l-44 -118q95 0 150.5 -42t55.5 -121q0 -92 -63 -139t-166 -51z" />
    <glyph glyph-name="Fdotaccent" unicode="&#x1e1e;" horiz-adv-x="1042" 
d="M461 1605q0 47 31 78.5t76 31.5q47 0 79 -31.5t32 -78.5q0 -46 -32 -76.5t-79 -30.5q-45 0 -76 30.5t-31 76.5zM364 0h-206v1365h827v-178h-621v-437h569v-176h-569v-574z" />
    <glyph glyph-name="fdotaccent" unicode="&#x1e1f;" horiz-adv-x="701" 
d="M272 1691q0 47 31 78.5t76 31.5q47 0 79 -31.5t32 -78.5q0 -46 -32 -76.5t-79 -30.5q-45 0 -76 30.5t-31 76.5zM214 0v887h-151v163h151v105q0 153 80 224.5t250 71.5q33 0 90 -6v-156q-45 3 -58 3q-85 0 -124 -33.5t-39 -119.5v-89h205v-163h-202v-887h-202z" />
    <glyph glyph-name="Gmacron" unicode="&#x1e20;" horiz-adv-x="1283" 
d="M1177 942h-203q-16 133 -103.5 202t-212.5 69q-154 0 -251.5 -108.5t-97.5 -327.5v-182q0 -208 88 -325.5t259 -117.5q143 0 234 79.5t91 202.5v116h-329v170h528v-279q0 -61 -16 -122.5t-55.5 -125t-97.5 -112t-150 -79t-205 -30.5q-272 0 -412.5 167t-140.5 456v183
q0 287 151 451t408 164q119 0 216.5 -37t160 -100.5t98 -143.5t40.5 -170zM936 1525h-558v110h558v-110z" />
    <glyph glyph-name="gmacron" unicode="&#x1e21;" horiz-adv-x="1134" 
d="M845 1214h-558v118h558v-118zM538 -230q132 0 199 65.5t67 187.5v153h-7q-32 -71 -113 -118t-188 -47q-179 0 -295.5 125t-116.5 336v132q0 210 116.5 338t298.5 128q120 0 194.5 -46.5t109.5 -117.5h6v148h196v-1033q0 -107 -35.5 -188t-100.5 -130t-149.5 -73
t-188.5 -24q-203 0 -310 90.5t-114 221.5h203q9 -64 67 -106t161 -42zM553 902q-122 0 -193.5 -87t-71.5 -235v-94q0 -146 73.5 -228.5t193.5 -82.5q116 0 182 86t66 215v105q0 139 -67.5 230t-182.5 91z" />
    <glyph glyph-name="Hdotaccent" unicode="&#x1e22;" horiz-adv-x="1377" 
d="M1220 0h-206v615h-650v-615h-206v1365h206v-572h650v572h206v-1365zM582 1605q0 47 31 78.5t76 31.5q47 0 79 -31.5t32 -78.5q0 -46 -32 -76.5t-79 -30.5q-45 0 -76 30.5t-31 76.5z" />
    <glyph glyph-name="hdotaccent" unicode="&#x1e23;" horiz-adv-x="1177" 
d="M149 0v1437h202v-526h8q27 63 101 111.5t192 48.5q174 0 279.5 -113t105.5 -297v-661h-202v617q0 128 -62 202t-175 74q-116 0 -181.5 -72t-65.5 -204v-617h-202zM141 1677q0 47 31 78.5t76 31.5q47 0 79 -31.5t32 -78.5q0 -46 -32 -76.5t-79 -30.5q-45 0 -76 30.5
t-31 76.5z" />
    <glyph glyph-name="Hdotbelow" unicode="&#x1e24;" horiz-adv-x="1377" 
d="M1220 0h-206v615h-650v-615h-206v1365h206v-572h650v572h206v-1365zM578 -271q0 49 32.5 82t79.5 33q50 0 83 -33t33 -82q0 -48 -33 -80t-83 -32q-47 0 -79.5 32t-32.5 80z" />
    <glyph glyph-name="hdotbelow" unicode="&#x1e25;" horiz-adv-x="1177" 
d="M149 0v1437h202v-526h8q27 63 101 111.5t192 48.5q174 0 279.5 -113t105.5 -297v-661h-202v617q0 128 -62 202t-175 74q-116 0 -181.5 -72t-65.5 -204v-617h-202zM472 -271q0 49 32.5 82t79.5 33q50 0 83 -33t33 -82q0 -48 -33 -80t-83 -32q-47 0 -79.5 32t-32.5 80z" />
    <glyph glyph-name="Hdieresis" unicode="&#x1e26;" horiz-adv-x="1377" 
d="M1220 0h-206v615h-650v-615h-206v1365h206v-572h650v572h206v-1365zM467 1583q0 40 25.5 65.5t64.5 25.5q40 0 65 -25.5t25 -65.5q0 -39 -25.5 -64.5t-64.5 -25.5t-64.5 26t-25.5 64zM776 1583q0 40 25 65.5t64 25.5q40 0 65 -25.5t25 -65.5q0 -39 -25 -64.5t-65 -25.5
q-39 0 -64 25.5t-25 64.5z" />
    <glyph glyph-name="hdieresis" unicode="&#x1e27;" horiz-adv-x="1177" 
d="M149 0v1437h202v-526h8q27 63 101 111.5t192 48.5q174 0 279.5 -113t105.5 -297v-661h-202v617q0 128 -62 202t-175 74q-116 0 -181.5 -72t-65.5 -204v-617h-202zM-35 1646q0 45 28.5 74t72.5 29q45 0 73.5 -28.5t28.5 -74.5q0 -44 -28.5 -72.5t-73.5 -28.5
q-44 0 -72.5 28.5t-28.5 72.5zM328 1646q0 46 28 74.5t72 28.5q46 0 74.5 -28.5t28.5 -74.5q0 -44 -29 -72.5t-74 -28.5q-43 0 -71.5 28.5t-28.5 72.5z" />
    <glyph glyph-name="Hcedilla" unicode="&#x1e28;" horiz-adv-x="1377" 
d="M299 -469q-81 -3 -149 15v111q47 -14 115 -14q115 0 115 73q0 23 -10.5 37t-33.5 20t-43 7.5t-56 1.5h-53v85l50 133h-76v1365h206v-572h650v572h206v-1365h-206v615h-650v-615l-42 -115q95 0 151 -42t56 -121q0 -93 -63 -140t-167 -51z" />
    <glyph glyph-name="hcedilla" unicode="&#x1e29;" horiz-adv-x="1177" 
d="M279 -485q-85 -4 -149 15v110q44 -13 115 -13q115 0 115 73q0 18 -8 31t-19.5 19.5t-33 10t-38 4t-44.5 0.5h-53v86l56 149h-71v1437h202v-526h8q27 63 101 111.5t192 48.5q174 0 279.5 -113t105.5 -297v-661h-202v617q0 128 -62 202t-175 74q-116 0 -181.5 -72
t-65.5 -204v-617l-49 -132q95 0 151 -42t56 -121q0 -92 -63 -139t-167 -51z" />
    <glyph glyph-name="Hbrevebelow" unicode="&#x1e2a;" horiz-adv-x="1377" 
d="M375 -137q0 -54 19 -103t55.5 -90.5t98 -66t140.5 -24.5q78 0 139 25t96 67t52.5 90.5t17.5 101.5h-131q0 -68 -45 -116t-129 -48t-129 48t-45 116h-139zM1220 0h-206v615h-650v-615h-206v1365h206v-572h650v572h206v-1365z" />
    <glyph glyph-name="hbrevebelow" unicode="&#x1e2b;" horiz-adv-x="1177" 
d="M269 -137q0 -54 19 -103t55.5 -90.5t98 -66t140.5 -24.5q78 0 139 25t96 67t52.5 90.5t17.5 101.5h-131q0 -68 -45 -116t-129 -48t-129 48t-45 116h-139zM149 0v1437h202v-526h8q27 63 101 111.5t192 48.5q174 0 279.5 -113t105.5 -297v-661h-202v617q0 128 -62 202
t-175 74q-116 0 -181.5 -72t-65.5 -204v-617h-202z" />
    <glyph glyph-name="Itildebelow" unicode="&#x1e2c;" horiz-adv-x="521" 
d="M364 0h-206v1365h206v-1365zM229 -292l-11.5 11.5l-13 13t-12 10.5t-14 10t-14 5.5t-16.5 2.5q-60 0 -65 -98h-120q0 88 45 150.5t130 62.5q45 0 78 -17t69 -53q4 -4 14.5 -15.5t15.5 -16t14 -11t17.5 -9t18.5 -2.5q32 0 48 32.5t20 74.5h119q0 -84 -49 -149.5
t-127 -65.5q-53 0 -85 16t-62 48z" />
    <glyph glyph-name="itildebelow" unicode="&#x1e2d;" horiz-adv-x="541" 
d="M170 0v1054h201v-1054h-201zM145 1312q0 50 35.5 83t88.5 33q56 0 91.5 -32.5t35.5 -83.5t-35.5 -84t-91.5 -33q-53 0 -88.5 33.5t-35.5 83.5zM239 -292l-11.5 11.5l-13 13t-12 10.5t-14 10t-14 5.5t-16.5 2.5q-60 0 -65 -98h-120q0 88 45 150.5t130 62.5q45 0 78 -17
t69 -53q4 -4 14.5 -15.5t15.5 -16t14 -11t17.5 -9t18.5 -2.5q32 0 48 32.5t20 74.5h119q0 -84 -49 -149.5t-127 -65.5q-53 0 -85 16t-62 48z" />
    <glyph glyph-name="Idieresisacute" unicode="&#x1e2e;" horiz-adv-x="521" 
d="M364 0h-206v1365h206v-1365zM144 1738l255 206h219l-296 -206h-178zM39 1583q0 40 25.5 65.5t64.5 25.5q40 0 65 -25.5t25 -65.5q0 -39 -25.5 -64.5t-64.5 -25.5t-64.5 26t-25.5 64zM348 1583q0 40 25 65.5t64 25.5q40 0 65 -25.5t25 -65.5q0 -39 -25 -64.5t-65 -25.5
q-39 0 -64 25.5t-25 64.5z" />
    <glyph glyph-name="idieresisacute" unicode="&#x1e2f;" horiz-adv-x="540" 
d="M325 1481h-163l190 279h208zM170 0v1054h205v-1054h-205zM-11 1263q0 45 28.5 74t72.5 29q45 0 73.5 -28.5t28.5 -74.5q0 -44 -28.5 -72.5t-73.5 -28.5q-44 0 -72.5 29t-28.5 72zM352 1263q0 46 28 74.5t72 28.5q46 0 74.5 -28.5t28.5 -74.5q0 -44 -29 -72.5t-74 -28.5
q-43 0 -71.5 28.5t-28.5 72.5z" />
    <glyph glyph-name="Kacute" unicode="&#x1e30;" horiz-adv-x="1209" 
d="M468 1510l255 206h219l-296 -206h-178zM1177 1365l-502 -583l527 -782h-256l-423 641l-159 -175v-466h-206v1365h206v-644h9l568 644h236z" />
    <glyph glyph-name="kacute" unicode="&#x1e31;" horiz-adv-x="1041" 
d="M350 382v-382h-202v1437h202v-848h9l406 465h231l-405 -457l432 -597h-239l-343 476zM300 1598h-163l190 279h208z" />
    <glyph glyph-name="Kdotbelow" unicode="&#x1e32;" horiz-adv-x="1209" 
d="M494 -271q0 49 32.5 82t79.5 33q50 0 83 -33t33 -82q0 -48 -33 -80t-83 -32q-47 0 -79.5 32t-32.5 80zM1177 1365l-502 -583l527 -782h-256l-423 641l-159 -175v-466h-206v1365h206v-644h9l568 644h236z" />
    <glyph glyph-name="kdotbelow" unicode="&#x1e33;" horiz-adv-x="1041" 
d="M432 -271q0 49 32.5 82t79.5 33q50 0 83 -33t33 -82q0 -48 -33 -80t-83 -32q-47 0 -79.5 32t-32.5 80zM350 382v-382h-202v1437h202v-848h9l406 465h231l-405 -457l432 -597h-239l-343 476z" />
    <glyph glyph-name="Klinebelow" unicode="&#x1e34;" horiz-adv-x="1209" 
d="M1177 1365l-502 -583l527 -782h-256l-423 641l-159 -175v-466h-206v1365h206v-644h9l568 644h236zM883 -327h-558v118h558v-118z" />
    <glyph glyph-name="klinebelow" unicode="&#x1e35;" horiz-adv-x="1041" 
d="M350 382v-382h-202v1437h202v-848h9l406 465h231l-405 -457l432 -597h-239l-343 476zM821 -327h-558v118h558v-118z" />
    <glyph glyph-name="Ldotbelow" unicode="&#x1e36;" horiz-adv-x="999" 
d="M397 -271q0 49 32.5 82t79.5 33q50 0 83 -33t33 -82q0 -48 -33 -80t-83 -32q-47 0 -79.5 32t-32.5 80zM976 181v-181h-818v1365h206v-1184h612z" />
    <glyph glyph-name="ldotbelow" unicode="&#x1e37;" horiz-adv-x="507" 
d="M143 -271q0 49 32.5 82t79.5 33q50 0 83 -33t33 -82q0 -48 -33 -80t-83 -32q-47 0 -79.5 32t-32.5 80zM153 0v1437h201v-1437h-201z" />
    <glyph glyph-name="Ldotbelowmacron" unicode="&#x1e38;" horiz-adv-x="999" 
d="M397 -271q0 49 32.5 82t79.5 33q50 0 83 -33t33 -82q0 -48 -33 -80t-83 -32q-47 0 -79.5 32t-32.5 80zM976 181v-181h-818v1365h206v-1184h612zM538 1525h-558v110h558v-110z" />
    <glyph glyph-name="ldotbelowmacron" unicode="&#x1e39;" horiz-adv-x="507" 
d="M143 -271q0 49 32.5 82t79.5 33q50 0 83 -33t33 -82q0 -48 -33 -80t-83 -32q-47 0 -79.5 32t-32.5 80zM153 0v1437h201v-1437h-201zM532 1597h-558v118h558v-118z" />
    <glyph glyph-name="Llinebelow" unicode="&#x1e3a;" horiz-adv-x="999" 
d="M786 -327h-558v118h558v-118zM976 181v-181h-818v1365h206v-1184h612z" />
    <glyph glyph-name="llinebelow" unicode="&#x1e3b;" horiz-adv-x="507" 
d="M532 -327h-558v118h558v-118zM153 0v1437h201v-1437h-201z" />
    <glyph glyph-name="Lcircumflexbelow" unicode="&#x1e3c;" horiz-adv-x="999" 
d="M976 181v-181h-818v1365h206v-1184h612zM229 -403l212 291h133l205 -292h-162l-108 181h-5l-116 -180h-159z" />
    <glyph glyph-name="lcircumflexbelow" unicode="&#x1e3d;" horiz-adv-x="507" 
d="M153 0v1437h201v-1437h-201zM-25 -403l212 291h133l205 -292h-162l-108 181h-5l-116 -180h-159z" />
    <glyph glyph-name="Macute" unicode="&#x1e3e;" horiz-adv-x="1600" 
d="M683 1510l255 206h219l-296 -206h-178zM347 0h-185v1365h204l432 -998h5l431 998h204v-1365h-186v963h-8l-366 -830h-157l-367 830h-7v-963z" />
    <glyph glyph-name="macute" unicode="&#x1e3f;" horiz-adv-x="1749" 
d="M928 1215h-163l190 279h208zM146 0v1054h199v-136h10q28 62 98.5 107.5t171.5 45.5q119 0 195 -45.5t106 -127.5h9q31 73 115.5 123t206.5 50q165 0 258 -95t93 -258v-718h-201v671q0 103 -55.5 163.5t-157.5 60.5q-103 0 -160.5 -65t-57.5 -173v-657h-198v657
q0 116 -57 177t-158 61q-94 0 -155 -62t-61 -174v-659h-201z" />
    <glyph glyph-name="Mdotaccent" unicode="&#x1e40;" horiz-adv-x="1600" 
d="M693 1605q0 47 31 78.5t76 31.5q47 0 79 -31.5t32 -78.5q0 -46 -32 -76.5t-79 -30.5q-45 0 -76 30.5t-31 76.5zM347 0h-185v1365h204l432 -998h5l431 998h204v-1365h-186v963h-8l-366 -830h-157l-367 830h-7v-963z" />
    <glyph glyph-name="mdotaccent" unicode="&#x1e41;" horiz-adv-x="1749" 
d="M768 1294q0 47 31 78.5t76 31.5q47 0 79 -31.5t32 -78.5q0 -46 -32 -76.5t-79 -30.5q-45 0 -76 30.5t-31 76.5zM146 0v1054h199v-136h10q28 62 98.5 107.5t171.5 45.5q119 0 195 -45.5t106 -127.5h9q31 73 115.5 123t206.5 50q165 0 258 -95t93 -258v-718h-201v671
q0 103 -55.5 163.5t-157.5 60.5q-103 0 -160.5 -65t-57.5 -173v-657h-198v657q0 116 -57 177t-158 61q-94 0 -155 -62t-61 -174v-659h-201z" />
    <glyph glyph-name="Mdotbelow" unicode="&#x1e42;" horiz-adv-x="1600" 
d="M689 -271q0 49 32.5 82t79.5 33q50 0 83 -33t33 -82q0 -48 -33 -80t-83 -32q-47 0 -79.5 32t-32.5 80zM347 0h-185v1365h204l432 -998h5l431 998h204v-1365h-186v963h-8l-366 -830h-157l-367 830h-7v-963z" />
    <glyph glyph-name="mdotbelow" unicode="&#x1e43;" horiz-adv-x="1749" 
d="M764 -271q0 49 32.5 82t79.5 33q50 0 83 -33t33 -82q0 -48 -33 -80t-83 -32q-47 0 -79.5 32t-32.5 80zM146 0v1054h199v-136h10q28 62 98.5 107.5t171.5 45.5q119 0 195 -45.5t106 -127.5h9q31 73 115.5 123t206.5 50q165 0 258 -95t93 -258v-718h-201v671
q0 103 -55.5 163.5t-157.5 60.5q-103 0 -160.5 -65t-57.5 -173v-657h-198v657q0 116 -57 177t-158 61q-94 0 -155 -62t-61 -174v-659h-201z" />
    <glyph glyph-name="Ndotaccent" unicode="&#x1e44;" horiz-adv-x="1368" 
d="M577 1605q0 47 31 78.5t76 31.5q47 0 79 -31.5t32 -78.5q0 -46 -32 -76.5t-79 -30.5q-45 0 -76 30.5t-31 76.5zM357 0h-199v1365h187l659 -1014h6v1014h200v-1365h-187l-660 1016h-6v-1016z" />
    <glyph glyph-name="ndotaccent" unicode="&#x1e45;" horiz-adv-x="1171" 
d="M479 1294q0 47 31 78.5t76 31.5q47 0 79 -31.5t32 -78.5q0 -46 -32 -76.5t-79 -30.5q-45 0 -76 30.5t-31 76.5zM146 0v1054h199v-143h7q31 67 111 113.5t192 46.5q164 0 269.5 -98t105.5 -274v-699h-203v630q0 263 -237 263q-116 0 -179.5 -69.5t-63.5 -200.5v-623h-201z
" />
    <glyph glyph-name="Ndotbelow" unicode="&#x1e46;" horiz-adv-x="1368" 
d="M573 -271q0 49 32.5 82t79.5 33q50 0 83 -33t33 -82q0 -48 -33 -80t-83 -32q-47 0 -79.5 32t-32.5 80zM357 0h-199v1365h187l659 -1014h6v1014h200v-1365h-187l-660 1016h-6v-1016z" />
    <glyph glyph-name="ndotbelow" unicode="&#x1e47;" horiz-adv-x="1171" 
d="M475 -271q0 49 32.5 82t79.5 33q50 0 83 -33t33 -82q0 -48 -33 -80t-83 -32q-47 0 -79.5 32t-32.5 80zM146 0v1054h199v-143h7q31 67 111 113.5t192 46.5q164 0 269.5 -98t105.5 -274v-699h-203v630q0 263 -237 263q-116 0 -179.5 -69.5t-63.5 -200.5v-623h-201z" />
    <glyph glyph-name="Nlinebelow" unicode="&#x1e48;" horiz-adv-x="1368" 
d="M962 -327h-558v118h558v-118zM357 0h-199v1365h187l659 -1014h6v1014h200v-1365h-187l-660 1016h-6v-1016z" />
    <glyph glyph-name="nlinebelow" unicode="&#x1e49;" horiz-adv-x="1171" 
d="M864 -327h-558v118h558v-118zM146 0v1054h199v-143h7q31 67 111 113.5t192 46.5q164 0 269.5 -98t105.5 -274v-699h-203v630q0 263 -237 263q-116 0 -179.5 -69.5t-63.5 -200.5v-623h-201z" />
    <glyph glyph-name="Ncircumflexbelow" unicode="&#x1e4a;" horiz-adv-x="1368" 
d="M357 0h-199v1365h187l659 -1014h6v1014h200v-1365h-187l-660 1016h-6v-1016zM405 -403l212 291h133l205 -292h-162l-108 181h-5l-116 -180h-159z" />
    <glyph glyph-name="ncircumflexbelow" unicode="&#x1e4b;" horiz-adv-x="1171" 
d="M146 0v1054h199v-143h7q31 67 111 113.5t192 46.5q164 0 269.5 -98t105.5 -274v-699h-203v630q0 263 -237 263q-116 0 -179.5 -69.5t-63.5 -200.5v-623h-201zM307 -403l212 291h133l205 -292h-162l-108 181h-5l-116 -180h-159z" />
    <glyph glyph-name="Otildeacute" unicode="&#x1e4c;" horiz-adv-x="1324" 
d="M545 1738l255 206h219l-296 -206h-178zM310 774v-194q0 -211 97 -319.5t254 -108.5q158 0 255 108.5t97 319.5v194q0 211 -97.5 325.5t-254.5 114.5q-156 0 -253.5 -114.5t-97.5 -325.5zM103 580v192q0 289 151 455t409 166t408 -165.5t150 -455.5v-192
q0 -287 -151 -447.5t-410 -160.5t-408 160.5t-149 447.5zM637 1538l-9 9l-10.5 10.5t-9.5 8.5t-12 9t-11 6t-13 5t-13 1q-60 0 -64 -91h-116q0 82 43.5 140.5t126.5 58.5q43 0 75 -16t67 -50q5 -4 18 -17t19 -17.5t17.5 -9.5t23.5 -5q31 0 47 30.5t19 68.5h116
q0 -78 -47.5 -139t-123.5 -61q-51 0 -82 14.5t-61 44.5z" />
    <glyph glyph-name="otildeacute" unicode="&#x1e4d;" horiz-adv-x="1115" 
d="M611 1481h-163l190 279h208zM524 1225q-18 19 -25 25.5t-24 16.5t-33 10q-61 0 -68 -101h-124q0 98 46.5 165t138.5 67q76 0 148 -74q4 -4 14.5 -15.5t15.5 -16t14 -11t18 -9t19 -2.5q33 0 49.5 34t19.5 76h124q0 -91 -51.5 -161.5t-134.5 -70.5q-51 0 -84 17t-63 50z
M558 1072q227 0 344.5 -136.5t117.5 -366.5v-81q0 -234 -117 -370t-345 -136q-229 0 -346 135.5t-117 370.5v80q0 225 118.5 364.5t344.5 139.5zM558 906q-58 0 -103.5 -19t-74.5 -51t-48 -77.5t-27 -95t-8 -107.5v-57q0 -58 8 -108t26.5 -95t48 -77t75 -50.5t103.5 -18.5
q72 0 124 27.5t80.5 78t41 110t12.5 133.5v57q0 58 -7.5 107.5t-26 95t-47.5 77.5t-74 51t-103 19z" />
    <glyph glyph-name="Otildedieresis" unicode="&#x1e4e;" horiz-adv-x="1324" 
d="M418 1844q0 40 25.5 65.5t64.5 25.5q40 0 65 -25.5t25 -65.5q0 -39 -25.5 -64.5t-64.5 -25.5t-64.5 26t-25.5 64zM727 1844q0 40 25 65.5t64 25.5q40 0 65 -25.5t25 -65.5q0 -39 -25 -64.5t-65 -25.5q-39 0 -64 25.5t-25 64.5zM310 774v-194q0 -211 97 -319.5t254 -108.5
q158 0 255 108.5t97 319.5v194q0 211 -97.5 325.5t-254.5 114.5q-156 0 -253.5 -114.5t-97.5 -325.5zM103 580v192q0 289 151 455t409 166t408 -165.5t150 -455.5v-192q0 -287 -151 -447.5t-410 -160.5t-408 160.5t-149 447.5zM637 1538l-9 9l-10.5 10.5t-9.5 8.5t-12 9
t-11 6t-13 5t-13 1q-60 0 -64 -91h-116q0 82 43.5 140.5t126.5 58.5q43 0 75 -16t67 -50q5 -4 18 -17t19 -17.5t17.5 -9.5t23.5 -5q31 0 47 30.5t19 68.5h116q0 -78 -47.5 -139t-123.5 -61q-51 0 -82 14.5t-61 44.5z" />
    <glyph glyph-name="otildedieresis" unicode="&#x1e4f;" horiz-adv-x="1115" 
d="M524 1225q-18 19 -25 25.5t-24 16.5t-33 10q-61 0 -68 -101h-124q0 98 46.5 165t138.5 67q76 0 148 -74q4 -4 14.5 -15.5t15.5 -16t14 -11t18 -9t19 -2.5q33 0 49.5 34t19.5 76h124q0 -91 -51.5 -161.5t-134.5 -70.5q-51 0 -84 17t-63 50zM275 1547q0 45 28.5 74t72.5 29
q45 0 73.5 -28.5t28.5 -74.5q0 -44 -28.5 -72.5t-73.5 -28.5q-44 0 -72.5 29t-28.5 72zM638 1547q0 46 28 74.5t72 28.5q46 0 74.5 -28.5t28.5 -74.5q0 -44 -29 -72.5t-74 -28.5q-43 0 -71.5 28.5t-28.5 72.5zM558 1072q227 0 344.5 -136.5t117.5 -366.5v-81
q0 -234 -117 -370t-345 -136q-229 0 -346 135.5t-117 370.5v80q0 225 118.5 364.5t344.5 139.5zM558 906q-58 0 -103.5 -19t-74.5 -51t-48 -77.5t-27 -95t-8 -107.5v-57q0 -58 8 -108t26.5 -95t48 -77t75 -50.5t103.5 -18.5q72 0 124 27.5t80.5 78t41 110t12.5 133.5v57
q0 58 -7.5 107.5t-26 95t-47.5 77.5t-74 51t-103 19z" />
    <glyph glyph-name="Omacrongrave" unicode="&#x1e50;" horiz-adv-x="1324" 
d="M777 1738h-175l-292 203h215zM310 774v-194q0 -211 97 -319.5t254 -108.5q158 0 255 108.5t97 319.5v194q0 211 -97.5 325.5t-254.5 114.5q-156 0 -253.5 -114.5t-97.5 -325.5zM103 580v192q0 289 151 455t409 166t408 -165.5t150 -455.5v-192q0 -287 -151 -447.5
t-410 -160.5t-408 160.5t-149 447.5zM940 1525h-558v110h558v-110z" />
    <glyph glyph-name="omacrongrave" unicode="&#x1e51;" horiz-adv-x="1115" 
d="M665 1482h-164l-237 277h208zM836 1214h-558v118h558v-118zM558 1072q227 0 344.5 -136.5t117.5 -366.5v-81q0 -234 -117 -370t-345 -136q-229 0 -346 135.5t-117 370.5v80q0 225 118.5 364.5t344.5 139.5zM558 906q-58 0 -103.5 -19t-74.5 -51t-48 -77.5t-27 -95
t-8 -107.5v-57q0 -58 8 -108t26.5 -95t48 -77t75 -50.5t103.5 -18.5q72 0 124 27.5t80.5 78t41 110t12.5 133.5v57q0 58 -7.5 107.5t-26 95t-47.5 77.5t-74 51t-103 19z" />
    <glyph glyph-name="Omacronacute" unicode="&#x1e52;" horiz-adv-x="1324" 
d="M545 1738l255 206h219l-296 -206h-178zM310 774v-194q0 -211 97 -319.5t254 -108.5q158 0 255 108.5t97 319.5v194q0 211 -97.5 325.5t-254.5 114.5q-156 0 -253.5 -114.5t-97.5 -325.5zM103 580v192q0 289 151 455t409 166t408 -165.5t150 -455.5v-192
q0 -287 -151 -447.5t-410 -160.5t-408 160.5t-149 447.5zM940 1525h-558v110h558v-110z" />
    <glyph glyph-name="omacronacute" unicode="&#x1e53;" horiz-adv-x="1115" 
d="M611 1481h-163l190 279h208zM836 1214h-558v118h558v-118zM558 1072q227 0 344.5 -136.5t117.5 -366.5v-81q0 -234 -117 -370t-345 -136q-229 0 -346 135.5t-117 370.5v80q0 225 118.5 364.5t344.5 139.5zM558 906q-58 0 -103.5 -19t-74.5 -51t-48 -77.5t-27 -95
t-8 -107.5v-57q0 -58 8 -108t26.5 -95t48 -77t75 -50.5t103.5 -18.5q72 0 124 27.5t80.5 78t41 110t12.5 133.5v57q0 58 -7.5 107.5t-26 95t-47.5 77.5t-74 51t-103 19z" />
    <glyph glyph-name="Pacute" unicode="&#x1e54;" horiz-adv-x="1165" 
d="M441 1510l255 206h219l-296 -206h-178zM158 1365h513q201 0 322 -121t121 -314q0 -194 -121 -313t-323 -119h-307v-498h-205v1365zM363 1191v-522h192q87 0 147.5 11.5t107.5 40t70 80t23 129.5q0 124 -68 192.5t-190 68.5h-282z" />
    <glyph glyph-name="pacute" unicode="&#x1e55;" horiz-adv-x="1164" 
d="M660 -16q-116 0 -191.5 44.5t-112.5 115.5h-7v-506h-202v1417h195v-149h7q33 75 114.5 119.5t202.5 44.5q181 0 290.5 -126t109.5 -349v-137q0 -223 -110 -348.5t-296 -125.5zM610 154q115 0 183.5 83.5t68.5 242.5v95q0 157 -67.5 242t-188.5 85q-119 0 -188 -86
t-69 -226v-119q0 -136 70 -226.5t191 -90.5zM635 1215h-163l190 279h208z" />
    <glyph glyph-name="Pdotaccent" unicode="&#x1e56;" horiz-adv-x="1165" 
d="M158 1365h513q201 0 322 -121t121 -314q0 -194 -121 -313t-323 -119h-307v-498h-205v1365zM363 1191v-522h192q87 0 147.5 11.5t107.5 40t70 80t23 129.5q0 124 -68 192.5t-190 68.5h-282zM451 1605q0 47 31 78.5t76 31.5q47 0 79 -31.5t32 -78.5q0 -46 -32 -76.5
t-79 -30.5q-45 0 -76 30.5t-31 76.5z" />
    <glyph glyph-name="pdotaccent" unicode="&#x1e57;" horiz-adv-x="1164" 
d="M660 -16q-116 0 -191.5 44.5t-112.5 115.5h-7v-506h-202v1417h195v-149h7q33 75 114.5 119.5t202.5 44.5q181 0 290.5 -126t109.5 -349v-137q0 -223 -110 -348.5t-296 -125.5zM610 154q115 0 183.5 83.5t68.5 242.5v95q0 157 -67.5 242t-188.5 85q-119 0 -188 -86
t-69 -226v-119q0 -136 70 -226.5t191 -90.5zM475 1294q0 47 31 78.5t76 31.5q47 0 79 -31.5t32 -78.5q0 -46 -32 -76.5t-79 -30.5q-45 0 -76 30.5t-31 76.5z" />
    <glyph glyph-name="Rdotaccent" unicode="&#x1e58;" horiz-adv-x="1228" 
d="M668 1365q113 0 201 -33t142 -91t81.5 -132t27.5 -159q0 -80 -23 -147t-61 -112.5t-80 -75t-88 -46.5l277 -569h-233l-248 532h-302v-532h-204v1365h510zM362 701h272q133 0 203 62t70 178q0 122 -72 187t-195 65h-278v-492zM475 1605q0 47 31 78.5t76 31.5
q47 0 79 -31.5t32 -78.5q0 -46 -32 -76.5t-79 -30.5q-45 0 -76 30.5t-31 76.5z" />
    <glyph glyph-name="rdotaccent" unicode="&#x1e59;" horiz-adv-x="724" 
d="M161 0v1054h201v-130h7q13 29 28.5 50.5t44 45.5t75 37t108.5 13q37 0 70 -5v-181q-27 6 -90 6q-240 0 -240 -250v-640h-204zM314 1294q0 47 31 78.5t76 31.5q47 0 79 -31.5t32 -78.5q0 -46 -32 -76.5t-79 -30.5q-45 0 -76 30.5t-31 76.5z" />
    <glyph glyph-name="Rdotbelow" unicode="&#x1e5a;" horiz-adv-x="1228" 
d="M471 -271q0 49 32.5 82t79.5 33q50 0 83 -33t33 -82q0 -48 -33 -80t-83 -32q-47 0 -79.5 32t-32.5 80zM668 1365q113 0 201 -33t142 -91t81.5 -132t27.5 -159q0 -80 -23 -147t-61 -112.5t-80 -75t-88 -46.5l277 -569h-233l-248 532h-302v-532h-204v1365h510zM362 701h272
q133 0 203 62t70 178q0 122 -72 187t-195 65h-278v-492z" />
    <glyph glyph-name="rdotbelow" unicode="&#x1e5b;" horiz-adv-x="724" 
d="M155 -271q0 49 32.5 82t79.5 33q50 0 83 -33t33 -82q0 -48 -33 -80t-83 -32q-47 0 -79.5 32t-32.5 80zM161 0v1054h201v-130h7q13 29 28.5 50.5t44 45.5t75 37t108.5 13q37 0 70 -5v-181q-27 6 -90 6q-240 0 -240 -250v-640h-204z" />
    <glyph glyph-name="Rdotbelowmacron" unicode="&#x1e5c;" horiz-adv-x="1228" 
d="M471 -271q0 49 32.5 82t79.5 33q50 0 83 -33t33 -82q0 -48 -33 -80t-83 -32q-47 0 -79.5 32t-32.5 80zM668 1365q113 0 201 -33t142 -91t81.5 -132t27.5 -159q0 -80 -23 -147t-61 -112.5t-80 -75t-88 -46.5l277 -569h-233l-248 532h-302v-532h-204v1365h510zM362 701h272
q133 0 203 62t70 178q0 122 -72 187t-195 65h-278v-492zM860 1525h-558v110h558v-110z" />
    <glyph glyph-name="rdotbelowmacron" unicode="&#x1e5d;" horiz-adv-x="724" 
d="M155 -271q0 49 32.5 82t79.5 33q50 0 83 -33t33 -82q0 -48 -33 -80t-83 -32q-47 0 -79.5 32t-32.5 80zM161 0v1054h201v-130h7q13 29 28.5 50.5t44 45.5t75 37t108.5 13q37 0 70 -5v-181q-27 6 -90 6q-240 0 -240 -250v-640h-204zM699 1214h-558v118h558v-118z" />
    <glyph glyph-name="Rlinebelow" unicode="&#x1e5e;" horiz-adv-x="1228" 
d="M668 1365q113 0 201 -33t142 -91t81.5 -132t27.5 -159q0 -80 -23 -147t-61 -112.5t-80 -75t-88 -46.5l277 -569h-233l-248 532h-302v-532h-204v1365h510zM362 701h272q133 0 203 62t70 178q0 122 -72 187t-195 65h-278v-492zM860 -327h-558v118h558v-118z" />
    <glyph glyph-name="rlinebelow" unicode="&#x1e5f;" horiz-adv-x="724" 
d="M161 0v1054h201v-130h7q13 29 28.5 50.5t44 45.5t75 37t108.5 13q37 0 70 -5v-181q-27 6 -90 6q-240 0 -240 -250v-640h-204zM544 -327h-558v118h558v-118z" />
    <glyph glyph-name="Sdotaccent" unicode="&#x1e60;" horiz-adv-x="1172" 
d="M60 375h203q10 -99 93 -163.5t226 -64.5q136 0 215 60t79 163q0 80 -52.5 128t-166.5 76l-230 58q-68 17 -124 45t-103.5 70.5t-74 106t-26.5 142.5q0 125 68.5 217.5t177 137.5t239.5 45q129 0 236 -43.5t176 -134.5t71 -216h-199q-9 97 -82.5 159t-204.5 62
q-124 0 -199.5 -56.5t-75.5 -155.5q0 -144 191 -190l228 -58q65 -16 117 -37t98.5 -52.5t77 -71t48.5 -94t18 -121.5q0 -196 -144.5 -305.5t-375.5 -109.5q-107 0 -194 24.5t-143 64.5t-94 93.5t-54.5 108.5t-18.5 112zM477 1605q0 47 31 78.5t76 31.5q47 0 79 -31.5
t32 -78.5q0 -46 -32 -76.5t-79 -30.5q-45 0 -76 30.5t-31 76.5z" />
    <glyph glyph-name="sdotaccent" unicode="&#x1e61;" horiz-adv-x="998" 
d="M98 750q0 82 32.5 145t89.5 101t127.5 57t151.5 19q181 0 282.5 -88.5t101.5 -229.5h-184q-5 68 -54 117.5t-152 49.5q-90 0 -145 -40.5t-55 -111.5q0 -32 16.5 -57.5t32.5 -39.5t58.5 -27t59.5 -16.5t70 -12.5q6 -1 9.5 -1.5t8.5 -1.5t9 -2q65 -12 113 -25t96 -36
t78 -53.5t48.5 -76.5t18.5 -105q0 -157 -115.5 -245t-312.5 -88q-183 0 -293.5 82.5t-110.5 223.5h196q10 -70 66 -111.5t151 -41.5q112 0 167 43.5t55 112.5q0 81 -90 119q-45 18 -174 43q-67 14 -112 26.5t-94.5 35.5t-78.5 52.5t-48 76t-19 106.5zM392 1294q0 47 31 78.5
t76 31.5q47 0 79 -31.5t32 -78.5q0 -46 -32 -76.5t-79 -30.5q-45 0 -76 30.5t-31 76.5z" />
    <glyph glyph-name="Sdotbelow" unicode="&#x1e62;" horiz-adv-x="1172" 
d="M454 -271q0 49 32.5 82t79.5 33q50 0 83 -33t33 -82q0 -48 -33 -80t-83 -32q-47 0 -79.5 32t-32.5 80zM60 375h203q10 -99 93 -163.5t226 -64.5q136 0 215 60t79 163q0 80 -52.5 128t-166.5 76l-230 58q-68 17 -124 45t-103.5 70.5t-74 106t-26.5 142.5q0 125 68.5 217.5
t177 137.5t239.5 45q129 0 236 -43.5t176 -134.5t71 -216h-199q-9 97 -82.5 159t-204.5 62q-124 0 -199.5 -56.5t-75.5 -155.5q0 -144 191 -190l228 -58q65 -16 117 -37t98.5 -52.5t77 -71t48.5 -94t18 -121.5q0 -196 -144.5 -305.5t-375.5 -109.5q-107 0 -194 24.5
t-143 64.5t-94 93.5t-54.5 108.5t-18.5 112z" />
    <glyph glyph-name="sdotbelow" unicode="&#x1e63;" horiz-adv-x="998" 
d="M388 -271q0 49 32.5 82t79.5 33q50 0 83 -33t33 -82q0 -48 -33 -80t-83 -32q-47 0 -79.5 32t-32.5 80zM98 750q0 82 32.5 145t89.5 101t127.5 57t151.5 19q181 0 282.5 -88.5t101.5 -229.5h-184q-5 68 -54 117.5t-152 49.5q-90 0 -145 -40.5t-55 -111.5q0 -32 16.5 -57.5
t32.5 -39.5t58.5 -27t59.5 -16.5t70 -12.5q6 -1 9.5 -1.5t8.5 -1.5t9 -2q65 -12 113 -25t96 -36t78 -53.5t48.5 -76.5t18.5 -105q0 -157 -115.5 -245t-312.5 -88q-183 0 -293.5 82.5t-110.5 223.5h196q10 -70 66 -111.5t151 -41.5q112 0 167 43.5t55 112.5q0 81 -90 119
q-45 18 -174 43q-67 14 -112 26.5t-94.5 35.5t-78.5 52.5t-48 76t-19 106.5z" />
    <glyph glyph-name="Sacutedotaccent" unicode="&#x1e64;" horiz-adv-x="1172" 
d="M266 1677q0 42 28 71t68 29q43 0 71.5 -28.5t28.5 -71.5q0 -41 -28.5 -68.5t-71.5 -27.5q-40 0 -68 27.5t-28 68.5zM561 1553l255 206h219l-296 -206h-178zM60 375h203q10 -99 93 -163.5t226 -64.5q136 0 215 60t79 163q0 80 -52.5 128t-166.5 76l-230 58q-68 17 -124 45
t-103.5 70.5t-74 106t-26.5 142.5q0 125 68.5 217.5t177 137.5t239.5 45q129 0 236 -43.5t176 -134.5t71 -216h-199q-9 97 -82.5 159t-204.5 62q-124 0 -199.5 -56.5t-75.5 -155.5q0 -144 191 -190l228 -58q65 -16 117 -37t98.5 -52.5t77 -71t48.5 -94t18 -121.5
q0 -196 -144.5 -305.5t-375.5 -109.5q-107 0 -194 24.5t-143 64.5t-94 93.5t-54.5 108.5t-18.5 112z" />
    <glyph glyph-name="sacutedotaccent" unicode="&#x1e65;" horiz-adv-x="998" 
d="M206 1402q0 45 29 74.5t71 29.5q46 0 75.5 -29t29.5 -75q0 -43 -29.5 -71.5t-75.5 -28.5q-42 0 -71 29t-29 71zM98 750q0 82 32.5 145t89.5 101t127.5 57t151.5 19q181 0 282.5 -88.5t101.5 -229.5h-184q-5 68 -54 117.5t-152 49.5q-90 0 -145 -40.5t-55 -111.5
q0 -32 16.5 -57.5t32.5 -39.5t58.5 -27t59.5 -16.5t70 -12.5q6 -1 9.5 -1.5t8.5 -1.5t9 -2q65 -12 113 -25t96 -36t78 -53.5t48.5 -76.5t18.5 -105q0 -157 -115.5 -245t-312.5 -88q-183 0 -293.5 82.5t-110.5 223.5h196q10 -70 66 -111.5t151 -41.5q112 0 167 43.5t55 112.5
q0 81 -90 119q-45 18 -174 43q-67 14 -112 26.5t-94.5 35.5t-78.5 52.5t-48 76t-19 106.5zM629 1215h-163l190 279h208z" />
    <glyph glyph-name="Scarondotaccent" unicode="&#x1e66;" horiz-adv-x="1172" 
d="M491 1869q0 42 26.5 70t65.5 28q42 0 69.5 -28t27.5 -70q0 -40 -27.5 -66t-69.5 -26q-39 0 -65.5 26t-26.5 66zM60 375h203q10 -99 93 -163.5t226 -64.5q136 0 215 60t79 163q0 80 -52.5 128t-166.5 76l-230 58q-68 17 -124 45t-103.5 70.5t-74 106t-26.5 142.5
q0 125 68.5 217.5t177 137.5t239.5 45q129 0 236 -43.5t176 -134.5t71 -216h-199q-9 97 -82.5 159t-204.5 62q-124 0 -199.5 -56.5t-75.5 -155.5q0 -144 191 -190l228 -58q65 -16 117 -37t98.5 -52.5t77 -71t48.5 -94t18 -121.5q0 -196 -144.5 -305.5t-375.5 -109.5
q-107 0 -194 24.5t-143 64.5t-94 93.5t-54.5 108.5t-18.5 112zM249 1729h177l155 -127h8l154 127h177l-275 -221h-119z" />
    <glyph glyph-name="scarondotaccent" unicode="&#x1e67;" horiz-adv-x="998" 
d="M390 1707q0 45 29.5 75t72.5 30q46 0 76.5 -29.5t30.5 -75.5q0 -44 -30.5 -73t-76.5 -29q-43 0 -72.5 29t-29.5 73zM223 1497h159l117 -186h4l108 187h162l-205 -299h-133zM98 750q0 82 32.5 145t89.5 101t127.5 57t151.5 19q181 0 282.5 -88.5t101.5 -229.5h-184
q-5 68 -54 117.5t-152 49.5q-90 0 -145 -40.5t-55 -111.5q0 -32 16.5 -57.5t32.5 -39.5t58.5 -27t59.5 -16.5t70 -12.5q6 -1 9.5 -1.5t8.5 -1.5t9 -2q65 -12 113 -25t96 -36t78 -53.5t48.5 -76.5t18.5 -105q0 -157 -115.5 -245t-312.5 -88q-183 0 -293.5 82.5t-110.5 223.5
h196q10 -70 66 -111.5t151 -41.5q112 0 167 43.5t55 112.5q0 81 -90 119q-45 18 -174 43q-67 14 -112 26.5t-94.5 35.5t-78.5 52.5t-48 76t-19 106.5z" />
    <glyph glyph-name="Sdotbelowdotaccent" unicode="&#x1e68;" horiz-adv-x="1172" 
d="M454 -271q0 49 32.5 82t79.5 33q50 0 83 -33t33 -82q0 -48 -33 -80t-83 -32q-47 0 -79.5 32t-32.5 80zM60 375h203q10 -99 93 -163.5t226 -64.5q136 0 215 60t79 163q0 80 -52.5 128t-166.5 76l-230 58q-68 17 -124 45t-103.5 70.5t-74 106t-26.5 142.5q0 125 68.5 217.5
t177 137.5t239.5 45q129 0 236 -43.5t176 -134.5t71 -216h-199q-9 97 -82.5 159t-204.5 62q-124 0 -199.5 -56.5t-75.5 -155.5q0 -144 191 -190l228 -58q65 -16 117 -37t98.5 -52.5t77 -71t48.5 -94t18 -121.5q0 -196 -144.5 -305.5t-375.5 -109.5q-107 0 -194 24.5
t-143 64.5t-94 93.5t-54.5 108.5t-18.5 112zM477 1605q0 47 31 78.5t76 31.5q47 0 79 -31.5t32 -78.5q0 -46 -32 -76.5t-79 -30.5q-45 0 -76 30.5t-31 76.5z" />
    <glyph glyph-name="sdotbelowdotaccent" unicode="&#x1e69;" horiz-adv-x="998" 
d="M388 -271q0 49 32.5 82t79.5 33q50 0 83 -33t33 -82q0 -48 -33 -80t-83 -32q-47 0 -79.5 32t-32.5 80zM98 750q0 82 32.5 145t89.5 101t127.5 57t151.5 19q181 0 282.5 -88.5t101.5 -229.5h-184q-5 68 -54 117.5t-152 49.5q-90 0 -145 -40.5t-55 -111.5q0 -32 16.5 -57.5
t32.5 -39.5t58.5 -27t59.5 -16.5t70 -12.5q6 -1 9.5 -1.5t8.5 -1.5t9 -2q65 -12 113 -25t96 -36t78 -53.5t48.5 -76.5t18.5 -105q0 -157 -115.5 -245t-312.5 -88q-183 0 -293.5 82.5t-110.5 223.5h196q10 -70 66 -111.5t151 -41.5q112 0 167 43.5t55 112.5q0 81 -90 119
q-45 18 -174 43q-67 14 -112 26.5t-94.5 35.5t-78.5 52.5t-48 76t-19 106.5zM392 1294q0 47 31 78.5t76 31.5q47 0 79 -31.5t32 -78.5q0 -46 -32 -76.5t-79 -30.5q-45 0 -76 30.5t-31 76.5z" />
    <glyph glyph-name="Tdotaccent" unicode="&#x1e6a;" horiz-adv-x="1054" 
d="M420 1605q0 47 31 78.5t76 31.5q47 0 79 -31.5t32 -78.5q0 -46 -32 -76.5t-79 -30.5q-45 0 -76 30.5t-31 76.5zM629 0h-204v1186h-407v179h1018v-179h-407v-1186z" />
    <glyph glyph-name="tdotaccent" unicode="&#x1e6b;" horiz-adv-x="683" 
d="M203 1544q0 47 31 78.5t76 31.5q47 0 79 -31.5t32 -78.5q0 -46 -32 -76.5t-79 -30.5q-45 0 -76 30.5t-31 76.5zM202 1050v264h199v-264h207v-163h-207v-581q0 -89 35.5 -120.5t129.5 -31.5q22 0 48 2v-157q-40 -7 -98 -7q-94 0 -156 17.5t-97 56.5t-49 93.5t-14 136.5
v591h-145v163h147z" />
    <glyph glyph-name="Tdotbelow" unicode="&#x1e6c;" horiz-adv-x="1054" 
d="M416 -271q0 49 32.5 82t79.5 33q50 0 83 -33t33 -82q0 -48 -33 -80t-83 -32q-47 0 -79.5 32t-32.5 80zM629 0h-204v1186h-407v179h1018v-179h-407v-1186z" />
    <glyph glyph-name="tdotbelow" unicode="&#x1e6d;" horiz-adv-x="683" 
d="M306 -271q0 49 32.5 82t79.5 33q50 0 83 -33t33 -82q0 -48 -33 -80t-83 -32q-47 0 -79.5 32t-32.5 80zM202 1050v264h199v-264h207v-163h-207v-581q0 -89 35.5 -120.5t129.5 -31.5q22 0 48 2v-157q-40 -7 -98 -7q-94 0 -156 17.5t-97 56.5t-49 93.5t-14 136.5v591h-145
v163h147z" />
    <glyph glyph-name="Tlinebelow" unicode="&#x1e6e;" horiz-adv-x="1054" 
d="M805 -327h-558v118h558v-118zM629 0h-204v1186h-407v179h1018v-179h-407v-1186z" />
    <glyph glyph-name="tlinebelow" unicode="&#x1e6f;" horiz-adv-x="683" 
d="M695 -327h-558v118h558v-118zM202 1050v264h199v-264h207v-163h-207v-581q0 -89 35.5 -120.5t129.5 -31.5q22 0 48 2v-157q-40 -7 -98 -7q-94 0 -156 17.5t-97 56.5t-49 93.5t-14 136.5v591h-145v163h147z" />
    <glyph glyph-name="Tcircumflexbelow" unicode="&#x1e70;" horiz-adv-x="1054" 
d="M629 0h-204v1186h-407v179h1018v-179h-407v-1186zM248 -403l212 291h133l205 -292h-162l-108 181h-5l-116 -180h-159z" />
    <glyph glyph-name="tcircumflexbelow" unicode="&#x1e71;" horiz-adv-x="683" 
d="M202 1050v264h199v-264h207v-163h-207v-581q0 -89 35.5 -120.5t129.5 -31.5q22 0 48 2v-157q-40 -7 -98 -7q-94 0 -156 17.5t-97 56.5t-49 93.5t-14 136.5v591h-145v163h147zM138 -403l212 291h133l205 -292h-162l-108 181h-5l-116 -180h-159z" />
    <glyph glyph-name="Udieresisbelow" unicode="&#x1e72;" horiz-adv-x="1341" 
d="M348 1365v-881q0 -153 87 -242t235 -89t236 89.5t88 241.5v881h205v-891q0 -226 -145.5 -364t-383.5 -138q-237 0 -382.5 139t-145.5 366v888h206zM385 -312q0 45 28.5 74t72.5 29q45 0 73.5 -28.5t28.5 -74.5q0 -44 -28.5 -72.5t-73.5 -28.5q-44 0 -72.5 28.5
t-28.5 72.5zM748 -312q0 46 28 74.5t72 28.5q46 0 74.5 -28.5t28.5 -74.5q0 -44 -29 -72.5t-74 -28.5q-43 0 -71.5 28.5t-28.5 72.5z" />
    <glyph glyph-name="udieresisbelow" unicode="&#x1e73;" horiz-adv-x="1166" 
d="M1020 1054v-1054h-199v143h-9q-30 -69 -107.5 -114.5t-196.5 -45.5q-168 0 -269 95.5t-101 273.5v702h203v-646q0 -133 64.5 -190t170.5 -57q108 0 174.5 66t66.5 184v643h203zM297 -312q0 45 28.5 74t72.5 29q45 0 73.5 -28.5t28.5 -74.5q0 -44 -28.5 -72.5t-73.5 -28.5
q-44 0 -72.5 28.5t-28.5 72.5zM660 -312q0 46 28 74.5t72 28.5q46 0 74.5 -28.5t28.5 -74.5q0 -44 -29 -72.5t-74 -28.5q-43 0 -71.5 28.5t-28.5 72.5z" />
    <glyph glyph-name="Utildebelow" unicode="&#x1e74;" horiz-adv-x="1341" 
d="M639 -292l-11.5 11.5l-13 13t-12 10.5t-14 10t-14 5.5t-16.5 2.5q-60 0 -65 -98h-120q0 88 45 150.5t130 62.5q45 0 78 -17t69 -53q4 -4 14.5 -15.5t15.5 -16t14 -11t17.5 -9t18.5 -2.5q32 0 48 32.5t20 74.5h119q0 -84 -49 -149.5t-127 -65.5q-53 0 -85 16t-62 48z
M348 1365v-881q0 -153 87 -242t235 -89t236 89.5t88 241.5v881h205v-891q0 -226 -145.5 -364t-383.5 -138q-237 0 -382.5 139t-145.5 366v888h206z" />
    <glyph glyph-name="utildebelow" unicode="&#x1e75;" horiz-adv-x="1166" 
d="M551 -292l-11.5 11.5l-13 13t-12 10.5t-14 10t-14 5.5t-16.5 2.5q-60 0 -65 -98h-120q0 88 45 150.5t130 62.5q45 0 78 -17t69 -53q4 -4 14.5 -15.5t15.5 -16t14 -11t17.5 -9t18.5 -2.5q32 0 48 32.5t20 74.5h119q0 -84 -49 -149.5t-127 -65.5q-53 0 -85 16t-62 48z
M1020 1054v-1054h-199v143h-9q-30 -69 -107.5 -114.5t-196.5 -45.5q-168 0 -269 95.5t-101 273.5v702h203v-646q0 -133 64.5 -190t170.5 -57q108 0 174.5 66t66.5 184v643h203z" />
    <glyph glyph-name="Ucircumflexbelow" unicode="&#x1e76;" horiz-adv-x="1341" 
d="M348 1365v-881q0 -153 87 -242t235 -89t236 89.5t88 241.5v881h205v-891q0 -226 -145.5 -364t-383.5 -138q-237 0 -382.5 139t-145.5 366v888h206zM392 -403l212 291h133l205 -292h-162l-108 181h-5l-116 -180h-159z" />
    <glyph glyph-name="ucircumflexbelow" unicode="&#x1e77;" horiz-adv-x="1166" 
d="M1020 1054v-1054h-199v143h-9q-30 -69 -107.5 -114.5t-196.5 -45.5q-168 0 -269 95.5t-101 273.5v702h203v-646q0 -133 64.5 -190t170.5 -57q108 0 174.5 66t66.5 184v643h203zM304 -403l212 291h133l205 -292h-162l-108 181h-5l-116 -180h-159z" />
    <glyph glyph-name="Utildeacute" unicode="&#x1e78;" horiz-adv-x="1341" 
d="M554 1738l255 206h219l-296 -206h-178zM348 1365v-881q0 -153 87 -242t235 -89t236 89.5t88 241.5v881h205v-891q0 -226 -145.5 -364t-383.5 -138q-237 0 -382.5 139t-145.5 366v888h206zM646 1538l-9 9l-10.5 10.5t-9.5 8.5t-12 9t-11 6t-13 5t-13 1q-60 0 -64 -91h-116
q0 82 43.5 140.5t126.5 58.5q43 0 75 -16t67 -50q5 -4 18 -17t19 -17.5t17.5 -9.5t23.5 -5q31 0 47 30.5t19 68.5h116q0 -78 -47.5 -139t-123.5 -61q-51 0 -82 14.5t-61 44.5z" />
    <glyph glyph-name="utildeacute" unicode="&#x1e79;" horiz-adv-x="1166" 
d="M1020 1054v-1054h-199v143h-9q-30 -69 -107.5 -114.5t-196.5 -45.5q-168 0 -269 95.5t-101 273.5v702h203v-646q0 -133 64.5 -190t170.5 -57q108 0 174.5 66t66.5 184v643h203zM636 1481h-163l190 279h208zM549 1225q-18 19 -25 25.5t-24 16.5t-33 10q-61 0 -68 -101
h-124q0 98 46.5 165t138.5 67q76 0 148 -74q4 -4 14.5 -15.5t15.5 -16t14 -11t18 -9t19 -2.5q33 0 49.5 34t19.5 76h124q0 -91 -51.5 -161.5t-134.5 -70.5q-51 0 -84 17t-63 50z" />
    <glyph glyph-name="Umacrondieresis" unicode="&#x1e7a;" horiz-adv-x="1341" 
d="M427 1844q0 40 25.5 65.5t64.5 25.5q40 0 65 -25.5t25 -65.5q0 -39 -25.5 -64.5t-64.5 -25.5t-64.5 26t-25.5 64zM736 1844q0 40 25 65.5t64 25.5q40 0 65 -25.5t25 -65.5q0 -39 -25 -64.5t-65 -25.5q-39 0 -64 25.5t-25 64.5zM348 1365v-881q0 -153 87 -242t235 -89
t236 89.5t88 241.5v881h205v-891q0 -226 -145.5 -364t-383.5 -138q-237 0 -382.5 139t-145.5 366v888h206zM949 1525h-558v110h558v-110z" />
    <glyph glyph-name="umacrondieresis" unicode="&#x1e7b;" horiz-adv-x="1166" 
d="M1020 1054v-1054h-199v143h-9q-30 -69 -107.5 -114.5t-196.5 -45.5q-168 0 -269 95.5t-101 273.5v702h203v-646q0 -133 64.5 -190t170.5 -57q108 0 174.5 66t66.5 184v643h203zM861 1214h-558v118h558v-118zM300 1547q0 45 28.5 74t72.5 29q45 0 73.5 -28.5t28.5 -74.5
q0 -44 -28.5 -72.5t-73.5 -28.5q-43 0 -72 29t-29 72zM663 1547q0 46 28 74.5t72 28.5q46 0 74.5 -28.5t28.5 -74.5q0 -44 -29 -72.5t-74 -28.5q-43 0 -71.5 28.5t-28.5 72.5z" />
    <glyph glyph-name="Vtilde" unicode="&#x1e7c;" horiz-adv-x="1214" 
d="M582 1538l-9 9l-10.5 10.5t-9.5 8.5t-12 9t-11 6t-13 5t-13 1q-60 0 -64 -91h-116q0 82 43.5 140.5t126.5 58.5q43 0 75 -16t67 -50q5 -4 18 -17t19 -17.5t17.5 -9.5t23.5 -5q31 0 47 30.5t19 68.5h116q0 -78 -47.5 -139t-123.5 -61q-51 0 -82 14.5t-61 44.5zM721 0h-227
l-480 1365h236l357 -1114h8l354 1114h231z" />
    <glyph glyph-name="vtilde" unicode="&#x1e7d;" horiz-adv-x="1002" 
d="M467 1225q-18 19 -25 25.5t-24 16.5t-33 10q-61 0 -68 -101h-124q0 98 46.5 165t138.5 67q76 0 148 -74q4 -4 14.5 -15.5t15.5 -16t14 -11t18 -9t19 -2.5q33 0 49.5 34t19.5 76h124q0 -91 -51.5 -161.5t-134.5 -70.5q-51 0 -84 17t-63 50zM388 0l-366 1054h222l247 -853
h8l267 853h214l-378 -1054h-214z" />
    <glyph glyph-name="Vdotbelow" unicode="&#x1e7e;" horiz-adv-x="1214" 
d="M496 -271q0 49 32.5 82t79.5 33q50 0 83 -33t33 -82q0 -48 -33 -80t-83 -32q-47 0 -79.5 32t-32.5 80zM721 0h-227l-480 1365h236l357 -1114h8l354 1114h231z" />
    <glyph glyph-name="vdotbelow" unicode="&#x1e7f;" horiz-adv-x="1002" 
d="M390 -271q0 49 32.5 82t79.5 33q50 0 83 -33t33 -82q0 -48 -33 -80t-83 -32q-47 0 -79.5 32t-32.5 80zM388 0l-366 1054h222l247 -853h8l267 853h214l-378 -1054h-214z" />
    <glyph glyph-name="Wgrave" unicode="&#x1e80;" horiz-adv-x="1698" 
d="M964 1510h-175l-292 203h215zM569 0h-187l-371 1365h233l238 -1037h7l261 1037h198l260 -1037h8l238 1037h232l-371 -1365h-187l-276 1030h-7z" />
    <glyph glyph-name="wgrave" unicode="&#x1e81;" horiz-adv-x="1493" 
d="M854 1217h-164l-237 277h208zM1465 1054l-279 -1054h-203l-229 792h-5l-224 -792h-205l-292 1054h221l177 -815h9l221 815h190l228 -815h8l182 815h201z" />
    <glyph glyph-name="Wacute" unicode="&#x1e82;" horiz-adv-x="1698" 
d="M732 1510l255 206h219l-296 -206h-178zM569 0h-187l-371 1365h233l238 -1037h7l261 1037h198l260 -1037h8l238 1037h232l-371 -1365h-187l-276 1030h-7z" />
    <glyph glyph-name="wacute" unicode="&#x1e83;" horiz-adv-x="1493" 
d="M800 1215h-163l190 279h208zM1465 1054l-279 -1054h-203l-229 792h-5l-224 -792h-205l-292 1054h221l177 -815h9l221 815h190l228 -815h8l182 815h201z" />
    <glyph glyph-name="Wdieresis" unicode="&#x1e84;" horiz-adv-x="1698" 
d="M628 1583q0 40 25.5 65.5t64.5 25.5q40 0 65 -25.5t25 -65.5q0 -39 -25.5 -64.5t-64.5 -25.5t-64.5 26t-25.5 64zM937 1583q0 40 25 65.5t64 25.5q40 0 65 -25.5t25 -65.5q0 -39 -25 -64.5t-65 -25.5q-39 0 -64 25.5t-25 64.5zM569 0h-187l-371 1365h233l238 -1037h7
l261 1037h198l260 -1037h8l238 1037h232l-371 -1365h-187l-276 1030h-7z" />
    <glyph glyph-name="wdieresis" unicode="&#x1e85;" horiz-adv-x="1493" 
d="M464 1263q0 45 28.5 74t72.5 29q45 0 73.5 -28.5t28.5 -74.5q0 -44 -28.5 -72.5t-73.5 -28.5q-43 0 -72 29t-29 72zM827 1263q0 46 28 74.5t72 28.5q46 0 74.5 -28.5t28.5 -74.5q0 -44 -29 -72.5t-74 -28.5q-43 0 -71.5 28.5t-28.5 72.5zM1465 1054l-279 -1054h-203
l-229 792h-5l-224 -792h-205l-292 1054h221l177 -815h9l221 815h190l228 -815h8l182 815h201z" />
    <glyph glyph-name="Wdotaccent" unicode="&#x1e86;" horiz-adv-x="1698" 
d="M742 1605q0 47 31 78.5t76 31.5q47 0 79 -31.5t32 -78.5q0 -46 -32 -76.5t-79 -30.5q-45 0 -76 30.5t-31 76.5zM569 0h-187l-371 1365h233l238 -1037h7l261 1037h198l260 -1037h8l238 1037h232l-371 -1365h-187l-276 1030h-7z" />
    <glyph glyph-name="wdotaccent" unicode="&#x1e87;" horiz-adv-x="1493" 
d="M640 1294q0 47 31 78.5t76 31.5q47 0 79 -31.5t32 -78.5q0 -46 -32 -76.5t-79 -30.5q-45 0 -76 30.5t-31 76.5zM1465 1054l-279 -1054h-203l-229 792h-5l-224 -792h-205l-292 1054h221l177 -815h9l221 815h190l228 -815h8l182 815h201z" />
    <glyph glyph-name="Wdotbelow" unicode="&#x1e88;" horiz-adv-x="1698" 
d="M738 -271q0 49 32.5 82t79.5 33q50 0 83 -33t33 -82q0 -48 -33 -80t-83 -32q-47 0 -79.5 32t-32.5 80zM569 0h-187l-371 1365h233l238 -1037h7l261 1037h198l260 -1037h8l238 1037h232l-371 -1365h-187l-276 1030h-7z" />
    <glyph glyph-name="wdotbelow" unicode="&#x1e89;" horiz-adv-x="1493" 
d="M636 -271q0 49 32.5 82t79.5 33q50 0 83 -33t33 -82q0 -48 -33 -80t-83 -32q-47 0 -79.5 32t-32.5 80zM1465 1054l-279 -1054h-203l-229 792h-5l-224 -792h-205l-292 1054h221l177 -815h9l221 815h190l228 -815h8l182 815h201z" />
    <glyph glyph-name="Xdotaccent" unicode="&#x1e8a;" horiz-adv-x="1144" 
d="M1144 1365l-447 -688l439 -677h-243l-324 521h-11l-326 -521h-229l439 688l-433 677h245l324 -525h11l320 525h235zM465 1605q0 47 31 78.5t76 31.5q47 0 79 -31.5t32 -78.5q0 -46 -32 -76.5t-79 -30.5q-45 0 -76 30.5t-31 76.5z" />
    <glyph glyph-name="xdotaccent" unicode="&#x1e8b;" horiz-adv-x="1034" 
d="M752 0l-236 382h-8l-237 -382h-222l346 522l-351 532h238l230 -380h9l237 380h227l-354 -517l355 -537h-234zM410 1294q0 47 31 78.5t76 31.5q47 0 79 -31.5t32 -78.5q0 -46 -32 -76.5t-79 -30.5q-45 0 -76 30.5t-31 76.5z" />
    <glyph glyph-name="Xdieresis" unicode="&#x1e8c;" horiz-adv-x="1144" 
d="M1144 1365l-447 -688l439 -677h-243l-324 521h-11l-326 -521h-229l439 688l-433 677h245l324 -525h11l320 525h235zM350 1583q0 40 25.5 65.5t64.5 25.5q40 0 65 -25.5t25 -65.5q0 -39 -25.5 -64.5t-64.5 -25.5t-64.5 26t-25.5 64zM659 1583q0 40 25 65.5t64 25.5
q40 0 65 -25.5t25 -65.5q0 -39 -25 -64.5t-65 -25.5q-39 0 -64 25.5t-25 64.5z" />
    <glyph glyph-name="xdieresis" unicode="&#x1e8d;" horiz-adv-x="1034" 
d="M752 0l-236 382h-8l-237 -382h-222l346 522l-351 532h238l230 -380h9l237 380h227l-354 -517l355 -537h-234zM234 1263q0 45 28.5 74t72.5 29q45 0 73.5 -28.5t28.5 -74.5q0 -44 -28.5 -72.5t-73.5 -28.5q-43 0 -72 29t-29 72zM597 1263q0 46 28 74.5t72 28.5
q46 0 74.5 -28.5t28.5 -74.5q0 -44 -29 -72.5t-74 -28.5q-43 0 -71.5 28.5t-28.5 72.5z" />
    <glyph glyph-name="Ydotaccent" unicode="&#x1e8e;" horiz-adv-x="1108" 
d="M656 0h-205v565l-456 800h232l324 -597h7l327 597h228l-457 -797v-568zM448 1605q0 47 31 78.5t76 31.5q47 0 79 -31.5t32 -78.5q0 -46 -32 -76.5t-79 -30.5q-45 0 -76 30.5t-31 76.5z" />
    <glyph glyph-name="ydotaccent" unicode="&#x1e8f;" horiz-adv-x="1052" 
d="M1009 1054q-365 -1044 -366 -1048l-27 -73q-21 -57 -41 -97.5t-52 -84.5t-70 -71t-93.5 -44.5t-124.5 -17.5q-61 0 -119 9v157q27 -5 80 -5q91 0 136.5 39.5t65.5 120.5l14 50l-381 1065h224l264 -864h9l266 864h215zM419 1294q0 47 31 78.5t76 31.5q47 0 79 -31.5
t32 -78.5q0 -46 -32 -76.5t-79 -30.5q-45 0 -76 30.5t-31 76.5z" />
    <glyph glyph-name="Zcircumflex" unicode="&#x1e90;" horiz-adv-x="1156" 
d="M83 0v141l708 1041v6h-685v177h937v-139l-703 -1042v-6h721v-178h-978zM246 1507l277 238h119l274 -238h-176l-155 140h-8l-155 -140h-176z" />
    <glyph glyph-name="zcircumflex" unicode="&#x1e91;" horiz-adv-x="977" 
d="M208 1217l213 298h133l204 -300h-162l-108 187h-4l-116 -185h-160zM92 0v128l544 755v11h-544v160h792v-133l-537 -749v-10h545v-162h-800z" />
    <glyph glyph-name="Zdotbelow" unicode="&#x1e92;" horiz-adv-x="1156" 
d="M467 -271q0 49 32.5 82t79.5 33q50 0 83 -33t33 -82q0 -48 -33 -80t-83 -32q-47 0 -79.5 32t-32.5 80zM83 0v141l708 1041v6h-685v177h937v-139l-703 -1042v-6h721v-178h-978z" />
    <glyph glyph-name="zdotbelow" unicode="&#x1e93;" horiz-adv-x="977" 
d="M378 -271q0 49 32.5 82t79.5 33q50 0 83 -33t33 -82q0 -48 -33 -80t-83 -32q-47 0 -79.5 32t-32.5 80zM92 0v128l544 755v11h-544v160h792v-133l-537 -749v-10h545v-162h-800z" />
    <glyph glyph-name="Zlinebelow" unicode="&#x1e94;" horiz-adv-x="1156" 
d="M83 0v141l708 1041v6h-685v177h937v-139l-703 -1042v-6h721v-178h-978zM856 -327h-558v118h558v-118z" />
    <glyph glyph-name="zlinebelow" unicode="&#x1e95;" horiz-adv-x="977" 
d="M767 -327h-558v118h558v-118zM92 0v128l544 755v11h-544v160h792v-133l-537 -749v-10h545v-162h-800z" />
    <glyph glyph-name="hlinebelow" unicode="&#x1e96;" horiz-adv-x="1177" 
d="M149 0v1437h202v-526h8q27 63 101 111.5t192 48.5q174 0 279.5 -113t105.5 -297v-661h-202v617q0 128 -62 202t-175 74q-116 0 -181.5 -72t-65.5 -204v-617h-202zM861 -327h-558v118h558v-118z" />
    <glyph glyph-name="tdieresis" unicode="&#x1e97;" horiz-adv-x="683" 
d="M202 1050v264h199v-264h207v-163h-207v-581q0 -89 35.5 -120.5t129.5 -31.5q22 0 48 2v-157q-40 -7 -98 -7q-94 0 -156 17.5t-97 56.5t-49 93.5t-14 136.5v591h-145v163h147zM27 1513q0 45 28.5 74t72.5 29q45 0 73.5 -28.5t28.5 -74.5q0 -44 -28.5 -72.5t-73.5 -28.5
q-44 0 -72.5 29t-28.5 72zM390 1513q0 46 28 74.5t72 28.5q46 0 74.5 -28.5t28.5 -74.5q0 -44 -29 -72.5t-74 -28.5q-43 0 -71.5 28.5t-28.5 72.5z" />
    <glyph glyph-name="wring" unicode="&#x1e98;" horiz-adv-x="1493" 
d="M1465 1054l-279 -1054h-203l-229 792h-5l-224 -792h-205l-292 1054h221l177 -815h9l221 815h190l228 -815h8l182 815h201zM745 1192q-84 0 -141 55t-57 138q0 82 57 137t141 55q83 0 140 -55t57 -137q0 -83 -57 -138t-140 -55zM645 1384q0 -42 28.5 -71t71.5 -29
q42 0 70 29t28 71q0 43 -28 71.5t-70 28.5q-43 0 -71.5 -28.5t-28.5 -71.5z" />
    <glyph glyph-name="yring" unicode="&#x1e99;" horiz-adv-x="1052" 
d="M1009 1054q-365 -1044 -366 -1048l-27 -73q-21 -57 -41 -97.5t-52 -84.5t-70 -71t-93.5 -44.5t-124.5 -17.5q-61 0 -119 9v157q27 -5 80 -5q91 0 136.5 39.5t65.5 120.5l14 50l-381 1065h224l264 -864h9l266 864h215zM524 1192q-84 0 -141 55t-57 138q0 82 57 137t141 55
q83 0 140 -55t57 -137q0 -83 -57 -138t-140 -55zM424 1384q0 -42 28.5 -71t71.5 -29q42 0 70 29t28 71q0 43 -28 71.5t-70 28.5q-43 0 -71.5 -28.5t-28.5 -71.5z" />
    <glyph glyph-name="Adotbelow" unicode="&#x1ea0;" horiz-adv-x="1218" 
d="M230 0h-209l476 1365h223l476 -1365h-221l-127 391h-490zM607 1141h-7l-193 -590h392zM499 -271q0 49 32.5 82t79.5 33q50 0 83 -33t33 -82q0 -48 -33 -80t-83 -32q-47 0 -79.5 32t-32.5 80z" />
    <glyph glyph-name="adotbelow" unicode="&#x1ea1;" horiz-adv-x="1072" 
d="M733 138q-41 -68 -116.5 -111.5t-184.5 -43.5q-154 0 -249 87t-95 232q0 142 96.5 225.5t274.5 83.5h271v118q0 175 -204 175q-189 0 -205 -158h-194q7 148 107.5 236.5t299.5 88.5q188 0 293 -84t105 -260v-727h-192v138h-7zM491 143q102 0 170.5 61.5t68.5 152.5v111
h-243q-97 0 -146 -42t-49 -114q0 -82 57.5 -125.5t141.5 -43.5zM425 -271q0 49 32.5 82t79.5 33q50 0 83 -33t33 -82q0 -48 -33 -80t-83 -32q-47 0 -79.5 32t-32.5 80z" />
    </font>
</defs>
</svg>
