<?xml version="1.0" standalone="no"?>
<!DOCTYPE svg PUBLIC "-//W3C//DTD SVG 1.1//EN" "http://www.w3.org/Graphics/SVG/1.1/DTD/svg11.dtd" >
<svg xmlns="http://www.w3.org/2000/svg" xmlns:xlink="http://www.w3.org/1999/xlink" version="1.1">
<metadata>
Created by FontForge 20170731 at Wed Jan 14 10:07:56 2015
 By Aleksey,,,
(c) 2014 Apple Inc. All rights reserved.
</metadata>
<defs>
<font id="SanFranciscoDisplay-Ultralight" horiz-adv-x="1080" >
  <font-face 
    font-family="San Francisco Display UltLt"
    font-weight="250"
    font-stretch="normal"
    units-per-em="2048"
    panose-1="0 0 0 0 0 0 0 0 0 0"
    ascent="1638"
    descent="-410"
    x-height="1030"
    cap-height="1358"
    bbox="-526 -489 2048 1979"
    underline-thickness="50"
    underline-position="-125"
    unicode-range="U+000D-FB02"
  />
<missing-glyph horiz-adv-x="1293" 
d="M120 0v1365h1053v-1365h-1053zM501 313q0 -47 33.5 -77t86.5 -30q55 0 88.5 29.5t33.5 77.5q0 49 -33.5 78.5t-88.5 29.5q-54 0 -87 -30t-33 -78zM339 888h169q1 59 34.5 94.5t90.5 35.5q54 0 87 -30t33 -80q0 -38 -20.5 -65.5t-82.5 -72.5q-69 -48 -96 -100t-22 -121
l1 -18h166v15q0 48 19 76t88 77q73 52 103 102t30 116q0 113 -81 181.5t-215 68.5q-143 0 -225.5 -76t-78.5 -203z" />
    <glyph glyph-name=".notdef" horiz-adv-x="1293" 
d="M120 0v1365h1053v-1365h-1053zM501 313q0 -47 33.5 -77t86.5 -30q55 0 88.5 29.5t33.5 77.5q0 49 -33.5 78.5t-88.5 29.5q-54 0 -87 -30t-33 -78zM339 888h169q1 59 34.5 94.5t90.5 35.5q54 0 87 -30t33 -80q0 -38 -20.5 -65.5t-82.5 -72.5q-69 -48 -96 -100t-22 -121
l1 -18h166v15q0 48 19 76t88 77q73 52 103 102t30 116q0 113 -81 181.5t-215 68.5q-143 0 -225.5 -76t-78.5 -203z" />
    <glyph glyph-name=".null" horiz-adv-x="0" 
 />
    <glyph glyph-name="nonmarkingreturn" horiz-adv-x="682" 
 />
    <glyph glyph-name="CR" unicode="&#xd;" horiz-adv-x="0" 
 />
    <glyph glyph-name="space" unicode=" " horiz-adv-x="425" 
 />
    <glyph glyph-name="exclam" unicode="!" horiz-adv-x="479" 
d="M172 53q0 28 19.5 48t47.5 20t48 -20t20 -48t-20 -47.5t-48 -19.5t-47.5 19.5t-19.5 47.5zM210 1358h57l-4 -995h-48z" />
    <glyph glyph-name="quotedbl" unicode="&#x22;" horiz-adv-x="556" 
d="M140 1358h69l-14 -412h-41zM347 1358h69l-14 -412h-41z" />
    <glyph glyph-name="numbersign" unicode="#" horiz-adv-x="1198" 
d="M1148 889h-257l-81 -410h243l-10 -52h-244l-89 -427h-53l88 427h-372l-89 -427h-53l88 427h-243l10 52h245l81 410h-231l10 52h232l87 423h54l-88 -423h373l87 423h54l-88 -423h257zM466 889l-81 -410h372l81 410h-372z" />
    <glyph glyph-name="dollar" unicode="$" horiz-adv-x="1040" 
d="M162 1048q0 -116 72.5 -187t211.5 -108l59 -16v580q-158 -4 -250.5 -78.5t-92.5 -190.5zM905 341q0 129 -79 201.5t-255 118.5l-11 3v-622q157 9 251 90t94 209zM560 -147h-55v135q-111 1 -198.5 33.5t-138.5 84t-77.5 111t-26.5 121.5h61q2 -115 102 -203.5t278 -93.5
v637l-95 25q-153 41 -231 121.5t-78 215.5q0 145 108.5 235t295.5 95v134h55v-135q179 -9 281.5 -97.5t104.5 -211.5h-58q-1 44 -21 86t-58 79.5t-102.5 62.5t-146.5 29v-594l40 -10q192 -50 279 -136t87 -230q0 -158 -110 -252.5t-296 -104.5v-137z" />
    <glyph glyph-name="percent" unicode="%" horiz-adv-x="1445" 
d="M146 1083v-39q0 -120 52.5 -189t125.5 -69q72 0 124 69t52 189v39q0 118 -52 187.5t-124 69.5q-73 0 -125.5 -69.5t-52.5 -187.5zM93 1043v40q0 141 68.5 224t162.5 83q93 0 161 -83t68 -224v-40q0 -141 -68 -224t-161 -83q-94 0 -162.5 83t-68.5 224zM945 337v-39
q0 -120 52.5 -189t125.5 -69q72 0 124 69t52 189v39q0 118 -52 187.5t-124 69.5q-73 0 -125.5 -69.5t-52.5 -187.5zM892 297v40q0 141 68.5 224t162.5 83q93 0 161 -83t68 -224v-40q0 -141 -68 -224t-161 -83q-94 0 -162.5 83t-68.5 224zM241 0h-63l512 679l512 679h63
l-512 -679z" />
    <glyph glyph-name="ampersand" unicode="&#x26;" horiz-adv-x="1261" 
d="M1146 0l-173 186q-89 -103 -215 -158t-255 -55q-84 0 -160 24t-135.5 68.5t-94.5 114.5t-35 156q0 46 11 87t39 89t86.5 96.5t144.5 91.5l85 43q-113 114 -160.5 189.5t-47.5 159.5q0 129 93.5 203.5t223.5 74.5q137 0 221 -82.5t84 -200.5q0 -103 -77 -188t-245 -168
l432 -461q43 62 74.5 175t36.5 226q2 50 2 78h55q0 -30 -2 -84q-5 -123 -39.5 -242.5t-86.5 -190.5l219 -232h-81zM388 654q-250 -129 -250 -320q0 -129 102.5 -217.5t260.5 -88.5q118 0 236.5 52t195.5 145l-448 479zM496 769q169 81 235.5 155t66.5 160q0 99 -68 165
t-179 66q-108 0 -181.5 -63t-73.5 -163q0 -40 12 -77t42.5 -78.5t60 -74t85.5 -90.5z" />
    <glyph glyph-name="quotesingle" unicode="'" horiz-adv-x="349" 
d="M140 1358h69l-14 -412h-41z" />
    <glyph glyph-name="parenleft" unicode="(" horiz-adv-x="558" 
d="M412 1362h46q-28 -36 -54.5 -78.5t-62 -118.5t-61.5 -159t-44.5 -199.5t-18.5 -240.5q0 -457 241 -829h-51q-29 39 -58 86.5t-64.5 127t-62 166.5t-44.5 205.5t-18 243.5t18.5 240t43.5 194.5t63 156.5t65.5 118t61.5 87z" />
    <glyph glyph-name="parenright" unicode=")" horiz-adv-x="557" 
d="M100 1362h45q34 -46 61.5 -87t65.5 -118t63 -156.5t43.5 -194.5t18.5 -240t-18 -243.5t-44.5 -205.5t-62 -166.5t-64 -127t-57.5 -86.5h-51q241 377 241 829q0 124 -18.5 240.5t-44.5 199t-62 159t-62 118.5t-54 79z" />
    <glyph glyph-name="asterisk" unicode="*" horiz-adv-x="876" 
d="M463 676h-49l5 297l-262 -149l-24 42l269 140l-269 158l24 41l262 -168l-5 316h49l-6 -316l262 168l24 -41l-269 -158l269 -140l-24 -42l-262 149z" />
    <glyph glyph-name="plus" unicode="+" horiz-adv-x="1040" 
d="M547 529v-493h-54v493h-446v53h446v479h54v-479h447v-53h-447z" />
    <glyph glyph-name="comma" unicode="," horiz-adv-x="325" 
d="M122 -315h-51l78 403h69z" />
    <glyph glyph-name="hyphen" unicode="-" horiz-adv-x="755" 
d="M692 536h-630v52h630v-52z" />
    <glyph glyph-name="period" unicode="." horiz-adv-x="415" 
d="M140 53q0 28 19.5 48t47.5 20t48 -20t20 -48t-20 -47.5t-48 -19.5t-47.5 19.5t-19.5 47.5z" />
    <glyph glyph-name="slash" unicode="/" horiz-adv-x="607" 
d="M85 -317h-46l490 1752h48z" />
    <glyph glyph-name="zero" unicode="0" 
d="M173 737v-116q0 -289 95.5 -445t261.5 -156t261.5 156t95.5 445v116q0 289 -95.5 445t-261.5 156t-261.5 -156t-95.5 -445zM114 625v108q0 316 111 486.5t305 170.5t305 -170.5t111 -486.5v-108q0 -316 -111 -486.5t-305 -170.5t-305 170.5t-111 486.5z" />
    <glyph glyph-name="one" unicode="1" horiz-adv-x="746" 
d="M498 0h-57v1293h-4l-342 -224v58l346 229h57v-1356z" />
    <glyph glyph-name="two" unicode="2" 
d="M197 1029h-57v4q0 66 25 128t72 114t125 83.5t175 31.5q188 0 291 -102.5t103 -251.5q0 -60 -17 -117.5t-51.5 -111.5t-60 -87t-67.5 -81l-511 -586v-2h740v-51h-817v52l544 623q43 49 66.5 79.5t54 80t45 101t14.5 108.5q0 55 -21 106.5t-60.5 94t-105 68t-147.5 25.5
q-106 0 -185 -45t-116.5 -113t-38.5 -147v-4z" />
    <glyph glyph-name="three" unicode="3" horiz-adv-x="1089" 
d="M379 675v52h117q170 0 265 91t95 224q0 127 -90.5 211.5t-247.5 84.5q-87 0 -154.5 -30.5t-104.5 -78t-55 -97t-18 -95.5h-58q0 43 12 88t41.5 93.5t73 86t112.5 61.5t153 24q183 0 289.5 -97.5t106.5 -247.5q0 -75 -26.5 -138.5t-69.5 -105t-94.5 -66.5t-105.5 -30v-2
q69 -5 133 -30t116.5 -67.5t84 -108.5t31.5 -144q0 -112 -61.5 -200.5t-165 -136.5t-228.5 -48q-104 0 -188.5 32.5t-135 86t-77.5 118t-27 132.5h59q0 -58 24 -113.5t69 -101.5t117.5 -74t161.5 -28q167 0 280.5 94.5t113.5 235.5q0 146 -117.5 235.5t-295.5 89.5h-135z
" />
    <glyph glyph-name="four" unicode="4" horiz-adv-x="1090" 
d="M711 1358h84v-962h205v-51h-205v-345h-52v345h-661v51zM145 396h598v912h-4l-594 -908v-4z" />
    <glyph glyph-name="five" unicode="5" horiz-adv-x="1090" 
d="M120 325h59q1 -36 13.5 -74.5t41.5 -80.5t70 -75t104.5 -54t140.5 -21q163 0 272.5 116t109.5 280q0 169 -107 283t-277 114q-121 0 -213.5 -59.5t-126.5 -124.5h-59l95 729h653v-51h-607l-84 -611h2q11 21 38 47.5t69 55t105 48t132 19.5q194 0 316 -127.5t122 -322.5
q0 -187 -126 -317.5t-317 -130.5q-89 0 -162.5 24.5t-121 62.5t-81 86.5t-47.5 94.5t-14 89z" />
    <glyph glyph-name="six" unicode="6" horiz-adv-x="1060" 
d="M965 1035h-54q-6 53 -29 102t-61.5 90t-98 65.5t-130.5 24.5q-95 0 -174.5 -45t-140 -134t-94 -234.5t-33.5 -335.5h2q29 120 140.5 206t274.5 86q76 0 151.5 -31t137.5 -87t100.5 -143t38.5 -189q0 -197 -124.5 -319.5t-315.5 -122.5q-98 0 -179.5 34.5t-144.5 104.5
t-98 186t-35 268q0 171 25 307.5t69.5 229t107.5 154.5t136.5 89.5t159.5 27.5q152 0 252.5 -102t116.5 -232zM173 440q0 -183 107 -302t277 -119q166 0 273 109.5t107 274.5q0 90 -32.5 167t-85.5 128.5t-121 80.5t-139 29q-150 0 -268 -111t-118 -257z" />
    <glyph glyph-name="seven" unicode="7" horiz-adv-x="1040" 
d="M110 1358h805v-55l-594 -1303h-64l599 1302v4h-746v52z" />
    <glyph glyph-name="eight" unicode="8" horiz-adv-x="1100" 
d="M550 19q172 0 282.5 97t110.5 251q0 143 -109.5 236t-283.5 93t-283.5 -93t-109.5 -236q0 -154 110.5 -251t282.5 -97zM550 742q146 0 244 83t98 211q0 136 -96.5 219t-245.5 83t-245.5 -83t-96.5 -219q0 -128 98 -211t244 -83zM550 -32q-197 0 -324.5 110t-127.5 281
q0 81 31 149.5t80 110.5t100 67.5t99 31.5v7q-32 6 -66 20.5t-69 41.5t-62 61.5t-44.5 85t-17.5 107.5q0 154 111 251t290 97t290 -97t111 -251q0 -57 -17.5 -107.5t-44.5 -85t-62 -61.5t-69 -41.5t-66 -20.5v-7q48 -6 99 -31.5t100 -67.5t80 -110.5t31 -149.5
q0 -171 -127.5 -281t-324.5 -110z" />
    <glyph glyph-name="nine" unicode="9" horiz-adv-x="1060" 
d="M97 322h54q6 -50 27.5 -98.5t59.5 -93t102.5 -72t145.5 -27.5q100 0 173 38.5t126 125t79 232t26 353.5h-2q-14 -43 -34.5 -81.5t-53.5 -77t-73.5 -65.5t-98.5 -44t-126 -17q-114 0 -210.5 51t-157.5 155.5t-61 244.5q0 193 121.5 318.5t303.5 125.5q101 0 180.5 -36.5
t139.5 -113t92 -205t32 -303.5q0 -205 -30 -351t-90.5 -234t-144 -128t-196.5 -40q-87 0 -160 30.5t-119 81t-73 110t-32 121.5zM867 908q0 186 -99 308.5t-270 122.5q-159 0 -263 -114t-104 -280q0 -180 107.5 -289t271.5 -109q147 0 252 105.5t105 255.5z" />
    <glyph glyph-name="colon" unicode=":" horiz-adv-x="385" 
d="M125 817q0 28 19.5 48t47.5 20t48 -20t20 -48t-20 -47.5t-48 -19.5t-47.5 19.5t-19.5 47.5zM125 77q0 28 19.5 48t47.5 20t48 -20t20 -48t-20 -47.5t-48 -19.5t-47.5 19.5t-19.5 47.5z" />
    <glyph glyph-name="semicolon" unicode=";" horiz-adv-x="398" 
d="M107 817q0 28 19.5 48t47.5 20t48 -20t20 -48t-20 -47.5t-48 -19.5t-47.5 19.5t-19.5 47.5zM139 -271h-51l69 359h69z" />
    <glyph glyph-name="less" unicode="&#x3c;" horiz-adv-x="1040" 
d="M128 476v60l760 546v-62l-710 -506v-11l710 -470v-62z" />
    <glyph glyph-name="equal" unicode="=" horiz-adv-x="1040" 
d="M929 342h-820v52h820v-52zM929 699h-820v52h820v-52z" />
    <glyph glyph-name="greater" unicode="&#x3e;" horiz-adv-x="1040" 
d="M920 536v-60l-760 -505v62l710 470v11l-710 506v62z" />
    <glyph glyph-name="question" unicode="?" horiz-adv-x="859" 
d="M341 53q0 28 19.5 48t47.5 20t48 -20t20 -48t-20 -47.5t-48 -19.5t-47.5 19.5t-19.5 47.5zM60 1075q4 60 27 114t66 100t116.5 73.5t168.5 27.5q157 0 259 -84t102 -227q0 -103 -51.5 -179t-156.5 -154q-97 -73 -127 -132.5t-30 -134.5v-97h-57v102q0 90 37 156t147 149
q95 72 137 137t42 152q0 123 -88.5 191.5t-219.5 68.5q-69 0 -125 -19t-89.5 -47t-57.5 -65.5t-34 -69t-13 -62.5h-53z" />
    <glyph glyph-name="at" unicode="@" horiz-adv-x="1630" 
d="M1242 183q-86 0 -145.5 44.5t-68.5 118.5h-4q-4 -18 -16 -40.5t-36 -52.5t-69 -50t-102 -20q-111 0 -183.5 76.5t-72.5 227.5v100q0 134 66 214.5t189 80.5q58 0 102 -18.5t66.5 -46t33.5 -49.5t14 -39h4v137h48v-468q0 -50 17 -85.5t45 -53t56.5 -25t59.5 -7.5
q97 0 165.5 90t68.5 281v39q0 125 -43.5 236.5t-123 197.5t-202.5 136.5t-273 50.5h-7q-148 0 -271 -50t-210 -142.5t-135.5 -229t-48.5 -304.5v-31q0 -162 51.5 -292.5t142 -214.5t211 -128.5t260.5 -44.5h9q160 0 288 41v-46q-111 -41 -288 -41h-9q-156 0 -287.5 48
t-227 138.5t-149.5 227t-54 306.5v44q0 351 197.5 558.5t520.5 207.5h7q129 0 240.5 -36t193 -99t140.5 -146.5t88 -181t29 -201.5v-54q0 -197 -82.5 -300.5t-204.5 -103.5zM599 492q0 -131 58.5 -196t146.5 -65q38 0 73 12t67 37.5t51 72t19 107.5v135q0 97 -54 168.5
t-155 71.5q-96 0 -151 -68t-55 -184v-91z" />
    <glyph glyph-name="A" unicode="A" horiz-adv-x="1137" 
d="M110 0h-60l487 1358h63l487 -1358h-61l-166 470h-584zM571 1289h-5l-273 -769h549z" />
    <glyph glyph-name="B" unicode="B" horiz-adv-x="1205" 
d="M198 0v1358h420q189 0 295.5 -87.5t106.5 -243.5q0 -75 -25.5 -137t-64.5 -98.5t-77 -57.5t-73 -27v-4q60 -6 114 -27.5t100.5 -61t73.5 -104t27 -146.5q0 -167 -113.5 -265.5t-325.5 -98.5h-458zM255 1305v-581h378q87 0 159.5 31t120.5 99.5t48 165.5q0 137 -92.5 211
t-259.5 74h-354zM255 671v-618h398q182 0 282.5 83t100.5 227q0 152 -107.5 230t-271.5 78h-402z" />
    <glyph glyph-name="C" unicode="C" horiz-adv-x="1245" 
d="M199 814v-270q0 -83 15.5 -158t50.5 -142.5t86.5 -116.5t128 -78t171.5 -29q184 0 299 102.5t115 251.5h55v-4q0 -166 -129.5 -284t-339.5 -118q-108 0 -194.5 31t-144.5 85t-97 129.5t-56 160t-17 181.5v247q0 95 18 180.5t57.5 160.5t97 129.5t142 86t188.5 31.5
q110 0 201 -37t146.5 -96.5t85.5 -129t30 -139.5v-4h-55q0 60 -27 121t-76.5 113.5t-129.5 86t-175 33.5q-113 0 -201 -43.5t-140 -118t-78.5 -166.5t-26.5 -196z" />
    <glyph glyph-name="D" unicode="D" horiz-adv-x="1297" 
d="M198 1358h345q159 0 277.5 -48t191 -138t108 -213t35.5 -279q0 -158 -34.5 -280.5t-106 -213t-190.5 -138.5t-281 -48h-345v1358zM255 1305v-1252h290q144 0 250.5 44t172.5 127.5t98 197t32 258.5q0 143 -32.5 256.5t-98.5 196.5t-173 127.5t-249 44.5h-290z" />
    <glyph glyph-name="E" unicode="E" horiz-adv-x="1067" 
d="M963 53v-53h-765v1358h765v-53h-708v-582h674v-53h-674v-617h708z" />
    <glyph glyph-name="F" unicode="F" horiz-adv-x="998" 
d="M255 0h-57v1358h755v-53h-698v-591h640v-53h-640v-661z" />
    <glyph glyph-name="G" unicode="G" horiz-adv-x="1261" 
d="M1114 1025h-53q0 39 -14.5 80.5t-46.5 83.5t-78 75t-116.5 53.5t-153.5 20.5q-208 0 -330.5 -145t-122.5 -385v-241q0 -159 48 -280t152 -194t253 -73q190 0 302 96.5t112 271.5v202h-421v52h474v-254q0 -202 -128 -311t-339 -109q-129 0 -228 46.5t-160 128.5t-91.5 189
t-30.5 235v241q0 264 136.5 423t374.5 159q113 0 203.5 -32.5t145 -86t83.5 -117t29 -129.5z" />
    <glyph glyph-name="H" unicode="H" horiz-adv-x="1326" 
d="M1128 0h-57v689h-816v-689h-57v1358h57v-617h816v617h57v-1358z" />
    <glyph glyph-name="I" unicode="I" horiz-adv-x="493" 
d="M275 0h-57v1358h57v-1358z" />
    <glyph glyph-name="J" unicode="J" horiz-adv-x="893" 
d="M41 293h57q0 -41 13.5 -82.5t43 -82.5t87 -67t135.5 -26q128 0 206.5 80t78.5 236v1007h57v-1008q0 -182 -93 -274.5t-251 -92.5q-75 0 -134.5 21t-96 53.5t-60.5 75t-33.5 82t-9.5 78.5z" />
    <glyph glyph-name="K" unicode="K" horiz-adv-x="1089" 
d="M1037 1358l-573 -612l607 -746h-74l-574 709l-168 -177v-532h-57v1358h57v-749h1l706 749h75z" />
    <glyph glyph-name="L" unicode="L" horiz-adv-x="1022" 
d="M952 52v-52h-754v1358h57v-1306h697z" />
    <glyph glyph-name="M" unicode="M" horiz-adv-x="1574" 
d="M251 0h-53v1358h58l529 -1185h4l530 1185h57v-1358h-53v1232h-4l-504 -1127h-56l-504 1127h-4v-1232z" />
    <glyph glyph-name="N" unicode="N" horiz-adv-x="1326" 
d="M255 0h-57v1358h60l809 -1256h4v1256h57v-1358h-60l-809 1256h-4v-1256z" />
    <glyph glyph-name="O" unicode="O" horiz-adv-x="1310" 
d="M198 815v-272q0 -234 122 -378.5t335 -144.5t335 144.5t122 378.5v272q0 233 -122.5 378t-334.5 145t-334.5 -145t-122.5 -378zM142 551v256q0 267 135 425t378 158t378 -159t135 -426v-254q0 -267 -135 -425t-378 -158t-378 158t-135 425z" />
    <glyph glyph-name="P" unicode="P" horiz-adv-x="1121" 
d="M198 1358h422q203 0 312 -105t109 -290q0 -184 -109 -288t-312 -104h-365v-571h-57v1358zM255 1305v-682h363q173 0 269 90t96 250q0 162 -95.5 252t-269.5 90h-363z" />
    <glyph glyph-name="Q" unicode="Q" horiz-adv-x="1310" 
d="M142 564v242q0 267 134.5 425.5t378.5 158.5t378.5 -158.5t134.5 -425.5v-242q0 -165 -53 -291.5t-154 -200.5l179 -244h-64l-159 215q-111 -63 -262 -63q-244 0 -378.5 158.5t-134.5 425.5zM198 815v-260q0 -234 121.5 -378.5t335.5 -144.5q129 0 229 56l-182 247h69
l157 -218q89 68 136.5 181.5t47.5 256.5v260q0 233 -122.5 378t-334.5 145t-334.5 -145t-122.5 -378z" />
    <glyph glyph-name="R" unicode="R" horiz-adv-x="1181" 
d="M632 1358q185 0 295 -102t110 -273q0 -150 -81.5 -242.5t-218.5 -121.5l322 -619h-66l-318 608h-420v-608h-57v1358h434zM255 659h368q162 0 259 87.5t97 236.5q0 150 -96 237t-260 87h-368v-648z" />
    <glyph glyph-name="S" unicode="S" horiz-adv-x="1140" 
d="M112 338h59q1 -39 13 -79.5t42 -84t74 -77t115.5 -55t159.5 -21.5q176 0 286 88.5t110 224.5q0 68 -21.5 118t-69 86t-106.5 61t-149 49l-157 42q-153 41 -231.5 122.5t-78.5 219.5q0 161 114.5 259.5t311.5 98.5q101 0 182 -27.5t131.5 -74.5t77 -105t26.5 -123h-59
q-1 38 -13 75.5t-40 74t-68 64.5t-101.5 45.5t-135.5 17.5q-171 0 -268.5 -84t-97.5 -222q0 -121 69.5 -186.5t216.5 -105.5l150 -41q98 -27 162.5 -54.5t115.5 -69t74.5 -99.5t23.5 -138q0 -168 -127 -268.5t-333 -100.5q-98 0 -178.5 24.5t-131 63t-85 89t-49 98.5
t-14.5 95z" />
    <glyph glyph-name="T" unicode="T" horiz-adv-x="1021" 
d="M540 0h-57v1305h-471v53h997v-53h-469v-1305z" />
    <glyph glyph-name="U" unicode="U" horiz-adv-x="1305" 
d="M231 1358v-891q0 -205 109.5 -324.5t311.5 -119.5q204 0 312.5 118.5t108.5 325.5v891h58v-891q0 -230 -126 -364.5t-353 -134.5t-352.5 134.5t-125.5 364.5v891h57z" />
    <glyph glyph-name="V" unicode="V" horiz-adv-x="1155" 
d="M606 0h-68l-493 1358h61l466 -1291h4l473 1291h60z" />
    <glyph glyph-name="W" unicode="W" horiz-adv-x="1675" 
d="M466 0h-69l-356 1358h61l329 -1281h4l372 1281h61l372 -1281h4l329 1281h61l-356 -1358h-69l-369 1269h-5z" />
    <glyph glyph-name="X" unicode="X" horiz-adv-x="1125" 
d="M1070 1358l-473 -681l470 -677h-68l-435 631h-4l-435 -631h-67l470 677l-472 681h68l437 -633h4l438 633h67z" />
    <glyph glyph-name="Y" unicode="Y" horiz-adv-x="1054" 
d="M556 0h-56v610l-475 748h68l432 -686h6l433 686h65l-473 -746v-612z" />
    <glyph glyph-name="Z" unicode="Z" horiz-adv-x="1155" 
d="M100 0v49l885 1254v4h-858v51h928v-49l-886 -1254v-5h886v-50h-955z" />
    <glyph glyph-name="bracketleft" unicode="[" horiz-adv-x="562" 
d="M160 1358h319v-44h-266v-1491h279v-44h-332v1579z" />
    <glyph glyph-name="backslash" unicode="\" horiz-adv-x="607" 
d="M568 -317h-46l-492 1752h48z" />
    <glyph glyph-name="bracketright" unicode="]" horiz-adv-x="562" 
d="M83 1358h319v-1579h-332v44h279v1491h-266v44z" />
    <glyph glyph-name="asciicircum" unicode="^" horiz-adv-x="753" 
d="M656 794h-56l-222 503h-4l-222 -503h-55l251 570h56z" />
    <glyph glyph-name="underscore" unicode="_" horiz-adv-x="854" 
d="M875 -182h-896v52h896v-52z" />
    <glyph glyph-name="grave" unicode="`" horiz-adv-x="760" 
d="M494 1209h-46l-265 301h66z" />
    <glyph glyph-name="a" unicode="a" horiz-adv-x="1003" 
d="M778 178q-8 -26 -31 -56.5t-62 -63.5t-103 -54.5t-139 -21.5q-152 0 -244.5 82t-92.5 223q0 130 89.5 207t257.5 77h329v159q0 133 -78 199t-212 66q-70 0 -125 -18t-87 -46.5t-49.5 -58.5t-21.5 -60h-56q7 94 96.5 165t246.5 71q158 0 250 -79t92 -224v-745h-56v178h-4z
M444 35q140 0 239 87t99 225v171h-329q-143 0 -214.5 -62t-71.5 -168q0 -115 76.5 -184t200.5 -69z" />
    <glyph glyph-name="b" unicode="b" horiz-adv-x="1094" 
d="M580 -18q-80 0 -145 24t-104.5 62t-62.5 74t-34 71h-4v-213h-56v1435h56v-621h4q5 21 17.5 46.5t40.5 60t65 62t96.5 46.5t128.5 19q170 0 279.5 -117.5t109.5 -312.5v-204q0 -106 -32.5 -190.5t-88 -136t-124.5 -78.5t-146 -27zM580 35q65 0 123.5 23.5t106.5 70t76 124
t28 176.5v177q0 181 -95.5 285t-238.5 104q-82 0 -150 -32.5t-111 -86.5t-66 -123t-23 -143v-185q0 -168 96.5 -279t253.5 -111z" />
    <glyph glyph-name="c" unicode="c" horiz-adv-x="1018" 
d="M125 436v166q0 212 111.5 329t288.5 117q89 0 162 -28t118.5 -74.5t71.5 -101t29 -111.5h-54q-15 108 -100.5 185t-226.5 77q-154 0 -249 -106.5t-95 -300.5v-142q0 -200 94 -305.5t259 -105.5q76 0 136 21.5t96.5 58t57.5 77.5t29 87h53q-5 -53 -28.5 -103t-66 -95
t-115.5 -72t-167 -27q-186 0 -295 116.5t-109 337.5z" />
    <glyph glyph-name="d" unicode="d" horiz-adv-x="1094" 
d="M513 1048q80 0 145 -24t104.5 -62t62.5 -74t34 -71h4v618h56v-1435h-56v216h-4q-5 -21 -17.5 -46.5t-40.5 -60t-65 -62t-96.5 -46.5t-128.5 -19q-170 0 -279.5 117.5t-109.5 312.5v204q0 106 32.5 190.5t88 136t124.5 78.5t146 27zM513 995q-65 0 -123.5 -23.5
t-106.5 -70t-76 -124t-28 -176.5v-177q0 -181 95.5 -285t238.5 -104q66 0 123 21.5t98.5 58.5t70.5 86t43.5 105.5t14.5 115.5v181q0 168 -96.5 280t-253.5 112z" />
    <glyph glyph-name="e" unicode="e" horiz-adv-x="1042" 
d="M533 -18q-191 0 -298.5 123t-107.5 348v107q0 238 107 363t288 125t288 -125t107 -363v-42h-734v-61q0 -203 94 -312.5t257 -109.5q74 0 134 21t96.5 54t57 70.5t24.5 74.5h56q-4 -45 -27.5 -90.5t-66 -87.5t-114.5 -68.5t-161 -26.5zM183 569h678v4q0 200 -92 311
t-247 111t-247 -111t-92 -311v-4z" />
    <glyph glyph-name="f" unicode="f" horiz-adv-x="616" 
d="M220 0v980h-183v50h183v139q0 137 62 196t196 59q65 0 113 -11v-48q-42 8 -117 8q-104 0 -151 -43.5t-47 -150.5v-149h305v-50h-305v-980h-56z" />
    <glyph glyph-name="g" unicode="g" horiz-adv-x="1090" 
d="M527 -298q157 0 247 78.5t90 204.5v287h-4q-5 -21 -17.5 -46.5t-40.5 -60t-65 -62t-95.5 -46.5t-127.5 -19q-171 0 -281 117.5t-110 312.5v148q0 106 32.5 190.5t88.5 136t125.5 78.5t146.5 27q79 0 143.5 -24t104 -62t62.5 -74t34 -71h4v213h56v-1043
q0 -151 -105.5 -244.5t-288.5 -93.5q-91 0 -164 25t-116 65t-65.5 86t-24.5 93h57q6 -82 88 -149t226 -67zM516 995q-66 0 -124.5 -23.5t-106.5 -70t-76.5 -124t-28.5 -176.5v-121q0 -181 96 -285t240 -104q108 0 189 56t120 142t39 187v129q0 167 -96 278.5t-252 111.5z
" />
    <glyph glyph-name="h" unicode="h" horiz-adv-x="1100" 
d="M174 0v1435h56v-615h4q27 93 116 160.5t228 67.5q157 0 256 -98t99 -271v-679h-56v673q0 140 -80.5 231t-220.5 91q-109 0 -189.5 -54t-118.5 -136t-38 -178v-627h-56z" />
    <glyph glyph-name="i" unicode="i" horiz-adv-x="437" 
d="M190 0v1030h56v-1030h-56zM158 1329q0 26 17.5 43.5t42.5 17.5q26 0 43.5 -18t17.5 -43t-17.5 -42.5t-43.5 -17.5t-43 17.5t-17 42.5z" />
    <glyph glyph-name="j" unicode="j" horiz-adv-x="437" 
d="M158 1329q0 26 17.5 43.5t42.5 17.5q26 0 43.5 -18t17.5 -43t-17.5 -42.5t-43.5 -17.5t-43 17.5t-17 42.5zM246 1030v-1110q0 -132 -50 -189.5t-154 -57.5q-42 0 -68 7v53q33 -7 65 -7q80 0 115.5 42.5t35.5 147.5v1114h56z" />
    <glyph glyph-name="k" unicode="k" horiz-adv-x="993" 
d="M230 433v-433h-56v1435h56v-931h4l590 545h76l-470 -437l485 -612h-73l-455 574z" />
    <glyph glyph-name="l" unicode="l" horiz-adv-x="436" 
d="M190 0v1435h56v-1435h-56z" />
    <glyph glyph-name="m" unicode="m" horiz-adv-x="1645" 
d="M170 0v1030h56v-184h4q8 32 28 64.5t53.5 65t88.5 52.5t123 20q130 0 209 -65.5t100 -160.5h4q6 32 27 68t57 73t96 61t133 24q146 0 237.5 -88.5t91.5 -253.5v-706h-56v691q0 150 -75.5 227t-198.5 77q-94 0 -163 -47t-101 -117.5t-32 -151.5v-679h-56v687
q0 147 -73.5 227.5t-200.5 80.5q-142 0 -219 -96.5t-77 -240.5v-658h-56z" />
    <glyph glyph-name="n" unicode="n" horiz-adv-x="1085" 
d="M170 0v1030h56v-210h4q27 93 115 160.5t227 67.5q157 0 255 -97.5t98 -271.5v-679h-56v673q0 140 -79.5 231t-219.5 91q-109 0 -189 -54t-117.5 -136t-37.5 -178v-627h-56z" />
    <glyph glyph-name="o" unicode="o" 
d="M539 1048q178 0 297 -120.5t119 -333.5v-163q0 -109 -32.5 -195.5t-89.5 -141.5t-132 -83.5t-162 -28.5t-162 29t-131.5 84t-88.5 141t-32 195v163q0 217 116 335.5t298 118.5zM539 995q-158 0 -258 -106.5t-100 -303.5v-145q0 -196 99.5 -300.5t259.5 -104.5
q158 0 258 104t100 301v145q0 195 -101 302.5t-258 107.5z" />
    <glyph glyph-name="p" unicode="p" horiz-adv-x="1090" 
d="M576 -18q-80 0 -145 24t-104.5 62t-62.5 74t-34 71h-4v-539h-56v1356h56v-216h4q5 21 17.5 46.5t40.5 60t65 62t96.5 46.5t128.5 19q170 0 279.5 -117.5t109.5 -312.5v-204q0 -106 -32.5 -190.5t-88 -136t-124.5 -78.5t-146 -27zM576 35q65 0 123.5 23.5t106.5 70t76 124
t28 176.5v177q0 181 -95.5 285t-238.5 104q-66 0 -123 -21.5t-98.5 -58.5t-70.5 -86t-43.5 -105.5t-14.5 -115.5v-181q0 -168 96.5 -280t253.5 -112z" />
    <glyph glyph-name="q" unicode="q" horiz-adv-x="1070" 
d="M513 1048q80 0 145 -24t104.5 -62t62.5 -74t34 -71h4v213h56v-1356h-56v542h-4q-5 -21 -17.5 -46.5t-40.5 -60t-65 -62t-96.5 -46.5t-128.5 -19q-170 0 -279.5 117.5t-109.5 312.5v204q0 106 32.5 190.5t88 136t124.5 78.5t146 27zM513 995q-65 0 -123.5 -23.5
t-106.5 -70t-76 -124t-28 -176.5v-177q0 -181 95.5 -285t238.5 -104q82 0 150 32.5t111 86.5t66 123t23 143v185q0 168 -96.5 279t-253.5 111z" />
    <glyph glyph-name="r" unicode="r" horiz-adv-x="660" 
d="M170 0v1030h56v-213h4q7 39 29 77.5t58 73.5t94 56.5t127 21.5q48 0 92 -8v-56q-37 11 -96 11q-60 0 -114 -21.5t-98 -63.5t-70 -113.5t-26 -163.5v-631h-56z" />
    <glyph glyph-name="s" unicode="s" horiz-adv-x="950" 
d="M137 779q0 126 93 197.5t243 71.5q75 0 136 -18t98.5 -46.5t63 -65t35.5 -70.5t10 -66h-56q0 24 -8.5 51t-29.5 56.5t-52 52.5t-82 38t-114 15q-119 0 -198.5 -55.5t-79.5 -157.5q0 -91 67 -141.5t217 -90.5q164 -44 226 -76q119 -62 129 -181q1 -12 1 -24
q0 -95 -53 -161.5t-134.5 -96t-181.5 -29.5q-81 0 -147 18.5t-106.5 47.5t-67.5 67t-38 74.5t-11 71.5h56q0 -27 9 -55.5t32 -59.5t57 -55t90 -40t126 -16q61 0 115.5 13.5t98.5 40.5t70 72t26 103q0 28 -6.5 52t-21.5 43t-29.5 34t-42 29t-46 22.5t-53.5 19.5t-54 16
t-58 15q-82 21 -138.5 43.5t-102 55.5t-67 78.5t-21.5 106.5z" />
    <glyph glyph-name="t" unicode="t" horiz-adv-x="671" 
d="M230 1030v248h56v-248h300v-50h-300v-766q0 -92 47 -128.5t151 -36.5q70 0 117 7v-48q-53 -8 -113 -8q-143 0 -200.5 49t-57.5 180v751h-211v50h211z" />
    <glyph glyph-name="u" unicode="u" horiz-adv-x="1085" 
d="M915 1030v-1030h-56v211h-4q-14 -41 -40.5 -79t-67.5 -73t-103 -56t-136 -21q-153 0 -250.5 89.5t-97.5 259.5v699h56v-693q0 -136 79.5 -219t214.5 -83q83 0 151 33t110.5 88.5t65 123t22.5 140.5v610h56z" />
    <glyph glyph-name="v" unicode="v" horiz-adv-x="907" 
d="M424 0l-384 1030h62l350 -956h5l350 956h60l-384 -1030h-59z" />
    <glyph glyph-name="w" unicode="w" horiz-adv-x="1386" 
d="M1346 1030l-285 -1030h-59l-307 951h-4l-307 -951h-59l-285 1030h62l251 -945h5l305 945h60l305 -945h5l251 945h62z" />
    <glyph glyph-name="x" unicode="x" horiz-adv-x="956" 
d="M809 0l-330 472h-4l-332 -472h-64l365 520l-355 510h67l321 -460h4l323 460h64l-356 -508l364 -522h-67z" />
    <glyph glyph-name="y" unicode="y" horiz-adv-x="887" 
d="M857 1030l-371 -1028l-49 -129q-41 -108 -96.5 -154t-154.5 -46q-50 0 -93 10v53q48 -10 92 -10q76 0 122 40t74 115l40 107l-386 1042h62l351 -972h4l345 972h60z" />
    <glyph glyph-name="z" unicode="z" horiz-adv-x="970" 
d="M135 0v46l640 930v4h-640v50h710v-50l-639 -926v-4h639v-50h-710z" />
    <glyph glyph-name="braceleft" unicode="{" horiz-adv-x="669" 
d="M164 608v-18q82 -8 119 -58.5t37 -154.5v-393q0 -213 241 -213h68v-53h-31q-88 0 -147 13t-103 45.5t-64.5 90.5t-20.5 146v332q0 111 -32.5 157.5t-130.5 46.5v98q98 0 130.5 47.5t32.5 159.5v276q0 87 20.5 143.5t65 87.5t103 43t146.5 12h31v-52h-68q-123 0 -182 -51
t-59 -162v-329q0 -104 -37 -155t-119 -59z" />
    <glyph glyph-name="bar" unicode="|" horiz-adv-x="343" 
d="M195 -308h-47v1743h47v-1743z" />
    <glyph glyph-name="braceright" unicode="}" horiz-adv-x="669" 
d="M505 590v18q-82 8 -119 59t-37 155v329q0 111 -59 162t-182 51h-68v52h31q88 0 146.5 -12t103 -43t65 -87.5t20.5 -143.5v-276q0 -111 33 -159t130 -48v-98q-97 0 -130 -46.5t-33 -157.5v-332q0 -88 -20.5 -146t-64.5 -90.5t-103 -45.5t-147 -13h-31v53h68q241 0 241 213
v393q0 104 37 154.5t119 58.5z" />
    <glyph glyph-name="asciitilde" unicode="~" horiz-adv-x="1127" 
d="M762 524q-61 0 -108 30t-136 111q-33 30 -52.5 46t-53 31t-67.5 15q-71 0 -114 -58t-44 -161h-54q0 121 59.5 196.5t156.5 75.5q41 0 80.5 -18t66.5 -39t81 -70q37 -34 59.5 -52t61 -36t74.5 -18q43 0 77 22t54 57.5t30.5 75t12.5 79.5h55q0 -47 -14.5 -95t-42 -92
t-75 -72t-107.5 -28z" />
    <glyph glyph-name="nonbreakingspace" unicode="&#xa0;" horiz-adv-x="425" 
 />
    <glyph glyph-name="exclamdown" unicode="&#xa1;" horiz-adv-x="480" 
d="M268 -334h-57l4 995h48zM306 971q0 -28 -19.5 -48t-47.5 -20t-48 20t-20 48t20 47.5t48 19.5t47.5 -19.5t19.5 -47.5z" />
    <glyph glyph-name="cent" unicode="&#xa2;" horiz-adv-x="1040" 
d="M906 441q-5 -50 -27.5 -98.5t-62 -92.5t-106.5 -72.5t-151 -32.5v-237h-57v237q-175 10 -276 126t-101 327v166q0 204 104 320t273 125v242h57v-242q81 -4 147.5 -34.5t108 -76t65 -98t26.5 -105.5h-53q-15 107 -99.5 184.5t-222.5 77.5q-157 0 -253.5 -106.5
t-96.5 -300.5v-142q0 -200 95.5 -305.5t263.5 -105.5q75 0 134 22t94.5 59t56 77.5t29.5 85.5h52z" />
    <glyph glyph-name="sterling" unicode="&#xa3;" horiz-adv-x="1040" 
d="M946 54v-54h-874v56q36 0 62.5 3t61.5 18.5t57 42.5t38 79t16 125v354h-258v54h258v347q0 151 84 231t236 80q148 0 237 -82.5t94 -190.5h-58q-2 38 -19.5 75.5t-49 70t-84 52.5t-116.5 20q-133 0 -200 -67t-67 -195v-341h339v-54h-339v-361q0 -210 -102 -253v-10h684z
" />
    <glyph glyph-name="currency" unicode="&#xa4;" horiz-adv-x="1040" 
d="M923 217l-191 191q-91 -78 -212 -78q-120 0 -211 78l-191 -191l-38 37l192 191q-76 88 -76 212q0 123 76 211l-192 191l38 37l191 -191q91 78 211 78q121 0 212 -78l191 191l37 -37l-191 -191q76 -88 76 -211q0 -124 -76 -212l191 -191zM250 657q0 -114 78.5 -193.5
t191.5 -79.5t191.5 79.5t78.5 193.5q0 113 -78.5 193t-191.5 80t-191.5 -80t-78.5 -193z" />
    <glyph glyph-name="yen" unicode="&#xa5;" horiz-adv-x="1040" 
d="M809 345h-263v-345h-56v345h-264v53h264v197h-264v53h240l-451 710h68l432 -686h6l433 686h65l-450 -710h240v-53h-263v-197h263v-53z" />
    <glyph glyph-name="brokenbar" unicode="&#xa6;" horiz-adv-x="365" 
d="M218 783h-57v654h57v-654zM218 -309h-57v685h57v-685z" />
    <glyph glyph-name="section" unicode="&#xa7;" horiz-adv-x="1040" 
d="M846 53q0 101 -78.5 155t-259.5 97q-61 15 -100 26t-85 28t-73.5 37t-52.5 47.5t-36 64.5t-11 83q0 55 20.5 102t53.5 78t65 50.5t63 29.5v4q-29 15 -47 25.5t-45.5 33t-43 47t-27.5 63.5t-12 85q0 123 94.5 202t243.5 79q153 0 245 -78.5t92 -215.5h-57q0 79 -42.5 135
t-103 80t-131.5 24q-135 0 -209 -66t-74 -158q0 -107 76.5 -163.5t239.5 -101.5q67 -18 106.5 -31t88.5 -37t75.5 -50.5t45 -68.5t18.5 -95q0 -90 -50 -158.5t-114 -105.5v-4q32 -11 60 -27.5t57.5 -43.5t47 -68t17.5 -92q0 -134 -105.5 -226t-276.5 -92q-180 0 -278 83.5
t-98 223.5h51q2 -113 89 -183.5t239 -70.5q144 0 233 76t89 177zM667 318q26 14 50 33t50.5 49t43 72.5t16.5 90.5q0 63 -44 117.5t-150 85.5l-214 62q-74 -13 -143 -78t-69 -155q0 -89 58 -137.5t189 -83.5z" />
    <glyph glyph-name="dieresis" unicode="&#xa8;" horiz-adv-x="760" 
d="M180 1308q0 24 18 42t42 18q25 0 43.5 -18t18.5 -42q0 -26 -18 -44t-44 -18q-24 0 -42 18.5t-18 43.5zM455 1308q0 24 18 42t42 18q25 0 43.5 -18t18.5 -42q0 -26 -18.5 -44t-43.5 -18q-24 0 -42 18.5t-18 43.5z" />
    <glyph glyph-name="copyright" unicode="&#xa9;" horiz-adv-x="1653" 
d="M538 638v100q0 153 79.5 232t219.5 79q118 0 186 -58.5t79 -130.5h-64q-12 53 -62 93t-139 40q-239 0 -239 -260v-97q0 -125 63 -190.5t176 -65.5q91 0 142.5 33.5t62.5 87.5h65q-14 -73 -85.5 -125t-184.5 -52q-141 0 -220 79t-79 235zM185 635q0 -182 80.5 -328
t229 -230t337.5 -84t338 84t229.5 230t80.5 328v110q0 125 -48 239t-132 198.5t-206 134.5t-262 50t-261.5 -49.5t-205.5 -134t-132 -198.5t-48 -240v-110zM832 -57q-155 0 -287 53t-223 145.5t-142 221t-51 276.5v106q0 139 52.5 263t144.5 214t223.5 142.5t282.5 52.5
q152 0 284 -53t223.5 -144t144 -214.5t52.5 -260.5v-106q0 -198 -87 -356.5t-248 -249t-369 -90.5z" />
    <glyph glyph-name="ordfeminine" unicode="&#xaa;" horiz-adv-x="604" 
d="M276 781q-79 0 -126.5 43t-47.5 116q0 72 48 111.5t136 39.5h156v69q0 61 -36 91t-99 30q-60 0 -92 -23.5t-38 -55.5h-53q5 58 54.5 93t131.5 35q85 0 136 -41.5t51 -124.5v-374h-53v82h-3q-17 -35 -58.5 -63t-106.5 -28zM286 829q66 0 111 40t45 101v75h-156
q-64 0 -97 -28t-33 -75q0 -53 37 -83t93 -30z" />
    <glyph glyph-name="guillemotleft" unicode="&#xab;" horiz-adv-x="1165" 
d="M513 565l374 404h72l-368 -403v-6l368 -405h-81l-365 402v8zM128 565l374 404h72l-368 -403v-6l368 -405h-81l-365 402v8z" />
    <glyph glyph-name="logicalnot" unicode="&#xac;" horiz-adv-x="1040" 
d="M902 174h-57v349h-722v54h779v-403z" />
    <glyph glyph-name="registered" unicode="&#xae;" horiz-adv-x="1171" 
d="M589 419q-210 0 -343 132t-133 336v45q0 193 134.5 323t341.5 130q206 0 340.5 -130.5t134.5 -322.5v-45q0 -204 -132 -336t-343 -132zM588 467q188 0 306.5 117t118.5 298v56q0 170 -119 285t-306 115q-184 0 -303.5 -116t-119.5 -284v-56q0 -182 117 -298.5t306 -116.5
zM469 1131v-223h137q57 0 90.5 29.5t33.5 81.5t-33 82t-91 30h-137zM469 645h-49v532h190q77 0 123.5 -43.5t46.5 -114.5q0 -116 -110 -149q12 -20 26 -45t43.5 -77.5t57.5 -102.5h-55l-122 216h-151v-216z" />
    <glyph glyph-name="macron" unicode="&#xaf;" horiz-adv-x="760" 
d="M665 1309h-558v44h558v-44z" />
    <glyph glyph-name="degree" unicode="&#xb0;" horiz-adv-x="457" 
d="M226 1013q-74 0 -125 51.5t-51 124.5q0 72 51.5 123.5t124.5 51.5q72 0 123.5 -51.5t51.5 -123.5q0 -73 -51.5 -124.5t-123.5 -51.5zM226 1062q53 0 90.5 37.5t37.5 89.5q0 53 -37.5 90.5t-90.5 37.5q-51 0 -89 -37.5t-38 -90.5q0 -52 38 -89.5t89 -37.5z" />
    <glyph glyph-name="plusminus" unicode="&#xb1;" horiz-adv-x="1088" 
d="M570 700v-334h-53v334h-411v57h411v313h53v-313h411v-57h-411zM982 159h-876v57h876v-57z" />
    <glyph glyph-name="twosuperior" unicode="&#xb2;" horiz-adv-x="650" 
d="M165 1210h-53v2q0 73 51 125.5t147 52.5q92 0 146 -49.5t54 -123.5q0 -47 -24.5 -89.5t-80.5 -101.5l-219 -231v-4h336v-45h-412v36l262 278q40 42 61.5 77.5t21.5 78.5q0 55 -39.5 91.5t-107.5 36.5q-69 0 -106 -38.5t-37 -93.5v-2z" />
    <glyph glyph-name="threesuperior" unicode="&#xb3;" horiz-adv-x="616" 
d="M222 1051v44h62q69 0 110 36.5t41 92.5q0 53 -39.5 87t-105.5 34q-65 0 -103.5 -31.5t-40.5 -71.5h-50q1 58 53.5 103t141.5 45q90 0 144 -46.5t54 -113.5q0 -61 -42 -103.5t-92 -49.5v-3q62 -5 109.5 -45t47.5 -111q0 -80 -62 -131t-161 -51q-92 0 -148 44t-58 109h50
q2 -46 46.5 -77.5t113.5 -31.5q75 0 121 38t46 98q0 61 -47.5 98t-121.5 37h-69z" />
    <glyph glyph-name="acute" unicode="&#xb4;" horiz-adv-x="760" 
d="M295 1209h-46l246 301h65z" />
    <glyph glyph-name="paragraph" unicode="&#xb6;" horiz-adv-x="1141" 
d="M689 -210h-57v747h-20q-49 0 -103.5 12t-114.5 42.5t-107 75.5t-78 118.5t-31 163.5q0 98 31 174.5t77.5 121t108 73t114 38t104.5 9.5h76v-1575zM867 -210v1575h57v-1575h-57z" />
    <glyph glyph-name="periodcentered" unicode="&#xb7;" horiz-adv-x="415" 
d="M140 674q0 28 19.5 48t47.5 20t48 -20t20 -48t-20 -47.5t-48 -19.5t-47.5 19.5t-19.5 47.5z" />
    <glyph glyph-name="cedilla" unicode="&#xb8;" horiz-adv-x="760" 
d="M293 -186v39l66 147h52l-60 -139q84 0 144 -37t60 -115q0 -81 -68 -123.5t-158 -42.5q-70 0 -116 16v50q46 -16 122 -16q65 0 113 28.5t48 83.5q0 109 -153 109h-50z" />
    <glyph glyph-name="onesuperior" unicode="&#xb9;" horiz-adv-x="498" 
d="M333 746h-53v555h-3l-166 -108v52l169 113h53v-612z" />
    <glyph glyph-name="ordmasculine" unicode="&#xba;" horiz-adv-x="588" 
d="M294 1282q-75 0 -121.5 -51t-46.5 -141v-70q0 -90 46 -140t122 -50q75 0 121 50t46 140v70q0 89 -46.5 140.5t-120.5 51.5zM294 1330q96 0 158.5 -62t62.5 -171v-84q0 -110 -62 -171t-159 -61q-98 0 -160 61t-62 171v84q0 109 62.5 171t159.5 62z" />
    <glyph glyph-name="guillemotright" unicode="&#xbb;" horiz-adv-x="1152" 
d="M969 565v-8l-365 -402h-81l368 405v6l-368 403h72zM584 565v-8l-365 -402h-81l368 405v6l-368 403h72z" />
    <glyph glyph-name="onequarter" unicode="&#xbc;" horiz-adv-x="1377" 
d="M799 193h277v406h-3q-34 -47 -141 -204t-133 -198v-4zM1046 644h81v-451h97v-45h-97v-148h-51v148h-334v46q19 32 79 121t142 208t83 121zM222 746h-53v555h-3l-166 -108v52l169 113h53v-612zM124 0h-63l512 679l512 679h63l-512 -679z" />
    <glyph glyph-name="onehalf" unicode="&#xbd;" horiz-adv-x="1431" 
d="M222 746h-53v555h-3l-166 -108v52l169 113h53v-612zM124 0h-63l512 679l512 679h63l-512 -679zM919 464h-53v2q0 73 51 125.5t147 52.5q92 0 146 -49.5t54 -123.5q0 -47 -24.5 -89.5t-80.5 -101.5l-219 -231v-4h336v-45h-412v36l262 278q40 42 61.5 77.5t21.5 78.5
q0 55 -39.5 91.5t-107.5 36.5q-69 0 -106 -38.5t-37 -93.5v-2z" />
    <glyph glyph-name="threequarters" unicode="&#xbe;" horiz-adv-x="1343" 
d="M914 193h277v406h-3q-34 -47 -141 -204t-133 -198v-4zM1161 644h81v-451h97v-45h-97v-148h-51v148h-334v46q19 32 79 121t142 208t83 121zM119 1051v44h62q69 0 110 36.5t41 92.5q0 53 -39.5 87t-105.5 34q-65 0 -103.5 -31.5t-40.5 -71.5h-50q1 58 53.5 103t141.5 45
q90 0 144 -46.5t54 -113.5q0 -61 -42 -103.5t-92 -49.5v-3q62 -5 109.5 -45t47.5 -111q0 -80 -62 -131t-161 -51q-92 0 -148 44t-58 109h50q2 -46 46.5 -77.5t113.5 -31.5q75 0 121 38t46 98q0 61 -47.5 98t-121.5 37h-69zM184 0h-63l512 679l512 679h63l-512 -679z" />
    <glyph glyph-name="questiondown" unicode="&#xbf;" horiz-adv-x="859" 
d="M518 971q0 -28 -19.5 -48t-47.5 -20t-48 20t-20 48t20 47.5t48 19.5t47.5 -19.5t19.5 -47.5zM799 -51q-4 -60 -27 -114t-66 -100t-116.5 -73.5t-168.5 -27.5q-157 0 -259 84t-102 227q0 103 51.5 179t156.5 154q97 73 127 132.5t30 134.5v97h57v-102q0 -90 -37 -156
t-147 -149q-95 -72 -137 -137t-42 -152q0 -123 88.5 -191.5t219.5 -68.5q69 0 125 19t89.5 47t57.5 65.5t34 69t13 62.5h53z" />
    <glyph glyph-name="Agrave" unicode="&#xc0;" horiz-adv-x="1137" 
d="M110 0h-60l487 1358h63l487 -1358h-61l-166 470h-584zM571 1289h-5l-273 -769h549zM667 1514h-70l-326 250h81z" />
    <glyph glyph-name="Aacute" unicode="&#xc1;" horiz-adv-x="1137" 
d="M110 0h-60l487 1358h63l487 -1358h-61l-166 470h-584zM571 1289h-5l-273 -769h549zM461 1512l315 250h81l-326 -250h-70z" />
    <glyph glyph-name="Acircumflex" unicode="&#xc2;" horiz-adv-x="1137" 
d="M110 0h-60l487 1358h63l487 -1358h-61l-166 470h-584zM571 1289h-5l-273 -769h549zM285 1498l276 205h29l270 -205h-75l-208 156h-5l-208 -156h-79z" />
    <glyph glyph-name="Atilde" unicode="&#xc3;" horiz-adv-x="1137" 
d="M110 0h-60l487 1358h63l487 -1358h-61l-166 470h-584zM571 1289h-5l-273 -769h549zM534 1568q-29 41 -54.5 61t-57.5 20q-97 0 -97 -141h-44q0 90 37.5 137t106.5 47q44 0 76 -21t72 -71q28 -37 51 -51.5t57 -14.5q46 0 77.5 40.5t31.5 108.5h45q0 -85 -44 -138t-110 -53
q-50 0 -80.5 18t-66.5 58z" />
    <glyph glyph-name="Adieresis" unicode="&#xc4;" horiz-adv-x="1137" 
d="M110 0h-60l487 1358h63l487 -1358h-61l-166 470h-584zM571 1289h-5l-273 -769h549zM373 1567q0 20 15 35.5t37 15.5t36.5 -15.5t14.5 -35.5t-14.5 -36.5t-36.5 -16.5t-37 16.5t-15 36.5zM664 1567q0 20 15 35.5t37 15.5t36.5 -15.5t14.5 -35.5t-14.5 -36.5t-36.5 -16.5
t-37 16.5t-15 36.5z" />
    <glyph glyph-name="Aring" unicode="&#xc5;" horiz-adv-x="1137" 
d="M447 1484q0 -49 36.5 -85.5t85.5 -36.5q51 0 87 36t36 86q0 51 -36 87t-87 36q-49 0 -85.5 -36t-36.5 -87zM842 520l-271 769h-5l-273 -769h549zM110 0h-60l474 1321q-55 14 -89.5 59.5t-34.5 103.5q0 70 49 118t120 48q69 0 117.5 -48t48.5 -118q0 -58 -34 -103t-88 -60
l474 -1321h-61l-166 470h-584z" />
    <glyph glyph-name="AE" unicode="&#xc6;" horiz-adv-x="1816" 
d="M881 1305l-463 -755h529v755h-66zM947 500h-559l-307 -500h-60l827 1358h864v-53h-708v-582h674v-53h-674v-617h708v-53h-765v500z" />
    <glyph glyph-name="Ccedilla" unicode="&#xc7;" horiz-adv-x="1245" 
d="M619 -467q-70 0 -116 16v50q46 -16 122 -16q65 0 113 28.5t48 83.5q0 109 -153 109h-50v39l56 125q-105 2 -190 34t-141.5 86t-94.5 128.5t-54.5 158.5t-16.5 180v247q0 95 18 180.5t57.5 160.5t97 129.5t142 86t188.5 31.5q110 0 201 -37t146.5 -96.5t85.5 -129
t30 -139.5v-4h-55q0 60 -27 121t-76.5 113.5t-129.5 86t-175 33.5q-113 0 -201 -43.5t-140 -118t-78.5 -166.5t-26.5 -196v-270q0 -83 15.5 -158t50.5 -142.5t86.5 -116.5t128 -78t171.5 -29q184 0 299 102.5t115 251.5h55v-4q0 -102 -50.5 -189.5t-149.5 -145.5t-228 -66
l-51 -118q84 0 144 -37t60 -115q0 -81 -68 -123.5t-158 -42.5z" />
    <glyph glyph-name="Egrave" unicode="&#xc8;" horiz-adv-x="1067" 
d="M963 53v-53h-765v1358h765v-53h-708v-582h674v-53h-674v-617h708zM676 1514h-70l-326 250h81z" />
    <glyph glyph-name="Eacute" unicode="&#xc9;" horiz-adv-x="1067" 
d="M963 53v-53h-765v1358h765v-53h-708v-582h674v-53h-674v-617h708zM470 1512l315 250h81l-326 -250h-70z" />
    <glyph glyph-name="Ecircumflex" unicode="&#xca;" horiz-adv-x="1067" 
d="M963 53v-53h-765v1358h765v-53h-708v-582h674v-53h-674v-617h708zM294 1498l276 205h29l270 -205h-75l-208 156h-5l-208 -156h-79z" />
    <glyph glyph-name="Edieresis" unicode="&#xcb;" horiz-adv-x="1067" 
d="M963 53v-53h-765v1358h765v-53h-708v-582h674v-53h-674v-617h708zM382 1567q0 20 15 35.5t37 15.5t36.5 -15.5t14.5 -35.5t-14.5 -36.5t-36.5 -16.5t-37 16.5t-15 36.5zM673 1567q0 20 15 35.5t37 15.5t36.5 -15.5t14.5 -35.5t-14.5 -36.5t-36.5 -16.5t-37 16.5t-15 36.5
z" />
    <glyph glyph-name="Igrave" unicode="&#xcc;" horiz-adv-x="493" 
d="M275 0h-57v1358h57v-1358zM345 1514h-70l-326 250h81z" />
    <glyph glyph-name="Iacute" unicode="&#xcd;" horiz-adv-x="493" 
d="M275 0h-57v1358h57v-1358zM139 1512l315 250h81l-326 -250h-70z" />
    <glyph glyph-name="Icircumflex" unicode="&#xce;" horiz-adv-x="493" 
d="M275 0h-57v1358h57v-1358zM-37 1498l276 205h29l270 -205h-75l-208 156h-5l-208 -156h-79z" />
    <glyph glyph-name="Idieresis" unicode="&#xcf;" horiz-adv-x="493" 
d="M275 0h-57v1358h57v-1358zM51 1567q0 20 15 35.5t37 15.5t36.5 -15.5t14.5 -35.5t-14.5 -36.5t-36.5 -16.5t-37 16.5t-15 36.5zM342 1567q0 20 15 35.5t37 15.5t36.5 -15.5t14.5 -35.5t-14.5 -36.5t-36.5 -16.5t-37 16.5t-15 36.5z" />
    <glyph glyph-name="Eth" unicode="&#xd0;" horiz-adv-x="1350" 
d="M596 0h-345v670h-159v53h159v635h345q159 0 277.5 -48t191 -138t108 -213t35.5 -279q0 -158 -34.5 -280.5t-106 -213t-190.5 -138.5t-281 -48zM308 53h290q144 0 250.5 44t172.5 127.5t98 197t32 258.5q0 143 -32.5 256.5t-98.5 196.5t-173 127.5t-249 44.5h-290v-582
h374v-53h-374v-617z" />
    <glyph glyph-name="Ntilde" unicode="&#xd1;" horiz-adv-x="1326" 
d="M255 0h-57v1358h60l809 -1256h4v1256h57v-1358h-60l-809 1256h-4v-1256zM628 1568q-29 41 -54.5 61t-57.5 20q-97 0 -97 -141h-44q0 90 37.5 137t106.5 47q44 0 76 -21t72 -71q28 -37 51 -51.5t57 -14.5q46 0 77.5 40.5t31.5 108.5h45q0 -85 -44 -138t-110 -53
q-50 0 -80.5 18t-66.5 58z" />
    <glyph glyph-name="Ograve" unicode="&#xd2;" horiz-adv-x="1310" 
d="M198 815v-272q0 -234 122 -378.5t335 -144.5t335 144.5t122 378.5v272q0 233 -122.5 378t-334.5 145t-334.5 -145t-122.5 -378zM142 551v256q0 267 135 425t378 158t378 -159t135 -426v-254q0 -267 -135 -425t-378 -158t-378 158t-135 425zM753 1514h-70l-326 250h81z
" />
    <glyph glyph-name="Oacute" unicode="&#xd3;" horiz-adv-x="1310" 
d="M198 815v-272q0 -234 122 -378.5t335 -144.5t335 144.5t122 378.5v272q0 233 -122.5 378t-334.5 145t-334.5 -145t-122.5 -378zM142 551v256q0 267 135 425t378 158t378 -159t135 -426v-254q0 -267 -135 -425t-378 -158t-378 158t-135 425zM547 1512l315 250h81
l-326 -250h-70z" />
    <glyph glyph-name="Ocircumflex" unicode="&#xd4;" horiz-adv-x="1310" 
d="M198 815v-272q0 -234 122 -378.5t335 -144.5t335 144.5t122 378.5v272q0 233 -122.5 378t-334.5 145t-334.5 -145t-122.5 -378zM142 551v256q0 267 135 425t378 158t378 -159t135 -426v-254q0 -267 -135 -425t-378 -158t-378 158t-135 425zM371 1498l276 205h29l270 -205
h-75l-208 156h-5l-208 -156h-79z" />
    <glyph glyph-name="Otilde" unicode="&#xd5;" horiz-adv-x="1310" 
d="M198 815v-272q0 -234 122 -378.5t335 -144.5t335 144.5t122 378.5v272q0 233 -122.5 378t-334.5 145t-334.5 -145t-122.5 -378zM142 551v256q0 267 135 425t378 158t378 -159t135 -426v-254q0 -267 -135 -425t-378 -158t-378 158t-135 425zM620 1568q-29 41 -54.5 61
t-57.5 20q-97 0 -97 -141h-44q0 90 37.5 137t106.5 47q44 0 76 -21t72 -71q28 -37 51 -51.5t57 -14.5q46 0 77.5 40.5t31.5 108.5h45q0 -85 -44 -138t-110 -53q-50 0 -80.5 18t-66.5 58z" />
    <glyph glyph-name="Odieresis" unicode="&#xd6;" horiz-adv-x="1310" 
d="M198 815v-272q0 -234 122 -378.5t335 -144.5t335 144.5t122 378.5v272q0 233 -122.5 378t-334.5 145t-334.5 -145t-122.5 -378zM142 551v256q0 267 135 425t378 158t378 -159t135 -426v-254q0 -267 -135 -425t-378 -158t-378 158t-135 425zM459 1567q0 20 15 35.5
t37 15.5t36.5 -15.5t14.5 -35.5t-14.5 -36.5t-36.5 -16.5t-37 16.5t-15 36.5zM750 1567q0 20 15 35.5t37 15.5t36.5 -15.5t14.5 -35.5t-14.5 -36.5t-36.5 -16.5t-37 16.5t-15 36.5z" />
    <glyph glyph-name="multiply" unicode="&#xd7;" horiz-adv-x="1040" 
d="M849 118l-328 329l-329 -329l-38 37l329 329l-329 330l37 37l330 -329l329 329l37 -37l-329 -330l329 -329z" />
    <glyph glyph-name="Oslash" unicode="&#xd8;" horiz-adv-x="1310" 
d="M655 -32q-279 0 -415 207l-116 -135l-35 29l127 147q-74 139 -74 336v254q0 267 134.5 425.5t378.5 158.5q269 0 406 -194l125 144l37 -25l-137 -159q82 -143 82 -350v-254q0 -267 -134.5 -425.5t-378.5 -158.5zM198 543q0 -159 58 -280l766 887q-60 90 -153 139t-214 49
q-212 0 -334.5 -145t-122.5 -378v-272zM655 20q214 0 335.5 144.5t121.5 378.5v272q0 169 -66 295l-767 -890q59 -95 154.5 -147.5t221.5 -52.5z" />
    <glyph glyph-name="Ugrave" unicode="&#xd9;" horiz-adv-x="1305" 
d="M231 1358v-891q0 -205 109.5 -324.5t311.5 -119.5q204 0 312.5 118.5t108.5 325.5v891h58v-891q0 -230 -126 -364.5t-353 -134.5t-352.5 134.5t-125.5 364.5v891h57zM751 1514h-70l-326 250h81z" />
    <glyph glyph-name="Uacute" unicode="&#xda;" horiz-adv-x="1305" 
d="M231 1358v-891q0 -205 109.5 -324.5t311.5 -119.5q204 0 312.5 118.5t108.5 325.5v891h58v-891q0 -230 -126 -364.5t-353 -134.5t-352.5 134.5t-125.5 364.5v891h57zM545 1512l315 250h81l-326 -250h-70z" />
    <glyph glyph-name="Ucircumflex" unicode="&#xdb;" horiz-adv-x="1305" 
d="M231 1358v-891q0 -205 109.5 -324.5t311.5 -119.5q204 0 312.5 118.5t108.5 325.5v891h58v-891q0 -230 -126 -364.5t-353 -134.5t-352.5 134.5t-125.5 364.5v891h57zM369 1498l276 205h29l270 -205h-75l-208 156h-5l-208 -156h-79z" />
    <glyph glyph-name="Udieresis" unicode="&#xdc;" horiz-adv-x="1305" 
d="M231 1358v-891q0 -205 109.5 -324.5t311.5 -119.5q204 0 312.5 118.5t108.5 325.5v891h58v-891q0 -230 -126 -364.5t-353 -134.5t-352.5 134.5t-125.5 364.5v891h57zM457 1567q0 20 15 35.5t37 15.5t36.5 -15.5t14.5 -35.5t-14.5 -36.5t-36.5 -16.5t-37 16.5t-15 36.5z
M748 1567q0 20 15 35.5t37 15.5t36.5 -15.5t14.5 -35.5t-14.5 -36.5t-36.5 -16.5t-37 16.5t-15 36.5z" />
    <glyph glyph-name="Yacute" unicode="&#xdd;" horiz-adv-x="1054" 
d="M556 0h-56v610l-475 748h68l432 -686h6l433 686h65l-473 -746v-612zM419 1512l315 250h81l-326 -250h-70z" />
    <glyph glyph-name="Thorn" unicode="&#xde;" horiz-adv-x="1129" 
d="M198 1358h57v-263h345q193 0 307 -93.5t114 -270.5q0 -176 -114 -269.5t-307 -93.5h-345v-368h-57v1358zM255 1042v-622h343q177 0 271 77t94 234q0 311 -365 311h-343z" />
    <glyph glyph-name="germandbls" unicode="&#xdf;" horiz-adv-x="1129" 
d="M246 0h-56v1077q0 163 91.5 253.5t270.5 90.5q175 0 271 -89.5t96 -237.5q0 -124 -77.5 -221t-174.5 -119v-3q51 -2 102.5 -16.5t100.5 -45t87 -72t61 -102t23 -130.5q0 -97 -40.5 -176t-105.5 -127.5t-140.5 -74t-152.5 -25.5q-100 0 -179 15v58q69 -18 184 -18
q69 0 134.5 23t118.5 65.5t85.5 109t32.5 146.5q0 151 -118 243.5t-318 92.5h-99v59h98q132 0 224.5 95t92.5 213q0 73 -24.5 128.5t-67.5 88.5t-96.5 49t-116.5 16q-150 0 -228.5 -76t-78.5 -213v-1077z" />
    <glyph glyph-name="agrave" unicode="&#xe0;" horiz-adv-x="1003" 
d="M778 178q-8 -26 -31 -56.5t-62 -63.5t-103 -54.5t-139 -21.5q-152 0 -244.5 82t-92.5 223q0 130 89.5 207t257.5 77h329v159q0 133 -78 199t-212 66q-70 0 -125 -18t-87 -46.5t-49.5 -58.5t-21.5 -60h-56q7 94 96.5 165t246.5 71q158 0 250 -79t92 -224v-745h-56v178h-4z
M444 35q140 0 239 87t99 225v171h-329q-143 0 -214.5 -62t-71.5 -168q0 -115 76.5 -184t200.5 -69zM605 1211h-46l-265 301h66z" />
    <glyph glyph-name="aacute" unicode="&#xe1;" horiz-adv-x="1003" 
d="M778 178q-8 -26 -31 -56.5t-62 -63.5t-103 -54.5t-139 -21.5q-152 0 -244.5 82t-92.5 223q0 130 89.5 207t257.5 77h329v159q0 133 -78 199t-212 66q-70 0 -125 -18t-87 -46.5t-49.5 -58.5t-21.5 -60h-56q7 94 96.5 165t246.5 71q158 0 250 -79t92 -224v-745h-56v178h-4z
M444 35q140 0 239 87t99 225v171h-329q-143 0 -214.5 -62t-71.5 -168q0 -115 76.5 -184t200.5 -69zM509 1211h-46l246 301h65z" />
    <glyph glyph-name="acircumflex" unicode="&#xe2;" horiz-adv-x="1003" 
d="M778 178q-8 -26 -31 -56.5t-62 -63.5t-103 -54.5t-139 -21.5q-152 0 -244.5 82t-92.5 223q0 130 89.5 207t257.5 77h329v159q0 133 -78 199t-212 66q-70 0 -125 -18t-87 -46.5t-49.5 -58.5t-21.5 -60h-56q7 94 96.5 165t246.5 71q158 0 250 -79t92 -224v-745h-56v178h-4z
M444 35q140 0 239 87t99 225v171h-329q-143 0 -214.5 -62t-71.5 -168q0 -115 76.5 -184t200.5 -69zM239 1239l240 335h54l233 -335h-57l-202 295h-5l-208 -295h-55z" />
    <glyph glyph-name="atilde" unicode="&#xe3;" horiz-adv-x="1003" 
d="M778 178q-8 -26 -31 -56.5t-62 -63.5t-103 -54.5t-139 -21.5q-152 0 -244.5 82t-92.5 223q0 130 89.5 207t257.5 77h329v159q0 133 -78 199t-212 66q-70 0 -125 -18t-87 -46.5t-49.5 -58.5t-21.5 -60h-56q7 94 96.5 165t246.5 71q158 0 250 -79t92 -224v-745h-56v178h-4z
M444 35q140 0 239 87t99 225v171h-329q-143 0 -214.5 -62t-71.5 -168q0 -115 76.5 -184t200.5 -69zM466 1301q-37 46 -66.5 69.5t-66.5 23.5q-51 0 -81 -40t-30 -122h-51q0 106 43 159t122 53q51 0 87.5 -23.5t81.5 -82.5q32 -41 60 -57t68 -16q52 0 88 46t36 124h52
q0 -97 -50.5 -158t-125.5 -61q-60 0 -96.5 20.5t-70.5 64.5z" />
    <glyph glyph-name="adieresis" unicode="&#xe4;" horiz-adv-x="1003" 
d="M778 178q-8 -26 -31 -56.5t-62 -63.5t-103 -54.5t-139 -21.5q-152 0 -244.5 82t-92.5 223q0 130 89.5 207t257.5 77h329v159q0 133 -78 199t-212 66q-70 0 -125 -18t-87 -46.5t-49.5 -58.5t-21.5 -60h-56q7 94 96.5 165t246.5 71q158 0 250 -79t92 -224v-745h-56v178h-4z
M444 35q140 0 239 87t99 225v171h-329q-143 0 -214.5 -62t-71.5 -168q0 -115 76.5 -184t200.5 -69zM306 1308q0 24 18 42t42 18q25 0 43.5 -18t18.5 -42q0 -26 -18 -44t-44 -18q-24 0 -42 18.5t-18 43.5zM581 1308q0 24 18 42t42 18q25 0 43.5 -18t18.5 -42q0 -26 -18.5 -44
t-43.5 -18q-24 0 -42 18.5t-18 43.5z" />
    <glyph glyph-name="aring" unicode="&#xe5;" horiz-adv-x="1003" 
d="M778 178q-8 -26 -31 -56.5t-62 -63.5t-103 -54.5t-139 -21.5q-152 0 -244.5 82t-92.5 223q0 130 89.5 207t257.5 77h329v159q0 133 -78 199t-212 66q-70 0 -125 -18t-87 -46.5t-49.5 -58.5t-21.5 -60h-56q7 94 96.5 165t246.5 71q158 0 250 -79t92 -224v-745h-56v178h-4z
M444 35q140 0 239 87t99 225v171h-329q-143 0 -214.5 -62t-71.5 -168q0 -115 76.5 -184t200.5 -69zM501 1181q-71 0 -120 49t-49 120q0 70 49 118t120 48q69 0 117.5 -48t48.5 -118t-48.5 -119.5t-117.5 -49.5zM379 1350q0 -49 36.5 -85.5t85.5 -36.5q51 0 87 36t36 86
q0 51 -36 87t-87 36q-49 0 -85.5 -36t-36.5 -87z" />
    <glyph glyph-name="ae" unicode="&#xe6;" horiz-adv-x="1698" 
d="M1188 -18q-149 0 -246.5 75t-123.5 205h-4q-20 -116 -119 -198t-252 -82q-154 0 -244.5 83.5t-90.5 221.5t90.5 211t254.5 73h329v159q0 66 -25.5 118.5t-67.5 83.5t-92.5 47t-104.5 16q-70 0 -125 -18t-87 -46.5t-49.5 -58.5t-21.5 -60h-56q7 94 96.5 165t246.5 71
q116 0 210 -60.5t119 -167.5h5q42 112 134 170t213 58q180 0 284.5 -124.5t104.5 -363.5v-42h-728v-61q0 -203 94 -312.5t257 -109.5q74 0 135 21t99 54.5t60 70.5t27 74h56q-4 -44 -29.5 -90t-69.5 -88t-117 -68.5t-162 -26.5zM1177 995q-155 0 -247 -111t-92 -311v-4h672
v4q0 200 -89 311t-244 111zM444 35q140 0 239 87t99 225v171h-329q-143 0 -216 -62.5t-73 -168.5q0 -113 78.5 -182.5t201.5 -69.5z" />
    <glyph glyph-name="ccedilla" unicode="&#xe7;" horiz-adv-x="1018" 
d="M493 -457q-70 0 -116 16v50q46 -16 122 -16q65 0 113 28.5t48 83.5q0 109 -153 109h-50v39l58 129q-180 5 -285 121.5t-105 332.5v166q0 212 111.5 329t288.5 117q89 0 162 -28t118.5 -74.5t71.5 -101t29 -111.5h-54q-15 108 -100.5 185t-226.5 77q-154 0 -249 -106.5
t-95 -300.5v-142q0 -200 94 -305.5t259 -105.5q76 0 136 21.5t96.5 58t57.5 77.5t29 87h53q-5 -50 -26 -97.5t-59.5 -91t-104 -72.5t-148.5 -35l-53 -122q84 0 144 -37t60 -115q0 -81 -68 -123.5t-158 -42.5z" />
    <glyph glyph-name="egrave" unicode="&#xe8;" horiz-adv-x="1042" 
d="M533 -18q-191 0 -298.5 123t-107.5 348v107q0 238 107 363t288 125t288 -125t107 -363v-42h-734v-61q0 -203 94 -312.5t257 -109.5q74 0 134 21t96.5 54t57 70.5t24.5 74.5h56q-4 -45 -27.5 -90.5t-66 -87.5t-114.5 -68.5t-161 -26.5zM183 569h678v4q0 200 -92 311
t-247 111t-247 -111t-92 -311v-4zM624 1211h-46l-265 301h66z" />
    <glyph glyph-name="eacute" unicode="&#xe9;" horiz-adv-x="1042" 
d="M533 -18q-191 0 -298.5 123t-107.5 348v107q0 238 107 363t288 125t288 -125t107 -363v-42h-734v-61q0 -203 94 -312.5t257 -109.5q74 0 134 21t96.5 54t57 70.5t24.5 74.5h56q-4 -45 -27.5 -90.5t-66 -87.5t-114.5 -68.5t-161 -26.5zM183 569h678v4q0 200 -92 311
t-247 111t-247 -111t-92 -311v-4zM528 1211h-46l246 301h65z" />
    <glyph glyph-name="ecircumflex" unicode="&#xea;" horiz-adv-x="1042" 
d="M533 -18q-191 0 -298.5 123t-107.5 348v107q0 238 107 363t288 125t288 -125t107 -363v-42h-734v-61q0 -203 94 -312.5t257 -109.5q74 0 134 21t96.5 54t57 70.5t24.5 74.5h56q-4 -45 -27.5 -90.5t-66 -87.5t-114.5 -68.5t-161 -26.5zM183 569h678v4q0 200 -92 311
t-247 111t-247 -111t-92 -311v-4zM258 1239l240 335h54l233 -335h-57l-202 295h-5l-208 -295h-55z" />
    <glyph glyph-name="edieresis" unicode="&#xeb;" horiz-adv-x="1042" 
d="M533 -18q-191 0 -298.5 123t-107.5 348v107q0 238 107 363t288 125t288 -125t107 -363v-42h-734v-61q0 -203 94 -312.5t257 -109.5q74 0 134 21t96.5 54t57 70.5t24.5 74.5h56q-4 -45 -27.5 -90.5t-66 -87.5t-114.5 -68.5t-161 -26.5zM183 569h678v4q0 200 -92 311
t-247 111t-247 -111t-92 -311v-4zM325 1308q0 24 18 42t42 18q25 0 43.5 -18t18.5 -42q0 -26 -18.5 -44t-43.5 -18q-24 0 -42 18.5t-18 43.5zM600 1308q0 24 18 42t42 18q25 0 43.5 -18t18.5 -42q0 -26 -18 -44t-44 -18q-24 0 -42 18.5t-18 43.5z" />
    <glyph glyph-name="igrave" unicode="&#xec;" horiz-adv-x="393" 
d="M168 0v1030h56v-1030h-56zM300 1211h-46l-265 301h66z" />
    <glyph glyph-name="iacute" unicode="&#xed;" horiz-adv-x="393" 
d="M168 0v1030h56v-1030h-56zM204 1211h-46l246 301h65z" />
    <glyph glyph-name="icircumflex" unicode="&#xee;" horiz-adv-x="393" 
d="M168 0v1030h56v-1030h-56zM-66 1239l240 335h54l233 -335h-57l-202 295h-5l-208 -295h-55z" />
    <glyph glyph-name="idieresis" unicode="&#xef;" horiz-adv-x="393" 
d="M168 0v1030h56v-1030h-56zM1 1308q0 24 18 42t42 18q25 0 43.5 -18t18.5 -42q0 -26 -18.5 -44t-43.5 -18q-24 0 -42 18.5t-18 43.5zM276 1308q0 24 18 42t42 18q25 0 43.5 -18t18.5 -42q0 -26 -18 -44t-44 -18q-24 0 -42 18.5t-18 43.5z" />
    <glyph glyph-name="eth" unicode="&#xf0;" 
d="M539 -18q-87 0 -162 29t-131.5 84t-88.5 141t-32 195v113q0 217 116 335.5t298 118.5q127 0 220.5 -60t135.5 -148h4l-5 49q-28 275 -167 433l-285 -103l-12 45l264 96q-86 93 -218 155l30 40q142 -69 242 -176l237 86l11 -44l-216 -78q175 -224 175 -619v-243
q0 -109 -32.5 -195.5t-89.5 -141.5t-132 -83.5t-162 -28.5zM539 945q-158 0 -258 -106.5t-100 -303.5v-95q0 -196 99.5 -300.5t259.5 -104.5q158 0 258 104t100 301v176q0 136 -105 232.5t-254 96.5z" />
    <glyph glyph-name="ntilde" unicode="&#xf1;" horiz-adv-x="1085" 
d="M170 0v1030h56v-210h4q27 93 115 160.5t227 67.5q157 0 255 -97.5t98 -271.5v-679h-56v673q0 140 -79.5 231t-219.5 91q-109 0 -189 -54t-117.5 -136t-37.5 -178v-627h-56zM507 1301q-37 46 -66.5 69.5t-66.5 23.5q-51 0 -81 -40t-30 -122h-51q0 106 43 159t122 53
q51 0 87.5 -23.5t81.5 -82.5q32 -41 60 -57t68 -16q52 0 88 46t36 124h52q0 -97 -50.5 -158t-125.5 -61q-60 0 -96.5 20.5t-70.5 64.5z" />
    <glyph glyph-name="ograve" unicode="&#xf2;" 
d="M539 1048q178 0 297 -120.5t119 -333.5v-163q0 -109 -32.5 -195.5t-89.5 -141.5t-132 -83.5t-162 -28.5t-162 29t-131.5 84t-88.5 141t-32 195v163q0 217 116 335.5t298 118.5zM539 995q-158 0 -258 -106.5t-100 -303.5v-145q0 -196 99.5 -300.5t259.5 -104.5
q158 0 258 104t100 301v145q0 195 -101 302.5t-258 107.5zM643 1211h-46l-265 301h66z" />
    <glyph glyph-name="oacute" unicode="&#xf3;" 
d="M539 1048q178 0 297 -120.5t119 -333.5v-163q0 -109 -32.5 -195.5t-89.5 -141.5t-132 -83.5t-162 -28.5t-162 29t-131.5 84t-88.5 141t-32 195v163q0 217 116 335.5t298 118.5zM539 995q-158 0 -258 -106.5t-100 -303.5v-145q0 -196 99.5 -300.5t259.5 -104.5
q158 0 258 104t100 301v145q0 195 -101 302.5t-258 107.5zM547 1211h-46l246 301h65z" />
    <glyph glyph-name="ocircumflex" unicode="&#xf4;" 
d="M539 1048q178 0 297 -120.5t119 -333.5v-163q0 -109 -32.5 -195.5t-89.5 -141.5t-132 -83.5t-162 -28.5t-162 29t-131.5 84t-88.5 141t-32 195v163q0 217 116 335.5t298 118.5zM539 995q-158 0 -258 -106.5t-100 -303.5v-145q0 -196 99.5 -300.5t259.5 -104.5
q158 0 258 104t100 301v145q0 195 -101 302.5t-258 107.5zM277 1239l240 335h54l233 -335h-57l-202 295h-5l-208 -295h-55z" />
    <glyph glyph-name="otilde" unicode="&#xf5;" 
d="M539 1048q178 0 297 -120.5t119 -333.5v-163q0 -109 -32.5 -195.5t-89.5 -141.5t-132 -83.5t-162 -28.5t-162 29t-131.5 84t-88.5 141t-32 195v163q0 217 116 335.5t298 118.5zM539 995q-158 0 -258 -106.5t-100 -303.5v-145q0 -196 99.5 -300.5t259.5 -104.5
q158 0 258 104t100 301v145q0 195 -101 302.5t-258 107.5zM504 1301q-37 46 -66.5 69.5t-66.5 23.5q-51 0 -81 -40t-30 -122h-51q0 106 43 159t122 53q51 0 87.5 -23.5t81.5 -82.5q32 -41 60 -57t68 -16q52 0 88 46t36 124h52q0 -97 -50.5 -158t-125.5 -61q-60 0 -96.5 20.5
t-70.5 64.5z" />
    <glyph glyph-name="odieresis" unicode="&#xf6;" 
d="M539 1048q178 0 297 -120.5t119 -333.5v-163q0 -109 -32.5 -195.5t-89.5 -141.5t-132 -83.5t-162 -28.5t-162 29t-131.5 84t-88.5 141t-32 195v163q0 217 116 335.5t298 118.5zM539 995q-158 0 -258 -106.5t-100 -303.5v-145q0 -196 99.5 -300.5t259.5 -104.5
q158 0 258 104t100 301v145q0 195 -101 302.5t-258 107.5zM344 1308q0 24 18 42t42 18q25 0 43.5 -18t18.5 -42q0 -26 -18 -44t-44 -18q-24 0 -42 18.5t-18 43.5zM619 1308q0 24 18 42t42 18q25 0 43.5 -18t18.5 -42q0 -26 -18.5 -44t-43.5 -18q-24 0 -42 18.5t-18 43.5z
" />
    <glyph glyph-name="divide" unicode="&#xf7;" horiz-adv-x="1088" 
d="M982 512h-876v57h876v-57zM475 896q0 28 19.5 48t47.5 20t48 -20t20 -48t-20 -47.5t-48 -19.5t-47.5 19.5t-19.5 47.5zM480 183q0 28 19.5 48t47.5 20t48 -20t20 -48t-20 -47.5t-48 -19.5t-47.5 19.5t-19.5 47.5z" />
    <glyph glyph-name="oslash" unicode="&#xf8;" 
d="M262 162q97 -127 278 -127q158 0 258 104t100 301v145q0 132 -49 228zM181 440q0 -141 55 -238l588 652q-99 141 -285 141q-158 0 -258 -106.5t-100 -303.5v-145zM539 -18q-202 0 -316 138l-108 -120l-34 30l115 127q-71 112 -71 274v163q0 217 116 335.5t298 118.5
q99 0 183 -39t141 -113l134 146l34 -30l-142 -154q66 -110 66 -264v-163q0 -109 -32.5 -195.5t-89.5 -141.5t-132 -83.5t-162 -28.5z" />
    <glyph glyph-name="ugrave" unicode="&#xf9;" horiz-adv-x="1085" 
d="M915 1030v-1030h-56v211h-4q-14 -41 -40.5 -79t-67.5 -73t-103 -56t-136 -21q-153 0 -250.5 89.5t-97.5 259.5v699h56v-693q0 -136 79.5 -219t214.5 -83q83 0 151 33t110.5 88.5t65 123t22.5 140.5v610h56zM646 1211h-46l-265 301h66z" />
    <glyph glyph-name="uacute" unicode="&#xfa;" horiz-adv-x="1085" 
d="M915 1030v-1030h-56v211h-4q-14 -41 -40.5 -79t-67.5 -73t-103 -56t-136 -21q-153 0 -250.5 89.5t-97.5 259.5v699h56v-693q0 -136 79.5 -219t214.5 -83q83 0 151 33t110.5 88.5t65 123t22.5 140.5v610h56zM550 1211h-46l246 301h65z" />
    <glyph glyph-name="ucircumflex" unicode="&#xfb;" horiz-adv-x="1085" 
d="M915 1030v-1030h-56v211h-4q-14 -41 -40.5 -79t-67.5 -73t-103 -56t-136 -21q-153 0 -250.5 89.5t-97.5 259.5v699h56v-693q0 -136 79.5 -219t214.5 -83q83 0 151 33t110.5 88.5t65 123t22.5 140.5v610h56zM280 1239l240 335h54l233 -335h-57l-202 295h-5l-208 -295h-55z
" />
    <glyph glyph-name="udieresis" unicode="&#xfc;" horiz-adv-x="1085" 
d="M915 1030v-1030h-56v211h-4q-14 -41 -40.5 -79t-67.5 -73t-103 -56t-136 -21q-153 0 -250.5 89.5t-97.5 259.5v699h56v-693q0 -136 79.5 -219t214.5 -83q83 0 151 33t110.5 88.5t65 123t22.5 140.5v610h56zM347 1308q0 24 18 42t42 18q25 0 43.5 -18t18.5 -42
q0 -26 -18.5 -44t-43.5 -18q-24 0 -42 18.5t-18 43.5zM622 1308q0 24 18 42t42 18q25 0 43.5 -18t18.5 -42q0 -26 -18 -44t-44 -18q-24 0 -42 18.5t-18 43.5z" />
    <glyph glyph-name="yacute" unicode="&#xfd;" horiz-adv-x="887" 
d="M857 1030l-371 -1028l-49 -129q-41 -108 -96.5 -154t-154.5 -46q-50 0 -93 10v53q48 -10 92 -10q76 0 122 40t74 115l40 107l-386 1042h62l351 -972h4l345 972h60zM451 1211h-46l246 301h65z" />
    <glyph glyph-name="thorn" unicode="&#xfe;" horiz-adv-x="1090" 
d="M569 -18q-67 0 -124.5 19t-93.5 46.5t-63.5 61.5t-40 59t-17.5 45h-4v-538h-56v1760h56v-621h4q9 28 25.5 57.5t45.5 62t65.5 57.5t89 41t112.5 16q62 0 120 -16.5t109 -52t88.5 -86.5t59.5 -123.5t22 -159.5v-192q0 -198 -112 -317t-286 -119zM568 35q147 0 244.5 104.5
t97.5 287.5v172q0 99 -29 177t-77.5 124.5t-108.5 70.5t-127 24q-153 0 -247.5 -113t-94.5 -280v-177q0 -75 22.5 -144.5t64.5 -124.5t108.5 -88t146.5 -33z" />
    <glyph glyph-name="ydieresis" unicode="&#xff;" horiz-adv-x="887" 
d="M857 1030l-371 -1028l-49 -129q-41 -108 -96.5 -154t-154.5 -46q-50 0 -93 10v53q48 -10 92 -10q76 0 122 40t74 115l40 107l-386 1042h62l351 -972h4l345 972h60zM248 1308q0 24 18 42t42 18q25 0 43.5 -18t18.5 -42q0 -26 -18 -44t-44 -18q-24 0 -42 18.5t-18 43.5z
M523 1308q0 24 18 42t42 18q25 0 43.5 -18t18.5 -42q0 -26 -18.5 -44t-43.5 -18q-24 0 -42 18.5t-18 43.5z" />
    <glyph glyph-name="Amacron" unicode="&#x100;" horiz-adv-x="1137" 
d="M110 0h-60l487 1358h63l487 -1358h-61l-166 470h-584zM571 1289h-5l-273 -769h549zM838 1525h-538v44h538v-44z" />
    <glyph glyph-name="amacron" unicode="&#x101;" horiz-adv-x="1003" 
d="M778 178q-8 -26 -31 -56.5t-62 -63.5t-103 -54.5t-139 -21.5q-152 0 -244.5 82t-92.5 223q0 130 89.5 207t257.5 77h329v159q0 133 -78 199t-212 66q-70 0 -125 -18t-87 -46.5t-49.5 -58.5t-21.5 -60h-56q7 94 96.5 165t246.5 71q158 0 250 -79t92 -224v-745h-56v178h-4z
M444 35q140 0 239 87t99 225v171h-329q-143 0 -214.5 -62t-71.5 -168q0 -115 76.5 -184t200.5 -69zM773 1258h-558v44h558v-44z" />
    <glyph glyph-name="Abreve" unicode="&#x102;" horiz-adv-x="1137" 
d="M110 0h-60l487 1358h63l487 -1358h-61l-166 470h-584zM571 1289h-5l-273 -769h549zM306 1704h52q0 -82 56 -127.5t155 -45.5q98 0 150 45t52 128h52q0 -94 -65.5 -157.5t-188.5 -63.5q-124 0 -193.5 62.5t-69.5 158.5z" />
    <glyph glyph-name="abreve" unicode="&#x103;" horiz-adv-x="1003" 
d="M778 178q-8 -26 -31 -56.5t-62 -63.5t-103 -54.5t-139 -21.5q-152 0 -244.5 82t-92.5 223q0 130 89.5 207t257.5 77h329v159q0 133 -78 199t-212 66q-70 0 -125 -18t-87 -46.5t-49.5 -58.5t-21.5 -60h-56q7 94 96.5 165t246.5 71q158 0 250 -79t92 -224v-745h-56v178h-4z
M444 35q140 0 239 87t99 225v171h-329q-143 0 -214.5 -62t-71.5 -168q0 -115 76.5 -184t200.5 -69zM232 1437h52q0 -83 57 -134.5t154 -51.5q96 0 149 51t53 135h52q0 -96 -66 -165t-188 -69q-123 0 -193 68.5t-70 165.5z" />
    <glyph glyph-name="Aogonek" unicode="&#x104;" horiz-adv-x="1137" 
d="M110 0h-60l487 1358h63l487 -1358q-71 -37 -120.5 -92.5t-49.5 -117.5q0 -51 29.5 -81t76.5 -30q49 0 86 15v-43q-34 -21 -101 -21q-64 0 -105.5 40.5t-41.5 115.5q0 67 48 127t112 103l-161 454h-584zM571 1289h-5l-273 -769h549z" />
    <glyph glyph-name="aogonek" unicode="&#x105;" horiz-adv-x="1003" 
d="M444 35q140 0 239 87t99 225v171h-329q-143 0 -214.5 -62t-71.5 -168q0 -115 76.5 -184t200.5 -69zM884 -335q-38 -16 -84 -16q-71 0 -117.5 40t-46.5 115q0 70 38.5 121.5t107.5 103.5v149h-4q-8 -26 -31 -56.5t-62 -63.5t-103 -54.5t-139 -21.5q-152 0 -244.5 82
t-92.5 223q0 130 89.5 207t257.5 77h329v159q0 133 -78 199t-212 66q-70 0 -125 -18t-87 -46.5t-49.5 -58.5t-21.5 -60h-56q7 94 96.5 165t246.5 71q158 0 250 -79t92 -224v-736q-68 -43 -107 -90t-39 -108q0 -53 29.5 -82t83.5 -29q47 0 79 13v-48z" />
    <glyph glyph-name="Cacute" unicode="&#x106;" horiz-adv-x="1245" 
d="M199 814v-270q0 -83 15.5 -158t50.5 -142.5t86.5 -116.5t128 -78t171.5 -29q184 0 299 102.5t115 251.5h55v-4q0 -166 -129.5 -284t-339.5 -118q-108 0 -194.5 31t-144.5 85t-97 129.5t-56 160t-17 181.5v247q0 95 18 180.5t57.5 160.5t97 129.5t142 86t188.5 31.5
q110 0 201 -37t146.5 -96.5t85.5 -129t30 -139.5v-4h-55q0 60 -27 121t-76.5 113.5t-129.5 86t-175 33.5q-113 0 -201 -43.5t-140 -118t-78.5 -166.5t-26.5 -196zM537 1512l315 250h81l-326 -250h-70z" />
    <glyph glyph-name="cacute" unicode="&#x107;" horiz-adv-x="1018" 
d="M125 436v166q0 212 111.5 329t288.5 117q89 0 162 -28t118.5 -74.5t71.5 -101t29 -111.5h-54q-15 108 -100.5 185t-226.5 77q-154 0 -249 -106.5t-95 -300.5v-142q0 -200 94 -305.5t259 -105.5q76 0 136 21.5t96.5 58t57.5 77.5t29 87h53q-5 -53 -28.5 -103t-66 -95
t-115.5 -72t-167 -27q-186 0 -295 116.5t-109 337.5zM531 1211h-46l246 301h65z" />
    <glyph glyph-name="Ccircumflex" unicode="&#x108;" horiz-adv-x="1245" 
d="M199 814v-270q0 -83 15.5 -158t50.5 -142.5t86.5 -116.5t128 -78t171.5 -29q184 0 299 102.5t115 251.5h55v-4q0 -166 -129.5 -284t-339.5 -118q-108 0 -194.5 31t-144.5 85t-97 129.5t-56 160t-17 181.5v247q0 95 18 180.5t57.5 160.5t97 129.5t142 86t188.5 31.5
q110 0 201 -37t146.5 -96.5t85.5 -129t30 -139.5v-4h-55q0 60 -27 121t-76.5 113.5t-129.5 86t-175 33.5q-113 0 -201 -43.5t-140 -118t-78.5 -166.5t-26.5 -196zM361 1498l276 205h29l270 -205h-75l-208 156h-5l-208 -156h-79z" />
    <glyph glyph-name="ccircumflex" unicode="&#x109;" horiz-adv-x="1018" 
d="M125 436v166q0 212 111.5 329t288.5 117q89 0 162 -28t118.5 -74.5t71.5 -101t29 -111.5h-54q-15 108 -100.5 185t-226.5 77q-154 0 -249 -106.5t-95 -300.5v-142q0 -200 94 -305.5t259 -105.5q76 0 136 21.5t96.5 58t57.5 77.5t29 87h53q-5 -53 -28.5 -103t-66 -95
t-115.5 -72t-167 -27q-186 0 -295 116.5t-109 337.5zM261 1239l240 335h54l233 -335h-57l-202 295h-5l-208 -295h-55z" />
    <glyph glyph-name="Cdotaccent" unicode="&#x10a;" horiz-adv-x="1245" 
d="M199 814v-270q0 -83 15.5 -158t50.5 -142.5t86.5 -116.5t128 -78t171.5 -29q184 0 299 102.5t115 251.5h55v-4q0 -166 -129.5 -284t-339.5 -118q-108 0 -194.5 31t-144.5 85t-97 129.5t-56 160t-17 181.5v247q0 95 18 180.5t57.5 160.5t97 129.5t142 86t188.5 31.5
q110 0 201 -37t146.5 -96.5t85.5 -129t30 -139.5v-4h-55q0 60 -27 121t-76.5 113.5t-129.5 86t-175 33.5q-113 0 -201 -43.5t-140 -118t-78.5 -166.5t-26.5 -196zM582 1655q0 27 18 45t43 18q27 0 45.5 -18t18.5 -45q0 -26 -18.5 -43.5t-45.5 -17.5q-25 0 -43 17.5t-18 43.5
z" />
    <glyph glyph-name="cdotaccent" unicode="&#x10b;" horiz-adv-x="1018" 
d="M125 436v166q0 212 111.5 329t288.5 117q89 0 162 -28t118.5 -74.5t71.5 -101t29 -111.5h-54q-15 108 -100.5 185t-226.5 77q-154 0 -249 -106.5t-95 -300.5v-142q0 -200 94 -305.5t259 -105.5q76 0 136 21.5t96.5 58t57.5 77.5t29 87h53q-5 -53 -28.5 -103t-66 -95
t-115.5 -72t-167 -27q-186 0 -295 116.5t-109 337.5zM461 1327q0 27 18 45t43 18q27 0 45.5 -18t18.5 -45q0 -26 -18.5 -43.5t-45.5 -17.5q-25 0 -43 17.5t-18 43.5z" />
    <glyph glyph-name="Ccaron" unicode="&#x10c;" horiz-adv-x="1245" 
d="M199 814v-270q0 -83 15.5 -158t50.5 -142.5t86.5 -116.5t128 -78t171.5 -29q184 0 299 102.5t115 251.5h55v-4q0 -166 -129.5 -284t-339.5 -118q-108 0 -194.5 31t-144.5 85t-97 129.5t-56 160t-17 181.5v247q0 95 18 180.5t57.5 160.5t97 129.5t142 86t188.5 31.5
q110 0 201 -37t146.5 -96.5t85.5 -129t30 -139.5v-4h-55q0 60 -27 121t-76.5 113.5t-129.5 86t-175 33.5q-113 0 -201 -43.5t-140 -118t-78.5 -166.5t-26.5 -196zM361 1683h64l223 -175h5l222 175h61l-253 -205h-62z" />
    <glyph glyph-name="ccaron" unicode="&#x10d;" horiz-adv-x="1018" 
d="M125 436v166q0 212 111.5 329t288.5 117q89 0 162 -28t118.5 -74.5t71.5 -101t29 -111.5h-54q-15 108 -100.5 185t-226.5 77q-154 0 -249 -106.5t-95 -300.5v-142q0 -200 94 -305.5t259 -105.5q76 0 136 21.5t96.5 58t57.5 77.5t29 87h53q-5 -53 -28.5 -103t-66 -95
t-115.5 -72t-167 -27q-186 0 -295 116.5t-109 337.5zM259 1553h55l208 -295h5l202 295h57l-233 -335h-54z" />
    <glyph glyph-name="Dcaron" unicode="&#x10e;" horiz-adv-x="1297" 
d="M198 1358h345q159 0 277.5 -48t191 -138t108 -213t35.5 -279q0 -158 -34.5 -280.5t-106 -213t-190.5 -138.5t-281 -48h-345v1358zM255 1305v-1252h290q144 0 250.5 44t172.5 127.5t98 197t32 258.5q0 143 -32.5 256.5t-98.5 196.5t-173 127.5t-249 44.5h-290zM365 1683
h64l223 -175h5l222 175h61l-253 -205h-62z" />
    <glyph glyph-name="dcaron" unicode="&#x10f;" horiz-adv-x="1196" 
d="M1135 1436h60l-20 -488h-40v488zM513 1048q80 0 145 -24t104.5 -62t62.5 -74t34 -71h4v618h56v-1435h-56v216h-4q-5 -21 -17.5 -46.5t-40.5 -60t-65 -62t-96.5 -46.5t-128.5 -19q-170 0 -279.5 117.5t-109.5 312.5v204q0 106 32.5 190.5t88 136t124.5 78.5t146 27z
M513 995q-65 0 -123.5 -23.5t-106.5 -70t-76 -124t-28 -176.5v-177q0 -181 95.5 -285t238.5 -104q66 0 123 21.5t98.5 58.5t70.5 86t43.5 105.5t14.5 115.5v181q0 168 -96.5 280t-253.5 112z" />
    <glyph glyph-name="Dcroat" unicode="&#x110;" horiz-adv-x="1350" 
d="M596 0h-345v670h-159v53h159v635h345q159 0 277.5 -48t191 -138t108 -213t35.5 -279q0 -158 -34.5 -280.5t-106 -213t-190.5 -138.5t-281 -48zM308 53h290q144 0 250.5 44t172.5 127.5t98 197t32 258.5q0 143 -32.5 256.5t-98.5 196.5t-173 127.5t-249 44.5h-290v-582
h374v-53h-374v-617z" />
    <glyph glyph-name="dcroat" unicode="&#x111;" horiz-adv-x="1094" 
d="M522 995q-147 0 -245 -104t-98 -287v-173q0 -99 29 -177t78 -124.5t109 -70.5t127 -24q153 0 247 113t94 281v177q0 101 -38 188t-117.5 144t-185.5 57zM859 213q-11 -36 -35 -72.5t-63.5 -74t-102 -61t-136.5 -23.5q-62 0 -120 16.5t-109 52t-88.5 86.5t-59.5 123.5
t-22 159.5v192q0 198 112 317t287 119q66 0 123 -19t93 -46.5t63.5 -61.5t40 -60t17.5 -47h4v434h-242v53h242v134h57v-134h127v-53h-127v-1248h-57v213h-4z" />
    <glyph glyph-name="Emacron" unicode="&#x112;" horiz-adv-x="1067" 
d="M963 53v-53h-765v1358h765v-53h-708v-582h674v-53h-674v-617h708zM847 1525h-538v44h538v-44z" />
    <glyph glyph-name="emacron" unicode="&#x113;" horiz-adv-x="1042" 
d="M533 -18q-191 0 -298.5 123t-107.5 348v107q0 238 107 363t288 125t288 -125t107 -363v-42h-734v-61q0 -203 94 -312.5t257 -109.5q74 0 134 21t96.5 54t57 70.5t24.5 74.5h56q-4 -45 -27.5 -90.5t-66 -87.5t-114.5 -68.5t-161 -26.5zM183 569h678v4q0 200 -92 311
t-247 111t-247 -111t-92 -311v-4zM792 1258h-558v44h558v-44z" />
    <glyph glyph-name="Ebreve" unicode="&#x114;" horiz-adv-x="1067" 
d="M963 53v-53h-765v1358h765v-53h-708v-582h674v-53h-674v-617h708zM315 1704h52q0 -82 56 -127.5t155 -45.5q98 0 150 45t52 128h52q0 -94 -65.5 -157.5t-188.5 -63.5q-124 0 -193.5 62.5t-69.5 158.5z" />
    <glyph glyph-name="ebreve" unicode="&#x115;" horiz-adv-x="1042" 
d="M533 -18q-191 0 -298.5 123t-107.5 348v107q0 238 107 363t288 125t288 -125t107 -363v-42h-734v-61q0 -203 94 -312.5t257 -109.5q74 0 134 21t96.5 54t57 70.5t24.5 74.5h56q-4 -45 -27.5 -90.5t-66 -87.5t-114.5 -68.5t-161 -26.5zM183 569h678v4q0 200 -92 311
t-247 111t-247 -111t-92 -311v-4zM251 1437h52q0 -83 57 -134.5t154 -51.5q96 0 149 51t53 135h52q0 -96 -66 -165t-188 -69q-123 0 -193 68.5t-70 165.5z" />
    <glyph glyph-name="Edotaccent" unicode="&#x116;" horiz-adv-x="1067" 
d="M963 53v-53h-765v1358h765v-53h-708v-582h674v-53h-674v-617h708zM515 1655q0 27 18 45t43 18q27 0 45.5 -18t18.5 -45q0 -26 -18.5 -43.5t-45.5 -17.5q-25 0 -43 17.5t-18 43.5z" />
    <glyph glyph-name="edotaccent" unicode="&#x117;" horiz-adv-x="1042" 
d="M533 -18q-191 0 -298.5 123t-107.5 348v107q0 238 107 363t288 125t288 -125t107 -363v-42h-734v-61q0 -203 94 -312.5t257 -109.5q74 0 134 21t96.5 54t57 70.5t24.5 74.5h56q-4 -45 -27.5 -90.5t-66 -87.5t-114.5 -68.5t-161 -26.5zM183 569h678v4q0 200 -92 311
t-247 111t-247 -111t-92 -311v-4zM458 1327q0 27 18 45t43 18q27 0 45.5 -18t18.5 -45q0 -26 -18.5 -43.5t-45.5 -17.5q-25 0 -43 17.5t-18 43.5z" />
    <glyph glyph-name="Eogonek" unicode="&#x118;" horiz-adv-x="1067" 
d="M963 -352q-34 -18 -93 -18q-64 0 -108.5 40.5t-44.5 115.5q0 130 129 214h-648v1358h765v-53h-708v-582h674v-53h-674v-617h708v-53q-190 -64 -190 -210q0 -51 29.5 -81t76.5 -30t84 15v-46z" />
    <glyph glyph-name="eogonek" unicode="&#x119;" horiz-adv-x="1042" 
d="M704 29q-60 -47 -171 -47q-191 0 -298.5 123t-107.5 348v107q0 238 107 363t288 125t288 -125t107 -363v-42h-734v-61q0 -203 94 -312.5t257 -109.5q74 0 134 21t96.5 54t57 70.5t24.5 74.5h56q-7 -87 -79 -164q-6 -6 -30.5 -31.5t-31.5 -33.5t-27 -30.5t-27 -33
t-20 -31.5t-17.5 -36t-9 -35.5t-4.5 -40.5q0 -55 37.5 -88t96.5 -33q48 0 88 15v-43q-38 -21 -103 -21q-74 0 -124.5 43.5t-50.5 122.5q0 60 26.5 105.5t82.5 104.5zM183 569h678v4q0 200 -92 311t-247 111t-247 -111t-92 -311v-4z" />
    <glyph glyph-name="Ecaron" unicode="&#x11a;" horiz-adv-x="1067" 
d="M963 53v-53h-765v1358h765v-53h-708v-582h674v-53h-674v-617h708zM294 1683h64l223 -175h5l222 175h61l-253 -205h-62z" />
    <glyph glyph-name="ecaron" unicode="&#x11b;" horiz-adv-x="1042" 
d="M533 -18q-191 0 -298.5 123t-107.5 348v107q0 238 107 363t288 125t288 -125t107 -363v-42h-734v-61q0 -203 94 -312.5t257 -109.5q74 0 134 21t96.5 54t57 70.5t24.5 74.5h56q-4 -45 -27.5 -90.5t-66 -87.5t-114.5 -68.5t-161 -26.5zM183 569h678v4q0 200 -92 311
t-247 111t-247 -111t-92 -311v-4zM256 1553h55l208 -295h5l202 295h57l-233 -335h-54z" />
    <glyph glyph-name="Gcircumflex" unicode="&#x11c;" horiz-adv-x="1261" 
d="M1114 1025h-53q0 39 -14.5 80.5t-46.5 83.5t-78 75t-116.5 53.5t-153.5 20.5q-208 0 -330.5 -145t-122.5 -385v-241q0 -159 48 -280t152 -194t253 -73q190 0 302 96.5t112 271.5v202h-421v52h474v-254q0 -202 -128 -311t-339 -109q-129 0 -228 46.5t-160 128.5t-91.5 189
t-30.5 235v241q0 264 136.5 423t374.5 159q113 0 203.5 -32.5t145 -86t83.5 -117t29 -129.5zM347 1498l276 205h29l270 -205h-75l-208 156h-5l-208 -156h-79z" />
    <glyph glyph-name="gcircumflex" unicode="&#x11d;" horiz-adv-x="1090" 
d="M527 -298q157 0 247 78.5t90 204.5v287h-4q-5 -21 -17.5 -46.5t-40.5 -60t-65 -62t-95.5 -46.5t-127.5 -19q-171 0 -281 117.5t-110 312.5v148q0 106 32.5 190.5t88.5 136t125.5 78.5t146.5 27q79 0 143.5 -24t104 -62t62.5 -74t34 -71h4v213h56v-1043
q0 -151 -105.5 -244.5t-288.5 -93.5q-91 0 -164 25t-116 65t-65.5 86t-24.5 93h57q6 -82 88 -149t226 -67zM516 995q-66 0 -124.5 -23.5t-106.5 -70t-76.5 -124t-28.5 -176.5v-121q0 -181 96 -285t240 -104q108 0 189 56t120 142t39 187v129q0 167 -96 278.5t-252 111.5z
M282 1239l240 335h54l233 -335h-57l-202 295h-5l-208 -295h-55z" />
    <glyph glyph-name="Gbreve" unicode="&#x11e;" horiz-adv-x="1261" 
d="M1114 1025h-53q0 39 -14.5 80.5t-46.5 83.5t-78 75t-116.5 53.5t-153.5 20.5q-208 0 -330.5 -145t-122.5 -385v-241q0 -159 48 -280t152 -194t253 -73q190 0 302 96.5t112 271.5v202h-421v52h474v-254q0 -202 -128 -311t-339 -109q-129 0 -228 46.5t-160 128.5t-91.5 189
t-30.5 235v241q0 264 136.5 423t374.5 159q113 0 203.5 -32.5t145 -86t83.5 -117t29 -129.5zM368 1704h52q0 -82 56 -127.5t155 -45.5q98 0 150 45t52 128h52q0 -94 -65.5 -157.5t-188.5 -63.5q-124 0 -193.5 62.5t-69.5 158.5z" />
    <glyph glyph-name="gbreve" unicode="&#x11f;" horiz-adv-x="1090" 
d="M527 -298q157 0 247 78.5t90 204.5v287h-4q-5 -21 -17.5 -46.5t-40.5 -60t-65 -62t-95.5 -46.5t-127.5 -19q-171 0 -281 117.5t-110 312.5v148q0 106 32.5 190.5t88.5 136t125.5 78.5t146.5 27q79 0 143.5 -24t104 -62t62.5 -74t34 -71h4v213h56v-1043
q0 -151 -105.5 -244.5t-288.5 -93.5q-91 0 -164 25t-116 65t-65.5 86t-24.5 93h57q6 -82 88 -149t226 -67zM516 995q-66 0 -124.5 -23.5t-106.5 -70t-76.5 -124t-28.5 -176.5v-121q0 -181 96 -285t240 -104q108 0 189 56t120 142t39 187v129q0 167 -96 278.5t-252 111.5z
M275 1437h52q0 -83 57 -134.5t154 -51.5q96 0 149 51t53 135h52q0 -96 -66 -165t-188 -69q-123 0 -193 68.5t-70 165.5z" />
    <glyph glyph-name="Gdotaccent" unicode="&#x120;" horiz-adv-x="1261" 
d="M1114 1025h-53q0 39 -14.5 80.5t-46.5 83.5t-78 75t-116.5 53.5t-153.5 20.5q-208 0 -330.5 -145t-122.5 -385v-241q0 -159 48 -280t152 -194t253 -73q190 0 302 96.5t112 271.5v202h-421v52h474v-254q0 -202 -128 -311t-339 -109q-129 0 -228 46.5t-160 128.5t-91.5 189
t-30.5 235v241q0 264 136.5 423t374.5 159q113 0 203.5 -32.5t145 -86t83.5 -117t29 -129.5zM568 1655q0 27 18 45t43 18q27 0 45.5 -18t18.5 -45q0 -26 -18.5 -43.5t-45.5 -17.5q-25 0 -43 17.5t-18 43.5z" />
    <glyph glyph-name="gdotaccent" unicode="&#x121;" horiz-adv-x="1090" 
d="M527 -298q157 0 247 78.5t90 204.5v287h-4q-5 -21 -17.5 -46.5t-40.5 -60t-65 -62t-95.5 -46.5t-127.5 -19q-171 0 -281 117.5t-110 312.5v148q0 106 32.5 190.5t88.5 136t125.5 78.5t146.5 27q79 0 143.5 -24t104 -62t62.5 -74t34 -71h4v213h56v-1043
q0 -151 -105.5 -244.5t-288.5 -93.5q-91 0 -164 25t-116 65t-65.5 86t-24.5 93h57q6 -82 88 -149t226 -67zM516 995q-66 0 -124.5 -23.5t-106.5 -70t-76.5 -124t-28.5 -176.5v-121q0 -181 96 -285t240 -104q108 0 189 56t120 142t39 187v129q0 167 -96 278.5t-252 111.5z
M482 1327q0 27 18 45t43 18q27 0 45.5 -18t18.5 -45q0 -26 -18.5 -43.5t-45.5 -17.5q-25 0 -43 17.5t-18 43.5z" />
    <glyph glyph-name="Gcommaaccent" unicode="&#x122;" horiz-adv-x="1261" 
d="M1114 1025h-53q0 39 -14.5 80.5t-46.5 83.5t-78 75t-116.5 53.5t-153.5 20.5q-208 0 -330.5 -145t-122.5 -385v-241q0 -159 48 -280t152 -194t253 -73q190 0 302 96.5t112 271.5v202h-421v52h474v-254q0 -202 -128 -311t-339 -109q-129 0 -228 46.5t-160 128.5t-91.5 189
t-30.5 235v241q0 264 136.5 423t374.5 159q113 0 203.5 -32.5t145 -86t83.5 -117t29 -129.5zM556 -479h-38l85 335h67z" />
    <glyph glyph-name="gcommaaccent" unicode="&#x123;" horiz-adv-x="1090" 
d="M627 1563h38l-85 -335h-67zM527 -298q157 0 247 78.5t90 204.5v287h-4q-5 -21 -17.5 -46.5t-40.5 -60t-65 -62t-95.5 -46.5t-127.5 -19q-171 0 -281 117.5t-110 312.5v148q0 106 32.5 190.5t88.5 136t125.5 78.5t146.5 27q79 0 143.5 -24t104 -62t62.5 -74t34 -71h4v213
h56v-1043q0 -151 -105.5 -244.5t-288.5 -93.5q-91 0 -164 25t-116 65t-65.5 86t-24.5 93h57q6 -82 88 -149t226 -67zM516 995q-66 0 -124.5 -23.5t-106.5 -70t-76.5 -124t-28.5 -176.5v-121q0 -181 96 -285t240 -104q108 0 189 56t120 142t39 187v129q0 167 -96 278.5
t-252 111.5z" />
    <glyph glyph-name="Hcircumflex" unicode="&#x124;" horiz-adv-x="1326" 
d="M1128 0h-57v689h-816v-689h-57v1358h57v-617h816v617h57v-1358zM379 1498l276 205h29l270 -205h-75l-208 156h-5l-208 -156h-79z" />
    <glyph glyph-name="hcircumflex" unicode="&#x125;" horiz-adv-x="1100" 
d="M174 0v1435h56v-615h4q27 93 116 160.5t228 67.5q157 0 256 -98t99 -271v-679h-56v673q0 140 -80.5 231t-220.5 91q-109 0 -189.5 -54t-118.5 -136t-38 -178v-627h-56zM-61 1644l240 335h54l233 -335h-57l-202 295h-5l-208 -295h-55z" />
    <glyph glyph-name="Hbar" unicode="&#x126;" horiz-adv-x="1326" 
d="M255 741h816v286h-816v-286zM255 689v-689h-57v1027h-141v49h141v282h57v-282h816v282h57v-282h149v-49h-149v-1027h-57v689h-816z" />
    <glyph glyph-name="hbar" unicode="&#x127;" horiz-adv-x="1100" 
d="M230 627v-627h-56v1252h-130v49h130v134h56v-134h230v-49h-230v-432h4q27 93 116 160.5t228 67.5q157 0 256 -98t99 -271v-679h-56v673q0 140 -80.5 231t-220.5 91q-109 0 -189.5 -54t-118.5 -136t-38 -178z" />
    <glyph glyph-name="Itilde" unicode="&#x128;" horiz-adv-x="493" 
d="M275 0h-57v1358h57v-1358zM212 1568q-29 41 -54.5 61t-57.5 20q-97 0 -97 -141h-44q0 90 37.5 137t106.5 47q44 0 76 -21t72 -71q28 -37 51 -51.5t57 -14.5q46 0 77.5 40.5t31.5 108.5h45q0 -85 -44 -138t-110 -53q-50 0 -80.5 18t-66.5 58z" />
    <glyph glyph-name="itilde" unicode="&#x129;" horiz-adv-x="393" 
d="M168 0v1030h56v-1030h-56zM161 1301q-37 46 -66.5 69.5t-66.5 23.5q-51 0 -81 -40t-30 -122h-51q0 106 43 159t122 53q51 0 87.5 -23.5t81.5 -82.5q32 -41 60 -57t68 -16q52 0 88 46t36 124h52q0 -97 -50.5 -158t-125.5 -61q-60 0 -96.5 20.5t-70.5 64.5z" />
    <glyph glyph-name="Imacron" unicode="&#x12a;" horiz-adv-x="493" 
d="M275 0h-57v1358h57v-1358zM516 1525h-538v44h538v-44z" />
    <glyph glyph-name="imacron" unicode="&#x12b;" horiz-adv-x="393" 
d="M168 0v1030h56v-1030h-56zM468 1258h-558v44h558v-44z" />
    <glyph glyph-name="Ibreve" unicode="&#x12c;" horiz-adv-x="493" 
d="M275 0h-57v1358h57v-1358zM-16 1704h52q0 -82 56 -127.5t155 -45.5q98 0 150 45t52 128h52q0 -94 -65.5 -157.5t-188.5 -63.5q-124 0 -193.5 62.5t-69.5 158.5z" />
    <glyph glyph-name="ibreve" unicode="&#x12d;" horiz-adv-x="393" 
d="M168 0v1030h56v-1030h-56zM-73 1437h52q0 -83 57 -134.5t154 -51.5q96 0 149 51t53 135h52q0 -96 -66 -165t-188 -69q-123 0 -193 68.5t-70 165.5z" />
    <glyph glyph-name="Iogonek" unicode="&#x12e;" horiz-adv-x="493" 
d="M321 -349q-34 -21 -101 -21q-64 0 -105.5 40.5t-41.5 115.5q0 124 145 234v1338h57v-1358q-146 -92 -146 -210q0 -51 29.5 -81t76.5 -30q49 0 86 15v-43z" />
    <glyph glyph-name="iogonek" unicode="&#x12f;" horiz-adv-x="437" 
d="M292 -330q-34 -21 -101 -21q-64 0 -105.5 40.5t-41.5 115.5q0 124 146 234v991h56v-1011q-146 -92 -146 -210q0 -51 29.5 -81t76.5 -30q49 0 86 15v-43zM158 1329q0 26 17.5 43.5t42.5 17.5q26 0 43.5 -18t17.5 -43t-17.5 -42.5t-43.5 -17.5t-43 17.5t-17 42.5z" />
    <glyph glyph-name="Idotaccent" unicode="&#x130;" horiz-adv-x="493" 
d="M275 0h-57v1358h57v-1358zM184 1655q0 27 18 45t43 18q27 0 45.5 -18t18.5 -45q0 -26 -18.5 -43.5t-45.5 -17.5q-25 0 -43 17.5t-18 43.5z" />
    <glyph glyph-name="dotlessi" unicode="&#x131;" horiz-adv-x="393" 
d="M168 0v1030h56v-1030h-56z" />
    <glyph glyph-name="Jcircumflex" unicode="&#x134;" horiz-adv-x="893" 
d="M41 293h57q0 -41 13.5 -82.5t43 -82.5t87 -67t135.5 -26q128 0 206.5 80t78.5 236v1007h57v-1008q0 -182 -93 -274.5t-251 -92.5q-75 0 -134.5 21t-96 53.5t-60.5 75t-33.5 82t-9.5 78.5zM407 1498l276 205h29l270 -205h-75l-208 156h-5l-208 -156h-79z" />
    <glyph glyph-name="jcircumflex" unicode="&#x135;" horiz-adv-x="437" 
d="M246 1030v-1110q0 -132 -50 -189.5t-154 -57.5q-42 0 -68 7v53q33 -7 65 -7q80 0 115.5 42.5t35.5 147.5v1114h56zM-42 1226l240 335h54l233 -335h-57l-202 295h-5l-208 -295h-55z" />
    <glyph glyph-name="Kcommaaccent" unicode="&#x136;" horiz-adv-x="1089" 
d="M1037 1358l-573 -612l607 -746h-74l-574 709l-168 -177v-532h-57v1358h57v-749h1l706 749h75zM470 -479h-38l85 335h67z" />
    <glyph glyph-name="kcommaaccent" unicode="&#x137;" horiz-adv-x="993" 
d="M230 433v-433h-56v1435h56v-931h4l590 545h76l-470 -437l485 -612h-73l-455 574zM422 -479h-38l85 335h67z" />
    <glyph glyph-name="Lacute" unicode="&#x139;" horiz-adv-x="1022" 
d="M952 52v-52h-754v1358h57v-1306h697zM118 1512l315 250h81l-326 -250h-70z" />
    <glyph glyph-name="lacute" unicode="&#x13a;" horiz-adv-x="436" 
d="M190 0v1435h56v-1435h-56zM225 1616h-46l246 301h65z" />
    <glyph glyph-name="Lcommaaccent" unicode="&#x13b;" horiz-adv-x="1022" 
d="M952 52v-52h-754v1358h57v-1306h697zM456 -479h-38l85 335h67z" />
    <glyph glyph-name="lcommaaccent" unicode="&#x13c;" horiz-adv-x="436" 
d="M190 0v1435h56v-1435h-56zM143 -479h-38l85 335h67z" />
    <glyph glyph-name="Lcaron" unicode="&#x13d;" horiz-adv-x="1022" 
d="M612 1436h60l-20 -488h-40v488zM952 52v-52h-754v1358h57v-1306h697z" />
    <glyph glyph-name="lcaron" unicode="&#x13e;" horiz-adv-x="531" 
d="M479 1436h60l-20 -488h-40v488zM190 0v1435h56v-1435h-56z" />
    <glyph glyph-name="Lslash" unicode="&#x141;" horiz-adv-x="1022" 
d="M952 0h-754v598l-155 -91v56l155 91v704h57v-670l465 274v-58l-465 -273v-579h697v-52z" />
    <glyph glyph-name="lslash" unicode="&#x142;" horiz-adv-x="436" 
d="M246 0h-56v682l-195 -154v63l195 154v690h56v-646l204 161v-62l-204 -161v-727z" />
    <glyph glyph-name="Nacute" unicode="&#x143;" horiz-adv-x="1326" 
d="M255 0h-57v1358h60l809 -1256h4v1256h57v-1358h-60l-809 1256h-4v-1256zM555 1512l315 250h81l-326 -250h-70z" />
    <glyph glyph-name="nacute" unicode="&#x144;" horiz-adv-x="1085" 
d="M170 0v1030h56v-210h4q27 93 115 160.5t227 67.5q157 0 255 -97.5t98 -271.5v-679h-56v673q0 140 -79.5 231t-219.5 91q-109 0 -189 -54t-117.5 -136t-37.5 -178v-627h-56zM550 1211h-46l246 301h65z" />
    <glyph glyph-name="Ncommaaccent" unicode="&#x145;" horiz-adv-x="1326" 
d="M255 0h-57v1358h60l809 -1256h4v1256h57v-1358h-60l-809 1256h-4v-1256zM588 -479h-38l85 335h67z" />
    <glyph glyph-name="ncommaaccent" unicode="&#x146;" horiz-adv-x="1085" 
d="M170 0v1030h56v-210h4q27 93 115 160.5t227 67.5q157 0 255 -97.5t98 -271.5v-679h-56v673q0 140 -79.5 231t-219.5 91q-109 0 -189 -54t-117.5 -136t-37.5 -178v-627h-56zM468 -479h-38l85 335h67z" />
    <glyph glyph-name="Ncaron" unicode="&#x147;" horiz-adv-x="1326" 
d="M255 0h-57v1358h60l809 -1256h4v1256h57v-1358h-60l-809 1256h-4v-1256zM379 1683h64l223 -175h5l222 175h61l-253 -205h-62z" />
    <glyph glyph-name="ncaron" unicode="&#x148;" horiz-adv-x="1085" 
d="M170 0v1030h56v-210h4q27 93 115 160.5t227 67.5q157 0 255 -97.5t98 -271.5v-679h-56v673q0 140 -79.5 231t-219.5 91q-109 0 -189 -54t-117.5 -136t-37.5 -178v-627h-56zM278 1553h55l208 -295h5l202 295h57l-233 -335h-54z" />
    <glyph glyph-name="Omacron" unicode="&#x14c;" horiz-adv-x="1310" 
d="M198 815v-272q0 -234 122 -378.5t335 -144.5t335 144.5t122 378.5v272q0 233 -122.5 378t-334.5 145t-334.5 -145t-122.5 -378zM142 551v256q0 267 135 425t378 158t378 -159t135 -426v-254q0 -267 -135 -425t-378 -158t-378 158t-135 425zM924 1525h-538v44h538v-44z
" />
    <glyph glyph-name="omacron" unicode="&#x14d;" 
d="M539 1048q178 0 297 -120.5t119 -333.5v-163q0 -109 -32.5 -195.5t-89.5 -141.5t-132 -83.5t-162 -28.5t-162 29t-131.5 84t-88.5 141t-32 195v163q0 217 116 335.5t298 118.5zM539 995q-158 0 -258 -106.5t-100 -303.5v-145q0 -196 99.5 -300.5t259.5 -104.5
q158 0 258 104t100 301v145q0 195 -101 302.5t-258 107.5zM811 1258h-558v44h558v-44z" />
    <glyph glyph-name="Obreve" unicode="&#x14e;" horiz-adv-x="1310" 
d="M198 815v-272q0 -234 122 -378.5t335 -144.5t335 144.5t122 378.5v272q0 233 -122.5 378t-334.5 145t-334.5 -145t-122.5 -378zM142 551v256q0 267 135 425t378 158t378 -159t135 -426v-254q0 -267 -135 -425t-378 -158t-378 158t-135 425zM392 1704h52q0 -82 56 -127.5
t155 -45.5q98 0 150 45t52 128h52q0 -94 -65.5 -157.5t-188.5 -63.5q-124 0 -193.5 62.5t-69.5 158.5z" />
    <glyph glyph-name="obreve" unicode="&#x14f;" 
d="M539 1048q178 0 297 -120.5t119 -333.5v-163q0 -109 -32.5 -195.5t-89.5 -141.5t-132 -83.5t-162 -28.5t-162 29t-131.5 84t-88.5 141t-32 195v163q0 217 116 335.5t298 118.5zM539 995q-158 0 -258 -106.5t-100 -303.5v-145q0 -196 99.5 -300.5t259.5 -104.5
q158 0 258 104t100 301v145q0 195 -101 302.5t-258 107.5zM270 1437h52q0 -83 57 -134.5t154 -51.5q96 0 149 51t53 135h52q0 -96 -66 -165t-188 -69q-123 0 -193 68.5t-70 165.5z" />
    <glyph glyph-name="Ohungarumlaut" unicode="&#x150;" horiz-adv-x="1310" 
d="M198 815v-272q0 -234 122 -378.5t335 -144.5t335 144.5t122 378.5v272q0 233 -122.5 378t-334.5 145t-334.5 -145t-122.5 -378zM142 551v256q0 267 135 425t378 158t378 -159t135 -426v-254q0 -267 -135 -425t-378 -158t-378 158t-135 425zM455 1514l315 250h81
l-326 -250h-70zM715 1514l315 250h81l-326 -250h-70z" />
    <glyph glyph-name="ohungarumlaut" unicode="&#x151;" 
d="M539 1048q178 0 297 -120.5t119 -333.5v-163q0 -109 -32.5 -195.5t-89.5 -141.5t-132 -83.5t-162 -28.5t-162 29t-131.5 84t-88.5 141t-32 195v163q0 217 116 335.5t298 118.5zM539 995q-158 0 -258 -106.5t-100 -303.5v-145q0 -196 99.5 -300.5t259.5 -104.5
q158 0 258 104t100 301v145q0 195 -101 302.5t-258 107.5zM448 1211h-46l246 301h65zM651 1211h-46l246 301h65z" />
    <glyph glyph-name="OE" unicode="&#x152;" horiz-adv-x="1982" 
d="M198 815v-272q0 -235 118 -379t330 -144q135 0 238 65.5t155.5 172.5t52.5 237v377q0 92 -30 175t-85 148.5t-141 104t-190 38.5q-211 0 -329.5 -144.5t-118.5 -378.5zM646 -32q-242 0 -373 157.5t-131 425.5v256q0 268 131 425.5t373 157.5q160 0 277 -74.5t166 -195.5
h4v238h765v-53h-708v-582h674v-53h-674v-617h708v-53h-765v247h-4q-125 -279 -443 -279z" />
    <glyph glyph-name="oe" unicode="&#x153;" horiz-adv-x="1814" 
d="M1305 -18q-140 0 -236.5 67.5t-138.5 194.5h-4q-45 -127 -148.5 -194.5t-238.5 -67.5q-87 0 -162 29t-131.5 84t-88.5 141t-32 195v163q0 217 116 335.5t298 118.5q134 0 237.5 -70t149.5 -199h4q42 133 136.5 201t227.5 68q180 0 284.5 -124.5t104.5 -363.5v-42h-728
v-61q0 -203 94 -312.5t257 -109.5q74 0 135 21t99 54.5t60 70.5t27 74h56q-4 -44 -29.5 -90t-69.5 -88t-117 -68.5t-162 -26.5zM539 995q-158 0 -258 -106.5t-100 -303.5v-145q0 -196 99.5 -300.5t259.5 -104.5q158 0 258 104t100 301v145q0 195 -101 302.5t-258 107.5z
M955 569h672v4q0 200 -89 311t-244 111t-247 -111t-92 -311v-4z" />
    <glyph glyph-name="Racute" unicode="&#x154;" horiz-adv-x="1181" 
d="M632 1358q185 0 295 -102t110 -273q0 -150 -81.5 -242.5t-218.5 -121.5l322 -619h-66l-318 608h-420v-608h-57v1358h434zM255 659h368q162 0 259 87.5t97 236.5q0 150 -96 237t-260 87h-368v-648zM483 1512l315 250h81l-326 -250h-70z" />
    <glyph glyph-name="racute" unicode="&#x155;" horiz-adv-x="660" 
d="M170 0v1030h56v-213h4q7 39 29 77.5t58 73.5t94 56.5t127 21.5q48 0 92 -8v-56q-37 11 -96 11q-60 0 -114 -21.5t-98 -63.5t-70 -113.5t-26 -163.5v-631h-56zM337 1211h-46l246 301h65z" />
    <glyph glyph-name="Rcommaaccent" unicode="&#x156;" horiz-adv-x="1181" 
d="M632 1358q185 0 295 -102t110 -273q0 -150 -81.5 -242.5t-218.5 -121.5l322 -619h-66l-318 608h-420v-608h-57v1358h434zM255 659h368q162 0 259 87.5t97 236.5q0 150 -96 237t-260 87h-368v-648zM516 -479h-38l85 335h67z" />
    <glyph glyph-name="rcommaaccent" unicode="&#x157;" horiz-adv-x="660" 
d="M170 0v1030h56v-213h4q7 39 29 77.5t58 73.5t94 56.5t127 21.5q48 0 92 -8v-56q-37 11 -96 11q-60 0 -114 -21.5t-98 -63.5t-70 -113.5t-26 -163.5v-631h-56zM123 -479h-38l85 335h67z" />
    <glyph glyph-name="Rcaron" unicode="&#x158;" horiz-adv-x="1181" 
d="M632 1358q185 0 295 -102t110 -273q0 -150 -81.5 -242.5t-218.5 -121.5l322 -619h-66l-318 608h-420v-608h-57v1358h434zM255 659h368q162 0 259 87.5t97 236.5q0 150 -96 237t-260 87h-368v-648zM307 1683h64l223 -175h5l222 175h61l-253 -205h-62z" />
    <glyph glyph-name="rcaron" unicode="&#x159;" horiz-adv-x="660" 
d="M170 0v1030h56v-213h4q7 39 29 77.5t58 73.5t94 56.5t127 21.5q48 0 92 -8v-56q-37 11 -96 11q-60 0 -114 -21.5t-98 -63.5t-70 -113.5t-26 -163.5v-631h-56zM65 1553h55l208 -295h5l202 295h57l-233 -335h-54z" />
    <glyph glyph-name="Sacute" unicode="&#x15a;" horiz-adv-x="1140" 
d="M112 338h59q1 -39 13 -79.5t42 -84t74 -77t115.5 -55t159.5 -21.5q176 0 286 88.5t110 224.5q0 68 -21.5 118t-69 86t-106.5 61t-149 49l-157 42q-153 41 -231.5 122.5t-78.5 219.5q0 161 114.5 259.5t311.5 98.5q101 0 182 -27.5t131.5 -74.5t77 -105t26.5 -123h-59
q-1 38 -13 75.5t-40 74t-68 64.5t-101.5 45.5t-135.5 17.5q-171 0 -268.5 -84t-97.5 -222q0 -121 69.5 -186.5t216.5 -105.5l150 -41q98 -27 162.5 -54.5t115.5 -69t74.5 -99.5t23.5 -138q0 -168 -127 -268.5t-333 -100.5q-98 0 -178.5 24.5t-131 63t-85 89t-49 98.5
t-14.5 95zM462 1512l315 250h81l-326 -250h-70z" />
    <glyph glyph-name="sacute" unicode="&#x15b;" horiz-adv-x="950" 
d="M137 779q0 126 93 197.5t243 71.5q75 0 136 -18t98.5 -46.5t63 -65t35.5 -70.5t10 -66h-56q0 24 -8.5 51t-29.5 56.5t-52 52.5t-82 38t-114 15q-119 0 -198.5 -55.5t-79.5 -157.5q0 -91 67 -141.5t217 -90.5q164 -44 226 -76q119 -62 129 -181q1 -12 1 -24
q0 -95 -53 -161.5t-134.5 -96t-181.5 -29.5q-81 0 -147 18.5t-106.5 47.5t-67.5 67t-38 74.5t-11 71.5h56q0 -27 9 -55.5t32 -59.5t57 -55t90 -40t126 -16q61 0 115.5 13.5t98.5 40.5t70 72t26 103q0 28 -6.5 52t-21.5 43t-29.5 34t-42 29t-46 22.5t-53.5 19.5t-54 16
t-58 15q-82 21 -138.5 43.5t-102 55.5t-67 78.5t-21.5 106.5zM482 1211h-46l246 301h65z" />
    <glyph glyph-name="Scircumflex" unicode="&#x15c;" horiz-adv-x="1140" 
d="M112 338h59q1 -39 13 -79.5t42 -84t74 -77t115.5 -55t159.5 -21.5q176 0 286 88.5t110 224.5q0 68 -21.5 118t-69 86t-106.5 61t-149 49l-157 42q-153 41 -231.5 122.5t-78.5 219.5q0 161 114.5 259.5t311.5 98.5q101 0 182 -27.5t131.5 -74.5t77 -105t26.5 -123h-59
q-1 38 -13 75.5t-40 74t-68 64.5t-101.5 45.5t-135.5 17.5q-171 0 -268.5 -84t-97.5 -222q0 -121 69.5 -186.5t216.5 -105.5l150 -41q98 -27 162.5 -54.5t115.5 -69t74.5 -99.5t23.5 -138q0 -168 -127 -268.5t-333 -100.5q-98 0 -178.5 24.5t-131 63t-85 89t-49 98.5
t-14.5 95zM286 1498l276 205h29l270 -205h-75l-208 156h-5l-208 -156h-79z" />
    <glyph glyph-name="scircumflex" unicode="&#x15d;" horiz-adv-x="950" 
d="M137 779q0 126 93 197.5t243 71.5q75 0 136 -18t98.5 -46.5t63 -65t35.5 -70.5t10 -66h-56q0 24 -8.5 51t-29.5 56.5t-52 52.5t-82 38t-114 15q-119 0 -198.5 -55.5t-79.5 -157.5q0 -91 67 -141.5t217 -90.5q164 -44 226 -76q119 -62 129 -181q1 -12 1 -24
q0 -95 -53 -161.5t-134.5 -96t-181.5 -29.5q-81 0 -147 18.5t-106.5 47.5t-67.5 67t-38 74.5t-11 71.5h56q0 -27 9 -55.5t32 -59.5t57 -55t90 -40t126 -16q61 0 115.5 13.5t98.5 40.5t70 72t26 103q0 28 -6.5 52t-21.5 43t-29.5 34t-42 29t-46 22.5t-53.5 19.5t-54 16
t-58 15q-82 21 -138.5 43.5t-102 55.5t-67 78.5t-21.5 106.5zM212 1239l240 335h54l233 -335h-57l-202 295h-5l-208 -295h-55z" />
    <glyph glyph-name="Scedilla" unicode="&#x15e;" horiz-adv-x="1140" 
d="M547 -457q-70 0 -116 16v50q46 -16 122 -16q65 0 113 28.5t48 83.5q0 109 -153 109h-50v39l52 115q-120 1 -211.5 38t-141.5 94.5t-74 118t-24 119.5h59q1 -39 13 -79.5t42 -84t74 -77t115.5 -55t159.5 -21.5q176 0 286 88.5t110 224.5q0 68 -21.5 118t-69 86t-106.5 61
t-149 49l-157 42q-153 41 -231.5 122.5t-78.5 219.5q0 161 114.5 259.5t311.5 98.5q101 0 182 -27.5t131.5 -74.5t77 -105t26.5 -123h-59q-1 38 -13 75.5t-40 74t-68 64.5t-101.5 45.5t-135.5 17.5q-171 0 -268.5 -84t-97.5 -222q0 -121 69.5 -186.5t216.5 -105.5l150 -41
q98 -27 162.5 -54.5t115.5 -69t74.5 -99.5t23.5 -138q0 -158 -113 -257t-301 -111l-47 -108q84 0 144 -37t60 -115q0 -81 -68 -123.5t-158 -42.5z" />
    <glyph glyph-name="scedilla" unicode="&#x15f;" horiz-adv-x="950" 
d="M434 -457q-70 0 -116 16v50q46 -16 122 -16q65 0 113 28.5t48 83.5q0 109 -153 109h-50v39l58 129q-79 1 -142.5 20t-103 48t-66 67t-37 73.5t-10.5 70.5h56q0 -27 9 -55.5t32 -59.5t57 -55t90 -40t126 -16q61 0 115.5 13.5t98.5 40.5t70 72t26 103q0 28 -6.5 52
t-21.5 43t-29.5 34t-42 29t-46 22.5t-53.5 19.5t-54 16t-58 15q-82 21 -138.5 43.5t-102 55.5t-67 78.5t-21.5 106.5q0 126 93 197.5t243 71.5q75 0 136 -18t98.5 -46.5t63 -65t35.5 -70.5t10 -66h-56q0 24 -8.5 51t-29.5 56.5t-52 52.5t-82 38t-114 15q-119 0 -198.5 -55.5
t-79.5 -157.5q0 -91 67 -141.5t217 -90.5q164 -44 226 -76q119 -62 129 -181q1 -12 1 -24q0 -88 -46 -152t-118 -95.5t-163 -38.5l-53 -122q84 0 144 -37t60 -115q0 -81 -68 -123.5t-158 -42.5z" />
    <glyph glyph-name="Scaron" unicode="&#x160;" horiz-adv-x="1140" 
d="M112 338h59q1 -39 13 -79.5t42 -84t74 -77t115.5 -55t159.5 -21.5q176 0 286 88.5t110 224.5q0 68 -21.5 118t-69 86t-106.5 61t-149 49l-157 42q-153 41 -231.5 122.5t-78.5 219.5q0 161 114.5 259.5t311.5 98.5q101 0 182 -27.5t131.5 -74.5t77 -105t26.5 -123h-59
q-1 38 -13 75.5t-40 74t-68 64.5t-101.5 45.5t-135.5 17.5q-171 0 -268.5 -84t-97.5 -222q0 -121 69.5 -186.5t216.5 -105.5l150 -41q98 -27 162.5 -54.5t115.5 -69t74.5 -99.5t23.5 -138q0 -168 -127 -268.5t-333 -100.5q-98 0 -178.5 24.5t-131 63t-85 89t-49 98.5
t-14.5 95zM286 1683h64l223 -175h5l222 175h61l-253 -205h-62z" />
    <glyph glyph-name="scaron" unicode="&#x161;" horiz-adv-x="950" 
d="M137 779q0 126 93 197.5t243 71.5q75 0 136 -18t98.5 -46.5t63 -65t35.5 -70.5t10 -66h-56q0 24 -8.5 51t-29.5 56.5t-52 52.5t-82 38t-114 15q-119 0 -198.5 -55.5t-79.5 -157.5q0 -91 67 -141.5t217 -90.5q164 -44 226 -76q119 -62 129 -181q1 -12 1 -24
q0 -95 -53 -161.5t-134.5 -96t-181.5 -29.5q-81 0 -147 18.5t-106.5 47.5t-67.5 67t-38 74.5t-11 71.5h56q0 -27 9 -55.5t32 -59.5t57 -55t90 -40t126 -16q61 0 115.5 13.5t98.5 40.5t70 72t26 103q0 28 -6.5 52t-21.5 43t-29.5 34t-42 29t-46 22.5t-53.5 19.5t-54 16
t-58 15q-82 21 -138.5 43.5t-102 55.5t-67 78.5t-21.5 106.5zM210 1553h55l208 -295h5l202 295h57l-233 -335h-54z" />
    <glyph glyph-name="Tcedilla" unicode="&#x162;" horiz-adv-x="1021" 
d="M458 -457q-70 0 -116 16v50q46 -16 122 -16q65 0 113 28.5t48 83.5q0 109 -153 109h-50v39l66 147h-5v1305h-471v53h997v-53h-469v-1305l-60 -139q84 0 144 -37t60 -115q0 -81 -68 -123.5t-158 -42.5z" />
    <glyph glyph-name="tcedilla" unicode="&#x163;" horiz-adv-x="671" 
d="M355 -445q-70 0 -116 16v50q46 -16 122 -16q65 0 113 28.5t48 83.5q0 109 -153 109h-50v39l64 143q-83 15 -118 66t-35 155v751h-211v50h211v248h56v-248h300v-50h-300v-766q0 -92 47 -128.5t151 -36.5q70 0 117 7v-48q-53 -8 -113 -8q-21 0 -55 2l-56 -129q84 0 144 -37
t60 -115q0 -81 -68 -123.5t-158 -42.5z" />
    <glyph glyph-name="Tcaron" unicode="&#x164;" horiz-adv-x="1021" 
d="M540 0h-57v1305h-471v53h997v-53h-469v-1305zM227 1683h64l223 -175h5l222 175h61l-253 -205h-62z" />
    <glyph glyph-name="tcaron" unicode="&#x165;" horiz-adv-x="671" 
d="M479 1678h60l-20 -488h-40v488zM230 1030v248h56v-248h300v-50h-300v-766q0 -92 47 -128.5t151 -36.5q70 0 117 7v-48q-53 -8 -113 -8q-143 0 -200.5 49t-57.5 180v751h-211v50h211z" />
    <glyph glyph-name="Tbar" unicode="&#x166;" horiz-adv-x="1021" 
d="M816 703h-276v-703h-57v703h-279v49h279v553h-471v53h997v-53h-469v-553h276v-49z" />
    <glyph glyph-name="tbar" unicode="&#x167;" horiz-adv-x="671" 
d="M601 8q-53 -8 -113 -8q-143 0 -200.5 49t-57.5 180v353h-156v49h156v349h-211v50h211v248h56v-248h300v-50h-300v-349h204v-49h-204v-368q0 -92 47 -128.5t151 -36.5q70 0 117 7v-48z" />
    <glyph glyph-name="Utilde" unicode="&#x168;" horiz-adv-x="1305" 
d="M231 1358v-891q0 -205 109.5 -324.5t311.5 -119.5q204 0 312.5 118.5t108.5 325.5v891h58v-891q0 -230 -126 -364.5t-353 -134.5t-352.5 134.5t-125.5 364.5v891h57zM618 1568q-29 41 -54.5 61t-57.5 20q-97 0 -97 -141h-44q0 90 37.5 137t106.5 47q44 0 76 -21t72 -71
q28 -37 51 -51.5t57 -14.5q46 0 77.5 40.5t31.5 108.5h45q0 -85 -44 -138t-110 -53q-50 0 -80.5 18t-66.5 58z" />
    <glyph glyph-name="utilde" unicode="&#x169;" horiz-adv-x="1085" 
d="M915 1030v-1030h-56v211h-4q-14 -41 -40.5 -79t-67.5 -73t-103 -56t-136 -21q-153 0 -250.5 89.5t-97.5 259.5v699h56v-693q0 -136 79.5 -219t214.5 -83q83 0 151 33t110.5 88.5t65 123t22.5 140.5v610h56zM507 1301q-37 46 -66.5 69.5t-66.5 23.5q-51 0 -81 -40
t-30 -122h-51q0 106 43 159t122 53q51 0 87.5 -23.5t81.5 -82.5q32 -41 60 -57t68 -16q52 0 88 46t36 124h52q0 -97 -50.5 -158t-125.5 -61q-60 0 -96.5 20.5t-70.5 64.5z" />
    <glyph glyph-name="Umacron" unicode="&#x16a;" horiz-adv-x="1305" 
d="M231 1358v-891q0 -205 109.5 -324.5t311.5 -119.5q204 0 312.5 118.5t108.5 325.5v891h58v-891q0 -230 -126 -364.5t-353 -134.5t-352.5 134.5t-125.5 364.5v891h57zM922 1525h-538v44h538v-44z" />
    <glyph glyph-name="umacron" unicode="&#x16b;" horiz-adv-x="1085" 
d="M915 1030v-1030h-56v211h-4q-14 -41 -40.5 -79t-67.5 -73t-103 -56t-136 -21q-153 0 -250.5 89.5t-97.5 259.5v699h56v-693q0 -136 79.5 -219t214.5 -83q83 0 151 33t110.5 88.5t65 123t22.5 140.5v610h56zM814 1258h-558v44h558v-44z" />
    <glyph glyph-name="Ubreve" unicode="&#x16c;" horiz-adv-x="1305" 
d="M231 1358v-891q0 -205 109.5 -324.5t311.5 -119.5q204 0 312.5 118.5t108.5 325.5v891h58v-891q0 -230 -126 -364.5t-353 -134.5t-352.5 134.5t-125.5 364.5v891h57zM390 1704h52q0 -82 56 -127.5t155 -45.5q98 0 150 45t52 128h52q0 -94 -65.5 -157.5t-188.5 -63.5
q-124 0 -193.5 62.5t-69.5 158.5z" />
    <glyph glyph-name="ubreve" unicode="&#x16d;" horiz-adv-x="1085" 
d="M915 1030v-1030h-56v211h-4q-14 -41 -40.5 -79t-67.5 -73t-103 -56t-136 -21q-153 0 -250.5 89.5t-97.5 259.5v699h56v-693q0 -136 79.5 -219t214.5 -83q83 0 151 33t110.5 88.5t65 123t22.5 140.5v610h56zM273 1437h52q0 -83 57 -134.5t154 -51.5q96 0 149 51t53 135h52
q0 -96 -66 -165t-188 -69q-123 0 -193 68.5t-70 165.5z" />
    <glyph glyph-name="Uring" unicode="&#x16e;" horiz-adv-x="1305" 
d="M231 1358v-891q0 -205 109.5 -324.5t311.5 -119.5q204 0 312.5 118.5t108.5 325.5v891h58v-891q0 -230 -126 -364.5t-353 -134.5t-352.5 134.5t-125.5 364.5v891h57zM652 1509q-71 0 -120 49t-49 120q0 70 49 118t120 48q69 0 117.5 -48t48.5 -118t-48.5 -119.5
t-117.5 -49.5zM530 1678q0 -49 36.5 -85.5t85.5 -36.5q51 0 87 36t36 86q0 51 -36 87t-87 36q-49 0 -85.5 -36t-36.5 -87z" />
    <glyph glyph-name="uring" unicode="&#x16f;" horiz-adv-x="1085" 
d="M915 1030v-1030h-56v211h-4q-14 -41 -40.5 -79t-67.5 -73t-103 -56t-136 -21q-153 0 -250.5 89.5t-97.5 259.5v699h56v-693q0 -136 79.5 -219t214.5 -83q83 0 151 33t110.5 88.5t65 123t22.5 140.5v610h56zM542 1181q-71 0 -120 49t-49 120q0 70 49 118t120 48
q69 0 117.5 -48t48.5 -118t-48.5 -119.5t-117.5 -49.5zM420 1350q0 -49 36.5 -85.5t85.5 -36.5q51 0 87 36t36 86q0 51 -36 87t-87 36q-49 0 -85.5 -36t-36.5 -87z" />
    <glyph glyph-name="Uhungarumlaut" unicode="&#x170;" horiz-adv-x="1305" 
d="M231 1358v-891q0 -205 109.5 -324.5t311.5 -119.5q204 0 312.5 118.5t108.5 325.5v891h58v-891q0 -230 -126 -364.5t-353 -134.5t-352.5 134.5t-125.5 364.5v891h57zM453 1514l315 250h81l-326 -250h-70zM713 1514l315 250h81l-326 -250h-70z" />
    <glyph glyph-name="uhungarumlaut" unicode="&#x171;" horiz-adv-x="1085" 
d="M915 1030v-1030h-56v211h-4q-14 -41 -40.5 -79t-67.5 -73t-103 -56t-136 -21q-153 0 -250.5 89.5t-97.5 259.5v699h56v-693q0 -136 79.5 -219t214.5 -83q83 0 151 33t110.5 88.5t65 123t22.5 140.5v610h56zM451 1211h-46l246 301h65zM654 1211h-46l246 301h65z" />
    <glyph glyph-name="Uogonek" unicode="&#x172;" horiz-adv-x="1305" 
d="M907 -370q-74 0 -124.5 43.5t-50.5 122.5q0 111 107 206l-1 2q-104 -36 -186 -36q-227 0 -352.5 134.5t-125.5 364.5v891h57v-891q0 -205 109.5 -324.5t311.5 -119.5q204 0 312.5 118.5t108.5 325.5v891h58v-891q0 -253 -180 -417q-81 -73 -122 -130t-41 -120
q0 -55 37.5 -88t96.5 -33q48 0 88 15v-43q-38 -21 -103 -21z" />
    <glyph glyph-name="uogonek" unicode="&#x173;" horiz-adv-x="1085" 
d="M961 -335q-38 -16 -84 -16q-71 0 -117.5 40t-46.5 115q0 70 38.5 121.5t107.5 103.5v182h-4q-14 -41 -40.5 -79t-67.5 -73t-103 -56t-136 -21q-153 0 -250.5 89.5t-97.5 259.5v699h56v-693q0 -136 79.5 -219t214.5 -83q83 0 151 33t110.5 88.5t65 123t22.5 140.5v610h56
v-1021q-68 -43 -107 -90t-39 -108q0 -53 29.5 -82t83.5 -29q47 0 79 13v-48z" />
    <glyph glyph-name="Wcircumflex" unicode="&#x174;" horiz-adv-x="1675" 
d="M466 0h-69l-356 1358h61l329 -1281h4l372 1281h61l372 -1281h4l329 1281h61l-356 -1358h-69l-369 1269h-5zM554 1498l276 205h29l270 -205h-75l-208 156h-5l-208 -156h-79z" />
    <glyph glyph-name="wcircumflex" unicode="&#x175;" horiz-adv-x="1386" 
d="M1346 1030l-285 -1030h-59l-307 951h-4l-307 -951h-59l-285 1030h62l251 -945h5l305 945h60l305 -945h5l251 945h62zM430 1239l240 335h54l233 -335h-57l-202 295h-5l-208 -295h-55z" />
    <glyph glyph-name="Ycircumflex" unicode="&#x176;" horiz-adv-x="1054" 
d="M556 0h-56v610l-475 748h68l432 -686h6l433 686h65l-473 -746v-612zM243 1498l276 205h29l270 -205h-75l-208 156h-5l-208 -156h-79z" />
    <glyph glyph-name="ycircumflex" unicode="&#x177;" horiz-adv-x="887" 
d="M857 1030l-371 -1028l-49 -129q-41 -108 -96.5 -154t-154.5 -46q-50 0 -93 10v53q48 -10 92 -10q76 0 122 40t74 115l40 107l-386 1042h62l351 -972h4l345 972h60zM181 1239l240 335h54l233 -335h-57l-202 295h-5l-208 -295h-55z" />
    <glyph glyph-name="Ydieresis" unicode="&#x178;" horiz-adv-x="1054" 
d="M556 0h-56v610l-475 748h68l432 -686h6l433 686h65l-473 -746v-612zM331 1567q0 20 15 35.5t37 15.5t36.5 -15.5t14.5 -35.5t-14.5 -36.5t-36.5 -16.5t-37 16.5t-15 36.5zM622 1567q0 20 15 35.5t37 15.5t36.5 -15.5t14.5 -35.5t-14.5 -36.5t-36.5 -16.5t-37 16.5
t-15 36.5z" />
    <glyph glyph-name="Zacute" unicode="&#x179;" horiz-adv-x="1155" 
d="M100 0v49l885 1254v4h-858v51h928v-49l-886 -1254v-5h886v-50h-955zM470 1512l315 250h81l-326 -250h-70z" />
    <glyph glyph-name="zacute" unicode="&#x17a;" horiz-adv-x="970" 
d="M135 0v46l640 930v4h-640v50h710v-50l-639 -926v-4h639v-50h-710zM492 1211h-46l246 301h65z" />
    <glyph glyph-name="Zdotaccent" unicode="&#x17b;" horiz-adv-x="1155" 
d="M100 0v49l885 1254v4h-858v51h928v-49l-886 -1254v-5h886v-50h-955zM515 1655q0 27 18 45t43 18q27 0 45.5 -18t18.5 -45q0 -26 -18.5 -43.5t-45.5 -17.5q-25 0 -43 17.5t-18 43.5z" />
    <glyph glyph-name="zdotaccent" unicode="&#x17c;" horiz-adv-x="970" 
d="M135 0v46l640 930v4h-640v50h710v-50l-639 -926v-4h639v-50h-710zM422 1327q0 27 18 45t43 18q27 0 45.5 -18t18.5 -45q0 -26 -18.5 -43.5t-45.5 -17.5q-25 0 -43 17.5t-18 43.5z" />
    <glyph glyph-name="Zcaron" unicode="&#x17d;" horiz-adv-x="1155" 
d="M100 0v49l885 1254v4h-858v51h928v-49l-886 -1254v-5h886v-50h-955zM294 1683h64l223 -175h5l222 175h61l-253 -205h-62z" />
    <glyph glyph-name="zcaron" unicode="&#x17e;" horiz-adv-x="970" 
d="M135 0v46l640 930v4h-640v50h710v-50l-639 -926v-4h639v-50h-710zM220 1553h55l208 -295h5l202 295h57l-233 -335h-54z" />
    <glyph glyph-name="florin" unicode="&#x192;" horiz-adv-x="1040" 
d="M185 -186l188 1043h-268l9 53h268l39 202q23 126 97 201t190 75q111 0 174.5 -60t72.5 -137h-57q-6 60 -59.5 102t-130.5 42q-189 0 -232 -240l-36 -185h346l-11 -53h-344l-188 -1043h-58z" />
    <glyph glyph-name="Ohorn" unicode="&#x1a0;" horiz-adv-x="1297" 
d="M1168 551q0 -267 -135 -425t-378 -158t-378 158t-135 425v256q0 267 135 425t378 158q78 0 207.5 -33t197.5 -33q74 0 114.5 38t40.5 108v106h54v-104q0 -66 -23.5 -111.5t-62.5 -64.5t-90.5 -23.5t-107.5 11.5l-3 -5q186 -167 186 -474v-254zM198 815v-272
q0 -234 122 -378.5t335 -144.5t335 144.5t122 378.5v272q0 233 -122.5 378t-334.5 145t-334.5 -145t-122.5 -378z" />
    <glyph glyph-name="ohorn" unicode="&#x1a1;" 
d="M539 -18q-87 0 -162 29t-131.5 84t-88.5 141t-32 195v163q0 217 116 335.5t298 118.5q48 0 105.5 -9.5t98.5 -9.5q63 0 111 41.5t48 108.5v106h54v-104q0 -96 -50 -145t-131 -57l-1 -4q82 -59 131.5 -156.5t49.5 -224.5v-163q0 -109 -32.5 -195.5t-89.5 -141.5
t-132 -83.5t-162 -28.5zM539 995q-158 0 -258 -106.5t-100 -303.5v-145q0 -196 99.5 -300.5t259.5 -104.5q158 0 258 104t100 301v145q0 195 -101 302.5t-258 107.5z" />
    <glyph glyph-name="Uhorn" unicode="&#x1af;" horiz-adv-x="1333" 
d="M652 -32q-227 0 -352.5 134.5t-125.5 364.5v891h57v-891q0 -205 109.5 -324.5t311.5 -119.5q204 0 312.5 118.5t108.5 325.5v891h56q75 0 120 39.5t45 109.5v106h54v-104q0 -98 -59 -152.5t-140 -54.5h-18v-835q0 -230 -126 -364.5t-353 -134.5z" />
    <glyph glyph-name="uhorn" unicode="&#x1b0;" horiz-adv-x="1148" 
d="M855 211q-14 -41 -40.5 -79t-67.5 -73t-103 -56t-136 -21q-153 0 -250.5 89.5t-97.5 259.5v699h56v-693q0 -136 79.5 -219t214.5 -83q83 0 151 33t110.5 88.5t65 123t22.5 140.5v610h66q75 0 120 39.5t45 109.5v106h54v-104q0 -106 -61 -155t-156 -49h-12v-977h-56v211
h-4z" />
    <glyph glyph-name="Acaron" unicode="&#x1cd;" horiz-adv-x="1137" 
d="M110 0h-60l487 1358h63l487 -1358h-61l-166 470h-584zM571 1289h-5l-273 -769h549zM285 1683h64l223 -175h5l222 175h61l-253 -205h-62z" />
    <glyph glyph-name="acaron" unicode="&#x1ce;" horiz-adv-x="1003" 
d="M778 178q-8 -26 -31 -56.5t-62 -63.5t-103 -54.5t-139 -21.5q-152 0 -244.5 82t-92.5 223q0 130 89.5 207t257.5 77h329v159q0 133 -78 199t-212 66q-70 0 -125 -18t-87 -46.5t-49.5 -58.5t-21.5 -60h-56q7 94 96.5 165t246.5 71q158 0 250 -79t92 -224v-745h-56v178h-4z
M444 35q140 0 239 87t99 225v171h-329q-143 0 -214.5 -62t-71.5 -168q0 -115 76.5 -184t200.5 -69zM237 1553h55l208 -295h5l202 295h57l-233 -335h-54z" />
    <glyph glyph-name="Icaron" unicode="&#x1cf;" horiz-adv-x="493" 
d="M275 0h-57v1358h57v-1358zM-37 1683h64l223 -175h5l222 175h61l-253 -205h-62z" />
    <glyph glyph-name="icaron" unicode="&#x1d0;" horiz-adv-x="393" 
d="M168 0v1030h56v-1030h-56zM-68 1553h55l208 -295h5l202 295h57l-233 -335h-54z" />
    <glyph glyph-name="Ocaron" unicode="&#x1d1;" horiz-adv-x="1310" 
d="M198 815v-272q0 -234 122 -378.5t335 -144.5t335 144.5t122 378.5v272q0 233 -122.5 378t-334.5 145t-334.5 -145t-122.5 -378zM142 551v256q0 267 135 425t378 158t378 -159t135 -426v-254q0 -267 -135 -425t-378 -158t-378 158t-135 425zM371 1683h64l223 -175h5
l222 175h61l-253 -205h-62z" />
    <glyph glyph-name="ocaron" unicode="&#x1d2;" 
d="M539 1048q178 0 297 -120.5t119 -333.5v-163q0 -109 -32.5 -195.5t-89.5 -141.5t-132 -83.5t-162 -28.5t-162 29t-131.5 84t-88.5 141t-32 195v163q0 217 116 335.5t298 118.5zM539 995q-158 0 -258 -106.5t-100 -303.5v-145q0 -196 99.5 -300.5t259.5 -104.5
q158 0 258 104t100 301v145q0 195 -101 302.5t-258 107.5zM275 1553h55l208 -295h5l202 295h57l-233 -335h-54z" />
    <glyph glyph-name="Ucaron" unicode="&#x1d3;" horiz-adv-x="1305" 
d="M231 1358v-891q0 -205 109.5 -324.5t311.5 -119.5q204 0 312.5 118.5t108.5 325.5v891h58v-891q0 -230 -126 -364.5t-353 -134.5t-352.5 134.5t-125.5 364.5v891h57zM369 1683h64l223 -175h5l222 175h61l-253 -205h-62z" />
    <glyph glyph-name="ucaron" unicode="&#x1d4;" horiz-adv-x="1085" 
d="M915 1030v-1030h-56v211h-4q-14 -41 -40.5 -79t-67.5 -73t-103 -56t-136 -21q-153 0 -250.5 89.5t-97.5 259.5v699h56v-693q0 -136 79.5 -219t214.5 -83q83 0 151 33t110.5 88.5t65 123t22.5 140.5v610h56zM278 1553h55l208 -295h5l202 295h57l-233 -335h-54z" />
    <glyph glyph-name="Udieresismacron" unicode="&#x1d5;" horiz-adv-x="1305" 
d="M231 1358v-891q0 -205 109.5 -324.5t311.5 -119.5q204 0 312.5 118.5t108.5 325.5v891h58v-891q0 -230 -126 -364.5t-353 -134.5t-352.5 134.5t-125.5 364.5v891h57zM457 1567q0 20 15 35.5t37 15.5t36.5 -15.5t14.5 -35.5t-14.5 -36.5t-36.5 -16.5t-37 16.5t-15 36.5z
M748 1567q0 20 15 35.5t37 15.5t36.5 -15.5t14.5 -35.5t-14.5 -36.5t-36.5 -16.5t-37 16.5t-15 36.5zM922 1813h-538v44h538v-44z" />
    <glyph glyph-name="udieresismacron" unicode="&#x1d6;" horiz-adv-x="1085" 
d="M915 1030v-1030h-56v211h-4q-14 -41 -40.5 -79t-67.5 -73t-103 -56t-136 -21q-153 0 -250.5 89.5t-97.5 259.5v699h56v-693q0 -136 79.5 -219t214.5 -83q83 0 151 33t110.5 88.5t65 123t22.5 140.5v610h56zM347 1308q0 24 18 42t42 18q25 0 43.5 -18t18.5 -42
q0 -26 -18.5 -44t-43.5 -18q-24 0 -42 18.5t-18 43.5zM622 1308q0 24 18 42t42 18q25 0 43.5 -18t18.5 -42q0 -26 -18 -44t-44 -18q-24 0 -42 18.5t-18 43.5zM814 1533h-558v44h558v-44z" />
    <glyph glyph-name="Udieresisacute" unicode="&#x1d7;" horiz-adv-x="1305" 
d="M231 1358v-891q0 -205 109.5 -324.5t311.5 -119.5q204 0 312.5 118.5t108.5 325.5v891h58v-891q0 -230 -126 -364.5t-353 -134.5t-352.5 134.5t-125.5 364.5v891h57zM457 1567q0 20 15 35.5t37 15.5t36.5 -15.5t14.5 -35.5t-14.5 -36.5t-36.5 -16.5t-37 16.5t-15 36.5z
M748 1567q0 20 15 35.5t37 15.5t36.5 -15.5t14.5 -35.5t-14.5 -36.5t-36.5 -16.5t-37 16.5t-15 36.5zM545 1700l315 250h81l-326 -250h-70z" />
    <glyph glyph-name="udieresisacute" unicode="&#x1d8;" horiz-adv-x="1085" 
d="M915 1030v-1030h-56v211h-4q-14 -41 -40.5 -79t-67.5 -73t-103 -56t-136 -21q-153 0 -250.5 89.5t-97.5 259.5v699h56v-693q0 -136 79.5 -219t214.5 -83q83 0 151 33t110.5 88.5t65 123t22.5 140.5v610h56zM347 1308q0 24 18 42t42 18q25 0 43.5 -18t18.5 -42
q0 -26 -18.5 -44t-43.5 -18q-24 0 -42 18.5t-18 43.5zM622 1308q0 24 18 42t42 18q25 0 43.5 -18t18.5 -42q0 -26 -18 -44t-44 -18q-24 0 -42 18.5t-18 43.5zM550 1446h-46l246 301h65z" />
    <glyph glyph-name="Udieresiscaron" unicode="&#x1d9;" horiz-adv-x="1305" 
d="M231 1358v-891q0 -205 109.5 -324.5t311.5 -119.5q204 0 312.5 118.5t108.5 325.5v891h58v-891q0 -230 -126 -364.5t-353 -134.5t-352.5 134.5t-125.5 364.5v891h57zM457 1567q0 20 15 35.5t37 15.5t36.5 -15.5t14.5 -35.5t-14.5 -36.5t-36.5 -16.5t-37 16.5t-15 36.5z
M748 1567q0 20 15 35.5t37 15.5t36.5 -15.5t14.5 -35.5t-14.5 -36.5t-36.5 -16.5t-37 16.5t-15 36.5zM369 1941h64l223 -175h5l222 175h61l-253 -205h-62z" />
    <glyph glyph-name="udieresiscaron" unicode="&#x1da;" horiz-adv-x="1085" 
d="M915 1030v-1030h-56v211h-4q-14 -41 -40.5 -79t-67.5 -73t-103 -56t-136 -21q-153 0 -250.5 89.5t-97.5 259.5v699h56v-693q0 -136 79.5 -219t214.5 -83q83 0 151 33t110.5 88.5t65 123t22.5 140.5v610h56zM347 1308q0 24 18 42t42 18q25 0 43.5 -18t18.5 -42
q0 -26 -18.5 -44t-43.5 -18q-24 0 -42 18.5t-18 43.5zM622 1308q0 24 18 42t42 18q25 0 43.5 -18t18.5 -42q0 -26 -18 -44t-44 -18q-24 0 -42 18.5t-18 43.5zM278 1788h55l208 -295h5l202 295h57l-233 -335h-54z" />
    <glyph glyph-name="Udieresisgrave" unicode="&#x1db;" horiz-adv-x="1305" 
d="M231 1358v-891q0 -205 109.5 -324.5t311.5 -119.5q204 0 312.5 118.5t108.5 325.5v891h58v-891q0 -230 -126 -364.5t-353 -134.5t-352.5 134.5t-125.5 364.5v891h57zM457 1567q0 20 15 35.5t37 15.5t36.5 -15.5t14.5 -35.5t-14.5 -36.5t-36.5 -16.5t-37 16.5t-15 36.5z
M748 1567q0 20 15 35.5t37 15.5t36.5 -15.5t14.5 -35.5t-14.5 -36.5t-36.5 -16.5t-37 16.5t-15 36.5zM751 1702h-70l-326 250h81z" />
    <glyph glyph-name="udieresisgrave" unicode="&#x1dc;" horiz-adv-x="1085" 
d="M915 1030v-1030h-56v211h-4q-14 -41 -40.5 -79t-67.5 -73t-103 -56t-136 -21q-153 0 -250.5 89.5t-97.5 259.5v699h56v-693q0 -136 79.5 -219t214.5 -83q83 0 151 33t110.5 88.5t65 123t22.5 140.5v610h56zM347 1308q0 24 18 42t42 18q25 0 43.5 -18t18.5 -42
q0 -26 -18.5 -44t-43.5 -18q-24 0 -42 18.5t-18 43.5zM622 1308q0 24 18 42t42 18q25 0 43.5 -18t18.5 -42q0 -26 -18 -44t-44 -18q-24 0 -42 18.5t-18 43.5zM646 1446h-46l-265 301h66z" />
    <glyph glyph-name="Adieresismacron" unicode="&#x1de;" horiz-adv-x="1137" 
d="M110 0h-60l487 1358h63l487 -1358h-61l-166 470h-584zM571 1289h-5l-273 -769h549zM373 1567q0 20 15 35.5t37 15.5t36.5 -15.5t14.5 -35.5t-14.5 -36.5t-36.5 -16.5t-37 16.5t-15 36.5zM664 1567q0 20 15 35.5t37 15.5t36.5 -15.5t14.5 -35.5t-14.5 -36.5t-36.5 -16.5
t-37 16.5t-15 36.5zM838 1813h-538v44h538v-44z" />
    <glyph glyph-name="adieresismacron" unicode="&#x1df;" horiz-adv-x="1003" 
d="M778 178q-8 -26 -31 -56.5t-62 -63.5t-103 -54.5t-139 -21.5q-152 0 -244.5 82t-92.5 223q0 130 89.5 207t257.5 77h329v159q0 133 -78 199t-212 66q-70 0 -125 -18t-87 -46.5t-49.5 -58.5t-21.5 -60h-56q7 94 96.5 165t246.5 71q158 0 250 -79t92 -224v-745h-56v178h-4z
M444 35q140 0 239 87t99 225v171h-329q-143 0 -214.5 -62t-71.5 -168q0 -115 76.5 -184t200.5 -69zM306 1308q0 24 18 42t42 18q25 0 43.5 -18t18.5 -42q0 -26 -18 -44t-44 -18q-24 0 -42 18.5t-18 43.5zM581 1308q0 24 18 42t42 18q25 0 43.5 -18t18.5 -42q0 -26 -18.5 -44
t-43.5 -18q-24 0 -42 18.5t-18 43.5zM773 1533h-558v44h558v-44z" />
    <glyph glyph-name="Adotmacron" unicode="&#x1e0;" horiz-adv-x="1137" 
d="M110 0h-60l487 1358h63l487 -1358h-61l-166 470h-584zM571 1289h-5l-273 -769h549zM506 1655q0 27 18 45t43 18q27 0 45.5 -18t18.5 -45q0 -26 -18.5 -43.5t-45.5 -17.5q-25 0 -43 17.5t-18 43.5zM838 1813h-538v44h538v-44z" />
    <glyph glyph-name="adotmacron" unicode="&#x1e1;" horiz-adv-x="1003" 
d="M778 178q-8 -26 -31 -56.5t-62 -63.5t-103 -54.5t-139 -21.5q-152 0 -244.5 82t-92.5 223q0 130 89.5 207t257.5 77h329v159q0 133 -78 199t-212 66q-70 0 -125 -18t-87 -46.5t-49.5 -58.5t-21.5 -60h-56q7 94 96.5 165t246.5 71q158 0 250 -79t92 -224v-745h-56v178h-4z
M444 35q140 0 239 87t99 225v171h-329q-143 0 -214.5 -62t-71.5 -168q0 -115 76.5 -184t200.5 -69zM439 1327q0 27 18 45t43 18q27 0 45.5 -18t18.5 -45q0 -26 -18.5 -43.5t-45.5 -17.5q-25 0 -43 17.5t-18 43.5zM773 1533h-558v44h558v-44z" />
    <glyph glyph-name="AEmacron" unicode="&#x1e2;" horiz-adv-x="1816" 
d="M881 1305l-463 -755h529v755h-66zM947 500h-559l-307 -500h-60l827 1358h864v-53h-708v-582h674v-53h-674v-617h708v-53h-765v500zM1595 1525h-538v44h538v-44z" />
    <glyph glyph-name="aemacron" unicode="&#x1e3;" horiz-adv-x="1698" 
d="M1188 -18q-149 0 -246.5 75t-123.5 205h-4q-20 -116 -119 -198t-252 -82q-154 0 -244.5 83.5t-90.5 221.5t90.5 211t254.5 73h329v159q0 66 -25.5 118.5t-67.5 83.5t-92.5 47t-104.5 16q-70 0 -125 -18t-87 -46.5t-49.5 -58.5t-21.5 -60h-56q7 94 96.5 165t246.5 71
q116 0 210 -60.5t119 -167.5h5q42 112 134 170t213 58q180 0 284.5 -124.5t104.5 -363.5v-42h-728v-61q0 -203 94 -312.5t257 -109.5q74 0 135 21t99 54.5t60 70.5t27 74h56q-4 -44 -29.5 -90t-69.5 -88t-117 -68.5t-162 -26.5zM1177 995q-155 0 -247 -111t-92 -311v-4h672
v4q0 200 -89 311t-244 111zM444 35q140 0 239 87t99 225v171h-329q-143 0 -216 -62.5t-73 -168.5q0 -113 78.5 -182.5t201.5 -69.5zM1120 1258h-558v44h558v-44z" />
    <glyph glyph-name="Gcaron" unicode="&#x1e6;" horiz-adv-x="1261" 
d="M1114 1025h-53q0 39 -14.5 80.5t-46.5 83.5t-78 75t-116.5 53.5t-153.5 20.5q-208 0 -330.5 -145t-122.5 -385v-241q0 -159 48 -280t152 -194t253 -73q190 0 302 96.5t112 271.5v202h-421v52h474v-254q0 -202 -128 -311t-339 -109q-129 0 -228 46.5t-160 128.5t-91.5 189
t-30.5 235v241q0 264 136.5 423t374.5 159q113 0 203.5 -32.5t145 -86t83.5 -117t29 -129.5zM347 1683h64l223 -175h5l222 175h61l-253 -205h-62z" />
    <glyph glyph-name="gcaron" unicode="&#x1e7;" horiz-adv-x="1090" 
d="M527 -298q157 0 247 78.5t90 204.5v287h-4q-5 -21 -17.5 -46.5t-40.5 -60t-65 -62t-95.5 -46.5t-127.5 -19q-171 0 -281 117.5t-110 312.5v148q0 106 32.5 190.5t88.5 136t125.5 78.5t146.5 27q79 0 143.5 -24t104 -62t62.5 -74t34 -71h4v213h56v-1043
q0 -151 -105.5 -244.5t-288.5 -93.5q-91 0 -164 25t-116 65t-65.5 86t-24.5 93h57q6 -82 88 -149t226 -67zM516 995q-66 0 -124.5 -23.5t-106.5 -70t-76.5 -124t-28.5 -176.5v-121q0 -181 96 -285t240 -104q108 0 189 56t120 142t39 187v129q0 167 -96 278.5t-252 111.5z
M280 1553h55l208 -295h5l202 295h57l-233 -335h-54z" />
    <glyph glyph-name="Kcaron" unicode="&#x1e8;" horiz-adv-x="1089" 
d="M1037 1358l-573 -612l607 -746h-74l-574 709l-168 -177v-532h-57v1358h57v-749h1l706 749h75zM261 1683h64l223 -175h5l222 175h61l-253 -205h-62z" />
    <glyph glyph-name="kcaron" unicode="&#x1e9;" horiz-adv-x="993" 
d="M230 433v-433h-56v1435h56v-931h4l590 545h76l-470 -437l485 -612h-73l-455 574zM-63 1958h55l208 -295h5l202 295h57l-233 -335h-54z" />
    <glyph glyph-name="Oogonek" unicode="&#x1ea;" horiz-adv-x="1310" 
d="M198 815v-272q0 -234 122 -378.5t335 -144.5t335 144.5t122 378.5v272q0 233 -122.5 378t-334.5 145t-334.5 -145t-122.5 -378zM655 -32q-243 0 -378 158t-135 425v256q0 267 135 425t378 158t378 -159t135 -426v-254q0 -320 -219 -504q-161 -135 -161 -247
q0 -55 37.5 -88t96.5 -33q48 0 88 15v-43q-38 -21 -103 -21q-74 0 -124.5 43.5t-50.5 122.5q0 108 108 209q-87 -37 -185 -37z" />
    <glyph glyph-name="oogonek" unicode="&#x1eb;" 
d="M539 995q-158 0 -258 -106.5t-100 -303.5v-145q0 -196 99.5 -300.5t259.5 -104.5q158 0 258 104t100 301v145q0 195 -101 302.5t-258 107.5zM705 30q-57 -48 -166 -48q-87 0 -162 29t-131.5 84t-88.5 141t-32 195v163q0 217 116 335.5t298 118.5q178 0 297 -120.5
t119 -333.5v-163q0 -231 -153 -369q-71 -64 -108.5 -119t-37.5 -123q0 -55 37.5 -88t96.5 -33q48 0 88 15v-44q-36 -20 -103 -20q-74 0 -124.5 43.5t-50.5 122.5q0 57 27.5 106t80.5 104z" />
    <glyph glyph-name="Oogonekmacron" unicode="&#x1ec;" horiz-adv-x="1310" 
d="M198 815v-272q0 -234 122 -378.5t335 -144.5t335 144.5t122 378.5v272q0 233 -122.5 378t-334.5 145t-334.5 -145t-122.5 -378zM655 -32q-243 0 -378 158t-135 425v256q0 267 135 425t378 158t378 -159t135 -426v-254q0 -320 -219 -504q-161 -135 -161 -247
q0 -55 37.5 -88t96.5 -33q48 0 88 15v-43q-38 -21 -103 -21q-74 0 -124.5 43.5t-50.5 122.5q0 108 108 209q-87 -37 -185 -37zM924 1525h-538v44h538v-44z" />
    <glyph glyph-name="oogonekmacron" unicode="&#x1ed;" 
d="M539 995q-158 0 -258 -106.5t-100 -303.5v-145q0 -196 99.5 -300.5t259.5 -104.5q158 0 258 104t100 301v145q0 195 -101 302.5t-258 107.5zM705 30q-57 -48 -166 -48q-87 0 -162 29t-131.5 84t-88.5 141t-32 195v163q0 217 116 335.5t298 118.5q178 0 297 -120.5
t119 -333.5v-163q0 -231 -153 -369q-71 -64 -108.5 -119t-37.5 -123q0 -55 37.5 -88t96.5 -33q48 0 88 15v-44q-36 -20 -103 -20q-74 0 -124.5 43.5t-50.5 122.5q0 57 27.5 106t80.5 104zM811 1258h-558v44h558v-44z" />
    <glyph glyph-name="Gacute" unicode="&#x1f4;" horiz-adv-x="1261" 
d="M1114 1025h-53q0 39 -14.5 80.5t-46.5 83.5t-78 75t-116.5 53.5t-153.5 20.5q-208 0 -330.5 -145t-122.5 -385v-241q0 -159 48 -280t152 -194t253 -73q190 0 302 96.5t112 271.5v202h-421v52h474v-254q0 -202 -128 -311t-339 -109q-129 0 -228 46.5t-160 128.5t-91.5 189
t-30.5 235v241q0 264 136.5 423t374.5 159q113 0 203.5 -32.5t145 -86t83.5 -117t29 -129.5zM523 1512l315 250h81l-326 -250h-70z" />
    <glyph glyph-name="gacute" unicode="&#x1f5;" horiz-adv-x="1090" 
d="M527 -298q157 0 247 78.5t90 204.5v287h-4q-5 -21 -17.5 -46.5t-40.5 -60t-65 -62t-95.5 -46.5t-127.5 -19q-171 0 -281 117.5t-110 312.5v148q0 106 32.5 190.5t88.5 136t125.5 78.5t146.5 27q79 0 143.5 -24t104 -62t62.5 -74t34 -71h4v213h56v-1043
q0 -151 -105.5 -244.5t-288.5 -93.5q-91 0 -164 25t-116 65t-65.5 86t-24.5 93h57q6 -82 88 -149t226 -67zM516 995q-66 0 -124.5 -23.5t-106.5 -70t-76.5 -124t-28.5 -176.5v-121q0 -181 96 -285t240 -104q108 0 189 56t120 142t39 187v129q0 167 -96 278.5t-252 111.5z
M552 1211h-46l246 301h65z" />
    <glyph glyph-name="Ngrave" unicode="&#x1f8;" horiz-adv-x="1326" 
d="M255 0h-57v1358h60l809 -1256h4v1256h57v-1358h-60l-809 1256h-4v-1256zM761 1514h-70l-326 250h81z" />
    <glyph glyph-name="ngrave" unicode="&#x1f9;" horiz-adv-x="1085" 
d="M170 0v1030h56v-210h4q27 93 115 160.5t227 67.5q157 0 255 -97.5t98 -271.5v-679h-56v673q0 140 -79.5 231t-219.5 91q-109 0 -189 -54t-117.5 -136t-37.5 -178v-627h-56zM646 1211h-46l-265 301h66z" />
    <glyph glyph-name="Aringacute" unicode="&#x1fa;" horiz-adv-x="1137" 
d="M539 1640l315 250h81l-326 -250h-70zM447 1484q0 -49 36.5 -85.5t85.5 -36.5q51 0 87 36t36 86q0 51 -36 87t-87 36q-49 0 -85.5 -36t-36.5 -87zM842 520l-271 769h-5l-273 -769h549zM110 0h-60l474 1321q-55 14 -89.5 59.5t-34.5 103.5q0 70 49 118t120 48
q69 0 117.5 -48t48.5 -118q0 -58 -34 -103t-88 -60l474 -1321h-61l-166 470h-584z" />
    <glyph glyph-name="aringacute" unicode="&#x1fb;" horiz-adv-x="1003" 
d="M607 1479h-46l246 301h65zM778 178q-8 -26 -31 -56.5t-62 -63.5t-103 -54.5t-139 -21.5q-152 0 -244.5 82t-92.5 223q0 130 89.5 207t257.5 77h329v159q0 133 -78 199t-212 66q-70 0 -125 -18t-87 -46.5t-49.5 -58.5t-21.5 -60h-56q7 94 96.5 165t246.5 71q158 0 250 -79
t92 -224v-745h-56v178h-4zM444 35q140 0 239 87t99 225v171h-329q-143 0 -214.5 -62t-71.5 -168q0 -115 76.5 -184t200.5 -69zM506 1181q-71 0 -120 49t-49 120q0 70 49 118t120 48q69 0 117.5 -48t48.5 -118t-48.5 -119.5t-117.5 -49.5zM384 1350q0 -49 36.5 -85.5
t85.5 -36.5q51 0 87 36t36 86q0 51 -36 87t-87 36q-49 0 -85.5 -36t-36.5 -87z" />
    <glyph glyph-name="AEacute" unicode="&#x1fc;" horiz-adv-x="1816" 
d="M881 1305l-463 -755h529v755h-66zM947 500h-559l-307 -500h-60l827 1358h864v-53h-708v-582h674v-53h-674v-617h708v-53h-765v500zM1218 1512l315 250h81l-326 -250h-70z" />
    <glyph glyph-name="aeacute" unicode="&#x1fd;" horiz-adv-x="1698" 
d="M1188 -18q-149 0 -246.5 75t-123.5 205h-4q-20 -116 -119 -198t-252 -82q-154 0 -244.5 83.5t-90.5 221.5t90.5 211t254.5 73h329v159q0 66 -25.5 118.5t-67.5 83.5t-92.5 47t-104.5 16q-70 0 -125 -18t-87 -46.5t-49.5 -58.5t-21.5 -60h-56q7 94 96.5 165t246.5 71
q116 0 210 -60.5t119 -167.5h5q42 112 134 170t213 58q180 0 284.5 -124.5t104.5 -363.5v-42h-728v-61q0 -203 94 -312.5t257 -109.5q74 0 135 21t99 54.5t60 70.5t27 74h56q-4 -44 -29.5 -90t-69.5 -88t-117 -68.5t-162 -26.5zM1177 995q-155 0 -247 -111t-92 -311v-4h672
v4q0 200 -89 311t-244 111zM444 35q140 0 239 87t99 225v171h-329q-143 0 -216 -62.5t-73 -168.5q0 -113 78.5 -182.5t201.5 -69.5zM856 1211h-46l246 301h65z" />
    <glyph glyph-name="Oslashacute" unicode="&#x1fe;" horiz-adv-x="1310" 
d="M655 -32q-279 0 -415 207l-116 -135l-35 29l127 147q-74 139 -74 336v254q0 267 134.5 425.5t378.5 158.5q269 0 406 -194l125 144l37 -25l-137 -159q82 -143 82 -350v-254q0 -267 -134.5 -425.5t-378.5 -158.5zM198 543q0 -159 58 -280l766 887q-60 90 -153 139t-214 49
q-212 0 -334.5 -145t-122.5 -378v-272zM655 20q214 0 335.5 144.5t121.5 378.5v272q0 169 -66 295l-767 -890q59 -95 154.5 -147.5t221.5 -52.5zM547 1512l315 250h81l-326 -250h-70z" />
    <glyph glyph-name="oslashacute" unicode="&#x1ff;" 
d="M262 162q97 -127 278 -127q158 0 258 104t100 301v145q0 132 -49 228zM181 440q0 -141 55 -238l588 652q-99 141 -285 141q-158 0 -258 -106.5t-100 -303.5v-145zM539 -18q-202 0 -316 138l-108 -120l-34 30l115 127q-71 112 -71 274v163q0 217 116 335.5t298 118.5
q99 0 183 -39t141 -113l134 146l34 -30l-142 -154q66 -110 66 -264v-163q0 -109 -32.5 -195.5t-89.5 -141.5t-132 -83.5t-162 -28.5zM547 1211h-46l246 301h65z" />
    <glyph glyph-name="Adblgrave" unicode="&#x200;" horiz-adv-x="1137" 
d="M110 0h-60l487 1358h63l487 -1358h-61l-166 470h-584zM571 1289h-5l-273 -769h549zM755 1514h-60l-336 250h81zM495 1514h-60l-336 250h81z" />
    <glyph glyph-name="adblgrave" unicode="&#x201;" horiz-adv-x="1003" 
d="M778 178q-8 -26 -31 -56.5t-62 -63.5t-103 -54.5t-139 -21.5q-152 0 -244.5 82t-92.5 223q0 130 89.5 207t257.5 77h329v159q0 133 -78 199t-212 66q-70 0 -125 -18t-87 -46.5t-49.5 -58.5t-21.5 -60h-56q7 94 96.5 165t246.5 71q158 0 250 -79t92 -224v-745h-56v178h-4z
M444 35q140 0 239 87t99 225v171h-329q-143 0 -214.5 -62t-71.5 -168q0 -115 76.5 -184t200.5 -69zM389 1209l-265 301h65l246 -301h-46zM592 1209l-265 301h65l246 -301h-46z" />
    <glyph glyph-name="Ainvertedbreve" unicode="&#x202;" horiz-adv-x="1137" 
d="M110 0h-60l487 1358h63l487 -1358h-61l-166 470h-584zM571 1289h-5l-273 -769h549zM569 1701q-97 0 -154 -51.5t-57 -134.5h-52q0 97 70 165.5t193 68.5q122 0 188 -69t66 -165h-52q0 84 -53 135t-149 51z" />
    <glyph glyph-name="ainvertedbreve" unicode="&#x203;" horiz-adv-x="1003" 
d="M778 178q-8 -26 -31 -56.5t-62 -63.5t-103 -54.5t-139 -21.5q-152 0 -244.5 82t-92.5 223q0 130 89.5 207t257.5 77h329v159q0 133 -78 199t-212 66q-70 0 -125 -18t-87 -46.5t-49.5 -58.5t-21.5 -60h-56q7 94 96.5 165t246.5 71q158 0 250 -79t92 -224v-745h-56v178h-4z
M444 35q140 0 239 87t99 225v171h-329q-143 0 -214.5 -62t-71.5 -168q0 -115 76.5 -184t200.5 -69zM239 1225q0 97 70 165.5t193 68.5q122 0 188 -69t66 -165h-52q0 84 -53 135t-149 51q-97 0 -154 -51.5t-57 -134.5h-52z" />
    <glyph glyph-name="Edblgrave" unicode="&#x204;" horiz-adv-x="1067" 
d="M963 53v-53h-765v1358h765v-53h-708v-582h674v-53h-674v-617h708zM764 1514h-60l-336 250h81zM504 1514h-60l-336 250h81z" />
    <glyph glyph-name="edblgrave" unicode="&#x205;" horiz-adv-x="1042" 
d="M533 -18q-191 0 -298.5 123t-107.5 348v107q0 238 107 363t288 125t288 -125t107 -363v-42h-734v-61q0 -203 94 -312.5t257 -109.5q74 0 134 21t96.5 54t57 70.5t24.5 74.5h56q-4 -45 -27.5 -90.5t-66 -87.5t-114.5 -68.5t-161 -26.5zM183 569h678v4q0 200 -92 311
t-247 111t-247 -111t-92 -311v-4zM408 1209l-265 301h65l246 -301h-46zM611 1209l-265 301h65l246 -301h-46z" />
    <glyph glyph-name="Einvertedbreve" unicode="&#x206;" horiz-adv-x="1067" 
d="M963 53v-53h-765v1358h765v-53h-708v-582h674v-53h-674v-617h708zM578 1701q-97 0 -154 -51.5t-57 -134.5h-52q0 97 70 165.5t193 68.5q122 0 188 -69t66 -165h-52q0 84 -53 135t-149 51z" />
    <glyph glyph-name="einvertedbreve" unicode="&#x207;" horiz-adv-x="1042" 
d="M533 -18q-191 0 -298.5 123t-107.5 348v107q0 238 107 363t288 125t288 -125t107 -363v-42h-734v-61q0 -203 94 -312.5t257 -109.5q74 0 134 21t96.5 54t57 70.5t24.5 74.5h56q-4 -45 -27.5 -90.5t-66 -87.5t-114.5 -68.5t-161 -26.5zM183 569h678v4q0 200 -92 311
t-247 111t-247 -111t-92 -311v-4zM258 1225q0 97 70 165.5t193 68.5q122 0 188 -69t66 -165h-52q0 84 -53 135t-149 51q-97 0 -154 -51.5t-57 -134.5h-52z" />
    <glyph glyph-name="Idblgrave" unicode="&#x208;" horiz-adv-x="493" 
d="M275 0h-57v1358h57v-1358zM433 1514h-60l-336 250h81zM173 1514h-60l-336 250h81z" />
    <glyph glyph-name="idblgrave" unicode="&#x209;" horiz-adv-x="393" 
d="M168 0v1030h56v-1030h-56zM84 1209l-265 301h65l246 -301h-46zM287 1209l-265 301h65l246 -301h-46z" />
    <glyph glyph-name="Iinvertedbreve" unicode="&#x20a;" horiz-adv-x="493" 
d="M275 0h-57v1358h57v-1358zM247 1701q-97 0 -154 -51.5t-57 -134.5h-52q0 97 70 165.5t193 68.5q122 0 188 -69t66 -165h-52q0 84 -53 135t-149 51z" />
    <glyph glyph-name="iinvertedbreve" unicode="&#x20b;" horiz-adv-x="393" 
d="M168 0v1030h56v-1030h-56zM-66 1225q0 97 70 165.5t193 68.5q122 0 188 -69t66 -165h-52q0 84 -53 135t-149 51q-97 0 -154 -51.5t-57 -134.5h-52z" />
    <glyph glyph-name="Odblgrave" unicode="&#x20c;" horiz-adv-x="1310" 
d="M198 815v-272q0 -234 122 -378.5t335 -144.5t335 144.5t122 378.5v272q0 233 -122.5 378t-334.5 145t-334.5 -145t-122.5 -378zM142 551v256q0 267 135 425t378 158t378 -159t135 -426v-254q0 -267 -135 -425t-378 -158t-378 158t-135 425zM841 1514h-60l-336 250h81z
M581 1514h-60l-336 250h81z" />
    <glyph glyph-name="odblgrave" unicode="&#x20d;" 
d="M539 1048q178 0 297 -120.5t119 -333.5v-163q0 -109 -32.5 -195.5t-89.5 -141.5t-132 -83.5t-162 -28.5t-162 29t-131.5 84t-88.5 141t-32 195v163q0 217 116 335.5t298 118.5zM539 995q-158 0 -258 -106.5t-100 -303.5v-145q0 -196 99.5 -300.5t259.5 -104.5
q158 0 258 104t100 301v145q0 195 -101 302.5t-258 107.5zM427 1209l-265 301h65l246 -301h-46zM630 1209l-265 301h65l246 -301h-46z" />
    <glyph glyph-name="Oinvertedbreve" unicode="&#x20e;" horiz-adv-x="1310" 
d="M198 815v-272q0 -234 122 -378.5t335 -144.5t335 144.5t122 378.5v272q0 233 -122.5 378t-334.5 145t-334.5 -145t-122.5 -378zM142 551v256q0 267 135 425t378 158t378 -159t135 -426v-254q0 -267 -135 -425t-378 -158t-378 158t-135 425zM655 1701q-97 0 -154 -51.5
t-57 -134.5h-52q0 97 70 165.5t193 68.5q122 0 188 -69t66 -165h-52q0 84 -53 135t-149 51z" />
    <glyph glyph-name="oinvertedbreve" unicode="&#x20f;" 
d="M539 1048q178 0 297 -120.5t119 -333.5v-163q0 -109 -32.5 -195.5t-89.5 -141.5t-132 -83.5t-162 -28.5t-162 29t-131.5 84t-88.5 141t-32 195v163q0 217 116 335.5t298 118.5zM539 995q-158 0 -258 -106.5t-100 -303.5v-145q0 -196 99.5 -300.5t259.5 -104.5
q158 0 258 104t100 301v145q0 195 -101 302.5t-258 107.5zM277 1225q0 97 70 165.5t193 68.5q122 0 188 -69t66 -165h-52q0 84 -53 135t-149 51q-97 0 -154 -51.5t-57 -134.5h-52z" />
    <glyph glyph-name="Rdblgrave" unicode="&#x210;" horiz-adv-x="1181" 
d="M632 1358q185 0 295 -102t110 -273q0 -150 -81.5 -242.5t-218.5 -121.5l322 -619h-66l-318 608h-420v-608h-57v1358h434zM255 659h368q162 0 259 87.5t97 236.5q0 150 -96 237t-260 87h-368v-648zM777 1514h-60l-336 250h81zM517 1514h-60l-336 250h81z" />
    <glyph glyph-name="rdblgrave" unicode="&#x211;" horiz-adv-x="660" 
d="M170 0v1030h56v-213h4q7 39 29 77.5t58 73.5t94 56.5t127 21.5q48 0 92 -8v-56q-37 11 -96 11q-60 0 -114 -21.5t-98 -63.5t-70 -113.5t-26 -163.5v-631h-56zM217 1209l-265 301h65l246 -301h-46zM420 1209l-265 301h65l246 -301h-46z" />
    <glyph glyph-name="Rinvertedbreve" unicode="&#x212;" horiz-adv-x="1181" 
d="M632 1358q185 0 295 -102t110 -273q0 -150 -81.5 -242.5t-218.5 -121.5l322 -619h-66l-318 608h-420v-608h-57v1358h434zM255 659h368q162 0 259 87.5t97 236.5q0 150 -96 237t-260 87h-368v-648zM591 1701q-97 0 -154 -51.5t-57 -134.5h-52q0 97 70 165.5t193 68.5
q122 0 188 -69t66 -165h-52q0 84 -53 135t-149 51z" />
    <glyph glyph-name="rinvertedbreve" unicode="&#x213;" horiz-adv-x="660" 
d="M170 0v1030h56v-213h4q7 39 29 77.5t58 73.5t94 56.5t127 21.5q48 0 92 -8v-56q-37 11 -96 11q-60 0 -114 -21.5t-98 -63.5t-70 -113.5t-26 -163.5v-631h-56zM67 1225q0 97 70 165.5t193 68.5q122 0 188 -69t66 -165h-52q0 84 -53 135t-149 51q-97 0 -154 -51.5
t-57 -134.5h-52z" />
    <glyph glyph-name="Udblgrave" unicode="&#x214;" horiz-adv-x="1305" 
d="M231 1358v-891q0 -205 109.5 -324.5t311.5 -119.5q204 0 312.5 118.5t108.5 325.5v891h58v-891q0 -230 -126 -364.5t-353 -134.5t-352.5 134.5t-125.5 364.5v891h57zM839 1514h-60l-336 250h81zM579 1514h-60l-336 250h81z" />
    <glyph glyph-name="udblgrave" unicode="&#x215;" horiz-adv-x="1085" 
d="M915 1030v-1030h-56v211h-4q-14 -41 -40.5 -79t-67.5 -73t-103 -56t-136 -21q-153 0 -250.5 89.5t-97.5 259.5v699h56v-693q0 -136 79.5 -219t214.5 -83q83 0 151 33t110.5 88.5t65 123t22.5 140.5v610h56zM430 1209l-265 301h65l246 -301h-46zM633 1209l-265 301h65
l246 -301h-46z" />
    <glyph glyph-name="Uinvertedbreve" unicode="&#x216;" horiz-adv-x="1305" 
d="M231 1358v-891q0 -205 109.5 -324.5t311.5 -119.5q204 0 312.5 118.5t108.5 325.5v891h58v-891q0 -230 -126 -364.5t-353 -134.5t-352.5 134.5t-125.5 364.5v891h57zM653 1701q-97 0 -154 -51.5t-57 -134.5h-52q0 97 70 165.5t193 68.5q122 0 188 -69t66 -165h-52
q0 84 -53 135t-149 51z" />
    <glyph glyph-name="uinvertedbreve" unicode="&#x217;" horiz-adv-x="1085" 
d="M915 1030v-1030h-56v211h-4q-14 -41 -40.5 -79t-67.5 -73t-103 -56t-136 -21q-153 0 -250.5 89.5t-97.5 259.5v699h56v-693q0 -136 79.5 -219t214.5 -83q83 0 151 33t110.5 88.5t65 123t22.5 140.5v610h56zM280 1225q0 97 70 165.5t193 68.5q122 0 188 -69t66 -165h-52
q0 84 -53 135t-149 51q-97 0 -154 -51.5t-57 -134.5h-52z" />
    <glyph glyph-name="Scommaaccent" unicode="&#x218;" horiz-adv-x="1140" 
d="M112 338h59q1 -39 13 -79.5t42 -84t74 -77t115.5 -55t159.5 -21.5q176 0 286 88.5t110 224.5q0 68 -21.5 118t-69 86t-106.5 61t-149 49l-157 42q-153 41 -231.5 122.5t-78.5 219.5q0 161 114.5 259.5t311.5 98.5q101 0 182 -27.5t131.5 -74.5t77 -105t26.5 -123h-59
q-1 38 -13 75.5t-40 74t-68 64.5t-101.5 45.5t-135.5 17.5q-171 0 -268.5 -84t-97.5 -222q0 -121 69.5 -186.5t216.5 -105.5l150 -41q98 -27 162.5 -54.5t115.5 -69t74.5 -99.5t23.5 -138q0 -168 -127 -268.5t-333 -100.5q-98 0 -178.5 24.5t-131 63t-85 89t-49 98.5
t-14.5 95zM495 -479h-38l85 335h67z" />
    <glyph glyph-name="scommaaccent" unicode="&#x219;" horiz-adv-x="950" 
d="M137 779q0 126 93 197.5t243 71.5q75 0 136 -18t98.5 -46.5t63 -65t35.5 -70.5t10 -66h-56q0 24 -8.5 51t-29.5 56.5t-52 52.5t-82 38t-114 15q-119 0 -198.5 -55.5t-79.5 -157.5q0 -91 67 -141.5t217 -90.5q164 -44 226 -76q119 -62 129 -181q1 -12 1 -24
q0 -95 -53 -161.5t-134.5 -96t-181.5 -29.5q-81 0 -147 18.5t-106.5 47.5t-67.5 67t-38 74.5t-11 71.5h56q0 -27 9 -55.5t32 -59.5t57 -55t90 -40t126 -16q61 0 115.5 13.5t98.5 40.5t70 72t26 103q0 28 -6.5 52t-21.5 43t-29.5 34t-42 29t-46 22.5t-53.5 19.5t-54 16
t-58 15q-82 21 -138.5 43.5t-102 55.5t-67 78.5t-21.5 106.5zM400 -479h-38l85 335h67z" />
    <glyph glyph-name="Tcommaaccent" unicode="&#x21a;" horiz-adv-x="1021" 
d="M540 0h-57v1305h-471v53h997v-53h-469v-1305zM436 -479h-38l85 335h67z" />
    <glyph glyph-name="tcommaaccent" unicode="&#x21b;" horiz-adv-x="671" 
d="M230 1030v248h56v-248h300v-50h-300v-766q0 -92 47 -128.5t151 -36.5q70 0 117 7v-48q-53 -8 -113 -8q-143 0 -200.5 49t-57.5 180v751h-211v50h211zM317 -479h-38l85 335h67z" />
    <glyph glyph-name="Hcaron" unicode="&#x21e;" horiz-adv-x="1326" 
d="M1128 0h-57v689h-816v-689h-57v1358h57v-617h816v617h57v-1358zM379 1683h64l223 -175h5l222 175h61l-253 -205h-62z" />
    <glyph glyph-name="hcaron" unicode="&#x21f;" horiz-adv-x="1100" 
d="M174 0v1435h56v-615h4q27 93 116 160.5t228 67.5q157 0 256 -98t99 -271v-679h-56v673q0 140 -80.5 231t-220.5 91q-109 0 -189.5 -54t-118.5 -136t-38 -178v-627h-56zM-63 1958h55l208 -295h5l202 295h57l-233 -335h-54z" />
    <glyph glyph-name="Adotaccent" unicode="&#x226;" horiz-adv-x="1137" 
d="M110 0h-60l487 1358h63l487 -1358h-61l-166 470h-584zM571 1289h-5l-273 -769h549zM506 1655q0 27 18 45t43 18q27 0 45.5 -18t18.5 -45q0 -26 -18.5 -43.5t-45.5 -17.5q-25 0 -43 17.5t-18 43.5z" />
    <glyph glyph-name="adotaccent" unicode="&#x227;" horiz-adv-x="1003" 
d="M778 178q-8 -26 -31 -56.5t-62 -63.5t-103 -54.5t-139 -21.5q-152 0 -244.5 82t-92.5 223q0 130 89.5 207t257.5 77h329v159q0 133 -78 199t-212 66q-70 0 -125 -18t-87 -46.5t-49.5 -58.5t-21.5 -60h-56q7 94 96.5 165t246.5 71q158 0 250 -79t92 -224v-745h-56v178h-4z
M444 35q140 0 239 87t99 225v171h-329q-143 0 -214.5 -62t-71.5 -168q0 -115 76.5 -184t200.5 -69zM439 1327q0 27 18 45t43 18q27 0 45.5 -18t18.5 -45q0 -26 -18.5 -43.5t-45.5 -17.5q-25 0 -43 17.5t-18 43.5z" />
    <glyph glyph-name="Ecedilla" unicode="&#x228;" horiz-adv-x="1067" 
d="M530 -457q-70 0 -116 16v50q46 -16 122 -16q65 0 113 28.5t48 83.5q0 109 -153 109h-50v39l66 147h-362v1358h765v-53h-708v-582h674v-53h-674v-617h708v-53h-351l-60 -139q84 0 144 -37t60 -115q0 -81 -68 -123.5t-158 -42.5z" />
    <glyph glyph-name="ecedilla" unicode="&#x229;" horiz-adv-x="1042" 
d="M183 569h678v4q0 200 -92 311t-247 111t-247 -111t-92 -311v-4zM498 -457q-70 0 -116 16v50q46 -16 122 -16q65 0 113 28.5t48 83.5q0 109 -153 109h-50v39l58 129q-185 5 -289 127.5t-104 343.5v107q0 238 107 363t288 125t288 -125t107 -363v-42h-734v-61
q0 -203 94 -312.5t257 -109.5q74 0 134 21t96.5 54t57 70.5t24.5 74.5h56q-4 -42 -25 -85t-59.5 -83.5t-102 -69t-142.5 -34.5l-53 -122q84 0 144 -37t60 -115q0 -81 -68 -123.5t-158 -42.5z" />
    <glyph glyph-name="Odieresismacron" unicode="&#x22a;" horiz-adv-x="1310" 
d="M198 815v-272q0 -234 122 -378.5t335 -144.5t335 144.5t122 378.5v272q0 233 -122.5 378t-334.5 145t-334.5 -145t-122.5 -378zM142 551v256q0 267 135 425t378 158t378 -159t135 -426v-254q0 -267 -135 -425t-378 -158t-378 158t-135 425zM459 1567q0 20 15 35.5
t37 15.5t36.5 -15.5t14.5 -35.5t-14.5 -36.5t-36.5 -16.5t-37 16.5t-15 36.5zM750 1567q0 20 15 35.5t37 15.5t36.5 -15.5t14.5 -35.5t-14.5 -36.5t-36.5 -16.5t-37 16.5t-15 36.5zM924 1813h-538v44h538v-44z" />
    <glyph glyph-name="odieresismacron" unicode="&#x22b;" 
d="M539 1048q178 0 297 -120.5t119 -333.5v-163q0 -109 -32.5 -195.5t-89.5 -141.5t-132 -83.5t-162 -28.5t-162 29t-131.5 84t-88.5 141t-32 195v163q0 217 116 335.5t298 118.5zM539 995q-158 0 -258 -106.5t-100 -303.5v-145q0 -196 99.5 -300.5t259.5 -104.5
q158 0 258 104t100 301v145q0 195 -101 302.5t-258 107.5zM344 1308q0 24 18 42t42 18q25 0 43.5 -18t18.5 -42q0 -26 -18 -44t-44 -18q-24 0 -42 18.5t-18 43.5zM619 1308q0 24 18 42t42 18q25 0 43.5 -18t18.5 -42q0 -26 -18.5 -44t-43.5 -18q-24 0 -42 18.5t-18 43.5z
M811 1533h-558v44h558v-44z" />
    <glyph glyph-name="Otildemacron" unicode="&#x22c;" horiz-adv-x="1310" 
d="M198 815v-272q0 -234 122 -378.5t335 -144.5t335 144.5t122 378.5v272q0 233 -122.5 378t-334.5 145t-334.5 -145t-122.5 -378zM142 551v256q0 267 135 425t378 158t378 -159t135 -426v-254q0 -267 -135 -425t-378 -158t-378 158t-135 425zM620 1568q-29 41 -54.5 61
t-57.5 20q-97 0 -97 -141h-44q0 90 37.5 137t106.5 47q44 0 76 -21t72 -71q28 -37 51 -51.5t57 -14.5q46 0 77.5 40.5t31.5 108.5h45q0 -85 -44 -138t-110 -53q-50 0 -80.5 18t-66.5 58zM924 1813h-538v44h538v-44z" />
    <glyph glyph-name="otildemacron" unicode="&#x22d;" 
d="M539 1048q178 0 297 -120.5t119 -333.5v-163q0 -109 -32.5 -195.5t-89.5 -141.5t-132 -83.5t-162 -28.5t-162 29t-131.5 84t-88.5 141t-32 195v163q0 217 116 335.5t298 118.5zM539 995q-158 0 -258 -106.5t-100 -303.5v-145q0 -196 99.5 -300.5t259.5 -104.5
q158 0 258 104t100 301v145q0 195 -101 302.5t-258 107.5zM504 1301q-37 46 -66.5 69.5t-66.5 23.5q-51 0 -81 -40t-30 -122h-51q0 106 43 159t122 53q51 0 87.5 -23.5t81.5 -82.5q32 -41 60 -57t68 -16q52 0 88 46t36 124h52q0 -97 -50.5 -158t-125.5 -61q-60 0 -96.5 20.5
t-70.5 64.5zM811 1533h-558v44h558v-44z" />
    <glyph glyph-name="Odotaccent" unicode="&#x22e;" horiz-adv-x="1310" 
d="M198 815v-272q0 -234 122 -378.5t335 -144.5t335 144.5t122 378.5v272q0 233 -122.5 378t-334.5 145t-334.5 -145t-122.5 -378zM142 551v256q0 267 135 425t378 158t378 -159t135 -426v-254q0 -267 -135 -425t-378 -158t-378 158t-135 425zM592 1655q0 27 18 45t43 18
q27 0 45.5 -18t18.5 -45q0 -26 -18.5 -43.5t-45.5 -17.5q-25 0 -43 17.5t-18 43.5z" />
    <glyph glyph-name="odotaccent" unicode="&#x22f;" 
d="M539 1048q178 0 297 -120.5t119 -333.5v-163q0 -109 -32.5 -195.5t-89.5 -141.5t-132 -83.5t-162 -28.5t-162 29t-131.5 84t-88.5 141t-32 195v163q0 217 116 335.5t298 118.5zM539 995q-158 0 -258 -106.5t-100 -303.5v-145q0 -196 99.5 -300.5t259.5 -104.5
q158 0 258 104t100 301v145q0 195 -101 302.5t-258 107.5zM477 1327q0 27 18 45t43 18q27 0 45.5 -18t18.5 -45q0 -26 -18.5 -43.5t-45.5 -17.5q-25 0 -43 17.5t-18 43.5z" />
    <glyph glyph-name="Odotaccentmacron" unicode="&#x230;" horiz-adv-x="1310" 
d="M198 815v-272q0 -234 122 -378.5t335 -144.5t335 144.5t122 378.5v272q0 233 -122.5 378t-334.5 145t-334.5 -145t-122.5 -378zM142 551v256q0 267 135 425t378 158t378 -159t135 -426v-254q0 -267 -135 -425t-378 -158t-378 158t-135 425zM592 1655q0 27 18 45t43 18
q27 0 45.5 -18t18.5 -45q0 -26 -18.5 -43.5t-45.5 -17.5q-25 0 -43 17.5t-18 43.5zM924 1813h-538v44h538v-44z" />
    <glyph glyph-name="odotaccentmacron" unicode="&#x231;" 
d="M539 1048q178 0 297 -120.5t119 -333.5v-163q0 -109 -32.5 -195.5t-89.5 -141.5t-132 -83.5t-162 -28.5t-162 29t-131.5 84t-88.5 141t-32 195v163q0 217 116 335.5t298 118.5zM539 995q-158 0 -258 -106.5t-100 -303.5v-145q0 -196 99.5 -300.5t259.5 -104.5
q158 0 258 104t100 301v145q0 195 -101 302.5t-258 107.5zM477 1327q0 27 18 45t43 18q27 0 45.5 -18t18.5 -45q0 -26 -18.5 -43.5t-45.5 -17.5q-25 0 -43 17.5t-18 43.5zM811 1533h-558v44h558v-44z" />
    <glyph glyph-name="Ymacron" unicode="&#x232;" horiz-adv-x="1054" 
d="M556 0h-56v610l-475 748h68l432 -686h6l433 686h65l-473 -746v-612zM796 1525h-538v44h538v-44z" />
    <glyph glyph-name="ymacron" unicode="&#x233;" horiz-adv-x="887" 
d="M857 1030l-371 -1028l-49 -129q-41 -108 -96.5 -154t-154.5 -46q-50 0 -93 10v53q48 -10 92 -10q76 0 122 40t74 115l40 107l-386 1042h62l351 -972h4l345 972h60zM715 1258h-558v44h558v-44z" />
    <glyph glyph-name="circumflex" unicode="&#x2c6;" horiz-adv-x="760" 
d="M119 1226l240 335h54l233 -335h-57l-202 295h-5l-208 -295h-55z" />
    <glyph glyph-name="caron" unicode="&#x2c7;" horiz-adv-x="760" 
d="M108 1581h55l208 -295h5l202 295h57l-233 -335h-54z" />
    <glyph glyph-name="breve" unicode="&#x2d8;" horiz-adv-x="760" 
d="M123 1476h52q0 -83 57 -134.5t154 -51.5q96 0 149 51t53 135h52q0 -96 -66 -165t-188 -69q-123 0 -193 68.5t-70 165.5z" />
    <glyph glyph-name="dotaccent" unicode="&#x2d9;" horiz-adv-x="760" 
d="M319 1369q0 28 19.5 48t47.5 20t48 -20t20 -48t-20 -47.5t-48 -19.5t-47.5 19.5t-19.5 47.5z" />
    <glyph glyph-name="ring" unicode="&#x2da;" horiz-adv-x="760" 
d="M386 1215q-71 0 -120 49t-49 120q0 70 49 118t120 48q69 0 117.5 -48t48.5 -118t-48.5 -119.5t-117.5 -49.5zM264 1384q0 -49 36.5 -85.5t85.5 -36.5q51 0 87 36t36 86q0 51 -36 87t-87 36q-49 0 -85.5 -36t-36.5 -87z" />
    <glyph glyph-name="ogonek" unicode="&#x2db;" horiz-adv-x="760" 
d="M489 -287v-48q-38 -16 -84 -16q-71 0 -117.5 40t-46.5 115q0 70 38.5 121.5t107.5 103.5l56 -20q-68 -43 -107 -90t-39 -108q0 -53 29.5 -82t83.5 -29q47 0 79 13z" />
    <glyph glyph-name="tilde" unicode="&#x2dc;" horiz-adv-x="760" 
d="M357 1328q-37 46 -66.5 69.5t-66.5 23.5q-51 0 -81 -40t-30 -122h-51q0 106 43 159t122 53q51 0 87.5 -23.5t81.5 -82.5q32 -41 60 -57t68 -16q52 0 88 46t36 124h52q0 -97 -50.5 -158t-125.5 -61q-60 0 -96.5 20.5t-70.5 64.5z" />
    <glyph glyph-name="hungarumlaut" unicode="&#x2dd;" horiz-adv-x="760" 
d="M175 1209h-46l246 301h65zM378 1209h-46l246 301h65z" />
    <glyph glyph-name="gravecmb" unicode="&#x300;" horiz-adv-x="0" 
d="M103 1211h-46l-265 301h66z" />
    <glyph glyph-name="acutecmb" unicode="&#x301;" horiz-adv-x="0" 
d="M7 1211h-46l246 301h65z" />
    <glyph glyph-name="circumflexcmb" unicode="&#x302;" horiz-adv-x="0" 
d="M-263 1239l240 335h54l233 -335h-57l-202 295h-5l-208 -295h-55z" />
    <glyph glyph-name="tildecmb" unicode="&#x303;" horiz-adv-x="0" 
d="M-36 1301q-37 46 -66.5 69.5t-66.5 23.5q-51 0 -81 -40t-30 -122h-51q0 106 43 159t122 53q51 0 87.5 -23.5t81.5 -82.5q32 -41 60 -57t68 -16q52 0 88 46t36 124h52q0 -97 -50.5 -158t-125.5 -61q-60 0 -96.5 20.5t-70.5 64.5z" />
    <glyph glyph-name="macroncmb" unicode="&#x304;" horiz-adv-x="0" 
d="M271 1258h-558v44h558v-44z" />
    <glyph glyph-name="brevecmb" unicode="&#x306;" horiz-adv-x="0" 
d="M-270 1437h52q0 -83 57 -134.5t154 -51.5q96 0 149 51t53 135h52q0 -96 -66 -165t-188 -69q-123 0 -193 68.5t-70 165.5z" />
    <glyph glyph-name="dotaccentcmb" unicode="&#x307;" horiz-adv-x="0" 
d="M-63 1327q0 27 18 45t43 18q27 0 45.5 -18t18.5 -45q0 -26 -18.5 -43.5t-45.5 -17.5q-25 0 -43 17.5t-18 43.5z" />
    <glyph glyph-name="dieresiscmb" unicode="&#x308;" horiz-adv-x="0" 
d="M-196 1308q0 24 18 42t42 18q25 0 43.5 -18t18.5 -42q0 -26 -18 -44t-44 -18q-24 0 -42 18.5t-18 43.5zM79 1308q0 24 18 42t42 18q25 0 43.5 -18t18.5 -42q0 -26 -18.5 -44t-43.5 -18q-24 0 -42 18.5t-18 43.5z" />
    <glyph glyph-name="hookabovecmb" unicode="&#x309;" horiz-adv-x="0" 
d="M-113 1408v50q11 10 39.5 19t61.5 9q72 0 118.5 -39.5t46.5 -101.5q0 -80 -94 -144l-34 37q75 49 75 107q0 41 -32.5 65.5t-78.5 24.5q-60 0 -102 -27z" />
    <glyph glyph-name="ringcmb" unicode="&#x30a;" horiz-adv-x="0" 
d="M-1 1181q-71 0 -120 49t-49 120q0 70 49 118t120 48q69 0 117.5 -48t48.5 -118t-48.5 -119.5t-117.5 -49.5zM-123 1350q0 -49 36.5 -85.5t85.5 -36.5q51 0 87 36t36 86q0 51 -36 87t-87 36q-49 0 -85.5 -36t-36.5 -87z" />
    <glyph glyph-name="hungarumlautcmb" unicode="&#x30b;" horiz-adv-x="0" 
d="M-92 1211h-46l246 301h65zM111 1211h-46l246 301h65z" />
    <glyph glyph-name="caroncmb" unicode="&#x30c;" horiz-adv-x="0" 
d="M-265 1553h55l208 -295h5l202 295h57l-233 -335h-54z" />
    <glyph glyph-name="dblgravecmb" unicode="&#x30f;" horiz-adv-x="0" 
d="M-113 1209l-265 301h65l246 -301h-46zM90 1209l-265 301h65l246 -301h-46z" />
    <glyph glyph-name="invertedbrevecmb" unicode="&#x311;" horiz-adv-x="0" 
d="M-263 1225q0 97 70 165.5t193 68.5q122 0 188 -69t66 -165h-52q0 84 -53 135t-149 51q-97 0 -154 -51.5t-57 -134.5h-52z" />
    <glyph glyph-name="horncmb" unicode="&#x31b;" horiz-adv-x="0" 
d="M0 977v53h26q75 0 120 39.5t45 109.5v106h54v-104q0 -106 -61 -155t-156 -49h-28z" />
    <glyph glyph-name="dotbelowcmb" unicode="&#x323;" horiz-adv-x="0" 
d="M-61 -292q0 27 18 45t43 18q27 0 45.5 -18t18.5 -45q0 -26 -18.5 -43.5t-45.5 -17.5q-25 0 -43 17.5t-18 43.5z" />
    <glyph glyph-name="dieresisbelowcmb" unicode="&#x324;" horiz-adv-x="0" 
d="M-195 -249q0 24 18 42t42 18q25 0 43.5 -18t18.5 -42q0 -25 -18.5 -43.5t-43.5 -18.5q-24 0 -42 18.5t-18 43.5zM80 -249q0 24 18 42t42 18q25 0 43.5 -18t18.5 -42q0 -25 -18 -43.5t-44 -18.5q-24 0 -42 18.5t-18 43.5z" />
    <glyph glyph-name="ringbelowcmb" unicode="&#x325;" horiz-adv-x="0" 
d="M-1 -489q-71 0 -120 49t-49 120q0 70 49 118t120 48q69 0 117.5 -48t48.5 -118t-48.5 -119.5t-117.5 -49.5zM-123 -320q0 -49 36.5 -85.5t85.5 -36.5q51 0 87 36t36 86q0 51 -36 87t-87 36q-49 0 -85.5 -36t-36.5 -87z" />
    <glyph glyph-name="commabelowcmb" unicode="&#x326;" horiz-adv-x="0" 
d="M-75 -479h-38l85 335h67z" />
    <glyph glyph-name="cedillacmb" unicode="&#x327;" horiz-adv-x="0" 
d="M-89 -186v39l66 147h52l-60 -139q84 0 144 -37t60 -115q0 -81 -68 -123.5t-158 -42.5q-70 0 -116 16v50q46 -16 122 -16q65 0 113 28.5t48 83.5q0 109 -153 109h-50z" />
    <glyph glyph-name="ogonekcmb" unicode="&#x328;" horiz-adv-x="0" 
d="M106 -287v-48q-38 -16 -84 -16q-71 0 -117.5 40t-46.5 115q0 70 38.5 121.5t107.5 103.5l56 -20q-68 -43 -107 -90t-39 -108q0 -53 29.5 -82t83.5 -29q47 0 79 13z" />
    <glyph glyph-name="circumflexbelowcmb" unicode="&#x32d;" horiz-adv-x="0" 
d="M-265 -427l240 335h54l233 -335h-57l-202 295h-5l-208 -295h-55z" />
    <glyph glyph-name="brevebelowcmb" unicode="&#x32e;" horiz-adv-x="0" 
d="M-263 -144h52q0 -83 57 -134.5t154 -51.5q96 0 149 51t53 135h52q0 -96 -66 -165t-188 -69q-123 0 -193 68.5t-70 165.5z" />
    <glyph glyph-name="tildebelowcmb" unicode="&#x330;" horiz-adv-x="0" 
d="M-20 -310q-37 46 -66.5 69.5t-66.5 23.5q-51 0 -81 -40t-30 -122h-51q0 106 43 159t122 53q51 0 87.5 -23.5t81.5 -82.5q32 -41 60 -57t68 -16q52 0 88 46t36 124h52q0 -97 -50.5 -158t-125.5 -61q-60 0 -96.5 20.5t-70.5 64.5z" />
    <glyph glyph-name="macronbelowcmb" unicode="&#x331;" horiz-adv-x="0" 
d="M271 -264h-558v44h558v-44z" />
    <glyph glyph-name="Delta" unicode="&#x394;" horiz-adv-x="1137" 
d="M50 0l487 1358h63l487 -1358h-1037zM566 1289l-437 -1236h878l-436 1236h-5z" />
    <glyph glyph-name="Omega" unicode="&#x3a9;" horiz-adv-x="1310" 
d="M768 0v106q157 41 250.5 178t93.5 328v218q0 231 -122.5 369.5t-334.5 138.5q-213 0 -335 -138.5t-122 -369.5v-218q0 -191 93.5 -328t250.5 -178v-106h-417v52h364v22q-66 20 -125 62t-110 106.5t-81.5 162.5t-30.5 215v202q0 264 136.5 416t376.5 152t376 -152
t136 -416v-202q0 -95 -20.5 -177.5t-54 -142t-79.5 -106.5t-94 -75.5t-100 -44.5v-22h366v-52h-417z" />
    <glyph glyph-name="mu" unicode="&#x3bc;" horiz-adv-x="1160" 
d="M215 145h-4l10 -476h-61v1361h56v-693q0 -136 79.5 -219t214.5 -83q83 0 151 33t110.5 88.5t65 123t22.5 140.5v610h56v-853q0 -132 101 -132q19 0 64 9v-53q-45 -7 -84 -7q-66 0 -101.5 42.5t-35.5 125.5v49h-4q-14 -41 -40.5 -79t-67.5 -73t-103 -56t-136 -21
q-98 0 -177.5 40t-115.5 123z" />
    <glyph glyph-name="pi" unicode="&#x3c0;" horiz-adv-x="1202" 
d="M1041 1q-42 -3 -81 -3q-75 0 -103.5 35.5t-28.5 98.5v844h-465v-976h-57v976h-259v54h1097v-54h-259v-839q0 -87 85 -87q42 0 71 3v-52z" />
    <glyph glyph-name="Aringbelow" unicode="&#x1e00;" horiz-adv-x="1137" 
d="M110 0h-60l487 1358h63l487 -1358h-61l-166 470h-584zM571 1289h-5l-273 -769h549zM573 -448q-71 0 -120 49t-49 120q0 70 49 118t120 48q69 0 117.5 -48t48.5 -118t-48.5 -119.5t-117.5 -49.5zM451 -279q0 -49 36.5 -85.5t85.5 -36.5q51 0 87 36t36 86q0 51 -36 87
t-87 36q-49 0 -85.5 -36t-36.5 -87z" />
    <glyph glyph-name="aringbelow" unicode="&#x1e01;" horiz-adv-x="1003" 
d="M778 178q-8 -26 -31 -56.5t-62 -63.5t-103 -54.5t-139 -21.5q-152 0 -244.5 82t-92.5 223q0 130 89.5 207t257.5 77h329v159q0 133 -78 199t-212 66q-70 0 -125 -18t-87 -46.5t-49.5 -58.5t-21.5 -60h-56q7 94 96.5 165t246.5 71q158 0 250 -79t92 -224v-745h-56v178h-4z
M444 35q140 0 239 87t99 225v171h-329q-143 0 -214.5 -62t-71.5 -168q0 -115 76.5 -184t200.5 -69zM501 -489q-71 0 -120 49t-49 120q0 70 49 118t120 48q69 0 117.5 -48t48.5 -118t-48.5 -119.5t-117.5 -49.5zM379 -320q0 -49 36.5 -85.5t85.5 -36.5q51 0 87 36t36 86
q0 51 -36 87t-87 36q-49 0 -85.5 -36t-36.5 -87z" />
    <glyph glyph-name="Bdotaccent" unicode="&#x1e02;" horiz-adv-x="1205" 
d="M198 0v1358h420q189 0 295.5 -87.5t106.5 -243.5q0 -75 -25.5 -137t-64.5 -98.5t-77 -57.5t-73 -27v-4q60 -6 114 -27.5t100.5 -61t73.5 -104t27 -146.5q0 -167 -113.5 -265.5t-325.5 -98.5h-458zM255 1305v-581h378q87 0 159.5 31t120.5 99.5t48 165.5q0 137 -92.5 211
t-259.5 74h-354zM255 671v-618h398q182 0 282.5 83t100.5 227q0 152 -107.5 230t-271.5 78h-402zM540 1655q0 27 18 45t43 18q27 0 45.5 -18t18.5 -45q0 -26 -18.5 -43.5t-45.5 -17.5q-25 0 -43 17.5t-18 43.5z" />
    <glyph glyph-name="bdotaccent" unicode="&#x1e03;" horiz-adv-x="1094" 
d="M580 -18q-80 0 -145 24t-104.5 62t-62.5 74t-34 71h-4v-213h-56v1435h56v-621h4q5 21 17.5 46.5t40.5 60t65 62t96.5 46.5t128.5 19q170 0 279.5 -117.5t109.5 -312.5v-204q0 -106 -32.5 -190.5t-88 -136t-124.5 -78.5t-146 -27zM580 35q65 0 123.5 23.5t106.5 70t76 124
t28 176.5v177q0 181 -95.5 285t-238.5 104q-82 0 -150 -32.5t-111 -86.5t-66 -123t-23 -143v-185q0 -168 96.5 -279t253.5 -111zM139 1732q0 27 18 45t43 18q27 0 45.5 -18t18.5 -45q0 -26 -18.5 -43.5t-45.5 -17.5q-25 0 -43 17.5t-18 43.5z" />
    <glyph glyph-name="Bdotbelow" unicode="&#x1e04;" horiz-adv-x="1205" 
d="M198 0v1358h420q189 0 295.5 -87.5t106.5 -243.5q0 -75 -25.5 -137t-64.5 -98.5t-77 -57.5t-73 -27v-4q60 -6 114 -27.5t100.5 -61t73.5 -104t27 -146.5q0 -167 -113.5 -265.5t-325.5 -98.5h-458zM255 1305v-581h378q87 0 159.5 31t120.5 99.5t48 165.5q0 137 -92.5 211
t-259.5 74h-354zM255 671v-618h398q182 0 282.5 83t100.5 227q0 152 -107.5 230t-271.5 78h-402zM542 -292q0 27 18 45t43 18q27 0 45.5 -18t18.5 -45q0 -26 -18.5 -43.5t-45.5 -17.5q-25 0 -43 17.5t-18 43.5z" />
    <glyph glyph-name="bdotbelow" unicode="&#x1e05;" horiz-adv-x="1094" 
d="M580 -18q-80 0 -145 24t-104.5 62t-62.5 74t-34 71h-4v-213h-56v1435h56v-621h4q5 21 17.5 46.5t40.5 60t65 62t96.5 46.5t128.5 19q170 0 279.5 -117.5t109.5 -312.5v-204q0 -106 -32.5 -190.5t-88 -136t-124.5 -78.5t-146 -27zM580 35q65 0 123.5 23.5t106.5 70t76 124
t28 176.5v177q0 181 -95.5 285t-238.5 104q-82 0 -150 -32.5t-111 -86.5t-66 -123t-23 -143v-185q0 -168 96.5 -279t253.5 -111zM486 -292q0 27 18 45t43 18q27 0 45.5 -18t18.5 -45q0 -26 -18.5 -43.5t-45.5 -17.5q-25 0 -43 17.5t-18 43.5z" />
    <glyph glyph-name="Blinebelow" unicode="&#x1e06;" horiz-adv-x="1205" 
d="M198 0v1358h420q189 0 295.5 -87.5t106.5 -243.5q0 -75 -25.5 -137t-64.5 -98.5t-77 -57.5t-73 -27v-4q60 -6 114 -27.5t100.5 -61t73.5 -104t27 -146.5q0 -167 -113.5 -265.5t-325.5 -98.5h-458zM255 1305v-581h378q87 0 159.5 31t120.5 99.5t48 165.5q0 137 -92.5 211
t-259.5 74h-354zM255 671v-618h398q182 0 282.5 83t100.5 227q0 152 -107.5 230t-271.5 78h-402zM874 -264h-558v44h558v-44z" />
    <glyph glyph-name="blinebelow" unicode="&#x1e07;" horiz-adv-x="1094" 
d="M580 -18q-80 0 -145 24t-104.5 62t-62.5 74t-34 71h-4v-213h-56v1435h56v-621h4q5 21 17.5 46.5t40.5 60t65 62t96.5 46.5t128.5 19q170 0 279.5 -117.5t109.5 -312.5v-204q0 -106 -32.5 -190.5t-88 -136t-124.5 -78.5t-146 -27zM580 35q65 0 123.5 23.5t106.5 70t76 124
t28 176.5v177q0 181 -95.5 285t-238.5 104q-82 0 -150 -32.5t-111 -86.5t-66 -123t-23 -143v-185q0 -168 96.5 -279t253.5 -111zM818 -264h-558v44h558v-44z" />
    <glyph glyph-name="Ccedillaacute" unicode="&#x1e08;" horiz-adv-x="1245" 
d="M619 -467q-70 0 -116 16v50q46 -16 122 -16q65 0 113 28.5t48 83.5q0 109 -153 109h-50v39l56 125q-105 2 -190 34t-141.5 86t-94.5 128.5t-54.5 158.5t-16.5 180v247q0 95 18 180.5t57.5 160.5t97 129.5t142 86t188.5 31.5q110 0 201 -37t146.5 -96.5t85.5 -129
t30 -139.5v-4h-55q0 60 -27 121t-76.5 113.5t-129.5 86t-175 33.5q-113 0 -201 -43.5t-140 -118t-78.5 -166.5t-26.5 -196v-270q0 -83 15.5 -158t50.5 -142.5t86.5 -116.5t128 -78t171.5 -29q184 0 299 102.5t115 251.5h55v-4q0 -102 -50.5 -189.5t-149.5 -145.5t-228 -66
l-51 -118q84 0 144 -37t60 -115q0 -81 -68 -123.5t-158 -42.5zM537 1512l315 250h81l-326 -250h-70z" />
    <glyph glyph-name="ccedillaacute" unicode="&#x1e09;" horiz-adv-x="1018" 
d="M493 -457q-70 0 -116 16v50q46 -16 122 -16q65 0 113 28.5t48 83.5q0 109 -153 109h-50v39l58 129q-180 5 -285 121.5t-105 332.5v166q0 212 111.5 329t288.5 117q89 0 162 -28t118.5 -74.5t71.5 -101t29 -111.5h-54q-15 108 -100.5 185t-226.5 77q-154 0 -249 -106.5
t-95 -300.5v-142q0 -200 94 -305.5t259 -105.5q76 0 136 21.5t96.5 58t57.5 77.5t29 87h53q-5 -50 -26 -97.5t-59.5 -91t-104 -72.5t-148.5 -35l-53 -122q84 0 144 -37t60 -115q0 -81 -68 -123.5t-158 -42.5zM531 1211h-46l246 301h65z" />
    <glyph glyph-name="Ddotaccent" unicode="&#x1e0a;" horiz-adv-x="1297" 
d="M198 1358h345q159 0 277.5 -48t191 -138t108 -213t35.5 -279q0 -158 -34.5 -280.5t-106 -213t-190.5 -138.5t-281 -48h-345v1358zM255 1305v-1252h290q144 0 250.5 44t172.5 127.5t98 197t32 258.5q0 143 -32.5 256.5t-98.5 196.5t-173 127.5t-249 44.5h-290zM586 1655
q0 27 18 45t43 18q27 0 45.5 -18t18.5 -45q0 -26 -18.5 -43.5t-45.5 -17.5q-25 0 -43 17.5t-18 43.5z" />
    <glyph glyph-name="ddotaccent" unicode="&#x1e0b;" horiz-adv-x="1094" 
d="M513 1048q80 0 145 -24t104.5 -62t62.5 -74t34 -71h4v618h56v-1435h-56v216h-4q-5 -21 -17.5 -46.5t-40.5 -60t-65 -62t-96.5 -46.5t-128.5 -19q-170 0 -279.5 117.5t-109.5 312.5v204q0 106 32.5 190.5t88 136t124.5 78.5t146 27zM513 995q-65 0 -123.5 -23.5
t-106.5 -70t-76 -124t-28 -176.5v-177q0 -181 95.5 -285t238.5 -104q66 0 123 21.5t98.5 58.5t70.5 86t43.5 105.5t14.5 115.5v181q0 168 -96.5 280t-253.5 112zM829 1732q0 27 18 45t43 18q27 0 45.5 -18t18.5 -45q0 -26 -18.5 -43.5t-45.5 -17.5q-25 0 -43 17.5t-18 43.5z
" />
    <glyph glyph-name="Ddotbelow" unicode="&#x1e0c;" horiz-adv-x="1297" 
d="M198 1358h345q159 0 277.5 -48t191 -138t108 -213t35.5 -279q0 -158 -34.5 -280.5t-106 -213t-190.5 -138.5t-281 -48h-345v1358zM255 1305v-1252h290q144 0 250.5 44t172.5 127.5t98 197t32 258.5q0 143 -32.5 256.5t-98.5 196.5t-173 127.5t-249 44.5h-290zM588 -292
q0 27 18 45t43 18q27 0 45.5 -18t18.5 -45q0 -26 -18.5 -43.5t-45.5 -17.5q-25 0 -43 17.5t-18 43.5z" />
    <glyph glyph-name="ddotbelow" unicode="&#x1e0d;" horiz-adv-x="1094" 
d="M513 1048q80 0 145 -24t104.5 -62t62.5 -74t34 -71h4v618h56v-1435h-56v216h-4q-5 -21 -17.5 -46.5t-40.5 -60t-65 -62t-96.5 -46.5t-128.5 -19q-170 0 -279.5 117.5t-109.5 312.5v204q0 106 32.5 190.5t88 136t124.5 78.5t146 27zM513 995q-65 0 -123.5 -23.5
t-106.5 -70t-76 -124t-28 -176.5v-177q0 -181 95.5 -285t238.5 -104q66 0 123 21.5t98.5 58.5t70.5 86t43.5 105.5t14.5 115.5v181q0 168 -96.5 280t-253.5 112zM486 -292q0 27 18 45t43 18q27 0 45.5 -18t18.5 -45q0 -26 -18.5 -43.5t-45.5 -17.5q-25 0 -43 17.5t-18 43.5z
" />
    <glyph glyph-name="Dlinebelow" unicode="&#x1e0e;" horiz-adv-x="1297" 
d="M198 1358h345q159 0 277.5 -48t191 -138t108 -213t35.5 -279q0 -158 -34.5 -280.5t-106 -213t-190.5 -138.5t-281 -48h-345v1358zM255 1305v-1252h290q144 0 250.5 44t172.5 127.5t98 197t32 258.5q0 143 -32.5 256.5t-98.5 196.5t-173 127.5t-249 44.5h-290zM920 -264
h-558v44h558v-44z" />
    <glyph glyph-name="dlinebelow" unicode="&#x1e0f;" horiz-adv-x="1094" 
d="M513 1048q80 0 145 -24t104.5 -62t62.5 -74t34 -71h4v618h56v-1435h-56v216h-4q-5 -21 -17.5 -46.5t-40.5 -60t-65 -62t-96.5 -46.5t-128.5 -19q-170 0 -279.5 117.5t-109.5 312.5v204q0 106 32.5 190.5t88 136t124.5 78.5t146 27zM513 995q-65 0 -123.5 -23.5
t-106.5 -70t-76 -124t-28 -176.5v-177q0 -181 95.5 -285t238.5 -104q66 0 123 21.5t98.5 58.5t70.5 86t43.5 105.5t14.5 115.5v181q0 168 -96.5 280t-253.5 112zM818 -264h-558v44h558v-44z" />
    <glyph glyph-name="Dcommaaccent" unicode="&#x1e10;" horiz-adv-x="1297" 
d="M198 1358h345q159 0 277.5 -48t191 -138t108 -213t35.5 -279q0 -158 -34.5 -280.5t-106 -213t-190.5 -138.5t-281 -48h-345v1358zM255 1305v-1252h290q144 0 250.5 44t172.5 127.5t98 197t32 258.5q0 143 -32.5 256.5t-98.5 196.5t-173 127.5t-249 44.5h-290zM574 -479
h-38l85 335h67z" />
    <glyph glyph-name="dcommaaccent" unicode="&#x1e11;" horiz-adv-x="1094" 
d="M513 1048q80 0 145 -24t104.5 -62t62.5 -74t34 -71h4v618h56v-1435h-56v216h-4q-5 -21 -17.5 -46.5t-40.5 -60t-65 -62t-96.5 -46.5t-128.5 -19q-170 0 -279.5 117.5t-109.5 312.5v204q0 106 32.5 190.5t88 136t124.5 78.5t146 27zM513 995q-65 0 -123.5 -23.5
t-106.5 -70t-76 -124t-28 -176.5v-177q0 -181 95.5 -285t238.5 -104q66 0 123 21.5t98.5 58.5t70.5 86t43.5 105.5t14.5 115.5v181q0 168 -96.5 280t-253.5 112zM472 -479h-38l85 335h67z" />
    <glyph glyph-name="Dcircumflexbelow" unicode="&#x1e12;" horiz-adv-x="1297" 
d="M198 1358h345q159 0 277.5 -48t191 -138t108 -213t35.5 -279q0 -158 -34.5 -280.5t-106 -213t-190.5 -138.5t-281 -48h-345v1358zM255 1305v-1252h290q144 0 250.5 44t172.5 127.5t98 197t32 258.5q0 143 -32.5 256.5t-98.5 196.5t-173 127.5t-249 44.5h-290zM384 -427
l240 335h54l233 -335h-57l-202 295h-5l-208 -295h-55z" />
    <glyph glyph-name="dcircumflexbelow" unicode="&#x1e13;" horiz-adv-x="1094" 
d="M513 1048q80 0 145 -24t104.5 -62t62.5 -74t34 -71h4v618h56v-1435h-56v216h-4q-5 -21 -17.5 -46.5t-40.5 -60t-65 -62t-96.5 -46.5t-128.5 -19q-170 0 -279.5 117.5t-109.5 312.5v204q0 106 32.5 190.5t88 136t124.5 78.5t146 27zM513 995q-65 0 -123.5 -23.5
t-106.5 -70t-76 -124t-28 -176.5v-177q0 -181 95.5 -285t238.5 -104q66 0 123 21.5t98.5 58.5t70.5 86t43.5 105.5t14.5 115.5v181q0 168 -96.5 280t-253.5 112zM282 -427l240 335h54l233 -335h-57l-202 295h-5l-208 -295h-55z" />
    <glyph glyph-name="Emacrongrave" unicode="&#x1e14;" horiz-adv-x="1067" 
d="M963 53v-53h-765v1358h765v-53h-708v-582h674v-53h-674v-617h708zM847 1525h-538v44h538v-44zM676 1702h-70l-326 250h81z" />
    <glyph glyph-name="emacrongrave" unicode="&#x1e15;" horiz-adv-x="1042" 
d="M533 -18q-191 0 -298.5 123t-107.5 348v107q0 238 107 363t288 125t288 -125t107 -363v-42h-734v-61q0 -203 94 -312.5t257 -109.5q74 0 134 21t96.5 54t57 70.5t24.5 74.5h56q-4 -45 -27.5 -90.5t-66 -87.5t-114.5 -68.5t-161 -26.5zM183 569h678v4q0 200 -92 311
t-247 111t-247 -111t-92 -311v-4zM792 1258h-558v44h558v-44zM624 1446h-46l-265 301h66z" />
    <glyph glyph-name="Emacronacute" unicode="&#x1e16;" horiz-adv-x="1067" 
d="M963 53v-53h-765v1358h765v-53h-708v-582h674v-53h-674v-617h708zM847 1525h-538v44h538v-44zM470 1700l315 250h81l-326 -250h-70z" />
    <glyph glyph-name="emacronacute" unicode="&#x1e17;" horiz-adv-x="1042" 
d="M533 -18q-191 0 -298.5 123t-107.5 348v107q0 238 107 363t288 125t288 -125t107 -363v-42h-734v-61q0 -203 94 -312.5t257 -109.5q74 0 134 21t96.5 54t57 70.5t24.5 74.5h56q-4 -45 -27.5 -90.5t-66 -87.5t-114.5 -68.5t-161 -26.5zM183 569h678v4q0 200 -92 311
t-247 111t-247 -111t-92 -311v-4zM792 1258h-558v44h558v-44zM528 1446h-46l246 301h65z" />
    <glyph glyph-name="Ecircumflexbelow" unicode="&#x1e18;" horiz-adv-x="1067" 
d="M963 53v-53h-765v1358h765v-53h-708v-582h674v-53h-674v-617h708zM313 -427l240 335h54l233 -335h-57l-202 295h-5l-208 -295h-55z" />
    <glyph glyph-name="ecircumflexbelow" unicode="&#x1e19;" horiz-adv-x="1042" 
d="M533 -18q-191 0 -298.5 123t-107.5 348v107q0 238 107 363t288 125t288 -125t107 -363v-42h-734v-61q0 -203 94 -312.5t257 -109.5q74 0 134 21t96.5 54t57 70.5t24.5 74.5h56q-4 -45 -27.5 -90.5t-66 -87.5t-114.5 -68.5t-161 -26.5zM183 569h678v4q0 200 -92 311
t-247 111t-247 -111t-92 -311v-4zM268 -427l240 335h54l233 -335h-57l-202 295h-5l-208 -295h-55z" />
    <glyph glyph-name="Etildebelow" unicode="&#x1e1a;" horiz-adv-x="1067" 
d="M963 53v-53h-765v1358h765v-53h-708v-582h674v-53h-674v-617h708zM558 -310q-37 46 -66.5 69.5t-66.5 23.5q-51 0 -81 -40t-30 -122h-51q0 106 43 159t122 53q51 0 87.5 -23.5t81.5 -82.5q32 -41 60 -57t68 -16q52 0 88 46t36 124h52q0 -97 -50.5 -158t-125.5 -61
q-60 0 -96.5 20.5t-70.5 64.5z" />
    <glyph glyph-name="etildebelow" unicode="&#x1e1b;" horiz-adv-x="1042" 
d="M533 -18q-191 0 -298.5 123t-107.5 348v107q0 238 107 363t288 125t288 -125t107 -363v-42h-734v-61q0 -203 94 -312.5t257 -109.5q74 0 134 21t96.5 54t57 70.5t24.5 74.5h56q-4 -45 -27.5 -90.5t-66 -87.5t-114.5 -68.5t-161 -26.5zM183 569h678v4q0 200 -92 311
t-247 111t-247 -111t-92 -311v-4zM513 -310q-37 46 -66.5 69.5t-66.5 23.5q-51 0 -81 -40t-30 -122h-51q0 106 43 159t122 53q51 0 87.5 -23.5t81.5 -82.5q32 -41 60 -57t68 -16q52 0 88 46t36 124h52q0 -97 -50.5 -158t-125.5 -61q-60 0 -96.5 20.5t-70.5 64.5z" />
    <glyph glyph-name="Ecedillabreve" unicode="&#x1e1c;" horiz-adv-x="1067" 
d="M530 -457q-70 0 -116 16v50q46 -16 122 -16q65 0 113 28.5t48 83.5q0 109 -153 109h-50v39l66 147h-362v1358h765v-53h-708v-582h674v-53h-674v-617h708v-53h-351l-60 -139q84 0 144 -37t60 -115q0 -81 -68 -123.5t-158 -42.5zM315 1704h52q0 -82 56 -127.5t155 -45.5
q98 0 150 45t52 128h52q0 -94 -65.5 -157.5t-188.5 -63.5q-124 0 -193.5 62.5t-69.5 158.5z" />
    <glyph glyph-name="ecedillabreve" unicode="&#x1e1d;" horiz-adv-x="1042" 
d="M183 569h678v4q0 200 -92 311t-247 111t-247 -111t-92 -311v-4zM498 -457q-70 0 -116 16v50q46 -16 122 -16q65 0 113 28.5t48 83.5q0 109 -153 109h-50v39l58 129q-185 5 -289 127.5t-104 343.5v107q0 238 107 363t288 125t288 -125t107 -363v-42h-734v-61
q0 -203 94 -312.5t257 -109.5q74 0 134 21t96.5 54t57 70.5t24.5 74.5h56q-4 -42 -25 -85t-59.5 -83.5t-102 -69t-142.5 -34.5l-53 -122q84 0 144 -37t60 -115q0 -81 -68 -123.5t-158 -42.5zM251 1437h52q0 -83 57 -134.5t154 -51.5q96 0 149 51t53 135h52q0 -96 -66 -165
t-188 -69q-123 0 -193 68.5t-70 165.5z" />
    <glyph glyph-name="Fdotaccent" unicode="&#x1e1e;" horiz-adv-x="998" 
d="M255 0h-57v1358h755v-53h-698v-591h640v-53h-640v-661zM436 1655q0 27 18 45t43 18q27 0 45.5 -18t18.5 -45q0 -26 -18.5 -43.5t-45.5 -17.5q-25 0 -43 17.5t-18 43.5z" />
    <glyph glyph-name="fdotaccent" unicode="&#x1e1f;" horiz-adv-x="616" 
d="M220 0v980h-183v50h183v139q0 137 62 196t196 59q65 0 113 -11v-48q-42 8 -117 8q-104 0 -151 -43.5t-47 -150.5v-149h305v-50h-305v-980h-56zM353 1721q0 27 18 45t43 18q27 0 45.5 -18t18.5 -45q0 -26 -18.5 -43.5t-45.5 -17.5q-25 0 -43 17.5t-18 43.5z" />
    <glyph glyph-name="Gmacron" unicode="&#x1e20;" horiz-adv-x="1261" 
d="M1114 1025h-53q0 39 -14.5 80.5t-46.5 83.5t-78 75t-116.5 53.5t-153.5 20.5q-208 0 -330.5 -145t-122.5 -385v-241q0 -159 48 -280t152 -194t253 -73q190 0 302 96.5t112 271.5v202h-421v52h474v-254q0 -202 -128 -311t-339 -109q-129 0 -228 46.5t-160 128.5t-91.5 189
t-30.5 235v241q0 264 136.5 423t374.5 159q113 0 203.5 -32.5t145 -86t83.5 -117t29 -129.5zM900 1525h-538v44h538v-44z" />
    <glyph glyph-name="gmacron" unicode="&#x1e21;" horiz-adv-x="1090" 
d="M527 -298q157 0 247 78.5t90 204.5v287h-4q-5 -21 -17.5 -46.5t-40.5 -60t-65 -62t-95.5 -46.5t-127.5 -19q-171 0 -281 117.5t-110 312.5v148q0 106 32.5 190.5t88.5 136t125.5 78.5t146.5 27q79 0 143.5 -24t104 -62t62.5 -74t34 -71h4v213h56v-1043
q0 -151 -105.5 -244.5t-288.5 -93.5q-91 0 -164 25t-116 65t-65.5 86t-24.5 93h57q6 -82 88 -149t226 -67zM516 995q-66 0 -124.5 -23.5t-106.5 -70t-76.5 -124t-28.5 -176.5v-121q0 -181 96 -285t240 -104q108 0 189 56t120 142t39 187v129q0 167 -96 278.5t-252 111.5z
M816 1258h-558v44h558v-44z" />
    <glyph glyph-name="Hdotaccent" unicode="&#x1e22;" horiz-adv-x="1326" 
d="M1128 0h-57v689h-816v-689h-57v1358h57v-617h816v617h57v-1358zM600 1655q0 27 18 45t43 18q27 0 45.5 -18t18.5 -45q0 -26 -18.5 -43.5t-45.5 -17.5q-25 0 -43 17.5t-18 43.5z" />
    <glyph glyph-name="hdotaccent" unicode="&#x1e23;" horiz-adv-x="1100" 
d="M174 0v1435h56v-615h4q27 93 116 160.5t228 67.5q157 0 256 -98t99 -271v-679h-56v673q0 140 -80.5 231t-220.5 91q-109 0 -189.5 -54t-118.5 -136t-38 -178v-627h-56zM139 1732q0 27 18 45t43 18q27 0 45.5 -18t18.5 -45q0 -26 -18.5 -43.5t-45.5 -17.5q-25 0 -43 17.5
t-18 43.5z" />
    <glyph glyph-name="Hdotbelow" unicode="&#x1e24;" horiz-adv-x="1326" 
d="M1128 0h-57v689h-816v-689h-57v1358h57v-617h816v617h57v-1358zM602 -292q0 27 18 45t43 18q27 0 45.5 -18t18.5 -45q0 -26 -18.5 -43.5t-45.5 -17.5q-25 0 -43 17.5t-18 43.5z" />
    <glyph glyph-name="hdotbelow" unicode="&#x1e25;" horiz-adv-x="1100" 
d="M174 0v1435h56v-615h4q27 93 116 160.5t228 67.5q157 0 256 -98t99 -271v-679h-56v673q0 140 -80.5 231t-220.5 91q-109 0 -189.5 -54t-118.5 -136t-38 -178v-627h-56zM489 -292q0 27 18 45t43 18q27 0 45.5 -18t18.5 -45q0 -26 -18.5 -43.5t-45.5 -17.5q-25 0 -43 17.5
t-18 43.5z" />
    <glyph glyph-name="Hdieresis" unicode="&#x1e26;" horiz-adv-x="1326" 
d="M1128 0h-57v689h-816v-689h-57v1358h57v-617h816v617h57v-1358zM467 1567q0 20 15 35.5t37 15.5t36.5 -15.5t14.5 -35.5t-14.5 -36.5t-36.5 -16.5t-37 16.5t-15 36.5zM758 1567q0 20 15 35.5t37 15.5t36.5 -15.5t14.5 -35.5t-14.5 -36.5t-36.5 -16.5t-37 16.5t-15 36.5z
" />
    <glyph glyph-name="hdieresis" unicode="&#x1e27;" horiz-adv-x="1100" 
d="M174 0v1435h56v-615h4q27 93 116 160.5t228 67.5q157 0 256 -98t99 -271v-679h-56v673q0 140 -80.5 231t-220.5 91q-109 0 -189.5 -54t-118.5 -136t-38 -178v-627h-56zM6 1713q0 24 18 42t42 18q25 0 43.5 -18t18.5 -42q0 -25 -18 -43.5t-44 -18.5q-24 0 -42 18.5
t-18 43.5zM281 1713q0 24 18 42t42 18q25 0 43.5 -18t18.5 -42q0 -25 -18.5 -43.5t-43.5 -18.5q-24 0 -42 18.5t-18 43.5z" />
    <glyph glyph-name="Hcedilla" unicode="&#x1e28;" horiz-adv-x="1326" 
d="M173 -457q-70 0 -116 16v50q46 -16 122 -16q65 0 113 28.5t48 83.5q0 109 -153 109h-50v39l66 147h-5v1358h57v-617h816v617h57v-1358h-57v689h-816v-689l-60 -139q84 0 144 -37t60 -115q0 -81 -68 -123.5t-158 -42.5z" />
    <glyph glyph-name="hcedilla" unicode="&#x1e29;" horiz-adv-x="1100" 
d="M148 -457q-70 0 -116 16v50q46 -16 122 -16q65 0 113 28.5t48 83.5q0 109 -153 109h-50v39l66 147h-4v1435h56v-615h4q27 93 116 160.5t228 67.5q157 0 256 -98t99 -271v-679h-56v673q0 140 -80.5 231t-220.5 91q-109 0 -189.5 -54t-118.5 -136t-38 -178v-627l-60 -139
q84 0 144 -37t60 -115q0 -81 -68 -123.5t-158 -42.5z" />
    <glyph glyph-name="Hbrevebelow" unicode="&#x1e2a;" horiz-adv-x="1326" 
d="M1128 0h-57v689h-816v-689h-57v1358h57v-617h816v617h57v-1358zM400 -144q0 -97 70 -165.5t193 -68.5q122 0 188 69t66 165h-52q0 -84 -53 -135t-149 -51q-97 0 -154 51.5t-57 134.5h-52z" />
    <glyph glyph-name="hbrevebelow" unicode="&#x1e2b;" horiz-adv-x="1100" 
d="M174 0v1435h56v-615h4q27 93 116 160.5t228 67.5q157 0 256 -98t99 -271v-679h-56v673q0 140 -80.5 231t-220.5 91q-109 0 -189.5 -54t-118.5 -136t-38 -178v-627h-56zM287 -144q0 -97 70 -165.5t193 -68.5q122 0 188 69t66 165h-52q0 -84 -53 -135t-149 -51
q-97 0 -154 51.5t-57 134.5h-52z" />
    <glyph glyph-name="Itildebelow" unicode="&#x1e2c;" horiz-adv-x="493" 
d="M275 0h-57v1358h57v-1358zM227 -310q-37 46 -66.5 69.5t-66.5 23.5q-51 0 -81 -40t-30 -122h-51q0 106 43 159t122 53q51 0 87.5 -23.5t81.5 -82.5q32 -41 60 -57t68 -16q52 0 88 46t36 124h52q0 -97 -50.5 -158t-125.5 -61q-60 0 -96.5 20.5t-70.5 64.5z" />
    <glyph glyph-name="itildebelow" unicode="&#x1e2d;" horiz-adv-x="437" 
d="M190 0v1030h56v-1030h-56zM158 1329q0 26 17.5 43.5t42.5 17.5q26 0 43.5 -18t17.5 -43t-17.5 -42.5t-43.5 -17.5t-43 17.5t-17 42.5zM199 -310q-37 46 -66.5 69.5t-66.5 23.5q-51 0 -81 -40t-30 -122h-51q0 106 43 159t122 53q51 0 87.5 -23.5t81.5 -82.5q32 -41 60 -57
t68 -16q52 0 88 46t36 124h52q0 -97 -50.5 -158t-125.5 -61q-60 0 -96.5 20.5t-70.5 64.5z" />
    <glyph glyph-name="Idieresisacute" unicode="&#x1e2e;" horiz-adv-x="493" 
d="M275 0h-57v1358h57v-1358zM51 1567q0 20 15 35.5t37 15.5t36.5 -15.5t14.5 -35.5t-14.5 -36.5t-36.5 -16.5t-37 16.5t-15 36.5zM342 1567q0 20 15 35.5t37 15.5t36.5 -15.5t14.5 -35.5t-14.5 -36.5t-36.5 -16.5t-37 16.5t-15 36.5zM139 1700l315 250h81l-326 -250h-70z
" />
    <glyph glyph-name="idieresisacute" unicode="&#x1e2f;" horiz-adv-x="393" 
d="M168 0v1030h56v-1030h-56zM1 1308q0 24 18 42t42 18q25 0 43.5 -18t18.5 -42q0 -26 -18.5 -44t-43.5 -18q-24 0 -42 18.5t-18 43.5zM276 1308q0 24 18 42t42 18q25 0 43.5 -18t18.5 -42q0 -26 -18 -44t-44 -18q-24 0 -42 18.5t-18 43.5zM204 1446h-46l246 301h65z" />
    <glyph glyph-name="Kacute" unicode="&#x1e30;" horiz-adv-x="1089" 
d="M1037 1358l-573 -612l607 -746h-74l-574 709l-168 -177v-532h-57v1358h57v-749h1l706 749h75zM437 1512l315 250h81l-326 -250h-70z" />
    <glyph glyph-name="kacute" unicode="&#x1e31;" horiz-adv-x="993" 
d="M230 433v-433h-56v1435h56v-931h4l590 545h76l-470 -437l485 -612h-73l-455 574zM209 1616h-46l246 301h65z" />
    <glyph glyph-name="Kdotbelow" unicode="&#x1e32;" horiz-adv-x="1089" 
d="M1037 1358l-573 -612l607 -746h-74l-574 709l-168 -177v-532h-57v1358h57v-749h1l706 749h75zM484 -292q0 27 18 45t43 18q27 0 45.5 -18t18.5 -45q0 -26 -18.5 -43.5t-45.5 -17.5q-25 0 -43 17.5t-18 43.5z" />
    <glyph glyph-name="kdotbelow" unicode="&#x1e33;" horiz-adv-x="993" 
d="M230 433v-433h-56v1435h56v-931h4l590 545h76l-470 -437l485 -612h-73l-455 574zM436 -292q0 27 18 45t43 18q27 0 45.5 -18t18.5 -45q0 -26 -18.5 -43.5t-45.5 -17.5q-25 0 -43 17.5t-18 43.5z" />
    <glyph glyph-name="Klinebelow" unicode="&#x1e34;" horiz-adv-x="1089" 
d="M1037 1358l-573 -612l607 -746h-74l-574 709l-168 -177v-532h-57v1358h57v-749h1l706 749h75zM816 -264h-558v44h558v-44z" />
    <glyph glyph-name="klinebelow" unicode="&#x1e35;" horiz-adv-x="993" 
d="M230 433v-433h-56v1435h56v-931h4l590 545h76l-470 -437l485 -612h-73l-455 574zM768 -264h-558v44h558v-44z" />
    <glyph glyph-name="Ldotbelow" unicode="&#x1e36;" horiz-adv-x="1022" 
d="M952 52v-52h-754v1358h57v-1306h697zM470 -292q0 27 18 45t43 18q27 0 45.5 -18t18.5 -45q0 -26 -18.5 -43.5t-45.5 -17.5q-25 0 -43 17.5t-18 43.5z" />
    <glyph glyph-name="ldotbelow" unicode="&#x1e37;" horiz-adv-x="436" 
d="M190 0v1435h56v-1435h-56zM157 -292q0 27 18 45t43 18q27 0 45.5 -18t18.5 -45q0 -26 -18.5 -43.5t-45.5 -17.5q-25 0 -43 17.5t-18 43.5z" />
    <glyph glyph-name="Ldotbelowmacron" unicode="&#x1e38;" horiz-adv-x="1022" 
d="M952 52v-52h-754v1358h57v-1306h697zM470 -292q0 27 18 45t43 18q27 0 45.5 -18t18.5 -45q0 -26 -18.5 -43.5t-45.5 -17.5q-25 0 -43 17.5t-18 43.5zM495 1525h-538v44h538v-44z" />
    <glyph glyph-name="ldotbelowmacron" unicode="&#x1e39;" horiz-adv-x="436" 
d="M190 0v1435h56v-1435h-56zM157 -292q0 27 18 45t43 18q27 0 45.5 -18t18.5 -45q0 -26 -18.5 -43.5t-45.5 -17.5q-25 0 -43 17.5t-18 43.5zM489 1663h-558v44h558v-44z" />
    <glyph glyph-name="Llinebelow" unicode="&#x1e3a;" horiz-adv-x="1022" 
d="M952 52v-52h-754v1358h57v-1306h697zM802 -264h-558v44h558v-44z" />
    <glyph glyph-name="llinebelow" unicode="&#x1e3b;" horiz-adv-x="436" 
d="M190 0v1435h56v-1435h-56zM489 -264h-558v44h558v-44z" />
    <glyph glyph-name="Lcircumflexbelow" unicode="&#x1e3c;" horiz-adv-x="1022" 
d="M952 52v-52h-754v1358h57v-1306h697zM266 -427l240 335h54l233 -335h-57l-202 295h-5l-208 -295h-55z" />
    <glyph glyph-name="lcircumflexbelow" unicode="&#x1e3d;" horiz-adv-x="436" 
d="M190 0v1435h56v-1435h-56zM-47 -427l240 335h54l233 -335h-57l-202 295h-5l-208 -295h-55z" />
    <glyph glyph-name="Macute" unicode="&#x1e3e;" horiz-adv-x="1574" 
d="M251 0h-53v1358h58l529 -1185h4l530 1185h57v-1358h-53v1232h-4l-504 -1127h-56l-504 1127h-4v-1232zM679 1512l315 250h81l-326 -250h-70z" />
    <glyph glyph-name="macute" unicode="&#x1e3f;" horiz-adv-x="1645" 
d="M170 0v1030h56v-184h4q8 32 28 64.5t53.5 65t88.5 52.5t123 20q130 0 209 -65.5t100 -160.5h4q6 32 27 68t57 73t96 61t133 24q146 0 237.5 -88.5t91.5 -253.5v-706h-56v691q0 150 -75.5 227t-198.5 77q-94 0 -163 -47t-101 -117.5t-32 -151.5v-679h-56v687
q0 147 -73.5 227.5t-200.5 80.5q-142 0 -219 -96.5t-77 -240.5v-658h-56zM830 1211h-46l246 301h65z" />
    <glyph glyph-name="Mdotaccent" unicode="&#x1e40;" horiz-adv-x="1574" 
d="M251 0h-53v1358h58l529 -1185h4l530 1185h57v-1358h-53v1232h-4l-504 -1127h-56l-504 1127h-4v-1232zM724 1655q0 27 18 45t43 18q27 0 45.5 -18t18.5 -45q0 -26 -18.5 -43.5t-45.5 -17.5q-25 0 -43 17.5t-18 43.5z" />
    <glyph glyph-name="mdotaccent" unicode="&#x1e41;" horiz-adv-x="1645" 
d="M170 0v1030h56v-184h4q8 32 28 64.5t53.5 65t88.5 52.5t123 20q130 0 209 -65.5t100 -160.5h4q6 32 27 68t57 73t96 61t133 24q146 0 237.5 -88.5t91.5 -253.5v-706h-56v691q0 150 -75.5 227t-198.5 77q-94 0 -163 -47t-101 -117.5t-32 -151.5v-679h-56v687
q0 147 -73.5 227.5t-200.5 80.5q-142 0 -219 -96.5t-77 -240.5v-658h-56zM760 1327q0 27 18 45t43 18q27 0 45.5 -18t18.5 -45q0 -26 -18.5 -43.5t-45.5 -17.5q-25 0 -43 17.5t-18 43.5z" />
    <glyph glyph-name="Mdotbelow" unicode="&#x1e42;" horiz-adv-x="1574" 
d="M251 0h-53v1358h58l529 -1185h4l530 1185h57v-1358h-53v1232h-4l-504 -1127h-56l-504 1127h-4v-1232zM726 -292q0 27 18 45t43 18q27 0 45.5 -18t18.5 -45q0 -26 -18.5 -43.5t-45.5 -17.5q-25 0 -43 17.5t-18 43.5z" />
    <glyph glyph-name="mdotbelow" unicode="&#x1e43;" horiz-adv-x="1645" 
d="M170 0v1030h56v-184h4q8 32 28 64.5t53.5 65t88.5 52.5t123 20q130 0 209 -65.5t100 -160.5h4q6 32 27 68t57 73t96 61t133 24q146 0 237.5 -88.5t91.5 -253.5v-706h-56v691q0 150 -75.5 227t-198.5 77q-94 0 -163 -47t-101 -117.5t-32 -151.5v-679h-56v687
q0 147 -73.5 227.5t-200.5 80.5q-142 0 -219 -96.5t-77 -240.5v-658h-56zM762 -292q0 27 18 45t43 18q27 0 45.5 -18t18.5 -45q0 -26 -18.5 -43.5t-45.5 -17.5q-25 0 -43 17.5t-18 43.5z" />
    <glyph glyph-name="Ndotaccent" unicode="&#x1e44;" horiz-adv-x="1326" 
d="M255 0h-57v1358h60l809 -1256h4v1256h57v-1358h-60l-809 1256h-4v-1256zM600 1655q0 27 18 45t43 18q27 0 45.5 -18t18.5 -45q0 -26 -18.5 -43.5t-45.5 -17.5q-25 0 -43 17.5t-18 43.5z" />
    <glyph glyph-name="ndotaccent" unicode="&#x1e45;" horiz-adv-x="1085" 
d="M170 0v1030h56v-210h4q27 93 115 160.5t227 67.5q157 0 255 -97.5t98 -271.5v-679h-56v673q0 140 -79.5 231t-219.5 91q-109 0 -189 -54t-117.5 -136t-37.5 -178v-627h-56zM480 1327q0 27 18 45t43 18q27 0 45.5 -18t18.5 -45q0 -26 -18.5 -43.5t-45.5 -17.5
q-25 0 -43 17.5t-18 43.5z" />
    <glyph glyph-name="Ndotbelow" unicode="&#x1e46;" horiz-adv-x="1326" 
d="M255 0h-57v1358h60l809 -1256h4v1256h57v-1358h-60l-809 1256h-4v-1256zM602 -292q0 27 18 45t43 18q27 0 45.5 -18t18.5 -45q0 -26 -18.5 -43.5t-45.5 -17.5q-25 0 -43 17.5t-18 43.5z" />
    <glyph glyph-name="ndotbelow" unicode="&#x1e47;" horiz-adv-x="1085" 
d="M170 0v1030h56v-210h4q27 93 115 160.5t227 67.5q157 0 255 -97.5t98 -271.5v-679h-56v673q0 140 -79.5 231t-219.5 91q-109 0 -189 -54t-117.5 -136t-37.5 -178v-627h-56zM482 -292q0 27 18 45t43 18q27 0 45.5 -18t18.5 -45q0 -26 -18.5 -43.5t-45.5 -17.5
q-25 0 -43 17.5t-18 43.5z" />
    <glyph glyph-name="Nlinebelow" unicode="&#x1e48;" horiz-adv-x="1326" 
d="M255 0h-57v1358h60l809 -1256h4v1256h57v-1358h-60l-809 1256h-4v-1256zM934 -264h-558v44h558v-44z" />
    <glyph glyph-name="nlinebelow" unicode="&#x1e49;" horiz-adv-x="1085" 
d="M170 0v1030h56v-210h4q27 93 115 160.5t227 67.5q157 0 255 -97.5t98 -271.5v-679h-56v673q0 140 -79.5 231t-219.5 91q-109 0 -189 -54t-117.5 -136t-37.5 -178v-627h-56zM814 -264h-558v44h558v-44z" />
    <glyph glyph-name="Ncircumflexbelow" unicode="&#x1e4a;" horiz-adv-x="1326" 
d="M255 0h-57v1358h60l809 -1256h4v1256h57v-1358h-60l-809 1256h-4v-1256zM398 -427l240 335h54l233 -335h-57l-202 295h-5l-208 -295h-55z" />
    <glyph glyph-name="ncircumflexbelow" unicode="&#x1e4b;" horiz-adv-x="1085" 
d="M170 0v1030h56v-210h4q27 93 115 160.5t227 67.5q157 0 255 -97.5t98 -271.5v-679h-56v673q0 140 -79.5 231t-219.5 91q-109 0 -189 -54t-117.5 -136t-37.5 -178v-627h-56zM278 -427l240 335h54l233 -335h-57l-202 295h-5l-208 -295h-55z" />
    <glyph glyph-name="Otildeacute" unicode="&#x1e4c;" horiz-adv-x="1310" 
d="M198 815v-272q0 -234 122 -378.5t335 -144.5t335 144.5t122 378.5v272q0 233 -122.5 378t-334.5 145t-334.5 -145t-122.5 -378zM142 551v256q0 267 135 425t378 158t378 -159t135 -426v-254q0 -267 -135 -425t-378 -158t-378 158t-135 425zM620 1568q-29 41 -54.5 61
t-57.5 20q-97 0 -97 -141h-44q0 90 37.5 137t106.5 47q44 0 76 -21t72 -71q28 -37 51 -51.5t57 -14.5q46 0 77.5 40.5t31.5 108.5h45q0 -85 -44 -138t-110 -53q-50 0 -80.5 18t-66.5 58zM547 1700l315 250h81l-326 -250h-70z" />
    <glyph glyph-name="otildeacute" unicode="&#x1e4d;" 
d="M539 1048q178 0 297 -120.5t119 -333.5v-163q0 -109 -32.5 -195.5t-89.5 -141.5t-132 -83.5t-162 -28.5t-162 29t-131.5 84t-88.5 141t-32 195v163q0 217 116 335.5t298 118.5zM539 995q-158 0 -258 -106.5t-100 -303.5v-145q0 -196 99.5 -300.5t259.5 -104.5
q158 0 258 104t100 301v145q0 195 -101 302.5t-258 107.5zM504 1301q-37 46 -66.5 69.5t-66.5 23.5q-51 0 -81 -40t-30 -122h-51q0 106 43 159t122 53q51 0 87.5 -23.5t81.5 -82.5q32 -41 60 -57t68 -16q52 0 88 46t36 124h52q0 -97 -50.5 -158t-125.5 -61q-60 0 -96.5 20.5
t-70.5 64.5zM547 1446h-46l246 301h65z" />
    <glyph glyph-name="Otildedieresis" unicode="&#x1e4e;" horiz-adv-x="1310" 
d="M198 815v-272q0 -234 122 -378.5t335 -144.5t335 144.5t122 378.5v272q0 233 -122.5 378t-334.5 145t-334.5 -145t-122.5 -378zM142 551v256q0 267 135 425t378 158t378 -159t135 -426v-254q0 -267 -135 -425t-378 -158t-378 158t-135 425zM620 1568q-29 41 -54.5 61
t-57.5 20q-97 0 -97 -141h-44q0 90 37.5 137t106.5 47q44 0 76 -21t72 -71q28 -37 51 -51.5t57 -14.5q46 0 77.5 40.5t31.5 108.5h45q0 -85 -44 -138t-110 -53q-50 0 -80.5 18t-66.5 58zM459 1825q0 20 15 35.5t37 15.5t36.5 -15.5t14.5 -35.5t-14.5 -36.5t-36.5 -16.5
t-37 16.5t-15 36.5zM750 1825q0 20 15 35.5t37 15.5t36.5 -15.5t14.5 -35.5t-14.5 -36.5t-36.5 -16.5t-37 16.5t-15 36.5z" />
    <glyph glyph-name="otildedieresis" unicode="&#x1e4f;" 
d="M539 1048q178 0 297 -120.5t119 -333.5v-163q0 -109 -32.5 -195.5t-89.5 -141.5t-132 -83.5t-162 -28.5t-162 29t-131.5 84t-88.5 141t-32 195v163q0 217 116 335.5t298 118.5zM539 995q-158 0 -258 -106.5t-100 -303.5v-145q0 -196 99.5 -300.5t259.5 -104.5
q158 0 258 104t100 301v145q0 195 -101 302.5t-258 107.5zM504 1301q-37 46 -66.5 69.5t-66.5 23.5q-51 0 -81 -40t-30 -122h-51q0 106 43 159t122 53q51 0 87.5 -23.5t81.5 -82.5q32 -41 60 -57t68 -16q52 0 88 46t36 124h52q0 -97 -50.5 -158t-125.5 -61q-60 0 -96.5 20.5
t-70.5 64.5zM344 1583q0 24 18 42t42 18q25 0 43.5 -18t18.5 -42q0 -25 -18 -43.5t-44 -18.5q-24 0 -42 18.5t-18 43.5zM619 1583q0 24 18 42t42 18q25 0 43.5 -18t18.5 -42q0 -25 -18.5 -43.5t-43.5 -18.5q-24 0 -42 18.5t-18 43.5z" />
    <glyph glyph-name="Omacrongrave" unicode="&#x1e50;" horiz-adv-x="1310" 
d="M198 815v-272q0 -234 122 -378.5t335 -144.5t335 144.5t122 378.5v272q0 233 -122.5 378t-334.5 145t-334.5 -145t-122.5 -378zM142 551v256q0 267 135 425t378 158t378 -159t135 -426v-254q0 -267 -135 -425t-378 -158t-378 158t-135 425zM924 1525h-538v44h538v-44z
M753 1702h-70l-326 250h81z" />
    <glyph glyph-name="omacrongrave" unicode="&#x1e51;" 
d="M539 1048q178 0 297 -120.5t119 -333.5v-163q0 -109 -32.5 -195.5t-89.5 -141.5t-132 -83.5t-162 -28.5t-162 29t-131.5 84t-88.5 141t-32 195v163q0 217 116 335.5t298 118.5zM539 995q-158 0 -258 -106.5t-100 -303.5v-145q0 -196 99.5 -300.5t259.5 -104.5
q158 0 258 104t100 301v145q0 195 -101 302.5t-258 107.5zM811 1258h-558v44h558v-44zM643 1446h-46l-265 301h66z" />
    <glyph glyph-name="Omacronacute" unicode="&#x1e52;" horiz-adv-x="1310" 
d="M198 815v-272q0 -234 122 -378.5t335 -144.5t335 144.5t122 378.5v272q0 233 -122.5 378t-334.5 145t-334.5 -145t-122.5 -378zM142 551v256q0 267 135 425t378 158t378 -159t135 -426v-254q0 -267 -135 -425t-378 -158t-378 158t-135 425zM924 1525h-538v44h538v-44z
M547 1700l315 250h81l-326 -250h-70z" />
    <glyph glyph-name="omacronacute" unicode="&#x1e53;" 
d="M539 1048q178 0 297 -120.5t119 -333.5v-163q0 -109 -32.5 -195.5t-89.5 -141.5t-132 -83.5t-162 -28.5t-162 29t-131.5 84t-88.5 141t-32 195v163q0 217 116 335.5t298 118.5zM539 995q-158 0 -258 -106.5t-100 -303.5v-145q0 -196 99.5 -300.5t259.5 -104.5
q158 0 258 104t100 301v145q0 195 -101 302.5t-258 107.5zM811 1258h-558v44h558v-44zM547 1446h-46l246 301h65z" />
    <glyph glyph-name="Pacute" unicode="&#x1e54;" horiz-adv-x="1121" 
d="M198 1358h422q203 0 312 -105t109 -290q0 -184 -109 -288t-312 -104h-365v-571h-57v1358zM255 1305v-682h363q173 0 269 90t96 250q0 162 -95.5 252t-269.5 90h-363zM453 1512l315 250h81l-326 -250h-70z" />
    <glyph glyph-name="pacute" unicode="&#x1e55;" horiz-adv-x="1090" 
d="M576 -18q-80 0 -145 24t-104.5 62t-62.5 74t-34 71h-4v-539h-56v1356h56v-216h4q5 21 17.5 46.5t40.5 60t65 62t96.5 46.5t128.5 19q170 0 279.5 -117.5t109.5 -312.5v-204q0 -106 -32.5 -190.5t-88 -136t-124.5 -78.5t-146 -27zM576 35q65 0 123.5 23.5t106.5 70t76 124
t28 176.5v177q0 181 -95.5 285t-238.5 104q-66 0 -123 -21.5t-98.5 -58.5t-70.5 -86t-43.5 -105.5t-14.5 -115.5v-181q0 -168 96.5 -280t253.5 -112zM552 1211h-46l246 301h65z" />
    <glyph glyph-name="Pdotaccent" unicode="&#x1e56;" horiz-adv-x="1121" 
d="M198 1358h422q203 0 312 -105t109 -290q0 -184 -109 -288t-312 -104h-365v-571h-57v1358zM255 1305v-682h363q173 0 269 90t96 250q0 162 -95.5 252t-269.5 90h-363zM498 1655q0 27 18 45t43 18q27 0 45.5 -18t18.5 -45q0 -26 -18.5 -43.5t-45.5 -17.5q-25 0 -43 17.5
t-18 43.5z" />
    <glyph glyph-name="pdotaccent" unicode="&#x1e57;" horiz-adv-x="1090" 
d="M576 -18q-80 0 -145 24t-104.5 62t-62.5 74t-34 71h-4v-539h-56v1356h56v-216h4q5 21 17.5 46.5t40.5 60t65 62t96.5 46.5t128.5 19q170 0 279.5 -117.5t109.5 -312.5v-204q0 -106 -32.5 -190.5t-88 -136t-124.5 -78.5t-146 -27zM576 35q65 0 123.5 23.5t106.5 70t76 124
t28 176.5v177q0 181 -95.5 285t-238.5 104q-66 0 -123 -21.5t-98.5 -58.5t-70.5 -86t-43.5 -105.5t-14.5 -115.5v-181q0 -168 96.5 -280t253.5 -112zM482 1327q0 27 18 45t43 18q27 0 45.5 -18t18.5 -45q0 -26 -18.5 -43.5t-45.5 -17.5q-25 0 -43 17.5t-18 43.5z" />
    <glyph glyph-name="Rdotaccent" unicode="&#x1e58;" horiz-adv-x="1181" 
d="M632 1358q185 0 295 -102t110 -273q0 -150 -81.5 -242.5t-218.5 -121.5l322 -619h-66l-318 608h-420v-608h-57v1358h434zM255 659h368q162 0 259 87.5t97 236.5q0 150 -96 237t-260 87h-368v-648zM528 1655q0 27 18 45t43 18q27 0 45.5 -18t18.5 -45q0 -26 -18.5 -43.5
t-45.5 -17.5q-25 0 -43 17.5t-18 43.5z" />
    <glyph glyph-name="rdotaccent" unicode="&#x1e59;" horiz-adv-x="660" 
d="M170 0v1030h56v-213h4q7 39 29 77.5t58 73.5t94 56.5t127 21.5q48 0 92 -8v-56q-37 11 -96 11q-60 0 -114 -21.5t-98 -63.5t-70 -113.5t-26 -163.5v-631h-56zM267 1327q0 27 18 45t43 18q27 0 45.5 -18t18.5 -45q0 -26 -18.5 -43.5t-45.5 -17.5q-25 0 -43 17.5t-18 43.5z
" />
    <glyph glyph-name="Rdotbelow" unicode="&#x1e5a;" horiz-adv-x="1181" 
d="M632 1358q185 0 295 -102t110 -273q0 -150 -81.5 -242.5t-218.5 -121.5l322 -619h-66l-318 608h-420v-608h-57v1358h434zM255 659h368q162 0 259 87.5t97 236.5q0 150 -96 237t-260 87h-368v-648zM530 -292q0 27 18 45t43 18q27 0 45.5 -18t18.5 -45q0 -26 -18.5 -43.5
t-45.5 -17.5q-25 0 -43 17.5t-18 43.5z" />
    <glyph glyph-name="rdotbelow" unicode="&#x1e5b;" horiz-adv-x="660" 
d="M170 0v1030h56v-213h4q7 39 29 77.5t58 73.5t94 56.5t127 21.5q48 0 92 -8v-56q-37 11 -96 11q-60 0 -114 -21.5t-98 -63.5t-70 -113.5t-26 -163.5v-631h-56zM137 -292q0 27 18 45t43 18q27 0 45.5 -18t18.5 -45q0 -26 -18.5 -43.5t-45.5 -17.5q-25 0 -43 17.5t-18 43.5z
" />
    <glyph glyph-name="Rdotbelowmacron" unicode="&#x1e5c;" horiz-adv-x="1181" 
d="M632 1358q185 0 295 -102t110 -273q0 -150 -81.5 -242.5t-218.5 -121.5l322 -619h-66l-318 608h-420v-608h-57v1358h434zM255 659h368q162 0 259 87.5t97 236.5q0 150 -96 237t-260 87h-368v-648zM530 -292q0 27 18 45t43 18q27 0 45.5 -18t18.5 -45q0 -26 -18.5 -43.5
t-45.5 -17.5q-25 0 -43 17.5t-18 43.5zM860 1525h-538v44h538v-44z" />
    <glyph glyph-name="rdotbelowmacron" unicode="&#x1e5d;" horiz-adv-x="660" 
d="M170 0v1030h56v-213h4q7 39 29 77.5t58 73.5t94 56.5t127 21.5q48 0 92 -8v-56q-37 11 -96 11q-60 0 -114 -21.5t-98 -63.5t-70 -113.5t-26 -163.5v-631h-56zM137 -292q0 27 18 45t43 18q27 0 45.5 -18t18.5 -45q0 -26 -18.5 -43.5t-45.5 -17.5q-25 0 -43 17.5t-18 43.5z
M601 1258h-558v44h558v-44z" />
    <glyph glyph-name="Rlinebelow" unicode="&#x1e5e;" horiz-adv-x="1181" 
d="M632 1358q185 0 295 -102t110 -273q0 -150 -81.5 -242.5t-218.5 -121.5l322 -619h-66l-318 608h-420v-608h-57v1358h434zM255 659h368q162 0 259 87.5t97 236.5q0 150 -96 237t-260 87h-368v-648zM862 -264h-558v44h558v-44z" />
    <glyph glyph-name="rlinebelow" unicode="&#x1e5f;" horiz-adv-x="660" 
d="M170 0v1030h56v-213h4q7 39 29 77.5t58 73.5t94 56.5t127 21.5q48 0 92 -8v-56q-37 11 -96 11q-60 0 -114 -21.5t-98 -63.5t-70 -113.5t-26 -163.5v-631h-56zM469 -264h-558v44h558v-44z" />
    <glyph glyph-name="Sdotaccent" unicode="&#x1e60;" horiz-adv-x="1140" 
d="M112 338h59q1 -39 13 -79.5t42 -84t74 -77t115.5 -55t159.5 -21.5q176 0 286 88.5t110 224.5q0 68 -21.5 118t-69 86t-106.5 61t-149 49l-157 42q-153 41 -231.5 122.5t-78.5 219.5q0 161 114.5 259.5t311.5 98.5q101 0 182 -27.5t131.5 -74.5t77 -105t26.5 -123h-59
q-1 38 -13 75.5t-40 74t-68 64.5t-101.5 45.5t-135.5 17.5q-171 0 -268.5 -84t-97.5 -222q0 -121 69.5 -186.5t216.5 -105.5l150 -41q98 -27 162.5 -54.5t115.5 -69t74.5 -99.5t23.5 -138q0 -168 -127 -268.5t-333 -100.5q-98 0 -178.5 24.5t-131 63t-85 89t-49 98.5
t-14.5 95zM507 1655q0 27 18 45t43 18q27 0 45.5 -18t18.5 -45q0 -26 -18.5 -43.5t-45.5 -17.5q-25 0 -43 17.5t-18 43.5z" />
    <glyph glyph-name="sdotaccent" unicode="&#x1e61;" horiz-adv-x="950" 
d="M137 779q0 126 93 197.5t243 71.5q75 0 136 -18t98.5 -46.5t63 -65t35.5 -70.5t10 -66h-56q0 24 -8.5 51t-29.5 56.5t-52 52.5t-82 38t-114 15q-119 0 -198.5 -55.5t-79.5 -157.5q0 -91 67 -141.5t217 -90.5q164 -44 226 -76q119 -62 129 -181q1 -12 1 -24
q0 -95 -53 -161.5t-134.5 -96t-181.5 -29.5q-81 0 -147 18.5t-106.5 47.5t-67.5 67t-38 74.5t-11 71.5h56q0 -27 9 -55.5t32 -59.5t57 -55t90 -40t126 -16q61 0 115.5 13.5t98.5 40.5t70 72t26 103q0 28 -6.5 52t-21.5 43t-29.5 34t-42 29t-46 22.5t-53.5 19.5t-54 16
t-58 15q-82 21 -138.5 43.5t-102 55.5t-67 78.5t-21.5 106.5zM412 1327q0 27 18 45t43 18q27 0 45.5 -18t18.5 -45q0 -26 -18.5 -43.5t-45.5 -17.5q-25 0 -43 17.5t-18 43.5z" />
    <glyph glyph-name="Sdotbelow" unicode="&#x1e62;" horiz-adv-x="1140" 
d="M112 338h59q1 -39 13 -79.5t42 -84t74 -77t115.5 -55t159.5 -21.5q176 0 286 88.5t110 224.5q0 68 -21.5 118t-69 86t-106.5 61t-149 49l-157 42q-153 41 -231.5 122.5t-78.5 219.5q0 161 114.5 259.5t311.5 98.5q101 0 182 -27.5t131.5 -74.5t77 -105t26.5 -123h-59
q-1 38 -13 75.5t-40 74t-68 64.5t-101.5 45.5t-135.5 17.5q-171 0 -268.5 -84t-97.5 -222q0 -121 69.5 -186.5t216.5 -105.5l150 -41q98 -27 162.5 -54.5t115.5 -69t74.5 -99.5t23.5 -138q0 -168 -127 -268.5t-333 -100.5q-98 0 -178.5 24.5t-131 63t-85 89t-49 98.5
t-14.5 95zM509 -292q0 27 18 45t43 18q27 0 45.5 -18t18.5 -45q0 -26 -18.5 -43.5t-45.5 -17.5q-25 0 -43 17.5t-18 43.5z" />
    <glyph glyph-name="sdotbelow" unicode="&#x1e63;" horiz-adv-x="950" 
d="M137 779q0 126 93 197.5t243 71.5q75 0 136 -18t98.5 -46.5t63 -65t35.5 -70.5t10 -66h-56q0 24 -8.5 51t-29.5 56.5t-52 52.5t-82 38t-114 15q-119 0 -198.5 -55.5t-79.5 -157.5q0 -91 67 -141.5t217 -90.5q164 -44 226 -76q119 -62 129 -181q1 -12 1 -24
q0 -95 -53 -161.5t-134.5 -96t-181.5 -29.5q-81 0 -147 18.5t-106.5 47.5t-67.5 67t-38 74.5t-11 71.5h56q0 -27 9 -55.5t32 -59.5t57 -55t90 -40t126 -16q61 0 115.5 13.5t98.5 40.5t70 72t26 103q0 28 -6.5 52t-21.5 43t-29.5 34t-42 29t-46 22.5t-53.5 19.5t-54 16
t-58 15q-82 21 -138.5 43.5t-102 55.5t-67 78.5t-21.5 106.5zM414 -292q0 27 18 45t43 18q27 0 45.5 -18t18.5 -45q0 -26 -18.5 -43.5t-45.5 -17.5q-25 0 -43 17.5t-18 43.5z" />
    <glyph glyph-name="Sacutedotaccent" unicode="&#x1e64;" horiz-adv-x="1140" 
d="M308 1740q0 27 18 45t43 18q27 0 45.5 -18t18.5 -45q0 -26 -18.5 -43.5t-45.5 -17.5q-25 0 -43 17.5t-18 43.5zM112 338h59q1 -39 13 -79.5t42 -84t74 -77t115.5 -55t159.5 -21.5q176 0 286 88.5t110 224.5q0 68 -21.5 118t-69 86t-106.5 61t-149 49l-157 42
q-153 41 -231.5 122.5t-78.5 219.5q0 161 114.5 259.5t311.5 98.5q101 0 182 -27.5t131.5 -74.5t77 -105t26.5 -123h-59q-1 38 -13 75.5t-40 74t-68 64.5t-101.5 45.5t-135.5 17.5q-171 0 -268.5 -84t-97.5 -222q0 -121 69.5 -186.5t216.5 -105.5l150 -41
q98 -27 162.5 -54.5t115.5 -69t74.5 -99.5t23.5 -138q0 -168 -127 -268.5t-333 -100.5q-98 0 -178.5 24.5t-131 63t-85 89t-49 98.5t-14.5 95zM582 1564l315 250h81l-326 -250h-70z" />
    <glyph glyph-name="sacutedotaccent" unicode="&#x1e65;" horiz-adv-x="950" 
d="M258 1462q0 27 18 45t43 18q27 0 45.5 -18t18.5 -45q0 -26 -18.5 -43.5t-45.5 -17.5q-25 0 -43 17.5t-18 43.5zM137 779q0 126 93 197.5t243 71.5q75 0 136 -18t98.5 -46.5t63 -65t35.5 -70.5t10 -66h-56q0 24 -8.5 51t-29.5 56.5t-52 52.5t-82 38t-114 15
q-119 0 -198.5 -55.5t-79.5 -157.5q0 -91 67 -141.5t217 -90.5q164 -44 226 -76q119 -62 129 -181q1 -12 1 -24q0 -95 -53 -161.5t-134.5 -96t-181.5 -29.5q-81 0 -147 18.5t-106.5 47.5t-67.5 67t-38 74.5t-11 71.5h56q0 -27 9 -55.5t32 -59.5t57 -55t90 -40t126 -16
q61 0 115.5 13.5t98.5 40.5t70 72t26 103q0 28 -6.5 52t-21.5 43t-29.5 34t-42 29t-46 22.5t-53.5 19.5t-54 16t-58 15q-82 21 -138.5 43.5t-102 55.5t-67 78.5t-21.5 106.5zM486 1211h-46l246 301h65z" />
    <glyph glyph-name="Scarondotaccent" unicode="&#x1e66;" horiz-adv-x="1140" 
d="M507 1799q0 27 18 45t43 18q27 0 45.5 -18t18.5 -45q0 -26 -18.5 -43.5t-45.5 -17.5q-25 0 -43 17.5t-18 43.5zM112 338h59q1 -39 13 -79.5t42 -84t74 -77t115.5 -55t159.5 -21.5q176 0 286 88.5t110 224.5q0 68 -21.5 118t-69 86t-106.5 61t-149 49l-157 42
q-153 41 -231.5 122.5t-78.5 219.5q0 161 114.5 259.5t311.5 98.5q101 0 182 -27.5t131.5 -74.5t77 -105t26.5 -123h-59q-1 38 -13 75.5t-40 74t-68 64.5t-101.5 45.5t-135.5 17.5q-171 0 -268.5 -84t-97.5 -222q0 -121 69.5 -186.5t216.5 -105.5l150 -41
q98 -27 162.5 -54.5t115.5 -69t74.5 -99.5t23.5 -138q0 -168 -127 -268.5t-333 -100.5q-98 0 -178.5 24.5t-131 63t-85 89t-49 98.5t-14.5 95zM286 1683h64l223 -175h5l222 175h61l-253 -205h-62z" />
    <glyph glyph-name="scarondotaccent" unicode="&#x1e67;" horiz-adv-x="950" 
d="M428 1662q0 27 18 45t43 18q27 0 45.5 -18t18.5 -45q0 -26 -18.5 -43.5t-45.5 -17.5q-25 0 -43 17.5t-18 43.5zM137 779q0 126 93 197.5t243 71.5q75 0 136 -18t98.5 -46.5t63 -65t35.5 -70.5t10 -66h-56q0 24 -8.5 51t-29.5 56.5t-52 52.5t-82 38t-114 15
q-119 0 -198.5 -55.5t-79.5 -157.5q0 -91 67 -141.5t217 -90.5q164 -44 226 -76q119 -62 129 -181q1 -12 1 -24q0 -95 -53 -161.5t-134.5 -96t-181.5 -29.5q-81 0 -147 18.5t-106.5 47.5t-67.5 67t-38 74.5t-11 71.5h56q0 -27 9 -55.5t32 -59.5t57 -55t90 -40t126 -16
q61 0 115.5 13.5t98.5 40.5t70 72t26 103q0 28 -6.5 52t-21.5 43t-29.5 34t-42 29t-46 22.5t-53.5 19.5t-54 16t-58 15q-82 21 -138.5 43.5t-102 55.5t-67 78.5t-21.5 106.5zM226 1553h55l208 -295h5l202 295h57l-233 -335h-54z" />
    <glyph glyph-name="Sdotbelowdotaccent" unicode="&#x1e68;" horiz-adv-x="1140" 
d="M112 338h59q1 -39 13 -79.5t42 -84t74 -77t115.5 -55t159.5 -21.5q176 0 286 88.5t110 224.5q0 68 -21.5 118t-69 86t-106.5 61t-149 49l-157 42q-153 41 -231.5 122.5t-78.5 219.5q0 161 114.5 259.5t311.5 98.5q101 0 182 -27.5t131.5 -74.5t77 -105t26.5 -123h-59
q-1 38 -13 75.5t-40 74t-68 64.5t-101.5 45.5t-135.5 17.5q-171 0 -268.5 -84t-97.5 -222q0 -121 69.5 -186.5t216.5 -105.5l150 -41q98 -27 162.5 -54.5t115.5 -69t74.5 -99.5t23.5 -138q0 -168 -127 -268.5t-333 -100.5q-98 0 -178.5 24.5t-131 63t-85 89t-49 98.5
t-14.5 95zM509 -292q0 27 18 45t43 18q27 0 45.5 -18t18.5 -45q0 -26 -18.5 -43.5t-45.5 -17.5q-25 0 -43 17.5t-18 43.5zM507 1655q0 27 18 45t43 18q27 0 45.5 -18t18.5 -45q0 -26 -18.5 -43.5t-45.5 -17.5q-25 0 -43 17.5t-18 43.5z" />
    <glyph glyph-name="sdotbelowdotaccent" unicode="&#x1e69;" horiz-adv-x="950" 
d="M137 779q0 126 93 197.5t243 71.5q75 0 136 -18t98.5 -46.5t63 -65t35.5 -70.5t10 -66h-56q0 24 -8.5 51t-29.5 56.5t-52 52.5t-82 38t-114 15q-119 0 -198.5 -55.5t-79.5 -157.5q0 -91 67 -141.5t217 -90.5q164 -44 226 -76q119 -62 129 -181q1 -12 1 -24
q0 -95 -53 -161.5t-134.5 -96t-181.5 -29.5q-81 0 -147 18.5t-106.5 47.5t-67.5 67t-38 74.5t-11 71.5h56q0 -27 9 -55.5t32 -59.5t57 -55t90 -40t126 -16q61 0 115.5 13.5t98.5 40.5t70 72t26 103q0 28 -6.5 52t-21.5 43t-29.5 34t-42 29t-46 22.5t-53.5 19.5t-54 16
t-58 15q-82 21 -138.5 43.5t-102 55.5t-67 78.5t-21.5 106.5zM414 -292q0 27 18 45t43 18q27 0 45.5 -18t18.5 -45q0 -26 -18.5 -43.5t-45.5 -17.5q-25 0 -43 17.5t-18 43.5zM412 1327q0 27 18 45t43 18q27 0 45.5 -18t18.5 -45q0 -26 -18.5 -43.5t-45.5 -17.5
q-25 0 -43 17.5t-18 43.5z" />
    <glyph glyph-name="Tdotaccent" unicode="&#x1e6a;" horiz-adv-x="1021" 
d="M540 0h-57v1305h-471v53h997v-53h-469v-1305zM448 1655q0 27 18 45t43 18q27 0 45.5 -18t18.5 -45q0 -26 -18.5 -43.5t-45.5 -17.5q-25 0 -43 17.5t-18 43.5z" />
    <glyph glyph-name="tdotaccent" unicode="&#x1e6b;" horiz-adv-x="671" 
d="M230 1030v248h56v-248h300v-50h-300v-766q0 -92 47 -128.5t151 -36.5q70 0 117 7v-48q-53 -8 -113 -8q-143 0 -200.5 49t-57.5 180v751h-211v50h211zM195 1575q0 27 18 45t43 18q27 0 45.5 -18t18.5 -45q0 -26 -18.5 -43.5t-45.5 -17.5q-25 0 -43 17.5t-18 43.5z" />
    <glyph glyph-name="Tdotbelow" unicode="&#x1e6c;" horiz-adv-x="1021" 
d="M540 0h-57v1305h-471v53h997v-53h-469v-1305zM450 -292q0 27 18 45t43 18q27 0 45.5 -18t18.5 -45q0 -26 -18.5 -43.5t-45.5 -17.5q-25 0 -43 17.5t-18 43.5z" />
    <glyph glyph-name="tdotbelow" unicode="&#x1e6d;" horiz-adv-x="671" 
d="M230 1030v248h56v-248h300v-50h-300v-766q0 -92 47 -128.5t151 -36.5q70 0 117 7v-48q-53 -8 -113 -8q-143 0 -200.5 49t-57.5 180v751h-211v50h211zM331 -292q0 27 18 45t43 18q27 0 45.5 -18t18.5 -45q0 -26 -18.5 -43.5t-45.5 -17.5q-25 0 -43 17.5t-18 43.5z" />
    <glyph glyph-name="Tlinebelow" unicode="&#x1e6e;" horiz-adv-x="1021" 
d="M540 0h-57v1305h-471v53h997v-53h-469v-1305zM782 -264h-558v44h558v-44z" />
    <glyph glyph-name="tlinebelow" unicode="&#x1e6f;" horiz-adv-x="671" 
d="M230 1030v248h56v-248h300v-50h-300v-766q0 -92 47 -128.5t151 -36.5q70 0 117 7v-48q-53 -8 -113 -8q-143 0 -200.5 49t-57.5 180v751h-211v50h211zM663 -264h-558v44h558v-44z" />
    <glyph glyph-name="Tcircumflexbelow" unicode="&#x1e70;" horiz-adv-x="1021" 
d="M540 0h-57v1305h-471v53h997v-53h-469v-1305zM246 -427l240 335h54l233 -335h-57l-202 295h-5l-208 -295h-55z" />
    <glyph glyph-name="tcircumflexbelow" unicode="&#x1e71;" horiz-adv-x="671" 
d="M230 1030v248h56v-248h300v-50h-300v-766q0 -92 47 -128.5t151 -36.5q70 0 117 7v-48q-53 -8 -113 -8q-143 0 -200.5 49t-57.5 180v751h-211v50h211zM127 -427l240 335h54l233 -335h-57l-202 295h-5l-208 -295h-55z" />
    <glyph glyph-name="Udieresisbelow" unicode="&#x1e72;" horiz-adv-x="1305" 
d="M231 1358v-891q0 -205 109.5 -324.5t311.5 -119.5q204 0 312.5 118.5t108.5 325.5v891h58v-891q0 -230 -126 -364.5t-353 -134.5t-352.5 134.5t-125.5 364.5v891h57zM458 -249q0 24 18 42t42 18q25 0 43.5 -18t18.5 -42q0 -25 -18 -43.5t-44 -18.5q-24 0 -42 18.5
t-18 43.5zM733 -249q0 24 18 42t42 18q25 0 43.5 -18t18.5 -42q0 -25 -18.5 -43.5t-43.5 -18.5q-24 0 -42 18.5t-18 43.5z" />
    <glyph glyph-name="udieresisbelow" unicode="&#x1e73;" horiz-adv-x="1085" 
d="M915 1030v-1030h-56v211h-4q-14 -41 -40.5 -79t-67.5 -73t-103 -56t-136 -21q-153 0 -250.5 89.5t-97.5 259.5v699h56v-693q0 -136 79.5 -219t214.5 -83q83 0 151 33t110.5 88.5t65 123t22.5 140.5v610h56zM348 -249q0 24 18 42t42 18q25 0 43.5 -18t18.5 -42
q0 -25 -18 -43.5t-44 -18.5q-24 0 -42 18.5t-18 43.5zM623 -249q0 24 18 42t42 18q25 0 43.5 -18t18.5 -42q0 -25 -18.5 -43.5t-43.5 -18.5q-24 0 -42 18.5t-18 43.5z" />
    <glyph glyph-name="Utildebelow" unicode="&#x1e74;" horiz-adv-x="1305" 
d="M231 1358v-891q0 -205 109.5 -324.5t311.5 -119.5q204 0 312.5 118.5t108.5 325.5v891h58v-891q0 -230 -126 -364.5t-353 -134.5t-352.5 134.5t-125.5 364.5v891h57zM633 -310q-37 46 -66.5 69.5t-66.5 23.5q-51 0 -81 -40t-30 -122h-51q0 106 43 159t122 53
q51 0 87.5 -23.5t81.5 -82.5q32 -41 60 -57t68 -16q52 0 88 46t36 124h52q0 -97 -50.5 -158t-125.5 -61q-60 0 -96.5 20.5t-70.5 64.5z" />
    <glyph glyph-name="utildebelow" unicode="&#x1e75;" horiz-adv-x="1085" 
d="M915 1030v-1030h-56v211h-4q-14 -41 -40.5 -79t-67.5 -73t-103 -56t-136 -21q-153 0 -250.5 89.5t-97.5 259.5v699h56v-693q0 -136 79.5 -219t214.5 -83q83 0 151 33t110.5 88.5t65 123t22.5 140.5v610h56zM523 -310q-37 46 -66.5 69.5t-66.5 23.5q-51 0 -81 -40
t-30 -122h-51q0 106 43 159t122 53q51 0 87.5 -23.5t81.5 -82.5q32 -41 60 -57t68 -16q52 0 88 46t36 124h52q0 -97 -50.5 -158t-125.5 -61q-60 0 -96.5 20.5t-70.5 64.5z" />
    <glyph glyph-name="Ucircumflexbelow" unicode="&#x1e76;" horiz-adv-x="1305" 
d="M231 1358v-891q0 -205 109.5 -324.5t311.5 -119.5q204 0 312.5 118.5t108.5 325.5v891h58v-891q0 -230 -126 -364.5t-353 -134.5t-352.5 134.5t-125.5 364.5v891h57zM388 -427l240 335h54l233 -335h-57l-202 295h-5l-208 -295h-55z" />
    <glyph glyph-name="ucircumflexbelow" unicode="&#x1e77;" horiz-adv-x="1085" 
d="M915 1030v-1030h-56v211h-4q-14 -41 -40.5 -79t-67.5 -73t-103 -56t-136 -21q-153 0 -250.5 89.5t-97.5 259.5v699h56v-693q0 -136 79.5 -219t214.5 -83q83 0 151 33t110.5 88.5t65 123t22.5 140.5v610h56zM278 -427l240 335h54l233 -335h-57l-202 295h-5l-208 -295h-55z
" />
    <glyph glyph-name="Utildeacute" unicode="&#x1e78;" horiz-adv-x="1305" 
d="M231 1358v-891q0 -205 109.5 -324.5t311.5 -119.5q204 0 312.5 118.5t108.5 325.5v891h58v-891q0 -230 -126 -364.5t-353 -134.5t-352.5 134.5t-125.5 364.5v891h57zM618 1568q-29 41 -54.5 61t-57.5 20q-97 0 -97 -141h-44q0 90 37.5 137t106.5 47q44 0 76 -21t72 -71
q28 -37 51 -51.5t57 -14.5q46 0 77.5 40.5t31.5 108.5h45q0 -85 -44 -138t-110 -53q-50 0 -80.5 18t-66.5 58zM545 1700l315 250h81l-326 -250h-70z" />
    <glyph glyph-name="utildeacute" unicode="&#x1e79;" horiz-adv-x="1085" 
d="M915 1030v-1030h-56v211h-4q-14 -41 -40.5 -79t-67.5 -73t-103 -56t-136 -21q-153 0 -250.5 89.5t-97.5 259.5v699h56v-693q0 -136 79.5 -219t214.5 -83q83 0 151 33t110.5 88.5t65 123t22.5 140.5v610h56zM507 1301q-37 46 -66.5 69.5t-66.5 23.5q-51 0 -81 -40
t-30 -122h-51q0 106 43 159t122 53q51 0 87.5 -23.5t81.5 -82.5q32 -41 60 -57t68 -16q52 0 88 46t36 124h52q0 -97 -50.5 -158t-125.5 -61q-60 0 -96.5 20.5t-70.5 64.5zM550 1446h-46l246 301h65z" />
    <glyph glyph-name="Umacrondieresis" unicode="&#x1e7a;" horiz-adv-x="1305" 
d="M231 1358v-891q0 -205 109.5 -324.5t311.5 -119.5q204 0 312.5 118.5t108.5 325.5v891h58v-891q0 -230 -126 -364.5t-353 -134.5t-352.5 134.5t-125.5 364.5v891h57zM922 1525h-538v44h538v-44zM457 1825q0 20 15 35.5t37 15.5t36.5 -15.5t14.5 -35.5t-14.5 -36.5
t-36.5 -16.5t-37 16.5t-15 36.5zM748 1825q0 20 15 35.5t37 15.5t36.5 -15.5t14.5 -35.5t-14.5 -36.5t-36.5 -16.5t-37 16.5t-15 36.5z" />
    <glyph glyph-name="umacrondieresis" unicode="&#x1e7b;" horiz-adv-x="1085" 
d="M915 1030v-1030h-56v211h-4q-14 -41 -40.5 -79t-67.5 -73t-103 -56t-136 -21q-153 0 -250.5 89.5t-97.5 259.5v699h56v-693q0 -136 79.5 -219t214.5 -83q83 0 151 33t110.5 88.5t65 123t22.5 140.5v610h56zM814 1258h-558v44h558v-44zM347 1583q0 24 18 42t42 18
q25 0 43.5 -18t18.5 -42q0 -25 -18.5 -43.5t-43.5 -18.5q-24 0 -42 18.5t-18 43.5zM622 1583q0 24 18 42t42 18q25 0 43.5 -18t18.5 -42q0 -25 -18 -43.5t-44 -18.5q-24 0 -42 18.5t-18 43.5z" />
    <glyph glyph-name="Vtilde" unicode="&#x1e7c;" horiz-adv-x="1155" 
d="M606 0h-68l-493 1358h61l466 -1291h4l473 1291h60zM543 1568q-29 41 -54.5 61t-57.5 20q-97 0 -97 -141h-44q0 90 37.5 137t106.5 47q44 0 76 -21t72 -71q28 -37 51 -51.5t57 -14.5q46 0 77.5 40.5t31.5 108.5h45q0 -85 -44 -138t-110 -53q-50 0 -80.5 18t-66.5 58z" />
    <glyph glyph-name="vtilde" unicode="&#x1e7d;" horiz-adv-x="907" 
d="M424 0l-384 1030h62l350 -956h5l350 956h60l-384 -1030h-59zM418 1301q-37 46 -66.5 69.5t-66.5 23.5q-51 0 -81 -40t-30 -122h-51q0 106 43 159t122 53q51 0 87.5 -23.5t81.5 -82.5q32 -41 60 -57t68 -16q52 0 88 46t36 124h52q0 -97 -50.5 -158t-125.5 -61
q-60 0 -96.5 20.5t-70.5 64.5z" />
    <glyph glyph-name="Vdotbelow" unicode="&#x1e7e;" horiz-adv-x="1155" 
d="M606 0h-68l-493 1358h61l466 -1291h4l473 1291h60zM517 -292q0 27 18 45t43 18q27 0 45.5 -18t18.5 -45q0 -26 -18.5 -43.5t-45.5 -17.5q-25 0 -43 17.5t-18 43.5z" />
    <glyph glyph-name="vdotbelow" unicode="&#x1e7f;" horiz-adv-x="907" 
d="M424 0l-384 1030h62l350 -956h5l350 956h60l-384 -1030h-59zM393 -292q0 27 18 45t43 18q27 0 45.5 -18t18.5 -45q0 -26 -18.5 -43.5t-45.5 -17.5q-25 0 -43 17.5t-18 43.5z" />
    <glyph glyph-name="Wgrave" unicode="&#x1e80;" horiz-adv-x="1675" 
d="M466 0h-69l-356 1358h61l329 -1281h4l372 1281h61l372 -1281h4l329 1281h61l-356 -1358h-69l-369 1269h-5zM936 1514h-70l-326 250h81z" />
    <glyph glyph-name="wgrave" unicode="&#x1e81;" horiz-adv-x="1386" 
d="M1346 1030l-285 -1030h-59l-307 951h-4l-307 -951h-59l-285 1030h62l251 -945h5l305 945h60l305 -945h5l251 945h62zM796 1211h-46l-265 301h66z" />
    <glyph glyph-name="Wacute" unicode="&#x1e82;" horiz-adv-x="1675" 
d="M466 0h-69l-356 1358h61l329 -1281h4l372 1281h61l372 -1281h4l329 1281h61l-356 -1358h-69l-369 1269h-5zM730 1512l315 250h81l-326 -250h-70z" />
    <glyph glyph-name="wacute" unicode="&#x1e83;" horiz-adv-x="1386" 
d="M1346 1030l-285 -1030h-59l-307 951h-4l-307 -951h-59l-285 1030h62l251 -945h5l305 945h60l305 -945h5l251 945h62zM700 1211h-46l246 301h65z" />
    <glyph glyph-name="Wdieresis" unicode="&#x1e84;" horiz-adv-x="1675" 
d="M466 0h-69l-356 1358h61l329 -1281h4l372 1281h61l372 -1281h4l329 1281h61l-356 -1358h-69l-369 1269h-5zM642 1567q0 20 15 35.5t37 15.5t36.5 -15.5t14.5 -35.5t-14.5 -36.5t-36.5 -16.5t-37 16.5t-15 36.5zM933 1567q0 20 15 35.5t37 15.5t36.5 -15.5t14.5 -35.5
t-14.5 -36.5t-36.5 -16.5t-37 16.5t-15 36.5z" />
    <glyph glyph-name="wdieresis" unicode="&#x1e85;" horiz-adv-x="1386" 
d="M1346 1030l-285 -1030h-59l-307 951h-4l-307 -951h-59l-285 1030h62l251 -945h5l305 945h60l305 -945h5l251 945h62zM497 1308q0 24 18 42t42 18q25 0 43.5 -18t18.5 -42q0 -26 -18.5 -44t-43.5 -18q-24 0 -42 18.5t-18 43.5zM772 1308q0 24 18 42t42 18q25 0 43.5 -18
t18.5 -42q0 -26 -18 -44t-44 -18q-24 0 -42 18.5t-18 43.5z" />
    <glyph glyph-name="Wdotaccent" unicode="&#x1e86;" horiz-adv-x="1675" 
d="M466 0h-69l-356 1358h61l329 -1281h4l372 1281h61l372 -1281h4l329 1281h61l-356 -1358h-69l-369 1269h-5zM775 1655q0 27 18 45t43 18q27 0 45.5 -18t18.5 -45q0 -26 -18.5 -43.5t-45.5 -17.5q-25 0 -43 17.5t-18 43.5z" />
    <glyph glyph-name="wdotaccent" unicode="&#x1e87;" horiz-adv-x="1386" 
d="M1346 1030l-285 -1030h-59l-307 951h-4l-307 -951h-59l-285 1030h62l251 -945h5l305 945h60l305 -945h5l251 945h62zM630 1327q0 27 18 45t43 18q27 0 45.5 -18t18.5 -45q0 -26 -18.5 -43.5t-45.5 -17.5q-25 0 -43 17.5t-18 43.5z" />
    <glyph glyph-name="Wdotbelow" unicode="&#x1e88;" horiz-adv-x="1675" 
d="M466 0h-69l-356 1358h61l329 -1281h4l372 1281h61l372 -1281h4l329 1281h61l-356 -1358h-69l-369 1269h-5zM777 -292q0 27 18 45t43 18q27 0 45.5 -18t18.5 -45q0 -26 -18.5 -43.5t-45.5 -17.5q-25 0 -43 17.5t-18 43.5z" />
    <glyph glyph-name="wdotbelow" unicode="&#x1e89;" horiz-adv-x="1386" 
d="M1346 1030l-285 -1030h-59l-307 951h-4l-307 -951h-59l-285 1030h62l251 -945h5l305 945h60l305 -945h5l251 945h62zM632 -292q0 27 18 45t43 18q27 0 45.5 -18t18.5 -45q0 -26 -18.5 -43.5t-45.5 -17.5q-25 0 -43 17.5t-18 43.5z" />
    <glyph glyph-name="Xdotaccent" unicode="&#x1e8a;" horiz-adv-x="1125" 
d="M1070 1358l-473 -681l470 -677h-68l-435 631h-4l-435 -631h-67l470 677l-472 681h68l437 -633h4l438 633h67zM500 1655q0 27 18 45t43 18q27 0 45.5 -18t18.5 -45q0 -26 -18.5 -43.5t-45.5 -17.5q-25 0 -43 17.5t-18 43.5z" />
    <glyph glyph-name="xdotaccent" unicode="&#x1e8b;" horiz-adv-x="956" 
d="M809 0l-330 472h-4l-332 -472h-64l365 520l-355 510h67l321 -460h4l323 460h64l-356 -508l364 -522h-67zM415 1327q0 27 18 45t43 18q27 0 45.5 -18t18.5 -45q0 -26 -18.5 -43.5t-45.5 -17.5q-25 0 -43 17.5t-18 43.5z" />
    <glyph glyph-name="Xdieresis" unicode="&#x1e8c;" horiz-adv-x="1125" 
d="M1070 1358l-473 -681l470 -677h-68l-435 631h-4l-435 -631h-67l470 677l-472 681h68l437 -633h4l438 633h67zM367 1567q0 20 15 35.5t37 15.5t36.5 -15.5t14.5 -35.5t-14.5 -36.5t-36.5 -16.5t-37 16.5t-15 36.5zM658 1567q0 20 15 35.5t37 15.5t36.5 -15.5t14.5 -35.5
t-14.5 -36.5t-36.5 -16.5t-37 16.5t-15 36.5z" />
    <glyph glyph-name="xdieresis" unicode="&#x1e8d;" horiz-adv-x="956" 
d="M809 0l-330 472h-4l-332 -472h-64l365 520l-355 510h67l321 -460h4l323 460h64l-356 -508l364 -522h-67zM282 1308q0 24 18 42t42 18q25 0 43.5 -18t18.5 -42q0 -26 -18 -44t-44 -18q-24 0 -42 18.5t-18 43.5zM557 1308q0 24 18 42t42 18q25 0 43.5 -18t18.5 -42
q0 -26 -18.5 -44t-43.5 -18q-24 0 -42 18.5t-18 43.5z" />
    <glyph glyph-name="Ydotaccent" unicode="&#x1e8e;" horiz-adv-x="1054" 
d="M556 0h-56v610l-475 748h68l432 -686h6l433 686h65l-473 -746v-612zM464 1655q0 27 18 45t43 18q27 0 45.5 -18t18.5 -45q0 -26 -18.5 -43.5t-45.5 -17.5q-25 0 -43 17.5t-18 43.5z" />
    <glyph glyph-name="ydotaccent" unicode="&#x1e8f;" horiz-adv-x="887" 
d="M857 1030l-371 -1028l-49 -129q-41 -108 -96.5 -154t-154.5 -46q-50 0 -93 10v53q48 -10 92 -10q76 0 122 40t74 115l40 107l-386 1042h62l351 -972h4l345 972h60zM381 1327q0 27 18 45t43 18q27 0 45.5 -18t18.5 -45q0 -26 -18.5 -43.5t-45.5 -17.5q-25 0 -43 17.5
t-18 43.5z" />
    <glyph glyph-name="Zcircumflex" unicode="&#x1e90;" horiz-adv-x="1155" 
d="M100 0v49l885 1254v4h-858v51h928v-49l-886 -1254v-5h886v-50h-955zM294 1498l276 205h29l270 -205h-75l-208 156h-5l-208 -156h-79z" />
    <glyph glyph-name="zcircumflex" unicode="&#x1e91;" horiz-adv-x="970" 
d="M135 0v46l640 930v4h-640v50h710v-50l-639 -926v-4h639v-50h-710zM222 1239l240 335h54l233 -335h-57l-202 295h-5l-208 -295h-55z" />
    <glyph glyph-name="Zdotbelow" unicode="&#x1e92;" horiz-adv-x="1155" 
d="M100 0v49l885 1254v4h-858v51h928v-49l-886 -1254v-5h886v-50h-955zM517 -292q0 27 18 45t43 18q27 0 45.5 -18t18.5 -45q0 -26 -18.5 -43.5t-45.5 -17.5q-25 0 -43 17.5t-18 43.5z" />
    <glyph glyph-name="zdotbelow" unicode="&#x1e93;" horiz-adv-x="970" 
d="M135 0v46l640 930v4h-640v50h710v-50l-639 -926v-4h639v-50h-710zM424 -292q0 27 18 45t43 18q27 0 45.5 -18t18.5 -45q0 -26 -18.5 -43.5t-45.5 -17.5q-25 0 -43 17.5t-18 43.5z" />
    <glyph glyph-name="Zlinebelow" unicode="&#x1e94;" horiz-adv-x="1155" 
d="M100 0v49l885 1254v4h-858v51h928v-49l-886 -1254v-5h886v-50h-955zM849 -264h-558v44h558v-44z" />
    <glyph glyph-name="zlinebelow" unicode="&#x1e95;" horiz-adv-x="970" 
d="M135 0v46l640 930v4h-640v50h710v-50l-639 -926v-4h639v-50h-710zM756 -264h-558v44h558v-44z" />
    <glyph glyph-name="hlinebelow" unicode="&#x1e96;" horiz-adv-x="1100" 
d="M174 0v1435h56v-615h4q27 93 116 160.5t228 67.5q157 0 256 -98t99 -271v-679h-56v673q0 140 -80.5 231t-220.5 91q-109 0 -189.5 -54t-118.5 -136t-38 -178v-627h-56zM821 -264h-558v44h558v-44z" />
    <glyph glyph-name="tdieresis" unicode="&#x1e97;" horiz-adv-x="671" 
d="M230 1030v248h56v-248h300v-50h-300v-766q0 -92 47 -128.5t151 -36.5q70 0 117 7v-48q-53 -8 -113 -8q-143 0 -200.5 49t-57.5 180v751h-211v50h211zM62 1556q0 24 18 42t42 18q25 0 43.5 -18t18.5 -42q0 -26 -18 -44t-44 -18q-24 0 -42 18.5t-18 43.5zM337 1556
q0 24 18 42t42 18q25 0 43.5 -18t18.5 -42q0 -26 -18.5 -44t-43.5 -18q-24 0 -42 18.5t-18 43.5z" />
    <glyph glyph-name="wring" unicode="&#x1e98;" horiz-adv-x="1386" 
d="M1346 1030l-285 -1030h-59l-307 951h-4l-307 -951h-59l-285 1030h62l251 -945h5l305 945h60l305 -945h5l251 945h62zM692 1181q-71 0 -120 49t-49 120q0 70 49 118t120 48q69 0 117.5 -48t48.5 -118t-48.5 -119.5t-117.5 -49.5zM570 1350q0 -49 36.5 -85.5t85.5 -36.5
q51 0 87 36t36 86q0 51 -36 87t-87 36q-49 0 -85.5 -36t-36.5 -87z" />
    </font>
</defs>
</svg>
