<?xml version="1.0" standalone="no"?>
<!DOCTYPE svg PUBLIC "-//W3C//DTD SVG 1.1//EN" "http://www.w3.org/Graphics/SVG/1.1/DTD/svg11.dtd" >
<svg xmlns="http://www.w3.org/2000/svg" xmlns:xlink="http://www.w3.org/1999/xlink" version="1.1">
<metadata>
Created by FontForge 20170731 at Wed Jan 14 10:07:59 2015
 By Aleksey,,,
(c) 2014 Apple Inc. All rights reserved.
</metadata>
<defs>
<font id="SanFranciscoDisplay-Black" horiz-adv-x="0" >
  <font-face 
    font-family="San Francisco Display Black"
    font-weight="900"
    font-stretch="normal"
    units-per-em="2048"
    panose-1="0 0 0 0 0 0 0 0 0 0"
    ascent="1638"
    descent="-410"
    x-height="1078"
    cap-height="1365"
    bbox="-722 -554 2132 2055"
    underline-thickness="50"
    underline-position="-125"
    unicode-range="U+000D-FB02"
  />
<missing-glyph horiz-adv-x="1293" 
d="M120 0v1365h1053v-1365h-1053zM501 313q0 -47 33.5 -77t86.5 -30q55 0 88.5 29.5t33.5 77.5q0 49 -33.5 78.5t-88.5 29.5q-54 0 -87 -30t-33 -78zM339 888h169q1 59 34.5 94.5t90.5 35.5q54 0 87 -30t33 -80q0 -38 -20.5 -65.5t-82.5 -72.5q-69 -48 -96 -100t-22 -121
l1 -18h166v15q0 48 19 76t88 77q73 52 103 102t30 116q0 113 -81 181.5t-215 68.5q-143 0 -225.5 -76t-78.5 -203z" />
    <glyph glyph-name=".notdef" horiz-adv-x="1293" 
d="M120 0v1365h1053v-1365h-1053zM501 313q0 -47 33.5 -77t86.5 -30q55 0 88.5 29.5t33.5 77.5q0 49 -33.5 78.5t-88.5 29.5q-54 0 -87 -30t-33 -78zM339 888h169q1 59 34.5 94.5t90.5 35.5q54 0 87 -30t33 -80q0 -38 -20.5 -65.5t-82.5 -72.5q-69 -48 -96 -100t-22 -121
l1 -18h166v15q0 48 19 76t88 77q73 52 103 102t30 116q0 113 -81 181.5t-215 68.5q-143 0 -225.5 -76t-78.5 -203z" />
    <glyph glyph-name=".null" 
 />
    <glyph glyph-name="nonmarkingreturn" horiz-adv-x="682" 
 />
    <glyph glyph-name="CR" unicode="&#xd;" 
 />
    <glyph glyph-name="space" unicode=" " horiz-adv-x="392" 
 />
    <glyph glyph-name="exclam" unicode="!" horiz-adv-x="617" 
d="M79 158q0 84 61 132.5t170 48.5q108 0 169.5 -48.5t61.5 -132.5t-61 -132.5t-170 -48.5q-108 0 -169.5 48.5t-61.5 132.5zM90 1365h439l-47 -937h-348z" />
    <glyph glyph-name="quotedbl" unicode="&#x22;" horiz-adv-x="1209" 
d="M75 1365h436l-48 -641h-340zM698 1365h436l-48 -641h-340z" />
    <glyph glyph-name="numbersign" unicode="#" horiz-adv-x="1290" 
d="M1212 769h-193l-29 -154h189l-53 -281h-191l-66 -334h-296l65 334h-140l-67 -334h-295l66 334h-183l52 281h184l31 154h-181l51 281h185l61 315h298l-64 -315h142l60 315h298l-61 -315h188zM552 813l-47 -242h220l45 242h-218z" />
    <glyph glyph-name="dollar" unicode="$" horiz-adv-x="1295" 
d="M447 1005q0 -97 118 -130q2 -1 5.5 -2t5.5 -1v260q-57 -6 -93 -40.5t-36 -86.5zM881 393q0 103 -124 136q-2 1 -6.5 2t-6.5 1v-278q60 5 98.5 43.5t38.5 95.5zM747 -129h-180l1 124q-104 7 -187 35.5t-136 69.5t-88.5 94.5t-50.5 107.5t-16 112h321q2 -60 45 -105
t120 -56v304l-93 19q-165 33 -268 134.5t-103 268.5q0 177 128 283t330 124v127h180v-129q201 -23 317 -137t118 -271h-312q-2 52 -36 97t-93 57v-285l88 -18q79 -14 143 -41.5t119.5 -73.5t86.5 -118t31 -165q0 -179 -123 -294t-343 -138z" />
    <glyph glyph-name="percent" unicode="%" horiz-adv-x="1370" 
d="M207 1047v-15q0 -74 24 -108t59 -34t58 34t23 108v15q0 75 -23 107.5t-58 32.5q-83 0 -83 -140zM-27 1022v36q0 146 87.5 237t232.5 91t229.5 -90t84.5 -238v-36q0 -138 -85 -234.5t-235 -96.5q-144 0 -229 92.5t-85 238.5zM1007 333v-15q0 -74 24 -108t59 -34t58 34
t23 108v15q0 75 -23 107.5t-58 32.5q-83 0 -83 -140zM773 308v36q0 146 87.5 237t232.5 91t229.5 -90t84.5 -238v-36q0 -138 -85 -234.5t-235 -96.5q-144 0 -229 92.5t-85 238.5zM289 -1h-274l597 749l468 617h274l-578 -725z" />
    <glyph glyph-name="ampersand" unicode="&#x26;" horiz-adv-x="1432" 
d="M1032 0l-84 88q-59 -50 -164 -83.5t-242 -33.5q-237 0 -366.5 103t-129.5 276q0 119 60.5 201t172.5 147q36 21 75 39q-87 88 -128 157.5t-41 150.5q0 149 126 240t305 91q77 0 148 -18.5t132.5 -55t98.5 -100t37 -145.5q0 -214 -259 -360l178 -192q31 51 31 148v104h307
v-136q0 -88 -31 -182t-88 -161l270 -278h-408zM489 532q-38 -23 -64.5 -61.5t-26.5 -87.5q0 -68 52 -109t134 -41q53 0 100.5 17t72.5 45l-238 252q-15 -6 -30 -15zM607 860q122 65 122 163q0 54 -32 85.5t-80 31.5q-49 0 -82.5 -32.5t-33.5 -82.5q0 -39 23.5 -74.5
t82.5 -90.5z" />
    <glyph glyph-name="quotesingle" unicode="'" horiz-adv-x="586" 
d="M75 1365h436l-48 -641h-340z" />
    <glyph glyph-name="parenleft" unicode="(" horiz-adv-x="765" 
d="M355 1363h390q-35 -40 -71.5 -104t-75.5 -161.5t-63.5 -236.5t-24.5 -293q0 -124 17.5 -240.5t38.5 -194.5t59.5 -166t59 -125.5t58.5 -103.5h-396q-46 57 -85.5 125.5t-81 170t-66 239.5t-24.5 293q0 127 17 238t40.5 187.5t63.5 152.5t69.5 119t74.5 100z" />
    <glyph glyph-name="parenright" unicode=")" horiz-adv-x="765" 
d="M20 1363h389q45 -57 75 -100t70 -119t63.5 -152.5t40.5 -187.5t17 -238q0 -155 -24 -293t-65.5 -239.5t-81.5 -170.5t-86 -125h-396q38 66 58.5 103.5t59 125.5t59.5 166t38.5 194.5t17.5 240.5q0 153 -24.5 292.5t-64 237t-75.5 161.5t-71 104z" />
    <glyph glyph-name="asterisk" unicode="*" horiz-adv-x="828" 
d="M519 671h-210l42 203l-159 -134l-106 179l200 69l-200 70l106 179l162 -140l-45 209h210l-45 -209l164 140l104 -179l-200 -70l200 -69l-104 -179l-161 135z" />
    <glyph glyph-name="plus" unicode="+" horiz-adv-x="1295" 
d="M831 391v-388h-359v388h-372v347h372v385h359v-385h372v-347h-372z" />
    <glyph glyph-name="comma" unicode="," horiz-adv-x="485" 
d="M300 -306h-315l78 690h376z" />
    <glyph glyph-name="hyphen" unicode="-" horiz-adv-x="790" 
d="M710 380h-630v360h630v-360z" />
    <glyph glyph-name="period" unicode="." horiz-adv-x="612" 
d="M82 192q0 98 63.5 155.5t160.5 57.5q96 0 160 -58t64 -155q0 -98 -63.5 -154.5t-160.5 -56.5t-160.5 56.5t-63.5 154.5z" />
    <glyph glyph-name="slash" unicode="/" horiz-adv-x="677" 
d="M322 -268h-366l411 1705h366z" />
    <glyph glyph-name="zero" unicode="0" horiz-adv-x="1247" 
d="M471 722v-75q0 -173 41.5 -257.5t110.5 -84.5t111 85t42 257v75q0 172 -41.5 254.5t-111.5 82.5t-111 -82t-41 -255zM50 646v77q0 195 68 344.5t199.5 234.5t310.5 85q181 0 310.5 -84.5t194 -233t64.5 -346.5v-77q0 -107 -22 -204.5t-69 -182.5t-114.5 -147.5
t-163.5 -98.5t-210 -36q-180 0 -309.5 86.5t-194 236.5t-64.5 346z" />
    <glyph glyph-name="one" unicode="1" horiz-adv-x="894" 
d="M789 0h-416v997h-20l-301 -206v356l321 218h416v-1365z" />
    <glyph glyph-name="two" unicode="2" horiz-adv-x="1194" 
d="M451 910h-391v25q0 65 18.5 128t59.5 122t100.5 103.5t149 71.5t197.5 27q239 0 385.5 -112.5t146.5 -283.5q0 -39 -7.5 -77t-16.5 -67t-28.5 -62.5t-33.5 -53.5t-41 -50.5t-40 -44t-43.5 -42.5t-39.5 -38l-217 -216v-16h489v-324h-1049v257l472 457q47 45 71.5 71.5
t49.5 72t25 88.5q0 47 -38 84.5t-93 37.5q-57 0 -92 -38t-35 -91q0 -6 0.5 -16t0.5 -13z" />
    <glyph glyph-name="three" unicode="3" horiz-adv-x="1221" 
d="M441 553v297h152q69 0 108.5 34t39.5 88q0 47 -43 80.5t-106 33.5q-66 0 -110 -42.5t-44 -97.5h-387q8 210 156 325.5t406 115.5q148 0 268.5 -44.5t192.5 -128.5t72 -192q0 -69 -23.5 -124.5t-61.5 -88.5t-78.5 -52t-81.5 -23v-21q116 -7 198 -91.5t82 -234.5
q0 -96 -49.5 -175.5t-132 -130t-186.5 -77.5t-218 -27q-139 0 -247.5 36.5t-174 99t-99.5 141t-34 167.5h381q0 -59 54.5 -97t129.5 -38q71 0 116 38.5t45 94.5q0 55 -44 94.5t-123 39.5h-158z" />
    <glyph glyph-name="four" unicode="4" horiz-adv-x="1268" 
d="M489 1365h592v-841h149v-319h-149v-205h-389v205h-655v325q34 69 74 146t69.5 132.5t80.5 147.5t72 130.5t81.5 145.5t74.5 133zM389 524h303v556h-19q-189 -339 -284 -552v-4z" />
    <glyph glyph-name="five" unicode="5" horiz-adv-x="1242" 
d="M75 404h376q8 -47 57.5 -80.5t120.5 -33.5q77 0 126 48.5t49 123.5q0 74 -49 123t-127 49q-58 0 -100 -27.5t-57 -58.5h-377l50 817h967v-320h-643l-18 -234h19q27 44 99 80.5t191 36.5q118 0 218.5 -50t165 -153t64.5 -241q0 -237 -158.5 -372t-420.5 -135
q-257 0 -405 121.5t-148 305.5z" />
    <glyph glyph-name="six" unicode="6" horiz-adv-x="1225" 
d="M1145 991h-377q-8 41 -46 64t-88 23t-88 -24.5t-58.5 -63.5t-33.5 -87.5t-12.5 -96t3.5 -89.5h22q81 189 292 189q175 0 294 -117t119 -322q0 -116 -42 -210t-114.5 -154.5t-169.5 -93t-208 -32.5q-275 0 -427.5 188.5t-152.5 517.5q0 328 152.5 516t429.5 188
q98 0 182 -24.5t141.5 -65t99 -92.5t61 -106.5t21.5 -107.5zM488 454q0 -72 40 -119t107 -47q66 0 106 46.5t40 119.5q0 72 -39.5 119.5t-106.5 47.5t-107 -48t-40 -119z" />
    <glyph glyph-name="seven" unicode="7" horiz-adv-x="1145" 
d="M40 1365h1055v-328l-545 -1037h-441l569 1026v15h-638v324z" />
    <glyph glyph-name="eight" unicode="8" horiz-adv-x="1282" 
d="M641 249q77 0 129 46.5t52 120.5t-52 121t-129 47t-128.5 -46.5t-51.5 -121.5q0 -74 51.5 -120.5t128.5 -46.5zM641 832q63 0 105.5 39.5t42.5 101.5t-42.5 101.5t-105.5 39.5t-105 -39.5t-42 -101.5t42 -101.5t105 -39.5zM641 -23q-281 0 -441 111t-160 292
q0 79 27 141.5t72.5 100.5t96.5 60.5t107 30.5v16q-248 71 -248 302q0 156 146.5 256t399.5 100t399.5 -100t146.5 -256q0 -231 -248 -302v-16q56 -8 107 -30.5t96.5 -60.5t72.5 -100.5t27 -141.5q0 -181 -160 -292t-441 -111z" />
    <glyph glyph-name="nine" unicode="9" horiz-adv-x="1225" 
d="M81 371h376q9 -41 46.5 -63t86.5 -22q50 0 88.5 24.5t59 64t34 88.5t13 97.5t-3.5 92.5h-22q-18 -75 -90 -131.5t-200 -56.5q-178 0 -296.5 115.5t-118.5 319.5q0 155 73 267t192 166t268 54q276 0 428.5 -186.5t152.5 -516.5q0 -328 -152 -517.5t-430 -189.5
q-120 0 -218.5 36.5t-158.5 95t-93 126.5t-35 136zM738 914q0 72 -40 118t-107 46t-106.5 -45.5t-39.5 -118.5q0 -71 39.5 -117.5t106.5 -46.5t107 46.5t40 117.5z" />
    <glyph glyph-name="colon" unicode=":" horiz-adv-x="612" 
d="M82 819q0 98 63.5 155.5t160.5 57.5q96 0 160 -58t64 -155q0 -98 -63.5 -154.5t-160.5 -56.5t-160.5 56.5t-63.5 154.5zM82 192q0 98 63.5 155.5t160.5 57.5q96 0 160 -58t64 -155q0 -98 -63.5 -154.5t-160.5 -56.5t-160.5 56.5t-63.5 154.5z" />
    <glyph glyph-name="semicolon" unicode=";" horiz-adv-x="607" 
d="M90 819q0 98 63.5 155.5t160.5 57.5q96 0 160 -58t64 -155q0 -98 -63.5 -154.5t-160.5 -56.5t-160.5 56.5t-63.5 154.5zM381 -406h-317l62 690h374z" />
    <glyph glyph-name="less" unicode="&#x3c;" horiz-adv-x="1295" 
d="M132 438v224l1022 509v-391l-530 -217v-16l530 -228v-380z" />
    <glyph glyph-name="equal" unicode="=" horiz-adv-x="1295" 
d="M1186 146h-1076v315h1076v-315zM1186 655h-1076v315h1076v-315z" />
    <glyph glyph-name="greater" unicode="&#x3e;" horiz-adv-x="1295" 
d="M1154 662v-224l-1022 -499v380l530 228v16l-530 217v391z" />
    <glyph glyph-name="question" unicode="?" horiz-adv-x="1022" 
d="M245 158q0 84 61 132.5t170 48.5q108 0 169.5 -48.5t61.5 -132.5t-61 -132.5t-170 -48.5q-108 0 -169.5 48.5t-61.5 132.5zM8 955q-7 107 31 191.5t110.5 135.5t165.5 77.5t201 26.5q142 0 253 -43t179 -134.5t68 -219.5q0 -53 -13 -98.5t-31 -76t-48.5 -59.5
t-54.5 -45.5t-60 -38.5q-101 -60 -134.5 -96t-33.5 -107v-40h-348l-3 21q-17 123 20.5 209t138.5 143q44 25 65.5 39t46.5 35t35 43.5t10 50.5q0 53 -34 82t-82 29q-52 0 -83.5 -35t-33.5 -90h-365z" />
    <glyph glyph-name="at" unicode="@" horiz-adv-x="1772" 
d="M1319 133q-54 0 -106.5 13.5t-100.5 50t-65 90.5h-9q-23 -80 -89 -116.5t-152 -36.5q-138 0 -221 87t-83 242v139q0 145 81.5 231.5t217.5 86.5q101 0 157 -45t73 -109h7v139h247v-509q0 -37 21.5 -59t55.5 -22q47 0 83.5 77.5t36.5 226.5v21q0 147 -68.5 265t-196 187
t-291.5 69h-9q-274 0 -434 -166t-160 -442v-29q0 -124 32 -225.5t86 -168.5t128 -112.5t155 -65.5t170 -20h11q159 0 237 35v-191q-77 -35 -257 -35h-11q-170 0 -312 52t-245 149.5t-160.5 245t-57.5 330.5v42q0 358 224.5 577t593.5 219h8q180 0 328.5 -57t245 -154.5
t149.5 -224.5t53 -270v-47q0 -134 -40 -238.5t-126 -168t-207 -63.5zM765 505q0 -87 29 -124t86 -37q50 0 79.5 31.5t29.5 113.5v87q0 75 -31.5 106t-79.5 31q-113 0 -113 -162v-46z" />
    <glyph glyph-name="A" unicode="A" horiz-adv-x="1354" 
d="M414 0h-415l414 1365h532l410 -1365h-448l-59 258h-373zM675 1018h-21l-110 -465h237z" />
    <glyph glyph-name="B" unicode="B" horiz-adv-x="1315" 
d="M115 0v1365h659q200 0 321 -89t121 -246q0 -130 -76 -206t-182 -89v-19q54 -2 107 -21.5t101 -57t78 -102t30 -145.5q0 -122 -67 -212.5t-172.5 -134t-233.5 -43.5h-686zM530 1085v-256h130q75 0 112.5 37.5t37.5 91.5q0 57 -40.5 92t-111.5 35h-128zM530 581v-301h143
q88 0 132 43t44 110t-45 107.5t-133 40.5h-141z" />
    <glyph glyph-name="C" unicode="C" horiz-adv-x="1328" 
d="M489 745v-127q0 -146 52 -223.5t147 -77.5q90 0 139 64t49 166h397v-61q0 -230 -164.5 -369.5t-424.5 -139.5q-298 0 -461.5 173.5t-163.5 470.5v123q0 298 163 470.5t462 172.5q261 0 425 -139.5t164 -370.5v-59h-397q0 101 -49 165t-139 64q-95 0 -147 -77.5
t-52 -224.5z" />
    <glyph glyph-name="D" unicode="D" horiz-adv-x="1386" 
d="M115 1365h593q131 0 235 -31.5t177 -89t121.5 -141t71 -186t22.5 -226.5q0 -157 -37 -282.5t-112.5 -217.5t-196.5 -141.5t-281 -49.5h-593v1365zM535 1042v-719h96q40 0 69 4t63 16t57.5 36.5t44 62.5t30.5 98t10 139q0 59 -5.5 106.5t-23 97.5t-46.5 83t-79.5 54.5
t-119.5 21.5h-96z" />
    <glyph glyph-name="E" unicode="E" horiz-adv-x="1173" 
d="M1088 323v-323h-973v1365h973v-323h-558v-215h521v-292h-521v-212h558z" />
    <glyph glyph-name="F" unicode="F" horiz-adv-x="1130" 
d="M535 0h-420v1365h970v-328h-550v-250h497v-316h-497v-471z" />
    <glyph glyph-name="G" unicode="G" horiz-adv-x="1353" 
d="M1294 894h-405q-7 65 -57 111t-136 46q-104 0 -158 -75t-54 -218v-144q0 -50 5.5 -90.5t20.5 -81t39 -68t64.5 -44.5t93.5 -17q93 0 143.5 49.5t50.5 115.5v16h-170v278h563v-256q0 -83 -20 -159t-66 -146t-114 -121.5t-170.5 -82t-228.5 -30.5q-134 0 -242.5 34
t-180.5 93t-121 140.5t-70.5 173t-21.5 194.5v151q0 135 41.5 248.5t120.5 197.5t201.5 131t276.5 47q147 0 264.5 -43t187.5 -114.5t106.5 -157.5t36.5 -178z" />
    <glyph glyph-name="H" unicode="H" horiz-adv-x="1465" 
d="M1350 0h-420v517h-395v-517h-420v1365h420v-515h395v515h420v-1365z" />
    <glyph glyph-name="I" unicode="I" horiz-adv-x="650" 
d="M535 0h-420v1365h420v-1365z" />
    <glyph glyph-name="J" unicode="J" horiz-adv-x="1217" 
d="M27 508h401q0 -77 36 -120.5t102 -43.5q70 0 100 40t30 119v862h421v-869q0 -256 -144 -387.5t-402 -131.5q-114 0 -207 30.5t-154.5 81t-103.5 119.5t-60.5 144t-18.5 156z" />
    <glyph glyph-name="K" unicode="K" horiz-adv-x="1372" 
d="M1389 1365l-453 -598l465 -767h-486l-285 493l-95 -120v-373h-420v1365h420v-535h19l397 535h438z" />
    <glyph glyph-name="L" unicode="L" horiz-adv-x="1065" 
d="M1036 344v-344h-921v1365h420v-1021h501z" />
    <glyph glyph-name="M" unicode="M" horiz-adv-x="1703" 
d="M486 0h-371v1365h439l292 -609h14l293 609h435v-1365h-377v761h-19l-232 -502h-220l-234 502h-20v-761z" />
    <glyph glyph-name="N" unicode="N" horiz-adv-x="1411" 
d="M500 0h-385v1365h315l465 -660h16v660h385v-1365h-312l-468 672h-16v-672z" />
    <glyph glyph-name="O" unicode="O" horiz-adv-x="1407" 
d="M489 753v-142q0 -146 56.5 -223.5t158.5 -77.5q101 0 157.5 77.5t56.5 223.5v142q0 145 -56.5 223t-157.5 78q-102 0 -158.5 -78t-56.5 -223zM59 613v134q0 296 168.5 468t476.5 172t476 -173t168 -467v-134q0 -293 -168 -464.5t-476 -171.5t-476.5 172t-168.5 464z" />
    <glyph glyph-name="P" unicode="P" horiz-adv-x="1273" 
d="M115 1365h623q125 0 223.5 -41.5t158 -112t90.5 -159.5t31 -189q0 -102 -31.5 -190t-92.5 -156.5t-160 -108t-225 -39.5h-198v-369h-419v1365zM532 1055v-384h92q88 0 140.5 50.5t52.5 141.5q0 93 -52 142.5t-141 49.5h-92z" />
    <glyph glyph-name="Q" unicode="Q" horiz-adv-x="1414" 
d="M65 617v126q0 290 174.5 467t470.5 177t470 -177.5t174 -466.5v-126q0 -309 -197 -484l150 -240h-382l-61 99q-80 -15 -154 -15q-296 0 -470.5 176t-174.5 464zM474 748v-142q0 -158 59 -242.5t161 -90.5l-104 171h334q21 73 21 162v142q0 148 -64 228.5t-171 80.5
q-108 0 -172 -80.5t-64 -228.5z" />
    <glyph glyph-name="R" unicode="R" horiz-adv-x="1334" 
d="M741 1365q262 0 401.5 -126.5t139.5 -343.5q0 -64 -17.5 -123t-44 -101t-60.5 -76.5t-62.5 -54.5t-54.5 -32l268 -508h-461l-219 455h-105v-455h-411v1365h626zM526 735h151q74 0 123 41.5t49 120.5q0 80 -50.5 123.5t-121.5 43.5h-151v-329z" />
    <glyph glyph-name="S" unicode="S" horiz-adv-x="1288" 
d="M57 418h394q2 -53 55 -93t145 -40q90 0 131 30t41 77q0 49 -45 73.5t-146 42.5l-165 29q-388 69 -388 406q0 209 154 326.5t413 117.5q139 0 249 -37t176 -99.5t100 -138t34 -157.5h-380q-2 49 -48 89t-130 40q-76 0 -114 -30t-38 -77q0 -79 178 -106l175 -27
q61 -9 113 -26t103.5 -48.5t87.5 -75t58.5 -109.5t22.5 -148q0 -208 -150.5 -334t-440.5 -126q-130 0 -232.5 26t-167 68.5t-107.5 101t-60.5 119t-17.5 126.5z" />
    <glyph glyph-name="T" unicode="T" horiz-adv-x="1128" 
d="M774 0h-420v1029h-347v336h1114v-336h-347v-1029z" />
    <glyph glyph-name="U" unicode="U" horiz-adv-x="1408" 
d="M520 1365v-834q0 -108 49.5 -159t134.5 -51q84 0 134 52t50 158v834h420v-893q0 -227 -162.5 -361t-441.5 -134t-441.5 134t-162.5 361v893h420z" />
    <glyph glyph-name="V" unicode="V" horiz-adv-x="1334" 
d="M947 0h-551l-401 1365h490l191 -935h19l185 935h459z" />
    <glyph glyph-name="W" unicode="W" horiz-adv-x="1865" 
d="M726 0h-395l-336 1364h433l129 -827h19l196 827h323l196 -827h20l126 827h433l-335 -1364h-395l-199 751h-15z" />
    <glyph glyph-name="X" unicode="X" horiz-adv-x="1281" 
d="M1324 1365l-406 -678l405 -687h-467l-211 395h-16l-209 -395h-443l386 687l-388 678h489l188 -413h17l188 413h467z" />
    <glyph glyph-name="Y" unicode="Y" horiz-adv-x="1251" 
d="M836 0h-420v411l-457 954h455l212 -537h15l214 537h438l-457 -941v-424z" />
    <glyph glyph-name="Z" unicode="Z" horiz-adv-x="1224" 
d="M85 0v262l550 758v19h-545v326h1046v-262l-550 -757v-20h573v-326h-1074z" />
    <glyph glyph-name="bracketleft" unicode="[" horiz-adv-x="825" 
d="M90 1365h677v-293h-288v-1008h301v-292h-690v1593z" />
    <glyph glyph-name="backslash" unicode="\" horiz-adv-x="677" 
d="M733 -268h-366l-411 1705h366z" />
    <glyph glyph-name="bracketright" unicode="]" horiz-adv-x="825" 
d="M56 1365h679v-1593h-690v292h301v1008h-290v293z" />
    <glyph glyph-name="asciicircum" unicode="^" horiz-adv-x="1053" 
d="M1032 795h-355l-142 255h-18l-151 -255h-343l345 570h324z" />
    <glyph glyph-name="underscore" unicode="_" horiz-adv-x="871" 
d="M897 -408h-923v305h923v-305z" />
    <glyph glyph-name="grave" unicode="`" horiz-adv-x="950" 
d="M803 1250h-349l-303 311h401z" />
    <glyph glyph-name="a" unicode="a" horiz-adv-x="1155" 
d="M672 126q-23 -58 -89 -99.5t-176 -41.5q-162 0 -260 86.5t-98 240.5q0 153 102.5 241t289.5 88h231v79q0 42 -27.5 66t-73.5 24q-48 0 -77 -26.5t-29 -67.5h-378q1 55 14.5 104.5t48 100.5t87 88t139.5 60.5t199 23.5q107 0 194 -20.5t156 -65t107 -121.5t38 -182v-704
h-378v126h-20zM555 253q46 0 81.5 26t35.5 68v96h-104q-55 0 -89 -26t-34 -69q0 -44 32.5 -69.5t77.5 -25.5z" />
    <glyph glyph-name="b" unicode="b" horiz-adv-x="1265" 
d="M827 -9q-112 0 -192 49.5t-108 132.5h-20v-173h-407v1437h407v-530h20q28 83 108 131.5t192 48.5q180 0 281.5 -129.5t101.5 -377.5v-80q0 -248 -101.5 -378.5t-281.5 -130.5zM648 295q65 0 103 54.5t38 159.5v59q0 105 -38 159t-103 54q-63 0 -102 -54t-39 -159v-59
q0 -105 39 -159.5t102 -54.5z" />
    <glyph glyph-name="c" unicode="c" horiz-adv-x="1123" 
d="M51 514v64q0 235 142 378t387 143q228 0 361 -124.5t135 -329.5h-359q-2 65 -35.5 108.5t-87.5 43.5q-60 0 -97 -59.5t-37 -158.5v-60q0 -117 35.5 -178t99.5 -61q118 0 122 149h359q-1 -95 -27.5 -171.5t-72 -127.5t-109 -85.5t-135.5 -50t-154 -15.5q-242 0 -384.5 138
t-142.5 397z" />
    <glyph glyph-name="d" unicode="d" horiz-adv-x="1266" 
d="M439 1087q112 0 192 -48.5t109 -131.5h19v530h407v-1437h-407v173h-19q-29 -83 -109 -132.5t-192 -49.5q-178 0 -281 132.5t-103 376.5v80q0 244 102.5 375.5t281.5 131.5zM617 781q-63 0 -102 -54.5t-39 -158.5v-59q0 -105 39 -159.5t102 -54.5q64 0 103 54.5t39 159.5
v59q0 105 -39 159t-103 54z" />
    <glyph glyph-name="e" unicode="e" horiz-adv-x="1154" 
d="M595 -21q-120 0 -218.5 32t-172 95.5t-113.5 166t-40 235.5v66q0 132 42.5 234.5t116 165t167.5 94t203 31.5q236 0 379.5 -140.5t143.5 -384.5v-113h-659v-46q0 -70 44.5 -109t104.5 -39q62 0 104 29t43 78h360q-1 -52 -18 -104.5t-56 -105.5t-95.5 -93.5t-143.5 -66
t-192 -25.5zM444 671h274q0 68 -36.5 109.5t-97.5 41.5q-62 0 -101 -42t-39 -109z" />
    <glyph glyph-name="f" unicode="f" horiz-adv-x="848" 
d="M203 0v757h-168v296h168v106q0 172 97.5 241t321.5 69q45 0 81.5 -1.5t61.5 -4t28 -2.5v-261q-24 2 -78 2q-122 0 -122 -78v-71h200v-296h-188v-757h-402z" />
    <glyph glyph-name="g" unicode="g" horiz-adv-x="1257" 
d="M606 -123q151 0 151 168v145h-20q-28 -76 -106 -122.5t-192 -46.5q-179 0 -279.5 132t-100.5 385v32q0 253 100.5 385t279.5 132q114 0 192.5 -48.5t105.5 -131.5h20v171h405v-1075q0 -93 -36 -164.5t-92 -114.5t-133 -70.5t-150.5 -37.5t-153.5 -10q-132 0 -233.5 28.5
t-161.5 77.5t-90.5 109.5t-30.5 130.5h378q20 -75 147 -75zM618 781q-63 0 -100.5 -54t-37.5 -159v-57q0 -105 37.5 -159.5t100.5 -54.5t101 54.5t38 159.5v57q0 105 -38 159t-101 54z" />
    <glyph glyph-name="h" unicode="h" horiz-adv-x="1261" 
d="M100 0v1437h405v-540h20q10 33 32 65t57.5 62.5t90.5 49.5t121 19q163 0 256.5 -101t93.5 -294v-698h-405v596q0 50 -12.5 85t-33.5 51.5t-41.5 23t-43.5 6.5q-55 0 -95 -42.5t-40 -126.5v-593h-405z" />
    <glyph glyph-name="i" unicode="i" horiz-adv-x="615" 
d="M105 0v1078h405v-1078h-405zM87 1362q0 78 58 125.5t161 47.5t161.5 -48t58.5 -125q0 -78 -58 -125.5t-162 -47.5q-102 0 -160.5 48t-58.5 125z" />
    <glyph glyph-name="j" unicode="j" horiz-adv-x="614" 
d="M87 1362q0 78 58 125.5t161 47.5t161.5 -48t58.5 -125q0 -78 -58 -125.5t-162 -47.5q-102 0 -160.5 48t-58.5 125zM509 1078v-1068q0 -178 -123 -269.5t-328 -91.5q-79 0 -125 6v272q20 -3 47 -3q59 0 92 20t33 70v1064h404z" />
    <glyph glyph-name="k" unicode="k" horiz-adv-x="1244" 
d="M501 339v-339h-406v1437h406v-751h20l233 392h449l-344 -461l370 -617h-467l-219 399z" />
    <glyph glyph-name="l" unicode="l" horiz-adv-x="616" 
d="M105 0v1437h406v-1437h-406z" />
    <glyph glyph-name="m" unicode="m" horiz-adv-x="1855" 
d="M95 0v1078h391v-189h20q9 35 29.5 68.5t55.5 65t90 51t123 19.5q117 0 191 -55t97 -147h16q23 77 108.5 139.5t215.5 62.5q157 0 245 -96.5t88 -254.5v-742h-405v609q0 163 -119 163q-54 0 -86.5 -39.5t-32.5 -125.5v-607h-384v609q0 163 -119 163t-119 -163v-609h-405z
" />
    <glyph glyph-name="n" unicode="n" horiz-adv-x="1256" 
d="M95 0v1078h391v-181h20q24 75 103.5 135.5t207.5 60.5q164 0 256.5 -100.5t92.5 -294.5v-698h-405v596q0 50 -12.5 85t-33.5 51.5t-41 23t-42 6.5q-54 0 -93 -42.5t-39 -126.5v-593h-405z" />
    <glyph glyph-name="o" unicode="o" horiz-adv-x="1181" 
d="M592 1099q251 0 394.5 -144.5t143.5 -382.5v-54q0 -259 -141 -399t-397 -140q-258 0 -399.5 139.5t-141.5 397.5v53q0 238 144.5 384t396.5 146zM591 807q-128 0 -128 -227v-81q0 -228 128 -228q127 0 127 228v81q0 227 -127 227z" />
    <glyph glyph-name="p" unicode="p" horiz-adv-x="1260" 
d="M822 -9q-111 0 -189.5 49t-110.5 133h-20v-510h-407v1415h407v-171h20q32 84 110 132t190 48q180 0 281.5 -129.5t101.5 -377.5v-80q0 -248 -101.5 -378.5t-281.5 -130.5zM643 295q65 0 103 54.5t38 159.5v59q0 105 -38 159t-103 54q-63 0 -102 -54t-39 -159v-59
q0 -105 39 -159.5t102 -54.5z" />
    <glyph glyph-name="q" unicode="q" horiz-adv-x="1261" 
d="M439 1087q113 0 194.5 -48.5t106.5 -131.5h19v171h407v-1415h-407v510h-19q-25 -83 -106.5 -132.5t-194.5 -49.5q-179 0 -281.5 131t-102.5 378v80q0 248 102.5 377.5t281.5 129.5zM617 781q-63 0 -102 -54.5t-39 -158.5v-59q0 -105 39 -159.5t102 -54.5q64 0 103 54.5
t39 159.5v59q0 105 -39 159t-103 54z" />
    <glyph glyph-name="r" unicode="r" horiz-adv-x="889" 
d="M95 0v1078h406v-173h20q13 67 75 127.5t156 60.5q84 0 114 -12v-338q-39 17 -136 17q-215 0 -215 -227v-533h-420z" />
    <glyph glyph-name="s" unicode="s" horiz-adv-x="1097" 
d="M70 745q0 94 38.5 164t107 110.5t153 60t186.5 19.5q133 0 233 -35t161 -112.5t61 -190.5h-348q-6 37 -34.5 62.5t-75.5 25.5q-51 0 -76 -21.5t-25 -54.5q0 -17 10 -31t30.5 -24t42 -17.5t53 -13.5t55 -9.5t57 -7.5t49.5 -7q302 -48 302 -310q0 -174 -131.5 -274
t-382.5 -100q-238 0 -364.5 96t-126.5 247h392q2 -38 35.5 -64.5t83.5 -26.5q52 0 78 21t26 55q0 22 -14 37t-44 24.5t-56.5 14.5t-74 12t-73.5 12q-149 28 -238.5 109.5t-89.5 228.5z" />
    <glyph glyph-name="t" unicode="t" horiz-adv-x="872" 
d="M206 1053v264h389v-264h202v-296h-202v-357q0 -107 128 -107q54 0 74 2v-285q-73 -10 -171 -10q-223 0 -327.5 70t-104.5 240v447h-164v296h176z" />
    <glyph glyph-name="u" unicode="u" horiz-adv-x="1255" 
d="M1160 1078v-1078h-391v181h-20q-24 -75 -103.5 -135.5t-207.5 -60.5q-164 0 -256 99.5t-92 293.5v700h405v-598q0 -50 12.5 -85t33.5 -51.5t40.5 -23t41.5 -6.5q54 0 93 42.5t39 126.5v595h405z" />
    <glyph glyph-name="v" unicode="v" horiz-adv-x="1145" 
d="M318 0l-323 1078h437l125 -731h16l153 731h424l-356 -1078h-476z" />
    <glyph glyph-name="w" unicode="w" horiz-adv-x="1726" 
d="M1721 1078l-269 -1078h-433l-149 670h-14l-148 -670h-437l-266 1078h410l102 -709h16l142 709h380l144 -709h16l102 709h404z" />
    <glyph glyph-name="x" unicode="x" horiz-adv-x="1188" 
d="M729 0l-137 305h-16l-137 -305h-416l297 540l-319 538h459l136 -302h16l137 302h438l-335 -538l314 -540h-437z" />
    <glyph glyph-name="y" unicode="y" horiz-adv-x="1171" 
d="M1172 1078q-298 -970 -307 -994l-27 -71q-36 -95 -80.5 -161.5t-111 -118.5t-161.5 -77t-222 -25q-133 0 -204 16v267q32 -8 101 -8q99 0 136.5 25.5t37.5 78.5v7l-335 1061h446l135 -766h16l146 766h430z" />
    <glyph glyph-name="z" unicode="z" horiz-adv-x="1050" 
d="M70 0v201l424 561v16h-406v300h889v-236l-386 -525v-16h409v-301h-930z" />
    <glyph glyph-name="braceleft" unicode="{" horiz-adv-x="909" 
d="M403 601v-34q111 -10 170 -73t59 -176v-172q0 -109 34 -142t147 -33h41v-282h-147q-250 0 -357.5 87.5t-107.5 306.5v139q0 104 -30 147.5t-117 43.5v342q87 0 117 43.5t30 147.5v108q0 216 107 301t358 85h147v-281h-41q-113 0 -147 -33.5t-34 -142.5v-166
q0 -109 -56.5 -157.5t-172.5 -58.5z" />
    <glyph glyph-name="bar" unicode="|" horiz-adv-x="765" 
d="M570 -288h-375v1725h375v-1725z" />
    <glyph glyph-name="braceright" unicode="}" horiz-adv-x="911" 
d="M508 567v34q-117 10 -173 58.5t-56 157.5v166q0 109 -34.5 142.5t-146.5 33.5h-43v281h149q251 0 357 -85t106 -301v-108q0 -103 30.5 -147t118.5 -44v-342q-88 0 -118.5 -44t-30.5 -147v-139q0 -219 -106.5 -306.5t-356.5 -87.5h-149v282h43q112 0 146.5 33t34.5 142
v172q0 113 58.5 176t170.5 73z" />
    <glyph glyph-name="asciitilde" unicode="~" horiz-adv-x="1117" 
d="M761 461q-103 0 -217 80q-8 6 -27 19.5t-27.5 19.5t-24.5 15.5t-26 14t-23 8t-25 3.5q-80 0 -87 -141h-267q0 217 77 340t235 123q110 0 214 -76q5 -4 24.5 -18.5t26 -19t23 -15t26 -14t23.5 -7t28 -3.5q28 0 47 12t27.5 34.5t11.5 42.5t4 48h269q0 -210 -82 -338
t-230 -128z" />
    <glyph glyph-name="nonbreakingspace" unicode="&#xa0;" horiz-adv-x="392" 
 />
    <glyph glyph-name="exclamdown" unicode="&#xa1;" horiz-adv-x="617" 
d="M527 -281h-439l47 937h348zM538 926q0 -84 -61 -132.5t-170 -48.5q-108 0 -169.5 48.5t-61.5 132.5t61 132.5t170 48.5q108 0 169.5 -48.5t61.5 -132.5z" />
    <glyph glyph-name="cent" unicode="&#xa2;" horiz-adv-x="1295" 
d="M1161 571q0 -91 -33.5 -170t-87.5 -132t-119 -85.5t-132 -40.5v-218h-296v214q-73 7 -140.5 41t-126 93t-94 155t-35.5 214v100q0 90 24 167t63.5 131.5t92 95t106.5 63t110 29.5v202h296v-208q155 -16 263 -138.5t109 -288.5h-348q-2 64 -55 113t-123 49
q-75 0 -125 -59.5t-50 -146.5v-110q0 -106 49.5 -167.5t129.5 -61.5q71 0 121.5 49t52.5 110h348z" />
    <glyph glyph-name="sterling" unicode="&#xa3;" horiz-adv-x="1295" 
d="M1228 320v-320h-1143v329q52 16 99.5 64t47.5 105v30h-148v256h148v190q0 186 122.5 298t359.5 112q245 0 376 -114t131 -345h-379q0 63 -29.5 102t-90.5 39q-56 0 -85.5 -39t-29.5 -105v-138h283v-256h-283l-2 -44q-2 -48 -29 -88t-74 -55v-21h726z" />
    <glyph glyph-name="currency" unicode="&#xa4;" horiz-adv-x="1295" 
d="M1026 71l-146 146q-108 -61 -234 -61t-235 61l-146 -146l-191 191l146 146q-62 108 -62 236q0 126 61 235l-145 145l191 191l145 -145q109 61 236 61t236 -61l144 145l191 -191l-145 -145q61 -109 61 -235q0 -127 -61 -236l145 -146zM462 644q0 -76 54 -130t130 -54
q75 0 128.5 54t53.5 130t-53.5 129t-128.5 53q-77 0 -130.5 -53t-53.5 -129z" />
    <glyph glyph-name="yen" unicode="&#xa5;" horiz-adv-x="1295" 
d="M1148 88h-291v-88h-419v88h-282v233h282v85h-282v233h172l-349 726h455l212 -537h15l214 537h438l-352 -726h187v-233h-291v-85h291v-233z" />
    <glyph glyph-name="brokenbar" unicode="&#xa6;" horiz-adv-x="765" 
d="M570 777h-375v660h375v-660zM570 -288h-375v672h375v-672z" />
    <glyph glyph-name="section" unicode="&#xa7;" horiz-adv-x="934" 
d="M561 73q0 21 -13.5 38t-44 30.5t-57.5 23t-76 24t-78 24.5q-57 20 -100 42t-84.5 56.5t-63.5 85t-22 114.5q0 54 15 98.5t43 76t51 50.5t55 39v6q-152 90 -152 264q0 163 125.5 253t319.5 90q198 0 309.5 -93.5t111.5 -251.5h-314q-1 42 -34.5 68.5t-80.5 26.5
q-41 0 -65 -20.5t-24 -50.5q0 -19 11.5 -34.5t27.5 -26t45.5 -22t54 -18.5t64.5 -18.5t66 -19.5q58 -19 100 -40t83 -54t63 -82.5t22 -113.5q0 -172 -161 -284v-6q75 -42 113 -97t38 -144q0 -158 -116.5 -256.5t-323.5 -98.5q-198 0 -315 92t-122 252h314q7 -41 36.5 -67.5
t81.5 -26.5q47 0 72 21t25 50zM511 443q76 43 76 115q0 84 -113 117q-20 7 -45 10q-75 -42 -75 -118q0 -46 30 -71t84 -41q8 -3 24.5 -7t18.5 -5z" />
    <glyph glyph-name="dieresis" unicode="&#xa8;" horiz-adv-x="950" 
d="M86 1352q0 69 42.5 109t116.5 40q75 0 118 -40t43 -109t-42.5 -109t-118.5 -40q-74 0 -116.5 40t-42.5 109zM554 1352q0 69 42.5 109t116.5 40q75 0 117.5 -40t42.5 -109t-42 -109t-118 -40q-74 0 -116.5 40t-42.5 109z" />
    <glyph glyph-name="copyright" unicode="&#xa9;" horiz-adv-x="1643" 
d="M457 632v99q0 102 53 179t137.5 115t185.5 38q144 0 245.5 -86.5t103.5 -210.5h-232q0 41 -32 68.5t-84 27.5q-61 0 -95.5 -29t-34.5 -108v-94q0 -68 37 -99t93 -31q52 0 84 21.5t32 61.5h230q-1 -125 -97.5 -206t-249.5 -81q-157 0 -266.5 89.5t-109.5 245.5zM254 643
q0 -246 158 -403.5t414 -157.5q255 0 414.5 157.5t159.5 403.5v103q0 112 -42.5 211t-116.5 172t-182 115.5t-233 42.5t-232.5 -42.5t-181.5 -115t-116 -172t-42 -211.5v-103zM827 -64q-209 0 -374 92t-255.5 253.5t-90.5 362.5v103q0 142 54 268t148 218t229 145.5
t289 53.5q155 0 290 -54t228.5 -146.5t147.5 -218.5t54 -266v-103q0 -151 -53 -282t-146.5 -224.5t-228.5 -147.5t-292 -54z" />
    <glyph glyph-name="ordfeminine" unicode="&#xaa;" horiz-adv-x="691" 
d="M244 718q-116 0 -178.5 48.5t-62.5 138.5q0 187 261 187h142v45q0 43 -62 43q-30 0 -47.5 -12.5t-17.5 -32.5h-242q4 215 310 215q324 0 324 -222v-401h-253v71h-12q-14 -33 -54.5 -56.5t-107.5 -23.5zM334 881q30 0 51 11.5t21 35.5v41h-63q-75 0 -75 -44t66 -44z" />
    <glyph glyph-name="guillemotleft" unicode="&#xab;" horiz-adv-x="1350" 
d="M608 565l344 404h335l-339 -403v-6l339 -405h-344l-335 402v8zM69 565l344 404h335l-339 -403v-6l339 -405h-344l-335 402v8z" />
    <glyph glyph-name="logicalnot" unicode="&#xac;" horiz-adv-x="1295" 
d="M1185 72h-350v309h-737v320h1087v-629z" />
    <glyph glyph-name="registered" unicode="&#xae;" horiz-adv-x="1161" 
d="M573 414q-227 0 -375.5 143.5t-148.5 360.5v73q0 134 68 246t188.5 177t267.5 65q110 0 207.5 -38.5t166.5 -104t109.5 -156t40.5 -189.5v-73q0 -218 -148 -361t-376 -143zM573 538q169 0 280 109.5t111 271.5v68q0 152 -112 260t-279 108t-278.5 -108t-111.5 -260v-68
q0 -162 110.5 -271.5t279.5 -109.5zM505 1090v-107h78q73 0 73 54q0 53 -70 53h-81zM505 716h-150v487h266q90 0 143 -47t53 -121q0 -54 -28 -94t-69 -52l112 -173h-159l-95 155h-73v-155z" />
    <glyph glyph-name="macron" unicode="&#xaf;" horiz-adv-x="950" 
d="M801 1270h-640v188h640v-188z" />
    <glyph glyph-name="degree" unicode="&#xb0;" horiz-adv-x="591" 
d="M295 821q-121 0 -202 81.5t-81 202.5t81 201.5t202 80.5t202 -80.5t81 -201.5t-81 -202.5t-202 -81.5zM296 1005q41 0 68 29t27 71q0 41 -27.5 69.5t-67.5 28.5q-41 0 -69 -28.5t-28 -69.5q0 -42 28 -71t69 -29z" />
    <glyph glyph-name="plusminus" unicode="&#xb1;" horiz-adv-x="1295" 
d="M823 624v-198h-359v198h-311v296h311v178h359v-178h319v-296h-319zM1143 0h-989v310h989v-310z" />
    <glyph glyph-name="twosuperior" unicode="&#xb2;" horiz-adv-x="657" 
d="M275 1135h-248v16q0 42 16 82t49.5 75.5t94.5 57t142 21.5q136 0 215.5 -57.5t79.5 -150.5q0 -35 -12.5 -68.5t-28.5 -56t-37 -43.5t-32 -29.5t-21 -14.5l-92 -61v-9h232v-191h-582v153l242 193q77 63 77 100q0 19 -14.5 33t-34.5 14t-33.5 -13.5t-13.5 -32.5
q0 -3 0.5 -9.5t0.5 -8.5z" />
    <glyph glyph-name="threesuperior" unicode="&#xb3;" horiz-adv-x="677" 
d="M254 955v171h75q30 0 45.5 13t15.5 31q0 20 -17.5 31.5t-45.5 11.5q-63 0 -61 -61h-240q4 117 83.5 176t226.5 59q139 0 217 -49.5t78 -134.5q0 -64 -43.5 -102.5t-92.5 -44.5v-12q67 -4 109.5 -41.5t42.5 -106.5q0 -56 -27.5 -97.5t-74 -64t-98.5 -33t-111 -10.5
q-159 0 -235 68.5t-75 167.5h240q-2 -27 11.5 -42t46.5 -15q30 0 48 12.5t18 31.5q0 18 -15.5 29.5t-45.5 11.5h-75z" />
    <glyph glyph-name="acute" unicode="&#xb4;" horiz-adv-x="950" 
d="M549 1243h-348l233 318h401z" />
    <glyph glyph-name="paragraph" unicode="&#xb6;" horiz-adv-x="1626" 
d="M981 -210h-375v553h-20q-100 0 -191.5 36.5t-161 102t-111 163.5t-41.5 213q0 125 41 223.5t112 159.5t160.5 92.5t192.5 31.5h394v-1575zM1149 -210v1575h375v-1575h-375z" />
    <glyph glyph-name="periodcentered" unicode="&#xb7;" horiz-adv-x="612" 
d="M82 813q0 98 63.5 155.5t160.5 57.5q96 0 160 -58t64 -155q0 -98 -63.5 -154.5t-160.5 -56.5t-160.5 56.5t-63.5 154.5z" />
    <glyph glyph-name="cedilla" unicode="&#xb8;" horiz-adv-x="950" 
d="M360 -237v134l40 103h209l-40 -94q78 0 123.5 -49t45.5 -128q0 -206 -277 -206q-95 0 -141 16v149q44 -13 105 -13q99 0 99 39q0 25 -19.5 37t-86.5 12h-58z" />
    <glyph glyph-name="onesuperior" unicode="&#xb9;" horiz-adv-x="524" 
d="M452 706h-266v448h-12l-159 -98v205l171 104h266v-659z" />
    <glyph glyph-name="ordmasculine" unicode="&#xba;" horiz-adv-x="727" 
d="M362 1171q-80 0 -80 -120v-46q0 -122 80 -122t80 122v46q0 120 -80 120zM363 1350q158 0 247.5 -83.5t89.5 -220.5v-31q0 -149 -88 -229.5t-249 -80.5q-162 0 -251 80t-89 229v31q0 137 90.5 221t249.5 84z" />
    <glyph glyph-name="guillemotright" unicode="&#xbb;" horiz-adv-x="1350" 
d="M1287 565v-8l-335 -402h-344l339 405v6l-339 403h335zM748 565v-8l-335 -402h-344l339 405v6l-339 403h335z" />
    <glyph glyph-name="onequarter" unicode="&#xbc;" horiz-adv-x="1454" 
d="M1037 259h123v231h-12q-70 -132 -111 -230v-1zM1038 653h356v-394h80v-175h-80v-84h-234v84h-331v179q130 253 209 390zM412 706h-266v448h-12l-159 -98v205l171 104h266v-659zM304 -1h-274l597 749l468 617h274l-578 -725z" />
    <glyph glyph-name="onehalf" unicode="&#xbd;" horiz-adv-x="1457" 
d="M412 706h-266v448h-12l-159 -98v205l171 104h266v-659zM304 -1h-274l597 749l468 617h274l-578 -725zM1131 429h-248v16q0 42 16 82t49.5 75.5t94.5 57t142 21.5q136 0 215.5 -57.5t79.5 -150.5q0 -35 -12.5 -68.5t-28.5 -56t-37 -43.5t-32 -29.5t-21 -14.5l-92 -61v-9
h232v-191h-582v153l242 193q77 63 77 100q0 19 -14.5 33t-34.5 14t-33.5 -13.5t-13.5 -32.5q0 -3 0.5 -9.5t0.5 -8.5z" />
    <glyph glyph-name="threequarters" unicode="&#xbe;" horiz-adv-x="1510" 
d="M1093 259h123v231h-12q-70 -132 -111 -230v-1zM1094 653h356v-394h80v-175h-80v-84h-234v84h-331v179q130 253 209 390zM214 955v171h75q30 0 45.5 13t15.5 31q0 20 -17.5 31.5t-45.5 11.5q-63 0 -61 -61h-240q4 117 83.5 176t226.5 59q139 0 217 -49.5t78 -134.5
q0 -64 -43.5 -102.5t-92.5 -44.5v-12q67 -4 109.5 -41.5t42.5 -106.5q0 -56 -27.5 -97.5t-74 -64t-98.5 -33t-111 -10.5q-159 0 -235 68.5t-75 167.5h240q-2 -27 11.5 -42t46.5 -15q30 0 48 12.5t18 31.5q0 18 -15.5 29.5t-45.5 11.5h-75zM360 -1h-274l597 749l468 617h274
l-578 -725z" />
    <glyph glyph-name="questiondown" unicode="&#xbf;" horiz-adv-x="1022" 
d="M777 925q0 -84 -61 -132.5t-170 -48.5q-108 0 -169.5 48.5t-61.5 132.5t61 132.5t170 48.5q108 0 169.5 -48.5t61.5 -132.5zM1014 128q7 -107 -31 -191.5t-110.5 -135.5t-165.5 -77.5t-201 -26.5q-142 0 -253 43t-179 134.5t-68 219.5q0 53 13 98.5t31 76t48.5 59.5
t54.5 45.5t60 38.5q101 60 134.5 96t33.5 107v40h348l3 -21q17 -123 -20.5 -209t-138.5 -143q-44 -25 -65.5 -39t-46.5 -35t-35 -43.5t-10 -50.5q0 -53 34 -82t82 -29q52 0 83.5 35t33.5 90h365z" />
    <glyph glyph-name="Agrave" unicode="&#xc0;" horiz-adv-x="1354" 
d="M414 0h-415l414 1365h532l410 -1365h-448l-59 258h-373zM675 1018h-21l-110 -465h237zM860 1493h-327l-325 233h377z" />
    <glyph glyph-name="Aacute" unicode="&#xc1;" horiz-adv-x="1354" 
d="M414 0h-415l414 1365h532l410 -1365h-448l-59 258h-373zM675 1018h-21l-110 -465h237zM445 1493l293 248h401l-346 -248h-348z" />
    <glyph glyph-name="Acircumflex" unicode="&#xc2;" horiz-adv-x="1354" 
d="M414 0h-415l414 1365h532l410 -1365h-448l-59 258h-373zM675 1018h-21l-110 -465h237zM277 1476l257 253h298l243 -253h-284l-100 109h-23l-108 -109h-283z" />
    <glyph glyph-name="Atilde" unicode="&#xc3;" horiz-adv-x="1354" 
d="M414 0h-415l414 1365h532l410 -1365h-448l-59 258h-373zM675 1018h-21l-110 -465h237zM673 1493q-6 5 -18.5 17t-20 18.5t-21 12.5t-27.5 6q-65 0 -70 -76h-187q0 95 57 171t157 76q60 0 94 -14t72 -45q6 -5 19 -16.5t18.5 -15.5t15.5 -10.5t18 -8.5t18 -2q63 0 63 97
h188q0 -112 -65 -185t-161 -73q-44 0 -76 8.5t-44 16.5t-30 23z" />
    <glyph glyph-name="Adieresis" unicode="&#xc4;" horiz-adv-x="1354" 
d="M414 0h-415l414 1365h532l410 -1365h-448l-59 258h-373zM675 1018h-21l-110 -465h237zM312 1577q0 63 39 100t107 37q70 0 108.5 -37t38.5 -100t-38.5 -100t-108.5 -37q-68 0 -107 37t-39 100zM745 1577q0 63 38 100t108 37q69 0 108 -37t39 -100t-38.5 -100t-108.5 -37
t-108 37t-38 100z" />
    <glyph glyph-name="Aring" unicode="&#xc5;" horiz-adv-x="1354" 
d="M548 1415q0 -51 34 -83.5t87 -32.5q50 0 85 33t35 83q0 52 -34.5 84.5t-85.5 32.5q-53 0 -87 -32t-34 -85zM781 553l-106 465h-21l-110 -465h237zM414 0h-415l372 1225q-58 86 -58 194q0 147 103 246.5t253 99.5t253.5 -100t103.5 -246q0 -95 -45 -173l374 -1246h-448
l-59 258h-373z" />
    <glyph glyph-name="AE" unicode="&#xc6;" horiz-adv-x="1957" 
d="M835 1043l-174 -499l236 1v498h-62zM897 234h-354l-90 -234h-454l560 1365h1313v-322h-563v-216h526v-292h-526v-212h563v-323h-975v234z" />
    <glyph glyph-name="Ccedilla" unicode="&#xc7;" horiz-adv-x="1328" 
d="M662 -477q-95 0 -141 16v149q44 -13 105 -13q99 0 99 39q0 25 -19.5 37t-86.5 12h-58v134l33 84q-257 27 -396 196.5t-139 443.5v123q0 298 163 470.5t462 172.5q261 0 425 -139.5t164 -370.5v-59h-397q0 101 -49 165t-139 64q-95 0 -147 -77.5t-52 -224.5v-127
q0 -146 52 -223.5t147 -77.5q90 0 139 64t49 166h397v-61q0 -201 -128 -335t-341 -165l-34 -80q78 0 123.5 -49t45.5 -128q0 -206 -277 -206z" />
    <glyph glyph-name="Egrave" unicode="&#xc8;" horiz-adv-x="1173" 
d="M1088 323v-323h-973v1365h973v-323h-558v-215h521v-292h-521v-212h558zM770 1493h-327l-325 233h377z" />
    <glyph glyph-name="Eacute" unicode="&#xc9;" horiz-adv-x="1173" 
d="M1088 323v-323h-973v1365h973v-323h-558v-215h521v-292h-521v-212h558zM355 1493l293 248h401l-346 -248h-348z" />
    <glyph glyph-name="Ecircumflex" unicode="&#xca;" horiz-adv-x="1173" 
d="M1088 323v-323h-973v1365h973v-323h-558v-215h521v-292h-521v-212h558zM187 1476l257 253h298l243 -253h-284l-100 109h-23l-108 -109h-283z" />
    <glyph glyph-name="Edieresis" unicode="&#xcb;" horiz-adv-x="1173" 
d="M1088 323v-323h-973v1365h973v-323h-558v-215h521v-292h-521v-212h558zM222 1577q0 63 39 100t107 37q70 0 108.5 -37t38.5 -100t-38.5 -100t-108.5 -37q-68 0 -107 37t-39 100zM655 1577q0 63 38 100t108 37q69 0 108 -37t39 -100t-38.5 -100t-108.5 -37t-108 37
t-38 100z" />
    <glyph glyph-name="Igrave" unicode="&#xcc;" horiz-adv-x="650" 
d="M535 0h-420v1365h420v-1365zM508 1493h-327l-325 233h377z" />
    <glyph glyph-name="Iacute" unicode="&#xcd;" horiz-adv-x="650" 
d="M535 0h-420v1365h420v-1365zM93 1493l293 248h401l-346 -248h-348z" />
    <glyph glyph-name="Icircumflex" unicode="&#xce;" horiz-adv-x="650" 
d="M535 0h-420v1365h420v-1365zM-75 1476l257 253h298l243 -253h-284l-100 109h-23l-108 -109h-283z" />
    <glyph glyph-name="Idieresis" unicode="&#xcf;" horiz-adv-x="650" 
d="M535 0h-420v1365h420v-1365zM-40 1577q0 63 39 100t107 37q70 0 108.5 -37t38.5 -100t-38.5 -100t-108.5 -37q-68 0 -107 37t-39 100zM393 1577q0 63 38 100t108 37q69 0 108 -37t39 -100t-38.5 -100t-108.5 -37t-108 37t-38 100z" />
    <glyph glyph-name="Eth" unicode="&#xd0;" horiz-adv-x="1490" 
d="M812 0h-593v505h-171v360h171v500h593q131 0 235 -31.5t177 -89t121.5 -141t71 -186t22.5 -226.5q0 -157 -37 -282.5t-112.5 -217.5t-196.5 -141.5t-281 -49.5zM638 334h94q40 0 69 4t63 16t57.5 36.5t44 62.5t30.5 98t10 139q0 59 -5.5 106.5t-23 97.5t-46.5 83.5
t-79.5 55t-119.5 21.5h-94v-189h152v-360h-152v-171z" />
    <glyph glyph-name="Ntilde" unicode="&#xd1;" horiz-adv-x="1411" 
d="M500 0h-385v1365h315l465 -660h16v660h385v-1365h-312l-468 672h-16v-672zM702 1493q-6 5 -18.5 17t-20 18.5t-21 12.5t-27.5 6q-65 0 -70 -76h-187q0 95 57 171t157 76q60 0 94 -14t72 -45q6 -5 19 -16.5t18.5 -15.5t15.5 -10.5t18 -8.5t18 -2q63 0 63 97h188
q0 -112 -65 -185t-161 -73q-44 0 -76 8.5t-44 16.5t-30 23z" />
    <glyph glyph-name="Ograve" unicode="&#xd2;" horiz-adv-x="1407" 
d="M489 753v-142q0 -146 56.5 -223.5t158.5 -77.5q101 0 157.5 77.5t56.5 223.5v142q0 145 -56.5 223t-157.5 78q-102 0 -158.5 -78t-56.5 -223zM59 613v134q0 296 168.5 468t476.5 172t476 -173t168 -467v-134q0 -293 -168 -464.5t-476 -171.5t-476.5 172t-168.5 464z
M887 1493h-327l-325 233h377z" />
    <glyph glyph-name="Oacute" unicode="&#xd3;" horiz-adv-x="1407" 
d="M489 753v-142q0 -146 56.5 -223.5t158.5 -77.5q101 0 157.5 77.5t56.5 223.5v142q0 145 -56.5 223t-157.5 78q-102 0 -158.5 -78t-56.5 -223zM59 613v134q0 296 168.5 468t476.5 172t476 -173t168 -467v-134q0 -293 -168 -464.5t-476 -171.5t-476.5 172t-168.5 464z
M472 1493l293 248h401l-346 -248h-348z" />
    <glyph glyph-name="Ocircumflex" unicode="&#xd4;" horiz-adv-x="1407" 
d="M489 753v-142q0 -146 56.5 -223.5t158.5 -77.5q101 0 157.5 77.5t56.5 223.5v142q0 145 -56.5 223t-157.5 78q-102 0 -158.5 -78t-56.5 -223zM59 613v134q0 296 168.5 468t476.5 172t476 -173t168 -467v-134q0 -293 -168 -464.5t-476 -171.5t-476.5 172t-168.5 464z
M304 1476l257 253h298l243 -253h-284l-100 109h-23l-108 -109h-283z" />
    <glyph glyph-name="Otilde" unicode="&#xd5;" horiz-adv-x="1407" 
d="M489 753v-142q0 -146 56.5 -223.5t158.5 -77.5q101 0 157.5 77.5t56.5 223.5v142q0 145 -56.5 223t-157.5 78q-102 0 -158.5 -78t-56.5 -223zM59 613v134q0 296 168.5 468t476.5 172t476 -173t168 -467v-134q0 -293 -168 -464.5t-476 -171.5t-476.5 172t-168.5 464z
M700 1493q-6 5 -18.5 17t-20 18.5t-21 12.5t-27.5 6q-65 0 -70 -76h-187q0 95 57 171t157 76q60 0 94 -14t72 -45q6 -5 19 -16.5t18.5 -15.5t15.5 -10.5t18 -8.5t18 -2q63 0 63 97h188q0 -112 -65 -185t-161 -73q-44 0 -76 8.5t-44 16.5t-30 23z" />
    <glyph glyph-name="Odieresis" unicode="&#xd6;" horiz-adv-x="1407" 
d="M489 753v-142q0 -146 56.5 -223.5t158.5 -77.5q101 0 157.5 77.5t56.5 223.5v142q0 145 -56.5 223t-157.5 78q-102 0 -158.5 -78t-56.5 -223zM59 613v134q0 296 168.5 468t476.5 172t476 -173t168 -467v-134q0 -293 -168 -464.5t-476 -171.5t-476.5 172t-168.5 464z
M339 1577q0 63 39 100t107 37q70 0 108.5 -37t38.5 -100t-38.5 -100t-108.5 -37q-68 0 -107 37t-39 100zM772 1577q0 63 38 100t108 37q69 0 108 -37t39 -100t-38.5 -100t-108.5 -37t-108 37t-38 100z" />
    <glyph glyph-name="multiply" unicode="&#xd7;" horiz-adv-x="1295" 
d="M939 42l-291 291l-291 -291l-253 254l290 291l-290 290l254 254l290 -290l290 290l254 -254l-290 -290l290 -291z" />
    <glyph glyph-name="Oslash" unicode="&#xd8;" horiz-adv-x="1407" 
d="M704 -23q-219 0 -372 91l-96 -117l-158 128l102 125q-121 160 -121 409v134q0 296 168.5 468t476.5 172q220 0 371 -91l77 94l162 -121l-88 -108q122 -163 122 -414v-134q0 -293 -168 -464.5t-476 -171.5zM475 605q0 -32 1 -41l367 450q-55 51 -141 51
q-108 0 -167.5 -80.5t-59.5 -230.5v-149zM702 294q107 0 167.5 80t60.5 231v149q0 34 -1 45l-370 -453q55 -52 143 -52z" />
    <glyph glyph-name="Ugrave" unicode="&#xd9;" horiz-adv-x="1408" 
d="M520 1365v-834q0 -108 49.5 -159t134.5 -51q84 0 134 52t50 158v834h420v-893q0 -227 -162.5 -361t-441.5 -134t-441.5 134t-162.5 361v893h420zM887 1493h-327l-325 233h377z" />
    <glyph glyph-name="Uacute" unicode="&#xda;" horiz-adv-x="1408" 
d="M520 1365v-834q0 -108 49.5 -159t134.5 -51q84 0 134 52t50 158v834h420v-893q0 -227 -162.5 -361t-441.5 -134t-441.5 134t-162.5 361v893h420zM472 1493l293 248h401l-346 -248h-348z" />
    <glyph glyph-name="Ucircumflex" unicode="&#xdb;" horiz-adv-x="1408" 
d="M520 1365v-834q0 -108 49.5 -159t134.5 -51q84 0 134 52t50 158v834h420v-893q0 -227 -162.5 -361t-441.5 -134t-441.5 134t-162.5 361v893h420zM304 1476l257 253h298l243 -253h-284l-100 109h-23l-108 -109h-283z" />
    <glyph glyph-name="Udieresis" unicode="&#xdc;" horiz-adv-x="1408" 
d="M520 1365v-834q0 -108 49.5 -159t134.5 -51q84 0 134 52t50 158v834h420v-893q0 -227 -162.5 -361t-441.5 -134t-441.5 134t-162.5 361v893h420zM339 1577q0 63 39 100t107 37q70 0 108.5 -37t38.5 -100t-38.5 -100t-108.5 -37q-68 0 -107 37t-39 100zM772 1577
q0 63 38 100t108 37q69 0 108 -37t39 -100t-38.5 -100t-108.5 -37t-108 37t-38 100z" />
    <glyph glyph-name="Yacute" unicode="&#xdd;" horiz-adv-x="1251" 
d="M836 0h-420v411l-457 954h455l212 -537h15l214 537h438l-457 -941v-424zM394 1493l293 248h401l-346 -248h-348z" />
    <glyph glyph-name="Thorn" unicode="&#xde;" horiz-adv-x="1273" 
d="M115 1365h418v-181h205q125 0 223.5 -41.5t158 -112t90.5 -159.5t31 -189q0 -102 -31.5 -190t-92.5 -156.5t-160 -108t-225 -39.5h-198v-188h-419v1365zM532 874v-384h92q88 0 140.5 50.5t52.5 141.5q0 93 -52 142.5t-141 49.5h-92z" />
    <glyph glyph-name="germandbls" unicode="&#xdf;" horiz-adv-x="1434" 
d="M511 0h-406v1052q0 87 32.5 156.5t87 115t129.5 76t156 43.5t171 13q259 0 413.5 -106t154.5 -269q0 -122 -58.5 -204.5t-146.5 -105.5v-20q86 -3 159.5 -42t122.5 -121.5t49 -194.5q0 -135 -68.5 -229t-181 -137t-260.5 -43q-142 0 -216 18v310q52 -20 124 -20
q94 0 139 35.5t45 96.5q0 70 -60 102.5t-146 32.5h-82v304h48q63 0 101 36.5t38 94.5q0 64 -41.5 105t-126.5 41q-177 0 -177 -186v-954z" />
    <glyph glyph-name="agrave" unicode="&#xe0;" horiz-adv-x="1155" 
d="M672 126q-23 -58 -89 -99.5t-176 -41.5q-162 0 -260 86.5t-98 240.5q0 153 102.5 241t289.5 88h231v79q0 42 -27.5 66t-73.5 24q-48 0 -77 -26.5t-29 -67.5h-378q1 55 14.5 104.5t48 100.5t87 88t139.5 60.5t199 23.5q107 0 194 -20.5t156 -65t107 -121.5t38 -182v-704
h-378v126h-20zM555 253q46 0 81.5 26t35.5 68v96h-104q-55 0 -89 -26t-34 -69q0 -44 32.5 -69.5t77.5 -25.5zM834 1250h-349l-303 311h401z" />
    <glyph glyph-name="aacute" unicode="&#xe1;" horiz-adv-x="1155" 
d="M672 126q-23 -58 -89 -99.5t-176 -41.5q-162 0 -260 86.5t-98 240.5q0 153 102.5 241t289.5 88h231v79q0 42 -27.5 66t-73.5 24q-48 0 -77 -26.5t-29 -67.5h-378q1 55 14.5 104.5t48 100.5t87 88t139.5 60.5t199 23.5q107 0 194 -20.5t156 -65t107 -121.5t38 -182v-704
h-378v126h-20zM555 253q46 0 81.5 26t35.5 68v96h-104q-55 0 -89 -26t-34 -69q0 -44 32.5 -69.5t77.5 -25.5zM777 1243h-348l233 318h401z" />
    <glyph glyph-name="acircumflex" unicode="&#xe2;" horiz-adv-x="1155" 
d="M672 126q-23 -58 -89 -99.5t-176 -41.5q-162 0 -260 86.5t-98 240.5q0 153 102.5 241t289.5 88h231v79q0 42 -27.5 66t-73.5 24q-48 0 -77 -26.5t-29 -67.5h-378q1 55 14.5 104.5t48 100.5t87 88t139.5 60.5t199 23.5q107 0 194 -20.5t156 -65t107 -121.5t38 -182v-704
h-378v126h-20zM555 253q46 0 81.5 26t35.5 68v96h-104q-55 0 -89 -26t-34 -69q0 -44 32.5 -69.5t77.5 -25.5zM159 1240l257 323h306l243 -323h-301l-90 159h-17l-108 -159h-290z" />
    <glyph glyph-name="atilde" unicode="&#xe3;" horiz-adv-x="1155" 
d="M672 126q-23 -58 -89 -99.5t-176 -41.5q-162 0 -260 86.5t-98 240.5q0 153 102.5 241t289.5 88h231v79q0 42 -27.5 66t-73.5 24q-48 0 -77 -26.5t-29 -67.5h-378q1 55 14.5 104.5t48 100.5t87 88t139.5 60.5t199 23.5q107 0 194 -20.5t156 -65t107 -121.5t38 -182v-704
h-378v126h-20zM555 253q46 0 81.5 26t35.5 68v96h-104q-55 0 -89 -26t-34 -69q0 -44 32.5 -69.5t77.5 -25.5zM547 1258q-47 45 -91 45q-77 0 -82 -91h-214q0 96 27 173t89 127.5t151 50.5q54 0 92.5 -19t84.5 -61q3 -3 10.5 -10t11 -9.5t10.5 -8.5t11 -8.5t10.5 -6.5
t12 -5.5t12.5 -3t14 -1.5q72 0 72 115h214q0 -148 -79 -250t-203 -102q-38 0 -71 12t-47 23t-35 30z" />
    <glyph glyph-name="adieresis" unicode="&#xe4;" horiz-adv-x="1155" 
d="M672 126q-23 -58 -89 -99.5t-176 -41.5q-162 0 -260 86.5t-98 240.5q0 153 102.5 241t289.5 88h231v79q0 42 -27.5 66t-73.5 24q-48 0 -77 -26.5t-29 -67.5h-378q1 55 14.5 104.5t48 100.5t87 88t139.5 60.5t199 23.5q107 0 194 -20.5t156 -65t107 -121.5t38 -182v-704
h-378v126h-20zM555 253q46 0 81.5 26t35.5 68v96h-104q-55 0 -89 -26t-34 -69q0 -44 32.5 -69.5t77.5 -25.5zM192 1347q0 69 42.5 109t116.5 40q75 0 118 -40t43 -109t-42.5 -109t-118.5 -40q-74 0 -116.5 40t-42.5 109zM660 1347q0 69 42.5 109t116.5 40q75 0 117.5 -40
t42.5 -109t-42 -109t-118 -40q-74 0 -116.5 40t-42.5 109z" />
    <glyph glyph-name="aring" unicode="&#xe5;" horiz-adv-x="1155" 
d="M672 126q-23 -58 -89 -99.5t-176 -41.5q-162 0 -260 86.5t-98 240.5q0 153 102.5 241t289.5 88h231v79q0 42 -27.5 66t-73.5 24q-48 0 -77 -26.5t-29 -67.5h-378q1 55 14.5 104.5t48 100.5t87 88t139.5 60.5t199 23.5q107 0 194 -20.5t156 -65t107 -121.5t38 -182v-704
h-378v126h-20zM555 253q46 0 81.5 26t35.5 68v96h-104q-55 0 -89 -26t-34 -69q0 -44 32.5 -69.5t77.5 -25.5zM572 1169q-109 0 -180.5 67t-71.5 175q0 107 71 173t181 66t180.5 -66t70.5 -173q0 -108 -71 -175t-180 -67zM489 1409q0 -36 23 -58.5t59 -22.5t59.5 22.5
t23.5 58.5t-23.5 59t-59.5 23t-59 -23t-23 -59z" />
    <glyph glyph-name="ae" unicode="&#xe6;" horiz-adv-x="1809" 
d="M1250 -21q-295 0 -407 182h-18q-55 -78 -151 -130t-228 -52q-187 0 -292 88t-105 245q0 153 102.5 241t289.5 88h231v79q0 42 -27.5 66t-73.5 24q-48 0 -77 -26.5t-29 -67.5h-378q1 55 14.5 104.5t48 101.5t87 89.5t140 61.5t198.5 24q103 0 193 -33t143 -79h20
q46 50 127 81t177 31q237 0 380 -139.5t143 -383.5v-113h-659v-46q0 -70 44.5 -109t104.5 -39q62 0 104 29t43 78h360q-1 -52 -18 -104.5t-56 -105.5t-95.5 -93.5t-143.5 -66t-192 -25.5zM1239 822q-62 0 -101 -42t-39 -109h274q0 68 -36.5 109.5t-97.5 41.5zM555 253
q46 0 81.5 26t35.5 68v96h-104q-55 0 -89 -26t-34 -69q0 -44 32.5 -69.5t77.5 -25.5z" />
    <glyph glyph-name="ccedilla" unicode="&#xe7;" horiz-adv-x="1123" 
d="M545 -477q-95 0 -141 16v149q44 -13 105 -13q99 0 99 39q0 25 -19.5 37t-86.5 12h-58v134l34 89q-199 27 -313 162t-114 366v64q0 235 142 378t387 143q228 0 361 -124.5t135 -329.5h-359q-2 65 -35.5 108.5t-87.5 43.5q-60 0 -97 -59.5t-37 -158.5v-60q0 -117 35.5 -178
t99.5 -61q118 0 122 149h359q-1 -102 -30.5 -182t-83.5 -132.5t-122.5 -84t-152.5 -43.5l-34 -81q78 0 123.5 -49t45.5 -128q0 -206 -277 -206z" />
    <glyph glyph-name="egrave" unicode="&#xe8;" horiz-adv-x="1154" 
d="M595 -21q-120 0 -218.5 32t-172 95.5t-113.5 166t-40 235.5v66q0 132 42.5 234.5t116 165t167.5 94t203 31.5q236 0 379.5 -140.5t143.5 -384.5v-113h-659v-46q0 -70 44.5 -109t104.5 -39q62 0 104 29t43 78h360q-1 -52 -18 -104.5t-56 -105.5t-95.5 -93.5t-143.5 -66
t-192 -25.5zM444 671h274q0 68 -36.5 109.5t-97.5 41.5q-62 0 -101 -42t-39 -109zM833 1250h-349l-303 311h401z" />
    <glyph glyph-name="eacute" unicode="&#xe9;" horiz-adv-x="1154" 
d="M595 -21q-120 0 -218.5 32t-172 95.5t-113.5 166t-40 235.5v66q0 132 42.5 234.5t116 165t167.5 94t203 31.5q236 0 379.5 -140.5t143.5 -384.5v-113h-659v-46q0 -70 44.5 -109t104.5 -39q62 0 104 29t43 78h360q-1 -52 -18 -104.5t-56 -105.5t-95.5 -93.5t-143.5 -66
t-192 -25.5zM444 671h274q0 68 -36.5 109.5t-97.5 41.5q-62 0 -101 -42t-39 -109zM776 1243h-348l233 318h401z" />
    <glyph glyph-name="ecircumflex" unicode="&#xea;" horiz-adv-x="1154" 
d="M595 -21q-120 0 -218.5 32t-172 95.5t-113.5 166t-40 235.5v66q0 132 42.5 234.5t116 165t167.5 94t203 31.5q236 0 379.5 -140.5t143.5 -384.5v-113h-659v-46q0 -70 44.5 -109t104.5 -39q62 0 104 29t43 78h360q-1 -52 -18 -104.5t-56 -105.5t-95.5 -93.5t-143.5 -66
t-192 -25.5zM444 671h274q0 68 -36.5 109.5t-97.5 41.5q-62 0 -101 -42t-39 -109zM158 1240l257 323h306l243 -323h-301l-90 159h-17l-108 -159h-290z" />
    <glyph glyph-name="edieresis" unicode="&#xeb;" horiz-adv-x="1154" 
d="M595 -21q-120 0 -218.5 32t-172 95.5t-113.5 166t-40 235.5v66q0 132 42.5 234.5t116 165t167.5 94t203 31.5q236 0 379.5 -140.5t143.5 -384.5v-113h-659v-46q0 -70 44.5 -109t104.5 -39q62 0 104 29t43 78h360q-1 -52 -18 -104.5t-56 -105.5t-95.5 -93.5t-143.5 -66
t-192 -25.5zM444 671h274q0 68 -36.5 109.5t-97.5 41.5q-62 0 -101 -42t-39 -109zM191 1347q0 69 42.5 109t116.5 40q75 0 118 -40t43 -109t-42.5 -109t-118.5 -40q-74 0 -116.5 40t-42.5 109zM659 1347q0 69 42.5 109t116.5 40q75 0 117.5 -40t42.5 -109t-42 -109t-118 -40
q-74 0 -116.5 40t-42.5 109z" />
    <glyph glyph-name="igrave" unicode="&#xec;" horiz-adv-x="615" 
d="M113 0v1078h419v-1078h-419zM575 1250h-349l-303 311h401z" />
    <glyph glyph-name="iacute" unicode="&#xed;" horiz-adv-x="615" 
d="M113 0v1078h419v-1078h-419zM518 1243h-348l233 318h401z" />
    <glyph glyph-name="icircumflex" unicode="&#xee;" horiz-adv-x="615" 
d="M113 0v1078h419v-1078h-419zM-100 1240l257 323h306l243 -323h-301l-90 159h-17l-108 -159h-290z" />
    <glyph glyph-name="idieresis" unicode="&#xef;" horiz-adv-x="615" 
d="M113 0v1078h419v-1078h-419zM-67 1347q0 69 42.5 109t116.5 40q75 0 118 -40t43 -109t-42.5 -109t-118.5 -40q-74 0 -116.5 40t-42.5 109zM401 1347q0 69 42.5 109t116.5 40q75 0 117.5 -40t42.5 -109t-42 -109t-118 -40q-74 0 -116.5 40t-42.5 109z" />
    <glyph glyph-name="eth" unicode="&#xf0;" horiz-adv-x="1181" 
d="M589 -21q-252 0 -395 140.5t-143 396.5v12q0 241 106 385.5t305 144.5q131 0 186 -61h19q-7 26 -17 45q-35 77 -125 175l-268 -114l-74 169l199 85q-93 84 -240 196h456q46 -23 103 -60l230 98l76 -169l-148 -63q271 -282 271 -713v-110q0 -263 -140.5 -410t-400.5 -147z
M592 769q-63 0 -102 -54.5t-39 -158.5v-59q0 -105 39 -159.5t102 -54.5q64 0 103 54.5t39 159.5v59q0 105 -39 159t-103 54z" />
    <glyph glyph-name="ntilde" unicode="&#xf1;" horiz-adv-x="1256" 
d="M95 0v1078h391v-181h20q24 75 103.5 135.5t207.5 60.5q164 0 256.5 -100.5t92.5 -294.5v-698h-405v596q0 50 -12.5 85t-33.5 51.5t-41 23t-42 6.5q-54 0 -93 -42.5t-39 -126.5v-593h-405zM597 1258q-47 45 -91 45q-77 0 -82 -91h-214q0 96 27 173t89 127.5t151 50.5
q54 0 92.5 -19t84.5 -61q3 -3 10.5 -10t11 -9.5t10.5 -8.5t11 -8.5t10.5 -6.5t12 -5.5t12.5 -3t14 -1.5q72 0 72 115h214q0 -148 -79 -250t-203 -102q-38 0 -71 12t-47 23t-35 30z" />
    <glyph glyph-name="ograve" unicode="&#xf2;" horiz-adv-x="1181" 
d="M592 1099q251 0 394.5 -144.5t143.5 -382.5v-54q0 -259 -141 -399t-397 -140q-258 0 -399.5 139.5t-141.5 397.5v53q0 238 144.5 384t396.5 146zM591 807q-128 0 -128 -227v-81q0 -228 128 -228q127 0 127 228v81q0 227 -127 227zM847 1250h-349l-303 311h401z" />
    <glyph glyph-name="oacute" unicode="&#xf3;" horiz-adv-x="1181" 
d="M592 1099q251 0 394.5 -144.5t143.5 -382.5v-54q0 -259 -141 -399t-397 -140q-258 0 -399.5 139.5t-141.5 397.5v53q0 238 144.5 384t396.5 146zM591 807q-128 0 -128 -227v-81q0 -228 128 -228q127 0 127 228v81q0 227 -127 227zM790 1243h-348l233 318h401z" />
    <glyph glyph-name="ocircumflex" unicode="&#xf4;" horiz-adv-x="1181" 
d="M592 1099q251 0 394.5 -144.5t143.5 -382.5v-54q0 -259 -141 -399t-397 -140q-258 0 -399.5 139.5t-141.5 397.5v53q0 238 144.5 384t396.5 146zM591 807q-128 0 -128 -227v-81q0 -228 128 -228q127 0 127 228v81q0 227 -127 227zM172 1240l257 323h306l243 -323h-301
l-90 159h-17l-108 -159h-290z" />
    <glyph glyph-name="otilde" unicode="&#xf5;" horiz-adv-x="1181" 
d="M592 1099q251 0 394.5 -144.5t143.5 -382.5v-54q0 -259 -141 -399t-397 -140q-258 0 -399.5 139.5t-141.5 397.5v53q0 238 144.5 384t396.5 146zM591 807q-128 0 -128 -227v-81q0 -228 128 -228q127 0 127 228v81q0 227 -127 227zM560 1258q-47 45 -91 45q-77 0 -82 -91
h-214q0 96 27 173t89 127.5t151 50.5q54 0 92.5 -19t84.5 -61q3 -3 10.5 -10t11 -9.5t10.5 -8.5t11 -8.5t10.5 -6.5t12 -5.5t12.5 -3t14 -1.5q72 0 72 115h214q0 -148 -79 -250t-203 -102q-38 0 -71 12t-47 23t-35 30z" />
    <glyph glyph-name="odieresis" unicode="&#xf6;" horiz-adv-x="1181" 
d="M592 1099q251 0 394.5 -144.5t143.5 -382.5v-54q0 -259 -141 -399t-397 -140q-258 0 -399.5 139.5t-141.5 397.5v53q0 238 144.5 384t396.5 146zM591 807q-128 0 -128 -227v-81q0 -228 128 -228q127 0 127 228v81q0 227 -127 227zM205 1347q0 69 42.5 109t116.5 40
q75 0 118 -40t43 -109t-42.5 -109t-118.5 -40q-74 0 -116.5 40t-42.5 109zM673 1347q0 69 42.5 109t116.5 40q75 0 117.5 -40t42.5 -109t-42 -109t-118 -40q-74 0 -116.5 40t-42.5 109z" />
    <glyph glyph-name="divide" unicode="&#xf7;" horiz-adv-x="1295" 
d="M1141 466h-987v283h987v-283zM438 1044q0 83 56 133.5t140 50.5t140 -51t56 -133q0 -83 -56 -133.5t-140 -50.5t-140 50.5t-56 133.5zM444 164q0 84 56 134.5t141 50.5q83 0 139.5 -51.5t56.5 -133.5q0 -83 -56 -133t-140 -50t-140.5 50t-56.5 133z" />
    <glyph glyph-name="oslash" unicode="&#xf8;" horiz-adv-x="1181" 
d="M479 340q34 -76 112 -76q138 0 138 237v84v14zM453 501v-22l250 267q-33 75 -112 75q-138 0 -138 -236v-84zM592 -21q-204 0 -336 88l-109 -114l-118 111l112 116q-90 131 -90 336v53q0 238 144.5 384t396.5 146q195 0 327 -90l103 108l131 -113l-111 -117
q88 -129 88 -315v-54q0 -259 -141 -399t-397 -140z" />
    <glyph glyph-name="ugrave" unicode="&#xf9;" horiz-adv-x="1255" 
d="M1160 1078v-1078h-391v181h-20q-24 -75 -103.5 -135.5t-207.5 -60.5q-164 0 -256 99.5t-92 293.5v700h405v-598q0 -50 12.5 -85t33.5 -51.5t40.5 -23t41.5 -6.5q54 0 93 42.5t39 126.5v595h405zM884 1250h-349l-303 311h401z" />
    <glyph glyph-name="uacute" unicode="&#xfa;" horiz-adv-x="1255" 
d="M1160 1078v-1078h-391v181h-20q-24 -75 -103.5 -135.5t-207.5 -60.5q-164 0 -256 99.5t-92 293.5v700h405v-598q0 -50 12.5 -85t33.5 -51.5t40.5 -23t41.5 -6.5q54 0 93 42.5t39 126.5v595h405zM827 1243h-348l233 318h401z" />
    <glyph glyph-name="ucircumflex" unicode="&#xfb;" horiz-adv-x="1255" 
d="M1160 1078v-1078h-391v181h-20q-24 -75 -103.5 -135.5t-207.5 -60.5q-164 0 -256 99.5t-92 293.5v700h405v-598q0 -50 12.5 -85t33.5 -51.5t40.5 -23t41.5 -6.5q54 0 93 42.5t39 126.5v595h405zM209 1240l257 323h306l243 -323h-301l-90 159h-17l-108 -159h-290z" />
    <glyph glyph-name="udieresis" unicode="&#xfc;" horiz-adv-x="1255" 
d="M1160 1078v-1078h-391v181h-20q-24 -75 -103.5 -135.5t-207.5 -60.5q-164 0 -256 99.5t-92 293.5v700h405v-598q0 -50 12.5 -85t33.5 -51.5t40.5 -23t41.5 -6.5q54 0 93 42.5t39 126.5v595h405zM242 1347q0 69 42.5 109t116.5 40q75 0 118 -40t43 -109t-42.5 -109
t-118.5 -40q-74 0 -116.5 40t-42.5 109zM710 1347q0 69 42.5 109t116.5 40q75 0 117.5 -40t42.5 -109t-42 -109t-118 -40q-74 0 -116.5 40t-42.5 109z" />
    <glyph glyph-name="yacute" unicode="&#xfd;" horiz-adv-x="1171" 
d="M1172 1078q-298 -970 -307 -994l-27 -71q-36 -95 -80.5 -161.5t-111 -118.5t-161.5 -77t-222 -25q-133 0 -204 16v267q32 -8 101 -8q99 0 136.5 25.5t37.5 78.5v7l-335 1061h446l135 -766h16l146 766h430zM785 1243h-348l233 318h401z" />
    <glyph glyph-name="thorn" unicode="&#xfe;" horiz-adv-x="1260" 
d="M822 -9q-111 0 -189.5 49t-110.5 133h-20v-510h-407v1774h407v-530h20q32 84 110 132t190 48q180 0 281.5 -129.5t101.5 -377.5v-80q0 -248 -101.5 -378.5t-281.5 -130.5zM643 295q65 0 103 54.5t38 159.5v59q0 105 -38 159t-103 54q-63 0 -102 -54t-39 -159v-59
q0 -105 39 -159.5t102 -54.5z" />
    <glyph glyph-name="ydieresis" unicode="&#xff;" horiz-adv-x="1171" 
d="M1172 1078q-298 -970 -307 -994l-27 -71q-36 -95 -80.5 -161.5t-111 -118.5t-161.5 -77t-222 -25q-133 0 -204 16v267q32 -8 101 -8q99 0 136.5 25.5t37.5 78.5v7l-335 1061h446l135 -766h16l146 766h430zM200 1347q0 69 42.5 109t116.5 40q75 0 118 -40t43 -109
t-42.5 -109t-118.5 -40q-74 0 -116.5 40t-42.5 109zM668 1347q0 69 42.5 109t116.5 40q75 0 117.5 -40t42.5 -109t-42 -109t-118 -40q-74 0 -116.5 40t-42.5 109z" />
    <glyph glyph-name="Amacron" unicode="&#x100;" horiz-adv-x="1354" 
d="M414 0h-415l414 1365h532l410 -1365h-448l-59 258h-373zM675 1018h-21l-110 -465h237zM997 1473h-640v188h640v-188z" />
    <glyph glyph-name="amacron" unicode="&#x101;" horiz-adv-x="1155" 
d="M672 126q-23 -58 -89 -99.5t-176 -41.5q-162 0 -260 86.5t-98 240.5q0 153 102.5 241t289.5 88h231v79q0 42 -27.5 66t-73.5 24q-48 0 -77 -26.5t-29 -67.5h-378q1 55 14.5 104.5t48 100.5t87 88t139.5 60.5t199 23.5q107 0 194 -20.5t156 -65t107 -121.5t38 -182v-704
h-378v126h-20zM555 253q46 0 81.5 26t35.5 68v96h-104q-55 0 -89 -26t-34 -69q0 -44 32.5 -69.5t77.5 -25.5zM903 1244h-640v188h640v-188z" />
    <glyph glyph-name="Abreve" unicode="&#x102;" horiz-adv-x="1354" 
d="M414 0h-415l414 1365h532l410 -1365h-448l-59 258h-373zM675 1018h-21l-110 -465h237zM316 1782h212q0 -134 149 -134t149 134h207q0 -156 -95.5 -243t-260.5 -87q-166 0 -263.5 87t-97.5 243z" />
    <glyph glyph-name="abreve" unicode="&#x103;" horiz-adv-x="1155" 
d="M672 126q-23 -58 -89 -99.5t-176 -41.5q-162 0 -260 86.5t-98 240.5q0 153 102.5 241t289.5 88h231v79q0 42 -27.5 66t-73.5 24q-48 0 -77 -26.5t-29 -67.5h-378q1 55 14.5 104.5t48 100.5t87 88t139.5 60.5t199 23.5q107 0 194 -20.5t156 -65t107 -121.5t38 -182v-704
h-378v126h-20zM555 253q46 0 81.5 26t35.5 68v96h-104q-55 0 -89 -26t-34 -69q0 -44 32.5 -69.5t77.5 -25.5zM199 1538h212q0 -69 38 -116.5t111 -47.5t111 47.5t38 116.5h207q0 -159 -97 -259.5t-259 -100.5t-261.5 100.5t-99.5 259.5z" />
    <glyph glyph-name="Aogonek" unicode="&#x104;" horiz-adv-x="1354" 
d="M414 0h-415l414 1365h532l389 -1296q-66 -35 -96.5 -77t-30.5 -81q0 -38 31.5 -64t90.5 -26q47 0 71 6v-198q-22 -9 -74.5 -16t-96.5 -7q-119 0 -196.5 53.5t-77.5 153.5q0 99 70 169v18h-118l-59 258h-373zM675 1018h-21l-110 -465h237z" />
    <glyph glyph-name="aogonek" unicode="&#x105;" horiz-adv-x="1155" 
d="M555 253q46 0 81.5 26t35.5 68v96h-104q-55 0 -89 -26t-34 -69q0 -44 32.5 -69.5t77.5 -25.5zM1080 -371q-77 -23 -163 -23q-118 0 -200 55.5t-82 163.5q0 118 83 171v130h-25q-24 -59 -93 -100t-181 -41q-161 0 -265.5 88t-104.5 242q0 150 103 238t289 88h231v79
q0 42 -27 66t-73 24q-49 0 -78 -26.5t-29 -67.5h-378q2 56 15.5 106.5t48.5 101t88 87t140 59.5t199 23q106 0 192 -20.5t155 -65t107 -121.5t38 -182v-627q-44 -15 -80.5 -36t-64.5 -55.5t-28 -73.5q0 -42 34 -66.5t86 -24.5q33 0 63 6v-198z" />
    <glyph glyph-name="Cacute" unicode="&#x106;" horiz-adv-x="1328" 
d="M489 745v-127q0 -146 52 -223.5t147 -77.5q90 0 139 64t49 166h397v-61q0 -230 -164.5 -369.5t-424.5 -139.5q-298 0 -461.5 173.5t-163.5 470.5v123q0 298 163 470.5t462 172.5q261 0 425 -139.5t164 -370.5v-59h-397q0 101 -49 165t-139 64q-95 0 -147 -77.5
t-52 -224.5zM432 1493l293 248h401l-346 -248h-348z" />
    <glyph glyph-name="cacute" unicode="&#x107;" horiz-adv-x="1123" 
d="M51 514v64q0 235 142 378t387 143q228 0 361 -124.5t135 -329.5h-359q-2 65 -35.5 108.5t-87.5 43.5q-60 0 -97 -59.5t-37 -158.5v-60q0 -117 35.5 -178t99.5 -61q118 0 122 149h359q-1 -95 -27.5 -171.5t-72 -127.5t-109 -85.5t-135.5 -50t-154 -15.5q-242 0 -384.5 138
t-142.5 397zM761 1243h-348l233 318h401z" />
    <glyph glyph-name="Ccircumflex" unicode="&#x108;" horiz-adv-x="1328" 
d="M489 745v-127q0 -146 52 -223.5t147 -77.5q90 0 139 64t49 166h397v-61q0 -230 -164.5 -369.5t-424.5 -139.5q-298 0 -461.5 173.5t-163.5 470.5v123q0 298 163 470.5t462 172.5q261 0 425 -139.5t164 -370.5v-59h-397q0 101 -49 165t-139 64q-95 0 -147 -77.5
t-52 -224.5zM264 1476l257 253h298l243 -253h-284l-100 109h-23l-108 -109h-283z" />
    <glyph glyph-name="ccircumflex" unicode="&#x109;" horiz-adv-x="1123" 
d="M51 514v64q0 235 142 378t387 143q228 0 361 -124.5t135 -329.5h-359q-2 65 -35.5 108.5t-87.5 43.5q-60 0 -97 -59.5t-37 -158.5v-60q0 -117 35.5 -178t99.5 -61q118 0 122 149h359q-1 -95 -27.5 -171.5t-72 -127.5t-109 -85.5t-135.5 -50t-154 -15.5q-242 0 -384.5 138
t-142.5 397zM143 1240l257 323h306l243 -323h-301l-90 159h-17l-108 -159h-290z" />
    <glyph glyph-name="Cdotaccent" unicode="&#x10a;" horiz-adv-x="1328" 
d="M489 745v-127q0 -146 52 -223.5t147 -77.5q90 0 139 64t49 166h397v-61q0 -230 -164.5 -369.5t-424.5 -139.5q-298 0 -461.5 173.5t-163.5 470.5v123q0 298 163 470.5t462 172.5q261 0 425 -139.5t164 -370.5v-59h-397q0 101 -49 165t-139 64q-95 0 -147 -77.5
t-52 -224.5zM508 1603q0 69 43.5 114t112.5 45t116 -45t47 -114q0 -68 -46.5 -112t-116.5 -44q-69 0 -112.5 43.5t-43.5 112.5z" />
    <glyph glyph-name="cdotaccent" unicode="&#x10b;" horiz-adv-x="1123" 
d="M51 514v64q0 235 142 378t387 143q228 0 361 -124.5t135 -329.5h-359q-2 65 -35.5 108.5t-87.5 43.5q-60 0 -97 -59.5t-37 -158.5v-60q0 -117 35.5 -178t99.5 -61q118 0 122 149h359q-1 -95 -27.5 -171.5t-72 -127.5t-109 -85.5t-135.5 -50t-154 -15.5q-242 0 -384.5 138
t-142.5 397zM406 1316q0 69 43.5 114t112.5 45t116 -45t47 -114q0 -68 -46.5 -112t-116.5 -44q-69 0 -112.5 43.5t-43.5 112.5z" />
    <glyph glyph-name="Ccaron" unicode="&#x10c;" horiz-adv-x="1328" 
d="M489 745v-127q0 -146 52 -223.5t147 -77.5q90 0 139 64t49 166h397v-61q0 -230 -164.5 -369.5t-424.5 -139.5q-298 0 -461.5 173.5t-163.5 470.5v123q0 298 163 470.5t462 172.5q261 0 425 -139.5t164 -370.5v-59h-397q0 101 -49 165t-139 64q-95 0 -147 -77.5
t-52 -224.5zM264 1736h283l108 -109h23l100 109h284l-243 -253h-298z" />
    <glyph glyph-name="ccaron" unicode="&#x10d;" horiz-adv-x="1123" 
d="M51 514v64q0 235 142 378t387 143q228 0 361 -124.5t135 -329.5h-359q-2 65 -35.5 108.5t-87.5 43.5q-60 0 -97 -59.5t-37 -158.5v-60q0 -117 35.5 -178t99.5 -61q118 0 122 149h359q-1 -95 -27.5 -171.5t-72 -127.5t-109 -85.5t-135.5 -50t-154 -15.5q-242 0 -384.5 138
t-142.5 397zM168 1522h290l108 -159h17l90 159h301l-243 -323h-306z" />
    <glyph glyph-name="Dcaron" unicode="&#x10e;" horiz-adv-x="1386" 
d="M115 1365h593q131 0 235 -31.5t177 -89t121.5 -141t71 -186t22.5 -226.5q0 -157 -37 -282.5t-112.5 -217.5t-196.5 -141.5t-281 -49.5h-593v1365zM535 1042v-719h96q40 0 69 4t63 16t57.5 36.5t44 62.5t30.5 98t10 139q0 59 -5.5 106.5t-23 97.5t-46.5 83t-79.5 54.5
t-119.5 21.5h-96zM228 1736h283l108 -109h23l100 109h284l-243 -253h-298z" />
    <glyph glyph-name="dcaron" unicode="&#x10f;" horiz-adv-x="1591" 
d="M1322 1435h302l-50 -488h-252v488zM439 1087q112 0 192 -48.5t109 -131.5h19v530h407v-1437h-407v173h-19q-29 -83 -109 -132.5t-192 -49.5q-178 0 -281 132.5t-103 376.5v80q0 244 102.5 375.5t281.5 131.5zM617 781q-63 0 -102 -54.5t-39 -158.5v-59q0 -105 39 -159.5
t102 -54.5q64 0 103 54.5t39 159.5v59q0 105 -39 159t-103 54z" />
    <glyph glyph-name="Dcroat" unicode="&#x110;" horiz-adv-x="1490" 
d="M812 0h-593v505h-171v360h171v500h593q131 0 235 -31.5t177 -89t121.5 -141t71 -186t22.5 -226.5q0 -157 -37 -282.5t-112.5 -217.5t-196.5 -141.5t-281 -49.5zM638 334h94q40 0 69 4t63 16t57.5 36.5t44 62.5t30.5 98t10 139q0 59 -5.5 106.5t-23 97.5t-46.5 83.5
t-79.5 55t-119.5 21.5h-94v-189h152v-360h-152v-171z" />
    <glyph glyph-name="dcroat" unicode="&#x111;" horiz-adv-x="1266" 
d="M617 781q-63 0 -102 -54.5t-39 -158.5v-59q0 -105 39 -159.5t102 -54.5q64 0 103 54.5t39 159.5v59q0 105 -39 159t-103 54zM740 173q-29 -83 -109 -132.5t-192 -49.5q-178 0 -281 132.5t-103 376.5v80q0 244 102.5 375.5t281.5 131.5q112 0 192 -48.5t109 -131.5h19v212
h-182v195h204v123h365v-123h123v-195h-103v-1119h-407v173h-19z" />
    <glyph glyph-name="Emacron" unicode="&#x112;" horiz-adv-x="1173" 
d="M1088 323v-323h-973v1365h973v-323h-558v-215h521v-292h-521v-212h558zM907 1473h-640v188h640v-188z" />
    <glyph glyph-name="emacron" unicode="&#x113;" horiz-adv-x="1154" 
d="M595 -21q-120 0 -218.5 32t-172 95.5t-113.5 166t-40 235.5v66q0 132 42.5 234.5t116 165t167.5 94t203 31.5q236 0 379.5 -140.5t143.5 -384.5v-113h-659v-46q0 -70 44.5 -109t104.5 -39q62 0 104 29t43 78h360q-1 -52 -18 -104.5t-56 -105.5t-95.5 -93.5t-143.5 -66
t-192 -25.5zM444 671h274q0 68 -36.5 109.5t-97.5 41.5q-62 0 -101 -42t-39 -109zM902 1244h-640v188h640v-188z" />
    <glyph glyph-name="Ebreve" unicode="&#x114;" horiz-adv-x="1173" 
d="M1088 323v-323h-973v1365h973v-323h-558v-215h521v-292h-521v-212h558zM226 1782h212q0 -134 149 -134t149 134h207q0 -156 -95.5 -243t-260.5 -87q-166 0 -263.5 87t-97.5 243z" />
    <glyph glyph-name="ebreve" unicode="&#x115;" horiz-adv-x="1154" 
d="M595 -21q-120 0 -218.5 32t-172 95.5t-113.5 166t-40 235.5v66q0 132 42.5 234.5t116 165t167.5 94t203 31.5q236 0 379.5 -140.5t143.5 -384.5v-113h-659v-46q0 -70 44.5 -109t104.5 -39q62 0 104 29t43 78h360q-1 -52 -18 -104.5t-56 -105.5t-95.5 -93.5t-143.5 -66
t-192 -25.5zM444 671h274q0 68 -36.5 109.5t-97.5 41.5q-62 0 -101 -42t-39 -109zM198 1538h212q0 -69 38 -116.5t111 -47.5t111 47.5t38 116.5h207q0 -159 -97 -259.5t-259 -100.5t-261.5 100.5t-99.5 259.5z" />
    <glyph glyph-name="Edotaccent" unicode="&#x116;" horiz-adv-x="1173" 
d="M1088 323v-323h-973v1365h973v-323h-558v-215h521v-292h-521v-212h558zM431 1603q0 69 43.5 114t112.5 45t116 -45t47 -114q0 -68 -46.5 -112t-116.5 -44q-69 0 -112.5 43.5t-43.5 112.5z" />
    <glyph glyph-name="edotaccent" unicode="&#x117;" horiz-adv-x="1154" 
d="M595 -21q-120 0 -218.5 32t-172 95.5t-113.5 166t-40 235.5v66q0 132 42.5 234.5t116 165t167.5 94t203 31.5q236 0 379.5 -140.5t143.5 -384.5v-113h-659v-46q0 -70 44.5 -109t104.5 -39q62 0 104 29t43 78h360q-1 -52 -18 -104.5t-56 -105.5t-95.5 -93.5t-143.5 -66
t-192 -25.5zM444 671h274q0 68 -36.5 109.5t-97.5 41.5q-62 0 -101 -42t-39 -109zM421 1316q0 69 43.5 114t112.5 45t116 -45t47 -114q0 -68 -46.5 -112t-116.5 -44q-69 0 -112.5 43.5t-43.5 112.5z" />
    <glyph glyph-name="Eogonek" unicode="&#x118;" horiz-adv-x="1173" 
d="M1088 -371q-77 -23 -172 -23q-116 0 -194.5 53.5t-78.5 153.5t80 168v19h-608v1365h973v-323h-558v-215h521v-292h-521v-212h558v-248q-73 -15 -128.5 -59t-55.5 -104q0 -42 34 -66.5t86 -24.5q34 0 64 6v-198z" />
    <glyph glyph-name="eogonek" unicode="&#x119;" horiz-adv-x="1154" 
d="M673 7q-52 -18 -148 -18q-95 0 -178.5 30.5t-150.5 91.5t-106 163t-39 234v66q0 132 42.5 234.5t116 165t167.5 94t203 31.5q236 0 379.5 -140.5t143.5 -384.5v-113h-659v-46q0 -71 44.5 -109.5t109.5 -38.5q58 0 100 29.5t42 77.5h355q-1 -90 -32.5 -150.5t-86.5 -117.5
q-8 -8 -30 -30.5t-30.5 -31.5t-24 -27.5t-21.5 -31t-11.5 -30t-5.5 -35.5q0 -50 34.5 -74.5t89.5 -24.5q40 0 70 6v-198q-74 -23 -167 -23q-138 0 -213 55.5t-75 148.5q0 101 90 180zM444 671h274q0 68 -36.5 109.5t-97.5 41.5q-62 0 -101 -42t-39 -109z" />
    <glyph glyph-name="Ecaron" unicode="&#x11a;" horiz-adv-x="1173" 
d="M1088 323v-323h-973v1365h973v-323h-558v-215h521v-292h-521v-212h558zM187 1736h283l108 -109h23l100 109h284l-243 -253h-298z" />
    <glyph glyph-name="ecaron" unicode="&#x11b;" horiz-adv-x="1154" 
d="M595 -21q-120 0 -218.5 32t-172 95.5t-113.5 166t-40 235.5v66q0 132 42.5 234.5t116 165t167.5 94t203 31.5q236 0 379.5 -140.5t143.5 -384.5v-113h-659v-46q0 -70 44.5 -109t104.5 -39q62 0 104 29t43 78h360q-1 -52 -18 -104.5t-56 -105.5t-95.5 -93.5t-143.5 -66
t-192 -25.5zM444 671h274q0 68 -36.5 109.5t-97.5 41.5q-62 0 -101 -42t-39 -109zM183 1522h290l108 -159h17l90 159h301l-243 -323h-306z" />
    <glyph glyph-name="Gcircumflex" unicode="&#x11c;" horiz-adv-x="1353" 
d="M1294 894h-405q-7 65 -57 111t-136 46q-104 0 -158 -75t-54 -218v-144q0 -50 5.5 -90.5t20.5 -81t39 -68t64.5 -44.5t93.5 -17q93 0 143.5 49.5t50.5 115.5v16h-170v278h563v-256q0 -83 -20 -159t-66 -146t-114 -121.5t-170.5 -82t-228.5 -30.5q-134 0 -242.5 34
t-180.5 93t-121 140.5t-70.5 173t-21.5 194.5v151q0 135 41.5 248.5t120.5 197.5t201.5 131t276.5 47q147 0 264.5 -43t187.5 -114.5t106.5 -157.5t36.5 -178zM277 1476l257 253h298l243 -253h-284l-100 109h-23l-108 -109h-283z" />
    <glyph glyph-name="gcircumflex" unicode="&#x11d;" horiz-adv-x="1257" 
d="M606 -123q151 0 151 168v145h-20q-28 -76 -106 -122.5t-192 -46.5q-179 0 -279.5 132t-100.5 385v32q0 253 100.5 385t279.5 132q114 0 192.5 -48.5t105.5 -131.5h20v171h405v-1075q0 -93 -36 -164.5t-92 -114.5t-133 -70.5t-150.5 -37.5t-153.5 -10q-132 0 -233.5 28.5
t-161.5 77.5t-90.5 109.5t-30.5 130.5h378q20 -75 147 -75zM618 781q-63 0 -100.5 -54t-37.5 -159v-57q0 -105 37.5 -159.5t100.5 -54.5t101 54.5t38 159.5v57q0 105 -38 159t-101 54zM210 1240l257 323h306l243 -323h-301l-90 159h-17l-108 -159h-290z" />
    <glyph glyph-name="Gbreve" unicode="&#x11e;" horiz-adv-x="1353" 
d="M1294 894h-405q-7 65 -57 111t-136 46q-104 0 -158 -75t-54 -218v-144q0 -50 5.5 -90.5t20.5 -81t39 -68t64.5 -44.5t93.5 -17q93 0 143.5 49.5t50.5 115.5v16h-170v278h563v-256q0 -83 -20 -159t-66 -146t-114 -121.5t-170.5 -82t-228.5 -30.5q-134 0 -242.5 34
t-180.5 93t-121 140.5t-70.5 173t-21.5 194.5v151q0 135 41.5 248.5t120.5 197.5t201.5 131t276.5 47q147 0 264.5 -43t187.5 -114.5t106.5 -157.5t36.5 -178zM316 1782h212q0 -134 149 -134t149 134h207q0 -156 -95.5 -243t-260.5 -87q-166 0 -263.5 87t-97.5 243z" />
    <glyph glyph-name="gbreve" unicode="&#x11f;" horiz-adv-x="1257" 
d="M606 -123q151 0 151 168v145h-20q-28 -76 -106 -122.5t-192 -46.5q-179 0 -279.5 132t-100.5 385v32q0 253 100.5 385t279.5 132q114 0 192.5 -48.5t105.5 -131.5h20v171h405v-1075q0 -93 -36 -164.5t-92 -114.5t-133 -70.5t-150.5 -37.5t-153.5 -10q-132 0 -233.5 28.5
t-161.5 77.5t-90.5 109.5t-30.5 130.5h378q20 -75 147 -75zM618 781q-63 0 -100.5 -54t-37.5 -159v-57q0 -105 37.5 -159.5t100.5 -54.5t101 54.5t38 159.5v57q0 105 -38 159t-101 54zM250 1538h212q0 -69 38 -116.5t111 -47.5t111 47.5t38 116.5h207q0 -159 -97 -259.5
t-259 -100.5t-261.5 100.5t-99.5 259.5z" />
    <glyph glyph-name="Gdotaccent" unicode="&#x120;" horiz-adv-x="1353" 
d="M1294 894h-405q-7 65 -57 111t-136 46q-104 0 -158 -75t-54 -218v-144q0 -50 5.5 -90.5t20.5 -81t39 -68t64.5 -44.5t93.5 -17q93 0 143.5 49.5t50.5 115.5v16h-170v278h563v-256q0 -83 -20 -159t-66 -146t-114 -121.5t-170.5 -82t-228.5 -30.5q-134 0 -242.5 34
t-180.5 93t-121 140.5t-70.5 173t-21.5 194.5v151q0 135 41.5 248.5t120.5 197.5t201.5 131t276.5 47q147 0 264.5 -43t187.5 -114.5t106.5 -157.5t36.5 -178zM521 1603q0 69 43.5 114t112.5 45t116 -45t47 -114q0 -68 -46.5 -112t-116.5 -44q-69 0 -112.5 43.5t-43.5 112.5
z" />
    <glyph glyph-name="gdotaccent" unicode="&#x121;" horiz-adv-x="1257" 
d="M606 -123q151 0 151 168v145h-20q-28 -76 -106 -122.5t-192 -46.5q-179 0 -279.5 132t-100.5 385v32q0 253 100.5 385t279.5 132q114 0 192.5 -48.5t105.5 -131.5h20v171h405v-1075q0 -93 -36 -164.5t-92 -114.5t-133 -70.5t-150.5 -37.5t-153.5 -10q-132 0 -233.5 28.5
t-161.5 77.5t-90.5 109.5t-30.5 130.5h378q20 -75 147 -75zM618 781q-63 0 -100.5 -54t-37.5 -159v-57q0 -105 37.5 -159.5t100.5 -54.5t101 54.5t38 159.5v57q0 105 -38 159t-101 54zM473 1316q0 69 43.5 114t112.5 45t116 -45t47 -114q0 -68 -46.5 -112t-116.5 -44
q-69 0 -112.5 43.5t-43.5 112.5z" />
    <glyph glyph-name="Gcommaaccent" unicode="&#x122;" horiz-adv-x="1353" 
d="M1294 894h-405q-7 65 -57 111t-136 46q-104 0 -158 -75t-54 -218v-144q0 -50 5.5 -90.5t20.5 -81t39 -68t64.5 -44.5t93.5 -17q93 0 143.5 49.5t50.5 115.5v16h-170v278h563v-256q0 -83 -20 -159t-66 -146t-114 -121.5t-170.5 -82t-228.5 -30.5q-134 0 -242.5 34
t-180.5 93t-121 140.5t-70.5 173t-21.5 194.5v151q0 135 41.5 248.5t120.5 197.5t201.5 131t276.5 47q147 0 264.5 -43t187.5 -114.5t106.5 -157.5t36.5 -178zM705 -489h-248l85 335h277z" />
    <glyph glyph-name="gcommaaccent" unicode="&#x123;" horiz-adv-x="1257" 
d="M584 1600h248l-85 -335h-277zM606 -123q151 0 151 168v145h-20q-28 -76 -106 -122.5t-192 -46.5q-179 0 -279.5 132t-100.5 385v32q0 253 100.5 385t279.5 132q114 0 192.5 -48.5t105.5 -131.5h20v171h405v-1075q0 -93 -36 -164.5t-92 -114.5t-133 -70.5t-150.5 -37.5
t-153.5 -10q-132 0 -233.5 28.5t-161.5 77.5t-90.5 109.5t-30.5 130.5h378q20 -75 147 -75zM618 781q-63 0 -100.5 -54t-37.5 -159v-57q0 -105 37.5 -159.5t100.5 -54.5t101 54.5t38 159.5v57q0 105 -38 159t-101 54z" />
    <glyph glyph-name="Hcircumflex" unicode="&#x124;" horiz-adv-x="1465" 
d="M1350 0h-420v517h-395v-517h-420v1365h420v-515h395v515h420v-1365zM333 1476l257 253h298l243 -253h-284l-100 109h-23l-108 -109h-283z" />
    <glyph glyph-name="hcircumflex" unicode="&#x125;" horiz-adv-x="1261" 
d="M100 0v1437h405v-540h20q10 33 32 65t57.5 62.5t90.5 49.5t121 19q163 0 256.5 -101t93.5 -294v-698h-405v596q0 50 -12.5 85t-33.5 51.5t-41.5 23t-43.5 6.5q-55 0 -95 -42.5t-40 -126.5v-593h-405zM-114 1599l257 323h306l243 -323h-301l-90 159h-17l-108 -159h-290z
" />
    <glyph glyph-name="Hbar" unicode="&#x126;" horiz-adv-x="1465" 
d="M535 850h395v138h-395v-138zM535 517v-517h-420v988h-68v228h68v149h420v-149h395v149h420v-149h65v-228h-65v-988h-420v517h-395z" />
    <glyph glyph-name="hbar" unicode="&#x127;" horiz-adv-x="1261" 
d="M505 593v-593h-405v1119h-102v195h123v123h365v-123h193v-195h-174v-222h20q23 74 101 135t200 61q163 0 256.5 -101t93.5 -294v-698h-405v596q0 50 -12.5 85t-33.5 51.5t-41.5 23t-43.5 6.5q-55 0 -95 -42.5t-40 -126.5z" />
    <glyph glyph-name="Itilde" unicode="&#x128;" horiz-adv-x="650" 
d="M535 0h-420v1365h420v-1365zM321 1493q-6 5 -18.5 17t-20 18.5t-21 12.5t-27.5 6q-65 0 -70 -76h-187q0 95 57 171t157 76q60 0 94 -14t72 -45q6 -5 19 -16.5t18.5 -15.5t15.5 -10.5t18 -8.5t18 -2q63 0 63 97h188q0 -112 -65 -185t-161 -73q-44 0 -76 8.5t-44 16.5
t-30 23z" />
    <glyph glyph-name="itilde" unicode="&#x129;" horiz-adv-x="615" 
d="M113 0v1078h419v-1078h-419zM288 1258q-47 45 -91 45q-77 0 -82 -91h-214q0 96 27 173t89 127.5t151 50.5q54 0 92.5 -19t84.5 -61q3 -3 10.5 -10t11 -9.5t10.5 -8.5t11 -8.5t10.5 -6.5t12 -5.5t12.5 -3t14 -1.5q72 0 72 115h214q0 -148 -79 -250t-203 -102q-38 0 -71 12
t-47 23t-35 30z" />
    <glyph glyph-name="Imacron" unicode="&#x12a;" horiz-adv-x="650" 
d="M535 0h-420v1365h420v-1365zM645 1473h-640v188h640v-188z" />
    <glyph glyph-name="imacron" unicode="&#x12b;" horiz-adv-x="615" 
d="M113 0v1078h419v-1078h-419zM644 1244h-640v188h640v-188z" />
    <glyph glyph-name="Ibreve" unicode="&#x12c;" horiz-adv-x="650" 
d="M535 0h-420v1365h420v-1365zM-36 1782h212q0 -134 149 -134t149 134h207q0 -156 -95.5 -243t-260.5 -87q-166 0 -263.5 87t-97.5 243z" />
    <glyph glyph-name="ibreve" unicode="&#x12d;" horiz-adv-x="615" 
d="M113 0v1078h419v-1078h-419zM-60 1538h212q0 -69 38 -116.5t111 -47.5t111 47.5t38 116.5h207q0 -159 -97 -259.5t-259 -100.5t-261.5 100.5t-99.5 259.5z" />
    <glyph glyph-name="Iogonek" unicode="&#x12e;" horiz-adv-x="649" 
d="M555 -366q-22 -10 -73 -19.5t-105 -9.5q-134 0 -202 62t-68 154q0 96 88 163v16h-80v1365h420v-1281q-163 -74 -163 -177q0 -43 31.5 -66t80.5 -23q51 0 71 9v-193z" />
    <glyph glyph-name="iogonek" unicode="&#x12f;" horiz-adv-x="615" 
d="M510 -376q-67 -18 -166 -18q-158 0 -245 58t-87 162q0 108 93 174v1078h405v-971q-46 -20 -87.5 -44t-80 -66t-38.5 -84q0 -43 35.5 -67.5t91.5 -24.5q59 0 79 6v-203zM79 1372q0 82 60.5 132.5t167.5 50.5t168 -50.5t61 -132.5t-61 -132.5t-168 -50.5t-167.5 50.5
t-60.5 132.5z" />
    <glyph glyph-name="Idotaccent" unicode="&#x130;" horiz-adv-x="650" 
d="M535 0h-420v1365h420v-1365zM169 1603q0 69 43.5 114t112.5 45t116 -45t47 -114q0 -68 -46.5 -112t-116.5 -44q-69 0 -112.5 43.5t-43.5 112.5z" />
    <glyph glyph-name="dotlessi" unicode="&#x131;" horiz-adv-x="615" 
d="M113 0v1078h419v-1078h-419z" />
    <glyph glyph-name="Jcircumflex" unicode="&#x134;" horiz-adv-x="1217" 
d="M27 508h401q0 -77 36 -120.5t102 -43.5q70 0 100 40t30 119v862h421v-869q0 -256 -144 -387.5t-402 -131.5q-114 0 -207 30.5t-154.5 81t-103.5 119.5t-60.5 144t-18.5 156zM509 1476l257 253h298l243 -253h-284l-100 109h-23l-108 -109h-283z" />
    <glyph glyph-name="jcircumflex" unicode="&#x135;" horiz-adv-x="614" 
d="M509 1078v-1068q0 -178 -123 -269.5t-328 -91.5q-79 0 -125 6v272q20 -3 47 -3q59 0 92 20t33 70v1064h404zM-87 1227l257 323h306l243 -323h-301l-90 159h-17l-108 -159h-290z" />
    <glyph glyph-name="Kcommaaccent" unicode="&#x136;" horiz-adv-x="1372" 
d="M1389 1365l-453 -598l465 -767h-486l-285 493l-95 -120v-373h-420v1365h420v-535h19l397 535h438zM714 -489h-248l85 335h277z" />
    <glyph glyph-name="kcommaaccent" unicode="&#x137;" horiz-adv-x="1244" 
d="M501 339v-339h-406v1437h406v-751h20l233 392h449l-344 -461l370 -617h-467l-219 399zM650 -489h-248l85 335h277z" />
    <glyph glyph-name="Lacute" unicode="&#x139;" horiz-adv-x="1065" 
d="M1036 344v-344h-921v1365h420v-1021h501zM93 1493l293 248h401l-346 -248h-348z" />
    <glyph glyph-name="lacute" unicode="&#x13a;" horiz-adv-x="616" 
d="M105 0v1437h406v-1437h-406zM507 1602h-348l233 318h401z" />
    <glyph glyph-name="Lcommaaccent" unicode="&#x13b;" horiz-adv-x="1065" 
d="M1036 344v-344h-921v1365h420v-1021h501zM566 -489h-248l85 335h277z" />
    <glyph glyph-name="lcommaaccent" unicode="&#x13c;" horiz-adv-x="616" 
d="M105 0v1437h406v-1437h-406zM336 -489h-248l85 335h277z" />
    <glyph glyph-name="Lcaron" unicode="&#x13d;" horiz-adv-x="1065" 
d="M705 1435h302l-50 -488h-252v488zM1036 344v-344h-921v1365h420v-1021h501z" />
    <glyph glyph-name="lcaron" unicode="&#x13e;" horiz-adv-x="896" 
d="M637 1435h302l-50 -488h-252v488zM105 0v1437h406v-1437h-406z" />
    <glyph glyph-name="Lslash" unicode="&#x141;" horiz-adv-x="1110" 
d="M1081 0h-921v476l-107 -59v326l107 59v563h419v-331l231 128v-328l-231 -127v-363h502v-344z" />
    <glyph glyph-name="lslash" unicode="&#x142;" horiz-adv-x="752" 
d="M580 0h-406v484l-121 -62v300l121 66v649h406v-425l119 65v-326l-119 -61v-690z" />
    <glyph glyph-name="Nacute" unicode="&#x143;" horiz-adv-x="1411" 
d="M500 0h-385v1365h315l465 -660h16v660h385v-1365h-312l-468 672h-16v-672zM474 1493l293 248h401l-346 -248h-348z" />
    <glyph glyph-name="nacute" unicode="&#x144;" horiz-adv-x="1256" 
d="M95 0v1078h391v-181h20q24 75 103.5 135.5t207.5 60.5q164 0 256.5 -100.5t92.5 -294.5v-698h-405v596q0 50 -12.5 85t-33.5 51.5t-41 23t-42 6.5q-54 0 -93 -42.5t-39 -126.5v-593h-405zM827 1243h-348l233 318h401z" />
    <glyph glyph-name="Ncommaaccent" unicode="&#x145;" horiz-adv-x="1411" 
d="M500 0h-385v1365h315l465 -660h16v660h385v-1365h-312l-468 672h-16v-672zM734 -489h-248l85 335h277z" />
    <glyph glyph-name="ncommaaccent" unicode="&#x146;" horiz-adv-x="1256" 
d="M95 0v1078h391v-181h20q24 75 103.5 135.5t207.5 60.5q164 0 256.5 -100.5t92.5 -294.5v-698h-405v596q0 50 -12.5 85t-33.5 51.5t-41 23t-42 6.5q-54 0 -93 -42.5t-39 -126.5v-593h-405zM656 -489h-248l85 335h277z" />
    <glyph glyph-name="Ncaron" unicode="&#x147;" horiz-adv-x="1411" 
d="M500 0h-385v1365h315l465 -660h16v660h385v-1365h-312l-468 672h-16v-672zM306 1736h283l108 -109h23l100 109h284l-243 -253h-298z" />
    <glyph glyph-name="ncaron" unicode="&#x148;" horiz-adv-x="1256" 
d="M95 0v1078h391v-181h20q24 75 103.5 135.5t207.5 60.5q164 0 256.5 -100.5t92.5 -294.5v-698h-405v596q0 50 -12.5 85t-33.5 51.5t-41 23t-42 6.5q-54 0 -93 -42.5t-39 -126.5v-593h-405zM234 1522h290l108 -159h17l90 159h301l-243 -323h-306z" />
    <glyph glyph-name="Omacron" unicode="&#x14c;" horiz-adv-x="1407" 
d="M489 753v-142q0 -146 56.5 -223.5t158.5 -77.5q101 0 157.5 77.5t56.5 223.5v142q0 145 -56.5 223t-157.5 78q-102 0 -158.5 -78t-56.5 -223zM59 613v134q0 296 168.5 468t476.5 172t476 -173t168 -467v-134q0 -293 -168 -464.5t-476 -171.5t-476.5 172t-168.5 464z
M1024 1473h-640v188h640v-188z" />
    <glyph glyph-name="omacron" unicode="&#x14d;" horiz-adv-x="1181" 
d="M592 1099q251 0 394.5 -144.5t143.5 -382.5v-54q0 -259 -141 -399t-397 -140q-258 0 -399.5 139.5t-141.5 397.5v53q0 238 144.5 384t396.5 146zM591 807q-128 0 -128 -227v-81q0 -228 128 -228q127 0 127 228v81q0 227 -127 227zM916 1244h-640v188h640v-188z" />
    <glyph glyph-name="Obreve" unicode="&#x14e;" horiz-adv-x="1407" 
d="M489 753v-142q0 -146 56.5 -223.5t158.5 -77.5q101 0 157.5 77.5t56.5 223.5v142q0 145 -56.5 223t-157.5 78q-102 0 -158.5 -78t-56.5 -223zM59 613v134q0 296 168.5 468t476.5 172t476 -173t168 -467v-134q0 -293 -168 -464.5t-476 -171.5t-476.5 172t-168.5 464z
M343 1782h212q0 -134 149 -134t149 134h207q0 -156 -95.5 -243t-260.5 -87q-166 0 -263.5 87t-97.5 243z" />
    <glyph glyph-name="obreve" unicode="&#x14f;" horiz-adv-x="1181" 
d="M592 1099q251 0 394.5 -144.5t143.5 -382.5v-54q0 -259 -141 -399t-397 -140q-258 0 -399.5 139.5t-141.5 397.5v53q0 238 144.5 384t396.5 146zM591 807q-128 0 -128 -227v-81q0 -228 128 -228q127 0 127 228v81q0 227 -127 227zM212 1538h212q0 -69 38 -116.5
t111 -47.5t111 47.5t38 116.5h207q0 -159 -97 -259.5t-259 -100.5t-261.5 100.5t-99.5 259.5z" />
    <glyph glyph-name="Ohungarumlaut" unicode="&#x150;" horiz-adv-x="1407" 
d="M489 753v-142q0 -146 56.5 -223.5t158.5 -77.5q101 0 157.5 77.5t56.5 223.5v142q0 145 -56.5 223t-157.5 78q-102 0 -158.5 -78t-56.5 -223zM59 613v134q0 296 168.5 468t476.5 172t476 -173t168 -467v-134q0 -293 -168 -464.5t-476 -171.5t-476.5 172t-168.5 464z
M317 1493l293 248h311l-346 -248h-258zM777 1493l293 248h311l-346 -248h-258z" />
    <glyph glyph-name="ohungarumlaut" unicode="&#x151;" horiz-adv-x="1181" 
d="M592 1099q251 0 394.5 -144.5t143.5 -382.5v-54q0 -259 -141 -399t-397 -140q-258 0 -399.5 139.5t-141.5 397.5v53q0 238 144.5 384t396.5 146zM591 807q-128 0 -128 -227v-81q0 -228 128 -228q127 0 127 228v81q0 227 -127 227zM456 1244h-229l251 351h281zM879 1244
h-229l251 351h281z" />
    <glyph glyph-name="OE" unicode="&#x152;" horiz-adv-x="1979" 
d="M509 753v-145q0 -146 57.5 -223.5t159.5 -77.5q101 0 158 77.5t57 223.5v145q0 145 -57 223t-158 78q-102 0 -159.5 -78t-57.5 -223zM619 -23q-260 0 -410 176.5t-150 462.5v129q0 308 155 475t405 167q127 0 219.5 -43.5t140.5 -123.5h22v145h893v-323h-558v-215h521
v-292h-521v-212h558v-323h-893v145h-22q-48 -77 -138 -122.5t-222 -45.5z" />
    <glyph glyph-name="oe" unicode="&#x153;" horiz-adv-x="1840" 
d="M1281 -21q-104 0 -195 30t-141 77h-22q-51 -47 -142 -77t-189 -30q-258 0 -399.5 139.5t-141.5 397.5v53q0 238 144.5 384t396.5 146q97 0 190.5 -34.5t137.5 -85.5h22q46 54 133.5 87t190.5 33q236 0 379.5 -140.5t143.5 -384.5v-113h-659v-46q0 -70 44.5 -109
t104.5 -39q62 0 104 29t43 78h360q-1 -52 -18 -104.5t-56 -105.5t-95.5 -93.5t-143.5 -66t-192 -25.5zM591 807q-128 0 -128 -227v-81q0 -228 128 -228q127 0 127 228v81q0 227 -127 227zM1130 671h274q0 68 -36.5 109.5t-97.5 41.5q-62 0 -101 -42t-39 -109z" />
    <glyph glyph-name="Racute" unicode="&#x154;" horiz-adv-x="1334" 
d="M741 1365q262 0 401.5 -126.5t139.5 -343.5q0 -64 -17.5 -123t-44 -101t-60.5 -76.5t-62.5 -54.5t-54.5 -32l268 -508h-461l-219 455h-105v-455h-411v1365h626zM526 735h151q74 0 123 41.5t49 120.5q0 80 -50.5 123.5t-121.5 43.5h-151v-329zM435 1493l293 248h401
l-346 -248h-348z" />
    <glyph glyph-name="racute" unicode="&#x155;" horiz-adv-x="889" 
d="M95 0v1078h406v-173h20q13 67 75 127.5t156 60.5q84 0 114 -12v-338q-39 17 -136 17q-215 0 -215 -227v-533h-420zM644 1243h-348l233 318h401z" />
    <glyph glyph-name="Rcommaaccent" unicode="&#x156;" horiz-adv-x="1334" 
d="M741 1365q262 0 401.5 -126.5t139.5 -343.5q0 -64 -17.5 -123t-44 -101t-60.5 -76.5t-62.5 -54.5t-54.5 -32l268 -508h-461l-219 455h-105v-455h-411v1365h626zM526 735h151q74 0 123 41.5t49 120.5q0 80 -50.5 123.5t-121.5 43.5h-151v-329zM695 -489h-248l85 335h277z
" />
    <glyph glyph-name="rcommaaccent" unicode="&#x157;" horiz-adv-x="889" 
d="M95 0v1078h406v-173h20q13 67 75 127.5t156 60.5q84 0 114 -12v-338q-39 17 -136 17q-215 0 -215 -227v-533h-420zM337 -489h-248l85 335h277z" />
    <glyph glyph-name="Rcaron" unicode="&#x158;" horiz-adv-x="1334" 
d="M741 1365q262 0 401.5 -126.5t139.5 -343.5q0 -64 -17.5 -123t-44 -101t-60.5 -76.5t-62.5 -54.5t-54.5 -32l268 -508h-461l-219 455h-105v-455h-411v1365h626zM526 735h151q74 0 123 41.5t49 120.5q0 80 -50.5 123.5t-121.5 43.5h-151v-329zM267 1736h283l108 -109h23
l100 109h284l-243 -253h-298z" />
    <glyph glyph-name="rcaron" unicode="&#x159;" horiz-adv-x="889" 
d="M95 0v1078h406v-173h20q13 67 75 127.5t156 60.5q84 0 114 -12v-338q-39 17 -136 17q-215 0 -215 -227v-533h-420zM51 1522h290l108 -159h17l90 159h301l-243 -323h-306z" />
    <glyph glyph-name="Sacute" unicode="&#x15a;" horiz-adv-x="1288" 
d="M57 418h394q2 -53 55 -93t145 -40q90 0 131 30t41 77q0 49 -45 73.5t-146 42.5l-165 29q-388 69 -388 406q0 209 154 326.5t413 117.5q139 0 249 -37t176 -99.5t100 -138t34 -157.5h-380q-2 49 -48 89t-130 40q-76 0 -114 -30t-38 -77q0 -79 178 -106l175 -27
q61 -9 113 -26t103.5 -48.5t87.5 -75t58.5 -109.5t22.5 -148q0 -208 -150.5 -334t-440.5 -126q-130 0 -232.5 26t-167 68.5t-107.5 101t-60.5 119t-17.5 126.5zM412 1493l293 248h401l-346 -248h-348z" />
    <glyph glyph-name="sacute" unicode="&#x15b;" horiz-adv-x="1097" 
d="M70 745q0 94 38.5 164t107 110.5t153 60t186.5 19.5q133 0 233 -35t161 -112.5t61 -190.5h-348q-6 37 -34.5 62.5t-75.5 25.5q-51 0 -76 -21.5t-25 -54.5q0 -17 10 -31t30.5 -24t42 -17.5t53 -13.5t55 -9.5t57 -7.5t49.5 -7q302 -48 302 -310q0 -174 -131.5 -274
t-382.5 -100q-238 0 -364.5 96t-126.5 247h392q2 -38 35.5 -64.5t83.5 -26.5q52 0 78 21t26 55q0 22 -14 37t-44 24.5t-56.5 14.5t-74 12t-73.5 12q-149 28 -238.5 109.5t-89.5 228.5zM748 1243h-348l233 318h401z" />
    <glyph glyph-name="Scircumflex" unicode="&#x15c;" horiz-adv-x="1288" 
d="M57 418h394q2 -53 55 -93t145 -40q90 0 131 30t41 77q0 49 -45 73.5t-146 42.5l-165 29q-388 69 -388 406q0 209 154 326.5t413 117.5q139 0 249 -37t176 -99.5t100 -138t34 -157.5h-380q-2 49 -48 89t-130 40q-76 0 -114 -30t-38 -77q0 -79 178 -106l175 -27
q61 -9 113 -26t103.5 -48.5t87.5 -75t58.5 -109.5t22.5 -148q0 -208 -150.5 -334t-440.5 -126q-130 0 -232.5 26t-167 68.5t-107.5 101t-60.5 119t-17.5 126.5zM244 1476l257 253h298l243 -253h-284l-100 109h-23l-108 -109h-283z" />
    <glyph glyph-name="scircumflex" unicode="&#x15d;" horiz-adv-x="1097" 
d="M70 745q0 94 38.5 164t107 110.5t153 60t186.5 19.5q133 0 233 -35t161 -112.5t61 -190.5h-348q-6 37 -34.5 62.5t-75.5 25.5q-51 0 -76 -21.5t-25 -54.5q0 -17 10 -31t30.5 -24t42 -17.5t53 -13.5t55 -9.5t57 -7.5t49.5 -7q302 -48 302 -310q0 -174 -131.5 -274
t-382.5 -100q-238 0 -364.5 96t-126.5 247h392q2 -38 35.5 -64.5t83.5 -26.5q52 0 78 21t26 55q0 22 -14 37t-44 24.5t-56.5 14.5t-74 12t-73.5 12q-149 28 -238.5 109.5t-89.5 228.5zM130 1240l257 323h306l243 -323h-301l-90 159h-17l-108 -159h-290z" />
    <glyph glyph-name="Scedilla" unicode="&#x15e;" horiz-adv-x="1288" 
d="M642 -477q-95 0 -141 16v149q44 -13 105 -13q99 0 99 39q0 25 -19.5 37t-86.5 12h-58v134l32 82q-141 8 -245 49.5t-161 105t-83.5 134t-26.5 150.5h394q2 -53 55 -93t145 -40q90 0 131 30t41 77q0 49 -45 73.5t-146 42.5l-165 29q-388 69 -388 406q0 209 154 326.5
t413 117.5q139 0 249 -37t176 -99.5t100 -138t34 -157.5h-380q-2 49 -48 89t-130 40q-76 0 -114 -30t-38 -77q0 -79 178 -106l175 -27q61 -9 113 -26t103.5 -48.5t87.5 -75t58.5 -109.5t22.5 -148q0 -180 -114 -300.5t-335 -150.5l-34 -80q78 0 123.5 -49t45.5 -128
q0 -206 -277 -206z" />
    <glyph glyph-name="scedilla" unicode="&#x15f;" horiz-adv-x="1097" 
d="M537 -477q-95 0 -141 16v149q44 -13 105 -13q99 0 99 39q0 25 -19.5 37t-86.5 12h-58v134l33 84q-206 14 -315 108t-109 233h392q2 -38 35.5 -64.5t83.5 -26.5q52 0 78 21t26 55q0 22 -14 37t-44 24.5t-56.5 14.5t-74 12t-73.5 12q-149 28 -238.5 109.5t-89.5 228.5
q0 94 38.5 164t107 110.5t153 60t186.5 19.5q133 0 233 -35t161 -112.5t61 -190.5h-348q-6 37 -34.5 62.5t-75.5 25.5q-51 0 -76 -21.5t-25 -54.5q0 -17 10 -31t30.5 -24t42 -17.5t53 -13.5t55 -9.5t57 -7.5t49.5 -7q302 -48 302 -310q0 -146 -94 -241.5t-276 -122.5
l-35 -83q78 0 123.5 -49t45.5 -128q0 -206 -277 -206z" />
    <glyph glyph-name="Scaron" unicode="&#x160;" horiz-adv-x="1288" 
d="M57 418h394q2 -53 55 -93t145 -40q90 0 131 30t41 77q0 49 -45 73.5t-146 42.5l-165 29q-388 69 -388 406q0 209 154 326.5t413 117.5q139 0 249 -37t176 -99.5t100 -138t34 -157.5h-380q-2 49 -48 89t-130 40q-76 0 -114 -30t-38 -77q0 -79 178 -106l175 -27
q61 -9 113 -26t103.5 -48.5t87.5 -75t58.5 -109.5t22.5 -148q0 -208 -150.5 -334t-440.5 -126q-130 0 -232.5 26t-167 68.5t-107.5 101t-60.5 119t-17.5 126.5zM244 1736h283l108 -109h23l100 109h284l-243 -253h-298z" />
    <glyph glyph-name="scaron" unicode="&#x161;" horiz-adv-x="1097" 
d="M70 745q0 94 38.5 164t107 110.5t153 60t186.5 19.5q133 0 233 -35t161 -112.5t61 -190.5h-348q-6 37 -34.5 62.5t-75.5 25.5q-51 0 -76 -21.5t-25 -54.5q0 -17 10 -31t30.5 -24t42 -17.5t53 -13.5t55 -9.5t57 -7.5t49.5 -7q302 -48 302 -310q0 -174 -131.5 -274
t-382.5 -100q-238 0 -364.5 96t-126.5 247h392q2 -38 35.5 -64.5t83.5 -26.5q52 0 78 21t26 55q0 22 -14 37t-44 24.5t-56.5 14.5t-74 12t-73.5 12q-149 28 -238.5 109.5t-89.5 228.5zM155 1522h290l108 -159h17l90 159h301l-243 -323h-306z" />
    <glyph glyph-name="Tcedilla" unicode="&#x162;" horiz-adv-x="1128" 
d="M523 -477q-95 0 -141 16v149q44 -13 105 -13q99 0 99 39q0 25 -19.5 37t-86.5 12h-58v134l40 103h-108v1029h-347v336h1114v-336h-347v-1029h-103l-40 -94q78 0 123.5 -49t45.5 -128q0 -206 -277 -206z" />
    <glyph glyph-name="tcedilla" unicode="&#x163;" horiz-adv-x="879" 
d="M467 -454q-95 0 -141 16v149q44 -13 105 -13q99 0 99 39q0 25 -19.5 37t-86.5 12h-58v134l40 103q-107 28 -159.5 97t-52.5 190v447h-164v296h176v264h389v-264h202v-296h-202v-357q0 -107 128 -107q54 0 74 2v-285q-73 -10 -171 -10h-21l-30 -71q78 0 123.5 -49
t45.5 -128q0 -206 -277 -206z" />
    <glyph glyph-name="Tcaron" unicode="&#x164;" horiz-adv-x="1128" 
d="M774 0h-420v1029h-347v336h1114v-336h-347v-1029zM164 1736h283l108 -109h23l100 109h284l-243 -253h-298z" />
    <glyph glyph-name="tcaron" unicode="&#x165;" horiz-adv-x="1000" 
d="M710 1648h302l-50 -488h-252v488zM206 1053v264h389v-264h202v-296h-202v-357q0 -107 128 -107q54 0 74 2v-285q-73 -10 -171 -10q-223 0 -327.5 70t-104.5 240v447h-164v296h176z" />
    <glyph glyph-name="Tbar" unicode="&#x166;" horiz-adv-x="1128" 
d="M999 524h-224v-524h-420v524h-223v228h223v277h-347v336h1114v-336h-347v-277h224v-228z" />
    <glyph glyph-name="tbar" unicode="&#x167;" horiz-adv-x="872" 
d="M797 10q-70 -10 -171 -10q-223 0 -327.5 70t-104.5 240v131h-132v195h132v121h-164v296h176v264h389v-264h202v-296h-202v-121h189v-195h-189v-41q0 -107 128 -107q41 0 74 3v-286z" />
    <glyph glyph-name="Utilde" unicode="&#x168;" horiz-adv-x="1408" 
d="M520 1365v-834q0 -108 49.5 -159t134.5 -51q84 0 134 52t50 158v834h420v-893q0 -227 -162.5 -361t-441.5 -134t-441.5 134t-162.5 361v893h420zM700 1493q-6 5 -18.5 17t-20 18.5t-21 12.5t-27.5 6q-65 0 -70 -76h-187q0 95 57 171t157 76q60 0 94 -14t72 -45
q6 -5 19 -16.5t18.5 -15.5t15.5 -10.5t18 -8.5t18 -2q63 0 63 97h188q0 -112 -65 -185t-161 -73q-44 0 -76 8.5t-44 16.5t-30 23z" />
    <glyph glyph-name="utilde" unicode="&#x169;" horiz-adv-x="1255" 
d="M1160 1078v-1078h-391v181h-20q-24 -75 -103.5 -135.5t-207.5 -60.5q-164 0 -256 99.5t-92 293.5v700h405v-598q0 -50 12.5 -85t33.5 -51.5t40.5 -23t41.5 -6.5q54 0 93 42.5t39 126.5v595h405zM597 1258q-47 45 -91 45q-77 0 -82 -91h-214q0 96 27 173t89 127.5
t151 50.5q54 0 92.5 -19t84.5 -61q3 -3 10.5 -10t11 -9.5t10.5 -8.5t11 -8.5t10.5 -6.5t12 -5.5t12.5 -3t14 -1.5q72 0 72 115h214q0 -148 -79 -250t-203 -102q-38 0 -71 12t-47 23t-35 30z" />
    <glyph glyph-name="Umacron" unicode="&#x16a;" horiz-adv-x="1408" 
d="M520 1365v-834q0 -108 49.5 -159t134.5 -51q84 0 134 52t50 158v834h420v-893q0 -227 -162.5 -361t-441.5 -134t-441.5 134t-162.5 361v893h420zM1024 1473h-640v188h640v-188z" />
    <glyph glyph-name="umacron" unicode="&#x16b;" horiz-adv-x="1255" 
d="M1160 1078v-1078h-391v181h-20q-24 -75 -103.5 -135.5t-207.5 -60.5q-164 0 -256 99.5t-92 293.5v700h405v-598q0 -50 12.5 -85t33.5 -51.5t40.5 -23t41.5 -6.5q54 0 93 42.5t39 126.5v595h405zM953 1244h-640v188h640v-188z" />
    <glyph glyph-name="Ubreve" unicode="&#x16c;" horiz-adv-x="1408" 
d="M520 1365v-834q0 -108 49.5 -159t134.5 -51q84 0 134 52t50 158v834h420v-893q0 -227 -162.5 -361t-441.5 -134t-441.5 134t-162.5 361v893h420zM343 1782h212q0 -134 149 -134t149 134h207q0 -156 -95.5 -243t-260.5 -87q-166 0 -263.5 87t-97.5 243z" />
    <glyph glyph-name="ubreve" unicode="&#x16d;" horiz-adv-x="1255" 
d="M1160 1078v-1078h-391v181h-20q-24 -75 -103.5 -135.5t-207.5 -60.5q-164 0 -256 99.5t-92 293.5v700h405v-598q0 -50 12.5 -85t33.5 -51.5t40.5 -23t41.5 -6.5q54 0 93 42.5t39 126.5v595h405zM249 1538h212q0 -69 38 -116.5t111 -47.5t111 47.5t38 116.5h207
q0 -159 -97 -259.5t-259 -100.5t-261.5 100.5t-99.5 259.5z" />
    <glyph glyph-name="Uring" unicode="&#x16e;" horiz-adv-x="1408" 
d="M520 1365v-834q0 -108 49.5 -159t134.5 -51q84 0 134 52t50 158v834h420v-893q0 -227 -162.5 -361t-441.5 -134t-441.5 134t-162.5 361v893h420zM698 1456q-109 0 -180.5 67t-71.5 175q0 107 71 173t181 66t180.5 -66t70.5 -173q0 -108 -71 -175t-180 -67zM615 1696
q0 -36 23 -58.5t59 -22.5t59.5 22.5t23.5 58.5t-23.5 59t-59.5 23t-59 -23t-23 -59z" />
    <glyph glyph-name="uring" unicode="&#x16f;" horiz-adv-x="1255" 
d="M1160 1078v-1078h-391v181h-20q-24 -75 -103.5 -135.5t-207.5 -60.5q-164 0 -256 99.5t-92 293.5v700h405v-598q0 -50 12.5 -85t33.5 -51.5t40.5 -23t41.5 -6.5q54 0 93 42.5t39 126.5v595h405zM622 1169q-109 0 -180.5 67t-71.5 175q0 107 71 173t181 66t180.5 -66
t70.5 -173q0 -108 -71 -175t-180 -67zM539 1409q0 -36 23 -58.5t59 -22.5t59.5 22.5t23.5 58.5t-23.5 59t-59.5 23t-59 -23t-23 -59z" />
    <glyph glyph-name="Uhungarumlaut" unicode="&#x170;" horiz-adv-x="1408" 
d="M520 1365v-834q0 -108 49.5 -159t134.5 -51q84 0 134 52t50 158v834h420v-893q0 -227 -162.5 -361t-441.5 -134t-441.5 134t-162.5 361v893h420zM317 1493l293 248h311l-346 -248h-258zM777 1493l293 248h311l-346 -248h-258z" />
    <glyph glyph-name="uhungarumlaut" unicode="&#x171;" horiz-adv-x="1255" 
d="M1160 1078v-1078h-391v181h-20q-24 -75 -103.5 -135.5t-207.5 -60.5q-164 0 -256 99.5t-92 293.5v700h405v-598q0 -50 12.5 -85t33.5 -51.5t40.5 -23t41.5 -6.5q54 0 93 42.5t39 126.5v595h405zM493 1244h-229l251 351h281zM916 1244h-229l251 351h281z" />
    <glyph glyph-name="Uogonek" unicode="&#x172;" horiz-adv-x="1408" 
d="M1019 -395q-137 0 -204 60.5t-67 152.5q0 91 47 163q-39 -4 -91 -4q-279 0 -441.5 134t-162.5 361v893h420v-834q0 -108 49.5 -159t134.5 -51q84 0 134 52t50 158v834h420v-893q0 -217 -149 -349q-16 -16 -51 -45.5t-54.5 -48.5t-36.5 -49.5t-17 -63.5q0 -48 34.5 -73
t85.5 -25q33 0 76 12v-196q-77 -29 -177 -29z" />
    <glyph glyph-name="uogonek" unicode="&#x173;" horiz-adv-x="1255" 
d="M1160 -376q-61 -18 -167 -18q-126 0 -210.5 55t-84.5 164q0 108 93 175v181h-20q-11 -33 -35 -65t-62.5 -62.5t-98 -49.5t-129.5 -19q-162 0 -259 100.5t-97 292.5v700h405v-598q0 -50 12.5 -85t33.5 -51.5t40.5 -23t40.5 -6.5q56 0 94.5 42.5t38.5 126.5v595h405v-1078
q-41 5 -84 0.5t-80 -28.5t-37 -66q0 -43 37 -64t95 -21q49 0 69 6v-203z" />
    <glyph glyph-name="Wcircumflex" unicode="&#x174;" horiz-adv-x="1865" 
d="M726 0h-395l-336 1364h433l129 -827h19l196 827h323l196 -827h20l126 827h433l-335 -1364h-395l-199 751h-15zM533 1476l257 253h298l243 -253h-284l-100 109h-23l-108 -109h-283z" />
    <glyph glyph-name="wcircumflex" unicode="&#x175;" horiz-adv-x="1726" 
d="M1721 1078l-269 -1078h-433l-149 670h-14l-148 -670h-437l-266 1078h410l102 -709h16l142 709h380l144 -709h16l102 709h404zM444 1240l257 323h306l243 -323h-301l-90 159h-17l-108 -159h-290z" />
    <glyph glyph-name="Ycircumflex" unicode="&#x176;" horiz-adv-x="1251" 
d="M836 0h-420v411l-457 954h455l212 -537h15l214 537h438l-457 -941v-424zM226 1476l257 253h298l243 -253h-284l-100 109h-23l-108 -109h-283z" />
    <glyph glyph-name="ycircumflex" unicode="&#x177;" horiz-adv-x="1171" 
d="M1172 1078q-298 -970 -307 -994l-27 -71q-36 -95 -80.5 -161.5t-111 -118.5t-161.5 -77t-222 -25q-133 0 -204 16v267q32 -8 101 -8q99 0 136.5 25.5t37.5 78.5v7l-335 1061h446l135 -766h16l146 766h430zM167 1240l257 323h306l243 -323h-301l-90 159h-17l-108 -159
h-290z" />
    <glyph glyph-name="Ydieresis" unicode="&#x178;" horiz-adv-x="1251" 
d="M836 0h-420v411l-457 954h455l212 -537h15l214 537h438l-457 -941v-424zM261 1577q0 63 39 100t107 37q70 0 108.5 -37t38.5 -100t-38.5 -100t-108.5 -37q-68 0 -107 37t-39 100zM694 1577q0 63 38 100t108 37q69 0 108 -37t39 -100t-38.5 -100t-108.5 -37t-108 37
t-38 100z" />
    <glyph glyph-name="Zacute" unicode="&#x179;" horiz-adv-x="1224" 
d="M85 0v262l550 758v19h-545v326h1046v-262l-550 -757v-20h573v-326h-1074zM380 1493l293 248h401l-346 -248h-348z" />
    <glyph glyph-name="zacute" unicode="&#x17a;" horiz-adv-x="1050" 
d="M70 0v201l424 561v16h-406v300h889v-236l-386 -525v-16h409v-301h-930zM724 1243h-348l233 318h401z" />
    <glyph glyph-name="Zdotaccent" unicode="&#x17b;" horiz-adv-x="1224" 
d="M85 0v262l550 758v19h-545v326h1046v-262l-550 -757v-20h573v-326h-1074zM456 1603q0 69 43.5 114t112.5 45t116 -45t47 -114q0 -68 -46.5 -112t-116.5 -44q-69 0 -112.5 43.5t-43.5 112.5z" />
    <glyph glyph-name="zdotaccent" unicode="&#x17c;" horiz-adv-x="1050" 
d="M70 0v201l424 561v16h-406v300h889v-236l-386 -525v-16h409v-301h-930zM369 1316q0 69 43.5 114t112.5 45t116 -45t47 -114q0 -68 -46.5 -112t-116.5 -44q-69 0 -112.5 43.5t-43.5 112.5z" />
    <glyph glyph-name="Zcaron" unicode="&#x17d;" horiz-adv-x="1224" 
d="M85 0v262l550 758v19h-545v326h1046v-262l-550 -757v-20h573v-326h-1074zM212 1736h283l108 -109h23l100 109h284l-243 -253h-298z" />
    <glyph glyph-name="zcaron" unicode="&#x17e;" horiz-adv-x="1050" 
d="M70 0v201l424 561v16h-406v300h889v-236l-386 -525v-16h409v-301h-930zM131 1522h290l108 -159h17l90 159h301l-243 -323h-306z" />
    <glyph glyph-name="florin" unicode="&#x192;" horiz-adv-x="1295" 
d="M68 -186l135 721h-158l53 322h159l21 120q39 220 171.5 313.5t380.5 93.5q131 0 224 -32.5t141.5 -90.5t66.5 -129.5t10 -158.5h-369q2 27 -1 49.5t-21 43.5t-51 21q-40 0 -66.5 -26t-35.5 -77l-22 -127h294l-54 -322h-294l-134 -721h-450z" />
    <glyph glyph-name="Ohorn" unicode="&#x1a0;" horiz-adv-x="1466" 
d="M1348 613q0 -293 -168 -464.5t-476 -171.5t-476.5 172t-168.5 464v134q0 296 168.5 468t476.5 172q89 0 224 -24t198 -24q43 0 71 8.5t40 26t16 34.5t4 44v159h303v-224q0 -128 -77.5 -214.5t-207.5 -86.5h-2q75 -142 75 -339v-134zM489 753v-145q0 -146 56.5 -223.5
t158.5 -77.5q101 0 158.5 77.5t57.5 223.5v145q0 145 -57.5 223t-158.5 78q-102 0 -158.5 -78t-56.5 -223z" />
    <glyph glyph-name="ohorn" unicode="&#x1a1;" horiz-adv-x="1249" 
d="M592 -21q-258 0 -399.5 139.5t-141.5 397.5v53q0 238 144.5 384t396.5 146q72 0 143 -10.5t105 -10.5q54 0 68.5 17.5t14.5 66.5v159h303v-224q0 -87 -43.5 -159.5t-116.5 -110.5v-10q64 -133 64 -245v-54q0 -259 -141 -399t-397 -140zM591 807q-128 0 -128 -227v-81
q0 -228 128 -228q127 0 127 228v81q0 227 -127 227z" />
    <glyph glyph-name="Uhorn" unicode="&#x1af;" horiz-adv-x="1562" 
d="M704 -20q-279 0 -441.5 134t-162.5 361v890h420v-831q0 -108 49.5 -159t134.5 -51q84 0 134 52t50 158v831h421q43 0 62 19.5t19 64.5v159h303v-224q0 -128 -77.5 -214.5t-207.5 -86.5h-100v-608q0 -227 -162.5 -361t-441.5 -134z" />
    <glyph glyph-name="uhorn" unicode="&#x1b0;" horiz-adv-x="1495" 
d="M749 181q-24 -75 -103.5 -135.5t-207.5 -60.5q-164 0 -256 99.5t-92 293.5v700h405v-598q0 -50 12.5 -85t33.5 -51.5t40.5 -23t41.5 -6.5q54 0 93 42.5t39 126.5v595h355q41 0 51 17t10 67v159h303v-224q0 -128 -77.5 -214.5t-207.5 -86.5h-29v-796h-391v181h-20z" />
    <glyph glyph-name="Acaron" unicode="&#x1cd;" horiz-adv-x="1354" 
d="M414 0h-415l414 1365h532l410 -1365h-448l-59 258h-373zM675 1018h-21l-110 -465h237zM277 1736h283l108 -109h23l100 109h284l-243 -253h-298z" />
    <glyph glyph-name="acaron" unicode="&#x1ce;" horiz-adv-x="1155" 
d="M672 126q-23 -58 -89 -99.5t-176 -41.5q-162 0 -260 86.5t-98 240.5q0 153 102.5 241t289.5 88h231v79q0 42 -27.5 66t-73.5 24q-48 0 -77 -26.5t-29 -67.5h-378q1 55 14.5 104.5t48 100.5t87 88t139.5 60.5t199 23.5q107 0 194 -20.5t156 -65t107 -121.5t38 -182v-704
h-378v126h-20zM555 253q46 0 81.5 26t35.5 68v96h-104q-55 0 -89 -26t-34 -69q0 -44 32.5 -69.5t77.5 -25.5zM184 1522h290l108 -159h17l90 159h301l-243 -323h-306z" />
    <glyph glyph-name="Icaron" unicode="&#x1cf;" horiz-adv-x="650" 
d="M535 0h-420v1365h420v-1365zM-75 1736h283l108 -109h23l100 109h284l-243 -253h-298z" />
    <glyph glyph-name="icaron" unicode="&#x1d0;" horiz-adv-x="615" 
d="M113 0v1078h419v-1078h-419zM-75 1522h290l108 -159h17l90 159h301l-243 -323h-306z" />
    <glyph glyph-name="Ocaron" unicode="&#x1d1;" horiz-adv-x="1407" 
d="M489 753v-142q0 -146 56.5 -223.5t158.5 -77.5q101 0 157.5 77.5t56.5 223.5v142q0 145 -56.5 223t-157.5 78q-102 0 -158.5 -78t-56.5 -223zM59 613v134q0 296 168.5 468t476.5 172t476 -173t168 -467v-134q0 -293 -168 -464.5t-476 -171.5t-476.5 172t-168.5 464z
M304 1736h283l108 -109h23l100 109h284l-243 -253h-298z" />
    <glyph glyph-name="ocaron" unicode="&#x1d2;" horiz-adv-x="1181" 
d="M592 1099q251 0 394.5 -144.5t143.5 -382.5v-54q0 -259 -141 -399t-397 -140q-258 0 -399.5 139.5t-141.5 397.5v53q0 238 144.5 384t396.5 146zM591 807q-128 0 -128 -227v-81q0 -228 128 -228q127 0 127 228v81q0 227 -127 227zM197 1522h290l108 -159h17l90 159h301
l-243 -323h-306z" />
    <glyph glyph-name="Ucaron" unicode="&#x1d3;" horiz-adv-x="1408" 
d="M520 1365v-834q0 -108 49.5 -159t134.5 -51q84 0 134 52t50 158v834h420v-893q0 -227 -162.5 -361t-441.5 -134t-441.5 134t-162.5 361v893h420zM304 1736h283l108 -109h23l100 109h284l-243 -253h-298z" />
    <glyph glyph-name="ucaron" unicode="&#x1d4;" horiz-adv-x="1255" 
d="M1160 1078v-1078h-391v181h-20q-24 -75 -103.5 -135.5t-207.5 -60.5q-164 0 -256 99.5t-92 293.5v700h405v-598q0 -50 12.5 -85t33.5 -51.5t40.5 -23t41.5 -6.5q54 0 93 42.5t39 126.5v595h405zM234 1522h290l108 -159h17l90 159h301l-243 -323h-306z" />
    <glyph glyph-name="Udieresismacron" unicode="&#x1d5;" horiz-adv-x="1408" 
d="M520 1365v-834q0 -108 49.5 -159t134.5 -51q84 0 134 52t50 158v834h420v-893q0 -227 -162.5 -361t-441.5 -134t-441.5 134t-162.5 361v893h420zM339 1577q0 63 39 100t107 37q70 0 108.5 -37t38.5 -100t-38.5 -100t-108.5 -37q-68 0 -107 37t-39 100zM772 1577
q0 63 38 100t108 37q69 0 108 -37t39 -100t-38.5 -100t-108.5 -37t-108 37t-38 100zM1024 1786h-640v188h640v-188z" />
    <glyph glyph-name="udieresismacron" unicode="&#x1d6;" horiz-adv-x="1255" 
d="M1160 1078v-1078h-391v181h-20q-24 -75 -103.5 -135.5t-207.5 -60.5q-164 0 -256 99.5t-92 293.5v700h405v-598q0 -50 12.5 -85t33.5 -51.5t40.5 -23t41.5 -6.5q54 0 93 42.5t39 126.5v595h405zM242 1347q0 69 42.5 109t116.5 40q75 0 118 -40t43 -109t-42.5 -109
t-118.5 -40q-74 0 -116.5 40t-42.5 109zM710 1347q0 69 42.5 109t116.5 40q75 0 117.5 -40t42.5 -109t-42 -109t-118 -40q-74 0 -116.5 40t-42.5 109zM953 1627h-640v188h640v-188z" />
    <glyph glyph-name="Udieresisacute" unicode="&#x1d7;" horiz-adv-x="1408" 
d="M520 1365v-834q0 -108 49.5 -159t134.5 -51q84 0 134 52t50 158v834h420v-893q0 -227 -162.5 -361t-441.5 -134t-441.5 134t-162.5 361v893h420zM339 1577q0 63 39 100t107 37q70 0 108.5 -37t38.5 -100t-38.5 -100t-108.5 -37q-68 0 -107 37t-39 100zM772 1577
q0 63 38 100t108 37q69 0 108 -37t39 -100t-38.5 -100t-108.5 -37t-108 37t-38 100zM472 1756l293 248h401l-346 -248h-348z" />
    <glyph glyph-name="udieresisacute" unicode="&#x1d8;" horiz-adv-x="1255" 
d="M1160 1078v-1078h-391v181h-20q-24 -75 -103.5 -135.5t-207.5 -60.5q-164 0 -256 99.5t-92 293.5v700h405v-598q0 -50 12.5 -85t33.5 -51.5t40.5 -23t41.5 -6.5q54 0 93 42.5t39 126.5v595h405zM242 1347q0 69 42.5 109t116.5 40q75 0 118 -40t43 -109t-42.5 -109
t-118.5 -40q-74 0 -116.5 40t-42.5 109zM710 1347q0 69 42.5 109t116.5 40q75 0 117.5 -40t42.5 -109t-42 -109t-118 -40q-74 0 -116.5 40t-42.5 109zM827 1566h-348l233 318h401z" />
    <glyph glyph-name="Udieresiscaron" unicode="&#x1d9;" horiz-adv-x="1408" 
d="M520 1365v-834q0 -108 49.5 -159t134.5 -51q84 0 134 52t50 158v834h420v-893q0 -227 -162.5 -361t-441.5 -134t-441.5 134t-162.5 361v893h420zM339 1577q0 63 39 100t107 37q70 0 108.5 -37t38.5 -100t-38.5 -100t-108.5 -37q-68 0 -107 37t-39 100zM772 1577
q0 63 38 100t108 37q69 0 108 -37t39 -100t-38.5 -100t-108.5 -37t-108 37t-38 100zM304 1999h283l108 -109h23l100 109h284l-243 -253h-298z" />
    <glyph glyph-name="udieresiscaron" unicode="&#x1da;" horiz-adv-x="1255" 
d="M1160 1078v-1078h-391v181h-20q-24 -75 -103.5 -135.5t-207.5 -60.5q-164 0 -256 99.5t-92 293.5v700h405v-598q0 -50 12.5 -85t33.5 -51.5t40.5 -23t41.5 -6.5q54 0 93 42.5t39 126.5v595h405zM242 1347q0 69 42.5 109t116.5 40q75 0 118 -40t43 -109t-42.5 -109
t-118.5 -40q-74 0 -116.5 40t-42.5 109zM710 1347q0 69 42.5 109t116.5 40q75 0 117.5 -40t42.5 -109t-42 -109t-118 -40q-74 0 -116.5 40t-42.5 109zM234 1865h290l108 -159h17l90 159h301l-243 -323h-306z" />
    <glyph glyph-name="Udieresisgrave" unicode="&#x1db;" horiz-adv-x="1408" 
d="M520 1365v-834q0 -108 49.5 -159t134.5 -51q84 0 134 52t50 158v834h420v-893q0 -227 -162.5 -361t-441.5 -134t-441.5 134t-162.5 361v893h420zM339 1577q0 63 39 100t107 37q70 0 108.5 -37t38.5 -100t-38.5 -100t-108.5 -37q-68 0 -107 37t-39 100zM772 1577
q0 63 38 100t108 37q69 0 108 -37t39 -100t-38.5 -100t-108.5 -37t-108 37t-38 100zM887 1756h-327l-325 233h377z" />
    <glyph glyph-name="udieresisgrave" unicode="&#x1dc;" horiz-adv-x="1255" 
d="M1160 1078v-1078h-391v181h-20q-24 -75 -103.5 -135.5t-207.5 -60.5q-164 0 -256 99.5t-92 293.5v700h405v-598q0 -50 12.5 -85t33.5 -51.5t40.5 -23t41.5 -6.5q54 0 93 42.5t39 126.5v595h405zM242 1347q0 69 42.5 109t116.5 40q75 0 118 -40t43 -109t-42.5 -109
t-118.5 -40q-74 0 -116.5 40t-42.5 109zM710 1347q0 69 42.5 109t116.5 40q75 0 117.5 -40t42.5 -109t-42 -109t-118 -40q-74 0 -116.5 40t-42.5 109zM884 1563h-349l-303 311h401z" />
    <glyph glyph-name="Adieresismacron" unicode="&#x1de;" horiz-adv-x="1354" 
d="M414 0h-415l414 1365h532l410 -1365h-448l-59 258h-373zM675 1018h-21l-110 -465h237zM312 1577q0 63 39 100t107 37q70 0 108.5 -37t38.5 -100t-38.5 -100t-108.5 -37q-68 0 -107 37t-39 100zM745 1577q0 63 38 100t108 37q69 0 108 -37t39 -100t-38.5 -100t-108.5 -37
t-108 37t-38 100zM997 1786h-640v188h640v-188z" />
    <glyph glyph-name="adieresismacron" unicode="&#x1df;" horiz-adv-x="1155" 
d="M672 126q-23 -58 -89 -99.5t-176 -41.5q-162 0 -260 86.5t-98 240.5q0 153 102.5 241t289.5 88h231v79q0 42 -27.5 66t-73.5 24q-48 0 -77 -26.5t-29 -67.5h-378q1 55 14.5 104.5t48 100.5t87 88t139.5 60.5t199 23.5q107 0 194 -20.5t156 -65t107 -121.5t38 -182v-704
h-378v126h-20zM555 253q46 0 81.5 26t35.5 68v96h-104q-55 0 -89 -26t-34 -69q0 -44 32.5 -69.5t77.5 -25.5zM192 1347q0 69 42.5 109t116.5 40q75 0 118 -40t43 -109t-42.5 -109t-118.5 -40q-74 0 -116.5 40t-42.5 109zM660 1347q0 69 42.5 109t116.5 40q75 0 117.5 -40
t42.5 -109t-42 -109t-118 -40q-74 0 -116.5 40t-42.5 109zM903 1627h-640v188h640v-188z" />
    <glyph glyph-name="Adotmacron" unicode="&#x1e0;" horiz-adv-x="1354" 
d="M414 0h-415l414 1365h532l410 -1365h-448l-59 258h-373zM675 1018h-21l-110 -465h237zM521 1603q0 69 43.5 114t112.5 45t116 -45t47 -114q0 -68 -46.5 -112t-116.5 -44q-69 0 -112.5 43.5t-43.5 112.5zM997 1786h-640v188h640v-188z" />
    <glyph glyph-name="adotmacron" unicode="&#x1e1;" horiz-adv-x="1155" 
d="M672 126q-23 -58 -89 -99.5t-176 -41.5q-162 0 -260 86.5t-98 240.5q0 153 102.5 241t289.5 88h231v79q0 42 -27.5 66t-73.5 24q-48 0 -77 -26.5t-29 -67.5h-378q1 55 14.5 104.5t48 100.5t87 88t139.5 60.5t199 23.5q107 0 194 -20.5t156 -65t107 -121.5t38 -182v-704
h-378v126h-20zM555 253q46 0 81.5 26t35.5 68v96h-104q-55 0 -89 -26t-34 -69q0 -44 32.5 -69.5t77.5 -25.5zM422 1316q0 69 43.5 114t112.5 45t116 -45t47 -114q0 -68 -46.5 -112t-116.5 -44q-69 0 -112.5 43.5t-43.5 112.5zM903 1627h-640v188h640v-188z" />
    <glyph glyph-name="AEmacron" unicode="&#x1e2;" horiz-adv-x="1957" 
d="M835 1043l-174 -499l236 1v498h-62zM897 234h-354l-90 -234h-454l560 1365h1313v-322h-563v-216h526v-292h-526v-212h563v-323h-975v234zM1681 1473h-640v188h640v-188z" />
    <glyph glyph-name="aemacron" unicode="&#x1e3;" horiz-adv-x="1809" 
d="M1250 -21q-295 0 -407 182h-18q-55 -78 -151 -130t-228 -52q-187 0 -292 88t-105 245q0 153 102.5 241t289.5 88h231v79q0 42 -27.5 66t-73.5 24q-48 0 -77 -26.5t-29 -67.5h-378q1 55 14.5 104.5t48 101.5t87 89.5t140 61.5t198.5 24q103 0 193 -33t143 -79h20
q46 50 127 81t177 31q237 0 380 -139.5t143 -383.5v-113h-659v-46q0 -70 44.5 -109t104.5 -39q62 0 104 29t43 78h360q-1 -52 -18 -104.5t-56 -105.5t-95.5 -93.5t-143.5 -66t-192 -25.5zM1239 822q-62 0 -101 -42t-39 -109h274q0 68 -36.5 109.5t-97.5 41.5zM555 253
q46 0 81.5 26t35.5 68v96h-104q-55 0 -89 -26t-34 -69q0 -44 32.5 -69.5t77.5 -25.5zM1230 1244h-640v188h640v-188z" />
    <glyph glyph-name="Gcaron" unicode="&#x1e6;" horiz-adv-x="1353" 
d="M1294 894h-405q-7 65 -57 111t-136 46q-104 0 -158 -75t-54 -218v-144q0 -50 5.5 -90.5t20.5 -81t39 -68t64.5 -44.5t93.5 -17q93 0 143.5 49.5t50.5 115.5v16h-170v278h563v-256q0 -83 -20 -159t-66 -146t-114 -121.5t-170.5 -82t-228.5 -30.5q-134 0 -242.5 34
t-180.5 93t-121 140.5t-70.5 173t-21.5 194.5v151q0 135 41.5 248.5t120.5 197.5t201.5 131t276.5 47q147 0 264.5 -43t187.5 -114.5t106.5 -157.5t36.5 -178zM277 1736h283l108 -109h23l100 109h284l-243 -253h-298z" />
    <glyph glyph-name="gcaron" unicode="&#x1e7;" horiz-adv-x="1257" 
d="M606 -123q151 0 151 168v145h-20q-28 -76 -106 -122.5t-192 -46.5q-179 0 -279.5 132t-100.5 385v32q0 253 100.5 385t279.5 132q114 0 192.5 -48.5t105.5 -131.5h20v171h405v-1075q0 -93 -36 -164.5t-92 -114.5t-133 -70.5t-150.5 -37.5t-153.5 -10q-132 0 -233.5 28.5
t-161.5 77.5t-90.5 109.5t-30.5 130.5h378q20 -75 147 -75zM618 781q-63 0 -100.5 -54t-37.5 -159v-57q0 -105 37.5 -159.5t100.5 -54.5t101 54.5t38 159.5v57q0 105 -38 159t-101 54zM235 1522h290l108 -159h17l90 159h301l-243 -323h-306z" />
    <glyph glyph-name="Kcaron" unicode="&#x1e8;" horiz-adv-x="1372" 
d="M1389 1365l-453 -598l465 -767h-486l-285 493l-95 -120v-373h-420v1365h420v-535h19l397 535h438zM286 1736h283l108 -109h23l100 109h284l-243 -253h-298z" />
    <glyph glyph-name="kcaron" unicode="&#x1e9;" horiz-adv-x="1244" 
d="M501 339v-339h-406v1437h406v-751h20l233 392h449l-344 -461l370 -617h-467l-219 399zM-94 1881h290l108 -159h17l90 159h301l-243 -323h-306z" />
    <glyph glyph-name="Oogonek" unicode="&#x1ea;" horiz-adv-x="1407" 
d="M489 753v-142q0 -146 56.5 -223.5t158.5 -77.5q101 0 157.5 77.5t56.5 223.5v142q0 145 -56.5 223t-157.5 78q-102 0 -158.5 -78t-56.5 -223zM651 -16q-170 0 -305.5 81.5t-211 225t-75.5 322.5v134q0 296 168.5 468t476.5 172t476 -173t168 -467v-134q0 -79 -15 -148.5
t-34 -115.5t-54 -95.5t-57 -73.5t-62 -64q-10 -10 -39 -38t-39.5 -39.5t-27.5 -33.5t-23 -41.5t-6 -41.5q0 -50 34 -72.5t87 -22.5q48 0 74 8v-206q-94 -24 -180 -23q-134 2 -203.5 58.5t-71.5 148.5q-1 90 76 177l-8 16q-49 -22 -148 -22z" />
    <glyph glyph-name="oogonek" unicode="&#x1eb;" horiz-adv-x="1181" 
d="M591 807q-128 0 -128 -227v-81q0 -228 128 -228q127 0 127 228v81q0 227 -127 227zM656 7q-96 -18 -144 -18q-205 0 -333 143t-128 384v53q0 238 144.5 384t396.5 146q251 0 394.5 -144.5t143.5 -382.5v-54q0 -77 -13 -142t-29.5 -106.5t-47 -83t-50.5 -61.5t-56 -52
q-53 -48 -75.5 -79t-22.5 -72q0 -52 34.5 -76.5t89.5 -24.5q34 0 70 6v-198q-69 -23 -166 -23q-55 0 -104 10.5t-92 33t-68 63t-25 94.5q0 108 90 183z" />
    <glyph glyph-name="Oogonekmacron" unicode="&#x1ec;" horiz-adv-x="1407" 
d="M489 753v-142q0 -146 56.5 -223.5t158.5 -77.5q101 0 157.5 77.5t56.5 223.5v142q0 145 -56.5 223t-157.5 78q-102 0 -158.5 -78t-56.5 -223zM651 -16q-170 0 -305.5 81.5t-211 225t-75.5 322.5v134q0 296 168.5 468t476.5 172t476 -173t168 -467v-134q0 -79 -15 -148.5
t-34 -115.5t-54 -95.5t-57 -73.5t-62 -64q-10 -10 -39 -38t-39.5 -39.5t-27.5 -33.5t-23 -41.5t-6 -41.5q0 -50 34 -72.5t87 -22.5q48 0 74 8v-206q-94 -24 -180 -23q-134 2 -203.5 58.5t-71.5 148.5q-1 90 76 177l-8 16q-49 -22 -148 -22zM1024 1473h-640v188h640v-188z
" />
    <glyph glyph-name="oogonekmacron" unicode="&#x1ed;" horiz-adv-x="1181" 
d="M591 807q-128 0 -128 -227v-81q0 -228 128 -228q127 0 127 228v81q0 227 -127 227zM656 7q-96 -18 -144 -18q-205 0 -333 143t-128 384v53q0 238 144.5 384t396.5 146q251 0 394.5 -144.5t143.5 -382.5v-54q0 -77 -13 -142t-29.5 -106.5t-47 -83t-50.5 -61.5t-56 -52
q-53 -48 -75.5 -79t-22.5 -72q0 -52 34.5 -76.5t89.5 -24.5q34 0 70 6v-198q-69 -23 -166 -23q-55 0 -104 10.5t-92 33t-68 63t-25 94.5q0 108 90 183zM916 1244h-640v188h640v-188z" />
    <glyph glyph-name="Gacute" unicode="&#x1f4;" horiz-adv-x="1353" 
d="M1294 894h-405q-7 65 -57 111t-136 46q-104 0 -158 -75t-54 -218v-144q0 -50 5.5 -90.5t20.5 -81t39 -68t64.5 -44.5t93.5 -17q93 0 143.5 49.5t50.5 115.5v16h-170v278h563v-256q0 -83 -20 -159t-66 -146t-114 -121.5t-170.5 -82t-228.5 -30.5q-134 0 -242.5 34
t-180.5 93t-121 140.5t-70.5 173t-21.5 194.5v151q0 135 41.5 248.5t120.5 197.5t201.5 131t276.5 47q147 0 264.5 -43t187.5 -114.5t106.5 -157.5t36.5 -178zM445 1493l293 248h401l-346 -248h-348z" />
    <glyph glyph-name="gacute" unicode="&#x1f5;" horiz-adv-x="1257" 
d="M606 -123q151 0 151 168v145h-20q-28 -76 -106 -122.5t-192 -46.5q-179 0 -279.5 132t-100.5 385v32q0 253 100.5 385t279.5 132q114 0 192.5 -48.5t105.5 -131.5h20v171h405v-1075q0 -93 -36 -164.5t-92 -114.5t-133 -70.5t-150.5 -37.5t-153.5 -10q-132 0 -233.5 28.5
t-161.5 77.5t-90.5 109.5t-30.5 130.5h378q20 -75 147 -75zM618 781q-63 0 -100.5 -54t-37.5 -159v-57q0 -105 37.5 -159.5t100.5 -54.5t101 54.5t38 159.5v57q0 105 -38 159t-101 54zM828 1243h-348l233 318h401z" />
    <glyph glyph-name="Ngrave" unicode="&#x1f8;" horiz-adv-x="1411" 
d="M500 0h-385v1365h315l465 -660h16v660h385v-1365h-312l-468 672h-16v-672zM889 1493h-327l-325 233h377z" />
    <glyph glyph-name="ngrave" unicode="&#x1f9;" horiz-adv-x="1256" 
d="M95 0v1078h391v-181h20q24 75 103.5 135.5t207.5 60.5q164 0 256.5 -100.5t92.5 -294.5v-698h-405v596q0 50 -12.5 85t-33.5 51.5t-41 23t-42 6.5q-54 0 -93 -42.5t-39 -126.5v-593h-405zM884 1250h-349l-303 311h401z" />
    <glyph glyph-name="Aringacute" unicode="&#x1fa;" horiz-adv-x="1354" 
d="M583 1650l293 248h401l-346 -248h-348zM548 1415q0 -51 34 -83.5t87 -32.5q50 0 85 33t35 83q0 52 -34.5 84.5t-85.5 32.5q-53 0 -87 -32t-34 -85zM781 553l-106 465h-21l-110 -465h237zM414 0h-415l372 1225q-58 86 -58 194q0 147 103 246.5t253 99.5t253.5 -100
t103.5 -246q0 -95 -45 -173l374 -1246h-448l-59 258h-373z" />
    <glyph glyph-name="aringacute" unicode="&#x1fb;" horiz-adv-x="1155" 
d="M788 1541h-294l198 270h341zM672 126q-23 -58 -89 -99.5t-176 -41.5q-162 0 -260 86.5t-98 240.5q0 153 102.5 241t289.5 88h231v79q0 42 -27.5 66t-73.5 24q-48 0 -77 -26.5t-29 -67.5h-378q1 55 14.5 104.5t48 100.5t87 88t139.5 60.5t199 23.5q107 0 194 -20.5
t156 -65t107 -121.5t38 -182v-704h-378v126h-20zM555 253q46 0 81.5 26t35.5 68v96h-104q-55 0 -89 -26t-34 -69q0 -44 32.5 -69.5t77.5 -25.5zM580 1169q-109 0 -180.5 67t-71.5 175q0 107 71 173t181 66t180.5 -66t70.5 -173q0 -108 -71 -175t-180 -67zM497 1409
q0 -36 23 -58.5t59 -22.5t59.5 22.5t23.5 58.5t-23.5 59t-59.5 23t-59 -23t-23 -59z" />
    <glyph glyph-name="AEacute" unicode="&#x1fc;" horiz-adv-x="1957" 
d="M835 1043l-174 -499l236 1v498h-62zM897 234h-354l-90 -234h-454l560 1365h1313v-322h-563v-216h526v-292h-526v-212h563v-323h-975v234zM1129 1493l293 248h401l-346 -248h-348z" />
    <glyph glyph-name="aeacute" unicode="&#x1fd;" horiz-adv-x="1809" 
d="M1250 -21q-295 0 -407 182h-18q-55 -78 -151 -130t-228 -52q-187 0 -292 88t-105 245q0 153 102.5 241t289.5 88h231v79q0 42 -27.5 66t-73.5 24q-48 0 -77 -26.5t-29 -67.5h-378q1 55 14.5 104.5t48 101.5t87 89.5t140 61.5t198.5 24q103 0 193 -33t143 -79h20
q46 50 127 81t177 31q237 0 380 -139.5t143 -383.5v-113h-659v-46q0 -70 44.5 -109t104.5 -39q62 0 104 29t43 78h360q-1 -52 -18 -104.5t-56 -105.5t-95.5 -93.5t-143.5 -66t-192 -25.5zM1239 822q-62 0 -101 -42t-39 -109h274q0 68 -36.5 109.5t-97.5 41.5zM555 253
q46 0 81.5 26t35.5 68v96h-104q-55 0 -89 -26t-34 -69q0 -44 32.5 -69.5t77.5 -25.5zM1104 1243h-348l233 318h401z" />
    <glyph glyph-name="Oslashacute" unicode="&#x1fe;" horiz-adv-x="1407" 
d="M704 -23q-219 0 -372 91l-96 -117l-158 128l102 125q-121 160 -121 409v134q0 296 168.5 468t476.5 172q220 0 371 -91l77 94l162 -121l-88 -108q122 -163 122 -414v-134q0 -293 -168 -464.5t-476 -171.5zM475 605q0 -32 1 -41l367 450q-55 51 -141 51
q-108 0 -167.5 -80.5t-59.5 -230.5v-149zM702 294q107 0 167.5 80t60.5 231v149q0 34 -1 45l-370 -453q55 -52 143 -52zM472 1493l293 248h401l-346 -248h-348z" />
    <glyph glyph-name="oslashacute" unicode="&#x1ff;" horiz-adv-x="1181" 
d="M479 340q34 -76 112 -76q138 0 138 237v84v14zM453 501v-22l250 267q-33 75 -112 75q-138 0 -138 -236v-84zM592 -21q-204 0 -336 88l-109 -114l-118 111l112 116q-90 131 -90 336v53q0 238 144.5 384t396.5 146q195 0 327 -90l103 108l131 -113l-111 -117
q88 -129 88 -315v-54q0 -259 -141 -399t-397 -140zM790 1243h-348l233 318h401z" />
    <glyph glyph-name="Adblgrave" unicode="&#x200;" horiz-adv-x="1354" 
d="M414 0h-415l414 1365h532l410 -1365h-448l-59 258h-373zM675 1018h-21l-110 -465h237zM1064 1494h-258l-346 248h311zM604 1494h-258l-346 248h311z" />
    <glyph glyph-name="adblgrave" unicode="&#x201;" horiz-adv-x="1155" 
d="M672 126q-23 -58 -89 -99.5t-176 -41.5q-162 0 -260 86.5t-98 240.5q0 153 102.5 241t289.5 88h231v79q0 42 -27.5 66t-73.5 24q-48 0 -77 -26.5t-29 -67.5h-378q1 55 14.5 104.5t48 100.5t87 88t139.5 60.5t199 23.5q107 0 194 -20.5t156 -65t107 -121.5t38 -182v-704
h-378v126h-20zM555 253q46 0 81.5 26t35.5 68v96h-104q-55 0 -89 -26t-34 -69q0 -44 32.5 -69.5t77.5 -25.5zM278 1244l-303 351h281l251 -351h-229zM701 1244l-303 351h281l251 -351h-229z" />
    <glyph glyph-name="Ainvertedbreve" unicode="&#x202;" horiz-adv-x="1354" 
d="M414 0h-415l414 1365h532l410 -1365h-448l-59 258h-373zM675 1018h-21l-110 -465h237zM677 1590q-70 0 -109.5 -33.5t-39.5 -95.5h-212q0 154 100 239.5t261 85.5q160 0 258 -86t98 -239h-207q0 62 -39.5 95.5t-109.5 33.5z" />
    <glyph glyph-name="ainvertedbreve" unicode="&#x203;" horiz-adv-x="1155" 
d="M672 126q-23 -58 -89 -99.5t-176 -41.5q-162 0 -260 86.5t-98 240.5q0 153 102.5 241t289.5 88h231v79q0 42 -27.5 66t-73.5 24q-48 0 -77 -26.5t-29 -67.5h-378q1 55 14.5 104.5t48 100.5t87 88t139.5 60.5t199 23.5q107 0 194 -20.5t156 -65t107 -121.5t38 -182v-704
h-378v126h-20zM555 253q46 0 81.5 26t35.5 68v96h-104q-55 0 -89 -26t-34 -69q0 -44 32.5 -69.5t77.5 -25.5zM217 1219q0 159 99.5 259.5t261.5 100.5t259 -100.5t97 -259.5h-207q0 69 -38 116.5t-111 47.5t-111 -47.5t-38 -116.5h-212z" />
    <glyph glyph-name="Edblgrave" unicode="&#x204;" horiz-adv-x="1173" 
d="M1088 323v-323h-973v1365h973v-323h-558v-215h521v-292h-521v-212h558zM974 1494h-258l-346 248h311zM514 1494h-258l-346 248h311z" />
    <glyph glyph-name="edblgrave" unicode="&#x205;" horiz-adv-x="1154" 
d="M595 -21q-120 0 -218.5 32t-172 95.5t-113.5 166t-40 235.5v66q0 132 42.5 234.5t116 165t167.5 94t203 31.5q236 0 379.5 -140.5t143.5 -384.5v-113h-659v-46q0 -70 44.5 -109t104.5 -39q62 0 104 29t43 78h360q-1 -52 -18 -104.5t-56 -105.5t-95.5 -93.5t-143.5 -66
t-192 -25.5zM444 671h274q0 68 -36.5 109.5t-97.5 41.5q-62 0 -101 -42t-39 -109zM277 1244l-303 351h281l251 -351h-229zM700 1244l-303 351h281l251 -351h-229z" />
    <glyph glyph-name="Einvertedbreve" unicode="&#x206;" horiz-adv-x="1173" 
d="M1088 323v-323h-973v1365h973v-323h-558v-215h521v-292h-521v-212h558zM587 1590q-70 0 -109.5 -33.5t-39.5 -95.5h-212q0 154 100 239.5t261 85.5q160 0 258 -86t98 -239h-207q0 62 -39.5 95.5t-109.5 33.5z" />
    <glyph glyph-name="einvertedbreve" unicode="&#x207;" horiz-adv-x="1154" 
d="M595 -21q-120 0 -218.5 32t-172 95.5t-113.5 166t-40 235.5v66q0 132 42.5 234.5t116 165t167.5 94t203 31.5q236 0 379.5 -140.5t143.5 -384.5v-113h-659v-46q0 -70 44.5 -109t104.5 -39q62 0 104 29t43 78h360q-1 -52 -18 -104.5t-56 -105.5t-95.5 -93.5t-143.5 -66
t-192 -25.5zM444 671h274q0 68 -36.5 109.5t-97.5 41.5q-62 0 -101 -42t-39 -109zM216 1219q0 159 99.5 259.5t261.5 100.5t259 -100.5t97 -259.5h-207q0 69 -38 116.5t-111 47.5t-111 -47.5t-38 -116.5h-212z" />
    <glyph glyph-name="Idblgrave" unicode="&#x208;" horiz-adv-x="650" 
d="M535 0h-420v1365h420v-1365zM712 1494h-258l-346 248h311zM252 1494h-258l-346 248h311z" />
    <glyph glyph-name="idblgrave" unicode="&#x209;" horiz-adv-x="615" 
d="M113 0v1078h419v-1078h-419zM19 1244l-303 351h281l251 -351h-229zM442 1244l-303 351h281l251 -351h-229z" />
    <glyph glyph-name="Iinvertedbreve" unicode="&#x20a;" horiz-adv-x="650" 
d="M535 0h-420v1365h420v-1365zM325 1590q-70 0 -109.5 -33.5t-39.5 -95.5h-212q0 154 100 239.5t261 85.5q160 0 258 -86t98 -239h-207q0 62 -39.5 95.5t-109.5 33.5z" />
    <glyph glyph-name="iinvertedbreve" unicode="&#x20b;" horiz-adv-x="615" 
d="M113 0v1078h419v-1078h-419zM-42 1219q0 159 99.5 259.5t261.5 100.5t259 -100.5t97 -259.5h-207q0 69 -38 116.5t-111 47.5t-111 -47.5t-38 -116.5h-212z" />
    <glyph glyph-name="Odblgrave" unicode="&#x20c;" horiz-adv-x="1407" 
d="M489 753v-142q0 -146 56.5 -223.5t158.5 -77.5q101 0 157.5 77.5t56.5 223.5v142q0 145 -56.5 223t-157.5 78q-102 0 -158.5 -78t-56.5 -223zM59 613v134q0 296 168.5 468t476.5 172t476 -173t168 -467v-134q0 -293 -168 -464.5t-476 -171.5t-476.5 172t-168.5 464z
M1091 1494h-258l-346 248h311zM631 1494h-258l-346 248h311z" />
    <glyph glyph-name="odblgrave" unicode="&#x20d;" horiz-adv-x="1181" 
d="M592 1099q251 0 394.5 -144.5t143.5 -382.5v-54q0 -259 -141 -399t-397 -140q-258 0 -399.5 139.5t-141.5 397.5v53q0 238 144.5 384t396.5 146zM591 807q-128 0 -128 -227v-81q0 -228 128 -228q127 0 127 228v81q0 227 -127 227zM291 1244l-303 351h281l251 -351h-229z
M714 1244l-303 351h281l251 -351h-229z" />
    <glyph glyph-name="Oinvertedbreve" unicode="&#x20e;" horiz-adv-x="1407" 
d="M489 753v-142q0 -146 56.5 -223.5t158.5 -77.5q101 0 157.5 77.5t56.5 223.5v142q0 145 -56.5 223t-157.5 78q-102 0 -158.5 -78t-56.5 -223zM59 613v134q0 296 168.5 468t476.5 172t476 -173t168 -467v-134q0 -293 -168 -464.5t-476 -171.5t-476.5 172t-168.5 464z
M704 1590q-70 0 -109.5 -33.5t-39.5 -95.5h-212q0 154 100 239.5t261 85.5q160 0 258 -86t98 -239h-207q0 62 -39.5 95.5t-109.5 33.5z" />
    <glyph glyph-name="oinvertedbreve" unicode="&#x20f;" horiz-adv-x="1181" 
d="M592 1099q251 0 394.5 -144.5t143.5 -382.5v-54q0 -259 -141 -399t-397 -140q-258 0 -399.5 139.5t-141.5 397.5v53q0 238 144.5 384t396.5 146zM591 807q-128 0 -128 -227v-81q0 -228 128 -228q127 0 127 228v81q0 227 -127 227zM230 1219q0 159 99.5 259.5t261.5 100.5
t259 -100.5t97 -259.5h-207q0 69 -38 116.5t-111 47.5t-111 -47.5t-38 -116.5h-212z" />
    <glyph glyph-name="Rdblgrave" unicode="&#x210;" horiz-adv-x="1334" 
d="M741 1365q262 0 401.5 -126.5t139.5 -343.5q0 -64 -17.5 -123t-44 -101t-60.5 -76.5t-62.5 -54.5t-54.5 -32l268 -508h-461l-219 455h-105v-455h-411v1365h626zM526 735h151q74 0 123 41.5t49 120.5q0 80 -50.5 123.5t-121.5 43.5h-151v-329zM1054 1494h-258l-346 248
h311zM594 1494h-258l-346 248h311z" />
    <glyph glyph-name="rdblgrave" unicode="&#x211;" horiz-adv-x="889" 
d="M95 0v1078h406v-173h20q13 67 75 127.5t156 60.5q84 0 114 -12v-338q-39 17 -136 17q-215 0 -215 -227v-533h-420zM145 1244l-303 351h281l251 -351h-229zM568 1244l-303 351h281l251 -351h-229z" />
    <glyph glyph-name="Rinvertedbreve" unicode="&#x212;" horiz-adv-x="1334" 
d="M741 1365q262 0 401.5 -126.5t139.5 -343.5q0 -64 -17.5 -123t-44 -101t-60.5 -76.5t-62.5 -54.5t-54.5 -32l268 -508h-461l-219 455h-105v-455h-411v1365h626zM526 735h151q74 0 123 41.5t49 120.5q0 80 -50.5 123.5t-121.5 43.5h-151v-329zM667 1590
q-70 0 -109.5 -33.5t-39.5 -95.5h-212q0 154 100 239.5t261 85.5q160 0 258 -86t98 -239h-207q0 62 -39.5 95.5t-109.5 33.5z" />
    <glyph glyph-name="rinvertedbreve" unicode="&#x213;" horiz-adv-x="889" 
d="M95 0v1078h406v-173h20q13 67 75 127.5t156 60.5q84 0 114 -12v-338q-39 17 -136 17q-215 0 -215 -227v-533h-420zM84 1219q0 159 99.5 259.5t261.5 100.5t259 -100.5t97 -259.5h-207q0 69 -38 116.5t-111 47.5t-111 -47.5t-38 -116.5h-212z" />
    <glyph glyph-name="Udblgrave" unicode="&#x214;" horiz-adv-x="1408" 
d="M520 1365v-834q0 -108 49.5 -159t134.5 -51q84 0 134 52t50 158v834h420v-893q0 -227 -162.5 -361t-441.5 -134t-441.5 134t-162.5 361v893h420zM1091 1494h-258l-346 248h311zM631 1494h-258l-346 248h311z" />
    <glyph glyph-name="udblgrave" unicode="&#x215;" horiz-adv-x="1255" 
d="M1160 1078v-1078h-391v181h-20q-24 -75 -103.5 -135.5t-207.5 -60.5q-164 0 -256 99.5t-92 293.5v700h405v-598q0 -50 12.5 -85t33.5 -51.5t40.5 -23t41.5 -6.5q54 0 93 42.5t39 126.5v595h405zM328 1244l-303 351h281l251 -351h-229zM751 1244l-303 351h281l251 -351
h-229z" />
    <glyph glyph-name="Uinvertedbreve" unicode="&#x216;" horiz-adv-x="1408" 
d="M520 1365v-834q0 -108 49.5 -159t134.5 -51q84 0 134 52t50 158v834h420v-893q0 -227 -162.5 -361t-441.5 -134t-441.5 134t-162.5 361v893h420zM704 1590q-70 0 -109.5 -33.5t-39.5 -95.5h-212q0 154 100 239.5t261 85.5q160 0 258 -86t98 -239h-207q0 62 -39.5 95.5
t-109.5 33.5z" />
    <glyph glyph-name="uinvertedbreve" unicode="&#x217;" horiz-adv-x="1255" 
d="M1160 1078v-1078h-391v181h-20q-24 -75 -103.5 -135.5t-207.5 -60.5q-164 0 -256 99.5t-92 293.5v700h405v-598q0 -50 12.5 -85t33.5 -51.5t40.5 -23t41.5 -6.5q54 0 93 42.5t39 126.5v595h405zM267 1219q0 159 99.5 259.5t261.5 100.5t259 -100.5t97 -259.5h-207
q0 69 -38 116.5t-111 47.5t-111 -47.5t-38 -116.5h-212z" />
    <glyph glyph-name="Scommaaccent" unicode="&#x218;" horiz-adv-x="1288" 
d="M57 418h394q2 -53 55 -93t145 -40q90 0 131 30t41 77q0 49 -45 73.5t-146 42.5l-165 29q-388 69 -388 406q0 209 154 326.5t413 117.5q139 0 249 -37t176 -99.5t100 -138t34 -157.5h-380q-2 49 -48 89t-130 40q-76 0 -114 -30t-38 -77q0 -79 178 -106l175 -27
q61 -9 113 -26t103.5 -48.5t87.5 -75t58.5 -109.5t22.5 -148q0 -208 -150.5 -334t-440.5 -126q-130 0 -232.5 26t-167 68.5t-107.5 101t-60.5 119t-17.5 126.5zM672 -489h-248l85 335h277z" />
    <glyph glyph-name="scommaaccent" unicode="&#x219;" horiz-adv-x="1097" 
d="M70 745q0 94 38.5 164t107 110.5t153 60t186.5 19.5q133 0 233 -35t161 -112.5t61 -190.5h-348q-6 37 -34.5 62.5t-75.5 25.5q-51 0 -76 -21.5t-25 -54.5q0 -17 10 -31t30.5 -24t42 -17.5t53 -13.5t55 -9.5t57 -7.5t49.5 -7q302 -48 302 -310q0 -174 -131.5 -274
t-382.5 -100q-238 0 -364.5 96t-126.5 247h392q2 -38 35.5 -64.5t83.5 -26.5q52 0 78 21t26 55q0 22 -14 37t-44 24.5t-56.5 14.5t-74 12t-73.5 12q-149 28 -238.5 109.5t-89.5 228.5zM577 -489h-248l85 335h277z" />
    <glyph glyph-name="Tcommaaccent" unicode="&#x21a;" horiz-adv-x="1128" 
d="M774 0h-420v1029h-347v336h1114v-336h-347v-1029zM592 -489h-248l85 335h277z" />
    <glyph glyph-name="tcommaaccent" unicode="&#x21b;" horiz-adv-x="872" 
d="M206 1053v264h389v-264h202v-296h-202v-357q0 -107 128 -107q54 0 74 2v-285q-73 -10 -171 -10q-223 0 -327.5 70t-104.5 240v447h-164v296h176zM520 -489h-248l85 335h277z" />
    <glyph glyph-name="Hcaron" unicode="&#x21e;" horiz-adv-x="1465" 
d="M1350 0h-420v517h-395v-517h-420v1365h420v-515h395v515h420v-1365zM333 1736h283l108 -109h23l100 109h284l-243 -253h-298z" />
    <glyph glyph-name="hcaron" unicode="&#x21f;" horiz-adv-x="1261" 
d="M100 0v1437h405v-540h20q10 33 32 65t57.5 62.5t90.5 49.5t121 19q163 0 256.5 -101t93.5 -294v-698h-405v596q0 50 -12.5 85t-33.5 51.5t-41.5 23t-43.5 6.5q-55 0 -95 -42.5t-40 -126.5v-593h-405zM-89 1881h290l108 -159h17l90 159h301l-243 -323h-306z" />
    <glyph glyph-name="Adotaccent" unicode="&#x226;" horiz-adv-x="1354" 
d="M414 0h-415l414 1365h532l410 -1365h-448l-59 258h-373zM675 1018h-21l-110 -465h237zM521 1603q0 69 43.5 114t112.5 45t116 -45t47 -114q0 -68 -46.5 -112t-116.5 -44q-69 0 -112.5 43.5t-43.5 112.5z" />
    <glyph glyph-name="adotaccent" unicode="&#x227;" horiz-adv-x="1155" 
d="M672 126q-23 -58 -89 -99.5t-176 -41.5q-162 0 -260 86.5t-98 240.5q0 153 102.5 241t289.5 88h231v79q0 42 -27.5 66t-73.5 24q-48 0 -77 -26.5t-29 -67.5h-378q1 55 14.5 104.5t48 100.5t87 88t139.5 60.5t199 23.5q107 0 194 -20.5t156 -65t107 -121.5t38 -182v-704
h-378v126h-20zM555 253q46 0 81.5 26t35.5 68v96h-104q-55 0 -89 -26t-34 -69q0 -44 32.5 -69.5t77.5 -25.5zM422 1316q0 69 43.5 114t112.5 45t116 -45t47 -114q0 -68 -46.5 -112t-116.5 -44q-69 0 -112.5 43.5t-43.5 112.5z" />
    <glyph glyph-name="Ecedilla" unicode="&#x228;" horiz-adv-x="1173" 
d="M585 -477q-95 0 -141 16v149q44 -13 105 -13q99 0 99 39q0 25 -19.5 37t-86.5 12h-58v134l40 103h-409v1365h973v-323h-558v-215h521v-292h-521v-212h558v-323h-355l-40 -94q78 0 123.5 -49t45.5 -128q0 -206 -277 -206z" />
    <glyph glyph-name="ecedilla" unicode="&#x229;" horiz-adv-x="1154" 
d="M444 671h274q0 68 -36.5 109.5t-97.5 41.5q-62 0 -101 -42t-39 -109zM574 -477q-95 0 -141 16v149q44 -13 105 -13q99 0 99 39q0 25 -19.5 37t-86.5 12h-58v134l34 87q-211 22 -333.5 154t-122.5 370v66q0 132 42.5 234.5t116 165t167.5 94t203 31.5q236 0 379.5 -140.5
t143.5 -384.5v-113h-659v-46q0 -70 44.5 -109t104.5 -39q62 0 104 29t43 78h360q-1 -45 -14 -91.5t-43 -94t-73 -87t-108.5 -70t-144.5 -43.5l-35 -82q78 0 123.5 -49t45.5 -128q0 -206 -277 -206z" />
    <glyph glyph-name="Odieresismacron" unicode="&#x22a;" horiz-adv-x="1407" 
d="M489 753v-142q0 -146 56.5 -223.5t158.5 -77.5q101 0 157.5 77.5t56.5 223.5v142q0 145 -56.5 223t-157.5 78q-102 0 -158.5 -78t-56.5 -223zM59 613v134q0 296 168.5 468t476.5 172t476 -173t168 -467v-134q0 -293 -168 -464.5t-476 -171.5t-476.5 172t-168.5 464z
M339 1577q0 63 39 100t107 37q70 0 108.5 -37t38.5 -100t-38.5 -100t-108.5 -37q-68 0 -107 37t-39 100zM772 1577q0 63 38 100t108 37q69 0 108 -37t39 -100t-38.5 -100t-108.5 -37t-108 37t-38 100zM1024 1786h-640v188h640v-188z" />
    <glyph glyph-name="odieresismacron" unicode="&#x22b;" horiz-adv-x="1181" 
d="M592 1099q251 0 394.5 -144.5t143.5 -382.5v-54q0 -259 -141 -399t-397 -140q-258 0 -399.5 139.5t-141.5 397.5v53q0 238 144.5 384t396.5 146zM591 807q-128 0 -128 -227v-81q0 -228 128 -228q127 0 127 228v81q0 227 -127 227zM205 1347q0 69 42.5 109t116.5 40
q75 0 118 -40t43 -109t-42.5 -109t-118.5 -40q-74 0 -116.5 40t-42.5 109zM673 1347q0 69 42.5 109t116.5 40q75 0 117.5 -40t42.5 -109t-42 -109t-118 -40q-74 0 -116.5 40t-42.5 109zM916 1627h-640v188h640v-188z" />
    <glyph glyph-name="Otildemacron" unicode="&#x22c;" horiz-adv-x="1407" 
d="M489 753v-142q0 -146 56.5 -223.5t158.5 -77.5q101 0 157.5 77.5t56.5 223.5v142q0 145 -56.5 223t-157.5 78q-102 0 -158.5 -78t-56.5 -223zM59 613v134q0 296 168.5 468t476.5 172t476 -173t168 -467v-134q0 -293 -168 -464.5t-476 -171.5t-476.5 172t-168.5 464z
M700 1493q-6 5 -18.5 17t-20 18.5t-21 12.5t-27.5 6q-65 0 -70 -76h-187q0 95 57 171t157 76q60 0 94 -14t72 -45q6 -5 19 -16.5t18.5 -15.5t15.5 -10.5t18 -8.5t18 -2q63 0 63 97h188q0 -112 -65 -185t-161 -73q-44 0 -76 8.5t-44 16.5t-30 23zM1024 1786h-640v188h640
v-188z" />
    <glyph glyph-name="otildemacron" unicode="&#x22d;" horiz-adv-x="1181" 
d="M592 1099q251 0 394.5 -144.5t143.5 -382.5v-54q0 -259 -141 -399t-397 -140q-258 0 -399.5 139.5t-141.5 397.5v53q0 238 144.5 384t396.5 146zM591 807q-128 0 -128 -227v-81q0 -228 128 -228q127 0 127 228v81q0 227 -127 227zM560 1258q-47 45 -91 45q-77 0 -82 -91
h-214q0 96 27 173t89 127.5t151 50.5q54 0 92.5 -19t84.5 -61q3 -3 10.5 -10t11 -9.5t10.5 -8.5t11 -8.5t10.5 -6.5t12 -5.5t12.5 -3t14 -1.5q72 0 72 115h214q0 -148 -79 -250t-203 -102q-38 0 -71 12t-47 23t-35 30zM916 1627h-640v188h640v-188z" />
    <glyph glyph-name="Odotaccent" unicode="&#x22e;" horiz-adv-x="1407" 
d="M489 753v-142q0 -146 56.5 -223.5t158.5 -77.5q101 0 157.5 77.5t56.5 223.5v142q0 145 -56.5 223t-157.5 78q-102 0 -158.5 -78t-56.5 -223zM59 613v134q0 296 168.5 468t476.5 172t476 -173t168 -467v-134q0 -293 -168 -464.5t-476 -171.5t-476.5 172t-168.5 464z
M548 1603q0 69 43.5 114t112.5 45t116 -45t47 -114q0 -68 -46.5 -112t-116.5 -44q-69 0 -112.5 43.5t-43.5 112.5z" />
    <glyph glyph-name="odotaccent" unicode="&#x22f;" horiz-adv-x="1181" 
d="M592 1099q251 0 394.5 -144.5t143.5 -382.5v-54q0 -259 -141 -399t-397 -140q-258 0 -399.5 139.5t-141.5 397.5v53q0 238 144.5 384t396.5 146zM591 807q-128 0 -128 -227v-81q0 -228 128 -228q127 0 127 228v81q0 227 -127 227zM435 1316q0 69 43.5 114t112.5 45
t116 -45t47 -114q0 -68 -46.5 -112t-116.5 -44q-69 0 -112.5 43.5t-43.5 112.5z" />
    <glyph glyph-name="Odotaccentmacron" unicode="&#x230;" horiz-adv-x="1407" 
d="M489 753v-142q0 -146 56.5 -223.5t158.5 -77.5q101 0 157.5 77.5t56.5 223.5v142q0 145 -56.5 223t-157.5 78q-102 0 -158.5 -78t-56.5 -223zM59 613v134q0 296 168.5 468t476.5 172t476 -173t168 -467v-134q0 -293 -168 -464.5t-476 -171.5t-476.5 172t-168.5 464z
M548 1603q0 69 43.5 114t112.5 45t116 -45t47 -114q0 -68 -46.5 -112t-116.5 -44q-69 0 -112.5 43.5t-43.5 112.5zM1024 1786h-640v188h640v-188z" />
    <glyph glyph-name="odotaccentmacron" unicode="&#x231;" horiz-adv-x="1181" 
d="M592 1099q251 0 394.5 -144.5t143.5 -382.5v-54q0 -259 -141 -399t-397 -140q-258 0 -399.5 139.5t-141.5 397.5v53q0 238 144.5 384t396.5 146zM591 807q-128 0 -128 -227v-81q0 -228 128 -228q127 0 127 228v81q0 227 -127 227zM435 1316q0 69 43.5 114t112.5 45
t116 -45t47 -114q0 -68 -46.5 -112t-116.5 -44q-69 0 -112.5 43.5t-43.5 112.5zM916 1627h-640v188h640v-188z" />
    <glyph glyph-name="Ymacron" unicode="&#x232;" horiz-adv-x="1251" 
d="M836 0h-420v411l-457 954h455l212 -537h15l214 537h438l-457 -941v-424zM946 1473h-640v188h640v-188z" />
    <glyph glyph-name="ymacron" unicode="&#x233;" horiz-adv-x="1171" 
d="M1172 1078q-298 -970 -307 -994l-27 -71q-36 -95 -80.5 -161.5t-111 -118.5t-161.5 -77t-222 -25q-133 0 -204 16v267q32 -8 101 -8q99 0 136.5 25.5t37.5 78.5v7l-335 1061h446l135 -766h16l146 766h430zM911 1244h-640v188h640v-188z" />
    <glyph glyph-name="circumflex" unicode="&#x2c6;" horiz-adv-x="950" 
d="M94 1227l257 323h306l243 -323h-301l-90 159h-17l-108 -159h-290z" />
    <glyph glyph-name="caron" unicode="&#x2c7;" horiz-adv-x="950" 
d="M83 1550h290l108 -159h17l90 159h301l-243 -323h-306z" />
    <glyph glyph-name="breve" unicode="&#x2d8;" horiz-adv-x="950" 
d="M121 1577h212q0 -69 38 -116.5t111 -47.5t111 47.5t38 116.5h207q0 -159 -97 -259.5t-259 -100.5t-261.5 100.5t-99.5 259.5z" />
    <glyph glyph-name="dotaccent" unicode="&#x2d9;" horiz-adv-x="950" 
d="M243 1508q0 101 65 159t164 58t164 -59t65 -158q0 -100 -65 -157.5t-164 -57.5t-164 57.5t-65 157.5z" />
    <glyph glyph-name="ring" unicode="&#x2da;" horiz-adv-x="950" 
d="M458 1203q-109 0 -180.5 67t-71.5 175q0 107 71 173t181 66t180.5 -66t70.5 -173q0 -108 -71 -175t-180 -67zM375 1443q0 -36 23 -58.5t59 -22.5t59.5 22.5t23.5 58.5t-23.5 59t-59.5 23t-59 -23t-23 -59z" />
    <glyph glyph-name="ogonek" unicode="&#x2db;" horiz-adv-x="950" 
d="M719 -170v-196q-77 -29 -177 -29q-137 0 -204 60.5t-67 152.5q0 178 201 305h211q-75 -48 -117.5 -96t-42.5 -111q0 -48 34.5 -73t85.5 -25q33 0 76 12z" />
    <glyph glyph-name="tilde" unicode="&#x2dc;" horiz-adv-x="950" 
d="M454 1285q-47 45 -91 45q-77 0 -82 -91h-214q0 96 27 173t89 127.5t151 50.5q54 0 92.5 -19t84.5 -61q3 -3 10.5 -10t11 -9.5t10.5 -8.5t11 -8.5t10.5 -6.5t12 -5.5t12.5 -3t14 -1.5q72 0 72 115h214q0 -148 -79 -250t-203 -102q-38 0 -71 12t-47 23t-35 30z" />
    <glyph glyph-name="hungarumlaut" unicode="&#x2dd;" horiz-adv-x="950" 
d="M242 1250h-229l251 351h281zM665 1250h-229l251 351h281z" />
    <glyph glyph-name="gravecmb" unicode="&#x300;" 
d="M256 1250h-349l-303 311h401z" />
    <glyph glyph-name="acutecmb" unicode="&#x301;" 
d="M199 1243h-348l233 318h401z" />
    <glyph glyph-name="circumflexcmb" unicode="&#x302;" 
d="M-419 1240l257 323h306l243 -323h-301l-90 159h-17l-108 -159h-290z" />
    <glyph glyph-name="tildecmb" unicode="&#x303;" 
d="M-31 1258q-47 45 -91 45q-77 0 -82 -91h-214q0 96 27 173t89 127.5t151 50.5q54 0 92.5 -19t84.5 -61q3 -3 10.5 -10t11 -9.5t10.5 -8.5t11 -8.5t10.5 -6.5t12 -5.5t12.5 -3t14 -1.5q72 0 72 115h214q0 -148 -79 -250t-203 -102q-38 0 -71 12t-47 23t-35 30z" />
    <glyph glyph-name="macroncmb" unicode="&#x304;" 
d="M325 1244h-640v188h640v-188z" />
    <glyph glyph-name="brevecmb" unicode="&#x306;" 
d="M-379 1538h212q0 -69 38 -116.5t111 -47.5t111 47.5t38 116.5h207q0 -159 -97 -259.5t-259 -100.5t-261.5 100.5t-99.5 259.5z" />
    <glyph glyph-name="dotaccentcmb" unicode="&#x307;" 
d="M-156 1316q0 69 43.5 114t112.5 45t116 -45t47 -114q0 -68 -46.5 -112t-116.5 -44q-69 0 -112.5 43.5t-43.5 112.5z" />
    <glyph glyph-name="dieresiscmb" unicode="&#x308;" 
d="M-386 1347q0 69 42.5 109t116.5 40q75 0 118 -40t43 -109t-42.5 -109t-118.5 -40q-74 0 -116.5 40t-42.5 109zM82 1347q0 69 42.5 109t116.5 40q75 0 117.5 -40t42.5 -109t-42 -109t-118 -40q-74 0 -116.5 40t-42.5 109z" />
    <glyph glyph-name="hookabovecmb" unicode="&#x309;" 
d="M-160 1426v143q43 18 114 18q110 0 172.5 -51t62.5 -137q0 -82 -43.5 -130.5t-126.5 -88.5l-92 106q41 23 59 42.5t18 44.5q0 29 -22.5 47t-65.5 18q-44 0 -76 -12z" />
    <glyph glyph-name="ringcmb" unicode="&#x30a;" 
d="M-6 1169q-109 0 -180.5 67t-71.5 175q0 107 71 173t181 66t180.5 -66t70.5 -173q0 -108 -71 -175t-180 -67zM-89 1409q0 -36 23 -58.5t59 -22.5t59.5 22.5t23.5 58.5t-23.5 59t-59.5 23t-59 -23t-23 -59z" />
    <glyph glyph-name="hungarumlautcmb" unicode="&#x30b;" 
d="M-135 1244h-229l251 351h281zM288 1244h-229l251 351h281z" />
    <glyph glyph-name="caroncmb" unicode="&#x30c;" 
d="M-394 1522h290l108 -159h17l90 159h301l-243 -323h-306z" />
    <glyph glyph-name="dblgravecmb" unicode="&#x30f;" 
d="M-300 1244l-303 351h281l251 -351h-229zM123 1244l-303 351h281l251 -351h-229z" />
    <glyph glyph-name="invertedbrevecmb" unicode="&#x311;" 
d="M-361 1219q0 159 99.5 259.5t261.5 100.5t259 -100.5t97 -259.5h-207q0 69 -38 116.5t-111 47.5t-111 -47.5t-38 -116.5h-212z" />
    <glyph glyph-name="horncmb" unicode="&#x31b;" 
d="M-488 810v268q25 -3 41 0q44 10 44 84v159h303v-224q0 -132 -64.5 -216.5t-191.5 -84.5q-93 0 -132 14z" />
    <glyph glyph-name="dotbelowcmb" unicode="&#x323;" 
d="M-165 -246q0 73 48 121.5t117 48.5q74 0 123 -48.5t49 -121.5q0 -71 -49.5 -118t-122.5 -47q-69 0 -117 47.5t-48 117.5z" />
    <glyph glyph-name="dieresisbelowcmb" unicode="&#x324;" 
d="M-389 -303q0 69 42.5 109t116.5 40q75 0 118 -40t43 -109t-42.5 -109t-118.5 -40q-74 0 -116.5 40t-42.5 109zM79 -303q0 69 42.5 109t116.5 40q75 0 117.5 -40t42.5 -109t-42 -109t-118 -40q-74 0 -116.5 40t-42.5 109z" />
    <glyph glyph-name="ringbelowcmb" unicode="&#x325;" 
d="M3 -554q-109 0 -180.5 67t-71.5 175q0 107 71 173t181 66t180.5 -66t70.5 -173q0 -108 -71 -175t-180 -67zM-80 -314q0 -36 23 -58.5t59 -22.5t59.5 22.5t23.5 58.5t-23.5 59t-59.5 23t-59 -23t-23 -59z" />
    <glyph glyph-name="commabelowcmb" unicode="&#x326;" 
d="M28 -489h-248l85 335h277z" />
    <glyph glyph-name="cedillacmb" unicode="&#x327;" 
d="M-135 -237v134l40 103h209l-40 -94q78 0 123.5 -49t45.5 -128q0 -206 -277 -206q-95 0 -141 16v149q44 -13 105 -13q99 0 99 39q0 25 -19.5 37t-86.5 12h-58z" />
    <glyph glyph-name="ogonekcmb" unicode="&#x328;" 
d="M194 -170v-196q-77 -29 -177 -29q-137 0 -204 60.5t-67 152.5q0 178 201 305h211q-75 -48 -117.5 -96t-42.5 -111q0 -48 34.5 -73t85.5 -25q33 0 76 12z" />
    <glyph glyph-name="circumflexbelowcmb" unicode="&#x32d;" 
d="M-408 -396l257 283h306l243 -283h-301l-90 129h-17l-108 -129h-290z" />
    <glyph glyph-name="brevebelowcmb" unicode="&#x32e;" 
d="M-361 -110h212q0 -69 38 -116.5t111 -47.5t111 47.5t38 116.5h207q0 -159 -97 -259.5t-259 -100.5t-261.5 100.5t-99.5 259.5z" />
    <glyph glyph-name="tildebelowcmb" unicode="&#x330;" 
d="M-4 -333q-6 5 -18.5 17t-20 18.5t-21 12.5t-27.5 6q-65 0 -70 -76h-187q0 95 57 171t157 76q60 0 94 -14t72 -45q6 -5 19 -16.5t18.5 -15.5t15.5 -10.5t18 -8.5t18 -2q63 0 63 97h188q0 -112 -65 -185t-161 -73q-44 0 -76 8.5t-44 16.5t-30 23z" />
    <glyph glyph-name="macronbelowcmb" unicode="&#x331;" 
d="M328 -324h-640v188h640v-188z" />
    <glyph glyph-name="Delta" unicode="&#x394;" horiz-adv-x="1354" 
d="M-1 0l414 1365h532l410 -1365h-1356zM654 1018l-155 -658h326l-150 658h-21z" />
    <glyph glyph-name="Omega" unicode="&#x3a9;" horiz-adv-x="1444" 
d="M800 0v429q63 22 100 95t37 184v75q0 136 -56 203.5t-158 67.5q-103 0 -159 -67.5t-56 -203.5v-75q0 -109 35 -181t95 -95v-432h-606v344h240v22q-87 49 -140.5 152.5t-53.5 204.5v74q0 288 165.5 439t478.5 151q315 0 480 -151t165 -439v-74q0 -100 -54.5 -206.5
t-140.5 -150.5v-22h240v-344h-612z" />
    <glyph glyph-name="mu" unicode="&#x3bc;" horiz-adv-x="1351" 
d="M439 23h-16v-361h-333v1416h405v-598q0 -50 12.5 -85t33.5 -51.5t40.5 -23t40.5 -6.5q56 0 94.5 42.5t38.5 126.5v595h405v-685q0 -69 24 -97t90 -28q21 0 45 2v-274q-88 -19 -182 -19q-293 0 -300 214h-20q-7 -76 -79 -139.5t-178 -63.5q-45 0 -78 11t-43 24z" />
    <glyph glyph-name="pi" unicode="&#x3c0;" horiz-adv-x="1481" 
d="M1413 0q-105 -21 -230 -21q-174 0 -252.5 78t-78.5 208v517h-206v-782h-405v782h-206v296h1402v-296h-180v-391q0 -45 21 -71t62 -26q46 0 73 5v-299z" />
    <glyph glyph-name="Aringbelow" unicode="&#x1e00;" horiz-adv-x="1354" 
d="M414 0h-415l414 1365h532l410 -1365h-448l-59 258h-373zM675 1018h-21l-110 -465h237zM660 -554q-109 0 -180.5 67t-71.5 175q0 107 71 173t181 66t180.5 -66t70.5 -173q0 -108 -71 -175t-180 -67zM577 -314q0 -36 23 -58.5t59 -22.5t59.5 22.5t23.5 58.5t-23.5 59
t-59.5 23t-59 -23t-23 -59z" />
    <glyph glyph-name="aringbelow" unicode="&#x1e01;" horiz-adv-x="1155" 
d="M672 126q-23 -58 -89 -99.5t-176 -41.5q-162 0 -260 86.5t-98 240.5q0 153 102.5 241t289.5 88h231v79q0 42 -27.5 66t-73.5 24q-48 0 -77 -26.5t-29 -67.5h-378q1 55 14.5 104.5t48 100.5t87 88t139.5 60.5t199 23.5q107 0 194 -20.5t156 -65t107 -121.5t38 -182v-704
h-378v126h-20zM555 253q46 0 81.5 26t35.5 68v96h-104q-55 0 -89 -26t-34 -69q0 -44 32.5 -69.5t77.5 -25.5zM581 -554q-109 0 -180.5 67t-71.5 175q0 107 71 173t181 66t180.5 -66t70.5 -173q0 -108 -71 -175t-180 -67zM498 -314q0 -36 23 -58.5t59 -22.5t59.5 22.5
t23.5 58.5t-23.5 59t-59.5 23t-59 -23t-23 -59z" />
    <glyph glyph-name="Bdotaccent" unicode="&#x1e02;" horiz-adv-x="1315" 
d="M115 0v1365h659q200 0 321 -89t121 -246q0 -130 -76 -206t-182 -89v-19q54 -2 107 -21.5t101 -57t78 -102t30 -145.5q0 -122 -67 -212.5t-172.5 -134t-233.5 -43.5h-686zM530 1085v-256h130q75 0 112.5 37.5t37.5 91.5q0 57 -40.5 92t-111.5 35h-128zM530 581v-301h143
q88 0 132 43t44 110t-45 107.5t-133 40.5h-141zM502 1603q0 69 43.5 114t112.5 45t116 -45t47 -114q0 -68 -46.5 -112t-116.5 -44q-69 0 -112.5 43.5t-43.5 112.5z" />
    <glyph glyph-name="bdotaccent" unicode="&#x1e03;" horiz-adv-x="1265" 
d="M827 -9q-112 0 -192 49.5t-108 132.5h-20v-173h-407v1437h407v-530h20q28 83 108 131.5t192 48.5q180 0 281.5 -129.5t101.5 -377.5v-80q0 -248 -101.5 -378.5t-281.5 -130.5zM648 295q65 0 103 54.5t38 159.5v59q0 105 -38 159t-103 54q-63 0 -102 -54t-39 -159v-59
q0 -105 39 -159.5t102 -54.5zM144 1676q0 69 43.5 114t112.5 45t116 -45t47 -114q0 -68 -46.5 -112t-116.5 -44q-69 0 -112.5 43.5t-43.5 112.5z" />
    <glyph glyph-name="Bdotbelow" unicode="&#x1e04;" horiz-adv-x="1315" 
d="M115 0v1365h659q200 0 321 -89t121 -246q0 -130 -76 -206t-182 -89v-19q54 -2 107 -21.5t101 -57t78 -102t30 -145.5q0 -122 -67 -212.5t-172.5 -134t-233.5 -43.5h-686zM530 1085v-256h130q75 0 112.5 37.5t37.5 91.5q0 57 -40.5 92t-111.5 35h-128zM530 581v-301h143
q88 0 132 43t44 110t-45 107.5t-133 40.5h-141zM493 -246q0 73 48 121.5t117 48.5q74 0 123 -48.5t49 -121.5q0 -71 -49.5 -118t-122.5 -47q-69 0 -117 47.5t-48 117.5z" />
    <glyph glyph-name="bdotbelow" unicode="&#x1e05;" horiz-adv-x="1265" 
d="M827 -9q-112 0 -192 49.5t-108 132.5h-20v-173h-407v1437h407v-530h20q28 83 108 131.5t192 48.5q180 0 281.5 -129.5t101.5 -377.5v-80q0 -248 -101.5 -378.5t-281.5 -130.5zM648 295q65 0 103 54.5t38 159.5v59q0 105 -38 159t-103 54q-63 0 -102 -54t-39 -159v-59
q0 -105 39 -159.5t102 -54.5zM468 -246q0 73 48 121.5t117 48.5q74 0 123 -48.5t49 -121.5q0 -71 -49.5 -118t-122.5 -47q-69 0 -117 47.5t-48 117.5z" />
    <glyph glyph-name="Blinebelow" unicode="&#x1e06;" horiz-adv-x="1315" 
d="M115 0v1365h659q200 0 321 -89t121 -246q0 -130 -76 -206t-182 -89v-19q54 -2 107 -21.5t101 -57t78 -102t30 -145.5q0 -122 -67 -212.5t-172.5 -134t-233.5 -43.5h-686zM530 1085v-256h130q75 0 112.5 37.5t37.5 91.5q0 57 -40.5 92t-111.5 35h-128zM530 581v-301h143
q88 0 132 43t44 110t-45 107.5t-133 40.5h-141zM986 -324h-640v188h640v-188z" />
    <glyph glyph-name="blinebelow" unicode="&#x1e07;" horiz-adv-x="1265" 
d="M827 -9q-112 0 -192 49.5t-108 132.5h-20v-173h-407v1437h407v-530h20q28 83 108 131.5t192 48.5q180 0 281.5 -129.5t101.5 -377.5v-80q0 -248 -101.5 -378.5t-281.5 -130.5zM648 295q65 0 103 54.5t38 159.5v59q0 105 -38 159t-103 54q-63 0 -102 -54t-39 -159v-59
q0 -105 39 -159.5t102 -54.5zM961 -324h-640v188h640v-188z" />
    <glyph glyph-name="Ccedillaacute" unicode="&#x1e08;" horiz-adv-x="1328" 
d="M662 -477q-95 0 -141 16v149q44 -13 105 -13q99 0 99 39q0 25 -19.5 37t-86.5 12h-58v134l33 84q-257 27 -396 196.5t-139 443.5v123q0 298 163 470.5t462 172.5q261 0 425 -139.5t164 -370.5v-59h-397q0 101 -49 165t-139 64q-95 0 -147 -77.5t-52 -224.5v-127
q0 -146 52 -223.5t147 -77.5q90 0 139 64t49 166h397v-61q0 -201 -128 -335t-341 -165l-34 -80q78 0 123.5 -49t45.5 -128q0 -206 -277 -206zM432 1493l293 248h401l-346 -248h-348z" />
    <glyph glyph-name="ccedillaacute" unicode="&#x1e09;" horiz-adv-x="1123" 
d="M545 -477q-95 0 -141 16v149q44 -13 105 -13q99 0 99 39q0 25 -19.5 37t-86.5 12h-58v134l34 89q-199 27 -313 162t-114 366v64q0 235 142 378t387 143q228 0 361 -124.5t135 -329.5h-359q-2 65 -35.5 108.5t-87.5 43.5q-60 0 -97 -59.5t-37 -158.5v-60q0 -117 35.5 -178
t99.5 -61q118 0 122 149h359q-1 -102 -30.5 -182t-83.5 -132.5t-122.5 -84t-152.5 -43.5l-34 -81q78 0 123.5 -49t45.5 -128q0 -206 -277 -206zM761 1243h-348l233 318h401z" />
    <glyph glyph-name="Ddotaccent" unicode="&#x1e0a;" horiz-adv-x="1386" 
d="M115 1365h593q131 0 235 -31.5t177 -89t121.5 -141t71 -186t22.5 -226.5q0 -157 -37 -282.5t-112.5 -217.5t-196.5 -141.5t-281 -49.5h-593v1365zM535 1042v-719h96q40 0 69 4t63 16t57.5 36.5t44 62.5t30.5 98t10 139q0 59 -5.5 106.5t-23 97.5t-46.5 83t-79.5 54.5
t-119.5 21.5h-96zM472 1603q0 69 43.5 114t112.5 45t116 -45t47 -114q0 -68 -46.5 -112t-116.5 -44q-69 0 -112.5 43.5t-43.5 112.5z" />
    <glyph glyph-name="ddotaccent" unicode="&#x1e0b;" horiz-adv-x="1266" 
d="M439 1087q112 0 192 -48.5t109 -131.5h19v530h407v-1437h-407v173h-19q-29 -83 -109 -132.5t-192 -49.5q-178 0 -281 132.5t-103 376.5v80q0 244 102.5 375.5t281.5 131.5zM617 781q-63 0 -102 -54.5t-39 -158.5v-59q0 -105 39 -159.5t102 -54.5q64 0 103 54.5t39 159.5
v59q0 105 -39 159t-103 54zM810 1675q0 69 43.5 114t112.5 45t116 -45t47 -114q0 -68 -46.5 -112t-116.5 -44q-69 0 -112.5 43.5t-43.5 112.5z" />
    <glyph glyph-name="Ddotbelow" unicode="&#x1e0c;" horiz-adv-x="1386" 
d="M115 1365h593q131 0 235 -31.5t177 -89t121.5 -141t71 -186t22.5 -226.5q0 -157 -37 -282.5t-112.5 -217.5t-196.5 -141.5t-281 -49.5h-593v1365zM535 1042v-719h96q40 0 69 4t63 16t57.5 36.5t44 62.5t30.5 98t10 139q0 59 -5.5 106.5t-23 97.5t-46.5 83t-79.5 54.5
t-119.5 21.5h-96zM463 -246q0 73 48 121.5t117 48.5q74 0 123 -48.5t49 -121.5q0 -71 -49.5 -118t-122.5 -47q-69 0 -117 47.5t-48 117.5z" />
    <glyph glyph-name="ddotbelow" unicode="&#x1e0d;" horiz-adv-x="1266" 
d="M439 1087q112 0 192 -48.5t109 -131.5h19v530h407v-1437h-407v173h-19q-29 -83 -109 -132.5t-192 -49.5q-178 0 -281 132.5t-103 376.5v80q0 244 102.5 375.5t281.5 131.5zM617 781q-63 0 -102 -54.5t-39 -158.5v-59q0 -105 39 -159.5t102 -54.5q64 0 103 54.5t39 159.5
v59q0 105 -39 159t-103 54zM468 -246q0 73 48 121.5t117 48.5q74 0 123 -48.5t49 -121.5q0 -71 -49.5 -118t-122.5 -47q-69 0 -117 47.5t-48 117.5z" />
    <glyph glyph-name="Dlinebelow" unicode="&#x1e0e;" horiz-adv-x="1386" 
d="M115 1365h593q131 0 235 -31.5t177 -89t121.5 -141t71 -186t22.5 -226.5q0 -157 -37 -282.5t-112.5 -217.5t-196.5 -141.5t-281 -49.5h-593v1365zM535 1042v-719h96q40 0 69 4t63 16t57.5 36.5t44 62.5t30.5 98t10 139q0 59 -5.5 106.5t-23 97.5t-46.5 83t-79.5 54.5
t-119.5 21.5h-96zM956 -324h-640v188h640v-188z" />
    <glyph glyph-name="dlinebelow" unicode="&#x1e0f;" horiz-adv-x="1266" 
d="M439 1087q112 0 192 -48.5t109 -131.5h19v530h407v-1437h-407v173h-19q-29 -83 -109 -132.5t-192 -49.5q-178 0 -281 132.5t-103 376.5v80q0 244 102.5 375.5t281.5 131.5zM617 781q-63 0 -102 -54.5t-39 -158.5v-59q0 -105 39 -159.5t102 -54.5q64 0 103 54.5t39 159.5
v59q0 105 -39 159t-103 54zM961 -324h-640v188h640v-188z" />
    <glyph glyph-name="Dcommaaccent" unicode="&#x1e10;" horiz-adv-x="1386" 
d="M115 1365h593q131 0 235 -31.5t177 -89t121.5 -141t71 -186t22.5 -226.5q0 -157 -37 -282.5t-112.5 -217.5t-196.5 -141.5t-281 -49.5h-593v1365zM535 1042v-719h96q40 0 69 4t63 16t57.5 36.5t44 62.5t30.5 98t10 139q0 59 -5.5 106.5t-23 97.5t-46.5 83t-79.5 54.5
t-119.5 21.5h-96zM656 -489h-248l85 335h277z" />
    <glyph glyph-name="dcommaaccent" unicode="&#x1e11;" horiz-adv-x="1266" 
d="M439 1087q112 0 192 -48.5t109 -131.5h19v530h407v-1437h-407v173h-19q-29 -83 -109 -132.5t-192 -49.5q-178 0 -281 132.5t-103 376.5v80q0 244 102.5 375.5t281.5 131.5zM617 781q-63 0 -102 -54.5t-39 -158.5v-59q0 -105 39 -159.5t102 -54.5q64 0 103 54.5t39 159.5
v59q0 105 -39 159t-103 54zM661 -489h-248l85 335h277z" />
    <glyph glyph-name="Dcircumflexbelow" unicode="&#x1e12;" horiz-adv-x="1386" 
d="M115 1365h593q131 0 235 -31.5t177 -89t121.5 -141t71 -186t22.5 -226.5q0 -157 -37 -282.5t-112.5 -217.5t-196.5 -141.5t-281 -49.5h-593v1365zM535 1042v-719h96q40 0 69 4t63 16t57.5 36.5t44 62.5t30.5 98t10 139q0 59 -5.5 106.5t-23 97.5t-46.5 83t-79.5 54.5
t-119.5 21.5h-96zM220 -396l257 283h306l243 -283h-301l-90 129h-17l-108 -129h-290z" />
    <glyph glyph-name="dcircumflexbelow" unicode="&#x1e13;" horiz-adv-x="1266" 
d="M439 1087q112 0 192 -48.5t109 -131.5h19v530h407v-1437h-407v173h-19q-29 -83 -109 -132.5t-192 -49.5q-178 0 -281 132.5t-103 376.5v80q0 244 102.5 375.5t281.5 131.5zM617 781q-63 0 -102 -54.5t-39 -158.5v-59q0 -105 39 -159.5t102 -54.5q64 0 103 54.5t39 159.5
v59q0 105 -39 159t-103 54zM225 -396l257 283h306l243 -283h-301l-90 129h-17l-108 -129h-290z" />
    <glyph glyph-name="Emacrongrave" unicode="&#x1e14;" horiz-adv-x="1173" 
d="M1088 323v-323h-973v1365h973v-323h-558v-215h521v-292h-521v-212h558zM907 1473h-640v188h640v-188zM770 1756h-327l-325 233h377z" />
    <glyph glyph-name="emacrongrave" unicode="&#x1e15;" horiz-adv-x="1154" 
d="M595 -21q-120 0 -218.5 32t-172 95.5t-113.5 166t-40 235.5v66q0 132 42.5 234.5t116 165t167.5 94t203 31.5q236 0 379.5 -140.5t143.5 -384.5v-113h-659v-46q0 -70 44.5 -109t104.5 -39q62 0 104 29t43 78h360q-1 -52 -18 -104.5t-56 -105.5t-95.5 -93.5t-143.5 -66
t-192 -25.5zM444 671h274q0 68 -36.5 109.5t-97.5 41.5q-62 0 -101 -42t-39 -109zM902 1244h-640v188h640v-188zM833 1563h-349l-303 311h401z" />
    <glyph glyph-name="Emacronacute" unicode="&#x1e16;" horiz-adv-x="1173" 
d="M1088 323v-323h-973v1365h973v-323h-558v-215h521v-292h-521v-212h558zM907 1473h-640v188h640v-188zM355 1756l293 248h401l-346 -248h-348z" />
    <glyph glyph-name="emacronacute" unicode="&#x1e17;" horiz-adv-x="1154" 
d="M595 -21q-120 0 -218.5 32t-172 95.5t-113.5 166t-40 235.5v66q0 132 42.5 234.5t116 165t167.5 94t203 31.5q236 0 379.5 -140.5t143.5 -384.5v-113h-659v-46q0 -70 44.5 -109t104.5 -39q62 0 104 29t43 78h360q-1 -52 -18 -104.5t-56 -105.5t-95.5 -93.5t-143.5 -66
t-192 -25.5zM444 671h274q0 68 -36.5 109.5t-97.5 41.5q-62 0 -101 -42t-39 -109zM902 1244h-640v188h640v-188zM776 1566h-348l233 318h401z" />
    <glyph glyph-name="Ecircumflexbelow" unicode="&#x1e18;" horiz-adv-x="1173" 
d="M1088 323v-323h-973v1365h973v-323h-558v-215h521v-292h-521v-212h558zM179 -396l257 283h306l243 -283h-301l-90 129h-17l-108 -129h-290z" />
    <glyph glyph-name="ecircumflexbelow" unicode="&#x1e19;" horiz-adv-x="1154" 
d="M595 -21q-120 0 -218.5 32t-172 95.5t-113.5 166t-40 235.5v66q0 132 42.5 234.5t116 165t167.5 94t203 31.5q236 0 379.5 -140.5t143.5 -384.5v-113h-659v-46q0 -70 44.5 -109t104.5 -39q62 0 104 29t43 78h360q-1 -52 -18 -104.5t-56 -105.5t-95.5 -93.5t-143.5 -66
t-192 -25.5zM444 671h274q0 68 -36.5 109.5t-97.5 41.5q-62 0 -101 -42t-39 -109zM169 -396l257 283h306l243 -283h-301l-90 129h-17l-108 -129h-290z" />
    <glyph glyph-name="Etildebelow" unicode="&#x1e1a;" horiz-adv-x="1173" 
d="M1088 323v-323h-973v1365h973v-323h-558v-215h521v-292h-521v-212h558zM583 -333q-6 5 -18.5 17t-20 18.5t-21 12.5t-27.5 6q-65 0 -70 -76h-187q0 95 57 171t157 76q60 0 94 -14t72 -45q6 -5 19 -16.5t18.5 -15.5t15.5 -10.5t18 -8.5t18 -2q63 0 63 97h188
q0 -112 -65 -185t-161 -73q-44 0 -76 8.5t-44 16.5t-30 23z" />
    <glyph glyph-name="etildebelow" unicode="&#x1e1b;" horiz-adv-x="1154" 
d="M595 -21q-120 0 -218.5 32t-172 95.5t-113.5 166t-40 235.5v66q0 132 42.5 234.5t116 165t167.5 94t203 31.5q236 0 379.5 -140.5t143.5 -384.5v-113h-659v-46q0 -70 44.5 -109t104.5 -39q62 0 104 29t43 78h360q-1 -52 -18 -104.5t-56 -105.5t-95.5 -93.5t-143.5 -66
t-192 -25.5zM444 671h274q0 68 -36.5 109.5t-97.5 41.5q-62 0 -101 -42t-39 -109zM573 -333q-6 5 -18.5 17t-20 18.5t-21 12.5t-27.5 6q-65 0 -70 -76h-187q0 95 57 171t157 76q60 0 94 -14t72 -45q6 -5 19 -16.5t18.5 -15.5t15.5 -10.5t18 -8.5t18 -2q63 0 63 97h188
q0 -112 -65 -185t-161 -73q-44 0 -76 8.5t-44 16.5t-30 23z" />
    <glyph glyph-name="Ecedillabreve" unicode="&#x1e1c;" horiz-adv-x="1173" 
d="M585 -477q-95 0 -141 16v149q44 -13 105 -13q99 0 99 39q0 25 -19.5 37t-86.5 12h-58v134l40 103h-409v1365h973v-323h-558v-215h521v-292h-521v-212h558v-323h-355l-40 -94q78 0 123.5 -49t45.5 -128q0 -206 -277 -206zM226 1782h212q0 -134 149 -134t149 134h207
q0 -156 -95.5 -243t-260.5 -87q-166 0 -263.5 87t-97.5 243z" />
    <glyph glyph-name="ecedillabreve" unicode="&#x1e1d;" horiz-adv-x="1154" 
d="M444 671h274q0 68 -36.5 109.5t-97.5 41.5q-62 0 -101 -42t-39 -109zM574 -477q-95 0 -141 16v149q44 -13 105 -13q99 0 99 39q0 25 -19.5 37t-86.5 12h-58v134l34 87q-211 22 -333.5 154t-122.5 370v66q0 132 42.5 234.5t116 165t167.5 94t203 31.5q236 0 379.5 -140.5
t143.5 -384.5v-113h-659v-46q0 -70 44.5 -109t104.5 -39q62 0 104 29t43 78h360q-1 -45 -14 -91.5t-43 -94t-73 -87t-108.5 -70t-144.5 -43.5l-35 -82q78 0 123.5 -49t45.5 -128q0 -206 -277 -206zM198 1538h212q0 -69 38 -116.5t111 -47.5t111 47.5t38 116.5h207
q0 -159 -97 -259.5t-259 -100.5t-261.5 100.5t-99.5 259.5z" />
    <glyph glyph-name="Fdotaccent" unicode="&#x1e1e;" horiz-adv-x="1130" 
d="M535 0h-420v1365h970v-328h-550v-250h497v-316h-497v-471zM409 1603q0 69 43.5 114t112.5 45t116 -45t47 -114q0 -68 -46.5 -112t-116.5 -44q-69 0 -112.5 43.5t-43.5 112.5z" />
    <glyph glyph-name="fdotaccent" unicode="&#x1e1f;" horiz-adv-x="848" 
d="M203 0v757h-168v296h168v106q0 172 97.5 241t321.5 69q45 0 81.5 -1.5t61.5 -4t28 -2.5v-261q-24 2 -78 2q-122 0 -122 -78v-71h200v-296h-188v-757h-402zM274 1700q0 69 43.5 114t112.5 45t116 -45t47 -114q0 -68 -46.5 -112t-116.5 -44q-69 0 -112.5 43.5t-43.5 112.5z
" />
    <glyph glyph-name="Gmacron" unicode="&#x1e20;" horiz-adv-x="1353" 
d="M1294 894h-405q-7 65 -57 111t-136 46q-104 0 -158 -75t-54 -218v-144q0 -50 5.5 -90.5t20.5 -81t39 -68t64.5 -44.5t93.5 -17q93 0 143.5 49.5t50.5 115.5v16h-170v278h563v-256q0 -83 -20 -159t-66 -146t-114 -121.5t-170.5 -82t-228.5 -30.5q-134 0 -242.5 34
t-180.5 93t-121 140.5t-70.5 173t-21.5 194.5v151q0 135 41.5 248.5t120.5 197.5t201.5 131t276.5 47q147 0 264.5 -43t187.5 -114.5t106.5 -157.5t36.5 -178zM997 1473h-640v188h640v-188z" />
    <glyph glyph-name="gmacron" unicode="&#x1e21;" horiz-adv-x="1257" 
d="M606 -123q151 0 151 168v145h-20q-28 -76 -106 -122.5t-192 -46.5q-179 0 -279.5 132t-100.5 385v32q0 253 100.5 385t279.5 132q114 0 192.5 -48.5t105.5 -131.5h20v171h405v-1075q0 -93 -36 -164.5t-92 -114.5t-133 -70.5t-150.5 -37.5t-153.5 -10q-132 0 -233.5 28.5
t-161.5 77.5t-90.5 109.5t-30.5 130.5h378q20 -75 147 -75zM618 781q-63 0 -100.5 -54t-37.5 -159v-57q0 -105 37.5 -159.5t100.5 -54.5t101 54.5t38 159.5v57q0 105 -38 159t-101 54zM954 1244h-640v188h640v-188z" />
    <glyph glyph-name="Hdotaccent" unicode="&#x1e22;" horiz-adv-x="1465" 
d="M1350 0h-420v517h-395v-517h-420v1365h420v-515h395v515h420v-1365zM577 1603q0 69 43.5 114t112.5 45t116 -45t47 -114q0 -68 -46.5 -112t-116.5 -44q-69 0 -112.5 43.5t-43.5 112.5z" />
    <glyph glyph-name="hdotaccent" unicode="&#x1e23;" horiz-adv-x="1261" 
d="M100 0v1437h405v-540h20q10 33 32 65t57.5 62.5t90.5 49.5t121 19q163 0 256.5 -101t93.5 -294v-698h-405v596q0 50 -12.5 85t-33.5 51.5t-41.5 23t-43.5 6.5q-55 0 -95 -42.5t-40 -126.5v-593h-405zM149 1675q0 69 43.5 114t112.5 45t116 -45t47 -114q0 -68 -46.5 -112
t-116.5 -44q-69 0 -112.5 43.5t-43.5 112.5z" />
    <glyph glyph-name="Hdotbelow" unicode="&#x1e24;" horiz-adv-x="1465" 
d="M1350 0h-420v517h-395v-517h-420v1365h420v-515h395v515h420v-1365zM568 -246q0 73 48 121.5t117 48.5q74 0 123 -48.5t49 -121.5q0 -71 -49.5 -118t-122.5 -47q-69 0 -117 47.5t-48 117.5z" />
    <glyph glyph-name="hdotbelow" unicode="&#x1e25;" horiz-adv-x="1261" 
d="M100 0v1437h405v-540h20q10 33 32 65t57.5 62.5t90.5 49.5t121 19q163 0 256.5 -101t93.5 -294v-698h-405v596q0 50 -12.5 85t-33.5 51.5t-41.5 23t-43.5 6.5q-55 0 -95 -42.5t-40 -126.5v-593h-405zM466 -246q0 73 48 121.5t117 48.5q74 0 123 -48.5t49 -121.5
q0 -71 -49.5 -118t-122.5 -47q-69 0 -117 47.5t-48 117.5z" />
    <glyph glyph-name="Hdieresis" unicode="&#x1e26;" horiz-adv-x="1465" 
d="M1350 0h-420v517h-395v-517h-420v1365h420v-515h395v515h420v-1365zM368 1577q0 63 39 100t107 37q70 0 108.5 -37t38.5 -100t-38.5 -100t-108.5 -37q-68 0 -107 37t-39 100zM801 1577q0 63 38 100t108 37q69 0 108 -37t39 -100t-38.5 -100t-108.5 -37t-108 37t-38 100z
" />
    <glyph glyph-name="hdieresis" unicode="&#x1e27;" horiz-adv-x="1261" 
d="M100 0v1437h405v-540h20q10 33 32 65t57.5 62.5t90.5 49.5t121 19q163 0 256.5 -101t93.5 -294v-698h-405v596q0 50 -12.5 85t-33.5 51.5t-41.5 23t-43.5 6.5q-55 0 -95 -42.5t-40 -126.5v-593h-405zM-81 1706q0 69 42.5 109t116.5 40q75 0 118 -40t43 -109t-42.5 -109
t-118.5 -40q-74 0 -116.5 40t-42.5 109zM387 1706q0 69 42.5 109t116.5 40q75 0 117.5 -40t42.5 -109t-42 -109t-118 -40q-74 0 -116.5 40t-42.5 109z" />
    <glyph glyph-name="Hcedilla" unicode="&#x1e28;" horiz-adv-x="1465" 
d="M387 -477q-95 0 -141 16v149q44 -13 105 -13q99 0 99 39q0 25 -19.5 37t-86.5 12h-58v134l40 103h-211v1365h420v-515h395v515h420v-1365h-420v517h-395v-517l-40 -94q78 0 123.5 -49t45.5 -128q0 -206 -277 -206z" />
    <glyph glyph-name="hcedilla" unicode="&#x1e29;" horiz-adv-x="1261" 
d="M357 -477q-95 0 -141 16v149q44 -13 105 -13q99 0 99 39q0 25 -19.5 37t-86.5 12h-58v134l40 103h-196v1437h405v-540h20q10 33 32 65t57.5 62.5t90.5 49.5t121 19q163 0 256.5 -101t93.5 -294v-698h-405v596q0 50 -12.5 85t-33.5 51.5t-41.5 23t-43.5 6.5
q-55 0 -95 -42.5t-40 -126.5v-593l-40 -94q78 0 123.5 -49t45.5 -128q0 -206 -277 -206z" />
    <glyph glyph-name="Hbrevebelow" unicode="&#x1e2a;" horiz-adv-x="1465" 
d="M1350 0h-420v517h-395v-517h-420v1365h420v-515h395v515h420v-1365zM372 -110q0 -159 99.5 -259.5t261.5 -100.5t259 100.5t97 259.5h-207q0 -69 -38 -116.5t-111 -47.5t-111 47.5t-38 116.5h-212z" />
    <glyph glyph-name="hbrevebelow" unicode="&#x1e2b;" horiz-adv-x="1261" 
d="M100 0v1437h405v-540h20q10 33 32 65t57.5 62.5t90.5 49.5t121 19q163 0 256.5 -101t93.5 -294v-698h-405v596q0 50 -12.5 85t-33.5 51.5t-41.5 23t-43.5 6.5q-55 0 -95 -42.5t-40 -126.5v-593h-405zM270 -110q0 -159 99.5 -259.5t261.5 -100.5t259 100.5t97 259.5h-207
q0 -69 -38 -116.5t-111 -47.5t-111 47.5t-38 116.5h-212z" />
    <glyph glyph-name="Itildebelow" unicode="&#x1e2c;" horiz-adv-x="650" 
d="M535 0h-420v1365h420v-1365zM321 -333q-6 5 -18.5 17t-20 18.5t-21 12.5t-27.5 6q-65 0 -70 -76h-187q0 95 57 171t157 76q60 0 94 -14t72 -45q6 -5 19 -16.5t18.5 -15.5t15.5 -10.5t18 -8.5t18 -2q63 0 63 97h188q0 -112 -65 -185t-161 -73q-44 0 -76 8.5t-44 16.5
t-30 23z" />
    <glyph glyph-name="itildebelow" unicode="&#x1e2d;" horiz-adv-x="615" 
d="M105 0v1078h405v-1078h-405zM87 1362q0 78 58 125.5t161 47.5t161.5 -48t58.5 -125q0 -78 -58 -125.5t-162 -47.5q-102 0 -160.5 48t-58.5 125zM304 -333q-6 5 -18.5 17t-20 18.5t-21 12.5t-27.5 6q-65 0 -70 -76h-187q0 95 57 171t157 76q60 0 94 -14t72 -45
q6 -5 19 -16.5t18.5 -15.5t15.5 -10.5t18 -8.5t18 -2q63 0 63 97h188q0 -112 -65 -185t-161 -73q-44 0 -76 8.5t-44 16.5t-30 23z" />
    <glyph glyph-name="Idieresisacute" unicode="&#x1e2e;" horiz-adv-x="650" 
d="M535 0h-420v1365h420v-1365zM-40 1577q0 63 39 100t107 37q70 0 108.5 -37t38.5 -100t-38.5 -100t-108.5 -37q-68 0 -107 37t-39 100zM393 1577q0 63 38 100t108 37q69 0 108 -37t39 -100t-38.5 -100t-108.5 -37t-108 37t-38 100zM93 1756l293 248h401l-346 -248h-348z
" />
    <glyph glyph-name="idieresisacute" unicode="&#x1e2f;" horiz-adv-x="615" 
d="M113 0v1078h419v-1078h-419zM-67 1347q0 69 42.5 109t116.5 40q75 0 118 -40t43 -109t-42.5 -109t-118.5 -40q-74 0 -116.5 40t-42.5 109zM401 1347q0 69 42.5 109t116.5 40q75 0 117.5 -40t42.5 -109t-42 -109t-118 -40q-74 0 -116.5 40t-42.5 109zM518 1566h-348
l233 318h401z" />
    <glyph glyph-name="Kacute" unicode="&#x1e30;" horiz-adv-x="1372" 
d="M1389 1365l-453 -598l465 -767h-486l-285 493l-95 -120v-373h-420v1365h420v-535h19l397 535h438zM454 1493l293 248h401l-346 -248h-348z" />
    <glyph glyph-name="kacute" unicode="&#x1e31;" horiz-adv-x="1244" 
d="M501 339v-339h-406v1437h406v-751h20l233 392h449l-344 -461l370 -617h-467l-219 399zM499 1602h-348l233 318h401z" />
    <glyph glyph-name="Kdotbelow" unicode="&#x1e32;" horiz-adv-x="1372" 
d="M1389 1365l-453 -598l465 -767h-486l-285 493l-95 -120v-373h-420v1365h420v-535h19l397 535h438zM521 -246q0 73 48 121.5t117 48.5q74 0 123 -48.5t49 -121.5q0 -71 -49.5 -118t-122.5 -47q-69 0 -117 47.5t-48 117.5z" />
    <glyph glyph-name="kdotbelow" unicode="&#x1e33;" horiz-adv-x="1244" 
d="M501 339v-339h-406v1437h406v-751h20l233 392h449l-344 -461l370 -617h-467l-219 399zM457 -246q0 73 48 121.5t117 48.5q74 0 123 -48.5t49 -121.5q0 -71 -49.5 -118t-122.5 -47q-69 0 -117 47.5t-48 117.5z" />
    <glyph glyph-name="Klinebelow" unicode="&#x1e34;" horiz-adv-x="1372" 
d="M1389 1365l-453 -598l465 -767h-486l-285 493l-95 -120v-373h-420v1365h420v-535h19l397 535h438zM1014 -324h-640v188h640v-188z" />
    <glyph glyph-name="klinebelow" unicode="&#x1e35;" horiz-adv-x="1244" 
d="M501 339v-339h-406v1437h406v-751h20l233 392h449l-344 -461l370 -617h-467l-219 399zM950 -324h-640v188h640v-188z" />
    <glyph glyph-name="Ldotbelow" unicode="&#x1e36;" horiz-adv-x="1065" 
d="M1036 344v-344h-921v1365h420v-1021h501zM373 -246q0 73 48 121.5t117 48.5q74 0 123 -48.5t49 -121.5q0 -71 -49.5 -118t-122.5 -47q-69 0 -117 47.5t-48 117.5z" />
    <glyph glyph-name="ldotbelow" unicode="&#x1e37;" horiz-adv-x="616" 
d="M105 0v1437h406v-1437h-406zM143 -246q0 73 48 121.5t117 48.5q74 0 123 -48.5t49 -121.5q0 -71 -49.5 -118t-122.5 -47q-69 0 -117 47.5t-48 117.5z" />
    <glyph glyph-name="Ldotbelowmacron" unicode="&#x1e38;" horiz-adv-x="1065" 
d="M1036 344v-344h-921v1365h420v-1021h501zM373 -246q0 73 48 121.5t117 48.5q74 0 123 -48.5t49 -121.5q0 -71 -49.5 -118t-122.5 -47q-69 0 -117 47.5t-48 117.5zM645 1473h-640v188h640v-188z" />
    <glyph glyph-name="ldotbelowmacron" unicode="&#x1e39;" horiz-adv-x="616" 
d="M105 0v1437h406v-1437h-406zM143 -246q0 73 48 121.5t117 48.5q74 0 123 -48.5t49 -121.5q0 -71 -49.5 -118t-122.5 -47q-69 0 -117 47.5t-48 117.5zM633 1603h-640v188h640v-188z" />
    <glyph glyph-name="Llinebelow" unicode="&#x1e3a;" horiz-adv-x="1065" 
d="M1036 344v-344h-921v1365h420v-1021h501zM866 -324h-640v188h640v-188z" />
    <glyph glyph-name="llinebelow" unicode="&#x1e3b;" horiz-adv-x="616" 
d="M105 0v1437h406v-1437h-406zM636 -324h-640v188h640v-188z" />
    <glyph glyph-name="Lcircumflexbelow" unicode="&#x1e3c;" horiz-adv-x="1065" 
d="M1036 344v-344h-921v1365h420v-1021h501zM130 -396l257 283h306l243 -283h-301l-90 129h-17l-108 -129h-290z" />
    <glyph glyph-name="lcircumflexbelow" unicode="&#x1e3d;" horiz-adv-x="616" 
d="M105 0v1437h406v-1437h-406zM-100 -396l257 283h306l243 -283h-301l-90 129h-17l-108 -129h-290z" />
    <glyph glyph-name="Macute" unicode="&#x1e3e;" horiz-adv-x="1703" 
d="M486 0h-371v1365h439l292 -609h14l293 609h435v-1365h-377v761h-19l-232 -502h-220l-234 502h-20v-761zM620 1493l293 248h401l-346 -248h-348z" />
    <glyph glyph-name="macute" unicode="&#x1e3f;" horiz-adv-x="1855" 
d="M95 0v1078h391v-189h20q9 35 29.5 68.5t55.5 65t90 51t123 19.5q117 0 191 -55t97 -147h16q23 77 108.5 139.5t215.5 62.5q157 0 245 -96.5t88 -254.5v-742h-405v609q0 163 -119 163q-54 0 -86.5 -39.5t-32.5 -125.5v-607h-384v609q0 163 -119 163t-119 -163v-609h-405z
M1127 1243h-348l233 318h401z" />
    <glyph glyph-name="Mdotaccent" unicode="&#x1e40;" horiz-adv-x="1703" 
d="M486 0h-371v1365h439l292 -609h14l293 609h435v-1365h-377v761h-19l-232 -502h-220l-234 502h-20v-761zM696 1603q0 69 43.5 114t112.5 45t116 -45t47 -114q0 -68 -46.5 -112t-116.5 -44q-69 0 -112.5 43.5t-43.5 112.5z" />
    <glyph glyph-name="mdotaccent" unicode="&#x1e41;" horiz-adv-x="1855" 
d="M95 0v1078h391v-189h20q9 35 29.5 68.5t55.5 65t90 51t123 19.5q117 0 191 -55t97 -147h16q23 77 108.5 139.5t215.5 62.5q157 0 245 -96.5t88 -254.5v-742h-405v609q0 163 -119 163q-54 0 -86.5 -39.5t-32.5 -125.5v-607h-384v609q0 163 -119 163t-119 -163v-609h-405z
M772 1316q0 69 43.5 114t112.5 45t116 -45t47 -114q0 -68 -46.5 -112t-116.5 -44q-69 0 -112.5 43.5t-43.5 112.5z" />
    <glyph glyph-name="Mdotbelow" unicode="&#x1e42;" horiz-adv-x="1703" 
d="M486 0h-371v1365h439l292 -609h14l293 609h435v-1365h-377v761h-19l-232 -502h-220l-234 502h-20v-761zM687 -246q0 73 48 121.5t117 48.5q74 0 123 -48.5t49 -121.5q0 -71 -49.5 -118t-122.5 -47q-69 0 -117 47.5t-48 117.5z" />
    <glyph glyph-name="mdotbelow" unicode="&#x1e43;" horiz-adv-x="1855" 
d="M95 0v1078h391v-189h20q9 35 29.5 68.5t55.5 65t90 51t123 19.5q117 0 191 -55t97 -147h16q23 77 108.5 139.5t215.5 62.5q157 0 245 -96.5t88 -254.5v-742h-405v609q0 163 -119 163q-54 0 -86.5 -39.5t-32.5 -125.5v-607h-384v609q0 163 -119 163t-119 -163v-609h-405z
M763 -246q0 73 48 121.5t117 48.5q74 0 123 -48.5t49 -121.5q0 -71 -49.5 -118t-122.5 -47q-69 0 -117 47.5t-48 117.5z" />
    <glyph glyph-name="Ndotaccent" unicode="&#x1e44;" horiz-adv-x="1411" 
d="M500 0h-385v1365h315l465 -660h16v660h385v-1365h-312l-468 672h-16v-672zM550 1603q0 69 43.5 114t112.5 45t116 -45t47 -114q0 -68 -46.5 -112t-116.5 -44q-69 0 -112.5 43.5t-43.5 112.5z" />
    <glyph glyph-name="ndotaccent" unicode="&#x1e45;" horiz-adv-x="1256" 
d="M95 0v1078h391v-181h20q24 75 103.5 135.5t207.5 60.5q164 0 256.5 -100.5t92.5 -294.5v-698h-405v596q0 50 -12.5 85t-33.5 51.5t-41 23t-42 6.5q-54 0 -93 -42.5t-39 -126.5v-593h-405zM472 1316q0 69 43.5 114t112.5 45t116 -45t47 -114q0 -68 -46.5 -112t-116.5 -44
q-69 0 -112.5 43.5t-43.5 112.5z" />
    <glyph glyph-name="Ndotbelow" unicode="&#x1e46;" horiz-adv-x="1411" 
d="M500 0h-385v1365h315l465 -660h16v660h385v-1365h-312l-468 672h-16v-672zM541 -246q0 73 48 121.5t117 48.5q74 0 123 -48.5t49 -121.5q0 -71 -49.5 -118t-122.5 -47q-69 0 -117 47.5t-48 117.5z" />
    <glyph glyph-name="ndotbelow" unicode="&#x1e47;" horiz-adv-x="1256" 
d="M95 0v1078h391v-181h20q24 75 103.5 135.5t207.5 60.5q164 0 256.5 -100.5t92.5 -294.5v-698h-405v596q0 50 -12.5 85t-33.5 51.5t-41 23t-42 6.5q-54 0 -93 -42.5t-39 -126.5v-593h-405zM463 -246q0 73 48 121.5t117 48.5q74 0 123 -48.5t49 -121.5q0 -71 -49.5 -118
t-122.5 -47q-69 0 -117 47.5t-48 117.5z" />
    <glyph glyph-name="Nlinebelow" unicode="&#x1e48;" horiz-adv-x="1411" 
d="M500 0h-385v1365h315l465 -660h16v660h385v-1365h-312l-468 672h-16v-672zM1034 -324h-640v188h640v-188z" />
    <glyph glyph-name="nlinebelow" unicode="&#x1e49;" horiz-adv-x="1256" 
d="M95 0v1078h391v-181h20q24 75 103.5 135.5t207.5 60.5q164 0 256.5 -100.5t92.5 -294.5v-698h-405v596q0 50 -12.5 85t-33.5 51.5t-41 23t-42 6.5q-54 0 -93 -42.5t-39 -126.5v-593h-405zM956 -324h-640v188h640v-188z" />
    <glyph glyph-name="Ncircumflexbelow" unicode="&#x1e4a;" horiz-adv-x="1411" 
d="M500 0h-385v1365h315l465 -660h16v660h385v-1365h-312l-468 672h-16v-672zM298 -396l257 283h306l243 -283h-301l-90 129h-17l-108 -129h-290z" />
    <glyph glyph-name="ncircumflexbelow" unicode="&#x1e4b;" horiz-adv-x="1256" 
d="M95 0v1078h391v-181h20q24 75 103.5 135.5t207.5 60.5q164 0 256.5 -100.5t92.5 -294.5v-698h-405v596q0 50 -12.5 85t-33.5 51.5t-41 23t-42 6.5q-54 0 -93 -42.5t-39 -126.5v-593h-405zM220 -396l257 283h306l243 -283h-301l-90 129h-17l-108 -129h-290z" />
    <glyph glyph-name="Otildeacute" unicode="&#x1e4c;" horiz-adv-x="1407" 
d="M489 753v-142q0 -146 56.5 -223.5t158.5 -77.5q101 0 157.5 77.5t56.5 223.5v142q0 145 -56.5 223t-157.5 78q-102 0 -158.5 -78t-56.5 -223zM59 613v134q0 296 168.5 468t476.5 172t476 -173t168 -467v-134q0 -293 -168 -464.5t-476 -171.5t-476.5 172t-168.5 464z
M700 1493q-6 5 -18.5 17t-20 18.5t-21 12.5t-27.5 6q-65 0 -70 -76h-187q0 95 57 171t157 76q60 0 94 -14t72 -45q6 -5 19 -16.5t18.5 -15.5t15.5 -10.5t18 -8.5t18 -2q63 0 63 97h188q0 -112 -65 -185t-161 -73q-44 0 -76 8.5t-44 16.5t-30 23zM472 1756l293 248h401
l-346 -248h-348z" />
    <glyph glyph-name="otildeacute" unicode="&#x1e4d;" horiz-adv-x="1181" 
d="M592 1099q251 0 394.5 -144.5t143.5 -382.5v-54q0 -259 -141 -399t-397 -140q-258 0 -399.5 139.5t-141.5 397.5v53q0 238 144.5 384t396.5 146zM591 807q-128 0 -128 -227v-81q0 -228 128 -228q127 0 127 228v81q0 227 -127 227zM560 1258q-47 45 -91 45q-77 0 -82 -91
h-214q0 96 27 173t89 127.5t151 50.5q54 0 92.5 -19t84.5 -61q3 -3 10.5 -10t11 -9.5t10.5 -8.5t11 -8.5t10.5 -6.5t12 -5.5t12.5 -3t14 -1.5q72 0 72 115h214q0 -148 -79 -250t-203 -102q-38 0 -71 12t-47 23t-35 30zM790 1566h-348l233 318h401z" />
    <glyph glyph-name="Otildedieresis" unicode="&#x1e4e;" horiz-adv-x="1407" 
d="M489 753v-142q0 -146 56.5 -223.5t158.5 -77.5q101 0 157.5 77.5t56.5 223.5v142q0 145 -56.5 223t-157.5 78q-102 0 -158.5 -78t-56.5 -223zM59 613v134q0 296 168.5 468t476.5 172t476 -173t168 -467v-134q0 -293 -168 -464.5t-476 -171.5t-476.5 172t-168.5 464z
M700 1493q-6 5 -18.5 17t-20 18.5t-21 12.5t-27.5 6q-65 0 -70 -76h-187q0 95 57 171t157 76q60 0 94 -14t72 -45q6 -5 19 -16.5t18.5 -15.5t15.5 -10.5t18 -8.5t18 -2q63 0 63 97h188q0 -112 -65 -185t-161 -73q-44 0 -76 8.5t-44 16.5t-30 23zM339 1890q0 63 39 100
t107 37q70 0 108.5 -37t38.5 -100t-38.5 -100t-108.5 -37q-68 0 -107 37t-39 100zM772 1890q0 63 38 100t108 37q69 0 108 -37t39 -100t-38.5 -100t-108.5 -37t-108 37t-38 100z" />
    <glyph glyph-name="otildedieresis" unicode="&#x1e4f;" horiz-adv-x="1181" 
d="M592 1099q251 0 394.5 -144.5t143.5 -382.5v-54q0 -259 -141 -399t-397 -140q-258 0 -399.5 139.5t-141.5 397.5v53q0 238 144.5 384t396.5 146zM591 807q-128 0 -128 -227v-81q0 -228 128 -228q127 0 127 228v81q0 227 -127 227zM560 1258q-47 45 -91 45q-77 0 -82 -91
h-214q0 96 27 173t89 127.5t151 50.5q54 0 92.5 -19t84.5 -61q3 -3 10.5 -10t11 -9.5t10.5 -8.5t11 -8.5t10.5 -6.5t12 -5.5t12.5 -3t14 -1.5q72 0 72 115h214q0 -148 -79 -250t-203 -102q-38 0 -71 12t-47 23t-35 30zM205 1700q0 69 42.5 109t116.5 40q75 0 118 -40
t43 -109t-42.5 -109t-118.5 -40q-74 0 -116.5 40t-42.5 109zM673 1700q0 69 42.5 109t116.5 40q75 0 117.5 -40t42.5 -109t-42 -109t-118 -40q-74 0 -116.5 40t-42.5 109z" />
    <glyph glyph-name="Omacrongrave" unicode="&#x1e50;" horiz-adv-x="1407" 
d="M489 753v-142q0 -146 56.5 -223.5t158.5 -77.5q101 0 157.5 77.5t56.5 223.5v142q0 145 -56.5 223t-157.5 78q-102 0 -158.5 -78t-56.5 -223zM59 613v134q0 296 168.5 468t476.5 172t476 -173t168 -467v-134q0 -293 -168 -464.5t-476 -171.5t-476.5 172t-168.5 464z
M1024 1473h-640v188h640v-188zM887 1756h-327l-325 233h377z" />
    <glyph glyph-name="omacrongrave" unicode="&#x1e51;" horiz-adv-x="1181" 
d="M592 1099q251 0 394.5 -144.5t143.5 -382.5v-54q0 -259 -141 -399t-397 -140q-258 0 -399.5 139.5t-141.5 397.5v53q0 238 144.5 384t396.5 146zM591 807q-128 0 -128 -227v-81q0 -228 128 -228q127 0 127 228v81q0 227 -127 227zM916 1244h-640v188h640v-188zM847 1563
h-349l-303 311h401z" />
    <glyph glyph-name="Omacronacute" unicode="&#x1e52;" horiz-adv-x="1407" 
d="M489 753v-142q0 -146 56.5 -223.5t158.5 -77.5q101 0 157.5 77.5t56.5 223.5v142q0 145 -56.5 223t-157.5 78q-102 0 -158.5 -78t-56.5 -223zM59 613v134q0 296 168.5 468t476.5 172t476 -173t168 -467v-134q0 -293 -168 -464.5t-476 -171.5t-476.5 172t-168.5 464z
M1024 1473h-640v188h640v-188zM472 1756l293 248h401l-346 -248h-348z" />
    <glyph glyph-name="omacronacute" unicode="&#x1e53;" horiz-adv-x="1181" 
d="M592 1099q251 0 394.5 -144.5t143.5 -382.5v-54q0 -259 -141 -399t-397 -140q-258 0 -399.5 139.5t-141.5 397.5v53q0 238 144.5 384t396.5 146zM591 807q-128 0 -128 -227v-81q0 -228 128 -228q127 0 127 228v81q0 227 -127 227zM916 1244h-640v188h640v-188zM790 1566
h-348l233 318h401z" />
    <glyph glyph-name="Pacute" unicode="&#x1e54;" horiz-adv-x="1273" 
d="M115 1365h623q125 0 223.5 -41.5t158 -112t90.5 -159.5t31 -189q0 -102 -31.5 -190t-92.5 -156.5t-160 -108t-225 -39.5h-198v-369h-419v1365zM532 1055v-384h92q88 0 140.5 50.5t52.5 141.5q0 93 -52 142.5t-141 49.5h-92zM405 1493l293 248h401l-346 -248h-348z" />
    <glyph glyph-name="pacute" unicode="&#x1e55;" horiz-adv-x="1260" 
d="M822 -9q-111 0 -189.5 49t-110.5 133h-20v-510h-407v1415h407v-171h20q32 84 110 132t190 48q180 0 281.5 -129.5t101.5 -377.5v-80q0 -248 -101.5 -378.5t-281.5 -130.5zM643 295q65 0 103 54.5t38 159.5v59q0 105 -38 159t-103 54q-63 0 -102 -54t-39 -159v-59
q0 -105 39 -159.5t102 -54.5zM829 1243h-348l233 318h401z" />
    <glyph glyph-name="Pdotaccent" unicode="&#x1e56;" horiz-adv-x="1273" 
d="M115 1365h623q125 0 223.5 -41.5t158 -112t90.5 -159.5t31 -189q0 -102 -31.5 -190t-92.5 -156.5t-160 -108t-225 -39.5h-198v-369h-419v1365zM532 1055v-384h92q88 0 140.5 50.5t52.5 141.5q0 93 -52 142.5t-141 49.5h-92zM481 1603q0 69 43.5 114t112.5 45t116 -45
t47 -114q0 -68 -46.5 -112t-116.5 -44q-69 0 -112.5 43.5t-43.5 112.5z" />
    <glyph glyph-name="pdotaccent" unicode="&#x1e57;" horiz-adv-x="1260" 
d="M822 -9q-111 0 -189.5 49t-110.5 133h-20v-510h-407v1415h407v-171h20q32 84 110 132t190 48q180 0 281.5 -129.5t101.5 -377.5v-80q0 -248 -101.5 -378.5t-281.5 -130.5zM643 295q65 0 103 54.5t38 159.5v59q0 105 -38 159t-103 54q-63 0 -102 -54t-39 -159v-59
q0 -105 39 -159.5t102 -54.5zM474 1316q0 69 43.5 114t112.5 45t116 -45t47 -114q0 -68 -46.5 -112t-116.5 -44q-69 0 -112.5 43.5t-43.5 112.5z" />
    <glyph glyph-name="Rdotaccent" unicode="&#x1e58;" horiz-adv-x="1334" 
d="M741 1365q262 0 401.5 -126.5t139.5 -343.5q0 -64 -17.5 -123t-44 -101t-60.5 -76.5t-62.5 -54.5t-54.5 -32l268 -508h-461l-219 455h-105v-455h-411v1365h626zM526 735h151q74 0 123 41.5t49 120.5q0 80 -50.5 123.5t-121.5 43.5h-151v-329zM511 1603q0 69 43.5 114
t112.5 45t116 -45t47 -114q0 -68 -46.5 -112t-116.5 -44q-69 0 -112.5 43.5t-43.5 112.5z" />
    <glyph glyph-name="rdotaccent" unicode="&#x1e59;" horiz-adv-x="889" 
d="M95 0v1078h406v-173h20q13 67 75 127.5t156 60.5q84 0 114 -12v-338q-39 17 -136 17q-215 0 -215 -227v-533h-420zM289 1316q0 69 43.5 114t112.5 45t116 -45t47 -114q0 -68 -46.5 -112t-116.5 -44q-69 0 -112.5 43.5t-43.5 112.5z" />
    <glyph glyph-name="Rdotbelow" unicode="&#x1e5a;" horiz-adv-x="1334" 
d="M741 1365q262 0 401.5 -126.5t139.5 -343.5q0 -64 -17.5 -123t-44 -101t-60.5 -76.5t-62.5 -54.5t-54.5 -32l268 -508h-461l-219 455h-105v-455h-411v1365h626zM526 735h151q74 0 123 41.5t49 120.5q0 80 -50.5 123.5t-121.5 43.5h-151v-329zM502 -246q0 73 48 121.5
t117 48.5q74 0 123 -48.5t49 -121.5q0 -71 -49.5 -118t-122.5 -47q-69 0 -117 47.5t-48 117.5z" />
    <glyph glyph-name="rdotbelow" unicode="&#x1e5b;" horiz-adv-x="889" 
d="M95 0v1078h406v-173h20q13 67 75 127.5t156 60.5q84 0 114 -12v-338q-39 17 -136 17q-215 0 -215 -227v-533h-420zM144 -246q0 73 48 121.5t117 48.5q74 0 123 -48.5t49 -121.5q0 -71 -49.5 -118t-122.5 -47q-69 0 -117 47.5t-48 117.5z" />
    <glyph glyph-name="Rdotbelowmacron" unicode="&#x1e5c;" horiz-adv-x="1334" 
d="M741 1365q262 0 401.5 -126.5t139.5 -343.5q0 -64 -17.5 -123t-44 -101t-60.5 -76.5t-62.5 -54.5t-54.5 -32l268 -508h-461l-219 455h-105v-455h-411v1365h626zM526 735h151q74 0 123 41.5t49 120.5q0 80 -50.5 123.5t-121.5 43.5h-151v-329zM502 -246q0 73 48 121.5
t117 48.5q74 0 123 -48.5t49 -121.5q0 -71 -49.5 -118t-122.5 -47q-69 0 -117 47.5t-48 117.5zM987 1473h-640v188h640v-188z" />
    <glyph glyph-name="rdotbelowmacron" unicode="&#x1e5d;" horiz-adv-x="889" 
d="M95 0v1078h406v-173h20q13 67 75 127.5t156 60.5q84 0 114 -12v-338q-39 17 -136 17q-215 0 -215 -227v-533h-420zM144 -246q0 73 48 121.5t117 48.5q74 0 123 -48.5t49 -121.5q0 -71 -49.5 -118t-122.5 -47q-69 0 -117 47.5t-48 117.5zM770 1244h-640v188h640v-188z" />
    <glyph glyph-name="Rlinebelow" unicode="&#x1e5e;" horiz-adv-x="1334" 
d="M741 1365q262 0 401.5 -126.5t139.5 -343.5q0 -64 -17.5 -123t-44 -101t-60.5 -76.5t-62.5 -54.5t-54.5 -32l268 -508h-461l-219 455h-105v-455h-411v1365h626zM526 735h151q74 0 123 41.5t49 120.5q0 80 -50.5 123.5t-121.5 43.5h-151v-329zM995 -324h-640v188h640v-188
z" />
    <glyph glyph-name="rlinebelow" unicode="&#x1e5f;" horiz-adv-x="889" 
d="M95 0v1078h406v-173h20q13 67 75 127.5t156 60.5q84 0 114 -12v-338q-39 17 -136 17q-215 0 -215 -227v-533h-420zM637 -324h-640v188h640v-188z" />
    <glyph glyph-name="Sdotaccent" unicode="&#x1e60;" horiz-adv-x="1288" 
d="M57 418h394q2 -53 55 -93t145 -40q90 0 131 30t41 77q0 49 -45 73.5t-146 42.5l-165 29q-388 69 -388 406q0 209 154 326.5t413 117.5q139 0 249 -37t176 -99.5t100 -138t34 -157.5h-380q-2 49 -48 89t-130 40q-76 0 -114 -30t-38 -77q0 -79 178 -106l175 -27
q61 -9 113 -26t103.5 -48.5t87.5 -75t58.5 -109.5t22.5 -148q0 -208 -150.5 -334t-440.5 -126q-130 0 -232.5 26t-167 68.5t-107.5 101t-60.5 119t-17.5 126.5zM488 1603q0 69 43.5 114t112.5 45t116 -45t47 -114q0 -68 -46.5 -112t-116.5 -44q-69 0 -112.5 43.5
t-43.5 112.5z" />
    <glyph glyph-name="sdotaccent" unicode="&#x1e61;" horiz-adv-x="1097" 
d="M70 745q0 94 38.5 164t107 110.5t153 60t186.5 19.5q133 0 233 -35t161 -112.5t61 -190.5h-348q-6 37 -34.5 62.5t-75.5 25.5q-51 0 -76 -21.5t-25 -54.5q0 -17 10 -31t30.5 -24t42 -17.5t53 -13.5t55 -9.5t57 -7.5t49.5 -7q302 -48 302 -310q0 -174 -131.5 -274
t-382.5 -100q-238 0 -364.5 96t-126.5 247h392q2 -38 35.5 -64.5t83.5 -26.5q52 0 78 21t26 55q0 22 -14 37t-44 24.5t-56.5 14.5t-74 12t-73.5 12q-149 28 -238.5 109.5t-89.5 228.5zM393 1316q0 69 43.5 114t112.5 45t116 -45t47 -114q0 -68 -46.5 -112t-116.5 -44
q-69 0 -112.5 43.5t-43.5 112.5z" />
    <glyph glyph-name="Sdotbelow" unicode="&#x1e62;" horiz-adv-x="1288" 
d="M57 418h394q2 -53 55 -93t145 -40q90 0 131 30t41 77q0 49 -45 73.5t-146 42.5l-165 29q-388 69 -388 406q0 209 154 326.5t413 117.5q139 0 249 -37t176 -99.5t100 -138t34 -157.5h-380q-2 49 -48 89t-130 40q-76 0 -114 -30t-38 -77q0 -79 178 -106l175 -27
q61 -9 113 -26t103.5 -48.5t87.5 -75t58.5 -109.5t22.5 -148q0 -208 -150.5 -334t-440.5 -126q-130 0 -232.5 26t-167 68.5t-107.5 101t-60.5 119t-17.5 126.5zM479 -246q0 73 48 121.5t117 48.5q74 0 123 -48.5t49 -121.5q0 -71 -49.5 -118t-122.5 -47q-69 0 -117 47.5
t-48 117.5z" />
    <glyph glyph-name="sdotbelow" unicode="&#x1e63;" horiz-adv-x="1097" 
d="M70 745q0 94 38.5 164t107 110.5t153 60t186.5 19.5q133 0 233 -35t161 -112.5t61 -190.5h-348q-6 37 -34.5 62.5t-75.5 25.5q-51 0 -76 -21.5t-25 -54.5q0 -17 10 -31t30.5 -24t42 -17.5t53 -13.5t55 -9.5t57 -7.5t49.5 -7q302 -48 302 -310q0 -174 -131.5 -274
t-382.5 -100q-238 0 -364.5 96t-126.5 247h392q2 -38 35.5 -64.5t83.5 -26.5q52 0 78 21t26 55q0 22 -14 37t-44 24.5t-56.5 14.5t-74 12t-73.5 12q-149 28 -238.5 109.5t-89.5 228.5zM384 -246q0 73 48 121.5t117 48.5q74 0 123 -48.5t49 -121.5q0 -71 -49.5 -118
t-122.5 -47q-69 0 -117 47.5t-48 117.5z" />
    <glyph glyph-name="Sacutedotaccent" unicode="&#x1e64;" horiz-adv-x="1288" 
d="M168 1635q0 65 43 109t105 44q66 0 110.5 -43.5t44.5 -109.5q0 -63 -44.5 -105.5t-110.5 -42.5q-62 0 -105 42.5t-43 105.5zM57 418h394q2 -53 55 -93t145 -40q90 0 131 30t41 77q0 49 -45 73.5t-146 42.5l-165 29q-388 69 -388 406q0 209 154 326.5t413 117.5
q139 0 249 -37t176 -99.5t100 -138t34 -157.5h-380q-2 49 -48 89t-130 40q-76 0 -114 -30t-38 -77q0 -79 178 -106l175 -27q61 -9 113 -26t103.5 -48.5t87.5 -75t58.5 -109.5t22.5 -148q0 -208 -150.5 -334t-440.5 -126q-130 0 -232.5 26t-167 68.5t-107.5 101t-60.5 119
t-17.5 126.5zM603 1519l293 248h401l-346 -248h-348z" />
    <glyph glyph-name="sacutedotaccent" unicode="&#x1e65;" horiz-adv-x="1097" 
d="M107 1418q0 73 48 121.5t117 48.5q74 0 123 -48.5t49 -121.5q0 -71 -49.5 -118t-122.5 -47q-69 0 -117 47.5t-48 117.5zM70 745q0 94 38.5 164t107 110.5t153 60t186.5 19.5q133 0 233 -35t161 -112.5t61 -190.5h-348q-6 37 -34.5 62.5t-75.5 25.5q-51 0 -76 -21.5
t-25 -54.5q0 -17 10 -31t30.5 -24t42 -17.5t53 -13.5t55 -9.5t57 -7.5t49.5 -7q302 -48 302 -310q0 -174 -131.5 -274t-382.5 -100q-238 0 -364.5 96t-126.5 247h392q2 -38 35.5 -64.5t83.5 -26.5q52 0 78 21t26 55q0 22 -14 37t-44 24.5t-56.5 14.5t-74 12t-73.5 12
q-149 28 -238.5 109.5t-89.5 228.5zM813 1243h-348l233 318h401z" />
    <glyph glyph-name="Scarondotaccent" unicode="&#x1e66;" horiz-adv-x="1288" 
d="M488 1896q0 69 43.5 114t112.5 45t116 -45t47 -114q0 -68 -46.5 -112t-116.5 -44q-69 0 -112.5 43.5t-43.5 112.5zM57 418h394q2 -53 55 -93t145 -40q90 0 131 30t41 77q0 49 -45 73.5t-146 42.5l-165 29q-388 69 -388 406q0 209 154 326.5t413 117.5q139 0 249 -37
t176 -99.5t100 -138t34 -157.5h-380q-2 49 -48 89t-130 40q-76 0 -114 -30t-38 -77q0 -79 178 -106l175 -27q61 -9 113 -26t103.5 -48.5t87.5 -75t58.5 -109.5t22.5 -148q0 -208 -150.5 -334t-440.5 -126q-130 0 -232.5 26t-167 68.5t-107.5 101t-60.5 119t-17.5 126.5z
M244 1736h283l108 -109h23l100 109h284l-243 -253h-298z" />
    <glyph glyph-name="scarondotaccent" unicode="&#x1e67;" horiz-adv-x="1097" 
d="M369 1746q0 73 48 121.5t117 48.5q74 0 123 -48.5t49 -121.5q0 -71 -49.5 -118t-122.5 -47q-69 0 -117 47.5t-48 117.5zM70 745q0 94 38.5 164t107 110.5t153 60t186.5 19.5q133 0 233 -35t161 -112.5t61 -190.5h-348q-6 37 -34.5 62.5t-75.5 25.5q-51 0 -76 -21.5
t-25 -54.5q0 -17 10 -31t30.5 -24t42 -17.5t53 -13.5t55 -9.5t57 -7.5t49.5 -7q302 -48 302 -310q0 -174 -131.5 -274t-382.5 -100q-238 0 -364.5 96t-126.5 247h392q2 -38 35.5 -64.5t83.5 -26.5q52 0 78 21t26 55q0 22 -14 37t-44 24.5t-56.5 14.5t-74 12t-73.5 12
q-149 28 -238.5 109.5t-89.5 228.5zM138 1522h290l108 -159h17l90 159h301l-243 -323h-306z" />
    <glyph glyph-name="Sdotbelowdotaccent" unicode="&#x1e68;" horiz-adv-x="1288" 
d="M57 418h394q2 -53 55 -93t145 -40q90 0 131 30t41 77q0 49 -45 73.5t-146 42.5l-165 29q-388 69 -388 406q0 209 154 326.5t413 117.5q139 0 249 -37t176 -99.5t100 -138t34 -157.5h-380q-2 49 -48 89t-130 40q-76 0 -114 -30t-38 -77q0 -79 178 -106l175 -27
q61 -9 113 -26t103.5 -48.5t87.5 -75t58.5 -109.5t22.5 -148q0 -208 -150.5 -334t-440.5 -126q-130 0 -232.5 26t-167 68.5t-107.5 101t-60.5 119t-17.5 126.5zM479 -246q0 73 48 121.5t117 48.5q74 0 123 -48.5t49 -121.5q0 -71 -49.5 -118t-122.5 -47q-69 0 -117 47.5
t-48 117.5zM488 1603q0 69 43.5 114t112.5 45t116 -45t47 -114q0 -68 -46.5 -112t-116.5 -44q-69 0 -112.5 43.5t-43.5 112.5z" />
    <glyph glyph-name="sdotbelowdotaccent" unicode="&#x1e69;" horiz-adv-x="1097" 
d="M70 745q0 94 38.5 164t107 110.5t153 60t186.5 19.5q133 0 233 -35t161 -112.5t61 -190.5h-348q-6 37 -34.5 62.5t-75.5 25.5q-51 0 -76 -21.5t-25 -54.5q0 -17 10 -31t30.5 -24t42 -17.5t53 -13.5t55 -9.5t57 -7.5t49.5 -7q302 -48 302 -310q0 -174 -131.5 -274
t-382.5 -100q-238 0 -364.5 96t-126.5 247h392q2 -38 35.5 -64.5t83.5 -26.5q52 0 78 21t26 55q0 22 -14 37t-44 24.5t-56.5 14.5t-74 12t-73.5 12q-149 28 -238.5 109.5t-89.5 228.5zM384 -246q0 73 48 121.5t117 48.5q74 0 123 -48.5t49 -121.5q0 -71 -49.5 -118
t-122.5 -47q-69 0 -117 47.5t-48 117.5zM393 1316q0 69 43.5 114t112.5 45t116 -45t47 -114q0 -68 -46.5 -112t-116.5 -44q-69 0 -112.5 43.5t-43.5 112.5z" />
    <glyph glyph-name="Tdotaccent" unicode="&#x1e6a;" horiz-adv-x="1128" 
d="M774 0h-420v1029h-347v336h1114v-336h-347v-1029zM408 1603q0 69 43.5 114t112.5 45t116 -45t47 -114q0 -68 -46.5 -112t-116.5 -44q-69 0 -112.5 43.5t-43.5 112.5z" />
    <glyph glyph-name="tdotaccent" unicode="&#x1e6b;" horiz-adv-x="872" 
d="M206 1053v264h389v-264h202v-296h-202v-357q0 -107 128 -107q54 0 74 2v-285q-73 -10 -171 -10q-223 0 -327.5 70t-104.5 240v447h-164v296h176zM250 1555q0 69 43.5 114t112.5 45t116 -45t47 -114q0 -68 -46.5 -112t-116.5 -44q-69 0 -112.5 43.5t-43.5 112.5z" />
    <glyph glyph-name="Tdotbelow" unicode="&#x1e6c;" horiz-adv-x="1128" 
d="M774 0h-420v1029h-347v336h1114v-336h-347v-1029zM399 -246q0 73 48 121.5t117 48.5q74 0 123 -48.5t49 -121.5q0 -71 -49.5 -118t-122.5 -47q-69 0 -117 47.5t-48 117.5z" />
    <glyph glyph-name="tdotbelow" unicode="&#x1e6d;" horiz-adv-x="872" 
d="M206 1053v264h389v-264h202v-296h-202v-357q0 -107 128 -107q54 0 74 2v-285q-73 -10 -171 -10q-223 0 -327.5 70t-104.5 240v447h-164v296h176zM327 -246q0 73 48 121.5t117 48.5q74 0 123 -48.5t49 -121.5q0 -71 -49.5 -118t-122.5 -47q-69 0 -117 47.5t-48 117.5z" />
    <glyph glyph-name="Tlinebelow" unicode="&#x1e6e;" horiz-adv-x="1128" 
d="M774 0h-420v1029h-347v336h1114v-336h-347v-1029zM892 -324h-640v188h640v-188z" />
    <glyph glyph-name="tlinebelow" unicode="&#x1e6f;" horiz-adv-x="872" 
d="M206 1053v264h389v-264h202v-296h-202v-357q0 -107 128 -107q54 0 74 2v-285q-73 -10 -171 -10q-223 0 -327.5 70t-104.5 240v447h-164v296h176zM820 -324h-640v188h640v-188z" />
    <glyph glyph-name="Tcircumflexbelow" unicode="&#x1e70;" horiz-adv-x="1128" 
d="M774 0h-420v1029h-347v336h1114v-336h-347v-1029zM156 -396l257 283h306l243 -283h-301l-90 129h-17l-108 -129h-290z" />
    <glyph glyph-name="tcircumflexbelow" unicode="&#x1e71;" horiz-adv-x="872" 
d="M206 1053v264h389v-264h202v-296h-202v-357q0 -107 128 -107q54 0 74 2v-285q-73 -10 -171 -10q-223 0 -327.5 70t-104.5 240v447h-164v296h176zM84 -396l257 283h306l243 -283h-301l-90 129h-17l-108 -129h-290z" />
    <glyph glyph-name="Udieresisbelow" unicode="&#x1e72;" horiz-adv-x="1408" 
d="M520 1365v-834q0 -108 49.5 -159t134.5 -51q84 0 134 52t50 158v834h420v-893q0 -227 -162.5 -361t-441.5 -134t-441.5 134t-162.5 361v893h420zM315 -303q0 69 42.5 109t116.5 40q75 0 118 -40t43 -109t-42.5 -109t-118.5 -40q-74 0 -116.5 40t-42.5 109zM783 -303
q0 69 42.5 109t116.5 40q75 0 117.5 -40t42.5 -109t-42 -109t-118 -40q-74 0 -116.5 40t-42.5 109z" />
    <glyph glyph-name="udieresisbelow" unicode="&#x1e73;" horiz-adv-x="1255" 
d="M1160 1078v-1078h-391v181h-20q-24 -75 -103.5 -135.5t-207.5 -60.5q-164 0 -256 99.5t-92 293.5v700h405v-598q0 -50 12.5 -85t33.5 -51.5t40.5 -23t41.5 -6.5q54 0 93 42.5t39 126.5v595h405zM239 -303q0 69 42.5 109t116.5 40q75 0 118 -40t43 -109t-42.5 -109
t-118.5 -40q-74 0 -116.5 40t-42.5 109zM707 -303q0 69 42.5 109t116.5 40q75 0 117.5 -40t42.5 -109t-42 -109t-118 -40q-74 0 -116.5 40t-42.5 109z" />
    <glyph glyph-name="Utildebelow" unicode="&#x1e74;" horiz-adv-x="1408" 
d="M520 1365v-834q0 -108 49.5 -159t134.5 -51q84 0 134 52t50 158v834h420v-893q0 -227 -162.5 -361t-441.5 -134t-441.5 134t-162.5 361v893h420zM700 -333q-6 5 -18.5 17t-20 18.5t-21 12.5t-27.5 6q-65 0 -70 -76h-187q0 95 57 171t157 76q60 0 94 -14t72 -45
q6 -5 19 -16.5t18.5 -15.5t15.5 -10.5t18 -8.5t18 -2q63 0 63 97h188q0 -112 -65 -185t-161 -73q-44 0 -76 8.5t-44 16.5t-30 23z" />
    <glyph glyph-name="utildebelow" unicode="&#x1e75;" horiz-adv-x="1255" 
d="M1160 1078v-1078h-391v181h-20q-24 -75 -103.5 -135.5t-207.5 -60.5q-164 0 -256 99.5t-92 293.5v700h405v-598q0 -50 12.5 -85t33.5 -51.5t40.5 -23t41.5 -6.5q54 0 93 42.5t39 126.5v595h405zM624 -333q-6 5 -18.5 17t-20 18.5t-21 12.5t-27.5 6q-65 0 -70 -76h-187
q0 95 57 171t157 76q60 0 94 -14t72 -45q6 -5 19 -16.5t18.5 -15.5t15.5 -10.5t18 -8.5t18 -2q63 0 63 97h188q0 -112 -65 -185t-161 -73q-44 0 -76 8.5t-44 16.5t-30 23z" />
    <glyph glyph-name="Ucircumflexbelow" unicode="&#x1e76;" horiz-adv-x="1408" 
d="M520 1365v-834q0 -108 49.5 -159t134.5 -51q84 0 134 52t50 158v834h420v-893q0 -227 -162.5 -361t-441.5 -134t-441.5 134t-162.5 361v893h420zM296 -396l257 283h306l243 -283h-301l-90 129h-17l-108 -129h-290z" />
    <glyph glyph-name="ucircumflexbelow" unicode="&#x1e77;" horiz-adv-x="1255" 
d="M1160 1078v-1078h-391v181h-20q-24 -75 -103.5 -135.5t-207.5 -60.5q-164 0 -256 99.5t-92 293.5v700h405v-598q0 -50 12.5 -85t33.5 -51.5t40.5 -23t41.5 -6.5q54 0 93 42.5t39 126.5v595h405zM220 -396l257 283h306l243 -283h-301l-90 129h-17l-108 -129h-290z" />
    <glyph glyph-name="Utildeacute" unicode="&#x1e78;" horiz-adv-x="1408" 
d="M520 1365v-834q0 -108 49.5 -159t134.5 -51q84 0 134 52t50 158v834h420v-893q0 -227 -162.5 -361t-441.5 -134t-441.5 134t-162.5 361v893h420zM700 1493q-6 5 -18.5 17t-20 18.5t-21 12.5t-27.5 6q-65 0 -70 -76h-187q0 95 57 171t157 76q60 0 94 -14t72 -45
q6 -5 19 -16.5t18.5 -15.5t15.5 -10.5t18 -8.5t18 -2q63 0 63 97h188q0 -112 -65 -185t-161 -73q-44 0 -76 8.5t-44 16.5t-30 23zM472 1756l293 248h401l-346 -248h-348z" />
    <glyph glyph-name="utildeacute" unicode="&#x1e79;" horiz-adv-x="1255" 
d="M1160 1078v-1078h-391v181h-20q-24 -75 -103.5 -135.5t-207.5 -60.5q-164 0 -256 99.5t-92 293.5v700h405v-598q0 -50 12.5 -85t33.5 -51.5t40.5 -23t41.5 -6.5q54 0 93 42.5t39 126.5v595h405zM597 1258q-47 45 -91 45q-77 0 -82 -91h-214q0 96 27 173t89 127.5
t151 50.5q54 0 92.5 -19t84.5 -61q3 -3 10.5 -10t11 -9.5t10.5 -8.5t11 -8.5t10.5 -6.5t12 -5.5t12.5 -3t14 -1.5q72 0 72 115h214q0 -148 -79 -250t-203 -102q-38 0 -71 12t-47 23t-35 30zM827 1566h-348l233 318h401z" />
    <glyph glyph-name="Umacrondieresis" unicode="&#x1e7a;" horiz-adv-x="1408" 
d="M520 1365v-834q0 -108 49.5 -159t134.5 -51q84 0 134 52t50 158v834h420v-893q0 -227 -162.5 -361t-441.5 -134t-441.5 134t-162.5 361v893h420zM1024 1473h-640v188h640v-188zM339 1890q0 63 39 100t107 37q70 0 108.5 -37t38.5 -100t-38.5 -100t-108.5 -37
q-68 0 -107 37t-39 100zM772 1890q0 63 38 100t108 37q69 0 108 -37t39 -100t-38.5 -100t-108.5 -37t-108 37t-38 100z" />
    <glyph glyph-name="umacrondieresis" unicode="&#x1e7b;" horiz-adv-x="1255" 
d="M1160 1078v-1078h-391v181h-20q-24 -75 -103.5 -135.5t-207.5 -60.5q-164 0 -256 99.5t-92 293.5v700h405v-598q0 -50 12.5 -85t33.5 -51.5t40.5 -23t41.5 -6.5q54 0 93 42.5t39 126.5v595h405zM953 1244h-640v188h640v-188zM242 1700q0 69 42.5 109t116.5 40
q75 0 118 -40t43 -109t-42.5 -109t-118.5 -40q-74 0 -116.5 40t-42.5 109zM710 1700q0 69 42.5 109t116.5 40q75 0 117.5 -40t42.5 -109t-42 -109t-118 -40q-74 0 -116.5 40t-42.5 109z" />
    <glyph glyph-name="Vtilde" unicode="&#x1e7c;" horiz-adv-x="1334" 
d="M947 0h-551l-401 1365h490l191 -935h19l185 935h459zM663 1493q-6 5 -18.5 17t-20 18.5t-21 12.5t-27.5 6q-65 0 -70 -76h-187q0 95 57 171t157 76q60 0 94 -14t72 -45q6 -5 19 -16.5t18.5 -15.5t15.5 -10.5t18 -8.5t18 -2q63 0 63 97h188q0 -112 -65 -185t-161 -73
q-44 0 -76 8.5t-44 16.5t-30 23z" />
    <glyph glyph-name="vtilde" unicode="&#x1e7d;" horiz-adv-x="1145" 
d="M318 0l-323 1078h437l125 -731h16l153 731h424l-356 -1078h-476zM542 1258q-47 45 -91 45q-77 0 -82 -91h-214q0 96 27 173t89 127.5t151 50.5q54 0 92.5 -19t84.5 -61q3 -3 10.5 -10t11 -9.5t10.5 -8.5t11 -8.5t10.5 -6.5t12 -5.5t12.5 -3t14 -1.5q72 0 72 115h214
q0 -148 -79 -250t-203 -102q-38 0 -71 12t-47 23t-35 30z" />
    <glyph glyph-name="Vdotbelow" unicode="&#x1e7e;" horiz-adv-x="1334" 
d="M947 0h-551l-401 1365h490l191 -935h19l185 935h459zM502 -246q0 73 48 121.5t117 48.5q74 0 123 -48.5t49 -121.5q0 -71 -49.5 -118t-122.5 -47q-69 0 -117 47.5t-48 117.5z" />
    <glyph glyph-name="vdotbelow" unicode="&#x1e7f;" horiz-adv-x="1145" 
d="M318 0l-323 1078h437l125 -731h16l153 731h424l-356 -1078h-476zM408 -246q0 73 48 121.5t117 48.5q74 0 123 -48.5t49 -121.5q0 -71 -49.5 -118t-122.5 -47q-69 0 -117 47.5t-48 117.5z" />
    <glyph glyph-name="Wgrave" unicode="&#x1e80;" horiz-adv-x="1865" 
d="M726 0h-395l-336 1364h433l129 -827h19l196 827h323l196 -827h20l126 827h433l-335 -1364h-395l-199 751h-15zM1116 1493h-327l-325 233h377z" />
    <glyph glyph-name="wgrave" unicode="&#x1e81;" horiz-adv-x="1726" 
d="M1721 1078l-269 -1078h-433l-149 670h-14l-148 -670h-437l-266 1078h410l102 -709h16l142 709h380l144 -709h16l102 709h404zM1119 1250h-349l-303 311h401z" />
    <glyph glyph-name="Wacute" unicode="&#x1e82;" horiz-adv-x="1865" 
d="M726 0h-395l-336 1364h433l129 -827h19l196 827h323l196 -827h20l126 827h433l-335 -1364h-395l-199 751h-15zM701 1493l293 248h401l-346 -248h-348z" />
    <glyph glyph-name="wacute" unicode="&#x1e83;" horiz-adv-x="1726" 
d="M1721 1078l-269 -1078h-433l-149 670h-14l-148 -670h-437l-266 1078h410l102 -709h16l142 709h380l144 -709h16l102 709h404zM1062 1243h-348l233 318h401z" />
    <glyph glyph-name="Wdieresis" unicode="&#x1e84;" horiz-adv-x="1865" 
d="M726 0h-395l-336 1364h433l129 -827h19l196 827h323l196 -827h20l126 827h433l-335 -1364h-395l-199 751h-15zM568 1577q0 63 39 100t107 37q70 0 108.5 -37t38.5 -100t-38.5 -100t-108.5 -37q-68 0 -107 37t-39 100zM1001 1577q0 63 38 100t108 37q69 0 108 -37t39 -100
t-38.5 -100t-108.5 -37t-108 37t-38 100z" />
    <glyph glyph-name="wdieresis" unicode="&#x1e85;" horiz-adv-x="1726" 
d="M1721 1078l-269 -1078h-433l-149 670h-14l-148 -670h-437l-266 1078h410l102 -709h16l142 709h380l144 -709h16l102 709h404zM477 1347q0 69 42.5 109t116.5 40q75 0 118 -40t43 -109t-42.5 -109t-118.5 -40q-74 0 -116.5 40t-42.5 109zM945 1347q0 69 42.5 109t116.5 40
q75 0 117.5 -40t42.5 -109t-42 -109t-118 -40q-74 0 -116.5 40t-42.5 109z" />
    <glyph glyph-name="Wdotaccent" unicode="&#x1e86;" horiz-adv-x="1865" 
d="M726 0h-395l-336 1364h433l129 -827h19l196 827h323l196 -827h20l126 827h433l-335 -1364h-395l-199 751h-15zM777 1603q0 69 43.5 114t112.5 45t116 -45t47 -114q0 -68 -46.5 -112t-116.5 -44q-69 0 -112.5 43.5t-43.5 112.5z" />
    <glyph glyph-name="wdotaccent" unicode="&#x1e87;" horiz-adv-x="1726" 
d="M1721 1078l-269 -1078h-433l-149 670h-14l-148 -670h-437l-266 1078h410l102 -709h16l142 709h380l144 -709h16l102 709h404zM707 1316q0 69 43.5 114t112.5 45t116 -45t47 -114q0 -68 -46.5 -112t-116.5 -44q-69 0 -112.5 43.5t-43.5 112.5z" />
    <glyph glyph-name="Wdotbelow" unicode="&#x1e88;" horiz-adv-x="1865" 
d="M726 0h-395l-336 1364h433l129 -827h19l196 827h323l196 -827h20l126 827h433l-335 -1364h-395l-199 751h-15zM768 -246q0 73 48 121.5t117 48.5q74 0 123 -48.5t49 -121.5q0 -71 -49.5 -118t-122.5 -47q-69 0 -117 47.5t-48 117.5z" />
    <glyph glyph-name="wdotbelow" unicode="&#x1e89;" horiz-adv-x="1726" 
d="M1721 1078l-269 -1078h-433l-149 670h-14l-148 -670h-437l-266 1078h410l102 -709h16l142 709h380l144 -709h16l102 709h404zM698 -246q0 73 48 121.5t117 48.5q74 0 123 -48.5t49 -121.5q0 -71 -49.5 -118t-122.5 -47q-69 0 -117 47.5t-48 117.5z" />
    <glyph glyph-name="Xdotaccent" unicode="&#x1e8a;" horiz-adv-x="1281" 
d="M1324 1365l-406 -678l405 -687h-467l-211 395h-16l-209 -395h-443l386 687l-388 678h489l188 -413h17l188 413h467zM485 1603q0 69 43.5 114t112.5 45t116 -45t47 -114q0 -68 -46.5 -112t-116.5 -44q-69 0 -112.5 43.5t-43.5 112.5z" />
    <glyph glyph-name="xdotaccent" unicode="&#x1e8b;" horiz-adv-x="1188" 
d="M729 0l-137 305h-16l-137 -305h-416l297 540l-319 538h459l136 -302h16l137 302h438l-335 -538l314 -540h-437zM438 1316q0 69 43.5 114t112.5 45t116 -45t47 -114q0 -68 -46.5 -112t-116.5 -44q-69 0 -112.5 43.5t-43.5 112.5z" />
    <glyph glyph-name="Xdieresis" unicode="&#x1e8c;" horiz-adv-x="1281" 
d="M1324 1365l-406 -678l405 -687h-467l-211 395h-16l-209 -395h-443l386 687l-388 678h489l188 -413h17l188 413h467zM276 1577q0 63 39 100t107 37q70 0 108.5 -37t38.5 -100t-38.5 -100t-108.5 -37q-68 0 -107 37t-39 100zM709 1577q0 63 38 100t108 37q69 0 108 -37
t39 -100t-38.5 -100t-108.5 -37t-108 37t-38 100z" />
    <glyph glyph-name="xdieresis" unicode="&#x1e8d;" horiz-adv-x="1188" 
d="M729 0l-137 305h-16l-137 -305h-416l297 540l-319 538h459l136 -302h16l137 302h438l-335 -538l314 -540h-437zM208 1347q0 69 42.5 109t116.5 40q75 0 118 -40t43 -109t-42.5 -109t-118.5 -40q-74 0 -116.5 40t-42.5 109zM676 1347q0 69 42.5 109t116.5 40
q75 0 117.5 -40t42.5 -109t-42 -109t-118 -40q-74 0 -116.5 40t-42.5 109z" />
    <glyph glyph-name="Ydotaccent" unicode="&#x1e8e;" horiz-adv-x="1251" 
d="M836 0h-420v411l-457 954h455l212 -537h15l214 537h438l-457 -941v-424zM470 1603q0 69 43.5 114t112.5 45t116 -45t47 -114q0 -68 -46.5 -112t-116.5 -44q-69 0 -112.5 43.5t-43.5 112.5z" />
    <glyph glyph-name="ydotaccent" unicode="&#x1e8f;" horiz-adv-x="1171" 
d="M1172 1078q-298 -970 -307 -994l-27 -71q-36 -95 -80.5 -161.5t-111 -118.5t-161.5 -77t-222 -25q-133 0 -204 16v267q32 -8 101 -8q99 0 136.5 25.5t37.5 78.5v7l-335 1061h446l135 -766h16l146 766h430zM430 1316q0 69 43.5 114t112.5 45t116 -45t47 -114
q0 -68 -46.5 -112t-116.5 -44q-69 0 -112.5 43.5t-43.5 112.5z" />
    <glyph glyph-name="Zcircumflex" unicode="&#x1e90;" horiz-adv-x="1224" 
d="M85 0v262l550 758v19h-545v326h1046v-262l-550 -757v-20h573v-326h-1074zM212 1476l257 253h298l243 -253h-284l-100 109h-23l-108 -109h-283z" />
    <glyph glyph-name="zcircumflex" unicode="&#x1e91;" horiz-adv-x="1050" 
d="M70 0v201l424 561v16h-406v300h889v-236l-386 -525v-16h409v-301h-930zM106 1240l257 323h306l243 -323h-301l-90 159h-17l-108 -159h-290z" />
    <glyph glyph-name="Zdotbelow" unicode="&#x1e92;" horiz-adv-x="1224" 
d="M85 0v262l550 758v19h-545v326h1046v-262l-550 -757v-20h573v-326h-1074zM447 -246q0 73 48 121.5t117 48.5q74 0 123 -48.5t49 -121.5q0 -71 -49.5 -118t-122.5 -47q-69 0 -117 47.5t-48 117.5z" />
    <glyph glyph-name="zdotbelow" unicode="&#x1e93;" horiz-adv-x="1050" 
d="M70 0v201l424 561v16h-406v300h889v-236l-386 -525v-16h409v-301h-930zM360 -246q0 73 48 121.5t117 48.5q74 0 123 -48.5t49 -121.5q0 -71 -49.5 -118t-122.5 -47q-69 0 -117 47.5t-48 117.5z" />
    <glyph glyph-name="Zlinebelow" unicode="&#x1e94;" horiz-adv-x="1224" 
d="M85 0v262l550 758v19h-545v326h1046v-262l-550 -757v-20h573v-326h-1074zM940 -324h-640v188h640v-188z" />
    <glyph glyph-name="zlinebelow" unicode="&#x1e95;" horiz-adv-x="1050" 
d="M70 0v201l424 561v16h-406v300h889v-236l-386 -525v-16h409v-301h-930zM853 -324h-640v188h640v-188z" />
    <glyph glyph-name="hlinebelow" unicode="&#x1e96;" horiz-adv-x="1261" 
d="M100 0v1437h405v-540h20q10 33 32 65t57.5 62.5t90.5 49.5t121 19q163 0 256.5 -101t93.5 -294v-698h-405v596q0 50 -12.5 85t-33.5 51.5t-41.5 23t-43.5 6.5q-55 0 -95 -42.5t-40 -126.5v-593h-405zM959 -324h-640v188h640v-188z" />
    <glyph glyph-name="tdieresis" unicode="&#x1e97;" horiz-adv-x="872" 
d="M206 1053v264h389v-264h202v-296h-202v-357q0 -107 128 -107q54 0 74 2v-285q-73 -10 -171 -10q-223 0 -327.5 70t-104.5 240v447h-164v296h176zM20 1586q0 69 42.5 109t116.5 40q75 0 118 -40t43 -109t-42.5 -109t-118.5 -40q-74 0 -116.5 40t-42.5 109zM488 1586
q0 69 42.5 109t116.5 40q75 0 117.5 -40t42.5 -109t-42 -109t-118 -40q-74 0 -116.5 40t-42.5 109z" />
    <glyph glyph-name="wring" unicode="&#x1e98;" horiz-adv-x="1726" 
d="M1721 1078l-269 -1078h-433l-149 670h-14l-148 -670h-437l-266 1078h410l102 -709h16l142 709h380l144 -709h16l102 709h404zM857 1169q-109 0 -180.5 67t-71.5 175q0 107 71 173t181 66t180.5 -66t70.5 -173q0 -108 -71 -175t-180 -67zM774 1409q0 -36 23 -58.5
t59 -22.5t59.5 22.5t23.5 58.5t-23.5 59t-59.5 23t-59 -23t-23 -59z" />
    <glyph glyph-name="yring" unicode="&#x1e99;" horiz-adv-x="1171" 
d="M1172 1078q-298 -970 -307 -994l-27 -71q-36 -95 -80.5 -161.5t-111 -118.5t-161.5 -77t-222 -25q-133 0 -204 16v267q32 -8 101 -8q99 0 136.5 25.5t37.5 78.5v7l-335 1061h446l135 -766h16l146 766h430zM580 1169q-109 0 -180.5 67t-71.5 175q0 107 71 173t181 66
t180.5 -66t70.5 -173q0 -108 -71 -175t-180 -67zM497 1409q0 -36 23 -58.5t59 -22.5t59.5 22.5t23.5 58.5t-23.5 59t-59.5 23t-59 -23t-23 -59z" />
    <glyph glyph-name="Adotbelow" unicode="&#x1ea0;" horiz-adv-x="1354" 
d="M414 0h-415l414 1365h532l410 -1365h-448l-59 258h-373zM675 1018h-21l-110 -465h237zM512 -246q0 73 48 121.5t117 48.5q74 0 123 -48.5t49 -121.5q0 -71 -49.5 -118t-122.5 -47q-69 0 -117 47.5t-48 117.5z" />
    <glyph glyph-name="adotbelow" unicode="&#x1ea1;" horiz-adv-x="1155" 
d="M672 126q-23 -58 -89 -99.5t-176 -41.5q-162 0 -260 86.5t-98 240.5q0 153 102.5 241t289.5 88h231v79q0 42 -27.5 66t-73.5 24q-48 0 -77 -26.5t-29 -67.5h-378q1 55 14.5 104.5t48 100.5t87 88t139.5 60.5t199 23.5q107 0 194 -20.5t156 -65t107 -121.5t38 -182v-704
h-378v126h-20zM555 253q46 0 81.5 26t35.5 68v96h-104q-55 0 -89 -26t-34 -69q0 -44 32.5 -69.5t77.5 -25.5zM413 -246q0 73 48 121.5t117 48.5q74 0 123 -48.5t49 -121.5q0 -71 -49.5 -118t-122.5 -47q-69 0 -117 47.5t-48 117.5z" />
    <glyph glyph-name="Ahookabove" unicode="&#x1ea2;" horiz-adv-x="1354" 
d="M414 0h-415l414 1365h532l410 -1365h-448l-59 258h-373zM675 1018h-21l-110 -465h237zM493 1689v144q46 23 126 23q118 0 182 -54t64 -152q0 -76 -39.5 -122.5t-108.5 -83.5l-107 113q67 27 67 78q0 33 -27.5 49t-71.5 16q-43 0 -85 -11z" />
    <glyph glyph-name="ahookabove" unicode="&#x1ea3;" horiz-adv-x="1155" 
d="M672 126q-23 -58 -89 -99.5t-176 -41.5q-162 0 -260 86.5t-98 240.5q0 153 102.5 241t289.5 88h231v79q0 42 -27.5 66t-73.5 24q-48 0 -77 -26.5t-29 -67.5h-378q1 55 14.5 104.5t48 100.5t87 88t139.5 60.5t199 23.5q107 0 194 -20.5t156 -65t107 -121.5t38 -182v-704
h-378v126h-20zM555 253q46 0 81.5 26t35.5 68v96h-104q-55 0 -89 -26t-34 -69q0 -44 32.5 -69.5t77.5 -25.5zM418 1426v143q43 18 114 18q110 0 172.5 -51t62.5 -137q0 -82 -43.5 -130.5t-126.5 -88.5l-92 106q41 23 59 42.5t18 44.5q0 29 -22.5 47t-65.5 18q-44 0 -76 -12z
" />
    <glyph glyph-name="Acircumflexacute" unicode="&#x1ea4;" horiz-adv-x="1354" 
d="M414 0h-415l414 1365h532l410 -1365h-448l-59 258h-373zM675 1018h-21l-110 -465h237zM280 1483l243 253h298l257 -253h-283l-108 109h-23l-100 -109h-284zM904 1754l157 149h257l-298 -257z" />
    <glyph glyph-name="acircumflexacute" unicode="&#x1ea5;" horiz-adv-x="1155" 
d="M672 126q-23 -58 -89 -99.5t-176 -41.5q-162 0 -260 86.5t-98 240.5q0 153 102.5 241t289.5 88h231v79q0 42 -27.5 66t-73.5 24q-48 0 -77 -26.5t-29 -67.5h-378q1 55 14.5 104.5t48 100.5t87 88t139.5 60.5t199 23.5q107 0 194 -20.5t156 -65t107 -121.5t38 -182v-704
h-378v126h-20zM555 253q46 0 81.5 26t35.5 68v96h-104q-55 0 -89 -26t-34 -69q0 -44 32.5 -69.5t77.5 -25.5zM181 1196l243 253h298l257 -253h-283l-108 109h-23l-100 -109h-284zM805 1467l157 149h257l-298 -257z" />
    <glyph glyph-name="Acircumflexgrave" unicode="&#x1ea6;" horiz-adv-x="1354" 
d="M414 0h-415l414 1365h532l410 -1365h-448l-59 258h-373zM675 1018h-21l-110 -465h237zM1278 1648h-236l-245 255h248zM1078 1483h-283l-108 109h-23l-100 -109h-284l243 253h298z" />
    <glyph glyph-name="acircumflexgrave" unicode="&#x1ea7;" horiz-adv-x="1155" 
d="M672 126q-23 -58 -89 -99.5t-176 -41.5q-162 0 -260 86.5t-98 240.5q0 153 102.5 241t289.5 88h231v79q0 42 -27.5 66t-73.5 24q-48 0 -77 -26.5t-29 -67.5h-378q1 55 14.5 104.5t48 100.5t87 88t139.5 60.5t199 23.5q107 0 194 -20.5t156 -65t107 -121.5t38 -182v-704
h-378v126h-20zM555 253q46 0 81.5 26t35.5 68v96h-104q-55 0 -89 -26t-34 -69q0 -44 32.5 -69.5t77.5 -25.5zM1179 1361h-236l-245 255h248zM979 1196h-283l-108 109h-23l-100 -109h-284l243 253h298z" />
    <glyph glyph-name="Acircumflexhookabove" unicode="&#x1ea8;" horiz-adv-x="1354" 
d="M414 0h-415l414 1365h532l410 -1365h-448l-59 258h-373zM675 1018h-21l-110 -465h237zM280 1483l243 253h298l257 -253h-283l-108 109h-23l-100 -109h-284zM841 2034q59 11 117 11q121 0 194.5 -48.5t73.5 -144.5q0 -68 -46.5 -125.5t-113.5 -98.5l-108 111q60 40 60 82
q0 68 -96 68q-46 0 -81 -6v151z" />
    </font>
</defs>
</svg>
