<?xml version="1.0" standalone="no"?>
<!DOCTYPE svg PUBLIC "-//W3C//DTD SVG 1.1//EN" "http://www.w3.org/Graphics/SVG/1.1/DTD/svg11.dtd" >
<svg xmlns="http://www.w3.org/2000/svg" xmlns:xlink="http://www.w3.org/1999/xlink" version="1.1">
<metadata>
Created by FontForge 20170731 at Wed Jan 14 10:07:47 2015
 By Aleksey,,,
(c) 2014 Apple Inc. All rights reserved.
</metadata>
<defs>
<font id="SanFranciscoText-RegularG3" horiz-adv-x="1128" >
  <font-face 
    font-family="San Francisco Text Regular G3"
    font-weight="450"
    font-stretch="normal"
    units-per-em="2048"
    panose-1="0 0 0 0 0 0 0 0 0 0"
    ascent="1638"
    descent="-410"
    x-height="1052"
    cap-height="1365"
    bbox="-638 -495.429 2051 1990"
    underline-thickness="102"
    underline-position="-263"
    unicode-range="U+000D-FB02"
  />
<missing-glyph horiz-adv-x="1293" 
d="M120 0v1365h1053v-1365h-1053zM501 313q0 -47 33.5 -77t86.5 -30q55 0 88.5 29.5t33.5 77.5q0 49 -33.5 78.5t-88.5 29.5q-54 0 -87 -30t-33 -78zM339 888h169q1 59 34.5 94.5t90.5 35.5q54 0 87 -30t33 -80q0 -38 -20.5 -65.5t-82.5 -72.5q-69 -48 -96 -100t-22 -121
l1 -18h166v15q0 48 19 76t88 77q73 52 103 102t30 116q0 113 -81 181.5t-215 68.5q-143 0 -225.5 -76t-78.5 -203z" />
    <glyph glyph-name=".notdef" horiz-adv-x="1293" 
d="M120 0v1365h1053v-1365h-1053zM501 313q0 -47 33.5 -77t86.5 -30q55 0 88.5 29.5t33.5 77.5q0 49 -33.5 78.5t-88.5 29.5q-54 0 -87 -30t-33 -78zM339 888h169q1 59 34.5 94.5t90.5 35.5q54 0 87 -30t33 -80q0 -38 -20.5 -65.5t-82.5 -72.5q-69 -48 -96 -100t-22 -121
l1 -18h166v15q0 48 19 76t88 77q73 52 103 102t30 116q0 113 -81 181.5t-215 68.5q-143 0 -225.5 -76t-78.5 -203z" />
    <glyph glyph-name=".null" horiz-adv-x="0" 
 />
    <glyph glyph-name="nonmarkingreturn" horiz-adv-x="682" 
 />
    <glyph glyph-name="CR" unicode="&#xd;" horiz-adv-x="0" 
 />
    <glyph glyph-name="space" unicode=" " horiz-adv-x="465" 
 />
    <glyph glyph-name="exclam" unicode="!" horiz-adv-x="564" 
d="M137 121q0 61 41 101t101 40q64 0 105.5 -39.5t41.5 -101.5q0 -60 -41.5 -99.5t-105.5 -39.5q-60 0 -101 40t-41 99zM182 1365h204l-22 -880h-159z" />
    <glyph glyph-name="quotedbl" unicode="&#x22;" horiz-adv-x="831" 
d="M115 1365h202l-27 -505h-148zM513 1365h202l-27 -505h-148z" />
    <glyph glyph-name="numbersign" unicode="#" horiz-adv-x="1238" 
d="M1164 846h-217l-65 -315h205l-29 -144h-206l-78 -387h-144l79 387h-282l-79 -387h-144l78 387h-204l29 144h205l64 315h-193l28 143h195l76 376h145l-77 -376h282l77 376h143l-76 -376h217zM518 850l-67 -323h289l67 323h-289z" />
    <glyph glyph-name="dollar" unicode="$" 
d="M279 1019q0 -132 166 -194q41 -14 56 -18v424q-100 -13 -161 -67.5t-61 -144.5zM883 374q0 81 -48.5 133t-170.5 89q-6 2 -16.5 4.5t-14.5 3.5v-457q114 10 182 69t68 158zM633 -129h-133v127q-205 15 -313.5 122.5t-110.5 256.5h170q7 -92 72 -152.5t183 -75.5v486
l-76 20q-64 16 -117 43t-99.5 68t-72.5 103t-26 138q0 165 108 261t282 114v131h133v-131q170 -16 281 -114t115 -256h-167q-3 85 -64.5 145.5t-164.5 73.5v-458l79 -20q168 -43 254.5 -128t86.5 -238q0 -174 -116 -273.5t-304 -114.5v-128z" />
    <glyph glyph-name="percent" unicode="%" horiz-adv-x="1453" 
d="M178 1035v-7q0 -103 39 -165.5t109 -62.5t109.5 61.5t39.5 163.5v8q0 102 -38.5 163t-109.5 61q-73 0 -111 -61.5t-38 -160.5zM47 1018v27q0 141 75.5 236.5t203.5 95.5t204 -95.5t76 -239.5v-27q0 -142 -76 -239t-206 -97q-129 0 -203 96.5t-74 242.5zM980 345v-7
q0 -103 39 -165.5t109 -62.5t109.5 61.5t39.5 163.5v8q0 102 -38.5 163t-109.5 61q-73 0 -111 -61.5t-38 -160.5zM849 328v27q0 141 75.5 236.5t203.5 95.5t204 -95.5t76 -239.5v-27q0 -142 -76 -239t-206 -97q-129 0 -203 96.5t-74 242.5zM274 0h-156l527 690l515 675h155
l-525 -687z" />
    <glyph glyph-name="ampersand" unicode="&#x26;" horiz-adv-x="1345" 
d="M1112 0l-122 131q-94 -82 -207 -119.5t-224 -37.5q-197 0 -327.5 104.5t-130.5 280.5q0 126 69.5 215.5t195.5 158.5q27 16 52 27q-82 86 -125 157t-43 156q0 129 98 216.5t250 87.5q149 0 248.5 -85.5t99.5 -220.5q0 -61 -22 -112.5t-65 -93.5t-89.5 -73.5t-112.5 -66.5
l326 -353q61 115 61 360v45h165v-47q0 -311 -110 -478l237 -252h-224zM470 630q-94 -50 -142.5 -111t-48.5 -148q0 -119 86.5 -183.5t209.5 -64.5q84 0 169 30t143 91l-373 409q-20 -10 -44 -23zM562 824q109 56 163 109t54 132q0 77 -51 125t-129 48q-80 0 -129.5 -49.5
t-49.5 -125.5q0 -54 31 -106.5t111 -132.5z" />
    <glyph glyph-name="quotesingle" unicode="'" horiz-adv-x="457" 
d="M127 1365h202l-27 -505h-148z" />
    <glyph glyph-name="parenleft" unicode="(" horiz-adv-x="646" 
d="M407 1363h152q-35 -40 -71 -104t-75.5 -161.5t-64.5 -237t-25 -292.5q0 -104 10 -199.5t32.5 -178.5t41 -142t52.5 -128t49 -97t48 -85h-159q-46 56 -85.5 125t-80 170.5t-64.5 239.5t-24 293q0 127 17 238t40.5 187.5t62.5 152t69 119t75 100.5z" />
    <glyph glyph-name="parenright" unicode=")" horiz-adv-x="646" 
d="M86 1363h151q45 -57 75 -100t70 -119t63.5 -152.5t40.5 -187.5t17 -238q0 -155 -24.5 -293t-66 -239.5t-81 -170t-85.5 -125.5h-158q38 66 58 103.5t58.5 126t59 165.5t38 194t17.5 241q0 153 -24.5 292.5t-63.5 237t-74.5 161.5t-70.5 104z" />
    <glyph glyph-name="asterisk" unicode="*" horiz-adv-x="984" 
d="M560 579h-140l21 323l-271 -180l-69 123l292 144l-292 143l69 123l271 -182l-21 325h140l-21 -325l271 182l69 -123l-292 -143l292 -144l-69 -123l-271 180z" />
    <glyph glyph-name="plus" unicode="+" 
d="M639 467v-444h-149v444h-407v153h407v420h149v-420h408v-153h-408z" />
    <glyph glyph-name="comma" unicode="," horiz-adv-x="505" 
d="M184 -373h-142l134 564h205z" />
    <glyph glyph-name="hyphen" unicode="-" horiz-adv-x="840" 
d="M735 478h-630v164h630v-164z" />
    <glyph glyph-name="period" unicode="." horiz-adv-x="593" 
d="M152 124q0 64 41.5 105t101.5 41q63 0 104.5 -41t41.5 -105q0 -61 -42 -101.5t-104 -40.5q-60 0 -101.5 40.5t-41.5 101.5z" />
    <glyph glyph-name="slash" unicode="/" horiz-adv-x="746" 
d="M205 -304h-161l498 1741h161z" />
    <glyph glyph-name="zero" unicode="0" horiz-adv-x="1237" 
d="M314 706v-48q0 -246 82 -385.5t222 -139.5q141 0 223 140t82 385v48q0 246 -82 386t-223 140q-140 0 -222 -140.5t-82 -385.5zM130 656v51q0 206 57 360t168.5 240t264.5 86q230 0 358 -185.5t128 -500.5v-51q0 -311 -128.5 -497.5t-359.5 -186.5q-230 0 -359 185.5
t-129 498.5z" />
    <glyph glyph-name="one" unicode="1" horiz-adv-x="922" 
d="M660 0h-182v1165h-9l-316 -228v188l325 240h182v-1365z" />
    <glyph glyph-name="two" unicode="2" horiz-adv-x="1136" 
d="M317 984h-179v7q0 79 28.5 150.5t81.5 128t137 90t187 33.5q191 0 309 -105.5t118 -268.5q0 -50 -13.5 -99t-29.5 -83.5t-54 -86.5t-60 -77.5t-75 -86.5l-363 -412v-12h621v-162h-882v118l514 584q49 54 76.5 90.5t53.5 95.5t26 117q0 103 -69 166t-176 63
q-115 0 -183 -70.5t-68 -171.5v-8z" />
    <glyph glyph-name="three" unicode="3" horiz-adv-x="1156" 
d="M416 624v159h141q108 0 178.5 65.5t69.5 165.5q0 98 -69 160t-179 62q-104 0 -172.5 -55.5t-75.5 -133.5h-175q2 67 30.5 128t80 110t133 78t180.5 30q191 1 309.5 -98t122.5 -251q2 -69 -22 -129.5t-63.5 -100t-82.5 -64.5t-84 -32v-10q47 -5 95.5 -26.5t94.5 -59
t76.5 -101.5t31.5 -142q4 -179 -133.5 -293.5t-350.5 -114.5q-198 0 -320.5 100t-130.5 250h172q9 -81 88 -136t195 -56q133 -1 214.5 70t79.5 182q-1 109 -80.5 176t-204.5 67h-149z" />
    <glyph glyph-name="four" unicode="4" horiz-adv-x="1187" 
d="M662 1365h272v-924h177v-162h-177v-279h-176v279h-663v164q60 108 137.5 237t132.5 217t154.5 244t142.5 224zM277 441h481v764h-10q-264 -393 -471 -754v-10z" />
    <glyph glyph-name="five" unicode="5" horiz-adv-x="1184" 
d="M145 319h176q19 -95 98 -141.5t182 -46.5q72 0 136.5 34.5t108 107t43.5 169.5q0 130 -85.5 208.5t-205.5 78.5q-96 0 -165.5 -44.5t-102.5 -103.5h-156l61 786h771v-162h-615l-37 -435h10q27 42 99.5 79t174.5 37q89 0 168.5 -30t139 -85.5t94 -139t34.5 -184.5
q0 -212 -134 -343.5t-350 -131.5q-188 0 -311.5 98t-133.5 249z" />
    <glyph glyph-name="six" unicode="6" horiz-adv-x="1214" 
d="M1065 1081h-184q-14 57 -75.5 104t-166.5 47q-148 0 -239 -142.5t-91 -414.5h10q32 83 121 143.5t226 60.5q81 0 156.5 -28.5t136.5 -82t98 -138t37 -187.5q0 -219 -132 -344.5t-339 -125.5q-266 0 -393 206q-101 165 -101 451q0 381 139 571t377 190q182 0 296.5 -94
t123.5 -216zM334 434q0 -139 84 -221t206 -82q127 0 208 77.5t81 224.5q0 139 -84.5 214.5t-203.5 75.5q-127 0 -209 -81t-82 -208z" />
    <glyph glyph-name="seven" unicode="7" horiz-adv-x="1084" 
d="M110 1365h874v-169l-559 -1196h-193l565 1192v11h-687v162z" />
    <glyph glyph-name="eight" unicode="8" horiz-adv-x="1208" 
d="M605 124q132 0 218.5 72t86.5 184q0 114 -86.5 186t-218.5 72t-219.5 -72t-87.5 -186q0 -112 87.5 -184t219.5 -72zM605 787q111 0 182.5 63.5t71.5 164.5q0 100 -71 162t-183 62q-111 0 -183.5 -62t-72.5 -162q0 -101 72.5 -164.5t183.5 -63.5zM600 -28
q-213 0 -347.5 111t-134.5 289q0 77 26.5 140t69.5 103t88 64.5t92 36.5v9q-39 13 -75.5 36.5t-71 59.5t-55 90t-20.5 118q0 158 122.5 261t310.5 103t310.5 -103t122.5 -261q0 -65 -21.5 -119.5t-56.5 -90.5t-71.5 -59t-74.5 -35v-9q47 -11 92.5 -36t88.5 -65t69 -103
t26 -138q0 -178 -137.5 -290t-352.5 -112z" />
    <glyph glyph-name="nine" unicode="9" horiz-adv-x="1212" 
d="M156 264h185q16 -53 76 -92t153 -39q92 0 159.5 43t106 120.5t55.5 175t14 214.5h-10q-35 -92 -121.5 -151.5t-217.5 -59.5q-188 0 -312 124t-124 335q0 212 134.5 336.5t340.5 124.5q76 0 142.5 -18t131.5 -65t111 -121.5t74.5 -196.5t28.5 -280q0 -370 -127.5 -555
t-389.5 -185q-180 0 -288 84t-122 206zM874 926q0 145 -81.5 227.5t-208.5 82.5q-119 0 -200.5 -82.5t-81.5 -223.5q0 -143 82 -220t205 -77q118 0 201.5 76.5t83.5 216.5z" />
    <glyph glyph-name="colon" unicode=":" horiz-adv-x="631" 
d="M171 801q0 64 41.5 105t101.5 41q63 0 105 -41.5t42 -104.5q0 -61 -42 -101.5t-105 -40.5q-59 0 -101 40.5t-42 101.5zM171 124q0 64 41.5 105t101.5 41q63 0 105 -41t42 -105q0 -61 -42 -101.5t-105 -40.5q-59 0 -101 40.5t-42 101.5z" />
    <glyph glyph-name="semicolon" unicode=";" horiz-adv-x="631" 
d="M172 806q0 63 41.5 104t101.5 41q63 0 104.5 -41t41.5 -104q0 -61 -42 -101.5t-104 -40.5q-60 0 -101.5 40.5t-41.5 101.5zM208 -412h-157l150 604h228z" />
    <glyph glyph-name="less" unicode="&#x3c;" 
d="M133 440v145l862 515v-195l-669 -381v-10l669 -361v-194z" />
    <glyph glyph-name="equal" unicode="=" 
d="M987 285h-845v148h845v-148zM987 659h-845v149h845v-149z" />
    <glyph glyph-name="greater" unicode="&#x3e;" 
d="M996 585v-145l-863 -481v194l670 361v10l-670 381v195z" />
    <glyph glyph-name="question" unicode="?" horiz-adv-x="996" 
d="M335 121q0 61 41 101t101 40q64 0 105.5 -40t41.5 -101q0 -60 -41.5 -99.5t-105.5 -39.5q-60 0 -101 40t-41 99zM87 1004q-1 86 24 155t66 112.5t96.5 72.5t112.5 41t118 12q63 0 121.5 -13t110 -41t90 -68t60.5 -97.5t22 -125.5q0 -59 -15.5 -108t-47.5 -89.5
t-58.5 -65.5t-72.5 -61q-44 -35 -62 -50.5t-42 -40t-32 -43t-14.5 -45t-6.5 -61.5v-60h-175l-1 83q-1 52 13.5 96.5t45 82.5t58.5 65t73 62q43 34 64 52.5t45 47t33.5 58t9.5 67.5q0 100 -65.5 149.5t-161.5 49.5q-115 0 -175.5 -66t-61.5 -171h-172z" />
    <glyph glyph-name="at" unicode="@" horiz-adv-x="1716" 
d="M1269 133q-99 0 -159 41t-72 98h-10q-14 -53 -75.5 -96t-144.5 -43q-123 0 -192.5 89.5t-69.5 238.5v93q0 146 71.5 234.5t199.5 88.5q79 0 130.5 -39t67.5 -89h8v114h145v-488q0 -57 34 -88t87 -31q79 0 133 86.5t54 253.5v35q0 110 -39.5 209t-112.5 175t-186.5 121
t-250.5 45h-8q-132 0 -245.5 -45t-197 -127.5t-131 -204.5t-47.5 -269v-46q0 -155 49 -277t134 -198t195 -115.5t237 -39.5h9q207 0 322 50v-130q-102 -48 -324 -48h-9q-126 0 -238.5 30t-207.5 91.5t-164 149.5t-107.5 211t-38.5 270v58q0 173 58 317.5t159.5 243.5
t242.5 153.5t304 54.5h8q138 0 256.5 -36.5t204 -100.5t146.5 -149.5t91 -184t30 -203.5v-51q0 -203 -97 -327.5t-249 -124.5zM697 481q0 -110 43 -162.5t118 -52.5t118 50.5t43 156.5v80q0 96 -46 148.5t-117 52.5t-115 -53.5t-44 -157.5v-62z" />
    <glyph glyph-name="A" unicode="A" horiz-adv-x="1243" 
d="M230 0h-187l483 1365h191l482 -1365h-197l-134 402h-502zM621 1152h-8l-200 -601h408z" />
    <glyph glyph-name="B" unicode="B" horiz-adv-x="1270" 
d="M184 0v1365h518q173 0 277 -89.5t104 -246.5q0 -120 -59 -195.5t-161 -105.5v-8q141 -19 219 -108t78 -229q0 -183 -130.5 -283t-345.5 -100h-500zM367 1206v-426h206q164 0 244.5 51.5t80.5 165.5q0 104 -63 156.5t-165 52.5h-303zM367 625v-465h234q69 0 121 5.5
t101 20t80.5 39t50 65t18.5 94.5q0 118 -76.5 179.5t-206.5 61.5h-322z" />
    <glyph glyph-name="C" unicode="C" horiz-adv-x="1297" 
d="M315 774v-192q0 -221 96 -332t264 -111q151 0 235.5 80.5t84.5 199.5h181v-7q0 -61 -19 -122t-60 -118.5t-99 -102t-143.5 -71t-186.5 -26.5q-251 0 -394 157.5t-143 451.5v196q0 290 145.5 453t393.5 163q121 0 219.5 -40t159.5 -106.5t94 -148t33 -168.5v-6h-181
q0 120 -87.5 211.5t-237.5 91.5q-162 0 -258.5 -116.5t-96.5 -336.5z" />
    <glyph glyph-name="D" unicode="D" horiz-adv-x="1339" 
d="M184 1365h444q161 0 278.5 -49.5t187 -142.5t102.5 -214.5t33 -275.5q0 -121 -19.5 -221.5t-64 -187.5t-112.5 -146.5t-171 -93.5t-234 -34h-444v1365zM368 1201v-1036h247q216 0 319.5 129t103.5 388q0 519 -423 519h-247z" />
    <glyph glyph-name="E" unicode="E" horiz-adv-x="1147" 
d="M1010 165v-165h-825v1365h825v-165h-642v-424h606v-160h-606v-451h642z" />
    <glyph glyph-name="F" unicode="F" horiz-adv-x="1077" 
d="M368 0h-184v1365h813v-165h-629v-453h576v-164h-576v-583z" />
    <glyph glyph-name="G" unicode="G" horiz-adv-x="1322" 
d="M1188 947h-182q-17 138 -108.5 209t-220.5 71q-76 0 -140.5 -26t-115 -78.5t-79 -140.5t-28.5 -204v-184q0 -215 92 -335t268 -120q148 0 243 81.5t95 209.5v125h-345v160h524v-281q0 -58 -16 -118.5t-54.5 -123t-95.5 -111t-147.5 -79t-202.5 -30.5q-267 0 -405.5 165.5
t-138.5 455.5v186q0 287 149 450.5t401 163.5q117 0 212 -36.5t156.5 -99t97 -141.5t41.5 -169z" />
    <glyph glyph-name="H" unicode="H" horiz-adv-x="1412" 
d="M1228 0h-184v623h-676v-623h-184v1365h184v-577h676v577h184v-1365z" />
    <glyph glyph-name="I" unicode="I" horiz-adv-x="547" 
d="M366 0h-184v1365h184v-1365z" />
    <glyph glyph-name="J" unicode="J" horiz-adv-x="1003" 
d="M38 324h180q3 -84 62 -133t143 -49q104 0 164 59.5t60 184.5v979h185v-963q0 -212 -110.5 -321t-298.5 -109q-175 0 -280 98t-105 254z" />
    <glyph glyph-name="K" unicode="K" horiz-adv-x="1227" 
d="M1173 1365l-507 -582l533 -783h-232l-438 654l-165 -180v-474h-184v1365h184v-653h8l586 653h215z" />
    <glyph glyph-name="L" unicode="L" horiz-adv-x="1038" 
d="M993 167v-167h-808v1365h184v-1198h624z" />
    <glyph glyph-name="M" unicode="M" horiz-adv-x="1631" 
d="M354 0h-167v1365h181l445 -1040h6l443 1040h181v-1365h-167v989h-10l-376 -867h-150l-377 867h-9v-989z" />
    <glyph glyph-name="N" unicode="N" horiz-adv-x="1412" 
d="M368 0h-181v1365h174l675 -1044h9v1044h181v-1365h-174l-677 1046h-7v-1046z" />
    <glyph glyph-name="O" unicode="O" horiz-adv-x="1360" 
d="M315 775v-198q0 -216 100.5 -327.5t263.5 -111.5q164 0 265 111.5t101 327.5v198q0 218 -102 335.5t-264 117.5t-263 -117.5t-101 -335.5zM130 577v198q0 289 149 453.5t402 164.5t401 -165t148 -453v-198q0 -286 -149 -445.5t-404 -159.5q-254 0 -400.5 159t-146.5 446z
" />
    <glyph glyph-name="P" unicode="P" horiz-adv-x="1195" 
d="M183 1365h502q196 0 316.5 -119t120.5 -310q0 -192 -120 -309.5t-318 -117.5h-317v-509h-184v1365zM367 1203v-534h202q92 0 155 11t112.5 40t73 82t23.5 134q0 127 -69.5 197t-195.5 70h-301z" />
    <glyph glyph-name="Q" unicode="Q" horiz-adv-x="1362" 
d="M130 584v196q0 288 148.5 450.5t400.5 162.5t401.5 -163t149.5 -450v-196q0 -313 -176 -476l186 -260h-203l-123 170q-104 -46 -235 -46q-252 0 -400.5 162.5t-148.5 449.5zM312 779v-194q0 -219 101.5 -334.5t264.5 -116.5q76 0 136 25l-149 205h202l81 -107
q99 120 99 328v194q0 218 -102 333.5t-266 115.5q-163 0 -265 -116t-102 -333z" />
    <glyph glyph-name="R" unicode="R" horiz-adv-x="1259" 
d="M681 1365q111 0 197.5 -33t139 -90.5t79.5 -130t27 -156.5q0 -81 -22.5 -148t-60.5 -112t-80.5 -74.5t-90.5 -46.5l278 -574h-209l-251 539h-322v-539h-183v1365h498zM366 698h284q139 0 211.5 64t72.5 183q0 126 -74 192.5t-203 66.5h-291v-506z" />
    <glyph glyph-name="S" unicode="S" horiz-adv-x="1200" 
d="M80 371h184q10 -102 96 -169t235 -67q141 0 224 62.5t83 170.5q0 82 -53.5 132t-168.5 79l-237 61q-66 17 -121 44.5t-102 70t-73.5 105.5t-26.5 141q0 93 39.5 169.5t106 125.5t152 75t179.5 26q73 0 141 -15t128.5 -47t105.5 -77.5t72.5 -110t28.5 -141.5h-181
q-10 101 -86.5 164.5t-211.5 63.5q-128 0 -207.5 -58.5t-79.5 -161.5q0 -150 192 -197l233 -61q172 -44 264 -130.5t92 -242.5q0 -195 -143.5 -303t-368.5 -108q-105 0 -190.5 24.5t-140.5 64t-92.5 93t-54 107t-18.5 110.5z" />
    <glyph glyph-name="T" unicode="T" horiz-adv-x="1092" 
d="M638 0h-184v1200h-412v165h1008v-165h-412v-1200z" />
    <glyph glyph-name="U" unicode="U" horiz-adv-x="1380" 
d="M353 1365v-885q0 -157 91 -249t246 -92q154 0 245 92t91 249v885h185v-891q0 -226 -143.5 -364t-377.5 -138q-233 0 -377 139.5t-144 365.5v888h184z" />
    <glyph glyph-name="V" unicode="V" horiz-adv-x="1242" 
d="M717 0h-194l-487 1365h210l372 -1146h10l369 1146h209z" />
    <glyph glyph-name="W" unicode="W" horiz-adv-x="1715" 
d="M569 0h-165l-374 1365h212l248 -1082h9l265 1082h186l265 -1082h10l248 1082h211l-374 -1365h-167l-282 1063h-9z" />
    <glyph glyph-name="X" unicode="X" horiz-adv-x="1168" 
d="M1145 1365l-451 -689l442 -676h-221l-335 532h-10l-338 -532h-207l444 688l-438 677h221l337 -534h10l335 534h211z" />
    <glyph glyph-name="Y" unicode="Y" horiz-adv-x="1131" 
d="M657 0h-183v578l-456 787h209l334 -602h9l336 602h208l-457 -785v-580z" />
    <glyph glyph-name="Z" unicode="Z" horiz-adv-x="1195" 
d="M106 0v130l723 1059v12h-698v164h926v-128l-719 -1061v-11h736v-165h-968z" />
    <glyph glyph-name="bracketleft" unicode="[" horiz-adv-x="674" 
d="M142 1365h441v-138h-268v-1317h281v-138h-454v1593z" />
    <glyph glyph-name="backslash" unicode="\" horiz-adv-x="746" 
d="M703 -304h-161l-498 1741h161z" />
    <glyph glyph-name="bracketright" unicode="]" horiz-adv-x="674" 
d="M91 1365h442v-1593h-454v138h282v1317h-270v138z" />
    <glyph glyph-name="asciicircum" unicode="^" horiz-adv-x="792" 
d="M734 795h-155l-180 421h-6l-181 -421h-154l253 570h171z" />
    <glyph glyph-name="underscore" unicode="_" horiz-adv-x="894" 
d="M897 -248h-899v145h899v-145z" />
    <glyph glyph-name="grave" unicode="`" horiz-adv-x="1000" 
d="M667 1223h-138l-278 354h178z" />
    <glyph glyph-name="a" unicode="a" horiz-adv-x="1108" 
d="M457 -17q-154 0 -249 88.5t-95 234.5q0 141 96 225t274 84h275v104q0 98 -57.5 145.5t-162.5 47.5q-175 0 -210 -122h-175q12 134 113.5 206.5t277.5 72.5q85 0 154 -19t124.5 -59t86.5 -109.5t31 -163.5v-718h-174v139h-8q-95 -156 -301 -156zM507 134q107 0 179 64
t72 160v119h-260q-102 0 -151 -45t-49 -120q0 -85 60.5 -131.5t148.5 -46.5z" />
    <glyph glyph-name="b" unicode="b" horiz-adv-x="1198" 
d="M668 -16q-121 0 -200.5 49t-111.5 123h-9v-156h-174v1437h181v-551h9q23 74 103.5 128t206.5 54q185 0 294 -120.5t109 -331.5v-179q0 -212 -111 -332.5t-297 -120.5zM632 142q119 0 190 83t71 244v111q0 160 -70.5 246t-195.5 86q-126 0 -199.5 -83.5t-73.5 -225.5v-172
q0 -126 77.5 -207.5t200.5 -81.5z" />
    <glyph glyph-name="c" unicode="c" horiz-adv-x="1076" 
d="M122 443v171q0 207 118.5 331.5t320.5 124.5q95 0 173 -28t126.5 -74.5t75.5 -103.5t29 -118h-177q-5 27 -17 53t-36.5 53.5t-68.5 44.5t-102 17q-126 0 -194 -83t-68 -224v-165q0 -137 70 -216t192 -79q196 0 232 147h176q-5 -131 -111 -221t-300 -90q-203 0 -321 123.5
t-118 336.5z" />
    <glyph glyph-name="d" unicode="d" horiz-adv-x="1200" 
d="M529 1069q121 0 199 -49t106 -123h9v540h181v-1437h-174v168h-9q-21 -74 -105 -128.5t-211 -54.5q-183 0 -293.5 119t-110.5 321v203q0 199 111 320t297 121zM566 911q-122 0 -192.5 -84.5t-70.5 -235.5v-128q0 -153 71.5 -237.5t196.5 -84.5q124 0 198 82.5t74 222.5
v181q0 124 -78 204t-199 80z" />
    <glyph glyph-name="e" unicode="e" horiz-adv-x="1112" 
d="M573 -17q-211 0 -330.5 124.5t-119.5 339.5v158q0 213 122 339t314 126q193 0 315 -127t122 -338v-126h-693v-52q0 -127 71 -207.5t198 -80.5q88 0 149 36t75 87h186q-6 -45 -34 -92t-76 -90t-126 -70t-173 -27zM303 610h513v17q0 130 -70 209.5t-186 79.5t-186.5 -79.5
t-70.5 -209.5v-17z" />
    <glyph glyph-name="f" unicode="f" horiz-adv-x="790" 
d="M262 0v898h-177v151h177v106q0 153 78 223.5t252 70.5q66 0 120 -6v-147q-32 4 -94 4q-95 0 -136 -35t-41 -125v-91h244v-151h-242v-898h-181z" />
    <glyph glyph-name="g" unicode="g" horiz-adv-x="1161" 
d="M551 -240q137 0 207 69t70 196v159h-10q-32 -72 -111.5 -118.5t-184.5 -46.5q-180 0 -297.5 120t-117.5 323v161q0 204 117.5 324.5t296.5 120.5q111 0 193.5 -52t111.5 -122h9v158h173v-1029q0 -210 -124.5 -313.5t-339.5 -103.5q-194 0 -298.5 81.5t-115.5 207.5h184
q11 -59 74 -97t163 -38zM566 912q-127 0 -202.5 -88.5t-75.5 -233.5v-98q0 -142 78.5 -230.5t201.5 -88.5q120 0 189.5 84.5t69.5 203.5v157q0 121 -71 207.5t-190 86.5z" />
    <glyph glyph-name="h" unicode="h" horiz-adv-x="1213" 
d="M176 0v1437h181v-576h9q7 25 20.5 50t40.5 54.5t61.5 51.5t87.5 37t116 15q158 0 255.5 -91t97.5 -262v-716h-182v661q0 122 -62 186.5t-170 64.5q-131 0 -202.5 -90.5t-71.5 -232.5v-589h-181z" />
    <glyph glyph-name="i" unicode="i" horiz-adv-x="579" 
d="M199 0v1052h181v-1052h-181zM161 1376q0 55 36 90.5t91 35.5q58 0 94.5 -35.5t36.5 -90.5q0 -54 -37 -89.5t-94 -35.5q-54 0 -90.5 35.5t-36.5 89.5z" />
    <glyph glyph-name="j" unicode="j" horiz-adv-x="579" 
d="M161 1376q0 55 36 90.5t91 35.5q58 0 94.5 -35.5t36.5 -90.5q0 -54 -37 -89.5t-94 -35.5q-54 0 -90.5 35.5t-36.5 89.5zM380 1052v-1081q0 -344 -291 -344q-58 0 -101 8v144q27 -5 65 -5q80 0 113 47t33 152v1079h181z" />
    <glyph glyph-name="k" unicode="k" horiz-adv-x="1050" 
d="M350 386v-386h-181v1437h181v-856h7l424 471h209l-412 -456l439 -596h-216l-356 483z" />
    <glyph glyph-name="l" unicode="l" horiz-adv-x="537" 
d="M178 0v1437h181v-1437h-181z" />
    <glyph glyph-name="m" unicode="m" horiz-adv-x="1780" 
d="M172 0v1052h179v-167h10q11 32 28.5 60.5t49.5 58.5t85 47.5t122 17.5q115 0 190.5 -54.5t101.5 -143.5h8q36 86 116.5 142t204.5 56q163 0 254.5 -86t91.5 -243v-740h-181v691q0 102 -56.5 162t-161.5 60q-99 0 -165.5 -68.5t-66.5 -176.5v-668h-179v684
q0 104 -60 166.5t-163 62.5q-99 0 -163 -67.5t-64 -175.5v-670h-181z" />
    <glyph glyph-name="n" unicode="n" horiz-adv-x="1206" 
d="M173 0v1052h179v-191h10q11 37 30.5 68.5t55 65.5t95.5 54t138 20q164 0 260.5 -89.5t96.5 -261.5v-718h-182v663q0 122 -59 185.5t-168 63.5q-133 0 -204 -90t-71 -233v-589h-181z" />
    <glyph glyph-name="o" unicode="o" horiz-adv-x="1155" 
d="M578 1070q200 0 327 -125t127 -341v-154q0 -218 -126.5 -342.5t-327.5 -124.5q-204 0 -329.5 123.5t-125.5 343.5v154q0 210 127.5 338t327.5 128zM578 915q-125 0 -200 -90.5t-75 -234.5v-127q0 -147 72.5 -235.5t202.5 -88.5q128 0 199.5 88t71.5 236v127
q0 145 -73 235t-198 90z" />
    <glyph glyph-name="p" unicode="p" horiz-adv-x="1197" 
d="M666 -16q-120 0 -194.5 48.5t-107.5 123.5h-9v-520h-181v1417h174v-167h9q29 78 111 130t204 52q183 0 292.5 -121t109.5 -331v-179q0 -212 -111 -332.5t-297 -120.5zM629 142q120 0 191.5 83.5t71.5 245.5v110q0 161 -71 246t-197 85t-197.5 -82t-71.5 -223v-181
q0 -125 75.5 -204.5t198.5 -79.5z" />
    <glyph glyph-name="q" unicode="q" horiz-adv-x="1195" 
d="M524 1068q118 0 199.5 -50t115.5 -131h9v165h173v-1417h-181v524h-9q-32 -76 -111.5 -125.5t-198.5 -49.5q-185 0 -292.5 121.5t-107.5 327.5v185q0 204 109.5 327t293.5 123zM566 910q-123 0 -193 -86t-70 -234v-128q0 -153 70.5 -237.5t196.5 -84.5q125 0 197.5 82
t72.5 223v181q0 124 -76 204t-198 80z" />
    <glyph glyph-name="r" unicode="r" horiz-adv-x="787" 
d="M187 0v1052h181v-162h9q11 30 30.5 58t52.5 56.5t86 46t119 17.5q31 0 66 -5v-167q-25 6 -85 6q-134 0 -205.5 -70.5t-71.5 -182.5v-649h-182z" />
    <glyph glyph-name="s" unicode="s" horiz-adv-x="1030" 
d="M122 750q0 81 32 144t87.5 100.5t124.5 56.5t148 19q170 0 273.5 -81t103.5 -215h-168q-5 62 -60.5 107.5t-154.5 45.5q-94 0 -152.5 -42t-58.5 -116q0 -93 112 -131q37 -12 149 -32q66 -12 114 -24.5t97 -35.5t79.5 -52.5t50 -76t19.5 -105.5q0 -155 -114 -242t-306 -87
q-179 0 -287 77.5t-108 216.5h177q23 -150 226 -150q118 0 176 45.5t58 117.5q0 17 -3 32t-11 27.5t-14.5 22.5t-22.5 19t-25 15t-32 13.5t-33 11t-39 9.5t-39.5 8t-43.5 9q-49 10 -82 18t-73.5 21.5t-67 27.5t-54 36t-43 48.5t-25.5 62.5t-10 79z" />
    <glyph glyph-name="t" unicode="t" horiz-adv-x="754" 
d="M229 1049v264h179v-264h238v-151h-238v-600q0 -91 36.5 -123t133.5 -32q49 0 83 4v-147q-45 -9 -129 -9q-93 0 -153 17.5t-93 57.5t-45.5 93t-12.5 136v603h-161v151h162z" />
    <glyph glyph-name="u" unicode="u" horiz-adv-x="1200" 
d="M1027 1052v-1052h-180v175h-10q-27 -76 -106.5 -134t-205.5 -58q-168 0 -264 82t-96 258v729h182v-682q0 -122 62.5 -176t165.5 -54q114 0 192 73t78 175v664h182z" />
    <glyph glyph-name="v" unicode="v" horiz-adv-x="1025" 
d="M414 0l-370 1052h200l259 -863h7l279 863h193l-381 -1052h-187z" />
    <glyph glyph-name="w" unicode="w" horiz-adv-x="1496" 
d="M1452 1052l-280 -1052h-180l-237 803h-5l-231 -803h-181l-295 1052h201l186 -825h7l230 825h170l237 -825h7l190 825h181z" />
    <glyph glyph-name="x" unicode="x" horiz-adv-x="1054" 
d="M772 0l-246 389h-7l-247 -389h-202l350 520l-354 532h216l240 -387h8l247 387h206l-356 -516l359 -536h-214z" />
    <glyph glyph-name="y" unicode="y" horiz-adv-x="1080" 
d="M1012 1052q-371 -1050 -372 -1053l-27 -72q-17 -46 -32 -80t-37.5 -72t-49 -64.5t-61.5 -49t-80.5 -33.5t-100.5 -11q-62 0 -111 9v147q28 -5 79 -5q90 0 136 40.5t68 124.5l16 54l-386 1065h201l278 -873h8l279 873h192z" />
    <glyph glyph-name="z" unicode="z" horiz-adv-x="1015" 
d="M117 0v122l556 763v10h-558v157h783v-125l-553 -759v-9h559v-159h-787z" />
    <glyph glyph-name="braceleft" unicode="{" horiz-adv-x="739" 
d="M256 596v-24q172 -15 172 -225v-308q0 -111 49.5 -160.5t169.5 -49.5h41v-143h-61q-181 0 -274.5 80.5t-93.5 257.5v264q0 109 -35 155t-133 46v189q98 0 133 46t35 155v234q0 175 93 252t275 77h61v-143h-41q-120 0 -169.5 -49t-49.5 -160v-273q0 -204 -172 -221z" />
    <glyph glyph-name="bar" unicode="|" horiz-adv-x="711" 
d="M433 -307h-155v1744h155v-1744z" />
    <glyph glyph-name="braceright" unicode="}" horiz-adv-x="739" 
d="M484 572v24q-172 17 -172 221v273q0 111 -49.5 160t-169.5 49h-42v143h62q182 0 274.5 -77t92.5 -252v-234q0 -109 35 -155t133 -46v-189q-98 0 -133 -46t-35 -155v-264q0 -177 -93.5 -257.5t-273.5 -80.5h-62v143h42q119 0 169 49.5t50 160.5v308q0 210 172 225z" />
    <glyph glyph-name="asciitilde" unicode="~" horiz-adv-x="1167" 
d="M775 489q-62 0 -116 28t-115 87q-3 3 -15 14t-15.5 14.5t-14.5 13.5t-15.5 13.5t-14.5 11t-16 11t-15 8.5t-16 7t-15.5 3.5t-16.5 1.5q-125 0 -134 -169h-157q0 68 16 125.5t49.5 105.5t91.5 75t135 27q116 0 232 -113q31 -31 50.5 -48.5t48.5 -33t55 -15.5q66 0 98 46.5
t36 122.5h156q0 -68 -16 -126.5t-49.5 -106.5t-91.5 -75.5t-135 -27.5z" />
    <glyph glyph-name="nonbreakingspace" unicode="&#xa0;" horiz-adv-x="465" 
 />
    <glyph glyph-name="exclamdown" unicode="&#xa1;" horiz-adv-x="564" 
d="M381 -277h-204l22 880h159zM426 968q0 -62 -40.5 -102t-101.5 -40q-64 0 -105.5 40t-41.5 102q0 60 41.5 99t105.5 39q60 0 101 -39.5t41 -98.5z" />
    <glyph glyph-name="cent" unicode="&#xa2;" 
d="M984 446q-5 -116 -94 -203.5t-248 -103.5v-226h-144v227q-169 19 -269 139t-100 314v175q0 189 100.5 309t268.5 139v243h144v-242q153 -18 242 -110.5t92 -207.5h-175q-5 27 -18 53t-38 53.5t-70 44.5t-104 17q-128 0 -197 -82.5t-69 -221.5v-172q0 -136 71.5 -215
t195.5 -79q202 0 236 149h176z" />
    <glyph glyph-name="sterling" unicode="&#xa3;" 
d="M1048 154v-154h-936v163q41 1 64 4.5t47 17t35.5 40.5t18.5 73t7 116v212h-193v140h193v288q0 161 108.5 250t275.5 89q169 0 268 -86.5t104 -233.5h-170q-5 71 -59.5 118.5t-143.5 47.5q-102 0 -153.5 -58t-51.5 -146v-269h298v-140h-298v-219q0 -98 -15.5 -157.5
t-54.5 -83.5v-12h656z" />
    <glyph glyph-name="currency" unicode="&#xa4;" 
d="M940 165l-174 174q-92 -59 -202 -59q-112 0 -206 62l-176 -177l-102 103l176 176q-66 96 -66 211q0 112 61 204l-171 170l102 104l170 -170q93 67 212 67q115 0 208 -63l167 166l102 -104l-166 -166q63 -93 63 -208q0 -120 -69 -216l172 -171zM321 655q0 -100 71 -171
t172 -71t173 71t72 171t-72 171.5t-173 71.5q-100 0 -171.5 -71t-71.5 -172z" />
    <glyph glyph-name="yen" unicode="&#xa5;" 
d="M945 276h-288v-276h-183v276h-288v129h288v143h-288v129h233l-402 688h210l334 -602h9l336 602h208l-402 -688h233v-129h-288v-143h288v-129z" />
    <glyph glyph-name="brokenbar" unicode="&#xa6;" horiz-adv-x="451" 
d="M302 782h-154v655h154v-655zM302 -307h-154v684h154v-684z" />
    <glyph glyph-name="section" unicode="&#xa7;" horiz-adv-x="984" 
d="M706 72q0 34 -15 61t-30 42.5t-58 32t-62.5 22t-79.5 20.5q-10 3 -15 4q-60 15 -105.5 30.5t-89.5 40.5t-72.5 56t-46 76t-17.5 100q0 159 168 245v7q-163 92 -163 256q0 105 54 181t138 112t186 36q164 0 266 -88.5t102 -224.5h-164q-3 61 -58.5 112t-151.5 51
q-88 0 -142.5 -47.5t-54.5 -123.5q0 -30 9 -54.5t29 -42t39.5 -30t54 -24t57.5 -17.5t64 -15q61 -14 101.5 -26.5t90 -36.5t79 -54t50 -78t20.5 -109q0 -83 -43.5 -147.5t-107.5 -105.5v-8q66 -42 105.5 -96t39.5 -140q0 -154 -111.5 -247.5t-286.5 -93.5q-165 0 -276.5 84
t-112.5 227h170q12 -75 68 -117t153 -42q111 0 165 49t54 123zM598 374q50 19 83.5 72.5t33.5 112.5q0 77 -55.5 119.5t-164.5 65.5q-37 6 -78 16q-47 -13 -88.5 -65t-41.5 -116q0 -76 54.5 -116t162.5 -67q87 -20 94 -22z" />
    <glyph glyph-name="dieresis" unicode="&#xa8;" horiz-adv-x="1000" 
d="M196 1365q0 47 32 77.5t79 30.5q48 0 80 -30.5t32 -77.5q0 -44 -32.5 -75t-79.5 -31q-46 0 -78.5 31t-32.5 75zM564 1365q0 47 31.5 77.5t76.5 30.5q50 0 82.5 -30.5t32.5 -77.5q0 -45 -33 -75.5t-82 -30.5q-44 0 -76 31t-32 75z" />
    <glyph glyph-name="copyright" unicode="&#xa9;" horiz-adv-x="1693" 
d="M532 632v99q0 157 88 244.5t238 87.5q136 0 216.5 -75t82.5 -174h-129q-8 50 -47.5 90t-121.5 40q-198 0 -198 -219v-94q0 -104 52.5 -156t145.5 -52q149 0 175 111h129q-4 -96 -82.5 -166.5t-222.5 -70.5q-151 0 -238.5 87t-87.5 248zM256 640q0 -168 73.5 -300.5
t210 -208t312.5 -75.5t313 75.5t211.5 208t74.5 300.5v107q0 155 -75 283.5t-212.5 204t-311.5 75.5t-311 -75.5t-211 -203.5t-74 -284v-107zM852 -64q-209 0 -374 92t-255.5 253.5t-90.5 362.5v103q0 142 54 268t148 218t229 145.5t289 53.5q155 0 290 -54t228.5 -146.5
t147.5 -218.5t54 -266v-103q0 -151 -53 -282t-146.5 -224.5t-228.5 -147.5t-292 -54z" />
    <glyph glyph-name="ordfeminine" unicode="&#xaa;" horiz-adv-x="684" 
d="M289 779q-88 0 -141 47t-53 129q0 81 54 127t157 46h147v52q0 90 -110 90q-92 0 -105 -60h-121q5 74 63 118.5t166 44.5q106 0 170 -47t64 -148v-390h-121v75h-6q-50 -84 -164 -84zM328 877q52 0 88.5 30.5t36.5 75.5v58h-126q-107 1 -107 -78q0 -41 31 -63.5t77 -22.5z
" />
    <glyph glyph-name="guillemotleft" unicode="&#xab;" horiz-adv-x="1311" 
d="M610 565l344 404h200l-339 -403v-6l339 -405h-209l-335 402v8zM132 565l344 404h199l-339 -403v-6l339 -405h-208l-335 402v8z" />
    <glyph glyph-name="logicalnot" unicode="&#xac;" 
d="M1046 97h-159v372h-804v150h963v-522z" />
    <glyph glyph-name="registered" unicode="&#xae;" horiz-adv-x="1211" 
d="M608 414q-211 0 -349 133t-138 335v69q0 190 140 321.5t347 131.5q206 0 346.5 -132t140.5 -321v-69q0 -202 -137.5 -335t-349.5 -133zM608 510q170 0 280.5 106t110.5 267v68q0 151 -111.5 255t-279.5 104t-279 -104t-111 -255v-68q0 -161 110 -267t280 -106zM530 1086
v-152h77q101 0 101 76q0 37 -24 56.5t-64 19.5h-90zM530 680h-96v479h221q66 0 108.5 -41.5t42.5 -103.5q0 -52 -26.5 -90.5t-67.5 -50.5l109 -193h-112l-95 182h-84v-182z" />
    <glyph glyph-name="macron" unicode="&#xaf;" horiz-adv-x="1000" 
d="M781 1266h-575v113h575v-113z" />
    <glyph glyph-name="degree" unicode="&#xb0;" horiz-adv-x="729" 
d="M366 813q-119 0 -202 83.5t-83 202.5t83 201.5t202 82.5q118 0 201 -83t83 -201q0 -119 -83 -202.5t-201 -83.5zM366 945q64 0 109 45.5t45 108.5q0 64 -45 109t-109 45q-62 0 -108 -45.5t-46 -108.5q0 -62 46 -108t108 -46z" />
    <glyph glyph-name="plusminus" unicode="&#xb1;" 
d="M637 655v-283h-150v283h-400v148h400v269h150v-269h403v-148h-403zM1042 113h-953v149h953v-149z" />
    <glyph glyph-name="twosuperior" unicode="&#xb2;" horiz-adv-x="690" 
d="M232 1158h-127v10q0 85 61 147t170 62q102 0 165 -55t63 -139q0 -42 -20 -85t-40.5 -68t-56.5 -62l-165 -161v-1h294v-115h-459v86l242 263q74 74 74 133q0 41 -28 66t-72 25q-46 0 -73.5 -28t-27.5 -68v-10z" />
    <glyph glyph-name="threesuperior" unicode="&#xb3;" horiz-adv-x="697" 
d="M261 983v109h76q45 0 72.5 25t27.5 65q0 38 -27.5 62t-71.5 24q-45 0 -73 -24.5t-31 -59.5h-123q4 83 64 138t165 55q99 0 161.5 -49t62.5 -128q0 -56 -33.5 -98t-88.5 -57v-1q63 -12 104 -52t41 -108q0 -92 -70 -148.5t-177 -56.5q-110 0 -175 58t-67 138h122
q4 -36 35.5 -60.5t81.5 -24.5q53 0 86 27.5t33 69.5t-32 69t-85 27h-78z" />
    <glyph glyph-name="acute" unicode="&#xb4;" horiz-adv-x="1000" 
d="M315 1223l239 354h177l-278 -354h-138z" />
    <glyph glyph-name="paragraph" unicode="&#xb6;" horiz-adv-x="1272" 
d="M746 -210h-178v726h-20q-52 0 -108.5 13t-117 45t-107.5 79t-77.5 121.5t-30.5 164.5q0 98 30.5 175.5t77.5 123.5t108 75.5t116.5 40.5t109.5 11h197v-1575zM905 -210v1575h178v-1575h-178z" />
    <glyph glyph-name="periodcentered" unicode="&#xb7;" horiz-adv-x="659" 
d="M182 745q0 64 41.5 105t101.5 41q63 0 104.5 -41t41.5 -105q0 -61 -42 -101.5t-104 -40.5q-60 0 -101.5 40.5t-41.5 101.5z" />
    <glyph glyph-name="cedilla" unicode="&#xb8;" horiz-adv-x="1000" 
d="M386 -234v81l61 162h123l-53 -144q97 0 153.5 -41t56.5 -121q0 -91 -62 -138t-162 -51q-83 -4 -150 15v107q47 -14 116 -14q48 0 82.5 18t34.5 59q0 16 -5 28t-17 19t-23.5 11.5t-31 6t-33 2t-37.5 0.5h-53z" />
    <glyph glyph-name="onesuperior" unicode="&#xb9;" horiz-adv-x="653" 
d="M449 691h-132v538h-6l-152 -114v129l158 121h132v-674z" />
    <glyph glyph-name="ordmasculine" unicode="&#xba;" horiz-adv-x="673" 
d="M338 1269q-65 0 -101 -45t-36 -116v-64q0 -73 35 -117t102 -44q66 0 100.5 44t34.5 117v64q0 71 -35.5 116t-99.5 45zM338 1373q118 0 191 -70.5t73 -190.5v-71q0 -124 -72.5 -193.5t-191.5 -69.5q-121 0 -193 69t-72 194v71q0 117 73.5 189t191.5 72z" />
    <glyph glyph-name="guillemotright" unicode="&#xbb;" horiz-adv-x="1311" 
d="M1154 565v-8l-335 -402h-209l339 405v6l-339 403h200zM675 565v-8l-335 -402h-208l339 405v6l-339 403h199z" />
    <glyph glyph-name="onequarter" unicode="&#xbc;" horiz-adv-x="1385" 
d="M918 228h206v337h-6q-73 -110 -200 -334v-3zM1064 675h178v-447h81v-107h-81v-121h-118v121h-334v103q75 136 274 451zM352 691h-132v538h-6l-152 -114v129l158 121h132v-674zM229 0h-156l527 690l515 675h155l-525 -687z" />
    <glyph glyph-name="onehalf" unicode="&#xbd;" horiz-adv-x="1403" 
d="M1018 455h-129v10q0 86 62 149t173 63q104 0 168 -55.5t64 -141.5q0 -43 -20.5 -87t-41.5 -69t-57 -63l-168 -163v-1h300v-117h-468v87l247 268q75 75 75 135q0 42 -29 67t-73 25q-47 0 -75 -28t-28 -69v-10zM352 691h-132v538h-6l-152 -114v129l158 121h132v-674zM229 0
h-156l527 690l515 675h155l-525 -687z" />
    <glyph glyph-name="threequarters" unicode="&#xbe;" horiz-adv-x="1432" 
d="M966 230h205v335h-6q-88 -133 -199 -333v-2zM1111 675h180v-445h79v-109h-79v-121h-120v121h-334v103q29 53 68.5 119t61 101t77.5 124.5t67 106.5zM211 962v110h77q45 0 73 25.5t28 65.5q0 39 -28 63t-72 24q-46 0 -74.5 -24.5t-31.5 -60.5h-124q4 84 65 140t167 56
q100 0 163.5 -50t63.5 -129q0 -57 -34 -99.5t-90 -58.5v-1q64 -12 105.5 -52t41.5 -110q0 -93 -70.5 -150t-179.5 -57q-111 0 -177.5 58.5t-68.5 139.5h124q4 -37 36.5 -61.5t82.5 -24.5q54 0 87 27.5t33 70.5q0 42 -32 70t-86 28h-79zM276 0h-156l527 690l515 675h155
l-525 -687z" />
    <glyph glyph-name="questiondown" unicode="&#xbf;" horiz-adv-x="995" 
d="M660 952q0 -62 -41 -102t-102 -40q-64 0 -105.5 40t-41.5 102q0 59 41.5 98.5t105.5 39.5q60 0 101.5 -39.5t41.5 -98.5zM908 68q1 -86 -24 -154.5t-66 -112t-97 -72.5t-112.5 -41t-117.5 -12q-80 0 -151.5 21.5t-128.5 62.5t-90.5 108t-33.5 152q0 48 12 91t28 72.5
t45.5 62t50.5 51t57 47.5q44 35 62 50.5t42 40t32 43t14.5 45.5t6.5 62v59h176v-83q1 -97 -48 -165t-142 -141q-43 -34 -64.5 -53t-45 -47t-32.5 -57.5t-9 -67.5q0 -99 65 -149t162 -50q114 0 175 66t61 171h173z" />
    <glyph glyph-name="Agrave" unicode="&#xc0;" horiz-adv-x="1243" 
d="M222 0h-187l483 1365h191l482 -1365h-197l-134 402h-502zM613 1152h-8l-200 -601h408zM751 1512h-188l-275 204h208z" />
    <glyph glyph-name="Aacute" unicode="&#xc1;" horiz-adv-x="1243" 
d="M222 0h-187l483 1365h191l482 -1365h-197l-134 402h-502zM613 1152h-8l-200 -601h408zM487 1512l257 206h210l-272 -206h-195z" />
    <glyph glyph-name="Acircumflex" unicode="&#xc2;" horiz-adv-x="1243" 
d="M222 0h-187l483 1365h191l482 -1365h-197l-134 402h-502zM613 1152h-8l-200 -601h408zM295 1500l280 245h118l268 -245h-174l-153 140h-7l-161 -140h-171z" />
    <glyph glyph-name="Atilde" unicode="&#xc3;" horiz-adv-x="1243" 
d="M222 0h-187l483 1365h191l482 -1365h-197l-134 402h-502zM613 1152h-8l-200 -601h408zM593 1526l-8 8l-8.5 8.5t-8.5 8t-9 8t-9 6.5t-10.5 6t-10 4.5t-11 3.5t-11.5 1q-27 0 -43 -18t-20 -37t-6 -47h-120q0 88 46.5 150.5t136.5 62.5q45 0 80 -17.5t74 -54.5
q5 -5 19.5 -19t20.5 -19.5t18.5 -11t25.5 -5.5q34 0 52 35t21 76h119q0 -83 -50.5 -149.5t-131.5 -66.5q-55 0 -89.5 17t-66.5 50z" />
    <glyph glyph-name="Adieresis" unicode="&#xc4;" horiz-adv-x="1243" 
d="M222 0h-187l483 1365h191l482 -1365h-197l-134 402h-502zM613 1152h-8l-200 -601h408zM336 1581q0 45 30 74t76 29q47 0 77.5 -29t30.5 -74q0 -44 -30.5 -73.5t-77.5 -29.5q-46 0 -76 29.5t-30 73.5zM692 1581q0 45 30 74t75 29q48 0 79 -29t31 -74q0 -44 -31 -73.5
t-79 -29.5q-45 0 -75 29.5t-30 73.5z" />
    <glyph glyph-name="Aring" unicode="&#xc5;" horiz-adv-x="1243" 
d="M513 1509q0 -43 31.5 -74.5t74.5 -31.5q44 0 75.5 31t31.5 75q0 45 -31.5 76t-75.5 31q-43 0 -74.5 -31t-31.5 -76zM821 551l-200 601h-8l-200 -601h408zM230 0h-187l474 1338q-46 25 -73.5 71t-27.5 101q0 85 59 143.5t144 58.5q84 0 143 -58.5t59 -143.5
q0 -53 -26.5 -98t-70.5 -70l475 -1342h-197l-134 402h-502z" />
    <glyph glyph-name="AE" unicode="&#xc6;" horiz-adv-x="1897" 
d="M874 1201l-330 -629l402 1v628h-72zM946 419h-480l-223 -419h-208l736 1365h991v-164h-633v-425h597v-160h-597v-451h633v-165h-816v419z" />
    <glyph glyph-name="Ccedilla" unicode="&#xc7;" horiz-adv-x="1297" 
d="M660 -486q-83 -4 -150 15v107q47 -14 116 -14q49 0 83 18t34 59q0 16 -5 28t-17 19t-23 11.5t-31 6t-33.5 2t-36.5 0.5h-53v81l48 129q-217 23 -339 178.5t-122 426.5v196q0 290 145.5 453t393.5 163q121 0 219.5 -40t159.5 -106.5t94 -148t33 -168.5v-6h-181
q0 120 -87.5 211.5t-237.5 91.5q-162 0 -258.5 -116.5t-96.5 -336.5v-192q0 -221 96 -332t264 -111q151 0 235.5 80.5t84.5 199.5h181v-7q0 -73 -28.5 -145.5t-82.5 -136.5t-145 -106.5t-205 -50.5l-41 -108q98 0 154.5 -41t56.5 -121q0 -91 -62.5 -138t-162.5 -51z" />
    <glyph glyph-name="Egrave" unicode="&#xc8;" horiz-adv-x="1147" 
d="M722 1512h-188l-275 204h208zM1006 165v-165h-825v1365h825v-165h-642v-424h606v-160h-606v-451h642z" />
    <glyph glyph-name="Eacute" unicode="&#xc9;" horiz-adv-x="1147" 
d="M458 1512l257 206h210l-272 -206h-195zM1006 165v-165h-825v1365h825v-165h-642v-424h606v-160h-606v-451h642z" />
    <glyph glyph-name="Ecircumflex" unicode="&#xca;" horiz-adv-x="1147" 
d="M266 1500l280 245h118l268 -245h-174l-153 140h-7l-161 -140h-171zM1006 165v-165h-825v1365h825v-165h-642v-424h606v-160h-606v-451h642z" />
    <glyph glyph-name="Edieresis" unicode="&#xcb;" horiz-adv-x="1147" 
d="M308 1581q0 45 30 74t76 29q47 0 77.5 -29t30.5 -74q0 -44 -30.5 -73.5t-77.5 -29.5q-46 0 -76 29.5t-30 73.5zM664 1581q0 45 30 74t75 29q48 0 79 -29t31 -74q0 -44 -31 -73.5t-79 -29.5q-45 0 -75 29.5t-30 73.5zM1006 165v-165h-825v1365h825v-165h-642v-424h606
v-160h-606v-451h642z" />
    <glyph glyph-name="Igrave" unicode="&#xcc;" horiz-adv-x="547" 
d="M359 0h-184v1365h184v-1365zM403 1512h-188l-275 204h208z" />
    <glyph glyph-name="Iacute" unicode="&#xcd;" horiz-adv-x="547" 
d="M359 0h-184v1365h184v-1365zM139 1512l257 206h210l-272 -206h-195z" />
    <glyph glyph-name="Icircumflex" unicode="&#xce;" horiz-adv-x="547" 
d="M359 0h-184v1365h184v-1365zM-53 1500l280 245h118l268 -245h-174l-153 140h-7l-161 -140h-171z" />
    <glyph glyph-name="Idieresis" unicode="&#xcf;" horiz-adv-x="547" 
d="M359 0h-184v1365h184v-1365zM-12 1581q0 45 30 74t76 29q47 0 77.5 -29t30.5 -74q0 -44 -30.5 -73.5t-77.5 -29.5q-46 0 -76 29.5t-30 73.5zM344 1581q0 45 30 74t75 29q48 0 79 -29t31 -74q0 -44 -31 -73.5t-79 -29.5q-45 0 -75 29.5t-30 73.5z" />
    <glyph glyph-name="Eth" unicode="&#xd0;" horiz-adv-x="1415" 
d="M705 0h-444v615h-161v165h161v585h444q129 0 231 -33t171 -92t114 -145t65 -187.5t20 -224.5q0 -121 -19.5 -221.5t-64 -187.5t-112.5 -146.5t-171 -93.5t-234 -34zM446 166h246q216 0 319.5 129t103.5 388q0 520 -423 520h-246v-423h301v-165h-301v-449z" />
    <glyph glyph-name="Ntilde" unicode="&#xd1;" horiz-adv-x="1412" 
d="M677 1526l-8 8l-8.5 8.5t-8.5 8t-9 8t-9 6.5t-10.5 6t-10 4.5t-11 3.5t-11.5 1q-27 0 -43 -18t-20 -37t-6 -47h-120q0 88 46.5 150.5t136.5 62.5q45 0 80 -17.5t74 -54.5q5 -5 19.5 -19t20.5 -19.5t18.5 -11t25.5 -5.5q34 0 52 35t21 76h119q0 -83 -50.5 -149.5
t-131.5 -66.5q-55 0 -89.5 17t-66.5 50zM366 0h-181v1365h174l675 -1044h9v1044h181v-1365h-174l-677 1046h-7v-1046z" />
    <glyph glyph-name="Ograve" unicode="&#xd2;" horiz-adv-x="1360" 
d="M809 1512h-188l-275 204h208zM310 775v-198q0 -216 100.5 -327.5t263.5 -111.5q164 0 265 111.5t101 327.5v198q0 218 -102 335.5t-264 117.5t-263 -117.5t-101 -335.5zM125 577v198q0 289 149 453.5t402 164.5t401 -165t148 -453v-198q0 -286 -149 -445.5t-404 -159.5
q-254 0 -400.5 159t-146.5 446z" />
    <glyph glyph-name="Oacute" unicode="&#xd3;" horiz-adv-x="1360" 
d="M545 1512l257 206h210l-272 -206h-195zM310 775v-198q0 -216 100.5 -327.5t263.5 -111.5q164 0 265 111.5t101 327.5v198q0 218 -102 335.5t-264 117.5t-263 -117.5t-101 -335.5zM125 577v198q0 289 149 453.5t402 164.5t401 -165t148 -453v-198q0 -286 -149 -445.5
t-404 -159.5q-254 0 -400.5 159t-146.5 446z" />
    <glyph glyph-name="Ocircumflex" unicode="&#xd4;" horiz-adv-x="1360" 
d="M353 1500l280 245h118l268 -245h-174l-153 140h-7l-161 -140h-171zM310 775v-198q0 -216 100.5 -327.5t263.5 -111.5q164 0 265 111.5t101 327.5v198q0 218 -102 335.5t-264 117.5t-263 -117.5t-101 -335.5zM125 577v198q0 289 149 453.5t402 164.5t401 -165t148 -453
v-198q0 -286 -149 -445.5t-404 -159.5q-254 0 -400.5 159t-146.5 446z" />
    <glyph glyph-name="Otilde" unicode="&#xd5;" horiz-adv-x="1360" 
d="M310 775v-198q0 -216 100.5 -327.5t263.5 -111.5q164 0 265 111.5t101 327.5v198q0 218 -102 335.5t-264 117.5t-263 -117.5t-101 -335.5zM125 577v198q0 289 149 453.5t402 164.5t401 -165t148 -453v-198q0 -286 -149 -445.5t-404 -159.5q-254 0 -400.5 159t-146.5 446z
M651 1526l-8 8l-8.5 8.5t-8.5 8t-9 8t-9 6.5t-10.5 6t-10 4.5t-11 3.5t-11.5 1q-27 0 -43 -18t-20 -37t-6 -47h-120q0 88 46.5 150.5t136.5 62.5q45 0 80 -17.5t74 -54.5q5 -5 19.5 -19t20.5 -19.5t18.5 -11t25.5 -5.5q34 0 52 35t21 76h119q0 -83 -50.5 -149.5
t-131.5 -66.5q-55 0 -89.5 17t-66.5 50z" />
    <glyph glyph-name="Odieresis" unicode="&#xd6;" horiz-adv-x="1360" 
d="M394 1581q0 45 30 74t76 29q47 0 77.5 -29t30.5 -74q0 -44 -30.5 -73.5t-77.5 -29.5q-46 0 -76 29.5t-30 73.5zM750 1581q0 45 30 74t75 29q48 0 79 -29t31 -74q0 -44 -31 -73.5t-79 -29.5q-45 0 -75 29.5t-30 73.5zM310 775v-198q0 -216 100.5 -327.5t263.5 -111.5
q164 0 265 111.5t101 327.5v198q0 218 -102 335.5t-264 117.5t-263 -117.5t-101 -335.5zM125 577v198q0 289 149 453.5t402 164.5t401 -165t148 -453v-198q0 -286 -149 -445.5t-404 -159.5q-254 0 -400.5 159t-146.5 446z" />
    <glyph glyph-name="multiply" unicode="&#xd7;" 
d="M876 74l-311 312l-313 -312l-107 110l312 311l-312 313l107 109l313 -313l311 313l107 -109l-312 -313l312 -311z" />
    <glyph glyph-name="Oslash" unicode="&#xd8;" horiz-adv-x="1360" 
d="M677 -28q-238 0 -380 140l-101 -125l-100 82l118 147q-84 148 -84 361v198q0 289 149 453.5t402 164.5q228 0 372 -136l97 120l104 -76l-118 -146q94 -154 94 -380v-198q0 -286 -149 -445.5t-404 -159.5zM312 577q0 -114 31 -199l598 737q-100 114 -262 114
q-163 0 -265 -118t-102 -336v-198zM679 136q164 0 265.5 112t101.5 329v198q0 121 -37 218l-600 -740q98 -117 270 -117z" />
    <glyph glyph-name="Ugrave" unicode="&#xd9;" horiz-adv-x="1380" 
d="M819 1512h-188l-275 204h208zM349 1365v-885q0 -157 91 -249t246 -92q154 0 245 92t91 249v885h185v-891q0 -226 -143.5 -364t-377.5 -138q-233 0 -377 139.5t-144 365.5v888h184z" />
    <glyph glyph-name="Uacute" unicode="&#xda;" horiz-adv-x="1380" 
d="M555 1512l257 206h210l-272 -206h-195zM349 1365v-885q0 -157 91 -249t246 -92q154 0 245 92t91 249v885h185v-891q0 -226 -143.5 -364t-377.5 -138q-233 0 -377 139.5t-144 365.5v888h184z" />
    <glyph glyph-name="Ucircumflex" unicode="&#xdb;" horiz-adv-x="1380" 
d="M363 1500l280 245h118l268 -245h-174l-153 140h-7l-161 -140h-171zM349 1365v-885q0 -157 91 -249t246 -92q154 0 245 92t91 249v885h185v-891q0 -226 -143.5 -364t-377.5 -138q-233 0 -377 139.5t-144 365.5v888h184z" />
    <glyph glyph-name="Udieresis" unicode="&#xdc;" horiz-adv-x="1380" 
d="M404 1581q0 45 30 74t76 29q47 0 77.5 -29t30.5 -74q0 -44 -30.5 -73.5t-77.5 -29.5q-46 0 -76 29.5t-30 73.5zM760 1581q0 45 30 74t75 29q48 0 79 -29t31 -74q0 -44 -31 -73.5t-79 -29.5q-45 0 -75 29.5t-30 73.5zM349 1365v-885q0 -157 91 -249t246 -92q154 0 245 92
t91 249v885h185v-891q0 -226 -143.5 -364t-377.5 -138q-233 0 -377 139.5t-144 365.5v888h184z" />
    <glyph glyph-name="Yacute" unicode="&#xdd;" horiz-adv-x="1131" 
d="M649 0h-183v578l-456 787h209l334 -602h9l336 602h208l-457 -785v-580zM431 1512l257 206h210l-272 -206h-195z" />
    <glyph glyph-name="Thorn" unicode="&#xde;" horiz-adv-x="1191" 
d="M183 1365h183v-258h301q201 0 319 -103t118 -290q0 -188 -118 -290t-320 -102h-299v-322h-184v1365zM367 944v-462h243q58 0 98.5 4t82 18t67 38.5t41.5 67.5t16 104q0 230 -265 230h-283z" />
    <glyph glyph-name="germandbls" unicode="&#xdf;" horiz-adv-x="1266" 
d="M360 0h-183v1045q0 184 116 288.5t312 105.5q192 1 310 -97t117 -256q0 -75 -27 -137.5t-68 -101t-84 -60.5t-81 -26v-13q71 0 139 -23t124.5 -66.5t90.5 -114.5t34 -158q0 -98 -40.5 -176.5t-108.5 -127t-152.5 -74t-177.5 -25.5q-89 0 -150 19v152q53 -20 142 -20
q56 0 107.5 13.5t96.5 41.5t72 78.5t27 118.5q0 120 -92.5 190t-248.5 70h-77v178h47q92 0 169 69t77 175q0 96 -65 156t-177 60q-249 0 -249 -265v-1019z" />
    <glyph glyph-name="agrave" unicode="&#xe0;" horiz-adv-x="1108" 
d="M452 -17q-154 0 -249 88.5t-95 234.5q0 141 96 225t274 84h275v104q0 98 -57.5 145.5t-162.5 47.5q-175 0 -210 -122h-175q12 134 113.5 206.5t277.5 72.5q85 0 154 -19t124.5 -59t86.5 -109.5t31 -163.5v-718h-174v139h-8q-95 -156 -301 -156zM502 134q107 0 179 64
t72 160v119h-260q-102 0 -151 -45t-49 -120q0 -85 60.5 -131.5t148.5 -46.5zM648 1225h-138l-278 354h178z" />
    <glyph glyph-name="aacute" unicode="&#xe1;" horiz-adv-x="1108" 
d="M452 -17q-154 0 -249 88.5t-95 234.5q0 141 96 225t274 84h275v104q0 98 -57.5 145.5t-162.5 47.5q-175 0 -210 -122h-175q12 134 113.5 206.5t277.5 72.5q85 0 154 -19t124.5 -59t86.5 -109.5t31 -163.5v-718h-174v139h-8q-95 -156 -301 -156zM502 134q107 0 179 64
t72 160v119h-260q-102 0 -151 -45t-49 -120q0 -85 60.5 -131.5t148.5 -46.5zM513 1225l239 354h177l-278 -354h-138z" />
    <glyph glyph-name="acircumflex" unicode="&#xe2;" horiz-adv-x="1108" 
d="M452 -17q-154 0 -249 88.5t-95 234.5q0 141 96 225t274 84h275v104q0 98 -57.5 145.5t-162.5 47.5q-175 0 -210 -122h-175q12 134 113.5 206.5t277.5 72.5q85 0 154 -19t124.5 -59t86.5 -109.5t31 -163.5v-718h-174v139h-8q-95 -156 -301 -156zM502 134q107 0 179 64
t72 160v119h-260q-102 0 -151 -45t-49 -120q0 -85 60.5 -131.5t148.5 -46.5zM243 1222l250 376h121l239 -376h-153l-146 252h-4l-154 -252h-153z" />
    <glyph glyph-name="atilde" unicode="&#xe3;" horiz-adv-x="1108" 
d="M452 -17q-154 0 -249 88.5t-95 234.5q0 141 96 225t274 84h275v104q0 98 -57.5 145.5t-162.5 47.5q-175 0 -210 -122h-175q12 134 113.5 206.5t277.5 72.5q85 0 154 -19t124.5 -59t86.5 -109.5t31 -163.5v-718h-174v139h-8q-95 -156 -301 -156zM502 134q107 0 179 64
t72 160v119h-260q-102 0 -151 -45t-49 -120q0 -85 60.5 -131.5t148.5 -46.5zM526 1236q-13 20 -21.5 30.5t-26.5 22t-38 11.5q-63 0 -70 -127h-121q0 108 50 181t135 73q50 0 85.5 -18.5t67.5 -63.5q4 -5 11 -16.5t11 -17.5t11.5 -15t14 -13t16.5 -7.5t21 -3.5
q32 0 50.5 42.5t22.5 94.5h119q0 -99 -53.5 -177t-128.5 -78q-57 0 -93 19.5t-63 62.5z" />
    <glyph glyph-name="adieresis" unicode="&#xe4;" horiz-adv-x="1108" 
d="M452 -17q-154 0 -249 88.5t-95 234.5q0 141 96 225t274 84h275v104q0 98 -57.5 145.5t-162.5 47.5q-175 0 -210 -122h-175q12 134 113.5 206.5t277.5 72.5q85 0 154 -19t124.5 -59t86.5 -109.5t31 -163.5v-718h-174v139h-8q-95 -156 -301 -156zM502 134q107 0 179 64
t72 160v119h-260q-102 0 -151 -45t-49 -120q0 -85 60.5 -131.5t148.5 -46.5zM262 1304q0 47 32 77.5t79 30.5q48 0 80 -30.5t32 -77.5q0 -44 -32.5 -75t-79.5 -31q-46 0 -78.5 31t-32.5 75zM630 1304q0 47 31.5 77.5t76.5 30.5q50 0 82.5 -30.5t32.5 -77.5q0 -45 -33 -75.5
t-82 -30.5q-44 0 -76 31t-32 75z" />
    <glyph glyph-name="aring" unicode="&#xe5;" horiz-adv-x="1108" 
d="M452 -17q-154 0 -249 88.5t-95 234.5q0 141 96 225t274 84h275v104q0 98 -57.5 145.5t-162.5 47.5q-175 0 -210 -122h-175q12 134 113.5 206.5t277.5 72.5q85 0 154 -19t124.5 -59t86.5 -109.5t31 -163.5v-718h-174v139h-8q-95 -156 -301 -156zM502 134q107 0 179 64
t72 160v119h-260q-102 0 -151 -45t-49 -120q0 -85 60.5 -131.5t148.5 -46.5zM555 1194q-81 0 -136.5 54t-55.5 135q0 80 55.5 134t136.5 54t136.5 -54t55.5 -134q0 -81 -55.5 -135t-136.5 -54zM454 1382q0 -43 29 -72.5t72 -29.5t71.5 29.5t28.5 72.5t-28.5 72.5t-71.5 29.5
t-72 -29.5t-29 -72.5z" />
    <glyph glyph-name="ae" unicode="&#xe6;" horiz-adv-x="1747" 
d="M1214 -17q-148 0 -246.5 58t-134.5 146h-13q-42 -87 -131.5 -145.5t-222.5 -58.5q-159 0 -257 86t-98 234q0 145 98.5 228.5t278.5 83.5h273v104q0 98 -58 145.5t-163 47.5q-181 0 -216 -122h-175q12 133 116.5 206t281.5 73q108 0 193.5 -35t128.5 -104h12
q45 67 131 103t189 36q193 0 310.5 -126t117.5 -338v-126h-683v-79q0 -114 73 -187.5t194 -73.5q88 0 145 35.5t71 87.5h186q-5 -36 -21.5 -73t-49.5 -74.5t-77.5 -66.5t-110 -47t-142.5 -18zM1201 916q-110 0 -182.5 -76t-72.5 -195v-35h503v25q0 130 -66.5 205.5
t-181.5 75.5zM509 134q107 0 179.5 64t72.5 160v119h-258q-103 0 -157 -45.5t-54 -119.5q0 -86 63.5 -132t153.5 -46z" />
    <glyph glyph-name="ccedilla" unicode="&#xe7;" horiz-adv-x="1076" 
d="M573 -486q-83 -4 -150 15v107q47 -14 116 -14q48 0 82.5 18t34.5 59q0 16 -5 28t-17 19t-23.5 11.5t-31 6t-33 2t-37.5 0.5h-52v81l51 138q-180 17 -283 138.5t-103 319.5v171q0 207 118.5 331.5t320.5 124.5q95 0 173 -28t126.5 -74.5t75.5 -103.5t29 -118h-177
q-5 27 -17 53t-36.5 53.5t-68.5 44.5t-102 17q-126 0 -194 -83t-68 -224v-165q0 -137 70 -216t192 -79q196 0 232 147h176q-4 -117 -91.5 -204t-248.5 -104l-45 -121q98 0 154.5 -41t56.5 -121q0 -91 -62.5 -138t-162.5 -51z" />
    <glyph glyph-name="egrave" unicode="&#xe8;" horiz-adv-x="1112" 
d="M650 1225h-138l-278 354h178zM569 -17q-211 0 -330.5 124.5t-119.5 339.5v158q0 213 122 339t314 126q193 0 315 -127t122 -338v-126h-693v-52q0 -127 71 -207.5t198 -80.5q88 0 149 36t75 87h186q-6 -45 -34 -92t-76 -90t-126 -70t-173 -27zM299 610h513v17
q0 130 -70 209.5t-186 79.5t-186.5 -79.5t-70.5 -209.5v-17z" />
    <glyph glyph-name="eacute" unicode="&#xe9;" horiz-adv-x="1112" 
d="M515 1225l239 354h177l-278 -354h-138zM569 -17q-211 0 -330.5 124.5t-119.5 339.5v158q0 213 122 339t314 126q193 0 315 -127t122 -338v-126h-693v-52q0 -127 71 -207.5t198 -80.5q88 0 149 36t75 87h186q-6 -45 -34 -92t-76 -90t-126 -70t-173 -27zM299 610h513v17
q0 130 -70 209.5t-186 79.5t-186.5 -79.5t-70.5 -209.5v-17z" />
    <glyph glyph-name="ecircumflex" unicode="&#xea;" horiz-adv-x="1112" 
d="M245 1222l250 376h121l239 -376h-153l-146 252h-4l-154 -252h-153zM569 -17q-211 0 -330.5 124.5t-119.5 339.5v158q0 213 122 339t314 126q193 0 315 -127t122 -338v-126h-693v-52q0 -127 71 -207.5t198 -80.5q88 0 149 36t75 87h186q-6 -45 -34 -92t-76 -90t-126 -70
t-173 -27zM299 610h513v17q0 130 -70 209.5t-186 79.5t-186.5 -79.5t-70.5 -209.5v-17z" />
    <glyph glyph-name="edieresis" unicode="&#xeb;" horiz-adv-x="1112" 
d="M569 -17q-211 0 -330.5 124.5t-119.5 339.5v158q0 213 122 339t314 126q193 0 315 -127t122 -338v-126h-693v-52q0 -127 71 -207.5t198 -80.5q88 0 149 36t75 87h186q-6 -45 -34 -92t-76 -90t-126 -70t-173 -27zM299 610h513v17q0 130 -70 209.5t-186 79.5t-186.5 -79.5
t-70.5 -209.5v-17zM264 1304q0 47 32 77.5t79 30.5q48 0 80 -30.5t32 -77.5q0 -44 -32.5 -75t-79.5 -31q-46 0 -78.5 31t-32.5 75zM632 1304q0 47 31.5 77.5t76.5 30.5q50 0 82.5 -30.5t32.5 -77.5q0 -45 -33 -75.5t-82 -30.5q-44 0 -76 31t-32 75z" />
    <glyph glyph-name="igrave" unicode="&#xec;" horiz-adv-x="578" 
d="M384 1225h-138l-278 354h178zM194 0v1052h181v-1052h-181z" />
    <glyph glyph-name="iacute" unicode="&#xed;" horiz-adv-x="578" 
d="M249 1225l239 354h177l-278 -354h-138zM194 0v1052h181v-1052h-181z" />
    <glyph glyph-name="icircumflex" unicode="&#xee;" horiz-adv-x="578" 
d="M-21 1222l250 376h121l239 -376h-153l-146 252h-4l-154 -252h-153zM194 0v1052h181v-1052h-181z" />
    <glyph glyph-name="idieresis" unicode="&#xef;" horiz-adv-x="578" 
d="M194 0v1052h181v-1052h-181zM-2 1304q0 47 32 77.5t79 30.5q48 0 80 -30.5t32 -77.5q0 -44 -32.5 -75t-79.5 -31q-46 0 -78.5 31t-32.5 75zM366 1304q0 47 31.5 77.5t76.5 30.5q50 0 82.5 -30.5t32.5 -77.5q0 -45 -33 -75.5t-82 -30.5q-44 0 -76 31t-32 75z" />
    <glyph glyph-name="eth" unicode="&#xf0;" horiz-adv-x="1155" 
d="M577 -17q-204 0 -329 123.5t-125 343.5v97q0 211 124 338.5t318 127.5q174 0 269 -118h9q0 1 -5 31t-5 31q-10 62 -46.5 132.5t-86.5 129.5l-282 -103l-34 103l237 84q-84 78 -193 146l130 88q126 -61 230 -172l244 87l38 -97l-207 -74q83 -111 126 -248.5t43 -275.5
v-305q0 -219 -126.5 -344t-328.5 -125zM578 858q-124 0 -200 -88.5t-76 -234.5v-72q0 -150 73.5 -236t202.5 -86q128 0 200.5 86t72.5 236v83q0 151 -72.5 231.5t-200.5 80.5z" />
    <glyph glyph-name="ntilde" unicode="&#xf1;" horiz-adv-x="1206" 
d="M575 1236q-13 20 -21.5 30.5t-26.5 22t-38 11.5q-63 0 -70 -127h-121q0 108 50 181t135 73q50 0 85.5 -18.5t67.5 -63.5q4 -5 11 -16.5t11 -17.5t11.5 -15t14 -13t16.5 -7.5t21 -3.5q32 0 50.5 42.5t22.5 94.5h119q0 -99 -53.5 -177t-128.5 -78q-57 0 -93 19.5t-63 62.5z
M168 0v1052h179v-191h10q11 37 30.5 68.5t55 65.5t95.5 54t138 20q164 0 260.5 -89.5t96.5 -261.5v-718h-182v663q0 122 -59 185.5t-168 63.5q-133 0 -204 -90t-71 -233v-589h-181z" />
    <glyph glyph-name="ograve" unicode="&#xf2;" horiz-adv-x="1155" 
d="M671 1225h-138l-278 354h178zM574 1070q200 0 327 -125t127 -341v-154q0 -218 -126.5 -342.5t-327.5 -124.5q-204 0 -329.5 123.5t-125.5 343.5v154q0 210 127.5 338t327.5 128zM574 915q-125 0 -200 -90.5t-75 -234.5v-127q0 -147 72.5 -235.5t202.5 -88.5
q128 0 199.5 88t71.5 236v127q0 145 -73 235t-198 90z" />
    <glyph glyph-name="oacute" unicode="&#xf3;" horiz-adv-x="1155" 
d="M536 1225l239 354h177l-278 -354h-138zM574 1070q200 0 327 -125t127 -341v-154q0 -218 -126.5 -342.5t-327.5 -124.5q-204 0 -329.5 123.5t-125.5 343.5v154q0 210 127.5 338t327.5 128zM574 915q-125 0 -200 -90.5t-75 -234.5v-127q0 -147 72.5 -235.5t202.5 -88.5
q128 0 199.5 88t71.5 236v127q0 145 -73 235t-198 90z" />
    <glyph glyph-name="ocircumflex" unicode="&#xf4;" horiz-adv-x="1155" 
d="M266 1222l250 376h121l239 -376h-153l-146 252h-4l-154 -252h-153zM574 1070q200 0 327 -125t127 -341v-154q0 -218 -126.5 -342.5t-327.5 -124.5q-204 0 -329.5 123.5t-125.5 343.5v154q0 210 127.5 338t327.5 128zM574 915q-125 0 -200 -90.5t-75 -234.5v-127
q0 -147 72.5 -235.5t202.5 -88.5q128 0 199.5 88t71.5 236v127q0 145 -73 235t-198 90z" />
    <glyph glyph-name="otilde" unicode="&#xf5;" horiz-adv-x="1155" 
d="M549 1236q-13 20 -21.5 30.5t-26.5 22t-38 11.5q-63 0 -70 -127h-121q0 108 50 181t135 73q50 0 85.5 -18.5t67.5 -63.5q4 -5 11 -16.5t11 -17.5t11.5 -15t14 -13t16.5 -7.5t21 -3.5q32 0 50.5 42.5t22.5 94.5h119q0 -99 -53.5 -177t-128.5 -78q-57 0 -93 19.5t-63 62.5z
M574 1070q200 0 327 -125t127 -341v-154q0 -218 -126.5 -342.5t-327.5 -124.5q-204 0 -329.5 123.5t-125.5 343.5v154q0 210 127.5 338t327.5 128zM574 915q-125 0 -200 -90.5t-75 -234.5v-127q0 -147 72.5 -235.5t202.5 -88.5q128 0 199.5 88t71.5 236v127q0 145 -73 235
t-198 90z" />
    <glyph glyph-name="odieresis" unicode="&#xf6;" horiz-adv-x="1155" 
d="M285 1304q0 47 32 77.5t79 30.5q48 0 80 -30.5t32 -77.5q0 -44 -32.5 -75t-79.5 -31q-46 0 -78.5 31t-32.5 75zM653 1304q0 47 31.5 77.5t76.5 30.5q50 0 82.5 -30.5t32.5 -77.5q0 -45 -33 -75.5t-82 -30.5q-44 0 -76 31t-32 75zM574 1070q200 0 327 -125t127 -341v-154
q0 -218 -126.5 -342.5t-327.5 -124.5q-204 0 -329.5 123.5t-125.5 343.5v154q0 210 127.5 338t327.5 128zM574 915q-125 0 -200 -90.5t-75 -234.5v-127q0 -147 72.5 -235.5t202.5 -88.5q128 0 199.5 88t71.5 236v127q0 145 -73 235t-198 90z" />
    <glyph glyph-name="divide" unicode="&#xf7;" 
d="M1041 478h-952v146h952v-146zM431 944q0 58 38.5 96.5t93.5 38.5q59 0 98 -38.5t39 -96.5q0 -56 -39 -93.5t-98 -37.5q-55 0 -93.5 37.5t-38.5 93.5zM436 167q0 58 38.5 96.5t93.5 38.5q59 0 98 -38.5t39 -96.5q0 -57 -39 -94.5t-98 -37.5q-55 0 -93.5 38t-38.5 94z" />
    <glyph glyph-name="oslash" unicode="&#xf8;" horiz-adv-x="1155" 
d="M404 190q69 -55 174 -55q129 0 202.5 90t73.5 239v153q0 84 -33 148zM299 437q0 -90 32 -151l418 577q-68 57 -171 57q-126 0 -202.5 -92.5t-76.5 -237.5v-153zM578 -17q-151 0 -266 78l-101 -138l-97 72l109 149q-100 124 -100 306v154q0 210 127.5 338t327.5 128
q145 0 263 -80l100 138l96 -74l-107 -147q102 -124 102 -303v-154q0 -218 -126.5 -342.5t-327.5 -124.5z" />
    <glyph glyph-name="ugrave" unicode="&#xf9;" horiz-adv-x="1200" 
d="M694 1225h-138l-278 354h178zM1022 1052v-1052h-180v175h-10q-27 -76 -106.5 -134t-205.5 -58q-168 0 -264 82t-96 258v729h182v-682q0 -122 62.5 -176t165.5 -54q114 0 192 73t78 175v664h182z" />
    <glyph glyph-name="uacute" unicode="&#xfa;" horiz-adv-x="1200" 
d="M559 1225l239 354h177l-278 -354h-138zM1022 1052v-1052h-180v175h-10q-27 -76 -106.5 -134t-205.5 -58q-168 0 -264 82t-96 258v729h182v-682q0 -122 62.5 -176t165.5 -54q114 0 192 73t78 175v664h182z" />
    <glyph glyph-name="ucircumflex" unicode="&#xfb;" horiz-adv-x="1200" 
d="M289 1222l250 376h121l239 -376h-153l-146 252h-4l-154 -252h-153zM1022 1052v-1052h-180v175h-10q-27 -76 -106.5 -134t-205.5 -58q-168 0 -264 82t-96 258v729h182v-682q0 -122 62.5 -176t165.5 -54q114 0 192 73t78 175v664h182z" />
    <glyph glyph-name="udieresis" unicode="&#xfc;" horiz-adv-x="1200" 
d="M1022 1052v-1052h-180v175h-10q-27 -76 -106.5 -134t-205.5 -58q-168 0 -264 82t-96 258v729h182v-682q0 -122 62.5 -176t165.5 -54q114 0 192 73t78 175v664h182zM308 1304q0 47 32 77.5t79 30.5q48 0 80 -30.5t32 -77.5q0 -44 -32.5 -75t-79.5 -31q-46 0 -78.5 31
t-32.5 75zM676 1304q0 47 31.5 77.5t76.5 30.5q50 0 82.5 -30.5t32.5 -77.5q0 -45 -33 -75.5t-82 -30.5q-44 0 -76 31t-32 75z" />
    <glyph glyph-name="yacute" unicode="&#xfd;" horiz-adv-x="1080" 
d="M1005 1052q-371 -1050 -372 -1053l-27 -72q-17 -46 -32 -80t-37.5 -72t-49 -64.5t-61.5 -49t-80.5 -33.5t-100.5 -11q-62 0 -111 9v147q28 -5 79 -5q89 0 135.5 40.5t68.5 124.5l16 54l-386 1065h201l278 -873h8l279 873h192zM499 1225l239 354h177l-278 -354h-138z" />
    <glyph glyph-name="thorn" unicode="&#xfe;" horiz-adv-x="1197" 
d="M666 -16q-120 0 -194.5 48.5t-107.5 123.5h-9v-520h-181l-2 1801h174l2 -551h9q29 78 111 130t204 52q183 0 292.5 -121t109.5 -331v-179q0 -212 -111 -332.5t-297 -120.5zM629 142q120 0 191.5 83.5t71.5 245.5v110q0 161 -71 246t-197 85t-197.5 -82t-71.5 -223v-181
q0 -125 75.5 -204.5t198.5 -79.5z" />
    <glyph glyph-name="ydieresis" unicode="&#xff;" horiz-adv-x="1080" 
d="M1005 1052q-371 -1050 -372 -1053l-27 -72q-17 -46 -32 -80t-37.5 -72t-49 -64.5t-61.5 -49t-80.5 -33.5t-100.5 -11q-62 0 -111 9v147q28 -5 79 -5q89 0 135.5 40.5t68.5 124.5l16 54l-386 1065h201l278 -873h8l279 873h192zM248 1304q0 47 32 77.5t79 30.5
q48 0 80 -30.5t32 -77.5q0 -44 -32.5 -75t-79.5 -31q-46 0 -78.5 31t-32.5 75zM616 1304q0 47 31.5 77.5t76.5 30.5q50 0 82.5 -30.5t32.5 -77.5q0 -45 -33 -75.5t-82 -30.5q-44 0 -76 31t-32 75z" />
    <glyph glyph-name="Amacron" unicode="&#x100;" horiz-adv-x="1243" 
d="M222 0h-187l483 1365h191l482 -1365h-197l-134 402h-502zM613 1152h-8l-200 -601h408zM915 1510h-586v114h586v-114z" />
    <glyph glyph-name="amacron" unicode="&#x101;" horiz-adv-x="1108" 
d="M452 -17q-154 0 -249 88.5t-95 234.5q0 141 96 225t274 84h275v104q0 98 -57.5 145.5t-162.5 47.5q-175 0 -210 -122h-175q12 134 113.5 206.5t277.5 72.5q85 0 154 -19t124.5 -59t86.5 -109.5t31 -163.5v-718h-174v139h-8q-95 -156 -301 -156zM502 134q107 0 179 64
t72 160v119h-260q-102 0 -151 -45t-49 -120q0 -85 60.5 -131.5t148.5 -46.5zM843 1232h-575v113h575v-113z" />
    <glyph glyph-name="Abreve" unicode="&#x102;" horiz-adv-x="1243" 
d="M222 0h-187l483 1365h191l482 -1365h-197l-134 402h-502zM613 1152h-8l-200 -601h408zM298 1750h126q0 -73 50.5 -117t147.5 -44t147.5 44t50.5 117h125q0 -115 -83.5 -191t-239.5 -76t-240 76t-84 191z" />
    <glyph glyph-name="abreve" unicode="&#x103;" horiz-adv-x="1108" 
d="M452 -17q-154 0 -249 88.5t-95 234.5q0 141 96 225t274 84h275v104q0 98 -57.5 145.5t-162.5 47.5q-175 0 -210 -122h-175q12 134 113.5 206.5t277.5 72.5q85 0 154 -19t124.5 -59t86.5 -109.5t31 -163.5v-718h-174v139h-8q-95 -156 -301 -156zM502 134q107 0 179 64
t72 160v119h-260q-102 0 -151 -45t-49 -120q0 -85 60.5 -131.5t148.5 -46.5zM296 1473h124q0 -69 42.5 -116.5t125.5 -47.5t125.5 47.5t42.5 116.5h123q0 -49 -17.5 -96.5t-51 -89t-91.5 -66.5t-131 -25q-74 0 -132 25t-92 66.5t-51 89t-17 96.5z" />
    <glyph glyph-name="Aogonek" unicode="&#x104;" horiz-adv-x="1243" 
d="M230 0h-187l483 1365h191l477 -1348q-74 -20 -129.5 -64.5t-55.5 -110.5q0 -48 32 -73t84 -25q42 0 80 8v-119q-40 -19 -121 -19q-100 0 -167.5 49.5t-67.5 145.5q0 133 151 228v2h-12l-120 363h-502zM619 1151l-3 1l-203 -600h410z" />
    <glyph glyph-name="aogonek" unicode="&#x105;" horiz-adv-x="1108" 
d="M954 -365q-57 -21 -126 -21q-91 0 -154.5 48.5t-63.5 143.5q0 42 13 77t38 63.5t49 48.5t59 43v101h-9q-95 -156 -303 -156q-153 0 -248.5 89t-95.5 233q0 142 96.5 226t272.5 84h276v104q0 97 -58 145t-164 48q-172 0 -208 -122h-175q11 134 114 206.5t278 72.5
q84 0 153 -19t124.5 -59t86.5 -109t31 -163v-711q-40 -14 -76.5 -34t-69.5 -57t-33 -77q0 -44 31 -67.5t80 -23.5q44 0 82 8v-122zM507 134q106 0 178.5 65t72.5 160v118h-259q-102 0 -151.5 -45t-49.5 -120q0 -86 60.5 -132t148.5 -46z" />
    <glyph glyph-name="Cacute" unicode="&#x106;" horiz-adv-x="1297" 
d="M533 1512l257 206h210l-272 -206h-195zM311 774v-192q0 -221 96 -332t264 -111q151 0 235.5 80.5t84.5 199.5h181v-7q0 -61 -19 -122t-60 -118.5t-99 -102t-143.5 -71t-186.5 -26.5q-251 0 -394 157.5t-143 451.5v196q0 290 145.5 453t393.5 163q121 0 219.5 -40
t159.5 -106.5t94 -148t33 -168.5v-6h-181q0 120 -87.5 211.5t-237.5 91.5q-162 0 -258.5 -116.5t-96.5 -336.5z" />
    <glyph glyph-name="cacute" unicode="&#x107;" horiz-adv-x="1076" 
d="M117 443v171q0 207 118.5 331.5t320.5 124.5q95 0 173 -28t126.5 -74.5t75.5 -103.5t29 -118h-177q-5 27 -17 53t-36.5 53.5t-68.5 44.5t-102 17q-126 0 -194 -83t-68 -224v-165q0 -137 70 -216t192 -79q196 0 232 147h176q-5 -131 -111 -221t-300 -90q-203 0 -321 123.5
t-118 336.5zM497 1225l239 354h177l-278 -354h-138z" />
    <glyph glyph-name="Ccircumflex" unicode="&#x108;" horiz-adv-x="1297" 
d="M311 774v-192q0 -221 96 -332t264 -111q151 0 235.5 80.5t84.5 199.5h181v-7q0 -61 -19 -122t-60 -118.5t-99 -102t-143.5 -71t-186.5 -26.5q-251 0 -394 157.5t-143 451.5v196q0 290 145.5 453t393.5 163q121 0 219.5 -40t159.5 -106.5t94 -148t33 -168.5v-6h-181
q0 120 -87.5 211.5t-237.5 91.5q-162 0 -258.5 -116.5t-96.5 -336.5zM341 1500l280 245h118l268 -245h-174l-153 140h-7l-161 -140h-171z" />
    <glyph glyph-name="ccircumflex" unicode="&#x109;" horiz-adv-x="1076" 
d="M227 1222l250 376h121l239 -376h-153l-146 252h-4l-154 -252h-153zM117 443v171q0 207 118.5 331.5t320.5 124.5q95 0 173 -28t126.5 -74.5t75.5 -103.5t29 -118h-177q-5 27 -17 53t-36.5 53.5t-68.5 44.5t-102 17q-126 0 -194 -83t-68 -224v-165q0 -137 70 -216t192 -79
q196 0 232 147h176q-5 -131 -111 -221t-300 -90q-203 0 -321 123.5t-118 336.5z" />
    <glyph glyph-name="Cdotaccent" unicode="&#x10a;" horiz-adv-x="1297" 
d="M311 774v-192q0 -221 96 -332t264 -111q151 0 235.5 80.5t84.5 199.5h181v-7q0 -61 -19 -122t-60 -118.5t-99 -102t-143.5 -71t-186.5 -26.5q-251 0 -394 157.5t-143 451.5v196q0 290 145.5 453t393.5 163q121 0 219.5 -40t159.5 -106.5t94 -148t33 -168.5v-6h-181
q0 120 -87.5 211.5t-237.5 91.5q-162 0 -258.5 -116.5t-96.5 -336.5zM564 1600q0 47 29 76.5t75 29.5t76.5 -30t30.5 -76q0 -47 -30.5 -76t-76.5 -29t-75 29t-29 76z" />
    <glyph glyph-name="cdotaccent" unicode="&#x10b;" horiz-adv-x="1076" 
d="M117 443v171q0 207 118.5 331.5t320.5 124.5q95 0 173 -28t126.5 -74.5t75.5 -103.5t29 -118h-177q-5 27 -17 53t-36.5 53.5t-68.5 44.5t-102 17q-126 0 -194 -83t-68 -224v-165q0 -137 70 -216t192 -79q196 0 232 147h176q-5 -131 -111 -221t-300 -90q-203 0 -321 123.5
t-118 336.5zM434 1287q0 47 29 76.5t75 29.5t76.5 -30t30.5 -76q0 -47 -30.5 -76t-76.5 -29t-75 29t-29 76z" />
    <glyph glyph-name="Ccaron" unicode="&#x10c;" horiz-adv-x="1297" 
d="M311 774v-192q0 -221 96 -332t264 -111q151 0 235.5 80.5t84.5 199.5h181v-7q0 -61 -19 -122t-60 -118.5t-99 -102t-143.5 -71t-186.5 -26.5q-251 0 -394 157.5t-143 451.5v196q0 290 145.5 453t393.5 163q121 0 219.5 -40t159.5 -106.5t94 -148t33 -168.5v-6h-181
q0 120 -87.5 211.5t-237.5 91.5q-162 0 -258.5 -116.5t-96.5 -336.5zM330 1714h181l156 -123h7l143 123h185l-237 -208h-183z" />
    <glyph glyph-name="ccaron" unicode="&#x10d;" horiz-adv-x="1076" 
d="M230 1566h153l154 -261h5l146 261h152l-239 -376h-121zM117 443v171q0 207 118.5 331.5t320.5 124.5q95 0 173 -28t126.5 -74.5t75.5 -103.5t29 -118h-177q-5 27 -17 53t-36.5 53.5t-68.5 44.5t-102 17q-126 0 -194 -83t-68 -224v-165q0 -137 70 -216t192 -79
q196 0 232 147h176q-5 -131 -111 -221t-300 -90q-203 0 -321 123.5t-118 336.5z" />
    <glyph glyph-name="Dcaron" unicode="&#x10e;" horiz-adv-x="1339" 
d="M280 1714h181l156 -123h7l143 123h185l-237 -208h-183zM179 1365h444q161 0 278.5 -49.5t187 -142.5t102.5 -214.5t33 -275.5q0 -121 -19.5 -221.5t-64 -187.5t-112.5 -146.5t-171 -93.5t-234 -34h-444v1365zM363 1201v-1036h247q216 0 319.5 129t103.5 388
q0 519 -423 519h-247z" />
    <glyph glyph-name="dcaron" unicode="&#x10f;" horiz-adv-x="1359" 
d="M1210 1436h162l-44 -488h-118v488zM515 1069q121 0 199 -49t106 -123h9v540h181v-1437h-174v168h-9q-21 -74 -105 -128.5t-211 -54.5q-183 0 -293.5 119t-110.5 321v203q0 199 111 320t297 121zM552 911q-122 0 -192.5 -84.5t-70.5 -235.5v-128q0 -153 71.5 -237.5
t196.5 -84.5q124 0 198 82.5t74 222.5v181q0 124 -78 204t-199 80z" />
    <glyph glyph-name="Dcroat" unicode="&#x110;" horiz-adv-x="1415" 
d="M699 0h-444v615h-161v165h161v585h444q129 0 231 -33t171 -92t114 -145t65 -187.5t20 -224.5q0 -121 -19.5 -221.5t-64 -187.5t-112.5 -146.5t-171 -93.5t-234 -34zM440 166h246q216 0 319.5 129t103.5 388q0 520 -423 520h-246v-423h301v-165h-301v-449z" />
    <glyph glyph-name="dcroat" unicode="&#x111;" horiz-adv-x="1200" 
d="M566 911q-122 0 -192 -84.5t-70 -235.5v-128q0 -153 71.5 -237.5t196.5 -84.5q124 0 198 82.5t74 222.5v181q0 124 -78 204t-200 80zM842 168q-21 -74 -105 -128.5t-211 -54.5q-183 0 -293.5 119t-110.5 321v203q0 199 111 320t297 121q121 0 199 -49t106 -123h9v272
h-260v133h262v180h177v-180h132v-133h-130v-1169h-174v168h-9z" />
    <glyph glyph-name="Emacron" unicode="&#x112;" horiz-adv-x="1147" 
d="M1006 165v-165h-825v1365h825v-165h-642v-424h606v-160h-606v-451h642zM886 1510h-586v114h586v-114z" />
    <glyph glyph-name="emacron" unicode="&#x113;" horiz-adv-x="1112" 
d="M569 -17q-211 0 -330.5 124.5t-119.5 339.5v158q0 213 122 339t314 126q193 0 315 -127t122 -338v-126h-693v-52q0 -127 71 -207.5t198 -80.5q88 0 149 36t75 87h186q-6 -45 -34 -92t-76 -90t-126 -70t-173 -27zM299 610h513v17q0 130 -70 209.5t-186 79.5t-186.5 -79.5
t-70.5 -209.5v-17zM845 1232h-575v113h575v-113z" />
    <glyph glyph-name="Ebreve" unicode="&#x114;" horiz-adv-x="1147" 
d="M1006 165v-165h-825v1365h825v-165h-642v-424h606v-160h-606v-451h642zM269 1750h126q0 -73 50.5 -117t147.5 -44t147.5 44t50.5 117h125q0 -115 -83.5 -191t-239.5 -76t-240 76t-84 191z" />
    <glyph glyph-name="ebreve" unicode="&#x115;" horiz-adv-x="1112" 
d="M569 -17q-211 0 -330.5 124.5t-119.5 339.5v158q0 213 122 339t314 126q193 0 315 -127t122 -338v-126h-693v-52q0 -127 71 -207.5t198 -80.5q88 0 149 36t75 87h186q-6 -45 -34 -92t-76 -90t-126 -70t-173 -27zM299 610h513v17q0 130 -70 209.5t-186 79.5t-186.5 -79.5
t-70.5 -209.5v-17zM298 1473h124q0 -69 42.5 -116.5t125.5 -47.5t125.5 47.5t42.5 116.5h123q0 -49 -17.5 -96.5t-51 -89t-91.5 -66.5t-131 -25q-74 0 -132 25t-92 66.5t-51 89t-17 96.5z" />
    <glyph glyph-name="Edotaccent" unicode="&#x116;" horiz-adv-x="1147" 
d="M489 1600q0 47 29 76.5t75 29.5t76.5 -30t30.5 -76q0 -47 -30.5 -76t-76.5 -29t-75 29t-29 76zM1006 165v-165h-825v1365h825v-165h-642v-424h606v-160h-606v-451h642z" />
    <glyph glyph-name="edotaccent" unicode="&#x117;" horiz-adv-x="1112" 
d="M452 1287q0 47 29 76.5t75 29.5t76.5 -30t30.5 -76q0 -47 -30.5 -76t-76.5 -29t-75 29t-29 76zM569 -17q-211 0 -330.5 124.5t-119.5 339.5v158q0 213 122 339t314 126q193 0 315 -127t122 -338v-126h-693v-52q0 -127 71 -207.5t198 -80.5q88 0 149 36t75 87h186
q-6 -45 -34 -92t-76 -90t-126 -70t-173 -27zM299 610h513v17q0 130 -70 209.5t-186 79.5t-186.5 -79.5t-70.5 -209.5v-17z" />
    <glyph glyph-name="Eogonek" unicode="&#x118;" horiz-adv-x="1147" 
d="M1011 -367q-51 -19 -118 -19q-98 0 -162 48.5t-64 145.5q0 60 29 110t73 80v2h-584v1365h825v-165h-642v-424h606v-160h-606v-451h642v-143q-47 -11 -88 -31.5t-73.5 -59.5t-33.5 -87q0 -49 31.5 -75t87.5 -26q43 0 77 9v-119z" />
    <glyph glyph-name="eogonek" unicode="&#x119;" horiz-adv-x="1112" 
d="M921 -242v-126q-42 -18 -119 -18q-92 0 -157 51t-65 142q0 119 104 203l-4 9q-53 -35 -137 -35q-184 0 -302 126t-118 336v158q0 214 121.5 340t315.5 126q193 0 314.5 -127t121.5 -339v-125h-693v-52q0 -127 71 -207.5t200 -80.5q87 0 147 35.5t75 87.5h186
q-13 -44 -40.5 -88t-45.5 -64.5t-60 -65.5q-36 -38 -55 -61t-35.5 -58t-16.5 -70q0 -50 34 -78t83 -28q39 0 75 9zM303 610h513v18q0 130 -70.5 209.5t-185.5 79.5q-116 0 -186.5 -79.5t-70.5 -209.5v-18z" />
    <glyph glyph-name="Ecaron" unicode="&#x11a;" horiz-adv-x="1147" 
d="M255 1714h181l156 -123h7l143 123h185l-237 -208h-183zM1006 165v-165h-825v1365h825v-165h-642v-424h606v-160h-606v-451h642z" />
    <glyph glyph-name="ecaron" unicode="&#x11b;" horiz-adv-x="1112" 
d="M248 1566h153l154 -261h5l146 261h152l-239 -376h-121zM569 -17q-211 0 -330.5 124.5t-119.5 339.5v158q0 213 122 339t314 126q193 0 315 -127t122 -338v-126h-693v-52q0 -127 71 -207.5t198 -80.5q88 0 149 36t75 87h186q-6 -45 -34 -92t-76 -90t-126 -70t-173 -27z
M299 610h513v17q0 130 -70 209.5t-186 79.5t-186.5 -79.5t-70.5 -209.5v-17z" />
    <glyph glyph-name="Gcircumflex" unicode="&#x11c;" horiz-adv-x="1322" 
d="M352 1500l280 245h118l268 -245h-174l-153 140h-7l-161 -140h-171zM1184 947h-182q-17 138 -108.5 209t-220.5 71q-76 0 -140.5 -26t-115 -78.5t-79 -140.5t-28.5 -204v-184q0 -215 92 -335t268 -120q148 0 243 81.5t95 209.5v125h-345v160h524v-281q0 -58 -16 -118.5
t-54.5 -123t-95.5 -111t-147.5 -79t-202.5 -30.5q-267 0 -405.5 165.5t-138.5 455.5v186q0 287 149 450.5t401 163.5q117 0 212 -36.5t156.5 -99t97 -141.5t41.5 -169z" />
    <glyph glyph-name="gcircumflex" unicode="&#x11d;" horiz-adv-x="1161" 
d="M270 1222l250 376h121l239 -376h-153l-146 252h-4l-154 -252h-153zM544 -240q137 0 207 69t70 196v159h-10q-32 -72 -111.5 -118.5t-184.5 -46.5q-180 0 -297.5 120t-117.5 323v161q0 204 117.5 324.5t296.5 120.5q111 0 193.5 -52t111.5 -122h9v158h173v-1029
q0 -210 -124.5 -313.5t-339.5 -103.5q-194 0 -298.5 81.5t-115.5 207.5h184q11 -59 74 -97t163 -38zM559 912q-127 0 -202.5 -88.5t-75.5 -233.5v-98q0 -142 78.5 -230.5t201.5 -88.5q120 0 189.5 84.5t69.5 203.5v157q0 121 -71 207.5t-190 86.5z" />
    <glyph glyph-name="Gbreve" unicode="&#x11e;" horiz-adv-x="1322" 
d="M1184 947h-182q-17 138 -108.5 209t-220.5 71q-76 0 -140.5 -26t-115 -78.5t-79 -140.5t-28.5 -204v-184q0 -215 92 -335t268 -120q148 0 243 81.5t95 209.5v125h-345v160h524v-281q0 -58 -16 -118.5t-54.5 -123t-95.5 -111t-147.5 -79t-202.5 -30.5q-267 0 -405.5 165.5
t-138.5 455.5v186q0 287 149 450.5t401 163.5q117 0 212 -36.5t156.5 -99t97 -141.5t41.5 -169zM355 1750h126q0 -73 50.5 -117t147.5 -44t147.5 44t50.5 117h125q0 -115 -83.5 -191t-239.5 -76t-240 76t-84 191z" />
    <glyph glyph-name="gbreve" unicode="&#x11f;" horiz-adv-x="1161" 
d="M323 1473h124q0 -69 42.5 -116.5t125.5 -47.5t125.5 47.5t42.5 116.5h123q0 -49 -17.5 -96.5t-51 -89t-91.5 -66.5t-131 -25q-74 0 -132 25t-92 66.5t-51 89t-17 96.5zM544 -240q137 0 207 69t70 196v159h-10q-32 -72 -111.5 -118.5t-184.5 -46.5q-180 0 -297.5 120
t-117.5 323v161q0 204 117.5 324.5t296.5 120.5q111 0 193.5 -52t111.5 -122h9v158h173v-1029q0 -210 -124.5 -313.5t-339.5 -103.5q-194 0 -298.5 81.5t-115.5 207.5h184q11 -59 74 -97t163 -38zM559 912q-127 0 -202.5 -88.5t-75.5 -233.5v-98q0 -142 78.5 -230.5
t201.5 -88.5q120 0 189.5 84.5t69.5 203.5v157q0 121 -71 207.5t-190 86.5z" />
    <glyph glyph-name="Gdotaccent" unicode="&#x120;" horiz-adv-x="1322" 
d="M575 1600q0 47 29 76.5t75 29.5t76.5 -30t30.5 -76q0 -47 -30.5 -76t-76.5 -29t-75 29t-29 76zM1184 947h-182q-17 138 -108.5 209t-220.5 71q-76 0 -140.5 -26t-115 -78.5t-79 -140.5t-28.5 -204v-184q0 -215 92 -335t268 -120q148 0 243 81.5t95 209.5v125h-345v160
h524v-281q0 -58 -16 -118.5t-54.5 -123t-95.5 -111t-147.5 -79t-202.5 -30.5q-267 0 -405.5 165.5t-138.5 455.5v186q0 287 149 450.5t401 163.5q117 0 212 -36.5t156.5 -99t97 -141.5t41.5 -169z" />
    <glyph glyph-name="gdotaccent" unicode="&#x121;" horiz-adv-x="1161" 
d="M477 1287q0 47 29 76.5t75 29.5t76.5 -30t30.5 -76q0 -47 -30.5 -76t-76.5 -29t-75 29t-29 76zM544 -240q137 0 207 69t70 196v159h-10q-32 -72 -111.5 -118.5t-184.5 -46.5q-180 0 -297.5 120t-117.5 323v161q0 204 117.5 324.5t296.5 120.5q111 0 193.5 -52t111.5 -122
h9v158h173v-1029q0 -210 -124.5 -313.5t-339.5 -103.5q-194 0 -298.5 81.5t-115.5 207.5h184q11 -59 74 -97t163 -38zM559 912q-127 0 -202.5 -88.5t-75.5 -233.5v-98q0 -142 78.5 -230.5t201.5 -88.5q120 0 189.5 84.5t69.5 203.5v157q0 121 -71 207.5t-190 86.5z" />
    <glyph glyph-name="Gcommaaccent" unicode="&#x122;" horiz-adv-x="1322" 
d="M665 -469h-133l82 313h158zM1184 947h-182q-17 138 -108.5 209t-220.5 71q-76 0 -140.5 -26t-115 -78.5t-79 -140.5t-28.5 -204v-184q0 -215 92 -335t268 -120q148 0 243 81.5t95 209.5v125h-345v160h524v-281q0 -58 -16 -118.5t-54.5 -123t-95.5 -111t-147.5 -79
t-202.5 -30.5q-267 0 -405.5 165.5t-138.5 455.5v186q0 287 149 450.5t401 163.5q117 0 212 -36.5t156.5 -99t97 -141.5t41.5 -169z" />
    <glyph glyph-name="gcommaaccent" unicode="&#x123;" horiz-adv-x="1161" 
d="M565 1588h140l-85 -335h-169zM544 -240q137 0 207 69t70 196v159h-10q-32 -72 -111.5 -118.5t-184.5 -46.5q-180 0 -297.5 120t-117.5 323v161q0 204 117.5 324.5t296.5 120.5q111 0 193.5 -52t111.5 -122h9v158h173v-1029q0 -210 -124.5 -313.5t-339.5 -103.5
q-194 0 -298.5 81.5t-115.5 207.5h184q11 -59 74 -97t163 -38zM559 912q-127 0 -202.5 -88.5t-75.5 -233.5v-98q0 -142 78.5 -230.5t201.5 -88.5q120 0 189.5 84.5t69.5 203.5v157q0 121 -71 207.5t-190 86.5z" />
    <glyph glyph-name="Hcircumflex" unicode="&#x124;" horiz-adv-x="1412" 
d="M1223 0h-184v623h-676v-623h-184v1365h184v-577h676v577h184v-1365zM379 1500l280 245h118l268 -245h-174l-153 140h-7l-161 -140h-171z" />
    <glyph glyph-name="hcircumflex" unicode="&#x125;" horiz-adv-x="1213" 
d="M171 0v1437h181v-576h9q7 25 20.5 50t40.5 54.5t61.5 51.5t87.5 37t116 15q158 0 255.5 -91t97.5 -262v-716h-182v661q0 122 -62 186.5t-170 64.5q-131 0 -202.5 -90.5t-71.5 -232.5v-589h-181zM-47 1607l250 376h121l239 -376h-153l-146 252h-4l-154 -252h-153z" />
    <glyph glyph-name="Hbar" unicode="&#x126;" horiz-adv-x="1412" 
d="M368 761h676v239h-676v-239zM368 596v-596h-184v1000h-109v138h109v227h184v-227h676v227h184v-227h109v-138h-109v-1000h-184v596h-676z" />
    <glyph glyph-name="hbar" unicode="&#x127;" horiz-adv-x="1213" 
d="M357 589v-589h-181v1171h-121v134h123v132h177v-132h270v-134h-268v-310h9q9 32 30 64t58 66.5t99 56t139 21.5q158 0 255.5 -91t97.5 -262v-716h-182v661q0 122 -62 186.5t-170 64.5q-131 0 -202.5 -90.5t-71.5 -232.5z" />
    <glyph glyph-name="Itilde" unicode="&#x128;" horiz-adv-x="547" 
d="M359 0h-184v1365h184v-1365zM245 1526l-8 8l-8.5 8.5t-8.5 8t-9 8t-9 6.5t-10.5 6t-10 4.5t-11 3.5t-11.5 1q-27 0 -43 -18t-20 -37t-6 -47h-120q0 88 46.5 150.5t136.5 62.5q45 0 80 -17.5t74 -54.5q5 -5 19.5 -19t20.5 -19.5t18.5 -11t25.5 -5.5q34 0 52 35t21 76h119
q0 -83 -50.5 -149.5t-131.5 -66.5q-55 0 -89.5 17t-66.5 50z" />
    <glyph glyph-name="itilde" unicode="&#x129;" horiz-adv-x="578" 
d="M194 0v1052h181v-1052h-181zM262 1236q-13 20 -21.5 30.5t-26.5 22t-38 11.5q-63 0 -70 -127h-121q0 108 50 181t135 73q50 0 85.5 -18.5t67.5 -63.5q4 -5 11 -16.5t11 -17.5t11.5 -15t14 -13t16.5 -7.5t21 -3.5q32 0 50.5 42.5t22.5 94.5h119q0 -99 -53.5 -177
t-128.5 -78q-57 0 -93 19.5t-63 62.5z" />
    <glyph glyph-name="Imacron" unicode="&#x12a;" horiz-adv-x="547" 
d="M359 0h-184v1365h184v-1365zM567 1510h-586v114h586v-114z" />
    <glyph glyph-name="imacron" unicode="&#x12b;" horiz-adv-x="578" 
d="M194 0v1052h181v-1052h-181zM579 1232h-575v113h575v-113z" />
    <glyph glyph-name="Ibreve" unicode="&#x12c;" horiz-adv-x="547" 
d="M359 0h-184v1365h184v-1365zM-50 1750h126q0 -73 50.5 -117t147.5 -44t147.5 44t50.5 117h125q0 -115 -83.5 -191t-239.5 -76t-240 76t-84 191z" />
    <glyph glyph-name="ibreve" unicode="&#x12d;" horiz-adv-x="578" 
d="M194 0v1052h181v-1052h-181zM32 1473h124q0 -69 42.5 -116.5t125.5 -47.5t125.5 47.5t42.5 116.5h123q0 -49 -17.5 -96.5t-51 -89t-91.5 -66.5t-131 -25q-74 0 -132 25t-92 66.5t-51 89t-17 96.5z" />
    <glyph glyph-name="Iogonek" unicode="&#x12e;" horiz-adv-x="547" 
d="M390 -366q-40 -20 -120 -20q-103 0 -164.5 51t-61.5 145q0 81 43 135t103 84v2h-8v1334h184v-1356q-171 -56 -171 -166q0 -48 32 -74t85 -26q45 0 78 9v-118z" />
    <glyph glyph-name="iogonek" unicode="&#x12f;" horiz-adv-x="579" 
d="M403 -248v-119q-43 -19 -119 -19q-106 0 -169.5 50t-63.5 146q0 145 148 221v1021h181v-1040q-32 -10 -60 -23.5t-55 -34t-43 -49t-16 -61.5q0 -49 31.5 -74.5t85.5 -25.5q43 0 80 8zM161 1376q0 55 36 90.5t91 35.5q58 0 94.5 -35.5t36.5 -90.5q0 -54 -37 -89.5
t-94 -35.5q-54 0 -90.5 35.5t-36.5 89.5z" />
    <glyph glyph-name="Idotaccent" unicode="&#x130;" horiz-adv-x="547" 
d="M359 0h-184v1365h184v-1365zM170 1600q0 47 29 76.5t75 29.5t76.5 -30t30.5 -76q0 -47 -30.5 -76t-76.5 -29t-75 29t-29 76z" />
    <glyph glyph-name="dotlessi" unicode="&#x131;" horiz-adv-x="578" 
d="M198 0v1052h181v-1052h-181z" />
    <glyph glyph-name="Jcircumflex" unicode="&#x134;" horiz-adv-x="1003" 
d="M25 324h180q3 -84 62 -133t143 -49q104 0 164 59.5t60 184.5v979h185v-963q0 -212 -110.5 -321t-298.5 -109q-175 0 -280 98t-105 254zM411 1500l280 245h118l268 -245h-174l-153 140h-7l-161 -140h-171z" />
    <glyph glyph-name="jcircumflex" unicode="&#x135;" horiz-adv-x="579" 
d="M380 1052v-1081q0 -344 -291 -344q-58 0 -101 8v144q27 -5 65 -5q80 0 113 47t33 152v1079h181zM-14 1209l250 376h121l239 -376h-153l-146 252h-4l-154 -252h-153z" />
    <glyph glyph-name="Kcommaaccent" unicode="&#x136;" horiz-adv-x="1227" 
d="M1164 1365l-507 -582l533 -783h-232l-438 654l-165 -180v-474h-184v1365h184v-653h8l586 653h215zM600 -469h-133l82 313h158z" />
    <glyph glyph-name="kcommaaccent" unicode="&#x137;" horiz-adv-x="1050" 
d="M338 386v-386h-181v1437h181v-856h7l424 471h209l-412 -456l439 -596h-216l-356 483zM536 -469h-133l82 313h158z" />
    <glyph glyph-name="Lacute" unicode="&#x139;" horiz-adv-x="1038" 
d="M141 1512l257 206h210l-272 -206h-195zM989 167v-167h-808v1365h184v-1198h624z" />
    <glyph glyph-name="lacute" unicode="&#x13a;" horiz-adv-x="537" 
d="M228 1610l239 354h177l-278 -354h-138zM172 0v1437h181v-1437h-181z" />
    <glyph glyph-name="Lcommaaccent" unicode="&#x13b;" horiz-adv-x="1038" 
d="M513 -469h-133l82 313h158zM989 167v-167h-808v1365h184v-1198h624z" />
    <glyph glyph-name="lcommaaccent" unicode="&#x13c;" horiz-adv-x="537" 
d="M255 -469h-133l82 313h158zM172 0v1437h181v-1437h-181z" />
    <glyph glyph-name="Lcaron" unicode="&#x13d;" horiz-adv-x="1038" 
d="M599 1437h171l-50 -488h-121v488zM989 167v-167h-808v1365h184v-1198h624z" />
    <glyph glyph-name="lcaron" unicode="&#x13e;" horiz-adv-x="676" 
d="M529 1436h162l-45 -488h-117v488zM165 0v1437h181v-1437h-181z" />
    <glyph glyph-name="Lslash" unicode="&#x141;" horiz-adv-x="1047" 
d="M1004 0h-808v536l-128 -75v177l128 75v652h184v-545l372 217v-180l-372 -215v-475h624v-167z" />
    <glyph glyph-name="lslash" unicode="&#x142;" horiz-adv-x="598" 
d="M390 0h-181v611l-154 -104v175l154 105v650h181v-527l152 105v-179l-152 -104v-732z" />
    <glyph glyph-name="Nacute" unicode="&#x143;" horiz-adv-x="1412" 
d="M571 1512l257 206h210l-272 -206h-195zM366 0h-181v1365h174l675 -1044h9v1044h181v-1365h-174l-677 1046h-7v-1046z" />
    <glyph glyph-name="nacute" unicode="&#x144;" horiz-adv-x="1206" 
d="M562 1225l239 354h177l-278 -354h-138zM168 0v1052h179v-191h10q11 37 30.5 68.5t55 65.5t95.5 54t138 20q164 0 260.5 -89.5t96.5 -261.5v-718h-182v663q0 122 -59 185.5t-168 63.5q-133 0 -204 -90t-71 -233v-589h-181z" />
    <glyph glyph-name="Ncommaaccent" unicode="&#x145;" horiz-adv-x="1412" 
d="M692 -469h-133l82 313h158zM366 0h-181v1365h174l675 -1044h9v1044h181v-1365h-174l-677 1046h-7v-1046z" />
    <glyph glyph-name="ncommaaccent" unicode="&#x146;" horiz-adv-x="1206" 
d="M589 -469h-133l82 313h158zM168 0v1052h179v-191h10q11 37 30.5 68.5t55 65.5t95.5 54t138 20q164 0 260.5 -89.5t96.5 -261.5v-718h-182v663q0 122 -59 185.5t-168 63.5q-133 0 -204 -90t-71 -233v-589h-181z" />
    <glyph glyph-name="Ncaron" unicode="&#x147;" horiz-adv-x="1412" 
d="M368 1714h181l156 -123h7l143 123h185l-237 -208h-183zM366 0h-181v1365h174l675 -1044h9v1044h181v-1365h-174l-677 1046h-7v-1046z" />
    <glyph glyph-name="ncaron" unicode="&#x148;" horiz-adv-x="1206" 
d="M295 1566h153l154 -261h5l146 261h152l-239 -376h-121zM168 0v1052h179v-191h10q11 37 30.5 68.5t55 65.5t95.5 54t138 20q164 0 260.5 -89.5t96.5 -261.5v-718h-182v663q0 122 -59 185.5t-168 63.5q-133 0 -204 -90t-71 -233v-589h-181z" />
    <glyph glyph-name="Omacron" unicode="&#x14c;" horiz-adv-x="1360" 
d="M310 775v-198q0 -216 100.5 -327.5t263.5 -111.5q164 0 265 111.5t101 327.5v198q0 218 -102 335.5t-264 117.5t-263 -117.5t-101 -335.5zM125 577v198q0 289 149 453.5t402 164.5t401 -165t148 -453v-198q0 -286 -149 -445.5t-404 -159.5q-254 0 -400.5 159t-146.5 446z
M973 1510h-586v114h586v-114z" />
    <glyph glyph-name="omacron" unicode="&#x14d;" horiz-adv-x="1155" 
d="M866 1232h-575v113h575v-113zM574 1070q200 0 327 -125t127 -341v-154q0 -218 -126.5 -342.5t-327.5 -124.5q-204 0 -329.5 123.5t-125.5 343.5v154q0 210 127.5 338t327.5 128zM574 915q-125 0 -200 -90.5t-75 -234.5v-127q0 -147 72.5 -235.5t202.5 -88.5
q128 0 199.5 88t71.5 236v127q0 145 -73 235t-198 90z" />
    <glyph glyph-name="Obreve" unicode="&#x14e;" horiz-adv-x="1360" 
d="M310 775v-198q0 -216 100.5 -327.5t263.5 -111.5q164 0 265 111.5t101 327.5v198q0 218 -102 335.5t-264 117.5t-263 -117.5t-101 -335.5zM125 577v198q0 289 149 453.5t402 164.5t401 -165t148 -453v-198q0 -286 -149 -445.5t-404 -159.5q-254 0 -400.5 159t-146.5 446z
M356 1750h126q0 -73 50.5 -117t147.5 -44t147.5 44t50.5 117h125q0 -115 -83.5 -191t-239.5 -76t-240 76t-84 191z" />
    <glyph glyph-name="obreve" unicode="&#x14f;" horiz-adv-x="1155" 
d="M319 1473h124q0 -69 42.5 -116.5t125.5 -47.5t125.5 47.5t42.5 116.5h123q0 -49 -17.5 -96.5t-51 -89t-91.5 -66.5t-131 -25q-74 0 -132 25t-92 66.5t-51 89t-17 96.5zM574 1070q200 0 327 -125t127 -341v-154q0 -218 -126.5 -342.5t-327.5 -124.5q-204 0 -329.5 123.5
t-125.5 343.5v154q0 210 127.5 338t327.5 128zM574 915q-125 0 -200 -90.5t-75 -234.5v-127q0 -147 72.5 -235.5t202.5 -88.5q128 0 199.5 88t71.5 236v127q0 145 -73 235t-198 90z" />
    <glyph glyph-name="Ohungarumlaut" unicode="&#x150;" horiz-adv-x="1360" 
d="M360 1512l313 249h201l-333 -249h-181zM720 1512l313 249h202l-333 -249h-182zM310 775v-198q0 -216 100.5 -327.5t263.5 -111.5q164 0 265 111.5t101 327.5v198q0 218 -102 335.5t-264 117.5t-263 -117.5t-101 -335.5zM125 577v198q0 289 149 453.5t402 164.5t401 -165
t148 -453v-198q0 -286 -149 -445.5t-404 -159.5q-254 0 -400.5 159t-146.5 446z" />
    <glyph glyph-name="ohungarumlaut" unicode="&#x151;" horiz-adv-x="1155" 
d="M459 1223h-134l244 365h179zM784 1223h-133l243 365h179zM574 1070q200 0 327 -125t127 -341v-154q0 -218 -126.5 -342.5t-327.5 -124.5q-204 0 -329.5 123.5t-125.5 343.5v154q0 210 127.5 338t327.5 128zM574 915q-125 0 -200 -90.5t-75 -234.5v-127
q0 -147 72.5 -235.5t202.5 -88.5q128 0 199.5 88t71.5 236v127q0 145 -73 235t-198 90z" />
    <glyph glyph-name="OE" unicode="&#x152;" horiz-adv-x="2007" 
d="M320 775v-198q0 -216 101 -327.5t264 -111.5q80 0 146 25t116.5 75t78.5 133t28 193v231q0 215 -102 324t-267 109q-162 0 -263.5 -118t-101.5 -335zM673 -28q-249 0 -394 159.5t-145 446.5v196q0 290 147.5 454.5t394.5 164.5q119 0 217.5 -42.5t151.5 -124.5h14v139
h808v-165h-632v-424h596v-160h-596v-451h632v-165h-808v144h-13q-55 -82 -155 -127t-218 -45z" />
    <glyph glyph-name="oe" unicode="&#x153;" horiz-adv-x="1848" 
d="M1303 -17q-118 0 -212.5 47.5t-142.5 128.5h-13q-52 -81 -147.5 -128.5t-207.5 -47.5q-204 0 -329.5 123.5t-125.5 343.5v154q0 210 127.5 338t327.5 128q117 0 209.5 -44t146.5 -132h12q50 80 142 128t200 48q193 0 314.5 -127t121.5 -338v-126h-692v-52
q0 -127 70.5 -207.5t197.5 -80.5q88 0 149.5 36t75.5 87h185q-6 -45 -33.5 -92t-75.5 -90t-126.5 -70t-173.5 -27zM580 915q-125 0 -200 -90.5t-75 -234.5v-127q0 -147 72.5 -235.5t202.5 -88.5q128 0 199.5 88t71.5 236v127q0 145 -73 235t-198 90zM1034 610h512v17
q0 131 -70 210t-186 79t-186 -79.5t-70 -209.5v-17z" />
    <glyph glyph-name="Racute" unicode="&#x154;" horiz-adv-x="1259" 
d="M459 1512l257 206h210l-272 -206h-195zM675 1365q111 0 197.5 -33t139 -90.5t79.5 -130t27 -156.5q0 -81 -22.5 -148t-60.5 -112t-80.5 -74.5t-90.5 -46.5l278 -574h-209l-251 539h-322v-539h-183v1365h498zM360 698h284q139 0 211.5 64t72.5 183q0 126 -74 192.5
t-203 66.5h-291v-506z" />
    <glyph glyph-name="racute" unicode="&#x155;" horiz-adv-x="787" 
d="M398 1225l239 354h177l-278 -354h-138zM180 0v1052h181v-162h9q11 30 30.5 58t52.5 56.5t86 46t119 17.5q31 0 66 -5v-167q-26 6 -85 6q-134 0 -205.5 -70.5t-71.5 -182.5v-649h-182z" />
    <glyph glyph-name="Rcommaaccent" unicode="&#x156;" horiz-adv-x="1259" 
d="M675 1365q111 0 197.5 -33t139 -90.5t79.5 -130t27 -156.5q0 -81 -22.5 -148t-60.5 -112t-80.5 -74.5t-90.5 -46.5l278 -574h-209l-251 539h-322v-539h-183v1365h498zM360 698h284q139 0 211.5 64t72.5 183q0 126 -74 192.5t-203 66.5h-291v-506zM580 -469h-133l82 313
h158z" />
    <glyph glyph-name="rcommaaccent" unicode="&#x157;" horiz-adv-x="787" 
d="M180 0v1052h181v-162h9q11 30 30.5 58t52.5 56.5t86 46t119 17.5q31 0 66 -5v-167q-26 6 -85 6q-134 0 -205.5 -70.5t-71.5 -182.5v-649h-182zM280 -469h-133l82 313h158z" />
    <glyph glyph-name="Rcaron" unicode="&#x158;" horiz-adv-x="1259" 
d="M675 1365q111 0 197.5 -33t139 -90.5t79.5 -130t27 -156.5q0 -81 -22.5 -148t-60.5 -112t-80.5 -74.5t-90.5 -46.5l278 -574h-209l-251 539h-322v-539h-183v1365h498zM360 698h284q139 0 211.5 64t72.5 183q0 126 -74 192.5t-203 66.5h-291v-506zM256 1714h181l156 -123
h7l143 123h185l-237 -208h-183z" />
    <glyph glyph-name="rcaron" unicode="&#x159;" horiz-adv-x="787" 
d="M131 1566h153l154 -261h5l146 261h152l-239 -376h-121zM180 0v1052h181v-162h9q11 30 30.5 58t52.5 56.5t86 46t119 17.5q31 0 66 -5v-167q-26 6 -85 6q-134 0 -205.5 -70.5t-71.5 -182.5v-649h-182z" />
    <glyph glyph-name="Sacute" unicode="&#x15a;" horiz-adv-x="1200" 
d="M462 1512l257 206h210l-272 -206h-195zM73 371h184q10 -102 96 -169t235 -67q141 0 224 62.5t83 170.5q0 82 -53.5 132t-168.5 79l-237 61q-66 17 -121 44.5t-102 70t-73.5 105.5t-26.5 141q0 93 39.5 169.5t106 125.5t152 75t179.5 26q73 0 141 -15t128.5 -47
t105.5 -77.5t72.5 -110t28.5 -141.5h-181q-10 101 -86.5 164.5t-211.5 63.5q-128 0 -207.5 -58.5t-79.5 -161.5q0 -150 192 -197l233 -61q172 -44 264 -130.5t92 -242.5q0 -195 -143.5 -303t-368.5 -108q-105 0 -190.5 24.5t-140.5 64t-92.5 93t-54 107t-18.5 110.5z" />
    <glyph glyph-name="sacute" unicode="&#x15b;" horiz-adv-x="1030" 
d="M116 750q0 81 32 144t87.5 100.5t124.5 56.5t148 19q170 0 273.5 -81t103.5 -215h-168q-5 62 -60.5 107.5t-154.5 45.5q-94 0 -152.5 -42t-58.5 -116q0 -93 112 -131q37 -12 149 -32q66 -12 114 -24.5t97 -35.5t79.5 -52.5t50 -76t19.5 -105.5q0 -155 -114 -242t-306 -87
q-179 0 -287 77.5t-108 216.5h177q23 -150 226 -150q118 0 176 45.5t58 117.5q0 17 -3 32t-11 27.5t-14.5 22.5t-22.5 19t-25 15t-32 13.5t-33 11t-39 9.5t-39.5 8t-43.5 9q-49 10 -82 18t-73.5 21.5t-67 27.5t-54 36t-43 48.5t-25.5 62.5t-10 79zM474 1225l239 354h177
l-278 -354h-138z" />
    <glyph glyph-name="Scircumflex" unicode="&#x15c;" horiz-adv-x="1200" 
d="M73 371h184q10 -102 96 -169t235 -67q141 0 224 62.5t83 170.5q0 82 -53.5 132t-168.5 79l-237 61q-66 17 -121 44.5t-102 70t-73.5 105.5t-26.5 141q0 93 39.5 169.5t106 125.5t152 75t179.5 26q73 0 141 -15t128.5 -47t105.5 -77.5t72.5 -110t28.5 -141.5h-181
q-10 101 -86.5 164.5t-211.5 63.5q-128 0 -207.5 -58.5t-79.5 -161.5q0 -150 192 -197l233 -61q172 -44 264 -130.5t92 -242.5q0 -195 -143.5 -303t-368.5 -108q-105 0 -190.5 24.5t-140.5 64t-92.5 93t-54 107t-18.5 110.5zM270 1500l280 245h118l268 -245h-174l-153 140
h-7l-161 -140h-171z" />
    <glyph glyph-name="scircumflex" unicode="&#x15d;" horiz-adv-x="1030" 
d="M204 1222l250 376h121l239 -376h-153l-146 252h-4l-154 -252h-153zM116 750q0 81 32 144t87.5 100.5t124.5 56.5t148 19q170 0 273.5 -81t103.5 -215h-168q-5 62 -60.5 107.5t-154.5 45.5q-94 0 -152.5 -42t-58.5 -116q0 -93 112 -131q37 -12 149 -32q66 -12 114 -24.5
t97 -35.5t79.5 -52.5t50 -76t19.5 -105.5q0 -155 -114 -242t-306 -87q-179 0 -287 77.5t-108 216.5h177q23 -150 226 -150q118 0 176 45.5t58 117.5q0 17 -3 32t-11 27.5t-14.5 22.5t-22.5 19t-25 15t-32 13.5t-33 11t-39 9.5t-39.5 8t-43.5 9q-49 10 -82 18t-73.5 21.5
t-67 27.5t-54 36t-43 48.5t-25.5 62.5t-10 79z" />
    <glyph glyph-name="Scedilla" unicode="&#x15e;" horiz-adv-x="1200" 
d="M612 -486q-83 -4 -150 15v107q47 -14 116 -14q48 0 82.5 18t34.5 59q0 16 -5 28t-17 19t-23.5 11.5t-31 6t-33 2t-37.5 0.5h-52v81l47 126q-98 3 -177.5 29.5t-131 66t-86.5 91.5t-50.5 104t-17.5 107h184q10 -102 96 -169t235 -67q141 0 224 62.5t83 170.5
q0 82 -53.5 132t-168.5 79l-237 61q-66 17 -121 44.5t-102 70t-73.5 105.5t-26.5 141q0 93 39.5 169.5t106 125.5t152 75t179.5 26q73 0 141 -15t128.5 -47t105.5 -77.5t72.5 -110t28.5 -141.5h-181q-10 101 -86.5 164.5t-211.5 63.5q-128 0 -207.5 -58.5t-79.5 -161.5
q0 -150 192 -197l233 -61q172 -44 264 -130.5t92 -242.5q0 -174 -115.5 -279.5t-305.5 -126.5l-41 -112q98 0 154.5 -41t56.5 -121q0 -91 -62.5 -138t-162.5 -51z" />
    <glyph glyph-name="scedilla" unicode="&#x15f;" horiz-adv-x="1030" 
d="M518 -486q-83 -4 -150 15v107q47 -14 116 -14q48 0 82.5 18t34.5 59q0 16 -5 28t-17 19t-23.5 11.5t-31 6t-33 2t-37.5 0.5h-52v81l51 137q-160 10 -255 86.5t-95 206.5h177q23 -150 226 -150q118 0 176 45.5t58 117.5q0 17 -3 32t-11 27.5t-14.5 22.5t-22.5 19t-25 15
t-32 13.5t-33 11t-39 9.5t-39.5 8t-43.5 9q-49 10 -82 18t-73.5 21.5t-67 27.5t-54 36t-43 48.5t-25.5 62.5t-10 79q0 81 32 144t87.5 100.5t124.5 56.5t148 19q170 0 273.5 -81t103.5 -215h-168q-5 62 -60.5 107.5t-154.5 45.5q-94 0 -152.5 -42t-58.5 -116q0 -93 112 -131
q37 -12 149 -32q66 -12 114 -24.5t97 -35.5t79.5 -52.5t50 -76t19.5 -105.5q0 -138 -91.5 -222.5t-249.5 -102.5l-45 -122q98 0 154.5 -41t56.5 -121q0 -91 -62.5 -138t-162.5 -51z" />
    <glyph glyph-name="Scaron" unicode="&#x160;" horiz-adv-x="1200" 
d="M73 371h184q10 -102 96 -169t235 -67q141 0 224 62.5t83 170.5q0 82 -53.5 132t-168.5 79l-237 61q-66 17 -121 44.5t-102 70t-73.5 105.5t-26.5 141q0 93 39.5 169.5t106 125.5t152 75t179.5 26q73 0 141 -15t128.5 -47t105.5 -77.5t72.5 -110t28.5 -141.5h-181
q-10 101 -86.5 164.5t-211.5 63.5q-128 0 -207.5 -58.5t-79.5 -161.5q0 -150 192 -197l233 -61q172 -44 264 -130.5t92 -242.5q0 -195 -143.5 -303t-368.5 -108q-105 0 -190.5 24.5t-140.5 64t-92.5 93t-54 107t-18.5 110.5zM259 1714h181l156 -123h7l143 123h185l-237 -208
h-183z" />
    <glyph glyph-name="scaron" unicode="&#x161;" horiz-adv-x="1030" 
d="M207 1566h153l154 -261h5l146 261h152l-239 -376h-121zM116 750q0 81 32 144t87.5 100.5t124.5 56.5t148 19q170 0 273.5 -81t103.5 -215h-168q-5 62 -60.5 107.5t-154.5 45.5q-94 0 -152.5 -42t-58.5 -116q0 -93 112 -131q37 -12 149 -32q66 -12 114 -24.5t97 -35.5
t79.5 -52.5t50 -76t19.5 -105.5q0 -155 -114 -242t-306 -87q-179 0 -287 77.5t-108 216.5h177q23 -150 226 -150q118 0 176 45.5t58 117.5q0 17 -3 32t-11 27.5t-14.5 22.5t-22.5 19t-25 15t-32 13.5t-33 11t-39 9.5t-39.5 8t-43.5 9q-49 10 -82 18t-73.5 21.5t-67 27.5
t-54 36t-43 48.5t-25.5 62.5t-10 79z" />
    <glyph glyph-name="Tcedilla" unicode="&#x162;" horiz-adv-x="1092" 
d="M504 0h-49v1200h-413v165h1008v-165h-413v-1200h-10l-68 -135q98 0 154.5 -41t56.5 -121q0 -91 -62.5 -138t-162.5 -51q-83 -4 -150 15v107q47 -14 116 -14q48 0 82.5 18t34.5 59q0 16 -5 28t-17 19t-23.5 11.5t-31 6t-33 2t-37.5 0.5h-52v81z" />
    <glyph glyph-name="tcedilla" unicode="&#x163;" horiz-adv-x="754" 
d="M457 -483q-83 -4 -150 15v107q47 -14 116 -14q49 0 83 17.5t34 58.5q0 19 -9 32.5t-20.5 20t-34.5 10t-38 4t-44 0.5h-53v82l58 154q-99 23 -135 91.5t-36 199.5v603h-161v151h162v264h179v-264h238v-151h-238v-600q0 -91 36.5 -123t133.5 -32q49 0 83 4v-147
q-45 -9 -129 -9h-14l-47 -123q97 0 154 -41.5t57 -120.5q0 -91 -62.5 -138t-162.5 -51z" />
    <glyph glyph-name="Tcaron" unicode="&#x164;" horiz-adv-x="1092" 
d="M208 1714h181l156 -123h7l143 123h185l-237 -208h-183zM634 0h-184v1200h-412v165h1008v-165h-412v-1200z" />
    <glyph glyph-name="tcaron" unicode="&#x165;" horiz-adv-x="754" 
d="M590 1702h162l-45 -488h-117v488zM215 1049v264h179v-264h238v-151h-238v-600q0 -91 36.5 -123t133.5 -32q49 0 83 4v-147q-45 -9 -129 -9q-93 0 -153 17.5t-93 57.5t-45.5 93t-12.5 136v603h-161v151h162z" />
    <glyph glyph-name="Tbar" unicode="&#x166;" horiz-adv-x="1092" 
d="M870 640h-233v-640h-182v640h-233v137h233v423h-413v165h1008v-165h-413v-423h233v-137z" />
    <glyph glyph-name="tbar" unicode="&#x167;" horiz-adv-x="754" 
d="M661 0q-45 -9 -129 -9q-93 0 -153 17.5t-93 57.5t-45.5 93t-12.5 136v237h-158v133h158v233h-161v151h162v264h179v-264h238v-151h-238v-233h234v-133h-234v-234q0 -91 36.5 -123t133.5 -32q49 0 83 4v-147z" />
    <glyph glyph-name="Utilde" unicode="&#x168;" horiz-adv-x="1380" 
d="M349 1365v-885q0 -157 91 -249t246 -92q154 0 245 92t91 249v885h185v-891q0 -226 -143.5 -364t-377.5 -138q-233 0 -377 139.5t-144 365.5v888h184zM661 1526l-8 8l-8.5 8.5t-8.5 8t-9 8t-9 6.5t-10.5 6t-10 4.5t-11 3.5t-11.5 1q-27 0 -43 -18t-20 -37t-6 -47h-120
q0 88 46.5 150.5t136.5 62.5q45 0 80 -17.5t74 -54.5q5 -5 19.5 -19t20.5 -19.5t18.5 -11t25.5 -5.5q34 0 52 35t21 76h119q0 -83 -50.5 -149.5t-131.5 -66.5q-55 0 -89.5 17t-66.5 50z" />
    <glyph glyph-name="utilde" unicode="&#x169;" horiz-adv-x="1200" 
d="M1022 1052v-1052h-180v175h-10q-27 -76 -106.5 -134t-205.5 -58q-168 0 -264 82t-96 258v729h182v-682q0 -122 62.5 -176t165.5 -54q114 0 192 73t78 175v664h182zM572 1236q-13 20 -21.5 30.5t-26.5 22t-38 11.5q-63 0 -70 -127h-121q0 108 50 181t135 73
q50 0 85.5 -18.5t67.5 -63.5q4 -5 11 -16.5t11 -17.5t11.5 -15t14 -13t16.5 -7.5t21 -3.5q32 0 50.5 42.5t22.5 94.5h119q0 -99 -53.5 -177t-128.5 -78q-57 0 -93 19.5t-63 62.5z" />
    <glyph glyph-name="Umacron" unicode="&#x16a;" horiz-adv-x="1380" 
d="M349 1365v-885q0 -157 91 -249t246 -92q154 0 245 92t91 249v885h185v-891q0 -226 -143.5 -364t-377.5 -138q-233 0 -377 139.5t-144 365.5v888h184zM983 1510h-586v114h586v-114z" />
    <glyph glyph-name="umacron" unicode="&#x16b;" horiz-adv-x="1200" 
d="M1022 1052v-1052h-180v175h-10q-27 -76 -106.5 -134t-205.5 -58q-168 0 -264 82t-96 258v729h182v-682q0 -122 62.5 -176t165.5 -54q114 0 192 73t78 175v664h182zM889 1232h-575v113h575v-113z" />
    <glyph glyph-name="Ubreve" unicode="&#x16c;" horiz-adv-x="1380" 
d="M349 1365v-885q0 -157 91 -249t246 -92q154 0 245 92t91 249v885h185v-891q0 -226 -143.5 -364t-377.5 -138q-233 0 -377 139.5t-144 365.5v888h184zM366 1750h126q0 -73 50.5 -117t147.5 -44t147.5 44t50.5 117h125q0 -115 -83.5 -191t-239.5 -76t-240 76t-84 191z" />
    <glyph glyph-name="ubreve" unicode="&#x16d;" horiz-adv-x="1200" 
d="M1022 1052v-1052h-180v175h-10q-27 -76 -106.5 -134t-205.5 -58q-168 0 -264 82t-96 258v729h182v-682q0 -122 62.5 -176t165.5 -54q114 0 192 73t78 175v664h182zM342 1473h124q0 -69 42.5 -116.5t125.5 -47.5t125.5 47.5t42.5 116.5h123q0 -49 -17.5 -96.5t-51 -89
t-91.5 -66.5t-131 -25q-74 0 -132 25t-92 66.5t-51 89t-17 96.5z" />
    <glyph glyph-name="Uring" unicode="&#x16e;" horiz-adv-x="1380" 
d="M349 1365v-885q0 -157 91 -249t246 -92q154 0 245 92t91 249v885h185v-891q0 -226 -143.5 -364t-377.5 -138q-233 0 -377 139.5t-144 365.5v888h184zM691 1507q-81 0 -136.5 54t-55.5 135q0 80 55.5 134t136.5 54t136.5 -54t55.5 -134q0 -81 -55.5 -135t-136.5 -54z
M590 1695q0 -43 29 -72.5t72 -29.5t71.5 29.5t28.5 72.5t-28.5 72.5t-71.5 29.5t-72 -29.5t-29 -72.5z" />
    <glyph glyph-name="uring" unicode="&#x16f;" horiz-adv-x="1200" 
d="M1022 1052v-1052h-180v175h-10q-27 -76 -106.5 -134t-205.5 -58q-168 0 -264 82t-96 258v729h182v-682q0 -122 62.5 -176t165.5 -54q114 0 192 73t78 175v664h182zM601 1194q-81 0 -136.5 54t-55.5 135q0 80 55.5 134t136.5 54t136.5 -54t55.5 -134q0 -81 -55.5 -135
t-136.5 -54zM500 1382q0 -43 29 -72.5t72 -29.5t71.5 29.5t28.5 72.5t-28.5 72.5t-71.5 29.5t-72 -29.5t-29 -72.5z" />
    <glyph glyph-name="Uhungarumlaut" unicode="&#x170;" horiz-adv-x="1380" 
d="M349 1365v-885q0 -157 91 -249t246 -92q154 0 245 92t91 249v885h185v-891q0 -226 -143.5 -364t-377.5 -138q-233 0 -377 139.5t-144 365.5v888h184zM370 1512l313 249h201l-333 -249h-181zM730 1512l313 249h202l-333 -249h-182z" />
    <glyph glyph-name="uhungarumlaut" unicode="&#x171;" horiz-adv-x="1200" 
d="M482 1223h-134l244 365h179zM807 1223h-133l243 365h179zM1022 1052v-1052h-180v175h-10q-27 -76 -106.5 -134t-205.5 -58q-168 0 -264 82t-96 258v729h182v-682q0 -122 62.5 -176t165.5 -54q114 0 192 73t78 175v664h182z" />
    <glyph glyph-name="Uogonek" unicode="&#x172;" horiz-adv-x="1380" 
d="M986 -386q-94 0 -160.5 50.5t-66.5 145.5q0 120 102 199l-4 8q-26 -14 -44 -21.5t-55 -15.5t-82 -8q-220 0 -363.5 140.5t-143.5 364.5v888h184v-885q0 -157 91 -249t246 -92q154 0 245.5 92.5t91.5 248.5v885h184v-891q0 -133 -41 -225.5t-110 -168.5q-15 -17 -43.5 -46
t-43 -46t-32.5 -41t-25.5 -47.5t-7.5 -49.5q0 -52 32 -76.5t85 -24.5q43 0 75 10v-126q-48 -19 -114 -19z" />
    <glyph glyph-name="uogonek" unicode="&#x173;" horiz-adv-x="1200" 
d="M1040 -365q-47 -21 -125 -21q-93 0 -156.5 48.5t-63.5 143.5q0 42 13 78t39.5 66t44.5 45.5t49 38.5q6 4 8 6v135h-10q-27 -76 -106.5 -134t-206.5 -58q-167 0 -264 82.5t-97 257.5v729h182v-682q0 -122 62.5 -176t165.5 -54q114 0 192 73t78 175v664h182v-1035
q-73 -28 -127 -74.5t-54 -102.5q0 -44 31 -67.5t82 -23.5q45 0 81 9v-123z" />
    <glyph glyph-name="Wcircumflex" unicode="&#x174;" horiz-adv-x="1715" 
d="M531 1500l280 245h118l268 -245h-174l-153 140h-7l-161 -140h-171zM559 0h-165l-374 1365h212l248 -1082h9l265 1082h186l265 -1082h10l248 1082h211l-374 -1365h-167l-282 1063h-9z" />
    <glyph glyph-name="wcircumflex" unicode="&#x175;" horiz-adv-x="1496" 
d="M437 1222l250 376h121l239 -376h-153l-146 252h-4l-154 -252h-153zM1438 1052l-280 -1052h-180l-237 803h-5l-231 -803h-181l-295 1052h201l186 -825h7l230 825h170l237 -825h7l190 825h181z" />
    <glyph glyph-name="Ycircumflex" unicode="&#x176;" horiz-adv-x="1131" 
d="M649 0h-183v578l-456 787h209l334 -602h9l336 602h208l-457 -785v-580zM239 1500l280 245h118l268 -245h-174l-153 140h-7l-161 -140h-171z" />
    <glyph glyph-name="ycircumflex" unicode="&#x177;" horiz-adv-x="1080" 
d="M1005 1052q-371 -1050 -372 -1053l-27 -72q-17 -46 -32 -80t-37.5 -72t-49 -64.5t-61.5 -49t-80.5 -33.5t-100.5 -11q-62 0 -111 9v147q28 -5 79 -5q89 0 135.5 40.5t68.5 124.5l16 54l-386 1065h201l278 -873h8l279 873h192zM229 1222l250 376h121l239 -376h-153
l-146 252h-4l-154 -252h-153z" />
    <glyph glyph-name="Ydieresis" unicode="&#x178;" horiz-adv-x="1131" 
d="M649 0h-183v578l-456 787h209l334 -602h9l336 602h208l-457 -785v-580zM280 1581q0 45 30 74t76 29q47 0 77.5 -29t30.5 -74q0 -44 -30.5 -73.5t-77.5 -29.5q-46 0 -76 29.5t-30 73.5zM636 1581q0 45 30 74t75 29q48 0 79 -29t31 -74q0 -44 -31 -73.5t-79 -29.5
q-45 0 -75 29.5t-30 73.5z" />
    <glyph glyph-name="Zacute" unicode="&#x179;" horiz-adv-x="1195" 
d="M463 1512l257 206h210l-272 -206h-195zM102 0v130l723 1059v12h-698v164h926v-128l-719 -1061v-11h736v-165h-968z" />
    <glyph glyph-name="zacute" unicode="&#x17a;" horiz-adv-x="1015" 
d="M467 1225l239 354h177l-278 -354h-138zM113 0v122l556 763v10h-558v157h783v-125l-553 -759v-9h559v-159h-787z" />
    <glyph glyph-name="Zdotaccent" unicode="&#x17b;" horiz-adv-x="1195" 
d="M102 0v130l723 1059v12h-698v164h926v-128l-719 -1061v-11h736v-165h-968zM494 1600q0 47 29 76.5t75 29.5t76.5 -30t30.5 -76q0 -47 -30.5 -76t-76.5 -29t-75 29t-29 76z" />
    <glyph glyph-name="zdotaccent" unicode="&#x17c;" horiz-adv-x="1015" 
d="M404 1287q0 47 29 76.5t75 29.5t76.5 -30t30.5 -76q0 -47 -30.5 -76t-76.5 -29t-75 29t-29 76zM113 0v122l556 763v10h-558v157h783v-125l-553 -759v-9h559v-159h-787z" />
    <glyph glyph-name="Zcaron" unicode="&#x17d;" horiz-adv-x="1195" 
d="M102 0v130l723 1059v12h-698v164h926v-128l-719 -1061v-11h736v-165h-968zM260 1714h181l156 -123h7l143 123h185l-237 -208h-183z" />
    <glyph glyph-name="zcaron" unicode="&#x17e;" horiz-adv-x="1015" 
d="M200 1566h153l154 -261h5l146 261h152l-239 -376h-121zM113 0v122l556 763v10h-558v157h783v-125l-553 -759v-9h559v-159h-787z" />
    <glyph glyph-name="florin" unicode="&#x192;" 
d="M165 -186l172 939h-213l26 151h214l31 183q52 307 361 307q66 0 118 -17.5t83.5 -45.5t51.5 -64t26.5 -70.5t4.5 -67.5h-168q2 54 -35.5 84.5t-93.5 30.5q-134 0 -164 -174l-29 -166h294l-27 -151h-294l-171 -939h-187z" />
    <glyph glyph-name="Ohorn" unicode="&#x1a0;" horiz-adv-x="1360" 
d="M1227 577q0 -286 -149 -445.5t-404 -159.5q-254 0 -400.5 159t-146.5 446v198q0 289 149 453.5t402 164.5q84 0 159 -22.5t135 -45t109 -22.5q77 0 106.5 40.5t29.5 115.5v94h159v-99q0 -136 -65.5 -207.5t-189.5 -71.5l-4 -6q44 -62 77 -171t33 -223v-198zM311 775v-198
q0 -216 101 -327.5t264 -111.5q164 0 265 111.5t101 327.5v198q0 218 -102 335.5t-264 117.5t-263.5 -118t-101.5 -335z" />
    <glyph glyph-name="ohorn" unicode="&#x1a1;" horiz-adv-x="1151" 
d="M575 -17q-204 0 -329.5 123.5t-125.5 343.5v154q0 210 127.5 338t327.5 128q59 0 140 -22.5t138 -22.5q72 0 101.5 38.5t29.5 114.5v156h159v-152q0 -267 -211 -276v-8q39 -51 68 -130.5t29 -163.5v-154q0 -218 -126.5 -342.5t-327.5 -124.5zM575 915q-125 0 -200 -90.5
t-75 -234.5v-127q0 -147 72.5 -235.5t202.5 -88.5q128 0 199.5 88t71.5 236v127q0 145 -73 235t-198 90z" />
    <glyph glyph-name="Uhorn" unicode="&#x1af;" horiz-adv-x="1432" 
d="M685 -28q-233 0 -377 139.5t-144 366.5v887h184v-884q0 -158 91 -250t246 -92q154 0 245.5 92.5t91.5 249.5v884h186q73 0 102 39t29 114v102h157v-108q0 -126 -62.5 -202.5t-186.5 -76.5h-41v-759q0 -226 -143.5 -364t-377.5 -138z" />
    <glyph glyph-name="uhorn" unicode="&#x1b0;" horiz-adv-x="1269" 
d="M829 175q-27 -76 -106.5 -134t-205.5 -58q-168 0 -264 82t-96 258v729h182v-682q0 -122 62.5 -176t165.5 -54q114 0 192 73t78 175v664h165q73 0 101.5 39t28.5 114v129h158v-135q0 -125 -62 -201.5t-189 -76.5h-20v-921h-180v175h-10z" />
    <glyph glyph-name="Acaron" unicode="&#x1cd;" horiz-adv-x="1243" 
d="M222 0h-187l483 1365h191l482 -1365h-197l-134 402h-502zM613 1152h-8l-200 -601h408zM284 1714h181l156 -123h7l143 123h185l-237 -208h-183z" />
    <glyph glyph-name="acaron" unicode="&#x1ce;" horiz-adv-x="1108" 
d="M452 -17q-154 0 -249 88.5t-95 234.5q0 141 96 225t274 84h275v104q0 98 -57.5 145.5t-162.5 47.5q-175 0 -210 -122h-175q12 134 113.5 206.5t277.5 72.5q85 0 154 -19t124.5 -59t86.5 -109.5t31 -163.5v-718h-174v139h-8q-95 -156 -301 -156zM502 134q107 0 179 64
t72 160v119h-260q-102 0 -151 -45t-49 -120q0 -85 60.5 -131.5t148.5 -46.5zM246 1566h153l154 -261h5l146 261h152l-239 -376h-121z" />
    <glyph glyph-name="Icaron" unicode="&#x1cf;" horiz-adv-x="547" 
d="M359 0h-184v1365h184v-1365zM-64 1714h181l156 -123h7l143 123h185l-237 -208h-183z" />
    <glyph glyph-name="icaron" unicode="&#x1d0;" horiz-adv-x="578" 
d="M-18 1566h153l154 -261h5l146 261h152l-239 -376h-121zM194 0v1052h181v-1052h-181z" />
    <glyph glyph-name="Ocaron" unicode="&#x1d1;" horiz-adv-x="1360" 
d="M342 1714h181l156 -123h7l143 123h185l-237 -208h-183zM310 775v-198q0 -216 100.5 -327.5t263.5 -111.5q164 0 265 111.5t101 327.5v198q0 218 -102 335.5t-264 117.5t-263 -117.5t-101 -335.5zM125 577v198q0 289 149 453.5t402 164.5t401 -165t148 -453v-198
q0 -286 -149 -445.5t-404 -159.5q-254 0 -400.5 159t-146.5 446z" />
    <glyph glyph-name="ocaron" unicode="&#x1d2;" horiz-adv-x="1155" 
d="M269 1566h153l154 -261h5l146 261h152l-239 -376h-121zM574 1070q200 0 327 -125t127 -341v-154q0 -218 -126.5 -342.5t-327.5 -124.5q-204 0 -329.5 123.5t-125.5 343.5v154q0 210 127.5 338t327.5 128zM574 915q-125 0 -200 -90.5t-75 -234.5v-127q0 -147 72.5 -235.5
t202.5 -88.5q128 0 199.5 88t71.5 236v127q0 145 -73 235t-198 90z" />
    <glyph glyph-name="Ucaron" unicode="&#x1d3;" horiz-adv-x="1380" 
d="M352 1714h181l156 -123h7l143 123h185l-237 -208h-183zM349 1365v-885q0 -157 91 -249t246 -92q154 0 245 92t91 249v885h185v-891q0 -226 -143.5 -364t-377.5 -138q-233 0 -377 139.5t-144 365.5v888h184z" />
    <glyph glyph-name="ucaron" unicode="&#x1d4;" horiz-adv-x="1200" 
d="M292 1566h153l154 -261h5l146 261h152l-239 -376h-121zM1022 1052v-1052h-180v175h-10q-27 -76 -106.5 -134t-205.5 -58q-168 0 -264 82t-96 258v729h182v-682q0 -122 62.5 -176t165.5 -54q114 0 192 73t78 175v664h182z" />
    <glyph glyph-name="Udieresismacron" unicode="&#x1d5;" horiz-adv-x="1380" 
d="M404 1581q0 45 30 74t76 29q47 0 77.5 -29t30.5 -74q0 -44 -30.5 -73.5t-77.5 -29.5q-46 0 -76 29.5t-30 73.5zM760 1581q0 45 30 74t75 29q48 0 79 -29t31 -74q0 -44 -31 -73.5t-79 -29.5q-45 0 -75 29.5t-30 73.5zM349 1365v-885q0 -157 91 -249t246 -92q154 0 245 92
t91 249v885h185v-891q0 -226 -143.5 -364t-377.5 -138q-233 0 -377 139.5t-144 365.5v888h184zM983 1776h-586v114h586v-114z" />
    <glyph glyph-name="udieresismacron" unicode="&#x1d6;" horiz-adv-x="1200" 
d="M1022 1052v-1052h-180v175h-10q-27 -76 -106.5 -134t-205.5 -58q-168 0 -264 82t-96 258v729h182v-682q0 -122 62.5 -176t165.5 -54q114 0 192 73t78 175v664h182zM308 1304q0 47 32 77.5t79 30.5q48 0 80 -30.5t32 -77.5q0 -44 -32.5 -75t-79.5 -31q-46 0 -78.5 31
t-32.5 75zM676 1304q0 47 31.5 77.5t76.5 30.5q50 0 82.5 -30.5t32.5 -77.5q0 -45 -33 -75.5t-82 -30.5q-44 0 -76 31t-32 75zM889 1531h-575v113h575v-113z" />
    <glyph glyph-name="Udieresisacute" unicode="&#x1d7;" horiz-adv-x="1380" 
d="M555 1737l257 206h210l-272 -206h-195zM404 1581q0 45 30 74t76 29q47 0 77.5 -29t30.5 -74q0 -44 -30.5 -73.5t-77.5 -29.5q-46 0 -76 29.5t-30 73.5zM760 1581q0 45 30 74t75 29q48 0 79 -29t31 -74q0 -44 -31 -73.5t-79 -29.5q-45 0 -75 29.5t-30 73.5zM349 1365v-885
q0 -157 91 -249t246 -92q154 0 245 92t91 249v885h185v-891q0 -226 -143.5 -364t-377.5 -138q-233 0 -377 139.5t-144 365.5v888h184z" />
    <glyph glyph-name="udieresisacute" unicode="&#x1d8;" horiz-adv-x="1200" 
d="M559 1487l239 354h177l-278 -354h-138zM1022 1052v-1052h-180v175h-10q-27 -76 -106.5 -134t-205.5 -58q-168 0 -264 82t-96 258v729h182v-682q0 -122 62.5 -176t165.5 -54q114 0 192 73t78 175v664h182zM308 1304q0 47 32 77.5t79 30.5q48 0 80 -30.5t32 -77.5
q0 -44 -32.5 -75t-79.5 -31q-46 0 -78.5 31t-32.5 75zM676 1304q0 47 31.5 77.5t76.5 30.5q50 0 82.5 -30.5t32.5 -77.5q0 -45 -33 -75.5t-82 -30.5q-44 0 -76 31t-32 75z" />
    <glyph glyph-name="Udieresiscaron" unicode="&#x1d9;" horiz-adv-x="1380" 
d="M404 1581q0 45 30 74t76 29q47 0 77.5 -29t30.5 -74q0 -44 -30.5 -73.5t-77.5 -29.5q-46 0 -76 29.5t-30 73.5zM760 1581q0 45 30 74t75 29q48 0 79 -29t31 -74q0 -44 -31 -73.5t-79 -29.5q-45 0 -75 29.5t-30 73.5zM352 1974h181l156 -123h7l143 123h185l-237 -208h-183
zM349 1365v-885q0 -157 91 -249t246 -92q154 0 245 92t91 249v885h185v-891q0 -226 -143.5 -364t-377.5 -138q-233 0 -377 139.5t-144 365.5v888h184z" />
    <glyph glyph-name="udieresiscaron" unicode="&#x1da;" horiz-adv-x="1200" 
d="M292 1861h153l154 -261h5l146 261h152l-239 -376h-121zM1022 1052v-1052h-180v175h-10q-27 -76 -106.5 -134t-205.5 -58q-168 0 -264 82t-96 258v729h182v-682q0 -122 62.5 -176t165.5 -54q114 0 192 73t78 175v664h182zM308 1304q0 47 32 77.5t79 30.5q48 0 80 -30.5
t32 -77.5q0 -44 -32.5 -75t-79.5 -31q-46 0 -78.5 31t-32.5 75zM676 1304q0 47 31.5 77.5t76.5 30.5q50 0 82.5 -30.5t32.5 -77.5q0 -45 -33 -75.5t-82 -30.5q-44 0 -76 31t-32 75z" />
    <glyph glyph-name="Udieresisgrave" unicode="&#x1db;" horiz-adv-x="1380" 
d="M819 1737h-188l-275 204h208zM404 1581q0 45 30 74t76 29q47 0 77.5 -29t30.5 -74q0 -44 -30.5 -73.5t-77.5 -29.5q-46 0 -76 29.5t-30 73.5zM760 1581q0 45 30 74t75 29q48 0 79 -29t31 -74q0 -44 -31 -73.5t-79 -29.5q-45 0 -75 29.5t-30 73.5zM349 1365v-885
q0 -157 91 -249t246 -92q154 0 245 92t91 249v885h185v-891q0 -226 -143.5 -364t-377.5 -138q-233 0 -377 139.5t-144 365.5v888h184z" />
    <glyph glyph-name="udieresisgrave" unicode="&#x1dc;" horiz-adv-x="1200" 
d="M694 1485h-138l-278 354h178zM1022 1052v-1052h-180v175h-10q-27 -76 -106.5 -134t-205.5 -58q-168 0 -264 82t-96 258v729h182v-682q0 -122 62.5 -176t165.5 -54q114 0 192 73t78 175v664h182zM308 1304q0 47 32 77.5t79 30.5q48 0 80 -30.5t32 -77.5q0 -44 -32.5 -75
t-79.5 -31q-46 0 -78.5 31t-32.5 75zM676 1304q0 47 31.5 77.5t76.5 30.5q50 0 82.5 -30.5t32.5 -77.5q0 -45 -33 -75.5t-82 -30.5q-44 0 -76 31t-32 75z" />
    <glyph glyph-name="Adieresismacron" unicode="&#x1de;" horiz-adv-x="1243" 
d="M222 0h-187l483 1365h191l482 -1365h-197l-134 402h-502zM613 1152h-8l-200 -601h408zM336 1581q0 45 30 74t76 29q47 0 77.5 -29t30.5 -74q0 -44 -30.5 -73.5t-77.5 -29.5q-46 0 -76 29.5t-30 73.5zM692 1581q0 45 30 74t75 29q48 0 79 -29t31 -74q0 -44 -31 -73.5
t-79 -29.5q-45 0 -75 29.5t-30 73.5zM915 1776h-586v114h586v-114z" />
    <glyph glyph-name="adieresismacron" unicode="&#x1df;" horiz-adv-x="1108" 
d="M452 -17q-154 0 -249 88.5t-95 234.5q0 141 96 225t274 84h275v104q0 98 -57.5 145.5t-162.5 47.5q-175 0 -210 -122h-175q12 134 113.5 206.5t277.5 72.5q85 0 154 -19t124.5 -59t86.5 -109.5t31 -163.5v-718h-174v139h-8q-95 -156 -301 -156zM502 134q107 0 179 64
t72 160v119h-260q-102 0 -151 -45t-49 -120q0 -85 60.5 -131.5t148.5 -46.5zM262 1304q0 47 32 77.5t79 30.5q48 0 80 -30.5t32 -77.5q0 -44 -32.5 -75t-79.5 -31q-46 0 -78.5 31t-32.5 75zM630 1304q0 47 31.5 77.5t76.5 30.5q50 0 82.5 -30.5t32.5 -77.5q0 -45 -33 -75.5
t-82 -30.5q-44 0 -76 31t-32 75zM843 1531h-575v113h575v-113z" />
    <glyph glyph-name="Adotmacron" unicode="&#x1e0;" horiz-adv-x="1243" 
d="M222 0h-187l483 1365h191l482 -1365h-197l-134 402h-502zM613 1152h-8l-200 -601h408zM518 1600q0 47 29 76.5t75 29.5t76.5 -30t30.5 -76q0 -47 -30.5 -76t-76.5 -29t-75 29t-29 76zM915 1776h-586v114h586v-114z" />
    <glyph glyph-name="adotmacron" unicode="&#x1e1;" horiz-adv-x="1108" 
d="M452 -17q-154 0 -249 88.5t-95 234.5q0 141 96 225t274 84h275v104q0 98 -57.5 145.5t-162.5 47.5q-175 0 -210 -122h-175q12 134 113.5 206.5t277.5 72.5q85 0 154 -19t124.5 -59t86.5 -109.5t31 -163.5v-718h-174v139h-8q-95 -156 -301 -156zM502 134q107 0 179 64
t72 160v119h-260q-102 0 -151 -45t-49 -120q0 -85 60.5 -131.5t148.5 -46.5zM450 1287q0 47 29 76.5t75 29.5t76.5 -30t30.5 -76q0 -47 -30.5 -76t-76.5 -29t-75 29t-29 76zM843 1531h-575v113h575v-113z" />
    <glyph glyph-name="AEmacron" unicode="&#x1e2;" horiz-adv-x="1897" 
d="M869 1201l-330 -629l402 1v628h-72zM941 419h-480l-223 -419h-208l736 1365h991v-164h-633v-425h597v-160h-597v-451h633v-165h-816v419zM1654 1510h-586v114h586v-114z" />
    <glyph glyph-name="aemacron" unicode="&#x1e3;" horiz-adv-x="1747" 
d="M1209 -17q-148 0 -246.5 58t-134.5 146h-13q-42 -87 -131.5 -145.5t-222.5 -58.5q-159 0 -257 86t-98 234q0 145 98.5 228.5t278.5 83.5h273v104q0 98 -58 145.5t-163 47.5q-181 0 -216 -122h-175q12 133 116.5 206t281.5 73q108 0 193.5 -35t128.5 -104h12
q45 67 131 103t189 36q193 0 310.5 -126t117.5 -338v-126h-683v-79q0 -114 73 -187.5t194 -73.5q88 0 145 35.5t71 87.5h186q-5 -36 -21.5 -73t-49.5 -74.5t-77.5 -66.5t-110 -47t-142.5 -18zM1196 916q-110 0 -182.5 -76t-72.5 -195v-35h503v25q0 130 -66.5 205.5
t-181.5 75.5zM504 134q107 0 179.5 64t72.5 160v119h-258q-103 0 -157 -45.5t-54 -119.5q0 -86 63.5 -132t153.5 -46zM1163 1232h-575v113h575v-113z" />
    <glyph glyph-name="Gcaron" unicode="&#x1e6;" horiz-adv-x="1322" 
d="M341 1714h181l156 -123h7l143 123h185l-237 -208h-183zM1184 947h-182q-17 138 -108.5 209t-220.5 71q-76 0 -140.5 -26t-115 -78.5t-79 -140.5t-28.5 -204v-184q0 -215 92 -335t268 -120q148 0 243 81.5t95 209.5v125h-345v160h524v-281q0 -58 -16 -118.5t-54.5 -123
t-95.5 -111t-147.5 -79t-202.5 -30.5q-267 0 -405.5 165.5t-138.5 455.5v186q0 287 149 450.5t401 163.5q117 0 212 -36.5t156.5 -99t97 -141.5t41.5 -169z" />
    <glyph glyph-name="gcaron" unicode="&#x1e7;" horiz-adv-x="1161" 
d="M273 1566h153l154 -261h5l146 261h152l-239 -376h-121zM544 -240q137 0 207 69t70 196v159h-10q-32 -72 -111.5 -118.5t-184.5 -46.5q-180 0 -297.5 120t-117.5 323v161q0 204 117.5 324.5t296.5 120.5q111 0 193.5 -52t111.5 -122h9v158h173v-1029q0 -210 -124.5 -313.5
t-339.5 -103.5q-194 0 -298.5 81.5t-115.5 207.5h184q11 -59 74 -97t163 -38zM559 912q-127 0 -202.5 -88.5t-75.5 -233.5v-98q0 -142 78.5 -230.5t201.5 -88.5q120 0 189.5 84.5t69.5 203.5v157q0 121 -71 207.5t-190 86.5z" />
    <glyph glyph-name="Kcaron" unicode="&#x1e8;" horiz-adv-x="1227" 
d="M1164 1365l-507 -582l533 -783h-232l-438 654l-165 -180v-474h-184v1365h184v-653h8l586 653h215zM254 1714h181l156 -123h7l143 123h185l-237 -208h-183z" />
    <glyph glyph-name="kcaron" unicode="&#x1e9;" horiz-adv-x="1050" 
d="M-52 1951h153l154 -261h5l146 261h152l-239 -376h-121zM338 386v-386h-181v1437h181v-856h7l424 471h209l-412 -456l439 -596h-216l-356 483z" />
    <glyph glyph-name="Oogonek" unicode="&#x1ea;" horiz-adv-x="1360" 
d="M314 775v-198q0 -216 101 -327.5t264 -111.5q164 0 265 111.5t101 327.5v198q0 218 -102 335.5t-264 117.5t-263.5 -118t-101.5 -335zM660 -27q-238 0 -384 161t-146 444v196q0 289 149 454t402 165q252 0 400.5 -165t148.5 -454v-196q0 -173 -46.5 -285.5t-124.5 -201.5
q-19 -22 -58 -62.5t-56 -61t-33 -52.5t-16 -64q0 -51 32 -76t86 -25q40 0 74 9v-127q-68 -18 -115 -18q-96 0 -161.5 50.5t-65.5 145.5q-2 118 104 200l-4 10q-81 -47 -186 -47z" />
    <glyph glyph-name="oogonek" unicode="&#x1eb;" horiz-adv-x="1155" 
d="M578 915q-125 0 -200 -90t-75 -234v-128q0 -147 72.5 -235.5t202.5 -88.5q129 0 200 88t71 236v128q0 144 -73.5 234t-197.5 90zM693 19q-65 -34 -147 -34q-182 0 -302.5 123.5t-120.5 332.5v163q0 211 128 338.5t330 127.5q197 0 324 -125t127 -341v-154
q0 -89 -24 -165.5t-52.5 -120t-73.5 -92.5q-10 -11 -41 -43t-41.5 -45t-28 -37.5t-24 -45.5t-6.5 -45q0 -50 32.5 -78.5t87.5 -28.5q37 0 73 9v-126q-54 -18 -116 -18q-93 0 -159 49t-66 147q0 119 107 200z" />
    <glyph glyph-name="Oogonekmacron" unicode="&#x1ec;" horiz-adv-x="1360" 
d="M309 775v-198q0 -216 101 -327.5t264 -111.5q164 0 265 111.5t101 327.5v198q0 218 -102 335.5t-264 117.5t-263.5 -118t-101.5 -335zM655 -27q-238 0 -384 161t-146 444v196q0 289 149 454t402 165q252 0 400.5 -165t148.5 -454v-196q0 -173 -46.5 -285.5t-124.5 -201.5
q-19 -22 -58 -62.5t-56 -61t-33 -52.5t-16 -64q0 -51 32 -76t86 -25q39 0 74 9v-127q-68 -18 -115 -18q-96 0 -161.5 50.5t-65.5 145.5q-2 118 104 200l-4 10q-81 -47 -186 -47zM973 1510h-586v114h586v-114z" />
    <glyph glyph-name="oogonekmacron" unicode="&#x1ed;" horiz-adv-x="1155" 
d="M574 915q-125 0 -200 -90t-75 -234v-128q0 -147 72.5 -235.5t202.5 -88.5q129 0 200 88t71 236v128q0 144 -73.5 234t-197.5 90zM689 19q-65 -34 -147 -34q-182 0 -302.5 123.5t-120.5 332.5v163q0 211 128 338.5t330 127.5q197 0 324 -125t127 -341v-154
q0 -89 -24 -165.5t-52.5 -120t-73.5 -92.5q-10 -11 -41 -43t-41.5 -45t-28 -37.5t-24 -45.5t-6.5 -45q0 -50 32.5 -78.5t87.5 -28.5q37 0 73 9v-126q-54 -18 -116 -18q-93 0 -159 49t-66 147q0 119 107 200zM866 1232h-575v113h575v-113z" />
    <glyph glyph-name="Gacute" unicode="&#x1f4;" horiz-adv-x="1322" 
d="M544 1512l257 206h210l-272 -206h-195zM1184 947h-182q-17 138 -108.5 209t-220.5 71q-76 0 -140.5 -26t-115 -78.5t-79 -140.5t-28.5 -204v-184q0 -215 92 -335t268 -120q148 0 243 81.5t95 209.5v125h-345v160h524v-281q0 -58 -16 -118.5t-54.5 -123t-95.5 -111
t-147.5 -79t-202.5 -30.5q-267 0 -405.5 165.5t-138.5 455.5v186q0 287 149 450.5t401 163.5q117 0 212 -36.5t156.5 -99t97 -141.5t41.5 -169z" />
    <glyph glyph-name="gacute" unicode="&#x1f5;" horiz-adv-x="1161" 
d="M540 1225l239 354h177l-278 -354h-138zM544 -240q137 0 207 69t70 196v159h-10q-32 -72 -111.5 -118.5t-184.5 -46.5q-180 0 -297.5 120t-117.5 323v161q0 204 117.5 324.5t296.5 120.5q111 0 193.5 -52t111.5 -122h9v158h173v-1029q0 -210 -124.5 -313.5t-339.5 -103.5
q-194 0 -298.5 81.5t-115.5 207.5h184q11 -59 74 -97t163 -38zM559 912q-127 0 -202.5 -88.5t-75.5 -233.5v-98q0 -142 78.5 -230.5t201.5 -88.5q120 0 189.5 84.5t69.5 203.5v157q0 121 -71 207.5t-190 86.5z" />
    <glyph glyph-name="Ngrave" unicode="&#x1f8;" horiz-adv-x="1412" 
d="M835 1512h-188l-275 204h208zM366 0h-181v1365h174l675 -1044h9v1044h181v-1365h-174l-677 1046h-7v-1046z" />
    <glyph glyph-name="ngrave" unicode="&#x1f9;" horiz-adv-x="1206" 
d="M697 1225h-138l-278 354h178zM168 0v1052h179v-191h10q11 37 30.5 68.5t55 65.5t95.5 54t138 20q164 0 260.5 -89.5t96.5 -261.5v-718h-182v663q0 122 -59 185.5t-168 63.5q-133 0 -204 -90t-71 -233v-589h-181z" />
    <glyph glyph-name="Aringacute" unicode="&#x1fa;" horiz-adv-x="1243" 
d="M521 1669l313 250h210l-328 -250h-195zM505 1509q0 -43 31.5 -74.5t74.5 -31.5q44 0 75.5 31t31.5 75q0 45 -31.5 76t-75.5 31q-43 0 -74.5 -31t-31.5 -76zM813 551l-200 601h-8l-200 -601h408zM222 0h-187l474 1338q-46 25 -73.5 71t-27.5 101q0 85 59 143.5t144 58.5
q84 0 143 -58.5t59 -143.5q0 -53 -26.5 -98t-70.5 -70l475 -1342h-197l-134 402h-502z" />
    <glyph glyph-name="aringacute" unicode="&#x1fb;" horiz-adv-x="1108" 
d="M692 1523h-150l248 350h202zM452 -17q-154 0 -249 88.5t-95 234.5q0 141 96 225t274 84h275v104q0 98 -57.5 145.5t-162.5 47.5q-175 0 -210 -122h-175q12 134 113.5 206.5t277.5 72.5q85 0 154 -19t124.5 -59t86.5 -109.5t31 -163.5v-718h-174v139h-8
q-95 -156 -301 -156zM502 134q107 0 179 64t72 160v119h-260q-102 0 -151 -45t-49 -120q0 -85 60.5 -131.5t148.5 -46.5zM562 1194q-81 0 -136.5 54t-55.5 135q0 80 55.5 134t136.5 54t136.5 -54t55.5 -134q0 -81 -55.5 -135t-136.5 -54zM461 1382q0 -43 29 -72.5t72 -29.5
t71.5 29.5t28.5 72.5t-28.5 72.5t-71.5 29.5t-72 -29.5t-29 -72.5z" />
    <glyph glyph-name="AEacute" unicode="&#x1fc;" horiz-adv-x="1897" 
d="M1226 1512l257 206h210l-272 -206h-195zM869 1201l-330 -629l402 1v628h-72zM941 419h-480l-223 -419h-208l736 1365h991v-164h-633v-425h597v-160h-597v-451h633v-165h-816v419z" />
    <glyph glyph-name="aeacute" unicode="&#x1fd;" horiz-adv-x="1747" 
d="M833 1225l239 354h177l-278 -354h-138zM1209 -17q-148 0 -246.5 58t-134.5 146h-13q-42 -87 -131.5 -145.5t-222.5 -58.5q-159 0 -257 86t-98 234q0 145 98.5 228.5t278.5 83.5h273v104q0 98 -58 145.5t-163 47.5q-181 0 -216 -122h-175q12 133 116.5 206t281.5 73
q108 0 193.5 -35t128.5 -104h12q45 67 131 103t189 36q193 0 310.5 -126t117.5 -338v-126h-683v-79q0 -114 73 -187.5t194 -73.5q88 0 145 35.5t71 87.5h186q-5 -36 -21.5 -73t-49.5 -74.5t-77.5 -66.5t-110 -47t-142.5 -18zM1196 916q-110 0 -182.5 -76t-72.5 -195v-35h503
v25q0 130 -66.5 205.5t-181.5 75.5zM504 134q107 0 179.5 64t72.5 160v119h-258q-103 0 -157 -45.5t-54 -119.5q0 -86 63.5 -132t153.5 -46z" />
    <glyph glyph-name="Oslashacute" unicode="&#x1fe;" horiz-adv-x="1360" 
d="M672 -28q-238 0 -380 140l-101 -125l-100 82l118 147q-84 148 -84 361v198q0 289 149 453.5t402 164.5q228 0 372 -136l97 120l104 -76l-118 -146q94 -154 94 -380v-198q0 -286 -149 -445.5t-404 -159.5zM307 577q0 -114 31 -199l598 737q-100 114 -262 114
q-163 0 -265 -118t-102 -336v-198zM674 136q164 0 265.5 112t101.5 329v198q0 121 -37 218l-600 -740q98 -117 270 -117zM545 1512l257 206h210l-272 -206h-195z" />
    <glyph glyph-name="oslashacute" unicode="&#x1ff;" horiz-adv-x="1155" 
d="M400 190q69 -55 174 -55q129 0 202.5 90t73.5 239v153q0 84 -33 148zM295 437q0 -90 32 -151l418 577q-68 57 -171 57q-126 0 -202.5 -92.5t-76.5 -237.5v-153zM574 -17q-151 0 -266 78l-101 -138l-97 72l109 149q-100 124 -100 306v154q0 210 127.5 338t327.5 128
q145 0 263 -80l100 138l96 -74l-107 -147q102 -124 102 -303v-154q0 -218 -126.5 -342.5t-327.5 -124.5zM536 1225l239 354h177l-278 -354h-138z" />
    <glyph glyph-name="Adblgrave" unicode="&#x200;" horiz-adv-x="1243" 
d="M222 0h-187l483 1365h191l482 -1365h-197l-134 402h-502zM613 1152h-8l-200 -601h408zM923 1512h-181l-333 250h201zM563 1512h-182l-333 250h202z" />
    <glyph glyph-name="adblgrave" unicode="&#x201;" horiz-adv-x="1108" 
d="M452 -17q-154 0 -249 88.5t-95 234.5q0 141 96 225t274 84h275v104q0 98 -57.5 145.5t-162.5 47.5q-175 0 -210 -122h-175q12 134 113.5 206.5t277.5 72.5q85 0 154 -19t124.5 -59t86.5 -109.5t31 -163.5v-718h-174v139h-8q-95 -156 -301 -156zM502 134q107 0 179 64
t72 160v119h-260q-102 0 -151 -45t-49 -120q0 -85 60.5 -131.5t148.5 -46.5zM350 1222l-289 365h179l244 -365h-134zM671 1222l-289 365h180l243 -365h-134z" />
    <glyph glyph-name="Ainvertedbreve" unicode="&#x202;" horiz-adv-x="1243" 
d="M222 0h-187l483 1365h191l482 -1365h-197l-134 402h-502zM613 1152h-8l-200 -601h408zM622 1649q-90 0 -142 -45t-52 -107h-125q0 105 84.5 183t234.5 78t234 -78t84 -183h-124q0 62 -52 107t-142 45z" />
    <glyph glyph-name="ainvertedbreve" unicode="&#x203;" horiz-adv-x="1108" 
d="M452 -17q-154 0 -249 88.5t-95 234.5q0 141 96 225t274 84h275v104q0 98 -57.5 145.5t-162.5 47.5q-175 0 -210 -122h-175q12 134 113.5 206.5t277.5 72.5q85 0 154 -19t124.5 -59t86.5 -109.5t31 -163.5v-718h-174v139h-8q-95 -156 -301 -156zM502 134q107 0 179 64
t72 160v119h-260q-102 0 -151 -45t-49 -120q0 -85 60.5 -131.5t148.5 -46.5zM263 1226q0 49 17 96.5t51 89t92 66.5t131 25t131.5 -25t92 -66.5t50.5 -89t17 -96.5h-123q0 69 -42.5 116.5t-125.5 47.5t-125.5 -47.5t-42.5 -116.5h-123z" />
    <glyph glyph-name="Edblgrave" unicode="&#x204;" horiz-adv-x="1147" 
d="M894 1512h-181l-333 250h201zM534 1512h-182l-333 250h202zM1006 165v-165h-825v1365h825v-165h-642v-424h606v-160h-606v-451h642z" />
    <glyph glyph-name="edblgrave" unicode="&#x205;" horiz-adv-x="1112" 
d="M569 -17q-211 0 -330.5 124.5t-119.5 339.5v158q0 213 122 339t314 126q193 0 315 -127t122 -338v-126h-693v-52q0 -127 71 -207.5t198 -80.5q88 0 149 36t75 87h186q-6 -45 -34 -92t-76 -90t-126 -70t-173 -27zM299 610h513v17q0 130 -70 209.5t-186 79.5t-186.5 -79.5
t-70.5 -209.5v-17zM352 1222l-289 365h179l244 -365h-134zM673 1222l-289 365h180l243 -365h-134z" />
    <glyph glyph-name="Einvertedbreve" unicode="&#x206;" horiz-adv-x="1147" 
d="M1006 165v-165h-825v1365h825v-165h-642v-424h606v-160h-606v-451h642zM593 1649q-90 0 -142 -45t-52 -107h-125q0 105 84.5 183t234.5 78t234 -78t84 -183h-124q0 62 -52 107t-142 45z" />
    <glyph glyph-name="einvertedbreve" unicode="&#x207;" horiz-adv-x="1112" 
d="M569 -17q-211 0 -330.5 124.5t-119.5 339.5v158q0 213 122 339t314 126q193 0 315 -127t122 -338v-126h-693v-52q0 -127 71 -207.5t198 -80.5q88 0 149 36t75 87h186q-6 -45 -34 -92t-76 -90t-126 -70t-173 -27zM299 610h513v17q0 130 -70 209.5t-186 79.5t-186.5 -79.5
t-70.5 -209.5v-17zM265 1226q0 49 17 96.5t51 89t92 66.5t131 25t131.5 -25t92 -66.5t50.5 -89t17 -96.5h-123q0 69 -42.5 116.5t-125.5 47.5t-125.5 -47.5t-42.5 -116.5h-123z" />
    <glyph glyph-name="Idblgrave" unicode="&#x208;" horiz-adv-x="547" 
d="M359 0h-184v1365h184v-1365zM575 1512h-181l-333 250h201zM215 1512h-182l-333 250h202z" />
    <glyph glyph-name="idblgrave" unicode="&#x209;" horiz-adv-x="578" 
d="M194 0v1052h181v-1052h-181zM86 1222l-289 365h179l244 -365h-134zM407 1222l-289 365h180l243 -365h-134z" />
    <glyph glyph-name="Iinvertedbreve" unicode="&#x20a;" horiz-adv-x="547" 
d="M359 0h-184v1365h184v-1365zM274 1649q-90 0 -142 -45t-52 -107h-125q0 105 84.5 183t234.5 78t234 -78t84 -183h-124q0 62 -52 107t-142 45z" />
    <glyph glyph-name="iinvertedbreve" unicode="&#x20b;" horiz-adv-x="578" 
d="M194 0v1052h181v-1052h-181zM-1 1226q0 49 17 96.5t51 89t92 66.5t131 25t131.5 -25t92 -66.5t50.5 -89t17 -96.5h-123q0 69 -42.5 116.5t-125.5 47.5t-125.5 -47.5t-42.5 -116.5h-123z" />
    <glyph glyph-name="Odblgrave" unicode="&#x20c;" horiz-adv-x="1360" 
d="M981 1512h-181l-333 250h201zM621 1512h-182l-333 250h202zM310 775v-198q0 -216 100.5 -327.5t263.5 -111.5q164 0 265 111.5t101 327.5v198q0 218 -102 335.5t-264 117.5t-263 -117.5t-101 -335.5zM125 577v198q0 289 149 453.5t402 164.5t401 -165t148 -453v-198
q0 -286 -149 -445.5t-404 -159.5q-254 0 -400.5 159t-146.5 446z" />
    <glyph glyph-name="odblgrave" unicode="&#x20d;" horiz-adv-x="1155" 
d="M574 1070q200 0 327 -125t127 -341v-154q0 -218 -126.5 -342.5t-327.5 -124.5q-204 0 -329.5 123.5t-125.5 343.5v154q0 210 127.5 338t327.5 128zM574 915q-125 0 -200 -90.5t-75 -234.5v-127q0 -147 72.5 -235.5t202.5 -88.5q128 0 199.5 88t71.5 236v127
q0 145 -73 235t-198 90zM373 1222l-289 365h179l244 -365h-134zM694 1222l-289 365h180l243 -365h-134z" />
    <glyph glyph-name="Oinvertedbreve" unicode="&#x20e;" horiz-adv-x="1360" 
d="M680 1649q-90 0 -142 -45t-52 -107h-125q0 105 84.5 183t234.5 78t234 -78t84 -183h-124q0 62 -52 107t-142 45zM310 775v-198q0 -216 100.5 -327.5t263.5 -111.5q164 0 265 111.5t101 327.5v198q0 218 -102 335.5t-264 117.5t-263 -117.5t-101 -335.5zM125 577v198
q0 289 149 453.5t402 164.5t401 -165t148 -453v-198q0 -286 -149 -445.5t-404 -159.5q-254 0 -400.5 159t-146.5 446z" />
    <glyph glyph-name="oinvertedbreve" unicode="&#x20f;" horiz-adv-x="1155" 
d="M574 1070q200 0 327 -125t127 -341v-154q0 -218 -126.5 -342.5t-327.5 -124.5q-204 0 -329.5 123.5t-125.5 343.5v154q0 210 127.5 338t327.5 128zM574 915q-125 0 -200 -90.5t-75 -234.5v-127q0 -147 72.5 -235.5t202.5 -88.5q128 0 199.5 88t71.5 236v127
q0 145 -73 235t-198 90zM286 1226q0 49 17 96.5t51 89t92 66.5t131 25t131.5 -25t92 -66.5t50.5 -89t17 -96.5h-123q0 69 -42.5 116.5t-125.5 47.5t-125.5 -47.5t-42.5 -116.5h-123z" />
    <glyph glyph-name="Rdblgrave" unicode="&#x210;" horiz-adv-x="1259" 
d="M895 1512h-181l-333 250h201zM535 1512h-182l-333 250h202zM675 1365q111 0 197.5 -33t139 -90.5t79.5 -130t27 -156.5q0 -81 -22.5 -148t-60.5 -112t-80.5 -74.5t-90.5 -46.5l278 -574h-209l-251 539h-322v-539h-183v1365h498zM360 698h284q139 0 211.5 64t72.5 183
q0 126 -74 192.5t-203 66.5h-291v-506z" />
    <glyph glyph-name="rdblgrave" unicode="&#x211;" horiz-adv-x="787" 
d="M180 0v1052h181v-162h9q11 30 30.5 58t52.5 56.5t86 46t119 17.5q31 0 66 -5v-167q-26 6 -85 6q-134 0 -205.5 -70.5t-71.5 -182.5v-649h-182zM235 1222l-289 365h179l244 -365h-134zM556 1222l-289 365h180l243 -365h-134z" />
    <glyph glyph-name="Rinvertedbreve" unicode="&#x212;" horiz-adv-x="1259" 
d="M675 1365q111 0 197.5 -33t139 -90.5t79.5 -130t27 -156.5q0 -81 -22.5 -148t-60.5 -112t-80.5 -74.5t-90.5 -46.5l278 -574h-209l-251 539h-322v-539h-183v1365h498zM360 698h284q139 0 211.5 64t72.5 183q0 126 -74 192.5t-203 66.5h-291v-506zM594 1649
q-90 0 -142 -45t-52 -107h-125q0 105 84.5 183t234.5 78t234 -78t84 -183h-124q0 62 -52 107t-142 45z" />
    <glyph glyph-name="rinvertedbreve" unicode="&#x213;" horiz-adv-x="787" 
d="M180 0v1052h181v-162h9q11 30 30.5 58t52.5 56.5t86 46t119 17.5q31 0 66 -5v-167q-26 6 -85 6q-134 0 -205.5 -70.5t-71.5 -182.5v-649h-182zM148 1226q0 49 17 96.5t51 89t92 66.5t131 25t131.5 -25t92 -66.5t50.5 -89t17 -96.5h-123q0 69 -42.5 116.5t-125.5 47.5
t-125.5 -47.5t-42.5 -116.5h-123z" />
    <glyph glyph-name="Udblgrave" unicode="&#x214;" horiz-adv-x="1380" 
d="M991 1512h-181l-333 250h201zM631 1512h-182l-333 250h202zM349 1365v-885q0 -157 91 -249t246 -92q154 0 245 92t91 249v885h185v-891q0 -226 -143.5 -364t-377.5 -138q-233 0 -377 139.5t-144 365.5v888h184z" />
    <glyph glyph-name="udblgrave" unicode="&#x215;" horiz-adv-x="1200" 
d="M1022 1052v-1052h-180v175h-10q-27 -76 -106.5 -134t-205.5 -58q-168 0 -264 82t-96 258v729h182v-682q0 -122 62.5 -176t165.5 -54q114 0 192 73t78 175v664h182zM396 1222l-289 365h179l244 -365h-134zM717 1222l-289 365h180l243 -365h-134z" />
    <glyph glyph-name="Uinvertedbreve" unicode="&#x216;" horiz-adv-x="1380" 
d="M349 1365v-885q0 -157 91 -249t246 -92q154 0 245 92t91 249v885h185v-891q0 -226 -143.5 -364t-377.5 -138q-233 0 -377 139.5t-144 365.5v888h184zM690 1649q-90 0 -142 -45t-52 -107h-125q0 105 84.5 183t234.5 78t234 -78t84 -183h-124q0 62 -52 107t-142 45z" />
    <glyph glyph-name="uinvertedbreve" unicode="&#x217;" horiz-adv-x="1200" 
d="M1022 1052v-1052h-180v175h-10q-27 -76 -106.5 -134t-205.5 -58q-168 0 -264 82t-96 258v729h182v-682q0 -122 62.5 -176t165.5 -54q114 0 192 73t78 175v664h182zM309 1226q0 49 17 96.5t51 89t92 66.5t131 25t131.5 -25t92 -66.5t50.5 -89t17 -96.5h-123
q0 69 -42.5 116.5t-125.5 47.5t-125.5 -47.5t-42.5 -116.5h-123z" />
    <glyph glyph-name="Scommaaccent" unicode="&#x218;" horiz-adv-x="1200" 
d="M73 371h184q10 -102 96 -169t235 -67q141 0 224 62.5t83 170.5q0 82 -53.5 132t-168.5 79l-237 61q-66 17 -121 44.5t-102 70t-73.5 105.5t-26.5 141q0 93 39.5 169.5t106 125.5t152 75t179.5 26q73 0 141 -15t128.5 -47t105.5 -77.5t72.5 -110t28.5 -141.5h-181
q-10 101 -86.5 164.5t-211.5 63.5q-128 0 -207.5 -58.5t-79.5 -161.5q0 -150 192 -197l233 -61q172 -44 264 -130.5t92 -242.5q0 -195 -143.5 -303t-368.5 -108q-105 0 -190.5 24.5t-140.5 64t-92.5 93t-54 107t-18.5 110.5zM562 -469h-133l82 313h158z" />
    <glyph glyph-name="scommaaccent" unicode="&#x219;" horiz-adv-x="1030" 
d="M116 750q0 81 32 144t87.5 100.5t124.5 56.5t148 19q170 0 273.5 -81t103.5 -215h-168q-5 62 -60.5 107.5t-154.5 45.5q-94 0 -152.5 -42t-58.5 -116q0 -93 112 -131q37 -12 149 -32q66 -12 114 -24.5t97 -35.5t79.5 -52.5t50 -76t19.5 -105.5q0 -155 -114 -242t-306 -87
q-179 0 -287 77.5t-108 216.5h177q23 -150 226 -150q118 0 176 45.5t58 117.5q0 17 -3 32t-11 27.5t-14.5 22.5t-22.5 19t-25 15t-32 13.5t-33 11t-39 9.5t-39.5 8t-43.5 9q-49 10 -82 18t-73.5 21.5t-67 27.5t-54 36t-43 48.5t-25.5 62.5t-10 79zM501 -469h-133l82 313h158
z" />
    <glyph glyph-name="Tcommaaccent" unicode="&#x21a;" horiz-adv-x="1092" 
d="M532 -469h-133l82 313h158zM634 0h-184v1200h-412v165h1008v-165h-412v-1200z" />
    <glyph glyph-name="tcommaaccent" unicode="&#x21b;" horiz-adv-x="754" 
d="M414 -469h-133l82 313h158zM221 1049v264h179v-264h238v-151h-238v-600q0 -91 36.5 -123t133.5 -32q49 0 83 4v-147q-45 -9 -129 -9q-93 0 -153 17.5t-93 57.5t-45.5 93t-12.5 136v603h-161v151h162z" />
    <glyph glyph-name="Hcaron" unicode="&#x21e;" horiz-adv-x="1412" 
d="M1223 0h-184v623h-676v-623h-184v1365h184v-577h676v577h184v-1365zM368 1714h181l156 -123h7l143 123h185l-237 -208h-183z" />
    <glyph glyph-name="hcaron" unicode="&#x21f;" horiz-adv-x="1213" 
d="M171 0v1437h181v-576h9q7 25 20.5 50t40.5 54.5t61.5 51.5t87.5 37t116 15q158 0 255.5 -91t97.5 -262v-716h-182v661q0 122 -62 186.5t-170 64.5q-131 0 -202.5 -90.5t-71.5 -232.5v-589h-181zM-44 1951h153l154 -261h5l146 261h152l-239 -376h-121z" />
    <glyph glyph-name="Adotaccent" unicode="&#x226;" horiz-adv-x="1243" 
d="M222 0h-187l483 1365h191l482 -1365h-197l-134 402h-502zM613 1152h-8l-200 -601h408zM518 1600q0 47 29 76.5t75 29.5t76.5 -30t30.5 -76q0 -47 -30.5 -76t-76.5 -29t-75 29t-29 76z" />
    <glyph glyph-name="adotaccent" unicode="&#x227;" horiz-adv-x="1108" 
d="M452 -17q-154 0 -249 88.5t-95 234.5q0 141 96 225t274 84h275v104q0 98 -57.5 145.5t-162.5 47.5q-175 0 -210 -122h-175q12 134 113.5 206.5t277.5 72.5q85 0 154 -19t124.5 -59t86.5 -109.5t31 -163.5v-718h-174v139h-8q-95 -156 -301 -156zM502 134q107 0 179 64
t72 160v119h-260q-102 0 -151 -45t-49 -120q0 -85 60.5 -131.5t148.5 -46.5zM450 1287q0 47 29 76.5t75 29.5t76.5 -30t30.5 -76q0 -47 -30.5 -76t-76.5 -29t-75 29t-29 76z" />
    <glyph glyph-name="Ecedilla" unicode="&#x228;" horiz-adv-x="1147" 
d="M524 0h-339v1365h825v-165h-642v-424h606v-160h-606v-451h642v-165h-363l-50 -135q98 0 154.5 -41t56.5 -121q0 -91 -62.5 -138t-162.5 -51q-83 -4 -150 15v107q47 -14 116 -14q48 0 82.5 18t34.5 59q0 16 -5 28t-17 19t-23.5 11.5t-31 6t-33 2t-37.5 0.5h-52v81z" />
    <glyph glyph-name="ecedilla" unicode="&#x229;" horiz-adv-x="1112" 
d="M303 610h513v17q0 130 -70 209.5t-186 79.5t-186.5 -79.5t-70.5 -209.5v-17zM569 -486q-83 -4 -150 15v107q47 -14 116 -14q48 0 82.5 18t34.5 59q0 16 -5 28t-17 19t-23.5 11.5t-31 6t-33 2t-37.5 0.5h-53v81l53 140q-181 19 -281.5 141t-100.5 319v158q0 213 122 339
t314 126q193 0 315 -127t122 -338v-126h-693v-52q0 -127 71 -207.5t198 -80.5q88 0 149 36t75 87h186q-6 -42 -30 -85t-66 -84.5t-109 -71t-149 -36.5l-45 -120q97 0 153.5 -41t56.5 -121q0 -91 -62 -138t-162 -51z" />
    <glyph glyph-name="Odieresismacron" unicode="&#x22a;" horiz-adv-x="1360" 
d="M394 1581q0 45 30 74t76 29q47 0 77.5 -29t30.5 -74q0 -44 -30.5 -73.5t-77.5 -29.5q-46 0 -76 29.5t-30 73.5zM750 1581q0 45 30 74t75 29q48 0 79 -29t31 -74q0 -44 -31 -73.5t-79 -29.5q-45 0 -75 29.5t-30 73.5zM310 775v-198q0 -216 100.5 -327.5t263.5 -111.5
q164 0 265 111.5t101 327.5v198q0 218 -102 335.5t-264 117.5t-263 -117.5t-101 -335.5zM125 577v198q0 289 149 453.5t402 164.5t401 -165t148 -453v-198q0 -286 -149 -445.5t-404 -159.5q-254 0 -400.5 159t-146.5 446zM973 1776h-586v114h586v-114z" />
    <glyph glyph-name="odieresismacron" unicode="&#x22b;" horiz-adv-x="1155" 
d="M285 1304q0 47 32 77.5t79 30.5q48 0 80 -30.5t32 -77.5q0 -44 -32.5 -75t-79.5 -31q-46 0 -78.5 31t-32.5 75zM653 1304q0 47 31.5 77.5t76.5 30.5q50 0 82.5 -30.5t32.5 -77.5q0 -45 -33 -75.5t-82 -30.5q-44 0 -76 31t-32 75zM574 1070q200 0 327 -125t127 -341v-154
q0 -218 -126.5 -342.5t-327.5 -124.5q-204 0 -329.5 123.5t-125.5 343.5v154q0 210 127.5 338t327.5 128zM574 915q-125 0 -200 -90.5t-75 -234.5v-127q0 -147 72.5 -235.5t202.5 -88.5q128 0 199.5 88t71.5 236v127q0 145 -73 235t-198 90zM866 1531h-575v113h575v-113z
" />
    <glyph glyph-name="Otildemacron" unicode="&#x22c;" horiz-adv-x="1360" 
d="M310 775v-198q0 -216 100.5 -327.5t263.5 -111.5q164 0 265 111.5t101 327.5v198q0 218 -102 335.5t-264 117.5t-263 -117.5t-101 -335.5zM125 577v198q0 289 149 453.5t402 164.5t401 -165t148 -453v-198q0 -286 -149 -445.5t-404 -159.5q-254 0 -400.5 159t-146.5 446z
M651 1526l-8 8l-8.5 8.5t-8.5 8t-9 8t-9 6.5t-10.5 6t-10 4.5t-11 3.5t-11.5 1q-27 0 -43 -18t-20 -37t-6 -47h-120q0 88 46.5 150.5t136.5 62.5q45 0 80 -17.5t74 -54.5q5 -5 19.5 -19t20.5 -19.5t18.5 -11t25.5 -5.5q34 0 52 35t21 76h119q0 -83 -50.5 -149.5
t-131.5 -66.5q-55 0 -89.5 17t-66.5 50zM973 1776h-586v114h586v-114z" />
    <glyph glyph-name="otildemacron" unicode="&#x22d;" horiz-adv-x="1155" 
d="M549 1236q-13 20 -21.5 30.5t-26.5 22t-38 11.5q-63 0 -70 -127h-121q0 108 50 181t135 73q50 0 85.5 -18.5t67.5 -63.5q4 -5 11 -16.5t11 -17.5t11.5 -15t14 -13t16.5 -7.5t21 -3.5q32 0 50.5 42.5t22.5 94.5h119q0 -99 -53.5 -177t-128.5 -78q-57 0 -93 19.5t-63 62.5z
M866 1531h-575v113h575v-113zM574 1070q200 0 327 -125t127 -341v-154q0 -218 -126.5 -342.5t-327.5 -124.5q-204 0 -329.5 123.5t-125.5 343.5v154q0 210 127.5 338t327.5 128zM574 915q-125 0 -200 -90.5t-75 -234.5v-127q0 -147 72.5 -235.5t202.5 -88.5q128 0 199.5 88
t71.5 236v127q0 145 -73 235t-198 90z" />
    <glyph glyph-name="Odotaccent" unicode="&#x22e;" horiz-adv-x="1360" 
d="M576 1600q0 47 29 76.5t75 29.5t76.5 -30t30.5 -76q0 -47 -30.5 -76t-76.5 -29t-75 29t-29 76zM310 775v-198q0 -216 100.5 -327.5t263.5 -111.5q164 0 265 111.5t101 327.5v198q0 218 -102 335.5t-264 117.5t-263 -117.5t-101 -335.5zM125 577v198q0 289 149 453.5
t402 164.5t401 -165t148 -453v-198q0 -286 -149 -445.5t-404 -159.5q-254 0 -400.5 159t-146.5 446z" />
    <glyph glyph-name="odotaccent" unicode="&#x22f;" horiz-adv-x="1155" 
d="M473 1287q0 47 29 76.5t75 29.5t76.5 -30t30.5 -76q0 -47 -30.5 -76t-76.5 -29t-75 29t-29 76zM574 1070q200 0 327 -125t127 -341v-154q0 -218 -126.5 -342.5t-327.5 -124.5q-204 0 -329.5 123.5t-125.5 343.5v154q0 210 127.5 338t327.5 128zM574 915
q-125 0 -200 -90.5t-75 -234.5v-127q0 -147 72.5 -235.5t202.5 -88.5q128 0 199.5 88t71.5 236v127q0 145 -73 235t-198 90z" />
    <glyph glyph-name="Odotaccentmacron" unicode="&#x230;" horiz-adv-x="1360" 
d="M576 1600q0 47 29 76.5t75 29.5t76.5 -30t30.5 -76q0 -47 -30.5 -76t-76.5 -29t-75 29t-29 76zM310 775v-198q0 -216 100.5 -327.5t263.5 -111.5q164 0 265 111.5t101 327.5v198q0 218 -102 335.5t-264 117.5t-263 -117.5t-101 -335.5zM125 577v198q0 289 149 453.5
t402 164.5t401 -165t148 -453v-198q0 -286 -149 -445.5t-404 -159.5q-254 0 -400.5 159t-146.5 446zM973 1776h-586v114h586v-114z" />
    <glyph glyph-name="odotaccentmacron" unicode="&#x231;" horiz-adv-x="1155" 
d="M473 1287q0 47 29 76.5t75 29.5t76.5 -30t30.5 -76q0 -47 -30.5 -76t-76.5 -29t-75 29t-29 76zM866 1531h-575v113h575v-113zM574 1070q200 0 327 -125t127 -341v-154q0 -218 -126.5 -342.5t-327.5 -124.5q-204 0 -329.5 123.5t-125.5 343.5v154q0 210 127.5 338
t327.5 128zM574 915q-125 0 -200 -90.5t-75 -234.5v-127q0 -147 72.5 -235.5t202.5 -88.5q128 0 199.5 88t71.5 236v127q0 145 -73 235t-198 90z" />
    <glyph glyph-name="Ymacron" unicode="&#x232;" horiz-adv-x="1131" 
d="M649 0h-183v578l-456 787h209l334 -602h9l336 602h208l-457 -785v-580zM859 1510h-586v114h586v-114z" />
    <glyph glyph-name="ymacron" unicode="&#x233;" horiz-adv-x="1080" 
d="M1005 1052q-371 -1050 -372 -1053l-27 -72q-17 -46 -32 -80t-37.5 -72t-49 -64.5t-61.5 -49t-80.5 -33.5t-100.5 -11q-62 0 -111 9v147q28 -5 79 -5q89 0 135.5 40.5t68.5 124.5l16 54l-386 1065h201l278 -873h8l279 873h192zM829 1232h-575v113h575v-113z" />
    <glyph glyph-name="circumflex" unicode="&#x2c6;" horiz-adv-x="1000" 
d="M208 1209l250 376h121l239 -376h-153l-146 252h-4l-154 -252h-153z" />
    <glyph glyph-name="caron" unicode="&#x2c7;" horiz-adv-x="1000" 
d="M186 1594h153l154 -261h5l146 261h152l-239 -376h-121z" />
    <glyph glyph-name="breve" unicode="&#x2d8;" horiz-adv-x="1000" 
d="M212 1494h124q0 -69 42.5 -116.5t125.5 -47.5t125.5 47.5t42.5 116.5h123q0 -49 -17.5 -96.5t-51 -89t-91.5 -66.5t-131 -25q-74 0 -132 25t-92 66.5t-51 89t-17 96.5z" />
    <glyph glyph-name="dotaccent" unicode="&#x2d9;" horiz-adv-x="1000" 
d="M387 1406q0 50 32.5 82t78.5 32q49 0 81.5 -32.5t32.5 -81.5q0 -48 -32.5 -79.5t-81.5 -31.5q-46 0 -78.5 32t-32.5 79z" />
    <glyph glyph-name="ring" unicode="&#x2da;" horiz-adv-x="1000" 
d="M487 1228q-81 0 -136.5 54t-55.5 135q0 80 55.5 134t136.5 54t136.5 -54t55.5 -134q0 -81 -55.5 -135t-136.5 -54zM386 1416q0 -43 29 -72.5t72 -29.5t71.5 29.5t28.5 72.5t-28.5 72.5t-71.5 29.5t-72 -29.5t-29 -72.5z" />
    <glyph glyph-name="ogonek" unicode="&#x2db;" horiz-adv-x="1000" 
d="M674 -241v-124q-42 -21 -131 -21t-149 47t-60 138q0 46 22.5 94.5t49 80.5t59 69t42.5 53h119q-26 -31 -35 -41t-35 -45t-38 -56.5t-23.5 -52.5t-11.5 -57q0 -47 30 -71t76 -24q40 0 85 10z" />
    <glyph glyph-name="tilde" unicode="&#x2dc;" horiz-adv-x="1000" 
d="M462 1308q-13 20 -21.5 30.5t-26.5 22t-38 11.5q-63 0 -70 -127h-121q0 108 50 181t135 73q50 0 85.5 -18.5t67.5 -63.5q4 -5 11 -16.5t11 -17.5t11.5 -15t14 -13t16.5 -7.5t21 -3.5q32 0 50.5 42.5t22.5 94.5h119q0 -99 -53.5 -177t-128.5 -78q-57 0 -93 19.5t-63 62.5z
" />
    <glyph glyph-name="hungarumlaut" unicode="&#x2dd;" horiz-adv-x="1000" 
d="M279 1224h-134l244 365h179zM604 1224h-133l243 365h179z" />
    <glyph glyph-name="gravecmb" unicode="&#x300;" horiz-adv-x="0" 
d="M94 1225h-138l-278 354h178z" />
    <glyph glyph-name="acutecmb" unicode="&#x301;" horiz-adv-x="0" 
d="M-41 1225l239 354h177l-278 -354h-138z" />
    <glyph glyph-name="circumflexcmb" unicode="&#x302;" horiz-adv-x="0" 
d="M-311 1222l250 376h121l239 -376h-153l-146 252h-4l-154 -252h-153z" />
    <glyph glyph-name="tildecmb" unicode="&#x303;" horiz-adv-x="0" 
d="M-28 1236q-13 20 -21.5 30.5t-26.5 22t-38 11.5q-63 0 -70 -127h-121q0 108 50 181t135 73q50 0 85.5 -18.5t67.5 -63.5q4 -5 11 -16.5t11 -17.5t11.5 -15t14 -13t16.5 -7.5t21 -3.5q32 0 50.5 42.5t22.5 94.5h119q0 -99 -53.5 -177t-128.5 -78q-57 0 -93 19.5t-63 62.5z
" />
    <glyph glyph-name="macroncmb" unicode="&#x304;" horiz-adv-x="0" 
d="M289 1232h-575v113h575v-113z" />
    <glyph glyph-name="brevecmb" unicode="&#x306;" horiz-adv-x="0" 
d="M-258 1473h124q0 -69 42.5 -116.5t125.5 -47.5t125.5 47.5t42.5 116.5h123q0 -49 -17.5 -96.5t-51 -89t-91.5 -66.5t-131 -25q-74 0 -132 25t-92 66.5t-51 89t-17 96.5z" />
    <glyph glyph-name="dotaccentcmb" unicode="&#x307;" horiz-adv-x="0" 
d="M-104 1287q0 47 29 76.5t75 29.5t76.5 -30t30.5 -76q0 -47 -30.5 -76t-76.5 -29t-75 29t-29 76z" />
    <glyph glyph-name="dieresiscmb" unicode="&#x308;" horiz-adv-x="0" 
d="M-292 1304q0 47 32 77.5t79 30.5q48 0 80 -30.5t32 -77.5q0 -44 -32.5 -75t-79.5 -31q-46 0 -78.5 31t-32.5 75zM76 1304q0 47 31.5 77.5t76.5 30.5q50 0 82.5 -30.5t32.5 -77.5q0 -45 -33 -75.5t-82 -30.5q-44 0 -76 31t-32 75z" />
    <glyph glyph-name="hookabovecmb" unicode="&#x309;" horiz-adv-x="0" 
d="M-140 1445v104q43 18 108 18q97 0 155.5 -48t58.5 -133q0 -71 -41 -116t-116 -86l-65 85q53 30 75.5 55.5t22.5 55.5q0 36 -29 58t-74 22q-50 0 -95 -15z" />
    <glyph glyph-name="ringcmb" unicode="&#x30a;" horiz-adv-x="0" 
d="M1 1194q-81 0 -136.5 54t-55.5 135q0 80 55.5 134t136.5 54t136.5 -54t55.5 -134q0 -81 -55.5 -135t-136.5 -54zM-100 1382q0 -43 29 -72.5t72 -29.5t71.5 29.5t28.5 72.5t-28.5 72.5t-71.5 29.5t-72 -29.5t-29 -72.5z" />
    <glyph glyph-name="hungarumlautcmb" unicode="&#x30b;" horiz-adv-x="0" 
d="M-118 1223h-134l244 365h179zM207 1223h-133l243 365h179z" />
    <glyph glyph-name="caroncmb" unicode="&#x30c;" horiz-adv-x="0" 
d="M-308 1566h153l154 -261h5l146 261h152l-239 -376h-121z" />
    <glyph glyph-name="dblgravecmb" unicode="&#x30f;" horiz-adv-x="0" 
d="M-204 1222l-289 365h179l244 -365h-134zM117 1222l-289 365h180l243 -365h-134z" />
    <glyph glyph-name="invertedbrevecmb" unicode="&#x311;" horiz-adv-x="0" 
d="M-291 1226q0 49 17 96.5t51 89t92 66.5t131 25t131.5 -25t92 -66.5t50.5 -89t17 -96.5h-123q0 69 -42.5 116.5t-125.5 47.5t-125.5 -47.5t-42.5 -116.5h-123z" />
    <glyph glyph-name="horncmb" unicode="&#x31b;" horiz-adv-x="0" 
d="M0 949v158q36 -36 97 -36q72 1 100 40t28 112v157h158v-162q0 -81 -23 -146.5t-80.5 -110t-143.5 -44.5q-92 0 -136 32z" />
    <glyph glyph-name="dotbelowcmb" unicode="&#x323;" horiz-adv-x="0" 
d="M-110 -250q0 48 31 78.5t79 30.5t79.5 -30.5t31.5 -78.5q0 -47 -31 -76.5t-80 -29.5q-48 0 -79 29t-31 77z" />
    <glyph glyph-name="dieresisbelowcmb" unicode="&#x324;" horiz-adv-x="0" 
d="M-294 -265q0 47 32 77.5t79 30.5q48 0 80 -30.5t32 -77.5q0 -44 -32.5 -75t-79.5 -31q-46 0 -78.5 31t-32.5 75zM74 -265q0 47 31.5 77.5t76.5 30.5q50 0 82.5 -30.5t32.5 -77.5q0 -45 -33 -75.5t-82 -30.5q-44 0 -76 31t-32 75z" />
    <glyph glyph-name="ringbelowcmb" unicode="&#x325;" horiz-adv-x="0" 
d="M-1 -470q-81 0 -136.5 54t-55.5 135q0 80 55.5 134t136.5 54t136.5 -54t55.5 -134q0 -81 -55.5 -135t-136.5 -54zM-102 -282q0 -43 29 -72.5t72 -29.5t71.5 29.5t28.5 72.5t-28.5 72.5t-71.5 29.5t-72 -29.5t-29 -72.5z" />
    <glyph glyph-name="commabelowcmb" unicode="&#x326;" horiz-adv-x="0" 
d="M-14 -469h-133l82 313h158z" />
    <glyph glyph-name="cedillacmb" unicode="&#x327;" horiz-adv-x="0" 
d="M-98 -234v81l61 162h123l-53 -144q97 0 153.5 -41t56.5 -121q0 -91 -62 -138t-162 -51q-83 -4 -150 15v107q47 -14 116 -14q48 0 82.5 18t34.5 59q0 16 -5 28t-17 19t-23.5 11.5t-31 6t-33 2t-37.5 0.5h-53z" />
    <glyph glyph-name="ogonekcmb" unicode="&#x328;" horiz-adv-x="0" 
d="M174 -241v-124q-42 -21 -131 -21t-149 47t-60 138q0 46 22.5 94.5t49 80.5t59 69t42.5 53h119q-26 -31 -35 -41t-35 -45t-38 -56.5t-23.5 -52.5t-11.5 -57q0 -47 30 -71t76 -24q40 0 85 10z" />
    <glyph glyph-name="circumflexbelowcmb" unicode="&#x32d;" horiz-adv-x="0" 
d="M-337 -369l280 248h119l268 -248h-176l-152 142h-6l-161 -142h-172z" />
    <glyph glyph-name="brevebelowcmb" unicode="&#x32e;" horiz-adv-x="0" 
d="M-309 -140h133q0 -68 45 -116t131 -48t131 48t45 116h124q0 -51 -17 -98t-51 -88t-94 -66t-138 -25t-139.5 24.5t-97.5 65t-54 88.5t-18 99z" />
    <glyph glyph-name="tildebelowcmb" unicode="&#x330;" horiz-adv-x="0" 
d="M-29 -312l-8 8l-8.5 8.5t-8.5 8t-9 8t-9 6.5t-10.5 6t-10 4.5t-11 3.5t-11.5 1q-27 0 -43 -18t-20 -36.5t-6 -46.5h-120q0 88 46.5 150.5t136.5 62.5q44 0 79 -18t75 -55l19 -19t21 -19.5t18.5 -10t25.5 -5.5q34 0 52 34.5t21 75.5h119q0 -83 -50.5 -149t-131.5 -66
q-55 0 -89.5 16.5t-66.5 49.5z" />
    <glyph glyph-name="macronbelowcmb" unicode="&#x331;" horiz-adv-x="0" 
d="M296 -309h-575v113h575v-113z" />
    <glyph glyph-name="Delta" unicode="&#x394;" horiz-adv-x="1243" 
d="M43 0l483 1365h191l482 -1365h-1156zM613 1152l-329 -984h665l-328 984h-8z" />
    <glyph glyph-name="Omega" unicode="&#x3a9;" horiz-adv-x="1360" 
d="M781 0v185q112 35 188 163t76 302v164q0 213 -99 313.5t-266 100.5t-266 -100.5t-99 -313.5v-164q0 -169 72 -296t180 -165v-188h-455v161h236v18q-95 43 -156.5 172.5t-61.5 299.5v164q0 283 147 430t404 147q258 0 404 -146.5t146 -430.5v-164q0 -167 -66 -297.5
t-163 -174.5v-22h248v-158h-469z" />
    <glyph glyph-name="mu" unicode="&#x3bc;" horiz-adv-x="1200" 
d="M326 58h-10l18 -393h-174v1387h182v-682q0 -122 62.5 -176t165.5 -54q114 0 192 73t78 175v664h182v-822q0 -45 23.5 -69.5t68.5 -24.5q32 0 56 6v-142q-53 -13 -126 -13q-78 0 -133.5 44t-60.5 119l-2 26h-10q-24 -76 -103 -134t-203 -58q-61 0 -120 20t-86 54z" />
    <glyph glyph-name="pi" unicode="&#x3c0;" horiz-adv-x="1306" 
d="M1178 0q-51 -11 -115 -11q-95 0 -154.5 53t-59.5 142v716h-376v-900h-182v900h-227v152h1179v-152h-212v-670q0 -43 23 -67t65 -24q35 0 59 6v-145z" />
    <glyph glyph-name="Aringbelow" unicode="&#x1e00;" horiz-adv-x="1243" 
d="M222 0h-187l483 1365h191l482 -1365h-197l-134 402h-502zM613 1152h-8l-200 -601h408zM616 -446q-81 0 -136.5 54t-55.5 135q0 80 55.5 134t136.5 54t136.5 -54t55.5 -134q0 -81 -55.5 -135t-136.5 -54zM515 -258q0 -43 29 -72.5t72 -29.5t71.5 29.5t28.5 72.5
t-28.5 72.5t-71.5 29.5t-72 -29.5t-29 -72.5z" />
    <glyph glyph-name="aringbelow" unicode="&#x1e01;" horiz-adv-x="1108" 
d="M452 -17q-154 0 -249 88.5t-95 234.5q0 141 96 225t274 84h275v104q0 98 -57.5 145.5t-162.5 47.5q-175 0 -210 -122h-175q12 134 113.5 206.5t277.5 72.5q85 0 154 -19t124.5 -59t86.5 -109.5t31 -163.5v-718h-174v139h-8q-95 -156 -301 -156zM502 134q107 0 179 64
t72 160v119h-260q-102 0 -151 -45t-49 -120q0 -85 60.5 -131.5t148.5 -46.5zM553 -470q-81 0 -136.5 54t-55.5 135q0 80 55.5 134t136.5 54t136.5 -54t55.5 -134q0 -81 -55.5 -135t-136.5 -54zM452 -282q0 -43 29 -72.5t72 -29.5t71.5 29.5t28.5 72.5t-28.5 72.5t-71.5 29.5
t-72 -29.5t-29 -72.5z" />
    <glyph glyph-name="Bdotaccent" unicode="&#x1e02;" horiz-adv-x="1270" 
d="M179 0v1365h518q173 0 277 -89.5t104 -246.5q0 -120 -59 -195.5t-161 -105.5v-8q141 -19 219 -108t78 -229q0 -183 -130.5 -283t-345.5 -100h-500zM362 1206v-426h206q164 0 244.5 51.5t80.5 165.5q0 104 -63 156.5t-165 52.5h-303zM362 625v-465h234q69 0 121 5.5
t101 20t80.5 39t50 65t18.5 94.5q0 118 -76.5 179.5t-206.5 61.5h-322zM491 1600q0 47 29 76.5t75 29.5t76.5 -30t30.5 -76q0 -47 -30.5 -76t-76.5 -29t-75 29t-29 76z" />
    <glyph glyph-name="bdotaccent" unicode="&#x1e03;" horiz-adv-x="1198" 
d="M158 1672q0 47 29 76.5t75 29.5t76.5 -30t30.5 -76q0 -47 -30.5 -76t-76.5 -29t-75 29t-29 76zM662 -16q-121 0 -200.5 49t-111.5 123h-9v-156h-174v1437h181v-551h9q23 74 103.5 128t206.5 54q185 0 294 -120.5t109 -331.5v-179q0 -212 -111 -332.5t-297 -120.5z
M626 142q119 0 190 83t71 244v111q0 160 -70.5 246t-195.5 86q-126 0 -199.5 -83.5t-73.5 -225.5v-172q0 -126 77.5 -207.5t200.5 -81.5z" />
    <glyph glyph-name="Bdotbelow" unicode="&#x1e04;" horiz-adv-x="1270" 
d="M485 -250q0 48 31 78.5t79 30.5t79.5 -30.5t31.5 -78.5q0 -47 -31 -76.5t-80 -29.5q-48 0 -79 29t-31 77zM179 0v1365h518q173 0 277 -89.5t104 -246.5q0 -120 -59 -195.5t-161 -105.5v-8q141 -19 219 -108t78 -229q0 -183 -130.5 -283t-345.5 -100h-500zM362 1206v-426
h206q164 0 244.5 51.5t80.5 165.5q0 104 -63 156.5t-165 52.5h-303zM362 625v-465h234q69 0 121 5.5t101 20t80.5 39t50 65t18.5 94.5q0 118 -76.5 179.5t-206.5 61.5h-322z" />
    <glyph glyph-name="bdotbelow" unicode="&#x1e05;" horiz-adv-x="1198" 
d="M489 -250q0 48 31 78.5t79 30.5t79.5 -30.5t31.5 -78.5q0 -47 -31 -76.5t-80 -29.5q-48 0 -79 29t-31 77zM662 -16q-121 0 -200.5 49t-111.5 123h-9v-156h-174v1437h181v-551h9q23 74 103.5 128t206.5 54q185 0 294 -120.5t109 -331.5v-179q0 -212 -111 -332.5
t-297 -120.5zM626 142q119 0 190 83t71 244v111q0 160 -70.5 246t-195.5 86q-126 0 -199.5 -83.5t-73.5 -225.5v-172q0 -126 77.5 -207.5t200.5 -81.5z" />
    <glyph glyph-name="Blinebelow" unicode="&#x1e06;" horiz-adv-x="1270" 
d="M179 0v1365h518q173 0 277 -89.5t104 -246.5q0 -120 -59 -195.5t-161 -105.5v-8q141 -19 219 -108t78 -229q0 -183 -130.5 -283t-345.5 -100h-500zM362 1206v-426h206q164 0 244.5 51.5t80.5 165.5q0 104 -63 156.5t-165 52.5h-303zM362 625v-465h234q69 0 121 5.5
t101 20t80.5 39t50 65t18.5 94.5q0 118 -76.5 179.5t-206.5 61.5h-322zM891 -309h-575v113h575v-113z" />
    <glyph glyph-name="blinebelow" unicode="&#x1e07;" horiz-adv-x="1198" 
d="M895 -309h-575v113h575v-113zM662 -16q-121 0 -200.5 49t-111.5 123h-9v-156h-174v1437h181v-551h9q23 74 103.5 128t206.5 54q185 0 294 -120.5t109 -331.5v-179q0 -212 -111 -332.5t-297 -120.5zM626 142q119 0 190 83t71 244v111q0 160 -70.5 246t-195.5 86
q-126 0 -199.5 -83.5t-73.5 -225.5v-172q0 -126 77.5 -207.5t200.5 -81.5z" />
    <glyph glyph-name="Ccedillaacute" unicode="&#x1e08;" horiz-adv-x="1297" 
d="M533 1512l257 206h210l-272 -206h-195zM656 -486q-83 -4 -150 15v107q47 -14 116 -14q49 0 83 18t34 59q0 16 -5 28t-17 19t-23 11.5t-31 6t-33.5 2t-36.5 0.5h-53v81l48 129q-217 23 -339 178.5t-122 426.5v196q0 290 145.5 453t393.5 163q121 0 219.5 -40t159.5 -106.5
t94 -148t33 -168.5v-6h-181q0 120 -87.5 211.5t-237.5 91.5q-162 0 -258.5 -116.5t-96.5 -336.5v-192q0 -221 96 -332t264 -111q151 0 235.5 80.5t84.5 199.5h181v-7q0 -73 -28.5 -145.5t-82.5 -136.5t-145 -106.5t-205 -50.5l-41 -108q98 0 154.5 -41t56.5 -121
q0 -91 -62.5 -138t-162.5 -51z" />
    <glyph glyph-name="ccedillaacute" unicode="&#x1e09;" horiz-adv-x="1076" 
d="M497 1225l239 354h177l-278 -354h-138zM568 -486q-83 -4 -150 15v107q47 -14 116 -14q48 0 82.5 18t34.5 59q0 16 -5 28t-17 19t-23.5 11.5t-31 6t-33 2t-37.5 0.5h-52v81l51 138q-180 17 -283 138.5t-103 319.5v171q0 207 118.5 331.5t320.5 124.5q95 0 173 -28
t126.5 -74.5t75.5 -103.5t29 -118h-177q-5 27 -17 53t-36.5 53.5t-68.5 44.5t-102 17q-126 0 -194 -83t-68 -224v-165q0 -137 70 -216t192 -79q196 0 232 147h176q-4 -117 -91.5 -204t-248.5 -104l-45 -121q98 0 154.5 -41t56.5 -121q0 -91 -62.5 -138t-162.5 -51z" />
    <glyph glyph-name="Ddotaccent" unicode="&#x1e0a;" horiz-adv-x="1339" 
d="M514 1600q0 47 29 76.5t75 29.5t76.5 -30t30.5 -76q0 -47 -30.5 -76t-76.5 -29t-75 29t-29 76zM179 1365h444q161 0 278.5 -49.5t187 -142.5t102.5 -214.5t33 -275.5q0 -121 -19.5 -221.5t-64 -187.5t-112.5 -146.5t-171 -93.5t-234 -34h-444v1365zM363 1201v-1036h247
q216 0 319.5 129t103.5 388q0 519 -423 519h-247z" />
    <glyph glyph-name="ddotaccent" unicode="&#x1e0b;" horiz-adv-x="1200" 
d="M831 1672q0 47 29 76.5t75 29.5t76.5 -30t30.5 -76q0 -47 -30.5 -76t-76.5 -29t-75 29t-29 76zM523 1069q121 0 199 -49t106 -123h9v540h181v-1437h-174v168h-9q-21 -74 -105 -128.5t-211 -54.5q-183 0 -293.5 119t-110.5 321v203q0 199 111 320t297 121zM560 911
q-122 0 -192.5 -84.5t-70.5 -235.5v-128q0 -153 71.5 -237.5t196.5 -84.5q124 0 198 82.5t74 222.5v181q0 124 -78 204t-199 80z" />
    <glyph glyph-name="Ddotbelow" unicode="&#x1e0c;" horiz-adv-x="1339" 
d="M508 -250q0 48 31 78.5t79 30.5t79.5 -30.5t31.5 -78.5q0 -47 -31 -76.5t-80 -29.5q-48 0 -79 29t-31 77zM179 1365h444q161 0 278.5 -49.5t187 -142.5t102.5 -214.5t33 -275.5q0 -121 -19.5 -221.5t-64 -187.5t-112.5 -146.5t-171 -93.5t-234 -34h-444v1365zM363 1201
v-1036h247q216 0 319.5 129t103.5 388q0 519 -423 519h-247z" />
    <glyph glyph-name="ddotbelow" unicode="&#x1e0d;" horiz-adv-x="1200" 
d="M489 -250q0 48 31 78.5t79 30.5t79.5 -30.5t31.5 -78.5q0 -47 -31 -76.5t-80 -29.5q-48 0 -79 29t-31 77zM523 1069q121 0 199 -49t106 -123h9v540h181v-1437h-174v168h-9q-21 -74 -105 -128.5t-211 -54.5q-183 0 -293.5 119t-110.5 321v203q0 199 111 320t297 121z
M560 911q-122 0 -192.5 -84.5t-70.5 -235.5v-128q0 -153 71.5 -237.5t196.5 -84.5q124 0 198 82.5t74 222.5v181q0 124 -78 204t-199 80z" />
    <glyph glyph-name="Dlinebelow" unicode="&#x1e0e;" horiz-adv-x="1339" 
d="M914 -309h-575v113h575v-113zM179 1365h444q161 0 278.5 -49.5t187 -142.5t102.5 -214.5t33 -275.5q0 -121 -19.5 -221.5t-64 -187.5t-112.5 -146.5t-171 -93.5t-234 -34h-444v1365zM363 1201v-1036h247q216 0 319.5 129t103.5 388q0 519 -423 519h-247z" />
    <glyph glyph-name="dlinebelow" unicode="&#x1e0f;" horiz-adv-x="1200" 
d="M895 -309h-575v113h575v-113zM523 1069q121 0 199 -49t106 -123h9v540h181v-1437h-174v168h-9q-21 -74 -105 -128.5t-211 -54.5q-183 0 -293.5 119t-110.5 321v203q0 199 111 320t297 121zM560 911q-122 0 -192.5 -84.5t-70.5 -235.5v-128q0 -153 71.5 -237.5
t196.5 -84.5q124 0 198 82.5t74 222.5v181q0 124 -78 204t-199 80z" />
    <glyph glyph-name="Dcommaaccent" unicode="&#x1e10;" horiz-adv-x="1339" 
d="M604 -469h-133l82 313h158zM179 1365h444q161 0 278.5 -49.5t187 -142.5t102.5 -214.5t33 -275.5q0 -121 -19.5 -221.5t-64 -187.5t-112.5 -146.5t-171 -93.5t-234 -34h-444v1365zM363 1201v-1036h247q216 0 319.5 129t103.5 388q0 519 -423 519h-247z" />
    <glyph glyph-name="dcommaaccent" unicode="&#x1e11;" horiz-adv-x="1200" 
d="M585 -469h-133l82 313h158zM523 1069q121 0 199 -49t106 -123h9v540h181v-1437h-174v168h-9q-21 -74 -105 -128.5t-211 -54.5q-183 0 -293.5 119t-110.5 321v203q0 199 111 320t297 121zM560 911q-122 0 -192.5 -84.5t-70.5 -235.5v-128q0 -153 71.5 -237.5t196.5 -84.5
q124 0 198 82.5t74 222.5v181q0 124 -78 204t-199 80z" />
    <glyph glyph-name="Dcircumflexbelow" unicode="&#x1e12;" horiz-adv-x="1339" 
d="M179 1365h444q161 0 278.5 -49.5t187 -142.5t102.5 -214.5t33 -275.5q0 -121 -19.5 -221.5t-64 -187.5t-112.5 -146.5t-171 -93.5t-234 -34h-444v1365zM363 1201v-1036h247q216 0 319.5 129t103.5 388q0 519 -423 519h-247zM281 -369l280 248h119l268 -248h-176l-152 142
h-6l-161 -142h-172z" />
    <glyph glyph-name="dcircumflexbelow" unicode="&#x1e13;" horiz-adv-x="1200" 
d="M523 1069q121 0 199 -49t106 -123h9v540h181v-1437h-174v168h-9q-21 -74 -105 -128.5t-211 -54.5q-183 0 -293.5 119t-110.5 321v203q0 199 111 320t297 121zM560 911q-122 0 -192.5 -84.5t-70.5 -235.5v-128q0 -153 71.5 -237.5t196.5 -84.5q124 0 198 82.5t74 222.5
v181q0 124 -78 204t-199 80zM262 -369l280 248h119l268 -248h-176l-152 142h-6l-161 -142h-172z" />
    <glyph glyph-name="Emacrongrave" unicode="&#x1e14;" horiz-adv-x="1147" 
d="M722 1737h-188l-275 204h208zM1006 165v-165h-825v1365h825v-165h-642v-424h606v-160h-606v-451h642zM886 1510h-586v114h586v-114z" />
    <glyph glyph-name="emacrongrave" unicode="&#x1e15;" horiz-adv-x="1112" 
d="M650 1485h-138l-278 354h178zM569 -17q-211 0 -330.5 124.5t-119.5 339.5v158q0 213 122 339t314 126q193 0 315 -127t122 -338v-126h-693v-52q0 -127 71 -207.5t198 -80.5q88 0 149 36t75 87h186q-6 -45 -34 -92t-76 -90t-126 -70t-173 -27zM299 610h513v17
q0 130 -70 209.5t-186 79.5t-186.5 -79.5t-70.5 -209.5v-17zM845 1232h-575v113h575v-113z" />
    <glyph glyph-name="Emacronacute" unicode="&#x1e16;" horiz-adv-x="1147" 
d="M458 1737l257 206h210l-272 -206h-195zM1006 165v-165h-825v1365h825v-165h-642v-424h606v-160h-606v-451h642zM886 1510h-586v114h586v-114z" />
    <glyph glyph-name="emacronacute" unicode="&#x1e17;" horiz-adv-x="1112" 
d="M515 1487l239 354h177l-278 -354h-138zM569 -17q-211 0 -330.5 124.5t-119.5 339.5v158q0 213 122 339t314 126q193 0 315 -127t122 -338v-126h-693v-52q0 -127 71 -207.5t198 -80.5q88 0 149 36t75 87h186q-6 -45 -34 -92t-76 -90t-126 -70t-173 -27zM299 610h513v17
q0 130 -70 209.5t-186 79.5t-186.5 -79.5t-70.5 -209.5v-17zM845 1232h-575v113h575v-113z" />
    <glyph glyph-name="Ecircumflexbelow" unicode="&#x1e18;" horiz-adv-x="1147" 
d="M1006 165v-165h-825v1365h825v-165h-642v-424h606v-160h-606v-451h642zM256 -369l280 248h119l268 -248h-176l-152 142h-6l-161 -142h-172z" />
    <glyph glyph-name="ecircumflexbelow" unicode="&#x1e19;" horiz-adv-x="1112" 
d="M569 -17q-211 0 -330.5 124.5t-119.5 339.5v158q0 213 122 339t314 126q193 0 315 -127t122 -338v-126h-693v-52q0 -127 71 -207.5t198 -80.5q88 0 149 36t75 87h186q-6 -45 -34 -92t-76 -90t-126 -70t-173 -27zM299 610h513v17q0 130 -70 209.5t-186 79.5t-186.5 -79.5
t-70.5 -209.5v-17zM219 -369l280 248h119l268 -248h-176l-152 142h-6l-161 -142h-172z" />
    <glyph glyph-name="Etildebelow" unicode="&#x1e1a;" horiz-adv-x="1147" 
d="M564 -312l-8 8l-8.5 8.5t-8.5 8t-9 8t-9 6.5t-10.5 6t-10 4.5t-11 3.5t-11.5 1q-27 0 -43 -18t-20 -36.5t-6 -46.5h-120q0 88 46.5 150.5t136.5 62.5q44 0 79 -18t75 -55l19 -19t21 -19.5t18.5 -10t25.5 -5.5q34 0 52 34.5t21 75.5h119q0 -83 -50.5 -149t-131.5 -66
q-55 0 -89.5 16.5t-66.5 49.5zM1006 165v-165h-825v1365h825v-165h-642v-424h606v-160h-606v-451h642z" />
    <glyph glyph-name="etildebelow" unicode="&#x1e1b;" horiz-adv-x="1112" 
d="M527 -312l-8 8l-8.5 8.5t-8.5 8t-9 8t-9 6.5t-10.5 6t-10 4.5t-11 3.5t-11.5 1q-27 0 -43 -18t-20 -36.5t-6 -46.5h-120q0 88 46.5 150.5t136.5 62.5q44 0 79 -18t75 -55l19 -19t21 -19.5t18.5 -10t25.5 -5.5q34 0 52 34.5t21 75.5h119q0 -83 -50.5 -149t-131.5 -66
q-55 0 -89.5 16.5t-66.5 49.5zM569 -17q-211 0 -330.5 124.5t-119.5 339.5v158q0 213 122 339t314 126q193 0 315 -127t122 -338v-126h-693v-52q0 -127 71 -207.5t198 -80.5q88 0 149 36t75 87h186q-6 -45 -34 -92t-76 -90t-126 -70t-173 -27zM299 610h513v17
q0 130 -70 209.5t-186 79.5t-186.5 -79.5t-70.5 -209.5v-17z" />
    <glyph glyph-name="Ecedillabreve" unicode="&#x1e1c;" horiz-adv-x="1147" 
d="M520 0h-339v1365h825v-165h-642v-424h606v-160h-606v-451h642v-165h-363l-50 -135q98 0 154.5 -41t56.5 -121q0 -91 -62.5 -138t-162.5 -51q-83 -4 -150 15v107q47 -14 116 -14q48 0 82.5 18t34.5 59q0 16 -5 28t-17 19t-23.5 11.5t-31 6t-33 2t-37.5 0.5h-52v81z
M269 1750h126q0 -73 50.5 -117t147.5 -44t147.5 44t50.5 117h125q0 -115 -83.5 -191t-239.5 -76t-240 76t-84 191z" />
    <glyph glyph-name="ecedillabreve" unicode="&#x1e1d;" horiz-adv-x="1112" 
d="M298 1473h124q0 -69 42.5 -116.5t125.5 -47.5t125.5 47.5t42.5 116.5h123q0 -49 -17.5 -96.5t-51 -89t-91.5 -66.5t-131 -25q-74 0 -132 25t-92 66.5t-51 89t-17 96.5zM299 610h513v17q0 130 -70 209.5t-186 79.5t-186.5 -79.5t-70.5 -209.5v-17zM565 -486
q-83 -4 -150 15v107q47 -14 116 -14q48 0 82.5 18t34.5 59q0 16 -5 28t-17 19t-23.5 11.5t-31 6t-33 2t-37.5 0.5h-53v81l53 140q-181 19 -281.5 141t-100.5 319v158q0 213 122 339t314 126q193 0 315 -127t122 -338v-126h-693v-52q0 -127 71 -207.5t198 -80.5q88 0 149 36
t75 87h186q-6 -42 -30 -85t-66 -84.5t-109 -71t-149 -36.5l-45 -120q97 0 153.5 -41t56.5 -121q0 -91 -62 -138t-162 -51z" />
    <glyph glyph-name="Fdotaccent" unicode="&#x1e1e;" horiz-adv-x="1077" 
d="M486 1600q0 47 29 76.5t75 29.5t76.5 -30t30.5 -76q0 -47 -30.5 -76t-76.5 -29t-75 29t-29 76zM363 0h-184v1365h813v-165h-629v-453h576v-164h-576v-583z" />
    <glyph glyph-name="fdotaccent" unicode="&#x1e1f;" horiz-adv-x="790" 
d="M291 1685q0 47 29 76.5t75 29.5t76.5 -30t30.5 -76q0 -47 -30.5 -76t-76.5 -29t-75 29t-29 76zM256 0v898h-177v151h177v106q0 153 78 223.5t252 70.5q66 0 120 -6v-147q-32 4 -94 4q-95 0 -136 -35t-41 -125v-91h244v-151h-242v-898h-181z" />
    <glyph glyph-name="Gmacron" unicode="&#x1e20;" horiz-adv-x="1322" 
d="M1184 947h-182q-17 138 -108.5 209t-220.5 71q-76 0 -140.5 -26t-115 -78.5t-79 -140.5t-28.5 -204v-184q0 -215 92 -335t268 -120q148 0 243 81.5t95 209.5v125h-345v160h524v-281q0 -58 -16 -118.5t-54.5 -123t-95.5 -111t-147.5 -79t-202.5 -30.5q-267 0 -405.5 165.5
t-138.5 455.5v186q0 287 149 450.5t401 163.5q117 0 212 -36.5t156.5 -99t97 -141.5t41.5 -169zM972 1510h-586v114h586v-114z" />
    <glyph glyph-name="gmacron" unicode="&#x1e21;" horiz-adv-x="1161" 
d="M870 1232h-575v113h575v-113zM544 -240q137 0 207 69t70 196v159h-10q-32 -72 -111.5 -118.5t-184.5 -46.5q-180 0 -297.5 120t-117.5 323v161q0 204 117.5 324.5t296.5 120.5q111 0 193.5 -52t111.5 -122h9v158h173v-1029q0 -210 -124.5 -313.5t-339.5 -103.5
q-194 0 -298.5 81.5t-115.5 207.5h184q11 -59 74 -97t163 -38zM559 912q-127 0 -202.5 -88.5t-75.5 -233.5v-98q0 -142 78.5 -230.5t201.5 -88.5q120 0 189.5 84.5t69.5 203.5v157q0 121 -71 207.5t-190 86.5z" />
    <glyph glyph-name="Hdotaccent" unicode="&#x1e22;" horiz-adv-x="1412" 
d="M1223 0h-184v623h-676v-623h-184v1365h184v-577h676v577h184v-1365zM602 1600q0 47 29 76.5t75 29.5t76.5 -30t30.5 -76q0 -47 -30.5 -76t-76.5 -29t-75 29t-29 76z" />
    <glyph glyph-name="hdotaccent" unicode="&#x1e23;" horiz-adv-x="1213" 
d="M171 0v1437h181v-576h9q7 25 20.5 50t40.5 54.5t61.5 51.5t87.5 37t116 15q158 0 255.5 -91t97.5 -262v-716h-182v661q0 122 -62 186.5t-170 64.5q-131 0 -202.5 -90.5t-71.5 -232.5v-589h-181zM160 1672q0 47 29 76.5t75 29.5t76.5 -30t30.5 -76q0 -47 -30.5 -76
t-76.5 -29t-75 29t-29 76z" />
    <glyph glyph-name="Hdotbelow" unicode="&#x1e24;" horiz-adv-x="1412" 
d="M1223 0h-184v623h-676v-623h-184v1365h184v-577h676v577h184v-1365zM596 -250q0 48 31 78.5t79 30.5t79.5 -30.5t31.5 -78.5q0 -47 -31 -76.5t-80 -29.5q-48 0 -79 29t-31 77z" />
    <glyph glyph-name="hdotbelow" unicode="&#x1e25;" horiz-adv-x="1213" 
d="M171 0v1437h181v-576h9q7 25 20.5 50t40.5 54.5t61.5 51.5t87.5 37t116 15q158 0 255.5 -91t97.5 -262v-716h-182v661q0 122 -62 186.5t-170 64.5q-131 0 -202.5 -90.5t-71.5 -232.5v-589h-181zM489 -250q0 48 31 78.5t79 30.5t79.5 -30.5t31.5 -78.5q0 -47 -31 -76.5
t-80 -29.5q-48 0 -79 29t-31 77z" />
    <glyph glyph-name="Hdieresis" unicode="&#x1e26;" horiz-adv-x="1412" 
d="M1223 0h-184v623h-676v-623h-184v1365h184v-577h676v577h184v-1365zM420 1581q0 45 30 74t76 29q47 0 77.5 -29t30.5 -74q0 -44 -30.5 -73.5t-77.5 -29.5q-46 0 -76 29.5t-30 73.5zM776 1581q0 45 30 74t75 29q48 0 79 -29t31 -74q0 -44 -31 -73.5t-79 -29.5
q-45 0 -75 29.5t-30 73.5z" />
    <glyph glyph-name="hdieresis" unicode="&#x1e27;" horiz-adv-x="1213" 
d="M171 0v1437h181v-576h9q7 25 20.5 50t40.5 54.5t61.5 51.5t87.5 37t116 15q158 0 255.5 -91t97.5 -262v-716h-182v661q0 122 -62 186.5t-170 64.5q-131 0 -202.5 -90.5t-71.5 -232.5v-589h-181zM-28 1689q0 47 32 77.5t79 30.5q48 0 80 -30.5t32 -77.5q0 -44 -32.5 -75
t-79.5 -31q-46 0 -78.5 31t-32.5 75zM340 1689q0 47 31.5 77.5t76.5 30.5q50 0 82.5 -30.5t32.5 -77.5q0 -45 -33 -75.5t-82 -30.5q-44 0 -76 31t-32 75z" />
    <glyph glyph-name="Hcedilla" unicode="&#x1e28;" horiz-adv-x="1412" 
d="M245 0h-61v1365h184v-577h676v577h184v-1365h-184v623h-676v-623l-50 -135q98 0 154.5 -41t56.5 -121q0 -91 -62.5 -138t-162.5 -51q-83 -4 -150 15v107q47 -14 116 -14q48 0 82.5 18t34.5 59q0 16 -5 28t-17 19t-23.5 11.5t-31 6t-33 2t-37.5 0.5h-52v81z" />
    <glyph glyph-name="hcedilla" unicode="&#x1e29;" horiz-adv-x="1213" 
d="M234 0h-58v1437h181v-576h9q7 25 20.5 50t40.5 54.5t61.5 51.5t87.5 37t116 15q158 0 255.5 -91t97.5 -262v-716h-182v661q0 122 -62 186.5t-170 64.5q-131 0 -202.5 -90.5t-71.5 -232.5v-589l-54 -144q98 0 154.5 -41t56.5 -121q0 -91 -62.5 -137.5t-162.5 -51.5
q-87 -3 -150 15v107q44 -13 116 -13q49 0 83 17.5t34 58.5q0 16 -5 28t-17 19t-23 11.5t-31 6t-33.5 2t-36.5 0.5h-53v81z" />
    <glyph glyph-name="Hbrevebelow" unicode="&#x1e2a;" horiz-adv-x="1412" 
d="M397 -140q0 -51 18 -99t54 -88.5t97.5 -65t139.5 -24.5t138 25t94 66t51 88t17 98h-124q0 -68 -45 -116t-131 -48t-131 48t-45 116h-133zM1223 0h-184v623h-676v-623h-184v1365h184v-577h676v577h184v-1365z" />
    <glyph glyph-name="hbrevebelow" unicode="&#x1e2b;" horiz-adv-x="1213" 
d="M290 -140q0 -51 18 -99t54 -88.5t97.5 -65t139.5 -24.5t138 25t94 66t51 88t17 98h-124q0 -68 -45 -116t-131 -48t-131 48t-45 116h-133zM171 0v1437h181v-576h9q7 25 20.5 50t40.5 54.5t61.5 51.5t87.5 37t116 15q158 0 255.5 -91t97.5 -262v-716h-182v661
q0 122 -62 186.5t-170 64.5q-131 0 -202.5 -90.5t-71.5 -232.5v-589h-181z" />
    <glyph glyph-name="Itildebelow" unicode="&#x1e2c;" horiz-adv-x="547" 
d="M359 0h-184v1365h184v-1365zM245 -312l-8 8l-8.5 8.5t-8.5 8t-9 8t-9 6.5t-10.5 6t-10 4.5t-11 3.5t-11.5 1q-27 0 -43 -18t-20 -36.5t-6 -46.5h-120q0 88 46.5 150.5t136.5 62.5q44 0 79 -18t75 -55l19 -19t21 -19.5t18.5 -10t25.5 -5.5q34 0 52 34.5t21 75.5h119
q0 -83 -50.5 -149t-131.5 -66q-55 0 -89.5 16.5t-66.5 49.5z" />
    <glyph glyph-name="itildebelow" unicode="&#x1e2d;" horiz-adv-x="579" 
d="M195 0v1052h181v-1052h-181zM157 1376q0 55 36 90.5t91 35.5q58 0 94.5 -35.5t36.5 -90.5q0 -54 -37 -89.5t-94 -35.5q-54 0 -90.5 35.5t-36.5 89.5zM261 -312l-8 8l-8.5 8.5t-8.5 8t-9 8t-9 6.5t-10.5 6t-10 4.5t-11 3.5t-11.5 1q-27 0 -43 -18t-20 -36.5t-6 -46.5h-120
q0 88 46.5 150.5t136.5 62.5q44 0 79 -18t75 -55l19 -19t21 -19.5t18.5 -10t25.5 -5.5q34 0 52 34.5t21 75.5h119q0 -83 -50.5 -149t-131.5 -66q-55 0 -89.5 16.5t-66.5 49.5z" />
    <glyph glyph-name="Idieresisacute" unicode="&#x1e2e;" horiz-adv-x="547" 
d="M359 0h-184v1365h184v-1365zM139 1737l257 206h210l-272 -206h-195zM-12 1581q0 45 30 74t76 29q47 0 77.5 -29t30.5 -74q0 -44 -30.5 -73.5t-77.5 -29.5q-46 0 -76 29.5t-30 73.5zM344 1581q0 45 30 74t75 29q48 0 79 -29t31 -74q0 -44 -31 -73.5t-79 -29.5
q-45 0 -75 29.5t-30 73.5z" />
    <glyph glyph-name="idieresisacute" unicode="&#x1e2f;" horiz-adv-x="578" 
d="M249 1487l239 354h177l-278 -354h-138zM194 0v1052h181v-1052h-181zM-2 1304q0 47 32 77.5t79 30.5q48 0 80 -30.5t32 -77.5q0 -44 -32.5 -75t-79.5 -31q-46 0 -78.5 31t-32.5 75zM366 1304q0 47 31.5 77.5t76.5 30.5q50 0 82.5 -30.5t32.5 -77.5q0 -45 -33 -75.5
t-82 -30.5q-44 0 -76 31t-32 75z" />
    <glyph glyph-name="Kacute" unicode="&#x1e30;" horiz-adv-x="1227" 
d="M457 1512l257 206h210l-272 -206h-195zM1164 1365l-507 -582l533 -783h-232l-438 654l-165 -180v-474h-184v1365h184v-653h8l586 653h215z" />
    <glyph glyph-name="kacute" unicode="&#x1e31;" horiz-adv-x="1050" 
d="M338 386v-386h-181v1437h181v-856h7l424 471h209l-412 -456l439 -596h-216l-356 483zM215 1610l239 354h177l-278 -354h-138z" />
    <glyph glyph-name="Kdotbelow" unicode="&#x1e32;" horiz-adv-x="1227" 
d="M504 -250q0 48 31 78.5t79 30.5t79.5 -30.5t31.5 -78.5q0 -47 -31 -76.5t-80 -29.5q-48 0 -79 29t-31 77zM1164 1365l-507 -582l533 -783h-232l-438 654l-165 -180v-474h-184v1365h184v-653h8l586 653h215z" />
    <glyph glyph-name="kdotbelow" unicode="&#x1e33;" horiz-adv-x="1050" 
d="M440 -250q0 48 31 78.5t79 30.5t79.5 -30.5t31.5 -78.5q0 -47 -31 -76.5t-80 -29.5q-48 0 -79 29t-31 77zM338 386v-386h-181v1437h181v-856h7l424 471h209l-412 -456l439 -596h-216l-356 483z" />
    <glyph glyph-name="Klinebelow" unicode="&#x1e34;" horiz-adv-x="1227" 
d="M1164 1365l-507 -582l533 -783h-232l-438 654l-165 -180v-474h-184v1365h184v-653h8l586 653h215zM910 -309h-575v113h575v-113z" />
    <glyph glyph-name="klinebelow" unicode="&#x1e35;" horiz-adv-x="1050" 
d="M338 386v-386h-181v1437h181v-856h7l424 471h209l-412 -456l439 -596h-216l-356 483zM846 -309h-575v113h575v-113z" />
    <glyph glyph-name="Ldotbelow" unicode="&#x1e36;" horiz-adv-x="1038" 
d="M417 -250q0 48 31 78.5t79 30.5t79.5 -30.5t31.5 -78.5q0 -47 -31 -76.5t-80 -29.5q-48 0 -79 29t-31 77zM989 167v-167h-808v1365h184v-1198h624z" />
    <glyph glyph-name="ldotbelow" unicode="&#x1e37;" horiz-adv-x="537" 
d="M159 -250q0 48 31 78.5t79 30.5t79.5 -30.5t31.5 -78.5q0 -47 -31 -76.5t-80 -29.5q-48 0 -79 29t-31 77zM172 0v1437h181v-1437h-181z" />
    <glyph glyph-name="Ldotbelowmacron" unicode="&#x1e38;" horiz-adv-x="1038" 
d="M417 -250q0 48 31 78.5t79 30.5t79.5 -30.5t31.5 -78.5q0 -47 -31 -76.5t-80 -29.5q-48 0 -79 29t-31 77zM989 167v-167h-808v1365h184v-1198h624zM569 1510h-586v114h586v-114z" />
    <glyph glyph-name="ldotbelowmacron" unicode="&#x1e39;" horiz-adv-x="537" 
d="M159 -250q0 48 31 78.5t79 30.5t79.5 -30.5t31.5 -78.5q0 -47 -31 -76.5t-80 -29.5q-48 0 -79 29t-31 77zM172 0v1437h181v-1437h-181zM558 1617h-575v113h575v-113z" />
    <glyph glyph-name="Llinebelow" unicode="&#x1e3a;" horiz-adv-x="1038" 
d="M823 -309h-575v113h575v-113zM989 167v-167h-808v1365h184v-1198h624z" />
    <glyph glyph-name="llinebelow" unicode="&#x1e3b;" horiz-adv-x="537" 
d="M565 -309h-575v113h575v-113zM172 0v1437h181v-1437h-181z" />
    <glyph glyph-name="Lcircumflexbelow" unicode="&#x1e3c;" horiz-adv-x="1038" 
d="M989 167v-167h-808v1365h184v-1198h624zM190 -369l280 248h119l268 -248h-176l-152 142h-6l-161 -142h-172z" />
    <glyph glyph-name="lcircumflexbelow" unicode="&#x1e3d;" horiz-adv-x="537" 
d="M172 0v1437h181v-1437h-181zM-68 -369l280 248h119l268 -248h-176l-152 142h-6l-161 -142h-172z" />
    <glyph glyph-name="Macute" unicode="&#x1e3e;" horiz-adv-x="1631" 
d="M681 1512l257 206h210l-272 -206h-195zM348 0h-167v1365h181l445 -1040h6l443 1040h181v-1365h-167v989h-10l-376 -867h-150l-377 867h-9v-989z" />
    <glyph glyph-name="macute" unicode="&#x1e3f;" horiz-adv-x="1780" 
d="M849 1225l239 354h177l-278 -354h-138zM166 0v1052h179v-167h10q11 32 28.5 60.5t49.5 58.5t85 47.5t122 17.5q115 0 190.5 -54.5t101.5 -143.5h8q36 86 116.5 142t204.5 56q163 0 254.5 -86t91.5 -243v-740h-181v691q0 102 -56.5 162t-161.5 60q-99 0 -165.5 -68.5
t-66.5 -176.5v-668h-179v684q0 104 -60 166.5t-163 62.5q-99 0 -163 -67.5t-64 -175.5v-670h-181z" />
    <glyph glyph-name="Mdotaccent" unicode="&#x1e40;" horiz-adv-x="1631" 
d="M712 1600q0 47 29 76.5t75 29.5t76.5 -30t30.5 -76q0 -47 -30.5 -76t-76.5 -29t-75 29t-29 76zM348 0h-167v1365h181l445 -1040h6l443 1040h181v-1365h-167v989h-10l-376 -867h-150l-377 867h-9v-989z" />
    <glyph glyph-name="mdotaccent" unicode="&#x1e41;" horiz-adv-x="1780" 
d="M786 1287q0 47 29 76.5t75 29.5t76.5 -30t30.5 -76q0 -47 -30.5 -76t-76.5 -29t-75 29t-29 76zM166 0v1052h179v-167h10q11 32 28.5 60.5t49.5 58.5t85 47.5t122 17.5q115 0 190.5 -54.5t101.5 -143.5h8q36 86 116.5 142t204.5 56q163 0 254.5 -86t91.5 -243v-740h-181
v691q0 102 -56.5 162t-161.5 60q-99 0 -165.5 -68.5t-66.5 -176.5v-668h-179v684q0 104 -60 166.5t-163 62.5q-99 0 -163 -67.5t-64 -175.5v-670h-181z" />
    <glyph glyph-name="Mdotbelow" unicode="&#x1e42;" horiz-adv-x="1631" 
d="M705 -250q0 48 31 78.5t79 30.5t79.5 -30.5t31.5 -78.5q0 -47 -31 -76.5t-80 -29.5q-48 0 -79 29t-31 77zM348 0h-167v1365h181l445 -1040h6l443 1040h181v-1365h-167v989h-10l-376 -867h-150l-377 867h-9v-989z" />
    <glyph glyph-name="mdotbelow" unicode="&#x1e43;" horiz-adv-x="1780" 
d="M780 -250q0 48 31 78.5t79 30.5t79.5 -30.5t31.5 -78.5q0 -47 -31 -76.5t-80 -29.5q-48 0 -79 29t-31 77zM166 0v1052h179v-167h10q11 32 28.5 60.5t49.5 58.5t85 47.5t122 17.5q115 0 190.5 -54.5t101.5 -143.5h8q36 86 116.5 142t204.5 56q163 0 254.5 -86t91.5 -243
v-740h-181v691q0 102 -56.5 162t-161.5 60q-99 0 -165.5 -68.5t-66.5 -176.5v-668h-179v684q0 104 -60 166.5t-163 62.5q-99 0 -163 -67.5t-64 -175.5v-670h-181z" />
    <glyph glyph-name="Ndotaccent" unicode="&#x1e44;" horiz-adv-x="1412" 
d="M602 1600q0 47 29 76.5t75 29.5t76.5 -30t30.5 -76q0 -47 -30.5 -76t-76.5 -29t-75 29t-29 76zM366 0h-181v1365h174l675 -1044h9v1044h181v-1365h-174l-677 1046h-7v-1046z" />
    <glyph glyph-name="ndotaccent" unicode="&#x1e45;" horiz-adv-x="1206" 
d="M499 1287q0 47 29 76.5t75 29.5t76.5 -30t30.5 -76q0 -47 -30.5 -76t-76.5 -29t-75 29t-29 76zM168 0v1052h179v-191h10q11 37 30.5 68.5t55 65.5t95.5 54t138 20q164 0 260.5 -89.5t96.5 -261.5v-718h-182v663q0 122 -59 185.5t-168 63.5q-133 0 -204 -90t-71 -233v-589
h-181z" />
    <glyph glyph-name="Ndotbelow" unicode="&#x1e46;" horiz-adv-x="1412" 
d="M596 -250q0 48 31 78.5t79 30.5t79.5 -30.5t31.5 -78.5q0 -47 -31 -76.5t-80 -29.5q-48 0 -79 29t-31 77zM366 0h-181v1365h174l675 -1044h9v1044h181v-1365h-174l-677 1046h-7v-1046z" />
    <glyph glyph-name="ndotbelow" unicode="&#x1e47;" horiz-adv-x="1206" 
d="M493 -250q0 48 31 78.5t79 30.5t79.5 -30.5t31.5 -78.5q0 -47 -31 -76.5t-80 -29.5q-48 0 -79 29t-31 77zM168 0v1052h179v-191h10q11 37 30.5 68.5t55 65.5t95.5 54t138 20q164 0 260.5 -89.5t96.5 -261.5v-718h-182v663q0 122 -59 185.5t-168 63.5q-133 0 -204 -90
t-71 -233v-589h-181z" />
    <glyph glyph-name="Nlinebelow" unicode="&#x1e48;" horiz-adv-x="1412" 
d="M1002 -309h-575v113h575v-113zM366 0h-181v1365h174l675 -1044h9v1044h181v-1365h-174l-677 1046h-7v-1046z" />
    <glyph glyph-name="nlinebelow" unicode="&#x1e49;" horiz-adv-x="1206" 
d="M899 -309h-575v113h575v-113zM168 0v1052h179v-191h10q11 37 30.5 68.5t55 65.5t95.5 54t138 20q164 0 260.5 -89.5t96.5 -261.5v-718h-182v663q0 122 -59 185.5t-168 63.5q-133 0 -204 -90t-71 -233v-589h-181z" />
    <glyph glyph-name="Ncircumflexbelow" unicode="&#x1e4a;" horiz-adv-x="1412" 
d="M366 0h-181v1365h174l675 -1044h9v1044h181v-1365h-174l-677 1046h-7v-1046zM369 -369l280 248h119l268 -248h-176l-152 142h-6l-161 -142h-172z" />
    <glyph glyph-name="ncircumflexbelow" unicode="&#x1e4b;" horiz-adv-x="1206" 
d="M168 0v1052h179v-191h10q11 37 30.5 68.5t55 65.5t95.5 54t138 20q164 0 260.5 -89.5t96.5 -261.5v-718h-182v663q0 122 -59 185.5t-168 63.5q-133 0 -204 -90t-71 -233v-589h-181zM266 -369l280 248h119l268 -248h-176l-152 142h-6l-161 -142h-172z" />
    <glyph glyph-name="Otildeacute" unicode="&#x1e4c;" horiz-adv-x="1360" 
d="M545 1737l257 206h210l-272 -206h-195zM310 775v-198q0 -216 100.5 -327.5t263.5 -111.5q164 0 265 111.5t101 327.5v198q0 218 -102 335.5t-264 117.5t-263 -117.5t-101 -335.5zM125 577v198q0 289 149 453.5t402 164.5t401 -165t148 -453v-198q0 -286 -149 -445.5
t-404 -159.5q-254 0 -400.5 159t-146.5 446zM651 1526l-8 8l-8.5 8.5t-8.5 8t-9 8t-9 6.5t-10.5 6t-10 4.5t-11 3.5t-11.5 1q-27 0 -43 -18t-20 -37t-6 -47h-120q0 88 46.5 150.5t136.5 62.5q45 0 80 -17.5t74 -54.5q5 -5 19.5 -19t20.5 -19.5t18.5 -11t25.5 -5.5
q34 0 52 35t21 76h119q0 -83 -50.5 -149.5t-131.5 -66.5q-55 0 -89.5 17t-66.5 50z" />
    <glyph glyph-name="otildeacute" unicode="&#x1e4d;" horiz-adv-x="1155" 
d="M536 1487l239 354h177l-278 -354h-138zM549 1236q-13 20 -21.5 30.5t-26.5 22t-38 11.5q-63 0 -70 -127h-121q0 108 50 181t135 73q50 0 85.5 -18.5t67.5 -63.5q4 -5 11 -16.5t11 -17.5t11.5 -15t14 -13t16.5 -7.5t21 -3.5q32 0 50.5 42.5t22.5 94.5h119
q0 -99 -53.5 -177t-128.5 -78q-57 0 -93 19.5t-63 62.5zM574 1070q200 0 327 -125t127 -341v-154q0 -218 -126.5 -342.5t-327.5 -124.5q-204 0 -329.5 123.5t-125.5 343.5v154q0 210 127.5 338t327.5 128zM574 915q-125 0 -200 -90.5t-75 -234.5v-127q0 -147 72.5 -235.5
t202.5 -88.5q128 0 199.5 88t71.5 236v127q0 145 -73 235t-198 90z" />
    <glyph glyph-name="Otildedieresis" unicode="&#x1e4e;" horiz-adv-x="1360" 
d="M395 1838q0 45 30 74t76 29q47 0 77.5 -29t30.5 -74q0 -44 -30.5 -73.5t-77.5 -29.5q-46 0 -76 29.5t-30 73.5zM751 1838q0 45 30 74t75 29q48 0 79 -29t31 -74q0 -44 -31 -73.5t-79 -29.5q-45 0 -75 29.5t-30 73.5zM310 775v-198q0 -216 100.5 -327.5t263.5 -111.5
q164 0 265 111.5t101 327.5v198q0 218 -102 335.5t-264 117.5t-263 -117.5t-101 -335.5zM125 577v198q0 289 149 453.5t402 164.5t401 -165t148 -453v-198q0 -286 -149 -445.5t-404 -159.5q-254 0 -400.5 159t-146.5 446zM651 1526l-8 8l-8.5 8.5t-8.5 8t-9 8t-9 6.5
t-10.5 6t-10 4.5t-11 3.5t-11.5 1q-27 0 -43 -18t-20 -37t-6 -47h-120q0 88 46.5 150.5t136.5 62.5q45 0 80 -17.5t74 -54.5q5 -5 19.5 -19t20.5 -19.5t18.5 -11t25.5 -5.5q34 0 52 35t21 76h119q0 -83 -50.5 -149.5t-131.5 -66.5q-55 0 -89.5 17t-66.5 50z" />
    <glyph glyph-name="otildedieresis" unicode="&#x1e4f;" horiz-adv-x="1155" 
d="M549 1236q-13 20 -21.5 30.5t-26.5 22t-38 11.5q-63 0 -70 -127h-121q0 108 50 181t135 73q50 0 85.5 -18.5t67.5 -63.5q4 -5 11 -16.5t11 -17.5t11.5 -15t14 -13t16.5 -7.5t21 -3.5q32 0 50.5 42.5t22.5 94.5h119q0 -99 -53.5 -177t-128.5 -78q-57 0 -93 19.5t-63 62.5z
M285 1582q0 47 32 77.5t79 30.5q48 0 80 -30.5t32 -77.5q0 -44 -32.5 -75t-79.5 -31q-46 0 -78.5 31t-32.5 75zM653 1582q0 47 31.5 77.5t76.5 30.5q50 0 82.5 -30.5t32.5 -77.5q0 -45 -33 -75.5t-82 -30.5q-44 0 -76 31t-32 75zM574 1070q200 0 327 -125t127 -341v-154
q0 -218 -126.5 -342.5t-327.5 -124.5q-204 0 -329.5 123.5t-125.5 343.5v154q0 210 127.5 338t327.5 128zM574 915q-125 0 -200 -90.5t-75 -234.5v-127q0 -147 72.5 -235.5t202.5 -88.5q128 0 199.5 88t71.5 236v127q0 145 -73 235t-198 90z" />
    <glyph glyph-name="Omacrongrave" unicode="&#x1e50;" horiz-adv-x="1360" 
d="M809 1737h-188l-275 204h208zM310 775v-198q0 -216 100.5 -327.5t263.5 -111.5q164 0 265 111.5t101 327.5v198q0 218 -102 335.5t-264 117.5t-263 -117.5t-101 -335.5zM125 577v198q0 289 149 453.5t402 164.5t401 -165t148 -453v-198q0 -286 -149 -445.5t-404 -159.5
q-254 0 -400.5 159t-146.5 446zM973 1510h-586v114h586v-114z" />
    <glyph glyph-name="omacrongrave" unicode="&#x1e51;" horiz-adv-x="1155" 
d="M671 1485h-138l-278 354h178zM866 1232h-575v113h575v-113zM574 1070q200 0 327 -125t127 -341v-154q0 -218 -126.5 -342.5t-327.5 -124.5q-204 0 -329.5 123.5t-125.5 343.5v154q0 210 127.5 338t327.5 128zM574 915q-125 0 -200 -90.5t-75 -234.5v-127
q0 -147 72.5 -235.5t202.5 -88.5q128 0 199.5 88t71.5 236v127q0 145 -73 235t-198 90z" />
    <glyph glyph-name="Omacronacute" unicode="&#x1e52;" horiz-adv-x="1360" 
d="M545 1737l257 206h210l-272 -206h-195zM310 775v-198q0 -216 100.5 -327.5t263.5 -111.5q164 0 265 111.5t101 327.5v198q0 218 -102 335.5t-264 117.5t-263 -117.5t-101 -335.5zM125 577v198q0 289 149 453.5t402 164.5t401 -165t148 -453v-198q0 -286 -149 -445.5
t-404 -159.5q-254 0 -400.5 159t-146.5 446zM973 1510h-586v114h586v-114z" />
    <glyph glyph-name="omacronacute" unicode="&#x1e53;" horiz-adv-x="1155" 
d="M536 1487l239 354h177l-278 -354h-138zM866 1232h-575v113h575v-113zM574 1070q200 0 327 -125t127 -341v-154q0 -218 -126.5 -342.5t-327.5 -124.5q-204 0 -329.5 123.5t-125.5 343.5v154q0 210 127.5 338t327.5 128zM574 915q-125 0 -200 -90.5t-75 -234.5v-127
q0 -147 72.5 -235.5t202.5 -88.5q128 0 199.5 88t71.5 236v127q0 145 -73 235t-198 90z" />
    <glyph glyph-name="Pacute" unicode="&#x1e54;" horiz-adv-x="1195" 
d="M436 1512l257 206h210l-272 -206h-195zM177 1365h502q196 0 316.5 -119t120.5 -310q0 -192 -120 -309.5t-318 -117.5h-317v-509h-184v1365zM361 1203v-534h202q92 0 155 11t112.5 40t73 82t23.5 134q0 127 -69.5 197t-195.5 70h-301z" />
    <glyph glyph-name="pacute" unicode="&#x1e55;" horiz-adv-x="1197" 
d="M661 -16q-120 0 -194.5 48.5t-107.5 123.5h-9v-520h-181v1417h174v-167h9q29 78 111 130t204 52q183 0 292.5 -121t109.5 -331v-179q0 -212 -111 -332.5t-297 -120.5zM624 142q120 0 191.5 83.5t71.5 245.5v110q0 161 -71 246t-197 85t-197.5 -82t-71.5 -223v-181
q0 -125 75.5 -204.5t198.5 -79.5zM558 1225l239 354h177l-278 -354h-138z" />
    <glyph glyph-name="Pdotaccent" unicode="&#x1e56;" horiz-adv-x="1195" 
d="M177 1365h502q196 0 316.5 -119t120.5 -310q0 -192 -120 -309.5t-318 -117.5h-317v-509h-184v1365zM361 1203v-534h202q92 0 155 11t112.5 40t73 82t23.5 134q0 127 -69.5 197t-195.5 70h-301zM467 1600q0 47 29 76.5t75 29.5t76.5 -30t30.5 -76q0 -47 -30.5 -76
t-76.5 -29t-75 29t-29 76z" />
    <glyph glyph-name="pdotaccent" unicode="&#x1e57;" horiz-adv-x="1197" 
d="M661 -16q-120 0 -194.5 48.5t-107.5 123.5h-9v-520h-181v1417h174v-167h9q29 78 111 130t204 52q183 0 292.5 -121t109.5 -331v-179q0 -212 -111 -332.5t-297 -120.5zM624 142q120 0 191.5 83.5t71.5 245.5v110q0 161 -71 246t-197 85t-197.5 -82t-71.5 -223v-181
q0 -125 75.5 -204.5t198.5 -79.5zM495 1287q0 47 29 76.5t75 29.5t76.5 -30t30.5 -76q0 -47 -30.5 -76t-76.5 -29t-75 29t-29 76z" />
    <glyph glyph-name="Rdotaccent" unicode="&#x1e58;" horiz-adv-x="1259" 
d="M675 1365q111 0 197.5 -33t139 -90.5t79.5 -130t27 -156.5q0 -81 -22.5 -148t-60.5 -112t-80.5 -74.5t-90.5 -46.5l278 -574h-209l-251 539h-322v-539h-183v1365h498zM360 698h284q139 0 211.5 64t72.5 183q0 126 -74 192.5t-203 66.5h-291v-506zM490 1600q0 47 29 76.5
t75 29.5t76.5 -30t30.5 -76q0 -47 -30.5 -76t-76.5 -29t-75 29t-29 76z" />
    <glyph glyph-name="rdotaccent" unicode="&#x1e59;" horiz-adv-x="787" 
d="M180 0v1052h181v-162h9q11 30 30.5 58t52.5 56.5t86 46t119 17.5q31 0 66 -5v-167q-26 6 -85 6q-134 0 -205.5 -70.5t-71.5 -182.5v-649h-182zM335 1287q0 47 29 76.5t75 29.5t76.5 -30t30.5 -76q0 -47 -30.5 -76t-76.5 -29t-75 29t-29 76z" />
    <glyph glyph-name="Rdotbelow" unicode="&#x1e5a;" horiz-adv-x="1259" 
d="M484 -250q0 48 31 78.5t79 30.5t79.5 -30.5t31.5 -78.5q0 -47 -31 -76.5t-80 -29.5q-48 0 -79 29t-31 77zM675 1365q111 0 197.5 -33t139 -90.5t79.5 -130t27 -156.5q0 -81 -22.5 -148t-60.5 -112t-80.5 -74.5t-90.5 -46.5l278 -574h-209l-251 539h-322v-539h-183v1365
h498zM360 698h284q139 0 211.5 64t72.5 183q0 126 -74 192.5t-203 66.5h-291v-506z" />
    <glyph glyph-name="rdotbelow" unicode="&#x1e5b;" horiz-adv-x="787" 
d="M184 -250q0 48 31 78.5t79 30.5t79.5 -30.5t31.5 -78.5q0 -47 -31 -76.5t-80 -29.5q-48 0 -79 29t-31 77zM180 0v1052h181v-162h9q11 30 30.5 58t52.5 56.5t86 46t119 17.5q31 0 66 -5v-167q-26 6 -85 6q-134 0 -205.5 -70.5t-71.5 -182.5v-649h-182z" />
    <glyph glyph-name="Rdotbelowmacron" unicode="&#x1e5c;" horiz-adv-x="1259" 
d="M484 -250q0 48 31 78.5t79 30.5t79.5 -30.5t31.5 -78.5q0 -47 -31 -76.5t-80 -29.5q-48 0 -79 29t-31 77zM675 1365q111 0 197.5 -33t139 -90.5t79.5 -130t27 -156.5q0 -81 -22.5 -148t-60.5 -112t-80.5 -74.5t-90.5 -46.5l278 -574h-209l-251 539h-322v-539h-183v1365
h498zM360 698h284q139 0 211.5 64t72.5 183q0 126 -74 192.5t-203 66.5h-291v-506zM887 1510h-586v114h586v-114z" />
    <glyph glyph-name="rdotbelowmacron" unicode="&#x1e5d;" horiz-adv-x="787" 
d="M184 -250q0 48 31 78.5t79 30.5t79.5 -30.5t31.5 -78.5q0 -47 -31 -76.5t-80 -29.5q-48 0 -79 29t-31 77zM180 0v1052h181v-162h9q11 30 30.5 58t52.5 56.5t86 46t119 17.5q31 0 66 -5v-167q-26 6 -85 6q-134 0 -205.5 -70.5t-71.5 -182.5v-649h-182zM728 1232h-575v113
h575v-113z" />
    <glyph glyph-name="Rlinebelow" unicode="&#x1e5e;" horiz-adv-x="1259" 
d="M675 1365q111 0 197.5 -33t139 -90.5t79.5 -130t27 -156.5q0 -81 -22.5 -148t-60.5 -112t-80.5 -74.5t-90.5 -46.5l278 -574h-209l-251 539h-322v-539h-183v1365h498zM360 698h284q139 0 211.5 64t72.5 183q0 126 -74 192.5t-203 66.5h-291v-506zM890 -309h-575v113h575
v-113z" />
    <glyph glyph-name="rlinebelow" unicode="&#x1e5f;" horiz-adv-x="787" 
d="M180 0v1052h181v-162h9q11 30 30.5 58t52.5 56.5t86 46t119 17.5q31 0 66 -5v-167q-26 6 -85 6q-134 0 -205.5 -70.5t-71.5 -182.5v-649h-182zM590 -309h-575v113h575v-113z" />
    <glyph glyph-name="Sdotaccent" unicode="&#x1e60;" horiz-adv-x="1200" 
d="M73 371h184q10 -102 96 -169t235 -67q141 0 224 62.5t83 170.5q0 82 -53.5 132t-168.5 79l-237 61q-66 17 -121 44.5t-102 70t-73.5 105.5t-26.5 141q0 93 39.5 169.5t106 125.5t152 75t179.5 26q73 0 141 -15t128.5 -47t105.5 -77.5t72.5 -110t28.5 -141.5h-181
q-10 101 -86.5 164.5t-211.5 63.5q-128 0 -207.5 -58.5t-79.5 -161.5q0 -150 192 -197l233 -61q172 -44 264 -130.5t92 -242.5q0 -195 -143.5 -303t-368.5 -108q-105 0 -190.5 24.5t-140.5 64t-92.5 93t-54 107t-18.5 110.5zM493 1600q0 47 29 76.5t75 29.5t76.5 -30
t30.5 -76q0 -47 -30.5 -76t-76.5 -29t-75 29t-29 76z" />
    <glyph glyph-name="sdotaccent" unicode="&#x1e61;" horiz-adv-x="1030" 
d="M116 750q0 81 32 144t87.5 100.5t124.5 56.5t148 19q170 0 273.5 -81t103.5 -215h-168q-5 62 -60.5 107.5t-154.5 45.5q-94 0 -152.5 -42t-58.5 -116q0 -93 112 -131q37 -12 149 -32q66 -12 114 -24.5t97 -35.5t79.5 -52.5t50 -76t19.5 -105.5q0 -155 -114 -242t-306 -87
q-179 0 -287 77.5t-108 216.5h177q23 -150 226 -150q118 0 176 45.5t58 117.5q0 17 -3 32t-11 27.5t-14.5 22.5t-22.5 19t-25 15t-32 13.5t-33 11t-39 9.5t-39.5 8t-43.5 9q-49 10 -82 18t-73.5 21.5t-67 27.5t-54 36t-43 48.5t-25.5 62.5t-10 79zM411 1287q0 47 29 76.5
t75 29.5t76.5 -30t30.5 -76q0 -47 -30.5 -76t-76.5 -29t-75 29t-29 76z" />
    <glyph glyph-name="Sdotbelow" unicode="&#x1e62;" horiz-adv-x="1200" 
d="M466 -250q0 48 31 78.5t79 30.5t79.5 -30.5t31.5 -78.5q0 -47 -31 -76.5t-80 -29.5q-48 0 -79 29t-31 77zM73 371h184q10 -102 96 -169t235 -67q141 0 224 62.5t83 170.5q0 82 -53.5 132t-168.5 79l-237 61q-66 17 -121 44.5t-102 70t-73.5 105.5t-26.5 141
q0 93 39.5 169.5t106 125.5t152 75t179.5 26q73 0 141 -15t128.5 -47t105.5 -77.5t72.5 -110t28.5 -141.5h-181q-10 101 -86.5 164.5t-211.5 63.5q-128 0 -207.5 -58.5t-79.5 -161.5q0 -150 192 -197l233 -61q172 -44 264 -130.5t92 -242.5q0 -195 -143.5 -303t-368.5 -108
q-105 0 -190.5 24.5t-140.5 64t-92.5 93t-54 107t-18.5 110.5z" />
    <glyph glyph-name="sdotbelow" unicode="&#x1e63;" horiz-adv-x="1030" 
d="M405 -250q0 48 31 78.5t79 30.5t79.5 -30.5t31.5 -78.5q0 -47 -31 -76.5t-80 -29.5q-48 0 -79 29t-31 77zM116 750q0 81 32 144t87.5 100.5t124.5 56.5t148 19q170 0 273.5 -81t103.5 -215h-168q-5 62 -60.5 107.5t-154.5 45.5q-94 0 -152.5 -42t-58.5 -116
q0 -93 112 -131q37 -12 149 -32q66 -12 114 -24.5t97 -35.5t79.5 -52.5t50 -76t19.5 -105.5q0 -155 -114 -242t-306 -87q-179 0 -287 77.5t-108 216.5h177q23 -150 226 -150q118 0 176 45.5t58 117.5q0 17 -3 32t-11 27.5t-14.5 22.5t-22.5 19t-25 15t-32 13.5t-33 11
t-39 9.5t-39.5 8t-43.5 9q-49 10 -82 18t-73.5 21.5t-67 27.5t-54 36t-43 48.5t-25.5 62.5t-10 79z" />
    <glyph glyph-name="Sacutedotaccent" unicode="&#x1e64;" horiz-adv-x="1200" 
d="M246 1659q0 46 30.5 77.5t73.5 31.5q46 0 77.5 -31t31.5 -78q0 -45 -31 -75t-78 -30q-43 0 -73.5 30t-30.5 75zM560 1512l257 206h210l-272 -206h-195zM73 371h184q10 -102 96 -169t235 -67q141 0 224 62.5t83 170.5q0 82 -53.5 132t-168.5 79l-237 61q-66 17 -121 44.5
t-102 70t-73.5 105.5t-26.5 141q0 93 39.5 169.5t106 125.5t152 75t179.5 26q73 0 141 -15t128.5 -47t105.5 -77.5t72.5 -110t28.5 -141.5h-181q-10 101 -86.5 164.5t-211.5 63.5q-128 0 -207.5 -58.5t-79.5 -161.5q0 -150 192 -197l233 -61q172 -44 264 -130.5t92 -242.5
q0 -195 -143.5 -303t-368.5 -108q-105 0 -190.5 24.5t-140.5 64t-92.5 93t-54 107t-18.5 110.5z" />
    <glyph glyph-name="sacutedotaccent" unicode="&#x1e65;" horiz-adv-x="1030" 
d="M215 1467q0 47 31 78.5t76 31.5q47 0 78.5 -31.5t31.5 -78.5q0 -46 -31.5 -76.5t-78.5 -30.5q-45 0 -76 31t-31 76zM116 750q0 81 32 144t87.5 100.5t124.5 56.5t148 19q170 0 273.5 -81t103.5 -215h-168q-5 62 -60.5 107.5t-154.5 45.5q-94 0 -152.5 -42t-58.5 -116
q0 -93 112 -131q37 -12 149 -32q66 -12 114 -24.5t97 -35.5t79.5 -52.5t50 -76t19.5 -105.5q0 -155 -114 -242t-306 -87q-179 0 -287 77.5t-108 216.5h177q23 -150 226 -150q118 0 176 45.5t58 117.5q0 17 -3 32t-11 27.5t-14.5 22.5t-22.5 19t-25 15t-32 13.5t-33 11
t-39 9.5t-39.5 8t-43.5 9q-49 10 -82 18t-73.5 21.5t-67 27.5t-54 36t-43 48.5t-25.5 62.5t-10 79zM584 1225l239 354h177l-278 -354h-138z" />
    <glyph glyph-name="Scarondotaccent" unicode="&#x1e66;" horiz-adv-x="1200" 
d="M493 1849q0 47 29 76.5t75 29.5t76.5 -30t30.5 -76q0 -47 -30.5 -76t-76.5 -29t-75 29t-29 76zM73 371h184q10 -102 96 -169t235 -67q141 0 224 62.5t83 170.5q0 82 -53.5 132t-168.5 79l-237 61q-66 17 -121 44.5t-102 70t-73.5 105.5t-26.5 141q0 93 39.5 169.5
t106 125.5t152 75t179.5 26q73 0 141 -15t128.5 -47t105.5 -77.5t72.5 -110t28.5 -141.5h-181q-10 101 -86.5 164.5t-211.5 63.5q-128 0 -207.5 -58.5t-79.5 -161.5q0 -150 192 -197l233 -61q172 -44 264 -130.5t92 -242.5q0 -195 -143.5 -303t-368.5 -108
q-105 0 -190.5 24.5t-140.5 64t-92.5 93t-54 107t-18.5 110.5zM259 1714h181l156 -123h7l143 123h185l-237 -208h-183z" />
    <glyph glyph-name="scarondotaccent" unicode="&#x1e67;" horiz-adv-x="1030" 
d="M403 1714q0 47 31 78.5t76 31.5q47 0 78.5 -31.5t31.5 -78.5q0 -46 -31.5 -76.5t-78.5 -30.5q-45 0 -76 31t-31 76zM202 1566h153l154 -261h5l146 261h152l-239 -376h-121zM116 750q0 81 32 144t87.5 100.5t124.5 56.5t148 19q170 0 273.5 -81t103.5 -215h-168
q-5 62 -60.5 107.5t-154.5 45.5q-94 0 -152.5 -42t-58.5 -116q0 -93 112 -131q37 -12 149 -32q66 -12 114 -24.5t97 -35.5t79.5 -52.5t50 -76t19.5 -105.5q0 -155 -114 -242t-306 -87q-179 0 -287 77.5t-108 216.5h177q23 -150 226 -150q118 0 176 45.5t58 117.5q0 17 -3 32
t-11 27.5t-14.5 22.5t-22.5 19t-25 15t-32 13.5t-33 11t-39 9.5t-39.5 8t-43.5 9q-49 10 -82 18t-73.5 21.5t-67 27.5t-54 36t-43 48.5t-25.5 62.5t-10 79z" />
    <glyph glyph-name="Sdotbelowdotaccent" unicode="&#x1e68;" horiz-adv-x="1200" 
d="M466 -250q0 48 31 78.5t79 30.5t79.5 -30.5t31.5 -78.5q0 -47 -31 -76.5t-80 -29.5q-48 0 -79 29t-31 77zM73 371h184q10 -102 96 -169t235 -67q141 0 224 62.5t83 170.5q0 82 -53.5 132t-168.5 79l-237 61q-66 17 -121 44.5t-102 70t-73.5 105.5t-26.5 141
q0 93 39.5 169.5t106 125.5t152 75t179.5 26q73 0 141 -15t128.5 -47t105.5 -77.5t72.5 -110t28.5 -141.5h-181q-10 101 -86.5 164.5t-211.5 63.5q-128 0 -207.5 -58.5t-79.5 -161.5q0 -150 192 -197l233 -61q172 -44 264 -130.5t92 -242.5q0 -195 -143.5 -303t-368.5 -108
q-105 0 -190.5 24.5t-140.5 64t-92.5 93t-54 107t-18.5 110.5zM493 1600q0 47 29 76.5t75 29.5t76.5 -30t30.5 -76q0 -47 -30.5 -76t-76.5 -29t-75 29t-29 76z" />
    <glyph glyph-name="sdotbelowdotaccent" unicode="&#x1e69;" horiz-adv-x="1030" 
d="M405 -250q0 48 31 78.5t79 30.5t79.5 -30.5t31.5 -78.5q0 -47 -31 -76.5t-80 -29.5q-48 0 -79 29t-31 77zM116 750q0 81 32 144t87.5 100.5t124.5 56.5t148 19q170 0 273.5 -81t103.5 -215h-168q-5 62 -60.5 107.5t-154.5 45.5q-94 0 -152.5 -42t-58.5 -116
q0 -93 112 -131q37 -12 149 -32q66 -12 114 -24.5t97 -35.5t79.5 -52.5t50 -76t19.5 -105.5q0 -155 -114 -242t-306 -87q-179 0 -287 77.5t-108 216.5h177q23 -150 226 -150q118 0 176 45.5t58 117.5q0 17 -3 32t-11 27.5t-14.5 22.5t-22.5 19t-25 15t-32 13.5t-33 11
t-39 9.5t-39.5 8t-43.5 9q-49 10 -82 18t-73.5 21.5t-67 27.5t-54 36t-43 48.5t-25.5 62.5t-10 79zM411 1287q0 47 29 76.5t75 29.5t76.5 -30t30.5 -76q0 -47 -30.5 -76t-76.5 -29t-75 29t-29 76z" />
    <glyph glyph-name="Tdotaccent" unicode="&#x1e6a;" horiz-adv-x="1092" 
d="M442 1600q0 47 29 76.5t75 29.5t76.5 -30t30.5 -76q0 -47 -30.5 -76t-76.5 -29t-75 29t-29 76zM634 0h-184v1200h-412v165h1008v-165h-412v-1200z" />
    <glyph glyph-name="tdotaccent" unicode="&#x1e6b;" horiz-adv-x="754" 
d="M215 1538q0 47 29 76.5t75 29.5t76.5 -30t30.5 -76q0 -47 -30.5 -76t-76.5 -29t-75 29t-29 76zM221 1049v264h179v-264h238v-151h-238v-600q0 -91 36.5 -123t133.5 -32q49 0 83 4v-147q-45 -9 -129 -9q-93 0 -153 17.5t-93 57.5t-45.5 93t-12.5 136v603h-161v151h162z
" />
    <glyph glyph-name="Tdotbelow" unicode="&#x1e6c;" horiz-adv-x="1092" 
d="M436 -250q0 48 31 78.5t79 30.5t79.5 -30.5t31.5 -78.5q0 -47 -31 -76.5t-80 -29.5q-48 0 -79 29t-31 77zM634 0h-184v1200h-412v165h1008v-165h-412v-1200z" />
    <glyph glyph-name="tdotbelow" unicode="&#x1e6d;" horiz-adv-x="754" 
d="M318 -250q0 48 31 78.5t79 30.5t79.5 -30.5t31.5 -78.5q0 -47 -31 -76.5t-80 -29.5q-48 0 -79 29t-31 77zM221 1049v264h179v-264h238v-151h-238v-600q0 -91 36.5 -123t133.5 -32q49 0 83 4v-147q-45 -9 -129 -9q-93 0 -153 17.5t-93 57.5t-45.5 93t-12.5 136v603h-161
v151h162z" />
    <glyph glyph-name="Tlinebelow" unicode="&#x1e6e;" horiz-adv-x="1092" 
d="M842 -309h-575v113h575v-113zM634 0h-184v1200h-412v165h1008v-165h-412v-1200z" />
    <glyph glyph-name="tlinebelow" unicode="&#x1e6f;" horiz-adv-x="754" 
d="M724 -309h-575v113h575v-113zM221 1049v264h179v-264h238v-151h-238v-600q0 -91 36.5 -123t133.5 -32q49 0 83 4v-147q-45 -9 -129 -9q-93 0 -153 17.5t-93 57.5t-45.5 93t-12.5 136v603h-161v151h162z" />
    <glyph glyph-name="Tcircumflexbelow" unicode="&#x1e70;" horiz-adv-x="1092" 
d="M634 0h-184v1200h-412v165h1008v-165h-412v-1200zM209 -369l280 248h119l268 -248h-176l-152 142h-6l-161 -142h-172z" />
    <glyph glyph-name="tcircumflexbelow" unicode="&#x1e71;" horiz-adv-x="754" 
d="M221 1049v264h179v-264h238v-151h-238v-600q0 -91 36.5 -123t133.5 -32q49 0 83 4v-147q-45 -9 -129 -9q-93 0 -153 17.5t-93 57.5t-45.5 93t-12.5 136v603h-161v151h162zM91 -369l280 248h119l268 -248h-176l-152 142h-6l-161 -142h-172z" />
    <glyph glyph-name="Udieresisbelow" unicode="&#x1e72;" horiz-adv-x="1380" 
d="M349 1365v-885q0 -157 91 -249t246 -92q154 0 245 92t91 249v885h185v-891q0 -226 -143.5 -364t-377.5 -138q-233 0 -377 139.5t-144 365.5v888h184zM396 -265q0 47 32 77.5t79 30.5q48 0 80 -30.5t32 -77.5q0 -44 -32.5 -75t-79.5 -31q-46 0 -78.5 31t-32.5 75z
M764 -265q0 47 31.5 77.5t76.5 30.5q50 0 82.5 -30.5t32.5 -77.5q0 -45 -33 -75.5t-82 -30.5q-44 0 -76 31t-32 75z" />
    <glyph glyph-name="udieresisbelow" unicode="&#x1e73;" horiz-adv-x="1200" 
d="M1022 1052v-1052h-180v175h-10q-27 -76 -106.5 -134t-205.5 -58q-168 0 -264 82t-96 258v729h182v-682q0 -122 62.5 -176t165.5 -54q114 0 192 73t78 175v664h182zM306 -265q0 47 32 77.5t79 30.5q48 0 80 -30.5t32 -77.5q0 -44 -32.5 -75t-79.5 -31q-46 0 -78.5 31
t-32.5 75zM674 -265q0 47 31.5 77.5t76.5 30.5q50 0 82.5 -30.5t32.5 -77.5q0 -45 -33 -75.5t-82 -30.5q-44 0 -76 31t-32 75z" />
    <glyph glyph-name="Utildebelow" unicode="&#x1e74;" horiz-adv-x="1380" 
d="M661 -312l-8 8l-8.5 8.5t-8.5 8t-9 8t-9 6.5t-10.5 6t-10 4.5t-11 3.5t-11.5 1q-27 0 -43 -18t-20 -36.5t-6 -46.5h-120q0 88 46.5 150.5t136.5 62.5q44 0 79 -18t75 -55l19 -19t21 -19.5t18.5 -10t25.5 -5.5q34 0 52 34.5t21 75.5h119q0 -83 -50.5 -149t-131.5 -66
q-55 0 -89.5 16.5t-66.5 49.5zM349 1365v-885q0 -157 91 -249t246 -92q154 0 245 92t91 249v885h185v-891q0 -226 -143.5 -364t-377.5 -138q-233 0 -377 139.5t-144 365.5v888h184z" />
    <glyph glyph-name="utildebelow" unicode="&#x1e75;" horiz-adv-x="1200" 
d="M571 -312l-8 8l-8.5 8.5t-8.5 8t-9 8t-9 6.5t-10.5 6t-10 4.5t-11 3.5t-11.5 1q-27 0 -43 -18t-20 -36.5t-6 -46.5h-120q0 88 46.5 150.5t136.5 62.5q44 0 79 -18t75 -55l19 -19t21 -19.5t18.5 -10t25.5 -5.5q34 0 52 34.5t21 75.5h119q0 -83 -50.5 -149t-131.5 -66
q-55 0 -89.5 16.5t-66.5 49.5zM1022 1052v-1052h-180v175h-10q-27 -76 -106.5 -134t-205.5 -58q-168 0 -264 82t-96 258v729h182v-682q0 -122 62.5 -176t165.5 -54q114 0 192 73t78 175v664h182z" />
    <glyph glyph-name="Ucircumflexbelow" unicode="&#x1e76;" horiz-adv-x="1380" 
d="M349 1365v-885q0 -157 91 -249t246 -92q154 0 245 92t91 249v885h185v-891q0 -226 -143.5 -364t-377.5 -138q-233 0 -377 139.5t-144 365.5v888h184zM353 -369l280 248h119l268 -248h-176l-152 142h-6l-161 -142h-172z" />
    <glyph glyph-name="ucircumflexbelow" unicode="&#x1e77;" horiz-adv-x="1200" 
d="M1022 1052v-1052h-180v175h-10q-27 -76 -106.5 -134t-205.5 -58q-168 0 -264 82t-96 258v729h182v-682q0 -122 62.5 -176t165.5 -54q114 0 192 73t78 175v664h182zM263 -369l280 248h119l268 -248h-176l-152 142h-6l-161 -142h-172z" />
    <glyph glyph-name="Utildeacute" unicode="&#x1e78;" horiz-adv-x="1380" 
d="M555 1737l257 206h210l-272 -206h-195zM349 1365v-885q0 -157 91 -249t246 -92q154 0 245 92t91 249v885h185v-891q0 -226 -143.5 -364t-377.5 -138q-233 0 -377 139.5t-144 365.5v888h184zM661 1526l-8 8l-8.5 8.5t-8.5 8t-9 8t-9 6.5t-10.5 6t-10 4.5t-11 3.5t-11.5 1
q-27 0 -43 -18t-20 -37t-6 -47h-120q0 88 46.5 150.5t136.5 62.5q45 0 80 -17.5t74 -54.5q5 -5 19.5 -19t20.5 -19.5t18.5 -11t25.5 -5.5q34 0 52 35t21 76h119q0 -83 -50.5 -149.5t-131.5 -66.5q-55 0 -89.5 17t-66.5 50z" />
    <glyph glyph-name="utildeacute" unicode="&#x1e79;" horiz-adv-x="1200" 
d="M1022 1052v-1052h-180v175h-10q-27 -76 -106.5 -134t-205.5 -58q-168 0 -264 82t-96 258v729h182v-682q0 -122 62.5 -176t165.5 -54q114 0 192 73t78 175v664h182zM559 1487l239 354h177l-278 -354h-138zM572 1236q-13 20 -21.5 30.5t-26.5 22t-38 11.5q-63 0 -70 -127
h-121q0 108 50 181t135 73q50 0 85.5 -18.5t67.5 -63.5q4 -5 11 -16.5t11 -17.5t11.5 -15t14 -13t16.5 -7.5t21 -3.5q32 0 50.5 42.5t22.5 94.5h119q0 -99 -53.5 -177t-128.5 -78q-57 0 -93 19.5t-63 62.5z" />
    <glyph glyph-name="Umacrondieresis" unicode="&#x1e7a;" horiz-adv-x="1380" 
d="M405 1838q0 45 30 74t76 29q47 0 77.5 -29t30.5 -74q0 -44 -30.5 -73.5t-77.5 -29.5q-46 0 -76 29.5t-30 73.5zM761 1838q0 45 30 74t75 29q48 0 79 -29t31 -74q0 -44 -31 -73.5t-79 -29.5q-45 0 -75 29.5t-30 73.5zM349 1365v-885q0 -157 91 -249t246 -92q154 0 245 92
t91 249v885h185v-891q0 -226 -143.5 -364t-377.5 -138q-233 0 -377 139.5t-144 365.5v888h184zM983 1510h-586v114h586v-114z" />
    <glyph glyph-name="umacrondieresis" unicode="&#x1e7b;" horiz-adv-x="1200" 
d="M1022 1052v-1052h-180v175h-10q-27 -76 -106.5 -134t-205.5 -58q-168 0 -264 82t-96 258v729h182v-682q0 -122 62.5 -176t165.5 -54q114 0 192 73t78 175v664h182zM889 1232h-575v113h575v-113zM308 1582q0 47 32 77.5t79 30.5q48 0 80 -30.5t32 -77.5q0 -44 -32.5 -75
t-79.5 -31q-46 0 -78.5 31t-32.5 75zM676 1582q0 47 31.5 77.5t76.5 30.5q50 0 82.5 -30.5t32.5 -77.5q0 -45 -33 -75.5t-82 -30.5q-44 0 -76 31t-32 75z" />
    <glyph glyph-name="Vtilde" unicode="&#x1e7c;" horiz-adv-x="1242" 
d="M592 1526l-8 8l-8.5 8.5t-8.5 8t-9 8t-9 6.5t-10.5 6t-10 4.5t-11 3.5t-11.5 1q-27 0 -43 -18t-20 -37t-6 -47h-120q0 88 46.5 150.5t136.5 62.5q45 0 80 -17.5t74 -54.5q5 -5 19.5 -19t20.5 -19.5t18.5 -11t25.5 -5.5q34 0 52 35t21 76h119q0 -83 -50.5 -149.5
t-131.5 -66.5q-55 0 -89.5 17t-66.5 50zM710 0h-194l-487 1365h210l372 -1146h10l369 1146h209z" />
    <glyph glyph-name="vtilde" unicode="&#x1e7d;" horiz-adv-x="1025" 
d="M485 1236q-13 20 -21.5 30.5t-26.5 22t-38 11.5q-63 0 -70 -127h-121q0 108 50 181t135 73q50 0 85.5 -18.5t67.5 -63.5q4 -5 11 -16.5t11 -17.5t11.5 -15t14 -13t16.5 -7.5t21 -3.5q32 0 50.5 42.5t22.5 94.5h119q0 -99 -53.5 -177t-128.5 -78q-57 0 -93 19.5t-63 62.5z
M406 0l-370 1052h200l259 -863h7l279 863h193l-381 -1052h-187z" />
    <glyph glyph-name="Vdotbelow" unicode="&#x1e7e;" horiz-adv-x="1242" 
d="M511 -250q0 48 31 78.5t79 30.5t79.5 -30.5t31.5 -78.5q0 -47 -31 -76.5t-80 -29.5q-48 0 -79 29t-31 77zM710 0h-194l-487 1365h210l372 -1146h10l369 1146h209z" />
    <glyph glyph-name="vdotbelow" unicode="&#x1e7f;" horiz-adv-x="1025" 
d="M403 -250q0 48 31 78.5t79 30.5t79.5 -30.5t31.5 -78.5q0 -47 -31 -76.5t-80 -29.5q-48 0 -79 29t-31 77zM406 0l-370 1052h200l259 -863h7l279 863h193l-381 -1052h-187z" />
    <glyph glyph-name="Wgrave" unicode="&#x1e80;" horiz-adv-x="1715" 
d="M987 1512h-188l-275 204h208zM559 0h-165l-374 1365h212l248 -1082h9l265 1082h186l265 -1082h10l248 1082h211l-374 -1365h-167l-282 1063h-9z" />
    <glyph glyph-name="wgrave" unicode="&#x1e81;" horiz-adv-x="1496" 
d="M842 1225h-138l-278 354h178zM1438 1052l-280 -1052h-180l-237 803h-5l-231 -803h-181l-295 1052h201l186 -825h7l230 825h170l237 -825h7l190 825h181z" />
    <glyph glyph-name="Wacute" unicode="&#x1e82;" horiz-adv-x="1715" 
d="M723 1512l257 206h210l-272 -206h-195zM559 0h-165l-374 1365h212l248 -1082h9l265 1082h186l265 -1082h10l248 1082h211l-374 -1365h-167l-282 1063h-9z" />
    <glyph glyph-name="wacute" unicode="&#x1e83;" horiz-adv-x="1496" 
d="M707 1225l239 354h177l-278 -354h-138zM1438 1052l-280 -1052h-180l-237 803h-5l-231 -803h-181l-295 1052h201l186 -825h7l230 825h170l237 -825h7l190 825h181z" />
    <glyph glyph-name="Wdieresis" unicode="&#x1e84;" horiz-adv-x="1715" 
d="M572 1581q0 45 30 74t76 29q47 0 77.5 -29t30.5 -74q0 -44 -30.5 -73.5t-77.5 -29.5q-46 0 -76 29.5t-30 73.5zM928 1581q0 45 30 74t75 29q48 0 79 -29t31 -74q0 -44 -31 -73.5t-79 -29.5q-45 0 -75 29.5t-30 73.5zM559 0h-165l-374 1365h212l248 -1082h9l265 1082h186
l265 -1082h10l248 1082h211l-374 -1365h-167l-282 1063h-9z" />
    <glyph glyph-name="wdieresis" unicode="&#x1e85;" horiz-adv-x="1496" 
d="M456 1304q0 47 32 77.5t79 30.5q48 0 80 -30.5t32 -77.5q0 -44 -32.5 -75t-79.5 -31q-46 0 -78.5 31t-32.5 75zM824 1304q0 47 31.5 77.5t76.5 30.5q50 0 82.5 -30.5t32.5 -77.5q0 -45 -33 -75.5t-82 -30.5q-44 0 -76 31t-32 75zM1438 1052l-280 -1052h-180l-237 803h-5
l-231 -803h-181l-295 1052h201l186 -825h7l230 825h170l237 -825h7l190 825h181z" />
    <glyph glyph-name="Wdotaccent" unicode="&#x1e86;" horiz-adv-x="1715" 
d="M754 1600q0 47 29 76.5t75 29.5t76.5 -30t30.5 -76q0 -47 -30.5 -76t-76.5 -29t-75 29t-29 76zM559 0h-165l-374 1365h212l248 -1082h9l265 1082h186l265 -1082h10l248 1082h211l-374 -1365h-167l-282 1063h-9z" />
    <glyph glyph-name="wdotaccent" unicode="&#x1e87;" horiz-adv-x="1496" 
d="M644 1287q0 47 29 76.5t75 29.5t76.5 -30t30.5 -76q0 -47 -30.5 -76t-76.5 -29t-75 29t-29 76zM1438 1052l-280 -1052h-180l-237 803h-5l-231 -803h-181l-295 1052h201l186 -825h7l230 825h170l237 -825h7l190 825h181z" />
    <glyph glyph-name="Wdotbelow" unicode="&#x1e88;" horiz-adv-x="1715" 
d="M747 -250q0 48 31 78.5t79 30.5t79.5 -30.5t31.5 -78.5q0 -47 -31 -76.5t-80 -29.5q-48 0 -79 29t-31 77zM559 0h-165l-374 1365h212l248 -1082h9l265 1082h186l265 -1082h10l248 1082h211l-374 -1365h-167l-282 1063h-9z" />
    <glyph glyph-name="wdotbelow" unicode="&#x1e89;" horiz-adv-x="1496" 
d="M638 -250q0 48 31 78.5t79 30.5t79.5 -30.5t31.5 -78.5q0 -47 -31 -76.5t-80 -29.5q-48 0 -79 29t-31 77zM1438 1052l-280 -1052h-180l-237 803h-5l-231 -803h-181l-295 1052h201l186 -825h7l230 825h170l237 -825h7l190 825h181z" />
    <glyph glyph-name="Xdotaccent" unicode="&#x1e8a;" horiz-adv-x="1168" 
d="M1137 1365l-451 -689l442 -676h-221l-335 532h-10l-338 -532h-207l444 688l-438 677h221l337 -534h10l335 534h211zM480 1600q0 47 29 76.5t75 29.5t76.5 -30t30.5 -76q0 -47 -30.5 -76t-76.5 -29t-75 29t-29 76z" />
    <glyph glyph-name="xdotaccent" unicode="&#x1e8b;" horiz-adv-x="1054" 
d="M763 0l-246 389h-7l-247 -389h-202l350 520l-354 532h216l240 -387h8l247 387h206l-356 -516l359 -536h-214zM423 1287q0 47 29 76.5t75 29.5t76.5 -30t30.5 -76q0 -47 -30.5 -76t-76.5 -29t-75 29t-29 76z" />
    <glyph glyph-name="Xdieresis" unicode="&#x1e8c;" horiz-adv-x="1168" 
d="M1137 1365l-451 -689l442 -676h-221l-335 532h-10l-338 -532h-207l444 688l-438 677h221l337 -534h10l335 534h211zM298 1581q0 45 30 74t76 29q47 0 77.5 -29t30.5 -74q0 -44 -30.5 -73.5t-77.5 -29.5q-46 0 -76 29.5t-30 73.5zM654 1581q0 45 30 74t75 29q48 0 79 -29
t31 -74q0 -44 -31 -73.5t-79 -29.5q-45 0 -75 29.5t-30 73.5z" />
    <glyph glyph-name="xdieresis" unicode="&#x1e8d;" horiz-adv-x="1054" 
d="M763 0l-246 389h-7l-247 -389h-202l350 520l-354 532h216l240 -387h8l247 387h206l-356 -516l359 -536h-214zM235 1304q0 47 32 77.5t79 30.5q48 0 80 -30.5t32 -77.5q0 -44 -32.5 -75t-79.5 -31q-46 0 -78.5 31t-32.5 75zM603 1304q0 47 31.5 77.5t76.5 30.5
q50 0 82.5 -30.5t32.5 -77.5q0 -45 -33 -75.5t-82 -30.5q-44 0 -76 31t-32 75z" />
    <glyph glyph-name="Ydotaccent" unicode="&#x1e8e;" horiz-adv-x="1131" 
d="M649 0h-183v578l-456 787h209l334 -602h9l336 602h208l-457 -785v-580zM462 1600q0 47 29 76.5t75 29.5t76.5 -30t30.5 -76q0 -47 -30.5 -76t-76.5 -29t-75 29t-29 76z" />
    <glyph glyph-name="ydotaccent" unicode="&#x1e8f;" horiz-adv-x="1080" 
d="M1005 1052q-371 -1050 -372 -1053l-27 -72q-17 -46 -32 -80t-37.5 -72t-49 -64.5t-61.5 -49t-80.5 -33.5t-100.5 -11q-62 0 -111 9v147q28 -5 79 -5q89 0 135.5 40.5t68.5 124.5l16 54l-386 1065h201l278 -873h8l279 873h192zM436 1287q0 47 29 76.5t75 29.5t76.5 -30
t30.5 -76q0 -47 -30.5 -76t-76.5 -29t-75 29t-29 76z" />
    <glyph glyph-name="Zcircumflex" unicode="&#x1e90;" horiz-adv-x="1195" 
d="M102 0v130l723 1059v12h-698v164h926v-128l-719 -1061v-11h736v-165h-968zM271 1500l280 245h118l268 -245h-174l-153 140h-7l-161 -140h-171z" />
    <glyph glyph-name="zcircumflex" unicode="&#x1e91;" horiz-adv-x="1015" 
d="M197 1222l250 376h121l239 -376h-153l-146 252h-4l-154 -252h-153zM113 0v122l556 763v10h-558v157h783v-125l-553 -759v-9h559v-159h-787z" />
    <glyph glyph-name="Zdotbelow" unicode="&#x1e92;" horiz-adv-x="1195" 
d="M487 -250q0 48 31 78.5t79 30.5t79.5 -30.5t31.5 -78.5q0 -47 -31 -76.5t-80 -29.5q-48 0 -79 29t-31 77zM102 0v130l723 1059v12h-698v164h926v-128l-719 -1061v-11h736v-165h-968z" />
    <glyph glyph-name="zdotbelow" unicode="&#x1e93;" horiz-adv-x="1015" 
d="M398 -250q0 48 31 78.5t79 30.5t79.5 -30.5t31.5 -78.5q0 -47 -31 -76.5t-80 -29.5q-48 0 -79 29t-31 77zM113 0v122l556 763v10h-558v157h783v-125l-553 -759v-9h559v-159h-787z" />
    <glyph glyph-name="Zlinebelow" unicode="&#x1e94;" horiz-adv-x="1195" 
d="M102 0v130l723 1059v12h-698v164h926v-128l-719 -1061v-11h736v-165h-968zM893 -309h-575v113h575v-113z" />
    <glyph glyph-name="zlinebelow" unicode="&#x1e95;" horiz-adv-x="1015" 
d="M804 -309h-575v113h575v-113zM113 0v122l556 763v10h-558v157h783v-125l-553 -759v-9h559v-159h-787z" />
    <glyph glyph-name="hlinebelow" unicode="&#x1e96;" horiz-adv-x="1213" 
d="M171 0v1437h181v-576h9q7 25 20.5 50t40.5 54.5t61.5 51.5t87.5 37t116 15q158 0 255.5 -91t97.5 -262v-716h-182v661q0 122 -62 186.5t-170 64.5q-131 0 -202.5 -90.5t-71.5 -232.5v-589h-181zM895 -309h-575v113h575v-113z" />
    <glyph glyph-name="tdieresis" unicode="&#x1e97;" horiz-adv-x="754" 
d="M221 1049v264h179v-264h238v-151h-238v-600q0 -91 36.5 -123t133.5 -32q49 0 83 4v-147q-45 -9 -129 -9q-93 0 -153 17.5t-93 57.5t-45.5 93t-12.5 136v603h-161v151h162zM27 1555q0 47 32 77.5t79 30.5q48 0 80 -30.5t32 -77.5q0 -44 -32.5 -75t-79.5 -31
q-46 0 -78.5 31t-32.5 75zM395 1555q0 47 31.5 77.5t76.5 30.5q50 0 82.5 -30.5t32.5 -77.5q0 -45 -33 -75.5t-82 -30.5q-44 0 -76 31t-32 75z" />
    <glyph glyph-name="wring" unicode="&#x1e98;" horiz-adv-x="1496" 
d="M1438 1052l-280 -1052h-180l-237 803h-5l-231 -803h-181l-295 1052h201l186 -825h7l230 825h170l237 -825h7l190 825h181zM749 1194q-81 0 -136.5 54t-55.5 135q0 80 55.5 134t136.5 54t136.5 -54t55.5 -134q0 -81 -55.5 -135t-136.5 -54zM648 1382q0 -43 29 -72.5
t72 -29.5t71.5 29.5t28.5 72.5t-28.5 72.5t-71.5 29.5t-72 -29.5t-29 -72.5z" />
    <glyph glyph-name="yring" unicode="&#x1e99;" horiz-adv-x="1080" 
d="M1005 1052q-371 -1050 -372 -1053l-27 -72q-17 -46 -32 -80t-37.5 -72t-49 -64.5t-61.5 -49t-80.5 -33.5t-100.5 -11q-62 0 -111 9v147q28 -5 79 -5q89 0 135.5 40.5t68.5 124.5l16 54l-386 1065h201l278 -873h8l279 873h192zM541 1194q-81 0 -136.5 54t-55.5 135
q0 80 55.5 134t136.5 54t136.5 -54t55.5 -134q0 -81 -55.5 -135t-136.5 -54zM440 1382q0 -43 29 -72.5t72 -29.5t71.5 29.5t28.5 72.5t-28.5 72.5t-71.5 29.5t-72 -29.5t-29 -72.5z" />
    <glyph glyph-name="Adotbelow" unicode="&#x1ea0;" horiz-adv-x="1243" 
d="M222 0h-187l483 1365h191l482 -1365h-197l-134 402h-502zM613 1152h-8l-200 -601h408zM511 -250q0 48 31 78.5t79 30.5t79.5 -30.5t31.5 -78.5q0 -47 -31 -76.5t-80 -29.5q-48 0 -79 29t-31 77z" />
    <glyph glyph-name="adotbelow" unicode="&#x1ea1;" horiz-adv-x="1108" 
d="M452 -17q-154 0 -249 88.5t-95 234.5q0 141 96 225t274 84h275v104q0 98 -57.5 145.5t-162.5 47.5q-175 0 -210 -122h-175q12 134 113.5 206.5t277.5 72.5q85 0 154 -19t124.5 -59t86.5 -109.5t31 -163.5v-718h-174v139h-8q-95 -156 -301 -156zM502 134q107 0 179 64
t72 160v119h-260q-102 0 -151 -45t-49 -120q0 -85 60.5 -131.5t148.5 -46.5zM444 -250q0 48 31 78.5t79 30.5t79.5 -30.5t31.5 -78.5q0 -47 -31 -76.5t-80 -29.5q-48 0 -79 29t-31 77z" />
    </font>
</defs>
</svg>
